<?xml version="1.0" encoding="UTF-8" standalone="no"?>
<!DOCTYPE svg PUBLIC "-//W3C//DTD SVG 1.1//EN"
 "http://www.w3.org/Graphics/SVG/1.1/DTD/svg11.dtd">
<!-- Generated by graphviz version 2.38.0 (20140413.2041)
 -->
<!-- Title: torcmuxer.h Pages: 1 -->
<svg width="504pt" height="196pt"
 viewBox="0.00 0.00 503.50 196.00" xmlns="http://www.w3.org/2000/svg" xmlns:xlink="http://www.w3.org/1999/xlink">
<g id="graph0" class="graph" transform="scale(1 1) rotate(0) translate(4 192)">
<title>torcmuxer.h</title>
<polygon fill="white" stroke="none" points="-4,4 -4,-192 499.5,-192 499.5,4 -4,4"/>
<!-- Node1 -->
<g id="node1" class="node"><title>Node1</title>
<polygon fill="#bfbfbf" stroke="black" points="221.5,-168.5 221.5,-187.5 295.5,-187.5 295.5,-168.5 221.5,-168.5"/>
<text text-anchor="middle" x="258.5" y="-175.5" font-family="Helvetica,sans-Serif" font-size="10.00">torcmuxer.h</text>
</g>
<!-- Node2 -->
<g id="node2" class="node"><title>Node2</title>
<g id="a_node2"><a xlink:href="../../d3/d38/torccamera_8h.html" target="_top" xlink:title="torccamera.h">
<polygon fill="white" stroke="black" points="167,-112.5 167,-131.5 248,-131.5 248,-112.5 167,-112.5"/>
<text text-anchor="middle" x="207.5" y="-119.5" font-family="Helvetica,sans-Serif" font-size="10.00">torccamera.h</text>
</a>
</g>
</g>
<!-- Node1&#45;&gt;Node2 -->
<g id="edge1" class="edge"><title>Node1&#45;&gt;Node2</title>
<path fill="none" stroke="midnightblue" d="M243.122,-160.718C234.133,-151.2 223.141,-139.561 215.765,-131.751"/>
<polygon fill="midnightblue" stroke="midnightblue" points="240.668,-163.216 250.078,-168.083 245.757,-158.41 240.668,-163.216"/>
</g>
<!-- Node10 -->
<g id="node10" class="node"><title>Node10</title>
<g id="a_node10"><a xlink:href="../../d3/d5e/torcmuxer_8cpp.html" target="_top" xlink:title="torcmuxer.cpp">
<polygon fill="white" stroke="black" points="266.5,-112.5 266.5,-131.5 352.5,-131.5 352.5,-112.5 266.5,-112.5"/>
<text text-anchor="middle" x="309.5" y="-119.5" font-family="Helvetica,sans-Serif" font-size="10.00">torcmuxer.cpp</text>
</a>
</g>
</g>
<!-- Node1&#45;&gt;Node10 -->
<g id="edge12" class="edge"><title>Node1&#45;&gt;Node10</title>
<path fill="none" stroke="midnightblue" d="M273.878,-160.718C282.867,-151.2 293.859,-139.561 301.235,-131.751"/>
<polygon fill="midnightblue" stroke="midnightblue" points="271.243,-158.41 266.922,-168.083 276.332,-163.216 271.243,-158.41"/>
</g>
<!-- Node3 -->
<g id="node3" class="node"><title>Node3</title>
<g id="a_node3"><a xlink:href="../../d0/dd4/torcpicamera_8h.html" target="_top" xlink:title="torcpicamera.h">
<polygon fill="white" stroke="black" points="27,-56.5 27,-75.5 116,-75.5 116,-56.5 27,-56.5"/>
<text text-anchor="middle" x="71.5" y="-63.5" font-family="Helvetica,sans-Serif" font-size="10.00">torcpicamera.h</text>
</a>
</g>
</g>
<!-- Node2&#45;&gt;Node3 -->
<g id="edge2" class="edge"><title>Node2&#45;&gt;Node3</title>
<path fill="none" stroke="midnightblue" d="M176.365,-108.638C150.843,-98.504 115.391,-84.4274 92.9488,-75.5164"/>
<polygon fill="midnightblue" stroke="midnightblue" points="175.365,-112.006 185.95,-112.444 177.948,-105.5 175.365,-112.006"/>
</g>
<!-- Node5 -->
<g id="node5" class="node"><title>Node5</title>
<g id="a_node5"><a xlink:href="../../d2/d57/torccameraoutput_8h.html" target="_top" xlink:title="torccameraoutput.h">
<polygon fill="white" stroke="black" points="194,-56.5 194,-75.5 307,-75.5 307,-56.5 194,-56.5"/>
<text text-anchor="middle" x="250.5" y="-63.5" font-family="Helvetica,sans-Serif" font-size="10.00">torccameraoutput.h</text>
</a>
</g>
</g>
<!-- Node2&#45;&gt;Node5 -->
<g id="edge4" class="edge"><title>Node2&#45;&gt;Node5</title>
<path fill="none" stroke="midnightblue" d="M220.922,-104.144C228.414,-94.7357 237.437,-83.4046 243.532,-75.7511"/>
<polygon fill="midnightblue" stroke="midnightblue" points="218.092,-102.08 214.601,-112.083 223.568,-106.44 218.092,-102.08"/>
</g>
<!-- Node6 -->
<g id="node6" class="node"><title>Node6</title>
<g id="a_node6"><a xlink:href="../../d0/d11/torccamera_8cpp.html" target="_top" xlink:title="torccamera.cpp">
<polygon fill="white" stroke="black" points="119.5,-0.5 119.5,-19.5 211.5,-19.5 211.5,-0.5 119.5,-0.5"/>
<text text-anchor="middle" x="165.5" y="-7.5" font-family="Helvetica,sans-Serif" font-size="10.00">torccamera.cpp</text>
</a>
</g>
</g>
<!-- Node2&#45;&gt;Node6 -->
<g id="edge8" class="edge"><title>Node2&#45;&gt;Node6</title>
<path fill="none" stroke="midnightblue" d="M197.503,-103.349C193.139,-95.191 188.187,-85.274 184.5,-76 176.681,-56.3349 170.464,-32.1888 167.462,-19.5853"/>
<polygon fill="midnightblue" stroke="midnightblue" points="194.523,-105.192 202.411,-112.265 200.655,-101.817 194.523,-105.192"/>
</g>
<!-- Node9 -->
<g id="node9" class="node"><title>Node9</title>
<g id="a_node9"><a xlink:href="../../d9/dd8/torccamerathread_8h.html" target="_top" xlink:title="torccamerathread.h">
<polygon fill="white" stroke="black" points="325,-56.5 325,-75.5 438,-75.5 438,-56.5 325,-56.5"/>
<text text-anchor="middle" x="381.5" y="-63.5" font-family="Helvetica,sans-Serif" font-size="10.00">torccamerathread.h</text>
</a>
</g>
</g>
<!-- Node2&#45;&gt;Node9 -->
<g id="edge9" class="edge"><title>Node2&#45;&gt;Node9</title>
<path fill="none" stroke="midnightblue" d="M244.761,-109.436C277.567,-99.2551 324.583,-84.664 354.058,-75.5164"/>
<polygon fill="midnightblue" stroke="midnightblue" points="243.584,-106.137 235.071,-112.444 245.659,-112.822 243.584,-106.137"/>
</g>
<!-- Node4 -->
<g id="node4" class="node"><title>Node4</title>
<g id="a_node4"><a xlink:href="../../d7/de1/torcpicamera_8cpp.html" target="_top" xlink:title="torcpicamera.cpp">
<polygon fill="white" stroke="black" points="0,-0.5 0,-19.5 101,-19.5 101,-0.5 0,-0.5"/>
<text text-anchor="middle" x="50.5" y="-7.5" font-family="Helvetica,sans-Serif" font-size="10.00">torcpicamera.cpp</text>
</a>
</g>
</g>
<!-- Node3&#45;&gt;Node4 -->
<g id="edge3" class="edge"><title>Node3&#45;&gt;Node4</title>
<path fill="none" stroke="midnightblue" d="M64.3793,-46.6897C60.8402,-37.589 56.7277,-27.0141 53.9032,-19.7511"/>
<polygon fill="midnightblue" stroke="midnightblue" points="61.1457,-48.0315 68.0323,-56.083 67.6698,-45.4944 61.1457,-48.0315"/>
</g>
<!-- Node5&#45;&gt;Node6 -->
<g id="edge5" class="edge"><title>Node5&#45;&gt;Node6</title>
<path fill="none" stroke="midnightblue" d="M228.306,-50.9005C212.72,-40.9986 192.37,-28.0705 179.123,-19.6545"/>
<polygon fill="midnightblue" stroke="midnightblue" points="226.526,-53.9158 236.843,-56.324 230.279,-48.0073 226.526,-53.9158"/>
</g>
<!-- Node7 -->
<g id="node7" class="node"><title>Node7</title>
<g id="a_node7"><a xlink:href="../../d1/d3b/torccameraoutput_8cpp.html" target="_top" xlink:title="torccameraoutput.cpp">
<polygon fill="white" stroke="black" points="229.5,-0.5 229.5,-19.5 353.5,-19.5 353.5,-0.5 229.5,-0.5"/>
<text text-anchor="middle" x="291.5" y="-7.5" font-family="Helvetica,sans-Serif" font-size="10.00">torccameraoutput.cpp</text>
</a>
</g>
</g>
<!-- Node5&#45;&gt;Node7 -->
<g id="edge6" class="edge"><title>Node5&#45;&gt;Node7</title>
<path fill="none" stroke="midnightblue" d="M263.517,-47.8554C270.617,-38.5048 279.104,-27.3265 284.856,-19.7511"/>
<polygon fill="midnightblue" stroke="midnightblue" points="260.53,-46.002 257.27,-56.083 266.105,-50.235 260.53,-46.002"/>
</g>
<!-- Node8 -->
<g id="node8" class="node"><title>Node8</title>
<g id="a_node8"><a xlink:href="../../d0/d44/torccamerathread_8cpp.html" target="_top" xlink:title="torccamerathread.cpp">
<polygon fill="white" stroke="black" points="371.5,-0.5 371.5,-19.5 495.5,-19.5 495.5,-0.5 371.5,-0.5"/>
<text text-anchor="middle" x="433.5" y="-7.5" font-family="Helvetica,sans-Serif" font-size="10.00">torccamerathread.cpp</text>
</a>
</g>
</g>
<!-- Node5&#45;&gt;Node8 -->
<g id="edge7" class="edge"><title>Node5&#45;&gt;Node8</title>
<path fill="none" stroke="midnightblue" d="M289.243,-53.5677C323.765,-43.381 373.505,-28.7034 404.639,-19.5164"/>
<polygon fill="midnightblue" stroke="midnightblue" points="288.097,-50.2564 279.497,-56.4435 290.079,-56.9702 288.097,-50.2564"/>
</g>
<!-- Node9&#45;&gt;Node7 -->
<g id="edge10" class="edge"><title>Node9&#45;&gt;Node7</title>
<path fill="none" stroke="midnightblue" d="M358.462,-51.1774C341.901,-41.2407 320.082,-28.1492 305.924,-19.6545"/>
<polygon fill="midnightblue" stroke="midnightblue" points="356.664,-54.1802 367.04,-56.324 360.266,-48.1777 356.664,-54.1802"/>
</g>
<!-- Node9&#45;&gt;Node8 -->
<g id="edge11" class="edge"><title>Node9&#45;&gt;Node8</title>
<path fill="none" stroke="midnightblue" d="M397.179,-48.7175C406.345,-39.1997 417.553,-27.5608 425.073,-19.7511"/>
<polygon fill="midnightblue" stroke="midnightblue" points="394.502,-46.452 390.087,-56.083 399.544,-51.3075 394.502,-46.452"/>
</g>
</g>
</svg>
