<?xml version="1.0" encoding="UTF-8" standalone="no"?>
<!DOCTYPE svg PUBLIC "-//W3C//DTD SVG 1.1//EN"
 "http://www.w3.org/Graphics/SVG/1.1/DTD/svg11.dtd">
<!-- Generated by graphviz version 2.38.0 (20140413.2041)
 -->
<!-- Title: torclogiccontrol.cpp Pages: 1 -->
<svg width="1040pt" height="420pt"
 viewBox="0.00 0.00 1040.36 420.00" xmlns="http://www.w3.org/2000/svg" xmlns:xlink="http://www.w3.org/1999/xlink">
<g id="graph0" class="graph" transform="scale(1 1) rotate(0) translate(4 416)">
<title>torclogiccontrol.cpp</title>
<polygon fill="white" stroke="none" points="-4,4 -4,-416 1036.36,-416 1036.36,4 -4,4"/>
<!-- Node1 -->
<g id="node1" class="node"><title>Node1</title>
<polygon fill="#bfbfbf" stroke="black" points="478.5,-392.5 478.5,-411.5 588.5,-411.5 588.5,-392.5 478.5,-392.5"/>
<text text-anchor="middle" x="533.5" y="-399.5" font-family="Helvetica,sans-Serif" font-size="10.00">torclogiccontrol.cpp</text>
</g>
<!-- Node2 -->
<g id="node2" class="node"><title>Node2</title>
<polygon fill="white" stroke="#bfbfbf" points="316.5,-336.5 316.5,-355.5 374.5,-355.5 374.5,-336.5 316.5,-336.5"/>
<text text-anchor="middle" x="345.5" y="-343.5" font-family="Helvetica,sans-Serif" font-size="10.00">QtGlobal</text>
</g>
<!-- Node1&#45;&gt;Node2 -->
<g id="edge1" class="edge"><title>Node1&#45;&gt;Node2</title>
<path fill="none" stroke="midnightblue" d="M503.711,-392.444C471.483,-383.186 419.965,-368.389 384.524,-358.209"/>
<polygon fill="midnightblue" stroke="midnightblue" points="385.11,-354.736 374.532,-355.339 383.177,-361.464 385.11,-354.736"/>
</g>
<!-- Node3 -->
<g id="node3" class="node"><title>Node3</title>
<g id="a_node3"><a xlink:href="../../d4/df9/torclogging_8h.html" target="_top" xlink:title="torclogging.h">
<polygon fill="white" stroke="black" points="392,-336.5 392,-355.5 471,-355.5 471,-336.5 392,-336.5"/>
<text text-anchor="middle" x="431.5" y="-343.5" font-family="Helvetica,sans-Serif" font-size="10.00">torclogging.h</text>
</a>
</g>
</g>
<!-- Node1&#45;&gt;Node3 -->
<g id="edge2" class="edge"><title>Node1&#45;&gt;Node3</title>
<path fill="none" stroke="midnightblue" d="M517.112,-392.324C500.829,-383.703 475.633,-370.364 456.784,-360.386"/>
<polygon fill="midnightblue" stroke="midnightblue" points="458.323,-357.24 447.847,-355.655 455.048,-363.427 458.323,-357.24"/>
</g>
<!-- Node7 -->
<g id="node7" class="node"><title>Node7</title>
<g id="a_node7"><a xlink:href="../../dd/d69/torcinput_8h.html" target="_top" xlink:title="torcinput.h">
<polygon fill="white" stroke="black" points="499.5,-280.5 499.5,-299.5 567.5,-299.5 567.5,-280.5 499.5,-280.5"/>
<text text-anchor="middle" x="533.5" y="-287.5" font-family="Helvetica,sans-Serif" font-size="10.00">torcinput.h</text>
</a>
</g>
</g>
<!-- Node1&#45;&gt;Node7 -->
<g id="edge6" class="edge"><title>Node1&#45;&gt;Node7</title>
<path fill="none" stroke="midnightblue" d="M533.5,-392.368C533.5,-374.617 533.5,-333.666 533.5,-309.597"/>
<polygon fill="midnightblue" stroke="midnightblue" points="537,-309.591 533.5,-299.591 530,-309.591 537,-309.591"/>
</g>
<!-- Node29 -->
<g id="node29" class="node"><title>Node29</title>
<g id="a_node29"><a xlink:href="../../dc/d01/torcoutput_8h.html" target="_top" xlink:title="torcoutput.h">
<polygon fill="white" stroke="black" points="585.5,-280.5 585.5,-299.5 661.5,-299.5 661.5,-280.5 585.5,-280.5"/>
<text text-anchor="middle" x="623.5" y="-287.5" font-family="Helvetica,sans-Serif" font-size="10.00">torcoutput.h</text>
</a>
</g>
</g>
<!-- Node1&#45;&gt;Node29 -->
<g id="edge37" class="edge"><title>Node1&#45;&gt;Node29</title>
<path fill="none" stroke="midnightblue" d="M540.562,-392.368C555.546,-374.055 590.733,-331.049 610.113,-307.362"/>
<polygon fill="midnightblue" stroke="midnightblue" points="612.847,-309.547 616.471,-299.591 607.429,-305.115 612.847,-309.547"/>
</g>
<!-- Node30 -->
<g id="node30" class="node"><title>Node30</title>
<g id="a_node30"><a xlink:href="../../dd/df8/torclogiccontrol_8h.html" target="_top" xlink:title="torclogiccontrol.h">
<polygon fill="white" stroke="black" points="649,-336.5 649,-355.5 748,-355.5 748,-336.5 649,-336.5"/>
<text text-anchor="middle" x="698.5" y="-343.5" font-family="Helvetica,sans-Serif" font-size="10.00">torclogiccontrol.h</text>
</a>
</g>
</g>
<!-- Node1&#45;&gt;Node30 -->
<g id="edge43" class="edge"><title>Node1&#45;&gt;Node30</title>
<path fill="none" stroke="midnightblue" d="M559.645,-392.444C587.523,-383.32 631.848,-368.813 662.9,-358.651"/>
<polygon fill="midnightblue" stroke="midnightblue" points="664.062,-361.953 672.478,-355.516 661.885,-355.3 664.062,-361.953"/>
</g>
<!-- Node4 -->
<g id="node4" class="node"><title>Node4</title>
<polygon fill="white" stroke="#bfbfbf" points="242,-280.5 242,-299.5 295,-299.5 295,-280.5 242,-280.5"/>
<text text-anchor="middle" x="268.5" y="-287.5" font-family="Helvetica,sans-Serif" font-size="10.00">stdint.h</text>
</g>
<!-- Node3&#45;&gt;Node4 -->
<g id="edge3" class="edge"><title>Node3&#45;&gt;Node4</title>
<path fill="none" stroke="midnightblue" d="M405.672,-336.444C378.251,-327.359 334.723,-312.939 304.068,-302.783"/>
<polygon fill="midnightblue" stroke="midnightblue" points="304.8,-299.339 294.207,-299.516 302.599,-305.984 304.8,-299.339"/>
</g>
<!-- Node5 -->
<g id="node5" class="node"><title>Node5</title>
<polygon fill="white" stroke="#bfbfbf" points="313,-280.5 313,-299.5 364,-299.5 364,-280.5 313,-280.5"/>
<text text-anchor="middle" x="338.5" y="-287.5" font-family="Helvetica,sans-Serif" font-size="10.00">errno.h</text>
</g>
<!-- Node3&#45;&gt;Node5 -->
<g id="edge4" class="edge"><title>Node3&#45;&gt;Node5</title>
<path fill="none" stroke="midnightblue" d="M416.558,-336.324C401.915,-327.822 379.366,-314.729 362.262,-304.797"/>
<polygon fill="midnightblue" stroke="midnightblue" points="363.81,-301.649 353.405,-299.655 360.295,-307.703 363.81,-301.649"/>
</g>
<!-- Node6 -->
<g id="node6" class="node"><title>Node6</title>
<g id="a_node6"><a xlink:href="../../d1/d37/torcloggingdefs_8h.html" target="_top" xlink:title="torcloggingdefs.h">
<polygon fill="white" stroke="black" points="382,-280.5 382,-299.5 481,-299.5 481,-280.5 382,-280.5"/>
<text text-anchor="middle" x="431.5" y="-287.5" font-family="Helvetica,sans-Serif" font-size="10.00">torcloggingdefs.h</text>
</a>
</g>
</g>
<!-- Node3&#45;&gt;Node6 -->
<g id="edge5" class="edge"><title>Node3&#45;&gt;Node6</title>
<path fill="none" stroke="midnightblue" d="M431.5,-336.083C431.5,-329.006 431.5,-318.861 431.5,-309.986"/>
<polygon fill="midnightblue" stroke="midnightblue" points="435,-309.751 431.5,-299.751 428,-309.751 435,-309.751"/>
</g>
<!-- Node8 -->
<g id="node8" class="node"><title>Node8</title>
<polygon fill="white" stroke="#bfbfbf" points="518,-112.5 518,-131.5 571,-131.5 571,-112.5 518,-112.5"/>
<text text-anchor="middle" x="544.5" y="-119.5" font-family="Helvetica,sans-Serif" font-size="10.00">QMutex</text>
</g>
<!-- Node7&#45;&gt;Node8 -->
<g id="edge7" class="edge"><title>Node7&#45;&gt;Node8</title>
<path fill="none" stroke="midnightblue" d="M499.418,-281.947C413.366,-263.388 196.758,-211.617 234.5,-168 269.435,-127.627 433.136,-122.713 507.534,-122.615"/>
<polygon fill="midnightblue" stroke="midnightblue" points="507.832,-126.115 517.837,-122.632 507.843,-119.115 507.832,-126.115"/>
</g>
<!-- Node9 -->
<g id="node9" class="node"><title>Node9</title>
<polygon fill="white" stroke="#bfbfbf" points="573,-168.5 573,-187.5 628,-187.5 628,-168.5 573,-168.5"/>
<text text-anchor="middle" x="600.5" y="-175.5" font-family="Helvetica,sans-Serif" font-size="10.00">QObject</text>
</g>
<!-- Node7&#45;&gt;Node9 -->
<g id="edge8" class="edge"><title>Node7&#45;&gt;Node9</title>
<path fill="none" stroke="midnightblue" d="M538.757,-280.368C549.765,-262.296 575.42,-220.176 589.958,-196.307"/>
<polygon fill="midnightblue" stroke="midnightblue" points="593.054,-197.953 595.267,-187.591 587.076,-194.311 593.054,-197.953"/>
</g>
<!-- Node10 -->
<g id="node10" class="node"><title>Node10</title>
<g id="a_node10"><a xlink:href="../../d3/dee/torchttpservice_8h.html" target="_top" xlink:title="http/torchttpservice.h">
<polygon fill="white" stroke="black" points="396.5,-224.5 396.5,-243.5 516.5,-243.5 516.5,-224.5 396.5,-224.5"/>
<text text-anchor="middle" x="456.5" y="-231.5" font-family="Helvetica,sans-Serif" font-size="10.00">http/torchttpservice.h</text>
</a>
</g>
</g>
<!-- Node7&#45;&gt;Node10 -->
<g id="edge9" class="edge"><title>Node7&#45;&gt;Node10</title>
<path fill="none" stroke="midnightblue" d="M521.129,-280.324C509.342,-272.058 491.368,-259.453 477.364,-249.632"/>
<polygon fill="midnightblue" stroke="midnightblue" points="479.038,-246.531 468.841,-243.655 475.018,-252.262 479.038,-246.531"/>
</g>
<!-- Node23 -->
<g id="node23" class="node"><title>Node23</title>
<g id="a_node23"><a xlink:href="../../d1/df7/torcdevice_8h.html" target="_top" xlink:title="torcdevice.h">
<polygon fill="white" stroke="black" points="687,-224.5 687,-243.5 762,-243.5 762,-224.5 687,-224.5"/>
<text text-anchor="middle" x="724.5" y="-231.5" font-family="Helvetica,sans-Serif" font-size="10.00">torcdevice.h</text>
</a>
</g>
</g>
<!-- Node7&#45;&gt;Node23 -->
<g id="edge26" class="edge"><title>Node7&#45;&gt;Node23</title>
<path fill="none" stroke="midnightblue" d="M563.765,-280.444C596.455,-271.201 648.682,-256.436 684.683,-246.257"/>
<polygon fill="midnightblue" stroke="midnightblue" points="685.706,-249.605 694.377,-243.516 683.802,-242.869 685.706,-249.605"/>
</g>
<!-- Node10&#45;&gt;Node8 -->
<g id="edge11" class="edge"><title>Node10&#45;&gt;Node8</title>
<path fill="none" stroke="midnightblue" d="M463.405,-224.368C477.992,-206.135 512.159,-163.426 531.16,-139.675"/>
<polygon fill="midnightblue" stroke="midnightblue" points="534.113,-141.587 537.627,-131.591 528.647,-137.214 534.113,-141.587"/>
</g>
<!-- Node11 -->
<g id="node11" class="node"><title>Node11</title>
<polygon fill="white" stroke="#bfbfbf" points="446.5,-56.5 446.5,-75.5 490.5,-75.5 490.5,-56.5 446.5,-56.5"/>
<text text-anchor="middle" x="468.5" y="-63.5" font-family="Helvetica,sans-Serif" font-size="10.00">QMap</text>
</g>
<!-- Node10&#45;&gt;Node11 -->
<g id="edge10" class="edge"><title>Node10&#45;&gt;Node11</title>
<path fill="none" stroke="midnightblue" d="M457.145,-224.075C459.034,-197.945 464.581,-121.211 467.157,-85.577"/>
<polygon fill="midnightblue" stroke="midnightblue" points="470.65,-85.7945 467.881,-75.5681 463.669,-85.2897 470.65,-85.7945"/>
</g>
<!-- Node12 -->
<g id="node12" class="node"><title>Node12</title>
<polygon fill="white" stroke="#bfbfbf" points="361,-168.5 361,-187.5 440,-187.5 440,-168.5 361,-168.5"/>
<text text-anchor="middle" x="400.5" y="-175.5" font-family="Helvetica,sans-Serif" font-size="10.00">QMetaObject</text>
</g>
<!-- Node10&#45;&gt;Node12 -->
<g id="edge12" class="edge"><title>Node10&#45;&gt;Node12</title>
<path fill="none" stroke="midnightblue" d="M447.503,-224.324C439.306,-216.42 426.994,-204.548 417.028,-194.938"/>
<polygon fill="midnightblue" stroke="midnightblue" points="419.289,-192.256 409.661,-187.834 414.43,-197.295 419.289,-192.256"/>
</g>
<!-- Node13 -->
<g id="node13" class="node"><title>Node13</title>
<polygon fill="white" stroke="#bfbfbf" points="244,-168.5 244,-187.5 343,-187.5 343,-168.5 244,-168.5"/>
<text text-anchor="middle" x="293.5" y="-175.5" font-family="Helvetica,sans-Serif" font-size="10.00">QCoreApplication</text>
</g>
<!-- Node10&#45;&gt;Node13 -->
<g id="edge13" class="edge"><title>Node10&#45;&gt;Node13</title>
<path fill="none" stroke="midnightblue" d="M430.672,-224.444C403.251,-215.359 359.723,-200.939 329.068,-190.783"/>
<polygon fill="midnightblue" stroke="midnightblue" points="329.8,-187.339 319.207,-187.516 327.599,-193.984 329.8,-187.339"/>
</g>
<!-- Node14 -->
<g id="node14" class="node"><title>Node14</title>
<g id="a_node14"><a xlink:href="../../d4/d11/torchttphandler_8h.html" target="_top" xlink:title="torchttphandler.h">
<polygon fill="white" stroke="black" points="88,-168.5 88,-187.5 187,-187.5 187,-168.5 88,-168.5"/>
<text text-anchor="middle" x="137.5" y="-175.5" font-family="Helvetica,sans-Serif" font-size="10.00">torchttphandler.h</text>
</a>
</g>
</g>
<!-- Node10&#45;&gt;Node14 -->
<g id="edge14" class="edge"><title>Node10&#45;&gt;Node14</title>
<path fill="none" stroke="midnightblue" d="M405.954,-224.444C349.239,-214.843 257.319,-199.283 197.136,-189.095"/>
<polygon fill="midnightblue" stroke="midnightblue" points="197.467,-185.601 187.023,-187.383 196.299,-192.503 197.467,-185.601"/>
</g>
<!-- Node17 -->
<g id="node17" class="node"><title>Node17</title>
<g id="a_node17"><a xlink:href="../../df/dd7/torchttprequest_8h.html" target="_top" xlink:title="torchttprequest.h">
<polygon fill="white" stroke="black" points="48,-112.5 48,-131.5 149,-131.5 149,-112.5 48,-112.5"/>
<text text-anchor="middle" x="98.5" y="-119.5" font-family="Helvetica,sans-Serif" font-size="10.00">torchttprequest.h</text>
</a>
</g>
</g>
<!-- Node10&#45;&gt;Node17 -->
<g id="edge25" class="edge"><title>Node10&#45;&gt;Node17</title>
<path fill="none" stroke="midnightblue" d="M396.236,-230.143C294.867,-224.714 99.2071,-211.318 78.5,-188 66.6669,-174.675 75.74,-154.467 85.1801,-140.124"/>
<polygon fill="midnightblue" stroke="midnightblue" points="88.2506,-141.848 91.2207,-131.678 82.5567,-137.776 88.2506,-141.848"/>
</g>
<!-- Node15 -->
<g id="node15" class="node"><title>Node15</title>
<polygon fill="white" stroke="#bfbfbf" points="261,-56.5 261,-75.5 314,-75.5 314,-56.5 261,-56.5"/>
<text text-anchor="middle" x="287.5" y="-63.5" font-family="Helvetica,sans-Serif" font-size="10.00">QString</text>
</g>
<!-- Node14&#45;&gt;Node15 -->
<g id="edge15" class="edge"><title>Node14&#45;&gt;Node15</title>
<path fill="none" stroke="midnightblue" d="M180.489,-168.496C204.568,-161.912 233.818,-150.662 254.5,-132 268.277,-119.569 277.098,-100.055 282.12,-85.649"/>
<polygon fill="midnightblue" stroke="midnightblue" points="285.548,-86.4211 285.24,-75.8307 278.876,-84.3013 285.548,-86.4211"/>
</g>
<!-- Node16 -->
<g id="node16" class="node"><title>Node16</title>
<polygon fill="white" stroke="#bfbfbf" points="167.5,-112.5 167.5,-131.5 245.5,-131.5 245.5,-112.5 167.5,-112.5"/>
<text text-anchor="middle" x="206.5" y="-119.5" font-family="Helvetica,sans-Serif" font-size="10.00">QVariantMap</text>
</g>
<!-- Node14&#45;&gt;Node16 -->
<g id="edge16" class="edge"><title>Node14&#45;&gt;Node16</title>
<path fill="none" stroke="midnightblue" d="M148.586,-168.324C158.986,-160.185 174.761,-147.839 187.222,-138.087"/>
<polygon fill="midnightblue" stroke="midnightblue" points="189.494,-140.753 195.212,-131.834 185.18,-135.241 189.494,-140.753"/>
</g>
<!-- Node14&#45;&gt;Node17 -->
<g id="edge17" class="edge"><title>Node14&#45;&gt;Node17</title>
<path fill="none" stroke="midnightblue" d="M131.06,-168.083C125.551,-160.455 117.469,-149.264 110.735,-139.941"/>
<polygon fill="midnightblue" stroke="midnightblue" points="113.513,-137.809 104.82,-131.751 107.838,-141.907 113.513,-137.809"/>
</g>
<!-- Node17&#45;&gt;Node11 -->
<g id="edge18" class="edge"><title>Node17&#45;&gt;Node11</title>
<path fill="none" stroke="midnightblue" d="M149.236,-113.372C152.371,-112.906 155.478,-112.446 158.5,-112 259.839,-97.0444 379.878,-79.735 436.236,-71.6322"/>
<polygon fill="midnightblue" stroke="midnightblue" points="436.916,-75.0704 446.317,-70.1834 435.921,-68.1416 436.916,-75.0704"/>
</g>
<!-- Node17&#45;&gt;Node15 -->
<g id="edge20" class="edge"><title>Node17&#45;&gt;Node15</title>
<path fill="none" stroke="midnightblue" d="M128.448,-112.444C161.605,-102.97 215.073,-87.6935 250.742,-77.5022"/>
<polygon fill="midnightblue" stroke="midnightblue" points="252.095,-80.7559 260.748,-74.6433 250.172,-74.0253 252.095,-80.7559"/>
</g>
<!-- Node18 -->
<g id="node18" class="node"><title>Node18</title>
<polygon fill="white" stroke="#bfbfbf" points="0,-56.5 0,-75.5 41,-75.5 41,-56.5 0,-56.5"/>
<text text-anchor="middle" x="20.5" y="-63.5" font-family="Helvetica,sans-Serif" font-size="10.00">QPair</text>
</g>
<!-- Node17&#45;&gt;Node18 -->
<g id="edge19" class="edge"><title>Node17&#45;&gt;Node18</title>
<path fill="none" stroke="midnightblue" d="M85.968,-112.324C73.9141,-103.979 55.4732,-91.2122 41.2313,-81.3524"/>
<polygon fill="midnightblue" stroke="midnightblue" points="43.2151,-78.469 33.0009,-75.6545 39.2306,-84.2243 43.2151,-78.469"/>
</g>
<!-- Node19 -->
<g id="node19" class="node"><title>Node19</title>
<polygon fill="white" stroke="#bfbfbf" points="59,-56.5 59,-75.5 130,-75.5 130,-56.5 59,-56.5"/>
<text text-anchor="middle" x="94.5" y="-63.5" font-family="Helvetica,sans-Serif" font-size="10.00">QDateTime</text>
</g>
<!-- Node17&#45;&gt;Node19 -->
<g id="edge21" class="edge"><title>Node17&#45;&gt;Node19</title>
<path fill="none" stroke="midnightblue" d="M97.8395,-112.083C97.3152,-105.006 96.5638,-94.8611 95.9064,-85.9865"/>
<polygon fill="midnightblue" stroke="midnightblue" points="99.3775,-85.4652 95.1482,-75.7511 92.3966,-85.9823 99.3775,-85.4652"/>
</g>
<!-- Node20 -->
<g id="node20" class="node"><title>Node20</title>
<g id="a_node20"><a xlink:href="../../de/de6/torchttpreader_8h.html" target="_top" xlink:title="torchttpreader.h">
<polygon fill="white" stroke="black" points="148,-56.5 148,-75.5 243,-75.5 243,-56.5 148,-56.5"/>
<text text-anchor="middle" x="195.5" y="-63.5" font-family="Helvetica,sans-Serif" font-size="10.00">torchttpreader.h</text>
</a>
</g>
</g>
<!-- Node17&#45;&gt;Node20 -->
<g id="edge22" class="edge"><title>Node17&#45;&gt;Node20</title>
<path fill="none" stroke="midnightblue" d="M114.085,-112.324C129.499,-103.743 153.312,-90.486 171.21,-80.5224"/>
<polygon fill="midnightblue" stroke="midnightblue" points="172.919,-83.5767 179.954,-75.6545 169.514,-77.4606 172.919,-83.5767"/>
</g>
<!-- Node21 -->
<g id="node21" class="node"><title>Node21</title>
<polygon fill="white" stroke="#bfbfbf" points="115,-0.5 115,-19.5 186,-19.5 186,-0.5 115,-0.5"/>
<text text-anchor="middle" x="150.5" y="-7.5" font-family="Helvetica,sans-Serif" font-size="10.00">QByteArray</text>
</g>
<!-- Node20&#45;&gt;Node21 -->
<g id="edge23" class="edge"><title>Node20&#45;&gt;Node21</title>
<path fill="none" stroke="midnightblue" d="M188.069,-56.083C181.647,-48.3768 172.194,-37.0333 164.378,-27.6531"/>
<polygon fill="midnightblue" stroke="midnightblue" points="166.883,-25.1927 157.793,-19.7511 161.506,-29.674 166.883,-25.1927"/>
</g>
<!-- Node22 -->
<g id="node22" class="node"><title>Node22</title>
<polygon fill="white" stroke="#bfbfbf" points="204.5,-0.5 204.5,-19.5 276.5,-19.5 276.5,-0.5 204.5,-0.5"/>
<text text-anchor="middle" x="240.5" y="-7.5" font-family="Helvetica,sans-Serif" font-size="10.00">QTcpSocket</text>
</g>
<!-- Node20&#45;&gt;Node22 -->
<g id="edge24" class="edge"><title>Node20&#45;&gt;Node22</title>
<path fill="none" stroke="midnightblue" d="M202.931,-56.083C209.353,-48.3768 218.806,-37.0333 226.622,-27.6531"/>
<polygon fill="midnightblue" stroke="midnightblue" points="229.494,-29.674 233.207,-19.7511 224.117,-25.1927 229.494,-29.674"/>
</g>
<!-- Node23&#45;&gt;Node8 -->
<g id="edge28" class="edge"><title>Node23&#45;&gt;Node8</title>
<path fill="none" stroke="midnightblue" d="M714.245,-224.314C698.425,-211.157 666.823,-185.823 637.5,-168 617.139,-155.624 592.866,-143.974 574.225,-135.63"/>
<polygon fill="midnightblue" stroke="midnightblue" points="575.602,-132.413 565.04,-131.582 572.779,-138.818 575.602,-132.413"/>
</g>
<!-- Node23&#45;&gt;Node9 -->
<g id="edge30" class="edge"><title>Node23&#45;&gt;Node9</title>
<path fill="none" stroke="midnightblue" d="M704.852,-224.444C684.535,-215.596 652.597,-201.687 629.402,-191.586"/>
<polygon fill="midnightblue" stroke="midnightblue" points="630.622,-188.3 620.056,-187.516 627.827,-194.718 630.622,-188.3"/>
</g>
<!-- Node23&#45;&gt;Node15 -->
<g id="edge29" class="edge"><title>Node23&#45;&gt;Node15</title>
<path fill="none" stroke="midnightblue" d="M717.854,-224.355C707.529,-211.25 686.617,-185.985 665.5,-168 630.776,-138.426 622.106,-128.283 579.5,-112 492.177,-78.6269 381.191,-69.9644 324.494,-67.7431"/>
<polygon fill="midnightblue" stroke="midnightblue" points="324.344,-64.2359 314.229,-67.3889 324.103,-71.2317 324.344,-64.2359"/>
</g>
<!-- Node24 -->
<g id="node24" class="node"><title>Node24</title>
<polygon fill="white" stroke="#bfbfbf" points="831,-112.5 831,-131.5 880,-131.5 880,-112.5 831,-112.5"/>
<text text-anchor="middle" x="855.5" y="-119.5" font-family="Helvetica,sans-Serif" font-size="10.00">QHash</text>
</g>
<!-- Node23&#45;&gt;Node24 -->
<g id="edge27" class="edge"><title>Node23&#45;&gt;Node24</title>
<path fill="none" stroke="midnightblue" d="M756.457,-224.425C787.038,-215.588 830.144,-201.269 841.5,-188 852.398,-175.267 855.437,-156.07 856.027,-141.836"/>
<polygon fill="midnightblue" stroke="midnightblue" points="859.528,-141.721 856.078,-131.703 852.528,-141.686 859.528,-141.721"/>
</g>
<!-- Node25 -->
<g id="node25" class="node"><title>Node25</title>
<g id="a_node25"><a xlink:href="../../d8/dfe/torcreferencecounted_8h.html" target="_top" xlink:title="torcreferencecounted.h">
<polygon fill="white" stroke="black" points="889,-168.5 889,-187.5 1018,-187.5 1018,-168.5 889,-168.5"/>
<text text-anchor="middle" x="953.5" y="-175.5" font-family="Helvetica,sans-Serif" font-size="10.00">torcreferencecounted.h</text>
</a>
</g>
</g>
<!-- Node23&#45;&gt;Node25 -->
<g id="edge31" class="edge"><title>Node23&#45;&gt;Node25</title>
<path fill="none" stroke="midnightblue" d="M760.786,-224.444C800.483,-215.083 864.207,-200.056 907.412,-189.868"/>
<polygon fill="midnightblue" stroke="midnightblue" points="908.454,-193.218 917.384,-187.516 906.848,-186.405 908.454,-193.218"/>
</g>
<!-- Node27 -->
<g id="node27" class="node"><title>Node27</title>
<g id="a_node27"><a xlink:href="../../d2/d5b/torcdevicehandler_8h.html" target="_top" xlink:title="torcdevicehandler.h">
<polygon fill="white" stroke="black" points="722.5,-168.5 722.5,-187.5 832.5,-187.5 832.5,-168.5 722.5,-168.5"/>
<text text-anchor="middle" x="777.5" y="-175.5" font-family="Helvetica,sans-Serif" font-size="10.00">torcdevicehandler.h</text>
</a>
</g>
</g>
<!-- Node23&#45;&gt;Node27 -->
<g id="edge33" class="edge"><title>Node23&#45;&gt;Node27</title>
<path fill="none" stroke="midnightblue" d="M733.252,-224.083C740.97,-216.22 752.405,-204.569 761.717,-195.081"/>
<polygon fill="midnightblue" stroke="midnightblue" points="764.404,-197.34 768.911,-187.751 759.408,-192.436 764.404,-197.34"/>
</g>
<!-- Node26 -->
<g id="node26" class="node"><title>Node26</title>
<polygon fill="white" stroke="#bfbfbf" points="918.5,-112.5 918.5,-131.5 988.5,-131.5 988.5,-112.5 918.5,-112.5"/>
<text text-anchor="middle" x="953.5" y="-119.5" font-family="Helvetica,sans-Serif" font-size="10.00">QAtomicInt</text>
</g>
<!-- Node25&#45;&gt;Node26 -->
<g id="edge32" class="edge"><title>Node25&#45;&gt;Node26</title>
<path fill="none" stroke="midnightblue" d="M953.5,-168.083C953.5,-161.006 953.5,-150.861 953.5,-141.986"/>
<polygon fill="midnightblue" stroke="midnightblue" points="957,-141.751 953.5,-131.751 950,-141.751 957,-141.751"/>
</g>
<!-- Node27&#45;&gt;Node8 -->
<g id="edge35" class="edge"><title>Node27&#45;&gt;Node8</title>
<path fill="none" stroke="midnightblue" d="M740.58,-168.444C696.864,-158.312 624.508,-141.543 580.983,-131.455"/>
<polygon fill="midnightblue" stroke="midnightblue" points="581.632,-128.013 571.1,-129.165 580.052,-134.832 581.632,-128.013"/>
</g>
<!-- Node27&#45;&gt;Node24 -->
<g id="edge34" class="edge"><title>Node27&#45;&gt;Node24</title>
<path fill="none" stroke="midnightblue" d="M790.032,-168.324C802.086,-159.979 820.527,-147.212 834.769,-137.352"/>
<polygon fill="midnightblue" stroke="midnightblue" points="836.769,-140.224 842.999,-131.655 832.785,-134.469 836.769,-140.224"/>
</g>
<!-- Node28 -->
<g id="node28" class="node"><title>Node28</title>
<polygon fill="white" stroke="#bfbfbf" points="748.5,-112.5 748.5,-131.5 806.5,-131.5 806.5,-112.5 748.5,-112.5"/>
<text text-anchor="middle" x="777.5" y="-119.5" font-family="Helvetica,sans-Serif" font-size="10.00">QVariant</text>
</g>
<!-- Node27&#45;&gt;Node28 -->
<g id="edge36" class="edge"><title>Node27&#45;&gt;Node28</title>
<path fill="none" stroke="midnightblue" d="M777.5,-168.083C777.5,-161.006 777.5,-150.861 777.5,-141.986"/>
<polygon fill="midnightblue" stroke="midnightblue" points="781,-141.751 777.5,-131.751 774,-141.751 781,-141.751"/>
</g>
<!-- Node29&#45;&gt;Node8 -->
<g id="edge38" class="edge"><title>Node29&#45;&gt;Node8</title>
<path fill="none" stroke="midnightblue" d="M617.423,-280.482C605.6,-263.578 579.28,-224.284 563.5,-188 556.906,-172.838 551.824,-154.72 548.581,-141.469"/>
<polygon fill="midnightblue" stroke="midnightblue" points="551.973,-140.6 546.298,-131.654 545.155,-142.187 551.973,-140.6"/>
</g>
<!-- Node29&#45;&gt;Node9 -->
<g id="edge39" class="edge"><title>Node29&#45;&gt;Node9</title>
<path fill="none" stroke="midnightblue" d="M621.695,-280.368C617.984,-262.617 609.421,-221.666 604.389,-197.597"/>
<polygon fill="midnightblue" stroke="midnightblue" points="607.769,-196.663 602.296,-187.591 600.917,-198.096 607.769,-196.663"/>
</g>
<!-- Node29&#45;&gt;Node10 -->
<g id="edge41" class="edge"><title>Node29&#45;&gt;Node10</title>
<path fill="none" stroke="midnightblue" d="M597.038,-280.444C568.822,-271.32 523.96,-256.813 492.532,-246.651"/>
<polygon fill="midnightblue" stroke="midnightblue" points="493.43,-243.263 482.838,-243.516 491.276,-249.923 493.43,-243.263"/>
</g>
<!-- Node29&#45;&gt;Node23 -->
<g id="edge42" class="edge"><title>Node29&#45;&gt;Node23</title>
<path fill="none" stroke="midnightblue" d="M639.727,-280.324C655.851,-271.703 680.8,-258.364 699.464,-248.386"/>
<polygon fill="midnightblue" stroke="midnightblue" points="701.144,-251.456 708.313,-243.655 697.844,-245.283 701.144,-251.456"/>
</g>
<!-- Node29&#45;&gt;Node25 -->
<g id="edge40" class="edge"><title>Node29&#45;&gt;Node25</title>
<path fill="none" stroke="midnightblue" d="M657.598,-280.493C687.985,-272.476 733.411,-259.413 771.5,-244 789.557,-236.693 792.478,-231.394 810.5,-224 843.562,-210.434 882.297,-198.475 911.108,-190.301"/>
<polygon fill="midnightblue" stroke="midnightblue" points="912.173,-193.638 920.859,-187.572 910.286,-186.897 912.173,-193.638"/>
</g>
<!-- Node31 -->
<g id="node31" class="node"><title>Node31</title>
<g id="a_node31"><a xlink:href="../../d9/d9a/torccontrol_8h.html" target="_top" xlink:title="torccontrol.h">
<polygon fill="white" stroke="black" points="684,-280.5 684,-299.5 761,-299.5 761,-280.5 684,-280.5"/>
<text text-anchor="middle" x="722.5" y="-287.5" font-family="Helvetica,sans-Serif" font-size="10.00">torccontrol.h</text>
</a>
</g>
</g>
<!-- Node30&#45;&gt;Node31 -->
<g id="edge44" class="edge"><title>Node30&#45;&gt;Node31</title>
<path fill="none" stroke="midnightblue" d="M702.463,-336.083C705.713,-328.77 710.419,-318.181 714.454,-309.103"/>
<polygon fill="midnightblue" stroke="midnightblue" points="717.748,-310.311 718.611,-299.751 711.351,-307.468 717.748,-310.311"/>
</g>
<!-- Node31&#45;&gt;Node9 -->
<g id="edge46" class="edge"><title>Node31&#45;&gt;Node9</title>
<path fill="none" stroke="midnightblue" d="M712.927,-280.368C692.348,-261.814 643.658,-217.913 617.622,-194.438"/>
<polygon fill="midnightblue" stroke="midnightblue" points="619.799,-191.688 610.029,-187.591 615.112,-196.887 619.799,-191.688"/>
</g>
<!-- Node31&#45;&gt;Node10 -->
<g id="edge48" class="edge"><title>Node31&#45;&gt;Node10</title>
<path fill="none" stroke="midnightblue" d="M683.821,-281.148C637.622,-271.769 560.14,-256.04 508.672,-245.591"/>
<polygon fill="midnightblue" stroke="midnightblue" points="509.239,-242.135 498.743,-243.576 507.846,-248.995 509.239,-242.135"/>
</g>
<!-- Node31&#45;&gt;Node11 -->
<g id="edge45" class="edge"><title>Node31&#45;&gt;Node11</title>
<path fill="none" stroke="midnightblue" d="M761.107,-282.267C836.287,-268.252 997.604,-233.43 1027.5,-188 1044.99,-161.423 1008.86,-119.472 997.5,-112 956.002,-84.6975 609.283,-71.4674 500.808,-67.9696"/>
<polygon fill="midnightblue" stroke="midnightblue" points="500.889,-64.4706 490.784,-67.6524 500.668,-71.4671 500.889,-64.4706"/>
</g>
<!-- Node31&#45;&gt;Node23 -->
<g id="edge49" class="edge"><title>Node31&#45;&gt;Node23</title>
<path fill="none" stroke="midnightblue" d="M722.83,-280.083C723.092,-273.006 723.468,-262.861 723.797,-253.986"/>
<polygon fill="midnightblue" stroke="midnightblue" points="727.303,-253.874 724.176,-243.751 720.308,-253.615 727.303,-253.874"/>
</g>
<!-- Node32 -->
<g id="node32" class="node"><title>Node32</title>
<polygon fill="white" stroke="#bfbfbf" points="819,-224.5 819,-243.5 888,-243.5 888,-224.5 819,-224.5"/>
<text text-anchor="middle" x="853.5" y="-231.5" font-family="Helvetica,sans-Serif" font-size="10.00">QStringList</text>
</g>
<!-- Node31&#45;&gt;Node32 -->
<g id="edge47" class="edge"><title>Node31&#45;&gt;Node32</title>
<path fill="none" stroke="midnightblue" d="M743.257,-280.444C764.816,-271.557 798.763,-257.563 823.294,-247.451"/>
<polygon fill="midnightblue" stroke="midnightblue" points="824.928,-250.563 832.84,-243.516 822.261,-244.092 824.928,-250.563"/>
</g>
</g>
</svg>
