<?xml version="1.0" encoding="UTF-8" standalone="no"?>
<!DOCTYPE svg PUBLIC "-//W3C//DTD SVG 1.1//EN"
 "http://www.w3.org/Graphics/SVG/1.1/DTD/svg11.dtd">
<!-- Generated by graphviz version 2.38.0 (20140413.2041)
 -->
<!-- Title: main.cpp Pages: 1 -->
<svg width="1571pt" height="420pt"
 viewBox="0.00 0.00 1570.50 420.00" xmlns="http://www.w3.org/2000/svg" xmlns:xlink="http://www.w3.org/1999/xlink">
<g id="graph0" class="graph" transform="scale(1 1) rotate(0) translate(4 416)">
<title>main.cpp</title>
<polygon fill="white" stroke="none" points="-4,4 -4,-416 1566.5,-416 1566.5,4 -4,4"/>
<!-- Node1 -->
<g id="node1" class="node"><title>Node1</title>
<polygon fill="#bfbfbf" stroke="black" points="889,-392.5 889,-411.5 950,-411.5 950,-392.5 889,-392.5"/>
<text text-anchor="middle" x="919.5" y="-399.5" font-family="Helvetica,sans-Serif" font-size="10.00">main.cpp</text>
</g>
<!-- Node2 -->
<g id="node2" class="node"><title>Node2</title>
<polygon fill="white" stroke="#bfbfbf" points="0,-168.5 0,-187.5 99,-187.5 99,-168.5 0,-168.5"/>
<text text-anchor="middle" x="49.5" y="-175.5" font-family="Helvetica,sans-Serif" font-size="10.00">QCoreApplication</text>
</g>
<!-- Node1&#45;&gt;Node2 -->
<g id="edge1" class="edge"><title>Node1&#45;&gt;Node2</title>
<path fill="none" stroke="midnightblue" d="M888.867,-400.633C780.174,-398.172 405.191,-379.742 137.5,-244 110.957,-230.54 83.9395,-209.207 66.9718,-194.68"/>
<polygon fill="midnightblue" stroke="midnightblue" points="68.9054,-191.722 59.0706,-187.782 64.3017,-196.995 68.9054,-191.722"/>
</g>
<!-- Node3 -->
<g id="node3" class="node"><title>Node3</title>
<polygon fill="white" stroke="#bfbfbf" points="737,-168.5 737,-187.5 794,-187.5 794,-168.5 737,-168.5"/>
<text text-anchor="middle" x="765.5" y="-175.5" font-family="Helvetica,sans-Serif" font-size="10.00">QThread</text>
</g>
<!-- Node1&#45;&gt;Node3 -->
<g id="edge2" class="edge"><title>Node1&#45;&gt;Node3</title>
<path fill="none" stroke="midnightblue" d="M888.803,-398.655C774.692,-389.146 378.978,-348.844 329.5,-244 325.706,-235.961 323.546,-230.6 329.5,-224 342.759,-209.302 622.575,-188.764 726.816,-181.593"/>
<polygon fill="midnightblue" stroke="midnightblue" points="727.179,-185.076 736.917,-180.902 726.702,-178.093 727.179,-185.076"/>
</g>
<!-- Node4 -->
<g id="node4" class="node"><title>Node4</title>
<g id="a_node4"><a xlink:href="../../dd/dbd/torclocalcontext_8h.html" target="_top" xlink:title="torclocalcontext.h">
<polygon fill="white" stroke="black" points="829.5,-336.5 829.5,-355.5 931.5,-355.5 931.5,-336.5 829.5,-336.5"/>
<text text-anchor="middle" x="880.5" y="-343.5" font-family="Helvetica,sans-Serif" font-size="10.00">torclocalcontext.h</text>
</a>
</g>
</g>
<!-- Node1&#45;&gt;Node4 -->
<g id="edge3" class="edge"><title>Node1&#45;&gt;Node4</title>
<path fill="none" stroke="midnightblue" d="M913.06,-392.083C907.551,-384.455 899.469,-373.264 892.735,-363.941"/>
<polygon fill="midnightblue" stroke="midnightblue" points="895.513,-361.809 886.82,-355.751 889.838,-365.907 895.513,-361.809"/>
</g>
<!-- Node35 -->
<g id="node35" class="node"><title>Node35</title>
<g id="a_node35"><a xlink:href="../../db/d41/torccommandline_8h.html" target="_top" xlink:title="torccommandline.h">
<polygon fill="white" stroke="black" points="1264.5,-280.5 1264.5,-299.5 1374.5,-299.5 1374.5,-280.5 1264.5,-280.5"/>
<text text-anchor="middle" x="1319.5" y="-287.5" font-family="Helvetica,sans-Serif" font-size="10.00">torccommandline.h</text>
</a>
</g>
</g>
<!-- Node1&#45;&gt;Node35 -->
<g id="edge56" class="edge"><title>Node1&#45;&gt;Node35</title>
<path fill="none" stroke="midnightblue" d="M924.405,-392.492C933.197,-378.117 953.119,-349.294 978.5,-336 979.261,-335.601 1155.53,-312.471 1254.3,-299.533"/>
<polygon fill="midnightblue" stroke="midnightblue" points="1255.03,-302.969 1264.49,-298.2 1254.12,-296.028 1255.03,-302.969"/>
</g>
<!-- Node41 -->
<g id="node41" class="node"><title>Node41</title>
<g id="a_node41"><a xlink:href="../../d4/dbd/torcexitcodes_8h.html" target="_top" xlink:title="torcexitcodes.h">
<polygon fill="white" stroke="black" points="987.5,-336.5 987.5,-355.5 1077.5,-355.5 1077.5,-336.5 987.5,-336.5"/>
<text text-anchor="middle" x="1032.5" y="-343.5" font-family="Helvetica,sans-Serif" font-size="10.00">torcexitcodes.h</text>
</a>
</g>
</g>
<!-- Node1&#45;&gt;Node41 -->
<g id="edge55" class="edge"><title>Node1&#45;&gt;Node41</title>
<path fill="none" stroke="midnightblue" d="M937.405,-392.444C955.754,-383.675 984.505,-369.935 1005.59,-359.858"/>
<polygon fill="midnightblue" stroke="midnightblue" points="1007.17,-362.986 1014.68,-355.516 1004.15,-356.67 1007.17,-362.986"/>
</g>
<!-- Node42 -->
<g id="node42" class="node"><title>Node42</title>
<g id="a_node42"><a xlink:href="../../da/dd8/torcxsdtest_8h.html" target="_top" xlink:title="torcxsdtest.h">
<polygon fill="white" stroke="black" points="1279.5,-336.5 1279.5,-355.5 1359.5,-355.5 1359.5,-336.5 1279.5,-336.5"/>
<text text-anchor="middle" x="1319.5" y="-343.5" font-family="Helvetica,sans-Serif" font-size="10.00">torcxsdtest.h</text>
</a>
</g>
</g>
<!-- Node1&#45;&gt;Node42 -->
<g id="edge57" class="edge"><title>Node1&#45;&gt;Node42</title>
<path fill="none" stroke="midnightblue" d="M950.223,-396.852C1018.89,-387.583 1185.34,-365.112 1269.3,-353.777"/>
<polygon fill="midnightblue" stroke="midnightblue" points="1269.92,-357.225 1279.36,-352.419 1268.98,-350.288 1269.92,-357.225"/>
</g>
<!-- Node5 -->
<g id="node5" class="node"><title>Node5</title>
<polygon fill="white" stroke="#bfbfbf" points="990,-168.5 990,-187.5 1045,-187.5 1045,-168.5 990,-168.5"/>
<text text-anchor="middle" x="1017.5" y="-175.5" font-family="Helvetica,sans-Serif" font-size="10.00">QObject</text>
</g>
<!-- Node4&#45;&gt;Node5 -->
<g id="edge4" class="edge"><title>Node4&#45;&gt;Node5</title>
<path fill="none" stroke="midnightblue" d="M914.92,-336.439C939.012,-329.324 971.12,-317.507 995.5,-300 1021.89,-281.047 1031.39,-274.533 1042.5,-244 1048.42,-227.727 1039.89,-209.315 1031.23,-196.253"/>
<polygon fill="midnightblue" stroke="midnightblue" points="1033.8,-193.838 1025.1,-187.793 1028.13,-197.945 1033.8,-193.838"/>
</g>
<!-- Node6 -->
<g id="node6" class="node"><title>Node6</title>
<polygon fill="white" stroke="#bfbfbf" points="762,-56.5 762,-75.5 815,-75.5 815,-56.5 762,-56.5"/>
<text text-anchor="middle" x="788.5" y="-63.5" font-family="Helvetica,sans-Serif" font-size="10.00">QString</text>
</g>
<!-- Node4&#45;&gt;Node6 -->
<g id="edge5" class="edge"><title>Node4&#45;&gt;Node6</title>
<path fill="none" stroke="midnightblue" d="M931.598,-338.207C1022.6,-326.072 1203.57,-301.769 1206.5,-300 1258.44,-268.594 1281.53,-213.621 1241.5,-168 1186.38,-105.181 923.142,-77.8506 825.263,-69.7426"/>
<polygon fill="midnightblue" stroke="midnightblue" points="825.49,-66.2496 815.24,-68.9321 824.926,-73.2268 825.49,-66.2496"/>
</g>
<!-- Node7 -->
<g id="node7" class="node"><title>Node7</title>
<polygon fill="white" stroke="#bfbfbf" points="782.5,-224.5 782.5,-243.5 874.5,-243.5 874.5,-224.5 782.5,-224.5"/>
<text text-anchor="middle" x="828.5" y="-231.5" font-family="Helvetica,sans-Serif" font-size="10.00">QReadWriteLock</text>
</g>
<!-- Node4&#45;&gt;Node7 -->
<g id="edge6" class="edge"><title>Node4&#45;&gt;Node7</title>
<path fill="none" stroke="midnightblue" d="M876.42,-336.368C867.952,-318.456 848.318,-276.923 836.985,-252.948"/>
<polygon fill="midnightblue" stroke="midnightblue" points="840,-251.136 832.561,-243.591 833.671,-254.128 840,-251.136"/>
</g>
<!-- Node8 -->
<g id="node8" class="node"><title>Node8</title>
<polygon fill="white" stroke="#bfbfbf" points="409,-168.5 409,-187.5 462,-187.5 462,-168.5 409,-168.5"/>
<text text-anchor="middle" x="435.5" y="-175.5" font-family="Helvetica,sans-Serif" font-size="10.00">QMutex</text>
</g>
<!-- Node4&#45;&gt;Node8 -->
<g id="edge7" class="edge"><title>Node4&#45;&gt;Node8</title>
<path fill="none" stroke="midnightblue" d="M829.227,-344.009C721.363,-341.314 474.585,-331.769 397.5,-300 355.595,-282.73 304.485,-261.796 329.5,-224 344.851,-200.806 374.824,-189.531 398.991,-184.071"/>
<polygon fill="midnightblue" stroke="midnightblue" points="399.822,-187.474 408.934,-182.069 398.44,-180.612 399.822,-187.474"/>
</g>
<!-- Node9 -->
<g id="node9" class="node"><title>Node9</title>
<g id="a_node9"><a xlink:href="../../db/db2/torclocaldefs_8h.html" target="_top" xlink:title="torclocaldefs.h">
<polygon fill="white" stroke="black" points="573.5,-280.5 573.5,-299.5 659.5,-299.5 659.5,-280.5 573.5,-280.5"/>
<text text-anchor="middle" x="616.5" y="-287.5" font-family="Helvetica,sans-Serif" font-size="10.00">torclocaldefs.h</text>
</a>
</g>
</g>
<!-- Node4&#45;&gt;Node9 -->
<g id="edge8" class="edge"><title>Node4&#45;&gt;Node9</title>
<path fill="none" stroke="midnightblue" d="M838.668,-336.444C792.421,-326.984 717.888,-311.738 668.064,-301.547"/>
<polygon fill="midnightblue" stroke="midnightblue" points="668.634,-298.091 658.136,-299.516 667.232,-304.949 668.634,-298.091"/>
</g>
<!-- Node10 -->
<g id="node10" class="node"><title>Node10</title>
<g id="a_node10"><a xlink:href="../../db/df5/torcsetting_8h.html" target="_top" xlink:title="torcsetting.h">
<polygon fill="white" stroke="black" points="678,-280.5 678,-299.5 755,-299.5 755,-280.5 678,-280.5"/>
<text text-anchor="middle" x="716.5" y="-287.5" font-family="Helvetica,sans-Serif" font-size="10.00">torcsetting.h</text>
</a>
</g>
</g>
<!-- Node4&#45;&gt;Node10 -->
<g id="edge9" class="edge"><title>Node4&#45;&gt;Node10</title>
<path fill="none" stroke="midnightblue" d="M854.514,-336.444C826.804,-327.32 782.748,-312.813 751.884,-302.651"/>
<polygon fill="midnightblue" stroke="midnightblue" points="752.958,-299.32 742.365,-299.516 750.768,-305.968 752.958,-299.32"/>
</g>
<!-- Node27 -->
<g id="node27" class="node"><title>Node27</title>
<g id="a_node27"><a xlink:href="../../d6/d94/torcobservable_8h.html" target="_top" xlink:title="torcobservable.h">
<polygon fill="white" stroke="black" points="1101,-280.5 1101,-299.5 1198,-299.5 1198,-280.5 1101,-280.5"/>
<text text-anchor="middle" x="1149.5" y="-287.5" font-family="Helvetica,sans-Serif" font-size="10.00">torcobservable.h</text>
</a>
</g>
</g>
<!-- Node4&#45;&gt;Node27 -->
<g id="edge34" class="edge"><title>Node4&#45;&gt;Node27</title>
<path fill="none" stroke="midnightblue" d="M923.124,-336.444C970.247,-326.984 1046.19,-311.738 1096.96,-301.547"/>
<polygon fill="midnightblue" stroke="midnightblue" points="1097.96,-304.916 1107.08,-299.516 1096.58,-298.053 1097.96,-304.916"/>
</g>
<!-- Node30 -->
<g id="node30" class="node"><title>Node30</title>
<g id="a_node30"><a xlink:href="../../d7/d70/torcsqlitedb_8h.html" target="_top" xlink:title="torcsqlitedb.h">
<polygon fill="white" stroke="black" points="406.5,-280.5 406.5,-299.5 488.5,-299.5 488.5,-280.5 406.5,-280.5"/>
<text text-anchor="middle" x="447.5" y="-287.5" font-family="Helvetica,sans-Serif" font-size="10.00">torcsqlitedb.h</text>
</a>
</g>
</g>
<!-- Node4&#45;&gt;Node30 -->
<g id="edge39" class="edge"><title>Node4&#45;&gt;Node30</title>
<path fill="none" stroke="midnightblue" d="M829.129,-338.593C745.69,-328.188 581.687,-307.735 498.492,-297.359"/>
<polygon fill="midnightblue" stroke="midnightblue" points="498.872,-293.88 488.516,-296.115 498.006,-300.826 498.872,-293.88"/>
</g>
<!-- Node32 -->
<g id="node32" class="node"><title>Node32</title>
<g id="a_node32"><a xlink:href="../../dd/dd5/torcadminthread_8h.html" target="_top" xlink:title="torcadminthread.h">
<polygon fill="white" stroke="black" points="880.5,-280.5 880.5,-299.5 986.5,-299.5 986.5,-280.5 880.5,-280.5"/>
<text text-anchor="middle" x="933.5" y="-287.5" font-family="Helvetica,sans-Serif" font-size="10.00">torcadminthread.h</text>
</a>
</g>
</g>
<!-- Node4&#45;&gt;Node32 -->
<g id="edge43" class="edge"><title>Node4&#45;&gt;Node32</title>
<path fill="none" stroke="midnightblue" d="M889.252,-336.083C896.97,-328.22 908.405,-316.569 917.717,-307.081"/>
<polygon fill="midnightblue" stroke="midnightblue" points="920.404,-309.34 924.911,-299.751 915.408,-304.436 920.404,-309.34"/>
</g>
<!-- Node4&#45;&gt;Node35 -->
<g id="edge47" class="edge"><title>Node4&#45;&gt;Node35</title>
<path fill="none" stroke="midnightblue" d="M931.582,-337.828C936.286,-337.198 940.98,-336.58 945.5,-336 1080.89,-318.639 1115.04,-316.827 1250.5,-300 1251.61,-299.862 1252.73,-299.723 1253.85,-299.582"/>
<polygon fill="midnightblue" stroke="midnightblue" points="1254.66,-303.007 1264.15,-298.281 1253.79,-296.063 1254.66,-303.007"/>
</g>
<!-- Node10&#45;&gt;Node5 -->
<g id="edge12" class="edge"><title>Node10&#45;&gt;Node5</title>
<path fill="none" stroke="midnightblue" d="M717.028,-280.269C718.386,-266.093 723.23,-238.226 740.5,-224 776.373,-194.448 912.635,-183.95 979.723,-180.52"/>
<polygon fill="midnightblue" stroke="midnightblue" points="980.051,-184.008 989.87,-180.028 979.712,-177.016 980.051,-184.008"/>
</g>
<!-- Node10&#45;&gt;Node7 -->
<g id="edge11" class="edge"><title>Node10&#45;&gt;Node7</title>
<path fill="none" stroke="midnightblue" d="M734.495,-280.324C752.538,-271.625 780.547,-258.12 801.303,-248.113"/>
<polygon fill="midnightblue" stroke="midnightblue" points="803.062,-251.15 810.55,-243.655 800.022,-244.845 803.062,-251.15"/>
</g>
<!-- Node11 -->
<g id="node11" class="node"><title>Node11</title>
<polygon fill="white" stroke="#bfbfbf" points="647,-224.5 647,-243.5 688,-243.5 688,-224.5 647,-224.5"/>
<text text-anchor="middle" x="667.5" y="-231.5" font-family="Helvetica,sans-Serif" font-size="10.00">QSet</text>
</g>
<!-- Node10&#45;&gt;Node11 -->
<g id="edge10" class="edge"><title>Node10&#45;&gt;Node11</title>
<path fill="none" stroke="midnightblue" d="M708.409,-280.083C701.345,-272.298 690.912,-260.801 682.351,-251.367"/>
<polygon fill="midnightblue" stroke="midnightblue" points="684.753,-248.805 675.441,-243.751 679.569,-253.509 684.753,-248.805"/>
</g>
<!-- Node12 -->
<g id="node12" class="node"><title>Node12</title>
<polygon fill="white" stroke="#bfbfbf" points="1067.5,-168.5 1067.5,-187.5 1125.5,-187.5 1125.5,-168.5 1067.5,-168.5"/>
<text text-anchor="middle" x="1096.5" y="-175.5" font-family="Helvetica,sans-Serif" font-size="10.00">QVariant</text>
</g>
<!-- Node10&#45;&gt;Node12 -->
<g id="edge13" class="edge"><title>Node10&#45;&gt;Node12</title>
<path fill="none" stroke="midnightblue" d="M721.157,-280.485C729.529,-266.101 748.595,-237.264 773.5,-224 884.242,-165.02 929.779,-208.868 1053.5,-188 1054.77,-187.786 1056.06,-187.561 1057.36,-187.328"/>
<polygon fill="midnightblue" stroke="midnightblue" points="1058.25,-190.721 1067.41,-185.41 1056.94,-183.845 1058.25,-190.721"/>
</g>
<!-- Node13 -->
<g id="node13" class="node"><title>Node13</title>
<polygon fill="white" stroke="#bfbfbf" points="560,-224.5 560,-243.5 629,-243.5 629,-224.5 560,-224.5"/>
<text text-anchor="middle" x="594.5" y="-231.5" font-family="Helvetica,sans-Serif" font-size="10.00">QStringList</text>
</g>
<!-- Node10&#45;&gt;Node13 -->
<g id="edge14" class="edge"><title>Node10&#45;&gt;Node13</title>
<path fill="none" stroke="midnightblue" d="M697.169,-280.444C677.18,-271.596 645.757,-257.687 622.936,-247.586"/>
<polygon fill="midnightblue" stroke="midnightblue" points="624.302,-244.363 613.741,-243.516 621.468,-250.764 624.302,-244.363"/>
</g>
<!-- Node14 -->
<g id="node14" class="node"><title>Node14</title>
<g id="a_node14"><a xlink:href="../../d3/dee/torchttpservice_8h.html" target="_top" xlink:title="torchttpservice.h">
<polygon fill="white" stroke="black" points="146.5,-224.5 146.5,-243.5 244.5,-243.5 244.5,-224.5 146.5,-224.5"/>
<text text-anchor="middle" x="195.5" y="-231.5" font-family="Helvetica,sans-Serif" font-size="10.00">torchttpservice.h</text>
</a>
</g>
</g>
<!-- Node10&#45;&gt;Node14 -->
<g id="edge15" class="edge"><title>Node10&#45;&gt;Node14</title>
<path fill="none" stroke="midnightblue" d="M677.777,-281.428C674.644,-280.911 671.522,-280.426 668.5,-280 520.246,-259.093 344.447,-245.211 254.687,-238.903"/>
<polygon fill="midnightblue" stroke="midnightblue" points="254.918,-235.41 244.699,-238.207 254.431,-242.393 254.918,-235.41"/>
</g>
<!-- Node25 -->
<g id="node25" class="node"><title>Node25</title>
<g id="a_node25"><a xlink:href="../../d8/dfe/torcreferencecounted_8h.html" target="_top" xlink:title="torcreferencecounted.h">
<polygon fill="white" stroke="black" points="413,-224.5 413,-243.5 542,-243.5 542,-224.5 413,-224.5"/>
<text text-anchor="middle" x="477.5" y="-231.5" font-family="Helvetica,sans-Serif" font-size="10.00">torcreferencecounted.h</text>
</a>
</g>
</g>
<!-- Node10&#45;&gt;Node25 -->
<g id="edge32" class="edge"><title>Node10&#45;&gt;Node25</title>
<path fill="none" stroke="midnightblue" d="M678.63,-280.444C637.024,-271.043 570.131,-255.929 525.031,-245.739"/>
<polygon fill="midnightblue" stroke="midnightblue" points="525.719,-242.306 515.193,-243.516 524.176,-249.134 525.719,-242.306"/>
</g>
<!-- Node14&#45;&gt;Node2 -->
<g id="edge19" class="edge"><title>Node14&#45;&gt;Node2</title>
<path fill="none" stroke="midnightblue" d="M172.366,-224.444C148.018,-215.438 109.493,-201.189 82.077,-191.049"/>
<polygon fill="midnightblue" stroke="midnightblue" points="83.1191,-187.703 72.5259,-187.516 80.6908,-194.268 83.1191,-187.703"/>
</g>
<!-- Node14&#45;&gt;Node8 -->
<g id="edge17" class="edge"><title>Node14&#45;&gt;Node8</title>
<path fill="none" stroke="midnightblue" d="M233.529,-224.444C278.899,-214.235 354.216,-197.289 398.932,-187.228"/>
<polygon fill="midnightblue" stroke="midnightblue" points="399.808,-190.618 408.796,-185.008 398.272,-183.789 399.808,-190.618"/>
</g>
<!-- Node15 -->
<g id="node15" class="node"><title>Node15</title>
<polygon fill="white" stroke="#bfbfbf" points="358.5,-56.5 358.5,-75.5 402.5,-75.5 402.5,-56.5 358.5,-56.5"/>
<text text-anchor="middle" x="380.5" y="-63.5" font-family="Helvetica,sans-Serif" font-size="10.00">QMap</text>
</g>
<!-- Node14&#45;&gt;Node15 -->
<g id="edge16" class="edge"><title>Node14&#45;&gt;Node15</title>
<path fill="none" stroke="midnightblue" d="M244.671,-225.563C287.478,-218.06 345.033,-205.138 360.5,-188 385.974,-159.773 385.64,-112.049 383.109,-85.7636"/>
<polygon fill="midnightblue" stroke="midnightblue" points="386.562,-85.1576 381.917,-75.6352 379.61,-85.9758 386.562,-85.1576"/>
</g>
<!-- Node16 -->
<g id="node16" class="node"><title>Node16</title>
<polygon fill="white" stroke="#bfbfbf" points="156,-168.5 156,-187.5 235,-187.5 235,-168.5 156,-168.5"/>
<text text-anchor="middle" x="195.5" y="-175.5" font-family="Helvetica,sans-Serif" font-size="10.00">QMetaObject</text>
</g>
<!-- Node14&#45;&gt;Node16 -->
<g id="edge18" class="edge"><title>Node14&#45;&gt;Node16</title>
<path fill="none" stroke="midnightblue" d="M195.5,-224.083C195.5,-217.006 195.5,-206.861 195.5,-197.986"/>
<polygon fill="midnightblue" stroke="midnightblue" points="199,-197.751 195.5,-187.751 192,-197.751 199,-197.751"/>
</g>
<!-- Node17 -->
<g id="node17" class="node"><title>Node17</title>
<g id="a_node17"><a xlink:href="../../d4/d11/torchttphandler_8h.html" target="_top" xlink:title="torchttphandler.h">
<polygon fill="white" stroke="black" points="253,-168.5 253,-187.5 352,-187.5 352,-168.5 253,-168.5"/>
<text text-anchor="middle" x="302.5" y="-175.5" font-family="Helvetica,sans-Serif" font-size="10.00">torchttphandler.h</text>
</a>
</g>
</g>
<!-- Node14&#45;&gt;Node17 -->
<g id="edge20" class="edge"><title>Node14&#45;&gt;Node17</title>
<path fill="none" stroke="midnightblue" d="M212.691,-224.324C229.851,-215.664 256.446,-202.242 276.247,-192.249"/>
<polygon fill="midnightblue" stroke="midnightblue" points="278.001,-195.285 285.351,-187.655 274.847,-189.035 278.001,-195.285"/>
</g>
<!-- Node19 -->
<g id="node19" class="node"><title>Node19</title>
<g id="a_node19"><a xlink:href="../../df/dd7/torchttprequest_8h.html" target="_top" xlink:title="torchttprequest.h">
<polygon fill="white" stroke="black" points="155,-112.5 155,-131.5 256,-131.5 256,-112.5 155,-112.5"/>
<text text-anchor="middle" x="205.5" y="-119.5" font-family="Helvetica,sans-Serif" font-size="10.00">torchttprequest.h</text>
</a>
</g>
</g>
<!-- Node14&#45;&gt;Node19 -->
<g id="edge31" class="edge"><title>Node14&#45;&gt;Node19</title>
<path fill="none" stroke="midnightblue" d="M180.903,-224.455C162.764,-212.655 135.467,-190.291 146.5,-168 153.103,-154.659 165.765,-144.194 177.671,-136.726"/>
<polygon fill="midnightblue" stroke="midnightblue" points="179.618,-139.643 186.516,-131.602 176.109,-133.587 179.618,-139.643"/>
</g>
<!-- Node17&#45;&gt;Node6 -->
<g id="edge21" class="edge"><title>Node17&#45;&gt;Node6</title>
<path fill="none" stroke="midnightblue" d="M340.231,-168.46C431.299,-147.848 662.228,-95.58 752.01,-75.259"/>
<polygon fill="midnightblue" stroke="midnightblue" points="753.013,-78.6207 761.993,-72.9995 751.467,-71.7934 753.013,-78.6207"/>
</g>
<!-- Node18 -->
<g id="node18" class="node"><title>Node18</title>
<polygon fill="white" stroke="#bfbfbf" points="274.5,-112.5 274.5,-131.5 352.5,-131.5 352.5,-112.5 274.5,-112.5"/>
<text text-anchor="middle" x="313.5" y="-119.5" font-family="Helvetica,sans-Serif" font-size="10.00">QVariantMap</text>
</g>
<!-- Node17&#45;&gt;Node18 -->
<g id="edge22" class="edge"><title>Node17&#45;&gt;Node18</title>
<path fill="none" stroke="midnightblue" d="M304.316,-168.083C305.774,-160.927 307.871,-150.635 309.693,-141.691"/>
<polygon fill="midnightblue" stroke="midnightblue" points="313.151,-142.248 311.717,-131.751 306.292,-140.851 313.151,-142.248"/>
</g>
<!-- Node17&#45;&gt;Node19 -->
<g id="edge23" class="edge"><title>Node17&#45;&gt;Node19</title>
<path fill="none" stroke="midnightblue" d="M286.915,-168.324C271.501,-159.743 247.688,-146.486 229.79,-136.522"/>
<polygon fill="midnightblue" stroke="midnightblue" points="231.486,-133.461 221.046,-131.655 228.081,-139.577 231.486,-133.461"/>
</g>
<!-- Node19&#45;&gt;Node6 -->
<g id="edge26" class="edge"><title>Node19&#45;&gt;Node6</title>
<path fill="none" stroke="midnightblue" d="M256.209,-113.164C259.35,-112.75 262.466,-112.358 265.5,-112 447.521,-90.5394 666.326,-75.0253 751.785,-69.3593"/>
<polygon fill="midnightblue" stroke="midnightblue" points="752.021,-72.8514 761.77,-68.702 751.562,-65.8665 752.021,-72.8514"/>
</g>
<!-- Node19&#45;&gt;Node15 -->
<g id="edge24" class="edge"><title>Node19&#45;&gt;Node15</title>
<path fill="none" stroke="midnightblue" d="M233.229,-112.444C264.672,-102.741 315.841,-86.952 348.829,-76.7727"/>
<polygon fill="midnightblue" stroke="midnightblue" points="349.918,-80.0997 358.441,-73.8067 347.854,-73.4109 349.918,-80.0997"/>
</g>
<!-- Node20 -->
<g id="node20" class="node"><title>Node20</title>
<polygon fill="white" stroke="#bfbfbf" points="185,-56.5 185,-75.5 226,-75.5 226,-56.5 185,-56.5"/>
<text text-anchor="middle" x="205.5" y="-63.5" font-family="Helvetica,sans-Serif" font-size="10.00">QPair</text>
</g>
<!-- Node19&#45;&gt;Node20 -->
<g id="edge25" class="edge"><title>Node19&#45;&gt;Node20</title>
<path fill="none" stroke="midnightblue" d="M205.5,-112.083C205.5,-105.006 205.5,-94.8611 205.5,-85.9865"/>
<polygon fill="midnightblue" stroke="midnightblue" points="209,-85.751 205.5,-75.7511 202,-85.7511 209,-85.751"/>
</g>
<!-- Node21 -->
<g id="node21" class="node"><title>Node21</title>
<polygon fill="white" stroke="#bfbfbf" points="244,-56.5 244,-75.5 315,-75.5 315,-56.5 244,-56.5"/>
<text text-anchor="middle" x="279.5" y="-63.5" font-family="Helvetica,sans-Serif" font-size="10.00">QDateTime</text>
</g>
<!-- Node19&#45;&gt;Node21 -->
<g id="edge27" class="edge"><title>Node19&#45;&gt;Node21</title>
<path fill="none" stroke="midnightblue" d="M217.389,-112.324C228.65,-104.107 245.787,-91.6017 259.209,-81.8069"/>
<polygon fill="midnightblue" stroke="midnightblue" points="261.38,-84.5559 267.394,-75.8339 257.253,-78.9014 261.38,-84.5559"/>
</g>
<!-- Node22 -->
<g id="node22" class="node"><title>Node22</title>
<g id="a_node22"><a xlink:href="../../de/de6/torchttpreader_8h.html" target="_top" xlink:title="torchttpreader.h">
<polygon fill="white" stroke="black" points="72,-56.5 72,-75.5 167,-75.5 167,-56.5 72,-56.5"/>
<text text-anchor="middle" x="119.5" y="-63.5" font-family="Helvetica,sans-Serif" font-size="10.00">torchttpreader.h</text>
</a>
</g>
</g>
<!-- Node19&#45;&gt;Node22 -->
<g id="edge28" class="edge"><title>Node19&#45;&gt;Node22</title>
<path fill="none" stroke="midnightblue" d="M191.683,-112.324C178.267,-103.9 157.676,-90.9709 141.914,-81.0741"/>
<polygon fill="midnightblue" stroke="midnightblue" points="143.613,-78.0081 133.283,-75.6545 139.891,-83.9364 143.613,-78.0081"/>
</g>
<!-- Node23 -->
<g id="node23" class="node"><title>Node23</title>
<polygon fill="white" stroke="#bfbfbf" points="39,-0.5 39,-19.5 110,-19.5 110,-0.5 39,-0.5"/>
<text text-anchor="middle" x="74.5" y="-7.5" font-family="Helvetica,sans-Serif" font-size="10.00">QByteArray</text>
</g>
<!-- Node22&#45;&gt;Node23 -->
<g id="edge29" class="edge"><title>Node22&#45;&gt;Node23</title>
<path fill="none" stroke="midnightblue" d="M112.069,-56.083C105.647,-48.3768 96.1944,-37.0333 88.3775,-27.6531"/>
<polygon fill="midnightblue" stroke="midnightblue" points="90.8832,-25.1927 81.7926,-19.7511 85.5057,-29.674 90.8832,-25.1927"/>
</g>
<!-- Node24 -->
<g id="node24" class="node"><title>Node24</title>
<polygon fill="white" stroke="#bfbfbf" points="128.5,-0.5 128.5,-19.5 200.5,-19.5 200.5,-0.5 128.5,-0.5"/>
<text text-anchor="middle" x="164.5" y="-7.5" font-family="Helvetica,sans-Serif" font-size="10.00">QTcpSocket</text>
</g>
<!-- Node22&#45;&gt;Node24 -->
<g id="edge30" class="edge"><title>Node22&#45;&gt;Node24</title>
<path fill="none" stroke="midnightblue" d="M126.931,-56.083C133.353,-48.3768 142.806,-37.0333 150.622,-27.6531"/>
<polygon fill="midnightblue" stroke="midnightblue" points="153.494,-29.674 157.207,-19.7511 148.117,-25.1927 153.494,-29.674"/>
</g>
<!-- Node26 -->
<g id="node26" class="node"><title>Node26</title>
<polygon fill="white" stroke="#bfbfbf" points="480.5,-168.5 480.5,-187.5 550.5,-187.5 550.5,-168.5 480.5,-168.5"/>
<text text-anchor="middle" x="515.5" y="-175.5" font-family="Helvetica,sans-Serif" font-size="10.00">QAtomicInt</text>
</g>
<!-- Node25&#45;&gt;Node26 -->
<g id="edge33" class="edge"><title>Node25&#45;&gt;Node26</title>
<path fill="none" stroke="midnightblue" d="M483.775,-224.083C489.142,-216.455 497.018,-205.264 503.579,-195.941"/>
<polygon fill="midnightblue" stroke="midnightblue" points="506.449,-197.943 509.342,-187.751 500.725,-193.915 506.449,-197.943"/>
</g>
<!-- Node28 -->
<g id="node28" class="node"><title>Node28</title>
<g id="a_node28"><a xlink:href="../../d3/d66/torcevent_8h.html" target="_top" xlink:title="torcevent.h">
<polygon fill="white" stroke="black" points="1167,-224.5 1167,-243.5 1238,-243.5 1238,-224.5 1167,-224.5"/>
<text text-anchor="middle" x="1202.5" y="-231.5" font-family="Helvetica,sans-Serif" font-size="10.00">torcevent.h</text>
</a>
</g>
</g>
<!-- Node27&#45;&gt;Node28 -->
<g id="edge35" class="edge"><title>Node27&#45;&gt;Node28</title>
<path fill="none" stroke="midnightblue" d="M1158.25,-280.083C1165.97,-272.22 1177.4,-260.569 1186.72,-251.081"/>
<polygon fill="midnightblue" stroke="midnightblue" points="1189.4,-253.34 1193.91,-243.751 1184.41,-248.436 1189.4,-253.34"/>
</g>
<!-- Node28&#45;&gt;Node12 -->
<g id="edge37" class="edge"><title>Node28&#45;&gt;Node12</title>
<path fill="none" stroke="midnightblue" d="M1185.47,-224.324C1168.47,-215.664 1142.12,-202.242 1122.51,-192.249"/>
<polygon fill="midnightblue" stroke="midnightblue" points="1123.99,-189.075 1113.49,-187.655 1120.81,-195.312 1123.99,-189.075"/>
</g>
<!-- Node28&#45;&gt;Node15 -->
<g id="edge36" class="edge"><title>Node28&#45;&gt;Node15</title>
<path fill="none" stroke="midnightblue" d="M1196.51,-224.493C1185.87,-210.12 1162.17,-181.3 1134.5,-168 1003.51,-105.046 540.465,-75.6871 413.122,-68.6886"/>
<polygon fill="midnightblue" stroke="midnightblue" points="413.034,-65.1789 402.859,-68.1334 412.655,-72.1686 413.034,-65.1789"/>
</g>
<!-- Node29 -->
<g id="node29" class="node"><title>Node29</title>
<polygon fill="white" stroke="#bfbfbf" points="1182,-168.5 1182,-187.5 1233,-187.5 1233,-168.5 1182,-168.5"/>
<text text-anchor="middle" x="1207.5" y="-175.5" font-family="Helvetica,sans-Serif" font-size="10.00">QEvent</text>
</g>
<!-- Node28&#45;&gt;Node29 -->
<g id="edge38" class="edge"><title>Node28&#45;&gt;Node29</title>
<path fill="none" stroke="midnightblue" d="M1203.33,-224.083C1203.98,-217.006 1204.92,-206.861 1205.74,-197.986"/>
<polygon fill="midnightblue" stroke="midnightblue" points="1209.25,-198.031 1206.69,-187.751 1202.28,-197.386 1209.25,-198.031"/>
</g>
<!-- Node31 -->
<g id="node31" class="node"><title>Node31</title>
<g id="a_node31"><a xlink:href="../../d4/da3/torcdb_8h.html" target="_top" xlink:title="torcdb.h">
<polygon fill="white" stroke="black" points="338.5,-224.5 338.5,-243.5 394.5,-243.5 394.5,-224.5 338.5,-224.5"/>
<text text-anchor="middle" x="366.5" y="-231.5" font-family="Helvetica,sans-Serif" font-size="10.00">torcdb.h</text>
</a>
</g>
</g>
<!-- Node30&#45;&gt;Node31 -->
<g id="edge40" class="edge"><title>Node30&#45;&gt;Node31</title>
<path fill="none" stroke="midnightblue" d="M434.486,-280.324C421.968,-271.979 402.818,-259.212 388.029,-249.352"/>
<polygon fill="midnightblue" stroke="midnightblue" points="389.744,-246.289 379.482,-243.655 385.861,-252.114 389.744,-246.289"/>
</g>
<!-- Node31&#45;&gt;Node5 -->
<g id="edge41" class="edge"><title>Node31&#45;&gt;Node5</title>
<path fill="none" stroke="midnightblue" d="M394.685,-225.635C397.648,-225.014 400.626,-224.452 403.5,-224 515.618,-206.38 864.264,-187.026 979.846,-180.94"/>
<polygon fill="midnightblue" stroke="midnightblue" points="980.172,-184.428 989.975,-180.41 979.806,-177.438 980.172,-184.428"/>
</g>
<!-- Node31&#45;&gt;Node8 -->
<g id="edge42" class="edge"><title>Node31&#45;&gt;Node8</title>
<path fill="none" stroke="midnightblue" d="M377.586,-224.324C387.986,-216.185 403.761,-203.839 416.222,-194.087"/>
<polygon fill="midnightblue" stroke="midnightblue" points="418.494,-196.753 424.212,-187.834 414.18,-191.241 418.494,-196.753"/>
</g>
<!-- Node33 -->
<g id="node33" class="node"><title>Node33</title>
<polygon fill="white" stroke="#bfbfbf" points="993,-224.5 993,-243.5 1034,-243.5 1034,-224.5 993,-224.5"/>
<text text-anchor="middle" x="1013.5" y="-231.5" font-family="Helvetica,sans-Serif" font-size="10.00">QList</text>
</g>
<!-- Node32&#45;&gt;Node33 -->
<g id="edge44" class="edge"><title>Node32&#45;&gt;Node33</title>
<path fill="none" stroke="midnightblue" d="M946.353,-280.324C958.716,-271.979 977.63,-259.212 992.237,-249.352"/>
<polygon fill="midnightblue" stroke="midnightblue" points="994.348,-252.15 1000.68,-243.655 990.432,-246.348 994.348,-252.15"/>
</g>
<!-- Node34 -->
<g id="node34" class="node"><title>Node34</title>
<g id="a_node34"><a xlink:href="../../dd/db0/torcqthread_8h.html" target="_top" xlink:title="torcqthread.h">
<polygon fill="white" stroke="black" points="892.5,-224.5 892.5,-243.5 974.5,-243.5 974.5,-224.5 892.5,-224.5"/>
<text text-anchor="middle" x="933.5" y="-231.5" font-family="Helvetica,sans-Serif" font-size="10.00">torcqthread.h</text>
</a>
</g>
</g>
<!-- Node32&#45;&gt;Node34 -->
<g id="edge45" class="edge"><title>Node32&#45;&gt;Node34</title>
<path fill="none" stroke="midnightblue" d="M933.5,-280.083C933.5,-273.006 933.5,-262.861 933.5,-253.986"/>
<polygon fill="midnightblue" stroke="midnightblue" points="937,-253.751 933.5,-243.751 930,-253.751 937,-253.751"/>
</g>
<!-- Node34&#45;&gt;Node3 -->
<g id="edge46" class="edge"><title>Node34&#45;&gt;Node3</title>
<path fill="none" stroke="midnightblue" d="M906.88,-224.444C878.494,-215.32 833.363,-200.813 801.747,-190.651"/>
<polygon fill="midnightblue" stroke="midnightblue" points="802.587,-187.244 791.996,-187.516 800.445,-193.909 802.587,-187.244"/>
</g>
<!-- Node35&#45;&gt;Node5 -->
<g id="edge48" class="edge"><title>Node35&#45;&gt;Node5</title>
<path fill="none" stroke="midnightblue" d="M1264.98,-280.476C1226.28,-273.379 1173.59,-261.568 1129.5,-244 1095.69,-230.528 1059.86,-208.104 1038.08,-193.436"/>
<polygon fill="midnightblue" stroke="midnightblue" points="1039.88,-190.429 1029.65,-187.673 1035.93,-196.207 1039.88,-190.429"/>
</g>
<!-- Node35&#45;&gt;Node12 -->
<g id="edge49" class="edge"><title>Node35&#45;&gt;Node12</title>
<path fill="none" stroke="midnightblue" d="M1264.37,-281.375C1231.55,-275.025 1190.09,-263.717 1157.5,-244 1137.1,-231.662 1119.17,-210.639 1108.12,-195.85"/>
<polygon fill="midnightblue" stroke="midnightblue" points="1110.85,-193.652 1102.16,-187.58 1105.17,-197.741 1110.85,-193.652"/>
</g>
<!-- Node36 -->
<g id="node36" class="node"><title>Node36</title>
<polygon fill="white" stroke="#bfbfbf" points="1295,-224.5 1295,-243.5 1344,-243.5 1344,-224.5 1295,-224.5"/>
<text text-anchor="middle" x="1319.5" y="-231.5" font-family="Helvetica,sans-Serif" font-size="10.00">QHash</text>
</g>
<!-- Node35&#45;&gt;Node36 -->
<g id="edge50" class="edge"><title>Node35&#45;&gt;Node36</title>
<path fill="none" stroke="midnightblue" d="M1319.5,-280.083C1319.5,-273.006 1319.5,-262.861 1319.5,-253.986"/>
<polygon fill="midnightblue" stroke="midnightblue" points="1323,-253.751 1319.5,-243.751 1316,-253.751 1323,-253.751"/>
</g>
<!-- Node37 -->
<g id="node37" class="node"><title>Node37</title>
<g id="a_node37"><a xlink:href="../../d4/df9/torclogging_8h.html" target="_top" xlink:title="torclogging.h">
<polygon fill="white" stroke="black" points="1362,-224.5 1362,-243.5 1441,-243.5 1441,-224.5 1362,-224.5"/>
<text text-anchor="middle" x="1401.5" y="-231.5" font-family="Helvetica,sans-Serif" font-size="10.00">torclogging.h</text>
</a>
</g>
</g>
<!-- Node35&#45;&gt;Node37 -->
<g id="edge51" class="edge"><title>Node35&#45;&gt;Node37</title>
<path fill="none" stroke="midnightblue" d="M1332.67,-280.324C1345.35,-271.979 1364.73,-259.212 1379.71,-249.352"/>
<polygon fill="midnightblue" stroke="midnightblue" points="1381.93,-252.078 1388.36,-243.655 1378.08,-246.231 1381.93,-252.078"/>
</g>
<!-- Node38 -->
<g id="node38" class="node"><title>Node38</title>
<polygon fill="white" stroke="#bfbfbf" points="1295,-168.5 1295,-187.5 1348,-187.5 1348,-168.5 1295,-168.5"/>
<text text-anchor="middle" x="1321.5" y="-175.5" font-family="Helvetica,sans-Serif" font-size="10.00">stdint.h</text>
</g>
<!-- Node37&#45;&gt;Node38 -->
<g id="edge52" class="edge"><title>Node37&#45;&gt;Node38</title>
<path fill="none" stroke="midnightblue" d="M1388.65,-224.324C1376.28,-215.979 1357.37,-203.212 1342.76,-193.352"/>
<polygon fill="midnightblue" stroke="midnightblue" points="1344.57,-190.348 1334.32,-187.655 1340.65,-196.15 1344.57,-190.348"/>
</g>
<!-- Node39 -->
<g id="node39" class="node"><title>Node39</title>
<polygon fill="white" stroke="#bfbfbf" points="1366,-168.5 1366,-187.5 1417,-187.5 1417,-168.5 1366,-168.5"/>
<text text-anchor="middle" x="1391.5" y="-175.5" font-family="Helvetica,sans-Serif" font-size="10.00">errno.h</text>
</g>
<!-- Node37&#45;&gt;Node39 -->
<g id="edge53" class="edge"><title>Node37&#45;&gt;Node39</title>
<path fill="none" stroke="midnightblue" d="M1399.85,-224.083C1398.52,-216.927 1396.62,-206.635 1394.96,-197.691"/>
<polygon fill="midnightblue" stroke="midnightblue" points="1398.38,-196.947 1393.12,-187.751 1391.5,-198.221 1398.38,-196.947"/>
</g>
<!-- Node40 -->
<g id="node40" class="node"><title>Node40</title>
<g id="a_node40"><a xlink:href="../../d1/d37/torcloggingdefs_8h.html" target="_top" xlink:title="torcloggingdefs.h">
<polygon fill="white" stroke="black" points="1435,-168.5 1435,-187.5 1534,-187.5 1534,-168.5 1435,-168.5"/>
<text text-anchor="middle" x="1484.5" y="-175.5" font-family="Helvetica,sans-Serif" font-size="10.00">torcloggingdefs.h</text>
</a>
</g>
</g>
<!-- Node37&#45;&gt;Node40 -->
<g id="edge54" class="edge"><title>Node37&#45;&gt;Node40</title>
<path fill="none" stroke="midnightblue" d="M1414.84,-224.324C1427.66,-215.979 1447.28,-203.212 1462.44,-193.352"/>
<polygon fill="midnightblue" stroke="midnightblue" points="1464.72,-196.042 1471.2,-187.655 1460.91,-190.174 1464.72,-196.042"/>
</g>
<!-- Node42&#45;&gt;Node6 -->
<g id="edge58" class="edge"><title>Node42&#45;&gt;Node6</title>
<path fill="none" stroke="midnightblue" d="M1359.63,-344.38C1428.65,-340.961 1562.5,-322.986 1562.5,-235 1562.5,-235 1562.5,-235 1562.5,-177 1562.5,-101.615 979.56,-74.2281 825.481,-68.3059"/>
<polygon fill="midnightblue" stroke="midnightblue" points="825.268,-64.7955 815.143,-67.9162 825.004,-71.7905 825.268,-64.7955"/>
</g>
<!-- Node42&#45;&gt;Node35 -->
<g id="edge59" class="edge"><title>Node42&#45;&gt;Node35</title>
<path fill="none" stroke="midnightblue" d="M1319.5,-336.083C1319.5,-329.006 1319.5,-318.861 1319.5,-309.986"/>
<polygon fill="midnightblue" stroke="midnightblue" points="1323,-309.751 1319.5,-299.751 1316,-309.751 1323,-309.751"/>
</g>
</g>
</svg>
