<?xml version="1.0" encoding="UTF-8" standalone="no"?>
<!DOCTYPE svg PUBLIC "-//W3C//DTD SVG 1.1//EN"
 "http://www.w3.org/Graphics/SVG/1.1/DTD/svg11.dtd">
<!-- Generated by graphviz version 2.38.0 (20140413.2041)
 -->
<!-- Title: torccontrols.cpp Pages: 1 -->
<!--zoomable 420 -->
<svg id="main" version="1.1" xmlns="http://www.w3.org/2000/svg" xmlns:xlink="http://www.w3.org/1999/xlink" xml:space="preserve" onload="init(evt)">
<style type="text/css"><![CDATA[
.edge:hover path { stroke: red; }
.edge:hover polygon { stroke: red; fill: red; }
]]></style>
<script type="text/javascript"><![CDATA[
var edges = document.getElementsByTagName('g');
if (edges && edges.length) {
  for (var i=0;i<edges.length;i++) {
    if (edges[i].id.substr(0,4)=='edge') {
      edges[i].setAttribute('class','edge');
    }
  }
}
]]></script>
        <defs>
                <circle id="rim" cx="0" cy="0" r="7"/>
                <circle id="rim2" cx="0" cy="0" r="3.5"/>
                <g id="zoomPlus">
                        <use xlink:href="#rim" fill="#404040">
                                <set attributeName="fill" to="#808080" begin="zoomplus.mouseover" end="zoomplus.mouseout"/>
                        </use>
                        <path d="M-4,0h8M0,-4v8" fill="none" stroke="white" stroke-width="1.5" pointer-events="none"/>
                </g>
                <g id="zoomMin">
                        <use xlink:href="#rim" fill="#404040">
                                <set attributeName="fill" to="#808080" begin="zoomminus.mouseover" end="zoomminus.mouseout"/>
                        </use>
                        <path d="M-4,0h8" fill="none" stroke="white" stroke-width="1.5" pointer-events="none"/>
                </g>
                <g id="dirArrow">
                        <path fill="none" stroke="white" stroke-width="1.5" d="M0,-3.0v7 M-2.5,-0.5L0,-3.0L2.5,-0.5"/>
                </g>
               <g id="resetDef">
                       <use xlink:href="#rim2" fill="#404040">
                               <set attributeName="fill" to="#808080" begin="reset.mouseover" end="reset.mouseout"/>
                       </use>
               </g>
        </defs>

<script type="text/javascript">
var viewWidth = 1354;
var viewHeight = 420;
var sectionId = 'dynsection-0';
</script>
<script xlink:href="../../svgpan.js"/>
<svg id="graph" class="graph">
<g id="viewport">
<title>torccontrols.cpp</title>
<polygon fill="white" stroke="none" points="-4,4 -4,-416 1350.34,-416 1350.34,4 -4,4"/>
<!-- Node1 -->
<g id="node1" class="node"><title>Node1</title>
<polygon fill="#bfbfbf" stroke="black" points="595.5,-392.5 595.5,-411.5 689.5,-411.5 689.5,-392.5 595.5,-392.5"/>
<text text-anchor="middle" x="642.5" y="-399.5" font-family="Helvetica,sans-Serif" font-size="10.00">torccontrols.cpp</text>
</g>
<!-- Node2 -->
<g id="node2" class="node"><title>Node2</title>
<polygon fill="white" stroke="#bfbfbf" points="1024,-112.5 1024,-131.5 1077,-131.5 1077,-112.5 1024,-112.5"/>
<text text-anchor="middle" x="1050.5" y="-119.5" font-family="Helvetica,sans-Serif" font-size="10.00">QMutex</text>
</g>
<!-- Node1&#45;&gt;Node2 -->
<g id="edge1" class="edge"><title>Node1&#45;&gt;Node2</title>
<path fill="none" stroke="midnightblue" d="M689.64,-400.236C767.44,-398.013 927.09,-389.384 1057.5,-356 1120.43,-339.891 1139.27,-337.224 1192.5,-300 1247.92,-261.246 1270.93,-251.007 1295.5,-188 1298.73,-179.718 1301.23,-174.798 1295.5,-168 1266.85,-133.999 1147.3,-140.763 1087.31,-131.718"/>
<polygon fill="midnightblue" stroke="midnightblue" points="1087.65,-128.222 1077.19,-129.906 1086.41,-135.113 1087.65,-128.222"/>
</g>
<!-- Node3 -->
<g id="node3" class="node"><title>Node3</title>
<g id="a_node3"><a xlink:href="../../d4/df9/torclogging_8h.html" target="_top" xlink:title="torclogging.h">
<polygon fill="white" stroke="black" points="104,-336.5 104,-355.5 183,-355.5 183,-336.5 104,-336.5"/>
<text text-anchor="middle" x="143.5" y="-343.5" font-family="Helvetica,sans-Serif" font-size="10.00">torclogging.h</text>
</a>
</g>
</g>
<!-- Node1&#45;&gt;Node3 -->
<g id="edge2" class="edge"><title>Node1&#45;&gt;Node3</title>
<path fill="none" stroke="midnightblue" d="M595.105,-395.871C500.628,-385.647 289.657,-362.817 193.266,-352.385"/>
<polygon fill="midnightblue" stroke="midnightblue" points="193.515,-348.892 183.197,-351.296 192.762,-355.851 193.515,-348.892"/>
</g>
<!-- Node7 -->
<g id="node7" class="node"><title>Node7</title>
<g id="a_node7"><a xlink:href="../../d1/d49/torccoreutils_8h.html" target="_top" xlink:title="torccoreutils.h">
<polygon fill="white" stroke="black" points="311,-336.5 311,-355.5 396,-355.5 396,-336.5 311,-336.5"/>
<text text-anchor="middle" x="353.5" y="-343.5" font-family="Helvetica,sans-Serif" font-size="10.00">torccoreutils.h</text>
</a>
</g>
</g>
<!-- Node1&#45;&gt;Node7 -->
<g id="edge6" class="edge"><title>Node1&#45;&gt;Node7</title>
<path fill="none" stroke="midnightblue" d="M596.707,-392.444C544.972,-382.777 460.901,-367.068 406.404,-356.885"/>
<polygon fill="midnightblue" stroke="midnightblue" points="406.725,-353.385 396.252,-354.988 405.439,-360.266 406.725,-353.385"/>
</g>
<!-- Node11 -->
<g id="node11" class="node"><title>Node11</title>
<g id="a_node11"><a xlink:href="../../dd/df8/torclogiccontrol_8h.html" target="_top" xlink:title="torclogiccontrol.h">
<polygon fill="white" stroke="black" points="474,-336.5 474,-355.5 573,-355.5 573,-336.5 474,-336.5"/>
<text text-anchor="middle" x="523.5" y="-343.5" font-family="Helvetica,sans-Serif" font-size="10.00">torclogiccontrol.h</text>
</a>
</g>
</g>
<!-- Node1&#45;&gt;Node11 -->
<g id="edge10" class="edge"><title>Node1&#45;&gt;Node11</title>
<path fill="none" stroke="midnightblue" d="M623.644,-392.444C604.234,-383.636 573.77,-369.812 551.535,-359.722"/>
<polygon fill="midnightblue" stroke="midnightblue" points="552.82,-356.462 542.268,-355.516 549.928,-362.836 552.82,-356.462"/>
</g>
<!-- Node36 -->
<g id="node36" class="node"><title>Node36</title>
<g id="a_node36"><a xlink:href="../../d8/d13/torctimercontrol_8h.html" target="_top" xlink:title="torctimercontrol.h">
<polygon fill="white" stroke="black" points="591,-336.5 591,-355.5 694,-355.5 694,-336.5 591,-336.5"/>
<text text-anchor="middle" x="642.5" y="-343.5" font-family="Helvetica,sans-Serif" font-size="10.00">torctimercontrol.h</text>
</a>
</g>
</g>
<!-- Node1&#45;&gt;Node36 -->
<g id="edge47" class="edge"><title>Node1&#45;&gt;Node36</title>
<path fill="none" stroke="midnightblue" d="M642.5,-392.083C642.5,-385.006 642.5,-374.861 642.5,-365.986"/>
<polygon fill="midnightblue" stroke="midnightblue" points="646,-365.751 642.5,-355.751 639,-365.751 646,-365.751"/>
</g>
<!-- Node39 -->
<g id="node39" class="node"><title>Node39</title>
<g id="a_node39"><a xlink:href="../../d0/d20/torctransitioncontrol_8h.html" target="_top" xlink:title="torctransitioncontrol.h">
<polygon fill="white" stroke="black" points="926.5,-336.5 926.5,-355.5 1048.5,-355.5 1048.5,-336.5 926.5,-336.5"/>
<text text-anchor="middle" x="987.5" y="-343.5" font-family="Helvetica,sans-Serif" font-size="10.00">torctransitioncontrol.h</text>
</a>
</g>
</g>
<!-- Node1&#45;&gt;Node39 -->
<g id="edge51" class="edge"><title>Node1&#45;&gt;Node39</title>
<path fill="none" stroke="midnightblue" d="M689.747,-393.605C750.219,-384.14 855.246,-367.701 923.028,-357.091"/>
<polygon fill="midnightblue" stroke="midnightblue" points="923.823,-360.51 933.162,-355.505 922.741,-353.594 923.823,-360.51"/>
</g>
<!-- Node42 -->
<g id="node42" class="node"><title>Node42</title>
<g id="a_node42"><a xlink:href="../../db/d27/torccontrols_8h.html" target="_top" xlink:title="torccontrols.h">
<polygon fill="white" stroke="black" points="730,-336.5 730,-355.5 813,-355.5 813,-336.5 730,-336.5"/>
<text text-anchor="middle" x="771.5" y="-343.5" font-family="Helvetica,sans-Serif" font-size="10.00">torccontrols.h</text>
</a>
</g>
</g>
<!-- Node1&#45;&gt;Node42 -->
<g id="edge55" class="edge"><title>Node1&#45;&gt;Node42</title>
<path fill="none" stroke="midnightblue" d="M662.94,-392.444C684.17,-383.557 717.599,-369.563 741.755,-359.451"/>
<polygon fill="midnightblue" stroke="midnightblue" points="743.282,-362.606 751.155,-355.516 740.579,-356.149 743.282,-362.606"/>
</g>
<!-- Node4 -->
<g id="node4" class="node"><title>Node4</title>
<polygon fill="white" stroke="#bfbfbf" points="0,-280.5 0,-299.5 53,-299.5 53,-280.5 0,-280.5"/>
<text text-anchor="middle" x="26.5" y="-287.5" font-family="Helvetica,sans-Serif" font-size="10.00">stdint.h</text>
</g>
<!-- Node3&#45;&gt;Node4 -->
<g id="edge3" class="edge"><title>Node3&#45;&gt;Node4</title>
<path fill="none" stroke="midnightblue" d="M124.961,-336.444C105.877,-327.636 75.9251,-313.812 54.0643,-303.722"/>
<polygon fill="midnightblue" stroke="midnightblue" points="55.4986,-300.529 44.9523,-299.516 52.5651,-306.885 55.4986,-300.529"/>
</g>
<!-- Node5 -->
<g id="node5" class="node"><title>Node5</title>
<polygon fill="white" stroke="#bfbfbf" points="71,-280.5 71,-299.5 122,-299.5 122,-280.5 71,-280.5"/>
<text text-anchor="middle" x="96.5" y="-287.5" font-family="Helvetica,sans-Serif" font-size="10.00">errno.h</text>
</g>
<!-- Node3&#45;&gt;Node5 -->
<g id="edge4" class="edge"><title>Node3&#45;&gt;Node5</title>
<path fill="none" stroke="midnightblue" d="M135.739,-336.083C128.963,-328.298 118.957,-316.801 110.745,-307.367"/>
<polygon fill="midnightblue" stroke="midnightblue" points="113.322,-304.996 104.117,-299.751 108.042,-309.592 113.322,-304.996"/>
</g>
<!-- Node6 -->
<g id="node6" class="node"><title>Node6</title>
<g id="a_node6"><a xlink:href="../../d1/d37/torcloggingdefs_8h.html" target="_top" xlink:title="torcloggingdefs.h">
<polygon fill="white" stroke="black" points="140,-280.5 140,-299.5 239,-299.5 239,-280.5 140,-280.5"/>
<text text-anchor="middle" x="189.5" y="-287.5" font-family="Helvetica,sans-Serif" font-size="10.00">torcloggingdefs.h</text>
</a>
</g>
</g>
<!-- Node3&#45;&gt;Node6 -->
<g id="edge5" class="edge"><title>Node3&#45;&gt;Node6</title>
<path fill="none" stroke="midnightblue" d="M151.096,-336.083C157.727,-328.298 167.521,-316.801 175.558,-307.367"/>
<polygon fill="midnightblue" stroke="midnightblue" points="178.225,-309.633 182.045,-299.751 172.896,-305.094 178.225,-309.633"/>
</g>
<!-- Node8 -->
<g id="node8" class="node"><title>Node8</title>
<polygon fill="white" stroke="#bfbfbf" points="296,-280.5 296,-299.5 335,-299.5 335,-280.5 296,-280.5"/>
<text text-anchor="middle" x="315.5" y="-287.5" font-family="Helvetica,sans-Serif" font-size="10.00">QFile</text>
</g>
<!-- Node7&#45;&gt;Node8 -->
<g id="edge7" class="edge"><title>Node7&#45;&gt;Node8</title>
<path fill="none" stroke="midnightblue" d="M347.225,-336.083C341.858,-328.455 333.982,-317.264 327.421,-307.941"/>
<polygon fill="midnightblue" stroke="midnightblue" points="330.275,-305.915 321.658,-299.751 324.551,-309.943 330.275,-305.915"/>
</g>
<!-- Node9 -->
<g id="node9" class="node"><title>Node9</title>
<polygon fill="white" stroke="#bfbfbf" points="353.5,-280.5 353.5,-299.5 429.5,-299.5 429.5,-280.5 353.5,-280.5"/>
<text text-anchor="middle" x="391.5" y="-287.5" font-family="Helvetica,sans-Serif" font-size="10.00">QMetaEnum</text>
</g>
<!-- Node7&#45;&gt;Node9 -->
<g id="edge8" class="edge"><title>Node7&#45;&gt;Node9</title>
<path fill="none" stroke="midnightblue" d="M359.775,-336.083C365.142,-328.455 373.018,-317.264 379.579,-307.941"/>
<polygon fill="midnightblue" stroke="midnightblue" points="382.449,-309.943 385.342,-299.751 376.725,-305.915 382.449,-309.943"/>
</g>
<!-- Node10 -->
<g id="node10" class="node"><title>Node10</title>
<polygon fill="white" stroke="#bfbfbf" points="285,-56.5 285,-75.5 356,-75.5 356,-56.5 285,-56.5"/>
<text text-anchor="middle" x="320.5" y="-63.5" font-family="Helvetica,sans-Serif" font-size="10.00">QDateTime</text>
</g>
<!-- Node7&#45;&gt;Node10 -->
<g id="edge9" class="edge"><title>Node7&#45;&gt;Node10</title>
<path fill="none" stroke="midnightblue" d="M333.713,-336.358C318.676,-328.823 298.583,-316.508 286.5,-300 268.723,-275.713 267.5,-265.098 267.5,-235 267.5,-235 267.5,-235 267.5,-177 267.5,-140.992 290.834,-104.339 306.537,-83.7501"/>
<polygon fill="midnightblue" stroke="midnightblue" points="309.435,-85.7291 312.906,-75.7193 303.95,-81.3793 309.435,-85.7291"/>
</g>
<!-- Node12 -->
<g id="node12" class="node"><title>Node12</title>
<g id="a_node12"><a xlink:href="../../d2/d60/torcmaths_8h.html" target="_top" xlink:title="torcmaths.h">
<polygon fill="white" stroke="black" points="448,-280.5 448,-299.5 523,-299.5 523,-280.5 448,-280.5"/>
<text text-anchor="middle" x="485.5" y="-287.5" font-family="Helvetica,sans-Serif" font-size="10.00">torcmaths.h</text>
</a>
</g>
</g>
<!-- Node11&#45;&gt;Node12 -->
<g id="edge11" class="edge"><title>Node11&#45;&gt;Node12</title>
<path fill="none" stroke="midnightblue" d="M517.225,-336.083C511.858,-328.455 503.982,-317.264 497.421,-307.941"/>
<polygon fill="midnightblue" stroke="midnightblue" points="500.275,-305.915 491.658,-299.751 494.551,-309.943 500.275,-305.915"/>
</g>
<!-- Node14 -->
<g id="node14" class="node"><title>Node14</title>
<g id="a_node14"><a xlink:href="../../d9/d9a/torccontrol_8h.html" target="_top" xlink:title="torccontrol.h">
<polygon fill="white" stroke="black" points="675,-280.5 675,-299.5 752,-299.5 752,-280.5 675,-280.5"/>
<text text-anchor="middle" x="713.5" y="-287.5" font-family="Helvetica,sans-Serif" font-size="10.00">torccontrol.h</text>
</a>
</g>
</g>
<!-- Node11&#45;&gt;Node14 -->
<g id="edge13" class="edge"><title>Node11&#45;&gt;Node14</title>
<path fill="none" stroke="midnightblue" d="M553.606,-336.444C586.126,-327.201 638.079,-312.436 673.891,-302.257"/>
<polygon fill="midnightblue" stroke="midnightblue" points="674.873,-305.617 683.535,-299.516 672.959,-298.884 674.873,-305.617"/>
</g>
<!-- Node13 -->
<g id="node13" class="node"><title>Node13</title>
<polygon fill="white" stroke="#bfbfbf" points="295.5,-224.5 295.5,-243.5 351.5,-243.5 351.5,-224.5 295.5,-224.5"/>
<text text-anchor="middle" x="323.5" y="-231.5" font-family="Helvetica,sans-Serif" font-size="10.00">QQueue</text>
</g>
<!-- Node12&#45;&gt;Node13 -->
<g id="edge12" class="edge"><title>Node12&#45;&gt;Node13</title>
<path fill="none" stroke="midnightblue" d="M459.831,-280.444C432.577,-271.359 389.316,-256.939 358.849,-246.783"/>
<polygon fill="midnightblue" stroke="midnightblue" points="359.643,-243.358 349.049,-243.516 357.429,-249.999 359.643,-243.358"/>
</g>
<!-- Node15 -->
<g id="node15" class="node"><title>Node15</title>
<polygon fill="white" stroke="#bfbfbf" points="428.5,-56.5 428.5,-75.5 472.5,-75.5 472.5,-56.5 428.5,-56.5"/>
<text text-anchor="middle" x="450.5" y="-63.5" font-family="Helvetica,sans-Serif" font-size="10.00">QMap</text>
</g>
<!-- Node14&#45;&gt;Node15 -->
<g id="edge14" class="edge"><title>Node14&#45;&gt;Node15</title>
<path fill="none" stroke="midnightblue" d="M678.186,-280.436C583.382,-257.366 330.05,-195.175 324.5,-188 290.127,-143.563 371.469,-100.081 419.063,-79.4383"/>
<polygon fill="midnightblue" stroke="midnightblue" points="420.522,-82.6215 428.37,-75.5042 417.796,-76.1738 420.522,-82.6215"/>
</g>
<!-- Node16 -->
<g id="node16" class="node"><title>Node16</title>
<polygon fill="white" stroke="#bfbfbf" points="1210,-168.5 1210,-187.5 1265,-187.5 1265,-168.5 1210,-168.5"/>
<text text-anchor="middle" x="1237.5" y="-175.5" font-family="Helvetica,sans-Serif" font-size="10.00">QObject</text>
</g>
<!-- Node14&#45;&gt;Node16 -->
<g id="edge15" class="edge"><title>Node14&#45;&gt;Node16</title>
<path fill="none" stroke="midnightblue" d="M752.011,-286.475C813.978,-281.803 939.321,-269.832 1042.5,-244 1067.33,-237.784 1072.3,-232.337 1096.5,-224 1131.49,-211.945 1171.73,-199.211 1200.25,-190.378"/>
<polygon fill="midnightblue" stroke="midnightblue" points="1201.3,-193.718 1209.82,-187.424 1199.23,-187.03 1201.3,-193.718"/>
</g>
<!-- Node17 -->
<g id="node17" class="node"><title>Node17</title>
<polygon fill="white" stroke="#bfbfbf" points="370,-224.5 370,-243.5 439,-243.5 439,-224.5 370,-224.5"/>
<text text-anchor="middle" x="404.5" y="-231.5" font-family="Helvetica,sans-Serif" font-size="10.00">QStringList</text>
</g>
<!-- Node14&#45;&gt;Node17 -->
<g id="edge16" class="edge"><title>Node14&#45;&gt;Node17</title>
<path fill="none" stroke="midnightblue" d="M674.998,-281.721C671.786,-281.132 668.588,-280.552 665.5,-280 571.418,-263.193 547.613,-260.633 453.5,-244 452.036,-243.741 450.548,-243.477 449.045,-243.208"/>
<polygon fill="midnightblue" stroke="midnightblue" points="449.486,-239.731 439.023,-241.401 448.243,-246.62 449.486,-239.731"/>
</g>
<!-- Node18 -->
<g id="node18" class="node"><title>Node18</title>
<g id="a_node18"><a xlink:href="../../d3/dee/torchttpservice_8h.html" target="_top" xlink:title="torchttpservice.h">
<polygon fill="white" stroke="black" points="635.5,-224.5 635.5,-243.5 733.5,-243.5 733.5,-224.5 635.5,-224.5"/>
<text text-anchor="middle" x="684.5" y="-231.5" font-family="Helvetica,sans-Serif" font-size="10.00">torchttpservice.h</text>
</a>
</g>
</g>
<!-- Node14&#45;&gt;Node18 -->
<g id="edge17" class="edge"><title>Node14&#45;&gt;Node18</title>
<path fill="none" stroke="midnightblue" d="M708.711,-280.083C704.742,-272.691 698.975,-261.953 694.065,-252.811"/>
<polygon fill="midnightblue" stroke="midnightblue" points="697.014,-250.905 689.2,-243.751 690.847,-254.217 697.014,-250.905"/>
</g>
<!-- Node30 -->
<g id="node30" class="node"><title>Node30</title>
<g id="a_node30"><a xlink:href="../../d1/df7/torcdevice_8h.html" target="_top" xlink:title="torcdevice.h">
<polygon fill="white" stroke="black" points="959,-224.5 959,-243.5 1034,-243.5 1034,-224.5 959,-224.5"/>
<text text-anchor="middle" x="996.5" y="-231.5" font-family="Helvetica,sans-Serif" font-size="10.00">torcdevice.h</text>
</a>
</g>
</g>
<!-- Node14&#45;&gt;Node30 -->
<g id="edge35" class="edge"><title>Node14&#45;&gt;Node30</title>
<path fill="none" stroke="midnightblue" d="M752.257,-281.605C803.418,-271.843 893.458,-254.662 948.758,-244.11"/>
<polygon fill="midnightblue" stroke="midnightblue" points="949.496,-247.532 958.663,-242.22 948.184,-240.656 949.496,-247.532"/>
</g>
<!-- Node18&#45;&gt;Node2 -->
<g id="edge19" class="edge"><title>Node18&#45;&gt;Node2</title>
<path fill="none" stroke="midnightblue" d="M701.119,-224.407C735.177,-206.799 809.781,-168.243 810.5,-168 896.88,-138.768 923.207,-150.516 1012.5,-132 1012.96,-131.904 1013.43,-131.806 1013.9,-131.707"/>
<polygon fill="midnightblue" stroke="midnightblue" points="1014.96,-135.058 1023.97,-129.485 1013.45,-128.223 1014.96,-135.058"/>
</g>
<!-- Node18&#45;&gt;Node15 -->
<g id="edge18" class="edge"><title>Node18&#45;&gt;Node15</title>
<path fill="none" stroke="midnightblue" d="M635.395,-230.49C597.852,-226.329 546.577,-215.56 510.5,-188 476.914,-162.343 460.879,-112.829 454.329,-85.7738"/>
<polygon fill="midnightblue" stroke="midnightblue" points="457.673,-84.6867 452.08,-75.6886 450.841,-86.2107 457.673,-84.6867"/>
</g>
<!-- Node19 -->
<g id="node19" class="node"><title>Node19</title>
<polygon fill="white" stroke="#bfbfbf" points="741.5,-112.5 741.5,-131.5 833.5,-131.5 833.5,-112.5 741.5,-112.5"/>
<text text-anchor="middle" x="787.5" y="-119.5" font-family="Helvetica,sans-Serif" font-size="10.00">QReadWriteLock</text>
</g>
<!-- Node18&#45;&gt;Node19 -->
<g id="edge20" class="edge"><title>Node18&#45;&gt;Node19</title>
<path fill="none" stroke="midnightblue" d="M679.553,-224.157C672.812,-210.796 662.837,-185.198 674.5,-168 687.45,-148.904 709.931,-137.911 731.448,-131.583"/>
<polygon fill="midnightblue" stroke="midnightblue" points="732.459,-134.936 741.229,-128.992 730.666,-128.17 732.459,-134.936"/>
</g>
<!-- Node20 -->
<g id="node20" class="node"><title>Node20</title>
<polygon fill="white" stroke="#bfbfbf" points="684,-168.5 684,-187.5 763,-187.5 763,-168.5 684,-168.5"/>
<text text-anchor="middle" x="723.5" y="-175.5" font-family="Helvetica,sans-Serif" font-size="10.00">QMetaObject</text>
</g>
<!-- Node18&#45;&gt;Node20 -->
<g id="edge21" class="edge"><title>Node18&#45;&gt;Node20</title>
<path fill="none" stroke="midnightblue" d="M690.94,-224.083C696.449,-216.455 704.531,-205.264 711.265,-195.941"/>
<polygon fill="midnightblue" stroke="midnightblue" points="714.162,-197.907 717.18,-187.751 708.487,-193.809 714.162,-197.907"/>
</g>
<!-- Node21 -->
<g id="node21" class="node"><title>Node21</title>
<polygon fill="white" stroke="#bfbfbf" points="334,-168.5 334,-187.5 433,-187.5 433,-168.5 334,-168.5"/>
<text text-anchor="middle" x="383.5" y="-175.5" font-family="Helvetica,sans-Serif" font-size="10.00">QCoreApplication</text>
</g>
<!-- Node18&#45;&gt;Node21 -->
<g id="edge22" class="edge"><title>Node18&#45;&gt;Node21</title>
<path fill="none" stroke="midnightblue" d="M636.806,-224.444C583.636,-214.905 497.676,-199.483 440.874,-189.293"/>
<polygon fill="midnightblue" stroke="midnightblue" points="441.432,-185.837 430.971,-187.516 440.196,-192.727 441.432,-185.837"/>
</g>
<!-- Node22 -->
<g id="node22" class="node"><title>Node22</title>
<g id="a_node22"><a xlink:href="../../d4/d11/torchttphandler_8h.html" target="_top" xlink:title="torchttphandler.h">
<polygon fill="white" stroke="black" points="528,-168.5 528,-187.5 627,-187.5 627,-168.5 528,-168.5"/>
<text text-anchor="middle" x="577.5" y="-175.5" font-family="Helvetica,sans-Serif" font-size="10.00">torchttphandler.h</text>
</a>
</g>
</g>
<!-- Node18&#45;&gt;Node22 -->
<g id="edge23" class="edge"><title>Node18&#45;&gt;Node22</title>
<path fill="none" stroke="midnightblue" d="M667.309,-224.324C650.149,-215.664 623.554,-202.242 603.753,-192.249"/>
<polygon fill="midnightblue" stroke="midnightblue" points="605.153,-189.035 594.649,-187.655 601.999,-195.285 605.153,-189.035"/>
</g>
<!-- Node25 -->
<g id="node25" class="node"><title>Node25</title>
<g id="a_node25"><a xlink:href="../../df/dd7/torchttprequest_8h.html" target="_top" xlink:title="torchttprequest.h">
<polygon fill="white" stroke="black" points="488,-112.5 488,-131.5 589,-131.5 589,-112.5 488,-112.5"/>
<text text-anchor="middle" x="538.5" y="-119.5" font-family="Helvetica,sans-Serif" font-size="10.00">torchttprequest.h</text>
</a>
</g>
</g>
<!-- Node18&#45;&gt;Node25 -->
<g id="edge34" class="edge"><title>Node18&#45;&gt;Node25</title>
<path fill="none" stroke="midnightblue" d="M635.197,-226.301C591.574,-219.243 532.697,-206.558 518.5,-188 507.79,-174 516.374,-154.222 525.391,-140.167"/>
<polygon fill="midnightblue" stroke="midnightblue" points="528.325,-142.078 531.18,-131.876 522.585,-138.071 528.325,-142.078"/>
</g>
<!-- Node23 -->
<g id="node23" class="node"><title>Node23</title>
<polygon fill="white" stroke="#bfbfbf" points="687,-56.5 687,-75.5 740,-75.5 740,-56.5 687,-56.5"/>
<text text-anchor="middle" x="713.5" y="-63.5" font-family="Helvetica,sans-Serif" font-size="10.00">QString</text>
</g>
<!-- Node22&#45;&gt;Node23 -->
<g id="edge24" class="edge"><title>Node22&#45;&gt;Node23</title>
<path fill="none" stroke="midnightblue" d="M627.09,-168.502C650.446,-162.118 676.961,-151.055 694.5,-132 706.06,-119.441 710.619,-100.22 712.4,-85.9337"/>
<polygon fill="midnightblue" stroke="midnightblue" points="715.906,-86.0284 713.313,-75.7556 708.934,-85.4027 715.906,-86.0284"/>
</g>
<!-- Node24 -->
<g id="node24" class="node"><title>Node24</title>
<polygon fill="white" stroke="#bfbfbf" points="607.5,-112.5 607.5,-131.5 685.5,-131.5 685.5,-112.5 607.5,-112.5"/>
<text text-anchor="middle" x="646.5" y="-119.5" font-family="Helvetica,sans-Serif" font-size="10.00">QVariantMap</text>
</g>
<!-- Node22&#45;&gt;Node24 -->
<g id="edge25" class="edge"><title>Node22&#45;&gt;Node24</title>
<path fill="none" stroke="midnightblue" d="M588.586,-168.324C598.986,-160.185 614.761,-147.839 627.222,-138.087"/>
<polygon fill="midnightblue" stroke="midnightblue" points="629.494,-140.753 635.212,-131.834 625.18,-135.241 629.494,-140.753"/>
</g>
<!-- Node22&#45;&gt;Node25 -->
<g id="edge26" class="edge"><title>Node22&#45;&gt;Node25</title>
<path fill="none" stroke="midnightblue" d="M571.06,-168.083C565.551,-160.455 557.469,-149.264 550.735,-139.941"/>
<polygon fill="midnightblue" stroke="midnightblue" points="553.513,-137.809 544.82,-131.751 547.838,-141.907 553.513,-137.809"/>
</g>
<!-- Node25&#45;&gt;Node10 -->
<g id="edge30" class="edge"><title>Node25&#45;&gt;Node10</title>
<path fill="none" stroke="midnightblue" d="M503.957,-112.444C466.247,-103.102 405.76,-88.1194 364.635,-77.9326"/>
<polygon fill="midnightblue" stroke="midnightblue" points="365.429,-74.5236 354.881,-75.5164 363.746,-81.3182 365.429,-74.5236"/>
</g>
<!-- Node25&#45;&gt;Node15 -->
<g id="edge27" class="edge"><title>Node25&#45;&gt;Node15</title>
<path fill="none" stroke="midnightblue" d="M524.361,-112.324C510.634,-103.9 489.564,-90.9709 473.436,-81.0741"/>
<polygon fill="midnightblue" stroke="midnightblue" points="474.957,-77.9016 464.604,-75.6545 471.296,-83.8678 474.957,-77.9016"/>
</g>
<!-- Node25&#45;&gt;Node23 -->
<g id="edge29" class="edge"><title>Node25&#45;&gt;Node23</title>
<path fill="none" stroke="midnightblue" d="M566.229,-112.444C596.188,-103.199 644.052,-88.4296 677.038,-78.2511"/>
<polygon fill="midnightblue" stroke="midnightblue" points="678.238,-81.5438 686.761,-75.2508 676.174,-74.855 678.238,-81.5438"/>
</g>
<!-- Node26 -->
<g id="node26" class="node"><title>Node26</title>
<polygon fill="white" stroke="#bfbfbf" points="604,-56.5 604,-75.5 645,-75.5 645,-56.5 604,-56.5"/>
<text text-anchor="middle" x="624.5" y="-63.5" font-family="Helvetica,sans-Serif" font-size="10.00">QPair</text>
</g>
<!-- Node25&#45;&gt;Node26 -->
<g id="edge28" class="edge"><title>Node25&#45;&gt;Node26</title>
<path fill="none" stroke="midnightblue" d="M552.317,-112.324C565.733,-103.9 586.324,-90.9709 602.086,-81.0741"/>
<polygon fill="midnightblue" stroke="midnightblue" points="604.109,-83.9364 610.717,-75.6545 600.387,-78.0081 604.109,-83.9364"/>
</g>
<!-- Node27 -->
<g id="node27" class="node"><title>Node27</title>
<g id="a_node27"><a xlink:href="../../de/de6/torchttpreader_8h.html" target="_top" xlink:title="torchttpreader.h">
<polygon fill="white" stroke="black" points="491,-56.5 491,-75.5 586,-75.5 586,-56.5 491,-56.5"/>
<text text-anchor="middle" x="538.5" y="-63.5" font-family="Helvetica,sans-Serif" font-size="10.00">torchttpreader.h</text>
</a>
</g>
</g>
<!-- Node25&#45;&gt;Node27 -->
<g id="edge31" class="edge"><title>Node25&#45;&gt;Node27</title>
<path fill="none" stroke="midnightblue" d="M538.5,-112.083C538.5,-105.006 538.5,-94.8611 538.5,-85.9865"/>
<polygon fill="midnightblue" stroke="midnightblue" points="542,-85.751 538.5,-75.7511 535,-85.7511 542,-85.751"/>
</g>
<!-- Node28 -->
<g id="node28" class="node"><title>Node28</title>
<polygon fill="white" stroke="#bfbfbf" points="458,-0.5 458,-19.5 529,-19.5 529,-0.5 458,-0.5"/>
<text text-anchor="middle" x="493.5" y="-7.5" font-family="Helvetica,sans-Serif" font-size="10.00">QByteArray</text>
</g>
<!-- Node27&#45;&gt;Node28 -->
<g id="edge32" class="edge"><title>Node27&#45;&gt;Node28</title>
<path fill="none" stroke="midnightblue" d="M531.069,-56.083C524.647,-48.3768 515.194,-37.0333 507.378,-27.6531"/>
<polygon fill="midnightblue" stroke="midnightblue" points="509.883,-25.1927 500.793,-19.7511 504.506,-29.674 509.883,-25.1927"/>
</g>
<!-- Node29 -->
<g id="node29" class="node"><title>Node29</title>
<polygon fill="white" stroke="#bfbfbf" points="547.5,-0.5 547.5,-19.5 619.5,-19.5 619.5,-0.5 547.5,-0.5"/>
<text text-anchor="middle" x="583.5" y="-7.5" font-family="Helvetica,sans-Serif" font-size="10.00">QTcpSocket</text>
</g>
<!-- Node27&#45;&gt;Node29 -->
<g id="edge33" class="edge"><title>Node27&#45;&gt;Node29</title>
<path fill="none" stroke="midnightblue" d="M545.931,-56.083C552.353,-48.3768 561.806,-37.0333 569.622,-27.6531"/>
<polygon fill="midnightblue" stroke="midnightblue" points="572.494,-29.674 576.207,-19.7511 567.117,-25.1927 572.494,-29.674"/>
</g>
<!-- Node30&#45;&gt;Node2 -->
<g id="edge37" class="edge"><title>Node30&#45;&gt;Node2</title>
<path fill="none" stroke="midnightblue" d="M1034.26,-230.997C1064.18,-227.185 1104.21,-216.639 1124.5,-188 1139.64,-166.626 1110.17,-147.557 1084.05,-135.688"/>
<polygon fill="midnightblue" stroke="midnightblue" points="1085.23,-132.389 1074.66,-131.651 1082.47,-138.819 1085.23,-132.389"/>
</g>
<!-- Node30&#45;&gt;Node16 -->
<g id="edge39" class="edge"><title>Node30&#45;&gt;Node16</title>
<path fill="none" stroke="midnightblue" d="M1034.16,-224.562C1079.35,-214.435 1154.69,-197.555 1199.87,-187.431"/>
<polygon fill="midnightblue" stroke="midnightblue" points="1200.86,-190.796 1209.85,-185.194 1199.33,-183.966 1200.86,-190.796"/>
</g>
<!-- Node30&#45;&gt;Node23 -->
<g id="edge38" class="edge"><title>Node30&#45;&gt;Node23</title>
<path fill="none" stroke="midnightblue" d="M1029.38,-224.437C1069.54,-213.727 1133.19,-195.847 1141.5,-188 1166.99,-163.947 1186.01,-137.986 1162.5,-112 1135.02,-81.6321 852.879,-70.8509 750.421,-67.9199"/>
<polygon fill="midnightblue" stroke="midnightblue" points="750.331,-64.4162 740.238,-67.6377 750.137,-71.4135 750.331,-64.4162"/>
</g>
<!-- Node31 -->
<g id="node31" class="node"><title>Node31</title>
<polygon fill="white" stroke="#bfbfbf" points="955,-112.5 955,-131.5 1004,-131.5 1004,-112.5 955,-112.5"/>
<text text-anchor="middle" x="979.5" y="-119.5" font-family="Helvetica,sans-Serif" font-size="10.00">QHash</text>
</g>
<!-- Node30&#45;&gt;Node31 -->
<g id="edge36" class="edge"><title>Node30&#45;&gt;Node31</title>
<path fill="none" stroke="midnightblue" d="M995.166,-224.368C992.423,-206.617 986.094,-165.666 982.374,-141.597"/>
<polygon fill="midnightblue" stroke="midnightblue" points="985.814,-140.94 980.828,-131.591 978.896,-142.009 985.814,-140.94"/>
</g>
<!-- Node32 -->
<g id="node32" class="node"><title>Node32</title>
<g id="a_node32"><a xlink:href="../../d8/dfe/torcreferencecounted_8h.html" target="_top" xlink:title="torcreferencecounted.h">
<polygon fill="white" stroke="black" points="820,-168.5 820,-187.5 949,-187.5 949,-168.5 820,-168.5"/>
<text text-anchor="middle" x="884.5" y="-175.5" font-family="Helvetica,sans-Serif" font-size="10.00">torcreferencecounted.h</text>
</a>
</g>
</g>
<!-- Node30&#45;&gt;Node32 -->
<g id="edge40" class="edge"><title>Node30&#45;&gt;Node32</title>
<path fill="none" stroke="midnightblue" d="M978.505,-224.324C960.462,-215.625 932.453,-202.12 911.697,-192.113"/>
<polygon fill="midnightblue" stroke="midnightblue" points="912.978,-188.845 902.45,-187.655 909.938,-195.15 912.978,-188.845"/>
</g>
<!-- Node34 -->
<g id="node34" class="node"><title>Node34</title>
<g id="a_node34"><a xlink:href="../../d2/d5b/torcdevicehandler_8h.html" target="_top" xlink:title="torcdevicehandler.h">
<polygon fill="white" stroke="black" points="1005.5,-168.5 1005.5,-187.5 1115.5,-187.5 1115.5,-168.5 1005.5,-168.5"/>
<text text-anchor="middle" x="1060.5" y="-175.5" font-family="Helvetica,sans-Serif" font-size="10.00">torcdevicehandler.h</text>
</a>
</g>
</g>
<!-- Node30&#45;&gt;Node34 -->
<g id="edge42" class="edge"><title>Node30&#45;&gt;Node34</title>
<path fill="none" stroke="midnightblue" d="M1006.78,-224.324C1016.34,-216.263 1030.78,-204.077 1042.28,-194.369"/>
<polygon fill="midnightblue" stroke="midnightblue" points="1044.64,-196.958 1050.03,-187.834 1040.13,-191.608 1044.64,-196.958"/>
</g>
<!-- Node33 -->
<g id="node33" class="node"><title>Node33</title>
<polygon fill="white" stroke="#bfbfbf" points="851.5,-112.5 851.5,-131.5 921.5,-131.5 921.5,-112.5 851.5,-112.5"/>
<text text-anchor="middle" x="886.5" y="-119.5" font-family="Helvetica,sans-Serif" font-size="10.00">QAtomicInt</text>
</g>
<!-- Node32&#45;&gt;Node33 -->
<g id="edge41" class="edge"><title>Node32&#45;&gt;Node33</title>
<path fill="none" stroke="midnightblue" d="M884.83,-168.083C885.092,-161.006 885.468,-150.861 885.797,-141.986"/>
<polygon fill="midnightblue" stroke="midnightblue" points="889.303,-141.874 886.176,-131.751 882.308,-141.615 889.303,-141.874"/>
</g>
<!-- Node34&#45;&gt;Node2 -->
<g id="edge44" class="edge"><title>Node34&#45;&gt;Node2</title>
<path fill="none" stroke="midnightblue" d="M1058.85,-168.083C1057.52,-160.927 1055.62,-150.635 1053.96,-141.691"/>
<polygon fill="midnightblue" stroke="midnightblue" points="1057.38,-140.947 1052.12,-131.751 1050.5,-142.221 1057.38,-140.947"/>
</g>
<!-- Node34&#45;&gt;Node19 -->
<g id="edge45" class="edge"><title>Node34&#45;&gt;Node19</title>
<path fill="none" stroke="midnightblue" d="M1017.24,-168.444C969.319,-158.964 892.022,-143.675 840.5,-133.483"/>
<polygon fill="midnightblue" stroke="midnightblue" points="841.044,-130.023 830.555,-131.516 839.686,-136.89 841.044,-130.023"/>
</g>
<!-- Node34&#45;&gt;Node31 -->
<g id="edge43" class="edge"><title>Node34&#45;&gt;Node31</title>
<path fill="none" stroke="midnightblue" d="M1047.49,-168.324C1034.97,-159.979 1015.82,-147.212 1001.03,-137.352"/>
<polygon fill="midnightblue" stroke="midnightblue" points="1002.74,-134.289 992.482,-131.655 998.861,-140.114 1002.74,-134.289"/>
</g>
<!-- Node35 -->
<g id="node35" class="node"><title>Node35</title>
<polygon fill="white" stroke="#bfbfbf" points="1095.5,-112.5 1095.5,-131.5 1153.5,-131.5 1153.5,-112.5 1095.5,-112.5"/>
<text text-anchor="middle" x="1124.5" y="-119.5" font-family="Helvetica,sans-Serif" font-size="10.00">QVariant</text>
</g>
<!-- Node34&#45;&gt;Node35 -->
<g id="edge46" class="edge"><title>Node34&#45;&gt;Node35</title>
<path fill="none" stroke="midnightblue" d="M1070.78,-168.324C1080.34,-160.263 1094.78,-148.077 1106.28,-138.369"/>
<polygon fill="midnightblue" stroke="midnightblue" points="1108.64,-140.958 1114.03,-131.834 1104.13,-135.608 1108.64,-140.958"/>
</g>
<!-- Node36&#45;&gt;Node14 -->
<g id="edge50" class="edge"><title>Node36&#45;&gt;Node14</title>
<path fill="none" stroke="midnightblue" d="M653.907,-336.324C664.609,-328.185 680.841,-315.839 693.663,-306.087"/>
<polygon fill="midnightblue" stroke="midnightblue" points="696.044,-308.673 701.885,-299.834 691.807,-303.102 696.044,-308.673"/>
</g>
<!-- Node37 -->
<g id="node37" class="node"><title>Node37</title>
<polygon fill="white" stroke="#bfbfbf" points="610,-280.5 610,-299.5 657,-299.5 657,-280.5 610,-280.5"/>
<text text-anchor="middle" x="633.5" y="-287.5" font-family="Helvetica,sans-Serif" font-size="10.00">QTime</text>
</g>
<!-- Node36&#45;&gt;Node37 -->
<g id="edge48" class="edge"><title>Node36&#45;&gt;Node37</title>
<path fill="none" stroke="midnightblue" d="M641.014,-336.083C639.821,-328.927 638.106,-318.635 636.615,-309.691"/>
<polygon fill="midnightblue" stroke="midnightblue" points="640.055,-309.04 634.959,-299.751 633.15,-310.19 640.055,-309.04"/>
</g>
<!-- Node38 -->
<g id="node38" class="node"><title>Node38</title>
<polygon fill="white" stroke="#bfbfbf" points="541,-280.5 541,-299.5 592,-299.5 592,-280.5 541,-280.5"/>
<text text-anchor="middle" x="566.5" y="-287.5" font-family="Helvetica,sans-Serif" font-size="10.00">QTimer</text>
</g>
<!-- Node36&#45;&gt;Node38 -->
<g id="edge49" class="edge"><title>Node36&#45;&gt;Node38</title>
<path fill="none" stroke="midnightblue" d="M630.289,-336.324C618.724,-328.107 601.125,-315.602 587.339,-305.807"/>
<polygon fill="midnightblue" stroke="midnightblue" points="589.112,-302.773 578.933,-299.834 585.057,-308.479 589.112,-302.773"/>
</g>
<!-- Node39&#45;&gt;Node14 -->
<g id="edge54" class="edge"><title>Node39&#45;&gt;Node14</title>
<path fill="none" stroke="midnightblue" d="M944.084,-336.444C894.57,-326.685 813.816,-310.77 762.2,-300.598"/>
<polygon fill="midnightblue" stroke="midnightblue" points="762.771,-297.143 752.283,-298.643 761.417,-304.011 762.771,-297.143"/>
</g>
<!-- Node40 -->
<g id="node40" class="node"><title>Node40</title>
<polygon fill="white" stroke="#bfbfbf" points="1100,-280.5 1100,-299.5 1183,-299.5 1183,-280.5 1100,-280.5"/>
<text text-anchor="middle" x="1141.5" y="-287.5" font-family="Helvetica,sans-Serif" font-size="10.00">QEasingCurve</text>
</g>
<!-- Node39&#45;&gt;Node40 -->
<g id="edge52" class="edge"><title>Node39&#45;&gt;Node40</title>
<path fill="none" stroke="midnightblue" d="M1011.9,-336.444C1037.7,-327.399 1078.58,-313.064 1107.52,-302.916"/>
<polygon fill="midnightblue" stroke="midnightblue" points="1108.93,-306.128 1117.21,-299.516 1106.62,-299.523 1108.93,-306.128"/>
</g>
<!-- Node41 -->
<g id="node41" class="node"><title>Node41</title>
<polygon fill="white" stroke="#bfbfbf" points="969,-280.5 969,-299.5 1082,-299.5 1082,-280.5 969,-280.5"/>
<text text-anchor="middle" x="1025.5" y="-287.5" font-family="Helvetica,sans-Serif" font-size="10.00">QPropertyAnimation</text>
</g>
<!-- Node39&#45;&gt;Node41 -->
<g id="edge53" class="edge"><title>Node39&#45;&gt;Node41</title>
<path fill="none" stroke="midnightblue" d="M993.775,-336.083C999.142,-328.455 1007.02,-317.264 1013.58,-307.941"/>
<polygon fill="midnightblue" stroke="midnightblue" points="1016.45,-309.943 1019.34,-299.751 1010.72,-305.915 1016.45,-309.943"/>
</g>
<!-- Node42&#45;&gt;Node14 -->
<g id="edge63" class="edge"><title>Node42&#45;&gt;Node14</title>
<path fill="none" stroke="midnightblue" d="M762.181,-336.324C753.607,-328.341 740.688,-316.313 730.312,-306.653"/>
<polygon fill="midnightblue" stroke="midnightblue" points="732.692,-304.086 722.988,-299.834 727.922,-309.21 732.692,-304.086"/>
</g>
<!-- Node42&#45;&gt;Node18 -->
<g id="edge56" class="edge"><title>Node42&#45;&gt;Node18</title>
<path fill="none" stroke="midnightblue" d="M772.231,-336.15C772.879,-322.779 772.295,-297.169 760.5,-280 750.6,-265.589 734.442,-255.088 719.564,-247.873"/>
<polygon fill="midnightblue" stroke="midnightblue" points="720.607,-244.504 710.051,-243.598 717.738,-250.889 720.607,-244.504"/>
</g>
<!-- Node43 -->
<g id="node43" class="node"><title>Node43</title>
<g id="a_node43"><a xlink:href="../../d5/d41/torccentral_8h.html" target="_top" xlink:title="torccentral.h">
<polygon fill="white" stroke="black" points="874,-280.5 874,-299.5 951,-299.5 951,-280.5 874,-280.5"/>
<text text-anchor="middle" x="912.5" y="-287.5" font-family="Helvetica,sans-Serif" font-size="10.00">torccentral.h</text>
</a>
</g>
</g>
<!-- Node42&#45;&gt;Node43 -->
<g id="edge57" class="edge"><title>Node42&#45;&gt;Node43</title>
<path fill="none" stroke="midnightblue" d="M793.842,-336.444C817.253,-327.478 854.236,-313.314 880.69,-303.183"/>
<polygon fill="midnightblue" stroke="midnightblue" points="882.176,-306.361 890.263,-299.516 879.672,-299.824 882.176,-306.361"/>
</g>
<!-- Node43&#45;&gt;Node2 -->
<g id="edge58" class="edge"><title>Node43&#45;&gt;Node2</title>
<path fill="none" stroke="midnightblue" d="M951.191,-281.552C1010.06,-270.159 1117.17,-249.177 1134.5,-244 1198.71,-224.821 1236.93,-243.493 1274.5,-188 1340.2,-90.9527 1459.4,-212.543 1087.21,-132.04"/>
<polygon fill="midnightblue" stroke="midnightblue" points="1087.71,-128.566 1077.2,-129.85 1086.22,-135.405 1087.71,-128.566"/>
</g>
<!-- Node43&#45;&gt;Node16 -->
<g id="edge59" class="edge"><title>Node43&#45;&gt;Node16</title>
<path fill="none" stroke="midnightblue" d="M951.105,-280.477C996.774,-270.233 1069.95,-253.268 1096.5,-244 1138.39,-229.376 1184.7,-206.687 1212.43,-192.349"/>
<polygon fill="midnightblue" stroke="midnightblue" points="1214.18,-195.383 1221.43,-187.653 1210.94,-189.178 1214.18,-195.383"/>
</g>
<!-- Node43&#45;&gt;Node18 -->
<g id="edge62" class="edge"><title>Node43&#45;&gt;Node18</title>
<path fill="none" stroke="midnightblue" d="M876.373,-280.444C836.849,-271.083 773.403,-256.056 730.387,-245.868"/>
<polygon fill="midnightblue" stroke="midnightblue" points="730.996,-242.415 720.458,-243.516 729.382,-249.227 730.996,-242.415"/>
</g>
<!-- Node43&#45;&gt;Node30 -->
<g id="edge61" class="edge"><title>Node43&#45;&gt;Node30</title>
<path fill="none" stroke="midnightblue" d="M925.996,-280.324C939.1,-271.9 959.212,-258.971 974.607,-249.074"/>
<polygon fill="midnightblue" stroke="midnightblue" points="976.518,-252.006 983.037,-243.655 972.733,-246.118 976.518,-252.006"/>
</g>
<!-- Node43&#45;&gt;Node35 -->
<g id="edge60" class="edge"><title>Node43&#45;&gt;Node35</title>
<path fill="none" stroke="midnightblue" d="M951.207,-281.464C954.011,-280.956 956.798,-280.463 959.5,-280 1112.11,-253.857 1217.79,-321.914 1295.5,-188 1324.9,-137.339 1223.19,-125.937 1164.02,-123.521"/>
<polygon fill="midnightblue" stroke="midnightblue" points="1163.97,-120.018 1153.86,-123.177 1163.73,-127.014 1163.97,-120.018"/>
</g>
</g>
</svg>
        <g id="navigator" transform="translate(0 0)" fill="#404254">
                <rect fill="#f2f5e9" fill-opacity="0.5" stroke="#606060" stroke-width=".5" x="0" y="0" width="60" height="60"/>
                <use id="zoomplus" xlink:href="#zoomPlus" x="17" y="9" onmousedown="handleZoom(evt,'in')"/>
                <use id="zoomminus" xlink:href="#zoomMin" x="42" y="9" onmousedown="handleZoom(evt,'out')"/>
                <use id="reset" xlink:href="#resetDef" x="30" y="36" onmousedown="handleReset()"/>
                <g id="arrowUp" xlink:href="#dirArrow" transform="translate(30 24)" onmousedown="handlePan(0,-1)">
                  <use xlink:href="#rim" fill="#404040">
                        <set attributeName="fill" to="#808080" begin="arrowUp.mouseover" end="arrowUp.mouseout"/>
                  </use>
                  <path fill="none" stroke="white" stroke-width="1.5" d="M0,-3.0v7 M-2.5,-0.5L0,-3.0L2.5,-0.5"/>
                </g>
                <g id="arrowRight" xlink:href="#dirArrow" transform="rotate(90) translate(36 -43)" onmousedown="handlePan(1,0)">
                  <use xlink:href="#rim" fill="#404040">
                        <set attributeName="fill" to="#808080" begin="arrowRight.mouseover" end="arrowRight.mouseout"/>
                  </use>
                  <path fill="none" stroke="white" stroke-width="1.5" d="M0,-3.0v7 M-2.5,-0.5L0,-3.0L2.5,-0.5"/>
                </g>
                <g id="arrowDown" xlink:href="#dirArrow" transform="rotate(180) translate(-30 -48)" onmousedown="handlePan(0,1)">
                  <use xlink:href="#rim" fill="#404040">
                        <set attributeName="fill" to="#808080" begin="arrowDown.mouseover" end="arrowDown.mouseout"/>
                  </use>
                  <path fill="none" stroke="white" stroke-width="1.5" d="M0,-3.0v7 M-2.5,-0.5L0,-3.0L2.5,-0.5"/>
                </g>
                <g id="arrowLeft" xlink:href="#dirArrow" transform="rotate(270) translate(-36 17)" onmousedown="handlePan(-1,0)">
                  <use xlink:href="#rim" fill="#404040">
                        <set attributeName="fill" to="#808080" begin="arrowLeft.mouseover" end="arrowLeft.mouseout"/>
                  </use>
                  <path fill="none" stroke="white" stroke-width="1.5" d="M0,-3.0v7 M-2.5,-0.5L0,-3.0L2.5,-0.5"/>
                </g>
        </g>
        <svg viewBox="0 0 15 15" width="100%" height="30px" preserveAspectRatio="xMaxYMin meet">
         <g id="arrow_out" transform="scale(0.3 0.3)">
          <a xlink:href="torccontrols_8cpp__incl_org.svg" target="_base">
           <rect id="button" ry="5" rx="5" y="6" x="6" height="38" width="38"
                fill="#f2f5e9" fill-opacity="0.5" stroke="#606060" stroke-width="1.0"/>
           <path id="arrow"
             d="M 11.500037,31.436501 C 11.940474,20.09759 22.043105,11.32322 32.158766,21.979434 L 37.068811,17.246167 C 37.068811,17.246167 37.088388,32 37.088388,32 L 22.160133,31.978069 C 22.160133,31.978069 26.997745,27.140456 26.997745,27.140456 C 18.528582,18.264221 13.291696,25.230495 11.500037,31.436501 z"
             style="fill:#404040;"/>
          </a>
         </g>
        </svg>
</svg>
