<?xml version="1.0" encoding="UTF-8" standalone="no"?>
<!DOCTYPE svg PUBLIC "-//W3C//DTD SVG 1.1//EN"
 "http://www.w3.org/Graphics/SVG/1.1/DTD/svg11.dtd">
<!-- Generated by graphviz version 2.38.0 (20140413.2041)
 -->
<!-- Title: torci2cpca9685.h Pages: 1 -->
<svg width="1233pt" height="420pt"
 viewBox="0.00 0.00 1232.50 420.00" xmlns="http://www.w3.org/2000/svg" xmlns:xlink="http://www.w3.org/1999/xlink">
<g id="graph0" class="graph" transform="scale(1 1) rotate(0) translate(4 416)">
<title>torci2cpca9685.h</title>
<polygon fill="white" stroke="none" points="-4,4 -4,-416 1228.5,-416 1228.5,4 -4,4"/>
<!-- Node1 -->
<g id="node1" class="node"><title>Node1</title>
<polygon fill="#bfbfbf" stroke="black" points="520.5,-392.5 520.5,-411.5 619.5,-411.5 619.5,-392.5 520.5,-392.5"/>
<text text-anchor="middle" x="570" y="-399.5" font-family="Helvetica,sans-Serif" font-size="10.00">torci2cpca9685.h</text>
</g>
<!-- Node2 -->
<g id="node2" class="node"><title>Node2</title>
<polygon fill="white" stroke="#bfbfbf" points="24,-56.5 24,-75.5 68,-75.5 68,-56.5 24,-56.5"/>
<text text-anchor="middle" x="46" y="-63.5" font-family="Helvetica,sans-Serif" font-size="10.00">QMap</text>
</g>
<!-- Node1&#45;&gt;Node2 -->
<g id="edge1" class="edge"><title>Node1&#45;&gt;Node2</title>
<path fill="none" stroke="midnightblue" d="M520.413,-401.88C381.736,-403.02 0,-396.571 0,-291 0,-291 0,-291 0,-177 0,-141.817 20.2776,-104.863 33.9065,-83.9988"/>
<polygon fill="midnightblue" stroke="midnightblue" points="36.8814,-85.8481 39.6039,-75.609 31.0905,-81.9156 36.8814,-85.8481"/>
</g>
<!-- Node3 -->
<g id="node3" class="node"><title>Node3</title>
<g id="a_node3"><a xlink:href="../../df/d6c/torcpwmoutput_8h.html" target="_top" xlink:title="../torcpwmoutput.h">
<polygon fill="white" stroke="black" points="714.5,-336.5 714.5,-355.5 821.5,-355.5 821.5,-336.5 714.5,-336.5"/>
<text text-anchor="middle" x="768" y="-343.5" font-family="Helvetica,sans-Serif" font-size="10.00">../torcpwmoutput.h</text>
</a>
</g>
</g>
<!-- Node1&#45;&gt;Node3 -->
<g id="edge2" class="edge"><title>Node1&#45;&gt;Node3</title>
<path fill="none" stroke="midnightblue" d="M601.374,-392.444C635.263,-383.201 689.403,-368.436 726.724,-358.257"/>
<polygon fill="midnightblue" stroke="midnightblue" points="728.046,-361.524 736.773,-355.516 726.205,-354.771 728.046,-361.524"/>
</g>
<!-- Node26 -->
<g id="node26" class="node"><title>Node26</title>
<g id="a_node26"><a xlink:href="../../da/d80/torcoutputs_8h.html" target="_top" xlink:title="../torcoutputs.h">
<polygon fill="white" stroke="black" points="586,-336.5 586,-355.5 676,-355.5 676,-336.5 586,-336.5"/>
<text text-anchor="middle" x="631" y="-343.5" font-family="Helvetica,sans-Serif" font-size="10.00">../torcoutputs.h</text>
</a>
</g>
</g>
<!-- Node1&#45;&gt;Node26 -->
<g id="edge37" class="edge"><title>Node1&#45;&gt;Node26</title>
<path fill="none" stroke="midnightblue" d="M579.801,-392.324C588.818,-384.341 602.406,-372.313 613.318,-362.653"/>
<polygon fill="midnightblue" stroke="midnightblue" points="615.853,-365.083 621.021,-355.834 611.213,-359.842 615.853,-365.083"/>
</g>
<!-- Node29 -->
<g id="node29" class="node"><title>Node29</title>
<g id="a_node29"><a xlink:href="../../de/d67/torci2cbus_8h.html" target="_top" xlink:title="torci2cbus.h">
<polygon fill="white" stroke="black" points="482.5,-336.5 482.5,-355.5 557.5,-355.5 557.5,-336.5 482.5,-336.5"/>
<text text-anchor="middle" x="520" y="-343.5" font-family="Helvetica,sans-Serif" font-size="10.00">torci2cbus.h</text>
</a>
</g>
</g>
<!-- Node1&#45;&gt;Node29 -->
<g id="edge48" class="edge"><title>Node1&#45;&gt;Node29</title>
<path fill="none" stroke="midnightblue" d="M561.744,-392.083C554.535,-384.298 543.89,-372.801 535.154,-363.367"/>
<polygon fill="midnightblue" stroke="midnightblue" points="537.465,-360.711 528.103,-355.751 532.329,-365.467 537.465,-360.711"/>
</g>
<!-- Node4 -->
<g id="node4" class="node"><title>Node4</title>
<g id="a_node4"><a xlink:href="../../dc/d01/torcoutput_8h.html" target="_top" xlink:title="torcoutput.h">
<polygon fill="white" stroke="black" points="741,-280.5 741,-299.5 817,-299.5 817,-280.5 741,-280.5"/>
<text text-anchor="middle" x="779" y="-287.5" font-family="Helvetica,sans-Serif" font-size="10.00">torcoutput.h</text>
</a>
</g>
</g>
<!-- Node3&#45;&gt;Node4 -->
<g id="edge3" class="edge"><title>Node3&#45;&gt;Node4</title>
<path fill="none" stroke="midnightblue" d="M769.816,-336.083C771.274,-328.927 773.371,-318.635 775.193,-309.691"/>
<polygon fill="midnightblue" stroke="midnightblue" points="778.651,-310.248 777.217,-299.751 771.792,-308.851 778.651,-310.248"/>
</g>
<!-- Node5 -->
<g id="node5" class="node"><title>Node5</title>
<polygon fill="white" stroke="#bfbfbf" points="686.5,-112.5 686.5,-131.5 739.5,-131.5 739.5,-112.5 686.5,-112.5"/>
<text text-anchor="middle" x="713" y="-119.5" font-family="Helvetica,sans-Serif" font-size="10.00">QMutex</text>
</g>
<!-- Node4&#45;&gt;Node5 -->
<g id="edge4" class="edge"><title>Node4&#45;&gt;Node5</title>
<path fill="none" stroke="midnightblue" d="M775.452,-280.075C765.018,-253.832 734.289,-176.545 720.203,-141.117"/>
<polygon fill="midnightblue" stroke="midnightblue" points="723.354,-139.567 716.407,-131.568 716.849,-142.154 723.354,-139.567"/>
</g>
<!-- Node6 -->
<g id="node6" class="node"><title>Node6</title>
<polygon fill="white" stroke="#bfbfbf" points="779.5,-168.5 779.5,-187.5 834.5,-187.5 834.5,-168.5 779.5,-168.5"/>
<text text-anchor="middle" x="807" y="-175.5" font-family="Helvetica,sans-Serif" font-size="10.00">QObject</text>
</g>
<!-- Node4&#45;&gt;Node6 -->
<g id="edge5" class="edge"><title>Node4&#45;&gt;Node6</title>
<path fill="none" stroke="midnightblue" d="M785.184,-280.183C790.942,-271.448 799.192,-257.461 803,-244 807.285,-228.854 808.092,-210.958 807.937,-197.783"/>
<polygon fill="midnightblue" stroke="midnightblue" points="811.43,-197.492 807.617,-187.607 804.433,-197.713 811.43,-197.492"/>
</g>
<!-- Node7 -->
<g id="node7" class="node"><title>Node7</title>
<g id="a_node7"><a xlink:href="../../d8/dfe/torcreferencecounted_8h.html" target="_top" xlink:title="torcreferencecounted.h">
<polygon fill="white" stroke="black" points="1095.5,-168.5 1095.5,-187.5 1224.5,-187.5 1224.5,-168.5 1095.5,-168.5"/>
<text text-anchor="middle" x="1160" y="-175.5" font-family="Helvetica,sans-Serif" font-size="10.00">torcreferencecounted.h</text>
</a>
</g>
</g>
<!-- Node4&#45;&gt;Node7 -->
<g id="edge6" class="edge"><title>Node4&#45;&gt;Node7</title>
<path fill="none" stroke="midnightblue" d="M817.335,-283.04C860.902,-275.802 933.891,-262.258 995,-244 1044.19,-229.303 1099.31,-206.174 1131.76,-191.833"/>
<polygon fill="midnightblue" stroke="midnightblue" points="1133.36,-194.951 1141.07,-187.684 1130.51,-188.558 1133.36,-194.951"/>
</g>
<!-- Node9 -->
<g id="node9" class="node"><title>Node9</title>
<g id="a_node9"><a xlink:href="../../d3/dee/torchttpservice_8h.html" target="_top" xlink:title="torchttpservice.h">
<polygon fill="white" stroke="black" points="382,-224.5 382,-243.5 480,-243.5 480,-224.5 382,-224.5"/>
<text text-anchor="middle" x="431" y="-231.5" font-family="Helvetica,sans-Serif" font-size="10.00">torchttpservice.h</text>
</a>
</g>
</g>
<!-- Node4&#45;&gt;Node9 -->
<g id="edge8" class="edge"><title>Node4&#45;&gt;Node9</title>
<path fill="none" stroke="midnightblue" d="M740.762,-283.067C680.263,-273.679 562.005,-255.328 490.393,-244.216"/>
<polygon fill="midnightblue" stroke="midnightblue" points="490.597,-240.706 480.178,-242.631 489.523,-247.623 490.597,-240.706"/>
</g>
<!-- Node22 -->
<g id="node22" class="node"><title>Node22</title>
<g id="a_node22"><a xlink:href="../../d1/df7/torcdevice_8h.html" target="_top" xlink:title="torcdevice.h">
<polygon fill="white" stroke="black" points="911.5,-224.5 911.5,-243.5 986.5,-243.5 986.5,-224.5 911.5,-224.5"/>
<text text-anchor="middle" x="949" y="-231.5" font-family="Helvetica,sans-Serif" font-size="10.00">torcdevice.h</text>
</a>
</g>
</g>
<!-- Node4&#45;&gt;Node22 -->
<g id="edge26" class="edge"><title>Node4&#45;&gt;Node22</title>
<path fill="none" stroke="midnightblue" d="M805.937,-280.444C834.66,-271.32 880.329,-256.813 912.321,-246.651"/>
<polygon fill="midnightblue" stroke="midnightblue" points="913.718,-249.88 922.189,-243.516 911.599,-243.208 913.718,-249.88"/>
</g>
<!-- Node8 -->
<g id="node8" class="node"><title>Node8</title>
<polygon fill="white" stroke="#bfbfbf" points="1125,-112.5 1125,-131.5 1195,-131.5 1195,-112.5 1125,-112.5"/>
<text text-anchor="middle" x="1160" y="-119.5" font-family="Helvetica,sans-Serif" font-size="10.00">QAtomicInt</text>
</g>
<!-- Node7&#45;&gt;Node8 -->
<g id="edge7" class="edge"><title>Node7&#45;&gt;Node8</title>
<path fill="none" stroke="midnightblue" d="M1160,-168.083C1160,-161.006 1160,-150.861 1160,-141.986"/>
<polygon fill="midnightblue" stroke="midnightblue" points="1163.5,-141.751 1160,-131.751 1156.5,-141.751 1163.5,-141.751"/>
</g>
<!-- Node9&#45;&gt;Node2 -->
<g id="edge9" class="edge"><title>Node9&#45;&gt;Node2</title>
<path fill="none" stroke="midnightblue" d="M381.839,-232.473C332.775,-229.954 256.721,-220.501 200,-188 160.93,-165.613 168.496,-139.708 133,-112 115.922,-98.6687 94.2938,-87.461 76.8748,-79.5651"/>
<polygon fill="midnightblue" stroke="midnightblue" points="78.2494,-76.3461 67.6863,-75.5268 75.4329,-82.7545 78.2494,-76.3461"/>
</g>
<!-- Node9&#45;&gt;Node5 -->
<g id="edge10" class="edge"><title>Node9&#45;&gt;Node5</title>
<path fill="none" stroke="midnightblue" d="M464.423,-224.446C494.756,-216.307 540.492,-203.087 579,-188 599.926,-179.802 654.222,-152.765 686.919,-136.255"/>
<polygon fill="midnightblue" stroke="midnightblue" points="688.575,-139.339 695.917,-131.701 685.414,-133.093 688.575,-139.339"/>
</g>
<!-- Node10 -->
<g id="node10" class="node"><title>Node10</title>
<polygon fill="white" stroke="#bfbfbf" points="505,-112.5 505,-131.5 597,-131.5 597,-112.5 505,-112.5"/>
<text text-anchor="middle" x="551" y="-119.5" font-family="Helvetica,sans-Serif" font-size="10.00">QReadWriteLock</text>
</g>
<!-- Node9&#45;&gt;Node10 -->
<g id="edge11" class="edge"><title>Node9&#45;&gt;Node10</title>
<path fill="none" stroke="midnightblue" d="M410.564,-224.441C385.255,-212.625 347.496,-190.244 365,-168 380.968,-147.708 446.121,-135.467 494.842,-128.982"/>
<polygon fill="midnightblue" stroke="midnightblue" points="495.491,-132.428 504.965,-127.685 494.602,-125.484 495.491,-132.428"/>
</g>
<!-- Node11 -->
<g id="node11" class="node"><title>Node11</title>
<polygon fill="white" stroke="#bfbfbf" points="374.5,-168.5 374.5,-187.5 453.5,-187.5 453.5,-168.5 374.5,-168.5"/>
<text text-anchor="middle" x="414" y="-175.5" font-family="Helvetica,sans-Serif" font-size="10.00">QMetaObject</text>
</g>
<!-- Node9&#45;&gt;Node11 -->
<g id="edge12" class="edge"><title>Node9&#45;&gt;Node11</title>
<path fill="none" stroke="midnightblue" d="M428.193,-224.083C425.915,-216.849 422.629,-206.409 419.792,-197.397"/>
<polygon fill="midnightblue" stroke="midnightblue" points="423.096,-196.239 416.755,-187.751 416.419,-198.341 423.096,-196.239"/>
</g>
<!-- Node12 -->
<g id="node12" class="node"><title>Node12</title>
<polygon fill="white" stroke="#bfbfbf" points="471.5,-168.5 471.5,-187.5 570.5,-187.5 570.5,-168.5 471.5,-168.5"/>
<text text-anchor="middle" x="521" y="-175.5" font-family="Helvetica,sans-Serif" font-size="10.00">QCoreApplication</text>
</g>
<!-- Node9&#45;&gt;Node12 -->
<g id="edge13" class="edge"><title>Node9&#45;&gt;Node12</title>
<path fill="none" stroke="midnightblue" d="M445.46,-224.324C459.5,-215.9 481.048,-202.971 497.543,-193.074"/>
<polygon fill="midnightblue" stroke="midnightblue" points="499.802,-195.801 506.576,-187.655 496.2,-189.798 499.802,-195.801"/>
</g>
<!-- Node13 -->
<g id="node13" class="node"><title>Node13</title>
<g id="a_node13"><a xlink:href="../../d4/d11/torchttphandler_8h.html" target="_top" xlink:title="torchttphandler.h">
<polygon fill="white" stroke="black" points="218.5,-168.5 218.5,-187.5 317.5,-187.5 317.5,-168.5 218.5,-168.5"/>
<text text-anchor="middle" x="268" y="-175.5" font-family="Helvetica,sans-Serif" font-size="10.00">torchttphandler.h</text>
</a>
</g>
</g>
<!-- Node9&#45;&gt;Node13 -->
<g id="edge14" class="edge"><title>Node9&#45;&gt;Node13</title>
<path fill="none" stroke="midnightblue" d="M405.172,-224.444C377.751,-215.359 334.223,-200.939 303.568,-190.783"/>
<polygon fill="midnightblue" stroke="midnightblue" points="304.3,-187.339 293.707,-187.516 302.099,-193.984 304.3,-187.339"/>
</g>
<!-- Node16 -->
<g id="node16" class="node"><title>Node16</title>
<g id="a_node16"><a xlink:href="../../df/dd7/torchttprequest_8h.html" target="_top" xlink:title="torchttprequest.h">
<polygon fill="white" stroke="black" points="180.5,-112.5 180.5,-131.5 281.5,-131.5 281.5,-112.5 180.5,-112.5"/>
<text text-anchor="middle" x="231" y="-119.5" font-family="Helvetica,sans-Serif" font-size="10.00">torchttprequest.h</text>
</a>
</g>
</g>
<!-- Node9&#45;&gt;Node16 -->
<g id="edge25" class="edge"><title>Node9&#45;&gt;Node16</title>
<path fill="none" stroke="midnightblue" d="M381.895,-230.101C323.263,-225.496 230.407,-214.182 209,-188 197.618,-174.079 207.305,-153.978 217.174,-139.823"/>
<polygon fill="midnightblue" stroke="midnightblue" points="220.224,-141.592 223.465,-131.505 214.641,-137.37 220.224,-141.592"/>
</g>
<!-- Node14 -->
<g id="node14" class="node"><title>Node14</title>
<polygon fill="white" stroke="#bfbfbf" points="379.5,-56.5 379.5,-75.5 432.5,-75.5 432.5,-56.5 379.5,-56.5"/>
<text text-anchor="middle" x="406" y="-63.5" font-family="Helvetica,sans-Serif" font-size="10.00">QString</text>
</g>
<!-- Node13&#45;&gt;Node14 -->
<g id="edge15" class="edge"><title>Node13&#45;&gt;Node14</title>
<path fill="none" stroke="midnightblue" d="M317.528,-168.94C341.495,-162.646 368.92,-151.532 387,-132 398.596,-119.473 403.15,-100.248 404.92,-85.9521"/>
<polygon fill="midnightblue" stroke="midnightblue" points="408.426,-86.0357 405.824,-75.7654 401.454,-85.4168 408.426,-86.0357"/>
</g>
<!-- Node15 -->
<g id="node15" class="node"><title>Node15</title>
<polygon fill="white" stroke="#bfbfbf" points="300,-112.5 300,-131.5 378,-131.5 378,-112.5 300,-112.5"/>
<text text-anchor="middle" x="339" y="-119.5" font-family="Helvetica,sans-Serif" font-size="10.00">QVariantMap</text>
</g>
<!-- Node13&#45;&gt;Node15 -->
<g id="edge16" class="edge"><title>Node13&#45;&gt;Node15</title>
<path fill="none" stroke="midnightblue" d="M279.407,-168.324C290.109,-160.185 306.341,-147.839 319.163,-138.087"/>
<polygon fill="midnightblue" stroke="midnightblue" points="321.544,-140.673 327.385,-131.834 317.307,-135.102 321.544,-140.673"/>
</g>
<!-- Node13&#45;&gt;Node16 -->
<g id="edge17" class="edge"><title>Node13&#45;&gt;Node16</title>
<path fill="none" stroke="midnightblue" d="M261.89,-168.083C256.718,-160.534 249.154,-149.495 242.806,-140.23"/>
<polygon fill="midnightblue" stroke="midnightblue" points="245.536,-138.022 236.996,-131.751 239.761,-141.979 245.536,-138.022"/>
</g>
<!-- Node16&#45;&gt;Node2 -->
<g id="edge18" class="edge"><title>Node16&#45;&gt;Node2</title>
<path fill="none" stroke="midnightblue" d="M201.686,-112.444C167.932,-102.591 112.676,-86.4621 77.8761,-76.3044"/>
<polygon fill="midnightblue" stroke="midnightblue" points="78.7892,-72.9249 68.209,-73.4826 76.8277,-79.6445 78.7892,-72.9249"/>
</g>
<!-- Node16&#45;&gt;Node14 -->
<g id="edge20" class="edge"><title>Node16&#45;&gt;Node14</title>
<path fill="none" stroke="midnightblue" d="M258.729,-112.444C288.688,-103.199 336.552,-88.4296 369.538,-78.2511"/>
<polygon fill="midnightblue" stroke="midnightblue" points="370.738,-81.5438 379.261,-75.2508 368.674,-74.855 370.738,-81.5438"/>
</g>
<!-- Node17 -->
<g id="node17" class="node"><title>Node17</title>
<polygon fill="white" stroke="#bfbfbf" points="296.5,-56.5 296.5,-75.5 337.5,-75.5 337.5,-56.5 296.5,-56.5"/>
<text text-anchor="middle" x="317" y="-63.5" font-family="Helvetica,sans-Serif" font-size="10.00">QPair</text>
</g>
<!-- Node16&#45;&gt;Node17 -->
<g id="edge19" class="edge"><title>Node16&#45;&gt;Node17</title>
<path fill="none" stroke="midnightblue" d="M244.817,-112.324C258.233,-103.9 278.824,-90.9709 294.586,-81.0741"/>
<polygon fill="midnightblue" stroke="midnightblue" points="296.609,-83.9364 303.217,-75.6545 292.887,-78.0081 296.609,-83.9364"/>
</g>
<!-- Node18 -->
<g id="node18" class="node"><title>Node18</title>
<polygon fill="white" stroke="#bfbfbf" points="94.5,-56.5 94.5,-75.5 165.5,-75.5 165.5,-56.5 94.5,-56.5"/>
<text text-anchor="middle" x="130" y="-63.5" font-family="Helvetica,sans-Serif" font-size="10.00">QDateTime</text>
</g>
<!-- Node16&#45;&gt;Node18 -->
<g id="edge21" class="edge"><title>Node16&#45;&gt;Node18</title>
<path fill="none" stroke="midnightblue" d="M214.773,-112.324C198.649,-103.703 173.7,-90.3643 155.036,-80.3855"/>
<polygon fill="midnightblue" stroke="midnightblue" points="156.656,-77.283 146.187,-75.6545 153.356,-83.456 156.656,-77.283"/>
</g>
<!-- Node19 -->
<g id="node19" class="node"><title>Node19</title>
<g id="a_node19"><a xlink:href="../../de/de6/torchttpreader_8h.html" target="_top" xlink:title="torchttpreader.h">
<polygon fill="white" stroke="black" points="183.5,-56.5 183.5,-75.5 278.5,-75.5 278.5,-56.5 183.5,-56.5"/>
<text text-anchor="middle" x="231" y="-63.5" font-family="Helvetica,sans-Serif" font-size="10.00">torchttpreader.h</text>
</a>
</g>
</g>
<!-- Node16&#45;&gt;Node19 -->
<g id="edge22" class="edge"><title>Node16&#45;&gt;Node19</title>
<path fill="none" stroke="midnightblue" d="M231,-112.083C231,-105.006 231,-94.8611 231,-85.9865"/>
<polygon fill="midnightblue" stroke="midnightblue" points="234.5,-85.751 231,-75.7511 227.5,-85.7511 234.5,-85.751"/>
</g>
<!-- Node20 -->
<g id="node20" class="node"><title>Node20</title>
<polygon fill="white" stroke="#bfbfbf" points="150.5,-0.5 150.5,-19.5 221.5,-19.5 221.5,-0.5 150.5,-0.5"/>
<text text-anchor="middle" x="186" y="-7.5" font-family="Helvetica,sans-Serif" font-size="10.00">QByteArray</text>
</g>
<!-- Node19&#45;&gt;Node20 -->
<g id="edge23" class="edge"><title>Node19&#45;&gt;Node20</title>
<path fill="none" stroke="midnightblue" d="M223.569,-56.083C217.147,-48.3768 207.694,-37.0333 199.878,-27.6531"/>
<polygon fill="midnightblue" stroke="midnightblue" points="202.383,-25.1927 193.293,-19.7511 197.006,-29.674 202.383,-25.1927"/>
</g>
<!-- Node21 -->
<g id="node21" class="node"><title>Node21</title>
<polygon fill="white" stroke="#bfbfbf" points="240,-0.5 240,-19.5 312,-19.5 312,-0.5 240,-0.5"/>
<text text-anchor="middle" x="276" y="-7.5" font-family="Helvetica,sans-Serif" font-size="10.00">QTcpSocket</text>
</g>
<!-- Node19&#45;&gt;Node21 -->
<g id="edge24" class="edge"><title>Node19&#45;&gt;Node21</title>
<path fill="none" stroke="midnightblue" d="M238.431,-56.083C244.853,-48.3768 254.306,-37.0333 262.122,-27.6531"/>
<polygon fill="midnightblue" stroke="midnightblue" points="264.994,-29.674 268.707,-19.7511 259.617,-25.1927 264.994,-29.674"/>
</g>
<!-- Node22&#45;&gt;Node5 -->
<g id="edge28" class="edge"><title>Node22&#45;&gt;Node5</title>
<path fill="none" stroke="midnightblue" d="M956.799,-224.467C968.094,-211.06 986.179,-184.855 972,-168 944.03,-134.752 814.396,-126.068 749.795,-123.801"/>
<polygon fill="midnightblue" stroke="midnightblue" points="749.745,-120.297 739.639,-123.478 749.523,-127.294 749.745,-120.297"/>
</g>
<!-- Node22&#45;&gt;Node6 -->
<g id="edge30" class="edge"><title>Node22&#45;&gt;Node6</title>
<path fill="none" stroke="midnightblue" d="M926.5,-224.444C902.923,-215.478 865.678,-201.314 839.036,-191.183"/>
<polygon fill="midnightblue" stroke="midnightblue" points="839.986,-187.8 829.395,-187.516 837.498,-194.342 839.986,-187.8"/>
</g>
<!-- Node22&#45;&gt;Node7 -->
<g id="edge31" class="edge"><title>Node22&#45;&gt;Node7</title>
<path fill="none" stroke="midnightblue" d="M982.434,-224.444C1018.86,-215.122 1077.23,-200.183 1117.03,-189.997"/>
<polygon fill="midnightblue" stroke="midnightblue" points="1117.9,-193.387 1126.72,-187.516 1116.17,-186.605 1117.9,-193.387"/>
</g>
<!-- Node22&#45;&gt;Node14 -->
<g id="edge29" class="edge"><title>Node22&#45;&gt;Node14</title>
<path fill="none" stroke="midnightblue" d="M974.504,-224.472C990.987,-217.478 1011.14,-205.792 1021,-188 1035.66,-161.552 999.706,-115.895 994,-112 948.547,-80.9733 564.665,-70.321 442.9,-67.7053"/>
<polygon fill="midnightblue" stroke="midnightblue" points="442.679,-64.2 432.608,-67.49 442.532,-71.1984 442.679,-64.2"/>
</g>
<!-- Node23 -->
<g id="node23" class="node"><title>Node23</title>
<polygon fill="white" stroke="#bfbfbf" points="936.5,-112.5 936.5,-131.5 985.5,-131.5 985.5,-112.5 936.5,-112.5"/>
<text text-anchor="middle" x="961" y="-119.5" font-family="Helvetica,sans-Serif" font-size="10.00">QHash</text>
</g>
<!-- Node22&#45;&gt;Node23 -->
<g id="edge27" class="edge"><title>Node22&#45;&gt;Node23</title>
<path fill="none" stroke="midnightblue" d="M966.502,-224.465C979.787,-216.917 997.076,-204.533 1005,-188 1013.8,-169.648 997.355,-150.587 982.129,-137.89"/>
<polygon fill="midnightblue" stroke="midnightblue" points="984.004,-134.914 973.963,-131.536 979.705,-140.439 984.004,-134.914"/>
</g>
<!-- Node24 -->
<g id="node24" class="node"><title>Node24</title>
<g id="a_node24"><a xlink:href="../../d2/d5b/torcdevicehandler_8h.html" target="_top" xlink:title="torcdevicehandler.h">
<polygon fill="white" stroke="black" points="853,-168.5 853,-187.5 963,-187.5 963,-168.5 853,-168.5"/>
<text text-anchor="middle" x="908" y="-175.5" font-family="Helvetica,sans-Serif" font-size="10.00">torcdevicehandler.h</text>
</a>
</g>
</g>
<!-- Node22&#45;&gt;Node24 -->
<g id="edge32" class="edge"><title>Node22&#45;&gt;Node24</title>
<path fill="none" stroke="midnightblue" d="M942.23,-224.083C936.438,-216.455 927.942,-205.264 920.862,-195.941"/>
<polygon fill="midnightblue" stroke="midnightblue" points="923.479,-193.599 914.644,-187.751 917.904,-197.832 923.479,-193.599"/>
</g>
<!-- Node24&#45;&gt;Node5 -->
<g id="edge34" class="edge"><title>Node24&#45;&gt;Node5</title>
<path fill="none" stroke="midnightblue" d="M877.102,-168.444C842.45,-158.848 786.3,-143.298 749.51,-133.11"/>
<polygon fill="midnightblue" stroke="midnightblue" points="750.252,-129.684 739.68,-130.388 748.384,-136.43 750.252,-129.684"/>
</g>
<!-- Node24&#45;&gt;Node10 -->
<g id="edge35" class="edge"><title>Node24&#45;&gt;Node10</title>
<path fill="none" stroke="midnightblue" d="M852.61,-168.622C785.827,-158.52 674.216,-141.638 607.112,-131.487"/>
<polygon fill="midnightblue" stroke="midnightblue" points="607.552,-128.014 597.141,-129.979 606.505,-134.936 607.552,-128.014"/>
</g>
<!-- Node24&#45;&gt;Node23 -->
<g id="edge33" class="edge"><title>Node24&#45;&gt;Node23</title>
<path fill="none" stroke="midnightblue" d="M916.752,-168.083C924.47,-160.22 935.905,-148.569 945.217,-139.081"/>
<polygon fill="midnightblue" stroke="midnightblue" points="947.904,-141.34 952.411,-131.751 942.908,-136.436 947.904,-141.34"/>
</g>
<!-- Node25 -->
<g id="node25" class="node"><title>Node25</title>
<polygon fill="white" stroke="#bfbfbf" points="66,-112.5 66,-131.5 124,-131.5 124,-112.5 66,-112.5"/>
<text text-anchor="middle" x="95" y="-119.5" font-family="Helvetica,sans-Serif" font-size="10.00">QVariant</text>
</g>
<!-- Node24&#45;&gt;Node25 -->
<g id="edge36" class="edge"><title>Node24&#45;&gt;Node25</title>
<path fill="none" stroke="midnightblue" d="M852.719,-169.024C849.434,-168.65 846.175,-168.304 843,-168 545.269,-139.464 468.997,-157.6 171,-132 159.021,-130.971 146.014,-129.545 134.203,-128.131"/>
<polygon fill="midnightblue" stroke="midnightblue" points="134.54,-124.646 124.188,-126.902 133.687,-131.594 134.54,-124.646"/>
</g>
<!-- Node26&#45;&gt;Node4 -->
<g id="edge41" class="edge"><title>Node26&#45;&gt;Node4</title>
<path fill="none" stroke="midnightblue" d="M654.451,-336.444C679.133,-327.438 718.185,-313.189 745.977,-303.049"/>
<polygon fill="midnightblue" stroke="midnightblue" points="747.464,-306.232 755.659,-299.516 745.065,-299.656 747.464,-306.232"/>
</g>
<!-- Node26&#45;&gt;Node5 -->
<g id="edge39" class="edge"><title>Node26&#45;&gt;Node5</title>
<path fill="none" stroke="midnightblue" d="M650.383,-336.353C664.688,-328.885 683.288,-316.662 693,-300 722.662,-249.112 719.257,-175.966 715.57,-141.853"/>
<polygon fill="midnightblue" stroke="midnightblue" points="719.038,-141.374 714.357,-131.869 712.089,-142.219 719.038,-141.374"/>
</g>
<!-- Node26&#45;&gt;Node9 -->
<g id="edge40" class="edge"><title>Node26&#45;&gt;Node9</title>
<path fill="none" stroke="midnightblue" d="M612.433,-336.498C593.679,-327.776 563.989,-313.598 539,-300 508.693,-283.508 474.751,-262.675 453.147,-249.103"/>
<polygon fill="midnightblue" stroke="midnightblue" points="454.743,-245.972 444.419,-243.593 451.006,-251.891 454.743,-245.972"/>
</g>
<!-- Node27 -->
<g id="node27" class="node"><title>Node27</title>
<polygon fill="white" stroke="#bfbfbf" points="643.5,-280.5 643.5,-299.5 684.5,-299.5 684.5,-280.5 643.5,-280.5"/>
<text text-anchor="middle" x="664" y="-287.5" font-family="Helvetica,sans-Serif" font-size="10.00">QList</text>
</g>
<!-- Node26&#45;&gt;Node27 -->
<g id="edge38" class="edge"><title>Node26&#45;&gt;Node27</title>
<path fill="none" stroke="midnightblue" d="M636.449,-336.083C641.014,-328.613 647.668,-317.724 653.293,-308.52"/>
<polygon fill="midnightblue" stroke="midnightblue" points="656.424,-310.109 658.652,-299.751 650.451,-306.459 656.424,-310.109"/>
</g>
<!-- Node28 -->
<g id="node28" class="node"><title>Node28</title>
<g id="a_node28"><a xlink:href="../../d5/d41/torccentral_8h.html" target="_top" xlink:title="torccentral.h">
<polygon fill="white" stroke="black" points="548.5,-280.5 548.5,-299.5 625.5,-299.5 625.5,-280.5 548.5,-280.5"/>
<text text-anchor="middle" x="587" y="-287.5" font-family="Helvetica,sans-Serif" font-size="10.00">torccentral.h</text>
</a>
</g>
</g>
<!-- Node26&#45;&gt;Node28 -->
<g id="edge42" class="edge"><title>Node26&#45;&gt;Node28</title>
<path fill="none" stroke="midnightblue" d="M623.734,-336.083C617.455,-328.377 608.212,-317.033 600.569,-307.653"/>
<polygon fill="midnightblue" stroke="midnightblue" points="603.161,-305.293 594.131,-299.751 597.734,-309.714 603.161,-305.293"/>
</g>
<!-- Node28&#45;&gt;Node5 -->
<g id="edge43" class="edge"><title>Node28&#45;&gt;Node5</title>
<path fill="none" stroke="midnightblue" d="M593.774,-280.075C613.951,-253.493 673.881,-174.538 700.276,-139.763"/>
<polygon fill="midnightblue" stroke="midnightblue" points="703.238,-141.65 706.496,-131.568 697.663,-137.417 703.238,-141.65"/>
</g>
<!-- Node28&#45;&gt;Node6 -->
<g id="edge44" class="edge"><title>Node28&#45;&gt;Node6</title>
<path fill="none" stroke="midnightblue" d="M607.955,-280.392C628.75,-271.702 661.417,-257.648 689,-244 722.348,-227.499 759.816,-206.406 783.407,-192.8"/>
<polygon fill="midnightblue" stroke="midnightblue" points="785.423,-195.676 792.32,-187.634 781.913,-189.62 785.423,-195.676"/>
</g>
<!-- Node28&#45;&gt;Node9 -->
<g id="edge47" class="edge"><title>Node28&#45;&gt;Node9</title>
<path fill="none" stroke="midnightblue" d="M562.281,-280.444C536.152,-271.399 494.741,-257.064 465.424,-246.916"/>
<polygon fill="midnightblue" stroke="midnightblue" points="466.198,-243.48 455.603,-243.516 463.908,-250.095 466.198,-243.48"/>
</g>
<!-- Node28&#45;&gt;Node22 -->
<g id="edge46" class="edge"><title>Node28&#45;&gt;Node22</title>
<path fill="none" stroke="midnightblue" d="M625.703,-281.439C628.508,-280.937 631.296,-280.452 634,-280 728.259,-264.251 838.968,-249.238 900.853,-241.158"/>
<polygon fill="midnightblue" stroke="midnightblue" points="901.625,-244.587 911.09,-239.827 900.722,-237.646 901.625,-244.587"/>
</g>
<!-- Node28&#45;&gt;Node25 -->
<g id="edge45" class="edge"><title>Node28&#45;&gt;Node25</title>
<path fill="none" stroke="midnightblue" d="M548.269,-285.846C472.292,-278.344 300.05,-254.77 173,-188 148.512,-175.13 124.735,-153.612 109.999,-138.885"/>
<polygon fill="midnightblue" stroke="midnightblue" points="112.284,-136.215 102.796,-131.501 107.273,-141.103 112.284,-136.215"/>
</g>
<!-- Node29&#45;&gt;Node2 -->
<g id="edge49" class="edge"><title>Node29&#45;&gt;Node2</title>
<path fill="none" stroke="midnightblue" d="M482.178,-344.432C368.551,-341.712 38,-325.982 38,-235 38,-235 38,-235 38,-177 38,-144.863 41.4386,-107.584 43.807,-85.7187"/>
<polygon fill="midnightblue" stroke="midnightblue" points="47.3119,-85.8715 44.9541,-75.5424 40.3559,-85.0874 47.3119,-85.8715"/>
</g>
<!-- Node29&#45;&gt;Node5 -->
<g id="edge50" class="edge"><title>Node29&#45;&gt;Node5</title>
<path fill="none" stroke="midnightblue" d="M520.994,-336.39C522.823,-323.332 527.629,-298.126 539,-280 579.266,-215.817 653.021,-161.935 690.238,-137.33"/>
<polygon fill="midnightblue" stroke="midnightblue" points="692.395,-140.102 698.87,-131.716 688.579,-134.234 692.395,-140.102"/>
</g>
<!-- Node29&#45;&gt;Node25 -->
<g id="edge51" class="edge"><title>Node29&#45;&gt;Node25</title>
<path fill="none" stroke="midnightblue" d="M482.366,-337.767C408.977,-322.02 244.776,-278.546 140,-188 124.624,-174.712 111.981,-155.052 104.053,-140.835"/>
<polygon fill="midnightblue" stroke="midnightblue" points="106.932,-138.795 99.1421,-131.614 100.754,-142.086 106.932,-138.795"/>
</g>
<!-- Node29&#45;&gt;Node28 -->
<g id="edge52" class="edge"><title>Node29&#45;&gt;Node28</title>
<path fill="none" stroke="midnightblue" d="M530.765,-336.324C540.766,-328.263 555.887,-316.077 567.93,-306.369"/>
<polygon fill="midnightblue" stroke="midnightblue" points="570.45,-308.834 576.039,-299.834 566.057,-303.384 570.45,-308.834"/>
</g>
</g>
</svg>
