<?xml version="1.0" encoding="UTF-8" standalone="no"?>
<!DOCTYPE svg PUBLIC "-//W3C//DTD SVG 1.1//EN"
 "http://www.w3.org/Graphics/SVG/1.1/DTD/svg11.dtd">
<!-- Generated by graphviz version 2.38.0 (20140413.2041)
 -->
<!-- Title: torc1wireds18b20.h Pages: 1 -->
<svg width="1144pt" height="420pt"
 viewBox="0.00 0.00 1143.50 420.00" xmlns="http://www.w3.org/2000/svg" xmlns:xlink="http://www.w3.org/1999/xlink">
<g id="graph0" class="graph" transform="scale(1 1) rotate(0) translate(4 416)">
<title>torc1wireds18b20.h</title>
<polygon fill="white" stroke="none" points="-4,4 -4,-416 1139.5,-416 1139.5,4 -4,4"/>
<!-- Node1 -->
<g id="node1" class="node"><title>Node1</title>
<polygon fill="#bfbfbf" stroke="black" points="112.5,-392.5 112.5,-411.5 222.5,-411.5 222.5,-392.5 112.5,-392.5"/>
<text text-anchor="middle" x="167.5" y="-399.5" font-family="Helvetica,sans-Serif" font-size="10.00">torc1wireds18b20.h</text>
</g>
<!-- Node2 -->
<g id="node2" class="node"><title>Node2</title>
<polygon fill="white" stroke="#bfbfbf" points="0,-336.5 0,-355.5 39,-355.5 39,-336.5 0,-336.5"/>
<text text-anchor="middle" x="19.5" y="-343.5" font-family="Helvetica,sans-Serif" font-size="10.00">QFile</text>
</g>
<!-- Node1&#45;&gt;Node2 -->
<g id="edge1" class="edge"><title>Node1&#45;&gt;Node2</title>
<path fill="none" stroke="midnightblue" d="M144.049,-392.444C118.206,-383.014 76.6073,-367.836 48.6773,-357.646"/>
<polygon fill="midnightblue" stroke="midnightblue" points="49.6541,-354.277 39.0602,-354.137 47.2547,-360.852 49.6541,-354.277"/>
</g>
<!-- Node3 -->
<g id="node3" class="node"><title>Node3</title>
<polygon fill="white" stroke="#bfbfbf" points="57,-336.5 57,-355.5 108,-355.5 108,-336.5 57,-336.5"/>
<text text-anchor="middle" x="82.5" y="-343.5" font-family="Helvetica,sans-Serif" font-size="10.00">QTimer</text>
</g>
<!-- Node1&#45;&gt;Node3 -->
<g id="edge2" class="edge"><title>Node1&#45;&gt;Node3</title>
<path fill="none" stroke="midnightblue" d="M153.843,-392.324C140.584,-383.9 120.232,-370.971 104.654,-361.074"/>
<polygon fill="midnightblue" stroke="midnightblue" points="106.44,-358.063 96.1228,-355.655 102.687,-363.971 106.44,-358.063"/>
</g>
<!-- Node4 -->
<g id="node4" class="node"><title>Node4</title>
<g id="a_node4"><a xlink:href="../../dd/db0/torcqthread_8h.html" target="_top" xlink:title="torcqthread.h">
<polygon fill="white" stroke="black" points="126.5,-336.5 126.5,-355.5 208.5,-355.5 208.5,-336.5 126.5,-336.5"/>
<text text-anchor="middle" x="167.5" y="-343.5" font-family="Helvetica,sans-Serif" font-size="10.00">torcqthread.h</text>
</a>
</g>
</g>
<!-- Node1&#45;&gt;Node4 -->
<g id="edge3" class="edge"><title>Node1&#45;&gt;Node4</title>
<path fill="none" stroke="midnightblue" d="M167.5,-392.083C167.5,-385.006 167.5,-374.861 167.5,-365.986"/>
<polygon fill="midnightblue" stroke="midnightblue" points="171,-365.751 167.5,-355.751 164,-365.751 171,-365.751"/>
</g>
<!-- Node6 -->
<g id="node6" class="node"><title>Node6</title>
<g id="a_node6"><a xlink:href="../../d3/dc5/torctemperatureinput_8h.html" target="_top" xlink:title="torctemperatureinput.h">
<polygon fill="white" stroke="black" points="227,-336.5 227,-355.5 356,-355.5 356,-336.5 227,-336.5"/>
<text text-anchor="middle" x="291.5" y="-343.5" font-family="Helvetica,sans-Serif" font-size="10.00">torctemperatureinput.h</text>
</a>
</g>
</g>
<!-- Node1&#45;&gt;Node6 -->
<g id="edge5" class="edge"><title>Node1&#45;&gt;Node6</title>
<path fill="none" stroke="midnightblue" d="M187.148,-392.444C207.465,-383.596 239.403,-369.687 262.598,-359.586"/>
<polygon fill="midnightblue" stroke="midnightblue" points="264.173,-362.718 271.944,-355.516 261.378,-356.3 264.173,-362.718"/>
</g>
<!-- Node30 -->
<g id="node30" class="node"><title>Node30</title>
<g id="a_node30"><a xlink:href="../../d2/df5/torc1wirebus_8h.html" target="_top" xlink:title="torc1wirebus.h">
<polygon fill="white" stroke="black" points="374.5,-336.5 374.5,-355.5 460.5,-355.5 460.5,-336.5 374.5,-336.5"/>
<text text-anchor="middle" x="417.5" y="-343.5" font-family="Helvetica,sans-Serif" font-size="10.00">torc1wirebus.h</text>
</a>
</g>
</g>
<!-- Node1&#45;&gt;Node30 -->
<g id="edge39" class="edge"><title>Node1&#45;&gt;Node30</title>
<path fill="none" stroke="midnightblue" d="M207.113,-392.444C250.725,-383.023 320.9,-367.866 368.078,-357.675"/>
<polygon fill="midnightblue" stroke="midnightblue" points="369.036,-361.049 378.072,-355.516 367.559,-354.207 369.036,-361.049"/>
</g>
<!-- Node5 -->
<g id="node5" class="node"><title>Node5</title>
<polygon fill="white" stroke="#bfbfbf" points="94,-280.5 94,-299.5 151,-299.5 151,-280.5 94,-280.5"/>
<text text-anchor="middle" x="122.5" y="-287.5" font-family="Helvetica,sans-Serif" font-size="10.00">QThread</text>
</g>
<!-- Node4&#45;&gt;Node5 -->
<g id="edge4" class="edge"><title>Node4&#45;&gt;Node5</title>
<path fill="none" stroke="midnightblue" d="M160.069,-336.083C153.647,-328.377 144.194,-317.033 136.378,-307.653"/>
<polygon fill="midnightblue" stroke="midnightblue" points="138.883,-305.193 129.793,-299.751 133.506,-309.674 138.883,-305.193"/>
</g>
<!-- Node7 -->
<g id="node7" class="node"><title>Node7</title>
<g id="a_node7"><a xlink:href="../../dd/d69/torcinput_8h.html" target="_top" xlink:title="torcinput.h">
<polygon fill="white" stroke="black" points="320.5,-280.5 320.5,-299.5 388.5,-299.5 388.5,-280.5 320.5,-280.5"/>
<text text-anchor="middle" x="354.5" y="-287.5" font-family="Helvetica,sans-Serif" font-size="10.00">torcinput.h</text>
</a>
</g>
</g>
<!-- Node6&#45;&gt;Node7 -->
<g id="edge6" class="edge"><title>Node6&#45;&gt;Node7</title>
<path fill="none" stroke="midnightblue" d="M301.622,-336.324C311.026,-328.263 325.244,-316.077 336.569,-306.369"/>
<polygon fill="midnightblue" stroke="midnightblue" points="338.879,-308.999 344.194,-299.834 334.323,-303.684 338.879,-308.999"/>
</g>
<!-- Node8 -->
<g id="node8" class="node"><title>Node8</title>
<polygon fill="white" stroke="#bfbfbf" points="444,-112.5 444,-131.5 497,-131.5 497,-112.5 444,-112.5"/>
<text text-anchor="middle" x="470.5" y="-119.5" font-family="Helvetica,sans-Serif" font-size="10.00">QMutex</text>
</g>
<!-- Node7&#45;&gt;Node8 -->
<g id="edge7" class="edge"><title>Node7&#45;&gt;Node8</title>
<path fill="none" stroke="midnightblue" d="M357.468,-280.489C366.07,-256.121 391.368,-186.639 406.5,-168 416.834,-155.272 431.65,-144.542 444.426,-136.756"/>
<polygon fill="midnightblue" stroke="midnightblue" points="446.382,-139.668 453.274,-131.621 442.868,-133.614 446.382,-139.668"/>
</g>
<!-- Node9 -->
<g id="node9" class="node"><title>Node9</title>
<polygon fill="white" stroke="#bfbfbf" points="43,-168.5 43,-187.5 98,-187.5 98,-168.5 43,-168.5"/>
<text text-anchor="middle" x="70.5" y="-175.5" font-family="Helvetica,sans-Serif" font-size="10.00">QObject</text>
</g>
<!-- Node7&#45;&gt;Node9 -->
<g id="edge8" class="edge"><title>Node7&#45;&gt;Node9</title>
<path fill="none" stroke="midnightblue" d="M332.796,-280.475C310.016,-271.499 273.18,-256.907 241.5,-244 220.097,-235.28 215.024,-232.417 193.5,-224 163.72,-212.355 129.542,-199.925 104.784,-191.086"/>
<polygon fill="midnightblue" stroke="midnightblue" points="105.718,-187.703 95.1236,-187.649 103.372,-194.298 105.718,-187.703"/>
</g>
<!-- Node10 -->
<g id="node10" class="node"><title>Node10</title>
<g id="a_node10"><a xlink:href="../../d3/dee/torchttpservice_8h.html" target="_top" xlink:title="http/torchttpservice.h">
<polygon fill="white" stroke="black" points="675.5,-224.5 675.5,-243.5 795.5,-243.5 795.5,-224.5 675.5,-224.5"/>
<text text-anchor="middle" x="735.5" y="-231.5" font-family="Helvetica,sans-Serif" font-size="10.00">http/torchttpservice.h</text>
</a>
</g>
</g>
<!-- Node7&#45;&gt;Node10 -->
<g id="edge9" class="edge"><title>Node7&#45;&gt;Node10</title>
<path fill="none" stroke="midnightblue" d="M388.647,-284.16C450.716,-275.363 583.19,-256.587 665.267,-244.954"/>
<polygon fill="midnightblue" stroke="midnightblue" points="665.856,-248.406 675.266,-243.537 664.874,-241.475 665.856,-248.406"/>
</g>
<!-- Node24 -->
<g id="node24" class="node"><title>Node24</title>
<g id="a_node24"><a xlink:href="../../d1/df7/torcdevice_8h.html" target="_top" xlink:title="torcdevice.h">
<polygon fill="white" stroke="black" points="284,-224.5 284,-243.5 359,-243.5 359,-224.5 284,-224.5"/>
<text text-anchor="middle" x="321.5" y="-231.5" font-family="Helvetica,sans-Serif" font-size="10.00">torcdevice.h</text>
</a>
</g>
</g>
<!-- Node7&#45;&gt;Node24 -->
<g id="edge27" class="edge"><title>Node7&#45;&gt;Node24</title>
<path fill="none" stroke="midnightblue" d="M349.051,-280.083C344.486,-272.613 337.832,-261.724 332.207,-252.52"/>
<polygon fill="midnightblue" stroke="midnightblue" points="335.049,-250.459 326.848,-243.751 329.076,-254.109 335.049,-250.459"/>
</g>
<!-- Node10&#45;&gt;Node8 -->
<g id="edge11" class="edge"><title>Node10&#45;&gt;Node8</title>
<path fill="none" stroke="midnightblue" d="M714.706,-224.368C668.071,-205.01 554.974,-158.065 500.631,-135.507"/>
<polygon fill="midnightblue" stroke="midnightblue" points="501.775,-132.193 491.198,-131.591 499.092,-138.658 501.775,-132.193"/>
</g>
<!-- Node11 -->
<g id="node11" class="node"><title>Node11</title>
<polygon fill="white" stroke="#bfbfbf" points="1091.5,-56.5 1091.5,-75.5 1135.5,-75.5 1135.5,-56.5 1091.5,-56.5"/>
<text text-anchor="middle" x="1113.5" y="-63.5" font-family="Helvetica,sans-Serif" font-size="10.00">QMap</text>
</g>
<!-- Node10&#45;&gt;Node11 -->
<g id="edge10" class="edge"><title>Node10&#45;&gt;Node11</title>
<path fill="none" stroke="midnightblue" d="M795.725,-229.725C871.394,-224.633 996.017,-212.715 1034.5,-188 1073.08,-163.226 1096.83,-112.164 1107.27,-84.9687"/>
<polygon fill="midnightblue" stroke="midnightblue" points="1110.58,-86.1114 1110.73,-75.5176 1104.01,-83.7073 1110.58,-86.1114"/>
</g>
<!-- Node12 -->
<g id="node12" class="node"><title>Node12</title>
<polygon fill="white" stroke="#bfbfbf" points="613.5,-112.5 613.5,-131.5 705.5,-131.5 705.5,-112.5 613.5,-112.5"/>
<text text-anchor="middle" x="659.5" y="-119.5" font-family="Helvetica,sans-Serif" font-size="10.00">QReadWriteLock</text>
</g>
<!-- Node10&#45;&gt;Node12 -->
<g id="edge12" class="edge"><title>Node10&#45;&gt;Node12</title>
<path fill="none" stroke="midnightblue" d="M723.937,-224.441C713.324,-216.103 697.74,-202.583 687.5,-188 677.36,-173.559 669.785,-154.865 665.088,-141.234"/>
<polygon fill="midnightblue" stroke="midnightblue" points="668.365,-139.994 661.945,-131.566 661.708,-142.158 668.365,-139.994"/>
</g>
<!-- Node13 -->
<g id="node13" class="node"><title>Node13</title>
<polygon fill="white" stroke="#bfbfbf" points="696,-168.5 696,-187.5 775,-187.5 775,-168.5 696,-168.5"/>
<text text-anchor="middle" x="735.5" y="-175.5" font-family="Helvetica,sans-Serif" font-size="10.00">QMetaObject</text>
</g>
<!-- Node10&#45;&gt;Node13 -->
<g id="edge13" class="edge"><title>Node10&#45;&gt;Node13</title>
<path fill="none" stroke="midnightblue" d="M735.5,-224.083C735.5,-217.006 735.5,-206.861 735.5,-197.986"/>
<polygon fill="midnightblue" stroke="midnightblue" points="739,-197.751 735.5,-187.751 732,-197.751 739,-197.751"/>
</g>
<!-- Node14 -->
<g id="node14" class="node"><title>Node14</title>
<polygon fill="white" stroke="#bfbfbf" points="793,-168.5 793,-187.5 892,-187.5 892,-168.5 793,-168.5"/>
<text text-anchor="middle" x="842.5" y="-175.5" font-family="Helvetica,sans-Serif" font-size="10.00">QCoreApplication</text>
</g>
<!-- Node10&#45;&gt;Node14 -->
<g id="edge14" class="edge"><title>Node10&#45;&gt;Node14</title>
<path fill="none" stroke="midnightblue" d="M752.691,-224.324C769.851,-215.664 796.446,-202.242 816.247,-192.249"/>
<polygon fill="midnightblue" stroke="midnightblue" points="818.001,-195.285 825.351,-187.655 814.847,-189.035 818.001,-195.285"/>
</g>
<!-- Node15 -->
<g id="node15" class="node"><title>Node15</title>
<g id="a_node15"><a xlink:href="../../d4/d11/torchttphandler_8h.html" target="_top" xlink:title="torchttphandler.h">
<polygon fill="white" stroke="black" points="910,-168.5 910,-187.5 1009,-187.5 1009,-168.5 910,-168.5"/>
<text text-anchor="middle" x="959.5" y="-175.5" font-family="Helvetica,sans-Serif" font-size="10.00">torchttphandler.h</text>
</a>
</g>
</g>
<!-- Node10&#45;&gt;Node15 -->
<g id="edge15" class="edge"><title>Node10&#45;&gt;Node15</title>
<path fill="none" stroke="midnightblue" d="M770.993,-224.444C809.824,-215.083 872.156,-200.056 914.418,-189.868"/>
<polygon fill="midnightblue" stroke="midnightblue" points="915.271,-193.263 924.173,-187.516 913.631,-186.458 915.271,-193.263"/>
</g>
<!-- Node18 -->
<g id="node18" class="node"><title>Node18</title>
<g id="a_node18"><a xlink:href="../../df/dd7/torchttprequest_8h.html" target="_top" xlink:title="torchttprequest.h">
<polygon fill="white" stroke="black" points="928,-112.5 928,-131.5 1029,-131.5 1029,-112.5 928,-112.5"/>
<text text-anchor="middle" x="978.5" y="-119.5" font-family="Helvetica,sans-Serif" font-size="10.00">torchttprequest.h</text>
</a>
</g>
</g>
<!-- Node10&#45;&gt;Node18 -->
<g id="edge26" class="edge"><title>Node10&#45;&gt;Node18</title>
<path fill="none" stroke="midnightblue" d="M795.678,-232.229C870.106,-229.853 990.441,-220.873 1018.5,-188 1031.83,-172.38 1014.36,-151.849 998.497,-138.079"/>
<polygon fill="midnightblue" stroke="midnightblue" points="1000.48,-135.176 990.519,-131.556 996.045,-140.595 1000.48,-135.176"/>
</g>
<!-- Node16 -->
<g id="node16" class="node"><title>Node16</title>
<polygon fill="white" stroke="#bfbfbf" points="759,-56.5 759,-75.5 812,-75.5 812,-56.5 759,-56.5"/>
<text text-anchor="middle" x="785.5" y="-63.5" font-family="Helvetica,sans-Serif" font-size="10.00">QString</text>
</g>
<!-- Node15&#45;&gt;Node16 -->
<g id="edge16" class="edge"><title>Node15&#45;&gt;Node16</title>
<path fill="none" stroke="midnightblue" d="M909.935,-169.784C881.827,-163.62 847.406,-152.361 822.5,-132 807.615,-119.831 797.571,-99.9954 791.748,-85.4318"/>
<polygon fill="midnightblue" stroke="midnightblue" points="794.992,-84.1126 788.244,-75.9441 788.425,-86.5374 794.992,-84.1126"/>
</g>
<!-- Node17 -->
<g id="node17" class="node"><title>Node17</title>
<polygon fill="white" stroke="#bfbfbf" points="831.5,-112.5 831.5,-131.5 909.5,-131.5 909.5,-112.5 831.5,-112.5"/>
<text text-anchor="middle" x="870.5" y="-119.5" font-family="Helvetica,sans-Serif" font-size="10.00">QVariantMap</text>
</g>
<!-- Node15&#45;&gt;Node17 -->
<g id="edge17" class="edge"><title>Node15&#45;&gt;Node17</title>
<path fill="none" stroke="midnightblue" d="M945.201,-168.324C931.317,-159.9 910.008,-146.971 893.696,-137.074"/>
<polygon fill="midnightblue" stroke="midnightblue" points="895.129,-133.85 884.764,-131.655 891.498,-139.834 895.129,-133.85"/>
</g>
<!-- Node15&#45;&gt;Node18 -->
<g id="edge18" class="edge"><title>Node15&#45;&gt;Node18</title>
<path fill="none" stroke="midnightblue" d="M962.637,-168.083C965.183,-160.849 968.856,-150.409 972.027,-141.397"/>
<polygon fill="midnightblue" stroke="midnightblue" points="975.403,-142.346 975.421,-131.751 968.8,-140.023 975.403,-142.346"/>
</g>
<!-- Node18&#45;&gt;Node11 -->
<g id="edge19" class="edge"><title>Node18&#45;&gt;Node11</title>
<path fill="none" stroke="midnightblue" d="M999.891,-112.444C1022.21,-103.517 1057.4,-89.4387 1082.71,-79.3168"/>
<polygon fill="midnightblue" stroke="midnightblue" points="1084.22,-82.4801 1092.21,-75.5164 1081.62,-75.9807 1084.22,-82.4801"/>
</g>
<!-- Node18&#45;&gt;Node16 -->
<g id="edge21" class="edge"><title>Node18&#45;&gt;Node16</title>
<path fill="none" stroke="midnightblue" d="M947.919,-112.444C913.72,-102.875 858.363,-87.3864 821.945,-77.1971"/>
<polygon fill="midnightblue" stroke="midnightblue" points="822.782,-73.797 812.209,-74.473 820.896,-80.5381 822.782,-73.797"/>
</g>
<!-- Node19 -->
<g id="node19" class="node"><title>Node19</title>
<polygon fill="white" stroke="#bfbfbf" points="830,-56.5 830,-75.5 871,-75.5 871,-56.5 830,-56.5"/>
<text text-anchor="middle" x="850.5" y="-63.5" font-family="Helvetica,sans-Serif" font-size="10.00">QPair</text>
</g>
<!-- Node18&#45;&gt;Node19 -->
<g id="edge20" class="edge"><title>Node18&#45;&gt;Node19</title>
<path fill="none" stroke="midnightblue" d="M958.218,-112.444C937.153,-103.557 903.983,-89.5632 880.014,-79.4514"/>
<polygon fill="midnightblue" stroke="midnightblue" points="881.261,-76.1787 870.687,-75.5164 878.54,-82.6283 881.261,-76.1787"/>
</g>
<!-- Node20 -->
<g id="node20" class="node"><title>Node20</title>
<polygon fill="white" stroke="#bfbfbf" points="889,-56.5 889,-75.5 960,-75.5 960,-56.5 889,-56.5"/>
<text text-anchor="middle" x="924.5" y="-63.5" font-family="Helvetica,sans-Serif" font-size="10.00">QDateTime</text>
</g>
<!-- Node18&#45;&gt;Node20 -->
<g id="edge22" class="edge"><title>Node18&#45;&gt;Node20</title>
<path fill="none" stroke="midnightblue" d="M969.583,-112.083C961.72,-104.22 950.069,-92.5688 940.581,-83.0813"/>
<polygon fill="midnightblue" stroke="midnightblue" points="942.797,-80.3473 933.251,-75.7511 937.847,-85.2971 942.797,-80.3473"/>
</g>
<!-- Node21 -->
<g id="node21" class="node"><title>Node21</title>
<g id="a_node21"><a xlink:href="../../de/de6/torchttpreader_8h.html" target="_top" xlink:title="torchttpreader.h">
<polygon fill="white" stroke="black" points="978,-56.5 978,-75.5 1073,-75.5 1073,-56.5 978,-56.5"/>
<text text-anchor="middle" x="1025.5" y="-63.5" font-family="Helvetica,sans-Serif" font-size="10.00">torchttpreader.h</text>
</a>
</g>
</g>
<!-- Node18&#45;&gt;Node21 -->
<g id="edge23" class="edge"><title>Node18&#45;&gt;Node21</title>
<path fill="none" stroke="midnightblue" d="M986.261,-112.083C993.037,-104.298 1003.04,-92.8015 1011.26,-83.3665"/>
<polygon fill="midnightblue" stroke="midnightblue" points="1013.96,-85.592 1017.88,-75.7511 1008.68,-80.9963 1013.96,-85.592"/>
</g>
<!-- Node22 -->
<g id="node22" class="node"><title>Node22</title>
<polygon fill="white" stroke="#bfbfbf" points="945,-0.5 945,-19.5 1016,-19.5 1016,-0.5 945,-0.5"/>
<text text-anchor="middle" x="980.5" y="-7.5" font-family="Helvetica,sans-Serif" font-size="10.00">QByteArray</text>
</g>
<!-- Node21&#45;&gt;Node22 -->
<g id="edge24" class="edge"><title>Node21&#45;&gt;Node22</title>
<path fill="none" stroke="midnightblue" d="M1018.07,-56.083C1011.65,-48.3768 1002.19,-37.0333 994.378,-27.6531"/>
<polygon fill="midnightblue" stroke="midnightblue" points="996.883,-25.1927 987.793,-19.7511 991.506,-29.674 996.883,-25.1927"/>
</g>
<!-- Node23 -->
<g id="node23" class="node"><title>Node23</title>
<polygon fill="white" stroke="#bfbfbf" points="1034.5,-0.5 1034.5,-19.5 1106.5,-19.5 1106.5,-0.5 1034.5,-0.5"/>
<text text-anchor="middle" x="1070.5" y="-7.5" font-family="Helvetica,sans-Serif" font-size="10.00">QTcpSocket</text>
</g>
<!-- Node21&#45;&gt;Node23 -->
<g id="edge25" class="edge"><title>Node21&#45;&gt;Node23</title>
<path fill="none" stroke="midnightblue" d="M1032.93,-56.083C1039.35,-48.3768 1048.81,-37.0333 1056.62,-27.6531"/>
<polygon fill="midnightblue" stroke="midnightblue" points="1059.49,-29.674 1063.21,-19.7511 1054.12,-25.1927 1059.49,-29.674"/>
</g>
<!-- Node24&#45;&gt;Node8 -->
<g id="edge29" class="edge"><title>Node24&#45;&gt;Node8</title>
<path fill="none" stroke="midnightblue" d="M326.561,-224.362C334.869,-210.811 352.579,-184.412 373.5,-168 391.743,-153.689 415.274,-142.631 434.591,-135.058"/>
<polygon fill="midnightblue" stroke="midnightblue" points="435.853,-138.322 443.975,-131.519 433.383,-131.773 435.853,-138.322"/>
</g>
<!-- Node24&#45;&gt;Node9 -->
<g id="edge31" class="edge"><title>Node24&#45;&gt;Node9</title>
<path fill="none" stroke="midnightblue" d="M283.731,-225.554C242.734,-217.371 175.102,-203.577 108.239,-188.341"/>
<polygon fill="midnightblue" stroke="midnightblue" points="108.911,-184.905 98.3824,-186.084 107.348,-191.728 108.911,-184.905"/>
</g>
<!-- Node24&#45;&gt;Node16 -->
<g id="edge30" class="edge"><title>Node24&#45;&gt;Node16</title>
<path fill="none" stroke="midnightblue" d="M318.742,-224.189C312.376,-201.914 299.398,-142.928 329.5,-112 358.538,-82.1651 645.012,-71.0331 748.472,-67.9664"/>
<polygon fill="midnightblue" stroke="midnightblue" points="748.854,-71.4569 758.75,-67.6706 748.653,-64.4598 748.854,-71.4569"/>
</g>
<!-- Node25 -->
<g id="node25" class="node"><title>Node25</title>
<polygon fill="white" stroke="#bfbfbf" points="339,-112.5 339,-131.5 388,-131.5 388,-112.5 339,-112.5"/>
<text text-anchor="middle" x="363.5" y="-119.5" font-family="Helvetica,sans-Serif" font-size="10.00">QHash</text>
</g>
<!-- Node24&#45;&gt;Node25 -->
<g id="edge28" class="edge"><title>Node24&#45;&gt;Node25</title>
<path fill="none" stroke="midnightblue" d="M322.409,-224.308C323.952,-211.572 327.709,-187.262 335.5,-168 339.461,-158.208 345.5,-148.149 350.957,-140.032"/>
<polygon fill="midnightblue" stroke="midnightblue" points="353.847,-142.005 356.728,-131.81 348.118,-137.983 353.847,-142.005"/>
</g>
<!-- Node26 -->
<g id="node26" class="node"><title>Node26</title>
<g id="a_node26"><a xlink:href="../../d8/dfe/torcreferencecounted_8h.html" target="_top" xlink:title="torcreferencecounted.h">
<polygon fill="white" stroke="black" points="116,-168.5 116,-187.5 245,-187.5 245,-168.5 116,-168.5"/>
<text text-anchor="middle" x="180.5" y="-175.5" font-family="Helvetica,sans-Serif" font-size="10.00">torcreferencecounted.h</text>
</a>
</g>
</g>
<!-- Node24&#45;&gt;Node26 -->
<g id="edge32" class="edge"><title>Node24&#45;&gt;Node26</title>
<path fill="none" stroke="midnightblue" d="M299.158,-224.444C275.747,-215.478 238.764,-201.314 212.31,-191.183"/>
<polygon fill="midnightblue" stroke="midnightblue" points="213.328,-187.824 202.737,-187.516 210.824,-194.361 213.328,-187.824"/>
</g>
<!-- Node28 -->
<g id="node28" class="node"><title>Node28</title>
<g id="a_node28"><a xlink:href="../../d2/d5b/torcdevicehandler_8h.html" target="_top" xlink:title="torcdevicehandler.h">
<polygon fill="white" stroke="black" points="415.5,-168.5 415.5,-187.5 525.5,-187.5 525.5,-168.5 415.5,-168.5"/>
<text text-anchor="middle" x="470.5" y="-175.5" font-family="Helvetica,sans-Serif" font-size="10.00">torcdevicehandler.h</text>
</a>
</g>
</g>
<!-- Node24&#45;&gt;Node28 -->
<g id="edge34" class="edge"><title>Node24&#45;&gt;Node28</title>
<path fill="none" stroke="midnightblue" d="M345.109,-224.444C369.958,-215.438 409.274,-201.189 437.254,-191.049"/>
<polygon fill="midnightblue" stroke="midnightblue" points="438.792,-194.214 447.001,-187.516 436.407,-187.633 438.792,-194.214"/>
</g>
<!-- Node27 -->
<g id="node27" class="node"><title>Node27</title>
<polygon fill="white" stroke="#bfbfbf" points="145.5,-112.5 145.5,-131.5 215.5,-131.5 215.5,-112.5 145.5,-112.5"/>
<text text-anchor="middle" x="180.5" y="-119.5" font-family="Helvetica,sans-Serif" font-size="10.00">QAtomicInt</text>
</g>
<!-- Node26&#45;&gt;Node27 -->
<g id="edge33" class="edge"><title>Node26&#45;&gt;Node27</title>
<path fill="none" stroke="midnightblue" d="M180.5,-168.083C180.5,-161.006 180.5,-150.861 180.5,-141.986"/>
<polygon fill="midnightblue" stroke="midnightblue" points="184,-141.751 180.5,-131.751 177,-141.751 184,-141.751"/>
</g>
<!-- Node28&#45;&gt;Node8 -->
<g id="edge36" class="edge"><title>Node28&#45;&gt;Node8</title>
<path fill="none" stroke="midnightblue" d="M470.5,-168.083C470.5,-161.006 470.5,-150.861 470.5,-141.986"/>
<polygon fill="midnightblue" stroke="midnightblue" points="474,-141.751 470.5,-131.751 467,-141.751 474,-141.751"/>
</g>
<!-- Node28&#45;&gt;Node12 -->
<g id="edge37" class="edge"><title>Node28&#45;&gt;Node12</title>
<path fill="none" stroke="midnightblue" d="M500.448,-168.444C532.658,-159.241 584.034,-144.562 619.642,-134.388"/>
<polygon fill="midnightblue" stroke="midnightblue" points="621.039,-137.629 629.692,-131.516 619.116,-130.898 621.039,-137.629"/>
</g>
<!-- Node28&#45;&gt;Node25 -->
<g id="edge35" class="edge"><title>Node28&#45;&gt;Node25</title>
<path fill="none" stroke="midnightblue" d="M453.309,-168.324C436.149,-159.664 409.554,-146.242 389.753,-136.249"/>
<polygon fill="midnightblue" stroke="midnightblue" points="391.153,-133.035 380.649,-131.655 387.999,-139.285 391.153,-133.035"/>
</g>
<!-- Node29 -->
<g id="node29" class="node"><title>Node29</title>
<polygon fill="white" stroke="#bfbfbf" points="522.5,-112.5 522.5,-131.5 580.5,-131.5 580.5,-112.5 522.5,-112.5"/>
<text text-anchor="middle" x="551.5" y="-119.5" font-family="Helvetica,sans-Serif" font-size="10.00">QVariant</text>
</g>
<!-- Node28&#45;&gt;Node29 -->
<g id="edge38" class="edge"><title>Node28&#45;&gt;Node29</title>
<path fill="none" stroke="midnightblue" d="M483.514,-168.324C496.032,-159.979 515.182,-147.212 529.971,-137.352"/>
<polygon fill="midnightblue" stroke="midnightblue" points="532.139,-140.114 538.518,-131.655 528.256,-134.289 532.139,-140.114"/>
</g>
<!-- Node30&#45;&gt;Node7 -->
<g id="edge42" class="edge"><title>Node30&#45;&gt;Node7</title>
<path fill="none" stroke="midnightblue" d="M407.378,-336.324C397.974,-328.263 383.756,-316.077 372.431,-306.369"/>
<polygon fill="midnightblue" stroke="midnightblue" points="374.677,-303.684 364.806,-299.834 370.121,-308.999 374.677,-303.684"/>
</g>
<!-- Node30&#45;&gt;Node9 -->
<g id="edge41" class="edge"><title>Node30&#45;&gt;Node9</title>
<path fill="none" stroke="midnightblue" d="M396.672,-336.458C375.216,-327.59 340.86,-313.192 311.5,-300 258.549,-276.208 245.397,-270.012 193.5,-244 159.189,-226.802 120.081,-205.91 95.3519,-192.536"/>
<polygon fill="midnightblue" stroke="midnightblue" points="96.7682,-189.323 86.3089,-187.634 93.4322,-195.477 96.7682,-189.323"/>
</g>
<!-- Node30&#45;&gt;Node11 -->
<g id="edge40" class="edge"><title>Node30&#45;&gt;Node11</title>
<path fill="none" stroke="midnightblue" d="M460.513,-342.769C612.256,-334.334 1113.5,-301.442 1113.5,-235 1113.5,-235 1113.5,-235 1113.5,-177 1113.5,-144.948 1113.5,-107.643 1113.5,-85.7489"/>
<polygon fill="midnightblue" stroke="midnightblue" points="1117,-85.5577 1113.5,-75.5578 1110,-85.5578 1117,-85.5577"/>
</g>
<!-- Node31 -->
<g id="node31" class="node"><title>Node31</title>
<g id="a_node31"><a xlink:href="../../d5/d41/torccentral_8h.html" target="_top" xlink:title="torccentral.h">
<polygon fill="white" stroke="black" points="478,-280.5 478,-299.5 555,-299.5 555,-280.5 478,-280.5"/>
<text text-anchor="middle" x="516.5" y="-287.5" font-family="Helvetica,sans-Serif" font-size="10.00">torccentral.h</text>
</a>
</g>
</g>
<!-- Node30&#45;&gt;Node31 -->
<g id="edge43" class="edge"><title>Node30&#45;&gt;Node31</title>
<path fill="none" stroke="midnightblue" d="M433.406,-336.324C449.138,-327.743 473.442,-314.486 491.709,-304.522"/>
<polygon fill="midnightblue" stroke="midnightblue" points="493.53,-307.516 500.633,-299.655 490.178,-301.37 493.53,-307.516"/>
</g>
<!-- Node31&#45;&gt;Node8 -->
<g id="edge44" class="edge"><title>Node31&#45;&gt;Node8</title>
<path fill="none" stroke="midnightblue" d="M521.204,-280.202C531.634,-259.399 554.272,-206.073 534.5,-168 527.347,-154.226 513.829,-143.783 501.053,-136.441"/>
<polygon fill="midnightblue" stroke="midnightblue" points="502.458,-133.225 491.983,-131.64 499.183,-139.412 502.458,-133.225"/>
</g>
<!-- Node31&#45;&gt;Node9 -->
<g id="edge45" class="edge"><title>Node31&#45;&gt;Node9</title>
<path fill="none" stroke="midnightblue" d="M477.623,-284.827C429.19,-278.937 344.304,-266.33 274.5,-244 254.425,-237.578 251.271,-231.305 231.5,-224 208.913,-215.654 147.963,-199.221 107.873,-188.691"/>
<polygon fill="midnightblue" stroke="midnightblue" points="108.726,-185.296 98.1657,-186.15 106.953,-192.068 108.726,-185.296"/>
</g>
<!-- Node31&#45;&gt;Node10 -->
<g id="edge48" class="edge"><title>Node31&#45;&gt;Node10</title>
<path fill="none" stroke="midnightblue" d="M551.201,-280.444C589.085,-271.102 649.849,-256.119 691.162,-245.933"/>
<polygon fill="midnightblue" stroke="midnightblue" points="692.09,-249.309 700.961,-243.516 690.414,-242.512 692.09,-249.309"/>
</g>
<!-- Node31&#45;&gt;Node24 -->
<g id="edge47" class="edge"><title>Node31&#45;&gt;Node24</title>
<path fill="none" stroke="midnightblue" d="M485.602,-280.444C452.226,-271.201 398.906,-256.436 362.151,-246.257"/>
<polygon fill="midnightblue" stroke="midnightblue" points="362.825,-242.812 352.254,-243.516 360.957,-249.558 362.825,-242.812"/>
</g>
<!-- Node31&#45;&gt;Node29 -->
<g id="edge46" class="edge"><title>Node31&#45;&gt;Node29</title>
<path fill="none" stroke="midnightblue" d="M532.234,-280.236C544.389,-272.481 560.312,-259.929 567.5,-244 582.837,-210.014 569.531,-165.583 559.712,-141.121"/>
<polygon fill="midnightblue" stroke="midnightblue" points="562.825,-139.5 555.686,-131.672 556.386,-142.244 562.825,-139.5"/>
</g>
</g>
</svg>
