<?xml version="1.0" encoding="UTF-8" standalone="no"?>
<!DOCTYPE svg PUBLIC "-//W3C//DTD SVG 1.1//EN"
 "http://www.w3.org/Graphics/SVG/1.1/DTD/svg11.dtd">
<!-- Generated by graphviz version 2.38.0 (20140413.2041)
 -->
<!-- Title: torctime.cpp Pages: 1 -->
<!--zoomable 420 -->
<svg id="main" version="1.1" xmlns="http://www.w3.org/2000/svg" xmlns:xlink="http://www.w3.org/1999/xlink" xml:space="preserve" onload="init(evt)">
<style type="text/css"><![CDATA[
.edge:hover path { stroke: red; }
.edge:hover polygon { stroke: red; fill: red; }
]]></style>
<script type="text/javascript"><![CDATA[
var edges = document.getElementsByTagName('g');
if (edges && edges.length) {
  for (var i=0;i<edges.length;i++) {
    if (edges[i].id.substr(0,4)=='edge') {
      edges[i].setAttribute('class','edge');
    }
  }
}
]]></script>
        <defs>
                <circle id="rim" cx="0" cy="0" r="7"/>
                <circle id="rim2" cx="0" cy="0" r="3.5"/>
                <g id="zoomPlus">
                        <use xlink:href="#rim" fill="#404040">
                                <set attributeName="fill" to="#808080" begin="zoomplus.mouseover" end="zoomplus.mouseout"/>
                        </use>
                        <path d="M-4,0h8M0,-4v8" fill="none" stroke="white" stroke-width="1.5" pointer-events="none"/>
                </g>
                <g id="zoomMin">
                        <use xlink:href="#rim" fill="#404040">
                                <set attributeName="fill" to="#808080" begin="zoomminus.mouseover" end="zoomminus.mouseout"/>
                        </use>
                        <path d="M-4,0h8" fill="none" stroke="white" stroke-width="1.5" pointer-events="none"/>
                </g>
                <g id="dirArrow">
                        <path fill="none" stroke="white" stroke-width="1.5" d="M0,-3.0v7 M-2.5,-0.5L0,-3.0L2.5,-0.5"/>
                </g>
               <g id="resetDef">
                       <use xlink:href="#rim2" fill="#404040">
                               <set attributeName="fill" to="#808080" begin="reset.mouseover" end="reset.mouseout"/>
                       </use>
               </g>
        </defs>

<script type="text/javascript">
var viewWidth = 1395;
var viewHeight = 420;
var sectionId = 'dynsection-0';
</script>
<script xlink:href="../../svgpan.js"/>
<svg id="graph" class="graph">
<g id="viewport">
<title>torctime.cpp</title>
<polygon fill="white" stroke="none" points="-4,4 -4,-416 1390.5,-416 1390.5,4 -4,4"/>
<!-- Node1 -->
<g id="node1" class="node"><title>Node1</title>
<polygon fill="#bfbfbf" stroke="black" points="977,-392.5 977,-411.5 1054,-411.5 1054,-392.5 977,-392.5"/>
<text text-anchor="middle" x="1015.5" y="-399.5" font-family="Helvetica,sans-Serif" font-size="10.00">torctime.cpp</text>
</g>
<!-- Node2 -->
<g id="node2" class="node"><title>Node2</title>
<g id="a_node2"><a xlink:href="../../d1/d78/torctime_8h.html" target="_top" xlink:title="torctime.h">
<polygon fill="white" stroke="black" points="183.5,-280.5 183.5,-299.5 249.5,-299.5 249.5,-280.5 183.5,-280.5"/>
<text text-anchor="middle" x="216.5" y="-287.5" font-family="Helvetica,sans-Serif" font-size="10.00">torctime.h</text>
</a>
</g>
</g>
<!-- Node1&#45;&gt;Node2 -->
<g id="edge1" class="edge"><title>Node1&#45;&gt;Node2</title>
<path fill="none" stroke="midnightblue" d="M976.963,-395.694C843.304,-377.293 400.189,-316.289 259.657,-296.942"/>
<polygon fill="midnightblue" stroke="midnightblue" points="260.069,-293.465 249.685,-295.569 259.114,-300.4 260.069,-293.465"/>
</g>
<!-- Node20 -->
<g id="node20" class="node"><title>Node20</title>
<g id="a_node20"><a xlink:href="../../d4/df9/torclogging_8h.html" target="_top" xlink:title="torclogging.h">
<polygon fill="white" stroke="black" points="1109,-224.5 1109,-243.5 1188,-243.5 1188,-224.5 1109,-224.5"/>
<text text-anchor="middle" x="1148.5" y="-231.5" font-family="Helvetica,sans-Serif" font-size="10.00">torclogging.h</text>
</a>
</g>
</g>
<!-- Node1&#45;&gt;Node20 -->
<g id="edge22" class="edge"><title>Node1&#45;&gt;Node20</title>
<path fill="none" stroke="midnightblue" d="M1024.73,-392.373C1042.39,-375.589 1081.71,-336.944 1109.5,-300 1120.85,-284.915 1131.72,-266.329 1139.09,-252.9"/>
<polygon fill="midnightblue" stroke="midnightblue" points="1142.34,-254.245 1143.99,-243.78 1136.18,-250.931 1142.34,-254.245"/>
</g>
<!-- Node24 -->
<g id="node24" class="node"><title>Node24</title>
<g id="a_node24"><a xlink:href="../../dd/dbd/torclocalcontext_8h.html" target="_top" xlink:title="torclocalcontext.h">
<polygon fill="white" stroke="black" points="795.5,-336.5 795.5,-355.5 897.5,-355.5 897.5,-336.5 795.5,-336.5"/>
<text text-anchor="middle" x="846.5" y="-343.5" font-family="Helvetica,sans-Serif" font-size="10.00">torclocalcontext.h</text>
</a>
</g>
</g>
<!-- Node1&#45;&gt;Node24 -->
<g id="edge26" class="edge"><title>Node1&#45;&gt;Node24</title>
<path fill="none" stroke="midnightblue" d="M988.721,-392.444C960.167,-383.32 914.767,-368.813 882.963,-358.651"/>
<polygon fill="midnightblue" stroke="midnightblue" points="883.744,-355.226 873.153,-355.516 881.614,-361.894 883.744,-355.226"/>
</g>
<!-- Node37 -->
<g id="node37" class="node"><title>Node37</title>
<g id="a_node37"><a xlink:href="../../dd/dd5/torcadminthread_8h.html" target="_top" xlink:title="torcadminthread.h">
<polygon fill="white" stroke="black" points="1212.5,-280.5 1212.5,-299.5 1318.5,-299.5 1318.5,-280.5 1212.5,-280.5"/>
<text text-anchor="middle" x="1265.5" y="-287.5" font-family="Helvetica,sans-Serif" font-size="10.00">torcadminthread.h</text>
</a>
</g>
</g>
<!-- Node1&#45;&gt;Node37 -->
<g id="edge59" class="edge"><title>Node1&#45;&gt;Node37</title>
<path fill="none" stroke="midnightblue" d="M1054.08,-397.459C1092.67,-392.596 1152.7,-381.357 1198.5,-356 1220.54,-343.794 1240.53,-322.437 1252.82,-307.548"/>
<polygon fill="midnightblue" stroke="midnightblue" points="1255.62,-309.646 1259.13,-299.647 1250.15,-305.279 1255.62,-309.646"/>
</g>
<!-- Node3 -->
<g id="node3" class="node"><title>Node3</title>
<polygon fill="white" stroke="#bfbfbf" points="649,-168.5 649,-187.5 704,-187.5 704,-168.5 649,-168.5"/>
<text text-anchor="middle" x="676.5" y="-175.5" font-family="Helvetica,sans-Serif" font-size="10.00">QObject</text>
</g>
<!-- Node2&#45;&gt;Node3 -->
<g id="edge2" class="edge"><title>Node2&#45;&gt;Node3</title>
<path fill="none" stroke="midnightblue" d="M216.215,-280.216C216.278,-265.963 218.691,-237.988 235.5,-224 250.942,-211.15 534.642,-189.32 638.67,-181.712"/>
<polygon fill="midnightblue" stroke="midnightblue" points="639.015,-185.196 648.735,-180.979 638.507,-178.214 639.015,-185.196"/>
</g>
<!-- Node4 -->
<g id="node4" class="node"><title>Node4</title>
<polygon fill="white" stroke="#bfbfbf" points="0,-224.5 0,-243.5 51,-243.5 51,-224.5 0,-224.5"/>
<text text-anchor="middle" x="25.5" y="-231.5" font-family="Helvetica,sans-Serif" font-size="10.00">QTimer</text>
</g>
<!-- Node2&#45;&gt;Node4 -->
<g id="edge3" class="edge"><title>Node2&#45;&gt;Node4</title>
<path fill="none" stroke="midnightblue" d="M186.235,-280.444C152.248,-270.835 97.1455,-255.256 61.113,-245.069"/>
<polygon fill="midnightblue" stroke="midnightblue" points="61.6135,-241.573 51.0385,-242.22 59.7091,-248.309 61.6135,-241.573"/>
</g>
<!-- Node5 -->
<g id="node5" class="node"><title>Node5</title>
<polygon fill="white" stroke="#bfbfbf" points="244.5,-224.5 244.5,-243.5 336.5,-243.5 336.5,-224.5 244.5,-224.5"/>
<text text-anchor="middle" x="290.5" y="-231.5" font-family="Helvetica,sans-Serif" font-size="10.00">QReadWriteLock</text>
</g>
<!-- Node2&#45;&gt;Node5 -->
<g id="edge4" class="edge"><title>Node2&#45;&gt;Node5</title>
<path fill="none" stroke="midnightblue" d="M228.389,-280.324C239.65,-272.107 256.787,-259.602 270.209,-249.807"/>
<polygon fill="midnightblue" stroke="midnightblue" points="272.38,-252.556 278.394,-243.834 268.253,-246.901 272.38,-252.556"/>
</g>
<!-- Node6 -->
<g id="node6" class="node"><title>Node6</title>
<g id="a_node6"><a xlink:href="../../d3/dee/torchttpservice_8h.html" target="_top" xlink:title="http/torchttpservice.h">
<polygon fill="white" stroke="black" points="68.5,-224.5 68.5,-243.5 188.5,-243.5 188.5,-224.5 68.5,-224.5"/>
<text text-anchor="middle" x="128.5" y="-231.5" font-family="Helvetica,sans-Serif" font-size="10.00">http/torchttpservice.h</text>
</a>
</g>
</g>
<!-- Node2&#45;&gt;Node6 -->
<g id="edge5" class="edge"><title>Node2&#45;&gt;Node6</title>
<path fill="none" stroke="midnightblue" d="M202.361,-280.324C188.634,-271.9 167.564,-258.971 151.436,-249.074"/>
<polygon fill="midnightblue" stroke="midnightblue" points="152.957,-245.902 142.604,-243.655 149.296,-251.868 152.957,-245.902"/>
</g>
<!-- Node7 -->
<g id="node7" class="node"><title>Node7</title>
<polygon fill="white" stroke="#bfbfbf" points="182.5,-56.5 182.5,-75.5 226.5,-75.5 226.5,-56.5 182.5,-56.5"/>
<text text-anchor="middle" x="204.5" y="-63.5" font-family="Helvetica,sans-Serif" font-size="10.00">QMap</text>
</g>
<!-- Node6&#45;&gt;Node7 -->
<g id="edge6" class="edge"><title>Node6&#45;&gt;Node7</title>
<path fill="none" stroke="midnightblue" d="M129.611,-224.323C131.435,-211.606 135.67,-187.32 143.5,-168 156.262,-136.512 178.093,-103.43 191.884,-84.0365"/>
<polygon fill="midnightblue" stroke="midnightblue" points="194.903,-85.8348 197.933,-75.6827 189.233,-81.7291 194.903,-85.8348"/>
</g>
<!-- Node8 -->
<g id="node8" class="node"><title>Node8</title>
<polygon fill="white" stroke="#bfbfbf" points="722,-168.5 722,-187.5 775,-187.5 775,-168.5 722,-168.5"/>
<text text-anchor="middle" x="748.5" y="-175.5" font-family="Helvetica,sans-Serif" font-size="10.00">QMutex</text>
</g>
<!-- Node6&#45;&gt;Node8 -->
<g id="edge7" class="edge"><title>Node6&#45;&gt;Node8</title>
<path fill="none" stroke="midnightblue" d="M188.76,-227.84C204.008,-226.56 220.355,-225.208 235.5,-224 444.118,-207.354 500.855,-221.449 711.71,-187.83"/>
<polygon fill="midnightblue" stroke="midnightblue" points="712.553,-191.239 721.868,-186.193 711.439,-184.329 712.553,-191.239"/>
</g>
<!-- Node9 -->
<g id="node9" class="node"><title>Node9</title>
<polygon fill="white" stroke="#bfbfbf" points="17,-168.5 17,-187.5 96,-187.5 96,-168.5 17,-168.5"/>
<text text-anchor="middle" x="56.5" y="-175.5" font-family="Helvetica,sans-Serif" font-size="10.00">QMetaObject</text>
</g>
<!-- Node6&#45;&gt;Node9 -->
<g id="edge8" class="edge"><title>Node6&#45;&gt;Node9</title>
<path fill="none" stroke="midnightblue" d="M116.932,-224.324C106.08,-216.185 89.6193,-203.839 76.6166,-194.087"/>
<polygon fill="midnightblue" stroke="midnightblue" points="78.3786,-191.034 68.2785,-187.834 74.1785,-196.634 78.3786,-191.034"/>
</g>
<!-- Node10 -->
<g id="node10" class="node"><title>Node10</title>
<polygon fill="white" stroke="#bfbfbf" points="153,-168.5 153,-187.5 252,-187.5 252,-168.5 153,-168.5"/>
<text text-anchor="middle" x="202.5" y="-175.5" font-family="Helvetica,sans-Serif" font-size="10.00">QCoreApplication</text>
</g>
<!-- Node6&#45;&gt;Node10 -->
<g id="edge9" class="edge"><title>Node6&#45;&gt;Node10</title>
<path fill="none" stroke="midnightblue" d="M140.389,-224.324C151.65,-216.107 168.787,-203.602 182.209,-193.807"/>
<polygon fill="midnightblue" stroke="midnightblue" points="184.38,-196.556 190.394,-187.834 180.253,-190.901 184.38,-196.556"/>
</g>
<!-- Node11 -->
<g id="node11" class="node"><title>Node11</title>
<g id="a_node11"><a xlink:href="../../d4/d11/torchttphandler_8h.html" target="_top" xlink:title="torchttphandler.h">
<polygon fill="white" stroke="black" points="309,-168.5 309,-187.5 408,-187.5 408,-168.5 309,-168.5"/>
<text text-anchor="middle" x="358.5" y="-175.5" font-family="Helvetica,sans-Serif" font-size="10.00">torchttphandler.h</text>
</a>
</g>
</g>
<!-- Node6&#45;&gt;Node11 -->
<g id="edge10" class="edge"><title>Node6&#45;&gt;Node11</title>
<path fill="none" stroke="midnightblue" d="M164.944,-224.444C204.899,-215.063 269.087,-199.993 312.485,-189.804"/>
<polygon fill="midnightblue" stroke="midnightblue" points="313.291,-193.21 322.226,-187.516 311.691,-186.395 313.291,-193.21"/>
</g>
<!-- Node14 -->
<g id="node14" class="node"><title>Node14</title>
<g id="a_node14"><a xlink:href="../../df/dd7/torchttprequest_8h.html" target="_top" xlink:title="torchttprequest.h">
<polygon fill="white" stroke="black" points="230,-112.5 230,-131.5 331,-131.5 331,-112.5 230,-112.5"/>
<text text-anchor="middle" x="280.5" y="-119.5" font-family="Helvetica,sans-Serif" font-size="10.00">torchttprequest.h</text>
</a>
</g>
</g>
<!-- Node6&#45;&gt;Node14 -->
<g id="edge21" class="edge"><title>Node6&#45;&gt;Node14</title>
<path fill="none" stroke="midnightblue" d="M188.549,-224.859C213.743,-218.605 241.531,-207.548 260.5,-188 272.438,-175.698 277.268,-156.443 279.212,-142.078"/>
<polygon fill="midnightblue" stroke="midnightblue" points="282.724,-142.131 280.234,-131.833 275.759,-141.436 282.724,-142.131"/>
</g>
<!-- Node12 -->
<g id="node12" class="node"><title>Node12</title>
<polygon fill="white" stroke="#bfbfbf" points="447,-56.5 447,-75.5 500,-75.5 500,-56.5 447,-56.5"/>
<text text-anchor="middle" x="473.5" y="-63.5" font-family="Helvetica,sans-Serif" font-size="10.00">QString</text>
</g>
<!-- Node11&#45;&gt;Node12 -->
<g id="edge11" class="edge"><title>Node11&#45;&gt;Node12</title>
<path fill="none" stroke="midnightblue" d="M379.723,-168.491C396.666,-160.885 420.187,-148.408 436.5,-132 449.924,-118.498 460.108,-99.1399 466.36,-85.0628"/>
<polygon fill="midnightblue" stroke="midnightblue" points="469.726,-86.0876 470.364,-75.512 463.27,-83.3816 469.726,-86.0876"/>
</g>
<!-- Node13 -->
<g id="node13" class="node"><title>Node13</title>
<polygon fill="white" stroke="#bfbfbf" points="349.5,-112.5 349.5,-131.5 427.5,-131.5 427.5,-112.5 349.5,-112.5"/>
<text text-anchor="middle" x="388.5" y="-119.5" font-family="Helvetica,sans-Serif" font-size="10.00">QVariantMap</text>
</g>
<!-- Node11&#45;&gt;Node13 -->
<g id="edge12" class="edge"><title>Node11&#45;&gt;Node13</title>
<path fill="none" stroke="midnightblue" d="M363.454,-168.083C367.604,-160.613 373.653,-149.724 378.767,-140.52"/>
<polygon fill="midnightblue" stroke="midnightblue" points="381.841,-142.192 383.638,-131.751 375.722,-138.793 381.841,-142.192"/>
</g>
<!-- Node11&#45;&gt;Node14 -->
<g id="edge13" class="edge"><title>Node11&#45;&gt;Node14</title>
<path fill="none" stroke="midnightblue" d="M345.968,-168.324C333.914,-159.979 315.473,-147.212 301.231,-137.352"/>
<polygon fill="midnightblue" stroke="midnightblue" points="303.215,-134.469 293.001,-131.655 299.231,-140.224 303.215,-134.469"/>
</g>
<!-- Node14&#45;&gt;Node7 -->
<g id="edge14" class="edge"><title>Node14&#45;&gt;Node7</title>
<path fill="none" stroke="midnightblue" d="M268.289,-112.324C256.724,-104.107 239.125,-91.6017 225.339,-81.8069"/>
<polygon fill="midnightblue" stroke="midnightblue" points="227.112,-78.7729 216.933,-75.8339 223.057,-84.4791 227.112,-78.7729"/>
</g>
<!-- Node14&#45;&gt;Node12 -->
<g id="edge16" class="edge"><title>Node14&#45;&gt;Node12</title>
<path fill="none" stroke="midnightblue" d="M311.081,-112.444C345.28,-102.875 400.637,-87.3864 437.055,-77.1971"/>
<polygon fill="midnightblue" stroke="midnightblue" points="438.104,-80.5381 446.791,-74.473 436.218,-73.797 438.104,-80.5381"/>
</g>
<!-- Node15 -->
<g id="node15" class="node"><title>Node15</title>
<polygon fill="white" stroke="#bfbfbf" points="123,-56.5 123,-75.5 164,-75.5 164,-56.5 123,-56.5"/>
<text text-anchor="middle" x="143.5" y="-63.5" font-family="Helvetica,sans-Serif" font-size="10.00">QPair</text>
</g>
<!-- Node14&#45;&gt;Node15 -->
<g id="edge15" class="edge"><title>Node14&#45;&gt;Node15</title>
<path fill="none" stroke="midnightblue" d="M258.792,-112.444C235.879,-103.412 199.586,-89.1067 173.846,-78.9612"/>
<polygon fill="midnightblue" stroke="midnightblue" points="174.797,-75.5738 164.21,-75.1629 172.23,-82.0862 174.797,-75.5738"/>
</g>
<!-- Node16 -->
<g id="node16" class="node"><title>Node16</title>
<polygon fill="white" stroke="#bfbfbf" points="245,-56.5 245,-75.5 316,-75.5 316,-56.5 245,-56.5"/>
<text text-anchor="middle" x="280.5" y="-63.5" font-family="Helvetica,sans-Serif" font-size="10.00">QDateTime</text>
</g>
<!-- Node14&#45;&gt;Node16 -->
<g id="edge17" class="edge"><title>Node14&#45;&gt;Node16</title>
<path fill="none" stroke="midnightblue" d="M280.5,-112.083C280.5,-105.006 280.5,-94.8611 280.5,-85.9865"/>
<polygon fill="midnightblue" stroke="midnightblue" points="284,-85.751 280.5,-75.7511 277,-85.7511 284,-85.751"/>
</g>
<!-- Node17 -->
<g id="node17" class="node"><title>Node17</title>
<g id="a_node17"><a xlink:href="../../de/de6/torchttpreader_8h.html" target="_top" xlink:title="torchttpreader.h">
<polygon fill="white" stroke="black" points="334,-56.5 334,-75.5 429,-75.5 429,-56.5 334,-56.5"/>
<text text-anchor="middle" x="381.5" y="-63.5" font-family="Helvetica,sans-Serif" font-size="10.00">torchttpreader.h</text>
</a>
</g>
</g>
<!-- Node14&#45;&gt;Node17 -->
<g id="edge18" class="edge"><title>Node14&#45;&gt;Node17</title>
<path fill="none" stroke="midnightblue" d="M296.727,-112.324C312.851,-103.703 337.8,-90.3643 356.464,-80.3855"/>
<polygon fill="midnightblue" stroke="midnightblue" points="358.144,-83.456 365.313,-75.6545 354.844,-77.283 358.144,-83.456"/>
</g>
<!-- Node18 -->
<g id="node18" class="node"><title>Node18</title>
<polygon fill="white" stroke="#bfbfbf" points="301,-0.5 301,-19.5 372,-19.5 372,-0.5 301,-0.5"/>
<text text-anchor="middle" x="336.5" y="-7.5" font-family="Helvetica,sans-Serif" font-size="10.00">QByteArray</text>
</g>
<!-- Node17&#45;&gt;Node18 -->
<g id="edge19" class="edge"><title>Node17&#45;&gt;Node18</title>
<path fill="none" stroke="midnightblue" d="M374.069,-56.083C367.647,-48.3768 358.194,-37.0333 350.378,-27.6531"/>
<polygon fill="midnightblue" stroke="midnightblue" points="352.883,-25.1927 343.793,-19.7511 347.506,-29.674 352.883,-25.1927"/>
</g>
<!-- Node19 -->
<g id="node19" class="node"><title>Node19</title>
<polygon fill="white" stroke="#bfbfbf" points="390.5,-0.5 390.5,-19.5 462.5,-19.5 462.5,-0.5 390.5,-0.5"/>
<text text-anchor="middle" x="426.5" y="-7.5" font-family="Helvetica,sans-Serif" font-size="10.00">QTcpSocket</text>
</g>
<!-- Node17&#45;&gt;Node19 -->
<g id="edge20" class="edge"><title>Node17&#45;&gt;Node19</title>
<path fill="none" stroke="midnightblue" d="M388.931,-56.083C395.353,-48.3768 404.806,-37.0333 412.622,-27.6531"/>
<polygon fill="midnightblue" stroke="midnightblue" points="415.494,-29.674 419.207,-19.7511 410.117,-25.1927 415.494,-29.674"/>
</g>
<!-- Node21 -->
<g id="node21" class="node"><title>Node21</title>
<polygon fill="white" stroke="#bfbfbf" points="1095,-168.5 1095,-187.5 1148,-187.5 1148,-168.5 1095,-168.5"/>
<text text-anchor="middle" x="1121.5" y="-175.5" font-family="Helvetica,sans-Serif" font-size="10.00">stdint.h</text>
</g>
<!-- Node20&#45;&gt;Node21 -->
<g id="edge23" class="edge"><title>Node20&#45;&gt;Node21</title>
<path fill="none" stroke="midnightblue" d="M1144.04,-224.083C1140.35,-216.691 1134.98,-205.953 1130.41,-196.811"/>
<polygon fill="midnightblue" stroke="midnightblue" points="1133.48,-195.13 1125.88,-187.751 1127.22,-198.261 1133.48,-195.13"/>
</g>
<!-- Node22 -->
<g id="node22" class="node"><title>Node22</title>
<polygon fill="white" stroke="#bfbfbf" points="1166,-168.5 1166,-187.5 1217,-187.5 1217,-168.5 1166,-168.5"/>
<text text-anchor="middle" x="1191.5" y="-175.5" font-family="Helvetica,sans-Serif" font-size="10.00">errno.h</text>
</g>
<!-- Node20&#45;&gt;Node22 -->
<g id="edge24" class="edge"><title>Node20&#45;&gt;Node22</title>
<path fill="none" stroke="midnightblue" d="M1155.6,-224.083C1161.74,-216.377 1170.77,-205.033 1178.24,-195.653"/>
<polygon fill="midnightblue" stroke="midnightblue" points="1181.04,-197.754 1184.53,-187.751 1175.56,-193.394 1181.04,-197.754"/>
</g>
<!-- Node23 -->
<g id="node23" class="node"><title>Node23</title>
<g id="a_node23"><a xlink:href="../../d1/d37/torcloggingdefs_8h.html" target="_top" xlink:title="torcloggingdefs.h">
<polygon fill="white" stroke="black" points="978,-168.5 978,-187.5 1077,-187.5 1077,-168.5 978,-168.5"/>
<text text-anchor="middle" x="1027.5" y="-175.5" font-family="Helvetica,sans-Serif" font-size="10.00">torcloggingdefs.h</text>
</a>
</g>
</g>
<!-- Node20&#45;&gt;Node23 -->
<g id="edge25" class="edge"><title>Node20&#45;&gt;Node23</title>
<path fill="none" stroke="midnightblue" d="M1129.33,-224.444C1109.59,-215.636 1078.61,-201.812 1056.01,-191.722"/>
<polygon fill="midnightblue" stroke="midnightblue" points="1057.14,-188.396 1046.58,-187.516 1054.29,-194.788 1057.14,-188.396"/>
</g>
<!-- Node24&#45;&gt;Node3 -->
<g id="edge27" class="edge"><title>Node24&#45;&gt;Node3</title>
<path fill="none" stroke="midnightblue" d="M795.47,-342.377C684.838,-335.436 429.165,-312.188 383.5,-244 378.554,-236.614 377.711,-230.746 383.5,-224 399.945,-204.837 563.396,-188.607 638.776,-182.076"/>
<polygon fill="midnightblue" stroke="midnightblue" points="639.137,-185.558 648.803,-181.22 638.542,-178.584 639.137,-185.558"/>
</g>
<!-- Node24&#45;&gt;Node5 -->
<g id="edge29" class="edge"><title>Node24&#45;&gt;Node5</title>
<path fill="none" stroke="midnightblue" d="M795.158,-344.957C684.579,-344.129 427.669,-338.034 350.5,-300 329.054,-289.43 311.502,-267.676 301.039,-252.25"/>
<polygon fill="midnightblue" stroke="midnightblue" points="303.833,-250.125 295.47,-243.62 297.951,-253.92 303.833,-250.125"/>
</g>
<!-- Node24&#45;&gt;Node8 -->
<g id="edge30" class="edge"><title>Node24&#45;&gt;Node8</title>
<path fill="none" stroke="midnightblue" d="M847.518,-336.469C849.579,-315.337 852.15,-259.695 827.5,-224 817.175,-209.049 800.163,-198.446 784.565,-191.302"/>
<polygon fill="midnightblue" stroke="midnightblue" points="785.681,-187.974 775.108,-187.294 782.949,-194.419 785.681,-187.974"/>
</g>
<!-- Node24&#45;&gt;Node12 -->
<g id="edge28" class="edge"><title>Node24&#45;&gt;Node12</title>
<path fill="none" stroke="midnightblue" d="M897.545,-342.328C951.743,-338.117 1039.12,-327.353 1109.5,-300 1182.3,-271.707 1276.92,-226.787 1225.5,-168 1177.7,-113.347 654.426,-77.9163 510.149,-69.1369"/>
<polygon fill="midnightblue" stroke="midnightblue" points="510.235,-65.6359 500.042,-68.528 509.814,-72.6232 510.235,-65.6359"/>
</g>
<!-- Node25 -->
<g id="node25" class="node"><title>Node25</title>
<g id="a_node25"><a xlink:href="../../db/db2/torclocaldefs_8h.html" target="_top" xlink:title="torclocaldefs.h">
<polygon fill="white" stroke="black" points="632.5,-280.5 632.5,-299.5 718.5,-299.5 718.5,-280.5 632.5,-280.5"/>
<text text-anchor="middle" x="675.5" y="-287.5" font-family="Helvetica,sans-Serif" font-size="10.00">torclocaldefs.h</text>
</a>
</g>
</g>
<!-- Node24&#45;&gt;Node25 -->
<g id="edge31" class="edge"><title>Node24&#45;&gt;Node25</title>
<path fill="none" stroke="midnightblue" d="M819.405,-336.444C790.512,-327.32 744.575,-312.813 712.395,-302.651"/>
<polygon fill="midnightblue" stroke="midnightblue" points="713.059,-299.19 702.469,-299.516 710.951,-305.865 713.059,-299.19"/>
</g>
<!-- Node26 -->
<g id="node26" class="node"><title>Node26</title>
<g id="a_node26"><a xlink:href="../../db/df5/torcsetting_8h.html" target="_top" xlink:title="torcsetting.h">
<polygon fill="white" stroke="black" points="529,-280.5 529,-299.5 606,-299.5 606,-280.5 529,-280.5"/>
<text text-anchor="middle" x="567.5" y="-287.5" font-family="Helvetica,sans-Serif" font-size="10.00">torcsetting.h</text>
</a>
</g>
</g>
<!-- Node24&#45;&gt;Node26 -->
<g id="edge32" class="edge"><title>Node24&#45;&gt;Node26</title>
<path fill="none" stroke="midnightblue" d="M802.292,-336.444C751.586,-326.63 668.706,-310.588 616.19,-300.424"/>
<polygon fill="midnightblue" stroke="midnightblue" points="616.593,-296.937 606.111,-298.473 615.263,-303.81 616.593,-296.937"/>
</g>
<!-- Node32 -->
<g id="node32" class="node"><title>Node32</title>
<g id="a_node32"><a xlink:href="../../d6/d94/torcobservable_8h.html" target="_top" xlink:title="torcobservable.h">
<polygon fill="white" stroke="black" points="875,-280.5 875,-299.5 972,-299.5 972,-280.5 875,-280.5"/>
<text text-anchor="middle" x="923.5" y="-287.5" font-family="Helvetica,sans-Serif" font-size="10.00">torcobservable.h</text>
</a>
</g>
</g>
<!-- Node24&#45;&gt;Node32 -->
<g id="edge41" class="edge"><title>Node24&#45;&gt;Node32</title>
<path fill="none" stroke="midnightblue" d="M858.871,-336.324C870.658,-328.058 888.632,-315.453 902.636,-305.632"/>
<polygon fill="midnightblue" stroke="midnightblue" points="904.982,-308.262 911.159,-299.655 900.962,-302.531 904.982,-308.262"/>
</g>
<!-- Node35 -->
<g id="node35" class="node"><title>Node35</title>
<g id="a_node35"><a xlink:href="../../d7/d70/torcsqlitedb_8h.html" target="_top" xlink:title="torcsqlitedb.h">
<polygon fill="white" stroke="black" points="736.5,-280.5 736.5,-299.5 818.5,-299.5 818.5,-280.5 736.5,-280.5"/>
<text text-anchor="middle" x="777.5" y="-287.5" font-family="Helvetica,sans-Serif" font-size="10.00">torcsqlitedb.h</text>
</a>
</g>
</g>
<!-- Node24&#45;&gt;Node35 -->
<g id="edge46" class="edge"><title>Node24&#45;&gt;Node35</title>
<path fill="none" stroke="midnightblue" d="M835.414,-336.324C825.014,-328.185 809.239,-315.839 796.778,-306.087"/>
<polygon fill="midnightblue" stroke="midnightblue" points="798.82,-303.241 788.788,-299.834 794.506,-308.753 798.82,-303.241"/>
</g>
<!-- Node24&#45;&gt;Node37 -->
<g id="edge50" class="edge"><title>Node24&#45;&gt;Node37</title>
<path fill="none" stroke="midnightblue" d="M897.878,-338.379C974.656,-328.484 1119.17,-309.858 1202.31,-299.144"/>
<polygon fill="midnightblue" stroke="midnightblue" points="1202.91,-302.596 1212.38,-297.846 1202.01,-295.653 1202.91,-302.596"/>
</g>
<!-- Node41 -->
<g id="node41" class="node"><title>Node41</title>
<g id="a_node41"><a xlink:href="../../db/d41/torccommandline_8h.html" target="_top" xlink:title="torccommandline.h">
<polygon fill="white" stroke="black" points="990.5,-280.5 990.5,-299.5 1100.5,-299.5 1100.5,-280.5 990.5,-280.5"/>
<text text-anchor="middle" x="1045.5" y="-287.5" font-family="Helvetica,sans-Serif" font-size="10.00">torccommandline.h</text>
</a>
</g>
</g>
<!-- Node24&#45;&gt;Node41 -->
<g id="edge54" class="edge"><title>Node24&#45;&gt;Node41</title>
<path fill="none" stroke="midnightblue" d="M878.032,-336.444C912.092,-327.201 966.506,-312.436 1004.02,-302.257"/>
<polygon fill="midnightblue" stroke="midnightblue" points="1005.38,-305.513 1014.12,-299.516 1003.55,-298.758 1005.38,-305.513"/>
</g>
<!-- Node26&#45;&gt;Node3 -->
<g id="edge35" class="edge"><title>Node26&#45;&gt;Node3</title>
<path fill="none" stroke="midnightblue" d="M606.151,-283.981C630.784,-278.56 660.904,-267.312 676.5,-244 685.511,-230.531 684.412,-211.718 681.711,-197.796"/>
<polygon fill="midnightblue" stroke="midnightblue" points="685.072,-196.8 679.363,-187.875 678.26,-198.412 685.072,-196.8"/>
</g>
<!-- Node26&#45;&gt;Node5 -->
<g id="edge34" class="edge"><title>Node26&#45;&gt;Node5</title>
<path fill="none" stroke="midnightblue" d="M528.984,-281.492C480.943,-272.126 398.535,-256.061 344.284,-245.485"/>
<polygon fill="midnightblue" stroke="midnightblue" points="344.647,-241.99 334.162,-243.512 343.308,-248.861 344.647,-241.99"/>
</g>
<!-- Node26&#45;&gt;Node6 -->
<g id="edge38" class="edge"><title>Node26&#45;&gt;Node6</title>
<path fill="none" stroke="midnightblue" d="M528.926,-284.255C454.941,-275.154 292.147,-255.13 198.508,-243.612"/>
<polygon fill="midnightblue" stroke="midnightblue" points="198.908,-240.134 188.556,-242.387 198.053,-247.082 198.908,-240.134"/>
</g>
<!-- Node27 -->
<g id="node27" class="node"><title>Node27</title>
<polygon fill="white" stroke="#bfbfbf" points="540,-224.5 540,-243.5 581,-243.5 581,-224.5 540,-224.5"/>
<text text-anchor="middle" x="560.5" y="-231.5" font-family="Helvetica,sans-Serif" font-size="10.00">QSet</text>
</g>
<!-- Node26&#45;&gt;Node27 -->
<g id="edge33" class="edge"><title>Node26&#45;&gt;Node27</title>
<path fill="none" stroke="midnightblue" d="M566.344,-280.083C565.416,-272.927 564.082,-262.635 562.923,-253.691"/>
<polygon fill="midnightblue" stroke="midnightblue" points="566.391,-253.218 561.634,-243.751 559.449,-254.118 566.391,-253.218"/>
</g>
<!-- Node28 -->
<g id="node28" class="node"><title>Node28</title>
<polygon fill="white" stroke="#bfbfbf" points="901.5,-168.5 901.5,-187.5 959.5,-187.5 959.5,-168.5 901.5,-168.5"/>
<text text-anchor="middle" x="930.5" y="-175.5" font-family="Helvetica,sans-Serif" font-size="10.00">QVariant</text>
</g>
<!-- Node26&#45;&gt;Node28 -->
<g id="edge36" class="edge"><title>Node26&#45;&gt;Node28</title>
<path fill="none" stroke="midnightblue" d="M606.021,-282.544C611.87,-281.641 617.84,-280.762 623.5,-280 696.828,-270.127 905.091,-299.074 954.5,-244 966.74,-230.356 955.907,-209.926 945.13,-195.622"/>
<polygon fill="midnightblue" stroke="midnightblue" points="947.656,-193.18 938.635,-187.623 942.222,-197.592 947.656,-193.18"/>
</g>
<!-- Node29 -->
<g id="node29" class="node"><title>Node29</title>
<polygon fill="white" stroke="#bfbfbf" points="599,-224.5 599,-243.5 668,-243.5 668,-224.5 599,-224.5"/>
<text text-anchor="middle" x="633.5" y="-231.5" font-family="Helvetica,sans-Serif" font-size="10.00">QStringList</text>
</g>
<!-- Node26&#45;&gt;Node29 -->
<g id="edge37" class="edge"><title>Node26&#45;&gt;Node29</title>
<path fill="none" stroke="midnightblue" d="M578.104,-280.324C587.956,-272.263 602.851,-260.077 614.715,-250.369"/>
<polygon fill="midnightblue" stroke="midnightblue" points="617.18,-252.875 622.703,-243.834 612.747,-247.457 617.18,-252.875"/>
</g>
<!-- Node30 -->
<g id="node30" class="node"><title>Node30</title>
<g id="a_node30"><a xlink:href="../../d8/dfe/torcreferencecounted_8h.html" target="_top" xlink:title="torcreferencecounted.h">
<polygon fill="white" stroke="black" points="393,-224.5 393,-243.5 522,-243.5 522,-224.5 393,-224.5"/>
<text text-anchor="middle" x="457.5" y="-231.5" font-family="Helvetica,sans-Serif" font-size="10.00">torcreferencecounted.h</text>
</a>
</g>
</g>
<!-- Node26&#45;&gt;Node30 -->
<g id="edge39" class="edge"><title>Node26&#45;&gt;Node30</title>
<path fill="none" stroke="midnightblue" d="M549.827,-280.324C532.106,-271.625 504.597,-258.12 484.212,-248.113"/>
<polygon fill="midnightblue" stroke="midnightblue" points="485.649,-244.919 475.13,-243.655 482.564,-251.203 485.649,-244.919"/>
</g>
<!-- Node31 -->
<g id="node31" class="node"><title>Node31</title>
<polygon fill="white" stroke="#bfbfbf" points="426.5,-168.5 426.5,-187.5 496.5,-187.5 496.5,-168.5 426.5,-168.5"/>
<text text-anchor="middle" x="461.5" y="-175.5" font-family="Helvetica,sans-Serif" font-size="10.00">QAtomicInt</text>
</g>
<!-- Node30&#45;&gt;Node31 -->
<g id="edge40" class="edge"><title>Node30&#45;&gt;Node31</title>
<path fill="none" stroke="midnightblue" d="M458.161,-224.083C458.685,-217.006 459.436,-206.861 460.094,-197.986"/>
<polygon fill="midnightblue" stroke="midnightblue" points="463.603,-197.982 460.852,-187.751 456.623,-197.465 463.603,-197.982"/>
</g>
<!-- Node33 -->
<g id="node33" class="node"><title>Node33</title>
<g id="a_node33"><a xlink:href="../../d3/d66/torcevent_8h.html" target="_top" xlink:title="torcevent.h">
<polygon fill="white" stroke="black" points="875,-224.5 875,-243.5 946,-243.5 946,-224.5 875,-224.5"/>
<text text-anchor="middle" x="910.5" y="-231.5" font-family="Helvetica,sans-Serif" font-size="10.00">torcevent.h</text>
</a>
</g>
</g>
<!-- Node32&#45;&gt;Node33 -->
<g id="edge42" class="edge"><title>Node32&#45;&gt;Node33</title>
<path fill="none" stroke="midnightblue" d="M921.353,-280.083C919.631,-272.927 917.153,-262.635 915,-253.691"/>
<polygon fill="midnightblue" stroke="midnightblue" points="918.35,-252.654 912.607,-243.751 911.545,-254.293 918.35,-252.654"/>
</g>
<!-- Node33&#45;&gt;Node7 -->
<g id="edge43" class="edge"><title>Node33&#45;&gt;Node7</title>
<path fill="none" stroke="midnightblue" d="M893.627,-224.379C875.91,-215.325 847.243,-200.671 822.5,-188 805.162,-179.121 801.99,-174.129 783.5,-168 552.171,-91.3164 478.218,-129.913 236.547,-76.0116"/>
<polygon fill="midnightblue" stroke="midnightblue" points="237.296,-72.5927 226.77,-73.8013 235.752,-79.4204 237.296,-72.5927"/>
</g>
<!-- Node33&#45;&gt;Node28 -->
<g id="edge44" class="edge"><title>Node33&#45;&gt;Node28</title>
<path fill="none" stroke="midnightblue" d="M913.803,-224.083C916.482,-216.849 920.349,-206.409 923.686,-197.397"/>
<polygon fill="midnightblue" stroke="midnightblue" points="927.068,-198.344 927.259,-187.751 920.504,-195.913 927.068,-198.344"/>
</g>
<!-- Node34 -->
<g id="node34" class="node"><title>Node34</title>
<polygon fill="white" stroke="#bfbfbf" points="832,-168.5 832,-187.5 883,-187.5 883,-168.5 832,-168.5"/>
<text text-anchor="middle" x="857.5" y="-175.5" font-family="Helvetica,sans-Serif" font-size="10.00">QEvent</text>
</g>
<!-- Node33&#45;&gt;Node34 -->
<g id="edge45" class="edge"><title>Node33&#45;&gt;Node34</title>
<path fill="none" stroke="midnightblue" d="M901.748,-224.083C894.03,-216.22 882.595,-204.569 873.283,-195.081"/>
<polygon fill="midnightblue" stroke="midnightblue" points="875.592,-192.436 866.089,-187.751 870.596,-197.34 875.592,-192.436"/>
</g>
<!-- Node36 -->
<g id="node36" class="node"><title>Node36</title>
<g id="a_node36"><a xlink:href="../../d4/da3/torcdb_8h.html" target="_top" xlink:title="torcdb.h">
<polygon fill="white" stroke="black" points="762.5,-224.5 762.5,-243.5 818.5,-243.5 818.5,-224.5 762.5,-224.5"/>
<text text-anchor="middle" x="790.5" y="-231.5" font-family="Helvetica,sans-Serif" font-size="10.00">torcdb.h</text>
</a>
</g>
</g>
<!-- Node35&#45;&gt;Node36 -->
<g id="edge47" class="edge"><title>Node35&#45;&gt;Node36</title>
<path fill="none" stroke="midnightblue" d="M779.647,-280.083C781.369,-272.927 783.847,-262.635 786,-253.691"/>
<polygon fill="midnightblue" stroke="midnightblue" points="789.455,-254.293 788.393,-243.751 782.65,-252.654 789.455,-254.293"/>
</g>
<!-- Node36&#45;&gt;Node3 -->
<g id="edge48" class="edge"><title>Node36&#45;&gt;Node3</title>
<path fill="none" stroke="midnightblue" d="M772.436,-224.444C753.925,-215.675 724.919,-201.935 703.645,-191.858"/>
<polygon fill="midnightblue" stroke="midnightblue" points="705.015,-188.634 694.479,-187.516 702.018,-194.96 705.015,-188.634"/>
</g>
<!-- Node36&#45;&gt;Node8 -->
<g id="edge49" class="edge"><title>Node36&#45;&gt;Node8</title>
<path fill="none" stroke="midnightblue" d="M783.565,-224.083C777.571,-216.377 768.748,-205.033 761.452,-195.653"/>
<polygon fill="midnightblue" stroke="midnightblue" points="764.209,-193.496 755.306,-187.751 758.683,-197.793 764.209,-193.496"/>
</g>
<!-- Node38 -->
<g id="node38" class="node"><title>Node38</title>
<polygon fill="white" stroke="#bfbfbf" points="1245,-224.5 1245,-243.5 1286,-243.5 1286,-224.5 1245,-224.5"/>
<text text-anchor="middle" x="1265.5" y="-231.5" font-family="Helvetica,sans-Serif" font-size="10.00">QList</text>
</g>
<!-- Node37&#45;&gt;Node38 -->
<g id="edge51" class="edge"><title>Node37&#45;&gt;Node38</title>
<path fill="none" stroke="midnightblue" d="M1265.5,-280.083C1265.5,-273.006 1265.5,-262.861 1265.5,-253.986"/>
<polygon fill="midnightblue" stroke="midnightblue" points="1269,-253.751 1265.5,-243.751 1262,-253.751 1269,-253.751"/>
</g>
<!-- Node39 -->
<g id="node39" class="node"><title>Node39</title>
<g id="a_node39"><a xlink:href="../../dd/db0/torcqthread_8h.html" target="_top" xlink:title="torcqthread.h">
<polygon fill="white" stroke="black" points="1304.5,-224.5 1304.5,-243.5 1386.5,-243.5 1386.5,-224.5 1304.5,-224.5"/>
<text text-anchor="middle" x="1345.5" y="-231.5" font-family="Helvetica,sans-Serif" font-size="10.00">torcqthread.h</text>
</a>
</g>
</g>
<!-- Node37&#45;&gt;Node39 -->
<g id="edge52" class="edge"><title>Node37&#45;&gt;Node39</title>
<path fill="none" stroke="midnightblue" d="M1278.35,-280.324C1290.72,-271.979 1309.63,-259.212 1324.24,-249.352"/>
<polygon fill="midnightblue" stroke="midnightblue" points="1326.35,-252.15 1332.68,-243.655 1322.43,-246.348 1326.35,-252.15"/>
</g>
<!-- Node40 -->
<g id="node40" class="node"><title>Node40</title>
<polygon fill="white" stroke="#bfbfbf" points="1317,-168.5 1317,-187.5 1374,-187.5 1374,-168.5 1317,-168.5"/>
<text text-anchor="middle" x="1345.5" y="-175.5" font-family="Helvetica,sans-Serif" font-size="10.00">QThread</text>
</g>
<!-- Node39&#45;&gt;Node40 -->
<g id="edge53" class="edge"><title>Node39&#45;&gt;Node40</title>
<path fill="none" stroke="midnightblue" d="M1345.5,-224.083C1345.5,-217.006 1345.5,-206.861 1345.5,-197.986"/>
<polygon fill="midnightblue" stroke="midnightblue" points="1349,-197.751 1345.5,-187.751 1342,-197.751 1349,-197.751"/>
</g>
<!-- Node41&#45;&gt;Node3 -->
<g id="edge55" class="edge"><title>Node41&#45;&gt;Node3</title>
<path fill="none" stroke="midnightblue" d="M990.415,-281.295C908.803,-269.766 764.18,-248.859 753.5,-244 728.51,-232.63 705.222,-210.772 690.941,-195.559"/>
<polygon fill="midnightblue" stroke="midnightblue" points="693.295,-192.946 683.98,-187.899 688.115,-197.654 693.295,-192.946"/>
</g>
<!-- Node41&#45;&gt;Node20 -->
<g id="edge58" class="edge"><title>Node41&#45;&gt;Node20</title>
<path fill="none" stroke="midnightblue" d="M1062.05,-280.324C1078.49,-271.703 1103.93,-258.364 1122.97,-248.386"/>
<polygon fill="midnightblue" stroke="midnightblue" points="1124.76,-251.398 1131.99,-243.655 1121.51,-245.198 1124.76,-251.398"/>
</g>
<!-- Node41&#45;&gt;Node28 -->
<g id="edge56" class="edge"><title>Node41&#45;&gt;Node28</title>
<path fill="none" stroke="midnightblue" d="M1051.6,-280.15C1059.99,-266.779 1072.73,-241.17 1060.5,-224 1054.98,-216.242 1005.87,-200.682 969.633,-190.054"/>
<polygon fill="midnightblue" stroke="midnightblue" points="970.38,-186.627 959.801,-187.198 968.427,-193.349 970.38,-186.627"/>
</g>
<!-- Node42 -->
<g id="node42" class="node"><title>Node42</title>
<polygon fill="white" stroke="#bfbfbf" points="1003,-224.5 1003,-243.5 1052,-243.5 1052,-224.5 1003,-224.5"/>
<text text-anchor="middle" x="1027.5" y="-231.5" font-family="Helvetica,sans-Serif" font-size="10.00">QHash</text>
</g>
<!-- Node41&#45;&gt;Node42 -->
<g id="edge57" class="edge"><title>Node41&#45;&gt;Node42</title>
<path fill="none" stroke="midnightblue" d="M1042.53,-280.083C1040.12,-272.849 1036.64,-262.409 1033.63,-253.397"/>
<polygon fill="midnightblue" stroke="midnightblue" points="1036.9,-252.131 1030.42,-243.751 1030.26,-254.345 1036.9,-252.131"/>
</g>
</g>
</svg>
        <g id="navigator" transform="translate(0 0)" fill="#404254">
                <rect fill="#f2f5e9" fill-opacity="0.5" stroke="#606060" stroke-width=".5" x="0" y="0" width="60" height="60"/>
                <use id="zoomplus" xlink:href="#zoomPlus" x="17" y="9" onmousedown="handleZoom(evt,'in')"/>
                <use id="zoomminus" xlink:href="#zoomMin" x="42" y="9" onmousedown="handleZoom(evt,'out')"/>
                <use id="reset" xlink:href="#resetDef" x="30" y="36" onmousedown="handleReset()"/>
                <g id="arrowUp" xlink:href="#dirArrow" transform="translate(30 24)" onmousedown="handlePan(0,-1)">
                  <use xlink:href="#rim" fill="#404040">
                        <set attributeName="fill" to="#808080" begin="arrowUp.mouseover" end="arrowUp.mouseout"/>
                  </use>
                  <path fill="none" stroke="white" stroke-width="1.5" d="M0,-3.0v7 M-2.5,-0.5L0,-3.0L2.5,-0.5"/>
                </g>
                <g id="arrowRight" xlink:href="#dirArrow" transform="rotate(90) translate(36 -43)" onmousedown="handlePan(1,0)">
                  <use xlink:href="#rim" fill="#404040">
                        <set attributeName="fill" to="#808080" begin="arrowRight.mouseover" end="arrowRight.mouseout"/>
                  </use>
                  <path fill="none" stroke="white" stroke-width="1.5" d="M0,-3.0v7 M-2.5,-0.5L0,-3.0L2.5,-0.5"/>
                </g>
                <g id="arrowDown" xlink:href="#dirArrow" transform="rotate(180) translate(-30 -48)" onmousedown="handlePan(0,1)">
                  <use xlink:href="#rim" fill="#404040">
                        <set attributeName="fill" to="#808080" begin="arrowDown.mouseover" end="arrowDown.mouseout"/>
                  </use>
                  <path fill="none" stroke="white" stroke-width="1.5" d="M0,-3.0v7 M-2.5,-0.5L0,-3.0L2.5,-0.5"/>
                </g>
                <g id="arrowLeft" xlink:href="#dirArrow" transform="rotate(270) translate(-36 17)" onmousedown="handlePan(-1,0)">
                  <use xlink:href="#rim" fill="#404040">
                        <set attributeName="fill" to="#808080" begin="arrowLeft.mouseover" end="arrowLeft.mouseout"/>
                  </use>
                  <path fill="none" stroke="white" stroke-width="1.5" d="M0,-3.0v7 M-2.5,-0.5L0,-3.0L2.5,-0.5"/>
                </g>
        </g>
        <svg viewBox="0 0 15 15" width="100%" height="30px" preserveAspectRatio="xMaxYMin meet">
         <g id="arrow_out" transform="scale(0.3 0.3)">
          <a xlink:href="torctime_8cpp__incl_org.svg" target="_base">
           <rect id="button" ry="5" rx="5" y="6" x="6" height="38" width="38"
                fill="#f2f5e9" fill-opacity="0.5" stroke="#606060" stroke-width="1.0"/>
           <path id="arrow"
             d="M 11.500037,31.436501 C 11.940474,20.09759 22.043105,11.32322 32.158766,21.979434 L 37.068811,17.246167 C 37.068811,17.246167 37.088388,32 37.088388,32 L 22.160133,31.978069 C 22.160133,31.978069 26.997745,27.140456 26.997745,27.140456 C 18.528582,18.264221 13.291696,25.230495 11.500037,31.436501 z"
             style="fill:#404040;"/>
          </a>
         </g>
        </svg>
</svg>
