<?xml version="1.0" encoding="UTF-8" standalone="no"?>
<!DOCTYPE svg PUBLIC "-//W3C//DTD SVG 1.1//EN"
 "http://www.w3.org/Graphics/SVG/1.1/DTD/svg11.dtd">
<!-- Generated by graphviz version 2.38.0 (20140413.2041)
 -->
<!-- Title: torctriggernotification.cpp Pages: 1 -->
<!--zoomable 364 -->
<svg id="main" version="1.1" xmlns="http://www.w3.org/2000/svg" xmlns:xlink="http://www.w3.org/1999/xlink" xml:space="preserve" onload="init(evt)">
<style type="text/css"><![CDATA[
.edge:hover path { stroke: red; }
.edge:hover polygon { stroke: red; fill: red; }
]]></style>
<script type="text/javascript"><![CDATA[
var edges = document.getElementsByTagName('g');
if (edges && edges.length) {
  for (var i=0;i<edges.length;i++) {
    if (edges[i].id.substr(0,4)=='edge') {
      edges[i].setAttribute('class','edge');
    }
  }
}
]]></script>
        <defs>
                <circle id="rim" cx="0" cy="0" r="7"/>
                <circle id="rim2" cx="0" cy="0" r="3.5"/>
                <g id="zoomPlus">
                        <use xlink:href="#rim" fill="#404040">
                                <set attributeName="fill" to="#808080" begin="zoomplus.mouseover" end="zoomplus.mouseout"/>
                        </use>
                        <path d="M-4,0h8M0,-4v8" fill="none" stroke="white" stroke-width="1.5" pointer-events="none"/>
                </g>
                <g id="zoomMin">
                        <use xlink:href="#rim" fill="#404040">
                                <set attributeName="fill" to="#808080" begin="zoomminus.mouseover" end="zoomminus.mouseout"/>
                        </use>
                        <path d="M-4,0h8" fill="none" stroke="white" stroke-width="1.5" pointer-events="none"/>
                </g>
                <g id="dirArrow">
                        <path fill="none" stroke="white" stroke-width="1.5" d="M0,-3.0v7 M-2.5,-0.5L0,-3.0L2.5,-0.5"/>
                </g>
               <g id="resetDef">
                       <use xlink:href="#rim2" fill="#404040">
                               <set attributeName="fill" to="#808080" begin="reset.mouseover" end="reset.mouseout"/>
                       </use>
               </g>
        </defs>

<script type="text/javascript">
var viewWidth = 566;
var viewHeight = 364;
var sectionId = 'dynsection-0';
</script>
<script xlink:href="../../svgpan.js"/>
<svg id="graph" class="graph">
<g id="viewport">
<title>torctriggernotification.cpp</title>
<polygon fill="white" stroke="none" points="-4,4 -4,-360 561.5,-360 561.5,4 -4,4"/>
<!-- Node1 -->
<g id="node1" class="node"><title>Node1</title>
<polygon fill="#bfbfbf" stroke="black" points="240.5,-336.5 240.5,-355.5 380.5,-355.5 380.5,-336.5 240.5,-336.5"/>
<text text-anchor="middle" x="310.5" y="-343.5" font-family="Helvetica,sans-Serif" font-size="10.00">torctriggernotification.cpp</text>
</g>
<!-- Node2 -->
<g id="node2" class="node"><title>Node2</title>
<polygon fill="white" stroke="#bfbfbf" points="120,-280.5 120,-299.5 175,-299.5 175,-280.5 120,-280.5"/>
<text text-anchor="middle" x="147.5" y="-287.5" font-family="Helvetica,sans-Serif" font-size="10.00">QLocale</text>
</g>
<!-- Node1&#45;&gt;Node2 -->
<g id="edge1" class="edge"><title>Node1&#45;&gt;Node2</title>
<path fill="none" stroke="midnightblue" d="M284.672,-336.444C257.251,-327.359 213.723,-312.939 183.068,-302.783"/>
<polygon fill="midnightblue" stroke="midnightblue" points="183.8,-299.339 173.207,-299.516 181.599,-305.984 183.8,-299.339"/>
</g>
<!-- Node3 -->
<g id="node3" class="node"><title>Node3</title>
<g id="a_node3"><a xlink:href="../../d4/df9/torclogging_8h.html" target="_top" xlink:title="torclogging.h">
<polygon fill="white" stroke="black" points="193,-280.5 193,-299.5 272,-299.5 272,-280.5 193,-280.5"/>
<text text-anchor="middle" x="232.5" y="-287.5" font-family="Helvetica,sans-Serif" font-size="10.00">torclogging.h</text>
</a>
</g>
</g>
<!-- Node1&#45;&gt;Node3 -->
<g id="edge2" class="edge"><title>Node1&#45;&gt;Node3</title>
<path fill="none" stroke="midnightblue" d="M297.968,-336.324C285.914,-327.979 267.473,-315.212 253.231,-305.352"/>
<polygon fill="midnightblue" stroke="midnightblue" points="255.215,-302.469 245.001,-299.655 251.231,-308.224 255.215,-302.469"/>
</g>
<!-- Node7 -->
<g id="node7" class="node"><title>Node7</title>
<g id="a_node7"><a xlink:href="../../d1/df7/torcdevice_8h.html" target="_top" xlink:title="torcdevice.h">
<polygon fill="white" stroke="black" points="273,-112.5 273,-131.5 348,-131.5 348,-112.5 273,-112.5"/>
<text text-anchor="middle" x="310.5" y="-119.5" font-family="Helvetica,sans-Serif" font-size="10.00">torcdevice.h</text>
</a>
</g>
</g>
<!-- Node1&#45;&gt;Node7 -->
<g id="edge6" class="edge"><title>Node1&#45;&gt;Node7</title>
<path fill="none" stroke="midnightblue" d="M310.5,-336.297C310.5,-303.633 310.5,-187.866 310.5,-141.957"/>
<polygon fill="midnightblue" stroke="midnightblue" points="314,-141.884 310.5,-131.884 307,-141.884 314,-141.884"/>
</g>
<!-- Node17 -->
<g id="node17" class="node"><title>Node17</title>
<g id="a_node17"><a xlink:href="../../d3/dca/torcnotify_8h.html" target="_top" xlink:title="torcnotify.h">
<polygon fill="white" stroke="black" points="485,-280.5 485,-299.5 554,-299.5 554,-280.5 485,-280.5"/>
<text text-anchor="middle" x="519.5" y="-287.5" font-family="Helvetica,sans-Serif" font-size="10.00">torcnotify.h</text>
</a>
</g>
</g>
<!-- Node1&#45;&gt;Node17 -->
<g id="edge18" class="edge"><title>Node1&#45;&gt;Node17</title>
<path fill="none" stroke="midnightblue" d="M343.617,-336.444C379.618,-327.142 437.27,-312.246 476.686,-302.062"/>
<polygon fill="midnightblue" stroke="midnightblue" points="477.732,-305.407 486.538,-299.516 475.981,-298.629 477.732,-305.407"/>
</g>
<!-- Node20 -->
<g id="node20" class="node"><title>Node20</title>
<g id="a_node20"><a xlink:href="../../db/d71/torctriggernotification_8h.html" target="_top" xlink:title="torctriggernotification.h">
<polygon fill="white" stroke="black" points="338.5,-280.5 338.5,-299.5 466.5,-299.5 466.5,-280.5 338.5,-280.5"/>
<text text-anchor="middle" x="402.5" y="-287.5" font-family="Helvetica,sans-Serif" font-size="10.00">torctriggernotification.h</text>
</a>
</g>
</g>
<!-- Node1&#45;&gt;Node20 -->
<g id="edge27" class="edge"><title>Node1&#45;&gt;Node20</title>
<path fill="none" stroke="midnightblue" d="M325.281,-336.324C339.767,-327.822 362.073,-314.729 378.993,-304.797"/>
<polygon fill="midnightblue" stroke="midnightblue" points="380.903,-307.735 387.755,-299.655 377.359,-301.698 380.903,-307.735"/>
</g>
<!-- Node4 -->
<g id="node4" class="node"><title>Node4</title>
<polygon fill="white" stroke="#bfbfbf" points="43,-224.5 43,-243.5 96,-243.5 96,-224.5 43,-224.5"/>
<text text-anchor="middle" x="69.5" y="-231.5" font-family="Helvetica,sans-Serif" font-size="10.00">stdint.h</text>
</g>
<!-- Node3&#45;&gt;Node4 -->
<g id="edge3" class="edge"><title>Node3&#45;&gt;Node4</title>
<path fill="none" stroke="midnightblue" d="M206.672,-280.444C179.251,-271.359 135.723,-256.939 105.068,-246.783"/>
<polygon fill="midnightblue" stroke="midnightblue" points="105.8,-243.339 95.207,-243.516 103.599,-249.984 105.8,-243.339"/>
</g>
<!-- Node5 -->
<g id="node5" class="node"><title>Node5</title>
<polygon fill="white" stroke="#bfbfbf" points="114,-224.5 114,-243.5 165,-243.5 165,-224.5 114,-224.5"/>
<text text-anchor="middle" x="139.5" y="-231.5" font-family="Helvetica,sans-Serif" font-size="10.00">errno.h</text>
</g>
<!-- Node3&#45;&gt;Node5 -->
<g id="edge4" class="edge"><title>Node3&#45;&gt;Node5</title>
<path fill="none" stroke="midnightblue" d="M217.558,-280.324C202.915,-271.822 180.366,-258.729 163.262,-248.797"/>
<polygon fill="midnightblue" stroke="midnightblue" points="164.81,-245.649 154.405,-243.655 161.295,-251.703 164.81,-245.649"/>
</g>
<!-- Node6 -->
<g id="node6" class="node"><title>Node6</title>
<g id="a_node6"><a xlink:href="../../d1/d37/torcloggingdefs_8h.html" target="_top" xlink:title="torcloggingdefs.h">
<polygon fill="white" stroke="black" points="183,-224.5 183,-243.5 282,-243.5 282,-224.5 183,-224.5"/>
<text text-anchor="middle" x="232.5" y="-231.5" font-family="Helvetica,sans-Serif" font-size="10.00">torcloggingdefs.h</text>
</a>
</g>
</g>
<!-- Node3&#45;&gt;Node6 -->
<g id="edge5" class="edge"><title>Node3&#45;&gt;Node6</title>
<path fill="none" stroke="midnightblue" d="M232.5,-280.083C232.5,-273.006 232.5,-262.861 232.5,-253.986"/>
<polygon fill="midnightblue" stroke="midnightblue" points="236,-253.751 232.5,-243.751 229,-253.751 236,-253.751"/>
</g>
<!-- Node8 -->
<g id="node8" class="node"><title>Node8</title>
<polygon fill="white" stroke="#bfbfbf" points="274,-0.5 274,-19.5 323,-19.5 323,-0.5 274,-0.5"/>
<text text-anchor="middle" x="298.5" y="-7.5" font-family="Helvetica,sans-Serif" font-size="10.00">QHash</text>
</g>
<!-- Node7&#45;&gt;Node8 -->
<g id="edge7" class="edge"><title>Node7&#45;&gt;Node8</title>
<path fill="none" stroke="midnightblue" d="M304.395,-112.191C298.745,-103.46 290.745,-89.4775 287.5,-76 283.775,-60.5262 287.343,-42.6833 291.379,-29.6112"/>
<polygon fill="midnightblue" stroke="midnightblue" points="294.774,-30.5042 294.731,-19.9094 288.157,-28.2186 294.774,-30.5042"/>
</g>
<!-- Node9 -->
<g id="node9" class="node"><title>Node9</title>
<polygon fill="white" stroke="#bfbfbf" points="167,-0.5 167,-19.5 220,-19.5 220,-0.5 167,-0.5"/>
<text text-anchor="middle" x="193.5" y="-7.5" font-family="Helvetica,sans-Serif" font-size="10.00">QMutex</text>
</g>
<!-- Node7&#45;&gt;Node9 -->
<g id="edge8" class="edge"><title>Node7&#45;&gt;Node9</title>
<path fill="none" stroke="midnightblue" d="M272.868,-119.627C241.653,-116.258 199.026,-106.008 177.5,-76 167.483,-62.0359 174.377,-42.516 181.987,-28.518"/>
<polygon fill="midnightblue" stroke="midnightblue" points="185.045,-30.2247 187.172,-19.8455 179.037,-26.633 185.045,-30.2247"/>
</g>
<!-- Node10 -->
<g id="node10" class="node"><title>Node10</title>
<polygon fill="white" stroke="#bfbfbf" points="186,-56.5 186,-75.5 239,-75.5 239,-56.5 186,-56.5"/>
<text text-anchor="middle" x="212.5" y="-63.5" font-family="Helvetica,sans-Serif" font-size="10.00">QString</text>
</g>
<!-- Node7&#45;&gt;Node10 -->
<g id="edge9" class="edge"><title>Node7&#45;&gt;Node10</title>
<path fill="none" stroke="midnightblue" d="M294.755,-112.324C279.181,-103.743 255.123,-90.486 237.041,-80.5224"/>
<polygon fill="midnightblue" stroke="midnightblue" points="238.654,-77.4152 228.206,-75.6545 235.276,-83.546 238.654,-77.4152"/>
</g>
<!-- Node11 -->
<g id="node11" class="node"><title>Node11</title>
<polygon fill="white" stroke="#bfbfbf" points="296,-56.5 296,-75.5 351,-75.5 351,-56.5 296,-56.5"/>
<text text-anchor="middle" x="323.5" y="-63.5" font-family="Helvetica,sans-Serif" font-size="10.00">QObject</text>
</g>
<!-- Node7&#45;&gt;Node11 -->
<g id="edge10" class="edge"><title>Node7&#45;&gt;Node11</title>
<path fill="none" stroke="midnightblue" d="M312.647,-112.083C314.369,-104.927 316.847,-94.6353 319,-85.6911"/>
<polygon fill="midnightblue" stroke="midnightblue" points="322.455,-86.2925 321.393,-75.7511 315.65,-84.6541 322.455,-86.2925"/>
</g>
<!-- Node12 -->
<g id="node12" class="node"><title>Node12</title>
<g id="a_node12"><a xlink:href="../../d8/dfe/torcreferencecounted_8h.html" target="_top" xlink:title="torcreferencecounted.h">
<polygon fill="white" stroke="black" points="0,-56.5 0,-75.5 129,-75.5 129,-56.5 0,-56.5"/>
<text text-anchor="middle" x="64.5" y="-63.5" font-family="Helvetica,sans-Serif" font-size="10.00">torcreferencecounted.h</text>
</a>
</g>
</g>
<!-- Node7&#45;&gt;Node12 -->
<g id="edge11" class="edge"><title>Node7&#45;&gt;Node12</title>
<path fill="none" stroke="midnightblue" d="M272.87,-112.74C230.111,-103.354 160.192,-88.0055 113.279,-77.7077"/>
<polygon fill="midnightblue" stroke="midnightblue" points="113.862,-74.2523 103.344,-75.5268 112.361,-81.0895 113.862,-74.2523"/>
</g>
<!-- Node14 -->
<g id="node14" class="node"><title>Node14</title>
<g id="a_node14"><a xlink:href="../../d2/d5b/torcdevicehandler_8h.html" target="_top" xlink:title="torcdevicehandler.h">
<polygon fill="white" stroke="black" points="369.5,-56.5 369.5,-75.5 479.5,-75.5 479.5,-56.5 369.5,-56.5"/>
<text text-anchor="middle" x="424.5" y="-63.5" font-family="Helvetica,sans-Serif" font-size="10.00">torcdevicehandler.h</text>
</a>
</g>
</g>
<!-- Node7&#45;&gt;Node14 -->
<g id="edge13" class="edge"><title>Node7&#45;&gt;Node14</title>
<path fill="none" stroke="midnightblue" d="M328.564,-112.444C347.075,-103.675 376.081,-89.9355 397.355,-79.8579"/>
<polygon fill="midnightblue" stroke="midnightblue" points="398.982,-82.9604 406.521,-75.5164 395.985,-76.6343 398.982,-82.9604"/>
</g>
<!-- Node13 -->
<g id="node13" class="node"><title>Node13</title>
<polygon fill="white" stroke="#bfbfbf" points="29.5,-0.5 29.5,-19.5 99.5,-19.5 99.5,-0.5 29.5,-0.5"/>
<text text-anchor="middle" x="64.5" y="-7.5" font-family="Helvetica,sans-Serif" font-size="10.00">QAtomicInt</text>
</g>
<!-- Node12&#45;&gt;Node13 -->
<g id="edge12" class="edge"><title>Node12&#45;&gt;Node13</title>
<path fill="none" stroke="midnightblue" d="M64.5,-56.083C64.5,-49.0059 64.5,-38.8611 64.5,-29.9865"/>
<polygon fill="midnightblue" stroke="midnightblue" points="68.0001,-29.751 64.5,-19.7511 61.0001,-29.7511 68.0001,-29.751"/>
</g>
<!-- Node14&#45;&gt;Node8 -->
<g id="edge14" class="edge"><title>Node14&#45;&gt;Node8</title>
<path fill="none" stroke="midnightblue" d="M404.535,-56.4435C383.891,-47.5961 351.437,-33.6875 327.868,-23.5865"/>
<polygon fill="midnightblue" stroke="midnightblue" points="328.942,-20.2387 318.372,-19.5164 326.184,-26.6727 328.942,-20.2387"/>
</g>
<!-- Node14&#45;&gt;Node9 -->
<g id="edge15" class="edge"><title>Node14&#45;&gt;Node9</title>
<path fill="none" stroke="midnightblue" d="M387.897,-56.4435C344.673,-46.3393 273.211,-29.6337 230.022,-19.5377"/>
<polygon fill="midnightblue" stroke="midnightblue" points="230.744,-16.112 220.209,-17.2437 229.15,-22.9282 230.744,-16.112"/>
</g>
<!-- Node15 -->
<g id="node15" class="node"><title>Node15</title>
<polygon fill="white" stroke="#bfbfbf" points="373.5,-0.5 373.5,-19.5 465.5,-19.5 465.5,-0.5 373.5,-0.5"/>
<text text-anchor="middle" x="419.5" y="-7.5" font-family="Helvetica,sans-Serif" font-size="10.00">QReadWriteLock</text>
</g>
<!-- Node14&#45;&gt;Node15 -->
<g id="edge16" class="edge"><title>Node14&#45;&gt;Node15</title>
<path fill="none" stroke="midnightblue" d="M423.674,-56.083C423.019,-49.0059 422.08,-38.8611 421.258,-29.9865"/>
<polygon fill="midnightblue" stroke="midnightblue" points="424.717,-29.3858 420.31,-19.7511 417.747,-30.0312 424.717,-29.3858"/>
</g>
<!-- Node16 -->
<g id="node16" class="node"><title>Node16</title>
<polygon fill="white" stroke="#bfbfbf" points="483.5,-0.5 483.5,-19.5 541.5,-19.5 541.5,-0.5 483.5,-0.5"/>
<text text-anchor="middle" x="512.5" y="-7.5" font-family="Helvetica,sans-Serif" font-size="10.00">QVariant</text>
</g>
<!-- Node14&#45;&gt;Node16 -->
<g id="edge17" class="edge"><title>Node14&#45;&gt;Node16</title>
<path fill="none" stroke="midnightblue" d="M438.639,-56.324C452.366,-47.9002 473.436,-34.9709 489.564,-25.0741"/>
<polygon fill="midnightblue" stroke="midnightblue" points="491.704,-27.8678 498.396,-19.6545 488.043,-21.9016 491.704,-27.8678"/>
</g>
<!-- Node17&#45;&gt;Node14 -->
<g id="edge20" class="edge"><title>Node17&#45;&gt;Node14</title>
<path fill="none" stroke="midnightblue" d="M518.479,-280.469C515.844,-260.242 507.774,-208.071 490.5,-168 476.684,-135.951 452.895,-102.837 437.967,-83.6201"/>
<polygon fill="midnightblue" stroke="midnightblue" points="440.566,-81.2644 431.616,-75.5948 435.077,-85.6083 440.566,-81.2644"/>
</g>
<!-- Node17&#45;&gt;Node16 -->
<g id="edge19" class="edge"><title>Node17&#45;&gt;Node16</title>
<path fill="none" stroke="midnightblue" d="M524.784,-280.231C535.225,-262.043 557.5,-218.601 557.5,-179 557.5,-179 557.5,-179 557.5,-121 557.5,-85.9296 537.663,-48.9386 524.331,-28.037"/>
<polygon fill="midnightblue" stroke="midnightblue" points="527.2,-26.031 518.757,-19.6305 521.366,-29.8991 527.2,-26.031"/>
</g>
<!-- Node18 -->
<g id="node18" class="node"><title>Node18</title>
<g id="a_node18"><a xlink:href="../../da/dea/torcnotification_8h.html" target="_top" xlink:title="torcnotification.h">
<polygon fill="white" stroke="black" points="355,-224.5 355,-243.5 452,-243.5 452,-224.5 355,-224.5"/>
<text text-anchor="middle" x="403.5" y="-231.5" font-family="Helvetica,sans-Serif" font-size="10.00">torcnotification.h</text>
</a>
</g>
</g>
<!-- Node17&#45;&gt;Node18 -->
<g id="edge21" class="edge"><title>Node17&#45;&gt;Node18</title>
<path fill="none" stroke="midnightblue" d="M501.119,-280.444C482.284,-271.675 452.769,-257.935 431.121,-247.858"/>
<polygon fill="midnightblue" stroke="midnightblue" points="432.338,-244.564 421.795,-243.516 429.383,-250.91 432.338,-244.564"/>
</g>
<!-- Node19 -->
<g id="node19" class="node"><title>Node19</title>
<g id="a_node19"><a xlink:href="../../db/df1/torcnotifier_8h.html" target="_top" xlink:title="torcnotifier.h">
<polygon fill="white" stroke="black" points="404,-168.5 404,-187.5 481,-187.5 481,-168.5 404,-168.5"/>
<text text-anchor="middle" x="442.5" y="-175.5" font-family="Helvetica,sans-Serif" font-size="10.00">torcnotifier.h</text>
</a>
</g>
</g>
<!-- Node17&#45;&gt;Node19 -->
<g id="edge26" class="edge"><title>Node17&#45;&gt;Node19</title>
<path fill="none" stroke="midnightblue" d="M513.458,-280.368C500.751,-262.215 471.061,-219.802 454.393,-195.99"/>
<polygon fill="midnightblue" stroke="midnightblue" points="457.116,-193.777 448.514,-187.591 451.381,-197.791 457.116,-193.777"/>
</g>
<!-- Node18&#45;&gt;Node7 -->
<g id="edge22" class="edge"><title>Node18&#45;&gt;Node7</title>
<path fill="none" stroke="midnightblue" d="M396.202,-224.368C380.719,-206.055 344.36,-163.049 324.334,-139.362"/>
<polygon fill="midnightblue" stroke="midnightblue" points="326.893,-136.968 317.764,-131.591 321.547,-141.488 326.893,-136.968"/>
</g>
<!-- Node18&#45;&gt;Node19 -->
<g id="edge23" class="edge"><title>Node18&#45;&gt;Node19</title>
<path fill="none" stroke="midnightblue" d="M409.94,-224.083C415.449,-216.455 423.531,-205.264 430.265,-195.941"/>
<polygon fill="midnightblue" stroke="midnightblue" points="433.162,-197.907 436.18,-187.751 427.487,-193.809 433.162,-197.907"/>
</g>
<!-- Node19&#45;&gt;Node7 -->
<g id="edge25" class="edge"><title>Node19&#45;&gt;Node7</title>
<path fill="none" stroke="midnightblue" d="M421.584,-168.444C399.764,-159.517 365.35,-145.439 340.608,-135.317"/>
<polygon fill="midnightblue" stroke="midnightblue" points="341.899,-132.063 331.318,-131.516 339.248,-138.542 341.899,-132.063"/>
</g>
<!-- Node19&#45;&gt;Node16 -->
<g id="edge24" class="edge"><title>Node19&#45;&gt;Node16</title>
<path fill="none" stroke="midnightblue" d="M446.654,-168.447C454.994,-151.159 474.197,-110.743 488.5,-76 494.868,-60.5312 501.4,-42.6879 506.038,-29.6143"/>
<polygon fill="midnightblue" stroke="midnightblue" points="509.434,-30.5061 509.444,-19.9112 502.829,-28.1877 509.434,-30.5061"/>
</g>
<!-- Node20&#45;&gt;Node18 -->
<g id="edge28" class="edge"><title>Node20&#45;&gt;Node18</title>
<path fill="none" stroke="midnightblue" d="M402.665,-280.083C402.796,-273.006 402.984,-262.861 403.148,-253.986"/>
<polygon fill="midnightblue" stroke="midnightblue" points="406.652,-253.814 403.338,-243.751 399.653,-253.685 406.652,-253.814"/>
</g>
</g>
</svg>
        <g id="navigator" transform="translate(0 0)" fill="#404254">
                <rect fill="#f2f5e9" fill-opacity="0.5" stroke="#606060" stroke-width=".5" x="0" y="0" width="60" height="60"/>
                <use id="zoomplus" xlink:href="#zoomPlus" x="17" y="9" onmousedown="handleZoom(evt,'in')"/>
                <use id="zoomminus" xlink:href="#zoomMin" x="42" y="9" onmousedown="handleZoom(evt,'out')"/>
                <use id="reset" xlink:href="#resetDef" x="30" y="36" onmousedown="handleReset()"/>
                <g id="arrowUp" xlink:href="#dirArrow" transform="translate(30 24)" onmousedown="handlePan(0,-1)">
                  <use xlink:href="#rim" fill="#404040">
                        <set attributeName="fill" to="#808080" begin="arrowUp.mouseover" end="arrowUp.mouseout"/>
                  </use>
                  <path fill="none" stroke="white" stroke-width="1.5" d="M0,-3.0v7 M-2.5,-0.5L0,-3.0L2.5,-0.5"/>
                </g>
                <g id="arrowRight" xlink:href="#dirArrow" transform="rotate(90) translate(36 -43)" onmousedown="handlePan(1,0)">
                  <use xlink:href="#rim" fill="#404040">
                        <set attributeName="fill" to="#808080" begin="arrowRight.mouseover" end="arrowRight.mouseout"/>
                  </use>
                  <path fill="none" stroke="white" stroke-width="1.5" d="M0,-3.0v7 M-2.5,-0.5L0,-3.0L2.5,-0.5"/>
                </g>
                <g id="arrowDown" xlink:href="#dirArrow" transform="rotate(180) translate(-30 -48)" onmousedown="handlePan(0,1)">
                  <use xlink:href="#rim" fill="#404040">
                        <set attributeName="fill" to="#808080" begin="arrowDown.mouseover" end="arrowDown.mouseout"/>
                  </use>
                  <path fill="none" stroke="white" stroke-width="1.5" d="M0,-3.0v7 M-2.5,-0.5L0,-3.0L2.5,-0.5"/>
                </g>
                <g id="arrowLeft" xlink:href="#dirArrow" transform="rotate(270) translate(-36 17)" onmousedown="handlePan(-1,0)">
                  <use xlink:href="#rim" fill="#404040">
                        <set attributeName="fill" to="#808080" begin="arrowLeft.mouseover" end="arrowLeft.mouseout"/>
                  </use>
                  <path fill="none" stroke="white" stroke-width="1.5" d="M0,-3.0v7 M-2.5,-0.5L0,-3.0L2.5,-0.5"/>
                </g>
        </g>
        <svg viewBox="0 0 15 15" width="100%" height="30px" preserveAspectRatio="xMaxYMin meet">
         <g id="arrow_out" transform="scale(0.3 0.3)">
          <a xlink:href="torctriggernotification_8cpp__incl_org.svg" target="_base">
           <rect id="button" ry="5" rx="5" y="6" x="6" height="38" width="38"
                fill="#f2f5e9" fill-opacity="0.5" stroke="#606060" stroke-width="1.0"/>
           <path id="arrow"
             d="M 11.500037,31.436501 C 11.940474,20.09759 22.043105,11.32322 32.158766,21.979434 L 37.068811,17.246167 C 37.068811,17.246167 37.088388,32 37.088388,32 L 22.160133,31.978069 C 22.160133,31.978069 26.997745,27.140456 26.997745,27.140456 C 18.528582,18.264221 13.291696,25.230495 11.500037,31.436501 z"
             style="fill:#404040;"/>
          </a>
         </g>
        </svg>
</svg>
