<?xml version="1.0" encoding="UTF-8" standalone="no"?>
<!DOCTYPE svg PUBLIC "-//W3C//DTD SVG 1.1//EN"
 "http://www.w3.org/Graphics/SVG/1.1/DTD/svg11.dtd">
<!-- Generated by graphviz version 2.38.0 (20140413.2041)
 -->
<!-- Title: torcpigpio.cpp Pages: 1 -->
<!--zoomable 532 -->
<svg id="main" version="1.1" xmlns="http://www.w3.org/2000/svg" xmlns:xlink="http://www.w3.org/1999/xlink" xml:space="preserve" onload="init(evt)">
<style type="text/css"><![CDATA[
.edge:hover path { stroke: red; }
.edge:hover polygon { stroke: red; fill: red; }
]]></style>
<script type="text/javascript"><![CDATA[
var edges = document.getElementsByTagName('g');
if (edges && edges.length) {
  for (var i=0;i<edges.length;i++) {
    if (edges[i].id.substr(0,4)=='edge') {
      edges[i].setAttribute('class','edge');
    }
  }
}
]]></script>
        <defs>
                <circle id="rim" cx="0" cy="0" r="7"/>
                <circle id="rim2" cx="0" cy="0" r="3.5"/>
                <g id="zoomPlus">
                        <use xlink:href="#rim" fill="#404040">
                                <set attributeName="fill" to="#808080" begin="zoomplus.mouseover" end="zoomplus.mouseout"/>
                        </use>
                        <path d="M-4,0h8M0,-4v8" fill="none" stroke="white" stroke-width="1.5" pointer-events="none"/>
                </g>
                <g id="zoomMin">
                        <use xlink:href="#rim" fill="#404040">
                                <set attributeName="fill" to="#808080" begin="zoomminus.mouseover" end="zoomminus.mouseout"/>
                        </use>
                        <path d="M-4,0h8" fill="none" stroke="white" stroke-width="1.5" pointer-events="none"/>
                </g>
                <g id="dirArrow">
                        <path fill="none" stroke="white" stroke-width="1.5" d="M0,-3.0v7 M-2.5,-0.5L0,-3.0L2.5,-0.5"/>
                </g>
               <g id="resetDef">
                       <use xlink:href="#rim2" fill="#404040">
                               <set attributeName="fill" to="#808080" begin="reset.mouseover" end="reset.mouseout"/>
                       </use>
               </g>
        </defs>

<script type="text/javascript">
var viewWidth = 1257;
var viewHeight = 532;
var sectionId = 'dynsection-0';
</script>
<script xlink:href="../../svgpan.js"/>
<svg id="graph" class="graph">
<g id="viewport">
<title>torcpigpio.cpp</title>
<polygon fill="white" stroke="none" points="-4,4 -4,-528 1252.5,-528 1252.5,4 -4,4"/>
<!-- Node1 -->
<g id="node1" class="node"><title>Node1</title>
<polygon fill="#bfbfbf" stroke="black" points="639.5,-504.5 639.5,-523.5 723.5,-523.5 723.5,-504.5 639.5,-504.5"/>
<text text-anchor="middle" x="681.5" y="-511.5" font-family="Helvetica,sans-Serif" font-size="10.00">torcpigpio.cpp</text>
</g>
<!-- Node2 -->
<g id="node2" class="node"><title>Node2</title>
<g id="a_node2"><a xlink:href="../../d4/df9/torclogging_8h.html" target="_top" xlink:title="torclogging.h">
<polygon fill="white" stroke="black" points="104,-448.5 104,-467.5 183,-467.5 183,-448.5 104,-448.5"/>
<text text-anchor="middle" x="143.5" y="-455.5" font-family="Helvetica,sans-Serif" font-size="10.00">torclogging.h</text>
</a>
</g>
</g>
<!-- Node1&#45;&gt;Node2 -->
<g id="edge1" class="edge"><title>Node1&#45;&gt;Node2</title>
<path fill="none" stroke="midnightblue" d="M639.284,-508.763C541.235,-498.921 298.476,-474.555 193.353,-464.004"/>
<polygon fill="midnightblue" stroke="midnightblue" points="193.62,-460.513 183.32,-462.997 192.92,-467.478 193.62,-460.513"/>
</g>
<!-- Node6 -->
<g id="node6" class="node"><title>Node6</title>
<g id="a_node6"><a xlink:href="../../d5/d41/torccentral_8h.html" target="_top" xlink:title="torccentral.h">
<polygon fill="white" stroke="black" points="562,-280.5 562,-299.5 639,-299.5 639,-280.5 562,-280.5"/>
<text text-anchor="middle" x="600.5" y="-287.5" font-family="Helvetica,sans-Serif" font-size="10.00">torccentral.h</text>
</a>
</g>
</g>
<!-- Node1&#45;&gt;Node6 -->
<g id="edge5" class="edge"><title>Node1&#45;&gt;Node6</title>
<path fill="none" stroke="midnightblue" d="M674.579,-504.43C661.499,-487.744 633.234,-449.259 619.5,-412 606.733,-377.364 602.544,-334.063 601.17,-309.775"/>
<polygon fill="midnightblue" stroke="midnightblue" points="604.653,-309.329 600.697,-299.5 597.661,-309.651 604.653,-309.329"/>
</g>
<!-- Node28 -->
<g id="node28" class="node"><title>Node28</title>
<g id="a_node28"><a xlink:href="../../d4/de1/torcpigpio_8h.html" target="_top" xlink:title="torcpigpio.h">
<polygon fill="white" stroke="black" points="499,-448.5 499,-467.5 572,-467.5 572,-448.5 499,-448.5"/>
<text text-anchor="middle" x="535.5" y="-455.5" font-family="Helvetica,sans-Serif" font-size="10.00">torcpigpio.h</text>
</a>
</g>
</g>
<!-- Node1&#45;&gt;Node28 -->
<g id="edge37" class="edge"><title>Node1&#45;&gt;Node28</title>
<path fill="none" stroke="midnightblue" d="M658.366,-504.444C634.018,-495.438 595.493,-481.189 568.077,-471.049"/>
<polygon fill="midnightblue" stroke="midnightblue" points="569.119,-467.703 558.526,-467.516 566.691,-474.268 569.119,-467.703"/>
</g>
<!-- Node40 -->
<g id="node40" class="node"><title>Node40</title>
<g id="a_node40"><a xlink:href="../../d4/d68/torcinputs_8h.html" target="_top" xlink:title="torcinputs.h">
<polygon fill="white" stroke="black" points="902.5,-336.5 902.5,-355.5 976.5,-355.5 976.5,-336.5 902.5,-336.5"/>
<text text-anchor="middle" x="939.5" y="-343.5" font-family="Helvetica,sans-Serif" font-size="10.00">torcinputs.h</text>
</a>
</g>
</g>
<!-- Node1&#45;&gt;Node40 -->
<g id="edge62" class="edge"><title>Node1&#45;&gt;Node40</title>
<path fill="none" stroke="midnightblue" d="M686.435,-504.5C699.68,-482.448 738.295,-422.97 786.5,-392 804.088,-380.7 854.162,-367.074 892.278,-357.797"/>
<polygon fill="midnightblue" stroke="midnightblue" points="893.272,-361.158 902.178,-355.419 891.637,-354.352 893.272,-361.158"/>
</g>
<!-- Node42 -->
<g id="node42" class="node"><title>Node42</title>
<g id="a_node42"><a xlink:href="../../da/d80/torcoutputs_8h.html" target="_top" xlink:title="torcoutputs.h">
<polygon fill="white" stroke="black" points="995,-336.5 995,-355.5 1076,-355.5 1076,-336.5 995,-336.5"/>
<text text-anchor="middle" x="1035.5" y="-343.5" font-family="Helvetica,sans-Serif" font-size="10.00">torcoutputs.h</text>
</a>
</g>
</g>
<!-- Node1&#45;&gt;Node42 -->
<g id="edge68" class="edge"><title>Node1&#45;&gt;Node42</title>
<path fill="none" stroke="midnightblue" d="M700.034,-504.309C758.339,-476.968 938.254,-392.601 1007.73,-360.023"/>
<polygon fill="midnightblue" stroke="midnightblue" points="1009.58,-363.02 1017.15,-355.605 1006.61,-356.682 1009.58,-363.02"/>
</g>
<!-- Node43 -->
<g id="node43" class="node"><title>Node43</title>
<polygon fill="white" stroke="#bfbfbf" points="829,-448.5 829,-467.5 890,-467.5 890,-448.5 829,-448.5"/>
<text text-anchor="middle" x="859.5" y="-455.5" font-family="Helvetica,sans-Serif" font-size="10.00">wiringPi.h</text>
</g>
<!-- Node1&#45;&gt;Node43 -->
<g id="edge74" class="edge"><title>Node1&#45;&gt;Node43</title>
<path fill="none" stroke="midnightblue" d="M709.705,-504.444C739.91,-495.28 788.011,-480.688 821.529,-470.519"/>
<polygon fill="midnightblue" stroke="midnightblue" points="822.874,-473.769 831.427,-467.516 820.842,-467.07 822.874,-473.769"/>
</g>
<!-- Node3 -->
<g id="node3" class="node"><title>Node3</title>
<polygon fill="white" stroke="#bfbfbf" points="0,-392.5 0,-411.5 53,-411.5 53,-392.5 0,-392.5"/>
<text text-anchor="middle" x="26.5" y="-399.5" font-family="Helvetica,sans-Serif" font-size="10.00">stdint.h</text>
</g>
<!-- Node2&#45;&gt;Node3 -->
<g id="edge2" class="edge"><title>Node2&#45;&gt;Node3</title>
<path fill="none" stroke="midnightblue" d="M124.961,-448.444C105.877,-439.636 75.9251,-425.812 54.0643,-415.722"/>
<polygon fill="midnightblue" stroke="midnightblue" points="55.4986,-412.529 44.9523,-411.516 52.5651,-418.885 55.4986,-412.529"/>
</g>
<!-- Node4 -->
<g id="node4" class="node"><title>Node4</title>
<polygon fill="white" stroke="#bfbfbf" points="71,-392.5 71,-411.5 122,-411.5 122,-392.5 71,-392.5"/>
<text text-anchor="middle" x="96.5" y="-399.5" font-family="Helvetica,sans-Serif" font-size="10.00">errno.h</text>
</g>
<!-- Node2&#45;&gt;Node4 -->
<g id="edge3" class="edge"><title>Node2&#45;&gt;Node4</title>
<path fill="none" stroke="midnightblue" d="M135.739,-448.083C128.963,-440.298 118.957,-428.801 110.745,-419.367"/>
<polygon fill="midnightblue" stroke="midnightblue" points="113.322,-416.996 104.117,-411.751 108.042,-421.592 113.322,-416.996"/>
</g>
<!-- Node5 -->
<g id="node5" class="node"><title>Node5</title>
<g id="a_node5"><a xlink:href="../../d1/d37/torcloggingdefs_8h.html" target="_top" xlink:title="torcloggingdefs.h">
<polygon fill="white" stroke="black" points="140,-392.5 140,-411.5 239,-411.5 239,-392.5 140,-392.5"/>
<text text-anchor="middle" x="189.5" y="-399.5" font-family="Helvetica,sans-Serif" font-size="10.00">torcloggingdefs.h</text>
</a>
</g>
</g>
<!-- Node2&#45;&gt;Node5 -->
<g id="edge4" class="edge"><title>Node2&#45;&gt;Node5</title>
<path fill="none" stroke="midnightblue" d="M151.096,-448.083C157.727,-440.298 167.521,-428.801 175.558,-419.367"/>
<polygon fill="midnightblue" stroke="midnightblue" points="178.225,-421.633 182.045,-411.751 172.896,-417.094 178.225,-421.633"/>
</g>
<!-- Node7 -->
<g id="node7" class="node"><title>Node7</title>
<polygon fill="white" stroke="#bfbfbf" points="601,-112.5 601,-131.5 654,-131.5 654,-112.5 601,-112.5"/>
<text text-anchor="middle" x="627.5" y="-119.5" font-family="Helvetica,sans-Serif" font-size="10.00">QMutex</text>
</g>
<!-- Node6&#45;&gt;Node7 -->
<g id="edge6" class="edge"><title>Node6&#45;&gt;Node7</title>
<path fill="none" stroke="midnightblue" d="M601.952,-280.075C606.202,-253.945 618.683,-177.211 624.478,-141.577"/>
<polygon fill="midnightblue" stroke="midnightblue" points="627.956,-142 626.106,-131.568 621.046,-140.876 627.956,-142"/>
</g>
<!-- Node8 -->
<g id="node8" class="node"><title>Node8</title>
<polygon fill="white" stroke="#bfbfbf" points="544,-168.5 544,-187.5 599,-187.5 599,-168.5 544,-168.5"/>
<text text-anchor="middle" x="571.5" y="-175.5" font-family="Helvetica,sans-Serif" font-size="10.00">QObject</text>
</g>
<!-- Node6&#45;&gt;Node8 -->
<g id="edge7" class="edge"><title>Node6&#45;&gt;Node8</title>
<path fill="none" stroke="midnightblue" d="M598.224,-280.368C593.523,-262.537 582.651,-221.295 576.317,-197.272"/>
<polygon fill="midnightblue" stroke="midnightblue" points="579.699,-196.369 573.765,-187.591 572.93,-198.153 579.699,-196.369"/>
</g>
<!-- Node9 -->
<g id="node9" class="node"><title>Node9</title>
<polygon fill="white" stroke="#bfbfbf" points="257.5,-112.5 257.5,-131.5 315.5,-131.5 315.5,-112.5 257.5,-112.5"/>
<text text-anchor="middle" x="286.5" y="-119.5" font-family="Helvetica,sans-Serif" font-size="10.00">QVariant</text>
</g>
<!-- Node6&#45;&gt;Node9 -->
<g id="edge8" class="edge"><title>Node6&#45;&gt;Node9</title>
<path fill="none" stroke="midnightblue" d="M561.932,-281.962C521.532,-274.199 456.433,-260.584 401.5,-244 368.035,-233.897 274.336,-216.784 254.5,-188 243.76,-172.416 256.701,-152.696 269.194,-139.086"/>
<polygon fill="midnightblue" stroke="midnightblue" points="271.792,-141.436 276.317,-131.856 266.806,-136.523 271.792,-141.436"/>
</g>
<!-- Node10 -->
<g id="node10" class="node"><title>Node10</title>
<g id="a_node10"><a xlink:href="../../d1/df7/torcdevice_8h.html" target="_top" xlink:title="torcdevice.h">
<polygon fill="white" stroke="black" points="410,-224.5 410,-243.5 485,-243.5 485,-224.5 410,-224.5"/>
<text text-anchor="middle" x="447.5" y="-231.5" font-family="Helvetica,sans-Serif" font-size="10.00">torcdevice.h</text>
</a>
</g>
</g>
<!-- Node6&#45;&gt;Node10 -->
<g id="edge9" class="edge"><title>Node6&#45;&gt;Node10</title>
<path fill="none" stroke="midnightblue" d="M576.257,-280.444C550.629,-271.399 510.015,-257.064 481.262,-246.916"/>
<polygon fill="midnightblue" stroke="midnightblue" points="482.225,-243.544 471.63,-243.516 479.895,-250.145 482.225,-243.544"/>
</g>
<!-- Node16 -->
<g id="node16" class="node"><title>Node16</title>
<g id="a_node16"><a xlink:href="../../d3/dee/torchttpservice_8h.html" target="_top" xlink:title="http/torchttpservice.h">
<polygon fill="white" stroke="black" points="808.5,-224.5 808.5,-243.5 928.5,-243.5 928.5,-224.5 808.5,-224.5"/>
<text text-anchor="middle" x="868.5" y="-231.5" font-family="Helvetica,sans-Serif" font-size="10.00">http/torchttpservice.h</text>
</a>
</g>
</g>
<!-- Node6&#45;&gt;Node16 -->
<g id="edge20" class="edge"><title>Node6&#45;&gt;Node16</title>
<path fill="none" stroke="midnightblue" d="M639.183,-281.206C685.796,-271.814 764.312,-255.993 816.271,-245.524"/>
<polygon fill="midnightblue" stroke="midnightblue" points="817.18,-248.911 826.292,-243.505 815.797,-242.049 817.18,-248.911"/>
</g>
<!-- Node10&#45;&gt;Node7 -->
<g id="edge11" class="edge"><title>Node10&#45;&gt;Node7</title>
<path fill="none" stroke="midnightblue" d="M452.662,-224.139C461.16,-210.281 479.379,-183.471 501.5,-168 528.555,-149.079 564.408,-137.296 590.949,-130.558"/>
<polygon fill="midnightblue" stroke="midnightblue" points="592.085,-133.885 600.984,-128.137 590.442,-127.08 592.085,-133.885"/>
</g>
<!-- Node10&#45;&gt;Node8 -->
<g id="edge13" class="edge"><title>Node10&#45;&gt;Node8</title>
<path fill="none" stroke="midnightblue" d="M467.148,-224.444C487.465,-215.596 519.403,-201.687 542.598,-191.586"/>
<polygon fill="midnightblue" stroke="midnightblue" points="544.173,-194.718 551.944,-187.516 541.378,-188.3 544.173,-194.718"/>
</g>
<!-- Node11 -->
<g id="node11" class="node"><title>Node11</title>
<polygon fill="white" stroke="#bfbfbf" points="355,-112.5 355,-131.5 404,-131.5 404,-112.5 355,-112.5"/>
<text text-anchor="middle" x="379.5" y="-119.5" font-family="Helvetica,sans-Serif" font-size="10.00">QHash</text>
</g>
<!-- Node10&#45;&gt;Node11 -->
<g id="edge10" class="edge"><title>Node10&#45;&gt;Node11</title>
<path fill="none" stroke="midnightblue" d="M442.164,-224.368C430.992,-206.296 404.955,-164.176 390.199,-140.307"/>
<polygon fill="midnightblue" stroke="midnightblue" points="393.046,-138.257 384.811,-131.591 387.092,-141.938 393.046,-138.257"/>
</g>
<!-- Node12 -->
<g id="node12" class="node"><title>Node12</title>
<polygon fill="white" stroke="#bfbfbf" points="872,-56.5 872,-75.5 925,-75.5 925,-56.5 872,-56.5"/>
<text text-anchor="middle" x="898.5" y="-63.5" font-family="Helvetica,sans-Serif" font-size="10.00">QString</text>
</g>
<!-- Node10&#45;&gt;Node12 -->
<g id="edge12" class="edge"><title>Node10&#45;&gt;Node12</title>
<path fill="none" stroke="midnightblue" d="M409.894,-229.353C359.692,-223.66 274.731,-210.871 254.5,-188 232.051,-162.621 225.383,-136.772 248.5,-112 290.442,-67.0538 729.865,-65.9925 861.463,-66.6949"/>
<polygon fill="midnightblue" stroke="midnightblue" points="861.796,-70.1968 871.817,-66.7574 861.838,-63.197 861.796,-70.1968"/>
</g>
<!-- Node13 -->
<g id="node13" class="node"><title>Node13</title>
<g id="a_node13"><a xlink:href="../../d8/dfe/torcreferencecounted_8h.html" target="_top" xlink:title="torcreferencecounted.h">
<polygon fill="white" stroke="black" points="40,-168.5 40,-187.5 169,-187.5 169,-168.5 40,-168.5"/>
<text text-anchor="middle" x="104.5" y="-175.5" font-family="Helvetica,sans-Serif" font-size="10.00">torcreferencecounted.h</text>
</a>
</g>
</g>
<!-- Node10&#45;&gt;Node13 -->
<g id="edge14" class="edge"><title>Node10&#45;&gt;Node13</title>
<path fill="none" stroke="midnightblue" d="M409.812,-227.067C351.757,-217.927 239.743,-200.292 168.73,-189.112"/>
<polygon fill="midnightblue" stroke="midnightblue" points="168.984,-185.609 158.561,-187.511 167.895,-192.524 168.984,-185.609"/>
</g>
<!-- Node15 -->
<g id="node15" class="node"><title>Node15</title>
<g id="a_node15"><a xlink:href="../../d2/d5b/torcdevicehandler_8h.html" target="_top" xlink:title="torcdevicehandler.h">
<polygon fill="white" stroke="black" points="263.5,-168.5 263.5,-187.5 373.5,-187.5 373.5,-168.5 263.5,-168.5"/>
<text text-anchor="middle" x="318.5" y="-175.5" font-family="Helvetica,sans-Serif" font-size="10.00">torcdevicehandler.h</text>
</a>
</g>
</g>
<!-- Node10&#45;&gt;Node15 -->
<g id="edge16" class="edge"><title>Node10&#45;&gt;Node15</title>
<path fill="none" stroke="midnightblue" d="M427.06,-224.444C405.83,-215.557 372.401,-201.563 348.245,-191.451"/>
<polygon fill="midnightblue" stroke="midnightblue" points="349.421,-188.149 338.845,-187.516 346.718,-194.606 349.421,-188.149"/>
</g>
<!-- Node14 -->
<g id="node14" class="node"><title>Node14</title>
<polygon fill="white" stroke="#bfbfbf" points="69.5,-112.5 69.5,-131.5 139.5,-131.5 139.5,-112.5 69.5,-112.5"/>
<text text-anchor="middle" x="104.5" y="-119.5" font-family="Helvetica,sans-Serif" font-size="10.00">QAtomicInt</text>
</g>
<!-- Node13&#45;&gt;Node14 -->
<g id="edge15" class="edge"><title>Node13&#45;&gt;Node14</title>
<path fill="none" stroke="midnightblue" d="M104.5,-168.083C104.5,-161.006 104.5,-150.861 104.5,-141.986"/>
<polygon fill="midnightblue" stroke="midnightblue" points="108,-141.751 104.5,-131.751 101,-141.751 108,-141.751"/>
</g>
<!-- Node15&#45;&gt;Node7 -->
<g id="edge18" class="edge"><title>Node15&#45;&gt;Node7</title>
<path fill="none" stroke="midnightblue" d="M367.462,-168.444C429.492,-157.603 534.999,-139.165 590.638,-129.442"/>
<polygon fill="midnightblue" stroke="midnightblue" points="591.501,-132.844 600.749,-127.675 590.296,-125.949 591.501,-132.844"/>
</g>
<!-- Node15&#45;&gt;Node9 -->
<g id="edge19" class="edge"><title>Node15&#45;&gt;Node9</title>
<path fill="none" stroke="midnightblue" d="M313.216,-168.083C308.789,-160.613 302.337,-149.724 296.882,-140.52"/>
<polygon fill="midnightblue" stroke="midnightblue" points="299.795,-138.57 291.686,-131.751 293.773,-142.138 299.795,-138.57"/>
</g>
<!-- Node15&#45;&gt;Node11 -->
<g id="edge17" class="edge"><title>Node15&#45;&gt;Node11</title>
<path fill="none" stroke="midnightblue" d="M328.301,-168.324C337.318,-160.341 350.906,-148.313 361.818,-138.653"/>
<polygon fill="midnightblue" stroke="midnightblue" points="364.353,-141.083 369.521,-131.834 359.713,-135.842 364.353,-141.083"/>
</g>
<!-- Node16&#45;&gt;Node7 -->
<g id="edge22" class="edge"><title>Node16&#45;&gt;Node7</title>
<path fill="none" stroke="midnightblue" d="M830.404,-224.449C800.469,-216.963 758.184,-204.671 723.5,-188 694.528,-174.074 664.342,-152.226 645.732,-137.76"/>
<polygon fill="midnightblue" stroke="midnightblue" points="647.829,-134.956 637.812,-131.504 643.49,-140.449 647.829,-134.956"/>
</g>
<!-- Node17 -->
<g id="node17" class="node"><title>Node17</title>
<polygon fill="white" stroke="#bfbfbf" points="1204.5,-56.5 1204.5,-75.5 1248.5,-75.5 1248.5,-56.5 1204.5,-56.5"/>
<text text-anchor="middle" x="1226.5" y="-63.5" font-family="Helvetica,sans-Serif" font-size="10.00">QMap</text>
</g>
<!-- Node16&#45;&gt;Node17 -->
<g id="edge21" class="edge"><title>Node16&#45;&gt;Node17</title>
<path fill="none" stroke="midnightblue" d="M928.715,-228.97C999.655,-223.255 1112.32,-210.854 1147.5,-188 1185.76,-163.144 1209.53,-112.54 1220.09,-85.3137"/>
<polygon fill="midnightblue" stroke="midnightblue" points="1223.41,-86.4154 1223.6,-75.8221 1216.85,-83.9878 1223.41,-86.4154"/>
</g>
<!-- Node18 -->
<g id="node18" class="node"><title>Node18</title>
<polygon fill="white" stroke="#bfbfbf" points="732,-168.5 732,-187.5 811,-187.5 811,-168.5 732,-168.5"/>
<text text-anchor="middle" x="771.5" y="-175.5" font-family="Helvetica,sans-Serif" font-size="10.00">QMetaObject</text>
</g>
<!-- Node16&#45;&gt;Node18 -->
<g id="edge23" class="edge"><title>Node16&#45;&gt;Node18</title>
<path fill="none" stroke="midnightblue" d="M852.915,-224.324C837.501,-215.743 813.688,-202.486 795.79,-192.522"/>
<polygon fill="midnightblue" stroke="midnightblue" points="797.486,-189.461 787.046,-187.655 794.081,-195.577 797.486,-189.461"/>
</g>
<!-- Node19 -->
<g id="node19" class="node"><title>Node19</title>
<polygon fill="white" stroke="#bfbfbf" points="829,-168.5 829,-187.5 928,-187.5 928,-168.5 829,-168.5"/>
<text text-anchor="middle" x="878.5" y="-175.5" font-family="Helvetica,sans-Serif" font-size="10.00">QCoreApplication</text>
</g>
<!-- Node16&#45;&gt;Node19 -->
<g id="edge24" class="edge"><title>Node16&#45;&gt;Node19</title>
<path fill="none" stroke="midnightblue" d="M870.151,-224.083C871.476,-216.927 873.382,-206.635 875.039,-197.691"/>
<polygon fill="midnightblue" stroke="midnightblue" points="878.5,-198.221 876.879,-187.751 871.617,-196.947 878.5,-198.221"/>
</g>
<!-- Node20 -->
<g id="node20" class="node"><title>Node20</title>
<g id="a_node20"><a xlink:href="../../d4/d11/torchttphandler_8h.html" target="_top" xlink:title="torchttphandler.h">
<polygon fill="white" stroke="black" points="1023,-168.5 1023,-187.5 1122,-187.5 1122,-168.5 1023,-168.5"/>
<text text-anchor="middle" x="1072.5" y="-175.5" font-family="Helvetica,sans-Serif" font-size="10.00">torchttphandler.h</text>
</a>
</g>
</g>
<!-- Node16&#45;&gt;Node20 -->
<g id="edge25" class="edge"><title>Node16&#45;&gt;Node20</title>
<path fill="none" stroke="midnightblue" d="M900.824,-224.444C935.889,-215.162 991.998,-200.309 1030.46,-190.127"/>
<polygon fill="midnightblue" stroke="midnightblue" points="1031.56,-193.459 1040.33,-187.516 1029.76,-186.692 1031.56,-193.459"/>
</g>
<!-- Node22 -->
<g id="node22" class="node"><title>Node22</title>
<g id="a_node22"><a xlink:href="../../df/dd7/torchttprequest_8h.html" target="_top" xlink:title="torchttprequest.h">
<polygon fill="white" stroke="black" points="1050,-112.5 1050,-131.5 1151,-131.5 1151,-112.5 1050,-112.5"/>
<text text-anchor="middle" x="1100.5" y="-119.5" font-family="Helvetica,sans-Serif" font-size="10.00">torchttprequest.h</text>
</a>
</g>
</g>
<!-- Node16&#45;&gt;Node22 -->
<g id="edge36" class="edge"><title>Node16&#45;&gt;Node22</title>
<path fill="none" stroke="midnightblue" d="M928.699,-231.382C998.15,-228.096 1106.08,-218.143 1131.5,-188 1143.76,-173.46 1130.5,-153.245 1117.72,-139.235"/>
<polygon fill="midnightblue" stroke="midnightblue" points="1119.94,-136.5 1110.45,-131.794 1114.94,-141.392 1119.94,-136.5"/>
</g>
<!-- Node20&#45;&gt;Node12 -->
<g id="edge26" class="edge"><title>Node20&#45;&gt;Node12</title>
<path fill="none" stroke="midnightblue" d="M1027.76,-168.433C1001.57,-161.763 968.943,-150.447 944.5,-132 928.003,-119.55 915.086,-99.4736 907.194,-84.9243"/>
<polygon fill="midnightblue" stroke="midnightblue" points="910.237,-83.1884 902.551,-75.8963 904.012,-86.3899 910.237,-83.1884"/>
</g>
<!-- Node21 -->
<g id="node21" class="node"><title>Node21</title>
<polygon fill="white" stroke="#bfbfbf" points="953.5,-112.5 953.5,-131.5 1031.5,-131.5 1031.5,-112.5 953.5,-112.5"/>
<text text-anchor="middle" x="992.5" y="-119.5" font-family="Helvetica,sans-Serif" font-size="10.00">QVariantMap</text>
</g>
<!-- Node20&#45;&gt;Node21 -->
<g id="edge27" class="edge"><title>Node20&#45;&gt;Node21</title>
<path fill="none" stroke="midnightblue" d="M1059.65,-168.324C1047.28,-159.979 1028.37,-147.212 1013.76,-137.352"/>
<polygon fill="midnightblue" stroke="midnightblue" points="1015.57,-134.348 1005.32,-131.655 1011.65,-140.15 1015.57,-134.348"/>
</g>
<!-- Node20&#45;&gt;Node22 -->
<g id="edge28" class="edge"><title>Node20&#45;&gt;Node22</title>
<path fill="none" stroke="midnightblue" d="M1077.12,-168.083C1080.96,-160.691 1086.52,-149.953 1091.26,-140.811"/>
<polygon fill="midnightblue" stroke="midnightblue" points="1094.47,-142.24 1095.96,-131.751 1088.25,-139.018 1094.47,-142.24"/>
</g>
<!-- Node22&#45;&gt;Node12 -->
<g id="edge31" class="edge"><title>Node22&#45;&gt;Node12</title>
<path fill="none" stroke="midnightblue" d="M1068.49,-112.444C1032.14,-102.725 972.937,-86.8991 934.866,-76.7216"/>
<polygon fill="midnightblue" stroke="midnightblue" points="935.762,-73.3382 925.197,-74.1368 933.954,-80.1007 935.762,-73.3382"/>
</g>
<!-- Node22&#45;&gt;Node17 -->
<g id="edge29" class="edge"><title>Node22&#45;&gt;Node17</title>
<path fill="none" stroke="midnightblue" d="M1120.47,-112.444C1141.11,-103.596 1173.56,-89.6875 1197.13,-79.5865"/>
<polygon fill="midnightblue" stroke="midnightblue" points="1198.82,-82.6727 1206.63,-75.5164 1196.06,-76.2387 1198.82,-82.6727"/>
</g>
<!-- Node23 -->
<g id="node23" class="node"><title>Node23</title>
<polygon fill="white" stroke="#bfbfbf" points="943,-56.5 943,-75.5 984,-75.5 984,-56.5 943,-56.5"/>
<text text-anchor="middle" x="963.5" y="-63.5" font-family="Helvetica,sans-Serif" font-size="10.00">QPair</text>
</g>
<!-- Node22&#45;&gt;Node23 -->
<g id="edge30" class="edge"><title>Node22&#45;&gt;Node23</title>
<path fill="none" stroke="midnightblue" d="M1078.79,-112.444C1055.88,-103.412 1019.59,-89.1067 993.846,-78.9612"/>
<polygon fill="midnightblue" stroke="midnightblue" points="994.797,-75.5738 984.21,-75.1629 992.23,-82.0862 994.797,-75.5738"/>
</g>
<!-- Node24 -->
<g id="node24" class="node"><title>Node24</title>
<polygon fill="white" stroke="#bfbfbf" points="1002,-56.5 1002,-75.5 1073,-75.5 1073,-56.5 1002,-56.5"/>
<text text-anchor="middle" x="1037.5" y="-63.5" font-family="Helvetica,sans-Serif" font-size="10.00">QDateTime</text>
</g>
<!-- Node22&#45;&gt;Node24 -->
<g id="edge32" class="edge"><title>Node22&#45;&gt;Node24</title>
<path fill="none" stroke="midnightblue" d="M1090.38,-112.324C1080.97,-104.263 1066.76,-92.0765 1055.43,-82.3695"/>
<polygon fill="midnightblue" stroke="midnightblue" points="1057.68,-79.6844 1047.81,-75.8339 1053.12,-84.9993 1057.68,-79.6844"/>
</g>
<!-- Node25 -->
<g id="node25" class="node"><title>Node25</title>
<g id="a_node25"><a xlink:href="../../de/de6/torchttpreader_8h.html" target="_top" xlink:title="torchttpreader.h">
<polygon fill="white" stroke="black" points="1091,-56.5 1091,-75.5 1186,-75.5 1186,-56.5 1091,-56.5"/>
<text text-anchor="middle" x="1138.5" y="-63.5" font-family="Helvetica,sans-Serif" font-size="10.00">torchttpreader.h</text>
</a>
</g>
</g>
<!-- Node22&#45;&gt;Node25 -->
<g id="edge33" class="edge"><title>Node22&#45;&gt;Node25</title>
<path fill="none" stroke="midnightblue" d="M1106.77,-112.083C1112.14,-104.455 1120.02,-93.2645 1126.58,-83.9408"/>
<polygon fill="midnightblue" stroke="midnightblue" points="1129.45,-85.9434 1132.34,-75.7511 1123.72,-81.9149 1129.45,-85.9434"/>
</g>
<!-- Node26 -->
<g id="node26" class="node"><title>Node26</title>
<polygon fill="white" stroke="#bfbfbf" points="1058,-0.5 1058,-19.5 1129,-19.5 1129,-0.5 1058,-0.5"/>
<text text-anchor="middle" x="1093.5" y="-7.5" font-family="Helvetica,sans-Serif" font-size="10.00">QByteArray</text>
</g>
<!-- Node25&#45;&gt;Node26 -->
<g id="edge34" class="edge"><title>Node25&#45;&gt;Node26</title>
<path fill="none" stroke="midnightblue" d="M1131.07,-56.083C1124.65,-48.3768 1115.19,-37.0333 1107.38,-27.6531"/>
<polygon fill="midnightblue" stroke="midnightblue" points="1109.88,-25.1927 1100.79,-19.7511 1104.51,-29.674 1109.88,-25.1927"/>
</g>
<!-- Node27 -->
<g id="node27" class="node"><title>Node27</title>
<polygon fill="white" stroke="#bfbfbf" points="1147.5,-0.5 1147.5,-19.5 1219.5,-19.5 1219.5,-0.5 1147.5,-0.5"/>
<text text-anchor="middle" x="1183.5" y="-7.5" font-family="Helvetica,sans-Serif" font-size="10.00">QTcpSocket</text>
</g>
<!-- Node25&#45;&gt;Node27 -->
<g id="edge35" class="edge"><title>Node25&#45;&gt;Node27</title>
<path fill="none" stroke="midnightblue" d="M1145.93,-56.083C1152.35,-48.3768 1161.81,-37.0333 1169.62,-27.6531"/>
<polygon fill="midnightblue" stroke="midnightblue" points="1172.49,-29.674 1176.21,-19.7511 1167.12,-25.1927 1172.49,-29.674"/>
</g>
<!-- Node28&#45;&gt;Node6 -->
<g id="edge40" class="edge"><title>Node28&#45;&gt;Node6</title>
<path fill="none" stroke="midnightblue" d="M538.995,-448.075C549.271,-421.832 579.533,-344.545 593.406,-309.117"/>
<polygon fill="midnightblue" stroke="midnightblue" points="596.758,-310.156 597.145,-299.568 590.24,-307.604 596.758,-310.156"/>
</g>
<!-- Node28&#45;&gt;Node7 -->
<g id="edge39" class="edge"><title>Node28&#45;&gt;Node7</title>
<path fill="none" stroke="midnightblue" d="M498.626,-455.007C437.096,-450.941 317.199,-439.617 286.5,-412 264.124,-391.87 267.5,-377.098 267.5,-347 267.5,-347 267.5,-347 267.5,-289 267.5,-218.339 499.109,-154.235 590.781,-131.629"/>
<polygon fill="midnightblue" stroke="midnightblue" points="591.849,-134.971 600.736,-129.202 590.191,-128.17 591.849,-134.971"/>
</g>
<!-- Node28&#45;&gt;Node17 -->
<g id="edge38" class="edge"><title>Node28&#45;&gt;Node17</title>
<path fill="none" stroke="midnightblue" d="M572.163,-455.077C715.018,-447.104 1226.5,-413.888 1226.5,-347 1226.5,-347 1226.5,-347 1226.5,-177 1226.5,-144.948 1226.5,-107.643 1226.5,-85.7489"/>
<polygon fill="midnightblue" stroke="midnightblue" points="1230,-85.5577 1226.5,-75.5578 1223,-85.5578 1230,-85.5577"/>
</g>
<!-- Node29 -->
<g id="node29" class="node"><title>Node29</title>
<g id="a_node29"><a xlink:href="../../d9/dc5/torcpiswitchoutput_8h.html" target="_top" xlink:title="torcpiswitchoutput.h">
<polygon fill="white" stroke="black" points="421,-392.5 421,-411.5 534,-411.5 534,-392.5 421,-392.5"/>
<text text-anchor="middle" x="477.5" y="-399.5" font-family="Helvetica,sans-Serif" font-size="10.00">torcpiswitchoutput.h</text>
</a>
</g>
</g>
<!-- Node28&#45;&gt;Node29 -->
<g id="edge41" class="edge"><title>Node28&#45;&gt;Node29</title>
<path fill="none" stroke="midnightblue" d="M526.181,-448.324C517.607,-440.341 504.688,-428.313 494.312,-418.653"/>
<polygon fill="midnightblue" stroke="midnightblue" points="496.692,-416.086 486.988,-411.834 491.922,-421.21 496.692,-416.086"/>
</g>
<!-- Node32 -->
<g id="node32" class="node"><title>Node32</title>
<g id="a_node32"><a xlink:href="../../d6/d3c/torcpipwmoutput_8h.html" target="_top" xlink:title="torcpipwmoutput.h">
<polygon fill="white" stroke="black" points="296,-392.5 296,-411.5 403,-411.5 403,-392.5 296,-392.5"/>
<text text-anchor="middle" x="349.5" y="-399.5" font-family="Helvetica,sans-Serif" font-size="10.00">torcpipwmoutput.h</text>
</a>
</g>
</g>
<!-- Node28&#45;&gt;Node32 -->
<g id="edge49" class="edge"><title>Node28&#45;&gt;Node32</title>
<path fill="none" stroke="midnightblue" d="M506.028,-448.444C474.329,-439.241 423.768,-424.562 388.725,-414.388"/>
<polygon fill="midnightblue" stroke="midnightblue" points="389.414,-410.943 378.834,-411.516 387.462,-417.666 389.414,-410.943"/>
</g>
<!-- Node34 -->
<g id="node34" class="node"><title>Node34</title>
<g id="a_node34"><a xlink:href="../../d6/d66/torcpiswitchinput_8h.html" target="_top" xlink:title="torcpiswitchinput.h">
<polygon fill="white" stroke="black" points="628.5,-392.5 628.5,-411.5 734.5,-411.5 734.5,-392.5 628.5,-392.5"/>
<text text-anchor="middle" x="681.5" y="-399.5" font-family="Helvetica,sans-Serif" font-size="10.00">torcpiswitchinput.h</text>
</a>
</g>
</g>
<!-- Node28&#45;&gt;Node34 -->
<g id="edge52" class="edge"><title>Node28&#45;&gt;Node34</title>
<path fill="none" stroke="midnightblue" d="M558.634,-448.444C582.982,-439.438 621.507,-425.189 648.923,-415.049"/>
<polygon fill="midnightblue" stroke="midnightblue" points="650.309,-418.268 658.474,-411.516 647.881,-411.703 650.309,-418.268"/>
</g>
<!-- Node30 -->
<g id="node30" class="node"><title>Node30</title>
<g id="a_node30"><a xlink:href="../../db/d9e/torcswitchoutput_8h.html" target="_top" xlink:title="torcswitchoutput.h">
<polygon fill="white" stroke="black" points="427,-336.5 427,-355.5 532,-355.5 532,-336.5 427,-336.5"/>
<text text-anchor="middle" x="479.5" y="-343.5" font-family="Helvetica,sans-Serif" font-size="10.00">torcswitchoutput.h</text>
</a>
</g>
</g>
<!-- Node29&#45;&gt;Node30 -->
<g id="edge42" class="edge"><title>Node29&#45;&gt;Node30</title>
<path fill="none" stroke="midnightblue" d="M477.83,-392.083C478.092,-385.006 478.468,-374.861 478.797,-365.986"/>
<polygon fill="midnightblue" stroke="midnightblue" points="482.303,-365.874 479.176,-355.751 475.308,-365.615 482.303,-365.874"/>
</g>
<!-- Node31 -->
<g id="node31" class="node"><title>Node31</title>
<g id="a_node31"><a xlink:href="../../dc/d01/torcoutput_8h.html" target="_top" xlink:title="torcoutput.h">
<polygon fill="white" stroke="black" points="455.5,-280.5 455.5,-299.5 531.5,-299.5 531.5,-280.5 455.5,-280.5"/>
<text text-anchor="middle" x="493.5" y="-287.5" font-family="Helvetica,sans-Serif" font-size="10.00">torcoutput.h</text>
</a>
</g>
</g>
<!-- Node30&#45;&gt;Node31 -->
<g id="edge43" class="edge"><title>Node30&#45;&gt;Node31</title>
<path fill="none" stroke="midnightblue" d="M481.812,-336.083C483.667,-328.927 486.335,-318.635 488.654,-309.691"/>
<polygon fill="midnightblue" stroke="midnightblue" points="492.109,-310.309 491.231,-299.751 485.334,-308.553 492.109,-310.309"/>
</g>
<!-- Node31&#45;&gt;Node7 -->
<g id="edge44" class="edge"><title>Node31&#45;&gt;Node7</title>
<path fill="none" stroke="midnightblue" d="M494.271,-280.254C496.609,-258.63 505.419,-201.954 535.5,-168 550.159,-151.453 572.279,-140.365 591.155,-133.336"/>
<polygon fill="midnightblue" stroke="midnightblue" points="592.38,-136.615 600.674,-130.023 590.079,-130.004 592.38,-136.615"/>
</g>
<!-- Node31&#45;&gt;Node8 -->
<g id="edge45" class="edge"><title>Node31&#45;&gt;Node8</title>
<path fill="none" stroke="midnightblue" d="M500.152,-280.472C507.106,-271.494 518.27,-256.9 527.5,-244 538.985,-227.948 551.56,-209.252 560.314,-196.043"/>
<polygon fill="midnightblue" stroke="midnightblue" points="563.357,-197.785 565.943,-187.51 557.514,-193.93 563.357,-197.785"/>
</g>
<!-- Node31&#45;&gt;Node10 -->
<g id="edge48" class="edge"><title>Node31&#45;&gt;Node10</title>
<path fill="none" stroke="midnightblue" d="M485.904,-280.083C479.273,-272.298 469.479,-260.801 461.442,-251.367"/>
<polygon fill="midnightblue" stroke="midnightblue" points="464.104,-249.094 454.955,-243.751 458.775,-253.633 464.104,-249.094"/>
</g>
<!-- Node31&#45;&gt;Node13 -->
<g id="edge46" class="edge"><title>Node31&#45;&gt;Node13</title>
<path fill="none" stroke="midnightblue" d="M462.025,-280.498C428.984,-271.542 375.539,-256.966 329.5,-244 264.006,-225.555 187.993,-203.45 143.2,-190.351"/>
<polygon fill="midnightblue" stroke="midnightblue" points="144.171,-186.988 133.59,-187.539 142.205,-193.707 144.171,-186.988"/>
</g>
<!-- Node31&#45;&gt;Node16 -->
<g id="edge47" class="edge"><title>Node31&#45;&gt;Node16</title>
<path fill="none" stroke="midnightblue" d="M531.583,-283.247C538.858,-282.159 546.413,-281.038 553.5,-280 637.682,-267.673 734.583,-253.892 798.431,-244.867"/>
<polygon fill="midnightblue" stroke="midnightblue" points="798.976,-248.325 808.388,-243.46 797.996,-241.394 798.976,-248.325"/>
</g>
<!-- Node33 -->
<g id="node33" class="node"><title>Node33</title>
<g id="a_node33"><a xlink:href="../../df/d6c/torcpwmoutput_8h.html" target="_top" xlink:title="torcpwmoutput.h">
<polygon fill="white" stroke="black" points="305.5,-336.5 305.5,-355.5 403.5,-355.5 403.5,-336.5 305.5,-336.5"/>
<text text-anchor="middle" x="354.5" y="-343.5" font-family="Helvetica,sans-Serif" font-size="10.00">torcpwmoutput.h</text>
</a>
</g>
</g>
<!-- Node32&#45;&gt;Node33 -->
<g id="edge50" class="edge"><title>Node32&#45;&gt;Node33</title>
<path fill="none" stroke="midnightblue" d="M350.326,-392.083C350.981,-385.006 351.92,-374.861 352.742,-365.986"/>
<polygon fill="midnightblue" stroke="midnightblue" points="356.253,-366.031 353.69,-355.751 349.283,-365.386 356.253,-366.031"/>
</g>
<!-- Node33&#45;&gt;Node31 -->
<g id="edge51" class="edge"><title>Node33&#45;&gt;Node31</title>
<path fill="none" stroke="midnightblue" d="M376.525,-336.444C399.604,-327.478 436.062,-313.314 462.141,-303.183"/>
<polygon fill="midnightblue" stroke="midnightblue" points="463.524,-306.4 471.578,-299.516 460.989,-299.875 463.524,-306.4"/>
</g>
<!-- Node35 -->
<g id="node35" class="node"><title>Node35</title>
<polygon fill="white" stroke="#bfbfbf" points="745,-336.5 745,-355.5 784,-355.5 784,-336.5 745,-336.5"/>
<text text-anchor="middle" x="764.5" y="-343.5" font-family="Helvetica,sans-Serif" font-size="10.00">QFile</text>
</g>
<!-- Node34&#45;&gt;Node35 -->
<g id="edge53" class="edge"><title>Node34&#45;&gt;Node35</title>
<path fill="none" stroke="midnightblue" d="M694.835,-392.324C707.662,-383.979 727.285,-371.212 742.44,-361.352"/>
<polygon fill="midnightblue" stroke="midnightblue" points="744.724,-364.042 751.198,-355.655 740.907,-358.174 744.724,-364.042"/>
</g>
<!-- Node36 -->
<g id="node36" class="node"><title>Node36</title>
<g id="a_node36"><a xlink:href="../../dd/db0/torcqthread_8h.html" target="_top" xlink:title="torcqthread.h">
<polygon fill="white" stroke="black" points="802.5,-336.5 802.5,-355.5 884.5,-355.5 884.5,-336.5 802.5,-336.5"/>
<text text-anchor="middle" x="843.5" y="-343.5" font-family="Helvetica,sans-Serif" font-size="10.00">torcqthread.h</text>
</a>
</g>
</g>
<!-- Node34&#45;&gt;Node36 -->
<g id="edge54" class="edge"><title>Node34&#45;&gt;Node36</title>
<path fill="none" stroke="midnightblue" d="M707.169,-392.444C734.423,-383.359 777.684,-368.939 808.151,-358.783"/>
<polygon fill="midnightblue" stroke="midnightblue" points="809.571,-361.999 817.951,-355.516 807.357,-355.358 809.571,-361.999"/>
</g>
<!-- Node38 -->
<g id="node38" class="node"><title>Node38</title>
<g id="a_node38"><a xlink:href="../../d9/d2a/torcswitchinput_8h.html" target="_top" xlink:title="torcswitchinput.h">
<polygon fill="white" stroke="black" points="628.5,-336.5 628.5,-355.5 726.5,-355.5 726.5,-336.5 628.5,-336.5"/>
<text text-anchor="middle" x="677.5" y="-343.5" font-family="Helvetica,sans-Serif" font-size="10.00">torcswitchinput.h</text>
</a>
</g>
</g>
<!-- Node34&#45;&gt;Node38 -->
<g id="edge56" class="edge"><title>Node34&#45;&gt;Node38</title>
<path fill="none" stroke="midnightblue" d="M680.839,-392.083C680.315,-385.006 679.564,-374.861 678.906,-365.986"/>
<polygon fill="midnightblue" stroke="midnightblue" points="682.377,-365.465 678.148,-355.751 675.397,-365.982 682.377,-365.465"/>
</g>
<!-- Node37 -->
<g id="node37" class="node"><title>Node37</title>
<polygon fill="white" stroke="#bfbfbf" points="814,-280.5 814,-299.5 871,-299.5 871,-280.5 814,-280.5"/>
<text text-anchor="middle" x="842.5" y="-287.5" font-family="Helvetica,sans-Serif" font-size="10.00">QThread</text>
</g>
<!-- Node36&#45;&gt;Node37 -->
<g id="edge55" class="edge"><title>Node36&#45;&gt;Node37</title>
<path fill="none" stroke="midnightblue" d="M843.335,-336.083C843.204,-329.006 843.016,-318.861 842.852,-309.986"/>
<polygon fill="midnightblue" stroke="midnightblue" points="846.347,-309.685 842.662,-299.751 839.348,-309.814 846.347,-309.685"/>
</g>
<!-- Node39 -->
<g id="node39" class="node"><title>Node39</title>
<g id="a_node39"><a xlink:href="../../dd/d69/torcinput_8h.html" target="_top" xlink:title="torcinput.h">
<polygon fill="white" stroke="black" points="663.5,-280.5 663.5,-299.5 731.5,-299.5 731.5,-280.5 663.5,-280.5"/>
<text text-anchor="middle" x="697.5" y="-287.5" font-family="Helvetica,sans-Serif" font-size="10.00">torcinput.h</text>
</a>
</g>
</g>
<!-- Node38&#45;&gt;Node39 -->
<g id="edge57" class="edge"><title>Node38&#45;&gt;Node39</title>
<path fill="none" stroke="midnightblue" d="M680.803,-336.083C683.482,-328.849 687.349,-318.409 690.686,-309.397"/>
<polygon fill="midnightblue" stroke="midnightblue" points="694.068,-310.344 694.259,-299.751 687.504,-307.913 694.068,-310.344"/>
</g>
<!-- Node39&#45;&gt;Node7 -->
<g id="edge58" class="edge"><title>Node39&#45;&gt;Node7</title>
<path fill="none" stroke="midnightblue" d="M693.736,-280.075C682.67,-253.832 650.079,-176.545 635.14,-141.117"/>
<polygon fill="midnightblue" stroke="midnightblue" points="638.224,-139.422 631.113,-131.568 631.774,-142.142 638.224,-139.422"/>
</g>
<!-- Node39&#45;&gt;Node8 -->
<g id="edge59" class="edge"><title>Node39&#45;&gt;Node8</title>
<path fill="none" stroke="midnightblue" d="M687.613,-280.368C666.359,-261.814 616.073,-217.913 589.183,-194.438"/>
<polygon fill="midnightblue" stroke="midnightblue" points="591.176,-191.531 581.341,-187.591 586.572,-196.805 591.176,-191.531"/>
</g>
<!-- Node39&#45;&gt;Node10 -->
<g id="edge61" class="edge"><title>Node39&#45;&gt;Node10</title>
<path fill="none" stroke="midnightblue" d="M663.263,-281.605C619.816,-272.22 544.629,-255.98 495.478,-245.363"/>
<polygon fill="midnightblue" stroke="midnightblue" points="495.92,-241.878 485.406,-243.188 494.442,-248.72 495.92,-241.878"/>
</g>
<!-- Node39&#45;&gt;Node16 -->
<g id="edge60" class="edge"><title>Node39&#45;&gt;Node16</title>
<path fill="none" stroke="midnightblue" d="M724.595,-280.444C753.488,-271.32 799.425,-256.813 831.605,-246.651"/>
<polygon fill="midnightblue" stroke="midnightblue" points="833.049,-249.865 841.531,-243.516 830.941,-243.19 833.049,-249.865"/>
</g>
<!-- Node40&#45;&gt;Node6 -->
<g id="edge67" class="edge"><title>Node40&#45;&gt;Node6</title>
<path fill="none" stroke="midnightblue" d="M902.369,-337.591C899.371,-337.037 896.387,-336.5 893.5,-336 787.653,-317.683 760.594,-316.83 654.5,-300 652.79,-299.729 651.05,-299.45 649.292,-299.168"/>
<polygon fill="midnightblue" stroke="midnightblue" points="649.562,-295.666 639.13,-297.514 648.438,-302.575 649.562,-295.666"/>
</g>
<!-- Node40&#45;&gt;Node7 -->
<g id="edge64" class="edge"><title>Node40&#45;&gt;Node7</title>
<path fill="none" stroke="midnightblue" d="M940.839,-336.124C945.5,-303.836 959.561,-193.206 937.5,-168 902.337,-127.825 738.758,-122.805 664.428,-122.647"/>
<polygon fill="midnightblue" stroke="midnightblue" points="664.132,-119.147 654.135,-122.656 664.138,-126.147 664.132,-119.147"/>
</g>
<!-- Node40&#45;&gt;Node16 -->
<g id="edge65" class="edge"><title>Node40&#45;&gt;Node16</title>
<path fill="none" stroke="midnightblue" d="M933.929,-336.368C922.264,-318.296 895.077,-276.176 879.671,-252.307"/>
<polygon fill="midnightblue" stroke="midnightblue" points="882.409,-250.095 874.045,-243.591 876.528,-253.891 882.409,-250.095"/>
</g>
<!-- Node40&#45;&gt;Node39 -->
<g id="edge66" class="edge"><title>Node40&#45;&gt;Node39</title>
<path fill="none" stroke="midnightblue" d="M902.482,-336.74C859.275,-327.099 787.879,-311.167 741.776,-300.88"/>
<polygon fill="midnightblue" stroke="midnightblue" points="742.295,-297.41 731.773,-298.648 740.771,-304.242 742.295,-297.41"/>
</g>
<!-- Node41 -->
<g id="node41" class="node"><title>Node41</title>
<polygon fill="white" stroke="#bfbfbf" points="966,-280.5 966,-299.5 1007,-299.5 1007,-280.5 966,-280.5"/>
<text text-anchor="middle" x="986.5" y="-287.5" font-family="Helvetica,sans-Serif" font-size="10.00">QList</text>
</g>
<!-- Node40&#45;&gt;Node41 -->
<g id="edge63" class="edge"><title>Node40&#45;&gt;Node41</title>
<path fill="none" stroke="midnightblue" d="M947.261,-336.083C954.037,-328.298 964.043,-316.801 972.255,-307.367"/>
<polygon fill="midnightblue" stroke="midnightblue" points="974.958,-309.592 978.883,-299.751 969.678,-304.996 974.958,-309.592"/>
</g>
<!-- Node42&#45;&gt;Node6 -->
<g id="edge73" class="edge"><title>Node42&#45;&gt;Node6</title>
<path fill="none" stroke="midnightblue" d="M994.879,-337.444C991.71,-336.929 988.555,-336.441 985.5,-336 839.036,-314.88 801.097,-320.172 654.5,-300 652.785,-299.764 651.04,-299.516 649.279,-299.259"/>
<polygon fill="midnightblue" stroke="midnightblue" points="649.514,-295.754 639.101,-297.707 648.459,-302.674 649.514,-295.754"/>
</g>
<!-- Node42&#45;&gt;Node7 -->
<g id="edge70" class="edge"><title>Node42&#45;&gt;Node7</title>
<path fill="none" stroke="midnightblue" d="M1037.14,-336.33C1039.18,-323.62 1041.7,-299.344 1035.5,-280 1016.83,-221.746 1007.86,-199.631 955.5,-168 907.202,-138.822 740.048,-127.93 664.765,-124.439"/>
<polygon fill="midnightblue" stroke="midnightblue" points="664.496,-120.923 654.35,-123.976 664.185,-127.916 664.496,-120.923"/>
</g>
<!-- Node42&#45;&gt;Node16 -->
<g id="edge71" class="edge"><title>Node42&#45;&gt;Node16</title>
<path fill="none" stroke="midnightblue" d="M1035.45,-336.117C1034.87,-322.23 1031.71,-295.379 1016.5,-280 995.978,-259.255 966.214,-248.014 938.752,-241.945"/>
<polygon fill="midnightblue" stroke="midnightblue" points="939.253,-238.476 928.759,-239.935 937.873,-245.339 939.253,-238.476"/>
</g>
<!-- Node42&#45;&gt;Node31 -->
<g id="edge72" class="edge"><title>Node42&#45;&gt;Node31</title>
<path fill="none" stroke="midnightblue" d="M994.891,-337.358C991.719,-336.862 988.561,-336.402 985.5,-336 794.476,-310.906 744.87,-322.302 553.5,-300 549.609,-299.547 545.583,-299.035 541.542,-298.492"/>
<polygon fill="midnightblue" stroke="midnightblue" points="541.927,-295.011 531.538,-297.091 540.956,-301.944 541.927,-295.011"/>
</g>
<!-- Node42&#45;&gt;Node41 -->
<g id="edge69" class="edge"><title>Node42&#45;&gt;Node41</title>
<path fill="none" stroke="midnightblue" d="M1027.41,-336.083C1020.34,-328.298 1009.91,-316.801 1001.35,-307.367"/>
<polygon fill="midnightblue" stroke="midnightblue" points="1003.75,-304.805 994.441,-299.751 998.569,-309.509 1003.75,-304.805"/>
</g>
</g>
</svg>
        <g id="navigator" transform="translate(0 0)" fill="#404254">
                <rect fill="#f2f5e9" fill-opacity="0.5" stroke="#606060" stroke-width=".5" x="0" y="0" width="60" height="60"/>
                <use id="zoomplus" xlink:href="#zoomPlus" x="17" y="9" onmousedown="handleZoom(evt,'in')"/>
                <use id="zoomminus" xlink:href="#zoomMin" x="42" y="9" onmousedown="handleZoom(evt,'out')"/>
                <use id="reset" xlink:href="#resetDef" x="30" y="36" onmousedown="handleReset()"/>
                <g id="arrowUp" xlink:href="#dirArrow" transform="translate(30 24)" onmousedown="handlePan(0,-1)">
                  <use xlink:href="#rim" fill="#404040">
                        <set attributeName="fill" to="#808080" begin="arrowUp.mouseover" end="arrowUp.mouseout"/>
                  </use>
                  <path fill="none" stroke="white" stroke-width="1.5" d="M0,-3.0v7 M-2.5,-0.5L0,-3.0L2.5,-0.5"/>
                </g>
                <g id="arrowRight" xlink:href="#dirArrow" transform="rotate(90) translate(36 -43)" onmousedown="handlePan(1,0)">
                  <use xlink:href="#rim" fill="#404040">
                        <set attributeName="fill" to="#808080" begin="arrowRight.mouseover" end="arrowRight.mouseout"/>
                  </use>
                  <path fill="none" stroke="white" stroke-width="1.5" d="M0,-3.0v7 M-2.5,-0.5L0,-3.0L2.5,-0.5"/>
                </g>
                <g id="arrowDown" xlink:href="#dirArrow" transform="rotate(180) translate(-30 -48)" onmousedown="handlePan(0,1)">
                  <use xlink:href="#rim" fill="#404040">
                        <set attributeName="fill" to="#808080" begin="arrowDown.mouseover" end="arrowDown.mouseout"/>
                  </use>
                  <path fill="none" stroke="white" stroke-width="1.5" d="M0,-3.0v7 M-2.5,-0.5L0,-3.0L2.5,-0.5"/>
                </g>
                <g id="arrowLeft" xlink:href="#dirArrow" transform="rotate(270) translate(-36 17)" onmousedown="handlePan(-1,0)">
                  <use xlink:href="#rim" fill="#404040">
                        <set attributeName="fill" to="#808080" begin="arrowLeft.mouseover" end="arrowLeft.mouseout"/>
                  </use>
                  <path fill="none" stroke="white" stroke-width="1.5" d="M0,-3.0v7 M-2.5,-0.5L0,-3.0L2.5,-0.5"/>
                </g>
        </g>
        <svg viewBox="0 0 15 15" width="100%" height="30px" preserveAspectRatio="xMaxYMin meet">
         <g id="arrow_out" transform="scale(0.3 0.3)">
          <a xlink:href="torcpigpio_8cpp__incl_org.svg" target="_base">
           <rect id="button" ry="5" rx="5" y="6" x="6" height="38" width="38"
                fill="#f2f5e9" fill-opacity="0.5" stroke="#606060" stroke-width="1.0"/>
           <path id="arrow"
             d="M 11.500037,31.436501 C 11.940474,20.09759 22.043105,11.32322 32.158766,21.979434 L 37.068811,17.246167 C 37.068811,17.246167 37.088388,32 37.088388,32 L 22.160133,31.978069 C 22.160133,31.978069 26.997745,27.140456 26.997745,27.140456 C 18.528582,18.264221 13.291696,25.230495 11.500037,31.436501 z"
             style="fill:#404040;"/>
          </a>
         </g>
        </svg>
</svg>
