<?xml version="1.0" encoding="UTF-8" standalone="no"?>
<!DOCTYPE svg PUBLIC "-//W3C//DTD SVG 1.1//EN"
 "http://www.w3.org/Graphics/SVG/1.1/DTD/svg11.dtd">
<!-- Generated by graphviz version 2.38.0 (20140413.2041)
 -->
<!-- Title: torcbinaryplistserialiser.cpp Pages: 1 -->
<!--zoomable 308 -->
<svg id="main" version="1.1" xmlns="http://www.w3.org/2000/svg" xmlns:xlink="http://www.w3.org/1999/xlink" xml:space="preserve" onload="init(evt)">
<style type="text/css"><![CDATA[
.edge:hover path { stroke: red; }
.edge:hover polygon { stroke: red; fill: red; }
]]></style>
<script type="text/javascript"><![CDATA[
var edges = document.getElementsByTagName('g');
if (edges && edges.length) {
  for (var i=0;i<edges.length;i++) {
    if (edges[i].id.substr(0,4)=='edge') {
      edges[i].setAttribute('class','edge');
    }
  }
}
]]></script>
        <defs>
                <circle id="rim" cx="0" cy="0" r="7"/>
                <circle id="rim2" cx="0" cy="0" r="3.5"/>
                <g id="zoomPlus">
                        <use xlink:href="#rim" fill="#404040">
                                <set attributeName="fill" to="#808080" begin="zoomplus.mouseover" end="zoomplus.mouseout"/>
                        </use>
                        <path d="M-4,0h8M0,-4v8" fill="none" stroke="white" stroke-width="1.5" pointer-events="none"/>
                </g>
                <g id="zoomMin">
                        <use xlink:href="#rim" fill="#404040">
                                <set attributeName="fill" to="#808080" begin="zoomminus.mouseover" end="zoomminus.mouseout"/>
                        </use>
                        <path d="M-4,0h8" fill="none" stroke="white" stroke-width="1.5" pointer-events="none"/>
                </g>
                <g id="dirArrow">
                        <path fill="none" stroke="white" stroke-width="1.5" d="M0,-3.0v7 M-2.5,-0.5L0,-3.0L2.5,-0.5"/>
                </g>
               <g id="resetDef">
                       <use xlink:href="#rim2" fill="#404040">
                               <set attributeName="fill" to="#808080" begin="reset.mouseover" end="reset.mouseout"/>
                       </use>
               </g>
        </defs>

<script type="text/javascript">
var viewWidth = 818;
var viewHeight = 308;
var sectionId = 'dynsection-0';
</script>
<script xlink:href="../../svgpan.js"/>
<svg id="graph" class="graph">
<g id="viewport">
<title>torcbinaryplistserialiser.cpp</title>
<polygon fill="white" stroke="none" points="-4,4 -4,-304 813.5,-304 813.5,4 -4,4"/>
<!-- Node1 -->
<g id="node1" class="node"><title>Node1</title>
<polygon fill="#bfbfbf" stroke="black" points="170.5,-280.5 170.5,-299.5 316.5,-299.5 316.5,-280.5 170.5,-280.5"/>
<text text-anchor="middle" x="243.5" y="-287.5" font-family="Helvetica,sans-Serif" font-size="10.00">torcbinaryplistserialiser.cpp</text>
</g>
<!-- Node2 -->
<g id="node2" class="node"><title>Node2</title>
<polygon fill="white" stroke="#bfbfbf" points="0,-224.5 0,-243.5 73,-243.5 73,-224.5 0,-224.5"/>
<text text-anchor="middle" x="36.5" y="-231.5" font-family="Helvetica,sans-Serif" font-size="10.00">QTextCodec</text>
</g>
<!-- Node1&#45;&gt;Node2 -->
<g id="edge1" class="edge"><title>Node1&#45;&gt;Node2</title>
<path fill="none" stroke="midnightblue" d="M210.7,-280.444C175.12,-271.162 118.186,-256.309 79.1534,-246.127"/>
<polygon fill="midnightblue" stroke="midnightblue" points="79.706,-242.654 69.1463,-243.516 77.939,-249.427 79.706,-242.654"/>
</g>
<!-- Node3 -->
<g id="node3" class="node"><title>Node3</title>
<polygon fill="white" stroke="#bfbfbf" points="91.5,-224.5 91.5,-243.5 151.5,-243.5 151.5,-224.5 91.5,-224.5"/>
<text text-anchor="middle" x="121.5" y="-231.5" font-family="Helvetica,sans-Serif" font-size="10.00">QtEndian</text>
</g>
<!-- Node1&#45;&gt;Node3 -->
<g id="edge2" class="edge"><title>Node1&#45;&gt;Node3</title>
<path fill="none" stroke="midnightblue" d="M224.169,-280.444C204.18,-271.596 172.757,-257.687 149.936,-247.586"/>
<polygon fill="midnightblue" stroke="midnightblue" points="151.302,-244.363 140.741,-243.516 148.468,-250.764 151.302,-244.363"/>
</g>
<!-- Node4 -->
<g id="node4" class="node"><title>Node4</title>
<polygon fill="white" stroke="#bfbfbf" points="169.5,-224.5 169.5,-243.5 215.5,-243.5 215.5,-224.5 169.5,-224.5"/>
<text text-anchor="middle" x="192.5" y="-231.5" font-family="Helvetica,sans-Serif" font-size="10.00">QUuid</text>
</g>
<!-- Node1&#45;&gt;Node4 -->
<g id="edge3" class="edge"><title>Node1&#45;&gt;Node4</title>
<path fill="none" stroke="midnightblue" d="M235.078,-280.083C227.652,-272.22 216.648,-260.569 207.688,-251.081"/>
<polygon fill="midnightblue" stroke="midnightblue" points="210.176,-248.618 200.765,-243.751 205.087,-253.424 210.176,-248.618"/>
</g>
<!-- Node5 -->
<g id="node5" class="node"><title>Node5</title>
<g id="a_node5"><a xlink:href="../../d4/df9/torclogging_8h.html" target="_top" xlink:title="torclogging.h">
<polygon fill="white" stroke="black" points="272,-224.5 272,-243.5 351,-243.5 351,-224.5 272,-224.5"/>
<text text-anchor="middle" x="311.5" y="-231.5" font-family="Helvetica,sans-Serif" font-size="10.00">torclogging.h</text>
</a>
</g>
</g>
<!-- Node1&#45;&gt;Node5 -->
<g id="edge4" class="edge"><title>Node1&#45;&gt;Node5</title>
<path fill="none" stroke="midnightblue" d="M254.425,-280.324C264.675,-272.185 280.221,-259.839 292.501,-250.087"/>
<polygon fill="midnightblue" stroke="midnightblue" points="294.721,-252.794 300.376,-243.834 290.368,-247.312 294.721,-252.794"/>
</g>
<!-- Node6 -->
<g id="node6" class="node"><title>Node6</title>
<polygon fill="white" stroke="#bfbfbf" points="174,-168.5 174,-187.5 227,-187.5 227,-168.5 174,-168.5"/>
<text text-anchor="middle" x="200.5" y="-175.5" font-family="Helvetica,sans-Serif" font-size="10.00">stdint.h</text>
</g>
<!-- Node1&#45;&gt;Node6 -->
<g id="edge26" class="edge"><title>Node1&#45;&gt;Node6</title>
<path fill="none" stroke="midnightblue" d="M241.583,-280.396C238.638,-267.77 232.49,-243.596 224.5,-224 220.697,-214.674 215.535,-204.751 210.973,-196.603"/>
<polygon fill="midnightblue" stroke="midnightblue" points="213.867,-194.616 205.837,-187.704 207.805,-198.115 213.867,-194.616"/>
</g>
<!-- Node9 -->
<g id="node9" class="node"><title>Node9</title>
<g id="a_node9"><a xlink:href="../../df/d76/torcplist_8h.html" target="_top" xlink:title="torcplist.h">
<polygon fill="white" stroke="black" points="409.5,-224.5 409.5,-243.5 473.5,-243.5 473.5,-224.5 409.5,-224.5"/>
<text text-anchor="middle" x="441.5" y="-231.5" font-family="Helvetica,sans-Serif" font-size="10.00">torcplist.h</text>
</a>
</g>
</g>
<!-- Node1&#45;&gt;Node9 -->
<g id="edge8" class="edge"><title>Node1&#45;&gt;Node9</title>
<path fill="none" stroke="midnightblue" d="M274.874,-280.444C308.763,-271.201 362.903,-256.436 400.224,-246.257"/>
<polygon fill="midnightblue" stroke="midnightblue" points="401.546,-249.524 410.273,-243.516 399.705,-242.771 401.546,-249.524"/>
</g>
<!-- Node12 -->
<g id="node12" class="node"><title>Node12</title>
<g id="a_node12"><a xlink:href="../../d1/df2/torcbinaryplistserialiser_8h.html" target="_top" xlink:title="torcbinaryplistserialiser.h">
<polygon fill="white" stroke="black" points="569,-224.5 569,-243.5 704,-243.5 704,-224.5 569,-224.5"/>
<text text-anchor="middle" x="636.5" y="-231.5" font-family="Helvetica,sans-Serif" font-size="10.00">torcbinaryplistserialiser.h</text>
</a>
</g>
</g>
<!-- Node1&#45;&gt;Node12 -->
<g id="edge11" class="edge"><title>Node1&#45;&gt;Node12</title>
<path fill="none" stroke="midnightblue" d="M305.772,-280.444C376.055,-270.786 490.222,-255.099 564.336,-244.916"/>
<polygon fill="midnightblue" stroke="midnightblue" points="565.089,-248.345 574.519,-243.516 564.136,-241.41 565.089,-248.345"/>
</g>
<!-- Node5&#45;&gt;Node6 -->
<g id="edge5" class="edge"><title>Node5&#45;&gt;Node6</title>
<path fill="none" stroke="midnightblue" d="M293.666,-224.324C275.784,-215.625 248.025,-202.12 227.454,-192.113"/>
<polygon fill="midnightblue" stroke="midnightblue" points="228.813,-188.882 218.29,-187.655 225.751,-195.177 228.813,-188.882"/>
</g>
<!-- Node7 -->
<g id="node7" class="node"><title>Node7</title>
<polygon fill="white" stroke="#bfbfbf" points="245,-168.5 245,-187.5 296,-187.5 296,-168.5 245,-168.5"/>
<text text-anchor="middle" x="270.5" y="-175.5" font-family="Helvetica,sans-Serif" font-size="10.00">errno.h</text>
</g>
<!-- Node5&#45;&gt;Node7 -->
<g id="edge6" class="edge"><title>Node5&#45;&gt;Node7</title>
<path fill="none" stroke="midnightblue" d="M304.73,-224.083C298.938,-216.455 290.442,-205.264 283.362,-195.941"/>
<polygon fill="midnightblue" stroke="midnightblue" points="285.979,-193.599 277.144,-187.751 280.404,-197.832 285.979,-193.599"/>
</g>
<!-- Node8 -->
<g id="node8" class="node"><title>Node8</title>
<g id="a_node8"><a xlink:href="../../d1/d37/torcloggingdefs_8h.html" target="_top" xlink:title="torcloggingdefs.h">
<polygon fill="white" stroke="black" points="314,-168.5 314,-187.5 413,-187.5 413,-168.5 314,-168.5"/>
<text text-anchor="middle" x="363.5" y="-175.5" font-family="Helvetica,sans-Serif" font-size="10.00">torcloggingdefs.h</text>
</a>
</g>
</g>
<!-- Node5&#45;&gt;Node8 -->
<g id="edge7" class="edge"><title>Node5&#45;&gt;Node8</title>
<path fill="none" stroke="midnightblue" d="M320.087,-224.083C327.659,-216.22 338.878,-204.569 348.014,-195.081"/>
<polygon fill="midnightblue" stroke="midnightblue" points="350.658,-197.382 355.073,-187.751 345.615,-192.527 350.658,-197.382"/>
</g>
<!-- Node10 -->
<g id="node10" class="node"><title>Node10</title>
<polygon fill="white" stroke="#bfbfbf" points="419.5,-112.5 419.5,-131.5 477.5,-131.5 477.5,-112.5 419.5,-112.5"/>
<text text-anchor="middle" x="448.5" y="-119.5" font-family="Helvetica,sans-Serif" font-size="10.00">QVariant</text>
</g>
<!-- Node9&#45;&gt;Node10 -->
<g id="edge9" class="edge"><title>Node9&#45;&gt;Node10</title>
<path fill="none" stroke="midnightblue" d="M442.049,-224.368C443.179,-206.617 445.785,-165.666 447.317,-141.597"/>
<polygon fill="midnightblue" stroke="midnightblue" points="450.811,-141.794 447.953,-131.591 443.825,-141.349 450.811,-141.794"/>
</g>
<!-- Node11 -->
<g id="node11" class="node"><title>Node11</title>
<polygon fill="white" stroke="#bfbfbf" points="470,-168.5 470,-187.5 575,-187.5 575,-168.5 470,-168.5"/>
<text text-anchor="middle" x="522.5" y="-175.5" font-family="Helvetica,sans-Serif" font-size="10.00">QXmlStreamWriter</text>
</g>
<!-- Node9&#45;&gt;Node11 -->
<g id="edge10" class="edge"><title>Node9&#45;&gt;Node11</title>
<path fill="none" stroke="midnightblue" d="M454.514,-224.324C467.032,-215.979 486.182,-203.212 500.971,-193.352"/>
<polygon fill="midnightblue" stroke="midnightblue" points="503.139,-196.114 509.518,-187.655 499.256,-190.289 503.139,-196.114"/>
</g>
<!-- Node13 -->
<g id="node13" class="node"><title>Node13</title>
<polygon fill="white" stroke="#bfbfbf" points="698,-168.5 698,-187.5 781,-187.5 781,-168.5 698,-168.5"/>
<text text-anchor="middle" x="739.5" y="-175.5" font-family="Helvetica,sans-Serif" font-size="10.00">QDataStream</text>
</g>
<!-- Node12&#45;&gt;Node13 -->
<g id="edge12" class="edge"><title>Node12&#45;&gt;Node13</title>
<path fill="none" stroke="midnightblue" d="M653.049,-224.324C669.492,-215.703 694.935,-202.364 713.968,-192.386"/>
<polygon fill="midnightblue" stroke="midnightblue" points="715.761,-195.398 722.992,-187.655 712.511,-189.198 715.761,-195.398"/>
</g>
<!-- Node14 -->
<g id="node14" class="node"><title>Node14</title>
<g id="a_node14"><a xlink:href="../../d1/def/torcserialiser_8h.html" target="_top" xlink:title="torcserialiser.h">
<polygon fill="white" stroke="black" points="593.5,-168.5 593.5,-187.5 679.5,-187.5 679.5,-168.5 593.5,-168.5"/>
<text text-anchor="middle" x="636.5" y="-175.5" font-family="Helvetica,sans-Serif" font-size="10.00">torcserialiser.h</text>
</a>
</g>
</g>
<!-- Node12&#45;&gt;Node14 -->
<g id="edge13" class="edge"><title>Node12&#45;&gt;Node14</title>
<path fill="none" stroke="midnightblue" d="M636.5,-224.083C636.5,-217.006 636.5,-206.861 636.5,-197.986"/>
<polygon fill="midnightblue" stroke="midnightblue" points="640,-197.751 636.5,-187.751 633,-197.751 640,-197.751"/>
</g>
<!-- Node14&#45;&gt;Node10 -->
<g id="edge14" class="edge"><title>Node14&#45;&gt;Node10</title>
<path fill="none" stroke="midnightblue" d="M606.711,-168.444C574.483,-159.186 522.965,-144.389 487.524,-134.209"/>
<polygon fill="midnightblue" stroke="midnightblue" points="488.11,-130.736 477.532,-131.339 486.177,-137.464 488.11,-130.736"/>
</g>
<!-- Node15 -->
<g id="node15" class="node"><title>Node15</title>
<polygon fill="white" stroke="#bfbfbf" points="676,-112.5 676,-131.5 745,-131.5 745,-112.5 676,-112.5"/>
<text text-anchor="middle" x="710.5" y="-119.5" font-family="Helvetica,sans-Serif" font-size="10.00">QStringList</text>
</g>
<!-- Node14&#45;&gt;Node15 -->
<g id="edge15" class="edge"><title>Node14&#45;&gt;Node15</title>
<path fill="none" stroke="midnightblue" d="M648.389,-168.324C659.65,-160.107 676.787,-147.602 690.209,-137.807"/>
<polygon fill="midnightblue" stroke="midnightblue" points="692.38,-140.556 698.394,-131.834 688.253,-134.901 692.38,-140.556"/>
</g>
<!-- Node16 -->
<g id="node16" class="node"><title>Node16</title>
<polygon fill="white" stroke="#bfbfbf" points="765.5,-56.5 765.5,-75.5 809.5,-75.5 809.5,-56.5 765.5,-56.5"/>
<text text-anchor="middle" x="787.5" y="-63.5" font-family="Helvetica,sans-Serif" font-size="10.00">QMap</text>
</g>
<!-- Node14&#45;&gt;Node16 -->
<g id="edge16" class="edge"><title>Node14&#45;&gt;Node16</title>
<path fill="none" stroke="midnightblue" d="M679.569,-168.655C703.907,-162.109 733.556,-150.844 754.5,-132 768.295,-119.588 777.113,-100.071 782.13,-85.6597"/>
<polygon fill="midnightblue" stroke="midnightblue" points="785.559,-86.4267 785.245,-75.8365 778.886,-84.3107 785.559,-86.4267"/>
</g>
<!-- Node17 -->
<g id="node17" class="node"><title>Node17</title>
<polygon fill="white" stroke="#bfbfbf" points="433,-56.5 433,-75.5 504,-75.5 504,-56.5 433,-56.5"/>
<text text-anchor="middle" x="468.5" y="-63.5" font-family="Helvetica,sans-Serif" font-size="10.00">QDateTime</text>
</g>
<!-- Node14&#45;&gt;Node17 -->
<g id="edge17" class="edge"><title>Node14&#45;&gt;Node17</title>
<path fill="none" stroke="midnightblue" d="M616.974,-168.455C598.699,-160.127 570.928,-146.614 548.5,-132 525.476,-116.997 501.288,-96.6049 485.617,-82.6871"/>
<polygon fill="midnightblue" stroke="midnightblue" points="487.624,-79.7841 477.849,-75.6965 482.941,-84.9874 487.624,-79.7841"/>
</g>
<!-- Node18 -->
<g id="node18" class="node"><title>Node18</title>
<g id="a_node18"><a xlink:href="../../df/dd7/torchttprequest_8h.html" target="_top" xlink:title="torchttprequest.h">
<polygon fill="white" stroke="black" points="557,-112.5 557,-131.5 658,-131.5 658,-112.5 557,-112.5"/>
<text text-anchor="middle" x="607.5" y="-119.5" font-family="Helvetica,sans-Serif" font-size="10.00">torchttprequest.h</text>
</a>
</g>
</g>
<!-- Node14&#45;&gt;Node18 -->
<g id="edge18" class="edge"><title>Node14&#45;&gt;Node18</title>
<path fill="none" stroke="midnightblue" d="M631.711,-168.083C627.742,-160.691 621.975,-149.953 617.065,-140.811"/>
<polygon fill="midnightblue" stroke="midnightblue" points="620.014,-138.905 612.2,-131.751 613.847,-142.217 620.014,-138.905"/>
</g>
<!-- Node18&#45;&gt;Node16 -->
<g id="edge19" class="edge"><title>Node18&#45;&gt;Node16</title>
<path fill="none" stroke="midnightblue" d="M636.022,-112.444C668.543,-102.687 721.579,-86.7764 755.488,-76.6036"/>
<polygon fill="midnightblue" stroke="midnightblue" points="756.781,-79.8698 765.354,-73.6439 754.77,-73.165 756.781,-79.8698"/>
</g>
<!-- Node18&#45;&gt;Node17 -->
<g id="edge22" class="edge"><title>Node18&#45;&gt;Node17</title>
<path fill="none" stroke="midnightblue" d="M585.475,-112.444C562.396,-103.478 525.938,-89.314 499.859,-79.1827"/>
<polygon fill="midnightblue" stroke="midnightblue" points="501.011,-75.8753 490.422,-75.5164 498.476,-82.4002 501.011,-75.8753"/>
</g>
<!-- Node19 -->
<g id="node19" class="node"><title>Node19</title>
<polygon fill="white" stroke="#bfbfbf" points="522,-56.5 522,-75.5 563,-75.5 563,-56.5 522,-56.5"/>
<text text-anchor="middle" x="542.5" y="-63.5" font-family="Helvetica,sans-Serif" font-size="10.00">QPair</text>
</g>
<!-- Node18&#45;&gt;Node19 -->
<g id="edge20" class="edge"><title>Node18&#45;&gt;Node19</title>
<path fill="none" stroke="midnightblue" d="M597.057,-112.324C587.354,-104.263 572.685,-92.0765 561,-82.3695"/>
<polygon fill="midnightblue" stroke="midnightblue" points="563.062,-79.532 553.133,-75.8339 558.589,-84.9163 563.062,-79.532"/>
</g>
<!-- Node20 -->
<g id="node20" class="node"><title>Node20</title>
<polygon fill="white" stroke="#bfbfbf" points="581,-56.5 581,-75.5 634,-75.5 634,-56.5 581,-56.5"/>
<text text-anchor="middle" x="607.5" y="-63.5" font-family="Helvetica,sans-Serif" font-size="10.00">QString</text>
</g>
<!-- Node18&#45;&gt;Node20 -->
<g id="edge21" class="edge"><title>Node18&#45;&gt;Node20</title>
<path fill="none" stroke="midnightblue" d="M607.5,-112.083C607.5,-105.006 607.5,-94.8611 607.5,-85.9865"/>
<polygon fill="midnightblue" stroke="midnightblue" points="611,-85.751 607.5,-75.7511 604,-85.7511 611,-85.751"/>
</g>
<!-- Node21 -->
<g id="node21" class="node"><title>Node21</title>
<g id="a_node21"><a xlink:href="../../de/de6/torchttpreader_8h.html" target="_top" xlink:title="torchttpreader.h">
<polygon fill="white" stroke="black" points="652,-56.5 652,-75.5 747,-75.5 747,-56.5 652,-56.5"/>
<text text-anchor="middle" x="699.5" y="-63.5" font-family="Helvetica,sans-Serif" font-size="10.00">torchttpreader.h</text>
</a>
</g>
</g>
<!-- Node18&#45;&gt;Node21 -->
<g id="edge23" class="edge"><title>Node18&#45;&gt;Node21</title>
<path fill="none" stroke="midnightblue" d="M622.281,-112.324C636.767,-103.822 659.073,-90.7288 675.993,-80.7975"/>
<polygon fill="midnightblue" stroke="midnightblue" points="677.903,-83.735 684.755,-75.6545 674.359,-77.6981 677.903,-83.735"/>
</g>
<!-- Node22 -->
<g id="node22" class="node"><title>Node22</title>
<polygon fill="white" stroke="#bfbfbf" points="619,-0.5 619,-19.5 690,-19.5 690,-0.5 619,-0.5"/>
<text text-anchor="middle" x="654.5" y="-7.5" font-family="Helvetica,sans-Serif" font-size="10.00">QByteArray</text>
</g>
<!-- Node21&#45;&gt;Node22 -->
<g id="edge24" class="edge"><title>Node21&#45;&gt;Node22</title>
<path fill="none" stroke="midnightblue" d="M692.069,-56.083C685.647,-48.3768 676.194,-37.0333 668.378,-27.6531"/>
<polygon fill="midnightblue" stroke="midnightblue" points="670.883,-25.1927 661.793,-19.7511 665.506,-29.674 670.883,-25.1927"/>
</g>
<!-- Node23 -->
<g id="node23" class="node"><title>Node23</title>
<polygon fill="white" stroke="#bfbfbf" points="708.5,-0.5 708.5,-19.5 780.5,-19.5 780.5,-0.5 708.5,-0.5"/>
<text text-anchor="middle" x="744.5" y="-7.5" font-family="Helvetica,sans-Serif" font-size="10.00">QTcpSocket</text>
</g>
<!-- Node21&#45;&gt;Node23 -->
<g id="edge25" class="edge"><title>Node21&#45;&gt;Node23</title>
<path fill="none" stroke="midnightblue" d="M706.931,-56.083C713.353,-48.3768 722.806,-37.0333 730.622,-27.6531"/>
<polygon fill="midnightblue" stroke="midnightblue" points="733.494,-29.674 737.207,-19.7511 728.117,-25.1927 733.494,-29.674"/>
</g>
</g>
</svg>
        <g id="navigator" transform="translate(0 0)" fill="#404254">
                <rect fill="#f2f5e9" fill-opacity="0.5" stroke="#606060" stroke-width=".5" x="0" y="0" width="60" height="60"/>
                <use id="zoomplus" xlink:href="#zoomPlus" x="17" y="9" onmousedown="handleZoom(evt,'in')"/>
                <use id="zoomminus" xlink:href="#zoomMin" x="42" y="9" onmousedown="handleZoom(evt,'out')"/>
                <use id="reset" xlink:href="#resetDef" x="30" y="36" onmousedown="handleReset()"/>
                <g id="arrowUp" xlink:href="#dirArrow" transform="translate(30 24)" onmousedown="handlePan(0,-1)">
                  <use xlink:href="#rim" fill="#404040">
                        <set attributeName="fill" to="#808080" begin="arrowUp.mouseover" end="arrowUp.mouseout"/>
                  </use>
                  <path fill="none" stroke="white" stroke-width="1.5" d="M0,-3.0v7 M-2.5,-0.5L0,-3.0L2.5,-0.5"/>
                </g>
                <g id="arrowRight" xlink:href="#dirArrow" transform="rotate(90) translate(36 -43)" onmousedown="handlePan(1,0)">
                  <use xlink:href="#rim" fill="#404040">
                        <set attributeName="fill" to="#808080" begin="arrowRight.mouseover" end="arrowRight.mouseout"/>
                  </use>
                  <path fill="none" stroke="white" stroke-width="1.5" d="M0,-3.0v7 M-2.5,-0.5L0,-3.0L2.5,-0.5"/>
                </g>
                <g id="arrowDown" xlink:href="#dirArrow" transform="rotate(180) translate(-30 -48)" onmousedown="handlePan(0,1)">
                  <use xlink:href="#rim" fill="#404040">
                        <set attributeName="fill" to="#808080" begin="arrowDown.mouseover" end="arrowDown.mouseout"/>
                  </use>
                  <path fill="none" stroke="white" stroke-width="1.5" d="M0,-3.0v7 M-2.5,-0.5L0,-3.0L2.5,-0.5"/>
                </g>
                <g id="arrowLeft" xlink:href="#dirArrow" transform="rotate(270) translate(-36 17)" onmousedown="handlePan(-1,0)">
                  <use xlink:href="#rim" fill="#404040">
                        <set attributeName="fill" to="#808080" begin="arrowLeft.mouseover" end="arrowLeft.mouseout"/>
                  </use>
                  <path fill="none" stroke="white" stroke-width="1.5" d="M0,-3.0v7 M-2.5,-0.5L0,-3.0L2.5,-0.5"/>
                </g>
        </g>
        <svg viewBox="0 0 15 15" width="100%" height="30px" preserveAspectRatio="xMaxYMin meet">
         <g id="arrow_out" transform="scale(0.3 0.3)">
          <a xlink:href="torcbinaryplistserialiser_8cpp__incl_org.svg" target="_base">
           <rect id="button" ry="5" rx="5" y="6" x="6" height="38" width="38"
                fill="#f2f5e9" fill-opacity="0.5" stroke="#606060" stroke-width="1.0"/>
           <path id="arrow"
             d="M 11.500037,31.436501 C 11.940474,20.09759 22.043105,11.32322 32.158766,21.979434 L 37.068811,17.246167 C 37.068811,17.246167 37.088388,32 37.088388,32 L 22.160133,31.978069 C 22.160133,31.978069 26.997745,27.140456 26.997745,27.140456 C 18.528582,18.264221 13.291696,25.230495 11.500037,31.436501 z"
             style="fill:#404040;"/>
          </a>
         </g>
        </svg>
</svg>
