<?xml version="1.0" encoding="UTF-8" standalone="no"?>
<!DOCTYPE svg PUBLIC "-//W3C//DTD SVG 1.1//EN"
 "http://www.w3.org/Graphics/SVG/1.1/DTD/svg11.dtd">
<!-- Generated by graphviz version 2.38.0 (20140413.2041)
 -->
<!-- Title: torcserialiser.cpp Pages: 1 -->
<svg width="858pt" height="308pt"
 viewBox="0.00 0.00 857.50 308.00" xmlns="http://www.w3.org/2000/svg" xmlns:xlink="http://www.w3.org/1999/xlink">
<g id="graph0" class="graph" transform="scale(1 1) rotate(0) translate(4 304)">
<title>torcserialiser.cpp</title>
<polygon fill="white" stroke="none" points="-4,4 -4,-304 853.5,-304 853.5,4 -4,4"/>
<!-- Node1 -->
<g id="node1" class="node"><title>Node1</title>
<polygon fill="#bfbfbf" stroke="black" points="331.5,-280.5 331.5,-299.5 429.5,-299.5 429.5,-280.5 331.5,-280.5"/>
<text text-anchor="middle" x="380.5" y="-287.5" font-family="Helvetica,sans-Serif" font-size="10.00">torcserialiser.cpp</text>
</g>
<!-- Node2 -->
<g id="node2" class="node"><title>Node2</title>
<g id="a_node2"><a xlink:href="../../d4/df9/torclogging_8h.html" target="_top" xlink:title="torclogging.h">
<polygon fill="white" stroke="black" points="104,-224.5 104,-243.5 183,-243.5 183,-224.5 104,-224.5"/>
<text text-anchor="middle" x="143.5" y="-231.5" font-family="Helvetica,sans-Serif" font-size="10.00">torclogging.h</text>
</a>
</g>
</g>
<!-- Node1&#45;&gt;Node2 -->
<g id="edge1" class="edge"><title>Node1&#45;&gt;Node2</title>
<path fill="none" stroke="midnightblue" d="M342.947,-280.444C301.689,-271.043 235.356,-255.929 190.634,-245.739"/>
<polygon fill="midnightblue" stroke="midnightblue" points="191.405,-242.326 180.878,-243.516 189.85,-249.151 191.405,-242.326"/>
</g>
<!-- Node6 -->
<g id="node6" class="node"><title>Node6</title>
<g id="a_node6"><a xlink:href="../../d0/d0b/torcxmlserialiser_8h.html" target="_top" xlink:title="torcxmlserialiser.h">
<polygon fill="white" stroke="black" points="328.5,-224.5 328.5,-243.5 432.5,-243.5 432.5,-224.5 328.5,-224.5"/>
<text text-anchor="middle" x="380.5" y="-231.5" font-family="Helvetica,sans-Serif" font-size="10.00">torcxmlserialiser.h</text>
</a>
</g>
</g>
<!-- Node1&#45;&gt;Node6 -->
<g id="edge5" class="edge"><title>Node1&#45;&gt;Node6</title>
<path fill="none" stroke="midnightblue" d="M380.5,-280.083C380.5,-273.006 380.5,-262.861 380.5,-253.986"/>
<polygon fill="midnightblue" stroke="midnightblue" points="384,-253.751 380.5,-243.751 377,-253.751 384,-253.751"/>
</g>
<!-- Node9 -->
<g id="node9" class="node"><title>Node9</title>
<g id="a_node9"><a xlink:href="../../d1/def/torcserialiser_8h.html" target="_top" xlink:title="torcserialiser.h">
<polygon fill="white" stroke="black" points="451.5,-168.5 451.5,-187.5 537.5,-187.5 537.5,-168.5 451.5,-168.5"/>
<text text-anchor="middle" x="494.5" y="-175.5" font-family="Helvetica,sans-Serif" font-size="10.00">torcserialiser.h</text>
</a>
</g>
</g>
<!-- Node1&#45;&gt;Node9 -->
<g id="edge21" class="edge"><title>Node1&#45;&gt;Node9</title>
<path fill="none" stroke="midnightblue" d="M394.348,-280.247C407.236,-271.773 426.636,-258.161 441.5,-244 457.089,-229.148 472.353,-209.766 482.466,-196.043"/>
<polygon fill="midnightblue" stroke="midnightblue" points="485.566,-197.728 488.584,-187.572 479.892,-193.629 485.566,-197.728"/>
</g>
<!-- Node3 -->
<g id="node3" class="node"><title>Node3</title>
<polygon fill="white" stroke="#bfbfbf" points="0,-168.5 0,-187.5 53,-187.5 53,-168.5 0,-168.5"/>
<text text-anchor="middle" x="26.5" y="-175.5" font-family="Helvetica,sans-Serif" font-size="10.00">stdint.h</text>
</g>
<!-- Node2&#45;&gt;Node3 -->
<g id="edge2" class="edge"><title>Node2&#45;&gt;Node3</title>
<path fill="none" stroke="midnightblue" d="M124.961,-224.444C105.877,-215.636 75.9251,-201.812 54.0643,-191.722"/>
<polygon fill="midnightblue" stroke="midnightblue" points="55.4986,-188.529 44.9523,-187.516 52.5651,-194.885 55.4986,-188.529"/>
</g>
<!-- Node4 -->
<g id="node4" class="node"><title>Node4</title>
<polygon fill="white" stroke="#bfbfbf" points="71,-168.5 71,-187.5 122,-187.5 122,-168.5 71,-168.5"/>
<text text-anchor="middle" x="96.5" y="-175.5" font-family="Helvetica,sans-Serif" font-size="10.00">errno.h</text>
</g>
<!-- Node2&#45;&gt;Node4 -->
<g id="edge3" class="edge"><title>Node2&#45;&gt;Node4</title>
<path fill="none" stroke="midnightblue" d="M135.739,-224.083C128.963,-216.298 118.957,-204.801 110.745,-195.367"/>
<polygon fill="midnightblue" stroke="midnightblue" points="113.322,-192.996 104.117,-187.751 108.042,-197.592 113.322,-192.996"/>
</g>
<!-- Node5 -->
<g id="node5" class="node"><title>Node5</title>
<g id="a_node5"><a xlink:href="../../d1/d37/torcloggingdefs_8h.html" target="_top" xlink:title="torcloggingdefs.h">
<polygon fill="white" stroke="black" points="140,-168.5 140,-187.5 239,-187.5 239,-168.5 140,-168.5"/>
<text text-anchor="middle" x="189.5" y="-175.5" font-family="Helvetica,sans-Serif" font-size="10.00">torcloggingdefs.h</text>
</a>
</g>
</g>
<!-- Node2&#45;&gt;Node5 -->
<g id="edge4" class="edge"><title>Node2&#45;&gt;Node5</title>
<path fill="none" stroke="midnightblue" d="M151.096,-224.083C157.727,-216.298 167.521,-204.801 175.558,-195.367"/>
<polygon fill="midnightblue" stroke="midnightblue" points="178.225,-197.633 182.045,-187.751 172.896,-193.094 178.225,-197.633"/>
</g>
<!-- Node7 -->
<g id="node7" class="node"><title>Node7</title>
<polygon fill="white" stroke="#bfbfbf" points="257,-168.5 257,-187.5 310,-187.5 310,-168.5 257,-168.5"/>
<text text-anchor="middle" x="283.5" y="-175.5" font-family="Helvetica,sans-Serif" font-size="10.00">QBuffer</text>
</g>
<!-- Node6&#45;&gt;Node7 -->
<g id="edge6" class="edge"><title>Node6&#45;&gt;Node7</title>
<path fill="none" stroke="midnightblue" d="M364.915,-224.324C349.501,-215.743 325.688,-202.486 307.79,-192.522"/>
<polygon fill="midnightblue" stroke="midnightblue" points="309.486,-189.461 299.046,-187.655 306.081,-195.577 309.486,-189.461"/>
</g>
<!-- Node8 -->
<g id="node8" class="node"><title>Node8</title>
<polygon fill="white" stroke="#bfbfbf" points="328,-168.5 328,-187.5 433,-187.5 433,-168.5 328,-168.5"/>
<text text-anchor="middle" x="380.5" y="-175.5" font-family="Helvetica,sans-Serif" font-size="10.00">QXmlStreamWriter</text>
</g>
<!-- Node6&#45;&gt;Node8 -->
<g id="edge7" class="edge"><title>Node6&#45;&gt;Node8</title>
<path fill="none" stroke="midnightblue" d="M380.5,-224.083C380.5,-217.006 380.5,-206.861 380.5,-197.986"/>
<polygon fill="midnightblue" stroke="midnightblue" points="384,-197.751 380.5,-187.751 377,-197.751 384,-197.751"/>
</g>
<!-- Node6&#45;&gt;Node9 -->
<g id="edge8" class="edge"><title>Node6&#45;&gt;Node9</title>
<path fill="none" stroke="midnightblue" d="M398.564,-224.444C417.075,-215.675 446.081,-201.935 467.355,-191.858"/>
<polygon fill="midnightblue" stroke="midnightblue" points="468.982,-194.96 476.521,-187.516 465.985,-188.634 468.982,-194.96"/>
</g>
<!-- Node10 -->
<g id="node10" class="node"><title>Node10</title>
<polygon fill="white" stroke="#bfbfbf" points="320.5,-112.5 320.5,-131.5 378.5,-131.5 378.5,-112.5 320.5,-112.5"/>
<text text-anchor="middle" x="349.5" y="-119.5" font-family="Helvetica,sans-Serif" font-size="10.00">QVariant</text>
</g>
<!-- Node9&#45;&gt;Node10 -->
<g id="edge9" class="edge"><title>Node9&#45;&gt;Node10</title>
<path fill="none" stroke="midnightblue" d="M471.524,-168.444C447.343,-159.438 409.082,-145.189 381.854,-135.049"/>
<polygon fill="midnightblue" stroke="midnightblue" points="382.961,-131.727 372.368,-131.516 380.518,-138.286 382.961,-131.727"/>
</g>
<!-- Node11 -->
<g id="node11" class="node"><title>Node11</title>
<polygon fill="white" stroke="#bfbfbf" points="397,-112.5 397,-131.5 466,-131.5 466,-112.5 397,-112.5"/>
<text text-anchor="middle" x="431.5" y="-119.5" font-family="Helvetica,sans-Serif" font-size="10.00">QStringList</text>
</g>
<!-- Node9&#45;&gt;Node11 -->
<g id="edge10" class="edge"><title>Node9&#45;&gt;Node11</title>
<path fill="none" stroke="midnightblue" d="M484.378,-168.324C474.974,-160.263 460.756,-148.077 449.431,-138.369"/>
<polygon fill="midnightblue" stroke="midnightblue" points="451.677,-135.684 441.806,-131.834 447.121,-140.999 451.677,-135.684"/>
</g>
<!-- Node12 -->
<g id="node12" class="node"><title>Node12</title>
<polygon fill="white" stroke="#bfbfbf" points="439.5,-56.5 439.5,-75.5 483.5,-75.5 483.5,-56.5 439.5,-56.5"/>
<text text-anchor="middle" x="461.5" y="-63.5" font-family="Helvetica,sans-Serif" font-size="10.00">QMap</text>
</g>
<!-- Node9&#45;&gt;Node12 -->
<g id="edge11" class="edge"><title>Node9&#45;&gt;Node12</title>
<path fill="none" stroke="midnightblue" d="M491.911,-168.368C486.561,-150.537 474.189,-109.295 466.982,-85.2717"/>
<polygon fill="midnightblue" stroke="midnightblue" points="470.303,-84.1639 464.077,-75.5914 463.599,-86.1754 470.303,-84.1639"/>
</g>
<!-- Node13 -->
<g id="node13" class="node"><title>Node13</title>
<polygon fill="white" stroke="#bfbfbf" points="502,-56.5 502,-75.5 573,-75.5 573,-56.5 502,-56.5"/>
<text text-anchor="middle" x="537.5" y="-63.5" font-family="Helvetica,sans-Serif" font-size="10.00">QDateTime</text>
</g>
<!-- Node9&#45;&gt;Node13 -->
<g id="edge12" class="edge"><title>Node9&#45;&gt;Node13</title>
<path fill="none" stroke="midnightblue" d="M497.874,-168.368C504.876,-150.456 521.112,-108.923 530.484,-84.9482"/>
<polygon fill="midnightblue" stroke="midnightblue" points="533.76,-86.1794 534.142,-75.5914 527.241,-83.6308 533.76,-86.1794"/>
</g>
<!-- Node14 -->
<g id="node14" class="node"><title>Node14</title>
<g id="a_node14"><a xlink:href="../../df/dd7/torchttprequest_8h.html" target="_top" xlink:title="torchttprequest.h">
<polygon fill="white" stroke="black" points="561,-112.5 561,-131.5 662,-131.5 662,-112.5 561,-112.5"/>
<text text-anchor="middle" x="611.5" y="-119.5" font-family="Helvetica,sans-Serif" font-size="10.00">torchttprequest.h</text>
</a>
</g>
</g>
<!-- Node9&#45;&gt;Node14 -->
<g id="edge13" class="edge"><title>Node9&#45;&gt;Node14</title>
<path fill="none" stroke="midnightblue" d="M513.039,-168.444C532.123,-159.636 562.075,-145.812 583.936,-135.722"/>
<polygon fill="midnightblue" stroke="midnightblue" points="585.435,-138.885 593.048,-131.516 582.501,-132.529 585.435,-138.885"/>
</g>
<!-- Node14&#45;&gt;Node12 -->
<g id="edge14" class="edge"><title>Node14&#45;&gt;Node12</title>
<path fill="none" stroke="midnightblue" d="M587.732,-112.444C562.164,-103.239 521.379,-88.5565 493.118,-78.3826"/>
<polygon fill="midnightblue" stroke="midnightblue" points="494.284,-75.0825 483.69,-74.9883 491.913,-81.6687 494.284,-75.0825"/>
</g>
<!-- Node14&#45;&gt;Node13 -->
<g id="edge17" class="edge"><title>Node14&#45;&gt;Node13</title>
<path fill="none" stroke="midnightblue" d="M599.611,-112.324C588.35,-104.107 571.213,-91.6017 557.791,-81.8069"/>
<polygon fill="midnightblue" stroke="midnightblue" points="559.747,-78.9014 549.606,-75.8339 555.62,-84.5559 559.747,-78.9014"/>
</g>
<!-- Node15 -->
<g id="node15" class="node"><title>Node15</title>
<polygon fill="white" stroke="#bfbfbf" points="591,-56.5 591,-75.5 632,-75.5 632,-56.5 591,-56.5"/>
<text text-anchor="middle" x="611.5" y="-63.5" font-family="Helvetica,sans-Serif" font-size="10.00">QPair</text>
</g>
<!-- Node14&#45;&gt;Node15 -->
<g id="edge15" class="edge"><title>Node14&#45;&gt;Node15</title>
<path fill="none" stroke="midnightblue" d="M611.5,-112.083C611.5,-105.006 611.5,-94.8611 611.5,-85.9865"/>
<polygon fill="midnightblue" stroke="midnightblue" points="615,-85.751 611.5,-75.7511 608,-85.7511 615,-85.751"/>
</g>
<!-- Node16 -->
<g id="node16" class="node"><title>Node16</title>
<polygon fill="white" stroke="#bfbfbf" points="650,-56.5 650,-75.5 703,-75.5 703,-56.5 650,-56.5"/>
<text text-anchor="middle" x="676.5" y="-63.5" font-family="Helvetica,sans-Serif" font-size="10.00">QString</text>
</g>
<!-- Node14&#45;&gt;Node16 -->
<g id="edge16" class="edge"><title>Node14&#45;&gt;Node16</title>
<path fill="none" stroke="midnightblue" d="M621.943,-112.324C631.646,-104.263 646.315,-92.0765 658,-82.3695"/>
<polygon fill="midnightblue" stroke="midnightblue" points="660.411,-84.9163 665.867,-75.8339 655.938,-79.532 660.411,-84.9163"/>
</g>
<!-- Node17 -->
<g id="node17" class="node"><title>Node17</title>
<g id="a_node17"><a xlink:href="../../de/de6/torchttpreader_8h.html" target="_top" xlink:title="torchttpreader.h">
<polygon fill="white" stroke="black" points="721,-56.5 721,-75.5 816,-75.5 816,-56.5 721,-56.5"/>
<text text-anchor="middle" x="768.5" y="-63.5" font-family="Helvetica,sans-Serif" font-size="10.00">torchttpreader.h</text>
</a>
</g>
</g>
<!-- Node14&#45;&gt;Node17 -->
<g id="edge18" class="edge"><title>Node14&#45;&gt;Node17</title>
<path fill="none" stroke="midnightblue" d="M636.377,-112.444C662.789,-103.359 704.715,-88.9388 734.242,-78.7831"/>
<polygon fill="midnightblue" stroke="midnightblue" points="735.421,-82.0787 743.739,-75.5164 733.145,-75.4593 735.421,-82.0787"/>
</g>
<!-- Node18 -->
<g id="node18" class="node"><title>Node18</title>
<polygon fill="white" stroke="#bfbfbf" points="688,-0.5 688,-19.5 759,-19.5 759,-0.5 688,-0.5"/>
<text text-anchor="middle" x="723.5" y="-7.5" font-family="Helvetica,sans-Serif" font-size="10.00">QByteArray</text>
</g>
<!-- Node17&#45;&gt;Node18 -->
<g id="edge19" class="edge"><title>Node17&#45;&gt;Node18</title>
<path fill="none" stroke="midnightblue" d="M761.069,-56.083C754.647,-48.3768 745.194,-37.0333 737.378,-27.6531"/>
<polygon fill="midnightblue" stroke="midnightblue" points="739.883,-25.1927 730.793,-19.7511 734.506,-29.674 739.883,-25.1927"/>
</g>
<!-- Node19 -->
<g id="node19" class="node"><title>Node19</title>
<polygon fill="white" stroke="#bfbfbf" points="777.5,-0.5 777.5,-19.5 849.5,-19.5 849.5,-0.5 777.5,-0.5"/>
<text text-anchor="middle" x="813.5" y="-7.5" font-family="Helvetica,sans-Serif" font-size="10.00">QTcpSocket</text>
</g>
<!-- Node17&#45;&gt;Node19 -->
<g id="edge20" class="edge"><title>Node17&#45;&gt;Node19</title>
<path fill="none" stroke="midnightblue" d="M775.931,-56.083C782.353,-48.3768 791.806,-37.0333 799.622,-27.6531"/>
<polygon fill="midnightblue" stroke="midnightblue" points="802.494,-29.674 806.207,-19.7511 797.117,-25.1927 802.494,-29.674"/>
</g>
</g>
</svg>
