<?xml version="1.0" encoding="UTF-8" standalone="no"?>
<!DOCTYPE svg PUBLIC "-//W3C//DTD SVG 1.1//EN"
 "http://www.w3.org/Graphics/SVG/1.1/DTD/svg11.dtd">
<!-- Generated by graphviz version 2.38.0 (20140413.2041)
 -->
<!-- Title: torcdevicehandler.cpp Pages: 1 -->
<svg width="205pt" height="140pt"
 viewBox="0.00 0.00 204.50 140.00" xmlns="http://www.w3.org/2000/svg" xmlns:xlink="http://www.w3.org/1999/xlink">
<g id="graph0" class="graph" transform="scale(1 1) rotate(0) translate(4 136)">
<title>torcdevicehandler.cpp</title>
<polygon fill="white" stroke="none" points="-4,4 -4,-136 200.5,-136 200.5,4 -4,4"/>
<!-- Node1 -->
<g id="node1" class="node"><title>Node1</title>
<polygon fill="#bfbfbf" stroke="black" points="32.5,-112.5 32.5,-131.5 154.5,-131.5 154.5,-112.5 32.5,-112.5"/>
<text text-anchor="middle" x="93.5" y="-119.5" font-family="Helvetica,sans-Serif" font-size="10.00">torcdevicehandler.cpp</text>
</g>
<!-- Node2 -->
<g id="node2" class="node"><title>Node2</title>
<g id="a_node2"><a xlink:href="../../d2/d5b/torcdevicehandler_8h.html" target="_top" xlink:title="torcdevicehandler.h">
<polygon fill="white" stroke="black" points="38.5,-56.5 38.5,-75.5 148.5,-75.5 148.5,-56.5 38.5,-56.5"/>
<text text-anchor="middle" x="93.5" y="-63.5" font-family="Helvetica,sans-Serif" font-size="10.00">torcdevicehandler.h</text>
</a>
</g>
</g>
<!-- Node1&#45;&gt;Node2 -->
<g id="edge1" class="edge"><title>Node1&#45;&gt;Node2</title>
<path fill="none" stroke="midnightblue" d="M93.5,-112.083C93.5,-105.006 93.5,-94.8611 93.5,-85.9865"/>
<polygon fill="midnightblue" stroke="midnightblue" points="97.0001,-85.751 93.5,-75.7511 90.0001,-85.7511 97.0001,-85.751"/>
</g>
<!-- Node3 -->
<g id="node3" class="node"><title>Node3</title>
<polygon fill="white" stroke="#bfbfbf" points="0,-0.5 0,-19.5 49,-19.5 49,-0.5 0,-0.5"/>
<text text-anchor="middle" x="24.5" y="-7.5" font-family="Helvetica,sans-Serif" font-size="10.00">QHash</text>
</g>
<!-- Node2&#45;&gt;Node3 -->
<g id="edge2" class="edge"><title>Node2&#45;&gt;Node3</title>
<path fill="none" stroke="midnightblue" d="M82.414,-56.324C72.014,-48.1849 56.2394,-35.8395 43.7784,-26.0874"/>
<polygon fill="midnightblue" stroke="midnightblue" points="45.8199,-23.2407 35.7878,-19.8339 41.5057,-28.7533 45.8199,-23.2407"/>
</g>
<!-- Node4 -->
<g id="node4" class="node"><title>Node4</title>
<polygon fill="white" stroke="#bfbfbf" points="67,-0.5 67,-19.5 120,-19.5 120,-0.5 67,-0.5"/>
<text text-anchor="middle" x="93.5" y="-7.5" font-family="Helvetica,sans-Serif" font-size="10.00">QMutex</text>
</g>
<!-- Node2&#45;&gt;Node4 -->
<g id="edge3" class="edge"><title>Node2&#45;&gt;Node4</title>
<path fill="none" stroke="midnightblue" d="M93.5,-56.083C93.5,-49.0059 93.5,-38.8611 93.5,-29.9865"/>
<polygon fill="midnightblue" stroke="midnightblue" points="97.0001,-29.751 93.5,-19.7511 90.0001,-29.7511 97.0001,-29.751"/>
</g>
<!-- Node5 -->
<g id="node5" class="node"><title>Node5</title>
<polygon fill="white" stroke="#bfbfbf" points="138.5,-0.5 138.5,-19.5 196.5,-19.5 196.5,-0.5 138.5,-0.5"/>
<text text-anchor="middle" x="167.5" y="-7.5" font-family="Helvetica,sans-Serif" font-size="10.00">QVariant</text>
</g>
<!-- Node2&#45;&gt;Node5 -->
<g id="edge4" class="edge"><title>Node2&#45;&gt;Node5</title>
<path fill="none" stroke="midnightblue" d="M105.389,-56.324C116.65,-48.1066 133.787,-35.6017 147.209,-25.8069"/>
<polygon fill="midnightblue" stroke="midnightblue" points="149.38,-28.5559 155.394,-19.8339 145.253,-22.9014 149.38,-28.5559"/>
</g>
</g>
</svg>
