<?xml version="1.0" encoding="UTF-8" standalone="no"?>
<!DOCTYPE svg PUBLIC "-//W3C//DTD SVG 1.1//EN"
 "http://www.w3.org/Graphics/SVG/1.1/DTD/svg11.dtd">
<!-- Generated by graphviz version 2.38.0 (20140413.2041)
 -->
<!-- Title: torcsysteminput.cpp Pages: 1 -->
<!--zoomable 476 -->
<svg id="main" version="1.1" xmlns="http://www.w3.org/2000/svg" xmlns:xlink="http://www.w3.org/1999/xlink" xml:space="preserve" onload="init(evt)">
<style type="text/css"><![CDATA[
.edge:hover path { stroke: red; }
.edge:hover polygon { stroke: red; fill: red; }
]]></style>
<script type="text/javascript"><![CDATA[
var edges = document.getElementsByTagName('g');
if (edges && edges.length) {
  for (var i=0;i<edges.length;i++) {
    if (edges[i].id.substr(0,4)=='edge') {
      edges[i].setAttribute('class','edge');
    }
  }
}
]]></script>
        <defs>
                <circle id="rim" cx="0" cy="0" r="7"/>
                <circle id="rim2" cx="0" cy="0" r="3.5"/>
                <g id="zoomPlus">
                        <use xlink:href="#rim" fill="#404040">
                                <set attributeName="fill" to="#808080" begin="zoomplus.mouseover" end="zoomplus.mouseout"/>
                        </use>
                        <path d="M-4,0h8M0,-4v8" fill="none" stroke="white" stroke-width="1.5" pointer-events="none"/>
                </g>
                <g id="zoomMin">
                        <use xlink:href="#rim" fill="#404040">
                                <set attributeName="fill" to="#808080" begin="zoomminus.mouseover" end="zoomminus.mouseout"/>
                        </use>
                        <path d="M-4,0h8" fill="none" stroke="white" stroke-width="1.5" pointer-events="none"/>
                </g>
                <g id="dirArrow">
                        <path fill="none" stroke="white" stroke-width="1.5" d="M0,-3.0v7 M-2.5,-0.5L0,-3.0L2.5,-0.5"/>
                </g>
               <g id="resetDef">
                       <use xlink:href="#rim2" fill="#404040">
                               <set attributeName="fill" to="#808080" begin="reset.mouseover" end="reset.mouseout"/>
                       </use>
               </g>
        </defs>

<script type="text/javascript">
var viewWidth = 1469;
var viewHeight = 476;
var sectionId = 'dynsection-0';
</script>
<script xlink:href="../../svgpan.js"/>
<svg id="graph" class="graph">
<g id="viewport">
<title>torcsysteminput.cpp</title>
<polygon fill="white" stroke="none" points="-4,4 -4,-472 1464.56,-472 1464.56,4 -4,4"/>
<!-- Node1 -->
<g id="node1" class="node"><title>Node1</title>
<polygon fill="#bfbfbf" stroke="black" points="810,-448.5 810,-467.5 925,-467.5 925,-448.5 810,-448.5"/>
<text text-anchor="middle" x="867.5" y="-455.5" font-family="Helvetica,sans-Serif" font-size="10.00">torcsysteminput.cpp</text>
</g>
<!-- Node2 -->
<g id="node2" class="node"><title>Node2</title>
<g id="a_node2"><a xlink:href="../../dd/dbd/torclocalcontext_8h.html" target="_top" xlink:title="torclocalcontext.h">
<polygon fill="white" stroke="black" points="533.5,-336.5 533.5,-355.5 635.5,-355.5 635.5,-336.5 533.5,-336.5"/>
<text text-anchor="middle" x="584.5" y="-343.5" font-family="Helvetica,sans-Serif" font-size="10.00">torclocalcontext.h</text>
</a>
</g>
</g>
<!-- Node1&#45;&gt;Node2 -->
<g id="edge1" class="edge"><title>Node1&#45;&gt;Node2</title>
<path fill="none" stroke="midnightblue" d="M845.293,-448.368C795.284,-428.93 673.708,-381.674 615.959,-359.228"/>
<polygon fill="midnightblue" stroke="midnightblue" points="617.192,-355.952 606.603,-355.591 614.656,-362.477 617.192,-355.952"/>
</g>
<!-- Node41 -->
<g id="node41" class="node"><title>Node41</title>
<g id="a_node41"><a xlink:href="../../d1/dcd/torcsysteminput_8h.html" target="_top" xlink:title="torcsysteminput.h">
<polygon fill="white" stroke="black" points="904.5,-392.5 904.5,-411.5 1008.5,-411.5 1008.5,-392.5 904.5,-392.5"/>
<text text-anchor="middle" x="956.5" y="-399.5" font-family="Helvetica,sans-Serif" font-size="10.00">torcsysteminput.h</text>
</a>
</g>
</g>
<!-- Node1&#45;&gt;Node41 -->
<g id="edge54" class="edge"><title>Node1&#45;&gt;Node41</title>
<path fill="none" stroke="midnightblue" d="M881.799,-448.324C895.683,-439.9 916.992,-426.971 933.304,-417.074"/>
<polygon fill="midnightblue" stroke="midnightblue" points="935.502,-419.834 942.236,-411.655 931.871,-413.85 935.502,-419.834"/>
</g>
<!-- Node3 -->
<g id="node3" class="node"><title>Node3</title>
<polygon fill="white" stroke="#bfbfbf" points="1209,-168.5 1209,-187.5 1264,-187.5 1264,-168.5 1209,-168.5"/>
<text text-anchor="middle" x="1236.5" y="-175.5" font-family="Helvetica,sans-Serif" font-size="10.00">QObject</text>
</g>
<!-- Node2&#45;&gt;Node3 -->
<g id="edge2" class="edge"><title>Node2&#45;&gt;Node3</title>
<path fill="none" stroke="midnightblue" d="M635.822,-344.366C749.141,-342.349 1017.26,-334.018 1100.5,-300 1155.17,-277.658 1202.49,-223.457 1224.07,-195.815"/>
<polygon fill="midnightblue" stroke="midnightblue" points="1227.09,-197.619 1230.37,-187.544 1221.52,-193.377 1227.09,-197.619"/>
</g>
<!-- Node4 -->
<g id="node4" class="node"><title>Node4</title>
<polygon fill="white" stroke="#bfbfbf" points="497,-56.5 497,-75.5 550,-75.5 550,-56.5 497,-56.5"/>
<text text-anchor="middle" x="523.5" y="-63.5" font-family="Helvetica,sans-Serif" font-size="10.00">QString</text>
</g>
<!-- Node2&#45;&gt;Node4 -->
<g id="edge3" class="edge"><title>Node2&#45;&gt;Node4</title>
<path fill="none" stroke="midnightblue" d="M533.197,-341.711C426.593,-333.62 187.452,-308.502 144.5,-244 59.0083,-115.615 376.271,-78.4257 486.823,-69.4818"/>
<polygon fill="midnightblue" stroke="midnightblue" points="487.156,-72.9665 496.855,-68.7023 486.614,-65.9875 487.156,-72.9665"/>
</g>
<!-- Node5 -->
<g id="node5" class="node"><title>Node5</title>
<polygon fill="white" stroke="#bfbfbf" points="229.5,-168.5 229.5,-187.5 321.5,-187.5 321.5,-168.5 229.5,-168.5"/>
<text text-anchor="middle" x="275.5" y="-175.5" font-family="Helvetica,sans-Serif" font-size="10.00">QReadWriteLock</text>
</g>
<!-- Node2&#45;&gt;Node5 -->
<g id="edge4" class="edge"><title>Node2&#45;&gt;Node5</title>
<path fill="none" stroke="midnightblue" d="M533.288,-343.729C459.697,-340.821 329.169,-331.276 295.5,-300 267.382,-273.879 268.944,-224.555 272.331,-197.652"/>
<polygon fill="midnightblue" stroke="midnightblue" points="275.813,-198.032 273.813,-187.628 268.888,-197.009 275.813,-198.032"/>
</g>
<!-- Node6 -->
<g id="node6" class="node"><title>Node6</title>
<polygon fill="white" stroke="#bfbfbf" points="1314,-168.5 1314,-187.5 1367,-187.5 1367,-168.5 1314,-168.5"/>
<text text-anchor="middle" x="1340.5" y="-175.5" font-family="Helvetica,sans-Serif" font-size="10.00">QMutex</text>
</g>
<!-- Node2&#45;&gt;Node6 -->
<g id="edge5" class="edge"><title>Node2&#45;&gt;Node6</title>
<path fill="none" stroke="midnightblue" d="M635.681,-344.346C800.141,-341.934 1308.26,-331.948 1374.5,-300 1404.55,-285.504 1412.61,-275.175 1424.5,-244 1427.67,-235.695 1429.07,-231.626 1424.5,-224 1414.1,-206.634 1394.46,-195.589 1376.78,-188.789"/>
<polygon fill="midnightblue" stroke="midnightblue" points="1377.83,-185.448 1367.23,-185.436 1375.51,-192.052 1377.83,-185.448"/>
</g>
<!-- Node7 -->
<g id="node7" class="node"><title>Node7</title>
<g id="a_node7"><a xlink:href="../../db/db2/torclocaldefs_8h.html" target="_top" xlink:title="torclocaldefs.h">
<polygon fill="white" stroke="black" points="304.5,-280.5 304.5,-299.5 390.5,-299.5 390.5,-280.5 304.5,-280.5"/>
<text text-anchor="middle" x="347.5" y="-287.5" font-family="Helvetica,sans-Serif" font-size="10.00">torclocaldefs.h</text>
</a>
</g>
</g>
<!-- Node2&#45;&gt;Node7 -->
<g id="edge6" class="edge"><title>Node2&#45;&gt;Node7</title>
<path fill="none" stroke="midnightblue" d="M546.947,-336.444C505.689,-327.043 439.356,-311.929 394.634,-301.739"/>
<polygon fill="midnightblue" stroke="midnightblue" points="395.405,-298.326 384.878,-299.516 393.85,-305.151 395.405,-298.326"/>
</g>
<!-- Node8 -->
<g id="node8" class="node"><title>Node8</title>
<g id="a_node8"><a xlink:href="../../db/df5/torcsetting_8h.html" target="_top" xlink:title="torcsetting.h">
<polygon fill="white" stroke="black" points="546,-280.5 546,-299.5 623,-299.5 623,-280.5 546,-280.5"/>
<text text-anchor="middle" x="584.5" y="-287.5" font-family="Helvetica,sans-Serif" font-size="10.00">torcsetting.h</text>
</a>
</g>
</g>
<!-- Node2&#45;&gt;Node8 -->
<g id="edge7" class="edge"><title>Node2&#45;&gt;Node8</title>
<path fill="none" stroke="midnightblue" d="M584.5,-336.083C584.5,-329.006 584.5,-318.861 584.5,-309.986"/>
<polygon fill="midnightblue" stroke="midnightblue" points="588,-309.751 584.5,-299.751 581,-309.751 588,-309.751"/>
</g>
<!-- Node26 -->
<g id="node26" class="node"><title>Node26</title>
<g id="a_node26"><a xlink:href="../../d6/d94/torcobservable_8h.html" target="_top" xlink:title="torcobservable.h">
<polygon fill="white" stroke="black" points="0,-280.5 0,-299.5 97,-299.5 97,-280.5 0,-280.5"/>
<text text-anchor="middle" x="48.5" y="-287.5" font-family="Helvetica,sans-Serif" font-size="10.00">torcobservable.h</text>
</a>
</g>
</g>
<!-- Node2&#45;&gt;Node26 -->
<g id="edge33" class="edge"><title>Node2&#45;&gt;Node26</title>
<path fill="none" stroke="midnightblue" d="M533.32,-340.925C446.456,-333.831 264.675,-318.217 111.5,-300 110.204,-299.846 108.894,-299.687 107.573,-299.524"/>
<polygon fill="midnightblue" stroke="midnightblue" points="107.674,-296.008 97.3093,-298.204 106.781,-302.951 107.674,-296.008"/>
</g>
<!-- Node29 -->
<g id="node29" class="node"><title>Node29</title>
<g id="a_node29"><a xlink:href="../../d7/d70/torcsqlitedb_8h.html" target="_top" xlink:title="torcsqlitedb.h">
<polygon fill="white" stroke="black" points="1283.5,-280.5 1283.5,-299.5 1365.5,-299.5 1365.5,-280.5 1283.5,-280.5"/>
<text text-anchor="middle" x="1324.5" y="-287.5" font-family="Helvetica,sans-Serif" font-size="10.00">torcsqlitedb.h</text>
</a>
</g>
</g>
<!-- Node2&#45;&gt;Node29 -->
<g id="edge38" class="edge"><title>Node2&#45;&gt;Node29</title>
<path fill="none" stroke="midnightblue" d="M635.78,-343.325C749.938,-339.226 1033.57,-326.989 1269.5,-300 1270.77,-299.855 1272.06,-299.7 1273.35,-299.538"/>
<polygon fill="midnightblue" stroke="midnightblue" points="1273.98,-302.985 1283.42,-298.168 1273.03,-296.05 1273.98,-302.985"/>
</g>
<!-- Node31 -->
<g id="node31" class="node"><title>Node31</title>
<g id="a_node31"><a xlink:href="../../dd/dd5/torcadminthread_8h.html" target="_top" xlink:title="torcadminthread.h">
<polygon fill="white" stroke="black" points="408.5,-280.5 408.5,-299.5 514.5,-299.5 514.5,-280.5 408.5,-280.5"/>
<text text-anchor="middle" x="461.5" y="-287.5" font-family="Helvetica,sans-Serif" font-size="10.00">torcadminthread.h</text>
</a>
</g>
</g>
<!-- Node2&#45;&gt;Node31 -->
<g id="edge42" class="edge"><title>Node2&#45;&gt;Node31</title>
<path fill="none" stroke="midnightblue" d="M565.01,-336.444C544.858,-327.596 513.177,-313.687 490.169,-303.586"/>
<polygon fill="midnightblue" stroke="midnightblue" points="491.462,-300.332 480.899,-299.516 488.648,-306.741 491.462,-300.332"/>
</g>
<!-- Node35 -->
<g id="node35" class="node"><title>Node35</title>
<g id="a_node35"><a xlink:href="../../db/d41/torccommandline_8h.html" target="_top" xlink:title="torccommandline.h">
<polygon fill="white" stroke="black" points="1003.5,-224.5 1003.5,-243.5 1113.5,-243.5 1113.5,-224.5 1003.5,-224.5"/>
<text text-anchor="middle" x="1058.5" y="-231.5" font-family="Helvetica,sans-Serif" font-size="10.00">torccommandline.h</text>
</a>
</g>
</g>
<!-- Node2&#45;&gt;Node35 -->
<g id="edge46" class="edge"><title>Node2&#45;&gt;Node35</title>
<path fill="none" stroke="midnightblue" d="M621.3,-336.46C706.611,-316.662 917.772,-267.658 1011.91,-245.812"/>
<polygon fill="midnightblue" stroke="midnightblue" points="1012.77,-249.205 1021.72,-243.535 1011.19,-242.386 1012.77,-249.205"/>
</g>
<!-- Node8&#45;&gt;Node3 -->
<g id="edge10" class="edge"><title>Node8&#45;&gt;Node3</title>
<path fill="none" stroke="midnightblue" d="M623.209,-288.056C730.425,-285.081 1029.46,-274.231 1122.5,-244 1138.81,-238.7 1140.67,-232.61 1155.5,-224 1174.22,-213.13 1195.65,-201.252 1211.76,-192.43"/>
<polygon fill="midnightblue" stroke="midnightblue" points="1213.47,-195.484 1220.57,-187.62 1210.11,-189.34 1213.47,-195.484"/>
</g>
<!-- Node8&#45;&gt;Node5 -->
<g id="edge9" class="edge"><title>Node8&#45;&gt;Node5</title>
<path fill="none" stroke="midnightblue" d="M574.499,-280.37C557.7,-266.338 522.232,-238.675 487.5,-224 459.905,-212.341 384.615,-197.775 331.64,-188.43"/>
<polygon fill="midnightblue" stroke="midnightblue" points="332.148,-184.966 321.695,-186.69 330.942,-191.861 332.148,-184.966"/>
</g>
<!-- Node9 -->
<g id="node9" class="node"><title>Node9</title>
<polygon fill="white" stroke="#bfbfbf" points="438,-224.5 438,-243.5 479,-243.5 479,-224.5 438,-224.5"/>
<text text-anchor="middle" x="458.5" y="-231.5" font-family="Helvetica,sans-Serif" font-size="10.00">QSet</text>
</g>
<!-- Node8&#45;&gt;Node9 -->
<g id="edge8" class="edge"><title>Node8&#45;&gt;Node9</title>
<path fill="none" stroke="midnightblue" d="M564.535,-280.444C543.891,-271.596 511.437,-257.687 487.868,-247.586"/>
<polygon fill="midnightblue" stroke="midnightblue" points="488.942,-244.239 478.372,-243.516 486.184,-250.673 488.942,-244.239"/>
</g>
<!-- Node10 -->
<g id="node10" class="node"><title>Node10</title>
<polygon fill="white" stroke="#bfbfbf" points="835.5,-168.5 835.5,-187.5 893.5,-187.5 893.5,-168.5 835.5,-168.5"/>
<text text-anchor="middle" x="864.5" y="-175.5" font-family="Helvetica,sans-Serif" font-size="10.00">QVariant</text>
</g>
<!-- Node8&#45;&gt;Node10 -->
<g id="edge11" class="edge"><title>Node8&#45;&gt;Node10</title>
<path fill="none" stroke="midnightblue" d="M623.037,-286.245C665.714,-281.93 735.601,-271.047 789.5,-244 813.669,-231.872 836.391,-210.186 850.357,-195.219"/>
<polygon fill="midnightblue" stroke="midnightblue" points="853.05,-197.459 857.169,-187.698 847.862,-192.76 853.05,-197.459"/>
</g>
<!-- Node11 -->
<g id="node11" class="node"><title>Node11</title>
<polygon fill="white" stroke="#bfbfbf" points="351,-224.5 351,-243.5 420,-243.5 420,-224.5 351,-224.5"/>
<text text-anchor="middle" x="385.5" y="-231.5" font-family="Helvetica,sans-Serif" font-size="10.00">QStringList</text>
</g>
<!-- Node8&#45;&gt;Node11 -->
<g id="edge12" class="edge"><title>Node8&#45;&gt;Node11</title>
<path fill="none" stroke="midnightblue" d="M552.968,-280.444C518.908,-271.201 464.494,-256.436 426.985,-246.257"/>
<polygon fill="midnightblue" stroke="midnightblue" points="427.452,-242.758 416.885,-243.516 425.619,-249.513 427.452,-242.758"/>
</g>
<!-- Node12 -->
<g id="node12" class="node"><title>Node12</title>
<g id="a_node12"><a xlink:href="../../d3/dee/torchttpservice_8h.html" target="_top" xlink:title="torchttpservice.h">
<polygon fill="white" stroke="black" points="535.5,-224.5 535.5,-243.5 633.5,-243.5 633.5,-224.5 535.5,-224.5"/>
<text text-anchor="middle" x="584.5" y="-231.5" font-family="Helvetica,sans-Serif" font-size="10.00">torchttpservice.h</text>
</a>
</g>
</g>
<!-- Node8&#45;&gt;Node12 -->
<g id="edge13" class="edge"><title>Node8&#45;&gt;Node12</title>
<path fill="none" stroke="midnightblue" d="M584.5,-280.083C584.5,-273.006 584.5,-262.861 584.5,-253.986"/>
<polygon fill="midnightblue" stroke="midnightblue" points="588,-253.751 584.5,-243.751 581,-253.751 588,-253.751"/>
</g>
<!-- Node24 -->
<g id="node24" class="node"><title>Node24</title>
<g id="a_node24"><a xlink:href="../../d8/dfe/torcreferencecounted_8h.html" target="_top" xlink:title="torcreferencecounted.h">
<polygon fill="white" stroke="black" points="652,-224.5 652,-243.5 781,-243.5 781,-224.5 652,-224.5"/>
<text text-anchor="middle" x="716.5" y="-231.5" font-family="Helvetica,sans-Serif" font-size="10.00">torcreferencecounted.h</text>
</a>
</g>
</g>
<!-- Node8&#45;&gt;Node24 -->
<g id="edge31" class="edge"><title>Node8&#45;&gt;Node24</title>
<path fill="none" stroke="midnightblue" d="M605.416,-280.444C627.236,-271.517 661.65,-257.439 686.392,-247.317"/>
<polygon fill="midnightblue" stroke="midnightblue" points="687.752,-250.542 695.682,-243.516 685.101,-244.063 687.752,-250.542"/>
</g>
<!-- Node12&#45;&gt;Node5 -->
<g id="edge16" class="edge"><title>Node12&#45;&gt;Node5</title>
<path fill="none" stroke="midnightblue" d="M535.538,-224.444C480.153,-214.765 390.108,-199.029 331.846,-188.847"/>
<polygon fill="midnightblue" stroke="midnightblue" points="332.163,-185.349 321.71,-187.075 330.958,-192.245 332.163,-185.349"/>
</g>
<!-- Node12&#45;&gt;Node6 -->
<g id="edge15" class="edge"><title>Node12&#45;&gt;Node6</title>
<path fill="none" stroke="midnightblue" d="M633.504,-225.054C636.544,-224.667 639.561,-224.311 642.5,-224 921.84,-194.429 993.873,-214.718 1273.5,-188 1283.39,-187.055 1294.05,-185.752 1303.91,-184.43"/>
<polygon fill="midnightblue" stroke="midnightblue" points="1304.39,-187.897 1313.82,-183.061 1303.43,-180.963 1304.39,-187.897"/>
</g>
<!-- Node13 -->
<g id="node13" class="node"><title>Node13</title>
<polygon fill="white" stroke="#bfbfbf" points="314.5,-56.5 314.5,-75.5 358.5,-75.5 358.5,-56.5 314.5,-56.5"/>
<text text-anchor="middle" x="336.5" y="-63.5" font-family="Helvetica,sans-Serif" font-size="10.00">QMap</text>
</g>
<!-- Node12&#45;&gt;Node13 -->
<g id="edge14" class="edge"><title>Node12&#45;&gt;Node13</title>
<path fill="none" stroke="midnightblue" d="M535.417,-225.554C475.485,-216.038 380.557,-199.432 368.5,-188 340.206,-161.171 335.855,-112.502 335.783,-85.7924"/>
<polygon fill="midnightblue" stroke="midnightblue" points="339.287,-85.5812 335.968,-75.5196 332.288,-85.4548 339.287,-85.5812"/>
</g>
<!-- Node14 -->
<g id="node14" class="node"><title>Node14</title>
<polygon fill="white" stroke="#bfbfbf" points="495,-168.5 495,-187.5 574,-187.5 574,-168.5 495,-168.5"/>
<text text-anchor="middle" x="534.5" y="-175.5" font-family="Helvetica,sans-Serif" font-size="10.00">QMetaObject</text>
</g>
<!-- Node12&#45;&gt;Node14 -->
<g id="edge17" class="edge"><title>Node12&#45;&gt;Node14</title>
<path fill="none" stroke="midnightblue" d="M576.244,-224.083C569.035,-216.298 558.39,-204.801 549.654,-195.367"/>
<polygon fill="midnightblue" stroke="midnightblue" points="551.965,-192.711 542.603,-187.751 546.829,-197.467 551.965,-192.711"/>
</g>
<!-- Node15 -->
<g id="node15" class="node"><title>Node15</title>
<polygon fill="white" stroke="#bfbfbf" points="592,-168.5 592,-187.5 691,-187.5 691,-168.5 592,-168.5"/>
<text text-anchor="middle" x="641.5" y="-175.5" font-family="Helvetica,sans-Serif" font-size="10.00">QCoreApplication</text>
</g>
<!-- Node12&#45;&gt;Node15 -->
<g id="edge18" class="edge"><title>Node12&#45;&gt;Node15</title>
<path fill="none" stroke="midnightblue" d="M593.658,-224.324C602.001,-216.42 614.532,-204.548 624.677,-194.938"/>
<polygon fill="midnightblue" stroke="midnightblue" points="627.323,-197.252 632.175,-187.834 622.509,-192.171 627.323,-197.252"/>
</g>
<!-- Node16 -->
<g id="node16" class="node"><title>Node16</title>
<g id="a_node16"><a xlink:href="../../d4/d11/torchttphandler_8h.html" target="_top" xlink:title="torchttphandler.h">
<polygon fill="white" stroke="black" points="378,-168.5 378,-187.5 477,-187.5 477,-168.5 378,-168.5"/>
<text text-anchor="middle" x="427.5" y="-175.5" font-family="Helvetica,sans-Serif" font-size="10.00">torchttphandler.h</text>
</a>
</g>
</g>
<!-- Node12&#45;&gt;Node16 -->
<g id="edge19" class="edge"><title>Node12&#45;&gt;Node16</title>
<path fill="none" stroke="midnightblue" d="M559.623,-224.444C533.211,-215.359 491.285,-200.939 461.758,-190.783"/>
<polygon fill="midnightblue" stroke="midnightblue" points="462.855,-187.459 452.261,-187.516 460.579,-194.079 462.855,-187.459"/>
</g>
<!-- Node18 -->
<g id="node18" class="node"><title>Node18</title>
<g id="a_node18"><a xlink:href="../../df/dd7/torchttprequest_8h.html" target="_top" xlink:title="torchttprequest.h">
<polygon fill="white" stroke="black" points="669,-112.5 669,-131.5 770,-131.5 770,-112.5 669,-112.5"/>
<text text-anchor="middle" x="719.5" y="-119.5" font-family="Helvetica,sans-Serif" font-size="10.00">torchttprequest.h</text>
</a>
</g>
</g>
<!-- Node12&#45;&gt;Node18 -->
<g id="edge30" class="edge"><title>Node12&#45;&gt;Node18</title>
<path fill="none" stroke="midnightblue" d="M632.277,-224.439C655.416,-218.015 681.925,-206.935 699.5,-188 711.162,-175.436 716.029,-156.216 718.057,-141.931"/>
<polygon fill="midnightblue" stroke="midnightblue" points="721.562,-142.071 719.151,-131.754 714.602,-141.323 721.562,-142.071"/>
</g>
<!-- Node16&#45;&gt;Node4 -->
<g id="edge20" class="edge"><title>Node16&#45;&gt;Node4</title>
<path fill="none" stroke="midnightblue" d="M443.073,-168.487C456.65,-160.466 476.198,-147.4 489.5,-132 501.574,-118.022 510.88,-99.0202 516.679,-85.1727"/>
<polygon fill="midnightblue" stroke="midnightblue" points="519.98,-86.3426 520.418,-75.7568 513.474,-83.7593 519.98,-86.3426"/>
</g>
<!-- Node17 -->
<g id="node17" class="node"><title>Node17</title>
<polygon fill="white" stroke="#bfbfbf" points="402.5,-112.5 402.5,-131.5 480.5,-131.5 480.5,-112.5 402.5,-112.5"/>
<text text-anchor="middle" x="441.5" y="-119.5" font-family="Helvetica,sans-Serif" font-size="10.00">QVariantMap</text>
</g>
<!-- Node16&#45;&gt;Node17 -->
<g id="edge21" class="edge"><title>Node16&#45;&gt;Node17</title>
<path fill="none" stroke="midnightblue" d="M429.812,-168.083C431.667,-160.927 434.335,-150.635 436.654,-141.691"/>
<polygon fill="midnightblue" stroke="midnightblue" points="440.109,-142.309 439.231,-131.751 433.334,-140.553 440.109,-142.309"/>
</g>
<!-- Node16&#45;&gt;Node18 -->
<g id="edge22" class="edge"><title>Node16&#45;&gt;Node18</title>
<path fill="none" stroke="midnightblue" d="M473.768,-168.444C525.241,-158.925 608.393,-143.547 663.499,-133.356"/>
<polygon fill="midnightblue" stroke="midnightblue" points="664.251,-136.777 673.448,-131.516 662.978,-129.893 664.251,-136.777"/>
</g>
<!-- Node18&#45;&gt;Node4 -->
<g id="edge25" class="edge"><title>Node18&#45;&gt;Node4</title>
<path fill="none" stroke="midnightblue" d="M688.443,-112.444C653.515,-102.821 596.856,-87.2102 559.883,-77.0239"/>
<polygon fill="midnightblue" stroke="midnightblue" points="560.582,-73.5861 550.011,-74.3042 558.723,-80.3347 560.582,-73.5861"/>
</g>
<!-- Node18&#45;&gt;Node13 -->
<g id="edge23" class="edge"><title>Node18&#45;&gt;Node13</title>
<path fill="none" stroke="midnightblue" d="M668.641,-113.829C588.483,-102.528 435.057,-80.8958 368.556,-71.5197"/>
<polygon fill="midnightblue" stroke="midnightblue" points="369.045,-68.054 358.654,-70.1236 368.067,-74.9855 369.045,-68.054"/>
</g>
<!-- Node19 -->
<g id="node19" class="node"><title>Node19</title>
<polygon fill="white" stroke="#bfbfbf" points="785,-56.5 785,-75.5 826,-75.5 826,-56.5 785,-56.5"/>
<text text-anchor="middle" x="805.5" y="-63.5" font-family="Helvetica,sans-Serif" font-size="10.00">QPair</text>
</g>
<!-- Node18&#45;&gt;Node19 -->
<g id="edge24" class="edge"><title>Node18&#45;&gt;Node19</title>
<path fill="none" stroke="midnightblue" d="M733.317,-112.324C746.733,-103.9 767.324,-90.9709 783.086,-81.0741"/>
<polygon fill="midnightblue" stroke="midnightblue" points="785.109,-83.9364 791.717,-75.6545 781.387,-78.0081 785.109,-83.9364"/>
</g>
<!-- Node20 -->
<g id="node20" class="node"><title>Node20</title>
<polygon fill="white" stroke="#bfbfbf" points="583,-56.5 583,-75.5 654,-75.5 654,-56.5 583,-56.5"/>
<text text-anchor="middle" x="618.5" y="-63.5" font-family="Helvetica,sans-Serif" font-size="10.00">QDateTime</text>
</g>
<!-- Node18&#45;&gt;Node20 -->
<g id="edge26" class="edge"><title>Node18&#45;&gt;Node20</title>
<path fill="none" stroke="midnightblue" d="M703.273,-112.324C687.149,-103.703 662.2,-90.3643 643.536,-80.3855"/>
<polygon fill="midnightblue" stroke="midnightblue" points="645.156,-77.283 634.687,-75.6545 641.856,-83.456 645.156,-77.283"/>
</g>
<!-- Node21 -->
<g id="node21" class="node"><title>Node21</title>
<g id="a_node21"><a xlink:href="../../de/de6/torchttpreader_8h.html" target="_top" xlink:title="torchttpreader.h">
<polygon fill="white" stroke="black" points="672,-56.5 672,-75.5 767,-75.5 767,-56.5 672,-56.5"/>
<text text-anchor="middle" x="719.5" y="-63.5" font-family="Helvetica,sans-Serif" font-size="10.00">torchttpreader.h</text>
</a>
</g>
</g>
<!-- Node18&#45;&gt;Node21 -->
<g id="edge27" class="edge"><title>Node18&#45;&gt;Node21</title>
<path fill="none" stroke="midnightblue" d="M719.5,-112.083C719.5,-105.006 719.5,-94.8611 719.5,-85.9865"/>
<polygon fill="midnightblue" stroke="midnightblue" points="723,-85.751 719.5,-75.7511 716,-85.7511 723,-85.751"/>
</g>
<!-- Node22 -->
<g id="node22" class="node"><title>Node22</title>
<polygon fill="white" stroke="#bfbfbf" points="639,-0.5 639,-19.5 710,-19.5 710,-0.5 639,-0.5"/>
<text text-anchor="middle" x="674.5" y="-7.5" font-family="Helvetica,sans-Serif" font-size="10.00">QByteArray</text>
</g>
<!-- Node21&#45;&gt;Node22 -->
<g id="edge28" class="edge"><title>Node21&#45;&gt;Node22</title>
<path fill="none" stroke="midnightblue" d="M712.069,-56.083C705.647,-48.3768 696.194,-37.0333 688.378,-27.6531"/>
<polygon fill="midnightblue" stroke="midnightblue" points="690.883,-25.1927 681.793,-19.7511 685.506,-29.674 690.883,-25.1927"/>
</g>
<!-- Node23 -->
<g id="node23" class="node"><title>Node23</title>
<polygon fill="white" stroke="#bfbfbf" points="728.5,-0.5 728.5,-19.5 800.5,-19.5 800.5,-0.5 728.5,-0.5"/>
<text text-anchor="middle" x="764.5" y="-7.5" font-family="Helvetica,sans-Serif" font-size="10.00">QTcpSocket</text>
</g>
<!-- Node21&#45;&gt;Node23 -->
<g id="edge29" class="edge"><title>Node21&#45;&gt;Node23</title>
<path fill="none" stroke="midnightblue" d="M726.931,-56.083C733.353,-48.3768 742.806,-37.0333 750.622,-27.6531"/>
<polygon fill="midnightblue" stroke="midnightblue" points="753.494,-29.674 757.207,-19.7511 748.117,-25.1927 753.494,-29.674"/>
</g>
<!-- Node25 -->
<g id="node25" class="node"><title>Node25</title>
<polygon fill="white" stroke="#bfbfbf" points="747.5,-168.5 747.5,-187.5 817.5,-187.5 817.5,-168.5 747.5,-168.5"/>
<text text-anchor="middle" x="782.5" y="-175.5" font-family="Helvetica,sans-Serif" font-size="10.00">QAtomicInt</text>
</g>
<!-- Node24&#45;&gt;Node25 -->
<g id="edge32" class="edge"><title>Node24&#45;&gt;Node25</title>
<path fill="none" stroke="midnightblue" d="M727.104,-224.324C736.956,-216.263 751.851,-204.077 763.715,-194.369"/>
<polygon fill="midnightblue" stroke="midnightblue" points="766.18,-196.875 771.703,-187.834 761.747,-191.457 766.18,-196.875"/>
</g>
<!-- Node27 -->
<g id="node27" class="node"><title>Node27</title>
<g id="a_node27"><a xlink:href="../../d3/d66/torcevent_8h.html" target="_top" xlink:title="torcevent.h">
<polygon fill="white" stroke="black" points="19,-224.5 19,-243.5 90,-243.5 90,-224.5 19,-224.5"/>
<text text-anchor="middle" x="54.5" y="-231.5" font-family="Helvetica,sans-Serif" font-size="10.00">torcevent.h</text>
</a>
</g>
</g>
<!-- Node26&#45;&gt;Node27 -->
<g id="edge34" class="edge"><title>Node26&#45;&gt;Node27</title>
<path fill="none" stroke="midnightblue" d="M49.4908,-280.083C50.2859,-272.927 51.4294,-262.635 52.4232,-253.691"/>
<polygon fill="midnightblue" stroke="midnightblue" points="55.9018,-254.076 53.5277,-243.751 48.9447,-253.303 55.9018,-254.076"/>
</g>
<!-- Node27&#45;&gt;Node10 -->
<g id="edge36" class="edge"><title>Node27&#45;&gt;Node10</title>
<path fill="none" stroke="midnightblue" d="M90.3778,-229.023C106.851,-227.297 126.651,-225.363 144.5,-224 443.753,-201.152 524.249,-230.478 824.814,-187.98"/>
<polygon fill="midnightblue" stroke="midnightblue" points="825.737,-191.384 835.142,-186.504 824.747,-184.454 825.737,-191.384"/>
</g>
<!-- Node27&#45;&gt;Node13 -->
<g id="edge35" class="edge"><title>Node27&#45;&gt;Node13</title>
<path fill="none" stroke="midnightblue" d="M47.7404,-224.185C38.4088,-210.859 24.0651,-185.307 36.5,-168 98.9443,-81.0889 239.979,-67.9589 303.907,-66.652"/>
<polygon fill="midnightblue" stroke="midnightblue" points="304.239,-70.1485 314.198,-66.5319 304.157,-63.149 304.239,-70.1485"/>
</g>
<!-- Node28 -->
<g id="node28" class="node"><title>Node28</title>
<polygon fill="white" stroke="#bfbfbf" points="46,-168.5 46,-187.5 97,-187.5 97,-168.5 46,-168.5"/>
<text text-anchor="middle" x="71.5" y="-175.5" font-family="Helvetica,sans-Serif" font-size="10.00">QEvent</text>
</g>
<!-- Node27&#45;&gt;Node28 -->
<g id="edge37" class="edge"><title>Node27&#45;&gt;Node28</title>
<path fill="none" stroke="midnightblue" d="M57.3072,-224.083C59.5847,-216.849 62.8713,-206.409 65.7084,-197.397"/>
<polygon fill="midnightblue" stroke="midnightblue" points="69.0806,-198.341 68.745,-187.751 62.4036,-196.239 69.0806,-198.341"/>
</g>
<!-- Node30 -->
<g id="node30" class="node"><title>Node30</title>
<g id="a_node30"><a xlink:href="../../d4/da3/torcdb_8h.html" target="_top" xlink:title="torcdb.h">
<polygon fill="white" stroke="black" points="1359.5,-224.5 1359.5,-243.5 1415.5,-243.5 1415.5,-224.5 1359.5,-224.5"/>
<text text-anchor="middle" x="1387.5" y="-231.5" font-family="Helvetica,sans-Serif" font-size="10.00">torcdb.h</text>
</a>
</g>
</g>
<!-- Node29&#45;&gt;Node30 -->
<g id="edge39" class="edge"><title>Node29&#45;&gt;Node30</title>
<path fill="none" stroke="midnightblue" d="M1334.62,-280.324C1344.03,-272.263 1358.24,-260.077 1369.57,-250.369"/>
<polygon fill="midnightblue" stroke="midnightblue" points="1371.88,-252.999 1377.19,-243.834 1367.32,-247.684 1371.88,-252.999"/>
</g>
<!-- Node30&#45;&gt;Node3 -->
<g id="edge40" class="edge"><title>Node30&#45;&gt;Node3</title>
<path fill="none" stroke="midnightblue" d="M1363.57,-224.444C1338.28,-215.399 1298.2,-201.064 1269.82,-190.916"/>
<polygon fill="midnightblue" stroke="midnightblue" points="1270.91,-187.588 1260.31,-187.516 1268.55,-194.179 1270.91,-187.588"/>
</g>
<!-- Node30&#45;&gt;Node6 -->
<g id="edge41" class="edge"><title>Node30&#45;&gt;Node6</title>
<path fill="none" stroke="midnightblue" d="M1379.74,-224.083C1372.96,-216.298 1362.96,-204.801 1354.74,-195.367"/>
<polygon fill="midnightblue" stroke="midnightblue" points="1357.32,-192.996 1348.12,-187.751 1352.04,-197.592 1357.32,-192.996"/>
</g>
<!-- Node32 -->
<g id="node32" class="node"><title>Node32</title>
<polygon fill="white" stroke="#bfbfbf" points="292,-224.5 292,-243.5 333,-243.5 333,-224.5 292,-224.5"/>
<text text-anchor="middle" x="312.5" y="-231.5" font-family="Helvetica,sans-Serif" font-size="10.00">QList</text>
</g>
<!-- Node31&#45;&gt;Node32 -->
<g id="edge43" class="edge"><title>Node31&#45;&gt;Node32</title>
<path fill="none" stroke="midnightblue" d="M437.891,-280.444C412.165,-271.12 370.932,-256.177 342.827,-245.991"/>
<polygon fill="midnightblue" stroke="midnightblue" points="343.714,-242.59 333.12,-242.473 341.329,-249.171 343.714,-242.59"/>
</g>
<!-- Node33 -->
<g id="node33" class="node"><title>Node33</title>
<g id="a_node33"><a xlink:href="../../dd/db0/torcqthread_8h.html" target="_top" xlink:title="torcqthread.h">
<polygon fill="white" stroke="black" points="153.5,-224.5 153.5,-243.5 235.5,-243.5 235.5,-224.5 153.5,-224.5"/>
<text text-anchor="middle" x="194.5" y="-231.5" font-family="Helvetica,sans-Serif" font-size="10.00">torcqthread.h</text>
</a>
</g>
</g>
<!-- Node31&#45;&gt;Node33 -->
<g id="edge44" class="edge"><title>Node31&#45;&gt;Node33</title>
<path fill="none" stroke="midnightblue" d="M419.193,-280.444C372.145,-270.928 296.152,-255.559 245.764,-245.368"/>
<polygon fill="midnightblue" stroke="midnightblue" points="246.227,-241.891 235.732,-243.339 244.839,-248.752 246.227,-241.891"/>
</g>
<!-- Node34 -->
<g id="node34" class="node"><title>Node34</title>
<polygon fill="white" stroke="#bfbfbf" points="154,-168.5 154,-187.5 211,-187.5 211,-168.5 154,-168.5"/>
<text text-anchor="middle" x="182.5" y="-175.5" font-family="Helvetica,sans-Serif" font-size="10.00">QThread</text>
</g>
<!-- Node33&#45;&gt;Node34 -->
<g id="edge45" class="edge"><title>Node33&#45;&gt;Node34</title>
<path fill="none" stroke="midnightblue" d="M192.518,-224.083C190.928,-216.927 188.641,-206.635 186.654,-197.691"/>
<polygon fill="midnightblue" stroke="midnightblue" points="190.031,-196.754 184.445,-187.751 183.197,-198.272 190.031,-196.754"/>
</g>
<!-- Node35&#45;&gt;Node3 -->
<g id="edge47" class="edge"><title>Node35&#45;&gt;Node3</title>
<path fill="none" stroke="midnightblue" d="M1086.7,-224.444C1117,-215.253 1165.29,-200.602 1198.82,-190.43"/>
<polygon fill="midnightblue" stroke="midnightblue" points="1200.17,-193.68 1208.72,-187.428 1198.13,-186.981 1200.17,-193.68"/>
</g>
<!-- Node35&#45;&gt;Node10 -->
<g id="edge48" class="edge"><title>Node35&#45;&gt;Node10</title>
<path fill="none" stroke="midnightblue" d="M1027.76,-224.444C994.068,-215.065 939.945,-200 903.34,-189.811"/>
<polygon fill="midnightblue" stroke="midnightblue" points="904.084,-186.385 893.512,-187.075 902.207,-193.129 904.084,-186.385"/>
</g>
<!-- Node36 -->
<g id="node36" class="node"><title>Node36</title>
<polygon fill="white" stroke="#bfbfbf" points="989,-168.5 989,-187.5 1038,-187.5 1038,-168.5 989,-168.5"/>
<text text-anchor="middle" x="1013.5" y="-175.5" font-family="Helvetica,sans-Serif" font-size="10.00">QHash</text>
</g>
<!-- Node35&#45;&gt;Node36 -->
<g id="edge49" class="edge"><title>Node35&#45;&gt;Node36</title>
<path fill="none" stroke="midnightblue" d="M1051.07,-224.083C1044.65,-216.377 1035.19,-205.033 1027.38,-195.653"/>
<polygon fill="midnightblue" stroke="midnightblue" points="1029.88,-193.193 1020.79,-187.751 1024.51,-197.674 1029.88,-193.193"/>
</g>
<!-- Node37 -->
<g id="node37" class="node"><title>Node37</title>
<g id="a_node37"><a xlink:href="../../d4/df9/torclogging_8h.html" target="_top" xlink:title="torclogging.h">
<polygon fill="white" stroke="black" points="1056,-168.5 1056,-187.5 1135,-187.5 1135,-168.5 1056,-168.5"/>
<text text-anchor="middle" x="1095.5" y="-175.5" font-family="Helvetica,sans-Serif" font-size="10.00">torclogging.h</text>
</a>
</g>
</g>
<!-- Node35&#45;&gt;Node37 -->
<g id="edge50" class="edge"><title>Node35&#45;&gt;Node37</title>
<path fill="none" stroke="midnightblue" d="M1064.61,-224.083C1069.78,-216.534 1077.35,-205.495 1083.69,-196.23"/>
<polygon fill="midnightblue" stroke="midnightblue" points="1086.74,-197.979 1089.5,-187.751 1080.96,-194.022 1086.74,-197.979"/>
</g>
<!-- Node38 -->
<g id="node38" class="node"><title>Node38</title>
<polygon fill="white" stroke="#bfbfbf" points="999,-112.5 999,-131.5 1052,-131.5 1052,-112.5 999,-112.5"/>
<text text-anchor="middle" x="1025.5" y="-119.5" font-family="Helvetica,sans-Serif" font-size="10.00">stdint.h</text>
</g>
<!-- Node37&#45;&gt;Node38 -->
<g id="edge51" class="edge"><title>Node37&#45;&gt;Node38</title>
<path fill="none" stroke="midnightblue" d="M1084.25,-168.324C1073.7,-160.185 1057.7,-147.839 1045.06,-138.087"/>
<polygon fill="midnightblue" stroke="midnightblue" points="1047.01,-135.171 1036.95,-131.834 1042.73,-140.713 1047.01,-135.171"/>
</g>
<!-- Node39 -->
<g id="node39" class="node"><title>Node39</title>
<polygon fill="white" stroke="#bfbfbf" points="1070,-112.5 1070,-131.5 1121,-131.5 1121,-112.5 1070,-112.5"/>
<text text-anchor="middle" x="1095.5" y="-119.5" font-family="Helvetica,sans-Serif" font-size="10.00">errno.h</text>
</g>
<!-- Node37&#45;&gt;Node39 -->
<g id="edge52" class="edge"><title>Node37&#45;&gt;Node39</title>
<path fill="none" stroke="midnightblue" d="M1095.5,-168.083C1095.5,-161.006 1095.5,-150.861 1095.5,-141.986"/>
<polygon fill="midnightblue" stroke="midnightblue" points="1099,-141.751 1095.5,-131.751 1092,-141.751 1099,-141.751"/>
</g>
<!-- Node40 -->
<g id="node40" class="node"><title>Node40</title>
<g id="a_node40"><a xlink:href="../../d1/d37/torcloggingdefs_8h.html" target="_top" xlink:title="torcloggingdefs.h">
<polygon fill="white" stroke="black" points="1139,-112.5 1139,-131.5 1238,-131.5 1238,-112.5 1139,-112.5"/>
<text text-anchor="middle" x="1188.5" y="-119.5" font-family="Helvetica,sans-Serif" font-size="10.00">torcloggingdefs.h</text>
</a>
</g>
</g>
<!-- Node37&#45;&gt;Node40 -->
<g id="edge53" class="edge"><title>Node37&#45;&gt;Node40</title>
<path fill="none" stroke="midnightblue" d="M1110.44,-168.324C1125.09,-159.822 1147.63,-146.729 1164.74,-136.797"/>
<polygon fill="midnightblue" stroke="midnightblue" points="1166.7,-139.703 1173.6,-131.655 1163.19,-133.649 1166.7,-139.703"/>
</g>
<!-- Node42 -->
<g id="node42" class="node"><title>Node42</title>
<g id="a_node42"><a xlink:href="../../dd/d69/torcinput_8h.html" target="_top" xlink:title="torcinput.h">
<polygon fill="white" stroke="black" points="1020.5,-336.5 1020.5,-355.5 1088.5,-355.5 1088.5,-336.5 1020.5,-336.5"/>
<text text-anchor="middle" x="1054.5" y="-343.5" font-family="Helvetica,sans-Serif" font-size="10.00">torcinput.h</text>
</a>
</g>
</g>
<!-- Node41&#45;&gt;Node42 -->
<g id="edge55" class="edge"><title>Node41&#45;&gt;Node42</title>
<path fill="none" stroke="midnightblue" d="M972.245,-392.324C987.819,-383.743 1011.88,-370.486 1029.96,-360.522"/>
<polygon fill="midnightblue" stroke="midnightblue" points="1031.72,-363.546 1038.79,-355.655 1028.35,-357.415 1031.72,-363.546"/>
</g>
<!-- Node42&#45;&gt;Node3 -->
<g id="edge57" class="edge"><title>Node42&#45;&gt;Node3</title>
<path fill="none" stroke="midnightblue" d="M1088.74,-345.562C1163.52,-345.981 1337.74,-342.289 1374.5,-300 1380.33,-293.291 1378.52,-287.927 1374.5,-280 1352.37,-236.382 1301.58,-207.077 1268.17,-191.726"/>
<polygon fill="midnightblue" stroke="midnightblue" points="1269.39,-188.439 1258.83,-187.587 1266.56,-194.839 1269.39,-188.439"/>
</g>
<!-- Node42&#45;&gt;Node6 -->
<g id="edge56" class="edge"><title>Node42&#45;&gt;Node6</title>
<path fill="none" stroke="midnightblue" d="M1088.69,-342.792C1162.8,-337.621 1335.91,-323.369 1389.5,-300 1425.39,-284.35 1440.79,-279.407 1457.5,-244 1474.33,-208.334 1417.42,-191.389 1377.14,-184.019"/>
<polygon fill="midnightblue" stroke="midnightblue" points="1377.51,-180.531 1367.06,-182.306 1376.34,-187.432 1377.51,-180.531"/>
</g>
<!-- Node42&#45;&gt;Node12 -->
<g id="edge58" class="edge"><title>Node42&#45;&gt;Node12</title>
<path fill="none" stroke="midnightblue" d="M1020.32,-337C937.368,-317.586 725.289,-267.951 630.954,-245.872"/>
<polygon fill="midnightblue" stroke="midnightblue" points="631.657,-242.442 621.122,-243.571 630.062,-249.258 631.657,-242.442"/>
</g>
<!-- Node43 -->
<g id="node43" class="node"><title>Node43</title>
<g id="a_node43"><a xlink:href="../../d1/df7/torcdevice_8h.html" target="_top" xlink:title="torcdevice.h">
<polygon fill="white" stroke="black" points="1017,-280.5 1017,-299.5 1092,-299.5 1092,-280.5 1017,-280.5"/>
<text text-anchor="middle" x="1054.5" y="-287.5" font-family="Helvetica,sans-Serif" font-size="10.00">torcdevice.h</text>
</a>
</g>
</g>
<!-- Node42&#45;&gt;Node43 -->
<g id="edge59" class="edge"><title>Node42&#45;&gt;Node43</title>
<path fill="none" stroke="midnightblue" d="M1054.5,-336.083C1054.5,-329.006 1054.5,-318.861 1054.5,-309.986"/>
<polygon fill="midnightblue" stroke="midnightblue" points="1058,-309.751 1054.5,-299.751 1051,-309.751 1058,-309.751"/>
</g>
<!-- Node43&#45;&gt;Node3 -->
<g id="edge63" class="edge"><title>Node43&#45;&gt;Node3</title>
<path fill="none" stroke="midnightblue" d="M1071.49,-280.491C1088.65,-271.764 1115.78,-257.581 1138.5,-244 1165.88,-227.633 1196.35,-207.03 1215.93,-193.46"/>
<polygon fill="midnightblue" stroke="midnightblue" points="1218.16,-196.175 1224.36,-187.586 1214.16,-190.431 1218.16,-196.175"/>
</g>
<!-- Node43&#45;&gt;Node4 -->
<g id="edge62" class="edge"><title>Node43&#45;&gt;Node4</title>
<path fill="none" stroke="midnightblue" d="M1016.68,-285.404C967.258,-279.833 884.844,-267.253 866.5,-244 843.351,-214.656 926.915,-196.299 902.5,-168 866.84,-126.668 711.708,-147.948 659.5,-132 617.817,-119.267 572.808,-95.5908 546.443,-80.599"/>
<polygon fill="midnightblue" stroke="midnightblue" points="548.025,-77.4708 537.614,-75.505 544.527,-83.534 548.025,-77.4708"/>
</g>
<!-- Node43&#45;&gt;Node6 -->
<g id="edge61" class="edge"><title>Node43&#45;&gt;Node6</title>
<path fill="none" stroke="midnightblue" d="M1076.94,-280.368C1127.48,-260.93 1250.35,-213.674 1308.71,-191.228"/>
<polygon fill="midnightblue" stroke="midnightblue" points="1310.09,-194.448 1318.16,-187.591 1307.57,-187.915 1310.09,-194.448"/>
</g>
<!-- Node43&#45;&gt;Node24 -->
<g id="edge64" class="edge"><title>Node43&#45;&gt;Node24</title>
<path fill="none" stroke="midnightblue" d="M1016.71,-282.963C959.326,-273.795 849.532,-256.254 779.816,-245.116"/>
<polygon fill="midnightblue" stroke="midnightblue" points="780.259,-241.642 769.832,-243.521 779.155,-248.554 780.259,-241.642"/>
</g>
<!-- Node43&#45;&gt;Node36 -->
<g id="edge60" class="edge"><title>Node43&#45;&gt;Node36</title>
<path fill="none" stroke="midnightblue" d="M1076.26,-280.338C1101.63,-268.911 1138.21,-247.483 1122.5,-224 1113.77,-210.948 1076.36,-197.379 1047.78,-188.599"/>
<polygon fill="midnightblue" stroke="midnightblue" points="1048.68,-185.217 1038.1,-185.703 1046.67,-191.923 1048.68,-185.217"/>
</g>
<!-- Node44 -->
<g id="node44" class="node"><title>Node44</title>
<g id="a_node44"><a xlink:href="../../d2/d5b/torcdevicehandler_8h.html" target="_top" xlink:title="torcdevicehandler.h">
<polygon fill="white" stroke="black" points="875.5,-224.5 875.5,-243.5 985.5,-243.5 985.5,-224.5 875.5,-224.5"/>
<text text-anchor="middle" x="930.5" y="-231.5" font-family="Helvetica,sans-Serif" font-size="10.00">torcdevicehandler.h</text>
</a>
</g>
</g>
<!-- Node43&#45;&gt;Node44 -->
<g id="edge65" class="edge"><title>Node43&#45;&gt;Node44</title>
<path fill="none" stroke="midnightblue" d="M1034.85,-280.444C1014.54,-271.596 982.597,-257.687 959.402,-247.586"/>
<polygon fill="midnightblue" stroke="midnightblue" points="960.622,-244.3 950.056,-243.516 957.827,-250.718 960.622,-244.3"/>
</g>
<!-- Node44&#45;&gt;Node5 -->
<g id="edge68" class="edge"><title>Node44&#45;&gt;Node5</title>
<path fill="none" stroke="midnightblue" d="M875.432,-228.895C774.752,-221.322 554.24,-204.423 368.5,-188 356.634,-186.951 343.922,-185.763 331.827,-184.602"/>
<polygon fill="midnightblue" stroke="midnightblue" points="332.135,-181.116 321.845,-183.637 331.461,-188.083 332.135,-181.116"/>
</g>
<!-- Node44&#45;&gt;Node6 -->
<g id="edge67" class="edge"><title>Node44&#45;&gt;Node6</title>
<path fill="none" stroke="midnightblue" d="M985.652,-225.204C988.645,-224.793 991.609,-224.39 994.5,-224 1118.41,-207.294 1149.54,-204.323 1273.5,-188 1283.35,-186.704 1294,-185.281 1303.86,-183.957"/>
<polygon fill="midnightblue" stroke="midnightblue" points="1304.33,-187.426 1313.77,-182.623 1303.39,-180.488 1304.33,-187.426"/>
</g>
<!-- Node44&#45;&gt;Node10 -->
<g id="edge69" class="edge"><title>Node44&#45;&gt;Node10</title>
<path fill="none" stroke="midnightblue" d="M919.896,-224.324C910.044,-216.263 895.149,-204.077 883.285,-194.369"/>
<polygon fill="midnightblue" stroke="midnightblue" points="885.253,-191.457 875.297,-187.834 880.82,-196.875 885.253,-191.457"/>
</g>
<!-- Node44&#45;&gt;Node36 -->
<g id="edge66" class="edge"><title>Node44&#45;&gt;Node36</title>
<path fill="none" stroke="midnightblue" d="M943.835,-224.324C956.662,-215.979 976.285,-203.212 991.44,-193.352"/>
<polygon fill="midnightblue" stroke="midnightblue" points="993.724,-196.042 1000.2,-187.655 989.907,-190.174 993.724,-196.042"/>
</g>
</g>
</svg>
        <g id="navigator" transform="translate(0 0)" fill="#404254">
                <rect fill="#f2f5e9" fill-opacity="0.5" stroke="#606060" stroke-width=".5" x="0" y="0" width="60" height="60"/>
                <use id="zoomplus" xlink:href="#zoomPlus" x="17" y="9" onmousedown="handleZoom(evt,'in')"/>
                <use id="zoomminus" xlink:href="#zoomMin" x="42" y="9" onmousedown="handleZoom(evt,'out')"/>
                <use id="reset" xlink:href="#resetDef" x="30" y="36" onmousedown="handleReset()"/>
                <g id="arrowUp" xlink:href="#dirArrow" transform="translate(30 24)" onmousedown="handlePan(0,-1)">
                  <use xlink:href="#rim" fill="#404040">
                        <set attributeName="fill" to="#808080" begin="arrowUp.mouseover" end="arrowUp.mouseout"/>
                  </use>
                  <path fill="none" stroke="white" stroke-width="1.5" d="M0,-3.0v7 M-2.5,-0.5L0,-3.0L2.5,-0.5"/>
                </g>
                <g id="arrowRight" xlink:href="#dirArrow" transform="rotate(90) translate(36 -43)" onmousedown="handlePan(1,0)">
                  <use xlink:href="#rim" fill="#404040">
                        <set attributeName="fill" to="#808080" begin="arrowRight.mouseover" end="arrowRight.mouseout"/>
                  </use>
                  <path fill="none" stroke="white" stroke-width="1.5" d="M0,-3.0v7 M-2.5,-0.5L0,-3.0L2.5,-0.5"/>
                </g>
                <g id="arrowDown" xlink:href="#dirArrow" transform="rotate(180) translate(-30 -48)" onmousedown="handlePan(0,1)">
                  <use xlink:href="#rim" fill="#404040">
                        <set attributeName="fill" to="#808080" begin="arrowDown.mouseover" end="arrowDown.mouseout"/>
                  </use>
                  <path fill="none" stroke="white" stroke-width="1.5" d="M0,-3.0v7 M-2.5,-0.5L0,-3.0L2.5,-0.5"/>
                </g>
                <g id="arrowLeft" xlink:href="#dirArrow" transform="rotate(270) translate(-36 17)" onmousedown="handlePan(-1,0)">
                  <use xlink:href="#rim" fill="#404040">
                        <set attributeName="fill" to="#808080" begin="arrowLeft.mouseover" end="arrowLeft.mouseout"/>
                  </use>
                  <path fill="none" stroke="white" stroke-width="1.5" d="M0,-3.0v7 M-2.5,-0.5L0,-3.0L2.5,-0.5"/>
                </g>
        </g>
        <svg viewBox="0 0 15 15" width="100%" height="30px" preserveAspectRatio="xMaxYMin meet">
         <g id="arrow_out" transform="scale(0.3 0.3)">
          <a xlink:href="torcsysteminput_8cpp__incl_org.svg" target="_base">
           <rect id="button" ry="5" rx="5" y="6" x="6" height="38" width="38"
                fill="#f2f5e9" fill-opacity="0.5" stroke="#606060" stroke-width="1.0"/>
           <path id="arrow"
             d="M 11.500037,31.436501 C 11.940474,20.09759 22.043105,11.32322 32.158766,21.979434 L 37.068811,17.246167 C 37.068811,17.246167 37.088388,32 37.088388,32 L 22.160133,31.978069 C 22.160133,31.978069 26.997745,27.140456 26.997745,27.140456 C 18.528582,18.264221 13.291696,25.230495 11.500037,31.436501 z"
             style="fill:#404040;"/>
          </a>
         </g>
        </svg>
</svg>
