<?xml version="1.0" encoding="UTF-8" standalone="no"?>
<!DOCTYPE svg PUBLIC "-//W3C//DTD SVG 1.1//EN"
 "http://www.w3.org/Graphics/SVG/1.1/DTD/svg11.dtd">
<!-- Generated by graphviz version 2.38.0 (20140413.2041)
 -->
<!-- Title: torccamera.cpp Pages: 1 -->
<svg width="1452pt" height="420pt"
 viewBox="0.00 0.00 1451.50 420.00" xmlns="http://www.w3.org/2000/svg" xmlns:xlink="http://www.w3.org/1999/xlink">
<g id="graph0" class="graph" transform="scale(1 1) rotate(0) translate(4 416)">
<title>torccamera.cpp</title>
<polygon fill="white" stroke="none" points="-4,4 -4,-416 1447.5,-416 1447.5,4 -4,4"/>
<!-- Node1 -->
<g id="node1" class="node"><title>Node1</title>
<polygon fill="#bfbfbf" stroke="black" points="797.5,-392.5 797.5,-411.5 889.5,-411.5 889.5,-392.5 797.5,-392.5"/>
<text text-anchor="middle" x="843.5" y="-399.5" font-family="Helvetica,sans-Serif" font-size="10.00">torccamera.cpp</text>
</g>
<!-- Node2 -->
<g id="node2" class="node"><title>Node2</title>
<polygon fill="white" stroke="#bfbfbf" points="690,-336.5 690,-355.5 729,-355.5 729,-336.5 690,-336.5"/>
<text text-anchor="middle" x="709.5" y="-343.5" font-family="Helvetica,sans-Serif" font-size="10.00">QFile</text>
</g>
<!-- Node1&#45;&gt;Node2 -->
<g id="edge1" class="edge"><title>Node1&#45;&gt;Node2</title>
<path fill="none" stroke="midnightblue" d="M822.267,-392.444C799.726,-383.36 763.944,-368.94 738.744,-358.785"/>
<polygon fill="midnightblue" stroke="midnightblue" points="739.906,-355.48 729.323,-354.988 737.29,-361.972 739.906,-355.48"/>
</g>
<!-- Node3 -->
<g id="node3" class="node"><title>Node3</title>
<g id="a_node3"><a xlink:href="../../d4/df9/torclogging_8h.html" target="_top" xlink:title="torclogging.h">
<polygon fill="white" stroke="black" points="747,-336.5 747,-355.5 826,-355.5 826,-336.5 747,-336.5"/>
<text text-anchor="middle" x="786.5" y="-343.5" font-family="Helvetica,sans-Serif" font-size="10.00">torclogging.h</text>
</a>
</g>
</g>
<!-- Node1&#45;&gt;Node3 -->
<g id="edge2" class="edge"><title>Node1&#45;&gt;Node3</title>
<path fill="none" stroke="midnightblue" d="M834.342,-392.324C825.999,-384.42 813.468,-372.548 803.323,-362.938"/>
<polygon fill="midnightblue" stroke="midnightblue" points="805.491,-360.171 795.825,-355.834 800.677,-365.252 805.491,-360.171"/>
</g>
<!-- Node7 -->
<g id="node7" class="node"><title>Node7</title>
<g id="a_node7"><a xlink:href="../../d2/d57/torccameraoutput_8h.html" target="_top" xlink:title="torccameraoutput.h">
<polygon fill="white" stroke="black" points="844,-336.5 844,-355.5 957,-355.5 957,-336.5 844,-336.5"/>
<text text-anchor="middle" x="900.5" y="-343.5" font-family="Helvetica,sans-Serif" font-size="10.00">torccameraoutput.h</text>
</a>
</g>
</g>
<!-- Node1&#45;&gt;Node7 -->
<g id="edge6" class="edge"><title>Node1&#45;&gt;Node7</title>
<path fill="none" stroke="midnightblue" d="M852.658,-392.324C861.001,-384.42 873.532,-372.548 883.677,-362.938"/>
<polygon fill="midnightblue" stroke="midnightblue" points="886.323,-365.252 891.175,-355.834 881.509,-360.171 886.323,-365.252"/>
</g>
<!-- Node31 -->
<g id="node31" class="node"><title>Node31</title>
<g id="a_node31"><a xlink:href="../../d3/d38/torccamera_8h.html" target="_top" xlink:title="torccamera.h">
<polygon fill="white" stroke="black" points="1016,-280.5 1016,-299.5 1097,-299.5 1097,-280.5 1016,-280.5"/>
<text text-anchor="middle" x="1056.5" y="-287.5" font-family="Helvetica,sans-Serif" font-size="10.00">torccamera.h</text>
</a>
</g>
</g>
<!-- Node1&#45;&gt;Node31 -->
<g id="edge55" class="edge"><title>Node1&#45;&gt;Node31</title>
<path fill="none" stroke="midnightblue" d="M873.806,-392.471C899.324,-384.695 936.375,-371.995 966.5,-356 993.173,-341.838 1020.91,-320.662 1038.42,-306.363"/>
<polygon fill="midnightblue" stroke="midnightblue" points="1041.12,-308.667 1046.58,-299.586 1036.65,-303.281 1041.12,-308.667"/>
</g>
<!-- Node4 -->
<g id="node4" class="node"><title>Node4</title>
<polygon fill="white" stroke="#bfbfbf" points="776,-280.5 776,-299.5 829,-299.5 829,-280.5 776,-280.5"/>
<text text-anchor="middle" x="802.5" y="-287.5" font-family="Helvetica,sans-Serif" font-size="10.00">stdint.h</text>
</g>
<!-- Node3&#45;&gt;Node4 -->
<g id="edge3" class="edge"><title>Node3&#45;&gt;Node4</title>
<path fill="none" stroke="midnightblue" d="M789.142,-336.083C791.286,-328.849 794.379,-318.409 797.049,-309.397"/>
<polygon fill="midnightblue" stroke="midnightblue" points="800.422,-310.333 799.907,-299.751 793.71,-308.345 800.422,-310.333"/>
</g>
<!-- Node5 -->
<g id="node5" class="node"><title>Node5</title>
<polygon fill="white" stroke="#bfbfbf" points="590,-280.5 590,-299.5 641,-299.5 641,-280.5 590,-280.5"/>
<text text-anchor="middle" x="615.5" y="-287.5" font-family="Helvetica,sans-Serif" font-size="10.00">errno.h</text>
</g>
<!-- Node3&#45;&gt;Node5 -->
<g id="edge4" class="edge"><title>Node3&#45;&gt;Node5</title>
<path fill="none" stroke="midnightblue" d="M759.405,-336.444C730.087,-327.185 683.221,-312.385 650.984,-302.205"/>
<polygon fill="midnightblue" stroke="midnightblue" points="651.662,-298.749 641.072,-299.075 649.554,-305.424 651.662,-298.749"/>
</g>
<!-- Node6 -->
<g id="node6" class="node"><title>Node6</title>
<g id="a_node6"><a xlink:href="../../d1/d37/torcloggingdefs_8h.html" target="_top" xlink:title="torcloggingdefs.h">
<polygon fill="white" stroke="black" points="659,-280.5 659,-299.5 758,-299.5 758,-280.5 659,-280.5"/>
<text text-anchor="middle" x="708.5" y="-287.5" font-family="Helvetica,sans-Serif" font-size="10.00">torcloggingdefs.h</text>
</a>
</g>
</g>
<!-- Node3&#45;&gt;Node6 -->
<g id="edge5" class="edge"><title>Node3&#45;&gt;Node6</title>
<path fill="none" stroke="midnightblue" d="M773.968,-336.324C761.914,-327.979 743.473,-315.212 729.231,-305.352"/>
<polygon fill="midnightblue" stroke="midnightblue" points="731.215,-302.469 721.001,-299.655 727.231,-308.224 731.215,-302.469"/>
</g>
<!-- Node8 -->
<g id="node8" class="node"><title>Node8</title>
<g id="a_node8"><a xlink:href="../../dc/d01/torcoutput_8h.html" target="_top" xlink:title="torcoutput.h">
<polygon fill="white" stroke="black" points="847.5,-280.5 847.5,-299.5 923.5,-299.5 923.5,-280.5 847.5,-280.5"/>
<text text-anchor="middle" x="885.5" y="-287.5" font-family="Helvetica,sans-Serif" font-size="10.00">torcoutput.h</text>
</a>
</g>
</g>
<!-- Node7&#45;&gt;Node8 -->
<g id="edge7" class="edge"><title>Node7&#45;&gt;Node8</title>
<path fill="none" stroke="midnightblue" d="M898.023,-336.083C896.014,-328.849 893.114,-318.409 890.61,-309.397"/>
<polygon fill="midnightblue" stroke="midnightblue" points="893.98,-308.449 887.931,-299.751 887.235,-310.323 893.98,-308.449"/>
</g>
<!-- Node7&#45;&gt;Node31 -->
<g id="edge41" class="edge"><title>Node7&#45;&gt;Node31</title>
<path fill="none" stroke="midnightblue" d="M925.219,-336.444C951.348,-327.399 992.759,-313.064 1022.08,-302.916"/>
<polygon fill="midnightblue" stroke="midnightblue" points="1023.59,-306.095 1031.9,-299.516 1021.3,-299.48 1023.59,-306.095"/>
</g>
<!-- Node9 -->
<g id="node9" class="node"><title>Node9</title>
<polygon fill="white" stroke="#bfbfbf" points="507,-112.5 507,-131.5 560,-131.5 560,-112.5 507,-112.5"/>
<text text-anchor="middle" x="533.5" y="-119.5" font-family="Helvetica,sans-Serif" font-size="10.00">QMutex</text>
</g>
<!-- Node8&#45;&gt;Node9 -->
<g id="edge8" class="edge"><title>Node8&#45;&gt;Node9</title>
<path fill="none" stroke="midnightblue" d="M850.767,-280.458C769.853,-260.281 574.017,-209.735 552.5,-188 540.491,-175.869 535.992,-156.591 534.348,-142.174"/>
<polygon fill="midnightblue" stroke="midnightblue" points="537.813,-141.585 533.552,-131.884 530.834,-142.125 537.813,-141.585"/>
</g>
<!-- Node10 -->
<g id="node10" class="node"><title>Node10</title>
<polygon fill="white" stroke="#bfbfbf" points="968,-168.5 968,-187.5 1023,-187.5 1023,-168.5 968,-168.5"/>
<text text-anchor="middle" x="995.5" y="-175.5" font-family="Helvetica,sans-Serif" font-size="10.00">QObject</text>
</g>
<!-- Node8&#45;&gt;Node10 -->
<g id="edge9" class="edge"><title>Node8&#45;&gt;Node10</title>
<path fill="none" stroke="midnightblue" d="M894.132,-280.368C912.606,-261.894 956.207,-218.293 979.756,-194.744"/>
<polygon fill="midnightblue" stroke="midnightblue" points="982.312,-197.137 986.909,-187.591 977.363,-192.188 982.312,-197.137"/>
</g>
<!-- Node11 -->
<g id="node11" class="node"><title>Node11</title>
<g id="a_node11"><a xlink:href="../../d8/dfe/torcreferencecounted_8h.html" target="_top" xlink:title="torcreferencecounted.h">
<polygon fill="white" stroke="black" points="821,-168.5 821,-187.5 950,-187.5 950,-168.5 821,-168.5"/>
<text text-anchor="middle" x="885.5" y="-175.5" font-family="Helvetica,sans-Serif" font-size="10.00">torcreferencecounted.h</text>
</a>
</g>
</g>
<!-- Node8&#45;&gt;Node11 -->
<g id="edge10" class="edge"><title>Node8&#45;&gt;Node11</title>
<path fill="none" stroke="midnightblue" d="M885.5,-280.368C885.5,-262.617 885.5,-221.666 885.5,-197.597"/>
<polygon fill="midnightblue" stroke="midnightblue" points="889,-197.591 885.5,-187.591 882,-197.591 889,-197.591"/>
</g>
<!-- Node13 -->
<g id="node13" class="node"><title>Node13</title>
<g id="a_node13"><a xlink:href="../../d3/dee/torchttpservice_8h.html" target="_top" xlink:title="torchttpservice.h">
<polygon fill="white" stroke="black" points="301.5,-224.5 301.5,-243.5 399.5,-243.5 399.5,-224.5 301.5,-224.5"/>
<text text-anchor="middle" x="350.5" y="-231.5" font-family="Helvetica,sans-Serif" font-size="10.00">torchttpservice.h</text>
</a>
</g>
</g>
<!-- Node8&#45;&gt;Node13 -->
<g id="edge12" class="edge"><title>Node8&#45;&gt;Node13</title>
<path fill="none" stroke="midnightblue" d="M847.332,-281.37C844.349,-280.872 841.379,-280.407 838.5,-280 684.582,-258.219 501.793,-244.607 409.746,-238.598"/>
<polygon fill="midnightblue" stroke="midnightblue" points="409.72,-235.089 399.515,-237.937 409.268,-242.074 409.72,-235.089"/>
</g>
<!-- Node27 -->
<g id="node27" class="node"><title>Node27</title>
<g id="a_node27"><a xlink:href="../../d1/df7/torcdevice_8h.html" target="_top" xlink:title="torcdevice.h">
<polygon fill="white" stroke="black" points="755,-224.5 755,-243.5 830,-243.5 830,-224.5 755,-224.5"/>
<text text-anchor="middle" x="792.5" y="-231.5" font-family="Helvetica,sans-Serif" font-size="10.00">torcdevice.h</text>
</a>
</g>
</g>
<!-- Node8&#45;&gt;Node27 -->
<g id="edge30" class="edge"><title>Node8&#45;&gt;Node27</title>
<path fill="none" stroke="midnightblue" d="M870.558,-280.324C855.915,-271.822 833.366,-258.729 816.262,-248.797"/>
<polygon fill="midnightblue" stroke="midnightblue" points="817.81,-245.649 807.405,-243.655 814.295,-251.703 817.81,-245.649"/>
</g>
<!-- Node12 -->
<g id="node12" class="node"><title>Node12</title>
<polygon fill="white" stroke="#bfbfbf" points="870.5,-112.5 870.5,-131.5 940.5,-131.5 940.5,-112.5 870.5,-112.5"/>
<text text-anchor="middle" x="905.5" y="-119.5" font-family="Helvetica,sans-Serif" font-size="10.00">QAtomicInt</text>
</g>
<!-- Node11&#45;&gt;Node12 -->
<g id="edge11" class="edge"><title>Node11&#45;&gt;Node12</title>
<path fill="none" stroke="midnightblue" d="M888.803,-168.083C891.482,-160.849 895.349,-150.409 898.686,-141.397"/>
<polygon fill="midnightblue" stroke="midnightblue" points="902.068,-142.344 902.259,-131.751 895.504,-139.913 902.068,-142.344"/>
</g>
<!-- Node13&#45;&gt;Node9 -->
<g id="edge14" class="edge"><title>Node13&#45;&gt;Node9</title>
<path fill="none" stroke="midnightblue" d="M372.615,-224.5C392.954,-216.302 423.635,-202.961 448.5,-188 473.306,-173.075 499.409,-152.234 516.038,-138.211"/>
<polygon fill="midnightblue" stroke="midnightblue" points="518.484,-140.724 523.813,-131.566 513.937,-135.402 518.484,-140.724"/>
</g>
<!-- Node14 -->
<g id="node14" class="node"><title>Node14</title>
<polygon fill="white" stroke="#bfbfbf" points="202.5,-56.5 202.5,-75.5 246.5,-75.5 246.5,-56.5 202.5,-56.5"/>
<text text-anchor="middle" x="224.5" y="-63.5" font-family="Helvetica,sans-Serif" font-size="10.00">QMap</text>
</g>
<!-- Node13&#45;&gt;Node14 -->
<g id="edge13" class="edge"><title>Node13&#45;&gt;Node14</title>
<path fill="none" stroke="midnightblue" d="M337.529,-224.328C315.016,-208.605 268.707,-173.177 243.5,-132 234.772,-117.742 229.878,-99.2708 227.252,-85.6646"/>
<polygon fill="midnightblue" stroke="midnightblue" points="230.665,-84.8546 225.545,-75.579 223.763,-86.023 230.665,-84.8546"/>
</g>
<!-- Node15 -->
<g id="node15" class="node"><title>Node15</title>
<polygon fill="white" stroke="#bfbfbf" points="760.5,-112.5 760.5,-131.5 852.5,-131.5 852.5,-112.5 760.5,-112.5"/>
<text text-anchor="middle" x="806.5" y="-119.5" font-family="Helvetica,sans-Serif" font-size="10.00">QReadWriteLock</text>
</g>
<!-- Node13&#45;&gt;Node15 -->
<g id="edge15" class="edge"><title>Node13&#45;&gt;Node15</title>
<path fill="none" stroke="midnightblue" d="M399.64,-231.006C489.561,-226.744 676.746,-214.863 735.5,-188 759.386,-177.079 780.702,-155.071 793.602,-139.703"/>
<polygon fill="midnightblue" stroke="midnightblue" points="796.621,-141.536 800.181,-131.557 791.175,-137.138 796.621,-141.536"/>
</g>
<!-- Node16 -->
<g id="node16" class="node"><title>Node16</title>
<polygon fill="white" stroke="#bfbfbf" points="0,-168.5 0,-187.5 79,-187.5 79,-168.5 0,-168.5"/>
<text text-anchor="middle" x="39.5" y="-175.5" font-family="Helvetica,sans-Serif" font-size="10.00">QMetaObject</text>
</g>
<!-- Node13&#45;&gt;Node16 -->
<g id="edge16" class="edge"><title>Node13&#45;&gt;Node16</title>
<path fill="none" stroke="midnightblue" d="M301.017,-224.774C250.292,-216.288 168.845,-202.513 89.2444,-188.293"/>
<polygon fill="midnightblue" stroke="midnightblue" points="89.5039,-184.783 79.0435,-186.466 88.27,-191.674 89.5039,-184.783"/>
</g>
<!-- Node17 -->
<g id="node17" class="node"><title>Node17</title>
<polygon fill="white" stroke="#bfbfbf" points="97,-168.5 97,-187.5 196,-187.5 196,-168.5 97,-168.5"/>
<text text-anchor="middle" x="146.5" y="-175.5" font-family="Helvetica,sans-Serif" font-size="10.00">QCoreApplication</text>
</g>
<!-- Node13&#45;&gt;Node17 -->
<g id="edge17" class="edge"><title>Node13&#45;&gt;Node17</title>
<path fill="none" stroke="midnightblue" d="M318.176,-224.444C283.111,-215.162 227.002,-200.309 188.535,-190.127"/>
<polygon fill="midnightblue" stroke="midnightblue" points="189.236,-186.692 178.673,-187.516 187.445,-193.459 189.236,-186.692"/>
</g>
<!-- Node18 -->
<g id="node18" class="node"><title>Node18</title>
<g id="a_node18"><a xlink:href="../../d4/d11/torchttphandler_8h.html" target="_top" xlink:title="torchttphandler.h">
<polygon fill="white" stroke="black" points="341,-168.5 341,-187.5 440,-187.5 440,-168.5 341,-168.5"/>
<text text-anchor="middle" x="390.5" y="-175.5" font-family="Helvetica,sans-Serif" font-size="10.00">torchttphandler.h</text>
</a>
</g>
</g>
<!-- Node13&#45;&gt;Node18 -->
<g id="edge18" class="edge"><title>Node13&#45;&gt;Node18</title>
<path fill="none" stroke="midnightblue" d="M357.105,-224.083C362.755,-216.455 371.045,-205.264 377.951,-195.941"/>
<polygon fill="midnightblue" stroke="midnightblue" points="380.878,-197.87 384.018,-187.751 375.253,-193.703 380.878,-197.87"/>
</g>
<!-- Node21 -->
<g id="node21" class="node"><title>Node21</title>
<g id="a_node21"><a xlink:href="../../df/dd7/torchttprequest_8h.html" target="_top" xlink:title="torchttprequest.h">
<polygon fill="white" stroke="black" points="253,-112.5 253,-131.5 354,-131.5 354,-112.5 253,-112.5"/>
<text text-anchor="middle" x="303.5" y="-119.5" font-family="Helvetica,sans-Serif" font-size="10.00">torchttprequest.h</text>
</a>
</g>
</g>
<!-- Node13&#45;&gt;Node21 -->
<g id="edge29" class="edge"><title>Node13&#45;&gt;Node21</title>
<path fill="none" stroke="midnightblue" d="M346.812,-224.368C339.159,-206.456 321.413,-164.923 311.169,-140.948"/>
<polygon fill="midnightblue" stroke="midnightblue" points="314.319,-139.412 307.171,-131.591 307.882,-142.162 314.319,-139.412"/>
</g>
<!-- Node19 -->
<g id="node19" class="node"><title>Node19</title>
<polygon fill="white" stroke="#bfbfbf" points="467,-56.5 467,-75.5 520,-75.5 520,-56.5 467,-56.5"/>
<text text-anchor="middle" x="493.5" y="-63.5" font-family="Helvetica,sans-Serif" font-size="10.00">QString</text>
</g>
<!-- Node18&#45;&gt;Node19 -->
<g id="edge19" class="edge"><title>Node18&#45;&gt;Node19</title>
<path fill="none" stroke="midnightblue" d="M408.774,-168.411C423.866,-160.6 445.076,-147.879 459.5,-132 471.919,-118.328 481.179,-99.2853 486.873,-85.3451"/>
<polygon fill="midnightblue" stroke="midnightblue" points="490.201,-86.4429 490.526,-75.853 483.668,-83.9288 490.201,-86.4429"/>
</g>
<!-- Node20 -->
<g id="node20" class="node"><title>Node20</title>
<polygon fill="white" stroke="#bfbfbf" points="372.5,-112.5 372.5,-131.5 450.5,-131.5 450.5,-112.5 372.5,-112.5"/>
<text text-anchor="middle" x="411.5" y="-119.5" font-family="Helvetica,sans-Serif" font-size="10.00">QVariantMap</text>
</g>
<!-- Node18&#45;&gt;Node20 -->
<g id="edge20" class="edge"><title>Node18&#45;&gt;Node20</title>
<path fill="none" stroke="midnightblue" d="M393.968,-168.083C396.812,-160.77 400.929,-150.181 404.46,-141.103"/>
<polygon fill="midnightblue" stroke="midnightblue" points="407.734,-142.34 408.097,-131.751 401.21,-139.803 407.734,-142.34"/>
</g>
<!-- Node18&#45;&gt;Node21 -->
<g id="edge21" class="edge"><title>Node18&#45;&gt;Node21</title>
<path fill="none" stroke="midnightblue" d="M376.522,-168.324C362.95,-159.9 342.12,-146.971 326.175,-137.074"/>
<polygon fill="midnightblue" stroke="midnightblue" points="327.786,-133.954 317.443,-131.655 324.094,-139.902 327.786,-133.954"/>
</g>
<!-- Node21&#45;&gt;Node14 -->
<g id="edge22" class="edge"><title>Node21&#45;&gt;Node14</title>
<path fill="none" stroke="midnightblue" d="M290.807,-112.324C278.599,-103.979 259.922,-91.2122 245.497,-81.3524"/>
<polygon fill="midnightblue" stroke="midnightblue" points="247.392,-78.4082 237.161,-75.6545 243.442,-84.1871 247.392,-78.4082"/>
</g>
<!-- Node21&#45;&gt;Node19 -->
<g id="edge24" class="edge"><title>Node21&#45;&gt;Node19</title>
<path fill="none" stroke="midnightblue" d="M333.606,-112.444C367.034,-102.943 420.997,-87.6061 456.855,-77.415"/>
<polygon fill="midnightblue" stroke="midnightblue" points="458.245,-80.6586 466.907,-74.558 456.331,-73.9252 458.245,-80.6586"/>
</g>
<!-- Node22 -->
<g id="node22" class="node"><title>Node22</title>
<polygon fill="white" stroke="#bfbfbf" points="812,-56.5 812,-75.5 853,-75.5 853,-56.5 812,-56.5"/>
<text text-anchor="middle" x="832.5" y="-63.5" font-family="Helvetica,sans-Serif" font-size="10.00">QPair</text>
</g>
<!-- Node21&#45;&gt;Node22 -->
<g id="edge23" class="edge"><title>Node21&#45;&gt;Node22</title>
<path fill="none" stroke="midnightblue" d="M354.213,-113.199C357.353,-112.776 360.468,-112.373 363.5,-112 528.322,-91.7457 726.679,-75.3156 801.726,-69.3821"/>
<polygon fill="midnightblue" stroke="midnightblue" points="802.191,-72.8565 811.885,-68.5837 801.642,-65.8781 802.191,-72.8565"/>
</g>
<!-- Node23 -->
<g id="node23" class="node"><title>Node23</title>
<polygon fill="white" stroke="#bfbfbf" points="265,-56.5 265,-75.5 336,-75.5 336,-56.5 265,-56.5"/>
<text text-anchor="middle" x="300.5" y="-63.5" font-family="Helvetica,sans-Serif" font-size="10.00">QDateTime</text>
</g>
<!-- Node21&#45;&gt;Node23 -->
<g id="edge25" class="edge"><title>Node21&#45;&gt;Node23</title>
<path fill="none" stroke="midnightblue" d="M303.005,-112.083C302.611,-105.006 302.048,-94.8611 301.555,-85.9865"/>
<polygon fill="midnightblue" stroke="midnightblue" points="305.036,-85.5415 300.986,-75.7511 298.046,-85.9299 305.036,-85.5415"/>
</g>
<!-- Node24 -->
<g id="node24" class="node"><title>Node24</title>
<g id="a_node24"><a xlink:href="../../de/de6/torchttpreader_8h.html" target="_top" xlink:title="torchttpreader.h">
<polygon fill="white" stroke="black" points="354,-56.5 354,-75.5 449,-75.5 449,-56.5 354,-56.5"/>
<text text-anchor="middle" x="401.5" y="-63.5" font-family="Helvetica,sans-Serif" font-size="10.00">torchttpreader.h</text>
</a>
</g>
</g>
<!-- Node21&#45;&gt;Node24 -->
<g id="edge26" class="edge"><title>Node21&#45;&gt;Node24</title>
<path fill="none" stroke="midnightblue" d="M319.245,-112.324C334.819,-103.743 358.877,-90.486 376.959,-80.5224"/>
<polygon fill="midnightblue" stroke="midnightblue" points="378.724,-83.546 385.794,-75.6545 375.346,-77.4152 378.724,-83.546"/>
</g>
<!-- Node25 -->
<g id="node25" class="node"><title>Node25</title>
<polygon fill="white" stroke="#bfbfbf" points="321,-0.5 321,-19.5 392,-19.5 392,-0.5 321,-0.5"/>
<text text-anchor="middle" x="356.5" y="-7.5" font-family="Helvetica,sans-Serif" font-size="10.00">QByteArray</text>
</g>
<!-- Node24&#45;&gt;Node25 -->
<g id="edge27" class="edge"><title>Node24&#45;&gt;Node25</title>
<path fill="none" stroke="midnightblue" d="M394.069,-56.083C387.647,-48.3768 378.194,-37.0333 370.378,-27.6531"/>
<polygon fill="midnightblue" stroke="midnightblue" points="372.883,-25.1927 363.793,-19.7511 367.506,-29.674 372.883,-25.1927"/>
</g>
<!-- Node26 -->
<g id="node26" class="node"><title>Node26</title>
<polygon fill="white" stroke="#bfbfbf" points="410.5,-0.5 410.5,-19.5 482.5,-19.5 482.5,-0.5 410.5,-0.5"/>
<text text-anchor="middle" x="446.5" y="-7.5" font-family="Helvetica,sans-Serif" font-size="10.00">QTcpSocket</text>
</g>
<!-- Node24&#45;&gt;Node26 -->
<g id="edge28" class="edge"><title>Node24&#45;&gt;Node26</title>
<path fill="none" stroke="midnightblue" d="M408.931,-56.083C415.353,-48.3768 424.806,-37.0333 432.622,-27.6531"/>
<polygon fill="midnightblue" stroke="midnightblue" points="435.494,-29.674 439.207,-19.7511 430.117,-25.1927 435.494,-29.674"/>
</g>
<!-- Node27&#45;&gt;Node9 -->
<g id="edge32" class="edge"><title>Node27&#45;&gt;Node9</title>
<path fill="none" stroke="midnightblue" d="M754.733,-233.864C708.304,-233.11 628.982,-225.74 574.5,-188 558.084,-176.629 546.849,-156.336 540.348,-141.44"/>
<polygon fill="midnightblue" stroke="midnightblue" points="543.428,-139.72 536.444,-131.752 536.935,-142.336 543.428,-139.72"/>
</g>
<!-- Node27&#45;&gt;Node10 -->
<g id="edge34" class="edge"><title>Node27&#45;&gt;Node10</title>
<path fill="none" stroke="midnightblue" d="M824.666,-224.444C860.893,-214.807 919.693,-199.165 957.982,-188.98"/>
<polygon fill="midnightblue" stroke="midnightblue" points="958.961,-192.342 967.725,-186.388 957.161,-185.577 958.961,-192.342"/>
</g>
<!-- Node27&#45;&gt;Node11 -->
<g id="edge35" class="edge"><title>Node27&#45;&gt;Node11</title>
<path fill="none" stroke="midnightblue" d="M807.442,-224.324C822.085,-215.822 844.634,-202.729 861.738,-192.797"/>
<polygon fill="midnightblue" stroke="midnightblue" points="863.705,-195.703 870.595,-187.655 860.19,-189.649 863.705,-195.703"/>
</g>
<!-- Node27&#45;&gt;Node19 -->
<g id="edge33" class="edge"><title>Node27&#45;&gt;Node19</title>
<path fill="none" stroke="midnightblue" d="M754.858,-232.765C714.411,-230.646 650.2,-221.665 607.5,-188 577.686,-164.494 594.441,-139.721 568.5,-112 555.904,-98.5394 538.387,-87.7252 523.449,-80.0747"/>
<polygon fill="midnightblue" stroke="midnightblue" points="524.606,-76.7448 514.084,-75.5081 521.538,-83.0367 524.606,-76.7448"/>
</g>
<!-- Node28 -->
<g id="node28" class="node"><title>Node28</title>
<polygon fill="white" stroke="#bfbfbf" points="693,-112.5 693,-131.5 742,-131.5 742,-112.5 693,-112.5"/>
<text text-anchor="middle" x="717.5" y="-119.5" font-family="Helvetica,sans-Serif" font-size="10.00">QHash</text>
</g>
<!-- Node27&#45;&gt;Node28 -->
<g id="edge31" class="edge"><title>Node27&#45;&gt;Node28</title>
<path fill="none" stroke="midnightblue" d="M786.615,-224.368C774.238,-206.215 745.319,-163.802 729.084,-139.99"/>
<polygon fill="midnightblue" stroke="midnightblue" points="731.883,-137.882 723.358,-131.591 726.099,-141.825 731.883,-137.882"/>
</g>
<!-- Node29 -->
<g id="node29" class="node"><title>Node29</title>
<g id="a_node29"><a xlink:href="../../d2/d5b/torcdevicehandler_8h.html" target="_top" xlink:title="torcdevicehandler.h">
<polygon fill="white" stroke="black" points="616.5,-168.5 616.5,-187.5 726.5,-187.5 726.5,-168.5 616.5,-168.5"/>
<text text-anchor="middle" x="671.5" y="-175.5" font-family="Helvetica,sans-Serif" font-size="10.00">torcdevicehandler.h</text>
</a>
</g>
</g>
<!-- Node27&#45;&gt;Node29 -->
<g id="edge36" class="edge"><title>Node27&#45;&gt;Node29</title>
<path fill="none" stroke="midnightblue" d="M773.327,-224.444C753.591,-215.636 722.615,-201.812 700.007,-191.722"/>
<polygon fill="midnightblue" stroke="midnightblue" points="701.141,-188.396 690.583,-187.516 698.289,-194.788 701.141,-188.396"/>
</g>
<!-- Node29&#45;&gt;Node9 -->
<g id="edge38" class="edge"><title>Node29&#45;&gt;Node9</title>
<path fill="none" stroke="midnightblue" d="M649.633,-168.444C626.721,-159.478 590.525,-145.314 564.634,-135.183"/>
<polygon fill="midnightblue" stroke="midnightblue" points="565.852,-131.901 555.264,-131.516 563.301,-138.42 565.852,-131.901"/>
</g>
<!-- Node29&#45;&gt;Node15 -->
<g id="edge39" class="edge"><title>Node29&#45;&gt;Node15</title>
<path fill="none" stroke="midnightblue" d="M692.891,-168.444C715.207,-159.517 750.403,-145.439 775.708,-135.317"/>
<polygon fill="midnightblue" stroke="midnightblue" points="777.224,-138.48 785.209,-131.516 774.624,-131.981 777.224,-138.48"/>
</g>
<!-- Node29&#45;&gt;Node28 -->
<g id="edge37" class="edge"><title>Node29&#45;&gt;Node28</title>
<path fill="none" stroke="midnightblue" d="M679.096,-168.083C685.727,-160.298 695.521,-148.801 703.558,-139.367"/>
<polygon fill="midnightblue" stroke="midnightblue" points="706.225,-141.633 710.045,-131.751 700.896,-137.094 706.225,-141.633"/>
</g>
<!-- Node30 -->
<g id="node30" class="node"><title>Node30</title>
<polygon fill="white" stroke="#bfbfbf" points="616.5,-112.5 616.5,-131.5 674.5,-131.5 674.5,-112.5 616.5,-112.5"/>
<text text-anchor="middle" x="645.5" y="-119.5" font-family="Helvetica,sans-Serif" font-size="10.00">QVariant</text>
</g>
<!-- Node29&#45;&gt;Node30 -->
<g id="edge40" class="edge"><title>Node29&#45;&gt;Node30</title>
<path fill="none" stroke="midnightblue" d="M667.207,-168.083C663.648,-160.691 658.478,-149.953 654.076,-140.811"/>
<polygon fill="midnightblue" stroke="midnightblue" points="657.205,-139.243 649.713,-131.751 650.898,-142.279 657.205,-139.243"/>
</g>
<!-- Node31&#45;&gt;Node10 -->
<g id="edge42" class="edge"><title>Node31&#45;&gt;Node10</title>
<path fill="none" stroke="midnightblue" d="M1044.42,-280.406C1033.86,-272.239 1018.92,-259.002 1010.5,-244 1002.44,-229.641 998.704,-211.181 996.978,-197.605"/>
<polygon fill="midnightblue" stroke="midnightblue" points="1000.45,-197.138 995.949,-187.547 993.485,-197.851 1000.45,-197.138"/>
</g>
<!-- Node32 -->
<g id="node32" class="node"><title>Node32</title>
<g id="a_node32"><a xlink:href="../../d2/d60/torcmaths_8h.html" target="_top" xlink:title="torcmaths.h">
<polygon fill="white" stroke="black" points="1019,-224.5 1019,-243.5 1094,-243.5 1094,-224.5 1019,-224.5"/>
<text text-anchor="middle" x="1056.5" y="-231.5" font-family="Helvetica,sans-Serif" font-size="10.00">torcmaths.h</text>
</a>
</g>
</g>
<!-- Node31&#45;&gt;Node32 -->
<g id="edge43" class="edge"><title>Node31&#45;&gt;Node32</title>
<path fill="none" stroke="midnightblue" d="M1056.5,-280.083C1056.5,-273.006 1056.5,-262.861 1056.5,-253.986"/>
<polygon fill="midnightblue" stroke="midnightblue" points="1060,-253.751 1056.5,-243.751 1053,-253.751 1060,-253.751"/>
</g>
<!-- Node34 -->
<g id="node34" class="node"><title>Node34</title>
<g id="a_node34"><a xlink:href="../../de/df7/torcsegmentedringbuffer_8h.html" target="_top" xlink:title="torcsegmentedringbuffer.h">
<polygon fill="white" stroke="black" points="1079.5,-168.5 1079.5,-187.5 1223.5,-187.5 1223.5,-168.5 1079.5,-168.5"/>
<text text-anchor="middle" x="1151.5" y="-175.5" font-family="Helvetica,sans-Serif" font-size="10.00">torcsegmentedringbuffer.h</text>
</a>
</g>
</g>
<!-- Node31&#45;&gt;Node34 -->
<g id="edge45" class="edge"><title>Node31&#45;&gt;Node34</title>
<path fill="none" stroke="midnightblue" d="M1066.33,-280.486C1076.19,-271.755 1091.56,-257.57 1103.5,-244 1117.05,-228.598 1130.79,-209.579 1140.07,-196.104"/>
<polygon fill="midnightblue" stroke="midnightblue" points="1143.01,-198.011 1145.73,-187.773 1137.22,-194.077 1143.01,-198.011"/>
</g>
<!-- Node36 -->
<g id="node36" class="node"><title>Node36</title>
<g id="a_node36"><a xlink:href="../../d4/d0f/torcmuxer_8h.html" target="_top" xlink:title="ffmpeg/torcmuxer.h">
<polygon fill="white" stroke="black" points="1151,-224.5 1151,-243.5 1262,-243.5 1262,-224.5 1151,-224.5"/>
<text text-anchor="middle" x="1206.5" y="-231.5" font-family="Helvetica,sans-Serif" font-size="10.00">ffmpeg/torcmuxer.h</text>
</a>
</g>
</g>
<!-- Node31&#45;&gt;Node36 -->
<g id="edge50" class="edge"><title>Node31&#45;&gt;Node36</title>
<path fill="none" stroke="midnightblue" d="M1080.27,-280.444C1105.39,-271.399 1145.21,-257.064 1173.4,-246.916"/>
<polygon fill="midnightblue" stroke="midnightblue" points="1174.62,-250.197 1182.84,-243.516 1172.25,-243.611 1174.62,-250.197"/>
</g>
<!-- Node39 -->
<g id="node39" class="node"><title>Node39</title>
<polygon fill="white" stroke="#bfbfbf" points="1280,-224.5 1280,-243.5 1399,-243.5 1399,-224.5 1280,-224.5"/>
<text text-anchor="middle" x="1339.5" y="-231.5" font-family="Helvetica,sans-Serif" font-size="10.00">libavcodec/avcodec.h</text>
</g>
<!-- Node31&#45;&gt;Node39 -->
<g id="edge54" class="edge"><title>Node31&#45;&gt;Node39</title>
<path fill="none" stroke="midnightblue" d="M1097.05,-281.263C1146.4,-271.846 1229.93,-255.906 1284.91,-245.417"/>
<polygon fill="midnightblue" stroke="midnightblue" points="1285.66,-248.837 1294.83,-243.524 1284.35,-241.961 1285.66,-248.837"/>
</g>
<!-- Node33 -->
<g id="node33" class="node"><title>Node33</title>
<polygon fill="white" stroke="#bfbfbf" points="1023.5,-112.5 1023.5,-131.5 1079.5,-131.5 1079.5,-112.5 1023.5,-112.5"/>
<text text-anchor="middle" x="1051.5" y="-119.5" font-family="Helvetica,sans-Serif" font-size="10.00">QQueue</text>
</g>
<!-- Node32&#45;&gt;Node33 -->
<g id="edge44" class="edge"><title>Node32&#45;&gt;Node33</title>
<path fill="none" stroke="midnightblue" d="M1056.11,-224.368C1055.3,-206.617 1053.44,-165.666 1052.35,-141.597"/>
<polygon fill="midnightblue" stroke="midnightblue" points="1055.84,-141.422 1051.89,-131.591 1048.85,-141.74 1055.84,-141.422"/>
</g>
<!-- Node34&#45;&gt;Node15 -->
<g id="edge49" class="edge"><title>Node34&#45;&gt;Node15</title>
<path fill="none" stroke="midnightblue" d="M1095.61,-168.468C1039.37,-159.849 949.834,-146.044 862.763,-132.191"/>
<polygon fill="midnightblue" stroke="midnightblue" points="863.135,-128.707 852.709,-130.59 862.034,-135.62 863.135,-128.707"/>
</g>
<!-- Node34&#45;&gt;Node22 -->
<g id="edge46" class="edge"><title>Node34&#45;&gt;Node22</title>
<path fill="none" stroke="midnightblue" d="M1145.74,-168.149C1135.88,-153.801 1114.33,-125.693 1088.5,-112 1014.58,-72.8103 913.464,-66.7821 863.309,-66.4379"/>
<polygon fill="midnightblue" stroke="midnightblue" points="863.121,-62.9378 853.123,-66.443 863.125,-69.9378 863.121,-62.9378"/>
</g>
<!-- Node34&#45;&gt;Node33 -->
<g id="edge47" class="edge"><title>Node34&#45;&gt;Node33</title>
<path fill="none" stroke="midnightblue" d="M1135.43,-168.324C1119.54,-159.743 1094.99,-146.486 1076.54,-136.522"/>
<polygon fill="midnightblue" stroke="midnightblue" points="1077.99,-133.326 1067.53,-131.655 1074.66,-139.486 1077.99,-133.326"/>
</g>
<!-- Node35 -->
<g id="node35" class="node"><title>Node35</title>
<polygon fill="white" stroke="#bfbfbf" points="1135.5,-112.5 1135.5,-131.5 1201.5,-131.5 1201.5,-112.5 1135.5,-112.5"/>
<text text-anchor="middle" x="1168.5" y="-119.5" font-family="Helvetica,sans-Serif" font-size="10.00">QIODevice</text>
</g>
<!-- Node34&#45;&gt;Node35 -->
<g id="edge48" class="edge"><title>Node34&#45;&gt;Node35</title>
<path fill="none" stroke="midnightblue" d="M1154.31,-168.083C1156.58,-160.849 1159.87,-150.409 1162.71,-141.397"/>
<polygon fill="midnightblue" stroke="midnightblue" points="1166.08,-142.341 1165.75,-131.751 1159.4,-140.239 1166.08,-142.341"/>
</g>
<!-- Node36&#45;&gt;Node34 -->
<g id="edge52" class="edge"><title>Node36&#45;&gt;Node34</title>
<path fill="none" stroke="midnightblue" d="M1197.42,-224.083C1189.33,-216.141 1177.3,-204.335 1167.59,-194.797"/>
<polygon fill="midnightblue" stroke="midnightblue" points="1170,-192.26 1160.41,-187.751 1165.1,-197.254 1170,-192.26"/>
</g>
<!-- Node37 -->
<g id="node37" class="node"><title>Node37</title>
<polygon fill="white" stroke="#bfbfbf" points="1241.5,-168.5 1241.5,-187.5 1299.5,-187.5 1299.5,-168.5 1241.5,-168.5"/>
<text text-anchor="middle" x="1270.5" y="-175.5" font-family="Helvetica,sans-Serif" font-size="10.00">QtGlobal</text>
</g>
<!-- Node36&#45;&gt;Node37 -->
<g id="edge51" class="edge"><title>Node36&#45;&gt;Node37</title>
<path fill="none" stroke="midnightblue" d="M1216.78,-224.324C1226.34,-216.263 1240.78,-204.077 1252.28,-194.369"/>
<polygon fill="midnightblue" stroke="midnightblue" points="1254.64,-196.958 1260.03,-187.834 1250.13,-191.608 1254.64,-196.958"/>
</g>
<!-- Node38 -->
<g id="node38" class="node"><title>Node38</title>
<polygon fill="white" stroke="#bfbfbf" points="1317.5,-168.5 1317.5,-187.5 1443.5,-187.5 1443.5,-168.5 1317.5,-168.5"/>
<text text-anchor="middle" x="1380.5" y="-175.5" font-family="Helvetica,sans-Serif" font-size="10.00">libavformat/avformat.h</text>
</g>
<!-- Node36&#45;&gt;Node38 -->
<g id="edge53" class="edge"><title>Node36&#45;&gt;Node38</title>
<path fill="none" stroke="midnightblue" d="M1234.07,-224.444C1263.6,-215.28 1310.62,-200.688 1343.38,-190.519"/>
<polygon fill="midnightblue" stroke="midnightblue" points="1344.54,-193.823 1353.06,-187.516 1342.47,-187.138 1344.54,-193.823"/>
</g>
</g>
</svg>
