<?xml version="1.0" encoding="UTF-8" standalone="no"?>
<!DOCTYPE svg PUBLIC "-//W3C//DTD SVG 1.1//EN"
 "http://www.w3.org/Graphics/SVG/1.1/DTD/svg11.dtd">
<!-- Generated by graphviz version 2.38.0 (20140413.2041)
 -->
<!-- Title: torccamera.cpp Pages: 1 -->
<svg width="1414pt" height="420pt"
 viewBox="0.00 0.00 1413.50 420.00" xmlns="http://www.w3.org/2000/svg" xmlns:xlink="http://www.w3.org/1999/xlink">
<g id="graph0" class="graph" transform="scale(1 1) rotate(0) translate(4 416)">
<title>torccamera.cpp</title>
<polygon fill="white" stroke="none" points="-4,4 -4,-416 1409.5,-416 1409.5,4 -4,4"/>
<!-- Node1 -->
<g id="node1" class="node"><title>Node1</title>
<polygon fill="#bfbfbf" stroke="black" points="759.5,-392.5 759.5,-411.5 851.5,-411.5 851.5,-392.5 759.5,-392.5"/>
<text text-anchor="middle" x="805.5" y="-399.5" font-family="Helvetica,sans-Serif" font-size="10.00">torccamera.cpp</text>
</g>
<!-- Node2 -->
<g id="node2" class="node"><title>Node2</title>
<polygon fill="white" stroke="#bfbfbf" points="652,-336.5 652,-355.5 691,-355.5 691,-336.5 652,-336.5"/>
<text text-anchor="middle" x="671.5" y="-343.5" font-family="Helvetica,sans-Serif" font-size="10.00">QFile</text>
</g>
<!-- Node1&#45;&gt;Node2 -->
<g id="edge1" class="edge"><title>Node1&#45;&gt;Node2</title>
<path fill="none" stroke="midnightblue" d="M784.267,-392.444C761.726,-383.36 725.944,-368.94 700.744,-358.785"/>
<polygon fill="midnightblue" stroke="midnightblue" points="701.906,-355.48 691.323,-354.988 699.29,-361.972 701.906,-355.48"/>
</g>
<!-- Node3 -->
<g id="node3" class="node"><title>Node3</title>
<g id="a_node3"><a xlink:href="../../d4/df9/torclogging_8h.html" target="_top" xlink:title="torclogging.h">
<polygon fill="white" stroke="black" points="709,-336.5 709,-355.5 788,-355.5 788,-336.5 709,-336.5"/>
<text text-anchor="middle" x="748.5" y="-343.5" font-family="Helvetica,sans-Serif" font-size="10.00">torclogging.h</text>
</a>
</g>
</g>
<!-- Node1&#45;&gt;Node3 -->
<g id="edge2" class="edge"><title>Node1&#45;&gt;Node3</title>
<path fill="none" stroke="midnightblue" d="M796.342,-392.324C787.999,-384.42 775.468,-372.548 765.323,-362.938"/>
<polygon fill="midnightblue" stroke="midnightblue" points="767.491,-360.171 757.825,-355.834 762.677,-365.252 767.491,-360.171"/>
</g>
<!-- Node7 -->
<g id="node7" class="node"><title>Node7</title>
<g id="a_node7"><a xlink:href="../../d2/d57/torccameraoutput_8h.html" target="_top" xlink:title="torccameraoutput.h">
<polygon fill="white" stroke="black" points="806,-336.5 806,-355.5 919,-355.5 919,-336.5 806,-336.5"/>
<text text-anchor="middle" x="862.5" y="-343.5" font-family="Helvetica,sans-Serif" font-size="10.00">torccameraoutput.h</text>
</a>
</g>
</g>
<!-- Node1&#45;&gt;Node7 -->
<g id="edge6" class="edge"><title>Node1&#45;&gt;Node7</title>
<path fill="none" stroke="midnightblue" d="M814.658,-392.324C823.001,-384.42 835.532,-372.548 845.677,-362.938"/>
<polygon fill="midnightblue" stroke="midnightblue" points="848.323,-365.252 853.175,-355.834 843.509,-360.171 848.323,-365.252"/>
</g>
<!-- Node30 -->
<g id="node30" class="node"><title>Node30</title>
<g id="a_node30"><a xlink:href="../../d3/d38/torccamera_8h.html" target="_top" xlink:title="torccamera.h">
<polygon fill="white" stroke="black" points="978,-280.5 978,-299.5 1059,-299.5 1059,-280.5 978,-280.5"/>
<text text-anchor="middle" x="1018.5" y="-287.5" font-family="Helvetica,sans-Serif" font-size="10.00">torccamera.h</text>
</a>
</g>
</g>
<!-- Node1&#45;&gt;Node30 -->
<g id="edge53" class="edge"><title>Node1&#45;&gt;Node30</title>
<path fill="none" stroke="midnightblue" d="M835.806,-392.471C861.324,-384.695 898.375,-371.995 928.5,-356 955.173,-341.838 982.911,-320.662 1000.42,-306.363"/>
<polygon fill="midnightblue" stroke="midnightblue" points="1003.12,-308.667 1008.58,-299.586 998.65,-303.281 1003.12,-308.667"/>
</g>
<!-- Node4 -->
<g id="node4" class="node"><title>Node4</title>
<polygon fill="white" stroke="#bfbfbf" points="738,-280.5 738,-299.5 791,-299.5 791,-280.5 738,-280.5"/>
<text text-anchor="middle" x="764.5" y="-287.5" font-family="Helvetica,sans-Serif" font-size="10.00">stdint.h</text>
</g>
<!-- Node3&#45;&gt;Node4 -->
<g id="edge3" class="edge"><title>Node3&#45;&gt;Node4</title>
<path fill="none" stroke="midnightblue" d="M751.142,-336.083C753.286,-328.849 756.379,-318.409 759.049,-309.397"/>
<polygon fill="midnightblue" stroke="midnightblue" points="762.422,-310.333 761.907,-299.751 755.71,-308.345 762.422,-310.333"/>
</g>
<!-- Node5 -->
<g id="node5" class="node"><title>Node5</title>
<polygon fill="white" stroke="#bfbfbf" points="552,-280.5 552,-299.5 603,-299.5 603,-280.5 552,-280.5"/>
<text text-anchor="middle" x="577.5" y="-287.5" font-family="Helvetica,sans-Serif" font-size="10.00">errno.h</text>
</g>
<!-- Node3&#45;&gt;Node5 -->
<g id="edge4" class="edge"><title>Node3&#45;&gt;Node5</title>
<path fill="none" stroke="midnightblue" d="M721.405,-336.444C692.087,-327.185 645.221,-312.385 612.984,-302.205"/>
<polygon fill="midnightblue" stroke="midnightblue" points="613.662,-298.749 603.072,-299.075 611.554,-305.424 613.662,-298.749"/>
</g>
<!-- Node6 -->
<g id="node6" class="node"><title>Node6</title>
<g id="a_node6"><a xlink:href="../../d1/d37/torcloggingdefs_8h.html" target="_top" xlink:title="torcloggingdefs.h">
<polygon fill="white" stroke="black" points="621,-280.5 621,-299.5 720,-299.5 720,-280.5 621,-280.5"/>
<text text-anchor="middle" x="670.5" y="-287.5" font-family="Helvetica,sans-Serif" font-size="10.00">torcloggingdefs.h</text>
</a>
</g>
</g>
<!-- Node3&#45;&gt;Node6 -->
<g id="edge5" class="edge"><title>Node3&#45;&gt;Node6</title>
<path fill="none" stroke="midnightblue" d="M735.968,-336.324C723.914,-327.979 705.473,-315.212 691.231,-305.352"/>
<polygon fill="midnightblue" stroke="midnightblue" points="693.215,-302.469 683.001,-299.655 689.231,-308.224 693.215,-302.469"/>
</g>
<!-- Node8 -->
<g id="node8" class="node"><title>Node8</title>
<g id="a_node8"><a xlink:href="../../dc/d01/torcoutput_8h.html" target="_top" xlink:title="torcoutput.h">
<polygon fill="white" stroke="black" points="809.5,-280.5 809.5,-299.5 885.5,-299.5 885.5,-280.5 809.5,-280.5"/>
<text text-anchor="middle" x="847.5" y="-287.5" font-family="Helvetica,sans-Serif" font-size="10.00">torcoutput.h</text>
</a>
</g>
</g>
<!-- Node7&#45;&gt;Node8 -->
<g id="edge7" class="edge"><title>Node7&#45;&gt;Node8</title>
<path fill="none" stroke="midnightblue" d="M860.023,-336.083C858.014,-328.849 855.114,-318.409 852.61,-309.397"/>
<polygon fill="midnightblue" stroke="midnightblue" points="855.98,-308.449 849.931,-299.751 849.235,-310.323 855.98,-308.449"/>
</g>
<!-- Node7&#45;&gt;Node30 -->
<g id="edge39" class="edge"><title>Node7&#45;&gt;Node30</title>
<path fill="none" stroke="midnightblue" d="M887.219,-336.444C913.348,-327.399 954.759,-313.064 984.076,-302.916"/>
<polygon fill="midnightblue" stroke="midnightblue" points="985.592,-306.095 993.897,-299.516 983.302,-299.48 985.592,-306.095"/>
</g>
<!-- Node9 -->
<g id="node9" class="node"><title>Node9</title>
<polygon fill="white" stroke="#bfbfbf" points="507,-112.5 507,-131.5 560,-131.5 560,-112.5 507,-112.5"/>
<text text-anchor="middle" x="533.5" y="-119.5" font-family="Helvetica,sans-Serif" font-size="10.00">QMutex</text>
</g>
<!-- Node8&#45;&gt;Node9 -->
<g id="edge8" class="edge"><title>Node8&#45;&gt;Node9</title>
<path fill="none" stroke="midnightblue" d="M809.479,-280.634C738.183,-264.225 588.355,-226.084 552.5,-188 540.799,-175.572 536.259,-156.334 534.521,-142.007"/>
<polygon fill="midnightblue" stroke="midnightblue" points="537.987,-141.459 533.644,-131.795 531.012,-142.058 537.987,-141.459"/>
</g>
<!-- Node10 -->
<g id="node10" class="node"><title>Node10</title>
<polygon fill="white" stroke="#bfbfbf" points="930,-168.5 930,-187.5 985,-187.5 985,-168.5 930,-168.5"/>
<text text-anchor="middle" x="957.5" y="-175.5" font-family="Helvetica,sans-Serif" font-size="10.00">QObject</text>
</g>
<!-- Node8&#45;&gt;Node10 -->
<g id="edge9" class="edge"><title>Node8&#45;&gt;Node10</title>
<path fill="none" stroke="midnightblue" d="M856.132,-280.368C874.606,-261.894 918.207,-218.293 941.756,-194.744"/>
<polygon fill="midnightblue" stroke="midnightblue" points="944.312,-197.137 948.909,-187.591 939.363,-192.188 944.312,-197.137"/>
</g>
<!-- Node11 -->
<g id="node11" class="node"><title>Node11</title>
<g id="a_node11"><a xlink:href="../../d8/dfe/torcreferencecounted_8h.html" target="_top" xlink:title="torcreferencecounted.h">
<polygon fill="white" stroke="black" points="783,-168.5 783,-187.5 912,-187.5 912,-168.5 783,-168.5"/>
<text text-anchor="middle" x="847.5" y="-175.5" font-family="Helvetica,sans-Serif" font-size="10.00">torcreferencecounted.h</text>
</a>
</g>
</g>
<!-- Node8&#45;&gt;Node11 -->
<g id="edge10" class="edge"><title>Node8&#45;&gt;Node11</title>
<path fill="none" stroke="midnightblue" d="M847.5,-280.368C847.5,-262.617 847.5,-221.666 847.5,-197.597"/>
<polygon fill="midnightblue" stroke="midnightblue" points="851,-197.591 847.5,-187.591 844,-197.591 851,-197.591"/>
</g>
<!-- Node13 -->
<g id="node13" class="node"><title>Node13</title>
<g id="a_node13"><a xlink:href="../../d3/dee/torchttpservice_8h.html" target="_top" xlink:title="torchttpservice.h">
<polygon fill="white" stroke="black" points="254.5,-224.5 254.5,-243.5 352.5,-243.5 352.5,-224.5 254.5,-224.5"/>
<text text-anchor="middle" x="303.5" y="-231.5" font-family="Helvetica,sans-Serif" font-size="10.00">torchttpservice.h</text>
</a>
</g>
</g>
<!-- Node8&#45;&gt;Node13 -->
<g id="edge12" class="edge"><title>Node8&#45;&gt;Node13</title>
<path fill="none" stroke="midnightblue" d="M809.333,-281.364C806.35,-280.868 803.379,-280.405 800.5,-280 643.176,-257.87 456.226,-244.354 362.817,-238.467"/>
<polygon fill="midnightblue" stroke="midnightblue" points="362.911,-234.966 352.712,-237.837 362.475,-241.953 362.911,-234.966"/>
</g>
<!-- Node26 -->
<g id="node26" class="node"><title>Node26</title>
<g id="a_node26"><a xlink:href="../../d1/df7/torcdevice_8h.html" target="_top" xlink:title="torcdevice.h">
<polygon fill="white" stroke="black" points="717,-224.5 717,-243.5 792,-243.5 792,-224.5 717,-224.5"/>
<text text-anchor="middle" x="754.5" y="-231.5" font-family="Helvetica,sans-Serif" font-size="10.00">torcdevice.h</text>
</a>
</g>
</g>
<!-- Node8&#45;&gt;Node26 -->
<g id="edge29" class="edge"><title>Node8&#45;&gt;Node26</title>
<path fill="none" stroke="midnightblue" d="M832.558,-280.324C817.915,-271.822 795.366,-258.729 778.262,-248.797"/>
<polygon fill="midnightblue" stroke="midnightblue" points="779.81,-245.649 769.405,-243.655 776.295,-251.703 779.81,-245.649"/>
</g>
<!-- Node12 -->
<g id="node12" class="node"><title>Node12</title>
<polygon fill="white" stroke="#bfbfbf" points="812.5,-112.5 812.5,-131.5 882.5,-131.5 882.5,-112.5 812.5,-112.5"/>
<text text-anchor="middle" x="847.5" y="-119.5" font-family="Helvetica,sans-Serif" font-size="10.00">QAtomicInt</text>
</g>
<!-- Node11&#45;&gt;Node12 -->
<g id="edge11" class="edge"><title>Node11&#45;&gt;Node12</title>
<path fill="none" stroke="midnightblue" d="M847.5,-168.083C847.5,-161.006 847.5,-150.861 847.5,-141.986"/>
<polygon fill="midnightblue" stroke="midnightblue" points="851,-141.751 847.5,-131.751 844,-141.751 851,-141.751"/>
</g>
<!-- Node13&#45;&gt;Node9 -->
<g id="edge14" class="edge"><title>Node13&#45;&gt;Node9</title>
<path fill="none" stroke="midnightblue" d="M340.706,-224.456C369.659,-217.009 410.352,-204.765 443.5,-188 470.697,-174.245 498.633,-152.683 516.019,-138.207"/>
<polygon fill="midnightblue" stroke="midnightblue" points="518.29,-140.87 523.657,-131.734 513.765,-135.529 518.29,-140.87"/>
</g>
<!-- Node14 -->
<g id="node14" class="node"><title>Node14</title>
<polygon fill="white" stroke="#bfbfbf" points="202.5,-56.5 202.5,-75.5 246.5,-75.5 246.5,-56.5 202.5,-56.5"/>
<text text-anchor="middle" x="224.5" y="-63.5" font-family="Helvetica,sans-Serif" font-size="10.00">QMap</text>
</g>
<!-- Node13&#45;&gt;Node14 -->
<g id="edge13" class="edge"><title>Node13&#45;&gt;Node14</title>
<path fill="none" stroke="midnightblue" d="M297.423,-224.482C285.6,-207.578 259.28,-168.284 243.5,-132 236.906,-116.838 231.824,-98.7202 228.581,-85.4686"/>
<polygon fill="midnightblue" stroke="midnightblue" points="231.973,-84.6004 226.298,-75.6536 225.155,-86.1866 231.973,-84.6004"/>
</g>
<!-- Node15 -->
<g id="node15" class="node"><title>Node15</title>
<polygon fill="white" stroke="#bfbfbf" points="0,-168.5 0,-187.5 79,-187.5 79,-168.5 0,-168.5"/>
<text text-anchor="middle" x="39.5" y="-175.5" font-family="Helvetica,sans-Serif" font-size="10.00">QMetaObject</text>
</g>
<!-- Node13&#45;&gt;Node15 -->
<g id="edge15" class="edge"><title>Node13&#45;&gt;Node15</title>
<path fill="none" stroke="midnightblue" d="M261.668,-224.444C214.877,-214.873 139.13,-199.379 89.3161,-189.19"/>
<polygon fill="midnightblue" stroke="midnightblue" points="89.9063,-185.738 79.4077,-187.163 88.5035,-192.596 89.9063,-185.738"/>
</g>
<!-- Node16 -->
<g id="node16" class="node"><title>Node16</title>
<polygon fill="white" stroke="#bfbfbf" points="97,-168.5 97,-187.5 196,-187.5 196,-168.5 97,-168.5"/>
<text text-anchor="middle" x="146.5" y="-175.5" font-family="Helvetica,sans-Serif" font-size="10.00">QCoreApplication</text>
</g>
<!-- Node13&#45;&gt;Node16 -->
<g id="edge16" class="edge"><title>Node13&#45;&gt;Node16</title>
<path fill="none" stroke="midnightblue" d="M278.623,-224.444C252.211,-215.359 210.285,-200.939 180.758,-190.783"/>
<polygon fill="midnightblue" stroke="midnightblue" points="181.855,-187.459 171.261,-187.516 179.579,-194.079 181.855,-187.459"/>
</g>
<!-- Node17 -->
<g id="node17" class="node"><title>Node17</title>
<g id="a_node17"><a xlink:href="../../d4/d11/torchttphandler_8h.html" target="_top" xlink:title="torchttphandler.h">
<polygon fill="white" stroke="black" points="336,-168.5 336,-187.5 435,-187.5 435,-168.5 336,-168.5"/>
<text text-anchor="middle" x="385.5" y="-175.5" font-family="Helvetica,sans-Serif" font-size="10.00">torchttphandler.h</text>
</a>
</g>
</g>
<!-- Node13&#45;&gt;Node17 -->
<g id="edge17" class="edge"><title>Node13&#45;&gt;Node17</title>
<path fill="none" stroke="midnightblue" d="M316.675,-224.324C329.347,-215.979 348.733,-203.212 363.706,-193.352"/>
<polygon fill="midnightblue" stroke="midnightblue" points="365.931,-196.078 372.358,-187.655 362.081,-190.231 365.931,-196.078"/>
</g>
<!-- Node20 -->
<g id="node20" class="node"><title>Node20</title>
<g id="a_node20"><a xlink:href="../../df/dd7/torchttprequest_8h.html" target="_top" xlink:title="torchttprequest.h">
<polygon fill="white" stroke="black" points="253,-112.5 253,-131.5 354,-131.5 354,-112.5 253,-112.5"/>
<text text-anchor="middle" x="303.5" y="-119.5" font-family="Helvetica,sans-Serif" font-size="10.00">torchttprequest.h</text>
</a>
</g>
</g>
<!-- Node13&#45;&gt;Node20 -->
<g id="edge28" class="edge"><title>Node13&#45;&gt;Node20</title>
<path fill="none" stroke="midnightblue" d="M303.5,-224.368C303.5,-206.617 303.5,-165.666 303.5,-141.597"/>
<polygon fill="midnightblue" stroke="midnightblue" points="307,-141.591 303.5,-131.591 300,-141.591 307,-141.591"/>
</g>
<!-- Node18 -->
<g id="node18" class="node"><title>Node18</title>
<polygon fill="white" stroke="#bfbfbf" points="467,-56.5 467,-75.5 520,-75.5 520,-56.5 467,-56.5"/>
<text text-anchor="middle" x="493.5" y="-63.5" font-family="Helvetica,sans-Serif" font-size="10.00">QString</text>
</g>
<!-- Node17&#45;&gt;Node18 -->
<g id="edge18" class="edge"><title>Node17&#45;&gt;Node18</title>
<path fill="none" stroke="midnightblue" d="M405.772,-168.399C421.925,-160.738 444.279,-148.234 459.5,-132 472.133,-118.526 481.365,-99.4566 486.994,-85.4564"/>
<polygon fill="midnightblue" stroke="midnightblue" points="490.338,-86.5069 490.594,-75.9152 483.789,-84.0361 490.338,-86.5069"/>
</g>
<!-- Node19 -->
<g id="node19" class="node"><title>Node19</title>
<polygon fill="white" stroke="#bfbfbf" points="372.5,-112.5 372.5,-131.5 450.5,-131.5 450.5,-112.5 372.5,-112.5"/>
<text text-anchor="middle" x="411.5" y="-119.5" font-family="Helvetica,sans-Serif" font-size="10.00">QVariantMap</text>
</g>
<!-- Node17&#45;&gt;Node19 -->
<g id="edge19" class="edge"><title>Node17&#45;&gt;Node19</title>
<path fill="none" stroke="midnightblue" d="M389.793,-168.083C393.352,-160.691 398.522,-149.953 402.924,-140.811"/>
<polygon fill="midnightblue" stroke="midnightblue" points="406.102,-142.279 407.287,-131.751 399.795,-139.243 406.102,-142.279"/>
</g>
<!-- Node17&#45;&gt;Node20 -->
<g id="edge20" class="edge"><title>Node17&#45;&gt;Node20</title>
<path fill="none" stroke="midnightblue" d="M372.325,-168.324C359.653,-159.979 340.267,-147.212 325.294,-137.352"/>
<polygon fill="midnightblue" stroke="midnightblue" points="326.919,-134.231 316.642,-131.655 323.069,-140.078 326.919,-134.231"/>
</g>
<!-- Node20&#45;&gt;Node14 -->
<g id="edge21" class="edge"><title>Node20&#45;&gt;Node14</title>
<path fill="none" stroke="midnightblue" d="M290.807,-112.324C278.599,-103.979 259.922,-91.2122 245.497,-81.3524"/>
<polygon fill="midnightblue" stroke="midnightblue" points="247.392,-78.4082 237.161,-75.6545 243.442,-84.1871 247.392,-78.4082"/>
</g>
<!-- Node20&#45;&gt;Node18 -->
<g id="edge23" class="edge"><title>Node20&#45;&gt;Node18</title>
<path fill="none" stroke="midnightblue" d="M333.606,-112.444C367.034,-102.943 420.997,-87.6061 456.855,-77.415"/>
<polygon fill="midnightblue" stroke="midnightblue" points="458.245,-80.6586 466.907,-74.558 456.331,-73.9252 458.245,-80.6586"/>
</g>
<!-- Node21 -->
<g id="node21" class="node"><title>Node21</title>
<polygon fill="white" stroke="#bfbfbf" points="832,-56.5 832,-75.5 873,-75.5 873,-56.5 832,-56.5"/>
<text text-anchor="middle" x="852.5" y="-63.5" font-family="Helvetica,sans-Serif" font-size="10.00">QPair</text>
</g>
<!-- Node20&#45;&gt;Node21 -->
<g id="edge22" class="edge"><title>Node20&#45;&gt;Node21</title>
<path fill="none" stroke="midnightblue" d="M354.211,-113.185C357.352,-112.766 360.467,-112.367 363.5,-112 536.489,-91.0835 744.952,-74.882 821.979,-69.1993"/>
<polygon fill="midnightblue" stroke="midnightblue" points="822.241,-72.6896 831.958,-68.4679 821.729,-65.7083 822.241,-72.6896"/>
</g>
<!-- Node22 -->
<g id="node22" class="node"><title>Node22</title>
<polygon fill="white" stroke="#bfbfbf" points="265,-56.5 265,-75.5 336,-75.5 336,-56.5 265,-56.5"/>
<text text-anchor="middle" x="300.5" y="-63.5" font-family="Helvetica,sans-Serif" font-size="10.00">QDateTime</text>
</g>
<!-- Node20&#45;&gt;Node22 -->
<g id="edge24" class="edge"><title>Node20&#45;&gt;Node22</title>
<path fill="none" stroke="midnightblue" d="M303.005,-112.083C302.611,-105.006 302.048,-94.8611 301.555,-85.9865"/>
<polygon fill="midnightblue" stroke="midnightblue" points="305.036,-85.5415 300.986,-75.7511 298.046,-85.9299 305.036,-85.5415"/>
</g>
<!-- Node23 -->
<g id="node23" class="node"><title>Node23</title>
<g id="a_node23"><a xlink:href="../../de/de6/torchttpreader_8h.html" target="_top" xlink:title="torchttpreader.h">
<polygon fill="white" stroke="black" points="354,-56.5 354,-75.5 449,-75.5 449,-56.5 354,-56.5"/>
<text text-anchor="middle" x="401.5" y="-63.5" font-family="Helvetica,sans-Serif" font-size="10.00">torchttpreader.h</text>
</a>
</g>
</g>
<!-- Node20&#45;&gt;Node23 -->
<g id="edge25" class="edge"><title>Node20&#45;&gt;Node23</title>
<path fill="none" stroke="midnightblue" d="M319.245,-112.324C334.819,-103.743 358.877,-90.486 376.959,-80.5224"/>
<polygon fill="midnightblue" stroke="midnightblue" points="378.724,-83.546 385.794,-75.6545 375.346,-77.4152 378.724,-83.546"/>
</g>
<!-- Node24 -->
<g id="node24" class="node"><title>Node24</title>
<polygon fill="white" stroke="#bfbfbf" points="321,-0.5 321,-19.5 392,-19.5 392,-0.5 321,-0.5"/>
<text text-anchor="middle" x="356.5" y="-7.5" font-family="Helvetica,sans-Serif" font-size="10.00">QByteArray</text>
</g>
<!-- Node23&#45;&gt;Node24 -->
<g id="edge26" class="edge"><title>Node23&#45;&gt;Node24</title>
<path fill="none" stroke="midnightblue" d="M394.069,-56.083C387.647,-48.3768 378.194,-37.0333 370.378,-27.6531"/>
<polygon fill="midnightblue" stroke="midnightblue" points="372.883,-25.1927 363.793,-19.7511 367.506,-29.674 372.883,-25.1927"/>
</g>
<!-- Node25 -->
<g id="node25" class="node"><title>Node25</title>
<polygon fill="white" stroke="#bfbfbf" points="410.5,-0.5 410.5,-19.5 482.5,-19.5 482.5,-0.5 410.5,-0.5"/>
<text text-anchor="middle" x="446.5" y="-7.5" font-family="Helvetica,sans-Serif" font-size="10.00">QTcpSocket</text>
</g>
<!-- Node23&#45;&gt;Node25 -->
<g id="edge27" class="edge"><title>Node23&#45;&gt;Node25</title>
<path fill="none" stroke="midnightblue" d="M408.931,-56.083C415.353,-48.3768 424.806,-37.0333 432.622,-27.6531"/>
<polygon fill="midnightblue" stroke="midnightblue" points="435.494,-29.674 439.207,-19.7511 430.117,-25.1927 435.494,-29.674"/>
</g>
<!-- Node26&#45;&gt;Node9 -->
<g id="edge31" class="edge"><title>Node26&#45;&gt;Node9</title>
<path fill="none" stroke="midnightblue" d="M716.975,-231.659C678.001,-228.55 616.903,-218.691 574.5,-188 558.323,-176.291 547.048,-156.055 540.471,-141.265"/>
<polygon fill="midnightblue" stroke="midnightblue" points="543.558,-139.569 536.511,-131.658 537.087,-142.237 543.558,-139.569"/>
</g>
<!-- Node26&#45;&gt;Node10 -->
<g id="edge33" class="edge"><title>Node26&#45;&gt;Node10</title>
<path fill="none" stroke="midnightblue" d="M786.666,-224.444C822.893,-214.807 881.693,-199.165 919.982,-188.98"/>
<polygon fill="midnightblue" stroke="midnightblue" points="920.961,-192.342 929.725,-186.388 919.161,-185.577 920.961,-192.342"/>
</g>
<!-- Node26&#45;&gt;Node11 -->
<g id="edge34" class="edge"><title>Node26&#45;&gt;Node11</title>
<path fill="none" stroke="midnightblue" d="M769.442,-224.324C784.085,-215.822 806.634,-202.729 823.738,-192.797"/>
<polygon fill="midnightblue" stroke="midnightblue" points="825.705,-195.703 832.595,-187.655 822.19,-189.649 825.705,-195.703"/>
</g>
<!-- Node26&#45;&gt;Node18 -->
<g id="edge32" class="edge"><title>Node26&#45;&gt;Node18</title>
<path fill="none" stroke="midnightblue" d="M716.833,-229.646C684.6,-225.02 638.61,-214.038 607.5,-188 578.386,-163.633 594.441,-139.721 568.5,-112 555.904,-98.5394 538.387,-87.7252 523.449,-80.0747"/>
<polygon fill="midnightblue" stroke="midnightblue" points="524.606,-76.7448 514.084,-75.5081 521.538,-83.0367 524.606,-76.7448"/>
</g>
<!-- Node27 -->
<g id="node27" class="node"><title>Node27</title>
<polygon fill="white" stroke="#bfbfbf" points="725,-112.5 725,-131.5 774,-131.5 774,-112.5 725,-112.5"/>
<text text-anchor="middle" x="749.5" y="-119.5" font-family="Helvetica,sans-Serif" font-size="10.00">QHash</text>
</g>
<!-- Node26&#45;&gt;Node27 -->
<g id="edge30" class="edge"><title>Node26&#45;&gt;Node27</title>
<path fill="none" stroke="midnightblue" d="M754.108,-224.368C753.301,-206.617 751.439,-165.666 750.345,-141.597"/>
<polygon fill="midnightblue" stroke="midnightblue" points="753.841,-141.422 749.891,-131.591 746.848,-141.74 753.841,-141.422"/>
</g>
<!-- Node28 -->
<g id="node28" class="node"><title>Node28</title>
<g id="a_node28"><a xlink:href="../../d2/d5b/torcdevicehandler_8h.html" target="_top" xlink:title="torcdevicehandler.h">
<polygon fill="white" stroke="black" points="616.5,-168.5 616.5,-187.5 726.5,-187.5 726.5,-168.5 616.5,-168.5"/>
<text text-anchor="middle" x="671.5" y="-175.5" font-family="Helvetica,sans-Serif" font-size="10.00">torcdevicehandler.h</text>
</a>
</g>
</g>
<!-- Node26&#45;&gt;Node28 -->
<g id="edge35" class="edge"><title>Node26&#45;&gt;Node28</title>
<path fill="none" stroke="midnightblue" d="M741.165,-224.324C728.338,-215.979 708.715,-203.212 693.56,-193.352"/>
<polygon fill="midnightblue" stroke="midnightblue" points="695.093,-190.174 684.802,-187.655 691.276,-196.042 695.093,-190.174"/>
</g>
<!-- Node28&#45;&gt;Node9 -->
<g id="edge37" class="edge"><title>Node28&#45;&gt;Node9</title>
<path fill="none" stroke="midnightblue" d="M649.633,-168.444C626.721,-159.478 590.525,-145.314 564.634,-135.183"/>
<polygon fill="midnightblue" stroke="midnightblue" points="565.852,-131.901 555.264,-131.516 563.301,-138.42 565.852,-131.901"/>
</g>
<!-- Node28&#45;&gt;Node27 -->
<g id="edge36" class="edge"><title>Node28&#45;&gt;Node27</title>
<path fill="none" stroke="midnightblue" d="M684.032,-168.324C696.086,-159.979 714.527,-147.212 728.769,-137.352"/>
<polygon fill="midnightblue" stroke="midnightblue" points="730.769,-140.224 736.999,-131.655 726.785,-134.469 730.769,-140.224"/>
</g>
<!-- Node29 -->
<g id="node29" class="node"><title>Node29</title>
<polygon fill="white" stroke="#bfbfbf" points="642.5,-112.5 642.5,-131.5 700.5,-131.5 700.5,-112.5 642.5,-112.5"/>
<text text-anchor="middle" x="671.5" y="-119.5" font-family="Helvetica,sans-Serif" font-size="10.00">QVariant</text>
</g>
<!-- Node28&#45;&gt;Node29 -->
<g id="edge38" class="edge"><title>Node28&#45;&gt;Node29</title>
<path fill="none" stroke="midnightblue" d="M671.5,-168.083C671.5,-161.006 671.5,-150.861 671.5,-141.986"/>
<polygon fill="midnightblue" stroke="midnightblue" points="675,-141.751 671.5,-131.751 668,-141.751 675,-141.751"/>
</g>
<!-- Node30&#45;&gt;Node10 -->
<g id="edge40" class="edge"><title>Node30&#45;&gt;Node10</title>
<path fill="none" stroke="midnightblue" d="M1006.42,-280.406C995.858,-272.239 980.923,-259.002 972.5,-244 964.438,-229.641 960.704,-211.181 958.978,-197.605"/>
<polygon fill="midnightblue" stroke="midnightblue" points="962.449,-197.138 957.949,-187.547 955.485,-197.851 962.449,-197.138"/>
</g>
<!-- Node31 -->
<g id="node31" class="node"><title>Node31</title>
<g id="a_node31"><a xlink:href="../../d2/d60/torcmaths_8h.html" target="_top" xlink:title="torcmaths.h">
<polygon fill="white" stroke="black" points="981,-224.5 981,-243.5 1056,-243.5 1056,-224.5 981,-224.5"/>
<text text-anchor="middle" x="1018.5" y="-231.5" font-family="Helvetica,sans-Serif" font-size="10.00">torcmaths.h</text>
</a>
</g>
</g>
<!-- Node30&#45;&gt;Node31 -->
<g id="edge41" class="edge"><title>Node30&#45;&gt;Node31</title>
<path fill="none" stroke="midnightblue" d="M1018.5,-280.083C1018.5,-273.006 1018.5,-262.861 1018.5,-253.986"/>
<polygon fill="midnightblue" stroke="midnightblue" points="1022,-253.751 1018.5,-243.751 1015,-253.751 1022,-253.751"/>
</g>
<!-- Node33 -->
<g id="node33" class="node"><title>Node33</title>
<g id="a_node33"><a xlink:href="../../de/df7/torcsegmentedringbuffer_8h.html" target="_top" xlink:title="torcsegmentedringbuffer.h">
<polygon fill="white" stroke="black" points="1041.5,-168.5 1041.5,-187.5 1185.5,-187.5 1185.5,-168.5 1041.5,-168.5"/>
<text text-anchor="middle" x="1113.5" y="-175.5" font-family="Helvetica,sans-Serif" font-size="10.00">torcsegmentedringbuffer.h</text>
</a>
</g>
</g>
<!-- Node30&#45;&gt;Node33 -->
<g id="edge43" class="edge"><title>Node30&#45;&gt;Node33</title>
<path fill="none" stroke="midnightblue" d="M1028.33,-280.486C1038.19,-271.755 1053.56,-257.57 1065.5,-244 1079.05,-228.598 1092.79,-209.579 1102.07,-196.104"/>
<polygon fill="midnightblue" stroke="midnightblue" points="1105.01,-198.011 1107.73,-187.773 1099.22,-194.077 1105.01,-198.011"/>
</g>
<!-- Node36 -->
<g id="node36" class="node"><title>Node36</title>
<g id="a_node36"><a xlink:href="../../d4/d0f/torcmuxer_8h.html" target="_top" xlink:title="ffmpeg/torcmuxer.h">
<polygon fill="white" stroke="black" points="1113,-224.5 1113,-243.5 1224,-243.5 1224,-224.5 1113,-224.5"/>
<text text-anchor="middle" x="1168.5" y="-231.5" font-family="Helvetica,sans-Serif" font-size="10.00">ffmpeg/torcmuxer.h</text>
</a>
</g>
</g>
<!-- Node30&#45;&gt;Node36 -->
<g id="edge48" class="edge"><title>Node30&#45;&gt;Node36</title>
<path fill="none" stroke="midnightblue" d="M1042.27,-280.444C1067.39,-271.399 1107.21,-257.064 1135.4,-246.916"/>
<polygon fill="midnightblue" stroke="midnightblue" points="1136.62,-250.197 1144.84,-243.516 1134.25,-243.611 1136.62,-250.197"/>
</g>
<!-- Node39 -->
<g id="node39" class="node"><title>Node39</title>
<polygon fill="white" stroke="#bfbfbf" points="1242,-224.5 1242,-243.5 1361,-243.5 1361,-224.5 1242,-224.5"/>
<text text-anchor="middle" x="1301.5" y="-231.5" font-family="Helvetica,sans-Serif" font-size="10.00">libavcodec/avcodec.h</text>
</g>
<!-- Node30&#45;&gt;Node39 -->
<g id="edge52" class="edge"><title>Node30&#45;&gt;Node39</title>
<path fill="none" stroke="midnightblue" d="M1059.05,-281.263C1108.4,-271.846 1191.93,-255.906 1246.91,-245.417"/>
<polygon fill="midnightblue" stroke="midnightblue" points="1247.66,-248.837 1256.83,-243.524 1246.35,-241.961 1247.66,-248.837"/>
</g>
<!-- Node32 -->
<g id="node32" class="node"><title>Node32</title>
<polygon fill="white" stroke="#bfbfbf" points="952.5,-112.5 952.5,-131.5 1008.5,-131.5 1008.5,-112.5 952.5,-112.5"/>
<text text-anchor="middle" x="980.5" y="-119.5" font-family="Helvetica,sans-Serif" font-size="10.00">QQueue</text>
</g>
<!-- Node31&#45;&gt;Node32 -->
<g id="edge42" class="edge"><title>Node31&#45;&gt;Node32</title>
<path fill="none" stroke="midnightblue" d="M1015.52,-224.368C1009.36,-206.537 995.111,-165.295 986.812,-141.272"/>
<polygon fill="midnightblue" stroke="midnightblue" points="990.041,-139.9 983.468,-131.591 983.425,-142.186 990.041,-139.9"/>
</g>
<!-- Node33&#45;&gt;Node21 -->
<g id="edge44" class="edge"><title>Node33&#45;&gt;Node21</title>
<path fill="none" stroke="midnightblue" d="M1119.46,-168.308C1128,-154.684 1141.25,-128.186 1127.5,-112 1096.42,-75.4181 948.267,-68.5107 883.23,-67.2538"/>
<polygon fill="midnightblue" stroke="midnightblue" points="883.231,-63.7535 873.176,-67.0923 883.118,-70.7526 883.231,-63.7535"/>
</g>
<!-- Node33&#45;&gt;Node32 -->
<g id="edge45" class="edge"><title>Node33&#45;&gt;Node32</title>
<path fill="none" stroke="midnightblue" d="M1092.43,-168.444C1070.44,-159.517 1035.77,-145.439 1010.84,-135.317"/>
<polygon fill="midnightblue" stroke="midnightblue" points="1012.06,-132.035 1001.48,-131.516 1009.42,-138.521 1012.06,-132.035"/>
</g>
<!-- Node34 -->
<g id="node34" class="node"><title>Node34</title>
<polygon fill="white" stroke="#bfbfbf" points="1174.5,-112.5 1174.5,-131.5 1240.5,-131.5 1240.5,-112.5 1174.5,-112.5"/>
<text text-anchor="middle" x="1207.5" y="-119.5" font-family="Helvetica,sans-Serif" font-size="10.00">QIODevice</text>
</g>
<!-- Node33&#45;&gt;Node34 -->
<g id="edge46" class="edge"><title>Node33&#45;&gt;Node34</title>
<path fill="none" stroke="midnightblue" d="M1128.6,-168.324C1143.4,-159.822 1166.19,-146.729 1183.48,-136.797"/>
<polygon fill="midnightblue" stroke="midnightblue" points="1185.51,-139.671 1192.43,-131.655 1182.02,-133.601 1185.51,-139.671"/>
</g>
<!-- Node35 -->
<g id="node35" class="node"><title>Node35</title>
<polygon fill="white" stroke="#bfbfbf" points="1026.5,-112.5 1026.5,-131.5 1118.5,-131.5 1118.5,-112.5 1026.5,-112.5"/>
<text text-anchor="middle" x="1072.5" y="-119.5" font-family="Helvetica,sans-Serif" font-size="10.00">QReadWriteLock</text>
</g>
<!-- Node33&#45;&gt;Node35 -->
<g id="edge47" class="edge"><title>Node33&#45;&gt;Node35</title>
<path fill="none" stroke="midnightblue" d="M1106.73,-168.083C1100.94,-160.455 1092.44,-149.264 1085.36,-139.941"/>
<polygon fill="midnightblue" stroke="midnightblue" points="1087.98,-137.599 1079.14,-131.751 1082.4,-141.832 1087.98,-137.599"/>
</g>
<!-- Node36&#45;&gt;Node33 -->
<g id="edge50" class="edge"><title>Node36&#45;&gt;Node33</title>
<path fill="none" stroke="midnightblue" d="M1159.42,-224.083C1151.33,-216.141 1139.3,-204.335 1129.59,-194.797"/>
<polygon fill="midnightblue" stroke="midnightblue" points="1132,-192.26 1122.41,-187.751 1127.1,-197.254 1132,-192.26"/>
</g>
<!-- Node37 -->
<g id="node37" class="node"><title>Node37</title>
<polygon fill="white" stroke="#bfbfbf" points="1203.5,-168.5 1203.5,-187.5 1261.5,-187.5 1261.5,-168.5 1203.5,-168.5"/>
<text text-anchor="middle" x="1232.5" y="-175.5" font-family="Helvetica,sans-Serif" font-size="10.00">QtGlobal</text>
</g>
<!-- Node36&#45;&gt;Node37 -->
<g id="edge49" class="edge"><title>Node36&#45;&gt;Node37</title>
<path fill="none" stroke="midnightblue" d="M1178.78,-224.324C1188.34,-216.263 1202.78,-204.077 1214.28,-194.369"/>
<polygon fill="midnightblue" stroke="midnightblue" points="1216.64,-196.958 1222.03,-187.834 1212.13,-191.608 1216.64,-196.958"/>
</g>
<!-- Node38 -->
<g id="node38" class="node"><title>Node38</title>
<polygon fill="white" stroke="#bfbfbf" points="1279.5,-168.5 1279.5,-187.5 1405.5,-187.5 1405.5,-168.5 1279.5,-168.5"/>
<text text-anchor="middle" x="1342.5" y="-175.5" font-family="Helvetica,sans-Serif" font-size="10.00">libavformat/avformat.h</text>
</g>
<!-- Node36&#45;&gt;Node38 -->
<g id="edge51" class="edge"><title>Node36&#45;&gt;Node38</title>
<path fill="none" stroke="midnightblue" d="M1196.07,-224.444C1225.6,-215.28 1272.62,-200.688 1305.38,-190.519"/>
<polygon fill="midnightblue" stroke="midnightblue" points="1306.54,-193.823 1315.06,-187.516 1304.47,-187.138 1306.54,-193.823"/>
</g>
</g>
</svg>
