<?xml version="1.0" encoding="UTF-8" standalone="no"?>
<!DOCTYPE svg PUBLIC "-//W3C//DTD SVG 1.1//EN"
 "http://www.w3.org/Graphics/SVG/1.1/DTD/svg11.dtd">
<!-- Generated by graphviz version 2.38.0 (20140413.2041)
 -->
<!-- Title: server Pages: 1 -->
<svg width="257pt" height="332pt"
 viewBox="0.00 0.00 257.39 332.00" xmlns="http://www.w3.org/2000/svg" xmlns:xlink="http://www.w3.org/1999/xlink">
<g id="graph0" class="graph" transform="scale(1 1) rotate(0) translate(4 328)">
<title>server</title>
<polygon fill="white" stroke="none" points="-4,4 -4,-328 253.394,-328 253.394,4 -4,4"/>
<!-- dir_41e1742e44e2de38b3bc91f993fed282 -->
<g id="node1" class="node"><title>dir_41e1742e44e2de38b3bc91f993fed282</title>
<g id="a_node1"><a xlink:href="dir_41e1742e44e2de38b3bc91f993fed282.html" target="_top" xlink:title="server">
<polygon fill="#eeeeff" stroke="black" points="129.394,-324 75.3938,-324 75.3938,-288 129.394,-288 129.394,-324"/>
<text text-anchor="middle" x="102.394" y="-303.5" font-family="Helvetica,sans-Serif" font-size="10.00">server</text>
</a>
</g>
</g>
<!-- dir_19e1fafdf157c27762559b97f5d6a2d3 -->
<g id="node2" class="node"><title>dir_19e1fafdf157c27762559b97f5d6a2d3</title>
<g id="a_node2"><a xlink:href="dir_19e1fafdf157c27762559b97f5d6a2d3.html" target="_top" xlink:title="torc">
<polygon fill="white" stroke="red" points="139.394,-36 85.3938,-36 85.3938,-0 139.394,-0 139.394,-36"/>
<text text-anchor="middle" x="112.394" y="-15.5" font-family="Helvetica,sans-Serif" font-size="10.00">torc</text>
</a>
</g>
</g>
<!-- dir_41e1742e44e2de38b3bc91f993fed282&#45;&gt;dir_19e1fafdf157c27762559b97f5d6a2d3 -->
<g id="edge6" class="edge"><title>dir_41e1742e44e2de38b3bc91f993fed282&#45;&gt;dir_19e1fafdf157c27762559b97f5d6a2d3</title>
<path fill="none" stroke="black" d="M79.2053,-287.852C44.1415,-259.653 -16.2143,-200.921 4.39381,-144 19.4353,-102.455 55.4871,-65.6425 81.8134,-42.9131"/>
<polygon fill="black" stroke="black" points="84.2447,-45.4413 89.6374,-36.3216 79.7345,-40.0879 84.2447,-45.4413"/>
<g id="a_edge6&#45;headlabel"><a xlink:href="dir_000000_000004.html" target="_top" xlink:title="20">
<text text-anchor="middle" x="83.325" y="-47.4287" font-family="Helvetica,sans-Serif" font-size="10.00">20</text>
</a>
</g>
</g>
<!-- dir_0f104a5a9ad42d0e39afe19fc0bdfc88 -->
<g id="node3" class="node"><title>dir_0f104a5a9ad42d0e39afe19fc0bdfc88</title>
<g id="a_node3"><a xlink:href="dir_0f104a5a9ad42d0e39afe19fc0bdfc88.html" target="_top" xlink:title="notify">
<polygon fill="none" stroke="black" points="67.3938,-180 13.3938,-180 13.3938,-144 67.3938,-144 67.3938,-180"/>
<text text-anchor="middle" x="40.3938" y="-159.5" font-family="Helvetica,sans-Serif" font-size="10.00">notify</text>
</a>
</g>
</g>
<!-- dir_41e1742e44e2de38b3bc91f993fed282&#45;&gt;dir_0f104a5a9ad42d0e39afe19fc0bdfc88 -->
<g id="edge7" class="edge"><title>dir_41e1742e44e2de38b3bc91f993fed282&#45;&gt;dir_0f104a5a9ad42d0e39afe19fc0bdfc88</title>
<path fill="none" stroke="black" d="M90.3307,-287.871C77.0899,-263.457 57.1545,-218.426 46.617,-189.635"/>
<polygon fill="black" stroke="black" points="49.9174,-188.47 43.3081,-180.189 43.311,-190.784 49.9174,-188.47"/>
<g id="a_edge7&#45;headlabel"><a xlink:href="dir_000000_000010.html" target="_top" xlink:title="1">
<text text-anchor="middle" x="53.7853" y="-188.424" font-family="Helvetica,sans-Serif" font-size="10.00">1</text>
</a>
</g>
</g>
<!-- dir_d03bd041034a3e88cd281d61691321a9 -->
<g id="node4" class="node"><title>dir_d03bd041034a3e88cd281d61691321a9</title>
<g id="a_node4"><a xlink:href="dir_d03bd041034a3e88cd281d61691321a9.html" target="_top" xlink:title="outputs">
<polygon fill="white" stroke="red" points="139.394,-180 85.3938,-180 85.3938,-144 139.394,-144 139.394,-180"/>
<text text-anchor="middle" x="112.394" y="-159.5" font-family="Helvetica,sans-Serif" font-size="10.00">outputs</text>
</a>
</g>
</g>
<!-- dir_41e1742e44e2de38b3bc91f993fed282&#45;&gt;dir_d03bd041034a3e88cd281d61691321a9 -->
<g id="edge8" class="edge"><title>dir_41e1742e44e2de38b3bc91f993fed282&#45;&gt;dir_d03bd041034a3e88cd281d61691321a9</title>
<path fill="none" stroke="black" d="M99.0156,-287.871C98.1615,-263.67 101.001,-219.211 105.006,-190.393"/>
<polygon fill="black" stroke="black" points="108.514,-190.608 106.592,-180.189 101.597,-189.533 108.514,-190.608"/>
<g id="a_edge8&#45;headlabel"><a xlink:href="dir_000000_000007.html" target="_top" xlink:title="1">
<text text-anchor="middle" x="110.768" y="-192.096" font-family="Helvetica,sans-Serif" font-size="10.00">1</text>
</a>
</g>
</g>
<!-- dir_3d370fd2770cf63261b7ee5a69ee79d2 -->
<g id="node5" class="node"><title>dir_3d370fd2770cf63261b7ee5a69ee79d2</title>
<g id="a_node5"><a xlink:href="dir_3d370fd2770cf63261b7ee5a69ee79d2.html" target="_top" xlink:title="controls">
<polygon fill="none" stroke="black" points="194.894,-252 139.894,-252 139.894,-216 194.894,-216 194.894,-252"/>
<text text-anchor="middle" x="167.394" y="-231.5" font-family="Helvetica,sans-Serif" font-size="10.00">controls</text>
</a>
</g>
</g>
<!-- dir_41e1742e44e2de38b3bc91f993fed282&#45;&gt;dir_3d370fd2770cf63261b7ee5a69ee79d2 -->
<g id="edge9" class="edge"><title>dir_41e1742e44e2de38b3bc91f993fed282&#45;&gt;dir_3d370fd2770cf63261b7ee5a69ee79d2</title>
<path fill="none" stroke="black" d="M112.546,-287.697C119.612,-279.135 129.161,-268.656 138.364,-259.304"/>
<polygon fill="black" stroke="black" points="140.985,-261.634 145.616,-252.104 136.054,-256.666 140.985,-261.634"/>
<g id="a_edge9&#45;headlabel"><a xlink:href="dir_000000_000008.html" target="_top" xlink:title="1">
<text text-anchor="middle" x="140.435" y="-263.681" font-family="Helvetica,sans-Serif" font-size="10.00">1</text>
</a>
</g>
</g>
<!-- dir_fb7b09e926df3dd6ae65d35d8e762017 -->
<g id="node6" class="node"><title>dir_fb7b09e926df3dd6ae65d35d8e762017</title>
<g id="a_node6"><a xlink:href="dir_fb7b09e926df3dd6ae65d35d8e762017.html" target="_top" xlink:title="inputs">
<polygon fill="white" stroke="red" points="249.394,-108 195.394,-108 195.394,-72 249.394,-72 249.394,-108"/>
<text text-anchor="middle" x="222.394" y="-87.5" font-family="Helvetica,sans-Serif" font-size="10.00">inputs</text>
</a>
</g>
</g>
<!-- dir_41e1742e44e2de38b3bc91f993fed282&#45;&gt;dir_fb7b09e926df3dd6ae65d35d8e762017 -->
<g id="edge10" class="edge"><title>dir_41e1742e44e2de38b3bc91f993fed282&#45;&gt;dir_fb7b09e926df3dd6ae65d35d8e762017</title>
<path fill="none" stroke="black" d="M129.527,-295.95C150.768,-288.158 178.907,-274.515 194.394,-252 221.884,-212.034 220.971,-152.908 220.185,-118.536"/>
<polygon fill="black" stroke="black" points="223.68,-118.226 219.971,-108.301 216.681,-118.372 223.68,-118.226"/>
<g id="a_edge10&#45;headlabel"><a xlink:href="dir_000000_000002.html" target="_top" xlink:title="1">
<text text-anchor="middle" x="226.594" y="-119.26" font-family="Helvetica,sans-Serif" font-size="10.00">1</text>
</a>
</g>
</g>
<!-- dir_0f104a5a9ad42d0e39afe19fc0bdfc88&#45;&gt;dir_41e1742e44e2de38b3bc91f993fed282 -->
<g id="edge2" class="edge"><title>dir_0f104a5a9ad42d0e39afe19fc0bdfc88&#45;&gt;dir_41e1742e44e2de38b3bc91f993fed282</title>
<path fill="none" stroke="black" d="M52.4899,-180.189C65.6839,-204.531 85.5009,-249.28 96.0584,-278.059"/>
<polygon fill="black" stroke="black" points="92.8875,-279.593 99.4997,-287.871 99.4931,-277.277 92.8875,-279.593"/>
<g id="a_edge2&#45;headlabel"><a xlink:href="dir_000010_000000.html" target="_top" xlink:title="4">
<text text-anchor="middle" x="89.0187" y="-274.641" font-family="Helvetica,sans-Serif" font-size="10.00">4</text>
</a>
</g>
</g>
<!-- dir_0f104a5a9ad42d0e39afe19fc0bdfc88&#45;&gt;dir_19e1fafdf157c27762559b97f5d6a2d3 -->
<g id="edge1" class="edge"><title>dir_0f104a5a9ad42d0e39afe19fc0bdfc88&#45;&gt;dir_19e1fafdf157c27762559b97f5d6a2d3</title>
<path fill="none" stroke="black" d="M49.0787,-143.871C61.5119,-119.35 84.4902,-74.0321 99.0794,-45.2589"/>
<polygon fill="black" stroke="black" points="102.277,-46.6911 103.678,-36.1893 96.0341,-43.5255 102.277,-46.6911"/>
<g id="a_edge1&#45;headlabel"><a xlink:href="dir_000010_000004.html" target="_top" xlink:title="20">
<text text-anchor="middle" x="103.184" y="-48.6811" font-family="Helvetica,sans-Serif" font-size="10.00">20</text>
</a>
</g>
</g>
<!-- dir_d03bd041034a3e88cd281d61691321a9&#45;&gt;dir_41e1742e44e2de38b3bc91f993fed282 -->
<g id="edge4" class="edge"><title>dir_d03bd041034a3e88cd281d61691321a9&#45;&gt;dir_41e1742e44e2de38b3bc91f993fed282</title>
<path fill="none" stroke="black" d="M115.774,-180.189C116.622,-204.424 113.779,-248.888 109.772,-277.679"/>
<polygon fill="black" stroke="black" points="106.265,-277.452 108.185,-287.871 113.182,-278.529 106.265,-277.452"/>
<g id="a_edge4&#45;headlabel"><a xlink:href="dir_000007_000000.html" target="_top" xlink:title="8">
<text text-anchor="middle" x="104.013" y="-270.963" font-family="Helvetica,sans-Serif" font-size="10.00">8</text>
</a>
</g>
</g>
<!-- dir_d03bd041034a3e88cd281d61691321a9&#45;&gt;dir_19e1fafdf157c27762559b97f5d6a2d3 -->
<g id="edge3" class="edge"><title>dir_d03bd041034a3e88cd281d61691321a9&#45;&gt;dir_19e1fafdf157c27762559b97f5d6a2d3</title>
<path fill="none" stroke="black" d="M112.394,-143.871C112.394,-119.67 112.394,-75.2108 112.394,-46.3932"/>
<polygon fill="black" stroke="black" points="115.894,-46.1892 112.394,-36.1893 108.894,-46.1893 115.894,-46.1892"/>
<g id="a_edge3&#45;headlabel"><a xlink:href="dir_000007_000004.html" target="_top" xlink:title="31">
<text text-anchor="middle" x="118.733" y="-47.2839" font-family="Helvetica,sans-Serif" font-size="10.00">31</text>
</a>
</g>
</g>
<!-- dir_d03bd041034a3e88cd281d61691321a9&#45;&gt;dir_fb7b09e926df3dd6ae65d35d8e762017 -->
<g id="edge5" class="edge"><title>dir_d03bd041034a3e88cd281d61691321a9&#45;&gt;dir_fb7b09e926df3dd6ae65d35d8e762017</title>
<path fill="none" stroke="black" d="M133.406,-143.876C148.371,-133.674 168.69,-120.701 186.193,-110.159"/>
<polygon fill="black" stroke="black" points="188.239,-113.014 195.046,-104.895 184.662,-106.998 188.239,-113.014"/>
<g id="a_edge5&#45;headlabel"><a xlink:href="dir_000007_000002.html" target="_top" xlink:title="3">
<text text-anchor="middle" x="186.601" y="-114.792" font-family="Helvetica,sans-Serif" font-size="10.00">3</text>
</a>
</g>
</g>
<!-- dir_3d370fd2770cf63261b7ee5a69ee79d2&#45;&gt;dir_41e1742e44e2de38b3bc91f993fed282 -->
<g id="edge14" class="edge"><title>dir_3d370fd2770cf63261b7ee5a69ee79d2&#45;&gt;dir_41e1742e44e2de38b3bc91f993fed282</title>
<path fill="none" stroke="black" d="M157.406,-252.104C150.378,-260.636 140.846,-271.108 131.638,-280.478"/>
<polygon fill="black" stroke="black" points="129.001,-278.164 124.377,-287.697 133.936,-283.128 129.001,-278.164"/>
<g id="a_edge14&#45;headlabel"><a xlink:href="dir_000008_000000.html" target="_top" xlink:title="3">
<text text-anchor="middle" x="129.548" y="-271.116" font-family="Helvetica,sans-Serif" font-size="10.00">3</text>
</a>
</g>
</g>
<!-- dir_3d370fd2770cf63261b7ee5a69ee79d2&#45;&gt;dir_19e1fafdf157c27762559b97f5d6a2d3 -->
<g id="edge11" class="edge"><title>dir_3d370fd2770cf63261b7ee5a69ee79d2&#45;&gt;dir_19e1fafdf157c27762559b97f5d6a2d3</title>
<path fill="none" stroke="black" d="M164.105,-215.856C160.568,-197.874 154.611,-168.829 148.394,-144 139.86,-109.92 128.404,-71.1 120.728,-45.8857"/>
<polygon fill="black" stroke="black" points="124.064,-44.8235 117.789,-36.2867 117.37,-46.8732 124.064,-44.8235"/>
<g id="a_edge11&#45;headlabel"><a xlink:href="dir_000008_000004.html" target="_top" xlink:title="12">
<text text-anchor="middle" x="127.831" y="-44.9292" font-family="Helvetica,sans-Serif" font-size="10.00">12</text>
</a>
</g>
</g>
<!-- dir_3d370fd2770cf63261b7ee5a69ee79d2&#45;&gt;dir_0f104a5a9ad42d0e39afe19fc0bdfc88 -->
<g id="edge12" class="edge"><title>dir_3d370fd2770cf63261b7ee5a69ee79d2&#45;&gt;dir_0f104a5a9ad42d0e39afe19fc0bdfc88</title>
<path fill="none" stroke="black" d="M139.837,-217.811C121.237,-207.559 96.5033,-193.927 76.3563,-182.822"/>
<polygon fill="black" stroke="black" points="77.9082,-179.681 67.4608,-177.919 74.5291,-185.811 77.9082,-179.681"/>
<g id="a_edge12&#45;headlabel"><a xlink:href="dir_000008_000010.html" target="_top" xlink:title="1">
<text text-anchor="middle" x="82.4268" y="-176.429" font-family="Helvetica,sans-Serif" font-size="10.00">1</text>
</a>
</g>
</g>
<!-- dir_3d370fd2770cf63261b7ee5a69ee79d2&#45;&gt;dir_d03bd041034a3e88cd281d61691321a9 -->
<g id="edge13" class="edge"><title>dir_3d370fd2770cf63261b7ee5a69ee79d2&#45;&gt;dir_d03bd041034a3e88cd281d61691321a9</title>
<path fill="none" stroke="black" d="M153.798,-215.697C147.271,-207.389 139.326,-197.277 132.147,-188.141"/>
<polygon fill="black" stroke="black" points="134.763,-185.805 125.833,-180.104 129.259,-190.13 134.763,-185.805"/>
<g id="a_edge13&#45;headlabel"><a xlink:href="dir_000008_000007.html" target="_top" xlink:title="2">
<text text-anchor="middle" x="139.217" y="-184.377" font-family="Helvetica,sans-Serif" font-size="10.00">2</text>
</a>
</g>
</g>
<!-- dir_3d370fd2770cf63261b7ee5a69ee79d2&#45;&gt;dir_fb7b09e926df3dd6ae65d35d8e762017 -->
<g id="edge15" class="edge"><title>dir_3d370fd2770cf63261b7ee5a69ee79d2&#45;&gt;dir_fb7b09e926df3dd6ae65d35d8e762017</title>
<path fill="none" stroke="black" d="M174.028,-215.871C183.484,-191.457 200.926,-146.426 212.077,-117.635"/>
<polygon fill="black" stroke="black" points="215.388,-118.778 215.736,-108.189 208.86,-116.25 215.388,-118.778"/>
<g id="a_edge15&#45;headlabel"><a xlink:href="dir_000008_000002.html" target="_top" xlink:title="2">
<text text-anchor="middle" x="216.737" y="-120.656" font-family="Helvetica,sans-Serif" font-size="10.00">2</text>
</a>
</g>
</g>
<!-- dir_fb7b09e926df3dd6ae65d35d8e762017&#45;&gt;dir_41e1742e44e2de38b3bc91f993fed282 -->
<g id="edge18" class="edge"><title>dir_fb7b09e926df3dd6ae65d35d8e762017&#45;&gt;dir_41e1742e44e2de38b3bc91f993fed282</title>
<path fill="none" stroke="black" d="M230.495,-108.301C238.441,-139.886 242.859,-207.708 212.394,-252 195.824,-276.091 164.768,-290.023 139.722,-297.501"/>
<polygon fill="black" stroke="black" points="138.482,-294.212 129.766,-300.234 140.335,-300.962 138.482,-294.212"/>
<g id="a_edge18&#45;headlabel"><a xlink:href="dir_000002_000000.html" target="_top" xlink:title="7">
<text text-anchor="middle" x="141.197" y="-288.022" font-family="Helvetica,sans-Serif" font-size="10.00">7</text>
</a>
</g>
</g>
<!-- dir_fb7b09e926df3dd6ae65d35d8e762017&#45;&gt;dir_19e1fafdf157c27762559b97f5d6a2d3 -->
<g id="edge16" class="edge"><title>dir_fb7b09e926df3dd6ae65d35d8e762017&#45;&gt;dir_19e1fafdf157c27762559b97f5d6a2d3</title>
<path fill="none" stroke="black" d="M195.485,-71.8761C181.235,-62.8083 163.547,-51.5523 148.158,-41.7592"/>
<polygon fill="black" stroke="black" points="149.722,-38.6057 139.406,-36.1898 145.964,-44.5114 149.722,-38.6057"/>
<g id="a_edge16&#45;headlabel"><a xlink:href="dir_000002_000004.html" target="_top" xlink:title="18">
<text text-anchor="middle" x="154.279" y="-35.6402" font-family="Helvetica,sans-Serif" font-size="10.00">18</text>
</a>
</g>
</g>
<!-- dir_fb7b09e926df3dd6ae65d35d8e762017&#45;&gt;dir_d03bd041034a3e88cd281d61691321a9 -->
<g id="edge17" class="edge"><title>dir_fb7b09e926df3dd6ae65d35d8e762017&#45;&gt;dir_d03bd041034a3e88cd281d61691321a9</title>
<path fill="none" stroke="black" d="M201.536,-108.019C186.535,-118.252 166.099,-131.3 148.519,-141.886"/>
<polygon fill="black" stroke="black" points="146.438,-139.052 139.63,-147.17 150.014,-145.069 146.438,-139.052"/>
<g id="a_edge17&#45;headlabel"><a xlink:href="dir_000002_000007.html" target="_top" xlink:title="8">
<text text-anchor="middle" x="148.077" y="-132.275" font-family="Helvetica,sans-Serif" font-size="10.00">8</text>
</a>
</g>
</g>
</g>
</svg>
