<?xml version="1.0" encoding="UTF-8" standalone="no"?>
<!DOCTYPE svg PUBLIC "-//W3C//DTD SVG 1.1//EN"
 "http://www.w3.org/Graphics/SVG/1.1/DTD/svg11.dtd">
<!-- Generated by graphviz version 2.38.0 (20140413.2041)
 -->
<!-- Title: inputs Pages: 1 -->
<svg width="230pt" height="221pt"
 viewBox="0.00 0.00 230.00 221.19" xmlns="http://www.w3.org/2000/svg" xmlns:xlink="http://www.w3.org/1999/xlink">
<g id="graph0" class="graph" transform="scale(1 1) rotate(0) translate(4 217.192)">
<title>inputs</title>
<polygon fill="white" stroke="none" points="-4,4 -4,-217.192 226,-217.192 226,4 -4,4"/>
<g id="clust1" class="cluster"><title>clusterdir_fb7b09e926df3dd6ae65d35d8e762017</title>
<g id="a_clust1"><a xlink:href="dir_fb7b09e926df3dd6ae65d35d8e762017.html" target="_top">
<polygon fill="#eeeeff" stroke="black" points="8,-136 8,-188 158,-188 158,-136 8,-136"/>
</a>
</g>
</g>
<!-- dir_fb7b09e926df3dd6ae65d35d8e762017 -->
<g id="node1" class="node"><title>dir_fb7b09e926df3dd6ae65d35d8e762017</title>
<text text-anchor="middle" x="123" y="-159.5" font-family="Helvetica,sans-Serif" font-size="10.00">inputs</text>
</g>
<!-- dir_19e1fafdf157c27762559b97f5d6a2d3 -->
<g id="node3" class="node"><title>dir_19e1fafdf157c27762559b97f5d6a2d3</title>
<g id="a_node3"><a xlink:href="dir_19e1fafdf157c27762559b97f5d6a2d3.html" target="_top" xlink:title="torc">
<polygon fill="white" stroke="red" points="139,-36 85,-36 85,-0 139,-0 139,-36"/>
<text text-anchor="middle" x="112" y="-15.5" font-family="Helvetica,sans-Serif" font-size="10.00">torc</text>
</a>
</g>
</g>
<!-- dir_fb7b09e926df3dd6ae65d35d8e762017&#45;&gt;dir_19e1fafdf157c27762559b97f5d6a2d3 -->
<g id="edge10" class="edge"><title>dir_fb7b09e926df3dd6ae65d35d8e762017&#45;&gt;dir_19e1fafdf157c27762559b97f5d6a2d3</title>
<path fill="none" stroke="black" d="M115.107,-143.745C110.893,-133.577 106.143,-120.327 104,-108 100.436,-87.4949 102.804,-64.0394 105.866,-46.357"/>
<polygon fill="black" stroke="black" points="109.373,-46.6509 107.815,-36.1713 102.498,-45.3351 109.373,-46.6509"/>
<g id="a_edge10&#45;headlabel"><a xlink:href="dir_000002_000004.html" target="_top" xlink:title="14">
<text text-anchor="middle" x="111.486" y="-48.2151" font-family="Helvetica,sans-Serif" font-size="10.00">14</text>
</a>
</g>
</g>
<!-- dir_d03bd041034a3e88cd281d61691321a9 -->
<g id="node4" class="node"><title>dir_d03bd041034a3e88cd281d61691321a9</title>
<g id="a_node4"><a xlink:href="dir_d03bd041034a3e88cd281d61691321a9.html" target="_top" xlink:title="outputs">
<polygon fill="white" stroke="red" points="222,-180 168,-180 168,-144 222,-144 222,-180"/>
<text text-anchor="middle" x="195" y="-159.5" font-family="Helvetica,sans-Serif" font-size="10.00">outputs</text>
</a>
</g>
</g>
<!-- dir_fb7b09e926df3dd6ae65d35d8e762017&#45;&gt;dir_d03bd041034a3e88cd281d61691321a9 -->
<g id="edge11" class="edge"><title>dir_fb7b09e926df3dd6ae65d35d8e762017&#45;&gt;dir_d03bd041034a3e88cd281d61691321a9</title>
<path fill="none" stroke="black" d="M150.281,-162C152.738,-162 155.194,-162 157.651,-162"/>
<polygon fill="black" stroke="black" points="157.75,-165.5 167.75,-162 157.749,-158.5 157.75,-165.5"/>
<g id="a_edge11&#45;headlabel"><a xlink:href="dir_000002_000007.html" target="_top" xlink:title="8">
<text text-anchor="middle" x="154.155" y="-165.839" font-family="Helvetica,sans-Serif" font-size="10.00">8</text>
</a>
</g>
</g>
<!-- dir_41e1742e44e2de38b3bc91f993fed282 -->
<g id="node5" class="node"><title>dir_41e1742e44e2de38b3bc91f993fed282</title>
<g id="a_node5"><a xlink:href="dir_41e1742e44e2de38b3bc91f993fed282.html" target="_top" xlink:title="server">
<polygon fill="none" stroke="black" points="167,-108 113,-108 113,-72 167,-72 167,-108"/>
<text text-anchor="middle" x="140" y="-87.5" font-family="Helvetica,sans-Serif" font-size="10.00">server</text>
</a>
</g>
</g>
<!-- dir_fb7b09e926df3dd6ae65d35d8e762017&#45;&gt;dir_41e1742e44e2de38b3bc91f993fed282 -->
<g id="edge12" class="edge"><title>dir_fb7b09e926df3dd6ae65d35d8e762017&#45;&gt;dir_41e1742e44e2de38b3bc91f993fed282</title>
<path fill="none" stroke="black" d="M121.287,-143.697C122.376,-135.898 124.434,-126.509 126.901,-117.829"/>
<polygon fill="black" stroke="black" points="130.298,-118.694 129.951,-108.104 123.618,-116.598 130.298,-118.694"/>
<g id="a_edge12&#45;headlabel"><a xlink:href="dir_000002_000000.html" target="_top" xlink:title="7">
<text text-anchor="middle" x="131.931" y="-120.473" font-family="Helvetica,sans-Serif" font-size="10.00">7</text>
</a>
</g>
</g>
<!-- dir_94a33b0d2c7d971598d92a73960ed717 -->
<g id="node2" class="node"><title>dir_94a33b0d2c7d971598d92a73960ed717</title>
<g id="a_node2"><a xlink:href="dir_94a33b0d2c7d971598d92a73960ed717.html" target="_top" xlink:title="platforms">
<polygon fill="white" stroke="black" points="78,-180 16,-180 16,-144 78,-144 78,-180"/>
<text text-anchor="middle" x="47" y="-159.5" font-family="Helvetica,sans-Serif" font-size="10.00">platforms</text>
</a>
</g>
</g>
<!-- dir_94a33b0d2c7d971598d92a73960ed717&#45;&gt;dir_19e1fafdf157c27762559b97f5d6a2d3 -->
<g id="edge4" class="edge"><title>dir_94a33b0d2c7d971598d92a73960ed717&#45;&gt;dir_19e1fafdf157c27762559b97f5d6a2d3</title>
<path fill="none" stroke="black" d="M54.8405,-143.871C66.0162,-119.457 86.629,-74.4258 99.8079,-45.6351"/>
<polygon fill="black" stroke="black" points="103.152,-46.7387 104.132,-36.1893 96.787,-43.8252 103.152,-46.7387"/>
<g id="a_edge4&#45;headlabel"><a xlink:href="dir_000003_000004.html" target="_top" xlink:title="6">
<text text-anchor="middle" x="104.238" y="-48.6889" font-family="Helvetica,sans-Serif" font-size="10.00">6</text>
</a>
</g>
</g>
<!-- dir_94a33b0d2c7d971598d92a73960ed717&#45;&gt;dir_d03bd041034a3e88cd281d61691321a9 -->
<g id="edge5" class="edge"><title>dir_94a33b0d2c7d971598d92a73960ed717&#45;&gt;dir_d03bd041034a3e88cd281d61691321a9</title>
<path fill="none" stroke="black" d="M61.2504,-180.073C70.0838,-189.765 82.3338,-200.765 96,-206 119.657,-215.063 129.709,-215.966 153,-206 162.126,-202.095 170.213,-195.125 176.794,-187.868"/>
<polygon fill="black" stroke="black" points="179.622,-189.94 183.32,-180.012 174.238,-185.467 179.622,-189.94"/>
<g id="a_edge5&#45;headlabel"><a xlink:href="dir_000003_000007.html" target="_top" xlink:title="1">
<text text-anchor="middle" x="179.509" y="-192.019" font-family="Helvetica,sans-Serif" font-size="10.00">1</text>
</a>
</g>
</g>
<!-- dir_94a33b0d2c7d971598d92a73960ed717&#45;&gt;dir_41e1742e44e2de38b3bc91f993fed282 -->
<g id="edge6" class="edge"><title>dir_94a33b0d2c7d971598d92a73960ed717&#45;&gt;dir_41e1742e44e2de38b3bc91f993fed282</title>
<path fill="none" stroke="black" d="M69.9888,-143.697C81.8139,-134.796 96.392,-123.823 109.179,-114.199"/>
<polygon fill="black" stroke="black" points="111.391,-116.915 117.276,-108.104 107.181,-111.322 111.391,-116.915"/>
<g id="a_edge6&#45;headlabel"><a xlink:href="dir_000003_000000.html" target="_top" xlink:title="2">
<text text-anchor="middle" x="110.226" y="-118.845" font-family="Helvetica,sans-Serif" font-size="10.00">2</text>
</a>
</g>
</g>
<!-- dir_d03bd041034a3e88cd281d61691321a9&#45;&gt;dir_94a33b0d2c7d971598d92a73960ed717 -->
<g id="edge2" class="edge"><title>dir_d03bd041034a3e88cd281d61691321a9&#45;&gt;dir_94a33b0d2c7d971598d92a73960ed717</title>
<path fill="none" stroke="black" d="M183.32,-180.012C175.927,-189.682 165.427,-200.682 153,-206 129.709,-215.966 119.657,-215.063 96,-206 85.7504,-202.073 76.2973,-194.904 68.4848,-187.477"/>
<polygon fill="black" stroke="black" points="70.7427,-184.779 61.2504,-180.073 65.7362,-189.672 70.7427,-184.779"/>
<g id="a_edge2&#45;headlabel"><a xlink:href="dir_000007_000003.html" target="_top" xlink:title="1">
<text text-anchor="middle" x="75.2857" y="-182.866" font-family="Helvetica,sans-Serif" font-size="10.00">1</text>
</a>
</g>
</g>
<!-- dir_d03bd041034a3e88cd281d61691321a9&#45;&gt;dir_19e1fafdf157c27762559b97f5d6a2d3 -->
<g id="edge1" class="edge"><title>dir_d03bd041034a3e88cd281d61691321a9&#45;&gt;dir_19e1fafdf157c27762559b97f5d6a2d3</title>
<path fill="none" stroke="black" d="M194.625,-143.709C193.497,-124.824 189.509,-94.2962 176,-72 168.792,-60.103 157.934,-49.6492 147.199,-41.2392"/>
<polygon fill="black" stroke="black" points="149.193,-38.3609 139.076,-35.2163 145.024,-43.9839 149.193,-38.3609"/>
<g id="a_edge1&#45;headlabel"><a xlink:href="dir_000007_000004.html" target="_top" xlink:title="26">
<text text-anchor="middle" x="153.772" y="-35.721" font-family="Helvetica,sans-Serif" font-size="10.00">26</text>
</a>
</g>
</g>
<!-- dir_d03bd041034a3e88cd281d61691321a9&#45;&gt;dir_41e1742e44e2de38b3bc91f993fed282 -->
<g id="edge3" class="edge"><title>dir_d03bd041034a3e88cd281d61691321a9&#45;&gt;dir_41e1742e44e2de38b3bc91f993fed282</title>
<path fill="none" stroke="black" d="M175.489,-143.697C168.18,-135.474 160.129,-125.483 153.453,-116.421"/>
<polygon fill="black" stroke="black" points="156.189,-114.229 147.544,-108.104 150.483,-118.283 156.189,-114.229"/>
<g id="a_edge3&#45;headlabel"><a xlink:href="dir_000007_000000.html" target="_top" xlink:title="8">
<text text-anchor="middle" x="160.586" y="-113.014" font-family="Helvetica,sans-Serif" font-size="10.00">8</text>
</a>
</g>
</g>
<!-- dir_41e1742e44e2de38b3bc91f993fed282&#45;&gt;dir_fb7b09e926df3dd6ae65d35d8e762017 -->
<g id="edge9" class="edge"><title>dir_41e1742e44e2de38b3bc91f993fed282&#45;&gt;dir_fb7b09e926df3dd6ae65d35d8e762017</title>
<path fill="none" stroke="black" d="M141.741,-108.104C140.668,-115.876 138.622,-125.257 136.162,-133.949"/>
<polygon fill="black" stroke="black" points="132.758,-133.108 133.118,-143.697 139.44,-135.195 132.758,-133.108"/>
<g id="a_edge9&#45;headlabel"><a xlink:href="dir_000000_000002.html" target="_top" xlink:title="1">
<text text-anchor="middle" x="131.12" y="-126.33" font-family="Helvetica,sans-Serif" font-size="10.00">1</text>
</a>
</g>
</g>
<!-- dir_41e1742e44e2de38b3bc91f993fed282&#45;&gt;dir_19e1fafdf157c27762559b97f5d6a2d3 -->
<g id="edge7" class="edge"><title>dir_41e1742e44e2de38b3bc91f993fed282&#45;&gt;dir_19e1fafdf157c27762559b97f5d6a2d3</title>
<path fill="none" stroke="black" d="M133.079,-71.6966C129.925,-63.8132 126.122,-54.3042 122.619,-45.5464"/>
<polygon fill="black" stroke="black" points="125.805,-44.0892 118.842,-36.1043 119.306,-46.689 125.805,-44.0892"/>
<g id="a_edge7&#45;headlabel"><a xlink:href="dir_000000_000004.html" target="_top" xlink:title="19">
<text text-anchor="middle" x="129.777" y="-43.8723" font-family="Helvetica,sans-Serif" font-size="10.00">19</text>
</a>
</g>
</g>
<!-- dir_41e1742e44e2de38b3bc91f993fed282&#45;&gt;dir_d03bd041034a3e88cd281d61691321a9 -->
<g id="edge8" class="edge"><title>dir_41e1742e44e2de38b3bc91f993fed282&#45;&gt;dir_d03bd041034a3e88cd281d61691321a9</title>
<path fill="none" stroke="black" d="M159.334,-108.104C166.631,-116.298 174.687,-126.282 181.385,-135.359"/>
<polygon fill="black" stroke="black" points="178.669,-137.58 187.32,-143.697 184.372,-133.52 178.669,-137.58"/>
<g id="a_edge8&#45;headlabel"><a xlink:href="dir_000000_000007.html" target="_top" xlink:title="1">
<text text-anchor="middle" x="174.271" y="-133.799" font-family="Helvetica,sans-Serif" font-size="10.00">1</text>
</a>
</g>
</g>
</g>
</svg>
