<?xml version="1.0" encoding="UTF-8" standalone="no"?>
<!DOCTYPE svg PUBLIC "-//W3C//DTD SVG 1.1//EN"
 "http://www.w3.org/Graphics/SVG/1.1/DTD/svg11.dtd">
<!-- Generated by graphviz version 2.38.0 (20140413.2041)
 -->
<!-- Title: Graphical Class Hierarchy Pages: 1 -->
<svg width="271pt" height="142pt"
 viewBox="0.00 0.00 271.00 142.00" xmlns="http://www.w3.org/2000/svg" xmlns:xlink="http://www.w3.org/1999/xlink">
<g id="graph0" class="graph" transform="scale(1 1) rotate(0) translate(4 138)">
<title>Graphical Class Hierarchy</title>
<polygon fill="white" stroke="none" points="-4,4 -4,-138 267,-138 267,4 -4,4"/>
<!-- Node1 -->
<g id="node1" class="node"><title>Node1</title>
<g id="a_node1"><a xlink:href="d5/d5d/class_torc_x_s_d_factory.html" target="_top" xlink:title="TorcXSDFactory">
<polygon fill="white" stroke="black" points="0,-57.5 0,-76.5 90,-76.5 90,-57.5 0,-57.5"/>
<text text-anchor="middle" x="45" y="-64.5" font-family="Helvetica,sans-Serif" font-size="10.00">TorcXSDFactory</text>
</a>
</g>
</g>
<!-- Node2 -->
<g id="node2" class="node"><title>Node2</title>
<g id="a_node2"><a xlink:href="d5/d83/class_torc1_wire_x_s_d_factory.html" target="_top" xlink:title="Torc1WireXSDFactory">
<polygon fill="white" stroke="black" points="136.5,-114.5 136.5,-133.5 252.5,-133.5 252.5,-114.5 136.5,-114.5"/>
<text text-anchor="middle" x="194.5" y="-121.5" font-family="Helvetica,sans-Serif" font-size="10.00">Torc1WireXSDFactory</text>
</a>
</g>
</g>
<!-- Node1&#45;&gt;Node2 -->
<g id="edge1" class="edge"><title>Node1&#45;&gt;Node2</title>
<path fill="none" stroke="midnightblue" d="M73.3838,-81.4218C88.6068,-89.0767 108.05,-98.2656 126,-105 135.347,-108.507 145.631,-111.716 155.294,-114.459"/>
<polygon fill="midnightblue" stroke="midnightblue" points="74.5453,-78.085 64.0475,-76.6542 71.3617,-84.3192 74.5453,-78.085"/>
</g>
<!-- Node3 -->
<g id="node3" class="node"><title>Node3</title>
<g id="a_node3"><a xlink:href="d2/d66/class_torc_i2_c_x_s_d_factory.html" target="_top" xlink:title="TorcI2CXSDFactory">
<polygon fill="white" stroke="black" points="142,-76.5 142,-95.5 247,-95.5 247,-76.5 142,-76.5"/>
<text text-anchor="middle" x="194.5" y="-83.5" font-family="Helvetica,sans-Serif" font-size="10.00">TorcI2CXSDFactory</text>
</a>
</g>
</g>
<!-- Node1&#45;&gt;Node3 -->
<g id="edge2" class="edge"><title>Node1&#45;&gt;Node3</title>
<path fill="none" stroke="midnightblue" d="M100.38,-74.0049C113.902,-75.7467 128.36,-77.609 141.751,-79.3341"/>
<polygon fill="midnightblue" stroke="midnightblue" points="100.62,-70.507 90.2549,-72.7006 99.7257,-77.4496 100.62,-70.507"/>
</g>
<!-- Node4 -->
<g id="node4" class="node"><title>Node4</title>
<g id="a_node4"><a xlink:href="d1/d6b/class_torc_pi_camera_x_s_d_factory.html" target="_top" xlink:title="TorcPiCameraXSDFactory">
<polygon fill="white" stroke="black" points="126,-38.5 126,-57.5 263,-57.5 263,-38.5 126,-38.5"/>
<text text-anchor="middle" x="194.5" y="-45.5" font-family="Helvetica,sans-Serif" font-size="10.00">TorcPiCameraXSDFactory</text>
</a>
</g>
</g>
<!-- Node1&#45;&gt;Node4 -->
<g id="edge3" class="edge"><title>Node1&#45;&gt;Node4</title>
<path fill="none" stroke="midnightblue" d="M100.209,-60.0171C108.542,-58.9438 117.233,-57.8242 125.814,-56.7189"/>
<polygon fill="midnightblue" stroke="midnightblue" points="99.7257,-56.5504 90.2549,-61.2994 100.62,-63.493 99.7257,-56.5504"/>
</g>
<!-- Node5 -->
<g id="node5" class="node"><title>Node5</title>
<g id="a_node5"><a xlink:href="d9/df2/class_torc_pi_g_p_i_o_x_s_d_factory.html" target="_top" xlink:title="TorcPiGPIOXSDFactory">
<polygon fill="white" stroke="black" points="134,-0.5 134,-19.5 255,-19.5 255,-0.5 134,-0.5"/>
<text text-anchor="middle" x="194.5" y="-7.5" font-family="Helvetica,sans-Serif" font-size="10.00">TorcPiGPIOXSDFactory</text>
</a>
</g>
</g>
<!-- Node1&#45;&gt;Node5 -->
<g id="edge4" class="edge"><title>Node1&#45;&gt;Node5</title>
<path fill="none" stroke="midnightblue" d="M73.3838,-52.5782C88.6068,-44.9233 108.05,-35.7344 126,-29 135.347,-25.4935 145.631,-22.2839 155.294,-19.5408"/>
<polygon fill="midnightblue" stroke="midnightblue" points="71.3617,-49.6808 64.0475,-57.3458 74.5453,-55.915 71.3617,-49.6808"/>
</g>
</g>
</svg>
