<?xml version="1.0" encoding="UTF-8" standalone="no"?>
<!DOCTYPE svg PUBLIC "-//W3C//DTD SVG 1.1//EN"
 "http://www.w3.org/Graphics/SVG/1.1/DTD/svg11.dtd">
<!-- Generated by graphviz version 2.38.0 (20140413.2041)
 -->
<!-- Title: torcnetworkphoutput.h Pages: 1 -->
<svg width="256pt" height="84pt"
 viewBox="0.00 0.00 255.50 84.00" xmlns="http://www.w3.org/2000/svg" xmlns:xlink="http://www.w3.org/1999/xlink">
<g id="graph0" class="graph" transform="scale(1 1) rotate(0) translate(4 80)">
<title>torcnetworkphoutput.h</title>
<polygon fill="white" stroke="none" points="-4,4 -4,-80 251.5,-80 251.5,4 -4,4"/>
<!-- Node1 -->
<g id="node1" class="node"><title>Node1</title>
<polygon fill="#bfbfbf" stroke="black" points="72,-56.5 72,-75.5 197,-75.5 197,-56.5 72,-56.5"/>
<text text-anchor="middle" x="134.5" y="-63.5" font-family="Helvetica,sans-Serif" font-size="10.00">torcnetworkphoutput.h</text>
</g>
<!-- Node2 -->
<g id="node2" class="node"><title>Node2</title>
<g id="a_node2"><a xlink:href="../../d7/d84/torcnetworkphoutput_8cpp.html" target="_top" xlink:title="torcnetworkphoutput.cpp">
<polygon fill="white" stroke="black" points="0,-0.5 0,-19.5 137,-19.5 137,-0.5 0,-0.5"/>
<text text-anchor="middle" x="68.5" y="-7.5" font-family="Helvetica,sans-Serif" font-size="10.00">torcnetworkphoutput.cpp</text>
</a>
</g>
</g>
<!-- Node1&#45;&gt;Node2 -->
<g id="edge1" class="edge"><title>Node1&#45;&gt;Node2</title>
<path fill="none" stroke="midnightblue" d="M115.946,-49.8197C104.122,-40.1452 89.2144,-27.9481 79.297,-19.8339"/>
<polygon fill="midnightblue" stroke="midnightblue" points="113.94,-52.7004 123.896,-56.324 118.373,-47.2827 113.94,-52.7004"/>
</g>
<!-- Node3 -->
<g id="node3" class="node"><title>Node3</title>
<g id="a_node3"><a xlink:href="../../d5/da7/torcoutputs_8cpp.html" target="_top" xlink:title="torcoutputs.cpp">
<polygon fill="white" stroke="black" points="155.5,-0.5 155.5,-19.5 247.5,-19.5 247.5,-0.5 155.5,-0.5"/>
<text text-anchor="middle" x="201.5" y="-7.5" font-family="Helvetica,sans-Serif" font-size="10.00">torcoutputs.cpp</text>
</a>
</g>
</g>
<!-- Node1&#45;&gt;Node3 -->
<g id="edge2" class="edge"><title>Node1&#45;&gt;Node3</title>
<path fill="none" stroke="midnightblue" d="M153.335,-49.8197C165.338,-40.1452 180.472,-27.9481 190.539,-19.8339"/>
<polygon fill="midnightblue" stroke="midnightblue" points="150.854,-47.3236 145.265,-56.324 155.247,-52.7738 150.854,-47.3236"/>
</g>
</g>
</svg>
