<?xml version="1.0" encoding="UTF-8" standalone="no"?>
<!DOCTYPE svg PUBLIC "-//W3C//DTD SVG 1.1//EN"
 "http://www.w3.org/Graphics/SVG/1.1/DTD/svg11.dtd">
<!-- Generated by graphviz version 2.38.0 (20140413.2041)
 -->
<!-- Title: torcloggingimp.cpp Pages: 1 -->
<!--zoomable 364 -->
<svg id="main" version="1.1" xmlns="http://www.w3.org/2000/svg" xmlns:xlink="http://www.w3.org/1999/xlink" xml:space="preserve" onload="init(evt)">
<style type="text/css"><![CDATA[
.edge:hover path { stroke: red; }
.edge:hover polygon { stroke: red; fill: red; }
]]></style>
<script type="text/javascript"><![CDATA[
var edges = document.getElementsByTagName('g');
if (edges && edges.length) {
  for (var i=0;i<edges.length;i++) {
    if (edges[i].id.substr(0,4)=='edge') {
      edges[i].setAttribute('class','edge');
    }
  }
}
]]></script>
        <defs>
                <circle id="rim" cx="0" cy="0" r="7"/>
                <circle id="rim2" cx="0" cy="0" r="3.5"/>
                <g id="zoomPlus">
                        <use xlink:href="#rim" fill="#404040">
                                <set attributeName="fill" to="#808080" begin="zoomplus.mouseover" end="zoomplus.mouseout"/>
                        </use>
                        <path d="M-4,0h8M0,-4v8" fill="none" stroke="white" stroke-width="1.5" pointer-events="none"/>
                </g>
                <g id="zoomMin">
                        <use xlink:href="#rim" fill="#404040">
                                <set attributeName="fill" to="#808080" begin="zoomminus.mouseover" end="zoomminus.mouseout"/>
                        </use>
                        <path d="M-4,0h8" fill="none" stroke="white" stroke-width="1.5" pointer-events="none"/>
                </g>
                <g id="dirArrow">
                        <path fill="none" stroke="white" stroke-width="1.5" d="M0,-3.0v7 M-2.5,-0.5L0,-3.0L2.5,-0.5"/>
                </g>
               <g id="resetDef">
                       <use xlink:href="#rim2" fill="#404040">
                               <set attributeName="fill" to="#808080" begin="reset.mouseover" end="reset.mouseout"/>
                       </use>
               </g>
        </defs>

<script type="text/javascript">
var viewWidth = 1723;
var viewHeight = 364;
var sectionId = 'dynsection-0';
</script>
<script xlink:href="../../svgpan.js"/>
<svg id="graph" class="graph">
<g id="viewport">
<title>torcloggingimp.cpp</title>
<polygon fill="white" stroke="none" points="-4,4 -4,-360 1719,-360 1719,4 -4,4"/>
<!-- Node1 -->
<g id="node1" class="node"><title>Node1</title>
<polygon fill="#bfbfbf" stroke="black" points="844.5,-336.5 844.5,-355.5 952.5,-355.5 952.5,-336.5 844.5,-336.5"/>
<text text-anchor="middle" x="898.5" y="-343.5" font-family="Helvetica,sans-Serif" font-size="10.00">torcloggingimp.cpp</text>
</g>
<!-- Node2 -->
<g id="node2" class="node"><title>Node2</title>
<polygon fill="white" stroke="#bfbfbf" points="211,-280.5 211,-299.5 262,-299.5 262,-280.5 211,-280.5"/>
<text text-anchor="middle" x="236.5" y="-287.5" font-family="Helvetica,sans-Serif" font-size="10.00">stdlib.h</text>
</g>
<!-- Node1&#45;&gt;Node2 -->
<g id="edge1" class="edge"><title>Node1&#45;&gt;Node2</title>
<path fill="none" stroke="midnightblue" d="M844.124,-343.789C735.636,-340.772 484.818,-330.796 276.5,-300 275.048,-299.785 273.57,-299.547 272.08,-299.29"/>
<polygon fill="midnightblue" stroke="midnightblue" points="272.698,-295.844 262.215,-297.378 271.367,-302.717 272.698,-295.844"/>
</g>
<!-- Node3 -->
<g id="node3" class="node"><title>Node3</title>
<polygon fill="white" stroke="#bfbfbf" points="0,-224.5 0,-243.5 63,-243.5 63,-224.5 0,-224.5"/>
<text text-anchor="middle" x="31.5" y="-231.5" font-family="Helvetica,sans-Serif" font-size="10.00">sys/stat.h</text>
</g>
<!-- Node1&#45;&gt;Node3 -->
<g id="edge2" class="edge"><title>Node1&#45;&gt;Node3</title>
<path fill="none" stroke="midnightblue" d="M844.137,-344.018C717.16,-341.219 404.299,-331.273 304.5,-300 287.771,-294.758 286.936,-286.1 270.5,-280 189.198,-249.829 161.531,-261 73.248,-244.241"/>
<polygon fill="midnightblue" stroke="midnightblue" points="73.8382,-240.79 63.3507,-242.294 72.4873,-247.658 73.8382,-240.79"/>
</g>
<!-- Node4 -->
<g id="node4" class="node"><title>Node4</title>
<polygon fill="white" stroke="#bfbfbf" points="478.5,-280.5 478.5,-299.5 524.5,-299.5 524.5,-280.5 478.5,-280.5"/>
<text text-anchor="middle" x="501.5" y="-287.5" font-family="Helvetica,sans-Serif" font-size="10.00">fcntl.h</text>
</g>
<!-- Node1&#45;&gt;Node4 -->
<g id="edge3" class="edge"><title>Node1&#45;&gt;Node4</title>
<path fill="none" stroke="midnightblue" d="M844.285,-340.899C774.668,-335.062 650.04,-322.689 534.864,-300.009"/>
<polygon fill="midnightblue" stroke="midnightblue" points="535.312,-296.529 524.819,-297.999 533.938,-303.393 535.312,-296.529"/>
</g>
<!-- Node5 -->
<g id="node5" class="node"><title>Node5</title>
<polygon fill="white" stroke="#bfbfbf" points="81,-224.5 81,-243.5 130,-243.5 130,-224.5 81,-224.5"/>
<text text-anchor="middle" x="105.5" y="-231.5" font-family="Helvetica,sans-Serif" font-size="10.00">stdio.h</text>
</g>
<!-- Node1&#45;&gt;Node5 -->
<g id="edge4" class="edge"><title>Node1&#45;&gt;Node5</title>
<path fill="none" stroke="midnightblue" d="M844.257,-343.003C724.4,-338.197 440.291,-324.528 347.5,-300 327.123,-294.614 324.473,-286.732 304.5,-280 236.29,-257.01 214.264,-261.2 140.153,-244.036"/>
<polygon fill="midnightblue" stroke="midnightblue" points="140.888,-240.613 130.35,-241.713 139.274,-247.425 140.888,-240.613"/>
</g>
<!-- Node6 -->
<g id="node6" class="node"><title>Node6</title>
<polygon fill="white" stroke="#bfbfbf" points="543,-280.5 543,-299.5 602,-299.5 602,-280.5 543,-280.5"/>
<text text-anchor="middle" x="572.5" y="-287.5" font-family="Helvetica,sans-Serif" font-size="10.00">iostream</text>
</g>
<!-- Node1&#45;&gt;Node6 -->
<g id="edge5" class="edge"><title>Node1&#45;&gt;Node6</title>
<path fill="none" stroke="midnightblue" d="M844.346,-337.683C788.642,-329.893 699.159,-316.649 612.294,-300.034"/>
<polygon fill="midnightblue" stroke="midnightblue" points="612.746,-296.557 602.264,-298.099 611.419,-303.43 612.746,-296.557"/>
</g>
<!-- Node7 -->
<g id="node7" class="node"><title>Node7</title>
<polygon fill="white" stroke="#bfbfbf" points="620.5,-280.5 620.5,-299.5 678.5,-299.5 678.5,-280.5 620.5,-280.5"/>
<text text-anchor="middle" x="649.5" y="-287.5" font-family="Helvetica,sans-Serif" font-size="10.00">QtGlobal</text>
</g>
<!-- Node1&#45;&gt;Node7 -->
<g id="edge6" class="edge"><title>Node1&#45;&gt;Node7</title>
<path fill="none" stroke="midnightblue" d="M859.045,-336.444C812.384,-326.324 735.194,-309.584 688.661,-299.493"/>
<polygon fill="midnightblue" stroke="midnightblue" points="689.171,-296.022 678.656,-297.323 687.687,-302.863 689.171,-296.022"/>
</g>
<!-- Node8 -->
<g id="node8" class="node"><title>Node8</title>
<polygon fill="white" stroke="#bfbfbf" points="1366,-168.5 1366,-187.5 1419,-187.5 1419,-168.5 1366,-168.5"/>
<text text-anchor="middle" x="1392.5" y="-175.5" font-family="Helvetica,sans-Serif" font-size="10.00">QMutex</text>
</g>
<!-- Node1&#45;&gt;Node8 -->
<g id="edge7" class="edge"><title>Node1&#45;&gt;Node8</title>
<path fill="none" stroke="midnightblue" d="M898.304,-336.32C898.496,-322.218 901.091,-294.455 917.5,-280 993.82,-212.766 1043.95,-264.87 1143.5,-244 1219.84,-227.995 1307.86,-203.59 1356.13,-189.685"/>
<polygon fill="midnightblue" stroke="midnightblue" points="1357.17,-193.027 1365.8,-186.885 1355.23,-186.303 1357.17,-193.027"/>
</g>
<!-- Node9 -->
<g id="node9" class="node"><title>Node9</title>
<polygon fill="white" stroke="#bfbfbf" points="927,-280.5 927,-299.5 968,-299.5 968,-280.5 927,-280.5"/>
<text text-anchor="middle" x="947.5" y="-287.5" font-family="Helvetica,sans-Serif" font-size="10.00">QList</text>
</g>
<!-- Node1&#45;&gt;Node9 -->
<g id="edge8" class="edge"><title>Node1&#45;&gt;Node9</title>
<path fill="none" stroke="midnightblue" d="M906.591,-336.083C913.655,-328.298 924.088,-316.801 932.649,-307.367"/>
<polygon fill="midnightblue" stroke="midnightblue" points="935.431,-309.509 939.559,-299.751 930.247,-304.805 935.431,-309.509"/>
</g>
<!-- Node10 -->
<g id="node10" class="node"><title>Node10</title>
<polygon fill="white" stroke="#bfbfbf" points="986,-280.5 986,-299.5 1033,-299.5 1033,-280.5 986,-280.5"/>
<text text-anchor="middle" x="1009.5" y="-287.5" font-family="Helvetica,sans-Serif" font-size="10.00">QTime</text>
</g>
<!-- Node1&#45;&gt;Node10 -->
<g id="edge9" class="edge"><title>Node1&#45;&gt;Node10</title>
<path fill="none" stroke="midnightblue" d="M916.334,-336.324C934.216,-327.625 961.975,-314.12 982.546,-304.113"/>
<polygon fill="midnightblue" stroke="midnightblue" points="984.249,-307.177 991.71,-299.655 981.187,-300.882 984.249,-307.177"/>
</g>
<!-- Node11 -->
<g id="node11" class="node"><title>Node11</title>
<polygon fill="white" stroke="#bfbfbf" points="1051,-280.5 1051,-299.5 1110,-299.5 1110,-280.5 1051,-280.5"/>
<text text-anchor="middle" x="1080.5" y="-287.5" font-family="Helvetica,sans-Serif" font-size="10.00">QRegExp</text>
</g>
<!-- Node1&#45;&gt;Node11 -->
<g id="edge10" class="edge"><title>Node1&#45;&gt;Node11</title>
<path fill="none" stroke="midnightblue" d="M927.338,-336.444C958.356,-327.241 1007.83,-312.562 1042.12,-302.388"/>
<polygon fill="midnightblue" stroke="midnightblue" points="1043.21,-305.716 1051.8,-299.516 1041.21,-299.006 1043.21,-305.716"/>
</g>
<!-- Node12 -->
<g id="node12" class="node"><title>Node12</title>
<polygon fill="white" stroke="#bfbfbf" points="1128,-280.5 1128,-299.5 1177,-299.5 1177,-280.5 1128,-280.5"/>
<text text-anchor="middle" x="1152.5" y="-287.5" font-family="Helvetica,sans-Serif" font-size="10.00">QHash</text>
</g>
<!-- Node1&#45;&gt;Node12 -->
<g id="edge11" class="edge"><title>Node1&#45;&gt;Node12</title>
<path fill="none" stroke="midnightblue" d="M944.171,-336.446C986.604,-328.322 1051.78,-315.398 1117.53,-300.121"/>
<polygon fill="midnightblue" stroke="midnightblue" points="1118.72,-303.438 1127.66,-297.751 1117.12,-296.622 1118.72,-303.438"/>
</g>
<!-- Node13 -->
<g id="node13" class="node"><title>Node13</title>
<polygon fill="white" stroke="#bfbfbf" points="787.5,-56.5 787.5,-75.5 831.5,-75.5 831.5,-56.5 787.5,-56.5"/>
<text text-anchor="middle" x="809.5" y="-63.5" font-family="Helvetica,sans-Serif" font-size="10.00">QMap</text>
</g>
<!-- Node1&#45;&gt;Node13 -->
<g id="edge12" class="edge"><title>Node1&#45;&gt;Node13</title>
<path fill="none" stroke="midnightblue" d="M844.454,-338.973C816.831,-333.219 784.668,-321.974 763.5,-300 742.619,-278.324 744.5,-265.098 744.5,-235 744.5,-235 744.5,-235 744.5,-177 744.5,-139.178 773.335,-102.94 792.594,-82.9551"/>
<polygon fill="midnightblue" stroke="midnightblue" points="795.301,-85.1988 799.909,-75.6585 790.357,-80.2429 795.301,-85.1988"/>
</g>
<!-- Node14 -->
<g id="node14" class="node"><title>Node14</title>
<polygon fill="white" stroke="#bfbfbf" points="766,-0.5 766,-19.5 837,-19.5 837,-0.5 766,-0.5"/>
<text text-anchor="middle" x="801.5" y="-7.5" font-family="Helvetica,sans-Serif" font-size="10.00">QByteArray</text>
</g>
<!-- Node1&#45;&gt;Node14 -->
<g id="edge13" class="edge"><title>Node1&#45;&gt;Node14</title>
<path fill="none" stroke="midnightblue" d="M844.25,-337.469C787.474,-326.173 706.5,-298.867 706.5,-235 706.5,-235 706.5,-235 706.5,-121 706.5,-77.7385 749.108,-43.0862 777.255,-24.9149"/>
<polygon fill="midnightblue" stroke="midnightblue" points="779.161,-27.851 785.813,-19.6042 775.47,-21.9032 779.161,-27.851"/>
</g>
<!-- Node15 -->
<g id="node15" class="node"><title>Node15</title>
<polygon fill="white" stroke="#bfbfbf" points="1195.5,-280.5 1195.5,-299.5 1251.5,-299.5 1251.5,-280.5 1195.5,-280.5"/>
<text text-anchor="middle" x="1223.5" y="-287.5" font-family="Helvetica,sans-Serif" font-size="10.00">QFileInfo</text>
</g>
<!-- Node1&#45;&gt;Node15 -->
<g id="edge14" class="edge"><title>Node1&#45;&gt;Node15</title>
<path fill="none" stroke="midnightblue" d="M952.672,-337.775C1010.54,-329.761 1104.83,-315.852 1185.5,-300 1185.6,-299.98 1185.7,-299.961 1185.8,-299.941"/>
<polygon fill="midnightblue" stroke="midnightblue" points="1186.27,-303.419 1195.33,-297.927 1184.82,-296.57 1186.27,-303.419"/>
</g>
<!-- Node16 -->
<g id="node16" class="node"><title>Node16</title>
<polygon fill="white" stroke="#bfbfbf" points="1270,-280.5 1270,-299.5 1339,-299.5 1339,-280.5 1270,-280.5"/>
<text text-anchor="middle" x="1304.5" y="-287.5" font-family="Helvetica,sans-Serif" font-size="10.00">QStringList</text>
</g>
<!-- Node1&#45;&gt;Node16 -->
<g id="edge15" class="edge"><title>Node1&#45;&gt;Node16</title>
<path fill="none" stroke="midnightblue" d="M952.66,-339.602C1021.59,-332.434 1144.55,-318.66 1259.9,-299.977"/>
<polygon fill="midnightblue" stroke="midnightblue" points="1260.66,-303.399 1269.96,-298.33 1259.53,-296.49 1260.66,-303.399"/>
</g>
<!-- Node17 -->
<g id="node17" class="node"><title>Node17</title>
<polygon fill="white" stroke="#bfbfbf" points="1357.5,-280.5 1357.5,-299.5 1413.5,-299.5 1413.5,-280.5 1357.5,-280.5"/>
<text text-anchor="middle" x="1385.5" y="-287.5" font-family="Helvetica,sans-Serif" font-size="10.00">QQueue</text>
</g>
<!-- Node1&#45;&gt;Node17 -->
<g id="edge16" class="edge"><title>Node1&#45;&gt;Node17</title>
<path fill="none" stroke="midnightblue" d="M952.717,-341.896C1037.42,-336.524 1206.11,-323.721 1347.5,-300 1347.6,-299.983 1347.7,-299.966 1347.8,-299.949"/>
<polygon fill="midnightblue" stroke="midnightblue" points="1348.21,-303.435 1357.36,-298.103 1346.88,-296.562 1348.21,-303.435"/>
</g>
<!-- Node18 -->
<g id="node18" class="node"><title>Node18</title>
<g id="a_node18"><a xlink:href="../../d4/dbd/torcexitcodes_8h.html" target="_top" xlink:title="torcexitcodes.h">
<polygon fill="white" stroke="black" points="1431.5,-280.5 1431.5,-299.5 1521.5,-299.5 1521.5,-280.5 1431.5,-280.5"/>
<text text-anchor="middle" x="1476.5" y="-287.5" font-family="Helvetica,sans-Serif" font-size="10.00">torcexitcodes.h</text>
</a>
</g>
</g>
<!-- Node1&#45;&gt;Node18 -->
<g id="edge17" class="edge"><title>Node1&#45;&gt;Node18</title>
<path fill="none" stroke="midnightblue" d="M952.584,-341.778C1046.04,-335.9 1243.99,-322.082 1421.42,-300.041"/>
<polygon fill="midnightblue" stroke="midnightblue" points="1421.97,-303.499 1431.46,-298.782 1421.1,-296.553 1421.97,-303.499"/>
</g>
<!-- Node19 -->
<g id="node19" class="node"><title>Node19</title>
<g id="a_node19"><a xlink:href="../../d3/d76/torccompat_8h.html" target="_top" xlink:title="torccompat.h">
<polygon fill="white" stroke="black" points="357,-280.5 357,-299.5 438,-299.5 438,-280.5 357,-280.5"/>
<text text-anchor="middle" x="397.5" y="-287.5" font-family="Helvetica,sans-Serif" font-size="10.00">torccompat.h</text>
</a>
</g>
</g>
<!-- Node1&#45;&gt;Node19 -->
<g id="edge18" class="edge"><title>Node1&#45;&gt;Node19</title>
<path fill="none" stroke="midnightblue" d="M844.285,-339.661C762.857,-331.564 604.16,-315.477 469.5,-300 462.689,-299.217 455.52,-298.36 448.453,-297.497"/>
<polygon fill="midnightblue" stroke="midnightblue" points="448.579,-293.986 438.226,-296.234 447.722,-300.933 448.579,-293.986"/>
</g>
<!-- Node26 -->
<g id="node26" class="node"><title>Node26</title>
<g id="a_node26"><a xlink:href="../../d4/df9/torclogging_8h.html" target="_top" xlink:title="torclogging.h">
<polygon fill="white" stroke="black" points="1540,-280.5 1540,-299.5 1619,-299.5 1619,-280.5 1540,-280.5"/>
<text text-anchor="middle" x="1579.5" y="-287.5" font-family="Helvetica,sans-Serif" font-size="10.00">torclogging.h</text>
</a>
</g>
</g>
<!-- Node1&#45;&gt;Node26 -->
<g id="edge27" class="edge"><title>Node1&#45;&gt;Node26</title>
<path fill="none" stroke="midnightblue" d="M952.805,-343.157C1060.74,-339.056 1310.01,-327.394 1529.86,-299.924"/>
<polygon fill="midnightblue" stroke="midnightblue" points="1530.5,-303.372 1539.98,-298.647 1529.62,-296.428 1530.5,-303.372"/>
</g>
<!-- Node29 -->
<g id="node29" class="node"><title>Node29</title>
<g id="a_node29"><a xlink:href="../../d1/d37/torcloggingdefs_8h.html" target="_top" xlink:title="torcloggingdefs.h">
<polygon fill="white" stroke="black" points="1616,-224.5 1616,-243.5 1715,-243.5 1715,-224.5 1616,-224.5"/>
<text text-anchor="middle" x="1665.5" y="-231.5" font-family="Helvetica,sans-Serif" font-size="10.00">torcloggingdefs.h</text>
</a>
</g>
</g>
<!-- Node1&#45;&gt;Node29 -->
<g id="edge54" class="edge"><title>Node1&#45;&gt;Node29</title>
<path fill="none" stroke="midnightblue" d="M952.594,-344.57C1111.69,-342.905 1570.5,-335.08 1627.5,-300 1644.34,-289.635 1654.55,-268.821 1660.08,-253.528"/>
<polygon fill="midnightblue" stroke="midnightblue" points="1663.55,-254.188 1663.31,-243.596 1656.89,-252.023 1663.55,-254.188"/>
</g>
<!-- Node30 -->
<g id="node30" class="node"><title>Node30</title>
<g id="a_node30"><a xlink:href="../../d3/d0a/torcloggingimp_8h.html" target="_top" xlink:title="torcloggingimp.h">
<polygon fill="white" stroke="black" points="773,-280.5 773,-299.5 870,-299.5 870,-280.5 773,-280.5"/>
<text text-anchor="middle" x="821.5" y="-287.5" font-family="Helvetica,sans-Serif" font-size="10.00">torcloggingimp.h</text>
</a>
</g>
</g>
<!-- Node1&#45;&gt;Node30 -->
<g id="edge31" class="edge"><title>Node1&#45;&gt;Node30</title>
<path fill="none" stroke="midnightblue" d="M886.129,-336.324C874.342,-328.058 856.368,-315.453 842.364,-305.632"/>
<polygon fill="midnightblue" stroke="midnightblue" points="844.038,-302.531 833.841,-299.655 840.018,-308.262 844.038,-302.531"/>
</g>
<!-- Node19&#45;&gt;Node3 -->
<g id="edge24" class="edge"><title>Node19&#45;&gt;Node3</title>
<path fill="none" stroke="midnightblue" d="M356.922,-284.511C296.961,-277.636 180.974,-263.409 73.378,-244.226"/>
<polygon fill="midnightblue" stroke="midnightblue" points="73.7897,-240.744 63.3275,-242.415 72.5483,-247.633 73.7897,-240.744"/>
</g>
<!-- Node19&#45;&gt;Node5 -->
<g id="edge26" class="edge"><title>Node19&#45;&gt;Node5</title>
<path fill="none" stroke="midnightblue" d="M356.947,-282.365C299.004,-272.815 194.404,-255.3 140.416,-244.006"/>
<polygon fill="midnightblue" stroke="midnightblue" points="140.835,-240.516 130.322,-241.835 139.362,-247.36 140.835,-240.516"/>
</g>
<!-- Node20 -->
<g id="node20" class="node"><title>Node20</title>
<polygon fill="white" stroke="#bfbfbf" points="148.5,-224.5 148.5,-243.5 214.5,-243.5 214.5,-224.5 148.5,-224.5"/>
<text text-anchor="middle" x="181.5" y="-231.5" font-family="Helvetica,sans-Serif" font-size="10.00">sys/time.h</text>
</g>
<!-- Node19&#45;&gt;Node20 -->
<g id="edge19" class="edge"><title>Node19&#45;&gt;Node20</title>
<path fill="none" stroke="midnightblue" d="M363.274,-280.444C325.659,-271.04 265.175,-255.919 224.415,-245.729"/>
<polygon fill="midnightblue" stroke="midnightblue" points="225.054,-242.281 214.503,-243.251 223.356,-249.072 225.054,-242.281"/>
</g>
<!-- Node21 -->
<g id="node21" class="node"><title>Node21</title>
<polygon fill="white" stroke="#bfbfbf" points="232.5,-224.5 232.5,-243.5 318.5,-243.5 318.5,-224.5 232.5,-224.5"/>
<text text-anchor="middle" x="275.5" y="-231.5" font-family="Helvetica,sans-Serif" font-size="10.00">sys/resource.h</text>
</g>
<!-- Node19&#45;&gt;Node21 -->
<g id="edge20" class="edge"><title>Node19&#45;&gt;Node21</title>
<path fill="none" stroke="midnightblue" d="M378.169,-280.444C358.18,-271.596 326.757,-257.687 303.936,-247.586"/>
<polygon fill="midnightblue" stroke="midnightblue" points="305.302,-244.363 294.741,-243.516 302.468,-250.764 305.302,-244.363"/>
</g>
<!-- Node22 -->
<g id="node22" class="node"><title>Node22</title>
<polygon fill="white" stroke="#bfbfbf" points="336.5,-224.5 336.5,-243.5 412.5,-243.5 412.5,-224.5 336.5,-224.5"/>
<text text-anchor="middle" x="374.5" y="-231.5" font-family="Helvetica,sans-Serif" font-size="10.00">sys/socket.h</text>
</g>
<!-- Node19&#45;&gt;Node22 -->
<g id="edge21" class="edge"><title>Node19&#45;&gt;Node22</title>
<path fill="none" stroke="midnightblue" d="M393.702,-280.083C390.587,-272.77 386.077,-262.181 382.211,-253.103"/>
<polygon fill="midnightblue" stroke="midnightblue" points="385.366,-251.58 378.227,-243.751 378.926,-254.323 385.366,-251.58"/>
</g>
<!-- Node23 -->
<g id="node23" class="node"><title>Node23</title>
<polygon fill="white" stroke="#bfbfbf" points="431,-224.5 431,-243.5 494,-243.5 494,-224.5 431,-224.5"/>
<text text-anchor="middle" x="462.5" y="-231.5" font-family="Helvetica,sans-Serif" font-size="10.00">sys/wait.h</text>
</g>
<!-- Node19&#45;&gt;Node23 -->
<g id="edge22" class="edge"><title>Node19&#45;&gt;Node23</title>
<path fill="none" stroke="midnightblue" d="M407.943,-280.324C417.646,-272.263 432.315,-260.077 444,-250.369"/>
<polygon fill="midnightblue" stroke="midnightblue" points="446.411,-252.916 451.867,-243.834 441.938,-247.532 446.411,-252.916"/>
</g>
<!-- Node24 -->
<g id="node24" class="node"><title>Node24</title>
<polygon fill="white" stroke="#bfbfbf" points="512.5,-224.5 512.5,-243.5 588.5,-243.5 588.5,-224.5 512.5,-224.5"/>
<text text-anchor="middle" x="550.5" y="-231.5" font-family="Helvetica,sans-Serif" font-size="10.00">sys/param.h</text>
</g>
<!-- Node19&#45;&gt;Node24 -->
<g id="edge23" class="edge"><title>Node19&#45;&gt;Node24</title>
<path fill="none" stroke="midnightblue" d="M421.743,-280.444C447.371,-271.399 487.985,-257.064 516.738,-246.916"/>
<polygon fill="midnightblue" stroke="midnightblue" points="518.105,-250.145 526.37,-243.516 515.775,-243.544 518.105,-250.145"/>
</g>
<!-- Node25 -->
<g id="node25" class="node"><title>Node25</title>
<polygon fill="white" stroke="#bfbfbf" points="607,-224.5 607,-243.5 678,-243.5 678,-224.5 607,-224.5"/>
<text text-anchor="middle" x="642.5" y="-231.5" font-family="Helvetica,sans-Serif" font-size="10.00">sys/types.h</text>
</g>
<!-- Node19&#45;&gt;Node25 -->
<g id="edge25" class="edge"><title>Node19&#45;&gt;Node25</title>
<path fill="none" stroke="midnightblue" d="M436.321,-280.444C479.849,-270.85 550.378,-255.304 596.602,-245.116"/>
<polygon fill="midnightblue" stroke="midnightblue" points="597.638,-248.472 606.65,-242.902 596.131,-241.636 597.638,-248.472"/>
</g>
<!-- Node27 -->
<g id="node27" class="node"><title>Node27</title>
<polygon fill="white" stroke="#bfbfbf" points="1476,-224.5 1476,-243.5 1529,-243.5 1529,-224.5 1476,-224.5"/>
<text text-anchor="middle" x="1502.5" y="-231.5" font-family="Helvetica,sans-Serif" font-size="10.00">stdint.h</text>
</g>
<!-- Node26&#45;&gt;Node27 -->
<g id="edge28" class="edge"><title>Node26&#45;&gt;Node27</title>
<path fill="none" stroke="midnightblue" d="M1567.13,-280.324C1555.34,-272.058 1537.37,-259.453 1523.36,-249.632"/>
<polygon fill="midnightblue" stroke="midnightblue" points="1525.04,-246.531 1514.84,-243.655 1521.02,-252.262 1525.04,-246.531"/>
</g>
<!-- Node28 -->
<g id="node28" class="node"><title>Node28</title>
<polygon fill="white" stroke="#bfbfbf" points="1547,-224.5 1547,-243.5 1598,-243.5 1598,-224.5 1547,-224.5"/>
<text text-anchor="middle" x="1572.5" y="-231.5" font-family="Helvetica,sans-Serif" font-size="10.00">errno.h</text>
</g>
<!-- Node26&#45;&gt;Node28 -->
<g id="edge29" class="edge"><title>Node26&#45;&gt;Node28</title>
<path fill="none" stroke="midnightblue" d="M1578.34,-280.083C1577.42,-272.927 1576.08,-262.635 1574.92,-253.691"/>
<polygon fill="midnightblue" stroke="midnightblue" points="1578.39,-253.218 1573.63,-243.751 1571.45,-254.118 1578.39,-253.218"/>
</g>
<!-- Node26&#45;&gt;Node29 -->
<g id="edge30" class="edge"><title>Node26&#45;&gt;Node29</title>
<path fill="none" stroke="midnightblue" d="M1593.32,-280.324C1606.73,-271.9 1627.32,-258.971 1643.09,-249.074"/>
<polygon fill="midnightblue" stroke="midnightblue" points="1645.11,-251.936 1651.72,-243.655 1641.39,-246.008 1645.11,-251.936"/>
</g>
<!-- Node31 -->
<g id="node31" class="node"><title>Node31</title>
<polygon fill="white" stroke="#bfbfbf" points="989,-224.5 989,-243.5 1028,-243.5 1028,-224.5 989,-224.5"/>
<text text-anchor="middle" x="1008.5" y="-231.5" font-family="Helvetica,sans-Serif" font-size="10.00">QFile</text>
</g>
<!-- Node30&#45;&gt;Node31 -->
<g id="edge32" class="edge"><title>Node30&#45;&gt;Node31</title>
<path fill="none" stroke="midnightblue" d="M852.443,-280.418C882.41,-272.057 929.365,-258.821 979.197,-244.039"/>
<polygon fill="midnightblue" stroke="midnightblue" points="980.277,-247.369 988.864,-241.162 978.281,-240.66 980.277,-247.369"/>
</g>
<!-- Node32 -->
<g id="node32" class="node"><title>Node32</title>
<polygon fill="white" stroke="#bfbfbf" points="1046,-224.5 1046,-243.5 1135,-243.5 1135,-224.5 1046,-224.5"/>
<text text-anchor="middle" x="1090.5" y="-231.5" font-family="Helvetica,sans-Serif" font-size="10.00">QWaitCondition</text>
</g>
<!-- Node30&#45;&gt;Node32 -->
<g id="edge33" class="edge"><title>Node30&#45;&gt;Node32</title>
<path fill="none" stroke="midnightblue" d="M864.124,-280.444C911.247,-270.984 987.192,-255.738 1037.96,-245.547"/>
<polygon fill="midnightblue" stroke="midnightblue" points="1038.96,-248.916 1048.08,-243.516 1037.58,-242.053 1038.96,-248.916"/>
</g>
<!-- Node33 -->
<g id="node33" class="node"><title>Node33</title>
<g id="a_node33"><a xlink:href="../../dd/db0/torcqthread_8h.html" target="_top" xlink:title="torcqthread.h">
<polygon fill="white" stroke="black" points="772.5,-224.5 772.5,-243.5 854.5,-243.5 854.5,-224.5 772.5,-224.5"/>
<text text-anchor="middle" x="813.5" y="-231.5" font-family="Helvetica,sans-Serif" font-size="10.00">torcqthread.h</text>
</a>
</g>
</g>
<!-- Node30&#45;&gt;Node33 -->
<g id="edge34" class="edge"><title>Node30&#45;&gt;Node33</title>
<path fill="none" stroke="midnightblue" d="M820.179,-280.083C819.119,-272.927 817.594,-262.635 816.269,-253.691"/>
<polygon fill="midnightblue" stroke="midnightblue" points="819.724,-253.13 814.796,-243.751 812.8,-254.156 819.724,-253.13"/>
</g>
<!-- Node35 -->
<g id="node35" class="node"><title>Node35</title>
<g id="a_node35"><a xlink:href="../../d3/dee/torchttpservice_8h.html" target="_top" xlink:title="torchttpservice.h">
<polygon fill="white" stroke="black" points="872.5,-224.5 872.5,-243.5 970.5,-243.5 970.5,-224.5 872.5,-224.5"/>
<text text-anchor="middle" x="921.5" y="-231.5" font-family="Helvetica,sans-Serif" font-size="10.00">torchttpservice.h</text>
</a>
</g>
</g>
<!-- Node30&#45;&gt;Node35 -->
<g id="edge36" class="edge"><title>Node30&#45;&gt;Node35</title>
<path fill="none" stroke="midnightblue" d="M837.567,-280.324C853.458,-271.743 878.007,-258.486 896.458,-248.522"/>
<polygon fill="midnightblue" stroke="midnightblue" points="898.337,-251.486 905.473,-243.655 895.011,-245.326 898.337,-251.486"/>
</g>
<!-- Node34 -->
<g id="node34" class="node"><title>Node34</title>
<polygon fill="white" stroke="#bfbfbf" points="773,-168.5 773,-187.5 830,-187.5 830,-168.5 773,-168.5"/>
<text text-anchor="middle" x="801.5" y="-175.5" font-family="Helvetica,sans-Serif" font-size="10.00">QThread</text>
</g>
<!-- Node33&#45;&gt;Node34 -->
<g id="edge35" class="edge"><title>Node33&#45;&gt;Node34</title>
<path fill="none" stroke="midnightblue" d="M811.518,-224.083C809.928,-216.927 807.641,-206.635 805.654,-197.691"/>
<polygon fill="midnightblue" stroke="midnightblue" points="809.031,-196.754 803.445,-187.751 802.197,-198.272 809.031,-196.754"/>
</g>
<!-- Node35&#45;&gt;Node8 -->
<g id="edge38" class="edge"><title>Node35&#45;&gt;Node8</title>
<path fill="none" stroke="midnightblue" d="M970.519,-225.186C973.556,-224.767 976.568,-224.367 979.5,-224 1143.25,-203.495 1188.84,-215.981 1355.74,-187.862"/>
<polygon fill="midnightblue" stroke="midnightblue" points="1356.59,-191.267 1365.86,-186.133 1355.41,-184.367 1356.59,-191.267"/>
</g>
<!-- Node35&#45;&gt;Node13 -->
<g id="edge37" class="edge"><title>Node35&#45;&gt;Node13</title>
<path fill="none" stroke="midnightblue" d="M915.478,-224.075C897.62,-197.606 844.725,-119.209 821.111,-84.2097"/>
<polygon fill="midnightblue" stroke="midnightblue" points="823.775,-81.9002 815.281,-75.5681 817.973,-85.8153 823.775,-81.9002"/>
</g>
<!-- Node36 -->
<g id="node36" class="node"><title>Node36</title>
<polygon fill="white" stroke="#bfbfbf" points="924.5,-168.5 924.5,-187.5 1016.5,-187.5 1016.5,-168.5 924.5,-168.5"/>
<text text-anchor="middle" x="970.5" y="-175.5" font-family="Helvetica,sans-Serif" font-size="10.00">QReadWriteLock</text>
</g>
<!-- Node35&#45;&gt;Node36 -->
<g id="edge39" class="edge"><title>Node35&#45;&gt;Node36</title>
<path fill="none" stroke="midnightblue" d="M929.591,-224.083C936.655,-216.298 947.088,-204.801 955.649,-195.367"/>
<polygon fill="midnightblue" stroke="midnightblue" points="958.431,-197.509 962.559,-187.751 953.247,-192.805 958.431,-197.509"/>
</g>
<!-- Node37 -->
<g id="node37" class="node"><title>Node37</title>
<polygon fill="white" stroke="#bfbfbf" points="1035,-168.5 1035,-187.5 1114,-187.5 1114,-168.5 1035,-168.5"/>
<text text-anchor="middle" x="1074.5" y="-175.5" font-family="Helvetica,sans-Serif" font-size="10.00">QMetaObject</text>
</g>
<!-- Node35&#45;&gt;Node37 -->
<g id="edge40" class="edge"><title>Node35&#45;&gt;Node37</title>
<path fill="none" stroke="midnightblue" d="M945.743,-224.444C971.371,-215.399 1011.99,-201.064 1040.74,-190.916"/>
<polygon fill="midnightblue" stroke="midnightblue" points="1042.11,-194.145 1050.37,-187.516 1039.78,-187.544 1042.11,-194.145"/>
</g>
<!-- Node38 -->
<g id="node38" class="node"><title>Node38</title>
<polygon fill="white" stroke="#bfbfbf" points="1132,-168.5 1132,-187.5 1231,-187.5 1231,-168.5 1132,-168.5"/>
<text text-anchor="middle" x="1181.5" y="-175.5" font-family="Helvetica,sans-Serif" font-size="10.00">QCoreApplication</text>
</g>
<!-- Node35&#45;&gt;Node38 -->
<g id="edge41" class="edge"><title>Node35&#45;&gt;Node38</title>
<path fill="none" stroke="midnightblue" d="M962.698,-224.444C1008.15,-215.004 1081.34,-199.802 1130.41,-189.611"/>
<polygon fill="midnightblue" stroke="midnightblue" points="1131.42,-192.977 1140.49,-187.516 1129.99,-186.123 1131.42,-192.977"/>
</g>
<!-- Node39 -->
<g id="node39" class="node"><title>Node39</title>
<g id="a_node39"><a xlink:href="../../d4/d11/torchttphandler_8h.html" target="_top" xlink:title="torchttphandler.h">
<polygon fill="white" stroke="black" points="1249,-168.5 1249,-187.5 1348,-187.5 1348,-168.5 1249,-168.5"/>
<text text-anchor="middle" x="1298.5" y="-175.5" font-family="Helvetica,sans-Serif" font-size="10.00">torchttphandler.h</text>
</a>
</g>
</g>
<!-- Node35&#45;&gt;Node39 -->
<g id="edge42" class="edge"><title>Node35&#45;&gt;Node39</title>
<path fill="none" stroke="midnightblue" d="M970.539,-225.333C973.571,-224.877 976.576,-224.429 979.5,-224 1091.76,-207.519 1122.4,-204.931 1238.9,-188.068"/>
<polygon fill="midnightblue" stroke="midnightblue" points="1239.54,-191.512 1248.93,-186.612 1238.53,-184.585 1239.54,-191.512"/>
</g>
<!-- Node42 -->
<g id="node42" class="node"><title>Node42</title>
<g id="a_node42"><a xlink:href="../../df/dd7/torchttprequest_8h.html" target="_top" xlink:title="torchttprequest.h">
<polygon fill="white" stroke="black" points="936,-112.5 936,-131.5 1037,-131.5 1037,-112.5 936,-112.5"/>
<text text-anchor="middle" x="986.5" y="-119.5" font-family="Helvetica,sans-Serif" font-size="10.00">torchttprequest.h</text>
</a>
</g>
</g>
<!-- Node35&#45;&gt;Node42 -->
<g id="edge53" class="edge"><title>Node35&#45;&gt;Node42</title>
<path fill="none" stroke="midnightblue" d="M917.794,-224.376C912.785,-211.301 905.558,-186.071 915.5,-168 923.387,-153.663 937.986,-143.253 951.903,-136.079"/>
<polygon fill="midnightblue" stroke="midnightblue" points="953.792,-139.058 961.339,-131.622 950.802,-132.728 953.792,-139.058"/>
</g>
<!-- Node40 -->
<g id="node40" class="node"><title>Node40</title>
<polygon fill="white" stroke="#bfbfbf" points="1191,-56.5 1191,-75.5 1244,-75.5 1244,-56.5 1191,-56.5"/>
<text text-anchor="middle" x="1217.5" y="-63.5" font-family="Helvetica,sans-Serif" font-size="10.00">QString</text>
</g>
<!-- Node39&#45;&gt;Node40 -->
<g id="edge43" class="edge"><title>Node39&#45;&gt;Node40</title>
<path fill="none" stroke="midnightblue" d="M1297.74,-168.231C1296.23,-154.966 1291.82,-129.493 1279.5,-112 1270.32,-98.9629 1256.14,-88.2668 1243.65,-80.5785"/>
<polygon fill="midnightblue" stroke="midnightblue" points="1245.36,-77.5242 1234.96,-75.5215 1241.84,-83.575 1245.36,-77.5242"/>
</g>
<!-- Node41 -->
<g id="node41" class="node"><title>Node41</title>
<polygon fill="white" stroke="#bfbfbf" points="1192.5,-112.5 1192.5,-131.5 1270.5,-131.5 1270.5,-112.5 1192.5,-112.5"/>
<text text-anchor="middle" x="1231.5" y="-119.5" font-family="Helvetica,sans-Serif" font-size="10.00">QVariantMap</text>
</g>
<!-- Node39&#45;&gt;Node41 -->
<g id="edge44" class="edge"><title>Node39&#45;&gt;Node41</title>
<path fill="none" stroke="midnightblue" d="M1287.74,-168.324C1277.73,-160.263 1262.61,-148.077 1250.57,-138.369"/>
<polygon fill="midnightblue" stroke="midnightblue" points="1252.44,-135.384 1242.46,-131.834 1248.05,-140.834 1252.44,-135.384"/>
</g>
<!-- Node39&#45;&gt;Node42 -->
<g id="edge45" class="edge"><title>Node39&#45;&gt;Node42</title>
<path fill="none" stroke="midnightblue" d="M1249.06,-168.444C1193.84,-158.885 1104.48,-143.419 1045.61,-133.23"/>
<polygon fill="midnightblue" stroke="midnightblue" points="1046.16,-129.773 1035.71,-131.516 1044.96,-136.671 1046.16,-129.773"/>
</g>
<!-- Node42&#45;&gt;Node13 -->
<g id="edge46" class="edge"><title>Node42&#45;&gt;Node13</title>
<path fill="none" stroke="midnightblue" d="M958.454,-112.444C926.563,-102.714 874.611,-86.8642 841.255,-76.688"/>
<polygon fill="midnightblue" stroke="midnightblue" points="842.129,-73.2955 831.543,-73.7251 840.087,-79.9909 842.129,-73.2955"/>
</g>
<!-- Node42&#45;&gt;Node40 -->
<g id="edge48" class="edge"><title>Node42&#45;&gt;Node40</title>
<path fill="none" stroke="midnightblue" d="M1023.1,-112.444C1066.33,-102.339 1137.79,-85.6337 1180.98,-75.5377"/>
<polygon fill="midnightblue" stroke="midnightblue" points="1181.85,-78.9282 1190.79,-73.2437 1180.26,-72.112 1181.85,-78.9282"/>
</g>
<!-- Node43 -->
<g id="node43" class="node"><title>Node43</title>
<polygon fill="white" stroke="#bfbfbf" points="1052,-56.5 1052,-75.5 1093,-75.5 1093,-56.5 1052,-56.5"/>
<text text-anchor="middle" x="1072.5" y="-63.5" font-family="Helvetica,sans-Serif" font-size="10.00">QPair</text>
</g>
<!-- Node42&#45;&gt;Node43 -->
<g id="edge47" class="edge"><title>Node42&#45;&gt;Node43</title>
<path fill="none" stroke="midnightblue" d="M1000.32,-112.324C1013.73,-103.9 1034.32,-90.9709 1050.09,-81.0741"/>
<polygon fill="midnightblue" stroke="midnightblue" points="1052.11,-83.9364 1058.72,-75.6545 1048.39,-78.0081 1052.11,-83.9364"/>
</g>
<!-- Node44 -->
<g id="node44" class="node"><title>Node44</title>
<polygon fill="white" stroke="#bfbfbf" points="850,-56.5 850,-75.5 921,-75.5 921,-56.5 850,-56.5"/>
<text text-anchor="middle" x="885.5" y="-63.5" font-family="Helvetica,sans-Serif" font-size="10.00">QDateTime</text>
</g>
<!-- Node42&#45;&gt;Node44 -->
<g id="edge49" class="edge"><title>Node42&#45;&gt;Node44</title>
<path fill="none" stroke="midnightblue" d="M970.273,-112.324C954.149,-103.703 929.2,-90.3643 910.536,-80.3855"/>
<polygon fill="midnightblue" stroke="midnightblue" points="912.156,-77.283 901.687,-75.6545 908.856,-83.456 912.156,-77.283"/>
</g>
<!-- Node45 -->
<g id="node45" class="node"><title>Node45</title>
<g id="a_node45"><a xlink:href="../../de/de6/torchttpreader_8h.html" target="_top" xlink:title="torchttpreader.h">
<polygon fill="white" stroke="black" points="939,-56.5 939,-75.5 1034,-75.5 1034,-56.5 939,-56.5"/>
<text text-anchor="middle" x="986.5" y="-63.5" font-family="Helvetica,sans-Serif" font-size="10.00">torchttpreader.h</text>
</a>
</g>
</g>
<!-- Node42&#45;&gt;Node45 -->
<g id="edge50" class="edge"><title>Node42&#45;&gt;Node45</title>
<path fill="none" stroke="midnightblue" d="M986.5,-112.083C986.5,-105.006 986.5,-94.8611 986.5,-85.9865"/>
<polygon fill="midnightblue" stroke="midnightblue" points="990,-85.751 986.5,-75.7511 983,-85.7511 990,-85.751"/>
</g>
<!-- Node45&#45;&gt;Node14 -->
<g id="edge51" class="edge"><title>Node45&#45;&gt;Node14</title>
<path fill="none" stroke="midnightblue" d="M957.186,-56.4435C925.658,-47.2406 875.369,-32.5617 840.514,-22.3879"/>
<polygon fill="midnightblue" stroke="midnightblue" points="841.257,-18.9587 830.677,-19.5164 839.295,-25.6783 841.257,-18.9587"/>
</g>
<!-- Node46 -->
<g id="node46" class="node"><title>Node46</title>
<polygon fill="white" stroke="#bfbfbf" points="950.5,-0.5 950.5,-19.5 1022.5,-19.5 1022.5,-0.5 950.5,-0.5"/>
<text text-anchor="middle" x="986.5" y="-7.5" font-family="Helvetica,sans-Serif" font-size="10.00">QTcpSocket</text>
</g>
<!-- Node45&#45;&gt;Node46 -->
<g id="edge52" class="edge"><title>Node45&#45;&gt;Node46</title>
<path fill="none" stroke="midnightblue" d="M986.5,-56.083C986.5,-49.0059 986.5,-38.8611 986.5,-29.9865"/>
<polygon fill="midnightblue" stroke="midnightblue" points="990,-29.751 986.5,-19.7511 983,-29.7511 990,-29.751"/>
</g>
</g>
</svg>
        <g id="navigator" transform="translate(0 0)" fill="#404254">
                <rect fill="#f2f5e9" fill-opacity="0.5" stroke="#606060" stroke-width=".5" x="0" y="0" width="60" height="60"/>
                <use id="zoomplus" xlink:href="#zoomPlus" x="17" y="9" onmousedown="handleZoom(evt,'in')"/>
                <use id="zoomminus" xlink:href="#zoomMin" x="42" y="9" onmousedown="handleZoom(evt,'out')"/>
                <use id="reset" xlink:href="#resetDef" x="30" y="36" onmousedown="handleReset()"/>
                <g id="arrowUp" xlink:href="#dirArrow" transform="translate(30 24)" onmousedown="handlePan(0,-1)">
                  <use xlink:href="#rim" fill="#404040">
                        <set attributeName="fill" to="#808080" begin="arrowUp.mouseover" end="arrowUp.mouseout"/>
                  </use>
                  <path fill="none" stroke="white" stroke-width="1.5" d="M0,-3.0v7 M-2.5,-0.5L0,-3.0L2.5,-0.5"/>
                </g>
                <g id="arrowRight" xlink:href="#dirArrow" transform="rotate(90) translate(36 -43)" onmousedown="handlePan(1,0)">
                  <use xlink:href="#rim" fill="#404040">
                        <set attributeName="fill" to="#808080" begin="arrowRight.mouseover" end="arrowRight.mouseout"/>
                  </use>
                  <path fill="none" stroke="white" stroke-width="1.5" d="M0,-3.0v7 M-2.5,-0.5L0,-3.0L2.5,-0.5"/>
                </g>
                <g id="arrowDown" xlink:href="#dirArrow" transform="rotate(180) translate(-30 -48)" onmousedown="handlePan(0,1)">
                  <use xlink:href="#rim" fill="#404040">
                        <set attributeName="fill" to="#808080" begin="arrowDown.mouseover" end="arrowDown.mouseout"/>
                  </use>
                  <path fill="none" stroke="white" stroke-width="1.5" d="M0,-3.0v7 M-2.5,-0.5L0,-3.0L2.5,-0.5"/>
                </g>
                <g id="arrowLeft" xlink:href="#dirArrow" transform="rotate(270) translate(-36 17)" onmousedown="handlePan(-1,0)">
                  <use xlink:href="#rim" fill="#404040">
                        <set attributeName="fill" to="#808080" begin="arrowLeft.mouseover" end="arrowLeft.mouseout"/>
                  </use>
                  <path fill="none" stroke="white" stroke-width="1.5" d="M0,-3.0v7 M-2.5,-0.5L0,-3.0L2.5,-0.5"/>
                </g>
        </g>
        <svg viewBox="0 0 15 15" width="100%" height="30px" preserveAspectRatio="xMaxYMin meet">
         <g id="arrow_out" transform="scale(0.3 0.3)">
          <a xlink:href="torcloggingimp_8cpp__incl_org.svg" target="_base">
           <rect id="button" ry="5" rx="5" y="6" x="6" height="38" width="38"
                fill="#f2f5e9" fill-opacity="0.5" stroke="#606060" stroke-width="1.0"/>
           <path id="arrow"
             d="M 11.500037,31.436501 C 11.940474,20.09759 22.043105,11.32322 32.158766,21.979434 L 37.068811,17.246167 C 37.068811,17.246167 37.088388,32 37.088388,32 L 22.160133,31.978069 C 22.160133,31.978069 26.997745,27.140456 26.997745,27.140456 C 18.528582,18.264221 13.291696,25.230495 11.500037,31.436501 z"
             style="fill:#404040;"/>
          </a>
         </g>
        </svg>
</svg>
