<?xml version="1.0" encoding="UTF-8" standalone="no"?>
<!DOCTYPE svg PUBLIC "-//W3C//DTD SVG 1.1//EN"
 "http://www.w3.org/Graphics/SVG/1.1/DTD/svg11.dtd">
<!-- Generated by graphviz version 2.38.0 (20140413.2041)
 -->
<!-- Title: torclocalcontext.h Pages: 1 -->
<!--zoomable 196 -->
<svg id="main" version="1.1" xmlns="http://www.w3.org/2000/svg" xmlns:xlink="http://www.w3.org/1999/xlink" xml:space="preserve" onload="init(evt)">
<style type="text/css"><![CDATA[
.edge:hover path { stroke: red; }
.edge:hover polygon { stroke: red; fill: red; }
]]></style>
<script type="text/javascript"><![CDATA[
var edges = document.getElementsByTagName('g');
if (edges && edges.length) {
  for (var i=0;i<edges.length;i++) {
    if (edges[i].id.substr(0,4)=='edge') {
      edges[i].setAttribute('class','edge');
    }
  }
}
]]></script>
        <defs>
                <circle id="rim" cx="0" cy="0" r="7"/>
                <circle id="rim2" cx="0" cy="0" r="3.5"/>
                <g id="zoomPlus">
                        <use xlink:href="#rim" fill="#404040">
                                <set attributeName="fill" to="#808080" begin="zoomplus.mouseover" end="zoomplus.mouseout"/>
                        </use>
                        <path d="M-4,0h8M0,-4v8" fill="none" stroke="white" stroke-width="1.5" pointer-events="none"/>
                </g>
                <g id="zoomMin">
                        <use xlink:href="#rim" fill="#404040">
                                <set attributeName="fill" to="#808080" begin="zoomminus.mouseover" end="zoomminus.mouseout"/>
                        </use>
                        <path d="M-4,0h8" fill="none" stroke="white" stroke-width="1.5" pointer-events="none"/>
                </g>
                <g id="dirArrow">
                        <path fill="none" stroke="white" stroke-width="1.5" d="M0,-3.0v7 M-2.5,-0.5L0,-3.0L2.5,-0.5"/>
                </g>
               <g id="resetDef">
                       <use xlink:href="#rim2" fill="#404040">
                               <set attributeName="fill" to="#808080" begin="reset.mouseover" end="reset.mouseout"/>
                       </use>
               </g>
        </defs>

<script type="text/javascript">
var viewWidth = 2844;
var viewHeight = 196;
var sectionId = 'dynsection-1';
</script>
<script xlink:href="../../svgpan.js"/>
<svg id="graph" class="graph">
<g id="viewport">
<title>torclocalcontext.h</title>
<polygon fill="white" stroke="none" points="-4,4 -4,-192 2840,-192 2840,4 -4,4"/>
<!-- Node1 -->
<g id="node1" class="node"><title>Node1</title>
<polygon fill="#bfbfbf" stroke="black" points="1298,-168.5 1298,-187.5 1400,-187.5 1400,-168.5 1298,-168.5"/>
<text text-anchor="middle" x="1349" y="-175.5" font-family="Helvetica,sans-Serif" font-size="10.00">torclocalcontext.h</text>
</g>
<!-- Node2 -->
<g id="node2" class="node"><title>Node2</title>
<g id="a_node2"><a xlink:href="../../d3/d4a/torctimercontrol_8cpp.html" target="_top" xlink:title="torctimercontrol.cpp">
<polygon fill="white" stroke="black" points="0,-112.5 0,-131.5 114,-131.5 114,-112.5 0,-112.5"/>
<text text-anchor="middle" x="57" y="-119.5" font-family="Helvetica,sans-Serif" font-size="10.00">torctimercontrol.cpp</text>
</a>
</g>
</g>
<!-- Node1&#45;&gt;Node2 -->
<g id="edge1" class="edge"><title>Node1&#45;&gt;Node2</title>
<path fill="none" stroke="midnightblue" d="M1287.76,-176.89C1108.38,-176.108 568.724,-170.476 123,-132 120.12,-131.751 117.172,-131.465 114.199,-131.152"/>
<polygon fill="midnightblue" stroke="midnightblue" points="1287.78,-180.39 1297.79,-176.93 1287.81,-173.39 1287.78,-180.39"/>
</g>
<!-- Node3 -->
<g id="node3" class="node"><title>Node3</title>
<g id="a_node3"><a xlink:href="../../da/dcd/torctransitioncontrol_8cpp.html" target="_top" xlink:title="torctransitioncontrol.cpp">
<polygon fill="white" stroke="black" points="132,-112.5 132,-131.5 266,-131.5 266,-112.5 132,-112.5"/>
<text text-anchor="middle" x="199" y="-119.5" font-family="Helvetica,sans-Serif" font-size="10.00">torctransitioncontrol.cpp</text>
</a>
</g>
</g>
<!-- Node1&#45;&gt;Node3 -->
<g id="edge2" class="edge"><title>Node1&#45;&gt;Node3</title>
<path fill="none" stroke="midnightblue" d="M1287.43,-176.021C1122.99,-173.06 659.977,-162.449 276,-132 272.78,-131.745 269.487,-131.458 266.163,-131.148"/>
<polygon fill="midnightblue" stroke="midnightblue" points="1287.76,-179.527 1297.82,-176.205 1287.88,-172.528 1287.76,-179.527"/>
</g>
<!-- Node4 -->
<g id="node4" class="node"><title>Node4</title>
<g id="a_node4"><a xlink:href="../../d0/ddb/torcsysteminput_8cpp.html" target="_top" xlink:title="torcsysteminput.cpp">
<polygon fill="white" stroke="black" points="284.5,-112.5 284.5,-131.5 399.5,-131.5 399.5,-112.5 284.5,-112.5"/>
<text text-anchor="middle" x="342" y="-119.5" font-family="Helvetica,sans-Serif" font-size="10.00">torcsysteminput.cpp</text>
</a>
</g>
</g>
<!-- Node1&#45;&gt;Node4 -->
<g id="edge3" class="edge"><title>Node1&#45;&gt;Node4</title>
<path fill="none" stroke="midnightblue" d="M1287.56,-175.88C1137.33,-172.745 739.505,-162.053 409,-132 405.961,-131.724 402.848,-131.411 399.708,-131.071"/>
<polygon fill="midnightblue" stroke="midnightblue" points="1287.88,-179.387 1297.95,-176.093 1288.02,-172.389 1287.88,-179.387"/>
</g>
<!-- Node5 -->
<g id="node5" class="node"><title>Node5</title>
<g id="a_node5"><a xlink:href="../../d1/d5d/torcsystemnotification_8h.html" target="_top" xlink:title="torcsystemnotification.h">
<polygon fill="white" stroke="black" points="418,-112.5 418,-131.5 550,-131.5 550,-112.5 418,-112.5"/>
<text text-anchor="middle" x="484" y="-119.5" font-family="Helvetica,sans-Serif" font-size="10.00">torcsystemnotification.h</text>
</a>
</g>
</g>
<!-- Node1&#45;&gt;Node5 -->
<g id="edge4" class="edge"><title>Node1&#45;&gt;Node5</title>
<path fill="none" stroke="midnightblue" d="M1287.31,-174.761C1154.25,-169.651 830.473,-155.706 560,-132 556.823,-131.722 553.574,-131.416 550.295,-131.092"/>
<polygon fill="midnightblue" stroke="midnightblue" points="1287.56,-178.273 1297.69,-175.157 1287.83,-171.278 1287.56,-178.273"/>
</g>
<!-- Node7 -->
<g id="node7" class="node"><title>Node7</title>
<g id="a_node7"><a xlink:href="../../d6/d7a/server_2main_8cpp.html" target="_top" xlink:title="main.cpp">
<polygon fill="white" stroke="black" points="568.5,-112.5 568.5,-131.5 629.5,-131.5 629.5,-112.5 568.5,-112.5"/>
<text text-anchor="middle" x="599" y="-119.5" font-family="Helvetica,sans-Serif" font-size="10.00">main.cpp</text>
</a>
</g>
</g>
<!-- Node1&#45;&gt;Node7 -->
<g id="edge6" class="edge"><title>Node1&#45;&gt;Node7</title>
<path fill="none" stroke="midnightblue" d="M1287.92,-176.371C1164.62,-174.39 877.434,-166.161 639,-132 636.041,-131.576 632.976,-131.049 629.919,-130.464"/>
<polygon fill="midnightblue" stroke="midnightblue" points="1287.87,-179.871 1297.92,-176.524 1287.98,-172.872 1287.87,-179.871"/>
</g>
<!-- Node8 -->
<g id="node8" class="node"><title>Node8</title>
<g id="a_node8"><a xlink:href="../../d1/d81/torccentral_8cpp.html" target="_top" xlink:title="torccentral.cpp">
<polygon fill="white" stroke="black" points="647.5,-112.5 647.5,-131.5 736.5,-131.5 736.5,-112.5 647.5,-112.5"/>
<text text-anchor="middle" x="692" y="-119.5" font-family="Helvetica,sans-Serif" font-size="10.00">torccentral.cpp</text>
</a>
</g>
</g>
<!-- Node1&#45;&gt;Node8 -->
<g id="edge7" class="edge"><title>Node1&#45;&gt;Node8</title>
<path fill="none" stroke="midnightblue" d="M1287.45,-174.252C1178.15,-168.962 943.142,-155.735 746,-132 742.98,-131.636 739.872,-131.223 736.744,-130.778"/>
<polygon fill="midnightblue" stroke="midnightblue" points="1287.47,-177.757 1297.62,-174.74 1287.8,-170.765 1287.47,-177.757"/>
</g>
<!-- Node9 -->
<g id="node9" class="node"><title>Node9</title>
<g id="a_node9"><a xlink:href="../../d6/ddf/torcxsdtest_8cpp.html" target="_top" xlink:title="torcxsdtest.cpp">
<polygon fill="white" stroke="black" points="754.5,-112.5 754.5,-131.5 845.5,-131.5 845.5,-112.5 754.5,-112.5"/>
<text text-anchor="middle" x="800" y="-119.5" font-family="Helvetica,sans-Serif" font-size="10.00">torcxsdtest.cpp</text>
</a>
</g>
</g>
<!-- Node1&#45;&gt;Node9 -->
<g id="edge8" class="edge"><title>Node1&#45;&gt;Node9</title>
<path fill="none" stroke="midnightblue" d="M1287.53,-172.817C1193.94,-166.129 1010.22,-151.744 855,-132 851.929,-131.609 848.766,-131.176 845.582,-130.716"/>
<polygon fill="midnightblue" stroke="midnightblue" points="1287.44,-176.32 1297.67,-173.537 1287.94,-169.337 1287.44,-176.32"/>
</g>
<!-- Node10 -->
<g id="node10" class="node"><title>Node10</title>
<g id="a_node10"><a xlink:href="../../dd/dbf/testtorclocalcontext_8cpp.html" target="_top" xlink:title="testtorclocalcontext.cpp">
<polygon fill="white" stroke="black" points="864,-112.5 864,-131.5 996,-131.5 996,-112.5 864,-112.5"/>
<text text-anchor="middle" x="930" y="-119.5" font-family="Helvetica,sans-Serif" font-size="10.00">testtorclocalcontext.cpp</text>
</a>
</g>
</g>
<!-- Node1&#45;&gt;Node10 -->
<g id="edge9" class="edge"><title>Node1&#45;&gt;Node10</title>
<path fill="none" stroke="midnightblue" d="M1287.49,-169.073C1209.71,-159.048 1076.3,-141.855 996.305,-131.545"/>
<polygon fill="midnightblue" stroke="midnightblue" points="1287.26,-172.572 1297.62,-170.379 1288.15,-165.629 1287.26,-172.572"/>
</g>
<!-- Node11 -->
<g id="node11" class="node"><title>Node11</title>
<g id="a_node11"><a xlink:href="../../de/dc5/torchttpserver_8cpp.html" target="_top" xlink:title="torchttpserver.cpp">
<polygon fill="white" stroke="black" points="972,-0.5 972,-19.5 1076,-19.5 1076,-0.5 972,-0.5"/>
<text text-anchor="middle" x="1024" y="-7.5" font-family="Helvetica,sans-Serif" font-size="10.00">torchttpserver.cpp</text>
</a>
</g>
</g>
<!-- Node1&#45;&gt;Node11 -->
<g id="edge10" class="edge"><title>Node1&#45;&gt;Node11</title>
<path fill="none" stroke="midnightblue" d="M1287.46,-174.23C1215.34,-169.789 1101.52,-158.676 1069,-132 1033.3,-102.716 1025.92,-42.2109 1024.39,-19.6931"/>
<polygon fill="midnightblue" stroke="midnightblue" points="1287.6,-177.744 1297.79,-174.838 1288.01,-170.756 1287.6,-177.744"/>
</g>
<!-- Node12 -->
<g id="node12" class="node"><title>Node12</title>
<g id="a_node12"><a xlink:href="../../da/d1a/torchttpservices_8cpp.html" target="_top" xlink:title="torchttpservices.cpp">
<polygon fill="white" stroke="black" points="1362,-112.5 1362,-131.5 1476,-131.5 1476,-112.5 1362,-112.5"/>
<text text-anchor="middle" x="1419" y="-119.5" font-family="Helvetica,sans-Serif" font-size="10.00">torchttpservices.cpp</text>
</a>
</g>
</g>
<!-- Node1&#45;&gt;Node12 -->
<g id="edge11" class="edge"><title>Node1&#45;&gt;Node12</title>
<path fill="none" stroke="midnightblue" d="M1368.31,-162.101C1380.91,-152.382 1396.93,-140.027 1407.55,-131.834"/>
<polygon fill="midnightblue" stroke="midnightblue" points="1366.03,-159.445 1360.25,-168.324 1370.3,-164.987 1366.03,-159.445"/>
</g>
<!-- Node13 -->
<g id="node13" class="node"><title>Node13</title>
<g id="a_node13"><a xlink:href="../../df/d2a/torcpowerosx_8cpp.html" target="_top" xlink:title="torcpowerosx.cpp">
<polygon fill="white" stroke="black" points="1494.5,-112.5 1494.5,-131.5 1595.5,-131.5 1595.5,-112.5 1494.5,-112.5"/>
<text text-anchor="middle" x="1545" y="-119.5" font-family="Helvetica,sans-Serif" font-size="10.00">torcpowerosx.cpp</text>
</a>
</g>
</g>
<!-- Node1&#45;&gt;Node13 -->
<g id="edge12" class="edge"><title>Node1&#45;&gt;Node13</title>
<path fill="none" stroke="midnightblue" d="M1390.02,-165.699C1427.01,-155.507 1480.6,-140.743 1514.09,-131.516"/>
<polygon fill="midnightblue" stroke="midnightblue" points="1388.77,-162.413 1380.06,-168.444 1390.63,-169.162 1388.77,-162.413"/>
</g>
<!-- Node14 -->
<g id="node14" class="node"><title>Node14</title>
<g id="a_node14"><a xlink:href="../../d7/d74/torcrunlooposx_8cpp.html" target="_top" xlink:title="torcrunlooposx.cpp">
<polygon fill="white" stroke="black" points="1614,-112.5 1614,-131.5 1722,-131.5 1722,-112.5 1614,-112.5"/>
<text text-anchor="middle" x="1668" y="-119.5" font-family="Helvetica,sans-Serif" font-size="10.00">torcrunlooposx.cpp</text>
</a>
</g>
</g>
<!-- Node1&#45;&gt;Node14 -->
<g id="edge13" class="edge"><title>Node1&#45;&gt;Node14</title>
<path fill="none" stroke="midnightblue" d="M1409.68,-166.727C1469.97,-156.523 1561.32,-141.058 1617.69,-131.516"/>
<polygon fill="midnightblue" stroke="midnightblue" points="1408.82,-163.324 1399.55,-168.444 1409.99,-170.225 1408.82,-163.324"/>
</g>
<!-- Node15 -->
<g id="node15" class="node"><title>Node15</title>
<g id="a_node15"><a xlink:href="../../d5/d95/torcadminthread_8cpp.html" target="_top" xlink:title="torcadminthread.cpp">
<polygon fill="white" stroke="black" points="1740.5,-112.5 1740.5,-131.5 1857.5,-131.5 1857.5,-112.5 1740.5,-112.5"/>
<text text-anchor="middle" x="1799" y="-119.5" font-family="Helvetica,sans-Serif" font-size="10.00">torcadminthread.cpp</text>
</a>
</g>
</g>
<!-- Node1&#45;&gt;Node15 -->
<g id="edge14" class="edge"><title>Node1&#45;&gt;Node15</title>
<path fill="none" stroke="midnightblue" d="M1410.27,-170.056C1485.75,-161.439 1617.88,-146.148 1731,-132 1734.07,-131.616 1737.22,-131.217 1740.4,-130.81"/>
<polygon fill="midnightblue" stroke="midnightblue" points="1409.54,-166.616 1400,-171.227 1410.34,-173.571 1409.54,-166.616"/>
</g>
<!-- Node16 -->
<g id="node16" class="node"><title>Node16</title>
<g id="a_node16"><a xlink:href="../../dc/d96/torcbonjour_8cpp.html" target="_top" xlink:title="torcbonjour.cpp">
<polygon fill="white" stroke="black" points="1875.5,-112.5 1875.5,-131.5 1966.5,-131.5 1966.5,-112.5 1875.5,-112.5"/>
<text text-anchor="middle" x="1921" y="-119.5" font-family="Helvetica,sans-Serif" font-size="10.00">torcbonjour.cpp</text>
</a>
</g>
</g>
<!-- Node1&#45;&gt;Node16 -->
<g id="edge15" class="edge"><title>Node1&#45;&gt;Node16</title>
<path fill="none" stroke="midnightblue" d="M1410.47,-173.228C1507.64,-166.912 1702.61,-152.807 1867,-132 1869.73,-131.654 1872.54,-131.271 1875.37,-130.863"/>
<polygon fill="midnightblue" stroke="midnightblue" points="1409.99,-169.751 1400.24,-173.887 1410.44,-176.736 1409.99,-169.751"/>
</g>
<!-- Node17 -->
<g id="node17" class="node"><title>Node17</title>
<g id="a_node17"><a xlink:href="../../d3/df3/torclanguage_8cpp.html" target="_top" xlink:title="torclanguage.cpp">
<polygon fill="white" stroke="black" points="1985,-112.5 1985,-131.5 2085,-131.5 2085,-112.5 1985,-112.5"/>
<text text-anchor="middle" x="2035" y="-119.5" font-family="Helvetica,sans-Serif" font-size="10.00">torclanguage.cpp</text>
</a>
</g>
</g>
<!-- Node1&#45;&gt;Node17 -->
<g id="edge16" class="edge"><title>Node1&#45;&gt;Node17</title>
<path fill="none" stroke="midnightblue" d="M1410.47,-174.218C1522.94,-168.765 1769.34,-155.142 1976,-132 1978.88,-131.677 1981.84,-131.317 1984.82,-130.932"/>
<polygon fill="midnightblue" stroke="midnightblue" points="1410.15,-170.729 1400.33,-174.705 1410.49,-177.721 1410.15,-170.729"/>
</g>
<!-- Node18 -->
<g id="node18" class="node"><title>Node18</title>
<g id="a_node18"><a xlink:href="../../da/d67/torclocalcontext_8cpp.html" target="_top" xlink:title="torclocalcontext.cpp">
<polygon fill="white" stroke="black" points="2103.5,-112.5 2103.5,-131.5 2216.5,-131.5 2216.5,-112.5 2103.5,-112.5"/>
<text text-anchor="middle" x="2160" y="-119.5" font-family="Helvetica,sans-Serif" font-size="10.00">torclocalcontext.cpp</text>
</a>
</g>
</g>
<!-- Node1&#45;&gt;Node18 -->
<g id="edge17" class="edge"><title>Node1&#45;&gt;Node18</title>
<path fill="none" stroke="midnightblue" d="M1410.48,-174.852C1538.1,-170.049 1840.95,-156.861 2094,-132 2096.99,-131.706 2100.06,-131.379 2103.15,-131.028"/>
<polygon fill="midnightblue" stroke="midnightblue" points="1410,-171.367 1400.14,-175.237 1410.26,-178.363 1410,-171.367"/>
</g>
<!-- Node19 -->
<g id="node19" class="node"><title>Node19</title>
<g id="a_node19"><a xlink:href="../../da/d9c/torcnetwork_8cpp.html" target="_top" xlink:title="torcnetwork.cpp">
<polygon fill="white" stroke="black" points="2234.5,-112.5 2234.5,-131.5 2327.5,-131.5 2327.5,-112.5 2234.5,-112.5"/>
<text text-anchor="middle" x="2281" y="-119.5" font-family="Helvetica,sans-Serif" font-size="10.00">torcnetwork.cpp</text>
</a>
</g>
</g>
<!-- Node1&#45;&gt;Node19 -->
<g id="edge18" class="edge"><title>Node1&#45;&gt;Node19</title>
<path fill="none" stroke="midnightblue" d="M1410.4,-176.189C1553.65,-173.788 1920.98,-164.68 2226,-132 2228.69,-131.711 2231.46,-131.378 2234.24,-131.014"/>
<polygon fill="midnightblue" stroke="midnightblue" points="1410.01,-172.695 1400.07,-176.357 1410.12,-179.694 1410.01,-172.695"/>
</g>
<!-- Node20 -->
<g id="node20" class="node"><title>Node20</title>
<g id="a_node20"><a xlink:href="../../dd/d1e/torcupnp_8h.html" target="_top" xlink:title="torcupnp.h">
<polygon fill="white" stroke="black" points="1090,-112.5 1090,-131.5 1158,-131.5 1158,-112.5 1090,-112.5"/>
<text text-anchor="middle" x="1124" y="-119.5" font-family="Helvetica,sans-Serif" font-size="10.00">torcupnp.h</text>
</a>
</g>
</g>
<!-- Node1&#45;&gt;Node20 -->
<g id="edge19" class="edge"><title>Node1&#45;&gt;Node20</title>
<path fill="none" stroke="midnightblue" d="M1303.41,-166.059C1260.37,-155.728 1196.79,-140.47 1158.01,-131.163"/>
<polygon fill="midnightblue" stroke="midnightblue" points="1302.81,-169.513 1313.35,-168.444 1304.44,-162.706 1302.81,-169.513"/>
</g>
<!-- Node22 -->
<g id="node22" class="node"><title>Node22</title>
<g id="a_node22"><a xlink:href="../../d9/de1/torcssdp_8cpp.html" target="_top" xlink:title="torcssdp.cpp">
<polygon fill="white" stroke="black" points="1094,-0.5 1094,-19.5 1172,-19.5 1172,-0.5 1094,-0.5"/>
<text text-anchor="middle" x="1133" y="-7.5" font-family="Helvetica,sans-Serif" font-size="10.00">torcssdp.cpp</text>
</a>
</g>
</g>
<!-- Node1&#45;&gt;Node22 -->
<g id="edge35" class="edge"><title>Node1&#45;&gt;Node22</title>
<path fill="none" stroke="midnightblue" d="M1287.82,-175.562C1217.06,-172.456 1106.96,-162.681 1081,-132 1074.16,-123.92 1064.35,-94.2069 1082,-56 1089.33,-40.1356 1105.23,-27.5742 1117.34,-19.7989"/>
<polygon fill="midnightblue" stroke="midnightblue" points="1287.82,-179.065 1297.96,-175.974 1288.11,-172.071 1287.82,-179.065"/>
</g>
<!-- Node25 -->
<g id="node25" class="node"><title>Node25</title>
<g id="a_node25"><a xlink:href="../../d9/db2/torcupnpcontent_8cpp.html" target="_top" xlink:title="torcupnpcontent.cpp">
<polygon fill="white" stroke="black" points="1312,-56.5 1312,-75.5 1428,-75.5 1428,-56.5 1312,-56.5"/>
<text text-anchor="middle" x="1370" y="-63.5" font-family="Helvetica,sans-Serif" font-size="10.00">torcupnpcontent.cpp</text>
</a>
</g>
</g>
<!-- Node1&#45;&gt;Node25 -->
<g id="edge36" class="edge"><title>Node1&#45;&gt;Node25</title>
<path fill="none" stroke="midnightblue" d="M1287.68,-170.454C1237.65,-162.553 1179.14,-145.852 1205,-112 1218.11,-94.8336 1269.62,-82.6441 1311.64,-75.3195"/>
<polygon fill="midnightblue" stroke="midnightblue" points="1287.47,-173.96 1297.87,-171.964 1288.49,-167.036 1287.47,-173.96"/>
</g>
<!-- Node26 -->
<g id="node26" class="node"><title>Node26</title>
<g id="a_node26"><a xlink:href="../../d5/d9a/torcnetworkedcontext_8h.html" target="_top" xlink:title="torcnetworkedcontext.h">
<polygon fill="white" stroke="black" points="1214,-112.5 1214,-131.5 1344,-131.5 1344,-112.5 1214,-112.5"/>
<text text-anchor="middle" x="1279" y="-119.5" font-family="Helvetica,sans-Serif" font-size="10.00">torcnetworkedcontext.h</text>
</a>
</g>
</g>
<!-- Node1&#45;&gt;Node26 -->
<g id="edge27" class="edge"><title>Node1&#45;&gt;Node26</title>
<path fill="none" stroke="midnightblue" d="M1329.69,-162.101C1317.09,-152.382 1301.07,-140.027 1290.45,-131.834"/>
<polygon fill="midnightblue" stroke="midnightblue" points="1327.7,-164.987 1337.75,-168.324 1331.97,-159.445 1327.7,-164.987"/>
</g>
<!-- Node28 -->
<g id="node28" class="node"><title>Node28</title>
<g id="a_node28"><a xlink:href="../../d2/da7/torcpower_8cpp.html" target="_top" xlink:title="torcpower.cpp">
<polygon fill="white" stroke="black" points="2345.5,-112.5 2345.5,-131.5 2428.5,-131.5 2428.5,-112.5 2345.5,-112.5"/>
<text text-anchor="middle" x="2387" y="-119.5" font-family="Helvetica,sans-Serif" font-size="10.00">torcpower.cpp</text>
</a>
</g>
</g>
<!-- Node1&#45;&gt;Node28 -->
<g id="edge30" class="edge"><title>Node1&#45;&gt;Node28</title>
<path fill="none" stroke="midnightblue" d="M1410.39,-177.026C1565.93,-176.481 1987.97,-171.186 2337,-132 2339.72,-131.695 2342.51,-131.332 2345.32,-130.929"/>
<polygon fill="midnightblue" stroke="midnightblue" points="1410.08,-173.527 1400.09,-177.057 1410.1,-180.527 1410.08,-173.527"/>
</g>
<!-- Node29 -->
<g id="node29" class="node"><title>Node29</title>
<g id="a_node29"><a xlink:href="../../d8/d8c/torcqthread_8cpp.html" target="_top" xlink:title="torcqthread.cpp">
<polygon fill="white" stroke="black" points="2446.5,-112.5 2446.5,-131.5 2539.5,-131.5 2539.5,-112.5 2446.5,-112.5"/>
<text text-anchor="middle" x="2493" y="-119.5" font-family="Helvetica,sans-Serif" font-size="10.00">torcqthread.cpp</text>
</a>
</g>
</g>
<!-- Node1&#45;&gt;Node29 -->
<g id="edge31" class="edge"><title>Node1&#45;&gt;Node29</title>
<path fill="none" stroke="midnightblue" d="M1410.2,-177.059C1576.08,-176.66 2048.03,-171.817 2438,-132 2440.7,-131.725 2443.46,-131.402 2446.24,-131.046"/>
<polygon fill="midnightblue" stroke="midnightblue" points="1410.18,-173.559 1400.19,-177.078 1410.19,-180.559 1410.18,-173.559"/>
</g>
<!-- Node30 -->
<g id="node30" class="node"><title>Node30</title>
<g id="a_node30"><a xlink:href="../../de/d3c/torcsetting_8cpp.html" target="_top" xlink:title="torcsetting.cpp">
<polygon fill="white" stroke="black" points="2557.5,-112.5 2557.5,-131.5 2646.5,-131.5 2646.5,-112.5 2557.5,-112.5"/>
<text text-anchor="middle" x="2602" y="-119.5" font-family="Helvetica,sans-Serif" font-size="10.00">torcsetting.cpp</text>
</a>
</g>
</g>
<!-- Node1&#45;&gt;Node30 -->
<g id="edge32" class="edge"><title>Node1&#45;&gt;Node30</title>
<path fill="none" stroke="midnightblue" d="M1410.2,-177.523C1587.14,-178.428 2114.39,-176.856 2549,-132 2551.69,-131.722 2554.45,-131.392 2557.24,-131.024"/>
<polygon fill="midnightblue" stroke="midnightblue" points="1410.07,-174.022 1400.05,-177.466 1410.03,-181.022 1410.07,-174.022"/>
</g>
<!-- Node31 -->
<g id="node31" class="node"><title>Node31</title>
<g id="a_node31"><a xlink:href="../../d8/d51/torctime_8cpp.html" target="_top" xlink:title="torctime.cpp">
<polygon fill="white" stroke="black" points="2664.5,-112.5 2664.5,-131.5 2741.5,-131.5 2741.5,-112.5 2664.5,-112.5"/>
<text text-anchor="middle" x="2703" y="-119.5" font-family="Helvetica,sans-Serif" font-size="10.00">torctime.cpp</text>
</a>
</g>
</g>
<!-- Node1&#45;&gt;Node31 -->
<g id="edge33" class="edge"><title>Node1&#45;&gt;Node31</title>
<path fill="none" stroke="midnightblue" d="M1410.47,-176.147C1634.93,-172.834 2410.02,-159.617 2656,-132 2658.72,-131.694 2661.53,-131.318 2664.34,-130.894"/>
<polygon fill="midnightblue" stroke="midnightblue" points="1410.15,-172.651 1400.2,-176.297 1410.25,-179.65 1410.15,-172.651"/>
</g>
<!-- Node32 -->
<g id="node32" class="node"><title>Node32</title>
<g id="a_node32"><a xlink:href="../../d5/d2f/torcuser_8cpp.html" target="_top" xlink:title="torcuser.cpp">
<polygon fill="white" stroke="black" points="2760,-112.5 2760,-131.5 2836,-131.5 2836,-112.5 2760,-112.5"/>
<text text-anchor="middle" x="2798" y="-119.5" font-family="Helvetica,sans-Serif" font-size="10.00">torcuser.cpp</text>
</a>
</g>
</g>
<!-- Node1&#45;&gt;Node32 -->
<g id="edge34" class="edge"><title>Node1&#45;&gt;Node32</title>
<path fill="none" stroke="midnightblue" d="M1410.22,-176.316C1644.64,-173.497 2485.38,-161.51 2751,-132 2753.89,-131.679 2756.87,-131.277 2759.86,-130.823"/>
<polygon fill="midnightblue" stroke="midnightblue" points="1410.12,-172.817 1400.17,-176.435 1410.21,-179.816 1410.12,-172.817"/>
</g>
<!-- Node6 -->
<g id="node6" class="node"><title>Node6</title>
<g id="a_node6"><a xlink:href="../../d8/de9/torcsystemnotification_8cpp.html" target="_top" xlink:title="torcsystemnotification.cpp">
<polygon fill="white" stroke="black" points="412.5,-56.5 412.5,-75.5 555.5,-75.5 555.5,-56.5 412.5,-56.5"/>
<text text-anchor="middle" x="484" y="-63.5" font-family="Helvetica,sans-Serif" font-size="10.00">torcsystemnotification.cpp</text>
</a>
</g>
</g>
<!-- Node5&#45;&gt;Node6 -->
<g id="edge5" class="edge"><title>Node5&#45;&gt;Node6</title>
<path fill="none" stroke="midnightblue" d="M484,-101.805C484,-92.9102 484,-82.7798 484,-75.7511"/>
<polygon fill="midnightblue" stroke="midnightblue" points="480.5,-102.083 484,-112.083 487.5,-102.083 480.5,-102.083"/>
</g>
<!-- Node21 -->
<g id="node21" class="node"><title>Node21</title>
<g id="a_node21"><a xlink:href="../../de/d48/torcnetworkedcontext_8cpp.html" target="_top" xlink:title="torcnetworkedcontext.cpp">
<polygon fill="white" stroke="black" points="1446.5,-56.5 1446.5,-75.5 1587.5,-75.5 1587.5,-56.5 1446.5,-56.5"/>
<text text-anchor="middle" x="1517" y="-63.5" font-family="Helvetica,sans-Serif" font-size="10.00">torcnetworkedcontext.cpp</text>
</a>
</g>
</g>
<!-- Node20&#45;&gt;Node21 -->
<g id="edge20" class="edge"><title>Node20&#45;&gt;Node21</title>
<path fill="none" stroke="midnightblue" d="M1168.44,-114.893C1238.55,-105.26 1375.03,-86.5078 1454.82,-75.5435"/>
<polygon fill="midnightblue" stroke="midnightblue" points="1167.62,-111.474 1158.19,-116.302 1168.57,-118.408 1167.62,-111.474"/>
</g>
<!-- Node20&#45;&gt;Node22 -->
<g id="edge21" class="edge"><title>Node20&#45;&gt;Node22</title>
<path fill="none" stroke="midnightblue" d="M1144.24,-105.859C1153.01,-98.0313 1162.32,-87.672 1167,-76 1175.44,-54.9595 1155.7,-31.7536 1142.9,-19.5658"/>
<polygon fill="midnightblue" stroke="midnightblue" points="1141.95,-103.217 1136.5,-112.302 1146.42,-108.599 1141.95,-103.217"/>
</g>
<!-- Node23 -->
<g id="node23" class="node"><title>Node23</title>
<g id="a_node23"><a xlink:href="../../dd/d3e/torcssdp_8h.html" target="_top" xlink:title="torcssdp.h">
<polygon fill="white" stroke="black" points="1090.5,-56.5 1090.5,-75.5 1157.5,-75.5 1157.5,-56.5 1090.5,-56.5"/>
<text text-anchor="middle" x="1124" y="-63.5" font-family="Helvetica,sans-Serif" font-size="10.00">torcssdp.h</text>
</a>
</g>
</g>
<!-- Node20&#45;&gt;Node23 -->
<g id="edge22" class="edge"><title>Node20&#45;&gt;Node23</title>
<path fill="none" stroke="midnightblue" d="M1124,-101.805C1124,-92.9102 1124,-82.7798 1124,-75.7511"/>
<polygon fill="midnightblue" stroke="midnightblue" points="1120.5,-102.083 1124,-112.083 1127.5,-102.083 1120.5,-102.083"/>
</g>
<!-- Node24 -->
<g id="node24" class="node"><title>Node24</title>
<g id="a_node24"><a xlink:href="../../d4/ddf/torcupnp_8cpp.html" target="_top" xlink:title="torcupnp.cpp">
<polygon fill="white" stroke="black" points="1214,-56.5 1214,-75.5 1294,-75.5 1294,-56.5 1214,-56.5"/>
<text text-anchor="middle" x="1254" y="-63.5" font-family="Helvetica,sans-Serif" font-size="10.00">torcupnp.cpp</text>
</a>
</g>
</g>
<!-- Node20&#45;&gt;Node24 -->
<g id="edge25" class="edge"><title>Node20&#45;&gt;Node24</title>
<path fill="none" stroke="midnightblue" d="M1154.09,-108.503C1178.46,-98.3795 1212.14,-84.388 1233.5,-75.5164"/>
<polygon fill="midnightblue" stroke="midnightblue" points="1152.49,-105.375 1144.6,-112.444 1155.18,-111.84 1152.49,-105.375"/>
</g>
<!-- Node20&#45;&gt;Node25 -->
<g id="edge26" class="edge"><title>Node20&#45;&gt;Node25</title>
<path fill="none" stroke="midnightblue" d="M1167.98,-111.345C1214.41,-101.155 1286.87,-85.2479 1331.22,-75.5118"/>
<polygon fill="midnightblue" stroke="midnightblue" points="1167.22,-107.929 1158.21,-113.492 1168.72,-114.766 1167.22,-107.929"/>
</g>
<!-- Node23&#45;&gt;Node11 -->
<g id="edge23" class="edge"><title>Node23&#45;&gt;Node11</title>
<path fill="none" stroke="midnightblue" d="M1098.91,-51.4526C1080.45,-41.4835 1055.9,-28.2279 1040.03,-19.6545"/>
<polygon fill="midnightblue" stroke="midnightblue" points="1097.47,-54.6521 1107.93,-56.324 1100.8,-48.4928 1097.47,-54.6521"/>
</g>
<!-- Node23&#45;&gt;Node22 -->
<g id="edge24" class="edge"><title>Node23&#45;&gt;Node22</title>
<path fill="none" stroke="midnightblue" d="M1127.15,-46.1005C1128.64,-37.1357 1130.36,-26.8579 1131.54,-19.7511"/>
<polygon fill="midnightblue" stroke="midnightblue" points="1123.68,-45.6436 1125.49,-56.083 1130.58,-46.7945 1123.68,-45.6436"/>
</g>
<!-- Node26&#45;&gt;Node21 -->
<g id="edge29" class="edge"><title>Node26&#45;&gt;Node21</title>
<path fill="none" stroke="midnightblue" d="M1326.52,-110.217C1371.5,-100.013 1438.1,-84.9006 1479.46,-75.5164"/>
<polygon fill="midnightblue" stroke="midnightblue" points="1325.69,-106.818 1316.71,-112.444 1327.24,-113.644 1325.69,-106.818"/>
</g>
<!-- Node27 -->
<g id="node27" class="node"><title>Node27</title>
<g id="a_node27"><a xlink:href="../../db/d78/torcwebsocket_8cpp.html" target="_top" xlink:title="torcwebsocket.cpp">
<polygon fill="white" stroke="black" points="1606,-56.5 1606,-75.5 1712,-75.5 1712,-56.5 1606,-56.5"/>
<text text-anchor="middle" x="1659" y="-63.5" font-family="Helvetica,sans-Serif" font-size="10.00">torcwebsocket.cpp</text>
</a>
</g>
</g>
<!-- Node26&#45;&gt;Node27 -->
<g id="edge28" class="edge"><title>Node26&#45;&gt;Node27</title>
<path fill="none" stroke="midnightblue" d="M1349.73,-111.065C1414.18,-101.995 1511.99,-88.1842 1597,-76 1599.91,-75.5833 1602.89,-75.1544 1605.9,-74.7205"/>
<polygon fill="midnightblue" stroke="midnightblue" points="1349.09,-107.62 1339.68,-112.48 1350.07,-114.552 1349.09,-107.62"/>
</g>
</g>
</svg>
        <g id="navigator" transform="translate(0 0)" fill="#404254">
                <rect fill="#f2f5e9" fill-opacity="0.5" stroke="#606060" stroke-width=".5" x="0" y="0" width="60" height="60"/>
                <use id="zoomplus" xlink:href="#zoomPlus" x="17" y="9" onmousedown="handleZoom(evt,'in')"/>
                <use id="zoomminus" xlink:href="#zoomMin" x="42" y="9" onmousedown="handleZoom(evt,'out')"/>
                <use id="reset" xlink:href="#resetDef" x="30" y="36" onmousedown="handleReset()"/>
                <g id="arrowUp" xlink:href="#dirArrow" transform="translate(30 24)" onmousedown="handlePan(0,-1)">
                  <use xlink:href="#rim" fill="#404040">
                        <set attributeName="fill" to="#808080" begin="arrowUp.mouseover" end="arrowUp.mouseout"/>
                  </use>
                  <path fill="none" stroke="white" stroke-width="1.5" d="M0,-3.0v7 M-2.5,-0.5L0,-3.0L2.5,-0.5"/>
                </g>
                <g id="arrowRight" xlink:href="#dirArrow" transform="rotate(90) translate(36 -43)" onmousedown="handlePan(1,0)">
                  <use xlink:href="#rim" fill="#404040">
                        <set attributeName="fill" to="#808080" begin="arrowRight.mouseover" end="arrowRight.mouseout"/>
                  </use>
                  <path fill="none" stroke="white" stroke-width="1.5" d="M0,-3.0v7 M-2.5,-0.5L0,-3.0L2.5,-0.5"/>
                </g>
                <g id="arrowDown" xlink:href="#dirArrow" transform="rotate(180) translate(-30 -48)" onmousedown="handlePan(0,1)">
                  <use xlink:href="#rim" fill="#404040">
                        <set attributeName="fill" to="#808080" begin="arrowDown.mouseover" end="arrowDown.mouseout"/>
                  </use>
                  <path fill="none" stroke="white" stroke-width="1.5" d="M0,-3.0v7 M-2.5,-0.5L0,-3.0L2.5,-0.5"/>
                </g>
                <g id="arrowLeft" xlink:href="#dirArrow" transform="rotate(270) translate(-36 17)" onmousedown="handlePan(-1,0)">
                  <use xlink:href="#rim" fill="#404040">
                        <set attributeName="fill" to="#808080" begin="arrowLeft.mouseover" end="arrowLeft.mouseout"/>
                  </use>
                  <path fill="none" stroke="white" stroke-width="1.5" d="M0,-3.0v7 M-2.5,-0.5L0,-3.0L2.5,-0.5"/>
                </g>
        </g>
        <svg viewBox="0 0 15 15" width="100%" height="30px" preserveAspectRatio="xMaxYMin meet">
         <g id="arrow_out" transform="scale(0.3 0.3)">
          <a xlink:href="torclocalcontext_8h__dep__incl_org.svg" target="_base">
           <rect id="button" ry="5" rx="5" y="6" x="6" height="38" width="38"
                fill="#f2f5e9" fill-opacity="0.5" stroke="#606060" stroke-width="1.0"/>
           <path id="arrow"
             d="M 11.500037,31.436501 C 11.940474,20.09759 22.043105,11.32322 32.158766,21.979434 L 37.068811,17.246167 C 37.068811,17.246167 37.088388,32 37.088388,32 L 22.160133,31.978069 C 22.160133,31.978069 26.997745,27.140456 26.997745,27.140456 C 18.528582,18.264221 13.291696,25.230495 11.500037,31.436501 z"
             style="fill:#404040;"/>
          </a>
         </g>
        </svg>
</svg>
