<?xml version="1.0" encoding="UTF-8" standalone="no"?>
<!DOCTYPE svg PUBLIC "-//W3C//DTD SVG 1.1//EN"
 "http://www.w3.org/Graphics/SVG/1.1/DTD/svg11.dtd">
<!-- Generated by graphviz version 2.38.0 (20140413.2041)
 -->
<!-- Title: torclocalcontext.h Pages: 1 -->
<svg width="2855pt" height="196pt"
 viewBox="0.00 0.00 2855.00 196.00" xmlns="http://www.w3.org/2000/svg" xmlns:xlink="http://www.w3.org/1999/xlink">
<g id="graph0" class="graph" transform="scale(1 1) rotate(0) translate(4 192)">
<title>torclocalcontext.h</title>
<polygon fill="white" stroke="none" points="-4,4 -4,-192 2851,-192 2851,4 -4,4"/>
<!-- Node1 -->
<g id="node1" class="node"><title>Node1</title>
<polygon fill="#bfbfbf" stroke="black" points="1509,-168.5 1509,-187.5 1611,-187.5 1611,-168.5 1509,-168.5"/>
<text text-anchor="middle" x="1560" y="-175.5" font-family="Helvetica,sans-Serif" font-size="10.00">torclocalcontext.h</text>
</g>
<!-- Node2 -->
<g id="node2" class="node"><title>Node2</title>
<g id="a_node2"><a xlink:href="../../d3/d4a/torctimercontrol_8cpp.html" target="_top" xlink:title="torctimercontrol.cpp">
<polygon fill="white" stroke="black" points="0,-112.5 0,-131.5 114,-131.5 114,-112.5 0,-112.5"/>
<text text-anchor="middle" x="57" y="-119.5" font-family="Helvetica,sans-Serif" font-size="10.00">torctimercontrol.cpp</text>
</a>
</g>
</g>
<!-- Node1&#45;&gt;Node2 -->
<g id="edge1" class="edge"><title>Node1&#45;&gt;Node2</title>
<path fill="none" stroke="midnightblue" d="M1498.74,-177.361C1299.87,-178.044 654.486,-176.438 123,-132 120.119,-131.759 117.171,-131.479 114.197,-131.171"/>
<polygon fill="midnightblue" stroke="midnightblue" points="1498.99,-180.86 1508.98,-177.322 1498.97,-173.86 1498.99,-180.86"/>
</g>
<!-- Node3 -->
<g id="node3" class="node"><title>Node3</title>
<g id="a_node3"><a xlink:href="../../da/dcd/torctransitioncontrol_8cpp.html" target="_top" xlink:title="torctransitioncontrol.cpp">
<polygon fill="white" stroke="black" points="132,-112.5 132,-131.5 266,-131.5 266,-112.5 132,-112.5"/>
<text text-anchor="middle" x="199" y="-119.5" font-family="Helvetica,sans-Serif" font-size="10.00">torctransitioncontrol.cpp</text>
</a>
</g>
</g>
<!-- Node1&#45;&gt;Node3 -->
<g id="edge2" class="edge"><title>Node1&#45;&gt;Node3</title>
<path fill="none" stroke="midnightblue" d="M1498.73,-176.654C1313.77,-175.224 744.931,-167.991 275,-132 272.085,-131.777 269.111,-131.525 266.107,-131.253"/>
<polygon fill="midnightblue" stroke="midnightblue" points="1498.78,-180.155 1508.8,-176.729 1498.83,-173.155 1498.78,-180.155"/>
</g>
<!-- Node4 -->
<g id="node4" class="node"><title>Node4</title>
<g id="a_node4"><a xlink:href="../../d0/ddb/torcsysteminput_8cpp.html" target="_top" xlink:title="torcsysteminput.cpp">
<polygon fill="white" stroke="black" points="284.5,-112.5 284.5,-131.5 399.5,-131.5 399.5,-112.5 284.5,-112.5"/>
<text text-anchor="middle" x="342" y="-119.5" font-family="Helvetica,sans-Serif" font-size="10.00">torcsysteminput.cpp</text>
</a>
</g>
</g>
<!-- Node1&#45;&gt;Node4 -->
<g id="edge3" class="edge"><title>Node1&#45;&gt;Node4</title>
<path fill="none" stroke="midnightblue" d="M1498.65,-176.684C1326.39,-175.35 823.711,-168.378 408,-132 405.235,-131.758 402.409,-131.482 399.556,-131.181"/>
<polygon fill="midnightblue" stroke="midnightblue" points="1498.77,-180.185 1508.79,-176.759 1498.82,-173.185 1498.77,-180.185"/>
</g>
<!-- Node5 -->
<g id="node5" class="node"><title>Node5</title>
<g id="a_node5"><a xlink:href="../../d8/de9/torcsystemnotification_8cpp.html" target="_top" xlink:title="torcsystemnotification.cpp">
<polygon fill="white" stroke="black" points="417.5,-112.5 417.5,-131.5 560.5,-131.5 560.5,-112.5 417.5,-112.5"/>
<text text-anchor="middle" x="489" y="-119.5" font-family="Helvetica,sans-Serif" font-size="10.00">torcsystemnotification.cpp</text>
</a>
</g>
</g>
<!-- Node1&#45;&gt;Node5 -->
<g id="edge4" class="edge"><title>Node1&#45;&gt;Node5</title>
<path fill="none" stroke="midnightblue" d="M1498.56,-175.634C1342.86,-171.863 920.198,-159.698 569,-132 566.213,-131.78 563.374,-131.54 560.507,-131.283"/>
<polygon fill="midnightblue" stroke="midnightblue" points="1498.79,-179.14 1508.87,-175.881 1498.95,-172.142 1498.79,-179.14"/>
</g>
<!-- Node6 -->
<g id="node6" class="node"><title>Node6</title>
<g id="a_node6"><a xlink:href="../../d6/d7a/server_2main_8cpp.html" target="_top" xlink:title="main.cpp">
<polygon fill="white" stroke="black" points="578.5,-112.5 578.5,-131.5 639.5,-131.5 639.5,-112.5 578.5,-112.5"/>
<text text-anchor="middle" x="609" y="-119.5" font-family="Helvetica,sans-Serif" font-size="10.00">main.cpp</text>
</a>
</g>
</g>
<!-- Node1&#45;&gt;Node6 -->
<g id="edge5" class="edge"><title>Node1&#45;&gt;Node6</title>
<path fill="none" stroke="midnightblue" d="M1498.66,-177.595C1351.41,-178.237 966.563,-175.242 649,-132 646.038,-131.597 642.971,-131.083 639.913,-130.507"/>
<polygon fill="midnightblue" stroke="midnightblue" points="1498.87,-181.094 1508.85,-177.543 1498.83,-174.094 1498.87,-181.094"/>
</g>
<!-- Node7 -->
<g id="node7" class="node"><title>Node7</title>
<g id="a_node7"><a xlink:href="../../d1/d81/torccentral_8cpp.html" target="_top" xlink:title="torccentral.cpp">
<polygon fill="white" stroke="black" points="657.5,-112.5 657.5,-131.5 746.5,-131.5 746.5,-112.5 657.5,-112.5"/>
<text text-anchor="middle" x="702" y="-119.5" font-family="Helvetica,sans-Serif" font-size="10.00">torccentral.cpp</text>
</a>
</g>
</g>
<!-- Node1&#45;&gt;Node7 -->
<g id="edge6" class="edge"><title>Node1&#45;&gt;Node7</title>
<path fill="none" stroke="midnightblue" d="M1498.44,-175.846C1363.55,-172.814 1031.92,-162.622 756,-132 752.977,-131.665 749.866,-131.272 746.737,-130.843"/>
<polygon fill="midnightblue" stroke="midnightblue" points="1498.5,-179.348 1508.57,-176.068 1498.65,-172.349 1498.5,-179.348"/>
</g>
<!-- Node8 -->
<g id="node8" class="node"><title>Node8</title>
<g id="a_node8"><a xlink:href="../../d6/ddf/torcxsdtest_8cpp.html" target="_top" xlink:title="torcxsdtest.cpp">
<polygon fill="white" stroke="black" points="764.5,-112.5 764.5,-131.5 855.5,-131.5 855.5,-112.5 764.5,-112.5"/>
<text text-anchor="middle" x="810" y="-119.5" font-family="Helvetica,sans-Serif" font-size="10.00">torcxsdtest.cpp</text>
</a>
</g>
</g>
<!-- Node1&#45;&gt;Node8 -->
<g id="edge7" class="edge"><title>Node1&#45;&gt;Node8</title>
<path fill="none" stroke="midnightblue" d="M1498.64,-175.038C1377.28,-170.714 1098.17,-158.563 865,-132 861.924,-131.65 858.757,-131.246 855.571,-130.808"/>
<polygon fill="midnightblue" stroke="midnightblue" points="1498.72,-178.543 1508.84,-175.396 1498.97,-171.548 1498.72,-178.543"/>
</g>
<!-- Node9 -->
<g id="node9" class="node"><title>Node9</title>
<g id="a_node9"><a xlink:href="../../dd/dbf/testtorclocalcontext_8cpp.html" target="_top" xlink:title="testtorclocalcontext.cpp">
<polygon fill="white" stroke="black" points="874,-112.5 874,-131.5 1006,-131.5 1006,-112.5 874,-112.5"/>
<text text-anchor="middle" x="940" y="-119.5" font-family="Helvetica,sans-Serif" font-size="10.00">testtorclocalcontext.cpp</text>
</a>
</g>
</g>
<!-- Node1&#45;&gt;Node9 -->
<g id="edge8" class="edge"><title>Node1&#45;&gt;Node9</title>
<path fill="none" stroke="midnightblue" d="M1498.72,-172.473C1398.52,-164.94 1193.39,-148.975 1020,-132 1015.55,-131.564 1010.96,-131.097 1006.34,-130.612"/>
<polygon fill="midnightblue" stroke="midnightblue" points="1498.72,-175.983 1508.96,-173.24 1499.25,-169.002 1498.72,-175.983"/>
</g>
<!-- Node10 -->
<g id="node10" class="node"><title>Node10</title>
<g id="a_node10"><a xlink:href="../../de/dc5/torchttpserver_8cpp.html" target="_top" xlink:title="torchttpserver.cpp">
<polygon fill="white" stroke="black" points="1298,-0.5 1298,-19.5 1402,-19.5 1402,-0.5 1298,-0.5"/>
<text text-anchor="middle" x="1350" y="-7.5" font-family="Helvetica,sans-Serif" font-size="10.00">torchttpserver.cpp</text>
</a>
</g>
</g>
<!-- Node1&#45;&gt;Node10 -->
<g id="edge9" class="edge"><title>Node1&#45;&gt;Node10</title>
<path fill="none" stroke="midnightblue" d="M1498.53,-176.091C1370.06,-173.553 1082.55,-164.29 1053,-132 979.043,-51.188 1194.2,-23.1211 1297.75,-14.458"/>
<polygon fill="midnightblue" stroke="midnightblue" points="1498.54,-179.592 1508.61,-176.283 1498.67,-172.593 1498.54,-179.592"/>
</g>
<!-- Node11 -->
<g id="node11" class="node"><title>Node11</title>
<g id="a_node11"><a xlink:href="../../da/d1a/torchttpservices_8cpp.html" target="_top" xlink:title="torchttpservices.cpp">
<polygon fill="white" stroke="black" points="1062,-112.5 1062,-131.5 1176,-131.5 1176,-112.5 1062,-112.5"/>
<text text-anchor="middle" x="1119" y="-119.5" font-family="Helvetica,sans-Serif" font-size="10.00">torchttpservices.cpp</text>
</a>
</g>
</g>
<!-- Node1&#45;&gt;Node11 -->
<g id="edge10" class="edge"><title>Node1&#45;&gt;Node11</title>
<path fill="none" stroke="midnightblue" d="M1498.77,-169.895C1424.67,-161.236 1296.14,-146.022 1186,-132 1182.74,-131.585 1179.39,-131.153 1176.01,-130.713"/>
<polygon fill="midnightblue" stroke="midnightblue" points="1498.52,-173.389 1508.85,-171.072 1499.33,-166.436 1498.52,-173.389"/>
</g>
<!-- Node12 -->
<g id="node12" class="node"><title>Node12</title>
<g id="a_node12"><a xlink:href="../../df/d2a/torcpowerosx_8cpp.html" target="_top" xlink:title="torcpowerosx.cpp">
<polygon fill="white" stroke="black" points="1194.5,-112.5 1194.5,-131.5 1295.5,-131.5 1295.5,-112.5 1194.5,-112.5"/>
<text text-anchor="middle" x="1245" y="-119.5" font-family="Helvetica,sans-Serif" font-size="10.00">torcpowerosx.cpp</text>
</a>
</g>
</g>
<!-- Node1&#45;&gt;Node12 -->
<g id="edge11" class="edge"><title>Node1&#45;&gt;Node12</title>
<path fill="none" stroke="midnightblue" d="M1500.08,-166.727C1440.55,-156.523 1350.34,-141.058 1294.68,-131.516"/>
<polygon fill="midnightblue" stroke="midnightblue" points="1499.64,-170.203 1510.09,-168.444 1500.82,-163.304 1499.64,-170.203"/>
</g>
<!-- Node13 -->
<g id="node13" class="node"><title>Node13</title>
<g id="a_node13"><a xlink:href="../../d7/d74/torcrunlooposx_8cpp.html" target="_top" xlink:title="torcrunlooposx.cpp">
<polygon fill="white" stroke="black" points="1314,-112.5 1314,-131.5 1422,-131.5 1422,-112.5 1314,-112.5"/>
<text text-anchor="middle" x="1368" y="-119.5" font-family="Helvetica,sans-Serif" font-size="10.00">torcrunlooposx.cpp</text>
</a>
</g>
</g>
<!-- Node1&#45;&gt;Node13 -->
<g id="edge12" class="edge"><title>Node1&#45;&gt;Node13</title>
<path fill="none" stroke="midnightblue" d="M1519.82,-165.699C1483.58,-155.507 1431.09,-140.743 1398.28,-131.516"/>
<polygon fill="midnightblue" stroke="midnightblue" points="1519,-169.105 1529.58,-168.444 1520.9,-162.367 1519,-169.105"/>
</g>
<!-- Node14 -->
<g id="node14" class="node"><title>Node14</title>
<g id="a_node14"><a xlink:href="../../d5/d95/torcadminthread_8cpp.html" target="_top" xlink:title="torcadminthread.cpp">
<polygon fill="white" stroke="black" points="1440.5,-112.5 1440.5,-131.5 1557.5,-131.5 1557.5,-112.5 1440.5,-112.5"/>
<text text-anchor="middle" x="1499" y="-119.5" font-family="Helvetica,sans-Serif" font-size="10.00">torcadminthread.cpp</text>
</a>
</g>
</g>
<!-- Node1&#45;&gt;Node14 -->
<g id="edge13" class="edge"><title>Node1&#45;&gt;Node14</title>
<path fill="none" stroke="midnightblue" d="M1542.53,-161.537C1531.66,-151.909 1518.06,-139.869 1508.98,-131.834"/>
<polygon fill="midnightblue" stroke="midnightblue" points="1540.39,-164.316 1550.2,-168.324 1545.03,-159.075 1540.39,-164.316"/>
</g>
<!-- Node15 -->
<g id="node15" class="node"><title>Node15</title>
<g id="a_node15"><a xlink:href="../../dc/d96/torcbonjour_8cpp.html" target="_top" xlink:title="torcbonjour.cpp">
<polygon fill="white" stroke="black" points="1575.5,-112.5 1575.5,-131.5 1666.5,-131.5 1666.5,-112.5 1575.5,-112.5"/>
<text text-anchor="middle" x="1621" y="-119.5" font-family="Helvetica,sans-Serif" font-size="10.00">torcbonjour.cpp</text>
</a>
</g>
</g>
<!-- Node1&#45;&gt;Node15 -->
<g id="edge14" class="edge"><title>Node1&#45;&gt;Node15</title>
<path fill="none" stroke="midnightblue" d="M1577.47,-161.537C1588.34,-151.909 1601.94,-139.869 1611.02,-131.834"/>
<polygon fill="midnightblue" stroke="midnightblue" points="1574.97,-159.075 1569.8,-168.324 1579.61,-164.316 1574.97,-159.075"/>
</g>
<!-- Node16 -->
<g id="node16" class="node"><title>Node16</title>
<g id="a_node16"><a xlink:href="../../d3/df3/torclanguage_8cpp.html" target="_top" xlink:title="torclanguage.cpp">
<polygon fill="white" stroke="black" points="1685,-112.5 1685,-131.5 1785,-131.5 1785,-112.5 1685,-112.5"/>
<text text-anchor="middle" x="1735" y="-119.5" font-family="Helvetica,sans-Serif" font-size="10.00">torclanguage.cpp</text>
</a>
</g>
</g>
<!-- Node1&#45;&gt;Node16 -->
<g id="edge15" class="edge"><title>Node1&#45;&gt;Node16</title>
<path fill="none" stroke="midnightblue" d="M1597.47,-165.436C1630.47,-155.255 1677.76,-140.664 1707.4,-131.516"/>
<polygon fill="midnightblue" stroke="midnightblue" points="1596.25,-162.151 1587.73,-168.444 1598.32,-168.839 1596.25,-162.151"/>
</g>
<!-- Node17 -->
<g id="node17" class="node"><title>Node17</title>
<g id="a_node17"><a xlink:href="../../da/d67/torclocalcontext_8cpp.html" target="_top" xlink:title="torclocalcontext.cpp">
<polygon fill="white" stroke="black" points="1803.5,-112.5 1803.5,-131.5 1916.5,-131.5 1916.5,-112.5 1803.5,-112.5"/>
<text text-anchor="middle" x="1860" y="-119.5" font-family="Helvetica,sans-Serif" font-size="10.00">torclocalcontext.cpp</text>
</a>
</g>
</g>
<!-- Node1&#45;&gt;Node17 -->
<g id="edge16" class="edge"><title>Node1&#45;&gt;Node17</title>
<path fill="none" stroke="midnightblue" d="M1617.42,-166.664C1674.12,-156.459 1759.79,-141.039 1812.69,-131.516"/>
<polygon fill="midnightblue" stroke="midnightblue" points="1616.76,-163.227 1607.54,-168.444 1618,-170.117 1616.76,-163.227"/>
</g>
<!-- Node18 -->
<g id="node18" class="node"><title>Node18</title>
<g id="a_node18"><a xlink:href="../../da/d9c/torcnetwork_8cpp.html" target="_top" xlink:title="torcnetwork.cpp">
<polygon fill="white" stroke="black" points="1934.5,-112.5 1934.5,-131.5 2027.5,-131.5 2027.5,-112.5 1934.5,-112.5"/>
<text text-anchor="middle" x="1981" y="-119.5" font-family="Helvetica,sans-Serif" font-size="10.00">torcnetwork.cpp</text>
</a>
</g>
</g>
<!-- Node1&#45;&gt;Node18 -->
<g id="edge17" class="edge"><title>Node1&#45;&gt;Node18</title>
<path fill="none" stroke="midnightblue" d="M1621.36,-170.213C1694.14,-161.986 1819.09,-147.314 1926,-132 1928.68,-131.616 1931.43,-131.208 1934.21,-130.786"/>
<polygon fill="midnightblue" stroke="midnightblue" points="1620.55,-166.781 1611,-171.379 1621.33,-173.737 1620.55,-166.781"/>
</g>
<!-- Node19 -->
<g id="node19" class="node"><title>Node19</title>
<g id="a_node19"><a xlink:href="../../dd/d1e/torcupnp_8h.html" target="_top" xlink:title="torcupnp.h">
<polygon fill="white" stroke="black" points="2046,-112.5 2046,-131.5 2114,-131.5 2114,-112.5 2046,-112.5"/>
<text text-anchor="middle" x="2080" y="-119.5" font-family="Helvetica,sans-Serif" font-size="10.00">torcupnp.h</text>
</a>
</g>
</g>
<!-- Node1&#45;&gt;Node19 -->
<g id="edge18" class="edge"><title>Node1&#45;&gt;Node19</title>
<path fill="none" stroke="midnightblue" d="M1621.2,-173.433C1712.22,-167.628 1888.52,-154.47 2037,-132 2039.87,-131.566 2042.83,-131.063 2045.8,-130.521"/>
<polygon fill="midnightblue" stroke="midnightblue" points="1620.82,-169.949 1611.06,-174.071 1621.26,-176.936 1620.82,-169.949"/>
</g>
<!-- Node21 -->
<g id="node21" class="node"><title>Node21</title>
<g id="a_node21"><a xlink:href="../../d9/de1/torcssdp_8cpp.html" target="_top" xlink:title="torcssdp.cpp">
<polygon fill="white" stroke="black" points="1735,-0.5 1735,-19.5 1813,-19.5 1813,-0.5 1735,-0.5"/>
<text text-anchor="middle" x="1774" y="-7.5" font-family="Helvetica,sans-Serif" font-size="10.00">torcssdp.cpp</text>
</a>
</g>
</g>
<!-- Node1&#45;&gt;Node21 -->
<g id="edge34" class="edge"><title>Node1&#45;&gt;Node21</title>
<path fill="none" stroke="midnightblue" d="M1621.12,-175.586C1795.69,-171.253 2285.54,-156.917 2309,-132 2332.16,-107.41 2331.86,-80.8653 2309,-56 2275.56,-19.6336 1930.61,-12.6384 1813.02,-11.3082"/>
<polygon fill="midnightblue" stroke="midnightblue" points="1620.98,-172.089 1611.07,-175.833 1621.15,-179.086 1620.98,-172.089"/>
</g>
<!-- Node24 -->
<g id="node24" class="node"><title>Node24</title>
<g id="a_node24"><a xlink:href="../../d9/db2/torcupnpcontent_8cpp.html" target="_top" xlink:title="torcupnpcontent.cpp">
<polygon fill="white" stroke="black" points="1900,-56.5 1900,-75.5 2016,-75.5 2016,-56.5 1900,-56.5"/>
<text text-anchor="middle" x="1958" y="-63.5" font-family="Helvetica,sans-Serif" font-size="10.00">torcupnpcontent.cpp</text>
</a>
</g>
</g>
<!-- Node1&#45;&gt;Node24 -->
<g id="edge35" class="edge"><title>Node1&#45;&gt;Node24</title>
<path fill="none" stroke="midnightblue" d="M1621.22,-176.684C1760.07,-175.329 2089.5,-168.285 2123,-132 2129.03,-125.469 2128.4,-119.064 2123,-112 2109.89,-94.8336 2058.38,-82.6441 2016.36,-75.3195"/>
<polygon fill="midnightblue" stroke="midnightblue" points="1621.12,-173.184 1611.16,-176.775 1621.19,-180.184 1621.12,-173.184"/>
</g>
<!-- Node25 -->
<g id="node25" class="node"><title>Node25</title>
<g id="a_node25"><a xlink:href="../../d5/d9a/torcnetworkedcontext_8h.html" target="_top" xlink:title="torcnetworkedcontext.h">
<polygon fill="white" stroke="black" points="2170,-112.5 2170,-131.5 2300,-131.5 2300,-112.5 2170,-112.5"/>
<text text-anchor="middle" x="2235" y="-119.5" font-family="Helvetica,sans-Serif" font-size="10.00">torcnetworkedcontext.h</text>
</a>
</g>
</g>
<!-- Node1&#45;&gt;Node25 -->
<g id="edge26" class="edge"><title>Node1&#45;&gt;Node25</title>
<path fill="none" stroke="midnightblue" d="M1621.14,-173.155C1729.18,-166.188 1960.85,-150.477 2156,-132 2160.54,-131.571 2165.21,-131.102 2169.92,-130.612"/>
<polygon fill="midnightblue" stroke="midnightblue" points="1620.83,-169.667 1611.08,-173.801 1621.28,-176.653 1620.83,-169.667"/>
</g>
<!-- Node27 -->
<g id="node27" class="node"><title>Node27</title>
<g id="a_node27"><a xlink:href="../../d2/da7/torcpower_8cpp.html" target="_top" xlink:title="torcpower.cpp">
<polygon fill="white" stroke="black" points="2356.5,-112.5 2356.5,-131.5 2439.5,-131.5 2439.5,-112.5 2356.5,-112.5"/>
<text text-anchor="middle" x="2398" y="-119.5" font-family="Helvetica,sans-Serif" font-size="10.00">torcpower.cpp</text>
</a>
</g>
</g>
<!-- Node1&#45;&gt;Node27 -->
<g id="edge29" class="edge"><title>Node1&#45;&gt;Node27</title>
<path fill="none" stroke="midnightblue" d="M1621.72,-175.585C1754.06,-172.082 2074.8,-161.083 2342,-132 2346.7,-131.489 2351.6,-130.853 2356.47,-130.157"/>
<polygon fill="midnightblue" stroke="midnightblue" points="1621.29,-172.095 1611.39,-175.853 1621.47,-179.092 1621.29,-172.095"/>
</g>
<!-- Node28 -->
<g id="node28" class="node"><title>Node28</title>
<g id="a_node28"><a xlink:href="../../d8/d8c/torcqthread_8cpp.html" target="_top" xlink:title="torcqthread.cpp">
<polygon fill="white" stroke="black" points="2457.5,-112.5 2457.5,-131.5 2550.5,-131.5 2550.5,-112.5 2457.5,-112.5"/>
<text text-anchor="middle" x="2504" y="-119.5" font-family="Helvetica,sans-Serif" font-size="10.00">torcqthread.cpp</text>
</a>
</g>
</g>
<!-- Node1&#45;&gt;Node28 -->
<g id="edge30" class="edge"><title>Node1&#45;&gt;Node28</title>
<path fill="none" stroke="midnightblue" d="M1621.27,-176.251C1765.8,-173.972 2139.12,-165.092 2449,-132 2451.69,-131.712 2454.46,-131.38 2457.24,-131.016"/>
<polygon fill="midnightblue" stroke="midnightblue" points="1621.21,-172.752 1611.27,-176.404 1621.32,-179.751 1621.21,-172.752"/>
</g>
<!-- Node29 -->
<g id="node29" class="node"><title>Node29</title>
<g id="a_node29"><a xlink:href="../../de/d3c/torcsetting_8cpp.html" target="_top" xlink:title="torcsetting.cpp">
<polygon fill="white" stroke="black" points="2568.5,-112.5 2568.5,-131.5 2657.5,-131.5 2657.5,-112.5 2568.5,-112.5"/>
<text text-anchor="middle" x="2613" y="-119.5" font-family="Helvetica,sans-Serif" font-size="10.00">torcsetting.cpp</text>
</a>
</g>
</g>
<!-- Node1&#45;&gt;Node29 -->
<g id="edge31" class="edge"><title>Node1&#45;&gt;Node29</title>
<path fill="none" stroke="midnightblue" d="M1621.55,-176.864C1778.47,-175.946 2206.11,-169.864 2560,-132 2562.69,-131.712 2565.45,-131.374 2568.23,-131"/>
<polygon fill="midnightblue" stroke="midnightblue" points="1621.14,-173.366 1611.16,-176.919 1621.18,-180.366 1621.14,-173.366"/>
</g>
<!-- Node30 -->
<g id="node30" class="node"><title>Node30</title>
<g id="a_node30"><a xlink:href="../../d8/d51/torctime_8cpp.html" target="_top" xlink:title="torctime.cpp">
<polygon fill="white" stroke="black" points="2675.5,-112.5 2675.5,-131.5 2752.5,-131.5 2752.5,-112.5 2675.5,-112.5"/>
<text text-anchor="middle" x="2714" y="-119.5" font-family="Helvetica,sans-Serif" font-size="10.00">torctime.cpp</text>
</a>
</g>
</g>
<!-- Node1&#45;&gt;Node30 -->
<g id="edge32" class="edge"><title>Node1&#45;&gt;Node30</title>
<path fill="none" stroke="midnightblue" d="M1621.38,-177.694C1789.35,-178.905 2270.46,-177.77 2667,-132 2669.72,-131.686 2672.53,-131.303 2675.34,-130.874"/>
<polygon fill="midnightblue" stroke="midnightblue" points="1621.27,-174.193 1611.24,-177.615 1621.22,-181.193 1621.27,-174.193"/>
</g>
<!-- Node31 -->
<g id="node31" class="node"><title>Node31</title>
<g id="a_node31"><a xlink:href="../../d5/d2f/torcuser_8cpp.html" target="_top" xlink:title="torcuser.cpp">
<polygon fill="white" stroke="black" points="2771,-112.5 2771,-131.5 2847,-131.5 2847,-112.5 2771,-112.5"/>
<text text-anchor="middle" x="2809" y="-119.5" font-family="Helvetica,sans-Serif" font-size="10.00">torcuser.cpp</text>
</a>
</g>
</g>
<!-- Node1&#45;&gt;Node31 -->
<g id="edge33" class="edge"><title>Node1&#45;&gt;Node31</title>
<path fill="none" stroke="midnightblue" d="M1621.11,-175.94C1833.29,-172.066 2537.44,-157.554 2762,-132 2764.89,-131.671 2767.87,-131.264 2770.85,-130.806"/>
<polygon fill="midnightblue" stroke="midnightblue" points="1621.02,-172.441 1611.08,-176.121 1621.15,-179.44 1621.02,-172.441"/>
</g>
<!-- Node20 -->
<g id="node20" class="node"><title>Node20</title>
<g id="a_node20"><a xlink:href="../../de/d48/torcnetworkedcontext_8cpp.html" target="_top" xlink:title="torcnetworkedcontext.cpp">
<polygon fill="white" stroke="black" points="2034.5,-56.5 2034.5,-75.5 2175.5,-75.5 2175.5,-56.5 2034.5,-56.5"/>
<text text-anchor="middle" x="2105" y="-63.5" font-family="Helvetica,sans-Serif" font-size="10.00">torcnetworkedcontext.cpp</text>
</a>
</g>
</g>
<!-- Node19&#45;&gt;Node20 -->
<g id="edge19" class="edge"><title>Node19&#45;&gt;Node20</title>
<path fill="none" stroke="midnightblue" d="M2088.34,-102.983C2092.58,-93.8168 2097.55,-83.0922 2100.95,-75.7511"/>
<polygon fill="midnightblue" stroke="midnightblue" points="2085.15,-101.538 2084.13,-112.083 2091.51,-104.479 2085.15,-101.538"/>
</g>
<!-- Node19&#45;&gt;Node21 -->
<g id="edge20" class="edge"><title>Node19&#45;&gt;Node21</title>
<path fill="none" stroke="midnightblue" d="M2035.57,-112.08C1968.22,-103.24 1832.24,-110.166 1793,-76 1776.51,-61.6391 1773.95,-33.8333 1773.79,-19.7008"/>
<polygon fill="midnightblue" stroke="midnightblue" points="2035.35,-115.587 2045.77,-113.643 2036.41,-108.668 2035.35,-115.587"/>
</g>
<!-- Node22 -->
<g id="node22" class="node"><title>Node22</title>
<g id="a_node22"><a xlink:href="../../dd/d3e/torcssdp_8h.html" target="_top" xlink:title="torcssdp.h">
<polygon fill="white" stroke="black" points="1678.5,-56.5 1678.5,-75.5 1745.5,-75.5 1745.5,-56.5 1678.5,-56.5"/>
<text text-anchor="middle" x="1712" y="-63.5" font-family="Helvetica,sans-Serif" font-size="10.00">torcssdp.h</text>
</a>
</g>
</g>
<!-- Node19&#45;&gt;Node22 -->
<g id="edge21" class="edge"><title>Node19&#45;&gt;Node22</title>
<path fill="none" stroke="midnightblue" d="M2035.6,-111.878C1912.85,-91.472 1879.38,-94.9343 1760,-76 1755.31,-75.2562 1750.38,-74.4072 1745.53,-73.5346"/>
<polygon fill="midnightblue" stroke="midnightblue" points="2035.34,-115.382 2045.78,-113.589 2036.5,-108.479 2035.34,-115.382"/>
</g>
<!-- Node23 -->
<g id="node23" class="node"><title>Node23</title>
<g id="a_node23"><a xlink:href="../../d4/ddf/torcupnp_8cpp.html" target="_top" xlink:title="torcupnp.cpp">
<polygon fill="white" stroke="black" points="1802,-56.5 1802,-75.5 1882,-75.5 1882,-56.5 1802,-56.5"/>
<text text-anchor="middle" x="1842" y="-63.5" font-family="Helvetica,sans-Serif" font-size="10.00">torcupnp.cpp</text>
</a>
</g>
</g>
<!-- Node19&#45;&gt;Node23 -->
<g id="edge24" class="edge"><title>Node19&#45;&gt;Node23</title>
<path fill="none" stroke="midnightblue" d="M2036.14,-111.049C1991.2,-100.853 1922.07,-85.1676 1879.57,-75.5243"/>
<polygon fill="midnightblue" stroke="midnightblue" points="2035.37,-114.464 2045.9,-113.263 2036.92,-107.637 2035.37,-114.464"/>
</g>
<!-- Node19&#45;&gt;Node24 -->
<g id="edge25" class="edge"><title>Node19&#45;&gt;Node24</title>
<path fill="none" stroke="midnightblue" d="M2051.46,-108.368C2028.61,-98.2553 1997.19,-84.3486 1977.24,-75.5164"/>
<polygon fill="midnightblue" stroke="midnightblue" points="2050.11,-111.597 2060.67,-112.444 2052.94,-105.196 2050.11,-111.597"/>
</g>
<!-- Node22&#45;&gt;Node10 -->
<g id="edge22" class="edge"><title>Node22&#45;&gt;Node10</title>
<path fill="none" stroke="midnightblue" d="M1668.06,-58.4458C1601.13,-48.4615 1473.87,-29.478 1402.28,-18.799"/>
<polygon fill="midnightblue" stroke="midnightblue" points="1667.86,-61.9545 1678.27,-59.9683 1668.89,-55.0311 1667.86,-61.9545"/>
</g>
<!-- Node22&#45;&gt;Node21 -->
<g id="edge23" class="edge"><title>Node22&#45;&gt;Node21</title>
<path fill="none" stroke="midnightblue" d="M1729.75,-49.5372C1740.81,-39.9087 1754.63,-27.8694 1763.86,-19.8339"/>
<polygon fill="midnightblue" stroke="midnightblue" points="1727.2,-47.1168 1721.96,-56.324 1731.8,-52.3954 1727.2,-47.1168"/>
</g>
<!-- Node25&#45;&gt;Node20 -->
<g id="edge28" class="edge"><title>Node25&#45;&gt;Node20</title>
<path fill="none" stroke="midnightblue" d="M2204.91,-108.503C2180.54,-98.3795 2146.86,-84.388 2125.5,-75.5164"/>
<polygon fill="midnightblue" stroke="midnightblue" points="2203.82,-111.84 2214.4,-112.444 2206.51,-105.375 2203.82,-111.84"/>
</g>
<!-- Node26 -->
<g id="node26" class="node"><title>Node26</title>
<g id="a_node26"><a xlink:href="../../db/d78/torcwebsocket_8cpp.html" target="_top" xlink:title="torcwebsocket.cpp">
<polygon fill="white" stroke="black" points="2194,-56.5 2194,-75.5 2300,-75.5 2300,-56.5 2194,-56.5"/>
<text text-anchor="middle" x="2247" y="-63.5" font-family="Helvetica,sans-Serif" font-size="10.00">torcwebsocket.cpp</text>
</a>
</g>
</g>
<!-- Node25&#45;&gt;Node26 -->
<g id="edge27" class="edge"><title>Node25&#45;&gt;Node26</title>
<path fill="none" stroke="midnightblue" d="M2239.2,-102.101C2241.19,-93.1357 2243.48,-82.8579 2245.06,-75.7511"/>
<polygon fill="midnightblue" stroke="midnightblue" points="2235.73,-101.562 2236.98,-112.083 2242.57,-103.08 2235.73,-101.562"/>
</g>
</g>
</svg>
