<?xml version="1.0" encoding="UTF-8" standalone="no"?>
<!DOCTYPE svg PUBLIC "-//W3C//DTD SVG 1.1//EN"
 "http://www.w3.org/Graphics/SVG/1.1/DTD/svg11.dtd">
<!-- Generated by graphviz version 2.38.0 (20140413.2041)
 -->
<!-- Title: torcnetworkinputs.h Pages: 1 -->
<svg width="1117pt" height="364pt"
 viewBox="0.00 0.00 1117.26 364.00" xmlns="http://www.w3.org/2000/svg" xmlns:xlink="http://www.w3.org/1999/xlink">
<g id="graph0" class="graph" transform="scale(1 1) rotate(0) translate(4 360)">
<title>torcnetworkinputs.h</title>
<polygon fill="white" stroke="none" points="-4,4 -4,-360 1113.26,-360 1113.26,4 -4,4"/>
<!-- Node1 -->
<g id="node1" class="node"><title>Node1</title>
<polygon fill="#bfbfbf" stroke="black" points="827.5,-336.5 827.5,-355.5 938.5,-355.5 938.5,-336.5 827.5,-336.5"/>
<text text-anchor="middle" x="883" y="-343.5" font-family="Helvetica,sans-Serif" font-size="10.00">torcnetworkinputs.h</text>
</g>
<!-- Node2 -->
<g id="node2" class="node"><title>Node2</title>
<polygon fill="white" stroke="#bfbfbf" points="751.5,-112.5 751.5,-131.5 804.5,-131.5 804.5,-112.5 751.5,-112.5"/>
<text text-anchor="middle" x="778" y="-119.5" font-family="Helvetica,sans-Serif" font-size="10.00">QMutex</text>
</g>
<!-- Node1&#45;&gt;Node2 -->
<g id="edge1" class="edge"><title>Node1&#45;&gt;Node2</title>
<path fill="none" stroke="midnightblue" d="M909.967,-336.438C980.431,-312.754 1160.22,-243.132 1095,-168 1076.82,-147.06 894.388,-131.424 814.802,-125.545"/>
<polygon fill="midnightblue" stroke="midnightblue" points="814.956,-122.047 804.729,-124.813 814.449,-129.029 814.956,-122.047"/>
</g>
<!-- Node3 -->
<g id="node3" class="node"><title>Node3</title>
<g id="a_node3"><a xlink:href="../../d5/d41/torccentral_8h.html" target="_top" xlink:title="torccentral.h">
<polygon fill="white" stroke="black" points="676.5,-280.5 676.5,-299.5 753.5,-299.5 753.5,-280.5 676.5,-280.5"/>
<text text-anchor="middle" x="715" y="-287.5" font-family="Helvetica,sans-Serif" font-size="10.00">torccentral.h</text>
</a>
</g>
</g>
<!-- Node1&#45;&gt;Node3 -->
<g id="edge2" class="edge"><title>Node1&#45;&gt;Node3</title>
<path fill="none" stroke="midnightblue" d="M856.38,-336.444C827.994,-327.32 782.863,-312.813 751.247,-302.651"/>
<polygon fill="midnightblue" stroke="midnightblue" points="752.087,-299.244 741.496,-299.516 749.945,-305.909 752.087,-299.244"/>
</g>
<!-- Node25 -->
<g id="node25" class="node"><title>Node25</title>
<g id="a_node25"><a xlink:href="../../dc/d01/torcoutput_8h.html" target="_top" xlink:title="torcoutput.h">
<polygon fill="white" stroke="black" points="890,-280.5 890,-299.5 966,-299.5 966,-280.5 890,-280.5"/>
<text text-anchor="middle" x="928" y="-287.5" font-family="Helvetica,sans-Serif" font-size="10.00">torcoutput.h</text>
</a>
</g>
</g>
<!-- Node1&#45;&gt;Node25 -->
<g id="edge36" class="edge"><title>Node1&#45;&gt;Node25</title>
<path fill="none" stroke="midnightblue" d="M890.431,-336.083C896.853,-328.377 906.306,-317.033 914.122,-307.653"/>
<polygon fill="midnightblue" stroke="midnightblue" points="916.994,-309.674 920.707,-299.751 911.617,-305.193 916.994,-309.674"/>
</g>
<!-- Node26 -->
<g id="node26" class="node"><title>Node26</title>
<g id="a_node26"><a xlink:href="../../dd/d69/torcinput_8h.html" target="_top" xlink:title="torcinput.h">
<polygon fill="white" stroke="black" points="804,-280.5 804,-299.5 872,-299.5 872,-280.5 804,-280.5"/>
<text text-anchor="middle" x="838" y="-287.5" font-family="Helvetica,sans-Serif" font-size="10.00">torcinput.h</text>
</a>
</g>
</g>
<!-- Node1&#45;&gt;Node26 -->
<g id="edge42" class="edge"><title>Node1&#45;&gt;Node26</title>
<path fill="none" stroke="midnightblue" d="M875.569,-336.083C869.147,-328.377 859.694,-317.033 851.878,-307.653"/>
<polygon fill="midnightblue" stroke="midnightblue" points="854.383,-305.193 845.293,-299.751 849.006,-309.674 854.383,-305.193"/>
</g>
<!-- Node3&#45;&gt;Node2 -->
<g id="edge3" class="edge"><title>Node3&#45;&gt;Node2</title>
<path fill="none" stroke="midnightblue" d="M710.273,-280.42C703.974,-267.824 694.352,-243.686 701,-224 712.79,-189.087 742.003,-156.714 760.866,-138.443"/>
<polygon fill="midnightblue" stroke="midnightblue" points="763.35,-140.912 768.235,-131.51 758.553,-135.814 763.35,-140.912"/>
</g>
<!-- Node4 -->
<g id="node4" class="node"><title>Node4</title>
<polygon fill="white" stroke="#bfbfbf" points="806.5,-168.5 806.5,-187.5 861.5,-187.5 861.5,-168.5 806.5,-168.5"/>
<text text-anchor="middle" x="834" y="-175.5" font-family="Helvetica,sans-Serif" font-size="10.00">QObject</text>
</g>
<!-- Node3&#45;&gt;Node4 -->
<g id="edge4" class="edge"><title>Node3&#45;&gt;Node4</title>
<path fill="none" stroke="midnightblue" d="M736.35,-280.4C753.424,-272.74 777.204,-260.236 794,-244 808.105,-230.364 819.275,-210.758 826.186,-196.649"/>
<polygon fill="midnightblue" stroke="midnightblue" points="829.393,-198.054 830.447,-187.511 823.049,-195.095 829.393,-198.054"/>
</g>
<!-- Node5 -->
<g id="node5" class="node"><title>Node5</title>
<polygon fill="white" stroke="#bfbfbf" points="398,-112.5 398,-131.5 456,-131.5 456,-112.5 398,-112.5"/>
<text text-anchor="middle" x="427" y="-119.5" font-family="Helvetica,sans-Serif" font-size="10.00">QVariant</text>
</g>
<!-- Node3&#45;&gt;Node5 -->
<g id="edge5" class="edge"><title>Node3&#45;&gt;Node5</title>
<path fill="none" stroke="midnightblue" d="M676.348,-288.105C564.458,-284.578 244.576,-267.585 187,-188 181.79,-180.798 181.323,-174.84 187,-168 199.695,-152.704 322.614,-135.666 387.432,-127.649"/>
<polygon fill="midnightblue" stroke="midnightblue" points="388.186,-131.083 397.688,-126.396 387.337,-124.135 388.186,-131.083"/>
</g>
<!-- Node6 -->
<g id="node6" class="node"><title>Node6</title>
<g id="a_node6"><a xlink:href="../../d1/df7/torcdevice_8h.html" target="_top" xlink:title="torcdevice.h">
<polygon fill="white" stroke="black" points="710.5,-224.5 710.5,-243.5 785.5,-243.5 785.5,-224.5 710.5,-224.5"/>
<text text-anchor="middle" x="748" y="-231.5" font-family="Helvetica,sans-Serif" font-size="10.00">torcdevice.h</text>
</a>
</g>
</g>
<!-- Node3&#45;&gt;Node6 -->
<g id="edge6" class="edge"><title>Node3&#45;&gt;Node6</title>
<path fill="none" stroke="midnightblue" d="M720.449,-280.083C725.014,-272.613 731.668,-261.724 737.293,-252.52"/>
<polygon fill="midnightblue" stroke="midnightblue" points="740.424,-254.109 742.652,-243.751 734.451,-250.459 740.424,-254.109"/>
</g>
<!-- Node13 -->
<g id="node13" class="node"><title>Node13</title>
<g id="a_node13"><a xlink:href="../../d3/dee/torchttpservice_8h.html" target="_top" xlink:title="http/torchttpservice.h">
<polygon fill="white" stroke="black" points="366,-224.5 366,-243.5 486,-243.5 486,-224.5 366,-224.5"/>
<text text-anchor="middle" x="426" y="-231.5" font-family="Helvetica,sans-Serif" font-size="10.00">http/torchttpservice.h</text>
</a>
</g>
</g>
<!-- Node3&#45;&gt;Node13 -->
<g id="edge18" class="edge"><title>Node3&#45;&gt;Node13</title>
<path fill="none" stroke="midnightblue" d="M676.324,-281.773C626.266,-272.42 538.7,-256.058 481.538,-245.377"/>
<polygon fill="midnightblue" stroke="midnightblue" points="482.058,-241.914 471.586,-243.518 480.773,-248.795 482.058,-241.914"/>
</g>
<!-- Node6&#45;&gt;Node2 -->
<g id="edge8" class="edge"><title>Node6&#45;&gt;Node2</title>
<path fill="none" stroke="midnightblue" d="M750.354,-224.368C755.217,-206.537 766.465,-165.295 773.017,-141.272"/>
<polygon fill="midnightblue" stroke="midnightblue" points="776.402,-142.16 775.657,-131.591 769.649,-140.318 776.402,-142.16"/>
</g>
<!-- Node6&#45;&gt;Node4 -->
<g id="edge10" class="edge"><title>Node6&#45;&gt;Node4</title>
<path fill="none" stroke="midnightblue" d="M761.817,-224.324C775.233,-215.9 795.824,-202.971 811.586,-193.074"/>
<polygon fill="midnightblue" stroke="midnightblue" points="813.609,-195.936 820.217,-187.655 809.887,-190.008 813.609,-195.936"/>
</g>
<!-- Node7 -->
<g id="node7" class="node"><title>Node7</title>
<polygon fill="white" stroke="#bfbfbf" points="597.5,-112.5 597.5,-131.5 646.5,-131.5 646.5,-112.5 597.5,-112.5"/>
<text text-anchor="middle" x="622" y="-119.5" font-family="Helvetica,sans-Serif" font-size="10.00">QHash</text>
</g>
<!-- Node6&#45;&gt;Node7 -->
<g id="edge7" class="edge"><title>Node6&#45;&gt;Node7</title>
<path fill="none" stroke="midnightblue" d="M738.113,-224.368C716.859,-205.814 666.573,-161.913 639.683,-138.438"/>
<polygon fill="midnightblue" stroke="midnightblue" points="641.676,-135.531 631.841,-131.591 637.072,-140.805 641.676,-135.531"/>
</g>
<!-- Node8 -->
<g id="node8" class="node"><title>Node8</title>
<polygon fill="white" stroke="#bfbfbf" points="79.5,-56.5 79.5,-75.5 132.5,-75.5 132.5,-56.5 79.5,-56.5"/>
<text text-anchor="middle" x="106" y="-63.5" font-family="Helvetica,sans-Serif" font-size="10.00">QString</text>
</g>
<!-- Node6&#45;&gt;Node8 -->
<g id="edge9" class="edge"><title>Node6&#45;&gt;Node8</title>
<path fill="none" stroke="midnightblue" d="M710.24,-226.383C664.375,-218.177 584.735,-203.379 517,-188 482.52,-180.171 474.673,-174.927 440,-168 327.761,-145.576 289.771,-178.081 185,-132 159.485,-120.778 135.564,-98.8869 120.872,-83.6254"/>
<polygon fill="midnightblue" stroke="midnightblue" points="123.086,-80.8674 113.707,-75.9387 117.965,-85.6402 123.086,-80.8674"/>
</g>
<!-- Node9 -->
<g id="node9" class="node"><title>Node9</title>
<g id="a_node9"><a xlink:href="../../d8/dfe/torcreferencecounted_8h.html" target="_top" xlink:title="torcreferencecounted.h">
<polygon fill="white" stroke="black" points="956.5,-168.5 956.5,-187.5 1085.5,-187.5 1085.5,-168.5 956.5,-168.5"/>
<text text-anchor="middle" x="1021" y="-175.5" font-family="Helvetica,sans-Serif" font-size="10.00">torcreferencecounted.h</text>
</a>
</g>
</g>
<!-- Node6&#45;&gt;Node9 -->
<g id="edge11" class="edge"><title>Node6&#45;&gt;Node9</title>
<path fill="none" stroke="midnightblue" d="M785.673,-225.548C832.944,-216.198 914.296,-200.106 967.873,-189.509"/>
<polygon fill="midnightblue" stroke="midnightblue" points="968.739,-192.905 977.869,-187.531 967.38,-186.038 968.739,-192.905"/>
</g>
<!-- Node11 -->
<g id="node11" class="node"><title>Node11</title>
<g id="a_node11"><a xlink:href="../../d2/d5b/torcdevicehandler_8h.html" target="_top" xlink:title="torcdevicehandler.h">
<polygon fill="white" stroke="black" points="526,-168.5 526,-187.5 636,-187.5 636,-168.5 526,-168.5"/>
<text text-anchor="middle" x="581" y="-175.5" font-family="Helvetica,sans-Serif" font-size="10.00">torcdevicehandler.h</text>
</a>
</g>
</g>
<!-- Node6&#45;&gt;Node11 -->
<g id="edge13" class="edge"><title>Node6&#45;&gt;Node11</title>
<path fill="none" stroke="midnightblue" d="M721.538,-224.444C693.322,-215.32 648.46,-200.813 617.032,-190.651"/>
<polygon fill="midnightblue" stroke="midnightblue" points="617.93,-187.263 607.338,-187.516 615.776,-193.923 617.93,-187.263"/>
</g>
<!-- Node10 -->
<g id="node10" class="node"><title>Node10</title>
<polygon fill="white" stroke="#bfbfbf" points="986,-112.5 986,-131.5 1056,-131.5 1056,-112.5 986,-112.5"/>
<text text-anchor="middle" x="1021" y="-119.5" font-family="Helvetica,sans-Serif" font-size="10.00">QAtomicInt</text>
</g>
<!-- Node9&#45;&gt;Node10 -->
<g id="edge12" class="edge"><title>Node9&#45;&gt;Node10</title>
<path fill="none" stroke="midnightblue" d="M1021,-168.083C1021,-161.006 1021,-150.861 1021,-141.986"/>
<polygon fill="midnightblue" stroke="midnightblue" points="1024.5,-141.751 1021,-131.751 1017.5,-141.751 1024.5,-141.751"/>
</g>
<!-- Node11&#45;&gt;Node2 -->
<g id="edge15" class="edge"><title>Node11&#45;&gt;Node2</title>
<path fill="none" stroke="midnightblue" d="M612.215,-168.444C647.321,-158.821 704.27,-143.21 741.431,-133.024"/>
<polygon fill="midnightblue" stroke="midnightblue" points="742.634,-136.323 751.353,-130.304 740.784,-129.572 742.634,-136.323"/>
</g>
<!-- Node11&#45;&gt;Node5 -->
<g id="edge17" class="edge"><title>Node11&#45;&gt;Node5</title>
<path fill="none" stroke="midnightblue" d="M556.598,-168.444C530.803,-159.399 489.923,-145.064 460.982,-134.916"/>
<polygon fill="midnightblue" stroke="midnightblue" points="461.882,-131.523 451.288,-131.516 459.566,-138.128 461.882,-131.523"/>
</g>
<!-- Node11&#45;&gt;Node7 -->
<g id="edge14" class="edge"><title>Node11&#45;&gt;Node7</title>
<path fill="none" stroke="midnightblue" d="M587.77,-168.083C593.562,-160.455 602.058,-149.264 609.138,-139.941"/>
<polygon fill="midnightblue" stroke="midnightblue" points="612.096,-141.832 615.356,-131.751 606.521,-137.599 612.096,-141.832"/>
</g>
<!-- Node12 -->
<g id="node12" class="node"><title>Node12</title>
<polygon fill="white" stroke="#bfbfbf" points="483,-112.5 483,-131.5 575,-131.5 575,-112.5 483,-112.5"/>
<text text-anchor="middle" x="529" y="-119.5" font-family="Helvetica,sans-Serif" font-size="10.00">QReadWriteLock</text>
</g>
<!-- Node11&#45;&gt;Node12 -->
<g id="edge16" class="edge"><title>Node11&#45;&gt;Node12</title>
<path fill="none" stroke="midnightblue" d="M572.413,-168.083C564.841,-160.22 553.622,-148.569 544.486,-139.081"/>
<polygon fill="midnightblue" stroke="midnightblue" points="546.885,-136.527 537.427,-131.751 541.842,-141.382 546.885,-136.527"/>
</g>
<!-- Node13&#45;&gt;Node2 -->
<g id="edge20" class="edge"><title>Node13&#45;&gt;Node2</title>
<path fill="none" stroke="midnightblue" d="M486.101,-224.834C530.722,-217.772 592.648,-205.851 645,-188 685.079,-174.334 728.661,-151.333 754.635,-136.675"/>
<polygon fill="midnightblue" stroke="midnightblue" points="756.422,-139.685 763.368,-131.685 752.949,-133.607 756.422,-139.685"/>
</g>
<!-- Node13&#45;&gt;Node12 -->
<g id="edge21" class="edge"><title>Node13&#45;&gt;Node12</title>
<path fill="none" stroke="midnightblue" d="M434.082,-224.368C451.306,-205.974 491.853,-162.671 513.97,-139.052"/>
<polygon fill="midnightblue" stroke="midnightblue" points="516.675,-141.283 520.955,-131.591 511.565,-136.499 516.675,-141.283"/>
</g>
<!-- Node14 -->
<g id="node14" class="node"><title>Node14</title>
<polygon fill="white" stroke="#bfbfbf" points="412,-56.5 412,-75.5 456,-75.5 456,-56.5 412,-56.5"/>
<text text-anchor="middle" x="434" y="-63.5" font-family="Helvetica,sans-Serif" font-size="10.00">QMap</text>
</g>
<!-- Node13&#45;&gt;Node14 -->
<g id="edge19" class="edge"><title>Node13&#45;&gt;Node14</title>
<path fill="none" stroke="midnightblue" d="M393.815,-224.488C375.461,-217.801 353.984,-206.45 343,-188 338.453,-180.362 340.004,-176.369 343,-168 356.275,-130.924 390.902,-99.2735 413.409,-81.7256"/>
<polygon fill="midnightblue" stroke="midnightblue" points="415.78,-84.3213 421.653,-75.5033 411.563,-78.7341 415.78,-84.3213"/>
</g>
<!-- Node15 -->
<g id="node15" class="node"><title>Node15</title>
<polygon fill="white" stroke="#bfbfbf" points="352.5,-168.5 352.5,-187.5 431.5,-187.5 431.5,-168.5 352.5,-168.5"/>
<text text-anchor="middle" x="392" y="-175.5" font-family="Helvetica,sans-Serif" font-size="10.00">QMetaObject</text>
</g>
<!-- Node13&#45;&gt;Node15 -->
<g id="edge22" class="edge"><title>Node13&#45;&gt;Node15</title>
<path fill="none" stroke="midnightblue" d="M420.386,-224.083C415.633,-216.534 408.682,-205.495 402.848,-196.23"/>
<polygon fill="midnightblue" stroke="midnightblue" points="405.8,-194.349 397.51,-187.751 399.876,-198.078 405.8,-194.349"/>
</g>
<!-- Node16 -->
<g id="node16" class="node"><title>Node16</title>
<polygon fill="white" stroke="#bfbfbf" points="196.5,-168.5 196.5,-187.5 295.5,-187.5 295.5,-168.5 196.5,-168.5"/>
<text text-anchor="middle" x="246" y="-175.5" font-family="Helvetica,sans-Serif" font-size="10.00">QCoreApplication</text>
</g>
<!-- Node13&#45;&gt;Node16 -->
<g id="edge23" class="edge"><title>Node13&#45;&gt;Node16</title>
<path fill="none" stroke="midnightblue" d="M397.478,-224.444C366.934,-215.28 318.292,-200.688 284.397,-190.519"/>
<polygon fill="midnightblue" stroke="midnightblue" points="284.972,-187.038 274.388,-187.516 282.961,-193.742 284.972,-187.038"/>
</g>
<!-- Node17 -->
<g id="node17" class="node"><title>Node17</title>
<g id="a_node17"><a xlink:href="../../d4/d11/torchttphandler_8h.html" target="_top" xlink:title="torchttphandler.h">
<polygon fill="white" stroke="black" points="2.5,-168.5 2.5,-187.5 101.5,-187.5 101.5,-168.5 2.5,-168.5"/>
<text text-anchor="middle" x="52" y="-175.5" font-family="Helvetica,sans-Serif" font-size="10.00">torchttphandler.h</text>
</a>
</g>
</g>
<!-- Node13&#45;&gt;Node17 -->
<g id="edge24" class="edge"><title>Node13&#45;&gt;Node17</title>
<path fill="none" stroke="midnightblue" d="M366.739,-224.444C296.948,-214.367 181.686,-197.725 111.704,-187.62"/>
<polygon fill="midnightblue" stroke="midnightblue" points="112.115,-184.144 101.718,-186.179 111.115,-191.072 112.115,-184.144"/>
</g>
<!-- Node19 -->
<g id="node19" class="node"><title>Node19</title>
<g id="a_node19"><a xlink:href="../../df/dd7/torchttprequest_8h.html" target="_top" xlink:title="torchttprequest.h">
<polygon fill="white" stroke="black" points="194.5,-112.5 194.5,-131.5 295.5,-131.5 295.5,-112.5 194.5,-112.5"/>
<text text-anchor="middle" x="245" y="-119.5" font-family="Helvetica,sans-Serif" font-size="10.00">torchttprequest.h</text>
</a>
</g>
</g>
<!-- Node13&#45;&gt;Node19 -->
<g id="edge35" class="edge"><title>Node13&#45;&gt;Node19</title>
<path fill="none" stroke="midnightblue" d="M365.874,-230.188C302.657,-225.822 209.303,-214.894 187,-188 171.963,-169.868 196.692,-149.739 218.365,-136.755"/>
<polygon fill="midnightblue" stroke="midnightblue" points="220.377,-139.638 227.342,-131.654 216.918,-133.552 220.377,-139.638"/>
</g>
<!-- Node17&#45;&gt;Node8 -->
<g id="edge25" class="edge"><title>Node17&#45;&gt;Node8</title>
<path fill="none" stroke="midnightblue" d="M60.3301,-168.386C68.2166,-159.801 79.88,-145.923 87,-132 94.5276,-117.28 99.5184,-99.1181 102.488,-85.7376"/>
<polygon fill="midnightblue" stroke="midnightblue" points="105.945,-86.3013 104.518,-75.803 99.0867,-84.8997 105.945,-86.3013"/>
</g>
<!-- Node18 -->
<g id="node18" class="node"><title>Node18</title>
<polygon fill="white" stroke="#bfbfbf" points="0,-112.5 0,-131.5 78,-131.5 78,-112.5 0,-112.5"/>
<text text-anchor="middle" x="39" y="-119.5" font-family="Helvetica,sans-Serif" font-size="10.00">QVariantMap</text>
</g>
<!-- Node17&#45;&gt;Node18 -->
<g id="edge26" class="edge"><title>Node17&#45;&gt;Node18</title>
<path fill="none" stroke="midnightblue" d="M49.8533,-168.083C48.1306,-160.927 45.6529,-150.635 43.4997,-141.691"/>
<polygon fill="midnightblue" stroke="midnightblue" points="46.8501,-140.654 41.1067,-131.751 40.0446,-142.293 46.8501,-140.654"/>
</g>
<!-- Node17&#45;&gt;Node19 -->
<g id="edge27" class="edge"><title>Node17&#45;&gt;Node19</title>
<path fill="none" stroke="midnightblue" d="M82.5814,-168.444C115.615,-159.201 168.388,-144.436 204.766,-134.257"/>
<polygon fill="midnightblue" stroke="midnightblue" points="205.875,-137.582 214.562,-131.516 203.988,-130.84 205.875,-137.582"/>
</g>
<!-- Node19&#45;&gt;Node8 -->
<g id="edge30" class="edge"><title>Node19&#45;&gt;Node8</title>
<path fill="none" stroke="midnightblue" d="M222.975,-112.444C199.896,-103.478 163.438,-89.314 137.359,-79.1827"/>
<polygon fill="midnightblue" stroke="midnightblue" points="138.511,-75.8753 127.922,-75.5164 135.976,-82.4002 138.511,-75.8753"/>
</g>
<!-- Node19&#45;&gt;Node14 -->
<g id="edge28" class="edge"><title>Node19&#45;&gt;Node14</title>
<path fill="none" stroke="midnightblue" d="M274.948,-112.444C309.621,-102.537 366.504,-86.2846 402.019,-76.1375"/>
<polygon fill="midnightblue" stroke="midnightblue" points="403.216,-79.4356 411.87,-73.323 401.293,-72.7049 403.216,-79.4356"/>
</g>
<!-- Node20 -->
<g id="node20" class="node"><title>Node20</title>
<polygon fill="white" stroke="#bfbfbf" points="150.5,-56.5 150.5,-75.5 191.5,-75.5 191.5,-56.5 150.5,-56.5"/>
<text text-anchor="middle" x="171" y="-63.5" font-family="Helvetica,sans-Serif" font-size="10.00">QPair</text>
</g>
<!-- Node19&#45;&gt;Node20 -->
<g id="edge29" class="edge"><title>Node19&#45;&gt;Node20</title>
<path fill="none" stroke="midnightblue" d="M233.111,-112.324C221.85,-104.107 204.713,-91.6017 191.291,-81.8069"/>
<polygon fill="midnightblue" stroke="midnightblue" points="193.247,-78.9014 183.106,-75.8339 189.12,-84.5559 193.247,-78.9014"/>
</g>
<!-- Node21 -->
<g id="node21" class="node"><title>Node21</title>
<polygon fill="white" stroke="#bfbfbf" points="209.5,-56.5 209.5,-75.5 280.5,-75.5 280.5,-56.5 209.5,-56.5"/>
<text text-anchor="middle" x="245" y="-63.5" font-family="Helvetica,sans-Serif" font-size="10.00">QDateTime</text>
</g>
<!-- Node19&#45;&gt;Node21 -->
<g id="edge31" class="edge"><title>Node19&#45;&gt;Node21</title>
<path fill="none" stroke="midnightblue" d="M245,-112.083C245,-105.006 245,-94.8611 245,-85.9865"/>
<polygon fill="midnightblue" stroke="midnightblue" points="248.5,-85.751 245,-75.7511 241.5,-85.7511 248.5,-85.751"/>
</g>
<!-- Node22 -->
<g id="node22" class="node"><title>Node22</title>
<g id="a_node22"><a xlink:href="../../de/de6/torchttpreader_8h.html" target="_top" xlink:title="torchttpreader.h">
<polygon fill="white" stroke="black" points="298.5,-56.5 298.5,-75.5 393.5,-75.5 393.5,-56.5 298.5,-56.5"/>
<text text-anchor="middle" x="346" y="-63.5" font-family="Helvetica,sans-Serif" font-size="10.00">torchttpreader.h</text>
</a>
</g>
</g>
<!-- Node19&#45;&gt;Node22 -->
<g id="edge32" class="edge"><title>Node19&#45;&gt;Node22</title>
<path fill="none" stroke="midnightblue" d="M261.227,-112.324C277.351,-103.703 302.3,-90.3643 320.964,-80.3855"/>
<polygon fill="midnightblue" stroke="midnightblue" points="322.644,-83.456 329.813,-75.6545 319.344,-77.283 322.644,-83.456"/>
</g>
<!-- Node23 -->
<g id="node23" class="node"><title>Node23</title>
<polygon fill="white" stroke="#bfbfbf" points="265.5,-0.5 265.5,-19.5 336.5,-19.5 336.5,-0.5 265.5,-0.5"/>
<text text-anchor="middle" x="301" y="-7.5" font-family="Helvetica,sans-Serif" font-size="10.00">QByteArray</text>
</g>
<!-- Node22&#45;&gt;Node23 -->
<g id="edge33" class="edge"><title>Node22&#45;&gt;Node23</title>
<path fill="none" stroke="midnightblue" d="M338.569,-56.083C332.147,-48.3768 322.694,-37.0333 314.878,-27.6531"/>
<polygon fill="midnightblue" stroke="midnightblue" points="317.383,-25.1927 308.293,-19.7511 312.006,-29.674 317.383,-25.1927"/>
</g>
<!-- Node24 -->
<g id="node24" class="node"><title>Node24</title>
<polygon fill="white" stroke="#bfbfbf" points="355,-0.5 355,-19.5 427,-19.5 427,-0.5 355,-0.5"/>
<text text-anchor="middle" x="391" y="-7.5" font-family="Helvetica,sans-Serif" font-size="10.00">QTcpSocket</text>
</g>
<!-- Node22&#45;&gt;Node24 -->
<g id="edge34" class="edge"><title>Node22&#45;&gt;Node24</title>
<path fill="none" stroke="midnightblue" d="M353.431,-56.083C359.853,-48.3768 369.306,-37.0333 377.122,-27.6531"/>
<polygon fill="midnightblue" stroke="midnightblue" points="379.994,-29.674 383.707,-19.7511 374.617,-25.1927 379.994,-29.674"/>
</g>
<!-- Node25&#45;&gt;Node2 -->
<g id="edge37" class="edge"><title>Node25&#45;&gt;Node2</title>
<path fill="none" stroke="midnightblue" d="M927.554,-280.455C925.98,-258.803 918.946,-201.16 888,-168 868.661,-147.277 838.401,-135.837 814.511,-129.684"/>
<polygon fill="midnightblue" stroke="midnightblue" points="815.25,-126.262 804.712,-127.359 813.634,-133.073 815.25,-126.262"/>
</g>
<!-- Node25&#45;&gt;Node4 -->
<g id="edge38" class="edge"><title>Node25&#45;&gt;Node4</title>
<path fill="none" stroke="midnightblue" d="M920.624,-280.368C904.974,-262.055 868.224,-219.049 847.982,-195.362"/>
<polygon fill="midnightblue" stroke="midnightblue" points="850.499,-192.92 841.342,-187.591 845.177,-197.468 850.499,-192.92"/>
</g>
<!-- Node25&#45;&gt;Node6 -->
<g id="edge41" class="edge"><title>Node25&#45;&gt;Node6</title>
<path fill="none" stroke="midnightblue" d="M899.478,-280.444C868.934,-271.28 820.292,-256.688 786.397,-246.519"/>
<polygon fill="midnightblue" stroke="midnightblue" points="786.972,-243.038 776.388,-243.516 784.961,-249.742 786.972,-243.038"/>
</g>
<!-- Node25&#45;&gt;Node9 -->
<g id="edge39" class="edge"><title>Node25&#45;&gt;Node9</title>
<path fill="none" stroke="midnightblue" d="M940.047,-280.23C951.205,-271.744 967.859,-258.123 980,-244 992.738,-229.183 1004.32,-210.046 1011.9,-196.381"/>
<polygon fill="midnightblue" stroke="midnightblue" points="1015,-198.001 1016.67,-187.538 1008.84,-194.677 1015,-198.001"/>
</g>
<!-- Node25&#45;&gt;Node13 -->
<g id="edge40" class="edge"><title>Node25&#45;&gt;Node13</title>
<path fill="none" stroke="midnightblue" d="M889.829,-281.391C886.847,-280.888 883.878,-280.417 881,-280 745.41,-260.354 585.827,-246.744 496.238,-239.961"/>
<polygon fill="midnightblue" stroke="midnightblue" points="496.431,-236.466 486.197,-239.207 495.907,-243.446 496.431,-236.466"/>
</g>
<!-- Node26&#45;&gt;Node2 -->
<g id="edge43" class="edge"><title>Node26&#45;&gt;Node2</title>
<path fill="none" stroke="midnightblue" d="M844.55,-280.4C859.548,-259.579 893.354,-205.421 870,-168 857.84,-148.515 834.527,-137.236 814.413,-130.844"/>
<polygon fill="midnightblue" stroke="midnightblue" points="815.139,-127.411 804.561,-128.006 813.201,-134.137 815.139,-127.411"/>
</g>
<!-- Node26&#45;&gt;Node4 -->
<g id="edge44" class="edge"><title>Node26&#45;&gt;Node4</title>
<path fill="none" stroke="midnightblue" d="M837.686,-280.368C837.041,-262.617 835.552,-221.666 834.676,-197.597"/>
<polygon fill="midnightblue" stroke="midnightblue" points="838.174,-197.458 834.312,-187.591 831.178,-197.712 838.174,-197.458"/>
</g>
<!-- Node26&#45;&gt;Node6 -->
<g id="edge46" class="edge"><title>Node26&#45;&gt;Node6</title>
<path fill="none" stroke="midnightblue" d="M823.54,-280.324C809.5,-271.9 787.952,-258.971 771.457,-249.074"/>
<polygon fill="midnightblue" stroke="midnightblue" points="772.8,-245.798 762.424,-243.655 769.198,-251.801 772.8,-245.798"/>
</g>
<!-- Node26&#45;&gt;Node13 -->
<g id="edge45" class="edge"><title>Node26&#45;&gt;Node13</title>
<path fill="none" stroke="midnightblue" d="M803.934,-284.535C736.733,-275.727 585.867,-255.953 496.4,-244.227"/>
<polygon fill="midnightblue" stroke="midnightblue" points="496.708,-240.738 486.337,-242.908 495.798,-247.678 496.708,-240.738"/>
</g>
</g>
</svg>
