<?xml version="1.0" encoding="UTF-8" standalone="no"?>
<!DOCTYPE svg PUBLIC "-//W3C//DTD SVG 1.1//EN"
 "http://www.w3.org/Graphics/SVG/1.1/DTD/svg11.dtd">
<!-- Generated by graphviz version 2.38.0 (20140413.2041)
 -->
<!-- Title: torcnetworkinputs.h Pages: 1 -->
<svg width="1104pt" height="364pt"
 viewBox="0.00 0.00 1104.06 364.00" xmlns="http://www.w3.org/2000/svg" xmlns:xlink="http://www.w3.org/1999/xlink">
<g id="graph0" class="graph" transform="scale(1 1) rotate(0) translate(4 360)">
<title>torcnetworkinputs.h</title>
<polygon fill="white" stroke="none" points="-4,4 -4,-360 1100.06,-360 1100.06,4 -4,4"/>
<!-- Node1 -->
<g id="node1" class="node"><title>Node1</title>
<polygon fill="#bfbfbf" stroke="black" points="496.5,-336.5 496.5,-355.5 607.5,-355.5 607.5,-336.5 496.5,-336.5"/>
<text text-anchor="middle" x="552" y="-343.5" font-family="Helvetica,sans-Serif" font-size="10.00">torcnetworkinputs.h</text>
</g>
<!-- Node2 -->
<g id="node2" class="node"><title>Node2</title>
<polygon fill="white" stroke="#bfbfbf" points="545.5,-112.5 545.5,-131.5 598.5,-131.5 598.5,-112.5 545.5,-112.5"/>
<text text-anchor="middle" x="572" y="-119.5" font-family="Helvetica,sans-Serif" font-size="10.00">QMutex</text>
</g>
<!-- Node1&#45;&gt;Node2 -->
<g id="edge1" class="edge"><title>Node1&#45;&gt;Node2</title>
<path fill="none" stroke="midnightblue" d="M513.44,-336.467C423.48,-314.887 212.736,-253.693 286,-168 317.612,-131.025 464.926,-124.238 534.903,-123.126"/>
<polygon fill="midnightblue" stroke="midnightblue" points="535.087,-126.624 545.042,-122.997 534.998,-119.625 535.087,-126.624"/>
</g>
<!-- Node3 -->
<g id="node3" class="node"><title>Node3</title>
<g id="a_node3"><a xlink:href="../../d5/d41/torccentral_8h.html" target="_top" xlink:title="torccentral.h">
<polygon fill="white" stroke="black" points="653.5,-280.5 653.5,-299.5 730.5,-299.5 730.5,-280.5 653.5,-280.5"/>
<text text-anchor="middle" x="692" y="-287.5" font-family="Helvetica,sans-Serif" font-size="10.00">torccentral.h</text>
</a>
</g>
</g>
<!-- Node1&#45;&gt;Node3 -->
<g id="edge2" class="edge"><title>Node1&#45;&gt;Node3</title>
<path fill="none" stroke="midnightblue" d="M574.183,-336.444C597.428,-327.478 634.149,-313.314 660.415,-303.183"/>
<polygon fill="midnightblue" stroke="midnightblue" points="661.85,-306.381 669.92,-299.516 659.331,-299.85 661.85,-306.381"/>
</g>
<!-- Node24 -->
<g id="node24" class="node"><title>Node24</title>
<g id="a_node24"><a xlink:href="../../dc/d01/torcoutput_8h.html" target="_top" xlink:title="torcoutput.h">
<polygon fill="white" stroke="black" points="559,-280.5 559,-299.5 635,-299.5 635,-280.5 559,-280.5"/>
<text text-anchor="middle" x="597" y="-287.5" font-family="Helvetica,sans-Serif" font-size="10.00">torcoutput.h</text>
</a>
</g>
</g>
<!-- Node1&#45;&gt;Node24 -->
<g id="edge34" class="edge"><title>Node1&#45;&gt;Node24</title>
<path fill="none" stroke="midnightblue" d="M559.431,-336.083C565.853,-328.377 575.306,-317.033 583.122,-307.653"/>
<polygon fill="midnightblue" stroke="midnightblue" points="585.994,-309.674 589.707,-299.751 580.617,-305.193 585.994,-309.674"/>
</g>
<!-- Node25 -->
<g id="node25" class="node"><title>Node25</title>
<g id="a_node25"><a xlink:href="../../dd/d69/torcinput_8h.html" target="_top" xlink:title="torcinput.h">
<polygon fill="white" stroke="black" points="473,-280.5 473,-299.5 541,-299.5 541,-280.5 473,-280.5"/>
<text text-anchor="middle" x="507" y="-287.5" font-family="Helvetica,sans-Serif" font-size="10.00">torcinput.h</text>
</a>
</g>
</g>
<!-- Node1&#45;&gt;Node25 -->
<g id="edge40" class="edge"><title>Node1&#45;&gt;Node25</title>
<path fill="none" stroke="midnightblue" d="M544.569,-336.083C538.147,-328.377 528.694,-317.033 520.878,-307.653"/>
<polygon fill="midnightblue" stroke="midnightblue" points="523.383,-305.193 514.293,-299.751 518.006,-309.674 523.383,-305.193"/>
</g>
<!-- Node3&#45;&gt;Node2 -->
<g id="edge3" class="edge"><title>Node3&#45;&gt;Node2</title>
<path fill="none" stroke="midnightblue" d="M681.514,-280.392C671.443,-271.81 656.154,-257.935 645,-244 617.902,-210.145 593.424,-165.359 580.866,-140.875"/>
<polygon fill="midnightblue" stroke="midnightblue" points="583.872,-139.064 576.24,-131.716 577.624,-142.22 583.872,-139.064"/>
</g>
<!-- Node4 -->
<g id="node4" class="node"><title>Node4</title>
<polygon fill="white" stroke="#bfbfbf" points="1027.5,-168.5 1027.5,-187.5 1082.5,-187.5 1082.5,-168.5 1027.5,-168.5"/>
<text text-anchor="middle" x="1055" y="-175.5" font-family="Helvetica,sans-Serif" font-size="10.00">QObject</text>
</g>
<!-- Node3&#45;&gt;Node4 -->
<g id="edge4" class="edge"><title>Node3&#45;&gt;Node4</title>
<path fill="none" stroke="midnightblue" d="M730.764,-284.798C777.692,-278.969 858.678,-266.511 925,-244 964.409,-230.624 1007,-207.504 1032.31,-192.747"/>
<polygon fill="midnightblue" stroke="midnightblue" points="1034.3,-195.639 1041.12,-187.538 1030.74,-189.613 1034.3,-195.639"/>
</g>
<!-- Node5 -->
<g id="node5" class="node"><title>Node5</title>
<polygon fill="white" stroke="#bfbfbf" points="823,-112.5 823,-131.5 881,-131.5 881,-112.5 823,-112.5"/>
<text text-anchor="middle" x="852" y="-119.5" font-family="Helvetica,sans-Serif" font-size="10.00">QVariant</text>
</g>
<!-- Node3&#45;&gt;Node5 -->
<g id="edge5" class="edge"><title>Node3&#45;&gt;Node5</title>
<path fill="none" stroke="midnightblue" d="M730.514,-285.68C822.808,-276.792 1051.94,-248.878 1092,-188 1096.89,-180.575 1097.68,-174.84 1092,-168 1091.6,-167.515 959.265,-142.902 891.299,-130.288"/>
<polygon fill="midnightblue" stroke="midnightblue" points="891.839,-126.828 881.368,-128.445 890.562,-133.711 891.839,-126.828"/>
</g>
<!-- Node6 -->
<g id="node6" class="node"><title>Node6</title>
<g id="a_node6"><a xlink:href="../../d1/df7/torcdevice_8h.html" target="_top" xlink:title="torcdevice.h">
<polygon fill="white" stroke="black" points="654.5,-224.5 654.5,-243.5 729.5,-243.5 729.5,-224.5 654.5,-224.5"/>
<text text-anchor="middle" x="692" y="-231.5" font-family="Helvetica,sans-Serif" font-size="10.00">torcdevice.h</text>
</a>
</g>
</g>
<!-- Node3&#45;&gt;Node6 -->
<g id="edge6" class="edge"><title>Node3&#45;&gt;Node6</title>
<path fill="none" stroke="midnightblue" d="M692,-280.083C692,-273.006 692,-262.861 692,-253.986"/>
<polygon fill="midnightblue" stroke="midnightblue" points="695.5,-253.751 692,-243.751 688.5,-253.751 695.5,-253.751"/>
</g>
<!-- Node12 -->
<g id="node12" class="node"><title>Node12</title>
<g id="a_node12"><a xlink:href="../../d3/dee/torchttpservice_8h.html" target="_top" xlink:title="http/torchttpservice.h">
<polygon fill="white" stroke="black" points="396,-224.5 396,-243.5 516,-243.5 516,-224.5 396,-224.5"/>
<text text-anchor="middle" x="456" y="-231.5" font-family="Helvetica,sans-Serif" font-size="10.00">http/torchttpservice.h</text>
</a>
</g>
</g>
<!-- Node3&#45;&gt;Node12 -->
<g id="edge17" class="edge"><title>Node3&#45;&gt;Node12</title>
<path fill="none" stroke="midnightblue" d="M654.605,-280.444C613.608,-271.063 547.746,-255.993 503.216,-245.804"/>
<polygon fill="midnightblue" stroke="midnightblue" points="503.749,-242.335 493.22,-243.516 502.187,-249.159 503.749,-242.335"/>
</g>
<!-- Node6&#45;&gt;Node2 -->
<g id="edge8" class="edge"><title>Node6&#45;&gt;Node2</title>
<path fill="none" stroke="midnightblue" d="M683.329,-224.445C670.53,-211.88 645.746,-187.781 624,-168 612.96,-157.958 600.304,-146.994 590.241,-138.402"/>
<polygon fill="midnightblue" stroke="midnightblue" points="592.378,-135.625 582.492,-131.816 587.845,-140.959 592.378,-135.625"/>
</g>
<!-- Node6&#45;&gt;Node4 -->
<g id="edge10" class="edge"><title>Node6&#45;&gt;Node4</title>
<path fill="none" stroke="midnightblue" d="M729.982,-229.124C789.372,-222.77 907.977,-208.902 1017.29,-188.172"/>
<polygon fill="midnightblue" stroke="midnightblue" points="1018,-191.6 1027.16,-186.277 1016.68,-184.726 1018,-191.6"/>
</g>
<!-- Node7 -->
<g id="node7" class="node"><title>Node7</title>
<polygon fill="white" stroke="#bfbfbf" points="749.5,-112.5 749.5,-131.5 798.5,-131.5 798.5,-112.5 749.5,-112.5"/>
<text text-anchor="middle" x="774" y="-119.5" font-family="Helvetica,sans-Serif" font-size="10.00">QHash</text>
</g>
<!-- Node6&#45;&gt;Node7 -->
<g id="edge7" class="edge"><title>Node6&#45;&gt;Node7</title>
<path fill="none" stroke="midnightblue" d="M729.759,-226.123C767.191,-218.446 820.684,-204.858 833,-188 846.924,-168.941 822.406,-149.152 800.864,-136.493"/>
<polygon fill="midnightblue" stroke="midnightblue" points="802.375,-133.328 791.934,-131.527 798.972,-139.446 802.375,-133.328"/>
</g>
<!-- Node8 -->
<g id="node8" class="node"><title>Node8</title>
<polygon fill="white" stroke="#bfbfbf" points="323.5,-56.5 323.5,-75.5 376.5,-75.5 376.5,-56.5 323.5,-56.5"/>
<text text-anchor="middle" x="350" y="-63.5" font-family="Helvetica,sans-Serif" font-size="10.00">QString</text>
</g>
<!-- Node6&#45;&gt;Node8 -->
<g id="edge9" class="edge"><title>Node6&#45;&gt;Node8</title>
<path fill="none" stroke="midnightblue" d="M688.828,-224.452C679.915,-201.751 652.295,-139.791 607,-112 570.685,-89.7191 448.966,-75.8846 386.968,-70.1143"/>
<polygon fill="midnightblue" stroke="midnightblue" points="387.111,-66.613 376.836,-69.1938 386.478,-73.5843 387.111,-66.613"/>
</g>
<!-- Node9 -->
<g id="node9" class="node"><title>Node9</title>
<g id="a_node9"><a xlink:href="../../d8/dfe/torcreferencecounted_8h.html" target="_top" xlink:title="torcreferencecounted.h">
<polygon fill="white" stroke="black" points="880.5,-168.5 880.5,-187.5 1009.5,-187.5 1009.5,-168.5 880.5,-168.5"/>
<text text-anchor="middle" x="945" y="-175.5" font-family="Helvetica,sans-Serif" font-size="10.00">torcreferencecounted.h</text>
</a>
</g>
</g>
<!-- Node6&#45;&gt;Node9 -->
<g id="edge11" class="edge"><title>Node6&#45;&gt;Node9</title>
<path fill="none" stroke="midnightblue" d="M729.603,-224.974C773.554,-215.593 846.455,-200.033 895.106,-189.649"/>
<polygon fill="midnightblue" stroke="midnightblue" points="896.051,-193.027 905.1,-187.516 894.59,-186.181 896.051,-193.027"/>
</g>
<!-- Node11 -->
<g id="node11" class="node"><title>Node11</title>
<g id="a_node11"><a xlink:href="../../d2/d5b/torcdevicehandler_8h.html" target="_top" xlink:title="torcdevicehandler.h">
<polygon fill="white" stroke="black" points="714,-168.5 714,-187.5 824,-187.5 824,-168.5 714,-168.5"/>
<text text-anchor="middle" x="769" y="-175.5" font-family="Helvetica,sans-Serif" font-size="10.00">torcdevicehandler.h</text>
</a>
</g>
</g>
<!-- Node6&#45;&gt;Node11 -->
<g id="edge13" class="edge"><title>Node6&#45;&gt;Node11</title>
<path fill="none" stroke="midnightblue" d="M704.371,-224.324C716.158,-216.058 734.132,-203.453 748.136,-193.632"/>
<polygon fill="midnightblue" stroke="midnightblue" points="750.482,-196.262 756.659,-187.655 746.462,-190.531 750.482,-196.262"/>
</g>
<!-- Node10 -->
<g id="node10" class="node"><title>Node10</title>
<polygon fill="white" stroke="#bfbfbf" points="910,-112.5 910,-131.5 980,-131.5 980,-112.5 910,-112.5"/>
<text text-anchor="middle" x="945" y="-119.5" font-family="Helvetica,sans-Serif" font-size="10.00">QAtomicInt</text>
</g>
<!-- Node9&#45;&gt;Node10 -->
<g id="edge12" class="edge"><title>Node9&#45;&gt;Node10</title>
<path fill="none" stroke="midnightblue" d="M945,-168.083C945,-161.006 945,-150.861 945,-141.986"/>
<polygon fill="midnightblue" stroke="midnightblue" points="948.5,-141.751 945,-131.751 941.5,-141.751 948.5,-141.751"/>
</g>
<!-- Node11&#45;&gt;Node2 -->
<g id="edge15" class="edge"><title>Node11&#45;&gt;Node2</title>
<path fill="none" stroke="midnightblue" d="M737.785,-168.444C702.679,-158.821 645.73,-143.21 608.569,-133.024"/>
<polygon fill="midnightblue" stroke="midnightblue" points="609.216,-129.572 598.647,-130.304 607.366,-136.323 609.216,-129.572"/>
</g>
<!-- Node11&#45;&gt;Node5 -->
<g id="edge16" class="edge"><title>Node11&#45;&gt;Node5</title>
<path fill="none" stroke="midnightblue" d="M782.335,-168.324C795.162,-159.979 814.785,-147.212 829.94,-137.352"/>
<polygon fill="midnightblue" stroke="midnightblue" points="832.224,-140.042 838.698,-131.655 828.407,-134.174 832.224,-140.042"/>
</g>
<!-- Node11&#45;&gt;Node7 -->
<g id="edge14" class="edge"><title>Node11&#45;&gt;Node7</title>
<path fill="none" stroke="midnightblue" d="M769.826,-168.083C770.481,-161.006 771.42,-150.861 772.242,-141.986"/>
<polygon fill="midnightblue" stroke="midnightblue" points="775.753,-142.031 773.19,-131.751 768.783,-141.386 775.753,-142.031"/>
</g>
<!-- Node12&#45;&gt;Node2 -->
<g id="edge19" class="edge"><title>Node12&#45;&gt;Node2</title>
<path fill="none" stroke="midnightblue" d="M468.52,-224.307C480.637,-215.662 499.281,-201.741 514,-188 530.324,-172.761 547.112,-153.477 558.399,-139.884"/>
<polygon fill="midnightblue" stroke="midnightblue" points="561.332,-141.827 564.961,-131.873 555.917,-137.391 561.332,-141.827"/>
</g>
<!-- Node13 -->
<g id="node13" class="node"><title>Node13</title>
<polygon fill="white" stroke="#bfbfbf" points="0,-56.5 0,-75.5 44,-75.5 44,-56.5 0,-56.5"/>
<text text-anchor="middle" x="22" y="-63.5" font-family="Helvetica,sans-Serif" font-size="10.00">QMap</text>
</g>
<!-- Node12&#45;&gt;Node13 -->
<g id="edge18" class="edge"><title>Node12&#45;&gt;Node13</title>
<path fill="none" stroke="midnightblue" d="M395.969,-231.587C307.176,-228.486 146.134,-218.684 98,-188 59.7734,-163.632 37.3951,-112.397 27.7178,-85.0685"/>
<polygon fill="midnightblue" stroke="midnightblue" points="31.029,-83.9341 24.528,-75.5682 24.3931,-86.1622 31.029,-83.9341"/>
</g>
<!-- Node14 -->
<g id="node14" class="node"><title>Node14</title>
<polygon fill="white" stroke="#bfbfbf" points="309.5,-168.5 309.5,-187.5 388.5,-187.5 388.5,-168.5 309.5,-168.5"/>
<text text-anchor="middle" x="349" y="-175.5" font-family="Helvetica,sans-Serif" font-size="10.00">QMetaObject</text>
</g>
<!-- Node12&#45;&gt;Node14 -->
<g id="edge20" class="edge"><title>Node12&#45;&gt;Node14</title>
<path fill="none" stroke="midnightblue" d="M438.809,-224.324C421.649,-215.664 395.054,-202.242 375.253,-192.249"/>
<polygon fill="midnightblue" stroke="midnightblue" points="376.653,-189.035 366.149,-187.655 373.499,-195.285 376.653,-189.035"/>
</g>
<!-- Node15 -->
<g id="node15" class="node"><title>Node15</title>
<polygon fill="white" stroke="#bfbfbf" points="406.5,-168.5 406.5,-187.5 505.5,-187.5 505.5,-168.5 406.5,-168.5"/>
<text text-anchor="middle" x="456" y="-175.5" font-family="Helvetica,sans-Serif" font-size="10.00">QCoreApplication</text>
</g>
<!-- Node12&#45;&gt;Node15 -->
<g id="edge21" class="edge"><title>Node12&#45;&gt;Node15</title>
<path fill="none" stroke="midnightblue" d="M456,-224.083C456,-217.006 456,-206.861 456,-197.986"/>
<polygon fill="midnightblue" stroke="midnightblue" points="459.5,-197.751 456,-187.751 452.5,-197.751 459.5,-197.751"/>
</g>
<!-- Node16 -->
<g id="node16" class="node"><title>Node16</title>
<g id="a_node16"><a xlink:href="../../d4/d11/torchttphandler_8h.html" target="_top" xlink:title="torchttphandler.h">
<polygon fill="white" stroke="black" points="115.5,-168.5 115.5,-187.5 214.5,-187.5 214.5,-168.5 115.5,-168.5"/>
<text text-anchor="middle" x="165" y="-175.5" font-family="Helvetica,sans-Serif" font-size="10.00">torchttphandler.h</text>
</a>
</g>
</g>
<!-- Node12&#45;&gt;Node16 -->
<g id="edge22" class="edge"><title>Node12&#45;&gt;Node16</title>
<path fill="none" stroke="midnightblue" d="M409.89,-224.444C358.594,-214.925 275.727,-199.547 220.809,-189.356"/>
<polygon fill="midnightblue" stroke="midnightblue" points="221.365,-185.9 210.894,-187.516 220.088,-192.782 221.365,-185.9"/>
</g>
<!-- Node18 -->
<g id="node18" class="node"><title>Node18</title>
<g id="a_node18"><a xlink:href="../../df/dd7/torchttprequest_8h.html" target="_top" xlink:title="torchttprequest.h">
<polygon fill="white" stroke="black" points="96.5,-112.5 96.5,-131.5 197.5,-131.5 197.5,-112.5 96.5,-112.5"/>
<text text-anchor="middle" x="147" y="-119.5" font-family="Helvetica,sans-Serif" font-size="10.00">torchttprequest.h</text>
</a>
</g>
</g>
<!-- Node12&#45;&gt;Node18 -->
<g id="edge33" class="edge"><title>Node12&#45;&gt;Node18</title>
<path fill="none" stroke="midnightblue" d="M395.642,-229.52C300.579,-223.415 124.79,-209.361 106,-188 92.3424,-172.474 110.249,-151.923 126.507,-138.123"/>
<polygon fill="midnightblue" stroke="midnightblue" points="129.06,-140.563 134.683,-131.583 124.687,-135.096 129.06,-140.563"/>
</g>
<!-- Node16&#45;&gt;Node8 -->
<g id="edge23" class="edge"><title>Node16&#45;&gt;Node8</title>
<path fill="none" stroke="midnightblue" d="M214.78,-168.676C242.705,-162.165 277.038,-150.929 303,-132 319.823,-119.735 333.026,-99.6276 341.1,-85.0204"/>
<polygon fill="midnightblue" stroke="midnightblue" points="344.311,-86.4327 345.851,-75.9504 338.11,-83.1842 344.311,-86.4327"/>
</g>
<!-- Node17 -->
<g id="node17" class="node"><title>Node17</title>
<polygon fill="white" stroke="#bfbfbf" points="216,-112.5 216,-131.5 294,-131.5 294,-112.5 216,-112.5"/>
<text text-anchor="middle" x="255" y="-119.5" font-family="Helvetica,sans-Serif" font-size="10.00">QVariantMap</text>
</g>
<!-- Node16&#45;&gt;Node17 -->
<g id="edge24" class="edge"><title>Node16&#45;&gt;Node17</title>
<path fill="none" stroke="midnightblue" d="M179.46,-168.324C193.5,-159.9 215.048,-146.971 231.543,-137.074"/>
<polygon fill="midnightblue" stroke="midnightblue" points="233.802,-139.801 240.576,-131.655 230.2,-133.798 233.802,-139.801"/>
</g>
<!-- Node16&#45;&gt;Node18 -->
<g id="edge25" class="edge"><title>Node16&#45;&gt;Node18</title>
<path fill="none" stroke="midnightblue" d="M162.028,-168.083C159.616,-160.849 156.136,-150.409 153.132,-141.397"/>
<polygon fill="midnightblue" stroke="midnightblue" points="156.4,-140.131 149.917,-131.751 149.759,-142.345 156.4,-140.131"/>
</g>
<!-- Node18&#45;&gt;Node8 -->
<g id="edge28" class="edge"><title>Node18&#45;&gt;Node8</title>
<path fill="none" stroke="midnightblue" d="M179.166,-112.444C215.804,-102.698 275.529,-86.8101 313.776,-76.6359"/>
<polygon fill="midnightblue" stroke="midnightblue" points="314.719,-80.0069 323.483,-74.0537 312.92,-73.2421 314.719,-80.0069"/>
</g>
<!-- Node18&#45;&gt;Node13 -->
<g id="edge26" class="edge"><title>Node18&#45;&gt;Node13</title>
<path fill="none" stroke="midnightblue" d="M127.193,-112.444C106.713,-103.596 74.5173,-89.6875 51.1353,-79.5865"/>
<polygon fill="midnightblue" stroke="midnightblue" points="52.282,-76.2692 41.714,-75.5164 49.5059,-82.6953 52.282,-76.2692"/>
</g>
<!-- Node19 -->
<g id="node19" class="node"><title>Node19</title>
<polygon fill="white" stroke="#bfbfbf" points="264.5,-56.5 264.5,-75.5 305.5,-75.5 305.5,-56.5 264.5,-56.5"/>
<text text-anchor="middle" x="285" y="-63.5" font-family="Helvetica,sans-Serif" font-size="10.00">QPair</text>
</g>
<!-- Node18&#45;&gt;Node19 -->
<g id="edge27" class="edge"><title>Node18&#45;&gt;Node19</title>
<path fill="none" stroke="midnightblue" d="M168.867,-112.444C192.049,-103.372 228.829,-88.98 254.776,-78.8268"/>
<polygon fill="midnightblue" stroke="midnightblue" points="256.102,-82.0664 264.139,-75.1629 253.551,-75.5477 256.102,-82.0664"/>
</g>
<!-- Node20 -->
<g id="node20" class="node"><title>Node20</title>
<polygon fill="white" stroke="#bfbfbf" points="62.5,-56.5 62.5,-75.5 133.5,-75.5 133.5,-56.5 62.5,-56.5"/>
<text text-anchor="middle" x="98" y="-63.5" font-family="Helvetica,sans-Serif" font-size="10.00">QDateTime</text>
</g>
<!-- Node18&#45;&gt;Node20 -->
<g id="edge29" class="edge"><title>Node18&#45;&gt;Node20</title>
<path fill="none" stroke="midnightblue" d="M138.909,-112.083C131.845,-104.298 121.412,-92.8015 112.851,-83.3665"/>
<polygon fill="midnightblue" stroke="midnightblue" points="115.253,-80.8047 105.941,-75.7511 110.069,-85.5087 115.253,-80.8047"/>
</g>
<!-- Node21 -->
<g id="node21" class="node"><title>Node21</title>
<g id="a_node21"><a xlink:href="../../de/de6/torchttpreader_8h.html" target="_top" xlink:title="torchttpreader.h">
<polygon fill="white" stroke="black" points="151.5,-56.5 151.5,-75.5 246.5,-75.5 246.5,-56.5 151.5,-56.5"/>
<text text-anchor="middle" x="199" y="-63.5" font-family="Helvetica,sans-Serif" font-size="10.00">torchttpreader.h</text>
</a>
</g>
</g>
<!-- Node18&#45;&gt;Node21 -->
<g id="edge30" class="edge"><title>Node18&#45;&gt;Node21</title>
<path fill="none" stroke="midnightblue" d="M155.587,-112.083C163.159,-104.22 174.378,-92.5688 183.514,-83.0813"/>
<polygon fill="midnightblue" stroke="midnightblue" points="186.158,-85.3821 190.573,-75.7511 181.115,-80.5266 186.158,-85.3821"/>
</g>
<!-- Node22 -->
<g id="node22" class="node"><title>Node22</title>
<polygon fill="white" stroke="#bfbfbf" points="118.5,-0.5 118.5,-19.5 189.5,-19.5 189.5,-0.5 118.5,-0.5"/>
<text text-anchor="middle" x="154" y="-7.5" font-family="Helvetica,sans-Serif" font-size="10.00">QByteArray</text>
</g>
<!-- Node21&#45;&gt;Node22 -->
<g id="edge31" class="edge"><title>Node21&#45;&gt;Node22</title>
<path fill="none" stroke="midnightblue" d="M191.569,-56.083C185.147,-48.3768 175.694,-37.0333 167.878,-27.6531"/>
<polygon fill="midnightblue" stroke="midnightblue" points="170.383,-25.1927 161.293,-19.7511 165.006,-29.674 170.383,-25.1927"/>
</g>
<!-- Node23 -->
<g id="node23" class="node"><title>Node23</title>
<polygon fill="white" stroke="#bfbfbf" points="208,-0.5 208,-19.5 280,-19.5 280,-0.5 208,-0.5"/>
<text text-anchor="middle" x="244" y="-7.5" font-family="Helvetica,sans-Serif" font-size="10.00">QTcpSocket</text>
</g>
<!-- Node21&#45;&gt;Node23 -->
<g id="edge32" class="edge"><title>Node21&#45;&gt;Node23</title>
<path fill="none" stroke="midnightblue" d="M206.431,-56.083C212.853,-48.3768 222.306,-37.0333 230.122,-27.6531"/>
<polygon fill="midnightblue" stroke="midnightblue" points="232.994,-29.674 236.707,-19.7511 227.617,-25.1927 232.994,-29.674"/>
</g>
<!-- Node24&#45;&gt;Node2 -->
<g id="edge35" class="edge"><title>Node24&#45;&gt;Node2</title>
<path fill="none" stroke="midnightblue" d="M595.656,-280.075C591.721,-253.945 580.164,-177.211 574.798,-141.577"/>
<polygon fill="midnightblue" stroke="midnightblue" points="578.241,-140.935 573.29,-131.568 571.319,-141.978 578.241,-140.935"/>
</g>
<!-- Node24&#45;&gt;Node4 -->
<g id="edge36" class="edge"><title>Node24&#45;&gt;Node4</title>
<path fill="none" stroke="midnightblue" d="M635.204,-281.597C638.179,-281.048 641.137,-280.509 644,-280 741.115,-262.723 767.298,-267.895 863,-244 878.605,-240.104 969.834,-208.625 1020.72,-190.945"/>
<polygon fill="midnightblue" stroke="midnightblue" points="1022.03,-194.195 1030.33,-187.605 1019.73,-187.583 1022.03,-194.195"/>
</g>
<!-- Node24&#45;&gt;Node6 -->
<g id="edge39" class="edge"><title>Node24&#45;&gt;Node6</title>
<path fill="none" stroke="midnightblue" d="M612.263,-280.324C627.221,-271.822 650.255,-258.729 667.727,-248.797"/>
<polygon fill="midnightblue" stroke="midnightblue" points="669.81,-251.639 676.774,-243.655 666.351,-245.553 669.81,-251.639"/>
</g>
<!-- Node24&#45;&gt;Node9 -->
<g id="edge37" class="edge"><title>Node24&#45;&gt;Node9</title>
<path fill="none" stroke="midnightblue" d="M624.017,-280.46C685.815,-260.926 837.555,-212.963 907.98,-190.702"/>
<polygon fill="midnightblue" stroke="midnightblue" points="909.28,-193.962 917.76,-187.61 907.17,-187.287 909.28,-193.962"/>
</g>
<!-- Node24&#45;&gt;Node12 -->
<g id="edge38" class="edge"><title>Node24&#45;&gt;Node12</title>
<path fill="none" stroke="midnightblue" d="M574.658,-280.444C551.247,-271.478 514.264,-257.314 487.81,-247.183"/>
<polygon fill="midnightblue" stroke="midnightblue" points="488.828,-243.824 478.237,-243.516 486.324,-250.361 488.828,-243.824"/>
</g>
<!-- Node25&#45;&gt;Node2 -->
<g id="edge41" class="edge"><title>Node25&#45;&gt;Node2</title>
<path fill="none" stroke="midnightblue" d="M472.814,-283.071C401.222,-269.248 246.418,-231.175 300,-168 329.755,-132.918 468.173,-125.149 535.3,-123.455"/>
<polygon fill="midnightblue" stroke="midnightblue" points="535.513,-126.951 545.434,-123.232 535.359,-119.953 535.513,-126.951"/>
</g>
<!-- Node25&#45;&gt;Node4 -->
<g id="edge42" class="edge"><title>Node25&#45;&gt;Node4</title>
<path fill="none" stroke="midnightblue" d="M541.257,-281.775C544.213,-281.168 547.158,-280.569 550,-280 755.022,-238.917 810.033,-234.657 1017.14,-188.347"/>
<polygon fill="midnightblue" stroke="midnightblue" points="1018.13,-191.713 1027.12,-186.11 1016.6,-184.883 1018.13,-191.713"/>
</g>
<!-- Node25&#45;&gt;Node6 -->
<g id="edge44" class="edge"><title>Node25&#45;&gt;Node6</title>
<path fill="none" stroke="midnightblue" d="M536.314,-280.444C567.842,-271.241 618.131,-256.562 652.986,-246.388"/>
<polygon fill="midnightblue" stroke="midnightblue" points="654.205,-249.678 662.823,-243.516 652.243,-242.959 654.205,-249.678"/>
</g>
<!-- Node25&#45;&gt;Node12 -->
<g id="edge43" class="edge"><title>Node25&#45;&gt;Node12</title>
<path fill="none" stroke="midnightblue" d="M498.578,-280.083C491.152,-272.22 480.148,-260.569 471.188,-251.081"/>
<polygon fill="midnightblue" stroke="midnightblue" points="473.676,-248.618 464.265,-243.751 468.587,-253.424 473.676,-248.618"/>
</g>
</g>
</svg>
