<?xml version="1.0" encoding="UTF-8" standalone="no"?>
<!DOCTYPE svg PUBLIC "-//W3C//DTD SVG 1.1//EN"
 "http://www.w3.org/Graphics/SVG/1.1/DTD/svg11.dtd">
<!-- Generated by graphviz version 2.38.0 (20140413.2041)
 -->
<!-- Title: torc1wirebus.cpp Pages: 1 -->
<!--zoomable 476 -->
<svg id="main" version="1.1" xmlns="http://www.w3.org/2000/svg" xmlns:xlink="http://www.w3.org/1999/xlink" xml:space="preserve" onload="init(evt)">
<style type="text/css"><![CDATA[
.edge:hover path { stroke: red; }
.edge:hover polygon { stroke: red; fill: red; }
]]></style>
<script type="text/javascript"><![CDATA[
var edges = document.getElementsByTagName('g');
if (edges && edges.length) {
  for (var i=0;i<edges.length;i++) {
    if (edges[i].id.substr(0,4)=='edge') {
      edges[i].setAttribute('class','edge');
    }
  }
}
]]></script>
        <defs>
                <circle id="rim" cx="0" cy="0" r="7"/>
                <circle id="rim2" cx="0" cy="0" r="3.5"/>
                <g id="zoomPlus">
                        <use xlink:href="#rim" fill="#404040">
                                <set attributeName="fill" to="#808080" begin="zoomplus.mouseover" end="zoomplus.mouseout"/>
                        </use>
                        <path d="M-4,0h8M0,-4v8" fill="none" stroke="white" stroke-width="1.5" pointer-events="none"/>
                </g>
                <g id="zoomMin">
                        <use xlink:href="#rim" fill="#404040">
                                <set attributeName="fill" to="#808080" begin="zoomminus.mouseover" end="zoomminus.mouseout"/>
                        </use>
                        <path d="M-4,0h8" fill="none" stroke="white" stroke-width="1.5" pointer-events="none"/>
                </g>
                <g id="dirArrow">
                        <path fill="none" stroke="white" stroke-width="1.5" d="M0,-3.0v7 M-2.5,-0.5L0,-3.0L2.5,-0.5"/>
                </g>
               <g id="resetDef">
                       <use xlink:href="#rim2" fill="#404040">
                               <set attributeName="fill" to="#808080" begin="reset.mouseover" end="reset.mouseout"/>
                       </use>
               </g>
        </defs>

<script type="text/javascript">
var viewWidth = 1168;
var viewHeight = 476;
var sectionId = 'dynsection-0';
</script>
<script xlink:href="../../svgpan.js"/>
<svg id="graph" class="graph">
<g id="viewport">
<title>torc1wirebus.cpp</title>
<polygon fill="white" stroke="none" points="-4,4 -4,-472 1163.5,-472 1163.5,4 -4,4"/>
<!-- Node1 -->
<g id="node1" class="node"><title>Node1</title>
<polygon fill="#bfbfbf" stroke="black" points="443.5,-448.5 443.5,-467.5 541.5,-467.5 541.5,-448.5 443.5,-448.5"/>
<text text-anchor="middle" x="492.5" y="-455.5" font-family="Helvetica,sans-Serif" font-size="10.00">torc1wirebus.cpp</text>
</g>
<!-- Node2 -->
<g id="node2" class="node"><title>Node2</title>
<polygon fill="white" stroke="#bfbfbf" points="205.5,-392.5 205.5,-411.5 243.5,-411.5 243.5,-392.5 205.5,-392.5"/>
<text text-anchor="middle" x="224.5" y="-399.5" font-family="Helvetica,sans-Serif" font-size="10.00">QDir</text>
</g>
<!-- Node1&#45;&gt;Node2 -->
<g id="edge1" class="edge"><title>Node1&#45;&gt;Node2</title>
<path fill="none" stroke="midnightblue" d="M443.384,-449.645C396.788,-442.254 324.679,-429.745 253.694,-412.049"/>
<polygon fill="midnightblue" stroke="midnightblue" points="254.241,-408.577 243.688,-409.518 252.524,-415.364 254.241,-408.577"/>
</g>
<!-- Node3 -->
<g id="node3" class="node"><title>Node3</title>
<g id="a_node3"><a xlink:href="../../d4/df9/torclogging_8h.html" target="_top" xlink:title="torclogging.h">
<polygon fill="white" stroke="black" points="262,-392.5 262,-411.5 341,-411.5 341,-392.5 262,-392.5"/>
<text text-anchor="middle" x="301.5" y="-399.5" font-family="Helvetica,sans-Serif" font-size="10.00">torclogging.h</text>
</a>
</g>
</g>
<!-- Node1&#45;&gt;Node3 -->
<g id="edge2" class="edge"><title>Node1&#45;&gt;Node3</title>
<path fill="none" stroke="midnightblue" d="M462.235,-448.444C429.545,-439.201 377.318,-424.436 341.317,-414.257"/>
<polygon fill="midnightblue" stroke="midnightblue" points="342.198,-410.869 331.623,-411.516 340.294,-417.605 342.198,-410.869"/>
</g>
<!-- Node7 -->
<g id="node7" class="node"><title>Node7</title>
<g id="a_node7"><a xlink:href="../../dd/dd5/torcadminthread_8h.html" target="_top" xlink:title="torcadminthread.h">
<polygon fill="white" stroke="black" points="395.5,-392.5 395.5,-411.5 501.5,-411.5 501.5,-392.5 395.5,-392.5"/>
<text text-anchor="middle" x="448.5" y="-399.5" font-family="Helvetica,sans-Serif" font-size="10.00">torcadminthread.h</text>
</a>
</g>
</g>
<!-- Node1&#45;&gt;Node7 -->
<g id="edge6" class="edge"><title>Node1&#45;&gt;Node7</title>
<path fill="none" stroke="midnightblue" d="M485.234,-448.083C478.955,-440.377 469.712,-429.033 462.069,-419.653"/>
<polygon fill="midnightblue" stroke="midnightblue" points="464.661,-417.293 455.631,-411.751 459.234,-421.714 464.661,-417.293"/>
</g>
<!-- Node11 -->
<g id="node11" class="node"><title>Node11</title>
<g id="a_node11"><a xlink:href="../../d4/d68/torcinputs_8h.html" target="_top" xlink:title="torcinputs.h">
<polygon fill="white" stroke="black" points="507.5,-336.5 507.5,-355.5 581.5,-355.5 581.5,-336.5 507.5,-336.5"/>
<text text-anchor="middle" x="544.5" y="-343.5" font-family="Helvetica,sans-Serif" font-size="10.00">torcinputs.h</text>
</a>
</g>
</g>
<!-- Node1&#45;&gt;Node11 -->
<g id="edge10" class="edge"><title>Node1&#45;&gt;Node11</title>
<path fill="none" stroke="midnightblue" d="M496.58,-448.368C505.048,-430.456 524.682,-388.923 536.015,-364.948"/>
<polygon fill="midnightblue" stroke="midnightblue" points="539.329,-366.128 540.439,-355.591 533,-363.136 539.329,-366.128"/>
</g>
<!-- Node36 -->
<g id="node36" class="node"><title>Node36</title>
<g id="a_node36"><a xlink:href="../../d2/df5/torc1wirebus_8h.html" target="_top" xlink:title="torc1wirebus.h">
<polygon fill="white" stroke="black" points="816.5,-336.5 816.5,-355.5 902.5,-355.5 902.5,-336.5 816.5,-336.5"/>
<text text-anchor="middle" x="859.5" y="-343.5" font-family="Helvetica,sans-Serif" font-size="10.00">torc1wirebus.h</text>
</a>
</g>
</g>
<!-- Node1&#45;&gt;Node36 -->
<g id="edge53" class="edge"><title>Node1&#45;&gt;Node36</title>
<path fill="none" stroke="midnightblue" d="M541.855,-451.562C590.303,-445.306 665.839,-433.079 728.5,-412 768.188,-398.649 811.111,-375.522 836.628,-360.756"/>
<polygon fill="midnightblue" stroke="midnightblue" points="838.658,-363.624 845.512,-355.545 835.116,-357.586 838.658,-363.624"/>
</g>
<!-- Node37 -->
<g id="node37" class="node"><title>Node37</title>
<g id="a_node37"><a xlink:href="../../d0/d86/torc1wireds18b20_8h.html" target="_top" xlink:title="torc1wireds18b20.h">
<polygon fill="white" stroke="black" points="609.5,-392.5 609.5,-411.5 719.5,-411.5 719.5,-392.5 609.5,-392.5"/>
<text text-anchor="middle" x="664.5" y="-399.5" font-family="Helvetica,sans-Serif" font-size="10.00">torc1wireds18b20.h</text>
</a>
</g>
</g>
<!-- Node1&#45;&gt;Node37 -->
<g id="edge58" class="edge"><title>Node1&#45;&gt;Node37</title>
<path fill="none" stroke="midnightblue" d="M519.754,-448.444C548.941,-439.28 595.421,-424.688 627.809,-414.519"/>
<polygon fill="midnightblue" stroke="midnightblue" points="628.881,-417.851 637.374,-411.516 626.784,-411.173 628.881,-417.851"/>
</g>
<!-- Node4 -->
<g id="node4" class="node"><title>Node4</title>
<polygon fill="white" stroke="#bfbfbf" points="112,-336.5 112,-355.5 165,-355.5 165,-336.5 112,-336.5"/>
<text text-anchor="middle" x="138.5" y="-343.5" font-family="Helvetica,sans-Serif" font-size="10.00">stdint.h</text>
</g>
<!-- Node3&#45;&gt;Node4 -->
<g id="edge3" class="edge"><title>Node3&#45;&gt;Node4</title>
<path fill="none" stroke="midnightblue" d="M275.672,-392.444C248.251,-383.359 204.723,-368.939 174.068,-358.783"/>
<polygon fill="midnightblue" stroke="midnightblue" points="174.8,-355.339 164.207,-355.516 172.599,-361.984 174.8,-355.339"/>
</g>
<!-- Node5 -->
<g id="node5" class="node"><title>Node5</title>
<polygon fill="white" stroke="#bfbfbf" points="183,-336.5 183,-355.5 234,-355.5 234,-336.5 183,-336.5"/>
<text text-anchor="middle" x="208.5" y="-343.5" font-family="Helvetica,sans-Serif" font-size="10.00">errno.h</text>
</g>
<!-- Node3&#45;&gt;Node5 -->
<g id="edge4" class="edge"><title>Node3&#45;&gt;Node5</title>
<path fill="none" stroke="midnightblue" d="M286.558,-392.324C271.915,-383.822 249.366,-370.729 232.262,-360.797"/>
<polygon fill="midnightblue" stroke="midnightblue" points="233.81,-357.649 223.405,-355.655 230.295,-363.703 233.81,-357.649"/>
</g>
<!-- Node6 -->
<g id="node6" class="node"><title>Node6</title>
<g id="a_node6"><a xlink:href="../../d1/d37/torcloggingdefs_8h.html" target="_top" xlink:title="torcloggingdefs.h">
<polygon fill="white" stroke="black" points="252,-336.5 252,-355.5 351,-355.5 351,-336.5 252,-336.5"/>
<text text-anchor="middle" x="301.5" y="-343.5" font-family="Helvetica,sans-Serif" font-size="10.00">torcloggingdefs.h</text>
</a>
</g>
</g>
<!-- Node3&#45;&gt;Node6 -->
<g id="edge5" class="edge"><title>Node3&#45;&gt;Node6</title>
<path fill="none" stroke="midnightblue" d="M301.5,-392.083C301.5,-385.006 301.5,-374.861 301.5,-365.986"/>
<polygon fill="midnightblue" stroke="midnightblue" points="305,-365.751 301.5,-355.751 298,-365.751 305,-365.751"/>
</g>
<!-- Node8 -->
<g id="node8" class="node"><title>Node8</title>
<polygon fill="white" stroke="#bfbfbf" points="437,-280.5 437,-299.5 478,-299.5 478,-280.5 437,-280.5"/>
<text text-anchor="middle" x="457.5" y="-287.5" font-family="Helvetica,sans-Serif" font-size="10.00">QList</text>
</g>
<!-- Node7&#45;&gt;Node8 -->
<g id="edge7" class="edge"><title>Node7&#45;&gt;Node8</title>
<path fill="none" stroke="midnightblue" d="M433.331,-392.302C414.871,-380.505 387.448,-358.33 398.5,-336 405.103,-322.659 417.765,-312.194 429.671,-304.726"/>
<polygon fill="midnightblue" stroke="midnightblue" points="431.618,-307.643 438.516,-299.602 428.109,-301.587 431.618,-307.643"/>
</g>
<!-- Node9 -->
<g id="node9" class="node"><title>Node9</title>
<g id="a_node9"><a xlink:href="../../dd/db0/torcqthread_8h.html" target="_top" xlink:title="torcqthread.h">
<polygon fill="white" stroke="black" points="407.5,-336.5 407.5,-355.5 489.5,-355.5 489.5,-336.5 407.5,-336.5"/>
<text text-anchor="middle" x="448.5" y="-343.5" font-family="Helvetica,sans-Serif" font-size="10.00">torcqthread.h</text>
</a>
</g>
</g>
<!-- Node7&#45;&gt;Node9 -->
<g id="edge8" class="edge"><title>Node7&#45;&gt;Node9</title>
<path fill="none" stroke="midnightblue" d="M448.5,-392.083C448.5,-385.006 448.5,-374.861 448.5,-365.986"/>
<polygon fill="midnightblue" stroke="midnightblue" points="452,-365.751 448.5,-355.751 445,-365.751 452,-365.751"/>
</g>
<!-- Node10 -->
<g id="node10" class="node"><title>Node10</title>
<polygon fill="white" stroke="#bfbfbf" points="362,-280.5 362,-299.5 419,-299.5 419,-280.5 362,-280.5"/>
<text text-anchor="middle" x="390.5" y="-287.5" font-family="Helvetica,sans-Serif" font-size="10.00">QThread</text>
</g>
<!-- Node9&#45;&gt;Node10 -->
<g id="edge9" class="edge"><title>Node9&#45;&gt;Node10</title>
<path fill="none" stroke="midnightblue" d="M439.181,-336.324C430.607,-328.341 417.688,-316.313 407.312,-306.653"/>
<polygon fill="midnightblue" stroke="midnightblue" points="409.692,-304.086 399.988,-299.834 404.922,-309.21 409.692,-304.086"/>
</g>
<!-- Node11&#45;&gt;Node8 -->
<g id="edge11" class="edge"><title>Node11&#45;&gt;Node8</title>
<path fill="none" stroke="midnightblue" d="M530.522,-336.324C516.95,-327.9 496.12,-314.971 480.175,-305.074"/>
<polygon fill="midnightblue" stroke="midnightblue" points="481.786,-301.954 471.443,-299.655 478.094,-307.902 481.786,-301.954"/>
</g>
<!-- Node12 -->
<g id="node12" class="node"><title>Node12</title>
<polygon fill="white" stroke="#bfbfbf" points="607,-112.5 607,-131.5 660,-131.5 660,-112.5 607,-112.5"/>
<text text-anchor="middle" x="633.5" y="-119.5" font-family="Helvetica,sans-Serif" font-size="10.00">QMutex</text>
</g>
<!-- Node11&#45;&gt;Node12 -->
<g id="edge12" class="edge"><title>Node11&#45;&gt;Node12</title>
<path fill="none" stroke="midnightblue" d="M545.861,-336.449C550.3,-310.089 565.926,-228.23 597.5,-168 602.947,-157.609 610.958,-147.295 618.04,-139.168"/>
<polygon fill="midnightblue" stroke="midnightblue" points="620.802,-141.333 624.939,-131.58 615.623,-136.625 620.802,-141.333"/>
</g>
<!-- Node13 -->
<g id="node13" class="node"><title>Node13</title>
<g id="a_node13"><a xlink:href="../../d3/dee/torchttpservice_8h.html" target="_top" xlink:title="torchttpservice.h">
<polygon fill="white" stroke="black" points="384.5,-224.5 384.5,-243.5 482.5,-243.5 482.5,-224.5 384.5,-224.5"/>
<text text-anchor="middle" x="433.5" y="-231.5" font-family="Helvetica,sans-Serif" font-size="10.00">torchttpservice.h</text>
</a>
</g>
</g>
<!-- Node11&#45;&gt;Node13 -->
<g id="edge13" class="edge"><title>Node11&#45;&gt;Node13</title>
<path fill="none" stroke="midnightblue" d="M537.352,-336.242C526.744,-323.423 505.985,-299.012 486.5,-280 475.701,-269.463 462.811,-258.487 452.448,-250.013"/>
<polygon fill="midnightblue" stroke="midnightblue" points="454.418,-247.105 444.438,-243.548 450.021,-252.553 454.418,-247.105"/>
</g>
<!-- Node27 -->
<g id="node27" class="node"><title>Node27</title>
<g id="a_node27"><a xlink:href="../../dd/d69/torcinput_8h.html" target="_top" xlink:title="torcinput.h">
<polygon fill="white" stroke="black" points="630.5,-280.5 630.5,-299.5 698.5,-299.5 698.5,-280.5 630.5,-280.5"/>
<text text-anchor="middle" x="664.5" y="-287.5" font-family="Helvetica,sans-Serif" font-size="10.00">torcinput.h</text>
</a>
</g>
</g>
<!-- Node11&#45;&gt;Node27 -->
<g id="edge31" class="edge"><title>Node11&#45;&gt;Node27</title>
<path fill="none" stroke="midnightblue" d="M563.514,-336.444C583.088,-327.636 613.808,-313.812 636.229,-303.722"/>
<polygon fill="midnightblue" stroke="midnightblue" points="637.892,-306.812 645.575,-299.516 635.019,-300.428 637.892,-306.812"/>
</g>
<!-- Node35 -->
<g id="node35" class="node"><title>Node35</title>
<g id="a_node35"><a xlink:href="../../d5/d41/torccentral_8h.html" target="_top" xlink:title="torccentral.h">
<polygon fill="white" stroke="black" points="786,-280.5 786,-299.5 863,-299.5 863,-280.5 786,-280.5"/>
<text text-anchor="middle" x="824.5" y="-287.5" font-family="Helvetica,sans-Serif" font-size="10.00">torccentral.h</text>
</a>
</g>
</g>
<!-- Node11&#45;&gt;Node35 -->
<g id="edge47" class="edge"><title>Node11&#45;&gt;Node35</title>
<path fill="none" stroke="midnightblue" d="M581.655,-337.72C584.647,-337.137 587.624,-336.558 590.5,-336 654.632,-323.56 728.682,-309.344 776.012,-300.277"/>
<polygon fill="midnightblue" stroke="midnightblue" points="776.821,-303.686 785.984,-298.367 775.504,-296.811 776.821,-303.686"/>
</g>
<!-- Node13&#45;&gt;Node12 -->
<g id="edge15" class="edge"><title>Node13&#45;&gt;Node12</title>
<path fill="none" stroke="midnightblue" d="M445.018,-224.289C462.766,-211.1 498.142,-185.725 530.5,-168 553.548,-155.374 580.851,-143.579 601.554,-135.235"/>
<polygon fill="midnightblue" stroke="midnightblue" points="602.85,-138.486 610.851,-131.54 600.265,-131.981 602.85,-138.486"/>
</g>
<!-- Node14 -->
<g id="node14" class="node"><title>Node14</title>
<polygon fill="white" stroke="#bfbfbf" points="446.5,-56.5 446.5,-75.5 490.5,-75.5 490.5,-56.5 446.5,-56.5"/>
<text text-anchor="middle" x="468.5" y="-63.5" font-family="Helvetica,sans-Serif" font-size="10.00">QMap</text>
</g>
<!-- Node13&#45;&gt;Node14 -->
<g id="edge14" class="edge"><title>Node13&#45;&gt;Node14</title>
<path fill="none" stroke="midnightblue" d="M436.785,-224.492C440.138,-215.53 445.293,-200.95 448.5,-188 457.342,-152.3 463.357,-109.688 466.335,-85.745"/>
<polygon fill="midnightblue" stroke="midnightblue" points="469.836,-85.9488 467.552,-75.603 462.885,-85.1148 469.836,-85.9488"/>
</g>
<!-- Node15 -->
<g id="node15" class="node"><title>Node15</title>
<polygon fill="white" stroke="#bfbfbf" points="496.5,-112.5 496.5,-131.5 588.5,-131.5 588.5,-112.5 496.5,-112.5"/>
<text text-anchor="middle" x="542.5" y="-119.5" font-family="Helvetica,sans-Serif" font-size="10.00">QReadWriteLock</text>
</g>
<!-- Node13&#45;&gt;Node15 -->
<g id="edge16" class="edge"><title>Node13&#45;&gt;Node15</title>
<path fill="none" stroke="midnightblue" d="M406.274,-224.413C375.534,-213.296 332.16,-192.426 351.5,-168 368.07,-147.073 435.921,-134.904 486.064,-128.613"/>
<polygon fill="midnightblue" stroke="midnightblue" points="486.644,-132.069 496.153,-127.396 485.805,-125.119 486.644,-132.069"/>
</g>
<!-- Node16 -->
<g id="node16" class="node"><title>Node16</title>
<polygon fill="white" stroke="#bfbfbf" points="361,-168.5 361,-187.5 440,-187.5 440,-168.5 361,-168.5"/>
<text text-anchor="middle" x="400.5" y="-175.5" font-family="Helvetica,sans-Serif" font-size="10.00">QMetaObject</text>
</g>
<!-- Node13&#45;&gt;Node16 -->
<g id="edge17" class="edge"><title>Node13&#45;&gt;Node16</title>
<path fill="none" stroke="midnightblue" d="M428.051,-224.083C423.486,-216.613 416.832,-205.724 411.207,-196.52"/>
<polygon fill="midnightblue" stroke="midnightblue" points="414.049,-194.459 405.848,-187.751 408.076,-198.109 414.049,-194.459"/>
</g>
<!-- Node17 -->
<g id="node17" class="node"><title>Node17</title>
<polygon fill="white" stroke="#bfbfbf" points="205,-168.5 205,-187.5 304,-187.5 304,-168.5 205,-168.5"/>
<text text-anchor="middle" x="254.5" y="-175.5" font-family="Helvetica,sans-Serif" font-size="10.00">QCoreApplication</text>
</g>
<!-- Node13&#45;&gt;Node17 -->
<g id="edge18" class="edge"><title>Node13&#45;&gt;Node17</title>
<path fill="none" stroke="midnightblue" d="M405.137,-224.444C374.762,-215.28 326.39,-200.688 292.684,-190.519"/>
<polygon fill="midnightblue" stroke="midnightblue" points="293.315,-187.054 282.73,-187.516 291.293,-193.756 293.315,-187.054"/>
</g>
<!-- Node18 -->
<g id="node18" class="node"><title>Node18</title>
<g id="a_node18"><a xlink:href="../../d4/d11/torchttphandler_8h.html" target="_top" xlink:title="torchttphandler.h">
<polygon fill="white" stroke="black" points="88,-168.5 88,-187.5 187,-187.5 187,-168.5 88,-168.5"/>
<text text-anchor="middle" x="137.5" y="-175.5" font-family="Helvetica,sans-Serif" font-size="10.00">torchttphandler.h</text>
</a>
</g>
</g>
<!-- Node13&#45;&gt;Node18 -->
<g id="edge19" class="edge"><title>Node13&#45;&gt;Node18</title>
<path fill="none" stroke="midnightblue" d="M386.598,-224.444C334.42,-214.925 250.129,-199.547 194.268,-189.356"/>
<polygon fill="midnightblue" stroke="midnightblue" points="194.648,-185.868 184.183,-187.516 193.392,-192.754 194.648,-185.868"/>
</g>
<!-- Node21 -->
<g id="node21" class="node"><title>Node21</title>
<g id="a_node21"><a xlink:href="../../df/dd7/torchttprequest_8h.html" target="_top" xlink:title="torchttprequest.h">
<polygon fill="white" stroke="black" points="48,-112.5 48,-131.5 149,-131.5 149,-112.5 48,-112.5"/>
<text text-anchor="middle" x="98.5" y="-119.5" font-family="Helvetica,sans-Serif" font-size="10.00">torchttprequest.h</text>
</a>
</g>
</g>
<!-- Node13&#45;&gt;Node21 -->
<g id="edge30" class="edge"><title>Node13&#45;&gt;Node21</title>
<path fill="none" stroke="midnightblue" d="M384.265,-230.316C291.52,-224.756 98.3953,-210.576 78.5,-188 66.7176,-174.63 75.7816,-154.43 85.2058,-140.102"/>
<polygon fill="midnightblue" stroke="midnightblue" points="88.2684,-141.836 91.2353,-131.665 82.5733,-137.766 88.2684,-141.836"/>
</g>
<!-- Node19 -->
<g id="node19" class="node"><title>Node19</title>
<polygon fill="white" stroke="#bfbfbf" points="261,-56.5 261,-75.5 314,-75.5 314,-56.5 261,-56.5"/>
<text text-anchor="middle" x="287.5" y="-63.5" font-family="Helvetica,sans-Serif" font-size="10.00">QString</text>
</g>
<!-- Node18&#45;&gt;Node19 -->
<g id="edge20" class="edge"><title>Node18&#45;&gt;Node19</title>
<path fill="none" stroke="midnightblue" d="M180.489,-168.496C204.568,-161.912 233.818,-150.662 254.5,-132 268.277,-119.569 277.098,-100.055 282.12,-85.649"/>
<polygon fill="midnightblue" stroke="midnightblue" points="285.548,-86.4211 285.24,-75.8307 278.876,-84.3013 285.548,-86.4211"/>
</g>
<!-- Node20 -->
<g id="node20" class="node"><title>Node20</title>
<polygon fill="white" stroke="#bfbfbf" points="167.5,-112.5 167.5,-131.5 245.5,-131.5 245.5,-112.5 167.5,-112.5"/>
<text text-anchor="middle" x="206.5" y="-119.5" font-family="Helvetica,sans-Serif" font-size="10.00">QVariantMap</text>
</g>
<!-- Node18&#45;&gt;Node20 -->
<g id="edge21" class="edge"><title>Node18&#45;&gt;Node20</title>
<path fill="none" stroke="midnightblue" d="M148.586,-168.324C158.986,-160.185 174.761,-147.839 187.222,-138.087"/>
<polygon fill="midnightblue" stroke="midnightblue" points="189.494,-140.753 195.212,-131.834 185.18,-135.241 189.494,-140.753"/>
</g>
<!-- Node18&#45;&gt;Node21 -->
<g id="edge22" class="edge"><title>Node18&#45;&gt;Node21</title>
<path fill="none" stroke="midnightblue" d="M131.06,-168.083C125.551,-160.455 117.469,-149.264 110.735,-139.941"/>
<polygon fill="midnightblue" stroke="midnightblue" points="113.513,-137.809 104.82,-131.751 107.838,-141.907 113.513,-137.809"/>
</g>
<!-- Node21&#45;&gt;Node14 -->
<g id="edge23" class="edge"><title>Node21&#45;&gt;Node14</title>
<path fill="none" stroke="midnightblue" d="M149.236,-113.372C152.371,-112.906 155.478,-112.446 158.5,-112 259.839,-97.0444 379.878,-79.735 436.236,-71.6322"/>
<polygon fill="midnightblue" stroke="midnightblue" points="436.916,-75.0704 446.317,-70.1834 435.921,-68.1416 436.916,-75.0704"/>
</g>
<!-- Node21&#45;&gt;Node19 -->
<g id="edge25" class="edge"><title>Node21&#45;&gt;Node19</title>
<path fill="none" stroke="midnightblue" d="M128.448,-112.444C161.605,-102.97 215.073,-87.6935 250.742,-77.5022"/>
<polygon fill="midnightblue" stroke="midnightblue" points="252.095,-80.7559 260.748,-74.6433 250.172,-74.0253 252.095,-80.7559"/>
</g>
<!-- Node22 -->
<g id="node22" class="node"><title>Node22</title>
<polygon fill="white" stroke="#bfbfbf" points="0,-56.5 0,-75.5 41,-75.5 41,-56.5 0,-56.5"/>
<text text-anchor="middle" x="20.5" y="-63.5" font-family="Helvetica,sans-Serif" font-size="10.00">QPair</text>
</g>
<!-- Node21&#45;&gt;Node22 -->
<g id="edge24" class="edge"><title>Node21&#45;&gt;Node22</title>
<path fill="none" stroke="midnightblue" d="M85.968,-112.324C73.9141,-103.979 55.4732,-91.2122 41.2313,-81.3524"/>
<polygon fill="midnightblue" stroke="midnightblue" points="43.2151,-78.469 33.0009,-75.6545 39.2306,-84.2243 43.2151,-78.469"/>
</g>
<!-- Node23 -->
<g id="node23" class="node"><title>Node23</title>
<polygon fill="white" stroke="#bfbfbf" points="59,-56.5 59,-75.5 130,-75.5 130,-56.5 59,-56.5"/>
<text text-anchor="middle" x="94.5" y="-63.5" font-family="Helvetica,sans-Serif" font-size="10.00">QDateTime</text>
</g>
<!-- Node21&#45;&gt;Node23 -->
<g id="edge26" class="edge"><title>Node21&#45;&gt;Node23</title>
<path fill="none" stroke="midnightblue" d="M97.8395,-112.083C97.3152,-105.006 96.5638,-94.8611 95.9064,-85.9865"/>
<polygon fill="midnightblue" stroke="midnightblue" points="99.3775,-85.4652 95.1482,-75.7511 92.3966,-85.9823 99.3775,-85.4652"/>
</g>
<!-- Node24 -->
<g id="node24" class="node"><title>Node24</title>
<g id="a_node24"><a xlink:href="../../de/de6/torchttpreader_8h.html" target="_top" xlink:title="torchttpreader.h">
<polygon fill="white" stroke="black" points="148,-56.5 148,-75.5 243,-75.5 243,-56.5 148,-56.5"/>
<text text-anchor="middle" x="195.5" y="-63.5" font-family="Helvetica,sans-Serif" font-size="10.00">torchttpreader.h</text>
</a>
</g>
</g>
<!-- Node21&#45;&gt;Node24 -->
<g id="edge27" class="edge"><title>Node21&#45;&gt;Node24</title>
<path fill="none" stroke="midnightblue" d="M114.085,-112.324C129.499,-103.743 153.312,-90.486 171.21,-80.5224"/>
<polygon fill="midnightblue" stroke="midnightblue" points="172.919,-83.5767 179.954,-75.6545 169.514,-77.4606 172.919,-83.5767"/>
</g>
<!-- Node25 -->
<g id="node25" class="node"><title>Node25</title>
<polygon fill="white" stroke="#bfbfbf" points="115,-0.5 115,-19.5 186,-19.5 186,-0.5 115,-0.5"/>
<text text-anchor="middle" x="150.5" y="-7.5" font-family="Helvetica,sans-Serif" font-size="10.00">QByteArray</text>
</g>
<!-- Node24&#45;&gt;Node25 -->
<g id="edge28" class="edge"><title>Node24&#45;&gt;Node25</title>
<path fill="none" stroke="midnightblue" d="M188.069,-56.083C181.647,-48.3768 172.194,-37.0333 164.378,-27.6531"/>
<polygon fill="midnightblue" stroke="midnightblue" points="166.883,-25.1927 157.793,-19.7511 161.506,-29.674 166.883,-25.1927"/>
</g>
<!-- Node26 -->
<g id="node26" class="node"><title>Node26</title>
<polygon fill="white" stroke="#bfbfbf" points="204.5,-0.5 204.5,-19.5 276.5,-19.5 276.5,-0.5 204.5,-0.5"/>
<text text-anchor="middle" x="240.5" y="-7.5" font-family="Helvetica,sans-Serif" font-size="10.00">QTcpSocket</text>
</g>
<!-- Node24&#45;&gt;Node26 -->
<g id="edge29" class="edge"><title>Node24&#45;&gt;Node26</title>
<path fill="none" stroke="midnightblue" d="M202.931,-56.083C209.353,-48.3768 218.806,-37.0333 226.622,-27.6531"/>
<polygon fill="midnightblue" stroke="midnightblue" points="229.494,-29.674 233.207,-19.7511 224.117,-25.1927 229.494,-29.674"/>
</g>
<!-- Node27&#45;&gt;Node12 -->
<g id="edge32" class="edge"><title>Node27&#45;&gt;Node12</title>
<path fill="none" stroke="midnightblue" d="M646.111,-280.471C632.399,-272.997 614.685,-260.71 606.5,-244 591.642,-213.666 597.484,-200.552 606.5,-168 609.292,-157.921 615.009,-147.832 620.467,-139.769"/>
<polygon fill="midnightblue" stroke="midnightblue" points="623.325,-141.79 626.349,-131.636 617.653,-137.688 623.325,-141.79"/>
</g>
<!-- Node27&#45;&gt;Node13 -->
<g id="edge34" class="edge"><title>Node27&#45;&gt;Node13</title>
<path fill="none" stroke="midnightblue" d="M630.415,-281.032C590.596,-271.724 524.508,-256.275 480,-245.87"/>
<polygon fill="midnightblue" stroke="midnightblue" points="480.549,-242.404 470.015,-243.536 478.956,-249.22 480.549,-242.404"/>
</g>
<!-- Node28 -->
<g id="node28" class="node"><title>Node28</title>
<polygon fill="white" stroke="#bfbfbf" points="1038,-168.5 1038,-187.5 1093,-187.5 1093,-168.5 1038,-168.5"/>
<text text-anchor="middle" x="1065.5" y="-175.5" font-family="Helvetica,sans-Serif" font-size="10.00">QObject</text>
</g>
<!-- Node27&#45;&gt;Node28 -->
<g id="edge33" class="edge"><title>Node27&#45;&gt;Node28</title>
<path fill="none" stroke="midnightblue" d="M698.717,-283.598C740.19,-276.586 811.925,-262.965 871.5,-244 893.132,-237.114 897.172,-231.778 918.5,-224 955.173,-210.626 997.923,-197.846 1027.84,-189.346"/>
<polygon fill="midnightblue" stroke="midnightblue" points="1029.17,-192.605 1037.85,-186.524 1027.28,-185.867 1029.17,-192.605"/>
</g>
<!-- Node29 -->
<g id="node29" class="node"><title>Node29</title>
<g id="a_node29"><a xlink:href="../../d1/df7/torcdevice_8h.html" target="_top" xlink:title="torcdevice.h">
<polygon fill="white" stroke="black" points="787,-224.5 787,-243.5 862,-243.5 862,-224.5 787,-224.5"/>
<text text-anchor="middle" x="824.5" y="-231.5" font-family="Helvetica,sans-Serif" font-size="10.00">torcdevice.h</text>
</a>
</g>
</g>
<!-- Node27&#45;&gt;Node29 -->
<g id="edge35" class="edge"><title>Node27&#45;&gt;Node29</title>
<path fill="none" stroke="midnightblue" d="M689.852,-280.444C716.769,-271.359 759.496,-256.939 789.587,-246.783"/>
<polygon fill="midnightblue" stroke="midnightblue" points="790.91,-250.031 799.266,-243.516 788.672,-243.398 790.91,-250.031"/>
</g>
<!-- Node29&#45;&gt;Node12 -->
<g id="edge37" class="edge"><title>Node29&#45;&gt;Node12</title>
<path fill="none" stroke="midnightblue" d="M786.955,-228.587C755.232,-223.304 709.912,-211.951 677.5,-188 660.937,-175.761 648.596,-155.32 641.264,-140.626"/>
<polygon fill="midnightblue" stroke="midnightblue" points="644.417,-139.107 636.998,-131.543 638.081,-142.083 644.417,-139.107"/>
</g>
<!-- Node29&#45;&gt;Node19 -->
<g id="edge38" class="edge"><title>Node29&#45;&gt;Node19</title>
<path fill="none" stroke="midnightblue" d="M826.777,-224.225C832.082,-201.509 842.445,-140.567 809.5,-112 800.316,-104.036 442.302,-77.9819 324.588,-69.6132"/>
<polygon fill="midnightblue" stroke="midnightblue" points="324.506,-66.0988 314.284,-68.8823 324.011,-73.0812 324.506,-66.0988"/>
</g>
<!-- Node29&#45;&gt;Node28 -->
<g id="edge39" class="edge"><title>Node29&#45;&gt;Node28</title>
<path fill="none" stroke="midnightblue" d="M862.357,-225.032C901.461,-216.726 964.509,-203.125 1027.5,-188.425"/>
<polygon fill="midnightblue" stroke="midnightblue" points="1028.67,-191.746 1037.61,-186.057 1027.08,-184.93 1028.67,-191.746"/>
</g>
<!-- Node30 -->
<g id="node30" class="node"><title>Node30</title>
<polygon fill="white" stroke="#bfbfbf" points="751,-112.5 751,-131.5 800,-131.5 800,-112.5 751,-112.5"/>
<text text-anchor="middle" x="775.5" y="-119.5" font-family="Helvetica,sans-Serif" font-size="10.00">QHash</text>
</g>
<!-- Node29&#45;&gt;Node30 -->
<g id="edge36" class="edge"><title>Node29&#45;&gt;Node30</title>
<path fill="none" stroke="midnightblue" d="M822.835,-224.287C820.202,-211.524 814.441,-187.181 805.5,-168 800.946,-158.23 794.444,-148.174 788.656,-140.052"/>
<polygon fill="midnightblue" stroke="midnightblue" points="791.329,-137.78 782.568,-131.823 785.702,-141.944 791.329,-137.78"/>
</g>
<!-- Node31 -->
<g id="node31" class="node"><title>Node31</title>
<g id="a_node31"><a xlink:href="../../d8/dfe/torcreferencecounted_8h.html" target="_top" xlink:title="torcreferencecounted.h">
<polygon fill="white" stroke="black" points="891,-168.5 891,-187.5 1020,-187.5 1020,-168.5 891,-168.5"/>
<text text-anchor="middle" x="955.5" y="-175.5" font-family="Helvetica,sans-Serif" font-size="10.00">torcreferencecounted.h</text>
</a>
</g>
</g>
<!-- Node29&#45;&gt;Node31 -->
<g id="edge40" class="edge"><title>Node29&#45;&gt;Node31</title>
<path fill="none" stroke="midnightblue" d="M845.257,-224.444C866.816,-215.557 900.763,-201.563 925.294,-191.451"/>
<polygon fill="midnightblue" stroke="midnightblue" points="926.928,-194.563 934.84,-187.516 924.261,-188.092 926.928,-194.563"/>
</g>
<!-- Node33 -->
<g id="node33" class="node"><title>Node33</title>
<g id="a_node33"><a xlink:href="../../d2/d5b/torcdevicehandler_8h.html" target="_top" xlink:title="torcdevicehandler.h">
<polygon fill="white" stroke="black" points="686.5,-168.5 686.5,-187.5 796.5,-187.5 796.5,-168.5 686.5,-168.5"/>
<text text-anchor="middle" x="741.5" y="-175.5" font-family="Helvetica,sans-Serif" font-size="10.00">torcdevicehandler.h</text>
</a>
</g>
</g>
<!-- Node29&#45;&gt;Node33 -->
<g id="edge42" class="edge"><title>Node29&#45;&gt;Node33</title>
<path fill="none" stroke="midnightblue" d="M811.165,-224.324C798.338,-215.979 778.715,-203.212 763.56,-193.352"/>
<polygon fill="midnightblue" stroke="midnightblue" points="765.093,-190.174 754.802,-187.655 761.276,-196.042 765.093,-190.174"/>
</g>
<!-- Node32 -->
<g id="node32" class="node"><title>Node32</title>
<polygon fill="white" stroke="#bfbfbf" points="920.5,-112.5 920.5,-131.5 990.5,-131.5 990.5,-112.5 920.5,-112.5"/>
<text text-anchor="middle" x="955.5" y="-119.5" font-family="Helvetica,sans-Serif" font-size="10.00">QAtomicInt</text>
</g>
<!-- Node31&#45;&gt;Node32 -->
<g id="edge41" class="edge"><title>Node31&#45;&gt;Node32</title>
<path fill="none" stroke="midnightblue" d="M955.5,-168.083C955.5,-161.006 955.5,-150.861 955.5,-141.986"/>
<polygon fill="midnightblue" stroke="midnightblue" points="959,-141.751 955.5,-131.751 952,-141.751 959,-141.751"/>
</g>
<!-- Node33&#45;&gt;Node12 -->
<g id="edge44" class="edge"><title>Node33&#45;&gt;Node12</title>
<path fill="none" stroke="midnightblue" d="M724.148,-168.324C706.828,-159.664 679.985,-146.242 659.998,-136.249"/>
<polygon fill="midnightblue" stroke="midnightblue" points="661.319,-132.996 650.809,-131.655 658.188,-139.257 661.319,-132.996"/>
</g>
<!-- Node33&#45;&gt;Node15 -->
<g id="edge45" class="edge"><title>Node33&#45;&gt;Node15</title>
<path fill="none" stroke="midnightblue" d="M709.968,-168.444C675.908,-159.201 621.494,-144.436 583.985,-134.257"/>
<polygon fill="midnightblue" stroke="midnightblue" points="584.452,-130.758 573.885,-131.516 582.619,-137.513 584.452,-130.758"/>
</g>
<!-- Node33&#45;&gt;Node30 -->
<g id="edge43" class="edge"><title>Node33&#45;&gt;Node30</title>
<path fill="none" stroke="midnightblue" d="M747.114,-168.083C751.867,-160.534 758.818,-149.495 764.652,-140.23"/>
<polygon fill="midnightblue" stroke="midnightblue" points="767.624,-142.078 769.99,-131.751 761.7,-138.349 767.624,-142.078"/>
</g>
<!-- Node34 -->
<g id="node34" class="node"><title>Node34</title>
<polygon fill="white" stroke="#bfbfbf" points="1041.5,-112.5 1041.5,-131.5 1099.5,-131.5 1099.5,-112.5 1041.5,-112.5"/>
<text text-anchor="middle" x="1070.5" y="-119.5" font-family="Helvetica,sans-Serif" font-size="10.00">QVariant</text>
</g>
<!-- Node33&#45;&gt;Node34 -->
<g id="edge46" class="edge"><title>Node33&#45;&gt;Node34</title>
<path fill="none" stroke="midnightblue" d="M793.631,-168.444C859.609,-157.614 971.783,-139.203 1031.07,-129.472"/>
<polygon fill="midnightblue" stroke="midnightblue" points="1031.86,-132.89 1041.16,-127.816 1030.72,-125.982 1031.86,-132.89"/>
</g>
<!-- Node35&#45;&gt;Node12 -->
<g id="edge48" class="edge"><title>Node35&#45;&gt;Node12</title>
<path fill="none" stroke="midnightblue" d="M798.949,-280.464C761.813,-266.777 693.154,-236.431 654.5,-188 643.876,-174.689 638.563,-155.857 635.946,-141.888"/>
<polygon fill="midnightblue" stroke="midnightblue" points="639.39,-141.258 634.375,-131.925 632.475,-142.348 639.39,-141.258"/>
</g>
<!-- Node35&#45;&gt;Node13 -->
<g id="edge52" class="edge"><title>Node35&#45;&gt;Node13</title>
<path fill="none" stroke="midnightblue" d="M785.939,-283.674C717.393,-274.208 573.928,-254.394 492.764,-243.185"/>
<polygon fill="midnightblue" stroke="midnightblue" points="493.087,-239.696 482.703,-241.795 492.13,-246.63 493.087,-239.696"/>
</g>
<!-- Node35&#45;&gt;Node28 -->
<g id="edge49" class="edge"><title>Node35&#45;&gt;Node28</title>
<path fill="none" stroke="midnightblue" d="M843.411,-280.368C885.646,-261.091 987.824,-214.454 1037.48,-191.789"/>
<polygon fill="midnightblue" stroke="midnightblue" points="1039.03,-194.928 1046.68,-187.591 1036.13,-188.56 1039.03,-194.928"/>
</g>
<!-- Node35&#45;&gt;Node29 -->
<g id="edge51" class="edge"><title>Node35&#45;&gt;Node29</title>
<path fill="none" stroke="midnightblue" d="M824.5,-280.083C824.5,-273.006 824.5,-262.861 824.5,-253.986"/>
<polygon fill="midnightblue" stroke="midnightblue" points="828,-253.751 824.5,-243.751 821,-253.751 828,-253.751"/>
</g>
<!-- Node35&#45;&gt;Node34 -->
<g id="edge50" class="edge"><title>Node35&#45;&gt;Node34</title>
<path fill="none" stroke="midnightblue" d="M863.14,-288.172C925.926,-284.476 1048.5,-266.938 1102.5,-188 1113.19,-172.379 1100.25,-152.665 1087.78,-139.067"/>
<polygon fill="midnightblue" stroke="midnightblue" points="1090.18,-136.514 1080.67,-131.844 1085.19,-141.425 1090.18,-136.514"/>
</g>
<!-- Node36&#45;&gt;Node14 -->
<g id="edge54" class="edge"><title>Node36&#45;&gt;Node14</title>
<path fill="none" stroke="midnightblue" d="M902.802,-338.399C985.881,-324.509 1159.5,-289.018 1159.5,-235 1159.5,-235 1159.5,-235 1159.5,-177 1159.5,-140.28 1140.94,-129.212 1108.5,-112 1054.54,-83.3658 623.07,-70.7614 500.73,-67.7412"/>
<polygon fill="midnightblue" stroke="midnightblue" points="500.599,-64.2371 490.517,-67.4938 500.429,-71.2351 500.599,-64.2371"/>
</g>
<!-- Node36&#45;&gt;Node27 -->
<g id="edge56" class="edge"><title>Node36&#45;&gt;Node27</title>
<path fill="none" stroke="midnightblue" d="M828.602,-336.444C795.226,-327.201 741.906,-312.436 705.151,-302.257"/>
<polygon fill="midnightblue" stroke="midnightblue" points="705.825,-298.812 695.254,-299.516 703.957,-305.558 705.825,-298.812"/>
</g>
<!-- Node36&#45;&gt;Node28 -->
<g id="edge55" class="edge"><title>Node36&#45;&gt;Node28</title>
<path fill="none" stroke="midnightblue" d="M870.285,-336.309C903.519,-309.528 1004.65,-228.035 1046.77,-194.09"/>
<polygon fill="midnightblue" stroke="midnightblue" points="1049.23,-196.605 1054.82,-187.605 1044.84,-191.154 1049.23,-196.605"/>
</g>
<!-- Node36&#45;&gt;Node35 -->
<g id="edge57" class="edge"><title>Node36&#45;&gt;Node35</title>
<path fill="none" stroke="midnightblue" d="M853.72,-336.083C848.828,-328.534 841.673,-317.495 835.667,-308.23"/>
<polygon fill="midnightblue" stroke="midnightblue" points="838.548,-306.239 830.172,-299.751 832.674,-310.046 838.548,-306.239"/>
</g>
<!-- Node37&#45;&gt;Node9 -->
<g id="edge60" class="edge"><title>Node37&#45;&gt;Node9</title>
<path fill="none" stroke="midnightblue" d="M630.274,-392.444C592.988,-383.122 533.231,-368.183 492.489,-357.997"/>
<polygon fill="midnightblue" stroke="midnightblue" points="493.116,-354.546 482.566,-355.516 491.418,-361.337 493.116,-354.546"/>
</g>
<!-- Node37&#45;&gt;Node36 -->
<g id="edge63" class="edge"><title>Node37&#45;&gt;Node36</title>
<path fill="none" stroke="midnightblue" d="M695.398,-392.444C728.774,-383.201 782.094,-368.436 818.849,-358.257"/>
<polygon fill="midnightblue" stroke="midnightblue" points="820.043,-361.558 828.746,-355.516 818.175,-354.812 820.043,-361.558"/>
</g>
<!-- Node38 -->
<g id="node38" class="node"><title>Node38</title>
<polygon fill="white" stroke="#bfbfbf" points="747,-336.5 747,-355.5 798,-355.5 798,-336.5 747,-336.5"/>
<text text-anchor="middle" x="772.5" y="-343.5" font-family="Helvetica,sans-Serif" font-size="10.00">QTimer</text>
</g>
<!-- Node37&#45;&gt;Node38 -->
<g id="edge59" class="edge"><title>Node37&#45;&gt;Node38</title>
<path fill="none" stroke="midnightblue" d="M681.852,-392.324C699.172,-383.664 726.015,-370.242 746.002,-360.249"/>
<polygon fill="midnightblue" stroke="midnightblue" points="747.812,-363.257 755.191,-355.655 744.681,-356.996 747.812,-363.257"/>
</g>
<!-- Node39 -->
<g id="node39" class="node"><title>Node39</title>
<g id="a_node39"><a xlink:href="../../d3/dc5/torctemperatureinput_8h.html" target="_top" xlink:title="torctemperatureinput.h">
<polygon fill="white" stroke="black" points="600,-336.5 600,-355.5 729,-355.5 729,-336.5 600,-336.5"/>
<text text-anchor="middle" x="664.5" y="-343.5" font-family="Helvetica,sans-Serif" font-size="10.00">torctemperatureinput.h</text>
</a>
</g>
</g>
<!-- Node37&#45;&gt;Node39 -->
<g id="edge61" class="edge"><title>Node37&#45;&gt;Node39</title>
<path fill="none" stroke="midnightblue" d="M664.5,-392.083C664.5,-385.006 664.5,-374.861 664.5,-365.986"/>
<polygon fill="midnightblue" stroke="midnightblue" points="668,-365.751 664.5,-355.751 661,-365.751 668,-365.751"/>
</g>
<!-- Node39&#45;&gt;Node27 -->
<g id="edge62" class="edge"><title>Node39&#45;&gt;Node27</title>
<path fill="none" stroke="midnightblue" d="M664.5,-336.083C664.5,-329.006 664.5,-318.861 664.5,-309.986"/>
<polygon fill="midnightblue" stroke="midnightblue" points="668,-309.751 664.5,-299.751 661,-309.751 668,-309.751"/>
</g>
</g>
</svg>
        <g id="navigator" transform="translate(0 0)" fill="#404254">
                <rect fill="#f2f5e9" fill-opacity="0.5" stroke="#606060" stroke-width=".5" x="0" y="0" width="60" height="60"/>
                <use id="zoomplus" xlink:href="#zoomPlus" x="17" y="9" onmousedown="handleZoom(evt,'in')"/>
                <use id="zoomminus" xlink:href="#zoomMin" x="42" y="9" onmousedown="handleZoom(evt,'out')"/>
                <use id="reset" xlink:href="#resetDef" x="30" y="36" onmousedown="handleReset()"/>
                <g id="arrowUp" xlink:href="#dirArrow" transform="translate(30 24)" onmousedown="handlePan(0,-1)">
                  <use xlink:href="#rim" fill="#404040">
                        <set attributeName="fill" to="#808080" begin="arrowUp.mouseover" end="arrowUp.mouseout"/>
                  </use>
                  <path fill="none" stroke="white" stroke-width="1.5" d="M0,-3.0v7 M-2.5,-0.5L0,-3.0L2.5,-0.5"/>
                </g>
                <g id="arrowRight" xlink:href="#dirArrow" transform="rotate(90) translate(36 -43)" onmousedown="handlePan(1,0)">
                  <use xlink:href="#rim" fill="#404040">
                        <set attributeName="fill" to="#808080" begin="arrowRight.mouseover" end="arrowRight.mouseout"/>
                  </use>
                  <path fill="none" stroke="white" stroke-width="1.5" d="M0,-3.0v7 M-2.5,-0.5L0,-3.0L2.5,-0.5"/>
                </g>
                <g id="arrowDown" xlink:href="#dirArrow" transform="rotate(180) translate(-30 -48)" onmousedown="handlePan(0,1)">
                  <use xlink:href="#rim" fill="#404040">
                        <set attributeName="fill" to="#808080" begin="arrowDown.mouseover" end="arrowDown.mouseout"/>
                  </use>
                  <path fill="none" stroke="white" stroke-width="1.5" d="M0,-3.0v7 M-2.5,-0.5L0,-3.0L2.5,-0.5"/>
                </g>
                <g id="arrowLeft" xlink:href="#dirArrow" transform="rotate(270) translate(-36 17)" onmousedown="handlePan(-1,0)">
                  <use xlink:href="#rim" fill="#404040">
                        <set attributeName="fill" to="#808080" begin="arrowLeft.mouseover" end="arrowLeft.mouseout"/>
                  </use>
                  <path fill="none" stroke="white" stroke-width="1.5" d="M0,-3.0v7 M-2.5,-0.5L0,-3.0L2.5,-0.5"/>
                </g>
        </g>
        <svg viewBox="0 0 15 15" width="100%" height="30px" preserveAspectRatio="xMaxYMin meet">
         <g id="arrow_out" transform="scale(0.3 0.3)">
          <a xlink:href="torc1wirebus_8cpp__incl_org.svg" target="_base">
           <rect id="button" ry="5" rx="5" y="6" x="6" height="38" width="38"
                fill="#f2f5e9" fill-opacity="0.5" stroke="#606060" stroke-width="1.0"/>
           <path id="arrow"
             d="M 11.500037,31.436501 C 11.940474,20.09759 22.043105,11.32322 32.158766,21.979434 L 37.068811,17.246167 C 37.068811,17.246167 37.088388,32 37.088388,32 L 22.160133,31.978069 C 22.160133,31.978069 26.997745,27.140456 26.997745,27.140456 C 18.528582,18.264221 13.291696,25.230495 11.500037,31.436501 z"
             style="fill:#404040;"/>
          </a>
         </g>
        </svg>
</svg>
