<?xml version="1.0" encoding="UTF-8" standalone="no"?>
<!DOCTYPE svg PUBLIC "-//W3C//DTD SVG 1.1//EN"
 "http://www.w3.org/Graphics/SVG/1.1/DTD/svg11.dtd">
<!-- Generated by graphviz version 2.38.0 (20140413.2041)
 -->
<!-- Title: torc1wirebus.cpp Pages: 1 -->
<!--zoomable 476 -->
<svg id="main" version="1.1" xmlns="http://www.w3.org/2000/svg" xmlns:xlink="http://www.w3.org/1999/xlink" xml:space="preserve" onload="init(evt)">
<style type="text/css"><![CDATA[
.edge:hover path { stroke: red; }
.edge:hover polygon { stroke: red; fill: red; }
]]></style>
<script type="text/javascript"><![CDATA[
var edges = document.getElementsByTagName('g');
if (edges && edges.length) {
  for (var i=0;i<edges.length;i++) {
    if (edges[i].id.substr(0,4)=='edge') {
      edges[i].setAttribute('class','edge');
    }
  }
}
]]></script>
        <defs>
                <circle id="rim" cx="0" cy="0" r="7"/>
                <circle id="rim2" cx="0" cy="0" r="3.5"/>
                <g id="zoomPlus">
                        <use xlink:href="#rim" fill="#404040">
                                <set attributeName="fill" to="#808080" begin="zoomplus.mouseover" end="zoomplus.mouseout"/>
                        </use>
                        <path d="M-4,0h8M0,-4v8" fill="none" stroke="white" stroke-width="1.5" pointer-events="none"/>
                </g>
                <g id="zoomMin">
                        <use xlink:href="#rim" fill="#404040">
                                <set attributeName="fill" to="#808080" begin="zoomminus.mouseover" end="zoomminus.mouseout"/>
                        </use>
                        <path d="M-4,0h8" fill="none" stroke="white" stroke-width="1.5" pointer-events="none"/>
                </g>
                <g id="dirArrow">
                        <path fill="none" stroke="white" stroke-width="1.5" d="M0,-3.0v7 M-2.5,-0.5L0,-3.0L2.5,-0.5"/>
                </g>
               <g id="resetDef">
                       <use xlink:href="#rim2" fill="#404040">
                               <set attributeName="fill" to="#808080" begin="reset.mouseover" end="reset.mouseout"/>
                       </use>
               </g>
        </defs>

<script type="text/javascript">
var viewWidth = 1201;
var viewHeight = 476;
var sectionId = 'dynsection-0';
</script>
<script xlink:href="../../svgpan.js"/>
<svg id="graph" class="graph">
<g id="viewport">
<title>torc1wirebus.cpp</title>
<polygon fill="white" stroke="none" points="-4,4 -4,-472 1196.5,-472 1196.5,4 -4,4"/>
<!-- Node1 -->
<g id="node1" class="node"><title>Node1</title>
<polygon fill="#bfbfbf" stroke="black" points="509.5,-448.5 509.5,-467.5 607.5,-467.5 607.5,-448.5 509.5,-448.5"/>
<text text-anchor="middle" x="558.5" y="-455.5" font-family="Helvetica,sans-Serif" font-size="10.00">torc1wirebus.cpp</text>
</g>
<!-- Node2 -->
<g id="node2" class="node"><title>Node2</title>
<polygon fill="white" stroke="#bfbfbf" points="312.5,-392.5 312.5,-411.5 350.5,-411.5 350.5,-392.5 312.5,-392.5"/>
<text text-anchor="middle" x="331.5" y="-399.5" font-family="Helvetica,sans-Serif" font-size="10.00">QDir</text>
</g>
<!-- Node1&#45;&gt;Node2 -->
<g id="edge1" class="edge"><title>Node1&#45;&gt;Node2</title>
<path fill="none" stroke="midnightblue" d="M515.528,-448.431C477.174,-440.527 419.307,-427.975 360.534,-412.104"/>
<polygon fill="midnightblue" stroke="midnightblue" points="361.281,-408.68 350.713,-409.423 359.438,-415.433 361.281,-408.68"/>
</g>
<!-- Node3 -->
<g id="node3" class="node"><title>Node3</title>
<g id="a_node3"><a xlink:href="../../d4/df9/torclogging_8h.html" target="_top" xlink:title="torclogging.h">
<polygon fill="white" stroke="black" points="369,-392.5 369,-411.5 448,-411.5 448,-392.5 369,-392.5"/>
<text text-anchor="middle" x="408.5" y="-399.5" font-family="Helvetica,sans-Serif" font-size="10.00">torclogging.h</text>
</a>
</g>
</g>
<!-- Node1&#45;&gt;Node3 -->
<g id="edge2" class="edge"><title>Node1&#45;&gt;Node3</title>
<path fill="none" stroke="midnightblue" d="M534.732,-448.444C509.607,-439.399 469.789,-425.064 441.6,-414.916"/>
<polygon fill="midnightblue" stroke="midnightblue" points="442.751,-411.611 432.157,-411.516 440.38,-418.197 442.751,-411.611"/>
</g>
<!-- Node7 -->
<g id="node7" class="node"><title>Node7</title>
<g id="a_node7"><a xlink:href="../../dd/dd5/torcadminthread_8h.html" target="_top" xlink:title="torcadminthread.h">
<polygon fill="white" stroke="black" points="465.5,-392.5 465.5,-411.5 571.5,-411.5 571.5,-392.5 465.5,-392.5"/>
<text text-anchor="middle" x="518.5" y="-399.5" font-family="Helvetica,sans-Serif" font-size="10.00">torcadminthread.h</text>
</a>
</g>
</g>
<!-- Node1&#45;&gt;Node7 -->
<g id="edge6" class="edge"><title>Node1&#45;&gt;Node7</title>
<path fill="none" stroke="midnightblue" d="M551.895,-448.083C546.245,-440.455 537.955,-429.264 531.049,-419.941"/>
<polygon fill="midnightblue" stroke="midnightblue" points="533.747,-417.703 524.982,-411.751 528.122,-421.87 533.747,-417.703"/>
</g>
<!-- Node11 -->
<g id="node11" class="node"><title>Node11</title>
<g id="a_node11"><a xlink:href="../../d4/d68/torcinputs_8h.html" target="_top" xlink:title="torcinputs.h">
<polygon fill="white" stroke="black" points="518.5,-336.5 518.5,-355.5 592.5,-355.5 592.5,-336.5 518.5,-336.5"/>
<text text-anchor="middle" x="555.5" y="-343.5" font-family="Helvetica,sans-Serif" font-size="10.00">torcinputs.h</text>
</a>
</g>
</g>
<!-- Node1&#45;&gt;Node11 -->
<g id="edge10" class="edge"><title>Node1&#45;&gt;Node11</title>
<path fill="none" stroke="midnightblue" d="M564.864,-448.292C573.105,-435.934 585.819,-412.528 580.5,-392 577.954,-382.175 572.747,-372.212 567.741,-364.166"/>
<polygon fill="midnightblue" stroke="midnightblue" points="570.58,-362.114 562.129,-355.725 564.751,-365.99 570.58,-362.114"/>
</g>
<!-- Node36 -->
<g id="node36" class="node"><title>Node36</title>
<g id="a_node36"><a xlink:href="../../d2/df5/torc1wirebus_8h.html" target="_top" xlink:title="torc1wirebus.h">
<polygon fill="white" stroke="black" points="984.5,-336.5 984.5,-355.5 1070.5,-355.5 1070.5,-336.5 984.5,-336.5"/>
<text text-anchor="middle" x="1027.5" y="-343.5" font-family="Helvetica,sans-Serif" font-size="10.00">torc1wirebus.h</text>
</a>
</g>
</g>
<!-- Node1&#45;&gt;Node36 -->
<g id="edge53" class="edge"><title>Node1&#45;&gt;Node36</title>
<path fill="none" stroke="midnightblue" d="M607.536,-454.447C671.605,-450.148 786.784,-439.097 881.5,-412 926.122,-399.234 974.767,-375.399 1003.13,-360.41"/>
<polygon fill="midnightblue" stroke="midnightblue" points="1005.11,-363.318 1012.27,-355.51 1001.8,-357.148 1005.11,-363.318"/>
</g>
<!-- Node37 -->
<g id="node37" class="node"><title>Node37</title>
<g id="a_node37"><a xlink:href="../../d0/d86/torc1wireds18b20_8h.html" target="_top" xlink:title="torc1wireds18b20.h">
<polygon fill="white" stroke="black" points="762.5,-392.5 762.5,-411.5 872.5,-411.5 872.5,-392.5 762.5,-392.5"/>
<text text-anchor="middle" x="817.5" y="-399.5" font-family="Helvetica,sans-Serif" font-size="10.00">torc1wireds18b20.h</text>
</a>
</g>
</g>
<!-- Node1&#45;&gt;Node37 -->
<g id="edge58" class="edge"><title>Node1&#45;&gt;Node37</title>
<path fill="none" stroke="midnightblue" d="M599.539,-448.444C644.816,-439.004 717.727,-423.802 766.606,-413.611"/>
<polygon fill="midnightblue" stroke="midnightblue" points="767.578,-416.984 776.653,-411.516 766.149,-410.131 767.578,-416.984"/>
</g>
<!-- Node4 -->
<g id="node4" class="node"><title>Node4</title>
<polygon fill="white" stroke="#bfbfbf" points="409,-336.5 409,-355.5 462,-355.5 462,-336.5 409,-336.5"/>
<text text-anchor="middle" x="435.5" y="-343.5" font-family="Helvetica,sans-Serif" font-size="10.00">stdint.h</text>
</g>
<!-- Node3&#45;&gt;Node4 -->
<g id="edge3" class="edge"><title>Node3&#45;&gt;Node4</title>
<path fill="none" stroke="midnightblue" d="M412.959,-392.083C416.654,-384.691 422.023,-373.953 426.594,-364.811"/>
<polygon fill="midnightblue" stroke="midnightblue" points="429.783,-366.261 431.124,-355.751 423.522,-363.13 429.783,-366.261"/>
</g>
<!-- Node5 -->
<g id="node5" class="node"><title>Node5</title>
<polygon fill="white" stroke="#bfbfbf" points="223,-336.5 223,-355.5 274,-355.5 274,-336.5 223,-336.5"/>
<text text-anchor="middle" x="248.5" y="-343.5" font-family="Helvetica,sans-Serif" font-size="10.00">errno.h</text>
</g>
<!-- Node3&#45;&gt;Node5 -->
<g id="edge4" class="edge"><title>Node3&#45;&gt;Node5</title>
<path fill="none" stroke="midnightblue" d="M383.148,-392.444C356.231,-383.359 313.504,-368.939 283.413,-358.783"/>
<polygon fill="midnightblue" stroke="midnightblue" points="284.328,-355.398 273.734,-355.516 282.09,-362.031 284.328,-355.398"/>
</g>
<!-- Node6 -->
<g id="node6" class="node"><title>Node6</title>
<g id="a_node6"><a xlink:href="../../d1/d37/torcloggingdefs_8h.html" target="_top" xlink:title="torcloggingdefs.h">
<polygon fill="white" stroke="black" points="292,-336.5 292,-355.5 391,-355.5 391,-336.5 292,-336.5"/>
<text text-anchor="middle" x="341.5" y="-343.5" font-family="Helvetica,sans-Serif" font-size="10.00">torcloggingdefs.h</text>
</a>
</g>
</g>
<!-- Node3&#45;&gt;Node6 -->
<g id="edge5" class="edge"><title>Node3&#45;&gt;Node6</title>
<path fill="none" stroke="midnightblue" d="M397.735,-392.324C387.734,-384.263 372.613,-372.077 360.57,-362.369"/>
<polygon fill="midnightblue" stroke="midnightblue" points="362.443,-359.384 352.461,-355.834 358.05,-364.834 362.443,-359.384"/>
</g>
<!-- Node8 -->
<g id="node8" class="node"><title>Node8</title>
<polygon fill="white" stroke="#bfbfbf" points="470,-280.5 470,-299.5 511,-299.5 511,-280.5 470,-280.5"/>
<text text-anchor="middle" x="490.5" y="-287.5" font-family="Helvetica,sans-Serif" font-size="10.00">QList</text>
</g>
<!-- Node7&#45;&gt;Node8 -->
<g id="edge7" class="edge"><title>Node7&#45;&gt;Node8</title>
<path fill="none" stroke="midnightblue" d="M516.303,-392.368C511.784,-374.617 501.361,-333.666 495.234,-309.597"/>
<polygon fill="midnightblue" stroke="midnightblue" points="498.546,-308.419 492.687,-299.591 491.762,-310.146 498.546,-308.419"/>
</g>
<!-- Node9 -->
<g id="node9" class="node"><title>Node9</title>
<g id="a_node9"><a xlink:href="../../dd/db0/torcqthread_8h.html" target="_top" xlink:title="torcqthread.h">
<polygon fill="white" stroke="black" points="610.5,-336.5 610.5,-355.5 692.5,-355.5 692.5,-336.5 610.5,-336.5"/>
<text text-anchor="middle" x="651.5" y="-343.5" font-family="Helvetica,sans-Serif" font-size="10.00">torcqthread.h</text>
</a>
</g>
</g>
<!-- Node7&#45;&gt;Node9 -->
<g id="edge8" class="edge"><title>Node7&#45;&gt;Node9</title>
<path fill="none" stroke="midnightblue" d="M539.574,-392.444C561.56,-383.517 596.234,-369.439 621.164,-359.317"/>
<polygon fill="midnightblue" stroke="midnightblue" points="622.576,-362.521 630.524,-355.516 619.942,-356.035 622.576,-362.521"/>
</g>
<!-- Node10 -->
<g id="node10" class="node"><title>Node10</title>
<polygon fill="white" stroke="#bfbfbf" points="623,-280.5 623,-299.5 680,-299.5 680,-280.5 623,-280.5"/>
<text text-anchor="middle" x="651.5" y="-287.5" font-family="Helvetica,sans-Serif" font-size="10.00">QThread</text>
</g>
<!-- Node9&#45;&gt;Node10 -->
<g id="edge9" class="edge"><title>Node9&#45;&gt;Node10</title>
<path fill="none" stroke="midnightblue" d="M651.5,-336.083C651.5,-329.006 651.5,-318.861 651.5,-309.986"/>
<polygon fill="midnightblue" stroke="midnightblue" points="655,-309.751 651.5,-299.751 648,-309.751 655,-309.751"/>
</g>
<!-- Node11&#45;&gt;Node8 -->
<g id="edge11" class="edge"><title>Node11&#45;&gt;Node8</title>
<path fill="none" stroke="midnightblue" d="M545.057,-336.324C535.354,-328.263 520.685,-316.077 509,-306.369"/>
<polygon fill="midnightblue" stroke="midnightblue" points="511.062,-303.532 501.133,-299.834 506.589,-308.916 511.062,-303.532"/>
</g>
<!-- Node12 -->
<g id="node12" class="node"><title>Node12</title>
<polygon fill="white" stroke="#bfbfbf" points="612,-112.5 612,-131.5 665,-131.5 665,-112.5 612,-112.5"/>
<text text-anchor="middle" x="638.5" y="-119.5" font-family="Helvetica,sans-Serif" font-size="10.00">QMutex</text>
</g>
<!-- Node11&#45;&gt;Node12 -->
<g id="edge12" class="edge"><title>Node11&#45;&gt;Node12</title>
<path fill="none" stroke="midnightblue" d="M558.783,-336.155C568.391,-310.278 597.299,-232.479 621.5,-168 624.806,-159.193 628.493,-149.424 631.587,-141.245"/>
<polygon fill="midnightblue" stroke="midnightblue" points="634.963,-142.214 635.23,-131.623 628.416,-139.736 634.963,-142.214"/>
</g>
<!-- Node13 -->
<g id="node13" class="node"><title>Node13</title>
<g id="a_node13"><a xlink:href="../../d3/dee/torchttpservice_8h.html" target="_top" xlink:title="torchttpservice.h">
<polygon fill="white" stroke="black" points="418.5,-224.5 418.5,-243.5 516.5,-243.5 516.5,-224.5 418.5,-224.5"/>
<text text-anchor="middle" x="467.5" y="-231.5" font-family="Helvetica,sans-Serif" font-size="10.00">torchttpservice.h</text>
</a>
</g>
</g>
<!-- Node11&#45;&gt;Node13 -->
<g id="edge13" class="edge"><title>Node11&#45;&gt;Node13</title>
<path fill="none" stroke="midnightblue" d="M551.923,-336.416C546.247,-323.393 534.292,-298.232 519.5,-280 510.333,-268.701 498.108,-257.961 487.815,-249.809"/>
<polygon fill="midnightblue" stroke="midnightblue" points="489.799,-246.92 479.733,-243.614 485.541,-252.475 489.799,-246.92"/>
</g>
<!-- Node27 -->
<g id="node27" class="node"><title>Node27</title>
<g id="a_node27"><a xlink:href="../../dd/d69/torcinput_8h.html" target="_top" xlink:title="torcinput.h">
<polygon fill="white" stroke="black" points="738.5,-280.5 738.5,-299.5 806.5,-299.5 806.5,-280.5 738.5,-280.5"/>
<text text-anchor="middle" x="772.5" y="-287.5" font-family="Helvetica,sans-Serif" font-size="10.00">torcinput.h</text>
</a>
</g>
</g>
<!-- Node11&#45;&gt;Node27 -->
<g id="edge31" class="edge"><title>Node11&#45;&gt;Node27</title>
<path fill="none" stroke="midnightblue" d="M589.884,-336.444C627.422,-327.102 687.631,-312.119 728.567,-301.933"/>
<polygon fill="midnightblue" stroke="midnightblue" points="729.418,-305.328 738.277,-299.516 727.727,-298.535 729.418,-305.328"/>
</g>
<!-- Node35 -->
<g id="node35" class="node"><title>Node35</title>
<g id="a_node35"><a xlink:href="../../d5/d41/torccentral_8h.html" target="_top" xlink:title="torccentral.h">
<polygon fill="white" stroke="black" points="825,-280.5 825,-299.5 902,-299.5 902,-280.5 825,-280.5"/>
<text text-anchor="middle" x="863.5" y="-287.5" font-family="Helvetica,sans-Serif" font-size="10.00">torccentral.h</text>
</a>
</g>
</g>
<!-- Node11&#45;&gt;Node35 -->
<g id="edge47" class="edge"><title>Node11&#45;&gt;Node35</title>
<path fill="none" stroke="midnightblue" d="M592.641,-337.645C595.637,-337.079 598.618,-336.524 601.5,-336 693.332,-319.295 718.912,-317.023 815.145,-300.032"/>
<polygon fill="midnightblue" stroke="midnightblue" points="815.764,-303.477 824.999,-298.284 814.542,-296.584 815.764,-303.477"/>
</g>
<!-- Node13&#45;&gt;Node12 -->
<g id="edge15" class="edge"><title>Node13&#45;&gt;Node12</title>
<path fill="none" stroke="midnightblue" d="M479.783,-224.367C497.903,-211.703 532.955,-187.484 563.5,-168 580.408,-157.215 599.832,-145.581 614.675,-136.845"/>
<polygon fill="midnightblue" stroke="midnightblue" points="616.837,-139.635 623.696,-131.56 613.298,-133.595 616.837,-139.635"/>
</g>
<!-- Node14 -->
<g id="node14" class="node"><title>Node14</title>
<polygon fill="white" stroke="#bfbfbf" points="343.5,-56.5 343.5,-75.5 387.5,-75.5 387.5,-56.5 343.5,-56.5"/>
<text text-anchor="middle" x="365.5" y="-63.5" font-family="Helvetica,sans-Serif" font-size="10.00">QMap</text>
</g>
<!-- Node13&#45;&gt;Node14 -->
<g id="edge14" class="edge"><title>Node13&#45;&gt;Node14</title>
<path fill="none" stroke="midnightblue" d="M437.956,-224.458C419.648,-217.601 397.265,-206.075 384.5,-188 362.8,-157.272 362.018,-111.231 363.606,-85.7139"/>
<polygon fill="midnightblue" stroke="midnightblue" points="367.109,-85.815 364.436,-75.5631 360.133,-85.2446 367.109,-85.815"/>
</g>
<!-- Node15 -->
<g id="node15" class="node"><title>Node15</title>
<polygon fill="white" stroke="#bfbfbf" points="471.5,-112.5 471.5,-131.5 563.5,-131.5 563.5,-112.5 471.5,-112.5"/>
<text text-anchor="middle" x="517.5" y="-119.5" font-family="Helvetica,sans-Serif" font-size="10.00">QReadWriteLock</text>
</g>
<!-- Node13&#45;&gt;Node15 -->
<g id="edge16" class="edge"><title>Node13&#45;&gt;Node15</title>
<path fill="none" stroke="midnightblue" d="M471.423,-224.368C479.565,-206.456 498.444,-164.923 509.342,-140.948"/>
<polygon fill="midnightblue" stroke="midnightblue" points="512.643,-142.143 513.595,-131.591 506.27,-139.247 512.643,-142.143"/>
</g>
<!-- Node16 -->
<g id="node16" class="node"><title>Node16</title>
<polygon fill="white" stroke="#bfbfbf" points="394,-168.5 394,-187.5 473,-187.5 473,-168.5 394,-168.5"/>
<text text-anchor="middle" x="433.5" y="-175.5" font-family="Helvetica,sans-Serif" font-size="10.00">QMetaObject</text>
</g>
<!-- Node13&#45;&gt;Node16 -->
<g id="edge17" class="edge"><title>Node13&#45;&gt;Node16</title>
<path fill="none" stroke="midnightblue" d="M461.886,-224.083C457.133,-216.534 450.182,-205.495 444.348,-196.23"/>
<polygon fill="midnightblue" stroke="midnightblue" points="447.3,-194.349 439.01,-187.751 441.376,-198.078 447.3,-194.349"/>
</g>
<!-- Node17 -->
<g id="node17" class="node"><title>Node17</title>
<polygon fill="white" stroke="#bfbfbf" points="238,-168.5 238,-187.5 337,-187.5 337,-168.5 238,-168.5"/>
<text text-anchor="middle" x="287.5" y="-175.5" font-family="Helvetica,sans-Serif" font-size="10.00">QCoreApplication</text>
</g>
<!-- Node13&#45;&gt;Node17 -->
<g id="edge18" class="edge"><title>Node13&#45;&gt;Node17</title>
<path fill="none" stroke="midnightblue" d="M438.978,-224.444C408.434,-215.28 359.792,-200.688 325.897,-190.519"/>
<polygon fill="midnightblue" stroke="midnightblue" points="326.472,-187.038 315.888,-187.516 324.461,-193.742 326.472,-187.038"/>
</g>
<!-- Node18 -->
<g id="node18" class="node"><title>Node18</title>
<g id="a_node18"><a xlink:href="../../d4/d11/torchttphandler_8h.html" target="_top" xlink:title="torchttphandler.h">
<polygon fill="white" stroke="black" points="121,-168.5 121,-187.5 220,-187.5 220,-168.5 121,-168.5"/>
<text text-anchor="middle" x="170.5" y="-175.5" font-family="Helvetica,sans-Serif" font-size="10.00">torchttphandler.h</text>
</a>
</g>
</g>
<!-- Node13&#45;&gt;Node18 -->
<g id="edge19" class="edge"><title>Node13&#45;&gt;Node18</title>
<path fill="none" stroke="midnightblue" d="M420.439,-224.444C368.085,-214.925 283.51,-199.547 227.46,-189.356"/>
<polygon fill="midnightblue" stroke="midnightblue" points="227.805,-185.862 217.34,-187.516 226.553,-192.749 227.805,-185.862"/>
</g>
<!-- Node21 -->
<g id="node21" class="node"><title>Node21</title>
<g id="a_node21"><a xlink:href="../../df/dd7/torchttprequest_8h.html" target="_top" xlink:title="torchttprequest.h">
<polygon fill="white" stroke="black" points="48,-112.5 48,-131.5 149,-131.5 149,-112.5 48,-112.5"/>
<text text-anchor="middle" x="98.5" y="-119.5" font-family="Helvetica,sans-Serif" font-size="10.00">torchttprequest.h</text>
</a>
</g>
</g>
<!-- Node13&#45;&gt;Node21 -->
<g id="edge30" class="edge"><title>Node13&#45;&gt;Node21</title>
<path fill="none" stroke="midnightblue" d="M418.383,-233.61C331.322,-233.62 154.992,-228.482 111.5,-188 99.0143,-176.378 96.6287,-156.425 96.8332,-141.683"/>
<polygon fill="midnightblue" stroke="midnightblue" points="100.331,-141.824 97.3699,-131.651 93.3406,-141.449 100.331,-141.824"/>
</g>
<!-- Node19 -->
<g id="node19" class="node"><title>Node19</title>
<polygon fill="white" stroke="#bfbfbf" points="261,-56.5 261,-75.5 314,-75.5 314,-56.5 261,-56.5"/>
<text text-anchor="middle" x="287.5" y="-63.5" font-family="Helvetica,sans-Serif" font-size="10.00">QString</text>
</g>
<!-- Node18&#45;&gt;Node19 -->
<g id="edge20" class="edge"><title>Node18&#45;&gt;Node19</title>
<path fill="none" stroke="midnightblue" d="M195.1,-168.476C213.345,-161.14 237.841,-149.03 254.5,-132 267.476,-118.735 276.414,-99.342 281.682,-85.1923"/>
<polygon fill="midnightblue" stroke="midnightblue" points="285.045,-86.1771 285.001,-75.5824 278.428,-83.8915 285.045,-86.1771"/>
</g>
<!-- Node20 -->
<g id="node20" class="node"><title>Node20</title>
<polygon fill="white" stroke="#bfbfbf" points="167.5,-112.5 167.5,-131.5 245.5,-131.5 245.5,-112.5 167.5,-112.5"/>
<text text-anchor="middle" x="206.5" y="-119.5" font-family="Helvetica,sans-Serif" font-size="10.00">QVariantMap</text>
</g>
<!-- Node18&#45;&gt;Node20 -->
<g id="edge21" class="edge"><title>Node18&#45;&gt;Node20</title>
<path fill="none" stroke="midnightblue" d="M176.445,-168.083C181.477,-160.534 188.837,-149.495 195.013,-140.23"/>
<polygon fill="midnightblue" stroke="midnightblue" points="198.031,-142.013 200.666,-131.751 192.207,-138.13 198.031,-142.013"/>
</g>
<!-- Node18&#45;&gt;Node21 -->
<g id="edge22" class="edge"><title>Node18&#45;&gt;Node21</title>
<path fill="none" stroke="midnightblue" d="M158.932,-168.324C148.08,-160.185 131.619,-147.839 118.617,-138.087"/>
<polygon fill="midnightblue" stroke="midnightblue" points="120.379,-135.034 110.279,-131.834 116.179,-140.634 120.379,-135.034"/>
</g>
<!-- Node21&#45;&gt;Node14 -->
<g id="edge23" class="edge"><title>Node21&#45;&gt;Node14</title>
<path fill="none" stroke="midnightblue" d="M141.463,-112.476C186.571,-103.501 259.552,-88.9104 322.5,-76 325.967,-75.2889 329.59,-74.5398 333.199,-73.79"/>
<polygon fill="midnightblue" stroke="midnightblue" points="334.115,-77.1743 343.189,-71.7054 332.685,-70.3219 334.115,-77.1743"/>
</g>
<!-- Node21&#45;&gt;Node19 -->
<g id="edge25" class="edge"><title>Node21&#45;&gt;Node19</title>
<path fill="none" stroke="midnightblue" d="M128.448,-112.444C161.605,-102.97 215.073,-87.6935 250.742,-77.5022"/>
<polygon fill="midnightblue" stroke="midnightblue" points="252.095,-80.7559 260.748,-74.6433 250.172,-74.0253 252.095,-80.7559"/>
</g>
<!-- Node22 -->
<g id="node22" class="node"><title>Node22</title>
<polygon fill="white" stroke="#bfbfbf" points="0,-56.5 0,-75.5 41,-75.5 41,-56.5 0,-56.5"/>
<text text-anchor="middle" x="20.5" y="-63.5" font-family="Helvetica,sans-Serif" font-size="10.00">QPair</text>
</g>
<!-- Node21&#45;&gt;Node22 -->
<g id="edge24" class="edge"><title>Node21&#45;&gt;Node22</title>
<path fill="none" stroke="midnightblue" d="M85.968,-112.324C73.9141,-103.979 55.4732,-91.2122 41.2313,-81.3524"/>
<polygon fill="midnightblue" stroke="midnightblue" points="43.2151,-78.469 33.0009,-75.6545 39.2306,-84.2243 43.2151,-78.469"/>
</g>
<!-- Node23 -->
<g id="node23" class="node"><title>Node23</title>
<polygon fill="white" stroke="#bfbfbf" points="59,-56.5 59,-75.5 130,-75.5 130,-56.5 59,-56.5"/>
<text text-anchor="middle" x="94.5" y="-63.5" font-family="Helvetica,sans-Serif" font-size="10.00">QDateTime</text>
</g>
<!-- Node21&#45;&gt;Node23 -->
<g id="edge26" class="edge"><title>Node21&#45;&gt;Node23</title>
<path fill="none" stroke="midnightblue" d="M97.8395,-112.083C97.3152,-105.006 96.5638,-94.8611 95.9064,-85.9865"/>
<polygon fill="midnightblue" stroke="midnightblue" points="99.3775,-85.4652 95.1482,-75.7511 92.3966,-85.9823 99.3775,-85.4652"/>
</g>
<!-- Node24 -->
<g id="node24" class="node"><title>Node24</title>
<g id="a_node24"><a xlink:href="../../de/de6/torchttpreader_8h.html" target="_top" xlink:title="torchttpreader.h">
<polygon fill="white" stroke="black" points="148,-56.5 148,-75.5 243,-75.5 243,-56.5 148,-56.5"/>
<text text-anchor="middle" x="195.5" y="-63.5" font-family="Helvetica,sans-Serif" font-size="10.00">torchttpreader.h</text>
</a>
</g>
</g>
<!-- Node21&#45;&gt;Node24 -->
<g id="edge27" class="edge"><title>Node21&#45;&gt;Node24</title>
<path fill="none" stroke="midnightblue" d="M114.085,-112.324C129.499,-103.743 153.312,-90.486 171.21,-80.5224"/>
<polygon fill="midnightblue" stroke="midnightblue" points="172.919,-83.5767 179.954,-75.6545 169.514,-77.4606 172.919,-83.5767"/>
</g>
<!-- Node25 -->
<g id="node25" class="node"><title>Node25</title>
<polygon fill="white" stroke="#bfbfbf" points="115,-0.5 115,-19.5 186,-19.5 186,-0.5 115,-0.5"/>
<text text-anchor="middle" x="150.5" y="-7.5" font-family="Helvetica,sans-Serif" font-size="10.00">QByteArray</text>
</g>
<!-- Node24&#45;&gt;Node25 -->
<g id="edge28" class="edge"><title>Node24&#45;&gt;Node25</title>
<path fill="none" stroke="midnightblue" d="M188.069,-56.083C181.647,-48.3768 172.194,-37.0333 164.378,-27.6531"/>
<polygon fill="midnightblue" stroke="midnightblue" points="166.883,-25.1927 157.793,-19.7511 161.506,-29.674 166.883,-25.1927"/>
</g>
<!-- Node26 -->
<g id="node26" class="node"><title>Node26</title>
<polygon fill="white" stroke="#bfbfbf" points="204.5,-0.5 204.5,-19.5 276.5,-19.5 276.5,-0.5 204.5,-0.5"/>
<text text-anchor="middle" x="240.5" y="-7.5" font-family="Helvetica,sans-Serif" font-size="10.00">QTcpSocket</text>
</g>
<!-- Node24&#45;&gt;Node26 -->
<g id="edge29" class="edge"><title>Node24&#45;&gt;Node26</title>
<path fill="none" stroke="midnightblue" d="M202.931,-56.083C209.353,-48.3768 218.806,-37.0333 226.622,-27.6531"/>
<polygon fill="midnightblue" stroke="midnightblue" points="229.494,-29.674 233.207,-19.7511 224.117,-25.1927 229.494,-29.674"/>
</g>
<!-- Node27&#45;&gt;Node12 -->
<g id="edge32" class="edge"><title>Node27&#45;&gt;Node12</title>
<path fill="none" stroke="midnightblue" d="M738.279,-287.926C706.876,-284.905 661.936,-275.005 639.5,-244 617.615,-213.756 625.631,-167.197 632.582,-141.545"/>
<polygon fill="midnightblue" stroke="midnightblue" points="636.028,-142.233 635.497,-131.652 629.313,-140.255 636.028,-142.233"/>
</g>
<!-- Node27&#45;&gt;Node13 -->
<g id="edge34" class="edge"><title>Node27&#45;&gt;Node13</title>
<path fill="none" stroke="midnightblue" d="M738.4,-282.963C686.937,-273.851 588.76,-256.469 525.799,-245.322"/>
<polygon fill="midnightblue" stroke="midnightblue" points="526.082,-241.818 515.625,-243.521 524.862,-248.71 526.082,-241.818"/>
</g>
<!-- Node28 -->
<g id="node28" class="node"><title>Node28</title>
<polygon fill="white" stroke="#bfbfbf" points="1071,-168.5 1071,-187.5 1126,-187.5 1126,-168.5 1071,-168.5"/>
<text text-anchor="middle" x="1098.5" y="-175.5" font-family="Helvetica,sans-Serif" font-size="10.00">QObject</text>
</g>
<!-- Node27&#45;&gt;Node28 -->
<g id="edge33" class="edge"><title>Node27&#45;&gt;Node28</title>
<path fill="none" stroke="midnightblue" d="M799.626,-280.45C826.821,-271.747 869.809,-257.633 906.5,-244 928.549,-235.807 933.374,-231.982 955.5,-224 990.978,-211.202 1032.11,-198.473 1061.13,-189.837"/>
<polygon fill="midnightblue" stroke="midnightblue" points="1062.26,-193.152 1070.86,-186.959 1060.28,-186.439 1062.26,-193.152"/>
</g>
<!-- Node29 -->
<g id="node29" class="node"><title>Node29</title>
<g id="a_node29"><a xlink:href="../../d1/df7/torcdevice_8h.html" target="_top" xlink:title="torcdevice.h">
<polygon fill="white" stroke="black" points="822,-224.5 822,-243.5 897,-243.5 897,-224.5 822,-224.5"/>
<text text-anchor="middle" x="859.5" y="-231.5" font-family="Helvetica,sans-Serif" font-size="10.00">torcdevice.h</text>
</a>
</g>
</g>
<!-- Node27&#45;&gt;Node29 -->
<g id="edge35" class="edge"><title>Node27&#45;&gt;Node29</title>
<path fill="none" stroke="midnightblue" d="M786.478,-280.324C800.05,-271.9 820.88,-258.971 836.825,-249.074"/>
<polygon fill="midnightblue" stroke="midnightblue" points="838.906,-251.902 845.557,-243.655 835.214,-245.954 838.906,-251.902"/>
</g>
<!-- Node29&#45;&gt;Node12 -->
<g id="edge37" class="edge"><title>Node29&#45;&gt;Node12</title>
<path fill="none" stroke="midnightblue" d="M821.86,-226.425C790.587,-219.868 745.681,-207.856 710.5,-188 687.942,-175.269 666.5,-154.371 652.975,-139.717"/>
<polygon fill="midnightblue" stroke="midnightblue" points="655.262,-137.024 645.979,-131.918 650.052,-141.699 655.262,-137.024"/>
</g>
<!-- Node29&#45;&gt;Node19 -->
<g id="edge38" class="edge"><title>Node29&#45;&gt;Node19</title>
<path fill="none" stroke="midnightblue" d="M861.611,-224.203C866.49,-201.434 875.733,-140.376 842.5,-112 799.467,-75.2563 390.609,-83.334 334.5,-76 331.205,-75.5693 327.792,-75.0534 324.379,-74.4896"/>
<polygon fill="midnightblue" stroke="midnightblue" points="324.712,-70.9942 314.254,-72.6911 323.488,-77.8863 324.712,-70.9942"/>
</g>
<!-- Node29&#45;&gt;Node28 -->
<g id="edge39" class="edge"><title>Node29&#45;&gt;Node28</title>
<path fill="none" stroke="midnightblue" d="M897.357,-224.926C936.109,-216.59 998.33,-203.013 1060.62,-188.404"/>
<polygon fill="midnightblue" stroke="midnightblue" points="1061.68,-191.75 1070.61,-186.051 1060.07,-184.936 1061.68,-191.75"/>
</g>
<!-- Node30 -->
<g id="node30" class="node"><title>Node30</title>
<polygon fill="white" stroke="#bfbfbf" points="784,-112.5 784,-131.5 833,-131.5 833,-112.5 784,-112.5"/>
<text text-anchor="middle" x="808.5" y="-119.5" font-family="Helvetica,sans-Serif" font-size="10.00">QHash</text>
</g>
<!-- Node29&#45;&gt;Node30 -->
<g id="edge36" class="edge"><title>Node29&#45;&gt;Node30</title>
<path fill="none" stroke="midnightblue" d="M857.503,-224.297C854.398,-211.546 847.79,-187.219 838.5,-168 833.75,-158.173 827.128,-147.991 821.313,-139.804"/>
<polygon fill="midnightblue" stroke="midnightblue" points="823.976,-137.517 815.234,-131.532 818.336,-141.663 823.976,-137.517"/>
</g>
<!-- Node31 -->
<g id="node31" class="node"><title>Node31</title>
<g id="a_node31"><a xlink:href="../../d8/dfe/torcreferencecounted_8h.html" target="_top" xlink:title="torcreferencecounted.h">
<polygon fill="white" stroke="black" points="924,-168.5 924,-187.5 1053,-187.5 1053,-168.5 924,-168.5"/>
<text text-anchor="middle" x="988.5" y="-175.5" font-family="Helvetica,sans-Serif" font-size="10.00">torcreferencecounted.h</text>
</a>
</g>
</g>
<!-- Node29&#45;&gt;Node31 -->
<g id="edge40" class="edge"><title>Node29&#45;&gt;Node31</title>
<path fill="none" stroke="midnightblue" d="M879.94,-224.444C901.17,-215.557 934.599,-201.563 958.755,-191.451"/>
<polygon fill="midnightblue" stroke="midnightblue" points="960.282,-194.606 968.155,-187.516 957.579,-188.149 960.282,-194.606"/>
</g>
<!-- Node33 -->
<g id="node33" class="node"><title>Node33</title>
<g id="a_node33"><a xlink:href="../../d2/d5b/torcdevicehandler_8h.html" target="_top" xlink:title="torcdevicehandler.h">
<polygon fill="white" stroke="black" points="719.5,-168.5 719.5,-187.5 829.5,-187.5 829.5,-168.5 719.5,-168.5"/>
<text text-anchor="middle" x="774.5" y="-175.5" font-family="Helvetica,sans-Serif" font-size="10.00">torcdevicehandler.h</text>
</a>
</g>
</g>
<!-- Node29&#45;&gt;Node33 -->
<g id="edge42" class="edge"><title>Node29&#45;&gt;Node33</title>
<path fill="none" stroke="midnightblue" d="M845.843,-224.324C832.584,-215.9 812.232,-202.971 796.654,-193.074"/>
<polygon fill="midnightblue" stroke="midnightblue" points="798.44,-190.063 788.123,-187.655 794.687,-195.971 798.44,-190.063"/>
</g>
<!-- Node32 -->
<g id="node32" class="node"><title>Node32</title>
<polygon fill="white" stroke="#bfbfbf" points="999.5,-112.5 999.5,-131.5 1069.5,-131.5 1069.5,-112.5 999.5,-112.5"/>
<text text-anchor="middle" x="1034.5" y="-119.5" font-family="Helvetica,sans-Serif" font-size="10.00">QAtomicInt</text>
</g>
<!-- Node31&#45;&gt;Node32 -->
<g id="edge41" class="edge"><title>Node31&#45;&gt;Node32</title>
<path fill="none" stroke="midnightblue" d="M996.096,-168.083C1002.73,-160.298 1012.52,-148.801 1020.56,-139.367"/>
<polygon fill="midnightblue" stroke="midnightblue" points="1023.23,-141.633 1027.05,-131.751 1017.9,-137.094 1023.23,-141.633"/>
</g>
<!-- Node33&#45;&gt;Node12 -->
<g id="edge44" class="edge"><title>Node33&#45;&gt;Node12</title>
<path fill="none" stroke="midnightblue" d="M752.95,-168.444C730.469,-159.517 695.012,-145.439 669.52,-135.317"/>
<polygon fill="midnightblue" stroke="midnightblue" points="670.535,-131.954 659.949,-131.516 667.951,-138.46 670.535,-131.954"/>
</g>
<!-- Node33&#45;&gt;Node15 -->
<g id="edge45" class="edge"><title>Node33&#45;&gt;Node15</title>
<path fill="none" stroke="midnightblue" d="M733.778,-168.444C688.851,-159.004 616.502,-143.802 568.001,-133.611"/>
<polygon fill="midnightblue" stroke="midnightblue" points="568.538,-130.148 558.032,-131.516 567.098,-136.998 568.538,-130.148"/>
</g>
<!-- Node33&#45;&gt;Node30 -->
<g id="edge43" class="edge"><title>Node33&#45;&gt;Node30</title>
<path fill="none" stroke="midnightblue" d="M780.114,-168.083C784.867,-160.534 791.818,-149.495 797.652,-140.23"/>
<polygon fill="midnightblue" stroke="midnightblue" points="800.624,-142.078 802.99,-131.751 794.7,-138.349 800.624,-142.078"/>
</g>
<!-- Node34 -->
<g id="node34" class="node"><title>Node34</title>
<polygon fill="white" stroke="#bfbfbf" points="923.5,-112.5 923.5,-131.5 981.5,-131.5 981.5,-112.5 923.5,-112.5"/>
<text text-anchor="middle" x="952.5" y="-119.5" font-family="Helvetica,sans-Serif" font-size="10.00">QVariant</text>
</g>
<!-- Node33&#45;&gt;Node34 -->
<g id="edge46" class="edge"><title>Node33&#45;&gt;Node34</title>
<path fill="none" stroke="midnightblue" d="M802.705,-168.444C832.91,-159.28 881.011,-144.688 914.529,-134.519"/>
<polygon fill="midnightblue" stroke="midnightblue" points="915.874,-137.769 924.427,-131.516 913.842,-131.07 915.874,-137.769"/>
</g>
<!-- Node35&#45;&gt;Node12 -->
<g id="edge48" class="edge"><title>Node35&#45;&gt;Node12</title>
<path fill="none" stroke="midnightblue" d="M839.108,-280.41C801.135,-266.08 727.197,-234.232 678.5,-188 664.272,-174.492 653.122,-154.866 646.248,-140.718"/>
<polygon fill="midnightblue" stroke="midnightblue" points="649.385,-139.162 642.017,-131.549 643.029,-142.096 649.385,-139.162"/>
</g>
<!-- Node35&#45;&gt;Node13 -->
<g id="edge52" class="edge"><title>Node35&#45;&gt;Node13</title>
<path fill="none" stroke="midnightblue" d="M824.76,-281.541C821.631,-280.998 818.515,-280.477 815.5,-280 714.484,-264.012 596.298,-249.641 526.905,-241.642"/>
<polygon fill="midnightblue" stroke="midnightblue" points="526.946,-238.124 516.612,-240.461 526.148,-245.078 526.946,-238.124"/>
</g>
<!-- Node35&#45;&gt;Node28 -->
<g id="edge49" class="edge"><title>Node35&#45;&gt;Node28</title>
<path fill="none" stroke="midnightblue" d="M881.94,-280.368C923.038,-261.131 1022.34,-214.648 1070.87,-191.931"/>
<polygon fill="midnightblue" stroke="midnightblue" points="1072.57,-195.001 1080.15,-187.591 1069.6,-188.661 1072.57,-195.001"/>
</g>
<!-- Node35&#45;&gt;Node29 -->
<g id="edge51" class="edge"><title>Node35&#45;&gt;Node29</title>
<path fill="none" stroke="midnightblue" d="M862.839,-280.083C862.315,-273.006 861.564,-262.861 860.906,-253.986"/>
<polygon fill="midnightblue" stroke="midnightblue" points="864.377,-253.465 860.148,-243.751 857.397,-253.982 864.377,-253.465"/>
</g>
<!-- Node35&#45;&gt;Node34 -->
<g id="edge50" class="edge"><title>Node35&#45;&gt;Node34</title>
<path fill="none" stroke="midnightblue" d="M902.083,-287.829C963.779,-283.613 1083.02,-265.311 1135.5,-188 1140.49,-180.646 1140.98,-174.996 1135.5,-168 1134.37,-166.556 1044.92,-145.028 991.512,-132.28"/>
<polygon fill="midnightblue" stroke="midnightblue" points="992.208,-128.848 981.669,-129.933 990.584,-135.657 992.208,-128.848"/>
</g>
<!-- Node36&#45;&gt;Node14 -->
<g id="edge54" class="edge"><title>Node36&#45;&gt;Node14</title>
<path fill="none" stroke="midnightblue" d="M1068.71,-336.481C1117.58,-323.686 1192.5,-294.388 1192.5,-235 1192.5,-235 1192.5,-235 1192.5,-177 1192.5,-118.676 1134.38,-128.712 1078.5,-112 948.444,-73.1025 519.512,-67.8237 397.9,-67.1106"/>
<polygon fill="midnightblue" stroke="midnightblue" points="397.763,-63.6099 387.745,-67.0577 397.727,-70.6098 397.763,-63.6099"/>
</g>
<!-- Node36&#45;&gt;Node27 -->
<g id="edge56" class="edge"><title>Node36&#45;&gt;Node27</title>
<path fill="none" stroke="midnightblue" d="M987.094,-336.444C940.55,-326.587 864.345,-310.45 816.381,-300.293"/>
<polygon fill="midnightblue" stroke="midnightblue" points="817.104,-296.868 806.596,-298.22 815.654,-303.716 817.104,-296.868"/>
</g>
<!-- Node36&#45;&gt;Node28 -->
<g id="edge55" class="edge"><title>Node36&#45;&gt;Node28</title>
<path fill="none" stroke="midnightblue" d="M1031.32,-336.075C1042.54,-309.832 1075.6,-232.545 1090.75,-197.117"/>
<polygon fill="midnightblue" stroke="midnightblue" points="1094.12,-198.139 1094.84,-187.568 1087.68,-195.386 1094.12,-198.139"/>
</g>
<!-- Node36&#45;&gt;Node35 -->
<g id="edge57" class="edge"><title>Node36&#45;&gt;Node35</title>
<path fill="none" stroke="midnightblue" d="M1001.51,-336.444C973.804,-327.32 929.748,-312.813 898.884,-302.651"/>
<polygon fill="midnightblue" stroke="midnightblue" points="899.958,-299.32 889.365,-299.516 897.768,-305.968 899.958,-299.32"/>
</g>
<!-- Node37&#45;&gt;Node9 -->
<g id="edge61" class="edge"><title>Node37&#45;&gt;Node9</title>
<path fill="none" stroke="midnightblue" d="M791.197,-392.444C763.149,-383.32 718.556,-368.813 687.316,-358.651"/>
<polygon fill="midnightblue" stroke="midnightblue" points="688.272,-355.282 677.68,-355.516 686.107,-361.938 688.272,-355.282"/>
</g>
<!-- Node37&#45;&gt;Node36 -->
<g id="edge64" class="edge"><title>Node37&#45;&gt;Node36</title>
<path fill="none" stroke="midnightblue" d="M850.775,-392.444C886.948,-383.142 944.877,-368.246 984.481,-358.062"/>
<polygon fill="midnightblue" stroke="midnightblue" points="985.567,-361.397 994.381,-355.516 983.824,-354.617 985.567,-361.397"/>
</g>
<!-- Node38 -->
<g id="node38" class="node"><title>Node38</title>
<polygon fill="white" stroke="#bfbfbf" points="927,-336.5 927,-355.5 966,-355.5 966,-336.5 927,-336.5"/>
<text text-anchor="middle" x="946.5" y="-343.5" font-family="Helvetica,sans-Serif" font-size="10.00">QFile</text>
</g>
<!-- Node37&#45;&gt;Node38 -->
<g id="edge59" class="edge"><title>Node37&#45;&gt;Node38</title>
<path fill="none" stroke="midnightblue" d="M837.94,-392.444C859.42,-383.452 893.387,-369.233 917.604,-359.096"/>
<polygon fill="midnightblue" stroke="midnightblue" points="919.127,-362.253 927,-355.163 916.424,-355.796 919.127,-362.253"/>
</g>
<!-- Node39 -->
<g id="node39" class="node"><title>Node39</title>
<polygon fill="white" stroke="#bfbfbf" points="858,-336.5 858,-355.5 909,-355.5 909,-336.5 858,-336.5"/>
<text text-anchor="middle" x="883.5" y="-343.5" font-family="Helvetica,sans-Serif" font-size="10.00">QTimer</text>
</g>
<!-- Node37&#45;&gt;Node39 -->
<g id="edge60" class="edge"><title>Node37&#45;&gt;Node39</title>
<path fill="none" stroke="midnightblue" d="M828.104,-392.324C837.956,-384.263 852.851,-372.077 864.715,-362.369"/>
<polygon fill="midnightblue" stroke="midnightblue" points="867.18,-364.875 872.703,-355.834 862.747,-359.457 867.18,-364.875"/>
</g>
<!-- Node40 -->
<g id="node40" class="node"><title>Node40</title>
<g id="a_node40"><a xlink:href="../../d3/dc5/torctemperatureinput_8h.html" target="_top" xlink:title="torctemperatureinput.h">
<polygon fill="white" stroke="black" points="711,-336.5 711,-355.5 840,-355.5 840,-336.5 711,-336.5"/>
<text text-anchor="middle" x="775.5" y="-343.5" font-family="Helvetica,sans-Serif" font-size="10.00">torctemperatureinput.h</text>
</a>
</g>
</g>
<!-- Node37&#45;&gt;Node40 -->
<g id="edge62" class="edge"><title>Node37&#45;&gt;Node40</title>
<path fill="none" stroke="midnightblue" d="M810.565,-392.083C804.571,-384.377 795.748,-373.033 788.452,-363.653"/>
<polygon fill="midnightblue" stroke="midnightblue" points="791.209,-361.496 782.306,-355.751 785.683,-365.793 791.209,-361.496"/>
</g>
<!-- Node40&#45;&gt;Node27 -->
<g id="edge63" class="edge"><title>Node40&#45;&gt;Node27</title>
<path fill="none" stroke="midnightblue" d="M775.005,-336.083C774.611,-329.006 774.048,-318.861 773.555,-309.986"/>
<polygon fill="midnightblue" stroke="midnightblue" points="777.036,-309.542 772.986,-299.751 770.046,-309.93 777.036,-309.542"/>
</g>
</g>
</svg>
        <g id="navigator" transform="translate(0 0)" fill="#404254">
                <rect fill="#f2f5e9" fill-opacity="0.5" stroke="#606060" stroke-width=".5" x="0" y="0" width="60" height="60"/>
                <use id="zoomplus" xlink:href="#zoomPlus" x="17" y="9" onmousedown="handleZoom(evt,'in')"/>
                <use id="zoomminus" xlink:href="#zoomMin" x="42" y="9" onmousedown="handleZoom(evt,'out')"/>
                <use id="reset" xlink:href="#resetDef" x="30" y="36" onmousedown="handleReset()"/>
                <g id="arrowUp" xlink:href="#dirArrow" transform="translate(30 24)" onmousedown="handlePan(0,-1)">
                  <use xlink:href="#rim" fill="#404040">
                        <set attributeName="fill" to="#808080" begin="arrowUp.mouseover" end="arrowUp.mouseout"/>
                  </use>
                  <path fill="none" stroke="white" stroke-width="1.5" d="M0,-3.0v7 M-2.5,-0.5L0,-3.0L2.5,-0.5"/>
                </g>
                <g id="arrowRight" xlink:href="#dirArrow" transform="rotate(90) translate(36 -43)" onmousedown="handlePan(1,0)">
                  <use xlink:href="#rim" fill="#404040">
                        <set attributeName="fill" to="#808080" begin="arrowRight.mouseover" end="arrowRight.mouseout"/>
                  </use>
                  <path fill="none" stroke="white" stroke-width="1.5" d="M0,-3.0v7 M-2.5,-0.5L0,-3.0L2.5,-0.5"/>
                </g>
                <g id="arrowDown" xlink:href="#dirArrow" transform="rotate(180) translate(-30 -48)" onmousedown="handlePan(0,1)">
                  <use xlink:href="#rim" fill="#404040">
                        <set attributeName="fill" to="#808080" begin="arrowDown.mouseover" end="arrowDown.mouseout"/>
                  </use>
                  <path fill="none" stroke="white" stroke-width="1.5" d="M0,-3.0v7 M-2.5,-0.5L0,-3.0L2.5,-0.5"/>
                </g>
                <g id="arrowLeft" xlink:href="#dirArrow" transform="rotate(270) translate(-36 17)" onmousedown="handlePan(-1,0)">
                  <use xlink:href="#rim" fill="#404040">
                        <set attributeName="fill" to="#808080" begin="arrowLeft.mouseover" end="arrowLeft.mouseout"/>
                  </use>
                  <path fill="none" stroke="white" stroke-width="1.5" d="M0,-3.0v7 M-2.5,-0.5L0,-3.0L2.5,-0.5"/>
                </g>
        </g>
        <svg viewBox="0 0 15 15" width="100%" height="30px" preserveAspectRatio="xMaxYMin meet">
         <g id="arrow_out" transform="scale(0.3 0.3)">
          <a xlink:href="torc1wirebus_8cpp__incl_org.svg" target="_base">
           <rect id="button" ry="5" rx="5" y="6" x="6" height="38" width="38"
                fill="#f2f5e9" fill-opacity="0.5" stroke="#606060" stroke-width="1.0"/>
           <path id="arrow"
             d="M 11.500037,31.436501 C 11.940474,20.09759 22.043105,11.32322 32.158766,21.979434 L 37.068811,17.246167 C 37.068811,17.246167 37.088388,32 37.088388,32 L 22.160133,31.978069 C 22.160133,31.978069 26.997745,27.140456 26.997745,27.140456 C 18.528582,18.264221 13.291696,25.230495 11.500037,31.436501 z"
             style="fill:#404040;"/>
          </a>
         </g>
        </svg>
</svg>
