<?xml version="1.0" encoding="UTF-8" standalone="no"?>
<!DOCTYPE svg PUBLIC "-//W3C//DTD SVG 1.1//EN"
 "http://www.w3.org/Graphics/SVG/1.1/DTD/svg11.dtd">
<!-- Generated by graphviz version 2.38.0 (20140413.2041)
 -->
<!-- Title: torcplistserialiser.cpp Pages: 1 -->
<svg width="601pt" height="364pt"
 viewBox="0.00 0.00 600.50 364.00" xmlns="http://www.w3.org/2000/svg" xmlns:xlink="http://www.w3.org/1999/xlink">
<g id="graph0" class="graph" transform="scale(1 1) rotate(0) translate(4 360)">
<title>torcplistserialiser.cpp</title>
<polygon fill="white" stroke="none" points="-4,4 -4,-360 596.5,-360 596.5,4 -4,4"/>
<!-- Node1 -->
<g id="node1" class="node"><title>Node1</title>
<polygon fill="#bfbfbf" stroke="black" points="65,-336.5 65,-355.5 182,-355.5 182,-336.5 65,-336.5"/>
<text text-anchor="middle" x="123.5" y="-343.5" font-family="Helvetica,sans-Serif" font-size="10.00">torcplistserialiser.cpp</text>
</g>
<!-- Node2 -->
<g id="node2" class="node"><title>Node2</title>
<g id="a_node2"><a xlink:href="../../d5/dd3/torcplistserialiser_8h.html" target="_top" xlink:title="torcplistserialiser.h">
<polygon fill="white" stroke="black" points="70.5,-280.5 70.5,-299.5 176.5,-299.5 176.5,-280.5 70.5,-280.5"/>
<text text-anchor="middle" x="123.5" y="-287.5" font-family="Helvetica,sans-Serif" font-size="10.00">torcplistserialiser.h</text>
</a>
</g>
</g>
<!-- Node1&#45;&gt;Node2 -->
<g id="edge1" class="edge"><title>Node1&#45;&gt;Node2</title>
<path fill="none" stroke="midnightblue" d="M123.5,-336.083C123.5,-329.006 123.5,-318.861 123.5,-309.986"/>
<polygon fill="midnightblue" stroke="midnightblue" points="127,-309.751 123.5,-299.751 120,-309.751 127,-309.751"/>
</g>
<!-- Node3 -->
<g id="node3" class="node"><title>Node3</title>
<g id="a_node3"><a xlink:href="../../d0/d0b/torcxmlserialiser_8h.html" target="_top" xlink:title="torcxmlserialiser.h">
<polygon fill="white" stroke="black" points="71.5,-224.5 71.5,-243.5 175.5,-243.5 175.5,-224.5 71.5,-224.5"/>
<text text-anchor="middle" x="123.5" y="-231.5" font-family="Helvetica,sans-Serif" font-size="10.00">torcxmlserialiser.h</text>
</a>
</g>
</g>
<!-- Node2&#45;&gt;Node3 -->
<g id="edge2" class="edge"><title>Node2&#45;&gt;Node3</title>
<path fill="none" stroke="midnightblue" d="M123.5,-280.083C123.5,-273.006 123.5,-262.861 123.5,-253.986"/>
<polygon fill="midnightblue" stroke="midnightblue" points="127,-253.751 123.5,-243.751 120,-253.751 127,-253.751"/>
</g>
<!-- Node4 -->
<g id="node4" class="node"><title>Node4</title>
<polygon fill="white" stroke="#bfbfbf" points="0,-168.5 0,-187.5 53,-187.5 53,-168.5 0,-168.5"/>
<text text-anchor="middle" x="26.5" y="-175.5" font-family="Helvetica,sans-Serif" font-size="10.00">QBuffer</text>
</g>
<!-- Node3&#45;&gt;Node4 -->
<g id="edge3" class="edge"><title>Node3&#45;&gt;Node4</title>
<path fill="none" stroke="midnightblue" d="M107.915,-224.324C92.5009,-215.743 68.6878,-202.486 50.7903,-192.522"/>
<polygon fill="midnightblue" stroke="midnightblue" points="52.4858,-189.461 42.0461,-187.655 49.0809,-195.577 52.4858,-189.461"/>
</g>
<!-- Node5 -->
<g id="node5" class="node"><title>Node5</title>
<polygon fill="white" stroke="#bfbfbf" points="71,-168.5 71,-187.5 176,-187.5 176,-168.5 71,-168.5"/>
<text text-anchor="middle" x="123.5" y="-175.5" font-family="Helvetica,sans-Serif" font-size="10.00">QXmlStreamWriter</text>
</g>
<!-- Node3&#45;&gt;Node5 -->
<g id="edge4" class="edge"><title>Node3&#45;&gt;Node5</title>
<path fill="none" stroke="midnightblue" d="M123.5,-224.083C123.5,-217.006 123.5,-206.861 123.5,-197.986"/>
<polygon fill="midnightblue" stroke="midnightblue" points="127,-197.751 123.5,-187.751 120,-197.751 127,-197.751"/>
</g>
<!-- Node6 -->
<g id="node6" class="node"><title>Node6</title>
<g id="a_node6"><a xlink:href="../../d1/def/torcserialiser_8h.html" target="_top" xlink:title="torcserialiser.h">
<polygon fill="white" stroke="black" points="194.5,-168.5 194.5,-187.5 280.5,-187.5 280.5,-168.5 194.5,-168.5"/>
<text text-anchor="middle" x="237.5" y="-175.5" font-family="Helvetica,sans-Serif" font-size="10.00">torcserialiser.h</text>
</a>
</g>
</g>
<!-- Node3&#45;&gt;Node6 -->
<g id="edge5" class="edge"><title>Node3&#45;&gt;Node6</title>
<path fill="none" stroke="midnightblue" d="M141.564,-224.444C160.075,-215.675 189.081,-201.935 210.355,-191.858"/>
<polygon fill="midnightblue" stroke="midnightblue" points="211.982,-194.96 219.521,-187.516 208.985,-188.634 211.982,-194.96"/>
</g>
<!-- Node7 -->
<g id="node7" class="node"><title>Node7</title>
<polygon fill="white" stroke="#bfbfbf" points="63.5,-112.5 63.5,-131.5 121.5,-131.5 121.5,-112.5 63.5,-112.5"/>
<text text-anchor="middle" x="92.5" y="-119.5" font-family="Helvetica,sans-Serif" font-size="10.00">QVariant</text>
</g>
<!-- Node6&#45;&gt;Node7 -->
<g id="edge6" class="edge"><title>Node6&#45;&gt;Node7</title>
<path fill="none" stroke="midnightblue" d="M214.524,-168.444C190.343,-159.438 152.082,-145.189 124.854,-135.049"/>
<polygon fill="midnightblue" stroke="midnightblue" points="125.961,-131.727 115.368,-131.516 123.518,-138.286 125.961,-131.727"/>
</g>
<!-- Node8 -->
<g id="node8" class="node"><title>Node8</title>
<polygon fill="white" stroke="#bfbfbf" points="140,-112.5 140,-131.5 209,-131.5 209,-112.5 140,-112.5"/>
<text text-anchor="middle" x="174.5" y="-119.5" font-family="Helvetica,sans-Serif" font-size="10.00">QStringList</text>
</g>
<!-- Node6&#45;&gt;Node8 -->
<g id="edge7" class="edge"><title>Node6&#45;&gt;Node8</title>
<path fill="none" stroke="midnightblue" d="M227.378,-168.324C217.974,-160.263 203.756,-148.077 192.431,-138.369"/>
<polygon fill="midnightblue" stroke="midnightblue" points="194.677,-135.684 184.806,-131.834 190.121,-140.999 194.677,-135.684"/>
</g>
<!-- Node9 -->
<g id="node9" class="node"><title>Node9</title>
<polygon fill="white" stroke="#bfbfbf" points="182.5,-56.5 182.5,-75.5 226.5,-75.5 226.5,-56.5 182.5,-56.5"/>
<text text-anchor="middle" x="204.5" y="-63.5" font-family="Helvetica,sans-Serif" font-size="10.00">QMap</text>
</g>
<!-- Node6&#45;&gt;Node9 -->
<g id="edge8" class="edge"><title>Node6&#45;&gt;Node9</title>
<path fill="none" stroke="midnightblue" d="M234.911,-168.368C229.561,-150.537 217.189,-109.295 209.982,-85.2717"/>
<polygon fill="midnightblue" stroke="midnightblue" points="213.303,-84.1639 207.077,-75.5914 206.599,-86.1754 213.303,-84.1639"/>
</g>
<!-- Node10 -->
<g id="node10" class="node"><title>Node10</title>
<polygon fill="white" stroke="#bfbfbf" points="245,-56.5 245,-75.5 316,-75.5 316,-56.5 245,-56.5"/>
<text text-anchor="middle" x="280.5" y="-63.5" font-family="Helvetica,sans-Serif" font-size="10.00">QDateTime</text>
</g>
<!-- Node6&#45;&gt;Node10 -->
<g id="edge9" class="edge"><title>Node6&#45;&gt;Node10</title>
<path fill="none" stroke="midnightblue" d="M240.874,-168.368C247.876,-150.456 264.112,-108.923 273.484,-84.9482"/>
<polygon fill="midnightblue" stroke="midnightblue" points="276.76,-86.1794 277.142,-75.5914 270.241,-83.6308 276.76,-86.1794"/>
</g>
<!-- Node11 -->
<g id="node11" class="node"><title>Node11</title>
<g id="a_node11"><a xlink:href="../../df/dd7/torchttprequest_8h.html" target="_top" xlink:title="torchttprequest.h">
<polygon fill="white" stroke="black" points="304,-112.5 304,-131.5 405,-131.5 405,-112.5 304,-112.5"/>
<text text-anchor="middle" x="354.5" y="-119.5" font-family="Helvetica,sans-Serif" font-size="10.00">torchttprequest.h</text>
</a>
</g>
</g>
<!-- Node6&#45;&gt;Node11 -->
<g id="edge10" class="edge"><title>Node6&#45;&gt;Node11</title>
<path fill="none" stroke="midnightblue" d="M256.039,-168.444C275.123,-159.636 305.075,-145.812 326.936,-135.722"/>
<polygon fill="midnightblue" stroke="midnightblue" points="328.435,-138.885 336.048,-131.516 325.501,-132.529 328.435,-138.885"/>
</g>
<!-- Node11&#45;&gt;Node9 -->
<g id="edge11" class="edge"><title>Node11&#45;&gt;Node9</title>
<path fill="none" stroke="midnightblue" d="M330.732,-112.444C305.164,-103.239 264.379,-88.5565 236.118,-78.3826"/>
<polygon fill="midnightblue" stroke="midnightblue" points="237.284,-75.0825 226.69,-74.9883 234.913,-81.6687 237.284,-75.0825"/>
</g>
<!-- Node11&#45;&gt;Node10 -->
<g id="edge14" class="edge"><title>Node11&#45;&gt;Node10</title>
<path fill="none" stroke="midnightblue" d="M342.611,-112.324C331.35,-104.107 314.213,-91.6017 300.791,-81.8069"/>
<polygon fill="midnightblue" stroke="midnightblue" points="302.747,-78.9014 292.606,-75.8339 298.62,-84.5559 302.747,-78.9014"/>
</g>
<!-- Node12 -->
<g id="node12" class="node"><title>Node12</title>
<polygon fill="white" stroke="#bfbfbf" points="334,-56.5 334,-75.5 375,-75.5 375,-56.5 334,-56.5"/>
<text text-anchor="middle" x="354.5" y="-63.5" font-family="Helvetica,sans-Serif" font-size="10.00">QPair</text>
</g>
<!-- Node11&#45;&gt;Node12 -->
<g id="edge12" class="edge"><title>Node11&#45;&gt;Node12</title>
<path fill="none" stroke="midnightblue" d="M354.5,-112.083C354.5,-105.006 354.5,-94.8611 354.5,-85.9865"/>
<polygon fill="midnightblue" stroke="midnightblue" points="358,-85.751 354.5,-75.7511 351,-85.7511 358,-85.751"/>
</g>
<!-- Node13 -->
<g id="node13" class="node"><title>Node13</title>
<polygon fill="white" stroke="#bfbfbf" points="393,-56.5 393,-75.5 446,-75.5 446,-56.5 393,-56.5"/>
<text text-anchor="middle" x="419.5" y="-63.5" font-family="Helvetica,sans-Serif" font-size="10.00">QString</text>
</g>
<!-- Node11&#45;&gt;Node13 -->
<g id="edge13" class="edge"><title>Node11&#45;&gt;Node13</title>
<path fill="none" stroke="midnightblue" d="M364.943,-112.324C374.646,-104.263 389.315,-92.0765 401,-82.3695"/>
<polygon fill="midnightblue" stroke="midnightblue" points="403.411,-84.9163 408.867,-75.8339 398.938,-79.532 403.411,-84.9163"/>
</g>
<!-- Node14 -->
<g id="node14" class="node"><title>Node14</title>
<g id="a_node14"><a xlink:href="../../de/de6/torchttpreader_8h.html" target="_top" xlink:title="torchttpreader.h">
<polygon fill="white" stroke="black" points="464,-56.5 464,-75.5 559,-75.5 559,-56.5 464,-56.5"/>
<text text-anchor="middle" x="511.5" y="-63.5" font-family="Helvetica,sans-Serif" font-size="10.00">torchttpreader.h</text>
</a>
</g>
</g>
<!-- Node11&#45;&gt;Node14 -->
<g id="edge15" class="edge"><title>Node11&#45;&gt;Node14</title>
<path fill="none" stroke="midnightblue" d="M379.377,-112.444C405.789,-103.359 447.715,-88.9388 477.242,-78.7831"/>
<polygon fill="midnightblue" stroke="midnightblue" points="478.421,-82.0787 486.739,-75.5164 476.145,-75.4593 478.421,-82.0787"/>
</g>
<!-- Node15 -->
<g id="node15" class="node"><title>Node15</title>
<polygon fill="white" stroke="#bfbfbf" points="431,-0.5 431,-19.5 502,-19.5 502,-0.5 431,-0.5"/>
<text text-anchor="middle" x="466.5" y="-7.5" font-family="Helvetica,sans-Serif" font-size="10.00">QByteArray</text>
</g>
<!-- Node14&#45;&gt;Node15 -->
<g id="edge16" class="edge"><title>Node14&#45;&gt;Node15</title>
<path fill="none" stroke="midnightblue" d="M504.069,-56.083C497.647,-48.3768 488.194,-37.0333 480.378,-27.6531"/>
<polygon fill="midnightblue" stroke="midnightblue" points="482.883,-25.1927 473.793,-19.7511 477.506,-29.674 482.883,-25.1927"/>
</g>
<!-- Node16 -->
<g id="node16" class="node"><title>Node16</title>
<polygon fill="white" stroke="#bfbfbf" points="520.5,-0.5 520.5,-19.5 592.5,-19.5 592.5,-0.5 520.5,-0.5"/>
<text text-anchor="middle" x="556.5" y="-7.5" font-family="Helvetica,sans-Serif" font-size="10.00">QTcpSocket</text>
</g>
<!-- Node14&#45;&gt;Node16 -->
<g id="edge17" class="edge"><title>Node14&#45;&gt;Node16</title>
<path fill="none" stroke="midnightblue" d="M518.931,-56.083C525.353,-48.3768 534.806,-37.0333 542.622,-27.6531"/>
<polygon fill="midnightblue" stroke="midnightblue" points="545.494,-29.674 549.207,-19.7511 540.117,-25.1927 545.494,-29.674"/>
</g>
</g>
</svg>
