<?xml version="1.0" encoding="UTF-8" standalone="no"?>
<!DOCTYPE svg PUBLIC "-//W3C//DTD SVG 1.1//EN"
 "http://www.w3.org/Graphics/SVG/1.1/DTD/svg11.dtd">
<!-- Generated by graphviz version 2.38.0 (20140413.2041)
 -->
<!-- Title: torcomxtest.cpp Pages: 1 -->
<svg width="395pt" height="196pt"
 viewBox="0.00 0.00 395.00 196.00" xmlns="http://www.w3.org/2000/svg" xmlns:xlink="http://www.w3.org/1999/xlink">
<g id="graph0" class="graph" transform="scale(1 1) rotate(0) translate(4 192)">
<title>torcomxtest.cpp</title>
<polygon fill="white" stroke="none" points="-4,4 -4,-192 391,-192 391,4 -4,4"/>
<!-- Node1 -->
<g id="node1" class="node"><title>Node1</title>
<polygon fill="#bfbfbf" stroke="black" points="115,-168.5 115,-187.5 210,-187.5 210,-168.5 115,-168.5"/>
<text text-anchor="middle" x="162.5" y="-175.5" font-family="Helvetica,sans-Serif" font-size="10.00">torcomxtest.cpp</text>
</g>
<!-- Node2 -->
<g id="node2" class="node"><title>Node2</title>
<g id="a_node2"><a xlink:href="../../dd/dd5/torcadminthread_8h.html" target="_top" xlink:title="torcadminthread.h">
<polygon fill="white" stroke="black" points="47.5,-112.5 47.5,-131.5 153.5,-131.5 153.5,-112.5 47.5,-112.5"/>
<text text-anchor="middle" x="100.5" y="-119.5" font-family="Helvetica,sans-Serif" font-size="10.00">torcadminthread.h</text>
</a>
</g>
</g>
<!-- Node1&#45;&gt;Node2 -->
<g id="edge1" class="edge"><title>Node1&#45;&gt;Node2</title>
<path fill="none" stroke="midnightblue" d="M152.539,-168.324C143.373,-160.341 129.563,-148.313 118.472,-138.653"/>
<polygon fill="midnightblue" stroke="midnightblue" points="120.482,-135.762 110.643,-131.834 115.885,-141.041 120.482,-135.762"/>
</g>
<!-- Node6 -->
<g id="node6" class="node"><title>Node6</title>
<g id="a_node6"><a xlink:href="../../de/d83/torcomxtest_8h.html" target="_top" xlink:title="torcomxtest.h">
<polygon fill="white" stroke="black" points="183.5,-112.5 183.5,-131.5 267.5,-131.5 267.5,-112.5 183.5,-112.5"/>
<text text-anchor="middle" x="225.5" y="-119.5" font-family="Helvetica,sans-Serif" font-size="10.00">torcomxtest.h</text>
</a>
</g>
</g>
<!-- Node1&#45;&gt;Node6 -->
<g id="edge5" class="edge"><title>Node1&#45;&gt;Node6</title>
<path fill="none" stroke="midnightblue" d="M172.622,-168.324C182.026,-160.263 196.244,-148.077 207.569,-138.369"/>
<polygon fill="midnightblue" stroke="midnightblue" points="209.879,-140.999 215.194,-131.834 205.323,-135.684 209.879,-140.999"/>
</g>
<!-- Node3 -->
<g id="node3" class="node"><title>Node3</title>
<polygon fill="white" stroke="#bfbfbf" points="0,-56.5 0,-75.5 41,-75.5 41,-56.5 0,-56.5"/>
<text text-anchor="middle" x="20.5" y="-63.5" font-family="Helvetica,sans-Serif" font-size="10.00">QList</text>
</g>
<!-- Node2&#45;&gt;Node3 -->
<g id="edge2" class="edge"><title>Node2&#45;&gt;Node3</title>
<path fill="none" stroke="midnightblue" d="M87.6466,-112.324C75.2836,-103.979 56.3699,-91.2122 41.7628,-81.3524"/>
<polygon fill="midnightblue" stroke="midnightblue" points="43.5682,-78.3483 33.3215,-75.6545 39.6518,-84.1503 43.5682,-78.3483"/>
</g>
<!-- Node4 -->
<g id="node4" class="node"><title>Node4</title>
<g id="a_node4"><a xlink:href="../../dd/db0/torcqthread_8h.html" target="_top" xlink:title="torcqthread.h">
<polygon fill="white" stroke="black" points="59.5,-56.5 59.5,-75.5 141.5,-75.5 141.5,-56.5 59.5,-56.5"/>
<text text-anchor="middle" x="100.5" y="-63.5" font-family="Helvetica,sans-Serif" font-size="10.00">torcqthread.h</text>
</a>
</g>
</g>
<!-- Node2&#45;&gt;Node4 -->
<g id="edge3" class="edge"><title>Node2&#45;&gt;Node4</title>
<path fill="none" stroke="midnightblue" d="M100.5,-112.083C100.5,-105.006 100.5,-94.8611 100.5,-85.9865"/>
<polygon fill="midnightblue" stroke="midnightblue" points="104,-85.751 100.5,-75.7511 97.0001,-85.7511 104,-85.751"/>
</g>
<!-- Node5 -->
<g id="node5" class="node"><title>Node5</title>
<polygon fill="white" stroke="#bfbfbf" points="66,-0.5 66,-19.5 123,-19.5 123,-0.5 66,-0.5"/>
<text text-anchor="middle" x="94.5" y="-7.5" font-family="Helvetica,sans-Serif" font-size="10.00">QThread</text>
</g>
<!-- Node4&#45;&gt;Node5 -->
<g id="edge4" class="edge"><title>Node4&#45;&gt;Node5</title>
<path fill="none" stroke="midnightblue" d="M99.5092,-56.083C98.7141,-48.9272 97.5706,-38.6353 96.5768,-29.6911"/>
<polygon fill="midnightblue" stroke="midnightblue" points="100.055,-29.3034 95.4723,-19.7511 93.0982,-30.0765 100.055,-29.3034"/>
</g>
<!-- Node7 -->
<g id="node7" class="node"><title>Node7</title>
<g id="a_node7"><a xlink:href="../../d7/df9/torcomxcore_8h.html" target="_top" xlink:title="torcomxcore.h">
<polygon fill="white" stroke="black" points="205.5,-56.5 205.5,-75.5 291.5,-75.5 291.5,-56.5 205.5,-56.5"/>
<text text-anchor="middle" x="248.5" y="-63.5" font-family="Helvetica,sans-Serif" font-size="10.00">torcomxcore.h</text>
</a>
</g>
</g>
<!-- Node6&#45;&gt;Node7 -->
<g id="edge6" class="edge"><title>Node6&#45;&gt;Node7</title>
<path fill="none" stroke="midnightblue" d="M229.298,-112.083C232.413,-104.77 236.923,-94.1814 240.789,-85.1034"/>
<polygon fill="midnightblue" stroke="midnightblue" points="244.074,-86.3229 244.773,-75.7511 237.634,-83.5798 244.074,-86.3229"/>
</g>
<!-- Node8 -->
<g id="node8" class="node"><title>Node8</title>
<polygon fill="white" stroke="#bfbfbf" points="141.5,-0.5 141.5,-19.5 197.5,-19.5 197.5,-0.5 141.5,-0.5"/>
<text text-anchor="middle" x="169.5" y="-7.5" font-family="Helvetica,sans-Serif" font-size="10.00">QLibrary</text>
</g>
<!-- Node7&#45;&gt;Node8 -->
<g id="edge7" class="edge"><title>Node7&#45;&gt;Node8</title>
<path fill="none" stroke="midnightblue" d="M235.807,-56.324C223.599,-47.979 204.922,-35.2122 190.497,-25.3524"/>
<polygon fill="midnightblue" stroke="midnightblue" points="192.392,-22.4082 182.161,-19.6545 188.442,-28.1871 192.392,-22.4082"/>
</g>
<!-- Node9 -->
<g id="node9" class="node"><title>Node9</title>
<polygon fill="white" stroke="#bfbfbf" points="215,-0.5 215,-19.5 294,-19.5 294,-0.5 215,-0.5"/>
<text text-anchor="middle" x="254.5" y="-7.5" font-family="Helvetica,sans-Serif" font-size="10.00">OMX_Types.h</text>
</g>
<!-- Node7&#45;&gt;Node9 -->
<g id="edge8" class="edge"><title>Node7&#45;&gt;Node9</title>
<path fill="none" stroke="midnightblue" d="M249.491,-56.083C250.286,-48.9272 251.429,-38.6353 252.423,-29.6911"/>
<polygon fill="midnightblue" stroke="midnightblue" points="255.902,-30.0765 253.528,-19.7511 248.945,-29.3034 255.902,-30.0765"/>
</g>
<!-- Node10 -->
<g id="node10" class="node"><title>Node10</title>
<polygon fill="white" stroke="#bfbfbf" points="312,-0.5 312,-19.5 387,-19.5 387,-0.5 312,-0.5"/>
<text text-anchor="middle" x="349.5" y="-7.5" font-family="Helvetica,sans-Serif" font-size="10.00">OMX_Core.h</text>
</g>
<!-- Node7&#45;&gt;Node10 -->
<g id="edge9" class="edge"><title>Node7&#45;&gt;Node10</title>
<path fill="none" stroke="midnightblue" d="M264.727,-56.324C280.851,-47.7034 305.8,-34.3643 324.464,-24.3855"/>
<polygon fill="midnightblue" stroke="midnightblue" points="326.144,-27.456 333.313,-19.6545 322.844,-21.283 326.144,-27.456"/>
</g>
</g>
</svg>
