<?xml version="1.0" encoding="UTF-8" standalone="no"?>
<!DOCTYPE svg PUBLIC "-//W3C//DTD SVG 1.1//EN"
 "http://www.w3.org/Graphics/SVG/1.1/DTD/svg11.dtd">
<!-- Generated by graphviz version 2.38.0 (20140413.2041)
 -->
<!-- Title: torci2cpca9685.cpp Pages: 1 -->
<svg width="1499pt" height="476pt"
 viewBox="0.00 0.00 1499.00 476.00" xmlns="http://www.w3.org/2000/svg" xmlns:xlink="http://www.w3.org/1999/xlink">
<g id="graph0" class="graph" transform="scale(1 1) rotate(0) translate(4 472)">
<title>torci2cpca9685.cpp</title>
<polygon fill="white" stroke="none" points="-4,4 -4,-472 1495,-472 1495,4 -4,4"/>
<!-- Node1 -->
<g id="node1" class="node"><title>Node1</title>
<polygon fill="#bfbfbf" stroke="black" points="246.5,-448.5 246.5,-467.5 356.5,-467.5 356.5,-448.5 246.5,-448.5"/>
<text text-anchor="middle" x="301.5" y="-455.5" font-family="Helvetica,sans-Serif" font-size="10.00">torci2cpca9685.cpp</text>
</g>
<!-- Node2 -->
<g id="node2" class="node"><title>Node2</title>
<g id="a_node2"><a xlink:href="../../d4/df9/torclogging_8h.html" target="_top" xlink:title="torclogging.h">
<polygon fill="white" stroke="black" points="139,-392.5 139,-411.5 218,-411.5 218,-392.5 139,-392.5"/>
<text text-anchor="middle" x="178.5" y="-399.5" font-family="Helvetica,sans-Serif" font-size="10.00">torclogging.h</text>
</a>
</g>
</g>
<!-- Node1&#45;&gt;Node2 -->
<g id="edge1" class="edge"><title>Node1&#45;&gt;Node2</title>
<path fill="none" stroke="midnightblue" d="M282.01,-448.444C261.858,-439.596 230.177,-425.687 207.169,-415.586"/>
<polygon fill="midnightblue" stroke="midnightblue" points="208.462,-412.332 197.899,-411.516 205.648,-418.741 208.462,-412.332"/>
</g>
<!-- Node3 -->
<g id="node3" class="node"><title>Node3</title>
<polygon fill="white" stroke="#bfbfbf" points="0,-336.5 0,-355.5 53,-355.5 53,-336.5 0,-336.5"/>
<text text-anchor="middle" x="26.5" y="-343.5" font-family="Helvetica,sans-Serif" font-size="10.00">stdint.h</text>
</g>
<!-- Node1&#45;&gt;Node3 -->
<g id="edge59" class="edge"><title>Node1&#45;&gt;Node3</title>
<path fill="none" stroke="midnightblue" d="M253.1,-448.481C217.889,-441.301 169.566,-429.386 129.5,-412 98.3809,-398.496 65.8144,-376.39 45.8358,-361.767"/>
<polygon fill="midnightblue" stroke="midnightblue" points="47.7046,-358.795 37.5927,-355.633 43.5255,-364.411 47.7046,-358.795"/>
</g>
<!-- Node6 -->
<g id="node6" class="node"><title>Node6</title>
<g id="a_node6"><a xlink:href="../../db/dd5/torci2cpca9685_8h.html" target="_top" xlink:title="torci2cpca9685.h">
<polygon fill="white" stroke="black" points="252,-392.5 252,-411.5 351,-411.5 351,-392.5 252,-392.5"/>
<text text-anchor="middle" x="301.5" y="-399.5" font-family="Helvetica,sans-Serif" font-size="10.00">torci2cpca9685.h</text>
</a>
</g>
</g>
<!-- Node1&#45;&gt;Node6 -->
<g id="edge5" class="edge"><title>Node1&#45;&gt;Node6</title>
<path fill="none" stroke="midnightblue" d="M301.5,-448.083C301.5,-441.006 301.5,-430.861 301.5,-421.986"/>
<polygon fill="midnightblue" stroke="midnightblue" points="305,-421.751 301.5,-411.751 298,-421.751 305,-421.751"/>
</g>
<!-- Node35 -->
<g id="node35" class="node"><title>Node35</title>
<polygon fill="white" stroke="#bfbfbf" points="369.5,-392.5 369.5,-411.5 445.5,-411.5 445.5,-392.5 369.5,-392.5"/>
<text text-anchor="middle" x="407.5" y="-399.5" font-family="Helvetica,sans-Serif" font-size="10.00">wiringPiI2C.h</text>
</g>
<!-- Node1&#45;&gt;Node35 -->
<g id="edge58" class="edge"><title>Node1&#45;&gt;Node35</title>
<path fill="none" stroke="midnightblue" d="M318.531,-448.324C335.53,-439.664 361.876,-426.242 381.493,-416.249"/>
<polygon fill="midnightblue" stroke="midnightblue" points="383.19,-419.312 390.512,-411.655 380.012,-413.075 383.19,-419.312"/>
</g>
<!-- Node36 -->
<g id="node36" class="node"><title>Node36</title>
<polygon fill="white" stroke="#bfbfbf" points="464,-392.5 464,-411.5 519,-411.5 519,-392.5 464,-392.5"/>
<text text-anchor="middle" x="491.5" y="-399.5" font-family="Helvetica,sans-Serif" font-size="10.00">unistd.h</text>
</g>
<!-- Node1&#45;&gt;Node36 -->
<g id="edge60" class="edge"><title>Node1&#45;&gt;Node36</title>
<path fill="none" stroke="midnightblue" d="M331.606,-448.444C364.653,-439.051 417.77,-423.955 453.622,-413.765"/>
<polygon fill="midnightblue" stroke="midnightblue" points="455.036,-417.002 463.698,-410.902 453.122,-410.269 455.036,-417.002"/>
</g>
<!-- Node2&#45;&gt;Node3 -->
<g id="edge2" class="edge"><title>Node2&#45;&gt;Node3</title>
<path fill="none" stroke="midnightblue" d="M154.415,-392.444C128.955,-383.399 88.6062,-369.064 60.0409,-358.916"/>
<polygon fill="midnightblue" stroke="midnightblue" points="61.0669,-355.566 50.4722,-355.516 58.7235,-362.162 61.0669,-355.566"/>
</g>
<!-- Node4 -->
<g id="node4" class="node"><title>Node4</title>
<polygon fill="white" stroke="#bfbfbf" points="188,-336.5 188,-355.5 239,-355.5 239,-336.5 188,-336.5"/>
<text text-anchor="middle" x="213.5" y="-343.5" font-family="Helvetica,sans-Serif" font-size="10.00">errno.h</text>
</g>
<!-- Node2&#45;&gt;Node4 -->
<g id="edge3" class="edge"><title>Node2&#45;&gt;Node4</title>
<path fill="none" stroke="midnightblue" d="M184.28,-392.083C189.172,-384.534 196.327,-373.495 202.333,-364.23"/>
<polygon fill="midnightblue" stroke="midnightblue" points="205.326,-366.046 207.828,-355.751 199.452,-362.239 205.326,-366.046"/>
</g>
<!-- Node5 -->
<g id="node5" class="node"><title>Node5</title>
<g id="a_node5"><a xlink:href="../../d1/d37/torcloggingdefs_8h.html" target="_top" xlink:title="torcloggingdefs.h">
<polygon fill="white" stroke="black" points="71,-336.5 71,-355.5 170,-355.5 170,-336.5 71,-336.5"/>
<text text-anchor="middle" x="120.5" y="-343.5" font-family="Helvetica,sans-Serif" font-size="10.00">torcloggingdefs.h</text>
</a>
</g>
</g>
<!-- Node2&#45;&gt;Node5 -->
<g id="edge4" class="edge"><title>Node2&#45;&gt;Node5</title>
<path fill="none" stroke="midnightblue" d="M169.181,-392.324C160.607,-384.341 147.688,-372.313 137.312,-362.653"/>
<polygon fill="midnightblue" stroke="midnightblue" points="139.692,-360.086 129.988,-355.834 134.922,-365.21 139.692,-360.086"/>
</g>
<!-- Node7 -->
<g id="node7" class="node"><title>Node7</title>
<polygon fill="white" stroke="#bfbfbf" points="548.5,-56.5 548.5,-75.5 592.5,-75.5 592.5,-56.5 548.5,-56.5"/>
<text text-anchor="middle" x="570.5" y="-63.5" font-family="Helvetica,sans-Serif" font-size="10.00">QMap</text>
</g>
<!-- Node6&#45;&gt;Node7 -->
<g id="edge6" class="edge"><title>Node6&#45;&gt;Node7</title>
<path fill="none" stroke="midnightblue" d="M296.915,-392.44C287.634,-374.29 267.5,-330.378 267.5,-291 267.5,-291 267.5,-291 267.5,-177 267.5,-140.822 285.659,-130.913 316.5,-112 353.235,-89.4728 478.278,-75.3847 538.101,-69.7781"/>
<polygon fill="midnightblue" stroke="midnightblue" points="538.498,-73.2565 548.138,-68.86 537.86,-66.2856 538.498,-73.2565"/>
</g>
<!-- Node8 -->
<g id="node8" class="node"><title>Node8</title>
<g id="a_node8"><a xlink:href="../../df/d6c/torcpwmoutput_8h.html" target="_top" xlink:title="../torcpwmoutput.h">
<polygon fill="white" stroke="black" points="607,-336.5 607,-355.5 714,-355.5 714,-336.5 607,-336.5"/>
<text text-anchor="middle" x="660.5" y="-343.5" font-family="Helvetica,sans-Serif" font-size="10.00">../torcpwmoutput.h</text>
</a>
</g>
</g>
<!-- Node6&#45;&gt;Node8 -->
<g id="edge7" class="edge"><title>Node6&#45;&gt;Node8</title>
<path fill="none" stroke="midnightblue" d="M351.073,-393.429C354.263,-392.944 357.427,-392.465 360.5,-392 441.969,-379.676 535.905,-365.609 596.644,-356.531"/>
<polygon fill="midnightblue" stroke="midnightblue" points="597.47,-359.947 606.843,-355.007 596.436,-353.024 597.47,-359.947"/>
</g>
<!-- Node31 -->
<g id="node31" class="node"><title>Node31</title>
<g id="a_node31"><a xlink:href="../../da/d80/torcoutputs_8h.html" target="_top" xlink:title="../torcoutputs.h">
<polygon fill="white" stroke="black" points="489.5,-336.5 489.5,-355.5 579.5,-355.5 579.5,-336.5 489.5,-336.5"/>
<text text-anchor="middle" x="534.5" y="-343.5" font-family="Helvetica,sans-Serif" font-size="10.00">../torcoutputs.h</text>
</a>
</g>
</g>
<!-- Node6&#45;&gt;Node31 -->
<g id="edge42" class="edge"><title>Node6&#45;&gt;Node31</title>
<path fill="none" stroke="midnightblue" d="M338.42,-392.444C378.895,-383.063 443.921,-367.993 487.884,-357.804"/>
<polygon fill="midnightblue" stroke="midnightblue" points="488.802,-361.184 497.753,-355.516 487.221,-354.365 488.802,-361.184"/>
</g>
<!-- Node34 -->
<g id="node34" class="node"><title>Node34</title>
<g id="a_node34"><a xlink:href="../../de/d67/torci2cbus_8h.html" target="_top" xlink:title="torci2cbus.h">
<polygon fill="white" stroke="black" points="306,-336.5 306,-355.5 381,-355.5 381,-336.5 306,-336.5"/>
<text text-anchor="middle" x="343.5" y="-343.5" font-family="Helvetica,sans-Serif" font-size="10.00">torci2cbus.h</text>
</a>
</g>
</g>
<!-- Node6&#45;&gt;Node34 -->
<g id="edge53" class="edge"><title>Node6&#45;&gt;Node34</title>
<path fill="none" stroke="midnightblue" d="M308.435,-392.083C314.429,-384.377 323.252,-373.033 330.548,-363.653"/>
<polygon fill="midnightblue" stroke="midnightblue" points="333.317,-365.793 336.694,-355.751 327.791,-361.496 333.317,-365.793"/>
</g>
<!-- Node9 -->
<g id="node9" class="node"><title>Node9</title>
<g id="a_node9"><a xlink:href="../../dc/d01/torcoutput_8h.html" target="_top" xlink:title="torcoutput.h">
<polygon fill="white" stroke="black" points="640.5,-280.5 640.5,-299.5 716.5,-299.5 716.5,-280.5 640.5,-280.5"/>
<text text-anchor="middle" x="678.5" y="-287.5" font-family="Helvetica,sans-Serif" font-size="10.00">torcoutput.h</text>
</a>
</g>
</g>
<!-- Node8&#45;&gt;Node9 -->
<g id="edge8" class="edge"><title>Node8&#45;&gt;Node9</title>
<path fill="none" stroke="midnightblue" d="M663.472,-336.083C665.884,-328.849 669.364,-318.409 672.368,-309.397"/>
<polygon fill="midnightblue" stroke="midnightblue" points="675.741,-310.345 675.583,-299.751 669.1,-308.131 675.741,-310.345"/>
</g>
<!-- Node10 -->
<g id="node10" class="node"><title>Node10</title>
<polygon fill="white" stroke="#bfbfbf" points="507,-112.5 507,-131.5 560,-131.5 560,-112.5 507,-112.5"/>
<text text-anchor="middle" x="533.5" y="-119.5" font-family="Helvetica,sans-Serif" font-size="10.00">QMutex</text>
</g>
<!-- Node9&#45;&gt;Node10 -->
<g id="edge9" class="edge"><title>Node9&#45;&gt;Node10</title>
<path fill="none" stroke="midnightblue" d="M662.446,-280.413C635.765,-265.316 582.377,-231.453 553.5,-188 544.208,-174.018 539.068,-155.516 536.335,-141.828"/>
<polygon fill="midnightblue" stroke="midnightblue" points="539.729,-140.919 534.566,-131.668 532.833,-142.12 539.729,-140.919"/>
</g>
<!-- Node11 -->
<g id="node11" class="node"><title>Node11</title>
<polygon fill="white" stroke="#bfbfbf" points="562,-168.5 562,-187.5 617,-187.5 617,-168.5 562,-168.5"/>
<text text-anchor="middle" x="589.5" y="-175.5" font-family="Helvetica,sans-Serif" font-size="10.00">QObject</text>
</g>
<!-- Node9&#45;&gt;Node11 -->
<g id="edge10" class="edge"><title>Node9&#45;&gt;Node11</title>
<path fill="none" stroke="midnightblue" d="M671.122,-280.45C663.397,-271.454 650.958,-256.846 640.5,-244 627.403,-227.912 612.827,-209.257 602.623,-196.069"/>
<polygon fill="midnightblue" stroke="midnightblue" points="605.209,-193.691 596.329,-187.911 599.667,-197.967 605.209,-193.691"/>
</g>
<!-- Node12 -->
<g id="node12" class="node"><title>Node12</title>
<g id="a_node12"><a xlink:href="../../d8/dfe/torcreferencecounted_8h.html" target="_top" xlink:title="torcreferencecounted.h">
<polygon fill="white" stroke="black" points="1362,-168.5 1362,-187.5 1491,-187.5 1491,-168.5 1362,-168.5"/>
<text text-anchor="middle" x="1426.5" y="-175.5" font-family="Helvetica,sans-Serif" font-size="10.00">torcreferencecounted.h</text>
</a>
</g>
</g>
<!-- Node9&#45;&gt;Node12 -->
<g id="edge11" class="edge"><title>Node9&#45;&gt;Node12</title>
<path fill="none" stroke="midnightblue" d="M716.622,-283.394C836.16,-265.815 1204.79,-211.604 1358.31,-189.028"/>
<polygon fill="midnightblue" stroke="midnightblue" points="1359.16,-192.441 1368.54,-187.523 1358.14,-185.515 1359.16,-192.441"/>
</g>
<!-- Node14 -->
<g id="node14" class="node"><title>Node14</title>
<g id="a_node14"><a xlink:href="../../d3/dee/torchttpservice_8h.html" target="_top" xlink:title="torchttpservice.h">
<polygon fill="white" stroke="black" points="876.5,-224.5 876.5,-243.5 974.5,-243.5 974.5,-224.5 876.5,-224.5"/>
<text text-anchor="middle" x="925.5" y="-231.5" font-family="Helvetica,sans-Serif" font-size="10.00">torchttpservice.h</text>
</a>
</g>
</g>
<!-- Node9&#45;&gt;Node14 -->
<g id="edge13" class="edge"><title>Node9&#45;&gt;Node14</title>
<path fill="none" stroke="midnightblue" d="M716.552,-280.681C759.543,-271.282 829.629,-255.96 876.634,-245.683"/>
<polygon fill="midnightblue" stroke="midnightblue" points="877.567,-249.062 886.589,-243.507 876.072,-242.224 877.567,-249.062"/>
</g>
<!-- Node27 -->
<g id="node27" class="node"><title>Node27</title>
<g id="a_node27"><a xlink:href="../../d1/df7/torcdevice_8h.html" target="_top" xlink:title="torcdevice.h">
<polygon fill="white" stroke="black" points="649,-224.5 649,-243.5 724,-243.5 724,-224.5 649,-224.5"/>
<text text-anchor="middle" x="686.5" y="-231.5" font-family="Helvetica,sans-Serif" font-size="10.00">torcdevice.h</text>
</a>
</g>
</g>
<!-- Node9&#45;&gt;Node27 -->
<g id="edge31" class="edge"><title>Node9&#45;&gt;Node27</title>
<path fill="none" stroke="midnightblue" d="M679.821,-280.083C680.881,-272.927 682.406,-262.635 683.731,-253.691"/>
<polygon fill="midnightblue" stroke="midnightblue" points="687.2,-254.156 685.204,-243.751 680.276,-253.13 687.2,-254.156"/>
</g>
<!-- Node13 -->
<g id="node13" class="node"><title>Node13</title>
<polygon fill="white" stroke="#bfbfbf" points="1391.5,-112.5 1391.5,-131.5 1461.5,-131.5 1461.5,-112.5 1391.5,-112.5"/>
<text text-anchor="middle" x="1426.5" y="-119.5" font-family="Helvetica,sans-Serif" font-size="10.00">QAtomicInt</text>
</g>
<!-- Node12&#45;&gt;Node13 -->
<g id="edge12" class="edge"><title>Node12&#45;&gt;Node13</title>
<path fill="none" stroke="midnightblue" d="M1426.5,-168.083C1426.5,-161.006 1426.5,-150.861 1426.5,-141.986"/>
<polygon fill="midnightblue" stroke="midnightblue" points="1430,-141.751 1426.5,-131.751 1423,-141.751 1430,-141.751"/>
</g>
<!-- Node14&#45;&gt;Node7 -->
<g id="edge14" class="edge"><title>Node14&#45;&gt;Node7</title>
<path fill="none" stroke="midnightblue" d="M927.275,-224.47C931.33,-202.344 938.666,-142.704 907.5,-112 864.918,-70.049 678.771,-66.311 602.881,-66.5792"/>
<polygon fill="midnightblue" stroke="midnightblue" points="602.492,-63.0815 592.514,-66.6438 602.536,-70.0814 602.492,-63.0815"/>
</g>
<!-- Node14&#45;&gt;Node10 -->
<g id="edge15" class="edge"><title>Node14&#45;&gt;Node10</title>
<path fill="none" stroke="midnightblue" d="M911.306,-224.383C887.579,-210.37 837.976,-182.733 792.5,-168 715.688,-143.115 621.347,-131.133 570.389,-126.105"/>
<polygon fill="midnightblue" stroke="midnightblue" points="570.482,-122.599 560.195,-125.136 569.819,-129.567 570.482,-122.599"/>
</g>
<!-- Node15 -->
<g id="node15" class="node"><title>Node15</title>
<polygon fill="white" stroke="#bfbfbf" points="806.5,-112.5 806.5,-131.5 898.5,-131.5 898.5,-112.5 806.5,-112.5"/>
<text text-anchor="middle" x="852.5" y="-119.5" font-family="Helvetica,sans-Serif" font-size="10.00">QReadWriteLock</text>
</g>
<!-- Node14&#45;&gt;Node15 -->
<g id="edge16" class="edge"><title>Node14&#45;&gt;Node15</title>
<path fill="none" stroke="midnightblue" d="M919.772,-224.368C907.725,-206.215 879.577,-163.802 863.775,-139.99"/>
<polygon fill="midnightblue" stroke="midnightblue" points="866.647,-137.988 858.202,-131.591 860.815,-141.859 866.647,-137.988"/>
</g>
<!-- Node16 -->
<g id="node16" class="node"><title>Node16</title>
<polygon fill="white" stroke="#bfbfbf" points="992,-168.5 992,-187.5 1071,-187.5 1071,-168.5 992,-168.5"/>
<text text-anchor="middle" x="1031.5" y="-175.5" font-family="Helvetica,sans-Serif" font-size="10.00">QMetaObject</text>
</g>
<!-- Node14&#45;&gt;Node16 -->
<g id="edge17" class="edge"><title>Node14&#45;&gt;Node16</title>
<path fill="none" stroke="midnightblue" d="M942.531,-224.324C959.53,-215.664 985.876,-202.242 1005.49,-192.249"/>
<polygon fill="midnightblue" stroke="midnightblue" points="1007.19,-195.312 1014.51,-187.655 1004.01,-189.075 1007.19,-195.312"/>
</g>
<!-- Node17 -->
<g id="node17" class="node"><title>Node17</title>
<polygon fill="white" stroke="#bfbfbf" points="1089,-168.5 1089,-187.5 1188,-187.5 1188,-168.5 1089,-168.5"/>
<text text-anchor="middle" x="1138.5" y="-175.5" font-family="Helvetica,sans-Serif" font-size="10.00">QCoreApplication</text>
</g>
<!-- Node14&#45;&gt;Node17 -->
<g id="edge18" class="edge"><title>Node14&#45;&gt;Node17</title>
<path fill="none" stroke="midnightblue" d="M959.25,-224.444C996.018,-215.122 1054.95,-200.183 1095.12,-189.997"/>
<polygon fill="midnightblue" stroke="midnightblue" points="1096.07,-193.367 1104.91,-187.516 1094.35,-186.581 1096.07,-193.367"/>
</g>
<!-- Node18 -->
<g id="node18" class="node"><title>Node18</title>
<g id="a_node18"><a xlink:href="../../d4/d11/torchttphandler_8h.html" target="_top" xlink:title="torchttphandler.h">
<polygon fill="white" stroke="black" points="1245,-168.5 1245,-187.5 1344,-187.5 1344,-168.5 1245,-168.5"/>
<text text-anchor="middle" x="1294.5" y="-175.5" font-family="Helvetica,sans-Serif" font-size="10.00">torchttphandler.h</text>
</a>
</g>
</g>
<!-- Node14&#45;&gt;Node18 -->
<g id="edge19" class="edge"><title>Node14&#45;&gt;Node18</title>
<path fill="none" stroke="midnightblue" d="M974.5,-225.829C1041.58,-216.012 1161.92,-198.401 1234.38,-187.799"/>
<polygon fill="midnightblue" stroke="midnightblue" points="1235.32,-191.198 1244.71,-186.287 1234.31,-184.272 1235.32,-191.198"/>
</g>
<!-- Node21 -->
<g id="node21" class="node"><title>Node21</title>
<g id="a_node21"><a xlink:href="../../df/dd7/torchttprequest_8h.html" target="_top" xlink:title="torchttprequest.h">
<polygon fill="white" stroke="black" points="992,-112.5 992,-131.5 1093,-131.5 1093,-112.5 992,-112.5"/>
<text text-anchor="middle" x="1042.5" y="-119.5" font-family="Helvetica,sans-Serif" font-size="10.00">torchttprequest.h</text>
</a>
</g>
</g>
<!-- Node14&#45;&gt;Node21 -->
<g id="edge30" class="edge"><title>Node14&#45;&gt;Node21</title>
<path fill="none" stroke="midnightblue" d="M974.644,-232.182C1045.11,-229.852 1169.48,-221.035 1197.5,-188 1227.88,-152.176 1158.76,-135.704 1103.27,-128.411"/>
<polygon fill="midnightblue" stroke="midnightblue" points="1103.44,-124.906 1093.09,-127.153 1102.59,-131.853 1103.44,-124.906"/>
</g>
<!-- Node19 -->
<g id="node19" class="node"><title>Node19</title>
<polygon fill="white" stroke="#bfbfbf" points="1137,-56.5 1137,-75.5 1190,-75.5 1190,-56.5 1137,-56.5"/>
<text text-anchor="middle" x="1163.5" y="-63.5" font-family="Helvetica,sans-Serif" font-size="10.00">QString</text>
</g>
<!-- Node18&#45;&gt;Node19 -->
<g id="edge20" class="edge"><title>Node18&#45;&gt;Node19</title>
<path fill="none" stroke="midnightblue" d="M1284.22,-168.368C1262.03,-149.733 1209.39,-105.532 1181.52,-82.1338"/>
<polygon fill="midnightblue" stroke="midnightblue" points="1183.64,-79.3416 1173.73,-75.5914 1179.14,-84.7024 1183.64,-79.3416"/>
</g>
<!-- Node20 -->
<g id="node20" class="node"><title>Node20</title>
<polygon fill="white" stroke="#bfbfbf" points="1255.5,-112.5 1255.5,-131.5 1333.5,-131.5 1333.5,-112.5 1255.5,-112.5"/>
<text text-anchor="middle" x="1294.5" y="-119.5" font-family="Helvetica,sans-Serif" font-size="10.00">QVariantMap</text>
</g>
<!-- Node18&#45;&gt;Node20 -->
<g id="edge21" class="edge"><title>Node18&#45;&gt;Node20</title>
<path fill="none" stroke="midnightblue" d="M1294.5,-168.083C1294.5,-161.006 1294.5,-150.861 1294.5,-141.986"/>
<polygon fill="midnightblue" stroke="midnightblue" points="1298,-141.751 1294.5,-131.751 1291,-141.751 1298,-141.751"/>
</g>
<!-- Node18&#45;&gt;Node21 -->
<g id="edge22" class="edge"><title>Node18&#45;&gt;Node21</title>
<path fill="none" stroke="midnightblue" d="M1254.57,-168.444C1210.61,-159.023 1139.87,-143.866 1092.32,-133.675"/>
<polygon fill="midnightblue" stroke="midnightblue" points="1092.75,-130.189 1082.24,-131.516 1091.29,-137.034 1092.75,-130.189"/>
</g>
<!-- Node21&#45;&gt;Node7 -->
<g id="edge23" class="edge"><title>Node21&#45;&gt;Node7</title>
<path fill="none" stroke="midnightblue" d="M991.776,-113.84C986.953,-113.2 982.135,-112.577 977.5,-112 838.216,-94.6606 671.687,-77.3004 602.785,-70.2651"/>
<polygon fill="midnightblue" stroke="midnightblue" points="602.887,-66.7575 592.584,-69.2262 602.178,-73.7215 602.887,-66.7575"/>
</g>
<!-- Node21&#45;&gt;Node19 -->
<g id="edge25" class="edge"><title>Node21&#45;&gt;Node19</title>
<path fill="none" stroke="midnightblue" d="M1061.67,-112.444C1081.41,-103.636 1112.39,-89.8116 1134.99,-79.722"/>
<polygon fill="midnightblue" stroke="midnightblue" points="1136.71,-82.788 1144.42,-75.5164 1133.86,-76.3957 1136.71,-82.788"/>
</g>
<!-- Node22 -->
<g id="node22" class="node"><title>Node22</title>
<polygon fill="white" stroke="#bfbfbf" points="876,-56.5 876,-75.5 917,-75.5 917,-56.5 876,-56.5"/>
<text text-anchor="middle" x="896.5" y="-63.5" font-family="Helvetica,sans-Serif" font-size="10.00">QPair</text>
</g>
<!-- Node21&#45;&gt;Node22 -->
<g id="edge24" class="edge"><title>Node21&#45;&gt;Node22</title>
<path fill="none" stroke="midnightblue" d="M1019.37,-112.444C994.302,-103.173 954.214,-88.3464 926.687,-78.1652"/>
<polygon fill="midnightblue" stroke="midnightblue" points="927.758,-74.8297 917.165,-74.6433 925.33,-81.395 927.758,-74.8297"/>
</g>
<!-- Node23 -->
<g id="node23" class="node"><title>Node23</title>
<polygon fill="white" stroke="#bfbfbf" points="935,-56.5 935,-75.5 1006,-75.5 1006,-56.5 935,-56.5"/>
<text text-anchor="middle" x="970.5" y="-63.5" font-family="Helvetica,sans-Serif" font-size="10.00">QDateTime</text>
</g>
<!-- Node21&#45;&gt;Node23 -->
<g id="edge26" class="edge"><title>Node21&#45;&gt;Node23</title>
<path fill="none" stroke="midnightblue" d="M1030.93,-112.324C1020.08,-104.185 1003.62,-91.8395 990.617,-82.0874"/>
<polygon fill="midnightblue" stroke="midnightblue" points="992.379,-79.0339 982.279,-75.8339 988.179,-84.6339 992.379,-79.0339"/>
</g>
<!-- Node24 -->
<g id="node24" class="node"><title>Node24</title>
<g id="a_node24"><a xlink:href="../../de/de6/torchttpreader_8h.html" target="_top" xlink:title="torchttpreader.h">
<polygon fill="white" stroke="black" points="1024,-56.5 1024,-75.5 1119,-75.5 1119,-56.5 1024,-56.5"/>
<text text-anchor="middle" x="1071.5" y="-63.5" font-family="Helvetica,sans-Serif" font-size="10.00">torchttpreader.h</text>
</a>
</g>
</g>
<!-- Node21&#45;&gt;Node24 -->
<g id="edge27" class="edge"><title>Node21&#45;&gt;Node24</title>
<path fill="none" stroke="midnightblue" d="M1047.29,-112.083C1051.26,-104.691 1057.03,-93.9533 1061.93,-84.8111"/>
<polygon fill="midnightblue" stroke="midnightblue" points="1065.15,-86.217 1066.8,-75.7511 1058.99,-82.9051 1065.15,-86.217"/>
</g>
<!-- Node25 -->
<g id="node25" class="node"><title>Node25</title>
<polygon fill="white" stroke="#bfbfbf" points="991,-0.5 991,-19.5 1062,-19.5 1062,-0.5 991,-0.5"/>
<text text-anchor="middle" x="1026.5" y="-7.5" font-family="Helvetica,sans-Serif" font-size="10.00">QByteArray</text>
</g>
<!-- Node24&#45;&gt;Node25 -->
<g id="edge28" class="edge"><title>Node24&#45;&gt;Node25</title>
<path fill="none" stroke="midnightblue" d="M1064.07,-56.083C1057.65,-48.3768 1048.19,-37.0333 1040.38,-27.6531"/>
<polygon fill="midnightblue" stroke="midnightblue" points="1042.88,-25.1927 1033.79,-19.7511 1037.51,-29.674 1042.88,-25.1927"/>
</g>
<!-- Node26 -->
<g id="node26" class="node"><title>Node26</title>
<polygon fill="white" stroke="#bfbfbf" points="1080.5,-0.5 1080.5,-19.5 1152.5,-19.5 1152.5,-0.5 1080.5,-0.5"/>
<text text-anchor="middle" x="1116.5" y="-7.5" font-family="Helvetica,sans-Serif" font-size="10.00">QTcpSocket</text>
</g>
<!-- Node24&#45;&gt;Node26 -->
<g id="edge29" class="edge"><title>Node24&#45;&gt;Node26</title>
<path fill="none" stroke="midnightblue" d="M1078.93,-56.083C1085.35,-48.3768 1094.81,-37.0333 1102.62,-27.6531"/>
<polygon fill="midnightblue" stroke="midnightblue" points="1105.49,-29.674 1109.21,-19.7511 1100.12,-25.1927 1105.49,-29.674"/>
</g>
<!-- Node27&#45;&gt;Node10 -->
<g id="edge33" class="edge"><title>Node27&#45;&gt;Node10</title>
<path fill="none" stroke="midnightblue" d="M680.318,-224.461C670.264,-211.046 649.199,-184.83 626.5,-168 608.096,-154.354 584.904,-143.122 566.284,-135.293"/>
<polygon fill="midnightblue" stroke="midnightblue" points="567.595,-132.048 557.014,-131.514 564.953,-138.53 567.595,-132.048"/>
</g>
<!-- Node27&#45;&gt;Node11 -->
<g id="edge35" class="edge"><title>Node27&#45;&gt;Node11</title>
<path fill="none" stroke="midnightblue" d="M670.915,-224.324C655.501,-215.743 631.688,-202.486 613.79,-192.522"/>
<polygon fill="midnightblue" stroke="midnightblue" points="615.486,-189.461 605.046,-187.655 612.081,-195.577 615.486,-189.461"/>
</g>
<!-- Node27&#45;&gt;Node12 -->
<g id="edge36" class="edge"><title>Node27&#45;&gt;Node12</title>
<path fill="none" stroke="midnightblue" d="M724.168,-231.19C824.454,-226.217 1106.48,-211.211 1351.48,-188.149"/>
<polygon fill="midnightblue" stroke="midnightblue" points="1352.02,-191.613 1361.64,-187.185 1351.36,-184.645 1352.02,-191.613"/>
</g>
<!-- Node27&#45;&gt;Node19 -->
<g id="edge34" class="edge"><title>Node27&#45;&gt;Node19</title>
<path fill="none" stroke="midnightblue" d="M724.124,-225.152C820.213,-204.928 1069.43,-151.272 1102.5,-132 1123.1,-119.998 1140.99,-98.9069 1151.98,-84.0097"/>
<polygon fill="midnightblue" stroke="midnightblue" points="1154.96,-85.8532 1157.89,-75.6711 1149.25,-81.8048 1154.96,-85.8532"/>
</g>
<!-- Node28 -->
<g id="node28" class="node"><title>Node28</title>
<polygon fill="white" stroke="#bfbfbf" points="721,-112.5 721,-131.5 770,-131.5 770,-112.5 721,-112.5"/>
<text text-anchor="middle" x="745.5" y="-119.5" font-family="Helvetica,sans-Serif" font-size="10.00">QHash</text>
</g>
<!-- Node27&#45;&gt;Node28 -->
<g id="edge32" class="edge"><title>Node27&#45;&gt;Node28</title>
<path fill="none" stroke="midnightblue" d="M724.12,-227.675C748.088,-222.122 777.383,-210.84 792.5,-188 804.257,-170.236 785.182,-150.493 767.924,-137.479"/>
<polygon fill="midnightblue" stroke="midnightblue" points="769.921,-134.604 759.741,-131.669 765.869,-140.312 769.921,-134.604"/>
</g>
<!-- Node29 -->
<g id="node29" class="node"><title>Node29</title>
<g id="a_node29"><a xlink:href="../../d2/d5b/torcdevicehandler_8h.html" target="_top" xlink:title="torcdevicehandler.h">
<polygon fill="white" stroke="black" points="673.5,-168.5 673.5,-187.5 783.5,-187.5 783.5,-168.5 673.5,-168.5"/>
<text text-anchor="middle" x="728.5" y="-175.5" font-family="Helvetica,sans-Serif" font-size="10.00">torcdevicehandler.h</text>
</a>
</g>
</g>
<!-- Node27&#45;&gt;Node29 -->
<g id="edge37" class="edge"><title>Node27&#45;&gt;Node29</title>
<path fill="none" stroke="midnightblue" d="M693.435,-224.083C699.429,-216.377 708.252,-205.033 715.548,-195.653"/>
<polygon fill="midnightblue" stroke="midnightblue" points="718.317,-197.793 721.694,-187.751 712.791,-193.496 718.317,-197.793"/>
</g>
<!-- Node29&#45;&gt;Node10 -->
<g id="edge39" class="edge"><title>Node29&#45;&gt;Node10</title>
<path fill="none" stroke="midnightblue" d="M697.602,-168.444C662.95,-158.848 606.8,-143.298 570.01,-133.11"/>
<polygon fill="midnightblue" stroke="midnightblue" points="570.752,-129.684 560.18,-130.388 568.884,-136.43 570.752,-129.684"/>
</g>
<!-- Node29&#45;&gt;Node15 -->
<g id="edge40" class="edge"><title>Node29&#45;&gt;Node15</title>
<path fill="none" stroke="midnightblue" d="M748.148,-168.444C768.465,-159.596 800.403,-145.687 823.598,-135.586"/>
<polygon fill="midnightblue" stroke="midnightblue" points="825.173,-138.718 832.944,-131.516 822.378,-132.3 825.173,-138.718"/>
</g>
<!-- Node29&#45;&gt;Node28 -->
<g id="edge38" class="edge"><title>Node29&#45;&gt;Node28</title>
<path fill="none" stroke="midnightblue" d="M731.307,-168.083C733.585,-160.849 736.871,-150.409 739.708,-141.397"/>
<polygon fill="midnightblue" stroke="midnightblue" points="743.081,-142.341 742.745,-131.751 736.404,-140.239 743.081,-142.341"/>
</g>
<!-- Node30 -->
<g id="node30" class="node"><title>Node30</title>
<polygon fill="white" stroke="#bfbfbf" points="352.5,-112.5 352.5,-131.5 410.5,-131.5 410.5,-112.5 352.5,-112.5"/>
<text text-anchor="middle" x="381.5" y="-119.5" font-family="Helvetica,sans-Serif" font-size="10.00">QVariant</text>
</g>
<!-- Node29&#45;&gt;Node30 -->
<g id="edge41" class="edge"><title>Node29&#45;&gt;Node30</title>
<path fill="none" stroke="midnightblue" d="M673.517,-168.444C603.063,-157.479 482.664,-138.743 420.776,-129.112"/>
<polygon fill="midnightblue" stroke="midnightblue" points="421.063,-125.615 410.644,-127.535 419.987,-132.532 421.063,-125.615"/>
</g>
<!-- Node31&#45;&gt;Node9 -->
<g id="edge46" class="edge"><title>Node31&#45;&gt;Node9</title>
<path fill="none" stroke="midnightblue" d="M557.317,-336.444C581.332,-327.438 619.329,-313.189 646.369,-303.049"/>
<polygon fill="midnightblue" stroke="midnightblue" points="647.655,-306.305 655.79,-299.516 645.197,-299.751 647.655,-306.305"/>
</g>
<!-- Node31&#45;&gt;Node10 -->
<g id="edge44" class="edge"><title>Node31&#45;&gt;Node10</title>
<path fill="none" stroke="midnightblue" d="M516.111,-336.471C502.399,-328.997 484.685,-316.71 476.5,-300 449.111,-244.084 495.344,-171.957 519.813,-139.783"/>
<polygon fill="midnightblue" stroke="midnightblue" points="522.644,-141.844 526.058,-131.814 517.135,-137.526 522.644,-141.844"/>
</g>
<!-- Node31&#45;&gt;Node14 -->
<g id="edge45" class="edge"><title>Node31&#45;&gt;Node14</title>
<path fill="none" stroke="midnightblue" d="M574.991,-336.481C613.824,-328.071 673.992,-314.411 725.5,-300 784.528,-283.485 852.15,-260.676 891.708,-246.931"/>
<polygon fill="midnightblue" stroke="midnightblue" points="893.087,-250.157 901.376,-243.558 890.781,-243.548 893.087,-250.157"/>
</g>
<!-- Node32 -->
<g id="node32" class="node"><title>Node32</title>
<polygon fill="white" stroke="#bfbfbf" points="581,-280.5 581,-299.5 622,-299.5 622,-280.5 581,-280.5"/>
<text text-anchor="middle" x="601.5" y="-287.5" font-family="Helvetica,sans-Serif" font-size="10.00">QList</text>
</g>
<!-- Node31&#45;&gt;Node32 -->
<g id="edge43" class="edge"><title>Node31&#45;&gt;Node32</title>
<path fill="none" stroke="midnightblue" d="M545.265,-336.324C555.266,-328.263 570.387,-316.077 582.43,-306.369"/>
<polygon fill="midnightblue" stroke="midnightblue" points="584.95,-308.834 590.539,-299.834 580.557,-303.384 584.95,-308.834"/>
</g>
<!-- Node33 -->
<g id="node33" class="node"><title>Node33</title>
<g id="a_node33"><a xlink:href="../../d5/d41/torccentral_8h.html" target="_top" xlink:title="torccentral.h">
<polygon fill="white" stroke="black" points="486,-280.5 486,-299.5 563,-299.5 563,-280.5 486,-280.5"/>
<text text-anchor="middle" x="524.5" y="-287.5" font-family="Helvetica,sans-Serif" font-size="10.00">torccentral.h</text>
</a>
</g>
</g>
<!-- Node31&#45;&gt;Node33 -->
<g id="edge47" class="edge"><title>Node31&#45;&gt;Node33</title>
<path fill="none" stroke="midnightblue" d="M532.849,-336.083C531.524,-328.927 529.618,-318.635 527.961,-309.691"/>
<polygon fill="midnightblue" stroke="midnightblue" points="531.383,-308.947 526.121,-299.751 524.5,-310.221 531.383,-308.947"/>
</g>
<!-- Node33&#45;&gt;Node10 -->
<g id="edge48" class="edge"><title>Node33&#45;&gt;Node10</title>
<path fill="none" stroke="midnightblue" d="M523.028,-280.43C519.854,-260.545 513.151,-209.78 519.5,-168 520.868,-159.001 523.69,-149.325 526.445,-141.26"/>
<polygon fill="midnightblue" stroke="midnightblue" points="529.765,-142.372 529.9,-131.778 523.188,-139.976 529.765,-142.372"/>
</g>
<!-- Node33&#45;&gt;Node11 -->
<g id="edge49" class="edge"><title>Node33&#45;&gt;Node11</title>
<path fill="none" stroke="midnightblue" d="M529.6,-280.368C540.28,-262.296 565.168,-220.176 579.273,-196.307"/>
<polygon fill="midnightblue" stroke="midnightblue" points="582.349,-197.981 584.423,-187.591 576.323,-194.42 582.349,-197.981"/>
</g>
<!-- Node33&#45;&gt;Node14 -->
<g id="edge52" class="edge"><title>Node33&#45;&gt;Node14</title>
<path fill="none" stroke="midnightblue" d="M563.239,-281.535C566.368,-280.993 569.485,-280.474 572.5,-280 675.459,-263.799 796.018,-249.409 866.268,-241.478"/>
<polygon fill="midnightblue" stroke="midnightblue" points="866.713,-244.95 876.26,-240.355 865.932,-237.994 866.713,-244.95"/>
</g>
<!-- Node33&#45;&gt;Node27 -->
<g id="edge51" class="edge"><title>Node33&#45;&gt;Node27</title>
<path fill="none" stroke="midnightblue" d="M550.169,-280.444C577.423,-271.359 620.684,-256.939 651.151,-246.783"/>
<polygon fill="midnightblue" stroke="midnightblue" points="652.571,-249.999 660.951,-243.516 650.357,-243.358 652.571,-249.999"/>
</g>
<!-- Node33&#45;&gt;Node30 -->
<g id="edge50" class="edge"><title>Node33&#45;&gt;Node30</title>
<path fill="none" stroke="midnightblue" d="M516.812,-280.075C493.815,-253.38 425.317,-173.865 395.56,-139.322"/>
<polygon fill="midnightblue" stroke="midnightblue" points="398.059,-136.86 388.881,-131.568 392.756,-141.429 398.059,-136.86"/>
</g>
<!-- Node34&#45;&gt;Node7 -->
<g id="edge54" class="edge"><title>Node34&#45;&gt;Node7</title>
<path fill="none" stroke="midnightblue" d="M338.216,-336.231C327.775,-318.043 305.5,-274.601 305.5,-235 305.5,-235 305.5,-235 305.5,-177 305.5,-77.2634 467.602,-66.2504 538.241,-66.1861"/>
<polygon fill="midnightblue" stroke="midnightblue" points="538.339,-69.6867 548.362,-66.2522 538.385,-62.6869 538.339,-69.6867"/>
</g>
<!-- Node34&#45;&gt;Node10 -->
<g id="edge55" class="edge"><title>Node34&#45;&gt;Node10</title>
<path fill="none" stroke="midnightblue" d="M349.973,-336.204C369.523,-309.817 430.089,-229.367 486.5,-168 495.961,-157.708 507.258,-146.851 516.405,-138.38"/>
<polygon fill="midnightblue" stroke="midnightblue" points="518.773,-140.957 523.789,-131.624 514.049,-135.792 518.773,-140.957"/>
</g>
<!-- Node34&#45;&gt;Node30 -->
<g id="edge56" class="edge"><title>Node34&#45;&gt;Node30</title>
<path fill="none" stroke="midnightblue" d="M344.99,-336.297C350.581,-303.633 370.397,-187.866 378.255,-141.957"/>
<polygon fill="midnightblue" stroke="midnightblue" points="381.742,-142.331 379.979,-131.884 374.842,-141.15 381.742,-142.331"/>
</g>
<!-- Node34&#45;&gt;Node33 -->
<g id="edge57" class="edge"><title>Node34&#45;&gt;Node33</title>
<path fill="none" stroke="midnightblue" d="M372.18,-336.444C403.027,-327.241 452.228,-312.562 486.329,-302.388"/>
<polygon fill="midnightblue" stroke="midnightblue" points="487.372,-305.729 495.954,-299.516 485.371,-299.021 487.372,-305.729"/>
</g>
</g>
</svg>
