<?xml version="1.0" encoding="UTF-8" standalone="no"?>
<!DOCTYPE svg PUBLIC "-//W3C//DTD SVG 1.1//EN"
 "http://www.w3.org/Graphics/SVG/1.1/DTD/svg11.dtd">
<!-- Generated by graphviz version 2.38.0 (20140413.2041)
 -->
<!-- Title: torccompat.h Pages: 1 -->
<svg width="686pt" height="84pt"
 viewBox="0.00 0.00 685.50 84.00" xmlns="http://www.w3.org/2000/svg" xmlns:xlink="http://www.w3.org/1999/xlink">
<g id="graph0" class="graph" transform="scale(1 1) rotate(0) translate(4 80)">
<title>torccompat.h</title>
<polygon fill="white" stroke="none" points="-4,4 -4,-80 681.5,-80 681.5,4 -4,4"/>
<!-- Node1 -->
<g id="node1" class="node"><title>Node1</title>
<polygon fill="#bfbfbf" stroke="black" points="317.5,-56.5 317.5,-75.5 398.5,-75.5 398.5,-56.5 317.5,-56.5"/>
<text text-anchor="middle" x="358" y="-63.5" font-family="Helvetica,sans-Serif" font-size="10.00">torccompat.h</text>
</g>
<!-- Node2 -->
<g id="node2" class="node"><title>Node2</title>
<polygon fill="white" stroke="#bfbfbf" points="0,-0.5 0,-19.5 66,-19.5 66,-0.5 0,-0.5"/>
<text text-anchor="middle" x="33" y="-7.5" font-family="Helvetica,sans-Serif" font-size="10.00">sys/time.h</text>
</g>
<!-- Node1&#45;&gt;Node2 -->
<g id="edge1" class="edge"><title>Node1&#45;&gt;Node2</title>
<path fill="none" stroke="midnightblue" d="M317.11,-59.1982C263.92,-51.4971 167.885,-37.0686 76.4164,-20.1884"/>
<polygon fill="midnightblue" stroke="midnightblue" points="76.9095,-16.7202 66.4383,-18.3337 75.6302,-23.6023 76.9095,-16.7202"/>
</g>
<!-- Node3 -->
<g id="node3" class="node"><title>Node3</title>
<polygon fill="white" stroke="#bfbfbf" points="84,-0.5 84,-19.5 170,-19.5 170,-0.5 84,-0.5"/>
<text text-anchor="middle" x="127" y="-7.5" font-family="Helvetica,sans-Serif" font-size="10.00">sys/resource.h</text>
</g>
<!-- Node1&#45;&gt;Node3 -->
<g id="edge2" class="edge"><title>Node1&#45;&gt;Node3</title>
<path fill="none" stroke="midnightblue" d="M321.397,-56.4435C281.269,-47.0629 216.802,-31.9926 173.215,-21.8036"/>
<polygon fill="midnightblue" stroke="midnightblue" points="173.966,-18.3847 163.431,-19.5164 172.372,-25.2009 173.966,-18.3847"/>
</g>
<!-- Node4 -->
<g id="node4" class="node"><title>Node4</title>
<polygon fill="white" stroke="#bfbfbf" points="188,-0.5 188,-19.5 264,-19.5 264,-0.5 188,-0.5"/>
<text text-anchor="middle" x="226" y="-7.5" font-family="Helvetica,sans-Serif" font-size="10.00">sys/socket.h</text>
</g>
<!-- Node1&#45;&gt;Node4 -->
<g id="edge3" class="edge"><title>Node1&#45;&gt;Node4</title>
<path fill="none" stroke="midnightblue" d="M337.084,-56.4435C315.264,-47.5171 280.85,-33.4387 256.108,-23.3168"/>
<polygon fill="midnightblue" stroke="midnightblue" points="257.399,-20.0634 246.818,-19.5164 254.748,-26.5422 257.399,-20.0634"/>
</g>
<!-- Node5 -->
<g id="node5" class="node"><title>Node5</title>
<polygon fill="white" stroke="#bfbfbf" points="282.5,-0.5 282.5,-19.5 345.5,-19.5 345.5,-0.5 282.5,-0.5"/>
<text text-anchor="middle" x="314" y="-7.5" font-family="Helvetica,sans-Serif" font-size="10.00">sys/wait.h</text>
</g>
<!-- Node1&#45;&gt;Node5 -->
<g id="edge4" class="edge"><title>Node1&#45;&gt;Node5</title>
<path fill="none" stroke="midnightblue" d="M350.734,-56.083C344.455,-48.3768 335.212,-37.0333 327.569,-27.6531"/>
<polygon fill="midnightblue" stroke="midnightblue" points="330.161,-25.2926 321.131,-19.7511 324.734,-29.7143 330.161,-25.2926"/>
</g>
<!-- Node6 -->
<g id="node6" class="node"><title>Node6</title>
<polygon fill="white" stroke="#bfbfbf" points="364,-0.5 364,-19.5 440,-19.5 440,-0.5 364,-0.5"/>
<text text-anchor="middle" x="402" y="-7.5" font-family="Helvetica,sans-Serif" font-size="10.00">sys/param.h</text>
</g>
<!-- Node1&#45;&gt;Node6 -->
<g id="edge5" class="edge"><title>Node1&#45;&gt;Node6</title>
<path fill="none" stroke="midnightblue" d="M365.266,-56.083C371.545,-48.3768 380.788,-37.0333 388.431,-27.6531"/>
<polygon fill="midnightblue" stroke="midnightblue" points="391.266,-29.7143 394.869,-19.7511 385.839,-25.2926 391.266,-29.7143"/>
</g>
<!-- Node7 -->
<g id="node7" class="node"><title>Node7</title>
<polygon fill="white" stroke="#bfbfbf" points="458.5,-0.5 458.5,-19.5 521.5,-19.5 521.5,-0.5 458.5,-0.5"/>
<text text-anchor="middle" x="490" y="-7.5" font-family="Helvetica,sans-Serif" font-size="10.00">sys/stat.h</text>
</g>
<!-- Node1&#45;&gt;Node7 -->
<g id="edge6" class="edge"><title>Node1&#45;&gt;Node7</title>
<path fill="none" stroke="midnightblue" d="M378.916,-56.4435C400.736,-47.5171 435.15,-33.4387 459.892,-23.3168"/>
<polygon fill="midnightblue" stroke="midnightblue" points="461.252,-26.5422 469.182,-19.5164 458.601,-20.0634 461.252,-26.5422"/>
</g>
<!-- Node8 -->
<g id="node8" class="node"><title>Node8</title>
<polygon fill="white" stroke="#bfbfbf" points="539.5,-0.5 539.5,-19.5 610.5,-19.5 610.5,-0.5 539.5,-0.5"/>
<text text-anchor="middle" x="575" y="-7.5" font-family="Helvetica,sans-Serif" font-size="10.00">sys/types.h</text>
</g>
<!-- Node1&#45;&gt;Node8 -->
<g id="edge7" class="edge"><title>Node1&#45;&gt;Node8</title>
<path fill="none" stroke="midnightblue" d="M392.384,-56.4435C429.922,-47.1024 490.131,-32.1194 531.067,-21.9326"/>
<polygon fill="midnightblue" stroke="midnightblue" points="531.918,-25.3278 540.777,-19.5164 530.227,-18.5349 531.918,-25.3278"/>
</g>
<!-- Node9 -->
<g id="node9" class="node"><title>Node9</title>
<polygon fill="white" stroke="#bfbfbf" points="628.5,-0.5 628.5,-19.5 677.5,-19.5 677.5,-0.5 628.5,-0.5"/>
<text text-anchor="middle" x="653" y="-7.5" font-family="Helvetica,sans-Serif" font-size="10.00">stdio.h</text>
</g>
<!-- Node1&#45;&gt;Node9 -->
<g id="edge8" class="edge"><title>Node1&#45;&gt;Node9</title>
<path fill="none" stroke="midnightblue" d="M398.631,-59.2605C448.368,-51.9621 535.33,-38.322 618.356,-20.2112"/>
<polygon fill="midnightblue" stroke="midnightblue" points="619.187,-23.6122 628.197,-18.0391 617.678,-16.7768 619.187,-23.6122"/>
</g>
</g>
</svg>
