<?xml version="1.0" encoding="UTF-8" standalone="no"?>
<!DOCTYPE svg PUBLIC "-//W3C//DTD SVG 1.1//EN"
 "http://www.w3.org/Graphics/SVG/1.1/DTD/svg11.dtd">
<!-- Generated by graphviz version 2.38.0 (20140413.2041)
 -->
<!-- Title: torccompat.h Pages: 1 -->
<svg width="619pt" height="84pt"
 viewBox="0.00 0.00 618.50 84.00" xmlns="http://www.w3.org/2000/svg" xmlns:xlink="http://www.w3.org/1999/xlink">
<g id="graph0" class="graph" transform="scale(1 1) rotate(0) translate(4 80)">
<title>torccompat.h</title>
<polygon fill="white" stroke="none" points="-4,4 -4,-80 614.5,-80 614.5,4 -4,4"/>
<!-- Node1 -->
<g id="node1" class="node"><title>Node1</title>
<polygon fill="#bfbfbf" stroke="black" points="273.5,-56.5 273.5,-75.5 354.5,-75.5 354.5,-56.5 273.5,-56.5"/>
<text text-anchor="middle" x="314" y="-63.5" font-family="Helvetica,sans-Serif" font-size="10.00">torccompat.h</text>
</g>
<!-- Node2 -->
<g id="node2" class="node"><title>Node2</title>
<polygon fill="white" stroke="#bfbfbf" points="0,-0.5 0,-19.5 66,-19.5 66,-0.5 0,-0.5"/>
<text text-anchor="middle" x="33" y="-7.5" font-family="Helvetica,sans-Serif" font-size="10.00">sys/time.h</text>
</g>
<!-- Node1&#45;&gt;Node2 -->
<g id="edge1" class="edge"><title>Node1&#45;&gt;Node2</title>
<path fill="none" stroke="midnightblue" d="M273.343,-57.6646C227.782,-49.3736 151.455,-35.2728 76.5348,-20.273"/>
<polygon fill="midnightblue" stroke="midnightblue" points="76.9485,-16.7863 66.4549,-18.2477 75.5695,-23.6491 76.9485,-16.7863"/>
</g>
<!-- Node3 -->
<g id="node3" class="node"><title>Node3</title>
<polygon fill="white" stroke="#bfbfbf" points="84,-0.5 84,-19.5 170,-19.5 170,-0.5 84,-0.5"/>
<text text-anchor="middle" x="127" y="-7.5" font-family="Helvetica,sans-Serif" font-size="10.00">sys/resource.h</text>
</g>
<!-- Node1&#45;&gt;Node3 -->
<g id="edge2" class="edge"><title>Node1&#45;&gt;Node3</title>
<path fill="none" stroke="midnightblue" d="M284.369,-56.4435C252.5,-47.2406 201.667,-32.5617 166.436,-22.3879"/>
<polygon fill="midnightblue" stroke="midnightblue" points="167.071,-18.9282 156.492,-19.5164 165.128,-25.6534 167.071,-18.9282"/>
</g>
<!-- Node4 -->
<g id="node4" class="node"><title>Node4</title>
<polygon fill="white" stroke="#bfbfbf" points="188,-0.5 188,-19.5 264,-19.5 264,-0.5 188,-0.5"/>
<text text-anchor="middle" x="226" y="-7.5" font-family="Helvetica,sans-Serif" font-size="10.00">sys/socket.h</text>
</g>
<!-- Node1&#45;&gt;Node4 -->
<g id="edge3" class="edge"><title>Node1&#45;&gt;Node4</title>
<path fill="none" stroke="midnightblue" d="M299.861,-56.324C286.134,-47.9002 265.064,-34.9709 248.936,-25.0741"/>
<polygon fill="midnightblue" stroke="midnightblue" points="250.457,-21.9016 240.104,-19.6545 246.796,-27.8678 250.457,-21.9016"/>
</g>
<!-- Node5 -->
<g id="node5" class="node"><title>Node5</title>
<polygon fill="white" stroke="#bfbfbf" points="282.5,-0.5 282.5,-19.5 345.5,-19.5 345.5,-0.5 282.5,-0.5"/>
<text text-anchor="middle" x="314" y="-7.5" font-family="Helvetica,sans-Serif" font-size="10.00">sys/wait.h</text>
</g>
<!-- Node1&#45;&gt;Node5 -->
<g id="edge4" class="edge"><title>Node1&#45;&gt;Node5</title>
<path fill="none" stroke="midnightblue" d="M314,-56.083C314,-49.0059 314,-38.8611 314,-29.9865"/>
<polygon fill="midnightblue" stroke="midnightblue" points="317.5,-29.751 314,-19.7511 310.5,-29.7511 317.5,-29.751"/>
</g>
<!-- Node6 -->
<g id="node6" class="node"><title>Node6</title>
<polygon fill="white" stroke="#bfbfbf" points="364,-0.5 364,-19.5 440,-19.5 440,-0.5 364,-0.5"/>
<text text-anchor="middle" x="402" y="-7.5" font-family="Helvetica,sans-Serif" font-size="10.00">sys/param.h</text>
</g>
<!-- Node1&#45;&gt;Node6 -->
<g id="edge5" class="edge"><title>Node1&#45;&gt;Node6</title>
<path fill="none" stroke="midnightblue" d="M328.139,-56.324C341.866,-47.9002 362.936,-34.9709 379.064,-25.0741"/>
<polygon fill="midnightblue" stroke="midnightblue" points="381.204,-27.8678 387.896,-19.6545 377.543,-21.9016 381.204,-27.8678"/>
</g>
<!-- Node7 -->
<g id="node7" class="node"><title>Node7</title>
<polygon fill="white" stroke="#bfbfbf" points="458.5,-0.5 458.5,-19.5 521.5,-19.5 521.5,-0.5 458.5,-0.5"/>
<text text-anchor="middle" x="490" y="-7.5" font-family="Helvetica,sans-Serif" font-size="10.00">sys/stat.h</text>
</g>
<!-- Node1&#45;&gt;Node7 -->
<g id="edge6" class="edge"><title>Node1&#45;&gt;Node7</title>
<path fill="none" stroke="midnightblue" d="M341.888,-56.4435C371.754,-47.2801 419.315,-32.6876 452.456,-22.5192"/>
<polygon fill="midnightblue" stroke="midnightblue" points="453.709,-25.7958 462.243,-19.5164 451.656,-19.1037 453.709,-25.7958"/>
</g>
<!-- Node8 -->
<g id="node8" class="node"><title>Node8</title>
<polygon fill="white" stroke="#bfbfbf" points="539.5,-0.5 539.5,-19.5 610.5,-19.5 610.5,-0.5 539.5,-0.5"/>
<text text-anchor="middle" x="575" y="-7.5" font-family="Helvetica,sans-Serif" font-size="10.00">sys/types.h</text>
</g>
<!-- Node1&#45;&gt;Node8 -->
<g id="edge7" class="edge"><title>Node1&#45;&gt;Node8</title>
<path fill="none" stroke="midnightblue" d="M354.781,-56.5625C402.031,-46.7868 479.693,-30.7187 529.04,-20.5089"/>
<polygon fill="midnightblue" stroke="midnightblue" points="530.036,-23.877 539.12,-18.4235 528.618,-17.0222 530.036,-23.877"/>
</g>
</g>
</svg>
