<?xml version="1.0" encoding="UTF-8" standalone="no"?>
<!DOCTYPE svg PUBLIC "-//W3C//DTD SVG 1.1//EN"
 "http://www.w3.org/Graphics/SVG/1.1/DTD/svg11.dtd">
<!-- Generated by graphviz version 2.38.0 (20140413.2041)
 -->
<!-- Title: torchttpservices.h Pages: 1 -->
<!--zoomable 196 -->
<svg id="main" version="1.1" xmlns="http://www.w3.org/2000/svg" xmlns:xlink="http://www.w3.org/1999/xlink" xml:space="preserve" onload="init(evt)">
<style type="text/css"><![CDATA[
.edge:hover path { stroke: red; }
.edge:hover polygon { stroke: red; fill: red; }
]]></style>
<script type="text/javascript"><![CDATA[
var edges = document.getElementsByTagName('g');
if (edges && edges.length) {
  for (var i=0;i<edges.length;i++) {
    if (edges[i].id.substr(0,4)=='edge') {
      edges[i].setAttribute('class','edge');
    }
  }
}
]]></script>
        <defs>
                <circle id="rim" cx="0" cy="0" r="7"/>
                <circle id="rim2" cx="0" cy="0" r="3.5"/>
                <g id="zoomPlus">
                        <use xlink:href="#rim" fill="#404040">
                                <set attributeName="fill" to="#808080" begin="zoomplus.mouseover" end="zoomplus.mouseout"/>
                        </use>
                        <path d="M-4,0h8M0,-4v8" fill="none" stroke="white" stroke-width="1.5" pointer-events="none"/>
                </g>
                <g id="zoomMin">
                        <use xlink:href="#rim" fill="#404040">
                                <set attributeName="fill" to="#808080" begin="zoomminus.mouseover" end="zoomminus.mouseout"/>
                        </use>
                        <path d="M-4,0h8" fill="none" stroke="white" stroke-width="1.5" pointer-events="none"/>
                </g>
                <g id="dirArrow">
                        <path fill="none" stroke="white" stroke-width="1.5" d="M0,-3.0v7 M-2.5,-0.5L0,-3.0L2.5,-0.5"/>
                </g>
               <g id="resetDef">
                       <use xlink:href="#rim2" fill="#404040">
                               <set attributeName="fill" to="#808080" begin="reset.mouseover" end="reset.mouseout"/>
                       </use>
               </g>
        </defs>

<script type="text/javascript">
var viewWidth = 1514;
var viewHeight = 196;
var sectionId = 'dynsection-1';
</script>
<script xlink:href="../../svgpan.js"/>
<svg id="graph" class="graph">
<g id="viewport">
<title>torchttpservices.h</title>
<polygon fill="white" stroke="none" points="-4,4 -4,-192 1509.5,-192 1509.5,4 -4,4"/>
<!-- Node1 -->
<g id="node1" class="node"><title>Node1</title>
<polygon fill="#bfbfbf" stroke="black" points="919,-168.5 919,-187.5 1022,-187.5 1022,-168.5 919,-168.5"/>
<text text-anchor="middle" x="970.5" y="-175.5" font-family="Helvetica,sans-Serif" font-size="10.00">torchttpservices.h</text>
</g>
<!-- Node2 -->
<g id="node2" class="node"><title>Node2</title>
<g id="a_node2"><a xlink:href="../../df/d1b/torchttpserver_8h.html" target="_top" xlink:title="torchttpserver.h">
<polygon fill="white" stroke="black" points="740,-112.5 740,-131.5 833,-131.5 833,-112.5 740,-112.5"/>
<text text-anchor="middle" x="786.5" y="-119.5" font-family="Helvetica,sans-Serif" font-size="10.00">torchttpserver.h</text>
</a>
</g>
</g>
<!-- Node1&#45;&gt;Node2 -->
<g id="edge1" class="edge"><title>Node1&#45;&gt;Node2</title>
<path fill="none" stroke="midnightblue" d="M931.546,-165.568C896.835,-155.381 846.823,-140.703 815.519,-131.516"/>
<polygon fill="midnightblue" stroke="midnightblue" points="930.764,-168.986 941.345,-168.444 932.735,-162.269 930.764,-168.986"/>
</g>
<!-- Node11 -->
<g id="node11" class="node"><title>Node11</title>
<g id="a_node11"><a xlink:href="../../da/d1a/torchttpservices_8cpp.html" target="_top" xlink:title="torchttpservices.cpp">
<polygon fill="white" stroke="black" points="1391.5,-56.5 1391.5,-75.5 1505.5,-75.5 1505.5,-56.5 1391.5,-56.5"/>
<text text-anchor="middle" x="1448.5" y="-63.5" font-family="Helvetica,sans-Serif" font-size="10.00">torchttpservices.cpp</text>
</a>
</g>
</g>
<!-- Node1&#45;&gt;Node11 -->
<g id="edge19" class="edge"><title>Node1&#45;&gt;Node11</title>
<path fill="none" stroke="midnightblue" d="M1017.51,-166.182C1112.46,-144.331 1325.4,-95.3273 1411.41,-75.5345"/>
<polygon fill="midnightblue" stroke="midnightblue" points="1016.57,-162.806 1007.61,-168.46 1018.14,-169.628 1016.57,-162.806"/>
</g>
<!-- Node3 -->
<g id="node3" class="node"><title>Node3</title>
<g id="a_node3"><a xlink:href="../../d6/d68/torchtmlhandler_8cpp.html" target="_top" xlink:title="torchtmlhandler.cpp">
<polygon fill="white" stroke="black" points="0,-56.5 0,-75.5 113,-75.5 113,-56.5 0,-56.5"/>
<text text-anchor="middle" x="56.5" y="-63.5" font-family="Helvetica,sans-Serif" font-size="10.00">torchtmlhandler.cpp</text>
</a>
</g>
</g>
<!-- Node2&#45;&gt;Node3 -->
<g id="edge2" class="edge"><title>Node2&#45;&gt;Node3</title>
<path fill="none" stroke="midnightblue" d="M729.394,-118.438C614.349,-112.987 346.548,-98.8414 122.5,-76 119.509,-75.695 116.444,-75.3592 113.352,-75.0019"/>
<polygon fill="midnightblue" stroke="midnightblue" points="729.563,-121.95 739.716,-118.923 729.892,-114.957 729.563,-121.95"/>
</g>
<!-- Node4 -->
<g id="node4" class="node"><title>Node4</title>
<g id="a_node4"><a xlink:href="../../db/d11/torchttpserverlistener_8h.html" target="_top" xlink:title="torchttpserverlistener.h">
<polygon fill="white" stroke="black" points="131.5,-56.5 131.5,-75.5 259.5,-75.5 259.5,-56.5 131.5,-56.5"/>
<text text-anchor="middle" x="195.5" y="-63.5" font-family="Helvetica,sans-Serif" font-size="10.00">torchttpserverlistener.h</text>
</a>
</g>
</g>
<!-- Node2&#45;&gt;Node4 -->
<g id="edge3" class="edge"><title>Node2&#45;&gt;Node4</title>
<path fill="none" stroke="midnightblue" d="M729.768,-117.15C632.946,-110.039 430.14,-93.925 259.5,-76 257.976,-75.8399 256.435,-75.6751 254.881,-75.5062"/>
<polygon fill="midnightblue" stroke="midnightblue" points="729.695,-120.654 739.923,-117.891 730.205,-113.673 729.695,-120.654"/>
</g>
<!-- Node6 -->
<g id="node6" class="node"><title>Node6</title>
<g id="a_node6"><a xlink:href="../../d6/dda/torchtmlstaticcontent_8cpp.html" target="_top" xlink:title="torchtmlstaticcontent.cpp">
<polygon fill="white" stroke="black" points="277.5,-56.5 277.5,-75.5 417.5,-75.5 417.5,-56.5 277.5,-56.5"/>
<text text-anchor="middle" x="347.5" y="-63.5" font-family="Helvetica,sans-Serif" font-size="10.00">torchtmlstaticcontent.cpp</text>
</a>
</g>
</g>
<!-- Node2&#45;&gt;Node6 -->
<g id="edge6" class="edge"><title>Node2&#45;&gt;Node6</title>
<path fill="none" stroke="midnightblue" d="M729.544,-113.994C649.36,-104.131 503.352,-86.1708 416.918,-75.5389"/>
<polygon fill="midnightblue" stroke="midnightblue" points="729.582,-117.525 739.935,-115.272 730.437,-110.577 729.582,-117.525"/>
</g>
<!-- Node7 -->
<g id="node7" class="node"><title>Node7</title>
<g id="a_node7"><a xlink:href="../../d1/d87/torchttphandler_8cpp.html" target="_top" xlink:title="torchttphandler.cpp">
<polygon fill="white" stroke="black" points="435.5,-56.5 435.5,-75.5 545.5,-75.5 545.5,-56.5 435.5,-56.5"/>
<text text-anchor="middle" x="490.5" y="-63.5" font-family="Helvetica,sans-Serif" font-size="10.00">torchttphandler.cpp</text>
</a>
</g>
</g>
<!-- Node2&#45;&gt;Node7 -->
<g id="edge7" class="edge"><title>Node2&#45;&gt;Node7</title>
<path fill="none" stroke="midnightblue" d="M729.833,-110.662C673.934,-100.464 589.493,-85.0595 537.292,-75.5364"/>
<polygon fill="midnightblue" stroke="midnightblue" points="729.459,-114.151 739.924,-112.503 730.715,-107.265 729.459,-114.151"/>
</g>
<!-- Node8 -->
<g id="node8" class="node"><title>Node8</title>
<g id="a_node8"><a xlink:href="../../d6/da3/torchttprequest_8cpp.html" target="_top" xlink:title="torchttprequest.cpp">
<polygon fill="white" stroke="black" points="563.5,-56.5 563.5,-75.5 675.5,-75.5 675.5,-56.5 563.5,-56.5"/>
<text text-anchor="middle" x="619.5" y="-63.5" font-family="Helvetica,sans-Serif" font-size="10.00">torchttprequest.cpp</text>
</a>
</g>
</g>
<!-- Node2&#45;&gt;Node8 -->
<g id="edge8" class="edge"><title>Node2&#45;&gt;Node8</title>
<path fill="none" stroke="midnightblue" d="M750.33,-109.304C718.863,-99.1294 674.006,-84.6246 645.838,-75.5164"/>
<polygon fill="midnightblue" stroke="midnightblue" points="749.447,-112.697 760.038,-112.444 751.6,-106.037 749.447,-112.697"/>
</g>
<!-- Node9 -->
<g id="node9" class="node"><title>Node9</title>
<g id="a_node9"><a xlink:href="../../de/dc5/torchttpserver_8cpp.html" target="_top" xlink:title="torchttpserver.cpp">
<polygon fill="white" stroke="black" points="911.5,-0.5 911.5,-19.5 1015.5,-19.5 1015.5,-0.5 911.5,-0.5"/>
<text text-anchor="middle" x="963.5" y="-7.5" font-family="Helvetica,sans-Serif" font-size="10.00">torchttpserver.cpp</text>
</a>
</g>
</g>
<!-- Node2&#45;&gt;Node9 -->
<g id="edge9" class="edge"><title>Node2&#45;&gt;Node9</title>
<path fill="none" stroke="midnightblue" d="M757.724,-107.757C734.024,-95.0507 706.689,-75.0364 722.5,-56 746.024,-27.6776 847.813,-17.084 911.345,-13.192"/>
<polygon fill="midnightblue" stroke="midnightblue" points="756.362,-110.991 766.861,-112.411 759.539,-104.753 756.362,-110.991"/>
</g>
<!-- Node10 -->
<g id="node10" class="node"><title>Node10</title>
<g id="a_node10"><a xlink:href="../../d1/d77/torchttpservice_8cpp.html" target="_top" xlink:title="torchttpservice.cpp">
<polygon fill="white" stroke="black" points="732,-56.5 732,-75.5 841,-75.5 841,-56.5 732,-56.5"/>
<text text-anchor="middle" x="786.5" y="-63.5" font-family="Helvetica,sans-Serif" font-size="10.00">torchttpservice.cpp</text>
</a>
</g>
</g>
<!-- Node2&#45;&gt;Node10 -->
<g id="edge10" class="edge"><title>Node2&#45;&gt;Node10</title>
<path fill="none" stroke="midnightblue" d="M786.5,-101.805C786.5,-92.9102 786.5,-82.7798 786.5,-75.7511"/>
<polygon fill="midnightblue" stroke="midnightblue" points="783,-102.083 786.5,-112.083 790,-102.083 783,-102.083"/>
</g>
<!-- Node2&#45;&gt;Node11 -->
<g id="edge11" class="edge"><title>Node2&#45;&gt;Node11</title>
<path fill="none" stroke="midnightblue" d="M843.412,-117.618C948.89,-111.139 1181.82,-95.8391 1377.5,-76 1381.95,-75.5488 1386.55,-75.0465 1391.18,-74.5165"/>
<polygon fill="midnightblue" stroke="midnightblue" points="843.073,-114.132 833.305,-118.236 843.5,-121.119 843.073,-114.132"/>
</g>
<!-- Node12 -->
<g id="node12" class="node"><title>Node12</title>
<g id="a_node12"><a xlink:href="../../db/d78/torcwebsocket_8cpp.html" target="_top" xlink:title="torcwebsocket.cpp">
<polygon fill="white" stroke="black" points="859.5,-56.5 859.5,-75.5 965.5,-75.5 965.5,-56.5 859.5,-56.5"/>
<text text-anchor="middle" x="912.5" y="-63.5" font-family="Helvetica,sans-Serif" font-size="10.00">torcwebsocket.cpp</text>
</a>
</g>
</g>
<!-- Node2&#45;&gt;Node12 -->
<g id="edge12" class="edge"><title>Node2&#45;&gt;Node12</title>
<path fill="none" stroke="midnightblue" d="M815.66,-108.503C839.281,-98.3795 871.928,-84.388 892.628,-75.5164"/>
<polygon fill="midnightblue" stroke="midnightblue" points="814.278,-105.287 806.465,-112.444 817.035,-111.721 814.278,-105.287"/>
</g>
<!-- Node13 -->
<g id="node13" class="node"><title>Node13</title>
<g id="a_node13"><a xlink:href="../../de/d48/torcnetworkedcontext_8cpp.html" target="_top" xlink:title="torcnetworkedcontext.cpp">
<polygon fill="white" stroke="black" points="984,-56.5 984,-75.5 1125,-75.5 1125,-56.5 984,-56.5"/>
<text text-anchor="middle" x="1054.5" y="-63.5" font-family="Helvetica,sans-Serif" font-size="10.00">torcnetworkedcontext.cpp</text>
</a>
</g>
</g>
<!-- Node2&#45;&gt;Node13 -->
<g id="edge13" class="edge"><title>Node2&#45;&gt;Node13</title>
<path fill="none" stroke="midnightblue" d="M839.06,-110.41C889.709,-100.204 965.367,-84.9597 1012.23,-75.5164"/>
<polygon fill="midnightblue" stroke="midnightblue" points="838.077,-107.037 828.965,-112.444 839.46,-113.899 838.077,-107.037"/>
</g>
<!-- Node14 -->
<g id="node14" class="node"><title>Node14</title>
<g id="a_node14"><a xlink:href="../../d0/d89/torcrpcrequest_8cpp.html" target="_top" xlink:title="torcrpcrequest.cpp">
<polygon fill="white" stroke="black" points="1143,-56.5 1143,-75.5 1250,-75.5 1250,-56.5 1143,-56.5"/>
<text text-anchor="middle" x="1196.5" y="-63.5" font-family="Helvetica,sans-Serif" font-size="10.00">torcrpcrequest.cpp</text>
</a>
</g>
</g>
<!-- Node2&#45;&gt;Node14 -->
<g id="edge14" class="edge"><title>Node2&#45;&gt;Node14</title>
<path fill="none" stroke="midnightblue" d="M843.289,-113.864C912.034,-105.173 1031.3,-89.9256 1133.5,-76 1136.57,-75.5823 1139.71,-75.1483 1142.89,-74.7066"/>
<polygon fill="midnightblue" stroke="midnightblue" points="842.593,-110.424 833.11,-115.15 843.47,-117.369 842.593,-110.424"/>
</g>
<!-- Node15 -->
<g id="node15" class="node"><title>Node15</title>
<g id="a_node15"><a xlink:href="../../d9/de1/torcssdp_8cpp.html" target="_top" xlink:title="torcssdp.cpp">
<polygon fill="white" stroke="black" points="1293.5,-0.5 1293.5,-19.5 1371.5,-19.5 1371.5,-0.5 1293.5,-0.5"/>
<text text-anchor="middle" x="1332.5" y="-7.5" font-family="Helvetica,sans-Serif" font-size="10.00">torcssdp.cpp</text>
</a>
</g>
</g>
<!-- Node2&#45;&gt;Node15 -->
<g id="edge15" class="edge"><title>Node2&#45;&gt;Node15</title>
<path fill="none" stroke="midnightblue" d="M843.532,-120.67C978.764,-119.295 1310.08,-112.226 1343.5,-76 1357.78,-60.521 1345.85,-33.714 1338.01,-19.8594"/>
<polygon fill="midnightblue" stroke="midnightblue" points="843.337,-117.172 833.371,-120.766 843.404,-124.171 843.337,-117.172"/>
</g>
<!-- Node16 -->
<g id="node16" class="node"><title>Node16</title>
<g id="a_node16"><a xlink:href="../../dd/d3e/torcssdp_8h.html" target="_top" xlink:title="torcssdp.h">
<polygon fill="white" stroke="black" points="1268,-56.5 1268,-75.5 1335,-75.5 1335,-56.5 1268,-56.5"/>
<text text-anchor="middle" x="1301.5" y="-63.5" font-family="Helvetica,sans-Serif" font-size="10.00">torcssdp.h</text>
</a>
</g>
</g>
<!-- Node2&#45;&gt;Node16 -->
<g id="edge16" class="edge"><title>Node2&#45;&gt;Node16</title>
<path fill="none" stroke="midnightblue" d="M843.415,-117.626C932.362,-111.892 1109.57,-98.6141 1258.5,-76 1261.52,-75.542 1264.64,-75.0074 1267.76,-74.4314"/>
<polygon fill="midnightblue" stroke="midnightblue" points="843.03,-114.144 833.272,-118.272 843.475,-121.129 843.03,-114.144"/>
</g>
<!-- Node4&#45;&gt;Node2 -->
<g id="edge4" class="edge"><title>Node4&#45;&gt;Node2</title>
<path fill="none" stroke="midnightblue" d="M269.876,-75.1771C272.452,-75.4619 275,-75.7374 277.5,-76 447.849,-93.8944 650.255,-109.984 739.942,-117.114"/>
<polygon fill="midnightblue" stroke="midnightblue" points="270.161,-71.6871 259.83,-74.04 269.373,-78.6427 270.161,-71.6871"/>
</g>
<!-- Node5 -->
<g id="node5" class="node"><title>Node5</title>
<g id="a_node5"><a xlink:href="../../de/d4e/torchttpserverlistener_8cpp.html" target="_top" xlink:title="torchttpserverlistener.cpp">
<polygon fill="white" stroke="black" points="125.5,-0.5 125.5,-19.5 265.5,-19.5 265.5,-0.5 125.5,-0.5"/>
<text text-anchor="middle" x="195.5" y="-7.5" font-family="Helvetica,sans-Serif" font-size="10.00">torchttpserverlistener.cpp</text>
</a>
</g>
</g>
<!-- Node4&#45;&gt;Node5 -->
<g id="edge5" class="edge"><title>Node4&#45;&gt;Node5</title>
<path fill="none" stroke="midnightblue" d="M195.5,-45.8045C195.5,-36.9102 195.5,-26.7798 195.5,-19.7511"/>
<polygon fill="midnightblue" stroke="midnightblue" points="192,-46.083 195.5,-56.083 199,-46.083 192,-46.083"/>
</g>
<!-- Node16&#45;&gt;Node9 -->
<g id="edge17" class="edge"><title>Node16&#45;&gt;Node9</title>
<path fill="none" stroke="midnightblue" d="M1257.8,-55.9591C1166.83,-39.6728 1072.58,-25.9894 1015.6,-18.0649"/>
<polygon fill="midnightblue" stroke="midnightblue" points="1257.27,-59.4195 1267.73,-57.7497 1258.51,-52.5306 1257.27,-59.4195"/>
</g>
<!-- Node16&#45;&gt;Node15 -->
<g id="edge18" class="edge"><title>Node16&#45;&gt;Node15</title>
<path fill="none" stroke="midnightblue" d="M1311.68,-47.2747C1316.97,-38.0454 1323.22,-27.1703 1327.48,-19.7511"/>
<polygon fill="midnightblue" stroke="midnightblue" points="1308.56,-45.6679 1306.62,-56.083 1314.63,-49.153 1308.56,-45.6679"/>
</g>
</g>
</svg>
        <g id="navigator" transform="translate(0 0)" fill="#404254">
                <rect fill="#f2f5e9" fill-opacity="0.5" stroke="#606060" stroke-width=".5" x="0" y="0" width="60" height="60"/>
                <use id="zoomplus" xlink:href="#zoomPlus" x="17" y="9" onmousedown="handleZoom(evt,'in')"/>
                <use id="zoomminus" xlink:href="#zoomMin" x="42" y="9" onmousedown="handleZoom(evt,'out')"/>
                <use id="reset" xlink:href="#resetDef" x="30" y="36" onmousedown="handleReset()"/>
                <g id="arrowUp" xlink:href="#dirArrow" transform="translate(30 24)" onmousedown="handlePan(0,-1)">
                  <use xlink:href="#rim" fill="#404040">
                        <set attributeName="fill" to="#808080" begin="arrowUp.mouseover" end="arrowUp.mouseout"/>
                  </use>
                  <path fill="none" stroke="white" stroke-width="1.5" d="M0,-3.0v7 M-2.5,-0.5L0,-3.0L2.5,-0.5"/>
                </g>
                <g id="arrowRight" xlink:href="#dirArrow" transform="rotate(90) translate(36 -43)" onmousedown="handlePan(1,0)">
                  <use xlink:href="#rim" fill="#404040">
                        <set attributeName="fill" to="#808080" begin="arrowRight.mouseover" end="arrowRight.mouseout"/>
                  </use>
                  <path fill="none" stroke="white" stroke-width="1.5" d="M0,-3.0v7 M-2.5,-0.5L0,-3.0L2.5,-0.5"/>
                </g>
                <g id="arrowDown" xlink:href="#dirArrow" transform="rotate(180) translate(-30 -48)" onmousedown="handlePan(0,1)">
                  <use xlink:href="#rim" fill="#404040">
                        <set attributeName="fill" to="#808080" begin="arrowDown.mouseover" end="arrowDown.mouseout"/>
                  </use>
                  <path fill="none" stroke="white" stroke-width="1.5" d="M0,-3.0v7 M-2.5,-0.5L0,-3.0L2.5,-0.5"/>
                </g>
                <g id="arrowLeft" xlink:href="#dirArrow" transform="rotate(270) translate(-36 17)" onmousedown="handlePan(-1,0)">
                  <use xlink:href="#rim" fill="#404040">
                        <set attributeName="fill" to="#808080" begin="arrowLeft.mouseover" end="arrowLeft.mouseout"/>
                  </use>
                  <path fill="none" stroke="white" stroke-width="1.5" d="M0,-3.0v7 M-2.5,-0.5L0,-3.0L2.5,-0.5"/>
                </g>
        </g>
        <svg viewBox="0 0 15 15" width="100%" height="30px" preserveAspectRatio="xMaxYMin meet">
         <g id="arrow_out" transform="scale(0.3 0.3)">
          <a xlink:href="torchttpservices_8h__dep__incl_org.svg" target="_base">
           <rect id="button" ry="5" rx="5" y="6" x="6" height="38" width="38"
                fill="#f2f5e9" fill-opacity="0.5" stroke="#606060" stroke-width="1.0"/>
           <path id="arrow"
             d="M 11.500037,31.436501 C 11.940474,20.09759 22.043105,11.32322 32.158766,21.979434 L 37.068811,17.246167 C 37.068811,17.246167 37.088388,32 37.088388,32 L 22.160133,31.978069 C 22.160133,31.978069 26.997745,27.140456 26.997745,27.140456 C 18.528582,18.264221 13.291696,25.230495 11.500037,31.436501 z"
             style="fill:#404040;"/>
          </a>
         </g>
        </svg>
</svg>
