<?xml version="1.0" encoding="UTF-8" standalone="no"?>
<!DOCTYPE svg PUBLIC "-//W3C//DTD SVG 1.1//EN"
 "http://www.w3.org/Graphics/SVG/1.1/DTD/svg11.dtd">
<!-- Generated by graphviz version 2.38.0 (20140413.2041)
 -->
<!-- Title: torchttpserverlistener.h Pages: 1 -->
<!--zoomable 476 -->
<svg id="main" version="1.1" xmlns="http://www.w3.org/2000/svg" xmlns:xlink="http://www.w3.org/1999/xlink" xml:space="preserve" onload="init(evt)">
<style type="text/css"><![CDATA[
.edge:hover path { stroke: red; }
.edge:hover polygon { stroke: red; fill: red; }
]]></style>
<script type="text/javascript"><![CDATA[
var edges = document.getElementsByTagName('g');
if (edges && edges.length) {
  for (var i=0;i<edges.length;i++) {
    if (edges[i].id.substr(0,4)=='edge') {
      edges[i].setAttribute('class','edge');
    }
  }
}
]]></script>
        <defs>
                <circle id="rim" cx="0" cy="0" r="7"/>
                <circle id="rim2" cx="0" cy="0" r="3.5"/>
                <g id="zoomPlus">
                        <use xlink:href="#rim" fill="#404040">
                                <set attributeName="fill" to="#808080" begin="zoomplus.mouseover" end="zoomplus.mouseout"/>
                        </use>
                        <path d="M-4,0h8M0,-4v8" fill="none" stroke="white" stroke-width="1.5" pointer-events="none"/>
                </g>
                <g id="zoomMin">
                        <use xlink:href="#rim" fill="#404040">
                                <set attributeName="fill" to="#808080" begin="zoomminus.mouseover" end="zoomminus.mouseout"/>
                        </use>
                        <path d="M-4,0h8" fill="none" stroke="white" stroke-width="1.5" pointer-events="none"/>
                </g>
                <g id="dirArrow">
                        <path fill="none" stroke="white" stroke-width="1.5" d="M0,-3.0v7 M-2.5,-0.5L0,-3.0L2.5,-0.5"/>
                </g>
               <g id="resetDef">
                       <use xlink:href="#rim2" fill="#404040">
                               <set attributeName="fill" to="#808080" begin="reset.mouseover" end="reset.mouseout"/>
                       </use>
               </g>
        </defs>

<script type="text/javascript">
var viewWidth = 1512;
var viewHeight = 476;
var sectionId = 'dynsection-0';
</script>
<script xlink:href="../../svgpan.js"/>
<svg id="graph" class="graph">
<g id="viewport">
<title>torchttpserverlistener.h</title>
<polygon fill="white" stroke="none" points="-4,4 -4,-472 1507.5,-472 1507.5,4 -4,4"/>
<!-- Node1 -->
<g id="node1" class="node"><title>Node1</title>
<polygon fill="#bfbfbf" stroke="black" points="586.5,-448.5 586.5,-467.5 714.5,-467.5 714.5,-448.5 586.5,-448.5"/>
<text text-anchor="middle" x="650.5" y="-455.5" font-family="Helvetica,sans-Serif" font-size="10.00">torchttpserverlistener.h</text>
</g>
<!-- Node2 -->
<g id="node2" class="node"><title>Node2</title>
<polygon fill="white" stroke="#bfbfbf" points="515,-392.5 515,-411.5 586,-411.5 586,-392.5 515,-392.5"/>
<text text-anchor="middle" x="550.5" y="-399.5" font-family="Helvetica,sans-Serif" font-size="10.00">QTcpServer</text>
</g>
<!-- Node1&#45;&gt;Node2 -->
<g id="edge1" class="edge"><title>Node1&#45;&gt;Node2</title>
<path fill="none" stroke="midnightblue" d="M634.433,-448.324C618.542,-439.743 593.993,-426.486 575.542,-416.522"/>
<polygon fill="midnightblue" stroke="midnightblue" points="576.989,-413.326 566.527,-411.655 573.663,-419.486 576.989,-413.326"/>
</g>
<!-- Node3 -->
<g id="node3" class="node"><title>Node3</title>
<g id="a_node3"><a xlink:href="../../df/d1b/torchttpserver_8h.html" target="_top" xlink:title="torchttpserver.h">
<polygon fill="white" stroke="black" points="604,-392.5 604,-411.5 697,-411.5 697,-392.5 604,-392.5"/>
<text text-anchor="middle" x="650.5" y="-399.5" font-family="Helvetica,sans-Serif" font-size="10.00">torchttpserver.h</text>
</a>
</g>
</g>
<!-- Node1&#45;&gt;Node3 -->
<g id="edge2" class="edge"><title>Node1&#45;&gt;Node3</title>
<path fill="none" stroke="midnightblue" d="M645.334,-448.083C643.824,-440.927 643.394,-430.635 644.042,-421.691"/>
<polygon fill="midnightblue" stroke="midnightblue" points="647.515,-422.126 645.369,-411.751 640.577,-421.2 647.515,-422.126"/>
</g>
<!-- Node3&#45;&gt;Node1 -->
<g id="edge72" class="edge"><title>Node3&#45;&gt;Node1</title>
<path fill="none" stroke="midnightblue" d="M655.631,-411.751C657.157,-418.858 657.604,-429.136 656.972,-438.101"/>
<polygon fill="midnightblue" stroke="midnightblue" points="653.493,-437.713 655.666,-448.083 660.434,-438.622 653.493,-437.713"/>
</g>
<!-- Node4 -->
<g id="node4" class="node"><title>Node4</title>
<polygon fill="white" stroke="#bfbfbf" points="1295.5,-0.5 1295.5,-19.5 1367.5,-19.5 1367.5,-0.5 1295.5,-0.5"/>
<text text-anchor="middle" x="1331.5" y="-7.5" font-family="Helvetica,sans-Serif" font-size="10.00">QTcpSocket</text>
</g>
<!-- Node3&#45;&gt;Node4 -->
<g id="edge3" class="edge"><title>Node3&#45;&gt;Node4</title>
<path fill="none" stroke="midnightblue" d="M697.271,-399.934C875.684,-395.259 1503.5,-372.984 1503.5,-291 1503.5,-291 1503.5,-291 1503.5,-121 1503.5,-90.048 1501.14,-77.1058 1478.5,-56 1451.11,-30.4634 1409.58,-19.4014 1377.64,-14.6185"/>
<polygon fill="midnightblue" stroke="midnightblue" points="1378.02,-11.1375 1367.64,-13.2759 1377.09,-18.0753 1378.02,-11.1375"/>
</g>
<!-- Node5 -->
<g id="node5" class="node"><title>Node5</title>
<polygon fill="white" stroke="#bfbfbf" points="947,-168.5 947,-187.5 1000,-187.5 1000,-168.5 947,-168.5"/>
<text text-anchor="middle" x="973.5" y="-175.5" font-family="Helvetica,sans-Serif" font-size="10.00">QMutex</text>
</g>
<!-- Node3&#45;&gt;Node5 -->
<g id="edge4" class="edge"><title>Node3&#45;&gt;Node5</title>
<path fill="none" stroke="midnightblue" d="M697.077,-396.852C759.33,-388.855 869.255,-365.775 933.5,-300 961.107,-271.736 969.662,-224.027 972.312,-197.753"/>
<polygon fill="midnightblue" stroke="midnightblue" points="975.813,-197.883 973.143,-187.63 968.837,-197.31 975.813,-197.883"/>
</g>
<!-- Node6 -->
<g id="node6" class="node"><title>Node6</title>
<polygon fill="white" stroke="#bfbfbf" points="325.5,-168.5 325.5,-187.5 417.5,-187.5 417.5,-168.5 325.5,-168.5"/>
<text text-anchor="middle" x="371.5" y="-175.5" font-family="Helvetica,sans-Serif" font-size="10.00">QReadWriteLock</text>
</g>
<!-- Node3&#45;&gt;Node6 -->
<g id="edge5" class="edge"><title>Node3&#45;&gt;Node6</title>
<path fill="none" stroke="midnightblue" d="M628.422,-392.424C580.765,-372.906 467.187,-320.829 400.5,-244 388.868,-230.599 381.16,-211.778 376.635,-197.835"/>
<polygon fill="midnightblue" stroke="midnightblue" points="379.883,-196.481 373.673,-187.896 373.174,-198.479 379.883,-196.481"/>
</g>
<!-- Node7 -->
<g id="node7" class="node"><title>Node7</title>
<g id="a_node7"><a xlink:href="../../d2/d7a/torcuser_8h.html" target="_top" xlink:title="torcuser.h">
<polygon fill="white" stroke="black" points="618,-336.5 618,-355.5 683,-355.5 683,-336.5 618,-336.5"/>
<text text-anchor="middle" x="650.5" y="-343.5" font-family="Helvetica,sans-Serif" font-size="10.00">torcuser.h</text>
</a>
</g>
</g>
<!-- Node3&#45;&gt;Node7 -->
<g id="edge6" class="edge"><title>Node3&#45;&gt;Node7</title>
<path fill="none" stroke="midnightblue" d="M650.5,-392.083C650.5,-385.006 650.5,-374.861 650.5,-365.986"/>
<polygon fill="midnightblue" stroke="midnightblue" points="654,-365.751 650.5,-355.751 647,-365.751 654,-365.751"/>
</g>
<!-- Node27 -->
<g id="node27" class="node"><title>Node27</title>
<g id="a_node27"><a xlink:href="../../d0/d06/torchtmlhandler_8h.html" target="_top" xlink:title="torchtmlhandler.h">
<polygon fill="white" stroke="black" points="207,-224.5 207,-243.5 308,-243.5 308,-224.5 207,-224.5"/>
<text text-anchor="middle" x="257.5" y="-231.5" font-family="Helvetica,sans-Serif" font-size="10.00">torchtmlhandler.h</text>
</a>
</g>
</g>
<!-- Node3&#45;&gt;Node27 -->
<g id="edge35" class="edge"><title>Node3&#45;&gt;Node27</title>
<path fill="none" stroke="midnightblue" d="M603.754,-393.454C600.623,-392.959 597.516,-392.47 594.5,-392 488.797,-375.512 445.778,-414.944 356.5,-356 323.357,-334.118 335.256,-310.231 309.5,-280 300.064,-268.924 287.826,-258.195 277.594,-249.993"/>
<polygon fill="midnightblue" stroke="midnightblue" points="279.615,-247.131 269.576,-243.745 275.313,-252.652 279.615,-247.131"/>
</g>
<!-- Node28 -->
<g id="node28" class="node"><title>Node28</title>
<g id="a_node28"><a xlink:href="../../d9/d9b/torchttpservices_8h.html" target="_top" xlink:title="torchttpservices.h">
<polygon fill="white" stroke="black" points="821,-280.5 821,-299.5 924,-299.5 924,-280.5 821,-280.5"/>
<text text-anchor="middle" x="872.5" y="-287.5" font-family="Helvetica,sans-Serif" font-size="10.00">torchttpservices.h</text>
</a>
</g>
</g>
<!-- Node3&#45;&gt;Node28 -->
<g id="edge38" class="edge"><title>Node3&#45;&gt;Node28</title>
<path fill="none" stroke="midnightblue" d="M667.92,-392.368C706.664,-373.171 800.165,-326.842 846.114,-304.074"/>
<polygon fill="midnightblue" stroke="midnightblue" points="847.755,-307.167 855.161,-299.591 844.647,-300.895 847.755,-307.167"/>
</g>
<!-- Node29 -->
<g id="node29" class="node"><title>Node29</title>
<g id="a_node29"><a xlink:href="../../d6/d66/torchtmlstaticcontent_8h.html" target="_top" xlink:title="torchtmlstaticcontent.h">
<polygon fill="white" stroke="black" points="172,-280.5 172,-299.5 301,-299.5 301,-280.5 172,-280.5"/>
<text text-anchor="middle" x="236.5" y="-287.5" font-family="Helvetica,sans-Serif" font-size="10.00">torchtmlstaticcontent.h</text>
</a>
</g>
</g>
<!-- Node3&#45;&gt;Node29 -->
<g id="edge42" class="edge"><title>Node3&#45;&gt;Node29</title>
<path fill="none" stroke="midnightblue" d="M603.765,-393.383C600.631,-392.905 597.521,-392.44 594.5,-392 472.084,-374.183 432.441,-404.171 318.5,-356 291.713,-344.675 266.36,-322.094 251.124,-306.765"/>
<polygon fill="midnightblue" stroke="midnightblue" points="253.586,-304.275 244.125,-299.507 248.548,-309.135 253.586,-304.275"/>
</g>
<!-- Node30 -->
<g id="node30" class="node"><title>Node30</title>
<g id="a_node30"><a xlink:href="../../d9/dd6/torchtmldynamiccontent_8h.html" target="_top" xlink:title="torchtmldynamiccontent.h">
<polygon fill="white" stroke="black" points="0,-336.5 0,-355.5 143,-355.5 143,-336.5 0,-336.5"/>
<text text-anchor="middle" x="71.5" y="-343.5" font-family="Helvetica,sans-Serif" font-size="10.00">torchtmldynamiccontent.h</text>
</a>
</g>
</g>
<!-- Node3&#45;&gt;Node30 -->
<g id="edge44" class="edge"><title>Node3&#45;&gt;Node30</title>
<path fill="none" stroke="midnightblue" d="M603.788,-393.212C600.648,-392.775 597.531,-392.366 594.5,-392 401.644,-368.703 349.827,-374.829 153.106,-356.125"/>
<polygon fill="midnightblue" stroke="midnightblue" points="153.307,-352.629 143.018,-355.157 152.637,-359.597 153.307,-352.629"/>
</g>
<!-- Node31 -->
<g id="node31" class="node"><title>Node31</title>
<g id="a_node31"><a xlink:href="../../df/d19/torcupnpcontent_8h.html" target="_top" xlink:title="torcupnpcontent.h">
<polygon fill="white" stroke="black" points="161,-336.5 161,-355.5 266,-355.5 266,-336.5 161,-336.5"/>
<text text-anchor="middle" x="213.5" y="-343.5" font-family="Helvetica,sans-Serif" font-size="10.00">torcupnpcontent.h</text>
</a>
</g>
</g>
<!-- Node3&#45;&gt;Node31 -->
<g id="edge46" class="edge"><title>Node3&#45;&gt;Node31</title>
<path fill="none" stroke="midnightblue" d="M603.773,-393.328C600.637,-392.863 597.524,-392.416 594.5,-392 455.342,-372.85 419.894,-373.351 280.5,-356 279.044,-355.819 277.571,-355.634 276.085,-355.446"/>
<polygon fill="midnightblue" stroke="midnightblue" points="276.519,-351.973 266.154,-354.171 275.627,-358.916 276.519,-351.973"/>
</g>
<!-- Node32 -->
<g id="node32" class="node"><title>Node32</title>
<g id="a_node32"><a xlink:href="../../dc/d5c/torcwebsocketpool_8h.html" target="_top" xlink:title="torcwebsocketpool.h">
<polygon fill="white" stroke="black" points="978,-336.5 978,-355.5 1093,-355.5 1093,-336.5 978,-336.5"/>
<text text-anchor="middle" x="1035.5" y="-343.5" font-family="Helvetica,sans-Serif" font-size="10.00">torcwebsocketpool.h</text>
</a>
</g>
</g>
<!-- Node3&#45;&gt;Node32 -->
<g id="edge48" class="edge"><title>Node3&#45;&gt;Node32</title>
<path fill="none" stroke="midnightblue" d="M697.324,-394.433C764.832,-384.964 889.905,-367.421 967.567,-356.528"/>
<polygon fill="midnightblue" stroke="midnightblue" points="968.315,-359.958 977.731,-355.103 967.342,-353.026 968.315,-359.958"/>
</g>
<!-- Node33 -->
<g id="node33" class="node"><title>Node33</title>
<g id="a_node33"><a xlink:href="../../dd/d9e/torcwebsocketthread_8h.html" target="_top" xlink:title="torcwebsocketthread.h">
<polygon fill="white" stroke="black" points="1058.5,-280.5 1058.5,-299.5 1184.5,-299.5 1184.5,-280.5 1058.5,-280.5"/>
<text text-anchor="middle" x="1121.5" y="-287.5" font-family="Helvetica,sans-Serif" font-size="10.00">torcwebsocketthread.h</text>
</a>
</g>
</g>
<!-- Node3&#45;&gt;Node33 -->
<g id="edge71" class="edge"><title>Node3&#45;&gt;Node33</title>
<path fill="none" stroke="midnightblue" d="M697.042,-399.283C806.187,-394.847 1071.74,-381.531 1102.5,-356 1115.91,-344.87 1120.16,-324.839 1121.36,-309.945"/>
<polygon fill="midnightblue" stroke="midnightblue" points="1124.87,-309.927 1121.79,-299.789 1117.87,-309.633 1124.87,-309.927"/>
</g>
<!-- Node8 -->
<g id="node8" class="node"><title>Node8</title>
<polygon fill="white" stroke="#bfbfbf" points="908,-112.5 908,-131.5 963,-131.5 963,-112.5 908,-112.5"/>
<text text-anchor="middle" x="935.5" y="-119.5" font-family="Helvetica,sans-Serif" font-size="10.00">QObject</text>
</g>
<!-- Node7&#45;&gt;Node8 -->
<g id="edge7" class="edge"><title>Node7&#45;&gt;Node8</title>
<path fill="none" stroke="midnightblue" d="M659.59,-336.455C669.115,-327.463 684.477,-312.858 697.5,-300 722.324,-275.49 728.368,-269.192 752.5,-244 784.475,-210.619 785.368,-194.128 823.5,-168 846.238,-152.42 875.178,-140.97 897.944,-133.52"/>
<polygon fill="midnightblue" stroke="midnightblue" points="899.12,-136.819 907.605,-130.474 897.015,-130.143 899.12,-136.819"/>
</g>
<!-- Node9 -->
<g id="node9" class="node"><title>Node9</title>
<g id="a_node9"><a xlink:href="../../db/df5/torcsetting_8h.html" target="_top" xlink:title="torcsetting.h">
<polygon fill="white" stroke="black" points="612,-280.5 612,-299.5 689,-299.5 689,-280.5 612,-280.5"/>
<text text-anchor="middle" x="650.5" y="-287.5" font-family="Helvetica,sans-Serif" font-size="10.00">torcsetting.h</text>
</a>
</g>
</g>
<!-- Node7&#45;&gt;Node9 -->
<g id="edge8" class="edge"><title>Node7&#45;&gt;Node9</title>
<path fill="none" stroke="midnightblue" d="M650.5,-336.083C650.5,-329.006 650.5,-318.861 650.5,-309.986"/>
<polygon fill="midnightblue" stroke="midnightblue" points="654,-309.751 650.5,-299.751 647,-309.751 654,-309.751"/>
</g>
<!-- Node13 -->
<g id="node13" class="node"><title>Node13</title>
<g id="a_node13"><a xlink:href="../../d3/dee/torchttpservice_8h.html" target="_top" xlink:title="torchttpservice.h">
<polygon fill="white" stroke="black" points="436.5,-224.5 436.5,-243.5 534.5,-243.5 534.5,-224.5 436.5,-224.5"/>
<text text-anchor="middle" x="485.5" y="-231.5" font-family="Helvetica,sans-Serif" font-size="10.00">torchttpservice.h</text>
</a>
</g>
</g>
<!-- Node7&#45;&gt;Node13 -->
<g id="edge34" class="edge"><title>Node7&#45;&gt;Node13</title>
<path fill="none" stroke="midnightblue" d="M637.553,-336.368C609.239,-317.492 541.577,-272.385 506.855,-249.237"/>
<polygon fill="midnightblue" stroke="midnightblue" points="508.649,-246.226 498.387,-243.591 504.766,-252.051 508.649,-246.226"/>
</g>
<!-- Node9&#45;&gt;Node6 -->
<g id="edge10" class="edge"><title>Node9&#45;&gt;Node6</title>
<path fill="none" stroke="midnightblue" d="M611.941,-288.674C565.242,-286.676 485.623,-278.007 427.5,-244 407.884,-232.523 391.758,-211.637 381.93,-196.635"/>
<polygon fill="midnightblue" stroke="midnightblue" points="384.67,-194.415 376.408,-187.784 378.732,-198.121 384.67,-194.415"/>
</g>
<!-- Node9&#45;&gt;Node8 -->
<g id="edge11" class="edge"><title>Node9&#45;&gt;Node8</title>
<path fill="none" stroke="midnightblue" d="M669.698,-280.377C686.296,-272.375 710.4,-259.397 728.5,-244 761.703,-215.755 754.368,-192.387 790.5,-168 823.083,-146.008 866.915,-134.367 897.83,-128.481"/>
<polygon fill="midnightblue" stroke="midnightblue" points="898.557,-131.906 907.784,-126.699 897.324,-125.016 898.557,-131.906"/>
</g>
<!-- Node10 -->
<g id="node10" class="node"><title>Node10</title>
<polygon fill="white" stroke="#bfbfbf" points="679,-224.5 679,-243.5 720,-243.5 720,-224.5 679,-224.5"/>
<text text-anchor="middle" x="699.5" y="-231.5" font-family="Helvetica,sans-Serif" font-size="10.00">QSet</text>
</g>
<!-- Node9&#45;&gt;Node10 -->
<g id="edge9" class="edge"><title>Node9&#45;&gt;Node10</title>
<path fill="none" stroke="midnightblue" d="M658.591,-280.083C665.655,-272.298 676.088,-260.801 684.649,-251.367"/>
<polygon fill="midnightblue" stroke="midnightblue" points="687.431,-253.509 691.559,-243.751 682.247,-248.805 687.431,-253.509"/>
</g>
<!-- Node11 -->
<g id="node11" class="node"><title>Node11</title>
<polygon fill="white" stroke="#bfbfbf" points="832.5,-168.5 832.5,-187.5 890.5,-187.5 890.5,-168.5 832.5,-168.5"/>
<text text-anchor="middle" x="861.5" y="-175.5" font-family="Helvetica,sans-Serif" font-size="10.00">QVariant</text>
</g>
<!-- Node9&#45;&gt;Node11 -->
<g id="edge12" class="edge"><title>Node9&#45;&gt;Node11</title>
<path fill="none" stroke="midnightblue" d="M676.05,-280.379C699.178,-272.194 733.898,-258.945 762.5,-244 791.289,-228.957 822.248,-207.727 841.735,-193.674"/>
<polygon fill="midnightblue" stroke="midnightblue" points="844.059,-196.311 850.076,-187.591 839.934,-190.656 844.059,-196.311"/>
</g>
<!-- Node12 -->
<g id="node12" class="node"><title>Node12</title>
<polygon fill="white" stroke="#bfbfbf" points="553,-224.5 553,-243.5 622,-243.5 622,-224.5 553,-224.5"/>
<text text-anchor="middle" x="587.5" y="-231.5" font-family="Helvetica,sans-Serif" font-size="10.00">QStringList</text>
</g>
<!-- Node9&#45;&gt;Node12 -->
<g id="edge13" class="edge"><title>Node9&#45;&gt;Node12</title>
<path fill="none" stroke="midnightblue" d="M640.378,-280.324C630.974,-272.263 616.756,-260.077 605.431,-250.369"/>
<polygon fill="midnightblue" stroke="midnightblue" points="607.677,-247.684 597.806,-243.834 603.121,-252.999 607.677,-247.684"/>
</g>
<!-- Node9&#45;&gt;Node13 -->
<g id="edge14" class="edge"><title>Node9&#45;&gt;Node13</title>
<path fill="none" stroke="midnightblue" d="M624.355,-280.444C596.477,-271.32 552.152,-256.813 521.1,-246.651"/>
<polygon fill="midnightblue" stroke="midnightblue" points="522.115,-243.3 511.522,-243.516 519.938,-249.953 522.115,-243.3"/>
</g>
<!-- Node25 -->
<g id="node25" class="node"><title>Node25</title>
<g id="a_node25"><a xlink:href="../../d8/dfe/torcreferencecounted_8h.html" target="_top" xlink:title="torcreferencecounted.h">
<polygon fill="white" stroke="black" points="609,-168.5 609,-187.5 738,-187.5 738,-168.5 609,-168.5"/>
<text text-anchor="middle" x="673.5" y="-175.5" font-family="Helvetica,sans-Serif" font-size="10.00">torcreferencecounted.h</text>
</a>
</g>
</g>
<!-- Node9&#45;&gt;Node25 -->
<g id="edge32" class="edge"><title>Node9&#45;&gt;Node25</title>
<path fill="none" stroke="midnightblue" d="M652.305,-280.368C656.016,-262.617 664.579,-221.666 669.611,-197.597"/>
<polygon fill="midnightblue" stroke="midnightblue" points="673.083,-198.096 671.704,-187.591 666.231,-196.663 673.083,-198.096"/>
</g>
<!-- Node13&#45;&gt;Node5 -->
<g id="edge16" class="edge"><title>Node13&#45;&gt;Node5</title>
<path fill="none" stroke="midnightblue" d="M534.522,-225.206C537.557,-224.781 540.569,-224.375 543.5,-224 701.241,-203.8 741.448,-205.601 899.5,-188 911.637,-186.648 924.88,-185.07 936.766,-183.617"/>
<polygon fill="midnightblue" stroke="midnightblue" points="937.302,-187.077 946.799,-182.38 936.446,-180.13 937.302,-187.077"/>
</g>
<!-- Node13&#45;&gt;Node6 -->
<g id="edge17" class="edge"><title>Node13&#45;&gt;Node6</title>
<path fill="none" stroke="midnightblue" d="M467.436,-224.444C448.925,-215.675 419.919,-201.935 398.645,-191.858"/>
<polygon fill="midnightblue" stroke="midnightblue" points="400.015,-188.634 389.479,-187.516 397.018,-194.96 400.015,-188.634"/>
</g>
<!-- Node14 -->
<g id="node14" class="node"><title>Node14</title>
<polygon fill="white" stroke="#bfbfbf" points="460.5,-56.5 460.5,-75.5 504.5,-75.5 504.5,-56.5 460.5,-56.5"/>
<text text-anchor="middle" x="482.5" y="-63.5" font-family="Helvetica,sans-Serif" font-size="10.00">QMap</text>
</g>
<!-- Node13&#45;&gt;Node14 -->
<g id="edge15" class="edge"><title>Node13&#45;&gt;Node14</title>
<path fill="none" stroke="midnightblue" d="M485.339,-224.075C484.866,-197.945 483.48,-121.211 482.836,-85.577"/>
<polygon fill="midnightblue" stroke="midnightblue" points="486.335,-85.5032 482.655,-75.5681 479.336,-85.6298 486.335,-85.5032"/>
</g>
<!-- Node15 -->
<g id="node15" class="node"><title>Node15</title>
<polygon fill="white" stroke="#bfbfbf" points="512,-168.5 512,-187.5 591,-187.5 591,-168.5 512,-168.5"/>
<text text-anchor="middle" x="551.5" y="-175.5" font-family="Helvetica,sans-Serif" font-size="10.00">QMetaObject</text>
</g>
<!-- Node13&#45;&gt;Node15 -->
<g id="edge18" class="edge"><title>Node13&#45;&gt;Node15</title>
<path fill="none" stroke="midnightblue" d="M496.104,-224.324C505.956,-216.263 520.851,-204.077 532.715,-194.369"/>
<polygon fill="midnightblue" stroke="midnightblue" points="535.18,-196.875 540.703,-187.834 530.747,-191.457 535.18,-196.875"/>
</g>
<!-- Node16 -->
<g id="node16" class="node"><title>Node16</title>
<polygon fill="white" stroke="#bfbfbf" points="208,-168.5 208,-187.5 307,-187.5 307,-168.5 208,-168.5"/>
<text text-anchor="middle" x="257.5" y="-175.5" font-family="Helvetica,sans-Serif" font-size="10.00">QCoreApplication</text>
</g>
<!-- Node13&#45;&gt;Node16 -->
<g id="edge19" class="edge"><title>Node13&#45;&gt;Node16</title>
<path fill="none" stroke="midnightblue" d="M449.373,-224.444C409.849,-215.083 346.403,-200.056 303.387,-189.868"/>
<polygon fill="midnightblue" stroke="midnightblue" points="303.996,-186.415 293.458,-187.516 302.382,-193.227 303.996,-186.415"/>
</g>
<!-- Node17 -->
<g id="node17" class="node"><title>Node17</title>
<g id="a_node17"><a xlink:href="../../d4/d11/torchttphandler_8h.html" target="_top" xlink:title="torchttphandler.h">
<polygon fill="white" stroke="black" points="91,-168.5 91,-187.5 190,-187.5 190,-168.5 91,-168.5"/>
<text text-anchor="middle" x="140.5" y="-175.5" font-family="Helvetica,sans-Serif" font-size="10.00">torchttphandler.h</text>
</a>
</g>
</g>
<!-- Node13&#45;&gt;Node17 -->
<g id="edge20" class="edge"><title>Node13&#45;&gt;Node17</title>
<path fill="none" stroke="midnightblue" d="M436.436,-225.32C374.239,-215.585 267.081,-198.813 200.203,-188.345"/>
<polygon fill="midnightblue" stroke="midnightblue" points="200.654,-184.873 190.233,-186.784 199.572,-191.789 200.654,-184.873"/>
</g>
<!-- Node20 -->
<g id="node20" class="node"><title>Node20</title>
<g id="a_node20"><a xlink:href="../../df/dd7/torchttprequest_8h.html" target="_top" xlink:title="torchttprequest.h">
<polygon fill="white" stroke="black" points="354,-112.5 354,-131.5 455,-131.5 455,-112.5 354,-112.5"/>
<text text-anchor="middle" x="404.5" y="-119.5" font-family="Helvetica,sans-Serif" font-size="10.00">torchttprequest.h</text>
</a>
</g>
</g>
<!-- Node13&#45;&gt;Node20 -->
<g id="edge31" class="edge"><title>Node13&#45;&gt;Node20</title>
<path fill="none" stroke="midnightblue" d="M479.144,-224.368C465.718,-206.135 434.268,-163.426 416.779,-139.675"/>
<polygon fill="midnightblue" stroke="midnightblue" points="419.574,-137.568 410.826,-131.591 413.938,-141.719 419.574,-137.568"/>
</g>
<!-- Node18 -->
<g id="node18" class="node"><title>Node18</title>
<polygon fill="white" stroke="#bfbfbf" points="178,-56.5 178,-75.5 231,-75.5 231,-56.5 178,-56.5"/>
<text text-anchor="middle" x="204.5" y="-63.5" font-family="Helvetica,sans-Serif" font-size="10.00">QString</text>
</g>
<!-- Node17&#45;&gt;Node18 -->
<g id="edge21" class="edge"><title>Node17&#45;&gt;Node18</title>
<path fill="none" stroke="midnightblue" d="M141.611,-168.461C143.591,-155.496 148.593,-130.409 159.5,-112 166.14,-100.793 176.21,-90.3632 185.141,-82.3724"/>
<polygon fill="midnightblue" stroke="midnightblue" points="187.551,-84.9173 192.892,-75.7673 183.01,-79.5894 187.551,-84.9173"/>
</g>
<!-- Node19 -->
<g id="node19" class="node"><title>Node19</title>
<polygon fill="white" stroke="#bfbfbf" points="168.5,-112.5 168.5,-131.5 246.5,-131.5 246.5,-112.5 168.5,-112.5"/>
<text text-anchor="middle" x="207.5" y="-119.5" font-family="Helvetica,sans-Serif" font-size="10.00">QVariantMap</text>
</g>
<!-- Node17&#45;&gt;Node19 -->
<g id="edge22" class="edge"><title>Node17&#45;&gt;Node19</title>
<path fill="none" stroke="midnightblue" d="M151.265,-168.324C161.266,-160.263 176.387,-148.077 188.43,-138.369"/>
<polygon fill="midnightblue" stroke="midnightblue" points="190.95,-140.834 196.539,-131.834 186.557,-135.384 190.95,-140.834"/>
</g>
<!-- Node17&#45;&gt;Node20 -->
<g id="edge23" class="edge"><title>Node17&#45;&gt;Node20</title>
<path fill="none" stroke="midnightblue" d="M182.332,-168.444C228.579,-158.984 303.112,-143.738 352.936,-133.547"/>
<polygon fill="midnightblue" stroke="midnightblue" points="353.768,-136.949 362.864,-131.516 352.366,-130.091 353.768,-136.949"/>
</g>
<!-- Node20&#45;&gt;Node14 -->
<g id="edge24" class="edge"><title>Node20&#45;&gt;Node14</title>
<path fill="none" stroke="midnightblue" d="M417.032,-112.324C429.086,-103.979 447.527,-91.2122 461.769,-81.3524"/>
<polygon fill="midnightblue" stroke="midnightblue" points="463.769,-84.2243 469.999,-75.6545 459.785,-78.469 463.769,-84.2243"/>
</g>
<!-- Node20&#45;&gt;Node18 -->
<g id="edge26" class="edge"><title>Node20&#45;&gt;Node18</title>
<path fill="none" stroke="midnightblue" d="M372.809,-112.444C337.068,-102.793 279.026,-87.122 241.306,-76.9377"/>
<polygon fill="midnightblue" stroke="midnightblue" points="241.809,-73.448 231.242,-74.2203 239.984,-80.206 241.809,-73.448"/>
</g>
<!-- Node21 -->
<g id="node21" class="node"><title>Node21</title>
<polygon fill="white" stroke="#bfbfbf" points="311,-56.5 311,-75.5 352,-75.5 352,-56.5 311,-56.5"/>
<text text-anchor="middle" x="331.5" y="-63.5" font-family="Helvetica,sans-Serif" font-size="10.00">QPair</text>
</g>
<!-- Node20&#45;&gt;Node21 -->
<g id="edge25" class="edge"><title>Node20&#45;&gt;Node21</title>
<path fill="none" stroke="midnightblue" d="M392.771,-112.324C381.663,-104.107 364.758,-91.6017 351.517,-81.8069"/>
<polygon fill="midnightblue" stroke="midnightblue" points="353.563,-78.9671 343.442,-75.8339 349.4,-84.5948 353.563,-78.9671"/>
</g>
<!-- Node22 -->
<g id="node22" class="node"><title>Node22</title>
<polygon fill="white" stroke="#bfbfbf" points="370,-56.5 370,-75.5 441,-75.5 441,-56.5 370,-56.5"/>
<text text-anchor="middle" x="405.5" y="-63.5" font-family="Helvetica,sans-Serif" font-size="10.00">QDateTime</text>
</g>
<!-- Node20&#45;&gt;Node22 -->
<g id="edge27" class="edge"><title>Node20&#45;&gt;Node22</title>
<path fill="none" stroke="midnightblue" d="M404.665,-112.083C404.796,-105.006 404.984,-94.8611 405.148,-85.9865"/>
<polygon fill="midnightblue" stroke="midnightblue" points="408.652,-85.8142 405.338,-75.7511 401.653,-85.6845 408.652,-85.8142"/>
</g>
<!-- Node23 -->
<g id="node23" class="node"><title>Node23</title>
<g id="a_node23"><a xlink:href="../../de/de6/torchttpreader_8h.html" target="_top" xlink:title="torchttpreader.h">
<polygon fill="white" stroke="black" points="961,-56.5 961,-75.5 1056,-75.5 1056,-56.5 961,-56.5"/>
<text text-anchor="middle" x="1008.5" y="-63.5" font-family="Helvetica,sans-Serif" font-size="10.00">torchttpreader.h</text>
</a>
</g>
</g>
<!-- Node20&#45;&gt;Node23 -->
<g id="edge28" class="edge"><title>Node20&#45;&gt;Node23</title>
<path fill="none" stroke="midnightblue" d="M455.217,-116.466C566.716,-106.497 832.599,-82.7262 950.499,-72.1855"/>
<polygon fill="midnightblue" stroke="midnightblue" points="951.112,-75.6447 960.761,-71.2681 950.489,-68.6725 951.112,-75.6447"/>
</g>
<!-- Node23&#45;&gt;Node4 -->
<g id="edge30" class="edge"><title>Node23&#45;&gt;Node4</title>
<path fill="none" stroke="midnightblue" d="M1056.16,-57.0321C1117.7,-46.743 1224.12,-28.9513 1285.07,-18.763"/>
<polygon fill="midnightblue" stroke="midnightblue" points="1285.88,-22.1751 1295.17,-17.074 1284.73,-15.2709 1285.88,-22.1751"/>
</g>
<!-- Node24 -->
<g id="node24" class="node"><title>Node24</title>
<polygon fill="white" stroke="#bfbfbf" points="973,-0.5 973,-19.5 1044,-19.5 1044,-0.5 973,-0.5"/>
<text text-anchor="middle" x="1008.5" y="-7.5" font-family="Helvetica,sans-Serif" font-size="10.00">QByteArray</text>
</g>
<!-- Node23&#45;&gt;Node24 -->
<g id="edge29" class="edge"><title>Node23&#45;&gt;Node24</title>
<path fill="none" stroke="midnightblue" d="M1008.5,-56.083C1008.5,-49.0059 1008.5,-38.8611 1008.5,-29.9865"/>
<polygon fill="midnightblue" stroke="midnightblue" points="1012,-29.751 1008.5,-19.7511 1005,-29.7511 1012,-29.751"/>
</g>
<!-- Node26 -->
<g id="node26" class="node"><title>Node26</title>
<polygon fill="white" stroke="#bfbfbf" points="638.5,-112.5 638.5,-131.5 708.5,-131.5 708.5,-112.5 638.5,-112.5"/>
<text text-anchor="middle" x="673.5" y="-119.5" font-family="Helvetica,sans-Serif" font-size="10.00">QAtomicInt</text>
</g>
<!-- Node25&#45;&gt;Node26 -->
<g id="edge33" class="edge"><title>Node25&#45;&gt;Node26</title>
<path fill="none" stroke="midnightblue" d="M673.5,-168.083C673.5,-161.006 673.5,-150.861 673.5,-141.986"/>
<polygon fill="midnightblue" stroke="midnightblue" points="677,-141.751 673.5,-131.751 670,-141.751 677,-141.751"/>
</g>
<!-- Node27&#45;&gt;Node16 -->
<g id="edge36" class="edge"><title>Node27&#45;&gt;Node16</title>
<path fill="none" stroke="midnightblue" d="M257.5,-224.083C257.5,-217.006 257.5,-206.861 257.5,-197.986"/>
<polygon fill="midnightblue" stroke="midnightblue" points="261,-197.751 257.5,-187.751 254,-197.751 261,-197.751"/>
</g>
<!-- Node27&#45;&gt;Node17 -->
<g id="edge37" class="edge"><title>Node27&#45;&gt;Node17</title>
<path fill="none" stroke="midnightblue" d="M238.961,-224.444C219.877,-215.636 189.925,-201.812 168.064,-191.722"/>
<polygon fill="midnightblue" stroke="midnightblue" points="169.499,-188.529 158.952,-187.516 166.565,-194.885 169.499,-188.529"/>
</g>
<!-- Node28&#45;&gt;Node8 -->
<g id="edge39" class="edge"><title>Node28&#45;&gt;Node8</title>
<path fill="none" stroke="midnightblue" d="M875.887,-280.075C885.847,-253.832 915.179,-176.545 928.624,-141.117"/>
<polygon fill="midnightblue" stroke="midnightblue" points="931.972,-142.159 932.248,-131.568 925.428,-139.676 931.972,-142.159"/>
</g>
<!-- Node28&#45;&gt;Node11 -->
<g id="edge40" class="edge"><title>Node28&#45;&gt;Node11</title>
<path fill="none" stroke="midnightblue" d="M871.637,-280.368C869.862,-262.617 865.767,-221.666 863.36,-197.597"/>
<polygon fill="midnightblue" stroke="midnightblue" points="866.837,-197.193 862.359,-187.591 859.872,-197.89 866.837,-197.193"/>
</g>
<!-- Node28&#45;&gt;Node13 -->
<g id="edge41" class="edge"><title>Node28&#45;&gt;Node13</title>
<path fill="none" stroke="midnightblue" d="M820.889,-282.233C758.098,-273.935 648.589,-259.255 544.584,-244.137"/>
<polygon fill="midnightblue" stroke="midnightblue" points="544.939,-240.652 534.538,-242.673 543.929,-247.579 544.939,-240.652"/>
</g>
<!-- Node29&#45;&gt;Node17 -->
<g id="edge43" class="edge"><title>Node29&#45;&gt;Node17</title>
<path fill="none" stroke="midnightblue" d="M228.967,-280.368C212.984,-262.055 175.452,-219.049 154.78,-195.362"/>
<polygon fill="midnightblue" stroke="midnightblue" points="157.21,-192.824 147.998,-187.591 151.936,-197.427 157.21,-192.824"/>
</g>
<!-- Node30&#45;&gt;Node17 -->
<g id="edge45" class="edge"><title>Node30&#45;&gt;Node17</title>
<path fill="none" stroke="midnightblue" d="M75.2097,-336.075C86.118,-309.832 118.243,-232.545 132.97,-197.117"/>
<polygon fill="midnightblue" stroke="midnightblue" points="136.332,-198.146 136.939,-187.568 129.868,-195.459 136.332,-198.146"/>
</g>
<!-- Node31&#45;&gt;Node17 -->
<g id="edge47" class="edge"><title>Node31&#45;&gt;Node17</title>
<path fill="none" stroke="midnightblue" d="M199.456,-336.493C187.647,-328.564 171.322,-315.631 162.5,-300 144.109,-267.414 140.587,-222.74 140.196,-197.797"/>
<polygon fill="midnightblue" stroke="midnightblue" points="143.696,-197.559 140.199,-187.558 136.696,-197.557 143.696,-197.559"/>
</g>
<!-- Node32&#45;&gt;Node5 -->
<g id="edge50" class="edge"><title>Node32&#45;&gt;Node5</title>
<path fill="none" stroke="midnightblue" d="M1031.19,-336.497C1026.73,-327.539 1019.7,-312.962 1014.5,-300 1000.16,-264.282 986.426,-221.394 979.061,-197.465"/>
<polygon fill="midnightblue" stroke="midnightblue" points="982.327,-196.173 976.065,-187.626 975.63,-198.212 982.327,-196.173"/>
</g>
<!-- Node32&#45;&gt;Node8 -->
<g id="edge49" class="edge"><title>Node32&#45;&gt;Node8</title>
<path fill="none" stroke="midnightblue" d="M1036.64,-336.364C1039.77,-309.06 1046.04,-223.149 1009.5,-168 999.963,-153.605 984.09,-143.069 969.485,-135.827"/>
<polygon fill="midnightblue" stroke="midnightblue" points="970.698,-132.532 960.15,-131.536 967.775,-138.893 970.698,-132.532"/>
</g>
<!-- Node32&#45;&gt;Node33 -->
<g id="edge51" class="edge"><title>Node32&#45;&gt;Node33</title>
<path fill="none" stroke="midnightblue" d="M1049.32,-336.324C1062.73,-327.9 1083.32,-314.971 1099.09,-305.074"/>
<polygon fill="midnightblue" stroke="midnightblue" points="1101.11,-307.936 1107.72,-299.655 1097.39,-302.008 1101.11,-307.936"/>
</g>
<!-- Node33&#45;&gt;Node8 -->
<g id="edge52" class="edge"><title>Node33&#45;&gt;Node8</title>
<path fill="none" stroke="midnightblue" d="M1134.79,-280.27C1164.67,-259.614 1232.06,-206.582 1199.5,-168 1192.23,-159.385 1044.43,-137.992 973.218,-128.13"/>
<polygon fill="midnightblue" stroke="midnightblue" points="973.677,-124.66 963.293,-126.761 972.721,-131.594 973.677,-124.66"/>
</g>
<!-- Node34 -->
<g id="node34" class="node"><title>Node34</title>
<g id="a_node34"><a xlink:href="../../da/dbe/torcwebsocket_8h.html" target="_top" xlink:title="torcwebsocket.h">
<polygon fill="white" stroke="black" points="1247,-168.5 1247,-187.5 1342,-187.5 1342,-168.5 1247,-168.5"/>
<text text-anchor="middle" x="1294.5" y="-175.5" font-family="Helvetica,sans-Serif" font-size="10.00">torcwebsocket.h</text>
</a>
</g>
</g>
<!-- Node33&#45;&gt;Node34 -->
<g id="edge53" class="edge"><title>Node33&#45;&gt;Node34</title>
<path fill="none" stroke="midnightblue" d="M1152.43,-280.364C1175.71,-272.969 1207.74,-260.835 1232.5,-244 1252.15,-230.64 1270.37,-210.156 1281.91,-195.761"/>
<polygon fill="midnightblue" stroke="midnightblue" points="1284.8,-197.746 1288.18,-187.704 1279.27,-193.447 1284.8,-197.746"/>
</g>
<!-- Node42 -->
<g id="node42" class="node"><title>Node42</title>
<g id="a_node42"><a xlink:href="../../dd/d52/torcrpcrequest_8h.html" target="_top" xlink:title="torcrpcrequest.h">
<polygon fill="white" stroke="black" points="1056.5,-224.5 1056.5,-243.5 1152.5,-243.5 1152.5,-224.5 1056.5,-224.5"/>
<text text-anchor="middle" x="1104.5" y="-231.5" font-family="Helvetica,sans-Serif" font-size="10.00">torcrpcrequest.h</text>
</a>
</g>
</g>
<!-- Node33&#45;&gt;Node42 -->
<g id="edge64" class="edge"><title>Node33&#45;&gt;Node42</title>
<path fill="none" stroke="midnightblue" d="M1118.69,-280.083C1116.42,-272.849 1113.13,-262.409 1110.29,-253.397"/>
<polygon fill="midnightblue" stroke="midnightblue" points="1113.6,-252.239 1107.25,-243.751 1106.92,-254.341 1113.6,-252.239"/>
</g>
<!-- Node34&#45;&gt;Node8 -->
<g id="edge56" class="edge"><title>Node34&#45;&gt;Node8</title>
<path fill="none" stroke="midnightblue" d="M1246.95,-169.905C1187.79,-161.069 1083.68,-145.49 994.5,-132 987.617,-130.959 980.282,-129.844 973.208,-128.766"/>
<polygon fill="midnightblue" stroke="midnightblue" points="973.526,-125.274 963.112,-127.227 972.47,-132.194 973.526,-125.274"/>
</g>
<!-- Node34&#45;&gt;Node23 -->
<g id="edge59" class="edge"><title>Node34&#45;&gt;Node23</title>
<path fill="none" stroke="midnightblue" d="M1246.75,-169.608C1171.06,-157.8 1031.59,-135.636 1027.5,-132 1014.48,-120.422 1010.16,-100.462 1008.84,-85.7067"/>
<polygon fill="midnightblue" stroke="midnightblue" points="1012.33,-85.4675 1008.32,-75.6631 1005.34,-85.8316 1012.33,-85.4675"/>
</g>
<!-- Node35 -->
<g id="node35" class="node"><title>Node35</title>
<polygon fill="white" stroke="#bfbfbf" points="1036.5,-112.5 1036.5,-131.5 1074.5,-131.5 1074.5,-112.5 1036.5,-112.5"/>
<text text-anchor="middle" x="1055.5" y="-119.5" font-family="Helvetica,sans-Serif" font-size="10.00">QUrl</text>
</g>
<!-- Node34&#45;&gt;Node35 -->
<g id="edge54" class="edge"><title>Node34&#45;&gt;Node35</title>
<path fill="none" stroke="midnightblue" d="M1248.75,-168.427C1206.02,-160.131 1140.59,-146.682 1084.5,-132 1084.4,-131.974 1084.3,-131.948 1084.2,-131.922"/>
<polygon fill="midnightblue" stroke="midnightblue" points="1085.35,-128.609 1074.77,-129.246 1083.44,-135.343 1085.35,-128.609"/>
</g>
<!-- Node36 -->
<g id="node36" class="node"><title>Node36</title>
<polygon fill="white" stroke="#bfbfbf" points="1093,-112.5 1093,-131.5 1144,-131.5 1144,-112.5 1093,-112.5"/>
<text text-anchor="middle" x="1118.5" y="-119.5" font-family="Helvetica,sans-Serif" font-size="10.00">QTimer</text>
</g>
<!-- Node34&#45;&gt;Node36 -->
<g id="edge55" class="edge"><title>Node34&#45;&gt;Node36</title>
<path fill="none" stroke="midnightblue" d="M1266.61,-168.444C1236.13,-159.091 1187.22,-144.084 1154.02,-133.897"/>
<polygon fill="midnightblue" stroke="midnightblue" points="1154.84,-130.489 1144.25,-130.902 1152.79,-137.181 1154.84,-130.489"/>
</g>
<!-- Node37 -->
<g id="node37" class="node"><title>Node37</title>
<polygon fill="white" stroke="#bfbfbf" points="1162,-112.5 1162,-131.5 1233,-131.5 1233,-112.5 1162,-112.5"/>
<text text-anchor="middle" x="1197.5" y="-119.5" font-family="Helvetica,sans-Serif" font-size="10.00">QSslSocket</text>
</g>
<!-- Node34&#45;&gt;Node37 -->
<g id="edge57" class="edge"><title>Node34&#45;&gt;Node37</title>
<path fill="none" stroke="midnightblue" d="M1278.92,-168.324C1263.5,-159.743 1239.69,-146.486 1221.79,-136.522"/>
<polygon fill="midnightblue" stroke="midnightblue" points="1223.49,-133.461 1213.05,-131.655 1220.08,-139.577 1223.49,-133.461"/>
</g>
<!-- Node38 -->
<g id="node38" class="node"><title>Node38</title>
<polygon fill="white" stroke="#bfbfbf" points="1251.5,-112.5 1251.5,-131.5 1337.5,-131.5 1337.5,-112.5 1251.5,-112.5"/>
<text text-anchor="middle" x="1294.5" y="-119.5" font-family="Helvetica,sans-Serif" font-size="10.00">QHostAddress</text>
</g>
<!-- Node34&#45;&gt;Node38 -->
<g id="edge58" class="edge"><title>Node34&#45;&gt;Node38</title>
<path fill="none" stroke="midnightblue" d="M1294.5,-168.083C1294.5,-161.006 1294.5,-150.861 1294.5,-141.986"/>
<polygon fill="midnightblue" stroke="midnightblue" points="1298,-141.751 1294.5,-131.751 1291,-141.751 1298,-141.751"/>
</g>
<!-- Node39 -->
<g id="node39" class="node"><title>Node39</title>
<g id="a_node39"><a xlink:href="../../d7/d28/torcwebsocketreader_8h.html" target="_top" xlink:title="torcwebsocketreader.h">
<polygon fill="white" stroke="black" points="1269,-56.5 1269,-75.5 1394,-75.5 1394,-56.5 1269,-56.5"/>
<text text-anchor="middle" x="1331.5" y="-63.5" font-family="Helvetica,sans-Serif" font-size="10.00">torcwebsocketreader.h</text>
</a>
</g>
</g>
<!-- Node34&#45;&gt;Node39 -->
<g id="edge60" class="edge"><title>Node34&#45;&gt;Node39</title>
<path fill="none" stroke="midnightblue" d="M1310.28,-168.467C1322.7,-160.769 1339.11,-148.179 1346.5,-132 1353.41,-116.891 1347.86,-98.3076 1341.66,-84.886"/>
<polygon fill="midnightblue" stroke="midnightblue" points="1344.66,-83.0671 1336.97,-75.7718 1338.43,-86.266 1344.66,-83.0671"/>
</g>
<!-- Node40 -->
<g id="node40" class="node"><title>Node40</title>
<g id="a_node40"><a xlink:href="../../dd/db0/torcqthread_8h.html" target="_top" xlink:title="torcqthread.h">
<polygon fill="white" stroke="black" points="1393.5,-112.5 1393.5,-131.5 1475.5,-131.5 1475.5,-112.5 1393.5,-112.5"/>
<text text-anchor="middle" x="1434.5" y="-119.5" font-family="Helvetica,sans-Serif" font-size="10.00">torcqthread.h</text>
</a>
</g>
</g>
<!-- Node34&#45;&gt;Node40 -->
<g id="edge62" class="edge"><title>Node34&#45;&gt;Node40</title>
<path fill="none" stroke="midnightblue" d="M1316.68,-168.444C1339.93,-159.478 1376.65,-145.314 1402.92,-135.183"/>
<polygon fill="midnightblue" stroke="midnightblue" points="1404.35,-138.381 1412.42,-131.516 1401.83,-131.85 1404.35,-138.381"/>
</g>
<!-- Node39&#45;&gt;Node4 -->
<g id="edge61" class="edge"><title>Node39&#45;&gt;Node4</title>
<path fill="none" stroke="midnightblue" d="M1331.5,-56.083C1331.5,-49.0059 1331.5,-38.8611 1331.5,-29.9865"/>
<polygon fill="midnightblue" stroke="midnightblue" points="1335,-29.751 1331.5,-19.7511 1328,-29.7511 1335,-29.751"/>
</g>
<!-- Node41 -->
<g id="node41" class="node"><title>Node41</title>
<polygon fill="white" stroke="#bfbfbf" points="1412,-56.5 1412,-75.5 1469,-75.5 1469,-56.5 1412,-56.5"/>
<text text-anchor="middle" x="1440.5" y="-63.5" font-family="Helvetica,sans-Serif" font-size="10.00">QThread</text>
</g>
<!-- Node40&#45;&gt;Node41 -->
<g id="edge63" class="edge"><title>Node40&#45;&gt;Node41</title>
<path fill="none" stroke="midnightblue" d="M1435.49,-112.083C1436.29,-104.927 1437.43,-94.6353 1438.42,-85.6911"/>
<polygon fill="midnightblue" stroke="midnightblue" points="1441.9,-86.0765 1439.53,-75.7511 1434.94,-85.3034 1441.9,-86.0765"/>
</g>
<!-- Node42&#45;&gt;Node5 -->
<g id="edge66" class="edge"><title>Node42&#45;&gt;Node5</title>
<path fill="none" stroke="midnightblue" d="M1083.74,-224.444C1062.18,-215.557 1028.24,-201.563 1003.71,-191.451"/>
<polygon fill="midnightblue" stroke="midnightblue" points="1004.74,-188.092 994.16,-187.516 1002.07,-194.563 1004.74,-188.092"/>
</g>
<!-- Node42&#45;&gt;Node11 -->
<g id="edge67" class="edge"><title>Node42&#45;&gt;Node11</title>
<path fill="none" stroke="midnightblue" d="M1066,-224.444C1020.71,-214.38 945.951,-197.767 900.465,-187.659"/>
<polygon fill="midnightblue" stroke="midnightblue" points="901.193,-184.235 890.672,-185.483 899.674,-191.069 901.193,-184.235"/>
</g>
<!-- Node42&#45;&gt;Node25 -->
<g id="edge70" class="edge"><title>Node42&#45;&gt;Node25</title>
<path fill="none" stroke="midnightblue" d="M1056.31,-226.963C981.438,-217.582 836.588,-199.433 748.121,-188.349"/>
<polygon fill="midnightblue" stroke="midnightblue" points="748.508,-184.871 738.151,-187.1 747.638,-191.816 748.508,-184.871"/>
</g>
<!-- Node42&#45;&gt;Node34 -->
<g id="edge69" class="edge"><title>Node42&#45;&gt;Node34</title>
<path fill="none" stroke="midnightblue" d="M1134.61,-224.444C1167.13,-215.201 1219.08,-200.436 1254.89,-190.257"/>
<polygon fill="midnightblue" stroke="midnightblue" points="1255.87,-193.617 1264.53,-187.516 1253.96,-186.884 1255.87,-193.617"/>
</g>
<!-- Node43 -->
<g id="node43" class="node"><title>Node43</title>
<polygon fill="white" stroke="#bfbfbf" points="1149,-168.5 1149,-187.5 1190,-187.5 1190,-168.5 1149,-168.5"/>
<text text-anchor="middle" x="1169.5" y="-175.5" font-family="Helvetica,sans-Serif" font-size="10.00">QList</text>
</g>
<!-- Node42&#45;&gt;Node43 -->
<g id="edge65" class="edge"><title>Node42&#45;&gt;Node43</title>
<path fill="none" stroke="midnightblue" d="M1114.94,-224.324C1124.65,-216.263 1139.32,-204.077 1151,-194.369"/>
<polygon fill="midnightblue" stroke="midnightblue" points="1153.41,-196.916 1158.87,-187.834 1148.94,-191.532 1153.41,-196.916"/>
</g>
<!-- Node44 -->
<g id="node44" class="node"><title>Node44</title>
<polygon fill="white" stroke="#bfbfbf" points="1056.5,-168.5 1056.5,-187.5 1130.5,-187.5 1130.5,-168.5 1056.5,-168.5"/>
<text text-anchor="middle" x="1093.5" y="-175.5" font-family="Helvetica,sans-Serif" font-size="10.00">QJsonObject</text>
</g>
<!-- Node42&#45;&gt;Node44 -->
<g id="edge68" class="edge"><title>Node42&#45;&gt;Node44</title>
<path fill="none" stroke="midnightblue" d="M1102.68,-224.083C1101.23,-216.927 1099.13,-206.635 1097.31,-197.691"/>
<polygon fill="midnightblue" stroke="midnightblue" points="1100.71,-196.851 1095.28,-187.751 1093.85,-198.248 1100.71,-196.851"/>
</g>
</g>
</svg>
        <g id="navigator" transform="translate(0 0)" fill="#404254">
                <rect fill="#f2f5e9" fill-opacity="0.5" stroke="#606060" stroke-width=".5" x="0" y="0" width="60" height="60"/>
                <use id="zoomplus" xlink:href="#zoomPlus" x="17" y="9" onmousedown="handleZoom(evt,'in')"/>
                <use id="zoomminus" xlink:href="#zoomMin" x="42" y="9" onmousedown="handleZoom(evt,'out')"/>
                <use id="reset" xlink:href="#resetDef" x="30" y="36" onmousedown="handleReset()"/>
                <g id="arrowUp" xlink:href="#dirArrow" transform="translate(30 24)" onmousedown="handlePan(0,-1)">
                  <use xlink:href="#rim" fill="#404040">
                        <set attributeName="fill" to="#808080" begin="arrowUp.mouseover" end="arrowUp.mouseout"/>
                  </use>
                  <path fill="none" stroke="white" stroke-width="1.5" d="M0,-3.0v7 M-2.5,-0.5L0,-3.0L2.5,-0.5"/>
                </g>
                <g id="arrowRight" xlink:href="#dirArrow" transform="rotate(90) translate(36 -43)" onmousedown="handlePan(1,0)">
                  <use xlink:href="#rim" fill="#404040">
                        <set attributeName="fill" to="#808080" begin="arrowRight.mouseover" end="arrowRight.mouseout"/>
                  </use>
                  <path fill="none" stroke="white" stroke-width="1.5" d="M0,-3.0v7 M-2.5,-0.5L0,-3.0L2.5,-0.5"/>
                </g>
                <g id="arrowDown" xlink:href="#dirArrow" transform="rotate(180) translate(-30 -48)" onmousedown="handlePan(0,1)">
                  <use xlink:href="#rim" fill="#404040">
                        <set attributeName="fill" to="#808080" begin="arrowDown.mouseover" end="arrowDown.mouseout"/>
                  </use>
                  <path fill="none" stroke="white" stroke-width="1.5" d="M0,-3.0v7 M-2.5,-0.5L0,-3.0L2.5,-0.5"/>
                </g>
                <g id="arrowLeft" xlink:href="#dirArrow" transform="rotate(270) translate(-36 17)" onmousedown="handlePan(-1,0)">
                  <use xlink:href="#rim" fill="#404040">
                        <set attributeName="fill" to="#808080" begin="arrowLeft.mouseover" end="arrowLeft.mouseout"/>
                  </use>
                  <path fill="none" stroke="white" stroke-width="1.5" d="M0,-3.0v7 M-2.5,-0.5L0,-3.0L2.5,-0.5"/>
                </g>
        </g>
        <svg viewBox="0 0 15 15" width="100%" height="30px" preserveAspectRatio="xMaxYMin meet">
         <g id="arrow_out" transform="scale(0.3 0.3)">
          <a xlink:href="torchttpserverlistener_8h__incl_org.svg" target="_base">
           <rect id="button" ry="5" rx="5" y="6" x="6" height="38" width="38"
                fill="#f2f5e9" fill-opacity="0.5" stroke="#606060" stroke-width="1.0"/>
           <path id="arrow"
             d="M 11.500037,31.436501 C 11.940474,20.09759 22.043105,11.32322 32.158766,21.979434 L 37.068811,17.246167 C 37.068811,17.246167 37.088388,32 37.088388,32 L 22.160133,31.978069 C 22.160133,31.978069 26.997745,27.140456 26.997745,27.140456 C 18.528582,18.264221 13.291696,25.230495 11.500037,31.436501 z"
             style="fill:#404040;"/>
          </a>
         </g>
        </svg>
</svg>
