<?xml version="1.0" encoding="UTF-8" standalone="no"?>
<!DOCTYPE svg PUBLIC "-//W3C//DTD SVG 1.1//EN"
 "http://www.w3.org/Graphics/SVG/1.1/DTD/svg11.dtd">
<!-- Generated by graphviz version 2.38.0 (20140413.2041)
 -->
<!-- Title: torcxmlreader.cpp Pages: 1 -->
<svg width="480pt" height="140pt"
 viewBox="0.00 0.00 480.00 140.00" xmlns="http://www.w3.org/2000/svg" xmlns:xlink="http://www.w3.org/1999/xlink">
<g id="graph0" class="graph" transform="scale(1 1) rotate(0) translate(4 136)">
<title>torcxmlreader.cpp</title>
<polygon fill="white" stroke="none" points="-4,4 -4,-136 476,-136 476,4 -4,4"/>
<!-- Node1 -->
<g id="node1" class="node"><title>Node1</title>
<polygon fill="#bfbfbf" stroke="black" points="73.5,-112.5 73.5,-131.5 177.5,-131.5 177.5,-112.5 73.5,-112.5"/>
<text text-anchor="middle" x="125.5" y="-119.5" font-family="Helvetica,sans-Serif" font-size="10.00">torcxmlreader.cpp</text>
</g>
<!-- Node2 -->
<g id="node2" class="node"><title>Node2</title>
<polygon fill="white" stroke="#bfbfbf" points="0,-56.5 0,-75.5 39,-75.5 39,-56.5 0,-56.5"/>
<text text-anchor="middle" x="19.5" y="-63.5" font-family="Helvetica,sans-Serif" font-size="10.00">QFile</text>
</g>
<!-- Node1&#45;&gt;Node2 -->
<g id="edge1" class="edge"><title>Node1&#45;&gt;Node2</title>
<path fill="none" stroke="midnightblue" d="M108.469,-112.324C91.4702,-103.664 65.1239,-90.2424 45.5074,-80.249"/>
<polygon fill="midnightblue" stroke="midnightblue" points="46.9876,-77.0752 36.4885,-75.6545 43.8101,-83.3125 46.9876,-77.0752"/>
</g>
<!-- Node3 -->
<g id="node3" class="node"><title>Node3</title>
<polygon fill="white" stroke="#bfbfbf" points="57,-56.5 57,-75.5 110,-75.5 110,-56.5 57,-56.5"/>
<text text-anchor="middle" x="83.5" y="-63.5" font-family="Helvetica,sans-Serif" font-size="10.00">QBuffer</text>
</g>
<!-- Node1&#45;&gt;Node3 -->
<g id="edge2" class="edge"><title>Node1&#45;&gt;Node3</title>
<path fill="none" stroke="midnightblue" d="M118.565,-112.083C112.571,-104.377 103.748,-93.0333 96.4524,-83.6531"/>
<polygon fill="midnightblue" stroke="midnightblue" points="99.2086,-81.4958 90.3064,-75.7511 93.6831,-85.7934 99.2086,-81.4958"/>
</g>
<!-- Node4 -->
<g id="node4" class="node"><title>Node4</title>
<g id="a_node4"><a xlink:href="../../d4/df9/torclogging_8h.html" target="_top" xlink:title="torclogging.h">
<polygon fill="white" stroke="black" points="128,-56.5 128,-75.5 207,-75.5 207,-56.5 128,-56.5"/>
<text text-anchor="middle" x="167.5" y="-63.5" font-family="Helvetica,sans-Serif" font-size="10.00">torclogging.h</text>
</a>
</g>
</g>
<!-- Node1&#45;&gt;Node4 -->
<g id="edge3" class="edge"><title>Node1&#45;&gt;Node4</title>
<path fill="none" stroke="midnightblue" d="M132.435,-112.083C138.429,-104.377 147.252,-93.0333 154.548,-83.6531"/>
<polygon fill="midnightblue" stroke="midnightblue" points="157.317,-85.7934 160.694,-75.7511 151.791,-81.4958 157.317,-85.7934"/>
</g>
<!-- Node8 -->
<g id="node8" class="node"><title>Node8</title>
<g id="a_node8"><a xlink:href="../../d6/d2c/torcxmlreader_8h.html" target="_top" xlink:title="torcxmlreader.h">
<polygon fill="white" stroke="black" points="268.5,-56.5 268.5,-75.5 360.5,-75.5 360.5,-56.5 268.5,-56.5"/>
<text text-anchor="middle" x="314.5" y="-63.5" font-family="Helvetica,sans-Serif" font-size="10.00">torcxmlreader.h</text>
</a>
</g>
</g>
<!-- Node1&#45;&gt;Node8 -->
<g id="edge7" class="edge"><title>Node1&#45;&gt;Node8</title>
<path fill="none" stroke="midnightblue" d="M155.448,-112.444C187.658,-103.241 239.034,-88.5617 274.642,-78.3879"/>
<polygon fill="midnightblue" stroke="midnightblue" points="276.039,-81.629 284.692,-75.5164 274.116,-74.8984 276.039,-81.629"/>
</g>
<!-- Node5 -->
<g id="node5" class="node"><title>Node5</title>
<polygon fill="white" stroke="#bfbfbf" points="28,-0.5 28,-19.5 81,-19.5 81,-0.5 28,-0.5"/>
<text text-anchor="middle" x="54.5" y="-7.5" font-family="Helvetica,sans-Serif" font-size="10.00">stdint.h</text>
</g>
<!-- Node4&#45;&gt;Node5 -->
<g id="edge4" class="edge"><title>Node4&#45;&gt;Node5</title>
<path fill="none" stroke="midnightblue" d="M149.595,-56.4435C131.246,-47.6751 102.495,-33.9355 81.4064,-23.8579"/>
<polygon fill="midnightblue" stroke="midnightblue" points="82.8532,-20.6703 72.3214,-19.5164 79.835,-26.9862 82.8532,-20.6703"/>
</g>
<!-- Node6 -->
<g id="node6" class="node"><title>Node6</title>
<polygon fill="white" stroke="#bfbfbf" points="99,-0.5 99,-19.5 150,-19.5 150,-0.5 99,-0.5"/>
<text text-anchor="middle" x="124.5" y="-7.5" font-family="Helvetica,sans-Serif" font-size="10.00">errno.h</text>
</g>
<!-- Node4&#45;&gt;Node6 -->
<g id="edge5" class="edge"><title>Node4&#45;&gt;Node6</title>
<path fill="none" stroke="midnightblue" d="M160.399,-56.083C154.263,-48.3768 145.23,-37.0333 137.761,-27.6531"/>
<polygon fill="midnightblue" stroke="midnightblue" points="140.436,-25.3936 131.468,-19.7511 134.96,-29.7542 140.436,-25.3936"/>
</g>
<!-- Node7 -->
<g id="node7" class="node"><title>Node7</title>
<g id="a_node7"><a xlink:href="../../d1/d37/torcloggingdefs_8h.html" target="_top" xlink:title="torcloggingdefs.h">
<polygon fill="white" stroke="black" points="168,-0.5 168,-19.5 267,-19.5 267,-0.5 168,-0.5"/>
<text text-anchor="middle" x="217.5" y="-7.5" font-family="Helvetica,sans-Serif" font-size="10.00">torcloggingdefs.h</text>
</a>
</g>
</g>
<!-- Node4&#45;&gt;Node7 -->
<g id="edge6" class="edge"><title>Node4&#45;&gt;Node7</title>
<path fill="none" stroke="midnightblue" d="M175.756,-56.083C182.965,-48.2982 193.61,-36.8015 202.346,-27.3665"/>
<polygon fill="midnightblue" stroke="midnightblue" points="205.171,-29.4666 209.397,-19.7511 200.035,-24.7108 205.171,-29.4666"/>
</g>
<!-- Node9 -->
<g id="node9" class="node"><title>Node9</title>
<polygon fill="white" stroke="#bfbfbf" points="285.5,-0.5 285.5,-19.5 343.5,-19.5 343.5,-0.5 285.5,-0.5"/>
<text text-anchor="middle" x="314.5" y="-7.5" font-family="Helvetica,sans-Serif" font-size="10.00">QVariant</text>
</g>
<!-- Node8&#45;&gt;Node9 -->
<g id="edge8" class="edge"><title>Node8&#45;&gt;Node9</title>
<path fill="none" stroke="midnightblue" d="M314.5,-56.083C314.5,-49.0059 314.5,-38.8611 314.5,-29.9865"/>
<polygon fill="midnightblue" stroke="midnightblue" points="318,-29.751 314.5,-19.7511 311,-29.7511 318,-29.751"/>
</g>
<!-- Node10 -->
<g id="node10" class="node"><title>Node10</title>
<polygon fill="white" stroke="#bfbfbf" points="361,-0.5 361,-19.5 472,-19.5 472,-0.5 361,-0.5"/>
<text text-anchor="middle" x="416.5" y="-7.5" font-family="Helvetica,sans-Serif" font-size="10.00">QXmlStreamReader</text>
</g>
<!-- Node8&#45;&gt;Node10 -->
<g id="edge9" class="edge"><title>Node8&#45;&gt;Node10</title>
<path fill="none" stroke="midnightblue" d="M330.888,-56.324C347.171,-47.7034 372.367,-34.3643 391.216,-24.3855"/>
<polygon fill="midnightblue" stroke="midnightblue" points="392.952,-27.4267 400.153,-19.6545 389.677,-21.2402 392.952,-27.4267"/>
</g>
</g>
</svg>
