<?xml version="1.0" encoding="UTF-8" standalone="no"?>
<!DOCTYPE svg PUBLIC "-//W3C//DTD SVG 1.1//EN"
 "http://www.w3.org/Graphics/SVG/1.1/DTD/svg11.dtd">
<!-- Generated by graphviz version 2.38.0 (20140413.2041)
 -->
<!-- Title: torcomxtunnel.h Pages: 1 -->
<svg width="486pt" height="252pt"
 viewBox="0.00 0.00 485.94 252.00" xmlns="http://www.w3.org/2000/svg" xmlns:xlink="http://www.w3.org/1999/xlink">
<g id="graph0" class="graph" transform="scale(1 1) rotate(0) translate(4 248)">
<title>torcomxtunnel.h</title>
<polygon fill="white" stroke="none" points="-4,4 -4,-248 481.939,-248 481.939,4 -4,4"/>
<!-- Node1 -->
<g id="node1" class="node"><title>Node1</title>
<polygon fill="#bfbfbf" stroke="black" points="225,-224.5 225,-243.5 320,-243.5 320,-224.5 225,-224.5"/>
<text text-anchor="middle" x="272.5" y="-231.5" font-family="Helvetica,sans-Serif" font-size="10.00">torcomxtunnel.h</text>
</g>
<!-- Node2 -->
<g id="node2" class="node"><title>Node2</title>
<polygon fill="white" stroke="#bfbfbf" points="113,-56.5 113,-75.5 166,-75.5 166,-56.5 113,-56.5"/>
<text text-anchor="middle" x="139.5" y="-63.5" font-family="Helvetica,sans-Serif" font-size="10.00">QMutex</text>
</g>
<!-- Node1&#45;&gt;Node2 -->
<g id="edge1" class="edge"><title>Node1&#45;&gt;Node2</title>
<path fill="none" stroke="midnightblue" d="M253.635,-224.433C224.407,-210.03 169.002,-177.962 144.5,-132 136.93,-117.799 136.226,-99.3211 137.097,-85.6981"/>
<polygon fill="midnightblue" stroke="midnightblue" points="140.595,-85.8899 138.083,-75.5972 133.628,-85.21 140.595,-85.8899"/>
</g>
<!-- Node3 -->
<g id="node3" class="node"><title>Node3</title>
<g id="a_node3"><a xlink:href="../../d7/df9/torcomxcore_8h.html" target="_top" xlink:title="torcomxcore.h">
<polygon fill="white" stroke="black" points="8.5,-56.5 8.5,-75.5 94.5,-75.5 94.5,-56.5 8.5,-56.5"/>
<text text-anchor="middle" x="51.5" y="-63.5" font-family="Helvetica,sans-Serif" font-size="10.00">torcomxcore.h</text>
</a>
</g>
</g>
<!-- Node1&#45;&gt;Node3 -->
<g id="edge2" class="edge"><title>Node1&#45;&gt;Node3</title>
<path fill="none" stroke="midnightblue" d="M245.215,-224.345C223.555,-216.73 193.095,-204.314 169.5,-188 125.457,-157.549 84.2453,-109.027 64.208,-83.6708"/>
<polygon fill="midnightblue" stroke="midnightblue" points="66.9369,-81.4785 58.0336,-75.7355 61.4123,-85.7772 66.9369,-81.4785"/>
</g>
<!-- Node6 -->
<g id="node6" class="node"><title>Node6</title>
<polygon fill="white" stroke="#bfbfbf" points="300,-0.5 300,-19.5 375,-19.5 375,-0.5 300,-0.5"/>
<text text-anchor="middle" x="337.5" y="-7.5" font-family="Helvetica,sans-Serif" font-size="10.00">OMX_Core.h</text>
</g>
<!-- Node1&#45;&gt;Node6 -->
<g id="edge20" class="edge"><title>Node1&#45;&gt;Node6</title>
<path fill="none" stroke="midnightblue" d="M320.041,-226.133C350.763,-219.95 390.466,-208.547 420.5,-188 446.624,-170.128 453.622,-161.724 464.5,-132 476.113,-100.269 486.066,-83.548 466.5,-56 448.212,-30.2518 414.051,-19.1142 385.476,-14.3543"/>
<polygon fill="midnightblue" stroke="midnightblue" points="385.639,-10.8415 375.241,-12.8739 384.637,-17.7694 385.639,-10.8415"/>
</g>
<!-- Node7 -->
<g id="node7" class="node"><title>Node7</title>
<g id="a_node7"><a xlink:href="../../d1/de8/torcomxport_8h.html" target="_top" xlink:title="torcomxport.h">
<polygon fill="white" stroke="black" points="270,-168.5 270,-187.5 355,-187.5 355,-168.5 270,-168.5"/>
<text text-anchor="middle" x="312.5" y="-175.5" font-family="Helvetica,sans-Serif" font-size="10.00">torcomxport.h</text>
</a>
</g>
</g>
<!-- Node1&#45;&gt;Node7 -->
<g id="edge6" class="edge"><title>Node1&#45;&gt;Node7</title>
<path fill="none" stroke="midnightblue" d="M279.105,-224.083C284.755,-216.455 293.045,-205.264 299.951,-195.941"/>
<polygon fill="midnightblue" stroke="midnightblue" points="302.878,-197.87 306.018,-187.751 297.253,-193.703 302.878,-197.87"/>
</g>
<!-- Node10 -->
<g id="node10" class="node"><title>Node10</title>
<g id="a_node10"><a xlink:href="../../d3/de4/torcomxcomponent_8h.html" target="_top" xlink:title="torcomxcomponent.h">
<polygon fill="white" stroke="black" points="169.5,-112.5 169.5,-131.5 289.5,-131.5 289.5,-112.5 169.5,-112.5"/>
<text text-anchor="middle" x="229.5" y="-119.5" font-family="Helvetica,sans-Serif" font-size="10.00">torcomxcomponent.h</text>
</a>
</g>
</g>
<!-- Node1&#45;&gt;Node10 -->
<g id="edge19" class="edge"><title>Node1&#45;&gt;Node10</title>
<path fill="none" stroke="midnightblue" d="M269.126,-224.368C262.124,-206.456 245.888,-164.923 236.516,-140.948"/>
<polygon fill="midnightblue" stroke="midnightblue" points="239.759,-139.631 232.858,-131.591 233.24,-142.179 239.759,-139.631"/>
</g>
<!-- Node11 -->
<g id="node11" class="node"><title>Node11</title>
<polygon fill="white" stroke="#bfbfbf" points="330,-56.5 330,-75.5 439,-75.5 439,-56.5 330,-56.5"/>
<text text-anchor="middle" x="384.5" y="-63.5" font-family="Helvetica,sans-Serif" font-size="10.00">OMX_Component.h</text>
</g>
<!-- Node1&#45;&gt;Node11 -->
<g id="edge21" class="edge"><title>Node1&#45;&gt;Node11</title>
<path fill="none" stroke="midnightblue" d="M308.75,-224.423C351.402,-212.124 420.013,-184.881 448.5,-132 459.804,-111.017 435.697,-92.2401 413.909,-80.3279"/>
<polygon fill="midnightblue" stroke="midnightblue" points="415.316,-77.1162 404.823,-75.6564 412.116,-83.3416 415.316,-77.1162"/>
</g>
<!-- Node4 -->
<g id="node4" class="node"><title>Node4</title>
<polygon fill="white" stroke="#bfbfbf" points="96.5,-0.5 96.5,-19.5 152.5,-19.5 152.5,-0.5 96.5,-0.5"/>
<text text-anchor="middle" x="124.5" y="-7.5" font-family="Helvetica,sans-Serif" font-size="10.00">QLibrary</text>
</g>
<!-- Node3&#45;&gt;Node4 -->
<g id="edge3" class="edge"><title>Node3&#45;&gt;Node4</title>
<path fill="none" stroke="midnightblue" d="M63.2287,-56.324C74.3374,-48.1066 91.2422,-35.6017 104.483,-25.8069"/>
<polygon fill="midnightblue" stroke="midnightblue" points="106.6,-28.5948 112.558,-19.8339 102.437,-22.9671 106.6,-28.5948"/>
</g>
<!-- Node5 -->
<g id="node5" class="node"><title>Node5</title>
<polygon fill="white" stroke="#bfbfbf" points="0,-0.5 0,-19.5 79,-19.5 79,-0.5 0,-0.5"/>
<text text-anchor="middle" x="39.5" y="-7.5" font-family="Helvetica,sans-Serif" font-size="10.00">OMX_Types.h</text>
</g>
<!-- Node3&#45;&gt;Node5 -->
<g id="edge4" class="edge"><title>Node3&#45;&gt;Node5</title>
<path fill="none" stroke="midnightblue" d="M49.5184,-56.083C47.9283,-48.9272 45.6412,-38.6353 43.6536,-29.6911"/>
<polygon fill="midnightblue" stroke="midnightblue" points="47.0307,-28.7537 41.4447,-19.7511 40.1974,-30.2722 47.0307,-28.7537"/>
</g>
<!-- Node3&#45;&gt;Node6 -->
<g id="edge5" class="edge"><title>Node3&#45;&gt;Node6</title>
<path fill="none" stroke="midnightblue" d="M94.6267,-56.8572C147.11,-46.9478 235.441,-30.2699 289.878,-19.9915"/>
<polygon fill="midnightblue" stroke="midnightblue" points="290.785,-23.3822 299.962,-18.0875 289.487,-16.5037 290.785,-23.3822"/>
</g>
<!-- Node7&#45;&gt;Node2 -->
<g id="edge7" class="edge"><title>Node7&#45;&gt;Node2</title>
<path fill="none" stroke="midnightblue" d="M269.734,-174.918C235.902,-171.04 189.654,-160.444 160.5,-132 148.176,-119.976 143.076,-100.684 140.97,-86.2346"/>
<polygon fill="midnightblue" stroke="midnightblue" points="144.409,-85.4771 139.843,-75.9166 137.45,-86.2377 144.409,-85.4771"/>
</g>
<!-- Node7&#45;&gt;Node3 -->
<g id="edge10" class="edge"><title>Node7&#45;&gt;Node3</title>
<path fill="none" stroke="midnightblue" d="M269.657,-169.804C234.831,-162.959 185.01,-150.867 144.5,-132 116.11,-118.778 87.1141,-96.9093 69.2141,-82.2331"/>
<polygon fill="midnightblue" stroke="midnightblue" points="71.2866,-79.4039 61.3694,-75.6757 66.7971,-84.7746 71.2866,-79.4039"/>
</g>
<!-- Node7&#45;&gt;Node6 -->
<g id="edge17" class="edge"><title>Node7&#45;&gt;Node6</title>
<path fill="none" stroke="midnightblue" d="M355.122,-175.443C386.556,-171.786 427.382,-161.231 448.5,-132 456.408,-121.053 468.155,-86.18 447.5,-56 433.339,-35.3085 407.837,-24.1212 384.951,-18.0775"/>
<polygon fill="midnightblue" stroke="midnightblue" points="385.546,-14.6215 375.008,-15.7182 383.93,-21.4324 385.546,-14.6215"/>
</g>
<!-- Node8 -->
<g id="node8" class="node"><title>Node8</title>
<polygon fill="white" stroke="#bfbfbf" points="383.5,-112.5 383.5,-131.5 439.5,-131.5 439.5,-112.5 383.5,-112.5"/>
<text text-anchor="middle" x="411.5" y="-119.5" font-family="Helvetica,sans-Serif" font-size="10.00">QQueue</text>
</g>
<!-- Node7&#45;&gt;Node8 -->
<g id="edge8" class="edge"><title>Node7&#45;&gt;Node8</title>
<path fill="none" stroke="midnightblue" d="M328.406,-168.324C344.138,-159.743 368.442,-146.486 386.709,-136.522"/>
<polygon fill="midnightblue" stroke="midnightblue" points="388.53,-139.516 395.633,-131.655 385.178,-133.37 388.53,-139.516"/>
</g>
<!-- Node9 -->
<g id="node9" class="node"><title>Node9</title>
<polygon fill="white" stroke="#bfbfbf" points="223,-56.5 223,-75.5 312,-75.5 312,-56.5 223,-56.5"/>
<text text-anchor="middle" x="267.5" y="-63.5" font-family="Helvetica,sans-Serif" font-size="10.00">QWaitCondition</text>
</g>
<!-- Node7&#45;&gt;Node9 -->
<g id="edge9" class="edge"><title>Node7&#45;&gt;Node9</title>
<path fill="none" stroke="midnightblue" d="M311.709,-168.259C310.313,-155.461 306.738,-131.075 298.5,-112 294.136,-101.894 287.359,-91.7051 281.254,-83.5838"/>
<polygon fill="midnightblue" stroke="midnightblue" points="283.972,-81.3791 275.038,-75.685 278.471,-85.708 283.972,-81.3791"/>
</g>
<!-- Node7&#45;&gt;Node10 -->
<g id="edge11" class="edge"><title>Node7&#45;&gt;Node10</title>
<path fill="none" stroke="midnightblue" d="M299.165,-168.324C286.338,-159.979 266.715,-147.212 251.56,-137.352"/>
<polygon fill="midnightblue" stroke="midnightblue" points="253.093,-134.174 242.802,-131.655 249.276,-140.042 253.093,-134.174"/>
</g>
<!-- Node7&#45;&gt;Node11 -->
<g id="edge18" class="edge"><title>Node7&#45;&gt;Node11</title>
<path fill="none" stroke="midnightblue" d="M318.15,-168.368C330.032,-150.215 357.794,-107.802 373.379,-83.9902"/>
<polygon fill="midnightblue" stroke="midnightblue" points="376.328,-85.8753 378.877,-75.5914 370.471,-82.0416 376.328,-85.8753"/>
</g>
<!-- Node10&#45;&gt;Node2 -->
<g id="edge12" class="edge"><title>Node10&#45;&gt;Node2</title>
<path fill="none" stroke="midnightblue" d="M215.04,-112.324C201,-103.9 179.452,-90.9709 162.957,-81.0741"/>
<polygon fill="midnightblue" stroke="midnightblue" points="164.3,-77.7983 153.924,-75.6545 160.698,-83.8007 164.3,-77.7983"/>
</g>
<!-- Node10&#45;&gt;Node3 -->
<g id="edge14" class="edge"><title>Node10&#45;&gt;Node3</title>
<path fill="none" stroke="midnightblue" d="M201.295,-112.444C171.09,-103.28 122.989,-88.6876 89.4707,-78.5192"/>
<polygon fill="midnightblue" stroke="midnightblue" points="90.1581,-75.0703 79.5727,-75.5164 88.1259,-81.7688 90.1581,-75.0703"/>
</g>
<!-- Node10&#45;&gt;Node6 -->
<g id="edge15" class="edge"><title>Node10&#45;&gt;Node6</title>
<path fill="none" stroke="midnightblue" d="M223.219,-112.188C214.568,-98.8664 201.36,-73.3204 213.5,-56 230.634,-31.5551 262.467,-20.3369 289.589,-15.2137"/>
<polygon fill="midnightblue" stroke="midnightblue" points="290.42,-18.6237 299.712,-13.5337 289.274,-11.7181 290.42,-18.6237"/>
</g>
<!-- Node10&#45;&gt;Node9 -->
<g id="edge13" class="edge"><title>Node10&#45;&gt;Node9</title>
<path fill="none" stroke="midnightblue" d="M235.775,-112.083C241.142,-104.455 249.018,-93.2645 255.579,-83.9408"/>
<polygon fill="midnightblue" stroke="midnightblue" points="258.449,-85.9434 261.342,-75.7511 252.725,-81.9149 258.449,-85.9434"/>
</g>
<!-- Node10&#45;&gt;Node11 -->
<g id="edge16" class="edge"><title>Node10&#45;&gt;Node11</title>
<path fill="none" stroke="midnightblue" d="M254.06,-112.444C280.023,-103.399 321.168,-89.064 350.297,-78.9158"/>
<polygon fill="midnightblue" stroke="midnightblue" points="351.763,-82.1116 360.055,-75.5164 349.46,-75.5013 351.763,-82.1116"/>
</g>
</g>
</svg>
