<?xml version="1.0" encoding="UTF-8" standalone="no"?>
<!DOCTYPE svg PUBLIC "-//W3C//DTD SVG 1.1//EN"
 "http://www.w3.org/Graphics/SVG/1.1/DTD/svg11.dtd">
<!-- Generated by graphviz version 2.38.0 (20140413.2041)
 -->
<!-- Title: torcnotify.cpp Pages: 1 -->
<svg width="976pt" height="364pt"
 viewBox="0.00 0.00 976.00 364.00" xmlns="http://www.w3.org/2000/svg" xmlns:xlink="http://www.w3.org/1999/xlink">
<g id="graph0" class="graph" transform="scale(1 1) rotate(0) translate(4 360)">
<title>torcnotify.cpp</title>
<polygon fill="white" stroke="none" points="-4,4 -4,-360 972,-360 972,4 -4,4"/>
<!-- Node1 -->
<g id="node1" class="node"><title>Node1</title>
<polygon fill="#bfbfbf" stroke="black" points="300.5,-336.5 300.5,-355.5 380.5,-355.5 380.5,-336.5 300.5,-336.5"/>
<text text-anchor="middle" x="340.5" y="-343.5" font-family="Helvetica,sans-Serif" font-size="10.00">torcnotify.cpp</text>
</g>
<!-- Node2 -->
<g id="node2" class="node"><title>Node2</title>
<polygon fill="white" stroke="#bfbfbf" points="0,-280.5 0,-299.5 99,-299.5 99,-280.5 0,-280.5"/>
<text text-anchor="middle" x="49.5" y="-287.5" font-family="Helvetica,sans-Serif" font-size="10.00">QCoreApplication</text>
</g>
<!-- Node1&#45;&gt;Node2 -->
<g id="edge1" class="edge"><title>Node1&#45;&gt;Node2</title>
<path fill="none" stroke="midnightblue" d="M300.343,-337.548C249.746,-328.159 162.517,-311.972 105.419,-301.377"/>
<polygon fill="midnightblue" stroke="midnightblue" points="105.945,-297.915 95.4743,-299.531 104.668,-304.797 105.945,-297.915"/>
</g>
<!-- Node3 -->
<g id="node3" class="node"><title>Node3</title>
<polygon fill="white" stroke="#bfbfbf" points="101.5,-0.5 101.5,-19.5 193.5,-19.5 193.5,-0.5 101.5,-0.5"/>
<text text-anchor="middle" x="147.5" y="-7.5" font-family="Helvetica,sans-Serif" font-size="10.00">QReadWriteLock</text>
</g>
<!-- Node1&#45;&gt;Node3 -->
<g id="edge2" class="edge"><title>Node1&#45;&gt;Node3</title>
<path fill="none" stroke="midnightblue" d="M300.436,-342.077C238.735,-335.154 127.5,-311.996 127.5,-235 127.5,-235 127.5,-235 127.5,-121 127.5,-88.4377 136.088,-51.3152 142.009,-29.5922"/>
<polygon fill="midnightblue" stroke="midnightblue" points="145.442,-30.3175 144.803,-19.7419 138.707,-28.4076 145.442,-30.3175"/>
</g>
<!-- Node4 -->
<g id="node4" class="node"><title>Node4</title>
<polygon fill="white" stroke="#bfbfbf" points="393,-280.5 393,-299.5 464,-299.5 464,-280.5 393,-280.5"/>
<text text-anchor="middle" x="428.5" y="-287.5" font-family="Helvetica,sans-Serif" font-size="10.00">QDateTime</text>
</g>
<!-- Node1&#45;&gt;Node4 -->
<g id="edge3" class="edge"><title>Node1&#45;&gt;Node4</title>
<path fill="none" stroke="midnightblue" d="M354.639,-336.324C368.366,-327.9 389.436,-314.971 405.564,-305.074"/>
<polygon fill="midnightblue" stroke="midnightblue" points="407.704,-307.868 414.396,-299.655 404.043,-301.902 407.704,-307.868"/>
</g>
<!-- Node5 -->
<g id="node5" class="node"><title>Node5</title>
<g id="a_node5"><a xlink:href="../../d4/df9/torclogging_8h.html" target="_top" xlink:title="torclogging.h">
<polygon fill="white" stroke="black" points="786,-280.5 786,-299.5 865,-299.5 865,-280.5 786,-280.5"/>
<text text-anchor="middle" x="825.5" y="-287.5" font-family="Helvetica,sans-Serif" font-size="10.00">torclogging.h</text>
</a>
</g>
</g>
<!-- Node1&#45;&gt;Node5 -->
<g id="edge4" class="edge"><title>Node1&#45;&gt;Node5</title>
<path fill="none" stroke="midnightblue" d="M380.602,-340.535C468.739,-330.722 679.13,-307.297 775.61,-296.555"/>
<polygon fill="midnightblue" stroke="midnightblue" points="776.14,-300.018 785.691,-295.432 775.365,-293.06 776.14,-300.018"/>
</g>
<!-- Node9 -->
<g id="node9" class="node"><title>Node9</title>
<g id="a_node9"><a xlink:href="../../d3/dca/torcnotify_8h.html" target="_top" xlink:title="torcnotify.h">
<polygon fill="white" stroke="black" points="306,-280.5 306,-299.5 375,-299.5 375,-280.5 306,-280.5"/>
<text text-anchor="middle" x="340.5" y="-287.5" font-family="Helvetica,sans-Serif" font-size="10.00">torcnotify.h</text>
</a>
</g>
</g>
<!-- Node1&#45;&gt;Node9 -->
<g id="edge8" class="edge"><title>Node1&#45;&gt;Node9</title>
<path fill="none" stroke="midnightblue" d="M340.5,-336.083C340.5,-329.006 340.5,-318.861 340.5,-309.986"/>
<polygon fill="midnightblue" stroke="midnightblue" points="344,-309.751 340.5,-299.751 337,-309.751 344,-309.751"/>
</g>
<!-- Node6 -->
<g id="node6" class="node"><title>Node6</title>
<polygon fill="white" stroke="#bfbfbf" points="846,-224.5 846,-243.5 899,-243.5 899,-224.5 846,-224.5"/>
<text text-anchor="middle" x="872.5" y="-231.5" font-family="Helvetica,sans-Serif" font-size="10.00">stdint.h</text>
</g>
<!-- Node5&#45;&gt;Node6 -->
<g id="edge5" class="edge"><title>Node5&#45;&gt;Node6</title>
<path fill="none" stroke="midnightblue" d="M833.261,-280.083C840.037,-272.298 850.043,-260.801 858.255,-251.367"/>
<polygon fill="midnightblue" stroke="midnightblue" points="860.958,-253.592 864.883,-243.751 855.678,-248.996 860.958,-253.592"/>
</g>
<!-- Node7 -->
<g id="node7" class="node"><title>Node7</title>
<polygon fill="white" stroke="#bfbfbf" points="917,-224.5 917,-243.5 968,-243.5 968,-224.5 917,-224.5"/>
<text text-anchor="middle" x="942.5" y="-231.5" font-family="Helvetica,sans-Serif" font-size="10.00">errno.h</text>
</g>
<!-- Node5&#45;&gt;Node7 -->
<g id="edge6" class="edge"><title>Node5&#45;&gt;Node7</title>
<path fill="none" stroke="midnightblue" d="M844.039,-280.444C863.123,-271.636 893.075,-257.812 914.936,-247.722"/>
<polygon fill="midnightblue" stroke="midnightblue" points="916.435,-250.885 924.048,-243.516 913.501,-244.529 916.435,-250.885"/>
</g>
<!-- Node8 -->
<g id="node8" class="node"><title>Node8</title>
<g id="a_node8"><a xlink:href="../../d1/d37/torcloggingdefs_8h.html" target="_top" xlink:title="torcloggingdefs.h">
<polygon fill="white" stroke="black" points="729,-224.5 729,-243.5 828,-243.5 828,-224.5 729,-224.5"/>
<text text-anchor="middle" x="778.5" y="-231.5" font-family="Helvetica,sans-Serif" font-size="10.00">torcloggingdefs.h</text>
</a>
</g>
</g>
<!-- Node5&#45;&gt;Node8 -->
<g id="edge7" class="edge"><title>Node5&#45;&gt;Node8</title>
<path fill="none" stroke="midnightblue" d="M817.739,-280.083C810.963,-272.298 800.957,-260.801 792.745,-251.367"/>
<polygon fill="midnightblue" stroke="midnightblue" points="795.322,-248.996 786.117,-243.751 790.042,-253.592 795.322,-248.996"/>
</g>
<!-- Node10 -->
<g id="node10" class="node"><title>Node10</title>
<polygon fill="white" stroke="#bfbfbf" points="633.5,-0.5 633.5,-19.5 691.5,-19.5 691.5,-0.5 633.5,-0.5"/>
<text text-anchor="middle" x="662.5" y="-7.5" font-family="Helvetica,sans-Serif" font-size="10.00">QVariant</text>
</g>
<!-- Node9&#45;&gt;Node10 -->
<g id="edge9" class="edge"><title>Node9&#45;&gt;Node10</title>
<path fill="none" stroke="midnightblue" d="M374.368,-280.477C463.985,-257.691 700.5,-195.951 700.5,-179 700.5,-179 700.5,-179 700.5,-121 700.5,-86.8131 683.9,-49.7639 672.643,-28.5707"/>
<polygon fill="midnightblue" stroke="midnightblue" points="675.681,-26.832 667.784,-19.769 669.553,-30.2151 675.681,-26.832"/>
</g>
<!-- Node11 -->
<g id="node11" class="node"><title>Node11</title>
<g id="a_node11"><a xlink:href="../../d2/d5b/torcdevicehandler_8h.html" target="_top" xlink:title="torcdevicehandler.h">
<polygon fill="white" stroke="black" points="155.5,-56.5 155.5,-75.5 265.5,-75.5 265.5,-56.5 155.5,-56.5"/>
<text text-anchor="middle" x="210.5" y="-63.5" font-family="Helvetica,sans-Serif" font-size="10.00">torcdevicehandler.h</text>
</a>
</g>
</g>
<!-- Node9&#45;&gt;Node11 -->
<g id="edge10" class="edge"><title>Node9&#45;&gt;Node11</title>
<path fill="none" stroke="midnightblue" d="M325.355,-280.397C312.456,-272.407 294.203,-259.438 282.5,-244 244.149,-193.409 222.901,-119.547 214.617,-85.4757"/>
<polygon fill="midnightblue" stroke="midnightblue" points="217.979,-84.481 212.299,-75.5376 211.162,-86.0713 217.979,-84.481"/>
</g>
<!-- Node14 -->
<g id="node14" class="node"><title>Node14</title>
<g id="a_node14"><a xlink:href="../../da/dea/torcnotification_8h.html" target="_top" xlink:title="torcnotification.h">
<polygon fill="white" stroke="black" points="292,-224.5 292,-243.5 389,-243.5 389,-224.5 292,-224.5"/>
<text text-anchor="middle" x="340.5" y="-231.5" font-family="Helvetica,sans-Serif" font-size="10.00">torcnotification.h</text>
</a>
</g>
</g>
<!-- Node9&#45;&gt;Node14 -->
<g id="edge15" class="edge"><title>Node9&#45;&gt;Node14</title>
<path fill="none" stroke="midnightblue" d="M340.5,-280.083C340.5,-273.006 340.5,-262.861 340.5,-253.986"/>
<polygon fill="midnightblue" stroke="midnightblue" points="344,-253.751 340.5,-243.751 337,-253.751 344,-253.751"/>
</g>
<!-- Node20 -->
<g id="node20" class="node"><title>Node20</title>
<g id="a_node20"><a xlink:href="../../db/df1/torcnotifier_8h.html" target="_top" xlink:title="torcnotifier.h">
<polygon fill="white" stroke="black" points="374,-168.5 374,-187.5 451,-187.5 451,-168.5 374,-168.5"/>
<text text-anchor="middle" x="412.5" y="-175.5" font-family="Helvetica,sans-Serif" font-size="10.00">torcnotifier.h</text>
</a>
</g>
</g>
<!-- Node9&#45;&gt;Node20 -->
<g id="edge27" class="edge"><title>Node9&#45;&gt;Node20</title>
<path fill="none" stroke="midnightblue" d="M356.519,-280.461C369.55,-272.68 387.38,-259.976 397.5,-244 406.312,-230.089 409.963,-211.579 411.467,-197.87"/>
<polygon fill="midnightblue" stroke="midnightblue" points="414.973,-197.94 412.292,-187.69 407.995,-197.375 414.973,-197.94"/>
</g>
<!-- Node11&#45;&gt;Node3 -->
<g id="edge13" class="edge"><title>Node11&#45;&gt;Node3</title>
<path fill="none" stroke="midnightblue" d="M200.378,-56.324C190.974,-48.2631 176.756,-36.0765 165.431,-26.3695"/>
<polygon fill="midnightblue" stroke="midnightblue" points="167.677,-23.6844 157.806,-19.8339 163.121,-28.9993 167.677,-23.6844"/>
</g>
<!-- Node11&#45;&gt;Node10 -->
<g id="edge14" class="edge"><title>Node11&#45;&gt;Node10</title>
<path fill="none" stroke="midnightblue" d="M265.74,-60.0746C343.532,-52.8561 489.703,-38.2577 613.5,-20 616.709,-19.5268 620.029,-18.9991 623.359,-18.443"/>
<polygon fill="midnightblue" stroke="midnightblue" points="624.026,-21.8796 633.277,-16.7158 622.825,-14.9834 624.026,-21.8796"/>
</g>
<!-- Node12 -->
<g id="node12" class="node"><title>Node12</title>
<polygon fill="white" stroke="#bfbfbf" points="231,-0.5 231,-19.5 280,-19.5 280,-0.5 231,-0.5"/>
<text text-anchor="middle" x="255.5" y="-7.5" font-family="Helvetica,sans-Serif" font-size="10.00">QHash</text>
</g>
<!-- Node11&#45;&gt;Node12 -->
<g id="edge11" class="edge"><title>Node11&#45;&gt;Node12</title>
<path fill="none" stroke="midnightblue" d="M217.931,-56.083C224.353,-48.3768 233.806,-37.0333 241.622,-27.6531"/>
<polygon fill="midnightblue" stroke="midnightblue" points="244.494,-29.674 248.207,-19.7511 239.117,-25.1927 244.494,-29.674"/>
</g>
<!-- Node13 -->
<g id="node13" class="node"><title>Node13</title>
<polygon fill="white" stroke="#bfbfbf" points="374,-0.5 374,-19.5 427,-19.5 427,-0.5 374,-0.5"/>
<text text-anchor="middle" x="400.5" y="-7.5" font-family="Helvetica,sans-Serif" font-size="10.00">QMutex</text>
</g>
<!-- Node11&#45;&gt;Node13 -->
<g id="edge12" class="edge"><title>Node11&#45;&gt;Node13</title>
<path fill="none" stroke="midnightblue" d="M240.606,-56.4435C274.034,-46.9429 327.997,-31.6061 363.855,-21.415"/>
<polygon fill="midnightblue" stroke="midnightblue" points="365.245,-24.6586 373.907,-18.558 363.331,-17.9252 365.245,-24.6586"/>
</g>
<!-- Node15 -->
<g id="node15" class="node"><title>Node15</title>
<g id="a_node15"><a xlink:href="../../d1/df7/torcdevice_8h.html" target="_top" xlink:title="torcdevice.h">
<polygon fill="white" stroke="black" points="331,-112.5 331,-131.5 406,-131.5 406,-112.5 331,-112.5"/>
<text text-anchor="middle" x="368.5" y="-119.5" font-family="Helvetica,sans-Serif" font-size="10.00">torcdevice.h</text>
</a>
</g>
</g>
<!-- Node14&#45;&gt;Node15 -->
<g id="edge16" class="edge"><title>Node14&#45;&gt;Node15</title>
<path fill="none" stroke="midnightblue" d="M342.697,-224.368C347.216,-206.617 357.639,-165.666 363.766,-141.597"/>
<polygon fill="midnightblue" stroke="midnightblue" points="367.238,-142.146 366.313,-131.591 360.454,-140.419 367.238,-142.146"/>
</g>
<!-- Node14&#45;&gt;Node20 -->
<g id="edge24" class="edge"><title>Node14&#45;&gt;Node20</title>
<path fill="none" stroke="midnightblue" d="M352.068,-224.324C362.92,-216.185 379.381,-203.839 392.383,-194.087"/>
<polygon fill="midnightblue" stroke="midnightblue" points="394.821,-196.634 400.721,-187.834 390.621,-191.034 394.821,-196.634"/>
</g>
<!-- Node15&#45;&gt;Node11 -->
<g id="edge23" class="edge"><title>Node15&#45;&gt;Node11</title>
<path fill="none" stroke="midnightblue" d="M343.464,-112.444C316.884,-103.359 274.691,-88.9388 244.977,-78.7831"/>
<polygon fill="midnightblue" stroke="midnightblue" points="246.013,-75.4386 235.418,-75.5164 243.749,-82.0625 246.013,-75.4386"/>
</g>
<!-- Node15&#45;&gt;Node12 -->
<g id="edge17" class="edge"><title>Node15&#45;&gt;Node12</title>
<path fill="none" stroke="midnightblue" d="M356.42,-112.258C344.727,-103.578 326.731,-89.6315 312.5,-76 296.496,-60.6698 279.991,-41.3999 268.887,-27.835"/>
<polygon fill="midnightblue" stroke="midnightblue" points="271.437,-25.422 262.43,-19.8436 265.992,-29.8215 271.437,-25.422"/>
</g>
<!-- Node15&#45;&gt;Node13 -->
<g id="edge18" class="edge"><title>Node15&#45;&gt;Node13</title>
<path fill="none" stroke="midnightblue" d="M404.352,-112.397C423.381,-105.81 445.127,-94.5894 456.5,-76 468.364,-56.6076 446.177,-37.2345 426.323,-24.7506"/>
<polygon fill="midnightblue" stroke="midnightblue" points="427.884,-21.6074 417.496,-19.5242 424.318,-27.6308 427.884,-21.6074"/>
</g>
<!-- Node16 -->
<g id="node16" class="node"><title>Node16</title>
<polygon fill="white" stroke="#bfbfbf" points="322,-56.5 322,-75.5 375,-75.5 375,-56.5 322,-56.5"/>
<text text-anchor="middle" x="348.5" y="-63.5" font-family="Helvetica,sans-Serif" font-size="10.00">QString</text>
</g>
<!-- Node15&#45;&gt;Node16 -->
<g id="edge19" class="edge"><title>Node15&#45;&gt;Node16</title>
<path fill="none" stroke="midnightblue" d="M365.197,-112.083C362.518,-104.849 358.651,-94.4087 355.314,-85.3968"/>
<polygon fill="midnightblue" stroke="midnightblue" points="358.496,-83.9129 351.741,-75.7511 351.932,-86.3442 358.496,-83.9129"/>
</g>
<!-- Node17 -->
<g id="node17" class="node"><title>Node17</title>
<polygon fill="white" stroke="#bfbfbf" points="393,-56.5 393,-75.5 448,-75.5 448,-56.5 393,-56.5"/>
<text text-anchor="middle" x="420.5" y="-63.5" font-family="Helvetica,sans-Serif" font-size="10.00">QObject</text>
</g>
<!-- Node15&#45;&gt;Node17 -->
<g id="edge20" class="edge"><title>Node15&#45;&gt;Node17</title>
<path fill="none" stroke="midnightblue" d="M377.087,-112.083C384.659,-104.22 395.878,-92.5688 405.014,-83.0813"/>
<polygon fill="midnightblue" stroke="midnightblue" points="407.658,-85.3821 412.073,-75.7511 402.615,-80.5266 407.658,-85.3821"/>
</g>
<!-- Node18 -->
<g id="node18" class="node"><title>Node18</title>
<g id="a_node18"><a xlink:href="../../d8/dfe/torcreferencecounted_8h.html" target="_top" xlink:title="torcreferencecounted.h">
<polygon fill="white" stroke="black" points="505,-56.5 505,-75.5 634,-75.5 634,-56.5 505,-56.5"/>
<text text-anchor="middle" x="569.5" y="-63.5" font-family="Helvetica,sans-Serif" font-size="10.00">torcreferencecounted.h</text>
</a>
</g>
</g>
<!-- Node15&#45;&gt;Node18 -->
<g id="edge21" class="edge"><title>Node15&#45;&gt;Node18</title>
<path fill="none" stroke="midnightblue" d="M400.349,-112.444C434.898,-103.162 490.182,-88.3093 528.083,-78.127"/>
<polygon fill="midnightblue" stroke="midnightblue" points="529.051,-81.4912 537.8,-75.5164 527.234,-74.7309 529.051,-81.4912"/>
</g>
<!-- Node19 -->
<g id="node19" class="node"><title>Node19</title>
<polygon fill="white" stroke="#bfbfbf" points="534.5,-0.5 534.5,-19.5 604.5,-19.5 604.5,-0.5 534.5,-0.5"/>
<text text-anchor="middle" x="569.5" y="-7.5" font-family="Helvetica,sans-Serif" font-size="10.00">QAtomicInt</text>
</g>
<!-- Node18&#45;&gt;Node19 -->
<g id="edge22" class="edge"><title>Node18&#45;&gt;Node19</title>
<path fill="none" stroke="midnightblue" d="M569.5,-56.083C569.5,-49.0059 569.5,-38.8611 569.5,-29.9865"/>
<polygon fill="midnightblue" stroke="midnightblue" points="573,-29.751 569.5,-19.7511 566,-29.7511 573,-29.751"/>
</g>
<!-- Node20&#45;&gt;Node10 -->
<g id="edge25" class="edge"><title>Node20&#45;&gt;Node10</title>
<path fill="none" stroke="midnightblue" d="M451.17,-170.52C502.515,-159.888 592.617,-133.839 643.5,-76 654.775,-63.1838 659.372,-43.9978 661.24,-29.7893"/>
<polygon fill="midnightblue" stroke="midnightblue" points="664.738,-29.9713 662.227,-19.6783 657.771,-29.2905 664.738,-29.9713"/>
</g>
<!-- Node20&#45;&gt;Node15 -->
<g id="edge26" class="edge"><title>Node20&#45;&gt;Node15</title>
<path fill="none" stroke="midnightblue" d="M405.234,-168.083C398.955,-160.377 389.712,-149.033 382.069,-139.653"/>
<polygon fill="midnightblue" stroke="midnightblue" points="384.661,-137.293 375.631,-131.751 379.234,-141.714 384.661,-137.293"/>
</g>
</g>
</svg>
