<?xml version="1.0" encoding="UTF-8" standalone="no"?>
<!DOCTYPE svg PUBLIC "-//W3C//DTD SVG 1.1//EN"
 "http://www.w3.org/Graphics/SVG/1.1/DTD/svg11.dtd">
<!-- Generated by graphviz version 2.38.0 (20140413.2041)
 -->
<!-- Title: torcadminthread.h Pages: 1 -->
<svg width="3233pt" height="252pt"
 viewBox="0.00 0.00 3233.00 252.00" xmlns="http://www.w3.org/2000/svg" xmlns:xlink="http://www.w3.org/1999/xlink">
<g id="graph0" class="graph" transform="scale(1 1) rotate(0) translate(4 248)">
<title>torcadminthread.h</title>
<polygon fill="white" stroke="none" points="-4,4 -4,-248 3229,-248 3229,4 -4,4"/>
<!-- Node1 -->
<g id="node1" class="node"><title>Node1</title>
<polygon fill="#bfbfbf" stroke="black" points="606,-224.5 606,-243.5 712,-243.5 712,-224.5 606,-224.5"/>
<text text-anchor="middle" x="659" y="-231.5" font-family="Helvetica,sans-Serif" font-size="10.00">torcadminthread.h</text>
</g>
<!-- Node2 -->
<g id="node2" class="node"><title>Node2</title>
<g id="a_node2"><a xlink:href="../../d8/d63/torc1wirebus_8cpp.html" target="_top" xlink:title="torc1wirebus.cpp">
<polygon fill="white" stroke="black" points="0,-168.5 0,-187.5 98,-187.5 98,-168.5 0,-168.5"/>
<text text-anchor="middle" x="49" y="-175.5" font-family="Helvetica,sans-Serif" font-size="10.00">torc1wirebus.cpp</text>
</a>
</g>
</g>
<!-- Node1&#45;&gt;Node2 -->
<g id="edge1" class="edge"><title>Node1&#45;&gt;Node2</title>
<path fill="none" stroke="midnightblue" d="M595.77,-229.343C493.031,-223.066 283.555,-208.867 107,-188 104.065,-187.653 101.051,-187.269 98.0134,-186.862"/>
<polygon fill="midnightblue" stroke="midnightblue" points="595.778,-232.85 605.972,-229.962 596.202,-225.863 595.778,-232.85"/>
</g>
<!-- Node3 -->
<g id="node3" class="node"><title>Node3</title>
<g id="a_node3"><a xlink:href="../../d1/d0c/torcinputs_8cpp.html" target="_top" xlink:title="torcinputs.cpp">
<polygon fill="white" stroke="black" points="116.5,-168.5 116.5,-187.5 201.5,-187.5 201.5,-168.5 116.5,-168.5"/>
<text text-anchor="middle" x="159" y="-175.5" font-family="Helvetica,sans-Serif" font-size="10.00">torcinputs.cpp</text>
</a>
</g>
</g>
<!-- Node1&#45;&gt;Node3 -->
<g id="edge2" class="edge"><title>Node1&#45;&gt;Node3</title>
<path fill="none" stroke="midnightblue" d="M595.565,-227.669C509.449,-220.177 350.815,-205.477 216,-188 211.33,-187.395 206.454,-186.708 201.605,-185.991"/>
<polygon fill="midnightblue" stroke="midnightblue" points="595.437,-231.17 605.701,-228.546 596.041,-224.196 595.437,-231.17"/>
</g>
<!-- Node4 -->
<g id="node4" class="node"><title>Node4</title>
<g id="a_node4"><a xlink:href="../../d1/d81/torccentral_8cpp.html" target="_top" xlink:title="torccentral.cpp">
<polygon fill="white" stroke="black" points="258.5,-112.5 258.5,-131.5 347.5,-131.5 347.5,-112.5 258.5,-112.5"/>
<text text-anchor="middle" x="303" y="-119.5" font-family="Helvetica,sans-Serif" font-size="10.00">torccentral.cpp</text>
</a>
</g>
</g>
<!-- Node1&#45;&gt;Node4 -->
<g id="edge3" class="edge"><title>Node1&#45;&gt;Node4</title>
<path fill="none" stroke="midnightblue" d="M595.525,-229.405C498.657,-223.268 323.088,-209.327 304,-188 290.151,-172.526 295.693,-145.717 299.906,-131.861"/>
<polygon fill="midnightblue" stroke="midnightblue" points="595.591,-232.916 605.789,-230.045 596.026,-225.93 595.591,-232.916"/>
</g>
<!-- Node5 -->
<g id="node5" class="node"><title>Node5</title>
<g id="a_node5"><a xlink:href="../../de/dc5/torchttpserver_8cpp.html" target="_top" xlink:title="torchttpserver.cpp">
<polygon fill="white" stroke="black" points="605,-0.5 605,-19.5 709,-19.5 709,-0.5 605,-0.5"/>
<text text-anchor="middle" x="657" y="-7.5" font-family="Helvetica,sans-Serif" font-size="10.00">torchttpserver.cpp</text>
</a>
</g>
</g>
<!-- Node1&#45;&gt;Node5 -->
<g id="edge4" class="edge"><title>Node1&#45;&gt;Node5</title>
<path fill="none" stroke="midnightblue" d="M595.619,-231.082C504.628,-227.353 342.384,-216.78 292,-188 264.752,-172.436 259.092,-161.713 249,-132 246.141,-123.583 243.522,-119 249,-112 292.681,-56.1875 504.983,-26.923 604.861,-16.0525"/>
<polygon fill="midnightblue" stroke="midnightblue" points="595.681,-234.587 605.811,-231.483 595.956,-227.593 595.681,-234.587"/>
</g>
<!-- Node6 -->
<g id="node6" class="node"><title>Node6</title>
<g id="a_node6"><a xlink:href="../../db/db6/torchttpservicetest_8cpp.html" target="_top" xlink:title="torchttpservicetest.cpp">
<polygon fill="white" stroke="black" points="313,-168.5 313,-187.5 441,-187.5 441,-168.5 313,-168.5"/>
<text text-anchor="middle" x="377" y="-175.5" font-family="Helvetica,sans-Serif" font-size="10.00">torchttpservicetest.cpp</text>
</a>
</g>
</g>
<!-- Node1&#45;&gt;Node6 -->
<g id="edge5" class="edge"><title>Node1&#45;&gt;Node6</title>
<path fill="none" stroke="midnightblue" d="M604.361,-222.537C551.065,-212.332 470.996,-196.999 421.475,-187.516"/>
<polygon fill="midnightblue" stroke="midnightblue" points="603.836,-226 614.316,-224.444 605.153,-219.125 603.836,-226"/>
</g>
<!-- Node7 -->
<g id="node7" class="node"><title>Node7</title>
<g id="a_node7"><a xlink:href="../../dd/d0f/torcomxtest_8cpp.html" target="_top" xlink:title="torcomxtest.cpp">
<polygon fill="white" stroke="black" points="459.5,-168.5 459.5,-187.5 554.5,-187.5 554.5,-168.5 459.5,-168.5"/>
<text text-anchor="middle" x="507" y="-175.5" font-family="Helvetica,sans-Serif" font-size="10.00">torcomxtest.cpp</text>
</a>
</g>
</g>
<!-- Node1&#45;&gt;Node7 -->
<g id="edge6" class="edge"><title>Node1&#45;&gt;Node7</title>
<path fill="none" stroke="midnightblue" d="M625.332,-221.039C596.732,-210.879 556.388,-196.546 530.972,-187.516"/>
<polygon fill="midnightblue" stroke="midnightblue" points="624.32,-224.394 634.915,-224.444 626.664,-217.798 624.32,-224.394"/>
</g>
<!-- Node8 -->
<g id="node8" class="node"><title>Node8</title>
<g id="a_node8"><a xlink:href="../../d7/d74/torcrunlooposx_8cpp.html" target="_top" xlink:title="torcrunlooposx.cpp">
<polygon fill="white" stroke="black" points="404,-112.5 404,-131.5 512,-131.5 512,-112.5 404,-112.5"/>
<text text-anchor="middle" x="458" y="-119.5" font-family="Helvetica,sans-Serif" font-size="10.00">torcrunlooposx.cpp</text>
</a>
</g>
</g>
<!-- Node1&#45;&gt;Node8 -->
<g id="edge7" class="edge"><title>Node1&#45;&gt;Node8</title>
<path fill="none" stroke="midnightblue" d="M646.638,-215.886C635.254,-201.264 617.12,-180.644 597,-168 568.114,-149.848 531.212,-138.348 502.691,-131.521"/>
<polygon fill="midnightblue" stroke="midnightblue" points="644.002,-218.204 652.811,-224.091 649.595,-213.996 644.002,-218.204"/>
</g>
<!-- Node9 -->
<g id="node9" class="node"><title>Node9</title>
<g id="a_node9"><a xlink:href="../../dd/dbd/torclocalcontext_8h.html" target="_top" xlink:title="torclocalcontext.h">
<polygon fill="white" stroke="black" points="1562,-168.5 1562,-187.5 1664,-187.5 1664,-168.5 1562,-168.5"/>
<text text-anchor="middle" x="1613" y="-175.5" font-family="Helvetica,sans-Serif" font-size="10.00">torclocalcontext.h</text>
</a>
</g>
</g>
<!-- Node1&#45;&gt;Node9 -->
<g id="edge8" class="edge"><title>Node1&#45;&gt;Node9</title>
<path fill="none" stroke="midnightblue" d="M722.57,-229.402C900.324,-219.34 1400.04,-191.054 1561.79,-181.899"/>
<polygon fill="midnightblue" stroke="midnightblue" points="722.122,-225.921 712.335,-229.981 722.517,-232.91 722.122,-225.921"/>
</g>
<!-- Node20 -->
<g id="node20" class="node"><title>Node20</title>
<g id="a_node20"><a xlink:href="../../d5/d95/torcadminthread_8cpp.html" target="_top" xlink:title="torcadminthread.cpp">
<polygon fill="white" stroke="black" points="530.5,-112.5 530.5,-131.5 647.5,-131.5 647.5,-112.5 530.5,-112.5"/>
<text text-anchor="middle" x="589" y="-119.5" font-family="Helvetica,sans-Serif" font-size="10.00">torcadminthread.cpp</text>
</a>
</g>
</g>
<!-- Node1&#45;&gt;Node20 -->
<g id="edge47" class="edge"><title>Node1&#45;&gt;Node20</title>
<path fill="none" stroke="midnightblue" d="M654.503,-214.392C650.675,-200.814 644.303,-182.353 635,-168 625.521,-153.375 610.513,-139.864 600.234,-131.54"/>
<polygon fill="midnightblue" stroke="midnightblue" points="651.216,-215.66 657.128,-224.452 657.99,-213.892 651.216,-215.66"/>
</g>
<!-- Node21 -->
<g id="node21" class="node"><title>Node21</title>
<g id="a_node21"><a xlink:href="../../dc/d96/torcbonjour_8cpp.html" target="_top" xlink:title="torcbonjour.cpp">
<polygon fill="white" stroke="black" points="2546.5,-112.5 2546.5,-131.5 2637.5,-131.5 2637.5,-112.5 2546.5,-112.5"/>
<text text-anchor="middle" x="2592" y="-119.5" font-family="Helvetica,sans-Serif" font-size="10.00">torcbonjour.cpp</text>
</a>
</g>
</g>
<!-- Node1&#45;&gt;Node21 -->
<g id="edge48" class="edge"><title>Node1&#45;&gt;Node21</title>
<path fill="none" stroke="midnightblue" d="M722.492,-232.401C961.411,-229.553 1828.89,-213.836 2538,-132 2540.74,-131.684 2543.55,-131.324 2546.38,-130.934"/>
<polygon fill="midnightblue" stroke="midnightblue" points="722.215,-228.904 712.256,-232.52 722.296,-235.904 722.215,-228.904"/>
</g>
<!-- Node24 -->
<g id="node24" class="node"><title>Node24</title>
<g id="a_node24"><a xlink:href="../../da/d9c/torcnetwork_8cpp.html" target="_top" xlink:title="torcnetwork.cpp">
<polygon fill="white" stroke="black" points="2655.5,-112.5 2655.5,-131.5 2748.5,-131.5 2748.5,-112.5 2655.5,-112.5"/>
<text text-anchor="middle" x="2702" y="-119.5" font-family="Helvetica,sans-Serif" font-size="10.00">torcnetwork.cpp</text>
</a>
</g>
</g>
<!-- Node1&#45;&gt;Node24 -->
<g id="edge49" class="edge"><title>Node1&#45;&gt;Node24</title>
<path fill="none" stroke="midnightblue" d="M722.408,-232.263C918.314,-229.7 1531.26,-219.539 2038,-188 2309.28,-171.116 2377.38,-166.413 2647,-132 2649.69,-131.657 2652.44,-131.281 2655.22,-130.884"/>
<polygon fill="midnightblue" stroke="midnightblue" points="722.25,-228.765 712.296,-232.393 722.34,-235.764 722.25,-228.765"/>
</g>
<!-- Node27 -->
<g id="node27" class="node"><title>Node27</title>
<g id="a_node27"><a xlink:href="../../de/d48/torcnetworkedcontext_8cpp.html" target="_top" xlink:title="torcnetworkedcontext.cpp">
<polygon fill="white" stroke="black" points="685.5,-56.5 685.5,-75.5 826.5,-75.5 826.5,-56.5 685.5,-56.5"/>
<text text-anchor="middle" x="756" y="-63.5" font-family="Helvetica,sans-Serif" font-size="10.00">torcnetworkedcontext.cpp</text>
</a>
</g>
</g>
<!-- Node1&#45;&gt;Node27 -->
<g id="edge50" class="edge"><title>Node1&#45;&gt;Node27</title>
<path fill="none" stroke="midnightblue" d="M639.207,-218.269C616.017,-201.251 578.76,-174.722 563,-168 490.604,-137.123 342.902,-170.995 395,-112 413.865,-90.6371 585.593,-77.0282 685.245,-70.8591"/>
<polygon fill="midnightblue" stroke="midnightblue" points="637.208,-221.144 647.333,-224.265 641.364,-215.511 637.208,-221.144"/>
</g>
<!-- Node28 -->
<g id="node28" class="node"><title>Node28</title>
<g id="a_node28"><a xlink:href="../../d2/da7/torcpower_8cpp.html" target="_top" xlink:title="torcpower.cpp">
<polygon fill="white" stroke="black" points="2766.5,-112.5 2766.5,-131.5 2849.5,-131.5 2849.5,-112.5 2766.5,-112.5"/>
<text text-anchor="middle" x="2808" y="-119.5" font-family="Helvetica,sans-Serif" font-size="10.00">torcpower.cpp</text>
</a>
</g>
</g>
<!-- Node1&#45;&gt;Node28 -->
<g id="edge52" class="edge"><title>Node1&#45;&gt;Node28</title>
<path fill="none" stroke="midnightblue" d="M722.336,-232.729C932.254,-231.491 1624.25,-224.701 2195,-188 2445.94,-171.864 2508.95,-166.745 2758,-132 2760.71,-131.622 2763.49,-131.204 2766.3,-130.761"/>
<polygon fill="midnightblue" stroke="midnightblue" points="722.1,-229.23 712.12,-232.787 722.14,-236.23 722.1,-229.23"/>
</g>
<!-- Node31 -->
<g id="node31" class="node"><title>Node31</title>
<g id="a_node31"><a xlink:href="../../d8/d51/torctime_8cpp.html" target="_top" xlink:title="torctime.cpp">
<polygon fill="white" stroke="black" points="2867.5,-112.5 2867.5,-131.5 2944.5,-131.5 2944.5,-112.5 2867.5,-112.5"/>
<text text-anchor="middle" x="2906" y="-119.5" font-family="Helvetica,sans-Serif" font-size="10.00">torctime.cpp</text>
</a>
</g>
</g>
<!-- Node1&#45;&gt;Node31 -->
<g id="edge53" class="edge"><title>Node1&#45;&gt;Node31</title>
<path fill="none" stroke="midnightblue" d="M722.234,-233.145C944.414,-233.262 1709.9,-230.358 2340,-188 2571.48,-172.439 2629.54,-166.29 2859,-132 2861.71,-131.595 2864.5,-131.145 2867.31,-130.667"/>
<polygon fill="midnightblue" stroke="midnightblue" points="722.07,-229.645 712.067,-233.137 722.065,-236.645 722.07,-229.645"/>
</g>
<!-- Node32 -->
<g id="node32" class="node"><title>Node32</title>
<g id="a_node32"><a xlink:href="../../d5/d2f/torcuser_8cpp.html" target="_top" xlink:title="torcuser.cpp">
<polygon fill="white" stroke="black" points="2963,-112.5 2963,-131.5 3039,-131.5 3039,-112.5 2963,-112.5"/>
<text text-anchor="middle" x="3001" y="-119.5" font-family="Helvetica,sans-Serif" font-size="10.00">torcuser.cpp</text>
</a>
</g>
</g>
<!-- Node1&#45;&gt;Node32 -->
<g id="edge54" class="edge"><title>Node1&#45;&gt;Node32</title>
<path fill="none" stroke="midnightblue" d="M722.372,-232.21C1001.55,-228.61 2123.44,-212.853 2475,-188 2688.81,-172.885 2742.16,-164.622 2954,-132 2956.87,-131.557 2959.84,-131.068 2962.82,-130.552"/>
<polygon fill="midnightblue" stroke="midnightblue" points="721.978,-228.715 712.024,-232.343 722.068,-235.714 721.978,-228.715"/>
</g>
<!-- Node33 -->
<g id="node33" class="node"><title>Node33</title>
<g id="a_node33"><a xlink:href="../../d9/de1/torcssdp_8cpp.html" target="_top" xlink:title="torcssdp.cpp">
<polygon fill="white" stroke="black" points="1627,-0.5 1627,-19.5 1705,-19.5 1705,-0.5 1627,-0.5"/>
<text text-anchor="middle" x="1666" y="-7.5" font-family="Helvetica,sans-Serif" font-size="10.00">torcssdp.cpp</text>
</a>
</g>
</g>
<!-- Node1&#45;&gt;Node33 -->
<g id="edge55" class="edge"><title>Node1&#45;&gt;Node33</title>
<path fill="none" stroke="midnightblue" d="M722.271,-232.865C1092.9,-231.76 2968.8,-221.74 3048,-132 3140.09,-27.6582 1939.42,-13.0948 1705.22,-11.2498"/>
<polygon fill="midnightblue" stroke="midnightblue" points="721.992,-229.366 712.003,-232.894 722.013,-236.366 721.992,-229.366"/>
</g>
<!-- Node38 -->
<g id="node38" class="node"><title>Node38</title>
<g id="a_node38"><a xlink:href="../../d8/dcb/torcnetworkrequest_8cpp.html" target="_top" xlink:title="torcnetworkrequest.cpp">
<polygon fill="white" stroke="black" points="3095,-168.5 3095,-187.5 3225,-187.5 3225,-168.5 3095,-168.5"/>
<text text-anchor="middle" x="3160" y="-175.5" font-family="Helvetica,sans-Serif" font-size="10.00">torcnetworkrequest.cpp</text>
</a>
</g>
</g>
<!-- Node1&#45;&gt;Node38 -->
<g id="edge51" class="edge"><title>Node1&#45;&gt;Node38</title>
<path fill="none" stroke="midnightblue" d="M722.581,-232.637C1055.7,-230.608 2602.69,-219.618 3081,-188 3085.55,-187.7 3090.23,-187.327 3094.95,-186.906"/>
<polygon fill="midnightblue" stroke="midnightblue" points="722.14,-229.139 712.162,-232.7 722.183,-236.139 722.14,-229.139"/>
</g>
<!-- Node9&#45;&gt;Node4 -->
<g id="edge15" class="edge"><title>Node9&#45;&gt;Node4</title>
<path fill="none" stroke="midnightblue" d="M1551.64,-176.047C1373.02,-172.989 837.982,-161.823 395,-132 379.628,-130.965 362.848,-129.441 347.877,-127.94"/>
<polygon fill="midnightblue" stroke="midnightblue" points="1551.83,-179.55 1561.89,-176.22 1551.95,-172.551 1551.83,-179.55"/>
</g>
<!-- Node9&#45;&gt;Node5 -->
<g id="edge18" class="edge"><title>Node9&#45;&gt;Node5</title>
<path fill="none" stroke="midnightblue" d="M1551.88,-175.882C1352.11,-171.982 729.196,-157.799 695,-132 658.615,-104.55 656.226,-42.379 656.645,-19.5849"/>
<polygon fill="midnightblue" stroke="midnightblue" points="1551.85,-179.382 1561.92,-176.076 1551.99,-172.383 1551.85,-179.382"/>
</g>
<!-- Node9&#45;&gt;Node8 -->
<g id="edge21" class="edge"><title>Node9&#45;&gt;Node8</title>
<path fill="none" stroke="midnightblue" d="M1551.97,-176.637C1386.01,-175.187 912.665,-167.954 521,-132 518.139,-131.737 515.21,-131.435 512.255,-131.104"/>
<polygon fill="midnightblue" stroke="midnightblue" points="1551.96,-180.137 1561.99,-176.721 1552.02,-173.138 1551.96,-180.137"/>
</g>
<!-- Node10 -->
<g id="node10" class="node"><title>Node10</title>
<g id="a_node10"><a xlink:href="../../d3/d4a/torctimercontrol_8cpp.html" target="_top" xlink:title="torctimercontrol.cpp">
<polygon fill="white" stroke="black" points="938,-112.5 938,-131.5 1052,-131.5 1052,-112.5 938,-112.5"/>
<text text-anchor="middle" x="995" y="-119.5" font-family="Helvetica,sans-Serif" font-size="10.00">torctimercontrol.cpp</text>
</a>
</g>
</g>
<!-- Node9&#45;&gt;Node10 -->
<g id="edge9" class="edge"><title>Node9&#45;&gt;Node10</title>
<path fill="none" stroke="midnightblue" d="M1551.81,-173.099C1449.87,-166.357 1238.89,-151.366 1061,-132 1058.13,-131.687 1055.18,-131.35 1052.21,-130.995"/>
<polygon fill="midnightblue" stroke="midnightblue" points="1551.72,-176.601 1561.92,-173.765 1552.17,-169.616 1551.72,-176.601"/>
</g>
<!-- Node11 -->
<g id="node11" class="node"><title>Node11</title>
<g id="a_node11"><a xlink:href="../../da/dcd/torctransitioncontrol_8cpp.html" target="_top" xlink:title="torctransitioncontrol.cpp">
<polygon fill="white" stroke="black" points="1070,-112.5 1070,-131.5 1204,-131.5 1204,-112.5 1070,-112.5"/>
<text text-anchor="middle" x="1137" y="-119.5" font-family="Helvetica,sans-Serif" font-size="10.00">torctransitioncontrol.cpp</text>
</a>
</g>
</g>
<!-- Node9&#45;&gt;Node11 -->
<g id="edge10" class="edge"><title>Node9&#45;&gt;Node11</title>
<path fill="none" stroke="midnightblue" d="M1551.65,-170.211C1473.13,-161.496 1332.92,-145.846 1213,-132 1210.1,-131.665 1207.13,-131.321 1204.13,-130.972"/>
<polygon fill="midnightblue" stroke="midnightblue" points="1551.52,-173.718 1561.84,-171.342 1552.29,-166.76 1551.52,-173.718"/>
</g>
<!-- Node12 -->
<g id="node12" class="node"><title>Node12</title>
<g id="a_node12"><a xlink:href="../../d0/ddb/torcsysteminput_8cpp.html" target="_top" xlink:title="torcsysteminput.cpp">
<polygon fill="white" stroke="black" points="1222.5,-112.5 1222.5,-131.5 1337.5,-131.5 1337.5,-112.5 1222.5,-112.5"/>
<text text-anchor="middle" x="1280" y="-119.5" font-family="Helvetica,sans-Serif" font-size="10.00">torcsysteminput.cpp</text>
</a>
</g>
</g>
<!-- Node9&#45;&gt;Node12 -->
<g id="edge11" class="edge"><title>Node9&#45;&gt;Node12</title>
<path fill="none" stroke="midnightblue" d="M1551.52,-167.03C1488.6,-156.827 1391.88,-141.143 1332.46,-131.507"/>
<polygon fill="midnightblue" stroke="midnightblue" points="1551.27,-170.535 1561.7,-168.681 1552.39,-163.625 1551.27,-170.535"/>
</g>
<!-- Node13 -->
<g id="node13" class="node"><title>Node13</title>
<g id="a_node13"><a xlink:href="../../d1/d5d/torcsystemnotification_8h.html" target="_top" xlink:title="torcsystemnotification.h">
<polygon fill="white" stroke="black" points="1432,-112.5 1432,-131.5 1564,-131.5 1564,-112.5 1432,-112.5"/>
<text text-anchor="middle" x="1498" y="-119.5" font-family="Helvetica,sans-Serif" font-size="10.00">torcsystemnotification.h</text>
</a>
</g>
</g>
<!-- Node9&#45;&gt;Node13 -->
<g id="edge12" class="edge"><title>Node9&#45;&gt;Node13</title>
<path fill="none" stroke="midnightblue" d="M1585.52,-164.096C1564.03,-154.007 1534.78,-140.27 1516.14,-131.516"/>
<polygon fill="midnightblue" stroke="midnightblue" points="1584.24,-167.361 1594.78,-168.444 1587.21,-161.025 1584.24,-167.361"/>
</g>
<!-- Node15 -->
<g id="node15" class="node"><title>Node15</title>
<g id="a_node15"><a xlink:href="../../d6/d7a/server_2main_8cpp.html" target="_top" xlink:title="main.cpp">
<polygon fill="white" stroke="black" points="1582.5,-112.5 1582.5,-131.5 1643.5,-131.5 1643.5,-112.5 1582.5,-112.5"/>
<text text-anchor="middle" x="1613" y="-119.5" font-family="Helvetica,sans-Serif" font-size="10.00">main.cpp</text>
</a>
</g>
</g>
<!-- Node9&#45;&gt;Node15 -->
<g id="edge14" class="edge"><title>Node9&#45;&gt;Node15</title>
<path fill="none" stroke="midnightblue" d="M1613,-157.805C1613,-148.91 1613,-138.78 1613,-131.751"/>
<polygon fill="midnightblue" stroke="midnightblue" points="1609.5,-158.083 1613,-168.083 1616.5,-158.083 1609.5,-158.083"/>
</g>
<!-- Node16 -->
<g id="node16" class="node"><title>Node16</title>
<g id="a_node16"><a xlink:href="../../d6/ddf/torcxsdtest_8cpp.html" target="_top" xlink:title="torcxsdtest.cpp">
<polygon fill="white" stroke="black" points="1661.5,-112.5 1661.5,-131.5 1752.5,-131.5 1752.5,-112.5 1661.5,-112.5"/>
<text text-anchor="middle" x="1707" y="-119.5" font-family="Helvetica,sans-Serif" font-size="10.00">torcxsdtest.cpp</text>
</a>
</g>
</g>
<!-- Node9&#45;&gt;Node16 -->
<g id="edge16" class="edge"><title>Node9&#45;&gt;Node16</title>
<path fill="none" stroke="midnightblue" d="M1637.06,-163.177C1654.36,-153.241 1677.15,-140.149 1691.93,-131.655"/>
<polygon fill="midnightblue" stroke="midnightblue" points="1635.03,-160.308 1628.1,-168.324 1638.52,-166.378 1635.03,-160.308"/>
</g>
<!-- Node17 -->
<g id="node17" class="node"><title>Node17</title>
<g id="a_node17"><a xlink:href="../../dd/dbf/testtorclocalcontext_8cpp.html" target="_top" xlink:title="testtorclocalcontext.cpp">
<polygon fill="white" stroke="black" points="1771,-112.5 1771,-131.5 1903,-131.5 1903,-112.5 1771,-112.5"/>
<text text-anchor="middle" x="1837" y="-119.5" font-family="Helvetica,sans-Serif" font-size="10.00">testtorclocalcontext.cpp</text>
</a>
</g>
</g>
<!-- Node9&#45;&gt;Node17 -->
<g id="edge17" class="edge"><title>Node9&#45;&gt;Node17</title>
<path fill="none" stroke="midnightblue" d="M1658.26,-166.088C1700.58,-155.887 1762.91,-140.861 1801.67,-131.516"/>
<polygon fill="midnightblue" stroke="midnightblue" points="1657.39,-162.697 1648.49,-168.444 1659.04,-169.502 1657.39,-162.697"/>
</g>
<!-- Node18 -->
<g id="node18" class="node"><title>Node18</title>
<g id="a_node18"><a xlink:href="../../da/d1a/torchttpservices_8cpp.html" target="_top" xlink:title="torchttpservices.cpp">
<polygon fill="white" stroke="black" points="1325,-56.5 1325,-75.5 1439,-75.5 1439,-56.5 1325,-56.5"/>
<text text-anchor="middle" x="1382" y="-63.5" font-family="Helvetica,sans-Serif" font-size="10.00">torchttpservices.cpp</text>
</a>
</g>
</g>
<!-- Node9&#45;&gt;Node18 -->
<g id="edge19" class="edge"><title>Node9&#45;&gt;Node18</title>
<path fill="none" stroke="midnightblue" d="M1551.75,-174.286C1511.9,-169.848 1460.55,-158.828 1423,-132 1402.81,-117.575 1390.31,-89.7981 1384.99,-75.6863"/>
<polygon fill="midnightblue" stroke="midnightblue" points="1551.58,-177.787 1561.88,-175.302 1552.28,-170.821 1551.58,-177.787"/>
</g>
<!-- Node19 -->
<g id="node19" class="node"><title>Node19</title>
<g id="a_node19"><a xlink:href="../../df/d2a/torcpowerosx_8cpp.html" target="_top" xlink:title="torcpowerosx.cpp">
<polygon fill="white" stroke="black" points="1921.5,-112.5 1921.5,-131.5 2022.5,-131.5 2022.5,-112.5 1921.5,-112.5"/>
<text text-anchor="middle" x="1972" y="-119.5" font-family="Helvetica,sans-Serif" font-size="10.00">torcpowerosx.cpp</text>
</a>
</g>
</g>
<!-- Node9&#45;&gt;Node19 -->
<g id="edge20" class="edge"><title>Node9&#45;&gt;Node19</title>
<path fill="none" stroke="midnightblue" d="M1674.01,-167.823C1743.69,-157.342 1856.42,-140.386 1921.41,-130.609"/>
<polygon fill="midnightblue" stroke="midnightblue" points="1673.42,-164.372 1664.05,-169.32 1674.46,-171.294 1673.42,-164.372"/>
</g>
<!-- Node9&#45;&gt;Node20 -->
<g id="edge22" class="edge"><title>Node9&#45;&gt;Node20</title>
<path fill="none" stroke="midnightblue" d="M1551.86,-175.704C1400.69,-172.153 997.269,-160.559 662,-132 657.292,-131.599 652.421,-131.126 647.53,-130.61"/>
<polygon fill="midnightblue" stroke="midnightblue" points="1551.8,-179.204 1561.88,-175.936 1551.96,-172.206 1551.8,-179.204"/>
</g>
<!-- Node9&#45;&gt;Node21 -->
<g id="edge23" class="edge"><title>Node9&#45;&gt;Node21</title>
<path fill="none" stroke="midnightblue" d="M1674.33,-176.483C1822.92,-174.694 2213.86,-166.776 2538,-132 2540.74,-131.706 2543.55,-131.363 2546.39,-130.986"/>
<polygon fill="midnightblue" stroke="midnightblue" points="1674.01,-172.986 1664.05,-176.601 1674.09,-179.986 1674.01,-172.986"/>
</g>
<!-- Node22 -->
<g id="node22" class="node"><title>Node22</title>
<g id="a_node22"><a xlink:href="../../d3/df3/torclanguage_8cpp.html" target="_top" xlink:title="torclanguage.cpp">
<polygon fill="white" stroke="black" points="2041,-112.5 2041,-131.5 2141,-131.5 2141,-112.5 2041,-112.5"/>
<text text-anchor="middle" x="2091" y="-119.5" font-family="Helvetica,sans-Serif" font-size="10.00">torclanguage.cpp</text>
</a>
</g>
</g>
<!-- Node9&#45;&gt;Node22 -->
<g id="edge24" class="edge"><title>Node9&#45;&gt;Node22</title>
<path fill="none" stroke="midnightblue" d="M1674.33,-171.205C1755.88,-163.313 1904.48,-148.292 2031,-132 2034.24,-131.583 2037.57,-131.135 2040.93,-130.67"/>
<polygon fill="midnightblue" stroke="midnightblue" points="1673.85,-167.734 1664.24,-172.178 1674.53,-174.702 1673.85,-167.734"/>
</g>
<!-- Node23 -->
<g id="node23" class="node"><title>Node23</title>
<g id="a_node23"><a xlink:href="../../da/d67/torclocalcontext_8cpp.html" target="_top" xlink:title="torclocalcontext.cpp">
<polygon fill="white" stroke="black" points="2197.5,-112.5 2197.5,-131.5 2310.5,-131.5 2310.5,-112.5 2197.5,-112.5"/>
<text text-anchor="middle" x="2254" y="-119.5" font-family="Helvetica,sans-Serif" font-size="10.00">torclocalcontext.cpp</text>
</a>
</g>
</g>
<!-- Node9&#45;&gt;Node23 -->
<g id="edge25" class="edge"><title>Node9&#45;&gt;Node23</title>
<path fill="none" stroke="midnightblue" d="M1674.22,-173.121C1778.7,-166.287 1998.08,-151.009 2183,-132 2187.7,-131.517 2192.56,-130.979 2197.45,-130.414"/>
<polygon fill="midnightblue" stroke="midnightblue" points="1673.92,-169.633 1664.17,-173.775 1674.37,-176.618 1673.92,-169.633"/>
</g>
<!-- Node9&#45;&gt;Node24 -->
<g id="edge26" class="edge"><title>Node9&#45;&gt;Node24</title>
<path fill="none" stroke="midnightblue" d="M1674.41,-176.866C1834.79,-175.967 2279.28,-169.952 2647,-132 2649.69,-131.722 2652.46,-131.397 2655.24,-131.039"/>
<polygon fill="midnightblue" stroke="midnightblue" points="1674.24,-173.367 1664.26,-176.918 1674.28,-180.367 1674.24,-173.367"/>
</g>
<!-- Node25 -->
<g id="node25" class="node"><title>Node25</title>
<g id="a_node25"><a xlink:href="../../d5/d9a/torcnetworkedcontext_8h.html" target="_top" xlink:title="torcnetworkedcontext.h">
<polygon fill="white" stroke="black" points="704,-112.5 704,-131.5 834,-131.5 834,-112.5 704,-112.5"/>
<text text-anchor="middle" x="769" y="-119.5" font-family="Helvetica,sans-Serif" font-size="10.00">torcnetworkedcontext.h</text>
</a>
</g>
</g>
<!-- Node9&#45;&gt;Node25 -->
<g id="edge27" class="edge"><title>Node9&#45;&gt;Node25</title>
<path fill="none" stroke="midnightblue" d="M1551.34,-174.709C1420.6,-169.563 1105.95,-155.651 843,-132 840.164,-131.745 837.269,-131.467 834.346,-131.173"/>
<polygon fill="midnightblue" stroke="midnightblue" points="1551.43,-178.215 1561.55,-175.108 1551.7,-171.22 1551.43,-178.215"/>
</g>
<!-- Node9&#45;&gt;Node28 -->
<g id="edge30" class="edge"><title>Node9&#45;&gt;Node28</title>
<path fill="none" stroke="midnightblue" d="M1674.37,-177.576C1846.1,-178.545 2345.92,-176.965 2758,-132 2760.72,-131.703 2763.51,-131.347 2766.32,-130.949"/>
<polygon fill="midnightblue" stroke="midnightblue" points="1674.28,-174.076 1664.26,-177.514 1674.24,-181.075 1674.28,-174.076"/>
</g>
<!-- Node29 -->
<g id="node29" class="node"><title>Node29</title>
<g id="a_node29"><a xlink:href="../../d8/d8c/torcqthread_8cpp.html" target="_top" xlink:title="torcqthread.cpp">
<polygon fill="white" stroke="black" points="2328.5,-112.5 2328.5,-131.5 2421.5,-131.5 2421.5,-112.5 2328.5,-112.5"/>
<text text-anchor="middle" x="2375" y="-119.5" font-family="Helvetica,sans-Serif" font-size="10.00">torcqthread.cpp</text>
</a>
</g>
</g>
<!-- Node9&#45;&gt;Node29 -->
<g id="edge31" class="edge"><title>Node9&#45;&gt;Node29</title>
<path fill="none" stroke="midnightblue" d="M1674.5,-175.127C1797.45,-170.932 2082.21,-158.957 2320,-132 2322.69,-131.695 2325.45,-131.349 2328.24,-130.974"/>
<polygon fill="midnightblue" stroke="midnightblue" points="1674.04,-171.64 1664.17,-175.474 1674.28,-178.636 1674.04,-171.64"/>
</g>
<!-- Node30 -->
<g id="node30" class="node"><title>Node30</title>
<g id="a_node30"><a xlink:href="../../de/d3c/torcsetting_8cpp.html" target="_top" xlink:title="torcsetting.cpp">
<polygon fill="white" stroke="black" points="2439.5,-112.5 2439.5,-131.5 2528.5,-131.5 2528.5,-112.5 2439.5,-112.5"/>
<text text-anchor="middle" x="2484" y="-119.5" font-family="Helvetica,sans-Serif" font-size="10.00">torcsetting.cpp</text>
</a>
</g>
</g>
<!-- Node9&#45;&gt;Node30 -->
<g id="edge32" class="edge"><title>Node9&#45;&gt;Node30</title>
<path fill="none" stroke="midnightblue" d="M1674.64,-175.991C1811.24,-173.233 2149.63,-163.526 2431,-132 2433.69,-131.699 2436.45,-131.35 2439.23,-130.969"/>
<polygon fill="midnightblue" stroke="midnightblue" points="1674.3,-172.496 1664.37,-176.192 1674.44,-179.495 1674.3,-172.496"/>
</g>
<!-- Node9&#45;&gt;Node31 -->
<g id="edge33" class="edge"><title>Node9&#45;&gt;Node31</title>
<path fill="none" stroke="midnightblue" d="M1674.48,-176.027C1892.14,-172.386 2625.55,-158.409 2859,-132 2861.72,-131.692 2864.53,-131.314 2867.34,-130.888"/>
<polygon fill="midnightblue" stroke="midnightblue" points="1674.15,-172.532 1664.21,-176.197 1674.27,-179.531 1674.15,-172.532"/>
</g>
<!-- Node9&#45;&gt;Node32 -->
<g id="edge34" class="edge"><title>Node9&#45;&gt;Node32</title>
<path fill="none" stroke="midnightblue" d="M1674.18,-176.213C1901.98,-173.085 2700.92,-160.303 2954,-132 2956.89,-131.677 2959.87,-131.274 2962.86,-130.819"/>
<polygon fill="midnightblue" stroke="midnightblue" points="1674.03,-172.714 1664.08,-176.35 1674.13,-179.714 1674.03,-172.714"/>
</g>
<!-- Node9&#45;&gt;Node33 -->
<g id="edge35" class="edge"><title>Node9&#45;&gt;Node33</title>
<path fill="none" stroke="midnightblue" d="M1674.48,-174.058C1812.08,-167.178 2134.09,-149.302 2150,-132 2212.81,-63.7066 1831.48,-24.9732 1705.43,-14.1558"/>
<polygon fill="midnightblue" stroke="midnightblue" points="1673.92,-170.582 1664.11,-174.573 1674.27,-177.573 1673.92,-170.582"/>
</g>
<!-- Node34 -->
<g id="node34" class="node"><title>Node34</title>
<g id="a_node34"><a xlink:href="../../dd/d1e/torcupnp_8h.html" target="_top" xlink:title="torcupnp.h">
<polygon fill="white" stroke="black" points="852,-112.5 852,-131.5 920,-131.5 920,-112.5 852,-112.5"/>
<text text-anchor="middle" x="886" y="-119.5" font-family="Helvetica,sans-Serif" font-size="10.00">torcupnp.h</text>
</a>
</g>
</g>
<!-- Node9&#45;&gt;Node34 -->
<g id="edge36" class="edge"><title>Node9&#45;&gt;Node34</title>
<path fill="none" stroke="midnightblue" d="M1551.59,-175.851C1431.49,-172.966 1157.28,-163.241 929,-132 926.128,-131.607 923.162,-131.132 920.192,-130.609"/>
<polygon fill="midnightblue" stroke="midnightblue" points="1551.62,-179.352 1561.7,-176.086 1551.78,-172.354 1551.62,-179.352"/>
</g>
<!-- Node37 -->
<g id="node37" class="node"><title>Node37</title>
<g id="a_node37"><a xlink:href="../../d9/db2/torcupnpcontent_8cpp.html" target="_top" xlink:title="torcupnpcontent.cpp">
<polygon fill="white" stroke="black" points="1191,-56.5 1191,-75.5 1307,-75.5 1307,-56.5 1191,-56.5"/>
<text text-anchor="middle" x="1249" y="-63.5" font-family="Helvetica,sans-Serif" font-size="10.00">torcupnpcontent.cpp</text>
</a>
</g>
</g>
<!-- Node9&#45;&gt;Node37 -->
<g id="edge46" class="edge"><title>Node9&#45;&gt;Node37</title>
<path fill="none" stroke="midnightblue" d="M1551.75,-167.264C1508.96,-159.674 1450.81,-147.771 1401,-132 1350.38,-115.973 1293.54,-89.165 1265.91,-75.5277"/>
<polygon fill="midnightblue" stroke="midnightblue" points="1551.28,-170.734 1561.73,-169.006 1552.48,-163.839 1551.28,-170.734"/>
</g>
<!-- Node14 -->
<g id="node14" class="node"><title>Node14</title>
<g id="a_node14"><a xlink:href="../../d8/de9/torcsystemnotification_8cpp.html" target="_top" xlink:title="torcsystemnotification.cpp">
<polygon fill="white" stroke="black" points="1457.5,-56.5 1457.5,-75.5 1600.5,-75.5 1600.5,-56.5 1457.5,-56.5"/>
<text text-anchor="middle" x="1529" y="-63.5" font-family="Helvetica,sans-Serif" font-size="10.00">torcsystemnotification.cpp</text>
</a>
</g>
</g>
<!-- Node13&#45;&gt;Node14 -->
<g id="edge13" class="edge"><title>Node13&#45;&gt;Node14</title>
<path fill="none" stroke="midnightblue" d="M1508.18,-103.275C1513.47,-94.0454 1519.72,-83.1703 1523.98,-75.7511"/>
<polygon fill="midnightblue" stroke="midnightblue" points="1505.06,-101.668 1503.12,-112.083 1511.13,-105.153 1505.06,-101.668"/>
</g>
<!-- Node26 -->
<g id="node26" class="node"><title>Node26</title>
<g id="a_node26"><a xlink:href="../../db/d78/torcwebsocket_8cpp.html" target="_top" xlink:title="torcwebsocket.cpp">
<polygon fill="white" stroke="black" points="845,-56.5 845,-75.5 951,-75.5 951,-56.5 845,-56.5"/>
<text text-anchor="middle" x="898" y="-63.5" font-family="Helvetica,sans-Serif" font-size="10.00">torcwebsocket.cpp</text>
</a>
</g>
</g>
<!-- Node25&#45;&gt;Node26 -->
<g id="edge28" class="edge"><title>Node25&#45;&gt;Node26</title>
<path fill="none" stroke="midnightblue" d="M798.854,-108.503C823.038,-98.3795 856.462,-84.388 877.655,-75.5164"/>
<polygon fill="midnightblue" stroke="midnightblue" points="797.313,-105.354 789.44,-112.444 800.016,-111.811 797.313,-105.354"/>
</g>
<!-- Node25&#45;&gt;Node27 -->
<g id="edge29" class="edge"><title>Node25&#45;&gt;Node27</title>
<path fill="none" stroke="midnightblue" d="M764.45,-102.101C762.292,-93.1357 759.818,-82.8579 758.107,-75.7511"/>
<polygon fill="midnightblue" stroke="midnightblue" points="761.11,-103.18 766.853,-112.083 767.915,-101.542 761.11,-103.18"/>
</g>
<!-- Node34&#45;&gt;Node18 -->
<g id="edge37" class="edge"><title>Node34&#45;&gt;Node18</title>
<path fill="none" stroke="midnightblue" d="M930.32,-111.96C1101.56,-86.6121 1147.65,-95.2997 1316,-76 1318.87,-75.6707 1321.81,-75.3199 1324.78,-74.955"/>
<polygon fill="midnightblue" stroke="midnightblue" points="929.575,-108.533 920.204,-113.475 930.612,-115.455 929.575,-108.533"/>
</g>
<!-- Node34&#45;&gt;Node26 -->
<g id="edge38" class="edge"><title>Node34&#45;&gt;Node26</title>
<path fill="none" stroke="midnightblue" d="M890.2,-102.101C892.192,-93.1357 894.476,-82.8579 896.055,-75.7511"/>
<polygon fill="midnightblue" stroke="midnightblue" points="886.734,-101.562 887.982,-112.083 893.568,-103.08 886.734,-101.562"/>
</g>
<!-- Node34&#45;&gt;Node27 -->
<g id="edge39" class="edge"><title>Node34&#45;&gt;Node27</title>
<path fill="none" stroke="midnightblue" d="M855.915,-108.503C831.543,-98.3795 797.86,-84.388 776.503,-75.5164"/>
<polygon fill="midnightblue" stroke="midnightblue" points="854.823,-111.84 865.401,-112.444 857.509,-105.375 854.823,-111.84"/>
</g>
<!-- Node34&#45;&gt;Node33 -->
<g id="edge40" class="edge"><title>Node34&#45;&gt;Node33</title>
<path fill="none" stroke="midnightblue" d="M930.31,-111.857C1025.68,-94.8834 1054.5,-105.355 1143,-76 1161.49,-69.8676 1163.3,-61.4447 1182,-56 1265.25,-31.7637 1526.73,-17.4408 1626.65,-12.7331"/>
<polygon fill="midnightblue" stroke="midnightblue" points="929.447,-108.457 920.243,-113.705 930.711,-115.341 929.447,-108.457"/>
</g>
<!-- Node35 -->
<g id="node35" class="node"><title>Node35</title>
<g id="a_node35"><a xlink:href="../../dd/d3e/torcssdp_8h.html" target="_top" xlink:title="torcssdp.h">
<polygon fill="white" stroke="black" points="1067.5,-56.5 1067.5,-75.5 1134.5,-75.5 1134.5,-56.5 1067.5,-56.5"/>
<text text-anchor="middle" x="1101" y="-63.5" font-family="Helvetica,sans-Serif" font-size="10.00">torcssdp.h</text>
</a>
</g>
</g>
<!-- Node34&#45;&gt;Node35 -->
<g id="edge41" class="edge"><title>Node34&#45;&gt;Node35</title>
<path fill="none" stroke="midnightblue" d="M929.99,-109.951C970.727,-99.7198 1030.43,-84.7241 1067.45,-75.4275"/>
<polygon fill="midnightblue" stroke="midnightblue" points="928.914,-106.613 920.067,-112.444 930.619,-113.402 928.914,-106.613"/>
</g>
<!-- Node36 -->
<g id="node36" class="node"><title>Node36</title>
<g id="a_node36"><a xlink:href="../../d4/ddf/torcupnp_8cpp.html" target="_top" xlink:title="torcupnp.cpp">
<polygon fill="white" stroke="black" points="969,-56.5 969,-75.5 1049,-75.5 1049,-56.5 969,-56.5"/>
<text text-anchor="middle" x="1009" y="-63.5" font-family="Helvetica,sans-Serif" font-size="10.00">torcupnp.cpp</text>
</a>
</g>
</g>
<!-- Node34&#45;&gt;Node36 -->
<g id="edge44" class="edge"><title>Node34&#45;&gt;Node36</title>
<path fill="none" stroke="midnightblue" d="M914.773,-108.368C937.807,-98.2553 969.484,-84.3486 989.601,-75.5164"/>
<polygon fill="midnightblue" stroke="midnightblue" points="913.239,-105.219 905.49,-112.444 916.053,-111.628 913.239,-105.219"/>
</g>
<!-- Node34&#45;&gt;Node37 -->
<g id="edge45" class="edge"><title>Node34&#45;&gt;Node37</title>
<path fill="none" stroke="midnightblue" d="M930.37,-111.881C992.527,-101.465 1116.81,-84.5904 1190.69,-74.725"/>
<polygon fill="midnightblue" stroke="midnightblue" points="929.492,-108.481 920.228,-113.621 930.676,-115.38 929.492,-108.481"/>
</g>
<!-- Node35&#45;&gt;Node5 -->
<g id="edge42" class="edge"><title>Node35&#45;&gt;Node5</title>
<path fill="none" stroke="midnightblue" d="M1057.04,-55.9921C926.039,-35.317 783.878,-21.727 709.121,-15.2632"/>
<polygon fill="midnightblue" stroke="midnightblue" points="1056.83,-59.5024 1067.25,-57.6224 1057.93,-52.5899 1056.83,-59.5024"/>
</g>
<!-- Node35&#45;&gt;Node33 -->
<g id="edge43" class="edge"><title>Node35&#45;&gt;Node33</title>
<path fill="none" stroke="midnightblue" d="M1144.53,-56.6446C1146.04,-56.4171 1147.53,-56.2013 1149,-56 1326.63,-31.6764 1540.51,-17.9765 1626.94,-13.0817"/>
<polygon fill="midnightblue" stroke="midnightblue" points="1143.81,-53.2164 1134.5,-58.283 1144.93,-60.1248 1143.81,-53.2164"/>
</g>
</g>
</svg>
