<?xml version="1.0" encoding="UTF-8" standalone="no"?>
<!DOCTYPE svg PUBLIC "-//W3C//DTD SVG 1.1//EN"
 "http://www.w3.org/Graphics/SVG/1.1/DTD/svg11.dtd">
<!-- Generated by graphviz version 2.38.0 (20140413.2041)
 -->
<!-- Title: torcadminthread.h Pages: 1 -->
<!--zoomable 252 -->
<svg id="main" version="1.1" xmlns="http://www.w3.org/2000/svg" xmlns:xlink="http://www.w3.org/1999/xlink" xml:space="preserve" onload="init(evt)">
<style type="text/css"><![CDATA[
.edge:hover path { stroke: red; }
.edge:hover polygon { stroke: red; fill: red; }
]]></style>
<script type="text/javascript"><![CDATA[
var edges = document.getElementsByTagName('g');
if (edges && edges.length) {
  for (var i=0;i<edges.length;i++) {
    if (edges[i].id.substr(0,4)=='edge') {
      edges[i].setAttribute('class','edge');
    }
  }
}
]]></script>
        <defs>
                <circle id="rim" cx="0" cy="0" r="7"/>
                <circle id="rim2" cx="0" cy="0" r="3.5"/>
                <g id="zoomPlus">
                        <use xlink:href="#rim" fill="#404040">
                                <set attributeName="fill" to="#808080" begin="zoomplus.mouseover" end="zoomplus.mouseout"/>
                        </use>
                        <path d="M-4,0h8M0,-4v8" fill="none" stroke="white" stroke-width="1.5" pointer-events="none"/>
                </g>
                <g id="zoomMin">
                        <use xlink:href="#rim" fill="#404040">
                                <set attributeName="fill" to="#808080" begin="zoomminus.mouseover" end="zoomminus.mouseout"/>
                        </use>
                        <path d="M-4,0h8" fill="none" stroke="white" stroke-width="1.5" pointer-events="none"/>
                </g>
                <g id="dirArrow">
                        <path fill="none" stroke="white" stroke-width="1.5" d="M0,-3.0v7 M-2.5,-0.5L0,-3.0L2.5,-0.5"/>
                </g>
               <g id="resetDef">
                       <use xlink:href="#rim2" fill="#404040">
                               <set attributeName="fill" to="#808080" begin="reset.mouseover" end="reset.mouseout"/>
                       </use>
               </g>
        </defs>

<script type="text/javascript">
var viewWidth = 3258;
var viewHeight = 252;
var sectionId = 'dynsection-1';
</script>
<script xlink:href="../../svgpan.js"/>
<svg id="graph" class="graph">
<g id="viewport">
<title>torcadminthread.h</title>
<polygon fill="white" stroke="none" points="-4,4 -4,-248 3254,-248 3254,4 -4,4"/>
<!-- Node1 -->
<g id="node1" class="node"><title>Node1</title>
<polygon fill="#bfbfbf" stroke="black" points="1814,-224.5 1814,-243.5 1920,-243.5 1920,-224.5 1814,-224.5"/>
<text text-anchor="middle" x="1867" y="-231.5" font-family="Helvetica,sans-Serif" font-size="10.00">torcadminthread.h</text>
</g>
<!-- Node2 -->
<g id="node2" class="node"><title>Node2</title>
<g id="a_node2"><a xlink:href="../../d8/d63/torc1wirebus_8cpp.html" target="_top" xlink:title="torc1wirebus.cpp">
<polygon fill="white" stroke="black" points="0,-168.5 0,-187.5 98,-187.5 98,-168.5 0,-168.5"/>
<text text-anchor="middle" x="49" y="-175.5" font-family="Helvetica,sans-Serif" font-size="10.00">torc1wirebus.cpp</text>
</a>
</g>
</g>
<!-- Node1&#45;&gt;Node2 -->
<g id="edge1" class="edge"><title>Node1&#45;&gt;Node2</title>
<path fill="none" stroke="midnightblue" d="M1803.75,-232.473C1530.08,-230.022 446.445,-218.549 107,-188 104.158,-187.744 101.244,-187.437 98.308,-187.092"/>
<polygon fill="midnightblue" stroke="midnightblue" points="1803.87,-235.974 1813.9,-232.563 1803.93,-228.974 1803.87,-235.974"/>
</g>
<!-- Node3 -->
<g id="node3" class="node"><title>Node3</title>
<g id="a_node3"><a xlink:href="../../d1/d0c/torcinputs_8cpp.html" target="_top" xlink:title="torcinputs.cpp">
<polygon fill="white" stroke="black" points="116.5,-168.5 116.5,-187.5 201.5,-187.5 201.5,-168.5 116.5,-168.5"/>
<text text-anchor="middle" x="159" y="-175.5" font-family="Helvetica,sans-Serif" font-size="10.00">torcinputs.cpp</text>
</a>
</g>
</g>
<!-- Node1&#45;&gt;Node3 -->
<g id="edge2" class="edge"><title>Node1&#45;&gt;Node3</title>
<path fill="none" stroke="midnightblue" d="M1803.82,-232.372C1540.95,-229.591 532.808,-217.205 216,-188 211.311,-187.568 206.423,-186.991 201.566,-186.337"/>
<polygon fill="midnightblue" stroke="midnightblue" points="1803.92,-235.873 1813.96,-232.479 1803.99,-228.874 1803.92,-235.873"/>
</g>
<!-- Node4 -->
<g id="node4" class="node"><title>Node4</title>
<g id="a_node4"><a xlink:href="../../d1/d81/torccentral_8cpp.html" target="_top" xlink:title="torccentral.cpp">
<polygon fill="white" stroke="black" points="150.5,-112.5 150.5,-131.5 239.5,-131.5 239.5,-112.5 150.5,-112.5"/>
<text text-anchor="middle" x="195" y="-119.5" font-family="Helvetica,sans-Serif" font-size="10.00">torccentral.cpp</text>
</a>
</g>
</g>
<!-- Node1&#45;&gt;Node4 -->
<g id="edge3" class="edge"><title>Node1&#45;&gt;Node4</title>
<path fill="none" stroke="midnightblue" d="M1803.38,-232.617C1513.1,-230.695 325.463,-220.846 254,-188 227.966,-176.035 208.351,-146.588 199.766,-131.789"/>
<polygon fill="midnightblue" stroke="midnightblue" points="1803.7,-236.12 1813.72,-232.685 1803.75,-229.12 1803.7,-236.12"/>
</g>
<!-- Node5 -->
<g id="node5" class="node"><title>Node5</title>
<g id="a_node5"><a xlink:href="../../de/dc5/torchttpserver_8cpp.html" target="_top" xlink:title="torchttpserver.cpp">
<polygon fill="white" stroke="black" points="516,-0.5 516,-19.5 620,-19.5 620,-0.5 516,-0.5"/>
<text text-anchor="middle" x="568" y="-7.5" font-family="Helvetica,sans-Serif" font-size="10.00">torchttpserver.cpp</text>
</a>
</g>
</g>
<!-- Node1&#45;&gt;Node5 -->
<g id="edge4" class="edge"><title>Node1&#45;&gt;Node5</title>
<path fill="none" stroke="midnightblue" d="M1803.43,-231.341C1514.83,-223.51 339.768,-188.249 287,-132 216.136,-56.4615 416.269,-25.7951 515.669,-15.4696"/>
<polygon fill="midnightblue" stroke="midnightblue" points="1803.62,-234.848 1813.71,-231.619 1803.81,-227.851 1803.62,-234.848"/>
</g>
<!-- Node6 -->
<g id="node6" class="node"><title>Node6</title>
<g id="a_node6"><a xlink:href="../../db/db6/torchttpservicetest_8cpp.html" target="_top" xlink:title="torchttpservicetest.cpp">
<polygon fill="white" stroke="black" points="1480,-168.5 1480,-187.5 1608,-187.5 1608,-168.5 1480,-168.5"/>
<text text-anchor="middle" x="1544" y="-175.5" font-family="Helvetica,sans-Serif" font-size="10.00">torchttpservicetest.cpp</text>
</a>
</g>
</g>
<!-- Node1&#45;&gt;Node6 -->
<g id="edge5" class="edge"><title>Node1&#45;&gt;Node6</title>
<path fill="none" stroke="midnightblue" d="M1805.93,-222.791C1744.9,-212.587 1652.13,-197.078 1594.94,-187.516"/>
<polygon fill="midnightblue" stroke="midnightblue" points="1805.38,-226.247 1815.82,-224.444 1806.53,-219.342 1805.38,-226.247"/>
</g>
<!-- Node7 -->
<g id="node7" class="node"><title>Node7</title>
<g id="a_node7"><a xlink:href="../../dd/d0f/torcomxtest_8cpp.html" target="_top" xlink:title="torcomxtest.cpp">
<polygon fill="white" stroke="black" points="1626.5,-168.5 1626.5,-187.5 1721.5,-187.5 1721.5,-168.5 1626.5,-168.5"/>
<text text-anchor="middle" x="1674" y="-175.5" font-family="Helvetica,sans-Serif" font-size="10.00">torcomxtest.cpp</text>
</a>
</g>
</g>
<!-- Node1&#45;&gt;Node7 -->
<g id="edge6" class="edge"><title>Node1&#45;&gt;Node7</title>
<path fill="none" stroke="midnightblue" d="M1826.61,-221.699C1790.18,-211.507 1737.41,-196.743 1704.44,-187.516"/>
<polygon fill="midnightblue" stroke="midnightblue" points="1825.85,-225.12 1836.42,-224.444 1827.73,-218.378 1825.85,-225.12"/>
</g>
<!-- Node8 -->
<g id="node8" class="node"><title>Node8</title>
<g id="a_node8"><a xlink:href="../../d7/d74/torcrunlooposx_8cpp.html" target="_top" xlink:title="torcrunlooposx.cpp">
<polygon fill="white" stroke="black" points="296,-112.5 296,-131.5 404,-131.5 404,-112.5 296,-112.5"/>
<text text-anchor="middle" x="350" y="-119.5" font-family="Helvetica,sans-Serif" font-size="10.00">torcrunlooposx.cpp</text>
</a>
</g>
</g>
<!-- Node1&#45;&gt;Node8 -->
<g id="edge7" class="edge"><title>Node1&#45;&gt;Node8</title>
<path fill="none" stroke="midnightblue" d="M1836.09,-220.633C1815.39,-212.078 1787.71,-200.097 1764,-188 1748.38,-180.032 1746.85,-172.837 1730,-168 1589.29,-127.612 558.864,-144.371 413,-132 410.138,-131.757 407.207,-131.471 404.251,-131.152"/>
<polygon fill="midnightblue" stroke="midnightblue" points="1834.77,-223.875 1845.35,-224.426 1837.42,-217.397 1834.77,-223.875"/>
</g>
<!-- Node9 -->
<g id="node9" class="node"><title>Node9</title>
<g id="a_node9"><a xlink:href="../../dd/dbd/torclocalcontext_8h.html" target="_top" xlink:title="torclocalcontext.h">
<polygon fill="white" stroke="black" points="1816,-168.5 1816,-187.5 1918,-187.5 1918,-168.5 1816,-168.5"/>
<text text-anchor="middle" x="1867" y="-175.5" font-family="Helvetica,sans-Serif" font-size="10.00">torclocalcontext.h</text>
</a>
</g>
</g>
<!-- Node1&#45;&gt;Node9 -->
<g id="edge8" class="edge"><title>Node1&#45;&gt;Node9</title>
<path fill="none" stroke="midnightblue" d="M1867,-213.805C1867,-204.91 1867,-194.78 1867,-187.751"/>
<polygon fill="midnightblue" stroke="midnightblue" points="1863.5,-214.083 1867,-224.083 1870.5,-214.083 1863.5,-214.083"/>
</g>
<!-- Node20 -->
<g id="node20" class="node"><title>Node20</title>
<g id="a_node20"><a xlink:href="../../d5/d95/torcadminthread_8cpp.html" target="_top" xlink:title="torcadminthread.cpp">
<polygon fill="white" stroke="black" points="422.5,-112.5 422.5,-131.5 539.5,-131.5 539.5,-112.5 422.5,-112.5"/>
<text text-anchor="middle" x="481" y="-119.5" font-family="Helvetica,sans-Serif" font-size="10.00">torcadminthread.cpp</text>
</a>
</g>
</g>
<!-- Node1&#45;&gt;Node20 -->
<g id="edge45" class="edge"><title>Node1&#45;&gt;Node20</title>
<path fill="none" stroke="midnightblue" d="M1846.96,-218.551C1822.28,-201.077 1781.47,-173.335 1764,-168 1635.36,-128.721 688.114,-142.24 554,-132 549.289,-131.64 544.415,-131.197 539.523,-130.701"/>
<polygon fill="midnightblue" stroke="midnightblue" points="1845.08,-221.507 1855.25,-224.463 1849.14,-215.808 1845.08,-221.507"/>
</g>
<!-- Node21 -->
<g id="node21" class="node"><title>Node21</title>
<g id="a_node21"><a xlink:href="../../dc/d96/torcbonjour_8cpp.html" target="_top" xlink:title="torcbonjour.cpp">
<polygon fill="white" stroke="black" points="2533.5,-112.5 2533.5,-131.5 2624.5,-131.5 2624.5,-112.5 2533.5,-112.5"/>
<text text-anchor="middle" x="2579" y="-119.5" font-family="Helvetica,sans-Serif" font-size="10.00">torcbonjour.cpp</text>
</a>
</g>
</g>
<!-- Node1&#45;&gt;Node21 -->
<g id="edge46" class="edge"><title>Node1&#45;&gt;Node21</title>
<path fill="none" stroke="midnightblue" d="M1930.23,-223.57C2047.55,-206.013 2306.83,-166.924 2525,-132 2527.72,-131.564 2530.52,-131.112 2533.34,-130.652"/>
<polygon fill="midnightblue" stroke="midnightblue" points="1929.72,-220.109 1920.34,-225.049 1930.75,-227.032 1929.72,-220.109"/>
</g>
<!-- Node24 -->
<g id="node24" class="node"><title>Node24</title>
<g id="a_node24"><a xlink:href="../../da/d9c/torcnetwork_8cpp.html" target="_top" xlink:title="torcnetwork.cpp">
<polygon fill="white" stroke="black" points="2642.5,-112.5 2642.5,-131.5 2735.5,-131.5 2735.5,-112.5 2642.5,-112.5"/>
<text text-anchor="middle" x="2689" y="-119.5" font-family="Helvetica,sans-Serif" font-size="10.00">torcnetwork.cpp</text>
</a>
</g>
</g>
<!-- Node1&#45;&gt;Node24 -->
<g id="edge47" class="edge"><title>Node1&#45;&gt;Node24</title>
<path fill="none" stroke="midnightblue" d="M1930.48,-225.856C2005.28,-217.334 2133.28,-202.421 2243,-188 2417.05,-165.123 2460.48,-158.621 2634,-132 2636.77,-131.575 2639.62,-131.13 2642.5,-130.676"/>
<polygon fill="midnightblue" stroke="midnightblue" points="1929.83,-222.408 1920.29,-227.016 1930.62,-229.363 1929.83,-222.408"/>
</g>
<!-- Node26 -->
<g id="node26" class="node"><title>Node26</title>
<g id="a_node26"><a xlink:href="../../de/d48/torcnetworkedcontext_8cpp.html" target="_top" xlink:title="torcnetworkedcontext.cpp">
<polygon fill="white" stroke="black" points="2167.5,-56.5 2167.5,-75.5 2308.5,-75.5 2308.5,-56.5 2167.5,-56.5"/>
<text text-anchor="middle" x="2238" y="-63.5" font-family="Helvetica,sans-Serif" font-size="10.00">torcnetworkedcontext.cpp</text>
</a>
</g>
</g>
<!-- Node1&#45;&gt;Node26 -->
<g id="edge48" class="edge"><title>Node1&#45;&gt;Node26</title>
<path fill="none" stroke="midnightblue" d="M1930.48,-232.523C2163.49,-230.108 2961.95,-215.739 3035,-132 3040.84,-125.302 3041.13,-118.441 3035,-112 3007.51,-83.0996 2357.75,-79.2309 2318,-76 2314.94,-75.7509 2311.81,-75.4782 2308.65,-75.1877"/>
<polygon fill="midnightblue" stroke="midnightblue" points="1930.11,-229.026 1920.14,-232.626 1930.18,-236.026 1930.11,-229.026"/>
</g>
<!-- Node27 -->
<g id="node27" class="node"><title>Node27</title>
<g id="a_node27"><a xlink:href="../../d9/de1/torcssdp_8cpp.html" target="_top" xlink:title="torcssdp.cpp">
<polygon fill="white" stroke="black" points="1965,-0.5 1965,-19.5 2043,-19.5 2043,-0.5 1965,-0.5"/>
<text text-anchor="middle" x="2004" y="-7.5" font-family="Helvetica,sans-Serif" font-size="10.00">torcssdp.cpp</text>
</a>
</g>
</g>
<!-- Node1&#45;&gt;Node27 -->
<g id="edge53" class="edge"><title>Node1&#45;&gt;Node27</title>
<path fill="none" stroke="midnightblue" d="M1930.16,-232.774C2124.46,-231.681 2711.37,-225.296 2898,-188 2969.01,-173.81 3009.52,-191.354 3051,-132 3056.09,-124.714 3056.98,-118.58 3051,-112 2981.94,-35.9582 2225.49,-15.5635 2043.3,-11.7393"/>
<polygon fill="midnightblue" stroke="midnightblue" points="1930.09,-229.274 1920.11,-232.828 1930.13,-236.274 1930.09,-229.274"/>
</g>
<!-- Node33 -->
<g id="node33" class="node"><title>Node33</title>
<g id="a_node33"><a xlink:href="../../d2/da7/torcpower_8cpp.html" target="_top" xlink:title="torcpower.cpp">
<polygon fill="white" stroke="black" points="2753.5,-112.5 2753.5,-131.5 2836.5,-131.5 2836.5,-112.5 2753.5,-112.5"/>
<text text-anchor="middle" x="2795" y="-119.5" font-family="Helvetica,sans-Serif" font-size="10.00">torcpower.cpp</text>
</a>
</g>
</g>
<!-- Node1&#45;&gt;Node33 -->
<g id="edge50" class="edge"><title>Node1&#45;&gt;Node33</title>
<path fill="none" stroke="midnightblue" d="M1930.5,-227.534C2019.47,-219.708 2186.23,-204.433 2328,-188 2513.75,-166.468 2560.27,-161.015 2745,-132 2747.7,-131.576 2750.48,-131.122 2753.28,-130.653"/>
<polygon fill="midnightblue" stroke="midnightblue" points="1929.96,-224.068 1920.31,-228.428 1930.57,-231.041 1929.96,-224.068"/>
</g>
<!-- Node36 -->
<g id="node36" class="node"><title>Node36</title>
<g id="a_node36"><a xlink:href="../../d8/d51/torctime_8cpp.html" target="_top" xlink:title="torctime.cpp">
<polygon fill="white" stroke="black" points="2854.5,-112.5 2854.5,-131.5 2931.5,-131.5 2931.5,-112.5 2854.5,-112.5"/>
<text text-anchor="middle" x="2893" y="-119.5" font-family="Helvetica,sans-Serif" font-size="10.00">torctime.cpp</text>
</a>
</g>
</g>
<!-- Node1&#45;&gt;Node36 -->
<g id="edge51" class="edge"><title>Node1&#45;&gt;Node36</title>
<path fill="none" stroke="midnightblue" d="M1930.46,-228.956C2034.1,-222.111 2246.08,-207.101 2425,-188 2612.69,-167.962 2659.67,-162.207 2846,-132 2848.71,-131.561 2851.5,-131.086 2854.3,-130.591"/>
<polygon fill="midnightblue" stroke="midnightblue" points="1929.92,-225.484 1920.17,-229.632 1930.38,-232.469 1929.92,-225.484"/>
</g>
<!-- Node37 -->
<g id="node37" class="node"><title>Node37</title>
<g id="a_node37"><a xlink:href="../../d5/d2f/torcuser_8cpp.html" target="_top" xlink:title="torcuser.cpp">
<polygon fill="white" stroke="black" points="2950,-112.5 2950,-131.5 3026,-131.5 3026,-112.5 2950,-112.5"/>
<text text-anchor="middle" x="2988" y="-119.5" font-family="Helvetica,sans-Serif" font-size="10.00">torcuser.cpp</text>
</a>
</g>
</g>
<!-- Node1&#45;&gt;Node37 -->
<g id="edge52" class="edge"><title>Node1&#45;&gt;Node37</title>
<path fill="none" stroke="midnightblue" d="M1930.31,-230.068C2047.88,-224.315 2307.83,-210.145 2526,-188 2711.16,-169.206 2757.31,-161.957 2941,-132 2943.87,-131.532 2946.83,-131.024 2949.81,-130.495"/>
<polygon fill="midnightblue" stroke="midnightblue" points="1929.88,-226.585 1920.06,-230.566 1930.22,-233.577 1929.88,-226.585"/>
</g>
<!-- Node38 -->
<g id="node38" class="node"><title>Node38</title>
<g id="a_node38"><a xlink:href="../../d8/dcb/torcnetworkrequest_8cpp.html" target="_top" xlink:title="torcnetworkrequest.cpp">
<polygon fill="white" stroke="black" points="3120,-168.5 3120,-187.5 3250,-187.5 3250,-168.5 3120,-168.5"/>
<text text-anchor="middle" x="3185" y="-175.5" font-family="Helvetica,sans-Serif" font-size="10.00">torcnetworkrequest.cpp</text>
</a>
</g>
</g>
<!-- Node1&#45;&gt;Node38 -->
<g id="edge49" class="edge"><title>Node1&#45;&gt;Node38</title>
<path fill="none" stroke="midnightblue" d="M1930.45,-232.422C2113.21,-230.385 2656.46,-221.719 3106,-188 3110.54,-187.659 3115.23,-187.257 3119.94,-186.814"/>
<polygon fill="midnightblue" stroke="midnightblue" points="1930.18,-228.925 1920.22,-232.533 1930.25,-235.924 1930.18,-228.925"/>
</g>
<!-- Node9&#45;&gt;Node4 -->
<g id="edge15" class="edge"><title>Node9&#45;&gt;Node4</title>
<path fill="none" stroke="midnightblue" d="M1805.72,-172.44C1782.07,-170.821 1754.79,-169.123 1730,-168 1089.12,-138.967 927.331,-171.256 287,-132 271.622,-131.057 254.84,-129.556 239.87,-128.048"/>
<polygon fill="midnightblue" stroke="midnightblue" points="1805.74,-175.95 1815.96,-173.152 1806.22,-168.967 1805.74,-175.95"/>
</g>
<!-- Node9&#45;&gt;Node5 -->
<g id="edge18" class="edge"><title>Node9&#45;&gt;Node5</title>
<path fill="none" stroke="midnightblue" d="M1805.74,-168.772C1802.79,-168.486 1799.86,-168.226 1797,-168 1729.96,-162.706 637.454,-176.466 587,-132 554.137,-103.037 561.86,-42.3363 566.13,-19.7298"/>
<polygon fill="midnightblue" stroke="midnightblue" points="1805.52,-172.268 1815.83,-169.833 1806.25,-165.307 1805.52,-172.268"/>
</g>
<!-- Node9&#45;&gt;Node8 -->
<g id="edge21" class="edge"><title>Node9&#45;&gt;Node8</title>
<path fill="none" stroke="midnightblue" d="M1805.66,-171.027C1791.96,-169.864 1777.5,-168.769 1764,-168 1164.31,-133.842 1011.53,-182.557 413,-132 410.138,-131.758 407.207,-131.473 404.251,-131.155"/>
<polygon fill="midnightblue" stroke="midnightblue" points="1805.7,-174.543 1815.96,-171.925 1806.31,-167.57 1805.7,-174.543"/>
</g>
<!-- Node10 -->
<g id="node10" class="node"><title>Node10</title>
<g id="a_node10"><a xlink:href="../../d3/d4a/torctimercontrol_8cpp.html" target="_top" xlink:title="torctimercontrol.cpp">
<polygon fill="white" stroke="black" points="596,-112.5 596,-131.5 710,-131.5 710,-112.5 596,-112.5"/>
<text text-anchor="middle" x="653" y="-119.5" font-family="Helvetica,sans-Serif" font-size="10.00">torctimercontrol.cpp</text>
</a>
</g>
</g>
<!-- Node9&#45;&gt;Node10 -->
<g id="edge9" class="edge"><title>Node9&#45;&gt;Node10</title>
<path fill="none" stroke="midnightblue" d="M1805.87,-168.35C1804.57,-168.226 1803.28,-168.109 1802,-168 1322.16,-126.918 1198.89,-172.588 719,-132 716.119,-131.756 713.172,-131.474 710.198,-131.164"/>
<polygon fill="midnightblue" stroke="midnightblue" points="1805.65,-171.847 1815.96,-169.421 1806.39,-164.886 1805.65,-171.847"/>
</g>
<!-- Node11 -->
<g id="node11" class="node"><title>Node11</title>
<g id="a_node11"><a xlink:href="../../da/dcd/torctransitioncontrol_8cpp.html" target="_top" xlink:title="torctransitioncontrol.cpp">
<polygon fill="white" stroke="black" points="728,-112.5 728,-131.5 862,-131.5 862,-112.5 728,-112.5"/>
<text text-anchor="middle" x="795" y="-119.5" font-family="Helvetica,sans-Serif" font-size="10.00">torctransitioncontrol.cpp</text>
</a>
</g>
</g>
<!-- Node9&#45;&gt;Node11 -->
<g id="edge10" class="edge"><title>Node9&#45;&gt;Node11</title>
<path fill="none" stroke="midnightblue" d="M1805.87,-168.36C1804.57,-168.233 1803.28,-168.113 1802,-168 1389.52,-131.559 1283.82,-164.374 871,-132 868.086,-131.771 865.111,-131.516 862.108,-131.239"/>
<polygon fill="midnightblue" stroke="midnightblue" points="1805.64,-171.856 1815.96,-169.447 1806.39,-164.896 1805.64,-171.856"/>
</g>
<!-- Node12 -->
<g id="node12" class="node"><title>Node12</title>
<g id="a_node12"><a xlink:href="../../d0/ddb/torcsysteminput_8cpp.html" target="_top" xlink:title="torcsysteminput.cpp">
<polygon fill="white" stroke="black" points="880.5,-112.5 880.5,-131.5 995.5,-131.5 995.5,-112.5 880.5,-112.5"/>
<text text-anchor="middle" x="938" y="-119.5" font-family="Helvetica,sans-Serif" font-size="10.00">torcsysteminput.cpp</text>
</a>
</g>
</g>
<!-- Node9&#45;&gt;Node12 -->
<g id="edge11" class="edge"><title>Node9&#45;&gt;Node12</title>
<path fill="none" stroke="midnightblue" d="M1805.87,-168.371C1804.57,-168.241 1803.28,-168.117 1802,-168 1448.9,-135.649 1358.17,-163.634 1005,-132 1001.96,-131.728 998.848,-131.418 995.707,-131.081"/>
<polygon fill="midnightblue" stroke="midnightblue" points="1805.63,-171.867 1815.96,-169.478 1806.4,-164.909 1805.63,-171.867"/>
</g>
<!-- Node13 -->
<g id="node13" class="node"><title>Node13</title>
<g id="a_node13"><a xlink:href="../../d1/d5d/torcsystemnotification_8h.html" target="_top" xlink:title="torcsystemnotification.h">
<polygon fill="white" stroke="black" points="1014,-112.5 1014,-131.5 1146,-131.5 1146,-112.5 1014,-112.5"/>
<text text-anchor="middle" x="1080" y="-119.5" font-family="Helvetica,sans-Serif" font-size="10.00">torcsystemnotification.h</text>
</a>
</g>
</g>
<!-- Node9&#45;&gt;Node13 -->
<g id="edge12" class="edge"><title>Node9&#45;&gt;Node13</title>
<path fill="none" stroke="midnightblue" d="M1805.86,-168.39C1804.56,-168.254 1803.28,-168.124 1802,-168 1515.34,-140.227 1441.9,-157.17 1155,-132 1152.13,-131.748 1149.19,-131.473 1146.23,-131.18"/>
<polygon fill="midnightblue" stroke="midnightblue" points="1805.62,-171.884 1815.95,-169.529 1806.41,-164.929 1805.62,-171.884"/>
</g>
<!-- Node15 -->
<g id="node15" class="node"><title>Node15</title>
<g id="a_node15"><a xlink:href="../../d6/d7a/server_2main_8cpp.html" target="_top" xlink:title="main.cpp">
<polygon fill="white" stroke="black" points="1164.5,-112.5 1164.5,-131.5 1225.5,-131.5 1225.5,-112.5 1164.5,-112.5"/>
<text text-anchor="middle" x="1195" y="-119.5" font-family="Helvetica,sans-Serif" font-size="10.00">main.cpp</text>
</a>
</g>
</g>
<!-- Node9&#45;&gt;Node15 -->
<g id="edge14" class="edge"><title>Node9&#45;&gt;Node15</title>
<path fill="none" stroke="midnightblue" d="M1805.86,-168.403C1804.56,-168.263 1803.28,-168.129 1802,-168 1550.32,-142.636 1484.29,-168.561 1234,-132 1231.25,-131.598 1228.41,-131.102 1225.57,-130.551"/>
<polygon fill="midnightblue" stroke="midnightblue" points="1805.61,-171.897 1815.95,-169.566 1806.42,-164.943 1805.61,-171.897"/>
</g>
<!-- Node16 -->
<g id="node16" class="node"><title>Node16</title>
<g id="a_node16"><a xlink:href="../../d6/ddf/torcxsdtest_8cpp.html" target="_top" xlink:title="torcxsdtest.cpp">
<polygon fill="white" stroke="black" points="1243.5,-112.5 1243.5,-131.5 1334.5,-131.5 1334.5,-112.5 1243.5,-112.5"/>
<text text-anchor="middle" x="1289" y="-119.5" font-family="Helvetica,sans-Serif" font-size="10.00">torcxsdtest.cpp</text>
</a>
</g>
</g>
<!-- Node9&#45;&gt;Node16 -->
<g id="edge16" class="edge"><title>Node9&#45;&gt;Node16</title>
<path fill="none" stroke="midnightblue" d="M1805.86,-168.429C1804.56,-168.282 1803.27,-168.138 1802,-168 1599.01,-145.988 1546.71,-156.508 1344,-132 1340.93,-131.628 1337.76,-131.209 1334.58,-130.76"/>
<polygon fill="midnightblue" stroke="midnightblue" points="1805.59,-171.923 1815.94,-169.64 1806.43,-164.973 1805.59,-171.923"/>
</g>
<!-- Node17 -->
<g id="node17" class="node"><title>Node17</title>
<g id="a_node17"><a xlink:href="../../dd/dbf/testtorclocalcontext_8cpp.html" target="_top" xlink:title="testtorclocalcontext.cpp">
<polygon fill="white" stroke="black" points="1353,-112.5 1353,-131.5 1485,-131.5 1485,-112.5 1353,-112.5"/>
<text text-anchor="middle" x="1419" y="-119.5" font-family="Helvetica,sans-Serif" font-size="10.00">testtorclocalcontext.cpp</text>
</a>
</g>
</g>
<!-- Node9&#45;&gt;Node17 -->
<g id="edge17" class="edge"><title>Node9&#45;&gt;Node17</title>
<path fill="none" stroke="midnightblue" d="M1805.85,-168.496C1804.56,-168.328 1803.27,-168.162 1802,-168 1665.29,-150.548 1630.86,-148.21 1494,-132 1491.13,-131.661 1488.21,-131.313 1485.25,-130.961"/>
<polygon fill="midnightblue" stroke="midnightblue" points="1805.55,-171.986 1815.92,-169.823 1806.46,-165.046 1805.55,-171.986"/>
</g>
<!-- Node18 -->
<g id="node18" class="node"><title>Node18</title>
<g id="a_node18"><a xlink:href="../../da/d1a/torchttpservices_8cpp.html" target="_top" xlink:title="torchttpservices.cpp">
<polygon fill="white" stroke="black" points="1503,-112.5 1503,-131.5 1617,-131.5 1617,-112.5 1503,-112.5"/>
<text text-anchor="middle" x="1560" y="-119.5" font-family="Helvetica,sans-Serif" font-size="10.00">torchttpservices.cpp</text>
</a>
</g>
</g>
<!-- Node9&#45;&gt;Node18 -->
<g id="edge19" class="edge"><title>Node9&#45;&gt;Node18</title>
<path fill="none" stroke="midnightblue" d="M1808.24,-166.664C1750.22,-156.459 1662.55,-141.039 1608.42,-131.516"/>
<polygon fill="midnightblue" stroke="midnightblue" points="1807.9,-170.158 1818.35,-168.444 1809.11,-163.264 1807.9,-170.158"/>
</g>
<!-- Node19 -->
<g id="node19" class="node"><title>Node19</title>
<g id="a_node19"><a xlink:href="../../df/d2a/torcpowerosx_8cpp.html" target="_top" xlink:title="torcpowerosx.cpp">
<polygon fill="white" stroke="black" points="1635.5,-112.5 1635.5,-131.5 1736.5,-131.5 1736.5,-112.5 1635.5,-112.5"/>
<text text-anchor="middle" x="1686" y="-119.5" font-family="Helvetica,sans-Serif" font-size="10.00">torcpowerosx.cpp</text>
</a>
</g>
</g>
<!-- Node9&#45;&gt;Node19 -->
<g id="edge20" class="edge"><title>Node9&#45;&gt;Node19</title>
<path fill="none" stroke="midnightblue" d="M1828.68,-165.568C1794.54,-155.381 1745.34,-140.703 1714.55,-131.516"/>
<polygon fill="midnightblue" stroke="midnightblue" points="1827.74,-168.938 1838.32,-168.444 1829.74,-162.231 1827.74,-168.938"/>
</g>
<!-- Node9&#45;&gt;Node20 -->
<g id="edge22" class="edge"><title>Node9&#45;&gt;Node20</title>
<path fill="none" stroke="midnightblue" d="M1805.87,-168.343C1804.57,-168.221 1803.28,-168.107 1802,-168 1249.02,-121.879 1107.31,-173.995 554,-132 549.289,-131.642 544.415,-131.2 539.523,-130.705"/>
<polygon fill="midnightblue" stroke="midnightblue" points="1805.65,-171.839 1815.96,-169.399 1806.38,-164.877 1805.65,-171.839"/>
</g>
<!-- Node9&#45;&gt;Node21 -->
<g id="edge23" class="edge"><title>Node9&#45;&gt;Node21</title>
<path fill="none" stroke="midnightblue" d="M1928.51,-174.783C2045.16,-170.139 2306.42,-157.628 2525,-132 2527.74,-131.679 2530.55,-131.315 2533.38,-130.923"/>
<polygon fill="midnightblue" stroke="midnightblue" points="1928.2,-171.293 1918.35,-175.183 1928.48,-178.287 1928.2,-171.293"/>
</g>
<!-- Node22 -->
<g id="node22" class="node"><title>Node22</title>
<g id="a_node22"><a xlink:href="../../d3/df3/torclanguage_8cpp.html" target="_top" xlink:title="torclanguage.cpp">
<polygon fill="white" stroke="black" points="1755,-112.5 1755,-131.5 1855,-131.5 1855,-112.5 1755,-112.5"/>
<text text-anchor="middle" x="1805" y="-119.5" font-family="Helvetica,sans-Serif" font-size="10.00">torclanguage.cpp</text>
</a>
</g>
</g>
<!-- Node9&#45;&gt;Node22 -->
<g id="edge24" class="edge"><title>Node9&#45;&gt;Node22</title>
<path fill="none" stroke="midnightblue" d="M1849.25,-161.537C1838.19,-151.909 1824.37,-139.869 1815.14,-131.834"/>
<polygon fill="midnightblue" stroke="midnightblue" points="1847.2,-164.395 1857.04,-168.324 1851.8,-159.117 1847.2,-164.395"/>
</g>
<!-- Node23 -->
<g id="node23" class="node"><title>Node23</title>
<g id="a_node23"><a xlink:href="../../da/d67/torclocalcontext_8cpp.html" target="_top" xlink:title="torclocalcontext.cpp">
<polygon fill="white" stroke="black" points="1873.5,-112.5 1873.5,-131.5 1986.5,-131.5 1986.5,-112.5 1873.5,-112.5"/>
<text text-anchor="middle" x="1930" y="-119.5" font-family="Helvetica,sans-Serif" font-size="10.00">torclocalcontext.cpp</text>
</a>
</g>
</g>
<!-- Node9&#45;&gt;Node23 -->
<g id="edge25" class="edge"><title>Node9&#45;&gt;Node23</title>
<path fill="none" stroke="midnightblue" d="M1885.04,-161.537C1896.27,-151.909 1910.32,-139.869 1919.69,-131.834"/>
<polygon fill="midnightblue" stroke="midnightblue" points="1882.44,-159.159 1877.12,-168.324 1886.99,-164.473 1882.44,-159.159"/>
</g>
<!-- Node9&#45;&gt;Node24 -->
<g id="edge26" class="edge"><title>Node9&#45;&gt;Node24</title>
<path fill="none" stroke="midnightblue" d="M1928.5,-175.553C2058.9,-172.011 2372.61,-160.975 2634,-132 2636.69,-131.702 2639.45,-131.361 2642.24,-130.99"/>
<polygon fill="midnightblue" stroke="midnightblue" points="1928.22,-172.059 1918.32,-175.825 1928.41,-179.057 1928.22,-172.059"/>
</g>
<!-- Node25 -->
<g id="node25" class="node"><title>Node25</title>
<g id="a_node25"><a xlink:href="../../dd/d1e/torcupnp_8h.html" target="_top" xlink:title="torcupnp.h">
<polygon fill="white" stroke="black" points="2005,-112.5 2005,-131.5 2073,-131.5 2073,-112.5 2005,-112.5"/>
<text text-anchor="middle" x="2039" y="-119.5" font-family="Helvetica,sans-Serif" font-size="10.00">torcupnp.h</text>
</a>
</g>
</g>
<!-- Node9&#45;&gt;Node25 -->
<g id="edge27" class="edge"><title>Node9&#45;&gt;Node25</title>
<path fill="none" stroke="midnightblue" d="M1903.83,-165.436C1936.26,-155.255 1982.74,-140.664 2011.87,-131.516"/>
<polygon fill="midnightblue" stroke="midnightblue" points="1902.75,-162.109 1894.25,-168.444 1904.84,-168.787 1902.75,-162.109"/>
</g>
<!-- Node9&#45;&gt;Node27 -->
<g id="edge43" class="edge"><title>Node9&#45;&gt;Node27</title>
<path fill="none" stroke="midnightblue" d="M1928.26,-171.865C1988.08,-165.687 2073.71,-153.377 2099,-132 2125.76,-109.376 2139.8,-84.9154 2120,-56 2102.85,-30.9577 2069.59,-19.8487 2043.06,-14.922"/>
<polygon fill="midnightblue" stroke="midnightblue" points="1927.75,-168.398 1918.15,-172.876 1928.45,-175.363 1927.75,-168.398"/>
</g>
<!-- Node30 -->
<g id="node30" class="node"><title>Node30</title>
<g id="a_node30"><a xlink:href="../../d9/db2/torcupnpcontent_8cpp.html" target="_top" xlink:title="torcupnpcontent.cpp">
<polygon fill="white" stroke="black" points="1995,-56.5 1995,-75.5 2111,-75.5 2111,-56.5 1995,-56.5"/>
<text text-anchor="middle" x="2053" y="-63.5" font-family="Helvetica,sans-Serif" font-size="10.00">torcupnpcontent.cpp</text>
</a>
</g>
</g>
<!-- Node9&#45;&gt;Node30 -->
<g id="edge44" class="edge"><title>Node9&#45;&gt;Node30</title>
<path fill="none" stroke="midnightblue" d="M1928.38,-172.611C1984.94,-167.137 2062.93,-155.476 2082,-132 2096.18,-114.544 2075.54,-89.0554 2062.42,-75.7781"/>
<polygon fill="midnightblue" stroke="midnightblue" points="1927.72,-169.157 1918.08,-173.562 1928.36,-176.127 1927.72,-169.157"/>
</g>
<!-- Node31 -->
<g id="node31" class="node"><title>Node31</title>
<g id="a_node31"><a xlink:href="../../d5/d9a/torcnetworkedcontext_8h.html" target="_top" xlink:title="torcnetworkedcontext.h">
<polygon fill="white" stroke="black" points="2167,-112.5 2167,-131.5 2297,-131.5 2297,-112.5 2167,-112.5"/>
<text text-anchor="middle" x="2232" y="-119.5" font-family="Helvetica,sans-Serif" font-size="10.00">torcnetworkedcontext.h</text>
</a>
</g>
</g>
<!-- Node9&#45;&gt;Node31 -->
<g id="edge35" class="edge"><title>Node9&#45;&gt;Node31</title>
<path fill="none" stroke="midnightblue" d="M1928.36,-167.922C1996.96,-157.773 2107.21,-141.462 2174.29,-131.538"/>
<polygon fill="midnightblue" stroke="midnightblue" points="1927.52,-164.509 1918.14,-169.435 1928.54,-171.433 1927.52,-164.509"/>
</g>
<!-- Node9&#45;&gt;Node33 -->
<g id="edge38" class="edge"><title>Node9&#45;&gt;Node33</title>
<path fill="none" stroke="midnightblue" d="M1928.5,-176.527C2072,-174.838 2439.9,-167.134 2745,-132 2747.72,-131.687 2750.51,-131.318 2753.32,-130.911"/>
<polygon fill="midnightblue" stroke="midnightblue" points="1928.12,-173.031 1918.16,-176.642 1928.19,-180.03 1928.12,-173.031"/>
</g>
<!-- Node34 -->
<g id="node34" class="node"><title>Node34</title>
<g id="a_node34"><a xlink:href="../../d8/d8c/torcqthread_8cpp.html" target="_top" xlink:title="torcqthread.cpp">
<polygon fill="white" stroke="black" points="2315.5,-112.5 2315.5,-131.5 2408.5,-131.5 2408.5,-112.5 2315.5,-112.5"/>
<text text-anchor="middle" x="2362" y="-119.5" font-family="Helvetica,sans-Serif" font-size="10.00">torcqthread.cpp</text>
</a>
</g>
</g>
<!-- Node9&#45;&gt;Node34 -->
<g id="edge39" class="edge"><title>Node9&#45;&gt;Node34</title>
<path fill="none" stroke="midnightblue" d="M1928.13,-171.847C2013.06,-164.433 2171.51,-149.686 2306,-132 2309.03,-131.602 2312.14,-131.168 2315.28,-130.714"/>
<polygon fill="midnightblue" stroke="midnightblue" points="1927.8,-168.362 1918.14,-172.714 1928.41,-175.335 1927.8,-168.362"/>
</g>
<!-- Node35 -->
<g id="node35" class="node"><title>Node35</title>
<g id="a_node35"><a xlink:href="../../de/d3c/torcsetting_8cpp.html" target="_top" xlink:title="torcsetting.cpp">
<polygon fill="white" stroke="black" points="2426.5,-112.5 2426.5,-131.5 2515.5,-131.5 2515.5,-112.5 2426.5,-112.5"/>
<text text-anchor="middle" x="2471" y="-119.5" font-family="Helvetica,sans-Serif" font-size="10.00">torcsetting.cpp</text>
</a>
</g>
</g>
<!-- Node9&#45;&gt;Node35 -->
<g id="edge40" class="edge"><title>Node9&#45;&gt;Node35</title>
<path fill="none" stroke="midnightblue" d="M1928.15,-173.743C2030.02,-167.928 2240.77,-154.243 2418,-132 2420.69,-131.663 2423.44,-131.287 2426.22,-130.885"/>
<polygon fill="midnightblue" stroke="midnightblue" points="1927.84,-170.255 1918.05,-174.314 1928.23,-177.244 1927.84,-170.255"/>
</g>
<!-- Node9&#45;&gt;Node36 -->
<g id="edge41" class="edge"><title>Node9&#45;&gt;Node36</title>
<path fill="none" stroke="midnightblue" d="M1928.41,-177.224C2083.04,-177.128 2500.78,-172.774 2846,-132 2848.72,-131.678 2851.52,-131.29 2854.34,-130.858"/>
<polygon fill="midnightblue" stroke="midnightblue" points="1928.17,-173.724 1918.17,-177.224 1928.17,-180.724 1928.17,-173.724"/>
</g>
<!-- Node9&#45;&gt;Node37 -->
<g id="edge42" class="edge"><title>Node9&#45;&gt;Node37</title>
<path fill="none" stroke="midnightblue" d="M1928.49,-177.584C2093.19,-178.465 2557.8,-176.471 2941,-132 2943.89,-131.665 2946.87,-131.253 2949.85,-130.792"/>
<polygon fill="midnightblue" stroke="midnightblue" points="1928.1,-174.081 1918.08,-177.522 1928.06,-181.081 1928.1,-174.081"/>
</g>
<!-- Node14 -->
<g id="node14" class="node"><title>Node14</title>
<g id="a_node14"><a xlink:href="../../d8/de9/torcsystemnotification_8cpp.html" target="_top" xlink:title="torcsystemnotification.cpp">
<polygon fill="white" stroke="black" points="1008.5,-56.5 1008.5,-75.5 1151.5,-75.5 1151.5,-56.5 1008.5,-56.5"/>
<text text-anchor="middle" x="1080" y="-63.5" font-family="Helvetica,sans-Serif" font-size="10.00">torcsystemnotification.cpp</text>
</a>
</g>
</g>
<!-- Node13&#45;&gt;Node14 -->
<g id="edge13" class="edge"><title>Node13&#45;&gt;Node14</title>
<path fill="none" stroke="midnightblue" d="M1080,-101.805C1080,-92.9102 1080,-82.7798 1080,-75.7511"/>
<polygon fill="midnightblue" stroke="midnightblue" points="1076.5,-102.083 1080,-112.083 1083.5,-102.083 1076.5,-102.083"/>
</g>
<!-- Node25&#45;&gt;Node26 -->
<g id="edge28" class="edge"><title>Node25&#45;&gt;Node26</title>
<path fill="none" stroke="midnightblue" d="M2080.65,-109.699C2118.21,-99.507 2172.61,-84.7429 2206.62,-75.5164"/>
<polygon fill="midnightblue" stroke="midnightblue" points="2079.27,-106.447 2070.53,-112.444 2081.1,-113.202 2079.27,-106.447"/>
</g>
<!-- Node25&#45;&gt;Node27 -->
<g id="edge29" class="edge"><title>Node25&#45;&gt;Node27</title>
<path fill="none" stroke="midnightblue" d="M1994.84,-110.672C1952.67,-100.367 1894.58,-84.8322 1888,-76 1864.68,-44.7208 1922.71,-26.4125 1964.84,-17.5811"/>
<polygon fill="midnightblue" stroke="midnightblue" points="1994.09,-114.093 2004.64,-113.043 1995.74,-107.289 1994.09,-114.093"/>
</g>
<!-- Node28 -->
<g id="node28" class="node"><title>Node28</title>
<g id="a_node28"><a xlink:href="../../dd/d3e/torcssdp_8h.html" target="_top" xlink:title="torcssdp.h">
<polygon fill="white" stroke="black" points="1773.5,-56.5 1773.5,-75.5 1840.5,-75.5 1840.5,-56.5 1773.5,-56.5"/>
<text text-anchor="middle" x="1807" y="-63.5" font-family="Helvetica,sans-Serif" font-size="10.00">torcssdp.h</text>
</a>
</g>
</g>
<!-- Node25&#45;&gt;Node28 -->
<g id="edge30" class="edge"><title>Node25&#45;&gt;Node28</title>
<path fill="none" stroke="midnightblue" d="M1995.01,-110.761C1950.09,-100.306 1881.35,-84.3063 1840.62,-74.825"/>
<polygon fill="midnightblue" stroke="midnightblue" points="1994.23,-114.174 2004.77,-113.032 1995.82,-107.356 1994.23,-114.174"/>
</g>
<!-- Node29 -->
<g id="node29" class="node"><title>Node29</title>
<g id="a_node29"><a xlink:href="../../d4/ddf/torcupnp_8cpp.html" target="_top" xlink:title="torcupnp.cpp">
<polygon fill="white" stroke="black" points="1897,-56.5 1897,-75.5 1977,-75.5 1977,-56.5 1897,-56.5"/>
<text text-anchor="middle" x="1937" y="-63.5" font-family="Helvetica,sans-Serif" font-size="10.00">torcupnp.cpp</text>
</a>
</g>
</g>
<!-- Node25&#45;&gt;Node29 -->
<g id="edge33" class="edge"><title>Node25&#45;&gt;Node29</title>
<path fill="none" stroke="midnightblue" d="M2013.67,-107.59C1994.81,-97.6052 1969.62,-84.2672 1953.35,-75.6545"/>
<polygon fill="midnightblue" stroke="midnightblue" points="2012.14,-110.738 2022.61,-112.324 2015.41,-104.552 2012.14,-110.738"/>
</g>
<!-- Node25&#45;&gt;Node30 -->
<g id="edge34" class="edge"><title>Node25&#45;&gt;Node30</title>
<path fill="none" stroke="midnightblue" d="M2043.82,-102.396C2046.17,-93.362 2048.87,-82.936 2050.73,-75.7511"/>
<polygon fill="midnightblue" stroke="midnightblue" points="2040.43,-101.525 2041.31,-112.083 2047.21,-103.281 2040.43,-101.525"/>
</g>
<!-- Node28&#45;&gt;Node5 -->
<g id="edge31" class="edge"><title>Node28&#45;&gt;Node5</title>
<path fill="none" stroke="midnightblue" d="M1763.07,-63.0852C1573.4,-54.8189 825.149,-22.2075 620.165,-13.2735"/>
<polygon fill="midnightblue" stroke="midnightblue" points="1763.07,-66.5888 1773.22,-63.5276 1763.38,-59.5954 1763.07,-66.5888"/>
</g>
<!-- Node28&#45;&gt;Node27 -->
<g id="edge32" class="edge"><title>Node28&#45;&gt;Node27</title>
<path fill="none" stroke="midnightblue" d="M1848.23,-53.6986C1885.41,-43.507 1939.27,-28.7429 1972.93,-19.5164"/>
<polygon fill="midnightblue" stroke="midnightblue" points="1846.93,-50.4244 1838.22,-56.4435 1848.78,-57.1754 1846.93,-50.4244"/>
</g>
<!-- Node31&#45;&gt;Node26 -->
<g id="edge37" class="edge"><title>Node31&#45;&gt;Node26</title>
<path fill="none" stroke="midnightblue" d="M2234.1,-102.101C2235.1,-93.1357 2236.24,-82.8579 2237.03,-75.7511"/>
<polygon fill="midnightblue" stroke="midnightblue" points="2230.62,-101.758 2232.99,-112.083 2237.57,-102.531 2230.62,-101.758"/>
</g>
<!-- Node32 -->
<g id="node32" class="node"><title>Node32</title>
<g id="a_node32"><a xlink:href="../../db/d78/torcwebsocket_8cpp.html" target="_top" xlink:title="torcwebsocket.cpp">
<polygon fill="white" stroke="black" points="2327,-56.5 2327,-75.5 2433,-75.5 2433,-56.5 2327,-56.5"/>
<text text-anchor="middle" x="2380" y="-63.5" font-family="Helvetica,sans-Serif" font-size="10.00">torcwebsocket.cpp</text>
</a>
</g>
</g>
<!-- Node31&#45;&gt;Node32 -->
<g id="edge36" class="edge"><title>Node31&#45;&gt;Node32</title>
<path fill="none" stroke="midnightblue" d="M2265.15,-108.906C2292.97,-98.7536 2332.02,-84.5063 2356.66,-75.5164"/>
<polygon fill="midnightblue" stroke="midnightblue" points="2263.65,-105.728 2255.45,-112.444 2266.04,-112.304 2263.65,-105.728"/>
</g>
</g>
</svg>
        <g id="navigator" transform="translate(0 0)" fill="#404254">
                <rect fill="#f2f5e9" fill-opacity="0.5" stroke="#606060" stroke-width=".5" x="0" y="0" width="60" height="60"/>
                <use id="zoomplus" xlink:href="#zoomPlus" x="17" y="9" onmousedown="handleZoom(evt,'in')"/>
                <use id="zoomminus" xlink:href="#zoomMin" x="42" y="9" onmousedown="handleZoom(evt,'out')"/>
                <use id="reset" xlink:href="#resetDef" x="30" y="36" onmousedown="handleReset()"/>
                <g id="arrowUp" xlink:href="#dirArrow" transform="translate(30 24)" onmousedown="handlePan(0,-1)">
                  <use xlink:href="#rim" fill="#404040">
                        <set attributeName="fill" to="#808080" begin="arrowUp.mouseover" end="arrowUp.mouseout"/>
                  </use>
                  <path fill="none" stroke="white" stroke-width="1.5" d="M0,-3.0v7 M-2.5,-0.5L0,-3.0L2.5,-0.5"/>
                </g>
                <g id="arrowRight" xlink:href="#dirArrow" transform="rotate(90) translate(36 -43)" onmousedown="handlePan(1,0)">
                  <use xlink:href="#rim" fill="#404040">
                        <set attributeName="fill" to="#808080" begin="arrowRight.mouseover" end="arrowRight.mouseout"/>
                  </use>
                  <path fill="none" stroke="white" stroke-width="1.5" d="M0,-3.0v7 M-2.5,-0.5L0,-3.0L2.5,-0.5"/>
                </g>
                <g id="arrowDown" xlink:href="#dirArrow" transform="rotate(180) translate(-30 -48)" onmousedown="handlePan(0,1)">
                  <use xlink:href="#rim" fill="#404040">
                        <set attributeName="fill" to="#808080" begin="arrowDown.mouseover" end="arrowDown.mouseout"/>
                  </use>
                  <path fill="none" stroke="white" stroke-width="1.5" d="M0,-3.0v7 M-2.5,-0.5L0,-3.0L2.5,-0.5"/>
                </g>
                <g id="arrowLeft" xlink:href="#dirArrow" transform="rotate(270) translate(-36 17)" onmousedown="handlePan(-1,0)">
                  <use xlink:href="#rim" fill="#404040">
                        <set attributeName="fill" to="#808080" begin="arrowLeft.mouseover" end="arrowLeft.mouseout"/>
                  </use>
                  <path fill="none" stroke="white" stroke-width="1.5" d="M0,-3.0v7 M-2.5,-0.5L0,-3.0L2.5,-0.5"/>
                </g>
        </g>
        <svg viewBox="0 0 15 15" width="100%" height="30px" preserveAspectRatio="xMaxYMin meet">
         <g id="arrow_out" transform="scale(0.3 0.3)">
          <a xlink:href="torcadminthread_8h__dep__incl_org.svg" target="_base">
           <rect id="button" ry="5" rx="5" y="6" x="6" height="38" width="38"
                fill="#f2f5e9" fill-opacity="0.5" stroke="#606060" stroke-width="1.0"/>
           <path id="arrow"
             d="M 11.500037,31.436501 C 11.940474,20.09759 22.043105,11.32322 32.158766,21.979434 L 37.068811,17.246167 C 37.068811,17.246167 37.088388,32 37.088388,32 L 22.160133,31.978069 C 22.160133,31.978069 26.997745,27.140456 26.997745,27.140456 C 18.528582,18.264221 13.291696,25.230495 11.500037,31.436501 z"
             style="fill:#404040;"/>
          </a>
         </g>
        </svg>
</svg>
