<?xml version="1.0" encoding="UTF-8" standalone="no"?>
<!DOCTYPE svg PUBLIC "-//W3C//DTD SVG 1.1//EN"
 "http://www.w3.org/Graphics/SVG/1.1/DTD/svg11.dtd">
<!-- Generated by graphviz version 2.38.0 (20140413.2041)
 -->
<!-- Title: torcadminthread.h Pages: 1 -->
<svg width="150pt" height="140pt"
 viewBox="0.00 0.00 149.50 140.00" xmlns="http://www.w3.org/2000/svg" xmlns:xlink="http://www.w3.org/1999/xlink">
<g id="graph0" class="graph" transform="scale(1 1) rotate(0) translate(4 136)">
<title>torcadminthread.h</title>
<polygon fill="white" stroke="none" points="-4,4 -4,-136 145.5,-136 145.5,4 -4,4"/>
<!-- Node1 -->
<g id="node1" class="node"><title>Node1</title>
<polygon fill="#bfbfbf" stroke="black" points="7.5,-112.5 7.5,-131.5 113.5,-131.5 113.5,-112.5 7.5,-112.5"/>
<text text-anchor="middle" x="60.5" y="-119.5" font-family="Helvetica,sans-Serif" font-size="10.00">torcadminthread.h</text>
</g>
<!-- Node2 -->
<g id="node2" class="node"><title>Node2</title>
<polygon fill="white" stroke="#bfbfbf" points="0,-56.5 0,-75.5 41,-75.5 41,-56.5 0,-56.5"/>
<text text-anchor="middle" x="20.5" y="-63.5" font-family="Helvetica,sans-Serif" font-size="10.00">QList</text>
</g>
<!-- Node1&#45;&gt;Node2 -->
<g id="edge1" class="edge"><title>Node1&#45;&gt;Node2</title>
<path fill="none" stroke="midnightblue" d="M53.8948,-112.083C48.2448,-104.455 39.9552,-93.2645 33.0488,-83.9408"/>
<polygon fill="midnightblue" stroke="midnightblue" points="35.7471,-81.7034 26.9823,-75.7511 30.1221,-85.87 35.7471,-81.7034"/>
</g>
<!-- Node3 -->
<g id="node3" class="node"><title>Node3</title>
<g id="a_node3"><a xlink:href="../../dd/db0/torcqthread_8h.html" target="_top" xlink:title="torcqthread.h">
<polygon fill="white" stroke="black" points="59.5,-56.5 59.5,-75.5 141.5,-75.5 141.5,-56.5 59.5,-56.5"/>
<text text-anchor="middle" x="100.5" y="-63.5" font-family="Helvetica,sans-Serif" font-size="10.00">torcqthread.h</text>
</a>
</g>
</g>
<!-- Node1&#45;&gt;Node3 -->
<g id="edge2" class="edge"><title>Node1&#45;&gt;Node3</title>
<path fill="none" stroke="midnightblue" d="M67.1052,-112.083C72.7552,-104.455 81.0448,-93.2645 87.9512,-83.9408"/>
<polygon fill="midnightblue" stroke="midnightblue" points="90.8779,-85.87 94.0177,-75.7511 85.2529,-81.7034 90.8779,-85.87"/>
</g>
<!-- Node4 -->
<g id="node4" class="node"><title>Node4</title>
<polygon fill="white" stroke="#bfbfbf" points="72,-0.5 72,-19.5 129,-19.5 129,-0.5 72,-0.5"/>
<text text-anchor="middle" x="100.5" y="-7.5" font-family="Helvetica,sans-Serif" font-size="10.00">QThread</text>
</g>
<!-- Node3&#45;&gt;Node4 -->
<g id="edge3" class="edge"><title>Node3&#45;&gt;Node4</title>
<path fill="none" stroke="midnightblue" d="M100.5,-56.083C100.5,-49.0059 100.5,-38.8611 100.5,-29.9865"/>
<polygon fill="midnightblue" stroke="midnightblue" points="104,-29.751 100.5,-19.7511 97.0001,-29.7511 104,-29.751"/>
</g>
</g>
</svg>
