<?xml version="1.0" encoding="UTF-8" standalone="no"?>
<!DOCTYPE svg PUBLIC "-//W3C//DTD SVG 1.1//EN"
 "http://www.w3.org/Graphics/SVG/1.1/DTD/svg11.dtd">
<!-- Generated by graphviz version 2.38.0 (20140413.2041)
 -->
<!-- Title: torcthingspeaknotifier.cpp Pages: 1 -->
<svg width="1418pt" height="532pt"
 viewBox="0.00 0.00 1417.50 532.00" xmlns="http://www.w3.org/2000/svg" xmlns:xlink="http://www.w3.org/1999/xlink">
<g id="graph0" class="graph" transform="scale(1 1) rotate(0) translate(4 528)">
<title>torcthingspeaknotifier.cpp</title>
<polygon fill="white" stroke="none" points="-4,4 -4,-528 1413.5,-528 1413.5,4 -4,4"/>
<!-- Node1 -->
<g id="node1" class="node"><title>Node1</title>
<polygon fill="#bfbfbf" stroke="black" points="385.5,-504.5 385.5,-523.5 525.5,-523.5 525.5,-504.5 385.5,-504.5"/>
<text text-anchor="middle" x="455.5" y="-511.5" font-family="Helvetica,sans-Serif" font-size="10.00">torcthingspeaknotifier.cpp</text>
</g>
<!-- Node2 -->
<g id="node2" class="node"><title>Node2</title>
<g id="a_node2"><a xlink:href="../../d4/df9/torclogging_8h.html" target="_top" xlink:title="torclogging.h">
<polygon fill="white" stroke="black" points="104,-448.5 104,-467.5 183,-467.5 183,-448.5 104,-448.5"/>
<text text-anchor="middle" x="143.5" y="-455.5" font-family="Helvetica,sans-Serif" font-size="10.00">torclogging.h</text>
</a>
</g>
</g>
<!-- Node1&#45;&gt;Node2 -->
<g id="edge1" class="edge"><title>Node1&#45;&gt;Node2</title>
<path fill="none" stroke="midnightblue" d="M406.063,-504.444C347.871,-494.372 251.784,-477.741 193.394,-467.636"/>
<polygon fill="midnightblue" stroke="midnightblue" points="193.751,-464.145 183.301,-465.889 192.558,-471.043 193.751,-464.145"/>
</g>
<!-- Node6 -->
<g id="node6" class="node"><title>Node6</title>
<g id="a_node6"><a xlink:href="../../df/dd7/torchttprequest_8h.html" target="_top" xlink:title="torchttprequest.h">
<polygon fill="white" stroke="black" points="421,-112.5 421,-131.5 522,-131.5 522,-112.5 421,-112.5"/>
<text text-anchor="middle" x="471.5" y="-119.5" font-family="Helvetica,sans-Serif" font-size="10.00">torchttprequest.h</text>
</a>
</g>
</g>
<!-- Node1&#45;&gt;Node6 -->
<g id="edge5" class="edge"><title>Node1&#45;&gt;Node6</title>
<path fill="none" stroke="midnightblue" d="M399.348,-504.456C343.951,-492.465 267.5,-464.734 267.5,-403 267.5,-403 267.5,-403 267.5,-233 267.5,-167.291 350.511,-140.653 410.628,-129.977"/>
<polygon fill="midnightblue" stroke="midnightblue" points="411.522,-133.376 420.811,-128.28 410.372,-126.471 411.522,-133.376"/>
</g>
<!-- Node14 -->
<g id="node14" class="node"><title>Node14</title>
<g id="a_node14"><a xlink:href="../../da/da5/torcnetwork_8h.html" target="_top" xlink:title="torcnetwork.h">
<polygon fill="white" stroke="black" points="535.5,-336.5 535.5,-355.5 617.5,-355.5 617.5,-336.5 535.5,-336.5"/>
<text text-anchor="middle" x="576.5" y="-343.5" font-family="Helvetica,sans-Serif" font-size="10.00">torcnetwork.h</text>
</a>
</g>
</g>
<!-- Node1&#45;&gt;Node14 -->
<g id="edge13" class="edge"><title>Node1&#45;&gt;Node14</title>
<path fill="none" stroke="midnightblue" d="M462.005,-504.075C481.382,-477.493 538.933,-398.538 564.281,-363.763"/>
<polygon fill="midnightblue" stroke="midnightblue" points="567.193,-365.711 570.255,-355.568 561.536,-361.588 567.193,-365.711"/>
</g>
<!-- Node34 -->
<g id="node34" class="node"><title>Node34</title>
<g id="a_node34"><a xlink:href="../../d1/d1d/torcthingspeaknotifier_8h.html" target="_top" xlink:title="torcthingspeaknotifier.h">
<polygon fill="white" stroke="black" points="901,-448.5 901,-467.5 1030,-467.5 1030,-448.5 901,-448.5"/>
<text text-anchor="middle" x="965.5" y="-455.5" font-family="Helvetica,sans-Serif" font-size="10.00">torcthingspeaknotifier.h</text>
</a>
</g>
</g>
<!-- Node1&#45;&gt;Node34 -->
<g id="edge40" class="edge"><title>Node1&#45;&gt;Node34</title>
<path fill="none" stroke="midnightblue" d="M525.611,-505.577C621.465,-495.427 792.692,-477.297 890.857,-466.903"/>
<polygon fill="midnightblue" stroke="midnightblue" points="891.422,-470.363 900.998,-465.83 890.685,-463.402 891.422,-470.363"/>
</g>
<!-- Node3 -->
<g id="node3" class="node"><title>Node3</title>
<polygon fill="white" stroke="#bfbfbf" points="0,-392.5 0,-411.5 53,-411.5 53,-392.5 0,-392.5"/>
<text text-anchor="middle" x="26.5" y="-399.5" font-family="Helvetica,sans-Serif" font-size="10.00">stdint.h</text>
</g>
<!-- Node2&#45;&gt;Node3 -->
<g id="edge2" class="edge"><title>Node2&#45;&gt;Node3</title>
<path fill="none" stroke="midnightblue" d="M124.961,-448.444C105.877,-439.636 75.9251,-425.812 54.0643,-415.722"/>
<polygon fill="midnightblue" stroke="midnightblue" points="55.4986,-412.529 44.9523,-411.516 52.5651,-418.885 55.4986,-412.529"/>
</g>
<!-- Node4 -->
<g id="node4" class="node"><title>Node4</title>
<polygon fill="white" stroke="#bfbfbf" points="71,-392.5 71,-411.5 122,-411.5 122,-392.5 71,-392.5"/>
<text text-anchor="middle" x="96.5" y="-399.5" font-family="Helvetica,sans-Serif" font-size="10.00">errno.h</text>
</g>
<!-- Node2&#45;&gt;Node4 -->
<g id="edge3" class="edge"><title>Node2&#45;&gt;Node4</title>
<path fill="none" stroke="midnightblue" d="M135.739,-448.083C128.963,-440.298 118.957,-428.801 110.745,-419.367"/>
<polygon fill="midnightblue" stroke="midnightblue" points="113.322,-416.996 104.117,-411.751 108.042,-421.592 113.322,-416.996"/>
</g>
<!-- Node5 -->
<g id="node5" class="node"><title>Node5</title>
<g id="a_node5"><a xlink:href="../../d1/d37/torcloggingdefs_8h.html" target="_top" xlink:title="torcloggingdefs.h">
<polygon fill="white" stroke="black" points="140,-392.5 140,-411.5 239,-411.5 239,-392.5 140,-392.5"/>
<text text-anchor="middle" x="189.5" y="-399.5" font-family="Helvetica,sans-Serif" font-size="10.00">torcloggingdefs.h</text>
</a>
</g>
</g>
<!-- Node2&#45;&gt;Node5 -->
<g id="edge4" class="edge"><title>Node2&#45;&gt;Node5</title>
<path fill="none" stroke="midnightblue" d="M151.096,-448.083C157.727,-440.298 167.521,-428.801 175.558,-419.367"/>
<polygon fill="midnightblue" stroke="midnightblue" points="178.225,-421.633 182.045,-411.751 172.896,-417.094 178.225,-421.633"/>
</g>
<!-- Node7 -->
<g id="node7" class="node"><title>Node7</title>
<polygon fill="white" stroke="#bfbfbf" points="323.5,-56.5 323.5,-75.5 367.5,-75.5 367.5,-56.5 323.5,-56.5"/>
<text text-anchor="middle" x="345.5" y="-63.5" font-family="Helvetica,sans-Serif" font-size="10.00">QMap</text>
</g>
<!-- Node6&#45;&gt;Node7 -->
<g id="edge6" class="edge"><title>Node6&#45;&gt;Node7</title>
<path fill="none" stroke="midnightblue" d="M451.535,-112.444C430.891,-103.596 398.437,-89.6875 374.868,-79.5865"/>
<polygon fill="midnightblue" stroke="midnightblue" points="375.942,-76.2387 365.372,-75.5164 373.184,-82.6727 375.942,-76.2387"/>
</g>
<!-- Node8 -->
<g id="node8" class="node"><title>Node8</title>
<polygon fill="white" stroke="#bfbfbf" points="417,-56.5 417,-75.5 458,-75.5 458,-56.5 417,-56.5"/>
<text text-anchor="middle" x="437.5" y="-63.5" font-family="Helvetica,sans-Serif" font-size="10.00">QPair</text>
</g>
<!-- Node6&#45;&gt;Node8 -->
<g id="edge7" class="edge"><title>Node6&#45;&gt;Node8</title>
<path fill="none" stroke="midnightblue" d="M465.886,-112.083C461.133,-104.534 454.182,-93.4948 448.348,-84.2298"/>
<polygon fill="midnightblue" stroke="midnightblue" points="451.3,-82.3486 443.01,-75.7511 445.376,-86.0783 451.3,-82.3486"/>
</g>
<!-- Node9 -->
<g id="node9" class="node"><title>Node9</title>
<polygon fill="white" stroke="#bfbfbf" points="620,-56.5 620,-75.5 673,-75.5 673,-56.5 620,-56.5"/>
<text text-anchor="middle" x="646.5" y="-63.5" font-family="Helvetica,sans-Serif" font-size="10.00">QString</text>
</g>
<!-- Node6&#45;&gt;Node9 -->
<g id="edge8" class="edge"><title>Node6&#45;&gt;Node9</title>
<path fill="none" stroke="midnightblue" d="M499.229,-112.444C529.188,-103.199 577.052,-88.4296 610.038,-78.2511"/>
<polygon fill="midnightblue" stroke="midnightblue" points="611.238,-81.5438 619.761,-75.2508 609.174,-74.855 611.238,-81.5438"/>
</g>
<!-- Node10 -->
<g id="node10" class="node"><title>Node10</title>
<polygon fill="white" stroke="#bfbfbf" points="1028,-56.5 1028,-75.5 1099,-75.5 1099,-56.5 1028,-56.5"/>
<text text-anchor="middle" x="1063.5" y="-63.5" font-family="Helvetica,sans-Serif" font-size="10.00">QDateTime</text>
</g>
<!-- Node6&#45;&gt;Node10 -->
<g id="edge9" class="edge"><title>Node6&#45;&gt;Node10</title>
<path fill="none" stroke="midnightblue" d="M522.208,-113.159C525.35,-112.746 528.466,-112.355 531.5,-112 711.006,-90.9674 925.695,-75.8685 1017.83,-69.8659"/>
<polygon fill="midnightblue" stroke="midnightblue" points="1018.18,-73.351 1027.93,-69.2126 1017.73,-66.3656 1018.18,-73.351"/>
</g>
<!-- Node11 -->
<g id="node11" class="node"><title>Node11</title>
<g id="a_node11"><a xlink:href="../../de/de6/torchttpreader_8h.html" target="_top" xlink:title="torchttpreader.h">
<polygon fill="white" stroke="black" points="476,-56.5 476,-75.5 571,-75.5 571,-56.5 476,-56.5"/>
<text text-anchor="middle" x="523.5" y="-63.5" font-family="Helvetica,sans-Serif" font-size="10.00">torchttpreader.h</text>
</a>
</g>
</g>
<!-- Node6&#45;&gt;Node11 -->
<g id="edge10" class="edge"><title>Node6&#45;&gt;Node11</title>
<path fill="none" stroke="midnightblue" d="M480.087,-112.083C487.659,-104.22 498.878,-92.5688 508.014,-83.0813"/>
<polygon fill="midnightblue" stroke="midnightblue" points="510.658,-85.3821 515.073,-75.7511 505.615,-80.5266 510.658,-85.3821"/>
</g>
<!-- Node12 -->
<g id="node12" class="node"><title>Node12</title>
<polygon fill="white" stroke="#bfbfbf" points="443,-0.5 443,-19.5 514,-19.5 514,-0.5 443,-0.5"/>
<text text-anchor="middle" x="478.5" y="-7.5" font-family="Helvetica,sans-Serif" font-size="10.00">QByteArray</text>
</g>
<!-- Node11&#45;&gt;Node12 -->
<g id="edge11" class="edge"><title>Node11&#45;&gt;Node12</title>
<path fill="none" stroke="midnightblue" d="M516.069,-56.083C509.647,-48.3768 500.194,-37.0333 492.378,-27.6531"/>
<polygon fill="midnightblue" stroke="midnightblue" points="494.883,-25.1927 485.793,-19.7511 489.506,-29.674 494.883,-25.1927"/>
</g>
<!-- Node13 -->
<g id="node13" class="node"><title>Node13</title>
<polygon fill="white" stroke="#bfbfbf" points="532.5,-0.5 532.5,-19.5 604.5,-19.5 604.5,-0.5 532.5,-0.5"/>
<text text-anchor="middle" x="568.5" y="-7.5" font-family="Helvetica,sans-Serif" font-size="10.00">QTcpSocket</text>
</g>
<!-- Node11&#45;&gt;Node13 -->
<g id="edge12" class="edge"><title>Node11&#45;&gt;Node13</title>
<path fill="none" stroke="midnightblue" d="M530.931,-56.083C537.353,-48.3768 546.806,-37.0333 554.622,-27.6531"/>
<polygon fill="midnightblue" stroke="midnightblue" points="557.494,-29.674 561.207,-19.7511 552.117,-25.1927 557.494,-29.674"/>
</g>
<!-- Node15 -->
<g id="node15" class="node"><title>Node15</title>
<polygon fill="white" stroke="#bfbfbf" points="1046,-224.5 1046,-243.5 1101,-243.5 1101,-224.5 1046,-224.5"/>
<text text-anchor="middle" x="1073.5" y="-231.5" font-family="Helvetica,sans-Serif" font-size="10.00">QObject</text>
</g>
<!-- Node14&#45;&gt;Node15 -->
<g id="edge14" class="edge"><title>Node14&#45;&gt;Node15</title>
<path fill="none" stroke="midnightblue" d="M617.549,-344.205C685.604,-341.941 825.496,-333.255 938.5,-300 980.061,-287.769 1024.68,-263.942 1050.79,-248.783"/>
<polygon fill="midnightblue" stroke="midnightblue" points="1052.7,-251.722 1059.53,-243.628 1049.14,-245.693 1052.7,-251.722"/>
</g>
<!-- Node16 -->
<g id="node16" class="node"><title>Node16</title>
<polygon fill="white" stroke="#bfbfbf" points="700,-280.5 700,-299.5 767,-299.5 767,-280.5 700,-280.5"/>
<text text-anchor="middle" x="733.5" y="-287.5" font-family="Helvetica,sans-Serif" font-size="10.00">QtNetwork</text>
</g>
<!-- Node14&#45;&gt;Node16 -->
<g id="edge15" class="edge"><title>Node14&#45;&gt;Node16</title>
<path fill="none" stroke="midnightblue" d="M601.377,-336.444C627.789,-327.359 669.715,-312.939 699.242,-302.783"/>
<polygon fill="midnightblue" stroke="midnightblue" points="700.421,-306.079 708.739,-299.516 698.145,-299.459 700.421,-306.079"/>
</g>
<!-- Node17 -->
<g id="node17" class="node"><title>Node17</title>
<polygon fill="white" stroke="#bfbfbf" points="789.5,-168.5 789.5,-187.5 859.5,-187.5 859.5,-168.5 789.5,-168.5"/>
<text text-anchor="middle" x="824.5" y="-175.5" font-family="Helvetica,sans-Serif" font-size="10.00">QAtomicInt</text>
</g>
<!-- Node14&#45;&gt;Node17 -->
<g id="edge16" class="edge"><title>Node14&#45;&gt;Node17</title>
<path fill="none" stroke="midnightblue" d="M567.762,-336.367C547.175,-315.003 499.543,-258.873 529.5,-224 545.553,-205.312 700.609,-189.552 779.245,-182.686"/>
<polygon fill="midnightblue" stroke="midnightblue" points="779.692,-186.16 789.355,-181.815 779.092,-179.186 779.692,-186.16"/>
</g>
<!-- Node18 -->
<g id="node18" class="node"><title>Node18</title>
<g id="a_node18"><a xlink:href="../../db/df5/torcsetting_8h.html" target="_top" xlink:title="torcsetting.h">
<polygon fill="white" stroke="black" points="605,-280.5 605,-299.5 682,-299.5 682,-280.5 605,-280.5"/>
<text text-anchor="middle" x="643.5" y="-287.5" font-family="Helvetica,sans-Serif" font-size="10.00">torcsetting.h</text>
</a>
</g>
</g>
<!-- Node14&#45;&gt;Node18 -->
<g id="edge17" class="edge"><title>Node14&#45;&gt;Node18</title>
<path fill="none" stroke="midnightblue" d="M587.265,-336.324C597.266,-328.263 612.387,-316.077 624.43,-306.369"/>
<polygon fill="midnightblue" stroke="midnightblue" points="626.95,-308.834 632.539,-299.834 622.557,-303.384 626.95,-308.834"/>
</g>
<!-- Node30 -->
<g id="node30" class="node"><title>Node30</title>
<g id="a_node30"><a xlink:href="../../d3/dd0/torctimer_8h.html" target="_top" xlink:title="torctimer.h">
<polygon fill="white" stroke="black" points="860,-280.5 860,-299.5 929,-299.5 929,-280.5 860,-280.5"/>
<text text-anchor="middle" x="894.5" y="-287.5" font-family="Helvetica,sans-Serif" font-size="10.00">torctimer.h</text>
</a>
</g>
</g>
<!-- Node14&#45;&gt;Node30 -->
<g id="edge35" class="edge"><title>Node14&#45;&gt;Node30</title>
<path fill="none" stroke="midnightblue" d="M617.747,-337.996C677.479,-327.853 787.654,-309.144 849.448,-298.65"/>
<polygon fill="midnightblue" stroke="midnightblue" points="850.395,-302.04 859.668,-296.915 849.223,-295.138 850.395,-302.04"/>
</g>
<!-- Node32 -->
<g id="node32" class="node"><title>Node32</title>
<g id="a_node32"><a xlink:href="../../db/d18/torcnetworkrequest_8h.html" target="_top" xlink:title="torcnetworkrequest.h">
<polygon fill="white" stroke="black" points="362,-280.5 362,-299.5 481,-299.5 481,-280.5 362,-280.5"/>
<text text-anchor="middle" x="421.5" y="-287.5" font-family="Helvetica,sans-Serif" font-size="10.00">torcnetworkrequest.h</text>
</a>
</g>
</g>
<!-- Node14&#45;&gt;Node32 -->
<g id="edge37" class="edge"><title>Node14&#45;&gt;Node32</title>
<path fill="none" stroke="midnightblue" d="M546.851,-336.444C519.027,-327.438 477.913,-313.189 450.355,-303.049"/>
<polygon fill="midnightblue" stroke="midnightblue" points="451.458,-299.725 440.865,-299.516 449.016,-306.285 451.458,-299.725"/>
</g>
<!-- Node18&#45;&gt;Node15 -->
<g id="edge20" class="edge"><title>Node18&#45;&gt;Node15</title>
<path fill="none" stroke="midnightblue" d="M682.227,-281.458C685.359,-280.933 688.48,-280.44 691.5,-280 841.209,-258.214 883.433,-270.27 1035.5,-244.146"/>
<polygon fill="midnightblue" stroke="midnightblue" points="1036.43,-247.537 1045.68,-242.369 1035.22,-240.641 1036.43,-247.537"/>
</g>
<!-- Node19 -->
<g id="node19" class="node"><title>Node19</title>
<polygon fill="white" stroke="#bfbfbf" points="538,-224.5 538,-243.5 579,-243.5 579,-224.5 538,-224.5"/>
<text text-anchor="middle" x="558.5" y="-231.5" font-family="Helvetica,sans-Serif" font-size="10.00">QSet</text>
</g>
<!-- Node18&#45;&gt;Node19 -->
<g id="edge18" class="edge"><title>Node18&#45;&gt;Node19</title>
<path fill="none" stroke="midnightblue" d="M629.843,-280.324C616.584,-271.9 596.232,-258.971 580.654,-249.074"/>
<polygon fill="midnightblue" stroke="midnightblue" points="582.44,-246.063 572.123,-243.655 578.687,-251.971 582.44,-246.063"/>
</g>
<!-- Node20 -->
<g id="node20" class="node"><title>Node20</title>
<polygon fill="white" stroke="#bfbfbf" points="597.5,-224.5 597.5,-243.5 689.5,-243.5 689.5,-224.5 597.5,-224.5"/>
<text text-anchor="middle" x="643.5" y="-231.5" font-family="Helvetica,sans-Serif" font-size="10.00">QReadWriteLock</text>
</g>
<!-- Node18&#45;&gt;Node20 -->
<g id="edge19" class="edge"><title>Node18&#45;&gt;Node20</title>
<path fill="none" stroke="midnightblue" d="M643.5,-280.083C643.5,-273.006 643.5,-262.861 643.5,-253.986"/>
<polygon fill="midnightblue" stroke="midnightblue" points="647,-253.751 643.5,-243.751 640,-253.751 647,-253.751"/>
</g>
<!-- Node21 -->
<g id="node21" class="node"><title>Node21</title>
<polygon fill="white" stroke="#bfbfbf" points="1183.5,-168.5 1183.5,-187.5 1241.5,-187.5 1241.5,-168.5 1183.5,-168.5"/>
<text text-anchor="middle" x="1212.5" y="-175.5" font-family="Helvetica,sans-Serif" font-size="10.00">QVariant</text>
</g>
<!-- Node18&#45;&gt;Node21 -->
<g id="edge21" class="edge"><title>Node18&#45;&gt;Node21</title>
<path fill="none" stroke="midnightblue" d="M682.25,-281.605C685.377,-281.047 688.49,-280.506 691.5,-280 798.735,-261.977 829.969,-277.251 933.5,-244 952.047,-238.043 954.066,-230.296 972.5,-224 1055.07,-195.797 1079.76,-204.205 1165.5,-188 1168.13,-187.504 1170.83,-186.99 1173.56,-186.471"/>
<polygon fill="midnightblue" stroke="midnightblue" points="1174.25,-189.902 1183.42,-184.591 1172.94,-183.026 1174.25,-189.902"/>
</g>
<!-- Node22 -->
<g id="node22" class="node"><title>Node22</title>
<polygon fill="white" stroke="#bfbfbf" points="708,-224.5 708,-243.5 777,-243.5 777,-224.5 708,-224.5"/>
<text text-anchor="middle" x="742.5" y="-231.5" font-family="Helvetica,sans-Serif" font-size="10.00">QStringList</text>
</g>
<!-- Node18&#45;&gt;Node22 -->
<g id="edge22" class="edge"><title>Node18&#45;&gt;Node22</title>
<path fill="none" stroke="midnightblue" d="M659.406,-280.324C675.138,-271.743 699.442,-258.486 717.709,-248.522"/>
<polygon fill="midnightblue" stroke="midnightblue" points="719.53,-251.516 726.633,-243.655 716.178,-245.37 719.53,-251.516"/>
</g>
<!-- Node23 -->
<g id="node23" class="node"><title>Node23</title>
<g id="a_node23"><a xlink:href="../../d3/dee/torchttpservice_8h.html" target="_top" xlink:title="torchttpservice.h">
<polygon fill="white" stroke="black" points="383.5,-224.5 383.5,-243.5 481.5,-243.5 481.5,-224.5 383.5,-224.5"/>
<text text-anchor="middle" x="432.5" y="-231.5" font-family="Helvetica,sans-Serif" font-size="10.00">torchttpservice.h</text>
</a>
</g>
</g>
<!-- Node18&#45;&gt;Node23 -->
<g id="edge23" class="edge"><title>Node18&#45;&gt;Node23</title>
<path fill="none" stroke="midnightblue" d="M610.066,-280.444C573.644,-271.122 515.27,-256.183 475.471,-245.997"/>
<polygon fill="midnightblue" stroke="midnightblue" points="476.333,-242.605 465.777,-243.516 474.597,-249.387 476.333,-242.605"/>
</g>
<!-- Node29 -->
<g id="node29" class="node"><title>Node29</title>
<g id="a_node29"><a xlink:href="../../d8/dfe/torcreferencecounted_8h.html" target="_top" xlink:title="torcreferencecounted.h">
<polygon fill="white" stroke="black" points="795,-224.5 795,-243.5 924,-243.5 924,-224.5 795,-224.5"/>
<text text-anchor="middle" x="859.5" y="-231.5" font-family="Helvetica,sans-Serif" font-size="10.00">torcreferencecounted.h</text>
</a>
</g>
</g>
<!-- Node18&#45;&gt;Node29 -->
<g id="edge33" class="edge"><title>Node18&#45;&gt;Node29</title>
<path fill="none" stroke="midnightblue" d="M677.726,-280.444C715.012,-271.122 774.769,-256.183 815.511,-245.997"/>
<polygon fill="midnightblue" stroke="midnightblue" points="816.582,-249.337 825.434,-243.516 814.884,-242.546 816.582,-249.337"/>
</g>
<!-- Node23&#45;&gt;Node6 -->
<g id="edge32" class="edge"><title>Node23&#45;&gt;Node6</title>
<path fill="none" stroke="midnightblue" d="M441.535,-224.304C449.649,-215.871 461.092,-202.286 466.5,-188 472.079,-173.264 473.069,-155.332 472.811,-142.039"/>
<polygon fill="midnightblue" stroke="midnightblue" points="476.294,-141.579 472.347,-131.747 469.301,-141.895 476.294,-141.579"/>
</g>
<!-- Node23&#45;&gt;Node7 -->
<g id="edge24" class="edge"><title>Node23&#45;&gt;Node7</title>
<path fill="none" stroke="midnightblue" d="M400.532,-224.356C382.257,-217.622 360.788,-206.266 349.5,-188 329.962,-156.382 335.507,-110.711 340.805,-85.4872"/>
<polygon fill="midnightblue" stroke="midnightblue" points="344.215,-86.2758 343.059,-75.7442 337.395,-84.6981 344.215,-86.2758"/>
</g>
<!-- Node24 -->
<g id="node24" class="node"><title>Node24</title>
<polygon fill="white" stroke="#bfbfbf" points="1103,-168.5 1103,-187.5 1156,-187.5 1156,-168.5 1103,-168.5"/>
<text text-anchor="middle" x="1129.5" y="-175.5" font-family="Helvetica,sans-Serif" font-size="10.00">QMutex</text>
</g>
<!-- Node23&#45;&gt;Node24 -->
<g id="edge25" class="edge"><title>Node23&#45;&gt;Node24</title>
<path fill="none" stroke="midnightblue" d="M481.831,-228.253C497.106,-226.829 513.995,-225.301 529.5,-224 742.741,-206.112 998.911,-188.037 1092.76,-181.529"/>
<polygon fill="midnightblue" stroke="midnightblue" points="1093.14,-185.011 1102.87,-180.829 1092.66,-178.028 1093.14,-185.011"/>
</g>
<!-- Node25 -->
<g id="node25" class="node"><title>Node25</title>
<polygon fill="white" stroke="#bfbfbf" points="632,-168.5 632,-187.5 711,-187.5 711,-168.5 632,-168.5"/>
<text text-anchor="middle" x="671.5" y="-175.5" font-family="Helvetica,sans-Serif" font-size="10.00">QMetaObject</text>
</g>
<!-- Node23&#45;&gt;Node25 -->
<g id="edge26" class="edge"><title>Node23&#45;&gt;Node25</title>
<path fill="none" stroke="midnightblue" d="M470.37,-224.444C511.976,-215.043 578.869,-199.929 623.969,-189.739"/>
<polygon fill="midnightblue" stroke="midnightblue" points="624.824,-193.134 633.807,-187.516 623.281,-186.306 624.824,-193.134"/>
</g>
<!-- Node26 -->
<g id="node26" class="node"><title>Node26</title>
<polygon fill="white" stroke="#bfbfbf" points="359,-168.5 359,-187.5 458,-187.5 458,-168.5 359,-168.5"/>
<text text-anchor="middle" x="408.5" y="-175.5" font-family="Helvetica,sans-Serif" font-size="10.00">QCoreApplication</text>
</g>
<!-- Node23&#45;&gt;Node26 -->
<g id="edge27" class="edge"><title>Node23&#45;&gt;Node26</title>
<path fill="none" stroke="midnightblue" d="M428.537,-224.083C425.287,-216.77 420.581,-206.181 416.546,-197.103"/>
<polygon fill="midnightblue" stroke="midnightblue" points="419.649,-195.468 412.389,-187.751 413.252,-198.311 419.649,-195.468"/>
</g>
<!-- Node27 -->
<g id="node27" class="node"><title>Node27</title>
<g id="a_node27"><a xlink:href="../../d4/d11/torchttphandler_8h.html" target="_top" xlink:title="torchttphandler.h">
<polygon fill="white" stroke="black" points="515,-168.5 515,-187.5 614,-187.5 614,-168.5 515,-168.5"/>
<text text-anchor="middle" x="564.5" y="-175.5" font-family="Helvetica,sans-Serif" font-size="10.00">torchttphandler.h</text>
</a>
</g>
</g>
<!-- Node23&#45;&gt;Node27 -->
<g id="edge28" class="edge"><title>Node23&#45;&gt;Node27</title>
<path fill="none" stroke="midnightblue" d="M453.416,-224.444C475.236,-215.517 509.65,-201.439 534.392,-191.317"/>
<polygon fill="midnightblue" stroke="midnightblue" points="535.752,-194.542 543.682,-187.516 533.101,-188.063 535.752,-194.542"/>
</g>
<!-- Node27&#45;&gt;Node6 -->
<g id="edge31" class="edge"><title>Node27&#45;&gt;Node6</title>
<path fill="none" stroke="midnightblue" d="M549.558,-168.324C534.915,-159.822 512.366,-146.729 495.262,-136.797"/>
<polygon fill="midnightblue" stroke="midnightblue" points="496.81,-133.649 486.405,-131.655 493.295,-139.703 496.81,-133.649"/>
</g>
<!-- Node27&#45;&gt;Node9 -->
<g id="edge29" class="edge"><title>Node27&#45;&gt;Node9</title>
<path fill="none" stroke="midnightblue" d="M582.528,-168.391C596.726,-160.726 615.983,-148.22 627.5,-132 637.179,-118.37 641.967,-99.8287 644.312,-86.0367"/>
<polygon fill="midnightblue" stroke="midnightblue" points="647.828,-86.1716 645.761,-75.7804 640.896,-85.1926 647.828,-86.1716"/>
</g>
<!-- Node28 -->
<g id="node28" class="node"><title>Node28</title>
<polygon fill="white" stroke="#bfbfbf" points="540.5,-112.5 540.5,-131.5 618.5,-131.5 618.5,-112.5 540.5,-112.5"/>
<text text-anchor="middle" x="579.5" y="-119.5" font-family="Helvetica,sans-Serif" font-size="10.00">QVariantMap</text>
</g>
<!-- Node27&#45;&gt;Node28 -->
<g id="edge30" class="edge"><title>Node27&#45;&gt;Node28</title>
<path fill="none" stroke="midnightblue" d="M566.977,-168.083C568.986,-160.849 571.886,-150.409 574.39,-141.397"/>
<polygon fill="midnightblue" stroke="midnightblue" points="577.765,-142.323 577.069,-131.751 571.02,-140.449 577.765,-142.323"/>
</g>
<!-- Node29&#45;&gt;Node17 -->
<g id="edge34" class="edge"><title>Node29&#45;&gt;Node17</title>
<path fill="none" stroke="midnightblue" d="M853.72,-224.083C848.828,-216.534 841.673,-205.495 835.667,-196.23"/>
<polygon fill="midnightblue" stroke="midnightblue" points="838.548,-194.239 830.172,-187.751 832.674,-198.046 838.548,-194.239"/>
</g>
<!-- Node31 -->
<g id="node31" class="node"><title>Node31</title>
<polygon fill="white" stroke="#bfbfbf" points="981,-224.5 981,-243.5 1028,-243.5 1028,-224.5 981,-224.5"/>
<text text-anchor="middle" x="1004.5" y="-231.5" font-family="Helvetica,sans-Serif" font-size="10.00">QTime</text>
</g>
<!-- Node30&#45;&gt;Node31 -->
<g id="edge36" class="edge"><title>Node30&#45;&gt;Node31</title>
<path fill="none" stroke="midnightblue" d="M912.173,-280.324C929.894,-271.625 957.403,-258.12 977.788,-248.113"/>
<polygon fill="midnightblue" stroke="midnightblue" points="979.436,-251.203 986.87,-243.655 976.351,-244.919 979.436,-251.203"/>
</g>
<!-- Node32&#45;&gt;Node14 -->
<g id="edge39" class="edge"><title>Node32&#45;&gt;Node14</title>
<path fill="none" stroke="midnightblue" d="M451.025,-299.516C478.81,-308.506 519.924,-322.754 547.522,-332.906"/>
<polygon fill="midnightblue" stroke="midnightblue" points="546.436,-336.236 557.029,-336.444 548.877,-329.676 546.436,-336.236"/>
</g>
<!-- Node33 -->
<g id="node33" class="node"><title>Node33</title>
<polygon fill="white" stroke="#bfbfbf" points="296,-224.5 296,-243.5 365,-243.5 365,-224.5 296,-224.5"/>
<text text-anchor="middle" x="330.5" y="-231.5" font-family="Helvetica,sans-Serif" font-size="10.00">QMetaType</text>
</g>
<!-- Node32&#45;&gt;Node33 -->
<g id="edge38" class="edge"><title>Node32&#45;&gt;Node33</title>
<path fill="none" stroke="midnightblue" d="M406.879,-280.324C392.551,-271.822 370.487,-258.729 353.751,-248.797"/>
<polygon fill="midnightblue" stroke="midnightblue" points="355.47,-245.748 345.084,-243.655 351.898,-251.768 355.47,-245.748"/>
</g>
<!-- Node35 -->
<g id="node35" class="node"><title>Node35</title>
<g id="a_node35"><a xlink:href="../../de/dd7/torciotlogger_8h.html" target="_top" xlink:title="torciotlogger.h">
<polygon fill="white" stroke="black" points="1151.5,-392.5 1151.5,-411.5 1237.5,-411.5 1237.5,-392.5 1151.5,-392.5"/>
<text text-anchor="middle" x="1194.5" y="-399.5" font-family="Helvetica,sans-Serif" font-size="10.00">torciotlogger.h</text>
</a>
</g>
</g>
<!-- Node34&#45;&gt;Node35 -->
<g id="edge41" class="edge"><title>Node34&#45;&gt;Node35</title>
<path fill="none" stroke="midnightblue" d="M1001.79,-448.444C1041.48,-439.083 1105.21,-424.056 1148.41,-413.868"/>
<polygon fill="midnightblue" stroke="midnightblue" points="1149.45,-417.218 1158.38,-411.516 1147.85,-410.405 1149.45,-417.218"/>
</g>
<!-- Node35&#45;&gt;Node10 -->
<g id="edge44" class="edge"><title>Node35&#45;&gt;Node10</title>
<path fill="none" stroke="midnightblue" d="M1237.75,-397.898C1300.53,-390.778 1409.5,-367.414 1409.5,-291 1409.5,-291 1409.5,-291 1409.5,-177 1409.5,-114.727 1203.37,-83.052 1109.31,-71.8403"/>
<polygon fill="midnightblue" stroke="midnightblue" points="1109.56,-68.3457 1099.22,-70.6651 1108.75,-75.2987 1109.56,-68.3457"/>
</g>
<!-- Node35&#45;&gt;Node15 -->
<g id="edge42" class="edge"><title>Node35&#45;&gt;Node15</title>
<path fill="none" stroke="midnightblue" d="M1184.03,-392.377C1173.97,-383.784 1158.7,-369.901 1147.5,-356 1120.2,-322.103 1095.32,-277.333 1082.54,-252.863"/>
<polygon fill="midnightblue" stroke="midnightblue" points="1085.51,-250.999 1077.82,-243.709 1079.29,-254.202 1085.51,-250.999"/>
</g>
<!-- Node36 -->
<g id="node36" class="node"><title>Node36</title>
<polygon fill="white" stroke="#bfbfbf" points="1251,-336.5 1251,-355.5 1302,-355.5 1302,-336.5 1251,-336.5"/>
<text text-anchor="middle" x="1276.5" y="-343.5" font-family="Helvetica,sans-Serif" font-size="10.00">QTimer</text>
</g>
<!-- Node35&#45;&gt;Node36 -->
<g id="edge43" class="edge"><title>Node35&#45;&gt;Node36</title>
<path fill="none" stroke="midnightblue" d="M1207.67,-392.324C1220.35,-383.979 1239.73,-371.212 1254.71,-361.352"/>
<polygon fill="midnightblue" stroke="midnightblue" points="1256.93,-364.078 1263.36,-355.655 1253.08,-358.231 1256.93,-364.078"/>
</g>
<!-- Node37 -->
<g id="node37" class="node"><title>Node37</title>
<g id="a_node37"><a xlink:href="../../db/df1/torcnotifier_8h.html" target="_top" xlink:title="torcnotifier.h">
<polygon fill="white" stroke="black" points="1156,-336.5 1156,-355.5 1233,-355.5 1233,-336.5 1156,-336.5"/>
<text text-anchor="middle" x="1194.5" y="-343.5" font-family="Helvetica,sans-Serif" font-size="10.00">torcnotifier.h</text>
</a>
</g>
</g>
<!-- Node35&#45;&gt;Node37 -->
<g id="edge45" class="edge"><title>Node35&#45;&gt;Node37</title>
<path fill="none" stroke="midnightblue" d="M1194.5,-392.083C1194.5,-385.006 1194.5,-374.861 1194.5,-365.986"/>
<polygon fill="midnightblue" stroke="midnightblue" points="1198,-365.751 1194.5,-355.751 1191,-365.751 1198,-365.751"/>
</g>
<!-- Node37&#45;&gt;Node21 -->
<g id="edge46" class="edge"><title>Node37&#45;&gt;Node21</title>
<path fill="none" stroke="midnightblue" d="M1205.99,-336.299C1225.65,-320.529 1264.73,-285.034 1276.5,-244 1278.95,-235.456 1280.6,-231.889 1276.5,-224 1269.35,-210.226 1255.83,-199.783 1243.05,-192.441"/>
<polygon fill="midnightblue" stroke="midnightblue" points="1244.46,-189.225 1233.98,-187.64 1241.18,-195.412 1244.46,-189.225"/>
</g>
<!-- Node38 -->
<g id="node38" class="node"><title>Node38</title>
<g id="a_node38"><a xlink:href="../../d1/df7/torcdevice_8h.html" target="_top" xlink:title="torcdevice.h">
<polygon fill="white" stroke="black" points="1157,-280.5 1157,-299.5 1232,-299.5 1232,-280.5 1157,-280.5"/>
<text text-anchor="middle" x="1194.5" y="-287.5" font-family="Helvetica,sans-Serif" font-size="10.00">torcdevice.h</text>
</a>
</g>
</g>
<!-- Node37&#45;&gt;Node38 -->
<g id="edge47" class="edge"><title>Node37&#45;&gt;Node38</title>
<path fill="none" stroke="midnightblue" d="M1194.5,-336.083C1194.5,-329.006 1194.5,-318.861 1194.5,-309.986"/>
<polygon fill="midnightblue" stroke="midnightblue" points="1198,-309.751 1194.5,-299.751 1191,-309.751 1198,-309.751"/>
</g>
<!-- Node38&#45;&gt;Node9 -->
<g id="edge50" class="edge"><title>Node38&#45;&gt;Node9</title>
<path fill="none" stroke="midnightblue" d="M1219.75,-280.484C1270.62,-262.049 1377.15,-216.205 1335.5,-168 1249.68,-68.6817 813.724,-65.1839 683.366,-66.41"/>
<polygon fill="midnightblue" stroke="midnightblue" points="683.072,-62.9129 673.111,-66.5226 683.149,-69.9125 683.072,-62.9129"/>
</g>
<!-- Node38&#45;&gt;Node15 -->
<g id="edge51" class="edge"><title>Node38&#45;&gt;Node15</title>
<path fill="none" stroke="midnightblue" d="M1175.33,-280.444C1155.59,-271.636 1124.61,-257.812 1102.01,-247.722"/>
<polygon fill="midnightblue" stroke="midnightblue" points="1103.14,-244.396 1092.58,-243.516 1100.29,-250.788 1103.14,-244.396"/>
</g>
<!-- Node38&#45;&gt;Node24 -->
<g id="edge49" class="edge"><title>Node38&#45;&gt;Node24</title>
<path fill="none" stroke="midnightblue" d="M1182.63,-280.288C1172.2,-272.041 1157.35,-258.753 1148.5,-244 1139.9,-229.665 1134.99,-211.202 1132.33,-197.619"/>
<polygon fill="midnightblue" stroke="midnightblue" points="1135.74,-196.811 1130.59,-187.554 1128.84,-198.005 1135.74,-196.811"/>
</g>
<!-- Node38&#45;&gt;Node29 -->
<g id="edge52" class="edge"><title>Node38&#45;&gt;Node29</title>
<path fill="none" stroke="midnightblue" d="M1156.72,-282.91C1099.72,-273.722 991.076,-256.209 922.117,-245.094"/>
<polygon fill="midnightblue" stroke="midnightblue" points="922.671,-241.638 912.242,-243.502 921.557,-248.549 922.671,-241.638"/>
</g>
<!-- Node39 -->
<g id="node39" class="node"><title>Node39</title>
<polygon fill="white" stroke="#bfbfbf" points="1277,-168.5 1277,-187.5 1326,-187.5 1326,-168.5 1277,-168.5"/>
<text text-anchor="middle" x="1301.5" y="-175.5" font-family="Helvetica,sans-Serif" font-size="10.00">QHash</text>
</g>
<!-- Node38&#45;&gt;Node39 -->
<g id="edge48" class="edge"><title>Node38&#45;&gt;Node39</title>
<path fill="none" stroke="midnightblue" d="M1220.16,-280.355C1238.09,-273.144 1261.44,-261.244 1276.5,-244 1288.05,-230.78 1294.54,-211.648 1297.99,-197.562"/>
<polygon fill="midnightblue" stroke="midnightblue" points="1301.47,-198.07 1300.15,-187.557 1294.62,-196.594 1301.47,-198.07"/>
</g>
<!-- Node40 -->
<g id="node40" class="node"><title>Node40</title>
<g id="a_node40"><a xlink:href="../../d2/d5b/torcdevicehandler_8h.html" target="_top" xlink:title="torcdevicehandler.h">
<polygon fill="white" stroke="black" points="1157.5,-224.5 1157.5,-243.5 1267.5,-243.5 1267.5,-224.5 1157.5,-224.5"/>
<text text-anchor="middle" x="1212.5" y="-231.5" font-family="Helvetica,sans-Serif" font-size="10.00">torcdevicehandler.h</text>
</a>
</g>
</g>
<!-- Node38&#45;&gt;Node40 -->
<g id="edge53" class="edge"><title>Node38&#45;&gt;Node40</title>
<path fill="none" stroke="midnightblue" d="M1197.47,-280.083C1199.88,-272.849 1203.36,-262.409 1206.37,-253.397"/>
<polygon fill="midnightblue" stroke="midnightblue" points="1209.74,-254.345 1209.58,-243.751 1203.1,-252.131 1209.74,-254.345"/>
</g>
<!-- Node40&#45;&gt;Node21 -->
<g id="edge56" class="edge"><title>Node40&#45;&gt;Node21</title>
<path fill="none" stroke="midnightblue" d="M1212.5,-224.083C1212.5,-217.006 1212.5,-206.861 1212.5,-197.986"/>
<polygon fill="midnightblue" stroke="midnightblue" points="1216,-197.751 1212.5,-187.751 1209,-197.751 1216,-197.751"/>
</g>
<!-- Node40&#45;&gt;Node24 -->
<g id="edge55" class="edge"><title>Node40&#45;&gt;Node24</title>
<path fill="none" stroke="midnightblue" d="M1199.16,-224.324C1186.34,-215.979 1166.72,-203.212 1151.56,-193.352"/>
<polygon fill="midnightblue" stroke="midnightblue" points="1153.09,-190.174 1142.8,-187.655 1149.28,-196.042 1153.09,-190.174"/>
</g>
<!-- Node40&#45;&gt;Node39 -->
<g id="edge54" class="edge"><title>Node40&#45;&gt;Node39</title>
<path fill="none" stroke="midnightblue" d="M1226.8,-224.324C1240.68,-215.9 1261.99,-202.971 1278.3,-193.074"/>
<polygon fill="midnightblue" stroke="midnightblue" points="1280.5,-195.834 1287.24,-187.655 1276.87,-189.85 1280.5,-195.834"/>
</g>
</g>
</svg>
