<?xml version="1.0" encoding="UTF-8" standalone="no"?>
<!DOCTYPE svg PUBLIC "-//W3C//DTD SVG 1.1//EN"
 "http://www.w3.org/Graphics/SVG/1.1/DTD/svg11.dtd">
<!-- Generated by graphviz version 2.38.0 (20140413.2041)
 -->
<!-- Title: torcinput.cpp Pages: 1 -->
<svg width="1554pt" height="420pt"
 viewBox="0.00 0.00 1554.00 420.00" xmlns="http://www.w3.org/2000/svg" xmlns:xlink="http://www.w3.org/1999/xlink">
<g id="graph0" class="graph" transform="scale(1 1) rotate(0) translate(4 416)">
<title>torcinput.cpp</title>
<polygon fill="white" stroke="none" points="-4,4 -4,-416 1550,-416 1550,4 -4,4"/>
<!-- Node1 -->
<g id="node1" class="node"><title>Node1</title>
<polygon fill="#bfbfbf" stroke="black" points="1121.5,-392.5 1121.5,-411.5 1201.5,-411.5 1201.5,-392.5 1121.5,-392.5"/>
<text text-anchor="middle" x="1161.5" y="-399.5" font-family="Helvetica,sans-Serif" font-size="10.00">torcinput.cpp</text>
</g>
<!-- Node2 -->
<g id="node2" class="node"><title>Node2</title>
<polygon fill="white" stroke="#bfbfbf" points="1192,-112.5 1192,-131.5 1245,-131.5 1245,-112.5 1192,-112.5"/>
<text text-anchor="middle" x="1218.5" y="-119.5" font-family="Helvetica,sans-Serif" font-size="10.00">QMutex</text>
</g>
<!-- Node1&#45;&gt;Node2 -->
<g id="edge1" class="edge"><title>Node1&#45;&gt;Node2</title>
<path fill="none" stroke="midnightblue" d="M1201.68,-400.513C1271.19,-397.317 1406.5,-379.704 1406.5,-291 1406.5,-291 1406.5,-291 1406.5,-233 1406.5,-163.547 1309.73,-137.132 1255.05,-127.749"/>
<polygon fill="midnightblue" stroke="midnightblue" points="1255.47,-124.271 1245.04,-126.14 1254.36,-131.182 1255.47,-124.271"/>
</g>
<!-- Node3 -->
<g id="node3" class="node"><title>Node3</title>
<g id="a_node3"><a xlink:href="../../d4/df9/torclogging_8h.html" target="_top" xlink:title="torclogging.h">
<polygon fill="white" stroke="black" points="104,-336.5 104,-355.5 183,-355.5 183,-336.5 104,-336.5"/>
<text text-anchor="middle" x="143.5" y="-343.5" font-family="Helvetica,sans-Serif" font-size="10.00">torclogging.h</text>
</a>
</g>
</g>
<!-- Node1&#45;&gt;Node3 -->
<g id="edge2" class="edge"><title>Node1&#45;&gt;Node3</title>
<path fill="none" stroke="midnightblue" d="M1121.28,-398.867C961.135,-390.372 369.022,-358.963 193.1,-349.631"/>
<polygon fill="midnightblue" stroke="midnightblue" points="193.26,-346.135 183.089,-349.1 192.889,-353.125 193.26,-346.135"/>
</g>
<!-- Node7 -->
<g id="node7" class="node"><title>Node7</title>
<g id="a_node7"><a xlink:href="../../d1/d49/torccoreutils_8h.html" target="_top" xlink:title="torccoreutils.h">
<polygon fill="white" stroke="black" points="443,-336.5 443,-355.5 528,-355.5 528,-336.5 443,-336.5"/>
<text text-anchor="middle" x="485.5" y="-343.5" font-family="Helvetica,sans-Serif" font-size="10.00">torccoreutils.h</text>
</a>
</g>
</g>
<!-- Node1&#45;&gt;Node7 -->
<g id="edge6" class="edge"><title>Node1&#45;&gt;Node7</title>
<path fill="none" stroke="midnightblue" d="M1121.24,-397.784C1005,-388.499 668.905,-361.651 538.29,-351.217"/>
<polygon fill="midnightblue" stroke="midnightblue" points="538.386,-347.714 528.139,-350.406 537.829,-354.691 538.386,-347.714"/>
</g>
<!-- Node11 -->
<g id="node11" class="node"><title>Node11</title>
<g id="a_node11"><a xlink:href="../../d4/d68/torcinputs_8h.html" target="_top" xlink:title="torcinputs.h">
<polygon fill="white" stroke="black" points="1091.5,-336.5 1091.5,-355.5 1165.5,-355.5 1165.5,-336.5 1091.5,-336.5"/>
<text text-anchor="middle" x="1128.5" y="-343.5" font-family="Helvetica,sans-Serif" font-size="10.00">torcinputs.h</text>
</a>
</g>
</g>
<!-- Node1&#45;&gt;Node11 -->
<g id="edge10" class="edge"><title>Node1&#45;&gt;Node11</title>
<path fill="none" stroke="midnightblue" d="M1156.05,-392.083C1151.49,-384.613 1144.83,-373.724 1139.21,-364.52"/>
<polygon fill="midnightblue" stroke="midnightblue" points="1142.05,-362.459 1133.85,-355.751 1136.08,-366.109 1142.05,-362.459"/>
</g>
<!-- Node26 -->
<g id="node26" class="node"><title>Node26</title>
<g id="a_node26"><a xlink:href="../../dd/d69/torcinput_8h.html" target="_top" xlink:title="torcinput.h">
<polygon fill="white" stroke="black" points="1165.5,-280.5 1165.5,-299.5 1233.5,-299.5 1233.5,-280.5 1165.5,-280.5"/>
<text text-anchor="middle" x="1199.5" y="-287.5" font-family="Helvetica,sans-Serif" font-size="10.00">torcinput.h</text>
</a>
</g>
</g>
<!-- Node1&#45;&gt;Node26 -->
<g id="edge54" class="edge"><title>Node1&#45;&gt;Node26</title>
<path fill="none" stroke="midnightblue" d="M1164.48,-392.368C1170.64,-374.537 1184.89,-333.295 1193.19,-309.272"/>
<polygon fill="midnightblue" stroke="midnightblue" points="1196.57,-310.186 1196.53,-299.591 1189.96,-307.9 1196.57,-310.186"/>
</g>
<!-- Node35 -->
<g id="node35" class="node"><title>Node35</title>
<polygon fill="white" stroke="#bfbfbf" points="1435,-336.5 1435,-355.5 1546,-355.5 1546,-336.5 1435,-336.5"/>
<text text-anchor="middle" x="1490.5" y="-343.5" font-family="Helvetica,sans-Serif" font-size="10.00">torcnetworkinputs.h</text>
</g>
<!-- Node1&#45;&gt;Node35 -->
<g id="edge53" class="edge"><title>Node1&#45;&gt;Node35</title>
<path fill="none" stroke="midnightblue" d="M1201.51,-394.433C1258.12,-385.142 1362.08,-368.079 1428.66,-357.151"/>
<polygon fill="midnightblue" stroke="midnightblue" points="1429.3,-360.591 1438.6,-355.518 1428.17,-353.684 1429.3,-360.591"/>
</g>
<!-- Node4 -->
<g id="node4" class="node"><title>Node4</title>
<polygon fill="white" stroke="#bfbfbf" points="0,-280.5 0,-299.5 53,-299.5 53,-280.5 0,-280.5"/>
<text text-anchor="middle" x="26.5" y="-287.5" font-family="Helvetica,sans-Serif" font-size="10.00">stdint.h</text>
</g>
<!-- Node3&#45;&gt;Node4 -->
<g id="edge3" class="edge"><title>Node3&#45;&gt;Node4</title>
<path fill="none" stroke="midnightblue" d="M124.961,-336.444C105.877,-327.636 75.9251,-313.812 54.0643,-303.722"/>
<polygon fill="midnightblue" stroke="midnightblue" points="55.4986,-300.529 44.9523,-299.516 52.5651,-306.885 55.4986,-300.529"/>
</g>
<!-- Node5 -->
<g id="node5" class="node"><title>Node5</title>
<polygon fill="white" stroke="#bfbfbf" points="71,-280.5 71,-299.5 122,-299.5 122,-280.5 71,-280.5"/>
<text text-anchor="middle" x="96.5" y="-287.5" font-family="Helvetica,sans-Serif" font-size="10.00">errno.h</text>
</g>
<!-- Node3&#45;&gt;Node5 -->
<g id="edge4" class="edge"><title>Node3&#45;&gt;Node5</title>
<path fill="none" stroke="midnightblue" d="M135.739,-336.083C128.963,-328.298 118.957,-316.801 110.745,-307.367"/>
<polygon fill="midnightblue" stroke="midnightblue" points="113.322,-304.996 104.117,-299.751 108.042,-309.592 113.322,-304.996"/>
</g>
<!-- Node6 -->
<g id="node6" class="node"><title>Node6</title>
<g id="a_node6"><a xlink:href="../../d1/d37/torcloggingdefs_8h.html" target="_top" xlink:title="torcloggingdefs.h">
<polygon fill="white" stroke="black" points="140,-280.5 140,-299.5 239,-299.5 239,-280.5 140,-280.5"/>
<text text-anchor="middle" x="189.5" y="-287.5" font-family="Helvetica,sans-Serif" font-size="10.00">torcloggingdefs.h</text>
</a>
</g>
</g>
<!-- Node3&#45;&gt;Node6 -->
<g id="edge5" class="edge"><title>Node3&#45;&gt;Node6</title>
<path fill="none" stroke="midnightblue" d="M151.096,-336.083C157.727,-328.298 167.521,-316.801 175.558,-307.367"/>
<polygon fill="midnightblue" stroke="midnightblue" points="178.225,-309.633 182.045,-299.751 172.896,-305.094 178.225,-309.633"/>
</g>
<!-- Node8 -->
<g id="node8" class="node"><title>Node8</title>
<polygon fill="white" stroke="#bfbfbf" points="428,-280.5 428,-299.5 467,-299.5 467,-280.5 428,-280.5"/>
<text text-anchor="middle" x="447.5" y="-287.5" font-family="Helvetica,sans-Serif" font-size="10.00">QFile</text>
</g>
<!-- Node7&#45;&gt;Node8 -->
<g id="edge7" class="edge"><title>Node7&#45;&gt;Node8</title>
<path fill="none" stroke="midnightblue" d="M479.225,-336.083C473.858,-328.455 465.982,-317.264 459.421,-307.941"/>
<polygon fill="midnightblue" stroke="midnightblue" points="462.275,-305.915 453.658,-299.751 456.551,-309.943 462.275,-305.915"/>
</g>
<!-- Node9 -->
<g id="node9" class="node"><title>Node9</title>
<polygon fill="white" stroke="#bfbfbf" points="485.5,-280.5 485.5,-299.5 561.5,-299.5 561.5,-280.5 485.5,-280.5"/>
<text text-anchor="middle" x="523.5" y="-287.5" font-family="Helvetica,sans-Serif" font-size="10.00">QMetaEnum</text>
</g>
<!-- Node7&#45;&gt;Node9 -->
<g id="edge8" class="edge"><title>Node7&#45;&gt;Node9</title>
<path fill="none" stroke="midnightblue" d="M491.775,-336.083C497.142,-328.455 505.018,-317.264 511.579,-307.941"/>
<polygon fill="midnightblue" stroke="midnightblue" points="514.449,-309.943 517.342,-299.751 508.725,-305.915 514.449,-309.943"/>
</g>
<!-- Node10 -->
<g id="node10" class="node"><title>Node10</title>
<polygon fill="white" stroke="#bfbfbf" points="234,-56.5 234,-75.5 305,-75.5 305,-56.5 234,-56.5"/>
<text text-anchor="middle" x="269.5" y="-63.5" font-family="Helvetica,sans-Serif" font-size="10.00">QDateTime</text>
</g>
<!-- Node7&#45;&gt;Node10 -->
<g id="edge9" class="edge"><title>Node7&#45;&gt;Node10</title>
<path fill="none" stroke="midnightblue" d="M442.95,-342.247C379.508,-335.579 267.5,-312.79 267.5,-235 267.5,-235 267.5,-235 267.5,-177 267.5,-144.943 268.36,-107.639 268.952,-85.747"/>
<polygon fill="midnightblue" stroke="midnightblue" points="272.456,-85.6513 269.239,-75.5568 265.459,-85.4544 272.456,-85.6513"/>
</g>
<!-- Node11&#45;&gt;Node2 -->
<g id="edge12" class="edge"><title>Node11&#45;&gt;Node2</title>
<path fill="none" stroke="midnightblue" d="M1157.89,-336.482C1181.71,-328.869 1215.61,-316.39 1242.5,-300 1295.63,-267.616 1315.88,-249.309 1326.5,-188 1328.02,-179.242 1331.43,-175.396 1326.5,-168 1310.73,-144.339 1279.9,-133.099 1255.21,-127.771"/>
<polygon fill="midnightblue" stroke="midnightblue" points="1255.55,-124.271 1245.07,-125.83 1254.23,-131.146 1255.55,-124.271"/>
</g>
<!-- Node12 -->
<g id="node12" class="node"><title>Node12</title>
<polygon fill="white" stroke="#bfbfbf" points="1106,-280.5 1106,-299.5 1147,-299.5 1147,-280.5 1106,-280.5"/>
<text text-anchor="middle" x="1126.5" y="-287.5" font-family="Helvetica,sans-Serif" font-size="10.00">QList</text>
</g>
<!-- Node11&#45;&gt;Node12 -->
<g id="edge11" class="edge"><title>Node11&#45;&gt;Node12</title>
<path fill="none" stroke="midnightblue" d="M1128.17,-336.083C1127.91,-329.006 1127.53,-318.861 1127.2,-309.986"/>
<polygon fill="midnightblue" stroke="midnightblue" points="1130.69,-309.615 1126.82,-299.751 1123.7,-309.874 1130.69,-309.615"/>
</g>
<!-- Node13 -->
<g id="node13" class="node"><title>Node13</title>
<g id="a_node13"><a xlink:href="../../d3/dee/torchttpservice_8h.html" target="_top" xlink:title="torchttpservice.h">
<polygon fill="white" stroke="black" points="606.5,-224.5 606.5,-243.5 704.5,-243.5 704.5,-224.5 606.5,-224.5"/>
<text text-anchor="middle" x="655.5" y="-231.5" font-family="Helvetica,sans-Serif" font-size="10.00">torchttpservice.h</text>
</a>
</g>
</g>
<!-- Node11&#45;&gt;Node13 -->
<g id="edge13" class="edge"><title>Node11&#45;&gt;Node13</title>
<path fill="none" stroke="midnightblue" d="M1091.78,-336.46C1006.65,-316.662 795.931,-267.658 701.991,-245.812"/>
<polygon fill="midnightblue" stroke="midnightblue" points="702.731,-242.391 692.199,-243.535 701.146,-249.209 702.731,-242.391"/>
</g>
<!-- Node11&#45;&gt;Node26 -->
<g id="edge31" class="edge"><title>Node11&#45;&gt;Node26</title>
<path fill="none" stroke="midnightblue" d="M1139.91,-336.324C1150.61,-328.185 1166.84,-315.839 1179.66,-306.087"/>
<polygon fill="midnightblue" stroke="midnightblue" points="1182.04,-308.673 1187.89,-299.834 1177.81,-303.102 1182.04,-308.673"/>
</g>
<!-- Node34 -->
<g id="node34" class="node"><title>Node34</title>
<g id="a_node34"><a xlink:href="../../d5/d41/torccentral_8h.html" target="_top" xlink:title="torccentral.h">
<polygon fill="white" stroke="black" points="1011,-280.5 1011,-299.5 1088,-299.5 1088,-280.5 1011,-280.5"/>
<text text-anchor="middle" x="1049.5" y="-287.5" font-family="Helvetica,sans-Serif" font-size="10.00">torccentral.h</text>
</a>
</g>
</g>
<!-- Node11&#45;&gt;Node34 -->
<g id="edge47" class="edge"><title>Node11&#45;&gt;Node34</title>
<path fill="none" stroke="midnightblue" d="M1115.81,-336.324C1103.6,-327.979 1084.92,-315.212 1070.5,-305.352"/>
<polygon fill="midnightblue" stroke="midnightblue" points="1072.39,-302.408 1062.16,-299.655 1068.44,-308.187 1072.39,-302.408"/>
</g>
<!-- Node13&#45;&gt;Node2 -->
<g id="edge15" class="edge"><title>Node13&#45;&gt;Node2</title>
<path fill="none" stroke="midnightblue" d="M704.591,-231.375C808.515,-227.434 1047.44,-215.589 1123.5,-188 1131.69,-185.028 1172.83,-155.928 1198.21,-137.686"/>
<polygon fill="midnightblue" stroke="midnightblue" points="1200.38,-140.433 1206.45,-131.747 1196.29,-134.754 1200.38,-140.433"/>
</g>
<!-- Node14 -->
<g id="node14" class="node"><title>Node14</title>
<polygon fill="white" stroke="#bfbfbf" points="505.5,-56.5 505.5,-75.5 549.5,-75.5 549.5,-56.5 505.5,-56.5"/>
<text text-anchor="middle" x="527.5" y="-63.5" font-family="Helvetica,sans-Serif" font-size="10.00">QMap</text>
</g>
<!-- Node13&#45;&gt;Node14 -->
<g id="edge14" class="edge"><title>Node13&#45;&gt;Node14</title>
<path fill="none" stroke="midnightblue" d="M632.295,-224.418C615.164,-217.052 592.339,-204.93 577.5,-188 550.876,-157.625 537.122,-111.116 531.199,-85.5083"/>
<polygon fill="midnightblue" stroke="midnightblue" points="534.599,-84.6695 529.068,-75.6329 527.756,-86.1463 534.599,-84.6695"/>
</g>
<!-- Node15 -->
<g id="node15" class="node"><title>Node15</title>
<polygon fill="white" stroke="#bfbfbf" points="671.5,-112.5 671.5,-131.5 763.5,-131.5 763.5,-112.5 671.5,-112.5"/>
<text text-anchor="middle" x="717.5" y="-119.5" font-family="Helvetica,sans-Serif" font-size="10.00">QReadWriteLock</text>
</g>
<!-- Node13&#45;&gt;Node15 -->
<g id="edge16" class="edge"><title>Node13&#45;&gt;Node15</title>
<path fill="none" stroke="midnightblue" d="M664.658,-224.472C673.353,-215.95 686.283,-202.117 694.5,-188 702.968,-173.451 709.073,-155.273 712.856,-141.842"/>
<polygon fill="midnightblue" stroke="midnightblue" points="716.322,-142.423 715.488,-131.861 709.553,-140.638 716.322,-142.423"/>
</g>
<!-- Node16 -->
<g id="node16" class="node"><title>Node16</title>
<polygon fill="white" stroke="#bfbfbf" points="451,-168.5 451,-187.5 530,-187.5 530,-168.5 451,-168.5"/>
<text text-anchor="middle" x="490.5" y="-175.5" font-family="Helvetica,sans-Serif" font-size="10.00">QMetaObject</text>
</g>
<!-- Node13&#45;&gt;Node16 -->
<g id="edge17" class="edge"><title>Node13&#45;&gt;Node16</title>
<path fill="none" stroke="midnightblue" d="M629.355,-224.444C601.477,-215.32 557.152,-200.813 526.1,-190.651"/>
<polygon fill="midnightblue" stroke="midnightblue" points="527.115,-187.3 516.522,-187.516 524.938,-193.953 527.115,-187.3"/>
</g>
<!-- Node17 -->
<g id="node17" class="node"><title>Node17</title>
<polygon fill="white" stroke="#bfbfbf" points="587,-168.5 587,-187.5 686,-187.5 686,-168.5 587,-168.5"/>
<text text-anchor="middle" x="636.5" y="-175.5" font-family="Helvetica,sans-Serif" font-size="10.00">QCoreApplication</text>
</g>
<!-- Node13&#45;&gt;Node17 -->
<g id="edge18" class="edge"><title>Node13&#45;&gt;Node17</title>
<path fill="none" stroke="midnightblue" d="M652.363,-224.083C649.817,-216.849 646.144,-206.409 642.973,-197.397"/>
<polygon fill="midnightblue" stroke="midnightblue" points="646.2,-196.023 639.579,-187.751 639.597,-198.346 646.2,-196.023"/>
</g>
<!-- Node18 -->
<g id="node18" class="node"><title>Node18</title>
<g id="a_node18"><a xlink:href="../../d4/d11/torchttphandler_8h.html" target="_top" xlink:title="torchttphandler.h">
<polygon fill="white" stroke="black" points="334,-168.5 334,-187.5 433,-187.5 433,-168.5 334,-168.5"/>
<text text-anchor="middle" x="383.5" y="-175.5" font-family="Helvetica,sans-Serif" font-size="10.00">torchttphandler.h</text>
</a>
</g>
</g>
<!-- Node13&#45;&gt;Node18 -->
<g id="edge19" class="edge"><title>Node13&#45;&gt;Node18</title>
<path fill="none" stroke="midnightblue" d="M612.401,-224.444C564.653,-214.964 487.639,-199.675 436.306,-189.483"/>
<polygon fill="midnightblue" stroke="midnightblue" points="436.888,-186.031 426.398,-187.516 435.525,-192.897 436.888,-186.031"/>
</g>
<!-- Node21 -->
<g id="node21" class="node"><title>Node21</title>
<g id="a_node21"><a xlink:href="../../df/dd7/torchttprequest_8h.html" target="_top" xlink:title="torchttprequest.h">
<polygon fill="white" stroke="black" points="319,-112.5 319,-131.5 420,-131.5 420,-112.5 319,-112.5"/>
<text text-anchor="middle" x="369.5" y="-119.5" font-family="Helvetica,sans-Serif" font-size="10.00">torchttprequest.h</text>
</a>
</g>
</g>
<!-- Node13&#45;&gt;Node21 -->
<g id="edge30" class="edge"><title>Node13&#45;&gt;Node21</title>
<path fill="none" stroke="midnightblue" d="M606.428,-233.85C523.352,-234.122 360.5,-229.226 324.5,-188 310.458,-171.919 330.093,-151.383 347.665,-137.742"/>
<polygon fill="midnightblue" stroke="midnightblue" points="349.976,-140.387 355.968,-131.65 345.835,-134.744 349.976,-140.387"/>
</g>
<!-- Node19 -->
<g id="node19" class="node"><title>Node19</title>
<polygon fill="white" stroke="#bfbfbf" points="570,-56.5 570,-75.5 623,-75.5 623,-56.5 570,-56.5"/>
<text text-anchor="middle" x="596.5" y="-63.5" font-family="Helvetica,sans-Serif" font-size="10.00">QString</text>
</g>
<!-- Node18&#45;&gt;Node19 -->
<g id="edge20" class="edge"><title>Node18&#45;&gt;Node19</title>
<path fill="none" stroke="midnightblue" d="M426.821,-168.439C456.034,-161.456 494.714,-149.795 525.5,-132 547.755,-119.136 568.898,-98.2657 582.231,-83.6534"/>
<polygon fill="midnightblue" stroke="midnightblue" points="585.108,-85.6837 589.128,-75.881 579.873,-81.0375 585.108,-85.6837"/>
</g>
<!-- Node20 -->
<g id="node20" class="node"><title>Node20</title>
<polygon fill="white" stroke="#bfbfbf" points="438.5,-112.5 438.5,-131.5 516.5,-131.5 516.5,-112.5 438.5,-112.5"/>
<text text-anchor="middle" x="477.5" y="-119.5" font-family="Helvetica,sans-Serif" font-size="10.00">QVariantMap</text>
</g>
<!-- Node18&#45;&gt;Node20 -->
<g id="edge21" class="edge"><title>Node18&#45;&gt;Node20</title>
<path fill="none" stroke="midnightblue" d="M398.603,-168.324C413.403,-159.822 436.194,-146.729 453.482,-136.797"/>
<polygon fill="midnightblue" stroke="midnightblue" points="455.507,-139.671 462.435,-131.655 452.02,-133.601 455.507,-139.671"/>
</g>
<!-- Node18&#45;&gt;Node21 -->
<g id="edge22" class="edge"><title>Node18&#45;&gt;Node21</title>
<path fill="none" stroke="midnightblue" d="M381.188,-168.083C379.333,-160.927 376.665,-150.635 374.346,-141.691"/>
<polygon fill="midnightblue" stroke="midnightblue" points="377.666,-140.553 371.769,-131.751 370.891,-142.309 377.666,-140.553"/>
</g>
<!-- Node21&#45;&gt;Node10 -->
<g id="edge26" class="edge"><title>Node21&#45;&gt;Node10</title>
<path fill="none" stroke="midnightblue" d="M353.433,-112.324C337.542,-103.743 312.993,-90.486 294.542,-80.5224"/>
<polygon fill="midnightblue" stroke="midnightblue" points="295.989,-77.3264 285.527,-75.6545 292.663,-83.4857 295.989,-77.3264"/>
</g>
<!-- Node21&#45;&gt;Node14 -->
<g id="edge23" class="edge"><title>Node21&#45;&gt;Node14</title>
<path fill="none" stroke="midnightblue" d="M394.536,-112.444C421.976,-103.065 466.055,-88.0001 495.867,-77.8112"/>
<polygon fill="midnightblue" stroke="midnightblue" points="497.055,-81.104 505.386,-74.558 494.791,-74.4802 497.055,-81.104"/>
</g>
<!-- Node21&#45;&gt;Node19 -->
<g id="edge25" class="edge"><title>Node21&#45;&gt;Node19</title>
<path fill="none" stroke="midnightblue" d="M405.469,-112.444C447.739,-102.388 517.492,-85.7949 559.993,-75.6844"/>
<polygon fill="midnightblue" stroke="midnightblue" points="561.002,-79.0423 569.92,-73.323 559.382,-72.2323 561.002,-79.0423"/>
</g>
<!-- Node22 -->
<g id="node22" class="node"><title>Node22</title>
<polygon fill="white" stroke="#bfbfbf" points="330,-56.5 330,-75.5 371,-75.5 371,-56.5 330,-56.5"/>
<text text-anchor="middle" x="350.5" y="-63.5" font-family="Helvetica,sans-Serif" font-size="10.00">QPair</text>
</g>
<!-- Node21&#45;&gt;Node22 -->
<g id="edge24" class="edge"><title>Node21&#45;&gt;Node22</title>
<path fill="none" stroke="midnightblue" d="M366.363,-112.083C363.817,-104.849 360.144,-94.4087 356.973,-85.3968"/>
<polygon fill="midnightblue" stroke="midnightblue" points="360.2,-84.0225 353.579,-75.7511 353.597,-86.3459 360.2,-84.0225"/>
</g>
<!-- Node23 -->
<g id="node23" class="node"><title>Node23</title>
<g id="a_node23"><a xlink:href="../../de/de6/torchttpreader_8h.html" target="_top" xlink:title="torchttpreader.h">
<polygon fill="white" stroke="black" points="389,-56.5 389,-75.5 484,-75.5 484,-56.5 389,-56.5"/>
<text text-anchor="middle" x="436.5" y="-63.5" font-family="Helvetica,sans-Serif" font-size="10.00">torchttpreader.h</text>
</a>
</g>
</g>
<!-- Node21&#45;&gt;Node23 -->
<g id="edge27" class="edge"><title>Node21&#45;&gt;Node23</title>
<path fill="none" stroke="midnightblue" d="M380.265,-112.324C390.266,-104.263 405.387,-92.0765 417.43,-82.3695"/>
<polygon fill="midnightblue" stroke="midnightblue" points="419.95,-84.8343 425.539,-75.8339 415.557,-79.3841 419.95,-84.8343"/>
</g>
<!-- Node24 -->
<g id="node24" class="node"><title>Node24</title>
<polygon fill="white" stroke="#bfbfbf" points="356,-0.5 356,-19.5 427,-19.5 427,-0.5 356,-0.5"/>
<text text-anchor="middle" x="391.5" y="-7.5" font-family="Helvetica,sans-Serif" font-size="10.00">QByteArray</text>
</g>
<!-- Node23&#45;&gt;Node24 -->
<g id="edge28" class="edge"><title>Node23&#45;&gt;Node24</title>
<path fill="none" stroke="midnightblue" d="M429.069,-56.083C422.647,-48.3768 413.194,-37.0333 405.378,-27.6531"/>
<polygon fill="midnightblue" stroke="midnightblue" points="407.883,-25.1927 398.793,-19.7511 402.506,-29.674 407.883,-25.1927"/>
</g>
<!-- Node25 -->
<g id="node25" class="node"><title>Node25</title>
<polygon fill="white" stroke="#bfbfbf" points="445.5,-0.5 445.5,-19.5 517.5,-19.5 517.5,-0.5 445.5,-0.5"/>
<text text-anchor="middle" x="481.5" y="-7.5" font-family="Helvetica,sans-Serif" font-size="10.00">QTcpSocket</text>
</g>
<!-- Node23&#45;&gt;Node25 -->
<g id="edge29" class="edge"><title>Node23&#45;&gt;Node25</title>
<path fill="none" stroke="midnightblue" d="M443.931,-56.083C450.353,-48.3768 459.806,-37.0333 467.622,-27.6531"/>
<polygon fill="midnightblue" stroke="midnightblue" points="470.494,-29.674 474.207,-19.7511 465.117,-25.1927 470.494,-29.674"/>
</g>
<!-- Node26&#45;&gt;Node2 -->
<g id="edge32" class="edge"><title>Node26&#45;&gt;Node2</title>
<path fill="none" stroke="midnightblue" d="M1225.65,-280.478C1244.33,-273.268 1268.99,-261.316 1285.5,-244 1304.44,-224.142 1305.58,-214.795 1311.5,-188 1313.42,-179.32 1316.22,-175.531 1311.5,-168 1299.13,-148.28 1275.41,-136.99 1255.02,-130.65"/>
<polygon fill="midnightblue" stroke="midnightblue" points="1255.91,-127.266 1245.34,-127.92 1254.01,-134.004 1255.91,-127.266"/>
</g>
<!-- Node26&#45;&gt;Node13 -->
<g id="edge34" class="edge"><title>Node26&#45;&gt;Node13</title>
<path fill="none" stroke="midnightblue" d="M1165.3,-281.465C1162.33,-280.926 1159.37,-280.427 1156.5,-280 997.901,-256.362 809.073,-243.483 714.971,-238.089"/>
<polygon fill="midnightblue" stroke="midnightblue" points="714.976,-234.584 704.794,-237.514 714.581,-241.573 714.976,-234.584"/>
</g>
<!-- Node27 -->
<g id="node27" class="node"><title>Node27</title>
<polygon fill="white" stroke="#bfbfbf" points="1247,-168.5 1247,-187.5 1302,-187.5 1302,-168.5 1247,-168.5"/>
<text text-anchor="middle" x="1274.5" y="-175.5" font-family="Helvetica,sans-Serif" font-size="10.00">QObject</text>
</g>
<!-- Node26&#45;&gt;Node27 -->
<g id="edge33" class="edge"><title>Node26&#45;&gt;Node27</title>
<path fill="none" stroke="midnightblue" d="M1222.46,-280.371C1238.22,-273.167 1258.09,-261.27 1268.5,-244 1276.82,-230.2 1277.75,-211.677 1276.93,-197.936"/>
<polygon fill="midnightblue" stroke="midnightblue" points="1280.39,-197.348 1275.95,-187.726 1273.42,-198.013 1280.39,-197.348"/>
</g>
<!-- Node28 -->
<g id="node28" class="node"><title>Node28</title>
<g id="a_node28"><a xlink:href="../../d1/df7/torcdevice_8h.html" target="_top" xlink:title="torcdevice.h">
<polygon fill="white" stroke="black" points="1012,-224.5 1012,-243.5 1087,-243.5 1087,-224.5 1012,-224.5"/>
<text text-anchor="middle" x="1049.5" y="-231.5" font-family="Helvetica,sans-Serif" font-size="10.00">torcdevice.h</text>
</a>
</g>
</g>
<!-- Node26&#45;&gt;Node28 -->
<g id="edge35" class="edge"><title>Node26&#45;&gt;Node28</title>
<path fill="none" stroke="midnightblue" d="M1175.73,-280.444C1150.61,-271.399 1110.79,-257.064 1082.6,-246.916"/>
<polygon fill="midnightblue" stroke="midnightblue" points="1083.75,-243.611 1073.16,-243.516 1081.38,-250.197 1083.75,-243.611"/>
</g>
<!-- Node28&#45;&gt;Node2 -->
<g id="edge37" class="edge"><title>Node28&#45;&gt;Node2</title>
<path fill="none" stroke="midnightblue" d="M1078.37,-224.465C1100.88,-216.988 1132.28,-204.7 1156.5,-188 1176.06,-174.513 1194.3,-154.053 1205.86,-139.699"/>
<polygon fill="midnightblue" stroke="midnightblue" points="1208.74,-141.699 1212.15,-131.668 1203.23,-137.384 1208.74,-141.699"/>
</g>
<!-- Node28&#45;&gt;Node19 -->
<g id="edge38" class="edge"><title>Node28&#45;&gt;Node19</title>
<path fill="none" stroke="midnightblue" d="M1030.1,-224.495C1014.04,-216.734 991.354,-204.042 975.5,-188 947.906,-160.08 963.226,-133.679 930.5,-112 882.34,-80.0977 709.758,-70.637 633.35,-67.9785"/>
<polygon fill="midnightblue" stroke="midnightblue" points="633.339,-64.4763 623.23,-67.6468 633.11,-71.4726 633.339,-64.4763"/>
</g>
<!-- Node28&#45;&gt;Node27 -->
<g id="edge39" class="edge"><title>Node28&#45;&gt;Node27</title>
<path fill="none" stroke="midnightblue" d="M1085.15,-224.444C1126.59,-214.498 1194.68,-198.157 1236.92,-188.018"/>
<polygon fill="midnightblue" stroke="midnightblue" points="1237.91,-191.381 1246.82,-185.644 1236.28,-184.574 1237.91,-191.381"/>
</g>
<!-- Node29 -->
<g id="node29" class="node"><title>Node29</title>
<polygon fill="white" stroke="#bfbfbf" points="873,-112.5 873,-131.5 922,-131.5 922,-112.5 873,-112.5"/>
<text text-anchor="middle" x="897.5" y="-119.5" font-family="Helvetica,sans-Serif" font-size="10.00">QHash</text>
</g>
<!-- Node28&#45;&gt;Node29 -->
<g id="edge36" class="edge"><title>Node28&#45;&gt;Node29</title>
<path fill="none" stroke="midnightblue" d="M1016.51,-224.453C993.928,-217.4 964.252,-205.65 942.5,-188 926.567,-175.071 913.896,-155.075 906.112,-140.676"/>
<polygon fill="midnightblue" stroke="midnightblue" points="909.21,-139.047 901.523,-131.757 902.986,-142.25 909.21,-139.047"/>
</g>
<!-- Node30 -->
<g id="node30" class="node"><title>Node30</title>
<g id="a_node30"><a xlink:href="../../d8/dfe/torcreferencecounted_8h.html" target="_top" xlink:title="torcreferencecounted.h">
<polygon fill="white" stroke="black" points="985,-168.5 985,-187.5 1114,-187.5 1114,-168.5 985,-168.5"/>
<text text-anchor="middle" x="1049.5" y="-175.5" font-family="Helvetica,sans-Serif" font-size="10.00">torcreferencecounted.h</text>
</a>
</g>
</g>
<!-- Node28&#45;&gt;Node30 -->
<g id="edge40" class="edge"><title>Node28&#45;&gt;Node30</title>
<path fill="none" stroke="midnightblue" d="M1049.5,-224.083C1049.5,-217.006 1049.5,-206.861 1049.5,-197.986"/>
<polygon fill="midnightblue" stroke="midnightblue" points="1053,-197.751 1049.5,-187.751 1046,-197.751 1053,-197.751"/>
</g>
<!-- Node32 -->
<g id="node32" class="node"><title>Node32</title>
<g id="a_node32"><a xlink:href="../../d2/d5b/torcdevicehandler_8h.html" target="_top" xlink:title="torcdevicehandler.h">
<polygon fill="white" stroke="black" points="780.5,-168.5 780.5,-187.5 890.5,-187.5 890.5,-168.5 780.5,-168.5"/>
<text text-anchor="middle" x="835.5" y="-175.5" font-family="Helvetica,sans-Serif" font-size="10.00">torcdevicehandler.h</text>
</a>
</g>
</g>
<!-- Node28&#45;&gt;Node32 -->
<g id="edge42" class="edge"><title>Node28&#45;&gt;Node32</title>
<path fill="none" stroke="midnightblue" d="M1015.59,-224.444C978.651,-215.122 919.446,-200.183 879.082,-189.997"/>
<polygon fill="midnightblue" stroke="midnightblue" points="879.803,-186.57 869.25,-187.516 878.09,-193.357 879.803,-186.57"/>
</g>
<!-- Node31 -->
<g id="node31" class="node"><title>Node31</title>
<polygon fill="white" stroke="#bfbfbf" points="1014.5,-112.5 1014.5,-131.5 1084.5,-131.5 1084.5,-112.5 1014.5,-112.5"/>
<text text-anchor="middle" x="1049.5" y="-119.5" font-family="Helvetica,sans-Serif" font-size="10.00">QAtomicInt</text>
</g>
<!-- Node30&#45;&gt;Node31 -->
<g id="edge41" class="edge"><title>Node30&#45;&gt;Node31</title>
<path fill="none" stroke="midnightblue" d="M1049.5,-168.083C1049.5,-161.006 1049.5,-150.861 1049.5,-141.986"/>
<polygon fill="midnightblue" stroke="midnightblue" points="1053,-141.751 1049.5,-131.751 1046,-141.751 1053,-141.751"/>
</g>
<!-- Node32&#45;&gt;Node2 -->
<g id="edge44" class="edge"><title>Node32&#45;&gt;Node2</title>
<path fill="none" stroke="midnightblue" d="M890.782,-169.206C970.027,-158.033 1113.8,-137.762 1181.44,-128.226"/>
<polygon fill="midnightblue" stroke="midnightblue" points="1182.2,-131.652 1191.62,-126.79 1181.23,-124.721 1182.2,-131.652"/>
</g>
<!-- Node32&#45;&gt;Node15 -->
<g id="edge45" class="edge"><title>Node32&#45;&gt;Node15</title>
<path fill="none" stroke="midnightblue" d="M816.803,-168.444C797.556,-159.636 767.348,-145.812 745.3,-135.722"/>
<polygon fill="midnightblue" stroke="midnightblue" points="746.66,-132.495 736.11,-131.516 743.747,-138.86 746.66,-132.495"/>
</g>
<!-- Node32&#45;&gt;Node29 -->
<g id="edge43" class="edge"><title>Node32&#45;&gt;Node29</title>
<path fill="none" stroke="midnightblue" d="M845.461,-168.324C854.627,-160.341 868.437,-148.313 879.528,-138.653"/>
<polygon fill="midnightblue" stroke="midnightblue" points="882.115,-141.041 887.357,-131.834 877.518,-135.762 882.115,-141.041"/>
</g>
<!-- Node33 -->
<g id="node33" class="node"><title>Node33</title>
<polygon fill="white" stroke="#bfbfbf" points="784.5,-112.5 784.5,-131.5 842.5,-131.5 842.5,-112.5 784.5,-112.5"/>
<text text-anchor="middle" x="813.5" y="-119.5" font-family="Helvetica,sans-Serif" font-size="10.00">QVariant</text>
</g>
<!-- Node32&#45;&gt;Node33 -->
<g id="edge46" class="edge"><title>Node32&#45;&gt;Node33</title>
<path fill="none" stroke="midnightblue" d="M831.867,-168.083C828.888,-160.77 824.574,-150.181 820.875,-141.103"/>
<polygon fill="midnightblue" stroke="midnightblue" points="824.08,-139.691 817.065,-131.751 817.597,-142.333 824.08,-139.691"/>
</g>
<!-- Node34&#45;&gt;Node2 -->
<g id="edge48" class="edge"><title>Node34&#45;&gt;Node2</title>
<path fill="none" stroke="midnightblue" d="M1064.52,-280.31C1090.78,-264.558 1145.64,-229.088 1181.5,-188 1193.88,-173.812 1204.11,-154.838 1210.65,-141.054"/>
<polygon fill="midnightblue" stroke="midnightblue" points="1213.96,-142.243 1214.91,-131.691 1207.58,-139.345 1213.96,-142.243"/>
</g>
<!-- Node34&#45;&gt;Node13 -->
<g id="edge52" class="edge"><title>Node34&#45;&gt;Node13</title>
<path fill="none" stroke="midnightblue" d="M1010.64,-283.674C941.478,-274.195 796.616,-254.341 714.888,-243.14"/>
<polygon fill="midnightblue" stroke="midnightblue" points="715.142,-239.642 704.759,-241.751 714.191,-246.577 715.142,-239.642"/>
</g>
<!-- Node34&#45;&gt;Node27 -->
<g id="edge49" class="edge"><title>Node34&#45;&gt;Node27</title>
<path fill="none" stroke="midnightblue" d="M1088.06,-280.953C1137.65,-270.368 1218.82,-252.158 1230.5,-244 1247.38,-232.207 1259.67,-211.686 1266.9,-196.851"/>
<polygon fill="midnightblue" stroke="midnightblue" points="1270.12,-198.217 1271.09,-187.666 1263.75,-195.31 1270.12,-198.217"/>
</g>
<!-- Node34&#45;&gt;Node28 -->
<g id="edge51" class="edge"><title>Node34&#45;&gt;Node28</title>
<path fill="none" stroke="midnightblue" d="M1049.5,-280.083C1049.5,-273.006 1049.5,-262.861 1049.5,-253.986"/>
<polygon fill="midnightblue" stroke="midnightblue" points="1053,-253.751 1049.5,-243.751 1046,-253.751 1053,-253.751"/>
</g>
<!-- Node34&#45;&gt;Node33 -->
<g id="edge50" class="edge"><title>Node34&#45;&gt;Node33</title>
<path fill="none" stroke="midnightblue" d="M1010.8,-288.021C948.226,-284.095 826.306,-266.223 771.5,-188 759.683,-171.134 777.074,-151.162 792.933,-137.85"/>
<polygon fill="midnightblue" stroke="midnightblue" points="795.239,-140.489 800.924,-131.548 790.904,-134.993 795.239,-140.489"/>
</g>
</g>
</svg>
