<?xml version="1.0" encoding="UTF-8" standalone="no"?>
<!DOCTYPE svg PUBLIC "-//W3C//DTD SVG 1.1//EN"
 "http://www.w3.org/Graphics/SVG/1.1/DTD/svg11.dtd">
<!-- Generated by graphviz version 2.38.0 (20140413.2041)
 -->
<!-- Title: torclanguage.cpp Pages: 1 -->
<!--zoomable 420 -->
<svg id="main" version="1.1" xmlns="http://www.w3.org/2000/svg" xmlns:xlink="http://www.w3.org/1999/xlink" xml:space="preserve" onload="init(evt)">
<style type="text/css"><![CDATA[
.edge:hover path { stroke: red; }
.edge:hover polygon { stroke: red; fill: red; }
]]></style>
<script type="text/javascript"><![CDATA[
var edges = document.getElementsByTagName('g');
if (edges && edges.length) {
  for (var i=0;i<edges.length;i++) {
    if (edges[i].id.substr(0,4)=='edge') {
      edges[i].setAttribute('class','edge');
    }
  }
}
]]></script>
        <defs>
                <circle id="rim" cx="0" cy="0" r="7"/>
                <circle id="rim2" cx="0" cy="0" r="3.5"/>
                <g id="zoomPlus">
                        <use xlink:href="#rim" fill="#404040">
                                <set attributeName="fill" to="#808080" begin="zoomplus.mouseover" end="zoomplus.mouseout"/>
                        </use>
                        <path d="M-4,0h8M0,-4v8" fill="none" stroke="white" stroke-width="1.5" pointer-events="none"/>
                </g>
                <g id="zoomMin">
                        <use xlink:href="#rim" fill="#404040">
                                <set attributeName="fill" to="#808080" begin="zoomminus.mouseover" end="zoomminus.mouseout"/>
                        </use>
                        <path d="M-4,0h8" fill="none" stroke="white" stroke-width="1.5" pointer-events="none"/>
                </g>
                <g id="dirArrow">
                        <path fill="none" stroke="white" stroke-width="1.5" d="M0,-3.0v7 M-2.5,-0.5L0,-3.0L2.5,-0.5"/>
                </g>
               <g id="resetDef">
                       <use xlink:href="#rim2" fill="#404040">
                               <set attributeName="fill" to="#808080" begin="reset.mouseover" end="reset.mouseout"/>
                       </use>
               </g>
        </defs>

<script type="text/javascript">
var viewWidth = 1759;
var viewHeight = 420;
var sectionId = 'dynsection-0';
</script>
<script xlink:href="../../svgpan.js"/>
<svg id="graph" class="graph">
<g id="viewport">
<title>torclanguage.cpp</title>
<polygon fill="white" stroke="none" points="-4,4 -4,-416 1754.5,-416 1754.5,4 -4,4"/>
<!-- Node1 -->
<g id="node1" class="node"><title>Node1</title>
<polygon fill="#bfbfbf" stroke="black" points="513.5,-392.5 513.5,-411.5 613.5,-411.5 613.5,-392.5 513.5,-392.5"/>
<text text-anchor="middle" x="563.5" y="-399.5" font-family="Helvetica,sans-Serif" font-size="10.00">torclanguage.cpp</text>
</g>
<!-- Node2 -->
<g id="node2" class="node"><title>Node2</title>
<polygon fill="white" stroke="#bfbfbf" points="163.5,-336.5 163.5,-355.5 201.5,-355.5 201.5,-336.5 163.5,-336.5"/>
<text text-anchor="middle" x="182.5" y="-343.5" font-family="Helvetica,sans-Serif" font-size="10.00">QDir</text>
</g>
<!-- Node1&#45;&gt;Node2 -->
<g id="edge1" class="edge"><title>Node1&#45;&gt;Node2</title>
<path fill="none" stroke="midnightblue" d="M513.299,-396.697C445.339,-390.375 320.487,-377 215.5,-356 214.223,-355.744 212.922,-355.467 211.611,-355.172"/>
<polygon fill="midnightblue" stroke="midnightblue" points="212.137,-351.697 201.589,-352.685 210.451,-358.491 212.137,-351.697"/>
</g>
<!-- Node3 -->
<g id="node3" class="node"><title>Node3</title>
<polygon fill="white" stroke="#bfbfbf" points="1500,-168.5 1500,-187.5 1599,-187.5 1599,-168.5 1500,-168.5"/>
<text text-anchor="middle" x="1549.5" y="-175.5" font-family="Helvetica,sans-Serif" font-size="10.00">QCoreApplication</text>
</g>
<!-- Node1&#45;&gt;Node3 -->
<g id="edge2" class="edge"><title>Node1&#45;&gt;Node3</title>
<path fill="none" stroke="midnightblue" d="M613.54,-400.452C761.17,-398.457 1193.09,-389.811 1329.5,-356 1428.76,-331.397 1471.39,-327.454 1530.5,-244 1540.16,-230.358 1544.95,-211.818 1547.3,-198.03"/>
<polygon fill="midnightblue" stroke="midnightblue" points="1550.82,-198.169 1548.76,-187.777 1543.89,-197.187 1550.82,-198.169"/>
</g>
<!-- Node4 -->
<g id="node4" class="node"><title>Node4</title>
<g id="a_node4"><a xlink:href="../../d4/df9/torclogging_8h.html" target="_top" xlink:title="torclogging.h">
<polygon fill="white" stroke="black" points="160,-224.5 160,-243.5 239,-243.5 239,-224.5 160,-224.5"/>
<text text-anchor="middle" x="199.5" y="-231.5" font-family="Helvetica,sans-Serif" font-size="10.00">torclogging.h</text>
</a>
</g>
</g>
<!-- Node1&#45;&gt;Node4 -->
<g id="edge3" class="edge"><title>Node1&#45;&gt;Node4</title>
<path fill="none" stroke="midnightblue" d="M513.246,-397.505C464.977,-392.724 390.838,-381.588 331.5,-356 292.312,-339.101 284.722,-329.093 253.5,-300 237.475,-285.068 221.776,-265.445 211.472,-251.681"/>
<polygon fill="midnightblue" stroke="midnightblue" points="214.271,-249.58 205.531,-243.591 208.629,-253.723 214.271,-249.58"/>
</g>
<!-- Node8 -->
<g id="node8" class="node"><title>Node8</title>
<g id="a_node8"><a xlink:href="../../dd/dbd/torclocalcontext_8h.html" target="_top" xlink:title="torclocalcontext.h">
<polygon fill="white" stroke="black" points="687.5,-336.5 687.5,-355.5 789.5,-355.5 789.5,-336.5 687.5,-336.5"/>
<text text-anchor="middle" x="738.5" y="-343.5" font-family="Helvetica,sans-Serif" font-size="10.00">torclocalcontext.h</text>
</a>
</g>
</g>
<!-- Node1&#45;&gt;Node8 -->
<g id="edge7" class="edge"><title>Node1&#45;&gt;Node8</title>
<path fill="none" stroke="midnightblue" d="M591.229,-392.444C620.926,-383.28 668.216,-368.688 701.169,-358.519"/>
<polygon fill="midnightblue" stroke="midnightblue" points="702.377,-361.809 710.9,-355.516 700.313,-355.121 702.377,-361.809"/>
</g>
<!-- Node42 -->
<g id="node42" class="node"><title>Node42</title>
<g id="a_node42"><a xlink:href="../../d1/d6c/torcdirectories_8h.html" target="_top" xlink:title="torcdirectories.h">
<polygon fill="white" stroke="black" points="341,-336.5 341,-355.5 436,-355.5 436,-336.5 341,-336.5"/>
<text text-anchor="middle" x="388.5" y="-343.5" font-family="Helvetica,sans-Serif" font-size="10.00">torcdirectories.h</text>
</a>
</g>
</g>
<!-- Node1&#45;&gt;Node42 -->
<g id="edge56" class="edge"><title>Node1&#45;&gt;Node42</title>
<path fill="none" stroke="midnightblue" d="M535.771,-392.444C506.074,-383.28 458.784,-368.688 425.831,-358.519"/>
<polygon fill="midnightblue" stroke="midnightblue" points="426.687,-355.121 416.1,-355.516 424.623,-361.809 426.687,-355.121"/>
</g>
<!-- Node43 -->
<g id="node43" class="node"><title>Node43</title>
<g id="a_node43"><a xlink:href="../../dd/d5f/torclanguage_8h.html" target="_top" xlink:title="torclanguage.h">
<polygon fill="white" stroke="black" points="1231,-336.5 1231,-355.5 1320,-355.5 1320,-336.5 1231,-336.5"/>
<text text-anchor="middle" x="1275.5" y="-343.5" font-family="Helvetica,sans-Serif" font-size="10.00">torclanguage.h</text>
</a>
</g>
</g>
<!-- Node1&#45;&gt;Node43 -->
<g id="edge59" class="edge"><title>Node1&#45;&gt;Node43</title>
<path fill="none" stroke="midnightblue" d="M613.566,-397.203C742.673,-387.411 1086.15,-361.36 1220.52,-351.17"/>
<polygon fill="midnightblue" stroke="midnightblue" points="1220.88,-354.652 1230.59,-350.406 1220.36,-347.672 1220.88,-354.652"/>
</g>
<!-- Node5 -->
<g id="node5" class="node"><title>Node5</title>
<polygon fill="white" stroke="#bfbfbf" points="117,-168.5 117,-187.5 170,-187.5 170,-168.5 117,-168.5"/>
<text text-anchor="middle" x="143.5" y="-175.5" font-family="Helvetica,sans-Serif" font-size="10.00">stdint.h</text>
</g>
<!-- Node4&#45;&gt;Node5 -->
<g id="edge4" class="edge"><title>Node4&#45;&gt;Node5</title>
<path fill="none" stroke="midnightblue" d="M190.503,-224.324C182.306,-216.42 169.994,-204.548 160.028,-194.938"/>
<polygon fill="midnightblue" stroke="midnightblue" points="162.289,-192.256 152.661,-187.834 157.43,-197.295 162.289,-192.256"/>
</g>
<!-- Node6 -->
<g id="node6" class="node"><title>Node6</title>
<polygon fill="white" stroke="#bfbfbf" points="188,-168.5 188,-187.5 239,-187.5 239,-168.5 188,-168.5"/>
<text text-anchor="middle" x="213.5" y="-175.5" font-family="Helvetica,sans-Serif" font-size="10.00">errno.h</text>
</g>
<!-- Node4&#45;&gt;Node6 -->
<g id="edge5" class="edge"><title>Node4&#45;&gt;Node6</title>
<path fill="none" stroke="midnightblue" d="M201.812,-224.083C203.667,-216.927 206.335,-206.635 208.654,-197.691"/>
<polygon fill="midnightblue" stroke="midnightblue" points="212.109,-198.309 211.231,-187.751 205.334,-196.553 212.109,-198.309"/>
</g>
<!-- Node7 -->
<g id="node7" class="node"><title>Node7</title>
<g id="a_node7"><a xlink:href="../../d1/d37/torcloggingdefs_8h.html" target="_top" xlink:title="torcloggingdefs.h">
<polygon fill="white" stroke="black" points="0,-168.5 0,-187.5 99,-187.5 99,-168.5 0,-168.5"/>
<text text-anchor="middle" x="49.5" y="-175.5" font-family="Helvetica,sans-Serif" font-size="10.00">torcloggingdefs.h</text>
</a>
</g>
</g>
<!-- Node4&#45;&gt;Node7 -->
<g id="edge6" class="edge"><title>Node4&#45;&gt;Node7</title>
<path fill="none" stroke="midnightblue" d="M175.732,-224.444C150.607,-215.399 110.789,-201.064 82.5996,-190.916"/>
<polygon fill="midnightblue" stroke="midnightblue" points="83.7512,-187.611 73.1567,-187.516 81.3801,-194.197 83.7512,-187.611"/>
</g>
<!-- Node9 -->
<g id="node9" class="node"><title>Node9</title>
<polygon fill="white" stroke="#bfbfbf" points="814,-168.5 814,-187.5 869,-187.5 869,-168.5 814,-168.5"/>
<text text-anchor="middle" x="841.5" y="-175.5" font-family="Helvetica,sans-Serif" font-size="10.00">QObject</text>
</g>
<!-- Node8&#45;&gt;Node9 -->
<g id="edge8" class="edge"><title>Node8&#45;&gt;Node9</title>
<path fill="none" stroke="midnightblue" d="M753.466,-336.405C766.195,-328.419 784.165,-315.452 795.5,-300 807.817,-283.209 826.408,-227.317 835.734,-197.736"/>
<polygon fill="midnightblue" stroke="midnightblue" points="839.189,-198.412 838.822,-187.823 832.506,-196.329 839.189,-198.412"/>
</g>
<!-- Node10 -->
<g id="node10" class="node"><title>Node10</title>
<polygon fill="white" stroke="#bfbfbf" points="651,-56.5 651,-75.5 704,-75.5 704,-56.5 651,-56.5"/>
<text text-anchor="middle" x="677.5" y="-63.5" font-family="Helvetica,sans-Serif" font-size="10.00">QString</text>
</g>
<!-- Node8&#45;&gt;Node10 -->
<g id="edge9" class="edge"><title>Node8&#45;&gt;Node10</title>
<path fill="none" stroke="midnightblue" d="M687.414,-342.595C582.828,-337.224 351.829,-322.895 324.5,-300 301.428,-280.672 305.5,-265.098 305.5,-235 305.5,-235 305.5,-235 305.5,-177 305.5,-107.612 546.515,-78.6592 640.551,-70.0034"/>
<polygon fill="midnightblue" stroke="midnightblue" points="641.098,-73.4686 650.747,-69.092 640.475,-66.4964 641.098,-73.4686"/>
</g>
<!-- Node11 -->
<g id="node11" class="node"><title>Node11</title>
<polygon fill="white" stroke="#bfbfbf" points="1313.5,-224.5 1313.5,-243.5 1405.5,-243.5 1405.5,-224.5 1313.5,-224.5"/>
<text text-anchor="middle" x="1359.5" y="-231.5" font-family="Helvetica,sans-Serif" font-size="10.00">QReadWriteLock</text>
</g>
<!-- Node8&#45;&gt;Node11 -->
<g id="edge10" class="edge"><title>Node8&#45;&gt;Node11</title>
<path fill="none" stroke="midnightblue" d="M789.596,-343.652C871.826,-340.611 1038.21,-330.859 1175.5,-300 1232,-287.301 1295.08,-262.582 1330.77,-247.556"/>
<polygon fill="midnightblue" stroke="midnightblue" points="1332.25,-250.73 1340.08,-243.593 1329.5,-244.289 1332.25,-250.73"/>
</g>
<!-- Node12 -->
<g id="node12" class="node"><title>Node12</title>
<polygon fill="white" stroke="#bfbfbf" points="927,-168.5 927,-187.5 980,-187.5 980,-168.5 927,-168.5"/>
<text text-anchor="middle" x="953.5" y="-175.5" font-family="Helvetica,sans-Serif" font-size="10.00">QMutex</text>
</g>
<!-- Node8&#45;&gt;Node12 -->
<g id="edge11" class="edge"><title>Node8&#45;&gt;Node12</title>
<path fill="none" stroke="midnightblue" d="M789.624,-339.738C840.941,-333.364 915.095,-320.811 934.5,-300 960.396,-272.227 959.409,-224.324 956.444,-197.888"/>
<polygon fill="midnightblue" stroke="midnightblue" points="959.875,-197.144 955.078,-187.697 952.937,-198.074 959.875,-197.144"/>
</g>
<!-- Node13 -->
<g id="node13" class="node"><title>Node13</title>
<g id="a_node13"><a xlink:href="../../db/db2/torclocaldefs_8h.html" target="_top" xlink:title="torclocaldefs.h">
<polygon fill="white" stroke="black" points="585.5,-280.5 585.5,-299.5 671.5,-299.5 671.5,-280.5 585.5,-280.5"/>
<text text-anchor="middle" x="628.5" y="-287.5" font-family="Helvetica,sans-Serif" font-size="10.00">torclocaldefs.h</text>
</a>
</g>
</g>
<!-- Node8&#45;&gt;Node13 -->
<g id="edge12" class="edge"><title>Node8&#45;&gt;Node13</title>
<path fill="none" stroke="midnightblue" d="M720.827,-336.324C703.106,-327.625 675.597,-314.12 655.212,-304.113"/>
<polygon fill="midnightblue" stroke="midnightblue" points="656.649,-300.919 646.13,-299.655 653.564,-307.203 656.649,-300.919"/>
</g>
<!-- Node14 -->
<g id="node14" class="node"><title>Node14</title>
<g id="a_node14"><a xlink:href="../../db/df5/torcsetting_8h.html" target="_top" xlink:title="torcsetting.h">
<polygon fill="white" stroke="black" points="1089,-280.5 1089,-299.5 1166,-299.5 1166,-280.5 1089,-280.5"/>
<text text-anchor="middle" x="1127.5" y="-287.5" font-family="Helvetica,sans-Serif" font-size="10.00">torcsetting.h</text>
</a>
</g>
</g>
<!-- Node8&#45;&gt;Node14 -->
<g id="edge13" class="edge"><title>Node8&#45;&gt;Node14</title>
<path fill="none" stroke="midnightblue" d="M789.755,-337.885C865.123,-327.422 1004.88,-308.021 1078.78,-297.763"/>
<polygon fill="midnightblue" stroke="midnightblue" points="1079.33,-301.22 1088.75,-296.378 1078.37,-294.287 1079.33,-301.22"/>
</g>
<!-- Node31 -->
<g id="node31" class="node"><title>Node31</title>
<g id="a_node31"><a xlink:href="../../d6/d94/torcobservable_8h.html" target="_top" xlink:title="torcobservable.h">
<polygon fill="white" stroke="black" points="690,-280.5 690,-299.5 787,-299.5 787,-280.5 690,-280.5"/>
<text text-anchor="middle" x="738.5" y="-287.5" font-family="Helvetica,sans-Serif" font-size="10.00">torcobservable.h</text>
</a>
</g>
</g>
<!-- Node8&#45;&gt;Node31 -->
<g id="edge38" class="edge"><title>Node8&#45;&gt;Node31</title>
<path fill="none" stroke="midnightblue" d="M738.5,-336.083C738.5,-329.006 738.5,-318.861 738.5,-309.986"/>
<polygon fill="midnightblue" stroke="midnightblue" points="742,-309.751 738.5,-299.751 735,-309.751 742,-309.751"/>
</g>
<!-- Node34 -->
<g id="node34" class="node"><title>Node34</title>
<g id="a_node34"><a xlink:href="../../d7/d70/torcsqlitedb_8h.html" target="_top" xlink:title="torcsqlitedb.h">
<polygon fill="white" stroke="black" points="843.5,-280.5 843.5,-299.5 925.5,-299.5 925.5,-280.5 843.5,-280.5"/>
<text text-anchor="middle" x="884.5" y="-287.5" font-family="Helvetica,sans-Serif" font-size="10.00">torcsqlitedb.h</text>
</a>
</g>
</g>
<!-- Node8&#45;&gt;Node34 -->
<g id="edge43" class="edge"><title>Node8&#45;&gt;Node34</title>
<path fill="none" stroke="midnightblue" d="M761.634,-336.444C785.982,-327.438 824.507,-313.189 851.923,-303.049"/>
<polygon fill="midnightblue" stroke="midnightblue" points="853.309,-306.268 861.474,-299.516 850.881,-299.703 853.309,-306.268"/>
</g>
<!-- Node36 -->
<g id="node36" class="node"><title>Node36</title>
<g id="a_node36"><a xlink:href="../../dd/dd5/torcadminthread_8h.html" target="_top" xlink:title="torcadminthread.h">
<polygon fill="white" stroke="black" points="461.5,-280.5 461.5,-299.5 567.5,-299.5 567.5,-280.5 461.5,-280.5"/>
<text text-anchor="middle" x="514.5" y="-287.5" font-family="Helvetica,sans-Serif" font-size="10.00">torcadminthread.h</text>
</a>
</g>
</g>
<!-- Node8&#45;&gt;Node36 -->
<g id="edge47" class="edge"><title>Node8&#45;&gt;Node36</title>
<path fill="none" stroke="midnightblue" d="M703.007,-336.444C664.176,-327.083 601.844,-312.056 559.582,-301.868"/>
<polygon fill="midnightblue" stroke="midnightblue" points="560.369,-298.458 549.827,-299.516 558.729,-305.263 560.369,-298.458"/>
</g>
<!-- Node40 -->
<g id="node40" class="node"><title>Node40</title>
<g id="a_node40"><a xlink:href="../../db/d41/torccommandline_8h.html" target="_top" xlink:title="torccommandline.h">
<polygon fill="white" stroke="black" points="333.5,-280.5 333.5,-299.5 443.5,-299.5 443.5,-280.5 333.5,-280.5"/>
<text text-anchor="middle" x="388.5" y="-287.5" font-family="Helvetica,sans-Serif" font-size="10.00">torccommandline.h</text>
</a>
</g>
</g>
<!-- Node8&#45;&gt;Node40 -->
<g id="edge51" class="edge"><title>Node8&#45;&gt;Node40</title>
<path fill="none" stroke="midnightblue" d="M687.232,-337.09C625.375,-327.546 521.292,-311.488 453.761,-301.069"/>
<polygon fill="midnightblue" stroke="midnightblue" points="454.078,-297.576 443.661,-299.511 453.01,-304.495 454.078,-297.576"/>
</g>
<!-- Node14&#45;&gt;Node9 -->
<g id="edge16" class="edge"><title>Node14&#45;&gt;Node9</title>
<path fill="none" stroke="midnightblue" d="M1105.06,-280.368C1054.52,-260.93 931.654,-213.674 873.292,-191.228"/>
<polygon fill="midnightblue" stroke="midnightblue" points="874.428,-187.915 863.838,-187.591 871.915,-194.448 874.428,-187.915"/>
</g>
<!-- Node14&#45;&gt;Node11 -->
<g id="edge15" class="edge"><title>Node14&#45;&gt;Node11</title>
<path fill="none" stroke="midnightblue" d="M1164.26,-280.444C1204.56,-271.063 1269.31,-255.993 1313.08,-245.804"/>
<polygon fill="midnightblue" stroke="midnightblue" points="1313.96,-249.192 1322.91,-243.516 1312.38,-242.375 1313.96,-249.192"/>
</g>
<!-- Node15 -->
<g id="node15" class="node"><title>Node15</title>
<polygon fill="white" stroke="#bfbfbf" points="1107,-224.5 1107,-243.5 1148,-243.5 1148,-224.5 1107,-224.5"/>
<text text-anchor="middle" x="1127.5" y="-231.5" font-family="Helvetica,sans-Serif" font-size="10.00">QSet</text>
</g>
<!-- Node14&#45;&gt;Node15 -->
<g id="edge14" class="edge"><title>Node14&#45;&gt;Node15</title>
<path fill="none" stroke="midnightblue" d="M1127.5,-280.083C1127.5,-273.006 1127.5,-262.861 1127.5,-253.986"/>
<polygon fill="midnightblue" stroke="midnightblue" points="1131,-253.751 1127.5,-243.751 1124,-253.751 1131,-253.751"/>
</g>
<!-- Node16 -->
<g id="node16" class="node"><title>Node16</title>
<polygon fill="white" stroke="#bfbfbf" points="603.5,-168.5 603.5,-187.5 661.5,-187.5 661.5,-168.5 603.5,-168.5"/>
<text text-anchor="middle" x="632.5" y="-175.5" font-family="Helvetica,sans-Serif" font-size="10.00">QVariant</text>
</g>
<!-- Node14&#45;&gt;Node16 -->
<g id="edge17" class="edge"><title>Node14&#45;&gt;Node16</title>
<path fill="none" stroke="midnightblue" d="M1089,-286.438C979.582,-279.009 673.585,-257.155 656.5,-244 642.373,-233.122 636.559,-213.051 634.168,-198.079"/>
<polygon fill="midnightblue" stroke="midnightblue" points="637.607,-197.365 632.925,-187.86 630.658,-198.209 637.607,-197.365"/>
</g>
<!-- Node17 -->
<g id="node17" class="node"><title>Node17</title>
<polygon fill="white" stroke="#bfbfbf" points="1020,-224.5 1020,-243.5 1089,-243.5 1089,-224.5 1020,-224.5"/>
<text text-anchor="middle" x="1054.5" y="-231.5" font-family="Helvetica,sans-Serif" font-size="10.00">QStringList</text>
</g>
<!-- Node14&#45;&gt;Node17 -->
<g id="edge18" class="edge"><title>Node14&#45;&gt;Node17</title>
<path fill="none" stroke="midnightblue" d="M1115.77,-280.324C1104.66,-272.107 1087.76,-259.602 1074.52,-249.807"/>
<polygon fill="midnightblue" stroke="midnightblue" points="1076.56,-246.967 1066.44,-243.834 1072.4,-252.595 1076.56,-246.967"/>
</g>
<!-- Node18 -->
<g id="node18" class="node"><title>Node18</title>
<g id="a_node18"><a xlink:href="../../d3/dee/torchttpservice_8h.html" target="_top" xlink:title="torchttpservice.h">
<polygon fill="white" stroke="black" points="1423.5,-224.5 1423.5,-243.5 1521.5,-243.5 1521.5,-224.5 1423.5,-224.5"/>
<text text-anchor="middle" x="1472.5" y="-231.5" font-family="Helvetica,sans-Serif" font-size="10.00">torchttpservice.h</text>
</a>
</g>
</g>
<!-- Node14&#45;&gt;Node18 -->
<g id="edge19" class="edge"><title>Node14&#45;&gt;Node18</title>
<path fill="none" stroke="midnightblue" d="M1166.07,-282.963C1226.15,-273.559 1342.52,-255.345 1413.29,-244.268"/>
<polygon fill="midnightblue" stroke="midnightblue" points="1414.05,-247.692 1423.38,-242.688 1412.96,-240.776 1414.05,-247.692"/>
</g>
<!-- Node29 -->
<g id="node29" class="node"><title>Node29</title>
<g id="a_node29"><a xlink:href="../../d8/dfe/torcreferencecounted_8h.html" target="_top" xlink:title="torcreferencecounted.h">
<polygon fill="white" stroke="black" points="1166,-224.5 1166,-243.5 1295,-243.5 1295,-224.5 1166,-224.5"/>
<text text-anchor="middle" x="1230.5" y="-231.5" font-family="Helvetica,sans-Serif" font-size="10.00">torcreferencecounted.h</text>
</a>
</g>
</g>
<!-- Node14&#45;&gt;Node29 -->
<g id="edge36" class="edge"><title>Node14&#45;&gt;Node29</title>
<path fill="none" stroke="midnightblue" d="M1144.05,-280.324C1160.49,-271.703 1185.93,-258.364 1204.97,-248.386"/>
<polygon fill="midnightblue" stroke="midnightblue" points="1206.76,-251.398 1213.99,-243.655 1203.51,-245.198 1206.76,-251.398"/>
</g>
<!-- Node18&#45;&gt;Node3 -->
<g id="edge23" class="edge"><title>Node18&#45;&gt;Node3</title>
<path fill="none" stroke="midnightblue" d="M1484.87,-224.324C1496.66,-216.058 1514.63,-203.453 1528.64,-193.632"/>
<polygon fill="midnightblue" stroke="midnightblue" points="1530.98,-196.262 1537.16,-187.655 1526.96,-190.531 1530.98,-196.262"/>
</g>
<!-- Node18&#45;&gt;Node12 -->
<g id="edge21" class="edge"><title>Node18&#45;&gt;Node12</title>
<path fill="none" stroke="midnightblue" d="M1423.48,-225.194C1420.44,-224.772 1417.43,-224.37 1414.5,-224 1257.15,-204.129 1068.63,-188.167 990.361,-181.885"/>
<polygon fill="midnightblue" stroke="midnightblue" points="990.31,-178.369 980.063,-181.063 989.753,-185.347 990.31,-178.369"/>
</g>
<!-- Node19 -->
<g id="node19" class="node"><title>Node19</title>
<polygon fill="white" stroke="#bfbfbf" points="1411.5,-56.5 1411.5,-75.5 1455.5,-75.5 1455.5,-56.5 1411.5,-56.5"/>
<text text-anchor="middle" x="1433.5" y="-63.5" font-family="Helvetica,sans-Serif" font-size="10.00">QMap</text>
</g>
<!-- Node18&#45;&gt;Node19 -->
<g id="edge20" class="edge"><title>Node18&#45;&gt;Node19</title>
<path fill="none" stroke="midnightblue" d="M1470.4,-224.075C1464.26,-197.945 1446.24,-121.211 1437.86,-85.577"/>
<polygon fill="midnightblue" stroke="midnightblue" points="1441.21,-84.5025 1435.51,-75.5681 1434.39,-86.1036 1441.21,-84.5025"/>
</g>
<!-- Node20 -->
<g id="node20" class="node"><title>Node20</title>
<polygon fill="white" stroke="#bfbfbf" points="1209,-168.5 1209,-187.5 1288,-187.5 1288,-168.5 1209,-168.5"/>
<text text-anchor="middle" x="1248.5" y="-175.5" font-family="Helvetica,sans-Serif" font-size="10.00">QMetaObject</text>
</g>
<!-- Node18&#45;&gt;Node20 -->
<g id="edge22" class="edge"><title>Node18&#45;&gt;Node20</title>
<path fill="none" stroke="midnightblue" d="M1437.01,-224.444C1398.18,-215.083 1335.84,-200.056 1293.58,-189.868"/>
<polygon fill="midnightblue" stroke="midnightblue" points="1294.37,-186.458 1283.83,-187.516 1292.73,-193.263 1294.37,-186.458"/>
</g>
<!-- Node21 -->
<g id="node21" class="node"><title>Node21</title>
<g id="a_node21"><a xlink:href="../../d4/d11/torchttphandler_8h.html" target="_top" xlink:title="torchttphandler.h">
<polygon fill="white" stroke="black" points="1306,-168.5 1306,-187.5 1405,-187.5 1405,-168.5 1306,-168.5"/>
<text text-anchor="middle" x="1355.5" y="-175.5" font-family="Helvetica,sans-Serif" font-size="10.00">torchttphandler.h</text>
</a>
</g>
</g>
<!-- Node18&#45;&gt;Node21 -->
<g id="edge24" class="edge"><title>Node18&#45;&gt;Node21</title>
<path fill="none" stroke="midnightblue" d="M1453.96,-224.444C1434.88,-215.636 1404.93,-201.812 1383.06,-191.722"/>
<polygon fill="midnightblue" stroke="midnightblue" points="1384.5,-188.529 1373.95,-187.516 1381.57,-194.885 1384.5,-188.529"/>
</g>
<!-- Node23 -->
<g id="node23" class="node"><title>Node23</title>
<g id="a_node23"><a xlink:href="../../df/dd7/torchttprequest_8h.html" target="_top" xlink:title="torchttprequest.h">
<polygon fill="white" stroke="black" points="1462,-112.5 1462,-131.5 1563,-131.5 1563,-112.5 1462,-112.5"/>
<text text-anchor="middle" x="1512.5" y="-119.5" font-family="Helvetica,sans-Serif" font-size="10.00">torchttprequest.h</text>
</a>
</g>
</g>
<!-- Node18&#45;&gt;Node23 -->
<g id="edge35" class="edge"><title>Node18&#45;&gt;Node23</title>
<path fill="none" stroke="midnightblue" d="M1474.56,-224.451C1477.67,-211.893 1484.03,-187.802 1491.5,-168 1494.92,-158.924 1499.39,-149.135 1503.33,-141.012"/>
<polygon fill="midnightblue" stroke="midnightblue" points="1506.59,-142.306 1507.91,-131.793 1500.32,-139.191 1506.59,-142.306"/>
</g>
<!-- Node21&#45;&gt;Node10 -->
<g id="edge25" class="edge"><title>Node21&#45;&gt;Node10</title>
<path fill="none" stroke="midnightblue" d="M1305.92,-168.956C1175.96,-147.872 827.668,-91.3635 713.959,-72.9151"/>
<polygon fill="midnightblue" stroke="midnightblue" points="714.44,-69.4476 704.009,-71.3008 713.319,-76.3572 714.44,-69.4476"/>
</g>
<!-- Node22 -->
<g id="node22" class="node"><title>Node22</title>
<polygon fill="white" stroke="#bfbfbf" points="1316.5,-112.5 1316.5,-131.5 1394.5,-131.5 1394.5,-112.5 1316.5,-112.5"/>
<text text-anchor="middle" x="1355.5" y="-119.5" font-family="Helvetica,sans-Serif" font-size="10.00">QVariantMap</text>
</g>
<!-- Node21&#45;&gt;Node22 -->
<g id="edge26" class="edge"><title>Node21&#45;&gt;Node22</title>
<path fill="none" stroke="midnightblue" d="M1355.5,-168.083C1355.5,-161.006 1355.5,-150.861 1355.5,-141.986"/>
<polygon fill="midnightblue" stroke="midnightblue" points="1359,-141.751 1355.5,-131.751 1352,-141.751 1359,-141.751"/>
</g>
<!-- Node21&#45;&gt;Node23 -->
<g id="edge27" class="edge"><title>Node21&#45;&gt;Node23</title>
<path fill="none" stroke="midnightblue" d="M1380.38,-168.444C1406.79,-159.359 1448.72,-144.939 1478.24,-134.783"/>
<polygon fill="midnightblue" stroke="midnightblue" points="1479.42,-138.079 1487.74,-131.516 1477.14,-131.459 1479.42,-138.079"/>
</g>
<!-- Node23&#45;&gt;Node10 -->
<g id="edge30" class="edge"><title>Node23&#45;&gt;Node10</title>
<path fill="none" stroke="midnightblue" d="M1461.77,-116.595C1443.42,-115.058 1422.53,-113.376 1403.5,-112 1139.56,-92.9252 821.266,-74.9261 714.458,-69.0227"/>
<polygon fill="midnightblue" stroke="midnightblue" points="714.39,-65.5137 704.212,-68.4577 714.005,-72.5031 714.39,-65.5137"/>
</g>
<!-- Node23&#45;&gt;Node19 -->
<g id="edge28" class="edge"><title>Node23&#45;&gt;Node19</title>
<path fill="none" stroke="midnightblue" d="M1499.81,-112.324C1487.6,-103.979 1468.92,-91.2122 1454.5,-81.3524"/>
<polygon fill="midnightblue" stroke="midnightblue" points="1456.39,-78.4082 1446.16,-75.6545 1452.44,-84.1871 1456.39,-78.4082"/>
</g>
<!-- Node24 -->
<g id="node24" class="node"><title>Node24</title>
<polygon fill="white" stroke="#bfbfbf" points="1474,-56.5 1474,-75.5 1515,-75.5 1515,-56.5 1474,-56.5"/>
<text text-anchor="middle" x="1494.5" y="-63.5" font-family="Helvetica,sans-Serif" font-size="10.00">QPair</text>
</g>
<!-- Node23&#45;&gt;Node24 -->
<g id="edge29" class="edge"><title>Node23&#45;&gt;Node24</title>
<path fill="none" stroke="midnightblue" d="M1509.53,-112.083C1507.12,-104.849 1503.64,-94.4087 1500.63,-85.3968"/>
<polygon fill="midnightblue" stroke="midnightblue" points="1503.9,-84.1311 1497.42,-75.7511 1497.26,-86.3447 1503.9,-84.1311"/>
</g>
<!-- Node25 -->
<g id="node25" class="node"><title>Node25</title>
<polygon fill="white" stroke="#bfbfbf" points="1533,-56.5 1533,-75.5 1604,-75.5 1604,-56.5 1533,-56.5"/>
<text text-anchor="middle" x="1568.5" y="-63.5" font-family="Helvetica,sans-Serif" font-size="10.00">QDateTime</text>
</g>
<!-- Node23&#45;&gt;Node25 -->
<g id="edge31" class="edge"><title>Node23&#45;&gt;Node25</title>
<path fill="none" stroke="midnightblue" d="M1521.5,-112.324C1529.69,-104.42 1542.01,-92.5482 1551.97,-82.9377"/>
<polygon fill="midnightblue" stroke="midnightblue" points="1554.57,-85.2947 1559.34,-75.8339 1549.71,-80.2558 1554.57,-85.2947"/>
</g>
<!-- Node26 -->
<g id="node26" class="node"><title>Node26</title>
<g id="a_node26"><a xlink:href="../../de/de6/torchttpreader_8h.html" target="_top" xlink:title="torchttpreader.h">
<polygon fill="white" stroke="black" points="1622,-56.5 1622,-75.5 1717,-75.5 1717,-56.5 1622,-56.5"/>
<text text-anchor="middle" x="1669.5" y="-63.5" font-family="Helvetica,sans-Serif" font-size="10.00">torchttpreader.h</text>
</a>
</g>
</g>
<!-- Node23&#45;&gt;Node26 -->
<g id="edge32" class="edge"><title>Node23&#45;&gt;Node26</title>
<path fill="none" stroke="midnightblue" d="M1537.38,-112.444C1563.79,-103.359 1605.72,-88.9388 1635.24,-78.7831"/>
<polygon fill="midnightblue" stroke="midnightblue" points="1636.42,-82.0787 1644.74,-75.5164 1634.14,-75.4593 1636.42,-82.0787"/>
</g>
<!-- Node27 -->
<g id="node27" class="node"><title>Node27</title>
<polygon fill="white" stroke="#bfbfbf" points="1589,-0.5 1589,-19.5 1660,-19.5 1660,-0.5 1589,-0.5"/>
<text text-anchor="middle" x="1624.5" y="-7.5" font-family="Helvetica,sans-Serif" font-size="10.00">QByteArray</text>
</g>
<!-- Node26&#45;&gt;Node27 -->
<g id="edge33" class="edge"><title>Node26&#45;&gt;Node27</title>
<path fill="none" stroke="midnightblue" d="M1662.07,-56.083C1655.65,-48.3768 1646.19,-37.0333 1638.38,-27.6531"/>
<polygon fill="midnightblue" stroke="midnightblue" points="1640.88,-25.1927 1631.79,-19.7511 1635.51,-29.674 1640.88,-25.1927"/>
</g>
<!-- Node28 -->
<g id="node28" class="node"><title>Node28</title>
<polygon fill="white" stroke="#bfbfbf" points="1678.5,-0.5 1678.5,-19.5 1750.5,-19.5 1750.5,-0.5 1678.5,-0.5"/>
<text text-anchor="middle" x="1714.5" y="-7.5" font-family="Helvetica,sans-Serif" font-size="10.00">QTcpSocket</text>
</g>
<!-- Node26&#45;&gt;Node28 -->
<g id="edge34" class="edge"><title>Node26&#45;&gt;Node28</title>
<path fill="none" stroke="midnightblue" d="M1676.93,-56.083C1683.35,-48.3768 1692.81,-37.0333 1700.62,-27.6531"/>
<polygon fill="midnightblue" stroke="midnightblue" points="1703.49,-29.674 1707.21,-19.7511 1698.12,-25.1927 1703.49,-29.674"/>
</g>
<!-- Node30 -->
<g id="node30" class="node"><title>Node30</title>
<polygon fill="white" stroke="#bfbfbf" points="1120.5,-168.5 1120.5,-187.5 1190.5,-187.5 1190.5,-168.5 1120.5,-168.5"/>
<text text-anchor="middle" x="1155.5" y="-175.5" font-family="Helvetica,sans-Serif" font-size="10.00">QAtomicInt</text>
</g>
<!-- Node29&#45;&gt;Node30 -->
<g id="edge37" class="edge"><title>Node29&#45;&gt;Node30</title>
<path fill="none" stroke="midnightblue" d="M1218.45,-224.324C1207.04,-216.107 1189.67,-203.602 1176.07,-193.807"/>
<polygon fill="midnightblue" stroke="midnightblue" points="1177.93,-190.837 1167.77,-187.834 1173.84,-196.517 1177.93,-190.837"/>
</g>
<!-- Node32 -->
<g id="node32" class="node"><title>Node32</title>
<g id="a_node32"><a xlink:href="../../d3/d66/torcevent_8h.html" target="_top" xlink:title="torcevent.h">
<polygon fill="white" stroke="black" points="666,-224.5 666,-243.5 737,-243.5 737,-224.5 666,-224.5"/>
<text text-anchor="middle" x="701.5" y="-231.5" font-family="Helvetica,sans-Serif" font-size="10.00">torcevent.h</text>
</a>
</g>
</g>
<!-- Node31&#45;&gt;Node32 -->
<g id="edge39" class="edge"><title>Node31&#45;&gt;Node32</title>
<path fill="none" stroke="midnightblue" d="M732.39,-280.083C727.218,-272.534 719.654,-261.495 713.306,-252.23"/>
<polygon fill="midnightblue" stroke="midnightblue" points="716.036,-250.022 707.496,-243.751 710.261,-253.979 716.036,-250.022"/>
</g>
<!-- Node32&#45;&gt;Node16 -->
<g id="edge41" class="edge"><title>Node32&#45;&gt;Node16</title>
<path fill="none" stroke="midnightblue" d="M690.414,-224.324C680.014,-216.185 664.239,-203.839 651.778,-194.087"/>
<polygon fill="midnightblue" stroke="midnightblue" points="653.82,-191.241 643.788,-187.834 649.506,-196.753 653.82,-191.241"/>
</g>
<!-- Node32&#45;&gt;Node19 -->
<g id="edge40" class="edge"><title>Node32&#45;&gt;Node19</title>
<path fill="none" stroke="midnightblue" d="M711.852,-224.424C729.6,-210.213 767.509,-181.969 804.5,-168 1021.94,-85.8865 1306.26,-70.5254 1401.12,-67.657"/>
<polygon fill="midnightblue" stroke="midnightblue" points="1401.33,-71.1526 1411.23,-67.3779 1401.14,-64.1553 1401.33,-71.1526"/>
</g>
<!-- Node33 -->
<g id="node33" class="node"><title>Node33</title>
<polygon fill="white" stroke="#bfbfbf" points="680,-168.5 680,-187.5 731,-187.5 731,-168.5 680,-168.5"/>
<text text-anchor="middle" x="705.5" y="-175.5" font-family="Helvetica,sans-Serif" font-size="10.00">QEvent</text>
</g>
<!-- Node32&#45;&gt;Node33 -->
<g id="edge42" class="edge"><title>Node32&#45;&gt;Node33</title>
<path fill="none" stroke="midnightblue" d="M702.161,-224.083C702.685,-217.006 703.436,-206.861 704.094,-197.986"/>
<polygon fill="midnightblue" stroke="midnightblue" points="707.603,-197.982 704.852,-187.751 700.623,-197.465 707.603,-197.982"/>
</g>
<!-- Node35 -->
<g id="node35" class="node"><title>Node35</title>
<g id="a_node35"><a xlink:href="../../d4/da3/torcdb_8h.html" target="_top" xlink:title="torcdb.h">
<polygon fill="white" stroke="black" points="869.5,-224.5 869.5,-243.5 925.5,-243.5 925.5,-224.5 869.5,-224.5"/>
<text text-anchor="middle" x="897.5" y="-231.5" font-family="Helvetica,sans-Serif" font-size="10.00">torcdb.h</text>
</a>
</g>
</g>
<!-- Node34&#45;&gt;Node35 -->
<g id="edge44" class="edge"><title>Node34&#45;&gt;Node35</title>
<path fill="none" stroke="midnightblue" d="M886.647,-280.083C888.369,-272.927 890.847,-262.635 893,-253.691"/>
<polygon fill="midnightblue" stroke="midnightblue" points="896.455,-254.293 895.393,-243.751 889.65,-252.654 896.455,-254.293"/>
</g>
<!-- Node35&#45;&gt;Node9 -->
<g id="edge45" class="edge"><title>Node35&#45;&gt;Node9</title>
<path fill="none" stroke="midnightblue" d="M888.503,-224.324C880.306,-216.42 867.994,-204.548 858.028,-194.938"/>
<polygon fill="midnightblue" stroke="midnightblue" points="860.289,-192.256 850.661,-187.834 855.43,-197.295 860.289,-192.256"/>
</g>
<!-- Node35&#45;&gt;Node12 -->
<g id="edge46" class="edge"><title>Node35&#45;&gt;Node12</title>
<path fill="none" stroke="midnightblue" d="M906.497,-224.324C914.694,-216.42 927.006,-204.548 936.972,-194.938"/>
<polygon fill="midnightblue" stroke="midnightblue" points="939.57,-197.295 944.339,-187.834 934.711,-192.256 939.57,-197.295"/>
</g>
<!-- Node37 -->
<g id="node37" class="node"><title>Node37</title>
<polygon fill="white" stroke="#bfbfbf" points="568,-224.5 568,-243.5 609,-243.5 609,-224.5 568,-224.5"/>
<text text-anchor="middle" x="588.5" y="-231.5" font-family="Helvetica,sans-Serif" font-size="10.00">QList</text>
</g>
<!-- Node36&#45;&gt;Node37 -->
<g id="edge48" class="edge"><title>Node36&#45;&gt;Node37</title>
<path fill="none" stroke="midnightblue" d="M526.389,-280.324C537.65,-272.107 554.787,-259.602 568.209,-249.807"/>
<polygon fill="midnightblue" stroke="midnightblue" points="570.38,-252.556 576.394,-243.834 566.253,-246.901 570.38,-252.556"/>
</g>
<!-- Node38 -->
<g id="node38" class="node"><title>Node38</title>
<g id="a_node38"><a xlink:href="../../dd/db0/torcqthread_8h.html" target="_top" xlink:title="torcqthread.h">
<polygon fill="white" stroke="black" points="467.5,-224.5 467.5,-243.5 549.5,-243.5 549.5,-224.5 467.5,-224.5"/>
<text text-anchor="middle" x="508.5" y="-231.5" font-family="Helvetica,sans-Serif" font-size="10.00">torcqthread.h</text>
</a>
</g>
</g>
<!-- Node36&#45;&gt;Node38 -->
<g id="edge49" class="edge"><title>Node36&#45;&gt;Node38</title>
<path fill="none" stroke="midnightblue" d="M513.509,-280.083C512.714,-272.927 511.571,-262.635 510.577,-253.691"/>
<polygon fill="midnightblue" stroke="midnightblue" points="514.055,-253.303 509.472,-243.751 507.098,-254.076 514.055,-253.303"/>
</g>
<!-- Node39 -->
<g id="node39" class="node"><title>Node39</title>
<polygon fill="white" stroke="#bfbfbf" points="480,-168.5 480,-187.5 537,-187.5 537,-168.5 480,-168.5"/>
<text text-anchor="middle" x="508.5" y="-175.5" font-family="Helvetica,sans-Serif" font-size="10.00">QThread</text>
</g>
<!-- Node38&#45;&gt;Node39 -->
<g id="edge50" class="edge"><title>Node38&#45;&gt;Node39</title>
<path fill="none" stroke="midnightblue" d="M508.5,-224.083C508.5,-217.006 508.5,-206.861 508.5,-197.986"/>
<polygon fill="midnightblue" stroke="midnightblue" points="512,-197.751 508.5,-187.751 505,-197.751 512,-197.751"/>
</g>
<!-- Node40&#45;&gt;Node4 -->
<g id="edge55" class="edge"><title>Node40&#45;&gt;Node4</title>
<path fill="none" stroke="midnightblue" d="M358.552,-280.444C326.342,-271.241 274.966,-256.562 239.358,-246.388"/>
<polygon fill="midnightblue" stroke="midnightblue" points="239.884,-242.898 229.308,-243.516 237.961,-249.629 239.884,-242.898"/>
</g>
<!-- Node40&#45;&gt;Node9 -->
<g id="edge52" class="edge"><title>Node40&#45;&gt;Node9</title>
<path fill="none" stroke="midnightblue" d="M443.65,-281.182C446.643,-280.777 449.608,-280.381 452.5,-280 582.578,-262.864 622.65,-290.061 745.5,-244 775.949,-232.584 806.201,-209.688 824.377,-194.35"/>
<polygon fill="midnightblue" stroke="midnightblue" points="827.008,-196.701 832.278,-187.51 822.426,-191.409 827.008,-196.701"/>
</g>
<!-- Node40&#45;&gt;Node16 -->
<g id="edge53" class="edge"><title>Node40&#45;&gt;Node16</title>
<path fill="none" stroke="midnightblue" d="M395.269,-280.4C406.749,-266.411 431.44,-238.808 458.5,-224 501.225,-200.619 556.537,-189.02 593.203,-183.529"/>
<polygon fill="midnightblue" stroke="midnightblue" points="594.074,-186.94 603.486,-182.075 593.094,-180.009 594.074,-186.94"/>
</g>
<!-- Node41 -->
<g id="node41" class="node"><title>Node41</title>
<polygon fill="white" stroke="#bfbfbf" points="362,-224.5 362,-243.5 411,-243.5 411,-224.5 362,-224.5"/>
<text text-anchor="middle" x="386.5" y="-231.5" font-family="Helvetica,sans-Serif" font-size="10.00">QHash</text>
</g>
<!-- Node40&#45;&gt;Node41 -->
<g id="edge54" class="edge"><title>Node40&#45;&gt;Node41</title>
<path fill="none" stroke="midnightblue" d="M388.17,-280.083C387.908,-273.006 387.532,-262.861 387.203,-253.986"/>
<polygon fill="midnightblue" stroke="midnightblue" points="390.692,-253.615 386.824,-243.751 383.697,-253.874 390.692,-253.615"/>
</g>
<!-- Node42&#45;&gt;Node10 -->
<g id="edge57" class="edge"><title>Node42&#45;&gt;Node10</title>
<path fill="none" stroke="midnightblue" d="M365.741,-336.43C330.69,-321.579 267.5,-287.522 267.5,-235 267.5,-235 267.5,-235 267.5,-177 267.5,-130.842 306.096,-130.233 348.5,-112 400.493,-89.6435 566.263,-75.1096 640.699,-69.55"/>
<polygon fill="midnightblue" stroke="midnightblue" points="641.277,-73.0171 650.994,-68.795 640.765,-66.0358 641.277,-73.0171"/>
</g>
<!-- Node42&#45;&gt;Node40 -->
<g id="edge58" class="edge"><title>Node42&#45;&gt;Node40</title>
<path fill="none" stroke="midnightblue" d="M388.5,-336.083C388.5,-329.006 388.5,-318.861 388.5,-309.986"/>
<polygon fill="midnightblue" stroke="midnightblue" points="392,-309.751 388.5,-299.751 385,-309.751 392,-309.751"/>
</g>
<!-- Node43&#45;&gt;Node9 -->
<g id="edge61" class="edge"><title>Node43&#45;&gt;Node9</title>
<path fill="none" stroke="midnightblue" d="M1230.73,-336.746C1129.05,-317.627 887.359,-269.96 860.5,-244 848.093,-232.008 843.667,-212.402 842.149,-197.854"/>
<polygon fill="midnightblue" stroke="midnightblue" points="845.617,-197.258 841.458,-187.513 838.633,-197.724 845.617,-197.258"/>
</g>
<!-- Node43&#45;&gt;Node11 -->
<g id="edge64" class="edge"><title>Node43&#45;&gt;Node11</title>
<path fill="none" stroke="midnightblue" d="M1271.13,-336.247C1265.21,-323.002 1256.54,-297.555 1267.5,-280 1277.26,-264.364 1294.2,-254.013 1310.9,-247.23"/>
<polygon fill="midnightblue" stroke="midnightblue" points="1312.48,-250.378 1320.65,-243.636 1310.06,-243.81 1312.48,-250.378"/>
</g>
<!-- Node43&#45;&gt;Node14 -->
<g id="edge65" class="edge"><title>Node43&#45;&gt;Node14</title>
<path fill="none" stroke="midnightblue" d="M1252.05,-336.444C1227.37,-327.438 1188.31,-313.189 1160.52,-303.049"/>
<polygon fill="midnightblue" stroke="midnightblue" points="1161.44,-299.656 1150.84,-299.516 1159.04,-306.232 1161.44,-299.656"/>
</g>
<!-- Node43&#45;&gt;Node18 -->
<g id="edge66" class="edge"><title>Node43&#45;&gt;Node18</title>
<path fill="none" stroke="midnightblue" d="M1320.29,-340.254C1353.15,-334.909 1397.44,-323.637 1429.5,-300 1445.8,-287.982 1457.74,-267.798 1464.84,-253.105"/>
<polygon fill="midnightblue" stroke="midnightblue" points="1468.22,-254.126 1469.16,-243.572 1461.85,-251.24 1468.22,-254.126"/>
</g>
<!-- Node43&#45;&gt;Node19 -->
<g id="edge60" class="edge"><title>Node43&#45;&gt;Node19</title>
<path fill="none" stroke="midnightblue" d="M1320.08,-340.543C1414.8,-329.838 1627.5,-298.705 1627.5,-235 1627.5,-235 1627.5,-235 1627.5,-177 1627.5,-139.157 1603.93,-133.08 1572.5,-112 1563.41,-105.904 1503.41,-87.5765 1465.27,-76.2792"/>
<polygon fill="midnightblue" stroke="midnightblue" points="1466.2,-72.9052 1455.62,-73.4327 1464.22,-79.6191 1466.2,-72.9052"/>
</g>
<!-- Node44 -->
<g id="node44" class="node"><title>Node44</title>
<polygon fill="white" stroke="#bfbfbf" points="1276,-280.5 1276,-299.5 1331,-299.5 1331,-280.5 1276,-280.5"/>
<text text-anchor="middle" x="1303.5" y="-287.5" font-family="Helvetica,sans-Serif" font-size="10.00">QLocale</text>
</g>
<!-- Node43&#45;&gt;Node44 -->
<g id="edge62" class="edge"><title>Node43&#45;&gt;Node44</title>
<path fill="none" stroke="midnightblue" d="M1280.12,-336.083C1283.96,-328.691 1289.52,-317.953 1294.26,-308.811"/>
<polygon fill="midnightblue" stroke="midnightblue" points="1297.47,-310.24 1298.96,-299.751 1291.25,-307.018 1297.47,-310.24"/>
</g>
<!-- Node45 -->
<g id="node45" class="node"><title>Node45</title>
<polygon fill="white" stroke="#bfbfbf" points="1349,-280.5 1349,-299.5 1420,-299.5 1420,-280.5 1349,-280.5"/>
<text text-anchor="middle" x="1384.5" y="-287.5" font-family="Helvetica,sans-Serif" font-size="10.00">QTranslator</text>
</g>
<!-- Node43&#45;&gt;Node45 -->
<g id="edge63" class="edge"><title>Node43&#45;&gt;Node45</title>
<path fill="none" stroke="midnightblue" d="M1293.01,-336.324C1310.57,-327.625 1337.83,-314.12 1358.03,-304.113"/>
<polygon fill="midnightblue" stroke="midnightblue" points="1359.62,-307.23 1367.03,-299.655 1356.52,-300.958 1359.62,-307.23"/>
</g>
</g>
</svg>
        <g id="navigator" transform="translate(0 0)" fill="#404254">
                <rect fill="#f2f5e9" fill-opacity="0.5" stroke="#606060" stroke-width=".5" x="0" y="0" width="60" height="60"/>
                <use id="zoomplus" xlink:href="#zoomPlus" x="17" y="9" onmousedown="handleZoom(evt,'in')"/>
                <use id="zoomminus" xlink:href="#zoomMin" x="42" y="9" onmousedown="handleZoom(evt,'out')"/>
                <use id="reset" xlink:href="#resetDef" x="30" y="36" onmousedown="handleReset()"/>
                <g id="arrowUp" xlink:href="#dirArrow" transform="translate(30 24)" onmousedown="handlePan(0,-1)">
                  <use xlink:href="#rim" fill="#404040">
                        <set attributeName="fill" to="#808080" begin="arrowUp.mouseover" end="arrowUp.mouseout"/>
                  </use>
                  <path fill="none" stroke="white" stroke-width="1.5" d="M0,-3.0v7 M-2.5,-0.5L0,-3.0L2.5,-0.5"/>
                </g>
                <g id="arrowRight" xlink:href="#dirArrow" transform="rotate(90) translate(36 -43)" onmousedown="handlePan(1,0)">
                  <use xlink:href="#rim" fill="#404040">
                        <set attributeName="fill" to="#808080" begin="arrowRight.mouseover" end="arrowRight.mouseout"/>
                  </use>
                  <path fill="none" stroke="white" stroke-width="1.5" d="M0,-3.0v7 M-2.5,-0.5L0,-3.0L2.5,-0.5"/>
                </g>
                <g id="arrowDown" xlink:href="#dirArrow" transform="rotate(180) translate(-30 -48)" onmousedown="handlePan(0,1)">
                  <use xlink:href="#rim" fill="#404040">
                        <set attributeName="fill" to="#808080" begin="arrowDown.mouseover" end="arrowDown.mouseout"/>
                  </use>
                  <path fill="none" stroke="white" stroke-width="1.5" d="M0,-3.0v7 M-2.5,-0.5L0,-3.0L2.5,-0.5"/>
                </g>
                <g id="arrowLeft" xlink:href="#dirArrow" transform="rotate(270) translate(-36 17)" onmousedown="handlePan(-1,0)">
                  <use xlink:href="#rim" fill="#404040">
                        <set attributeName="fill" to="#808080" begin="arrowLeft.mouseover" end="arrowLeft.mouseout"/>
                  </use>
                  <path fill="none" stroke="white" stroke-width="1.5" d="M0,-3.0v7 M-2.5,-0.5L0,-3.0L2.5,-0.5"/>
                </g>
        </g>
        <svg viewBox="0 0 15 15" width="100%" height="30px" preserveAspectRatio="xMaxYMin meet">
         <g id="arrow_out" transform="scale(0.3 0.3)">
          <a xlink:href="torclanguage_8cpp__incl_org.svg" target="_base">
           <rect id="button" ry="5" rx="5" y="6" x="6" height="38" width="38"
                fill="#f2f5e9" fill-opacity="0.5" stroke="#606060" stroke-width="1.0"/>
           <path id="arrow"
             d="M 11.500037,31.436501 C 11.940474,20.09759 22.043105,11.32322 32.158766,21.979434 L 37.068811,17.246167 C 37.068811,17.246167 37.088388,32 37.088388,32 L 22.160133,31.978069 C 22.160133,31.978069 26.997745,27.140456 26.997745,27.140456 C 18.528582,18.264221 13.291696,25.230495 11.500037,31.436501 z"
             style="fill:#404040;"/>
          </a>
         </g>
        </svg>
</svg>
