<?xml version="1.0" encoding="UTF-8" standalone="no"?>
<!DOCTYPE svg PUBLIC "-//W3C//DTD SVG 1.1//EN"
 "http://www.w3.org/Graphics/SVG/1.1/DTD/svg11.dtd">
<!-- Generated by graphviz version 2.38.0 (20140413.2041)
 -->
<!-- Title: torclogiccontrol.h Pages: 1 -->
<svg width="1012pt" height="364pt"
 viewBox="0.00 0.00 1011.50 364.00" xmlns="http://www.w3.org/2000/svg" xmlns:xlink="http://www.w3.org/1999/xlink">
<g id="graph0" class="graph" transform="scale(1 1) rotate(0) translate(4 360)">
<title>torclogiccontrol.h</title>
<polygon fill="white" stroke="none" points="-4,4 -4,-360 1007.5,-360 1007.5,4 -4,4"/>
<!-- Node1 -->
<g id="node1" class="node"><title>Node1</title>
<polygon fill="#bfbfbf" stroke="black" points="305.5,-336.5 305.5,-355.5 404.5,-355.5 404.5,-336.5 305.5,-336.5"/>
<text text-anchor="middle" x="355" y="-343.5" font-family="Helvetica,sans-Serif" font-size="10.00">torclogiccontrol.h</text>
</g>
<!-- Node2 -->
<g id="node2" class="node"><title>Node2</title>
<g id="a_node2"><a xlink:href="../../d2/d60/torcmaths_8h.html" target="_top" xlink:title="torcmaths.h">
<polygon fill="white" stroke="black" points="222.5,-280.5 222.5,-299.5 297.5,-299.5 297.5,-280.5 222.5,-280.5"/>
<text text-anchor="middle" x="260" y="-287.5" font-family="Helvetica,sans-Serif" font-size="10.00">torcmaths.h</text>
</a>
</g>
</g>
<!-- Node1&#45;&gt;Node2 -->
<g id="edge1" class="edge"><title>Node1&#45;&gt;Node2</title>
<path fill="none" stroke="midnightblue" d="M339.737,-336.324C324.779,-327.822 301.745,-314.729 284.273,-304.797"/>
<polygon fill="midnightblue" stroke="midnightblue" points="285.649,-301.553 275.226,-299.655 282.19,-307.639 285.649,-301.553"/>
</g>
<!-- Node4 -->
<g id="node4" class="node"><title>Node4</title>
<g id="a_node4"><a xlink:href="../../d9/d9a/torccontrol_8h.html" target="_top" xlink:title="torccontrol.h">
<polygon fill="white" stroke="black" points="412.5,-280.5 412.5,-299.5 489.5,-299.5 489.5,-280.5 412.5,-280.5"/>
<text text-anchor="middle" x="451" y="-287.5" font-family="Helvetica,sans-Serif" font-size="10.00">torccontrol.h</text>
</a>
</g>
</g>
<!-- Node1&#45;&gt;Node4 -->
<g id="edge3" class="edge"><title>Node1&#45;&gt;Node4</title>
<path fill="none" stroke="midnightblue" d="M370.424,-336.324C385.54,-327.822 408.815,-314.729 426.471,-304.797"/>
<polygon fill="midnightblue" stroke="midnightblue" points="428.614,-307.608 435.614,-299.655 425.183,-301.507 428.614,-307.608"/>
</g>
<!-- Node3 -->
<g id="node3" class="node"><title>Node3</title>
<polygon fill="white" stroke="#bfbfbf" points="0,-224.5 0,-243.5 56,-243.5 56,-224.5 0,-224.5"/>
<text text-anchor="middle" x="28" y="-231.5" font-family="Helvetica,sans-Serif" font-size="10.00">QQueue</text>
</g>
<!-- Node2&#45;&gt;Node3 -->
<g id="edge2" class="edge"><title>Node2&#45;&gt;Node3</title>
<path fill="none" stroke="midnightblue" d="M223.239,-280.444C180.301,-270.449 109.617,-253.997 66.1086,-243.87"/>
<polygon fill="midnightblue" stroke="midnightblue" points="66.7299,-240.421 56.1968,-241.563 65.143,-247.239 66.7299,-240.421"/>
</g>
<!-- Node5 -->
<g id="node5" class="node"><title>Node5</title>
<polygon fill="white" stroke="#bfbfbf" points="62,-56.5 62,-75.5 106,-75.5 106,-56.5 62,-56.5"/>
<text text-anchor="middle" x="84" y="-63.5" font-family="Helvetica,sans-Serif" font-size="10.00">QMap</text>
</g>
<!-- Node4&#45;&gt;Node5 -->
<g id="edge4" class="edge"><title>Node4&#45;&gt;Node5</title>
<path fill="none" stroke="midnightblue" d="M412.421,-285.324C349.897,-277.547 225.44,-254.298 146,-188 122.114,-168.066 118.118,-159.724 104,-132 96.4658,-117.204 91.1739,-99.0502 87.9343,-85.6916"/>
<polygon fill="midnightblue" stroke="midnightblue" points="91.3118,-84.7588 85.6916,-75.7775 84.4843,-86.3033 91.3118,-84.7588"/>
</g>
<!-- Node6 -->
<g id="node6" class="node"><title>Node6</title>
<polygon fill="white" stroke="#bfbfbf" points="558.5,-168.5 558.5,-187.5 613.5,-187.5 613.5,-168.5 558.5,-168.5"/>
<text text-anchor="middle" x="586" y="-175.5" font-family="Helvetica,sans-Serif" font-size="10.00">QObject</text>
</g>
<!-- Node4&#45;&gt;Node6 -->
<g id="edge5" class="edge"><title>Node4&#45;&gt;Node6</title>
<path fill="none" stroke="midnightblue" d="M461.593,-280.368C484.464,-261.733 538.71,-217.532 567.427,-194.134"/>
<polygon fill="midnightblue" stroke="midnightblue" points="569.914,-196.622 575.456,-187.591 565.493,-191.195 569.914,-196.622"/>
</g>
<!-- Node7 -->
<g id="node7" class="node"><title>Node7</title>
<polygon fill="white" stroke="#bfbfbf" points="721.5,-224.5 721.5,-243.5 790.5,-243.5 790.5,-224.5 721.5,-224.5"/>
<text text-anchor="middle" x="756" y="-231.5" font-family="Helvetica,sans-Serif" font-size="10.00">QStringList</text>
</g>
<!-- Node4&#45;&gt;Node7 -->
<g id="edge6" class="edge"><title>Node4&#45;&gt;Node7</title>
<path fill="none" stroke="midnightblue" d="M489.541,-282.739C538.634,-274.679 626.334,-259.999 711.589,-244.028"/>
<polygon fill="midnightblue" stroke="midnightblue" points="712.252,-247.465 721.433,-242.176 710.958,-240.585 712.252,-247.465"/>
</g>
<!-- Node8 -->
<g id="node8" class="node"><title>Node8</title>
<g id="a_node8"><a xlink:href="../../d3/dee/torchttpservice_8h.html" target="_top" xlink:title="torchttpservice.h">
<polygon fill="white" stroke="black" points="267,-224.5 267,-243.5 365,-243.5 365,-224.5 267,-224.5"/>
<text text-anchor="middle" x="316" y="-231.5" font-family="Helvetica,sans-Serif" font-size="10.00">torchttpservice.h</text>
</a>
</g>
</g>
<!-- Node4&#45;&gt;Node8 -->
<g id="edge7" class="edge"><title>Node4&#45;&gt;Node8</title>
<path fill="none" stroke="midnightblue" d="M429.609,-280.444C407.293,-271.517 372.097,-257.439 346.792,-247.317"/>
<polygon fill="midnightblue" stroke="midnightblue" points="347.876,-243.981 337.291,-243.516 345.276,-250.48 347.876,-243.981"/>
</g>
<!-- Node21 -->
<g id="node21" class="node"><title>Node21</title>
<g id="a_node21"><a xlink:href="../../d1/df7/torcdevice_8h.html" target="_top" xlink:title="torcdevice.h">
<polygon fill="white" stroke="black" points="628.5,-224.5 628.5,-243.5 703.5,-243.5 703.5,-224.5 628.5,-224.5"/>
<text text-anchor="middle" x="666" y="-231.5" font-family="Helvetica,sans-Serif" font-size="10.00">torcdevice.h</text>
</a>
</g>
</g>
<!-- Node4&#45;&gt;Node21 -->
<g id="edge24" class="edge"><title>Node4&#45;&gt;Node21</title>
<path fill="none" stroke="midnightblue" d="M485.067,-280.444C522.18,-271.122 581.661,-256.183 622.215,-245.997"/>
<polygon fill="midnightblue" stroke="midnightblue" points="623.246,-249.347 632.092,-243.516 621.541,-242.558 623.246,-249.347"/>
</g>
<!-- Node8&#45;&gt;Node5 -->
<g id="edge8" class="edge"><title>Node8&#45;&gt;Node5</title>
<path fill="none" stroke="midnightblue" d="M266.769,-225.866C236.901,-219.662 199.232,-208.334 171,-188 133.004,-160.634 105.251,-111.489 92.2467,-85.0342"/>
<polygon fill="midnightblue" stroke="midnightblue" points="95.3127,-83.3315 87.8584,-75.8026 88.9906,-86.3368 95.3127,-83.3315"/>
</g>
<!-- Node9 -->
<g id="node9" class="node"><title>Node9</title>
<polygon fill="white" stroke="#bfbfbf" points="598.5,-112.5 598.5,-131.5 651.5,-131.5 651.5,-112.5 598.5,-112.5"/>
<text text-anchor="middle" x="625" y="-119.5" font-family="Helvetica,sans-Serif" font-size="10.00">QMutex</text>
</g>
<!-- Node8&#45;&gt;Node9 -->
<g id="edge9" class="edge"><title>Node8&#45;&gt;Node9</title>
<path fill="none" stroke="midnightblue" d="M315.798,-224.313C315.981,-210.2 318.562,-182.422 335,-168 372.066,-135.479 518.873,-126.41 588.278,-123.921"/>
<polygon fill="midnightblue" stroke="midnightblue" points="588.451,-127.417 598.33,-123.588 588.219,-120.421 588.451,-127.417"/>
</g>
<!-- Node10 -->
<g id="node10" class="node"><title>Node10</title>
<polygon fill="white" stroke="#bfbfbf" points="344.5,-168.5 344.5,-187.5 423.5,-187.5 423.5,-168.5 344.5,-168.5"/>
<text text-anchor="middle" x="384" y="-175.5" font-family="Helvetica,sans-Serif" font-size="10.00">QMetaObject</text>
</g>
<!-- Node8&#45;&gt;Node10 -->
<g id="edge10" class="edge"><title>Node8&#45;&gt;Node10</title>
<path fill="none" stroke="midnightblue" d="M326.925,-224.324C337.175,-216.185 352.721,-203.839 365.001,-194.087"/>
<polygon fill="midnightblue" stroke="midnightblue" points="367.221,-196.794 372.876,-187.834 362.868,-191.312 367.221,-196.794"/>
</g>
<!-- Node11 -->
<g id="node11" class="node"><title>Node11</title>
<polygon fill="white" stroke="#bfbfbf" points="441.5,-168.5 441.5,-187.5 540.5,-187.5 540.5,-168.5 441.5,-168.5"/>
<text text-anchor="middle" x="491" y="-175.5" font-family="Helvetica,sans-Serif" font-size="10.00">QCoreApplication</text>
</g>
<!-- Node8&#45;&gt;Node11 -->
<g id="edge11" class="edge"><title>Node8&#45;&gt;Node11</title>
<path fill="none" stroke="midnightblue" d="M343.729,-224.444C373.426,-215.28 420.716,-200.688 453.669,-190.519"/>
<polygon fill="midnightblue" stroke="midnightblue" points="454.877,-193.809 463.4,-187.516 452.813,-187.121 454.877,-193.809"/>
</g>
<!-- Node12 -->
<g id="node12" class="node"><title>Node12</title>
<g id="a_node12"><a xlink:href="../../d4/d11/torchttphandler_8h.html" target="_top" xlink:title="torchttphandler.h">
<polygon fill="white" stroke="black" points="188.5,-168.5 188.5,-187.5 287.5,-187.5 287.5,-168.5 188.5,-168.5"/>
<text text-anchor="middle" x="238" y="-175.5" font-family="Helvetica,sans-Serif" font-size="10.00">torchttphandler.h</text>
</a>
</g>
</g>
<!-- Node8&#45;&gt;Node12 -->
<g id="edge12" class="edge"><title>Node8&#45;&gt;Node12</title>
<path fill="none" stroke="midnightblue" d="M303.468,-224.324C291.414,-215.979 272.973,-203.212 258.731,-193.352"/>
<polygon fill="midnightblue" stroke="midnightblue" points="260.715,-190.469 250.501,-187.655 256.731,-196.224 260.715,-190.469"/>
</g>
<!-- Node15 -->
<g id="node15" class="node"><title>Node15</title>
<g id="a_node15"><a xlink:href="../../df/dd7/torchttprequest_8h.html" target="_top" xlink:title="torchttprequest.h">
<polygon fill="white" stroke="black" points="159.5,-112.5 159.5,-131.5 260.5,-131.5 260.5,-112.5 159.5,-112.5"/>
<text text-anchor="middle" x="210" y="-119.5" font-family="Helvetica,sans-Serif" font-size="10.00">torchttprequest.h</text>
</a>
</g>
</g>
<!-- Node8&#45;&gt;Node15 -->
<g id="edge23" class="edge"><title>Node8&#45;&gt;Node15</title>
<path fill="none" stroke="midnightblue" d="M266.738,-230.738C236.111,-226.473 198.895,-215.476 179,-188 167.844,-172.594 180.897,-152.542 193.324,-138.807"/>
<polygon fill="midnightblue" stroke="midnightblue" points="195.93,-141.148 200.381,-131.534 190.906,-136.274 195.93,-141.148"/>
</g>
<!-- Node13 -->
<g id="node13" class="node"><title>Node13</title>
<polygon fill="white" stroke="#bfbfbf" points="385.5,-56.5 385.5,-75.5 438.5,-75.5 438.5,-56.5 385.5,-56.5"/>
<text text-anchor="middle" x="412" y="-63.5" font-family="Helvetica,sans-Serif" font-size="10.00">QString</text>
</g>
<!-- Node12&#45;&gt;Node13 -->
<g id="edge13" class="edge"><title>Node12&#45;&gt;Node13</title>
<path fill="none" stroke="midnightblue" d="M245.433,-168.426C257.465,-154.962 282.448,-128.681 308,-112 329.19,-98.1664 355.342,-86.8736 376.12,-79.0607"/>
<polygon fill="midnightblue" stroke="midnightblue" points="377.356,-82.3353 385.546,-75.6143 374.952,-75.7609 377.356,-82.3353"/>
</g>
<!-- Node14 -->
<g id="node14" class="node"><title>Node14</title>
<polygon fill="white" stroke="#bfbfbf" points="317,-112.5 317,-131.5 395,-131.5 395,-112.5 317,-112.5"/>
<text text-anchor="middle" x="356" y="-119.5" font-family="Helvetica,sans-Serif" font-size="10.00">QVariantMap</text>
</g>
<!-- Node12&#45;&gt;Node14 -->
<g id="edge14" class="edge"><title>Node12&#45;&gt;Node14</title>
<path fill="none" stroke="midnightblue" d="M256.697,-168.444C275.944,-159.636 306.152,-145.812 328.2,-135.722"/>
<polygon fill="midnightblue" stroke="midnightblue" points="329.753,-138.86 337.39,-131.516 326.84,-132.495 329.753,-138.86"/>
</g>
<!-- Node12&#45;&gt;Node15 -->
<g id="edge15" class="edge"><title>Node12&#45;&gt;Node15</title>
<path fill="none" stroke="midnightblue" d="M233.376,-168.083C229.544,-160.691 223.976,-149.953 219.235,-140.811"/>
<polygon fill="midnightblue" stroke="midnightblue" points="222.248,-139.018 214.538,-131.751 216.034,-142.24 222.248,-139.018"/>
</g>
<!-- Node15&#45;&gt;Node5 -->
<g id="edge16" class="edge"><title>Node15&#45;&gt;Node5</title>
<path fill="none" stroke="midnightblue" d="M190.035,-112.444C169.391,-103.596 136.937,-89.6875 113.368,-79.5865"/>
<polygon fill="midnightblue" stroke="midnightblue" points="114.442,-76.2387 103.872,-75.5164 111.684,-82.6727 114.442,-76.2387"/>
</g>
<!-- Node15&#45;&gt;Node13 -->
<g id="edge18" class="edge"><title>Node15&#45;&gt;Node13</title>
<path fill="none" stroke="midnightblue" d="M242.008,-112.444C278.363,-102.725 337.563,-86.8991 375.634,-76.7216"/>
<polygon fill="midnightblue" stroke="midnightblue" points="376.546,-80.1007 385.303,-74.1368 374.738,-73.3382 376.546,-80.1007"/>
</g>
<!-- Node16 -->
<g id="node16" class="node"><title>Node16</title>
<polygon fill="white" stroke="#bfbfbf" points="124.5,-56.5 124.5,-75.5 165.5,-75.5 165.5,-56.5 124.5,-56.5"/>
<text text-anchor="middle" x="145" y="-63.5" font-family="Helvetica,sans-Serif" font-size="10.00">QPair</text>
</g>
<!-- Node15&#45;&gt;Node16 -->
<g id="edge17" class="edge"><title>Node15&#45;&gt;Node16</title>
<path fill="none" stroke="midnightblue" d="M199.557,-112.324C189.854,-104.263 175.185,-92.0765 163.5,-82.3695"/>
<polygon fill="midnightblue" stroke="midnightblue" points="165.562,-79.532 155.633,-75.8339 161.089,-84.9163 165.562,-79.532"/>
</g>
<!-- Node17 -->
<g id="node17" class="node"><title>Node17</title>
<polygon fill="white" stroke="#bfbfbf" points="183.5,-56.5 183.5,-75.5 254.5,-75.5 254.5,-56.5 183.5,-56.5"/>
<text text-anchor="middle" x="219" y="-63.5" font-family="Helvetica,sans-Serif" font-size="10.00">QDateTime</text>
</g>
<!-- Node15&#45;&gt;Node17 -->
<g id="edge19" class="edge"><title>Node15&#45;&gt;Node17</title>
<path fill="none" stroke="midnightblue" d="M211.486,-112.083C212.679,-104.927 214.394,-94.6353 215.885,-85.6911"/>
<polygon fill="midnightblue" stroke="midnightblue" points="219.35,-86.1904 217.541,-75.7511 212.445,-85.0396 219.35,-86.1904"/>
</g>
<!-- Node18 -->
<g id="node18" class="node"><title>Node18</title>
<g id="a_node18"><a xlink:href="../../de/de6/torchttpreader_8h.html" target="_top" xlink:title="torchttpreader.h">
<polygon fill="white" stroke="black" points="272.5,-56.5 272.5,-75.5 367.5,-75.5 367.5,-56.5 272.5,-56.5"/>
<text text-anchor="middle" x="320" y="-63.5" font-family="Helvetica,sans-Serif" font-size="10.00">torchttpreader.h</text>
</a>
</g>
</g>
<!-- Node15&#45;&gt;Node18 -->
<g id="edge20" class="edge"><title>Node15&#45;&gt;Node18</title>
<path fill="none" stroke="midnightblue" d="M227.673,-112.324C245.394,-103.625 272.903,-90.1202 293.288,-80.113"/>
<polygon fill="midnightblue" stroke="midnightblue" points="294.936,-83.2031 302.37,-75.6545 291.851,-76.9195 294.936,-83.2031"/>
</g>
<!-- Node19 -->
<g id="node19" class="node"><title>Node19</title>
<polygon fill="white" stroke="#bfbfbf" points="239.5,-0.5 239.5,-19.5 310.5,-19.5 310.5,-0.5 239.5,-0.5"/>
<text text-anchor="middle" x="275" y="-7.5" font-family="Helvetica,sans-Serif" font-size="10.00">QByteArray</text>
</g>
<!-- Node18&#45;&gt;Node19 -->
<g id="edge21" class="edge"><title>Node18&#45;&gt;Node19</title>
<path fill="none" stroke="midnightblue" d="M312.569,-56.083C306.147,-48.3768 296.694,-37.0333 288.878,-27.6531"/>
<polygon fill="midnightblue" stroke="midnightblue" points="291.383,-25.1927 282.293,-19.7511 286.006,-29.674 291.383,-25.1927"/>
</g>
<!-- Node20 -->
<g id="node20" class="node"><title>Node20</title>
<polygon fill="white" stroke="#bfbfbf" points="329,-0.5 329,-19.5 401,-19.5 401,-0.5 329,-0.5"/>
<text text-anchor="middle" x="365" y="-7.5" font-family="Helvetica,sans-Serif" font-size="10.00">QTcpSocket</text>
</g>
<!-- Node18&#45;&gt;Node20 -->
<g id="edge22" class="edge"><title>Node18&#45;&gt;Node20</title>
<path fill="none" stroke="midnightblue" d="M327.431,-56.083C333.853,-48.3768 343.306,-37.0333 351.122,-27.6531"/>
<polygon fill="midnightblue" stroke="midnightblue" points="353.994,-29.674 357.707,-19.7511 348.617,-25.1927 353.994,-29.674"/>
</g>
<!-- Node21&#45;&gt;Node6 -->
<g id="edge28" class="edge"><title>Node21&#45;&gt;Node6</title>
<path fill="none" stroke="midnightblue" d="M653.147,-224.324C640.784,-215.979 621.87,-203.212 607.263,-193.352"/>
<polygon fill="midnightblue" stroke="midnightblue" points="609.068,-190.348 598.821,-187.655 605.152,-196.15 609.068,-190.348"/>
</g>
<!-- Node21&#45;&gt;Node9 -->
<g id="edge26" class="edge"><title>Node21&#45;&gt;Node9</title>
<path fill="none" stroke="midnightblue" d="M662.783,-224.368C656.136,-206.537 640.765,-165.295 631.81,-141.272"/>
<polygon fill="midnightblue" stroke="midnightblue" points="634.974,-139.739 628.202,-131.591 628.415,-142.184 634.974,-139.739"/>
</g>
<!-- Node21&#45;&gt;Node13 -->
<g id="edge27" class="edge"><title>Node21&#45;&gt;Node13</title>
<path fill="none" stroke="midnightblue" d="M668.767,-224.365C675.181,-202.502 688.444,-144.404 660,-112 632.779,-80.9904 511.076,-71.2477 448.869,-68.267"/>
<polygon fill="midnightblue" stroke="midnightblue" points="448.846,-64.7626 438.7,-67.8147 448.535,-71.7556 448.846,-64.7626"/>
</g>
<!-- Node22 -->
<g id="node22" class="node"><title>Node22</title>
<polygon fill="white" stroke="#bfbfbf" points="815.5,-112.5 815.5,-131.5 864.5,-131.5 864.5,-112.5 815.5,-112.5"/>
<text text-anchor="middle" x="840" y="-119.5" font-family="Helvetica,sans-Serif" font-size="10.00">QHash</text>
</g>
<!-- Node21&#45;&gt;Node22 -->
<g id="edge25" class="edge"><title>Node21&#45;&gt;Node22</title>
<path fill="none" stroke="midnightblue" d="M703.886,-224.6C748.753,-214.318 818.513,-197.15 827,-188 838.362,-175.75 841.018,-156.488 841.188,-142.107"/>
<polygon fill="midnightblue" stroke="midnightblue" points="844.68,-141.75 840.911,-131.849 837.683,-141.94 844.68,-141.75"/>
</g>
<!-- Node23 -->
<g id="node23" class="node"><title>Node23</title>
<g id="a_node23"><a xlink:href="../../d8/dfe/torcreferencecounted_8h.html" target="_top" xlink:title="torcreferencecounted.h">
<polygon fill="white" stroke="black" points="874.5,-168.5 874.5,-187.5 1003.5,-187.5 1003.5,-168.5 874.5,-168.5"/>
<text text-anchor="middle" x="939" y="-175.5" font-family="Helvetica,sans-Serif" font-size="10.00">torcreferencecounted.h</text>
</a>
</g>
</g>
<!-- Node21&#45;&gt;Node23 -->
<g id="edge29" class="edge"><title>Node21&#45;&gt;Node23</title>
<path fill="none" stroke="midnightblue" d="M703.673,-225.548C750.944,-216.198 832.296,-200.106 885.873,-189.509"/>
<polygon fill="midnightblue" stroke="midnightblue" points="886.739,-192.905 895.869,-187.531 885.38,-186.038 886.739,-192.905"/>
</g>
<!-- Node25 -->
<g id="node25" class="node"><title>Node25</title>
<g id="a_node25"><a xlink:href="../../d2/d5b/torcdevicehandler_8h.html" target="_top" xlink:title="torcdevicehandler.h">
<polygon fill="white" stroke="black" points="708,-168.5 708,-187.5 818,-187.5 818,-168.5 708,-168.5"/>
<text text-anchor="middle" x="763" y="-175.5" font-family="Helvetica,sans-Serif" font-size="10.00">torcdevicehandler.h</text>
</a>
</g>
</g>
<!-- Node21&#45;&gt;Node25 -->
<g id="edge31" class="edge"><title>Node21&#45;&gt;Node25</title>
<path fill="none" stroke="midnightblue" d="M681.585,-224.324C696.999,-215.743 720.812,-202.486 738.71,-192.522"/>
<polygon fill="midnightblue" stroke="midnightblue" points="740.419,-195.577 747.454,-187.655 737.014,-189.461 740.419,-195.577"/>
</g>
<!-- Node24 -->
<g id="node24" class="node"><title>Node24</title>
<polygon fill="white" stroke="#bfbfbf" points="904,-112.5 904,-131.5 974,-131.5 974,-112.5 904,-112.5"/>
<text text-anchor="middle" x="939" y="-119.5" font-family="Helvetica,sans-Serif" font-size="10.00">QAtomicInt</text>
</g>
<!-- Node23&#45;&gt;Node24 -->
<g id="edge30" class="edge"><title>Node23&#45;&gt;Node24</title>
<path fill="none" stroke="midnightblue" d="M939,-168.083C939,-161.006 939,-150.861 939,-141.986"/>
<polygon fill="midnightblue" stroke="midnightblue" points="942.5,-141.751 939,-131.751 935.5,-141.751 942.5,-141.751"/>
</g>
<!-- Node25&#45;&gt;Node9 -->
<g id="edge33" class="edge"><title>Node25&#45;&gt;Node9</title>
<path fill="none" stroke="midnightblue" d="M741.133,-168.444C718.221,-159.478 682.025,-145.314 656.134,-135.183"/>
<polygon fill="midnightblue" stroke="midnightblue" points="657.352,-131.901 646.764,-131.516 654.801,-138.42 657.352,-131.901"/>
</g>
<!-- Node25&#45;&gt;Node22 -->
<g id="edge32" class="edge"><title>Node25&#45;&gt;Node22</title>
<path fill="none" stroke="midnightblue" d="M775.371,-168.324C787.158,-160.058 805.132,-147.453 819.136,-137.632"/>
<polygon fill="midnightblue" stroke="midnightblue" points="821.482,-140.262 827.659,-131.655 817.462,-134.531 821.482,-140.262"/>
</g>
<!-- Node26 -->
<g id="node26" class="node"><title>Node26</title>
<polygon fill="white" stroke="#bfbfbf" points="734,-112.5 734,-131.5 792,-131.5 792,-112.5 734,-112.5"/>
<text text-anchor="middle" x="763" y="-119.5" font-family="Helvetica,sans-Serif" font-size="10.00">QVariant</text>
</g>
<!-- Node25&#45;&gt;Node26 -->
<g id="edge34" class="edge"><title>Node25&#45;&gt;Node26</title>
<path fill="none" stroke="midnightblue" d="M763,-168.083C763,-161.006 763,-150.861 763,-141.986"/>
<polygon fill="midnightblue" stroke="midnightblue" points="766.5,-141.751 763,-131.751 759.5,-141.751 766.5,-141.751"/>
</g>
</g>
</svg>
