<?xml version="1.0" encoding="UTF-8" standalone="no"?>
<!DOCTYPE svg PUBLIC "-//W3C//DTD SVG 1.1//EN"
 "http://www.w3.org/Graphics/SVG/1.1/DTD/svg11.dtd">
<!-- Generated by graphviz version 2.38.0 (20140413.2041)
 -->
<!-- Title: torcnetworkpwmoutput.h Pages: 1 -->
<svg width="296pt" height="84pt"
 viewBox="0.00 0.00 295.50 84.00" xmlns="http://www.w3.org/2000/svg" xmlns:xlink="http://www.w3.org/1999/xlink">
<g id="graph0" class="graph" transform="scale(1 1) rotate(0) translate(4 80)">
<title>torcnetworkpwmoutput.h</title>
<polygon fill="white" stroke="none" points="-4,4 -4,-80 291.5,-80 291.5,4 -4,4"/>
<!-- Node1 -->
<g id="node1" class="node"><title>Node1</title>
<polygon fill="#bfbfbf" stroke="black" points="69,-56.5 69,-75.5 205,-75.5 205,-56.5 69,-56.5"/>
<text text-anchor="middle" x="137" y="-63.5" font-family="Helvetica,sans-Serif" font-size="10.00">torcnetworkpwmoutput.h</text>
</g>
<!-- Node2 -->
<g id="node2" class="node"><title>Node2</title>
<g id="a_node2"><a xlink:href="../../df/dc7/torcnetworkinputs_8cpp.html" target="_top" xlink:title="torcnetworkinputs.cpp">
<polygon fill="white" stroke="black" points="0,-0.5 0,-19.5 122,-19.5 122,-0.5 0,-0.5"/>
<text text-anchor="middle" x="61" y="-7.5" font-family="Helvetica,sans-Serif" font-size="10.00">torcnetworkinputs.cpp</text>
</a>
</g>
</g>
<!-- Node1&#45;&gt;Node2 -->
<g id="edge1" class="edge"><title>Node1&#45;&gt;Node2</title>
<path fill="none" stroke="midnightblue" d="M116.424,-50.3804C102.688,-40.6204 85.0747,-28.1057 73.4329,-19.8339"/>
<polygon fill="midnightblue" stroke="midnightblue" points="114.61,-53.385 124.789,-56.324 118.665,-47.6787 114.61,-53.385"/>
</g>
<!-- Node3 -->
<g id="node3" class="node"><title>Node3</title>
<g id="a_node3"><a xlink:href="../../de/db1/torcnetworkpwmoutput_8cpp.html" target="_top" xlink:title="torcnetworkpwmoutput.cpp">
<polygon fill="white" stroke="black" points="140.5,-0.5 140.5,-19.5 287.5,-19.5 287.5,-0.5 140.5,-0.5"/>
<text text-anchor="middle" x="214" y="-7.5" font-family="Helvetica,sans-Serif" font-size="10.00">torcnetworkpwmoutput.cpp</text>
</a>
</g>
</g>
<!-- Node1&#45;&gt;Node3 -->
<g id="edge2" class="edge"><title>Node1&#45;&gt;Node3</title>
<path fill="none" stroke="midnightblue" d="M157.901,-50.3422C171.911,-40.5169 189.883,-27.9132 201.659,-19.6545"/>
<polygon fill="midnightblue" stroke="midnightblue" points="155.549,-47.7166 149.371,-56.324 159.568,-53.4477 155.549,-47.7166"/>
</g>
</g>
</svg>
