<?xml version="1.0" encoding="UTF-8" standalone="no"?>
<!DOCTYPE svg PUBLIC "-//W3C//DTD SVG 1.1//EN"
 "http://www.w3.org/Graphics/SVG/1.1/DTD/svg11.dtd">
<!-- Generated by graphviz version 2.38.0 (20140413.2041)
 -->
<!-- Title: torcplist.h Pages: 1 -->
<svg width="248pt" height="84pt"
 viewBox="0.00 0.00 247.50 84.00" xmlns="http://www.w3.org/2000/svg" xmlns:xlink="http://www.w3.org/1999/xlink">
<g id="graph0" class="graph" transform="scale(1 1) rotate(0) translate(4 80)">
<title>torcplist.h</title>
<polygon fill="white" stroke="none" points="-4,4 -4,-80 243.5,-80 243.5,4 -4,4"/>
<!-- Node1 -->
<g id="node1" class="node"><title>Node1</title>
<polygon fill="#bfbfbf" stroke="black" points="105,-56.5 105,-75.5 169,-75.5 169,-56.5 105,-56.5"/>
<text text-anchor="middle" x="137" y="-63.5" font-family="Helvetica,sans-Serif" font-size="10.00">torcplist.h</text>
</g>
<!-- Node2 -->
<g id="node2" class="node"><title>Node2</title>
<g id="a_node2"><a xlink:href="../../d5/d41/torcbinaryplistserialiser_8cpp.html" target="_top" xlink:title="torcbinaryplistserialiser.cpp">
<polygon fill="white" stroke="black" points="0,-0.5 0,-19.5 146,-19.5 146,-0.5 0,-0.5"/>
<text text-anchor="middle" x="73" y="-7.5" font-family="Helvetica,sans-Serif" font-size="10.00">torcbinaryplistserialiser.cpp</text>
</a>
</g>
</g>
<!-- Node1&#45;&gt;Node2 -->
<g id="edge1" class="edge"><title>Node1&#45;&gt;Node2</title>
<path fill="none" stroke="midnightblue" d="M119.009,-49.8197C107.542,-40.1452 93.0867,-27.9481 83.4698,-19.8339"/>
<polygon fill="midnightblue" stroke="midnightblue" points="116.817,-52.5502 126.717,-56.324 121.331,-47.2002 116.817,-52.5502"/>
</g>
<!-- Node3 -->
<g id="node3" class="node"><title>Node3</title>
<g id="a_node3"><a xlink:href="../../db/d68/torcplist_8cpp.html" target="_top" xlink:title="torcplist.cpp">
<polygon fill="white" stroke="black" points="164.5,-0.5 164.5,-19.5 239.5,-19.5 239.5,-0.5 164.5,-0.5"/>
<text text-anchor="middle" x="202" y="-7.5" font-family="Helvetica,sans-Serif" font-size="10.00">torcplist.cpp</text>
</a>
</g>
</g>
<!-- Node1&#45;&gt;Node3 -->
<g id="edge2" class="edge"><title>Node1&#45;&gt;Node3</title>
<path fill="none" stroke="midnightblue" d="M155.273,-49.8197C166.918,-40.1452 181.599,-27.9481 191.367,-19.8339"/>
<polygon fill="midnightblue" stroke="midnightblue" points="152.899,-47.2416 147.443,-56.324 157.372,-52.6259 152.899,-47.2416"/>
</g>
</g>
</svg>
