<?xml version="1.0" encoding="UTF-8" standalone="no"?>
<!DOCTYPE svg PUBLIC "-//W3C//DTD SVG 1.1//EN"
 "http://www.w3.org/Graphics/SVG/1.1/DTD/svg11.dtd">
<!-- Generated by graphviz version 2.38.0 (20140413.2041)
 -->
<!-- Title: torcnetworkphoutput.cpp Pages: 1 -->
<svg width="982pt" height="476pt"
 viewBox="0.00 0.00 981.50 476.00" xmlns="http://www.w3.org/2000/svg" xmlns:xlink="http://www.w3.org/1999/xlink">
<g id="graph0" class="graph" transform="scale(1 1) rotate(0) translate(4 472)">
<title>torcnetworkphoutput.cpp</title>
<polygon fill="white" stroke="none" points="-4,4 -4,-472 977.5,-472 977.5,4 -4,4"/>
<!-- Node1 -->
<g id="node1" class="node"><title>Node1</title>
<polygon fill="#bfbfbf" stroke="black" points="181,-448.5 181,-467.5 318,-467.5 318,-448.5 181,-448.5"/>
<text text-anchor="middle" x="249.5" y="-455.5" font-family="Helvetica,sans-Serif" font-size="10.00">torcnetworkphoutput.cpp</text>
</g>
<!-- Node2 -->
<g id="node2" class="node"><title>Node2</title>
<g id="a_node2"><a xlink:href="../../d7/d52/torcnetworkphoutput_8h.html" target="_top" xlink:title="torcnetworkphoutput.h">
<polygon fill="white" stroke="black" points="187,-392.5 187,-411.5 312,-411.5 312,-392.5 187,-392.5"/>
<text text-anchor="middle" x="249.5" y="-399.5" font-family="Helvetica,sans-Serif" font-size="10.00">torcnetworkphoutput.h</text>
</a>
</g>
</g>
<!-- Node1&#45;&gt;Node2 -->
<g id="edge1" class="edge"><title>Node1&#45;&gt;Node2</title>
<path fill="none" stroke="midnightblue" d="M249.5,-448.083C249.5,-441.006 249.5,-430.861 249.5,-421.986"/>
<polygon fill="midnightblue" stroke="midnightblue" points="253,-421.751 249.5,-411.751 246,-421.751 253,-421.751"/>
</g>
<!-- Node3 -->
<g id="node3" class="node"><title>Node3</title>
<g id="a_node3"><a xlink:href="../../de/d6b/torcphoutput_8h.html" target="_top" xlink:title="torcphoutput.h">
<polygon fill="white" stroke="black" points="205.5,-336.5 205.5,-355.5 293.5,-355.5 293.5,-336.5 205.5,-336.5"/>
<text text-anchor="middle" x="249.5" y="-343.5" font-family="Helvetica,sans-Serif" font-size="10.00">torcphoutput.h</text>
</a>
</g>
</g>
<!-- Node2&#45;&gt;Node3 -->
<g id="edge2" class="edge"><title>Node2&#45;&gt;Node3</title>
<path fill="none" stroke="midnightblue" d="M249.5,-392.083C249.5,-385.006 249.5,-374.861 249.5,-365.986"/>
<polygon fill="midnightblue" stroke="midnightblue" points="253,-365.751 249.5,-355.751 246,-365.751 253,-365.751"/>
</g>
<!-- Node4 -->
<g id="node4" class="node"><title>Node4</title>
<g id="a_node4"><a xlink:href="../../dc/d01/torcoutput_8h.html" target="_top" xlink:title="torcoutput.h">
<polygon fill="white" stroke="black" points="211.5,-280.5 211.5,-299.5 287.5,-299.5 287.5,-280.5 211.5,-280.5"/>
<text text-anchor="middle" x="249.5" y="-287.5" font-family="Helvetica,sans-Serif" font-size="10.00">torcoutput.h</text>
</a>
</g>
</g>
<!-- Node3&#45;&gt;Node4 -->
<g id="edge3" class="edge"><title>Node3&#45;&gt;Node4</title>
<path fill="none" stroke="midnightblue" d="M249.5,-336.083C249.5,-329.006 249.5,-318.861 249.5,-309.986"/>
<polygon fill="midnightblue" stroke="midnightblue" points="253,-309.751 249.5,-299.751 246,-309.751 253,-309.751"/>
</g>
<!-- Node5 -->
<g id="node5" class="node"><title>Node5</title>
<polygon fill="white" stroke="#bfbfbf" points="513,-112.5 513,-131.5 566,-131.5 566,-112.5 513,-112.5"/>
<text text-anchor="middle" x="539.5" y="-119.5" font-family="Helvetica,sans-Serif" font-size="10.00">QMutex</text>
</g>
<!-- Node4&#45;&gt;Node5 -->
<g id="edge4" class="edge"><title>Node4&#45;&gt;Node5</title>
<path fill="none" stroke="midnightblue" d="M268.787,-280.497C305.098,-264.221 385.695,-226.818 449.5,-188 475.02,-172.474 502.627,-151.924 520.44,-138.123"/>
<polygon fill="midnightblue" stroke="midnightblue" points="523.079,-140.502 528.799,-131.583 518.766,-134.988 523.079,-140.502"/>
</g>
<!-- Node6 -->
<g id="node6" class="node"><title>Node6</title>
<polygon fill="white" stroke="#bfbfbf" points="0,-168.5 0,-187.5 55,-187.5 55,-168.5 0,-168.5"/>
<text text-anchor="middle" x="27.5" y="-175.5" font-family="Helvetica,sans-Serif" font-size="10.00">QObject</text>
</g>
<!-- Node4&#45;&gt;Node6 -->
<g id="edge5" class="edge"><title>Node4&#45;&gt;Node6</title>
<path fill="none" stroke="midnightblue" d="M232.08,-280.368C193.336,-261.171 99.8353,-214.842 53.8856,-192.074"/>
<polygon fill="midnightblue" stroke="midnightblue" points="55.3534,-188.895 44.839,-187.591 52.2455,-195.167 55.3534,-188.895"/>
</g>
<!-- Node7 -->
<g id="node7" class="node"><title>Node7</title>
<g id="a_node7"><a xlink:href="../../d8/dfe/torcreferencecounted_8h.html" target="_top" xlink:title="torcreferencecounted.h">
<polygon fill="white" stroke="black" points="73,-168.5 73,-187.5 202,-187.5 202,-168.5 73,-168.5"/>
<text text-anchor="middle" x="137.5" y="-175.5" font-family="Helvetica,sans-Serif" font-size="10.00">torcreferencecounted.h</text>
</a>
</g>
</g>
<!-- Node4&#45;&gt;Node7 -->
<g id="edge6" class="edge"><title>Node4&#45;&gt;Node7</title>
<path fill="none" stroke="midnightblue" d="M240.434,-280.431C230.927,-271.42 215.58,-256.799 202.5,-244 185.686,-227.547 166.684,-208.491 153.589,-195.284"/>
<polygon fill="midnightblue" stroke="midnightblue" points="155.794,-192.536 146.271,-187.892 150.819,-197.461 155.794,-192.536"/>
</g>
<!-- Node9 -->
<g id="node9" class="node"><title>Node9</title>
<g id="a_node9"><a xlink:href="../../d3/dee/torchttpservice_8h.html" target="_top" xlink:title="torchttpservice.h">
<polygon fill="white" stroke="black" points="630.5,-224.5 630.5,-243.5 728.5,-243.5 728.5,-224.5 630.5,-224.5"/>
<text text-anchor="middle" x="679.5" y="-231.5" font-family="Helvetica,sans-Serif" font-size="10.00">torchttpservice.h</text>
</a>
</g>
</g>
<!-- Node4&#45;&gt;Node9 -->
<g id="edge8" class="edge"><title>Node4&#45;&gt;Node9</title>
<path fill="none" stroke="midnightblue" d="M287.66,-284.208C362.867,-274.763 530.701,-253.686 620.362,-242.427"/>
<polygon fill="midnightblue" stroke="midnightblue" points="620.884,-245.889 630.37,-241.17 620.012,-238.943 620.884,-245.889"/>
</g>
<!-- Node23 -->
<g id="node23" class="node"><title>Node23</title>
<g id="a_node23"><a xlink:href="../../d1/df7/torcdevice_8h.html" target="_top" xlink:title="torcdevice.h">
<polygon fill="white" stroke="black" points="212,-224.5 212,-243.5 287,-243.5 287,-224.5 212,-224.5"/>
<text text-anchor="middle" x="249.5" y="-231.5" font-family="Helvetica,sans-Serif" font-size="10.00">torcdevice.h</text>
</a>
</g>
</g>
<!-- Node4&#45;&gt;Node23 -->
<g id="edge26" class="edge"><title>Node4&#45;&gt;Node23</title>
<path fill="none" stroke="midnightblue" d="M249.5,-280.083C249.5,-273.006 249.5,-262.861 249.5,-253.986"/>
<polygon fill="midnightblue" stroke="midnightblue" points="253,-253.751 249.5,-243.751 246,-253.751 253,-253.751"/>
</g>
<!-- Node8 -->
<g id="node8" class="node"><title>Node8</title>
<polygon fill="white" stroke="#bfbfbf" points="102.5,-112.5 102.5,-131.5 172.5,-131.5 172.5,-112.5 102.5,-112.5"/>
<text text-anchor="middle" x="137.5" y="-119.5" font-family="Helvetica,sans-Serif" font-size="10.00">QAtomicInt</text>
</g>
<!-- Node7&#45;&gt;Node8 -->
<g id="edge7" class="edge"><title>Node7&#45;&gt;Node8</title>
<path fill="none" stroke="midnightblue" d="M137.5,-168.083C137.5,-161.006 137.5,-150.861 137.5,-141.986"/>
<polygon fill="midnightblue" stroke="midnightblue" points="141,-141.751 137.5,-131.751 134,-141.751 141,-141.751"/>
</g>
<!-- Node9&#45;&gt;Node5 -->
<g id="edge10" class="edge"><title>Node9&#45;&gt;Node5</title>
<path fill="none" stroke="midnightblue" d="M638.626,-224.448C615.61,-217.831 587.717,-206.566 568.5,-188 555.469,-175.411 547.852,-155.92 543.722,-141.563"/>
<polygon fill="midnightblue" stroke="midnightblue" points="547.088,-140.599 541.211,-131.784 540.308,-142.34 547.088,-140.599"/>
</g>
<!-- Node10 -->
<g id="node10" class="node"><title>Node10</title>
<polygon fill="white" stroke="#bfbfbf" points="929.5,-56.5 929.5,-75.5 973.5,-75.5 973.5,-56.5 929.5,-56.5"/>
<text text-anchor="middle" x="951.5" y="-63.5" font-family="Helvetica,sans-Serif" font-size="10.00">QMap</text>
</g>
<!-- Node9&#45;&gt;Node10 -->
<g id="edge9" class="edge"><title>Node9&#45;&gt;Node10</title>
<path fill="none" stroke="midnightblue" d="M728.606,-229.574C789.514,-224.344 888.619,-212.3 915.5,-188 944.675,-161.626 950.637,-112.774 951.594,-85.9145"/>
<polygon fill="midnightblue" stroke="midnightblue" points="955.099,-85.6308 951.749,-75.5794 948.1,-85.5257 955.099,-85.6308"/>
</g>
<!-- Node11 -->
<g id="node11" class="node"><title>Node11</title>
<polygon fill="white" stroke="#bfbfbf" points="402.5,-112.5 402.5,-131.5 494.5,-131.5 494.5,-112.5 402.5,-112.5"/>
<text text-anchor="middle" x="448.5" y="-119.5" font-family="Helvetica,sans-Serif" font-size="10.00">QReadWriteLock</text>
</g>
<!-- Node9&#45;&gt;Node11 -->
<g id="edge11" class="edge"><title>Node9&#45;&gt;Node11</title>
<path fill="none" stroke="midnightblue" d="M648.727,-224.464C622.076,-216.56 582.834,-203.679 550.5,-188 520.352,-173.381 488.16,-151.734 468.184,-137.499"/>
<polygon fill="midnightblue" stroke="midnightblue" points="470.074,-134.547 459.917,-131.532 465.977,-140.223 470.074,-134.547"/>
</g>
<!-- Node12 -->
<g id="node12" class="node"><title>Node12</title>
<polygon fill="white" stroke="#bfbfbf" points="694,-168.5 694,-187.5 773,-187.5 773,-168.5 694,-168.5"/>
<text text-anchor="middle" x="733.5" y="-175.5" font-family="Helvetica,sans-Serif" font-size="10.00">QMetaObject</text>
</g>
<!-- Node9&#45;&gt;Node12 -->
<g id="edge12" class="edge"><title>Node9&#45;&gt;Node12</title>
<path fill="none" stroke="midnightblue" d="M688.417,-224.083C696.28,-216.22 707.931,-204.569 717.419,-195.081"/>
<polygon fill="midnightblue" stroke="midnightblue" points="720.153,-197.297 724.749,-187.751 715.203,-192.347 720.153,-197.297"/>
</g>
<!-- Node13 -->
<g id="node13" class="node"><title>Node13</title>
<polygon fill="white" stroke="#bfbfbf" points="791,-168.5 791,-187.5 890,-187.5 890,-168.5 791,-168.5"/>
<text text-anchor="middle" x="840.5" y="-175.5" font-family="Helvetica,sans-Serif" font-size="10.00">QCoreApplication</text>
</g>
<!-- Node9&#45;&gt;Node13 -->
<g id="edge13" class="edge"><title>Node9&#45;&gt;Node13</title>
<path fill="none" stroke="midnightblue" d="M705.011,-224.444C732.096,-215.359 775.09,-200.939 805.369,-190.783"/>
<polygon fill="midnightblue" stroke="midnightblue" points="806.74,-194.015 815.108,-187.516 804.514,-187.378 806.74,-194.015"/>
</g>
<!-- Node14 -->
<g id="node14" class="node"><title>Node14</title>
<g id="a_node14"><a xlink:href="../../d4/d11/torchttphandler_8h.html" target="_top" xlink:title="torchttphandler.h">
<polygon fill="white" stroke="black" points="577,-168.5 577,-187.5 676,-187.5 676,-168.5 577,-168.5"/>
<text text-anchor="middle" x="626.5" y="-175.5" font-family="Helvetica,sans-Serif" font-size="10.00">torchttphandler.h</text>
</a>
</g>
</g>
<!-- Node9&#45;&gt;Node14 -->
<g id="edge14" class="edge"><title>Node9&#45;&gt;Node14</title>
<path fill="none" stroke="midnightblue" d="M670.748,-224.083C663.03,-216.22 651.595,-204.569 642.283,-195.081"/>
<polygon fill="midnightblue" stroke="midnightblue" points="644.592,-192.436 635.089,-187.751 639.596,-197.34 644.592,-192.436"/>
</g>
<!-- Node17 -->
<g id="node17" class="node"><title>Node17</title>
<g id="a_node17"><a xlink:href="../../df/dd7/torchttprequest_8h.html" target="_top" xlink:title="torchttprequest.h">
<polygon fill="white" stroke="black" points="750,-112.5 750,-131.5 851,-131.5 851,-112.5 750,-112.5"/>
<text text-anchor="middle" x="800.5" y="-119.5" font-family="Helvetica,sans-Serif" font-size="10.00">torchttprequest.h</text>
</a>
</g>
</g>
<!-- Node9&#45;&gt;Node17 -->
<g id="edge25" class="edge"><title>Node9&#45;&gt;Node17</title>
<path fill="none" stroke="midnightblue" d="M728.676,-229.993C786.811,-225.293 878.362,-213.899 899.5,-188 919.286,-163.757 880.557,-145.366 845.895,-134.437"/>
<polygon fill="midnightblue" stroke="midnightblue" points="846.862,-131.073 836.278,-131.554 844.851,-137.779 846.862,-131.073"/>
</g>
<!-- Node15 -->
<g id="node15" class="node"><title>Node15</title>
<polygon fill="white" stroke="#bfbfbf" points="584,-56.5 584,-75.5 637,-75.5 637,-56.5 584,-56.5"/>
<text text-anchor="middle" x="610.5" y="-63.5" font-family="Helvetica,sans-Serif" font-size="10.00">QString</text>
</g>
<!-- Node14&#45;&gt;Node15 -->
<g id="edge15" class="edge"><title>Node14&#45;&gt;Node15</title>
<path fill="none" stroke="midnightblue" d="M625.245,-168.368C622.662,-150.617 616.706,-109.666 613.205,-85.5974"/>
<polygon fill="midnightblue" stroke="midnightblue" points="616.653,-84.9835 611.75,-75.5914 609.726,-85.9911 616.653,-84.9835"/>
</g>
<!-- Node16 -->
<g id="node16" class="node"><title>Node16</title>
<polygon fill="white" stroke="#bfbfbf" points="638.5,-112.5 638.5,-131.5 716.5,-131.5 716.5,-112.5 638.5,-112.5"/>
<text text-anchor="middle" x="677.5" y="-119.5" font-family="Helvetica,sans-Serif" font-size="10.00">QVariantMap</text>
</g>
<!-- Node14&#45;&gt;Node16 -->
<g id="edge16" class="edge"><title>Node14&#45;&gt;Node16</title>
<path fill="none" stroke="midnightblue" d="M634.922,-168.083C642.348,-160.22 653.352,-148.569 662.312,-139.081"/>
<polygon fill="midnightblue" stroke="midnightblue" points="664.913,-141.424 669.235,-131.751 659.824,-136.618 664.913,-141.424"/>
</g>
<!-- Node14&#45;&gt;Node17 -->
<g id="edge17" class="edge"><title>Node14&#45;&gt;Node17</title>
<path fill="none" stroke="midnightblue" d="M654.071,-168.444C683.597,-159.28 730.618,-144.688 763.383,-134.519"/>
<polygon fill="midnightblue" stroke="midnightblue" points="764.545,-137.823 773.058,-131.516 762.47,-131.138 764.545,-137.823"/>
</g>
<!-- Node17&#45;&gt;Node10 -->
<g id="edge18" class="edge"><title>Node17&#45;&gt;Node10</title>
<path fill="none" stroke="midnightblue" d="M824.426,-112.444C850.165,-103.239 891.222,-88.5565 919.671,-78.3826"/>
<polygon fill="midnightblue" stroke="midnightblue" points="920.925,-81.6513 929.162,-74.9883 918.568,-75.0601 920.925,-81.6513"/>
</g>
<!-- Node17&#45;&gt;Node15 -->
<g id="edge20" class="edge"><title>Node17&#45;&gt;Node15</title>
<path fill="none" stroke="midnightblue" d="M770.394,-112.444C736.966,-102.943 683.003,-87.6061 647.145,-77.415"/>
<polygon fill="midnightblue" stroke="midnightblue" points="647.669,-73.9252 637.093,-74.558 645.755,-80.6586 647.669,-73.9252"/>
</g>
<!-- Node18 -->
<g id="node18" class="node"><title>Node18</title>
<polygon fill="white" stroke="#bfbfbf" points="866,-56.5 866,-75.5 907,-75.5 907,-56.5 866,-56.5"/>
<text text-anchor="middle" x="886.5" y="-63.5" font-family="Helvetica,sans-Serif" font-size="10.00">QPair</text>
</g>
<!-- Node17&#45;&gt;Node18 -->
<g id="edge19" class="edge"><title>Node17&#45;&gt;Node18</title>
<path fill="none" stroke="midnightblue" d="M814.317,-112.324C827.733,-103.9 848.324,-90.9709 864.086,-81.0741"/>
<polygon fill="midnightblue" stroke="midnightblue" points="866.109,-83.9364 872.717,-75.6545 862.387,-78.0081 866.109,-83.9364"/>
</g>
<!-- Node19 -->
<g id="node19" class="node"><title>Node19</title>
<polygon fill="white" stroke="#bfbfbf" points="664,-56.5 664,-75.5 735,-75.5 735,-56.5 664,-56.5"/>
<text text-anchor="middle" x="699.5" y="-63.5" font-family="Helvetica,sans-Serif" font-size="10.00">QDateTime</text>
</g>
<!-- Node17&#45;&gt;Node19 -->
<g id="edge21" class="edge"><title>Node17&#45;&gt;Node19</title>
<path fill="none" stroke="midnightblue" d="M784.273,-112.324C768.149,-103.703 743.2,-90.3643 724.536,-80.3855"/>
<polygon fill="midnightblue" stroke="midnightblue" points="726.156,-77.283 715.687,-75.6545 722.856,-83.456 726.156,-77.283"/>
</g>
<!-- Node20 -->
<g id="node20" class="node"><title>Node20</title>
<g id="a_node20"><a xlink:href="../../de/de6/torchttpreader_8h.html" target="_top" xlink:title="torchttpreader.h">
<polygon fill="white" stroke="black" points="753,-56.5 753,-75.5 848,-75.5 848,-56.5 753,-56.5"/>
<text text-anchor="middle" x="800.5" y="-63.5" font-family="Helvetica,sans-Serif" font-size="10.00">torchttpreader.h</text>
</a>
</g>
</g>
<!-- Node17&#45;&gt;Node20 -->
<g id="edge22" class="edge"><title>Node17&#45;&gt;Node20</title>
<path fill="none" stroke="midnightblue" d="M800.5,-112.083C800.5,-105.006 800.5,-94.8611 800.5,-85.9865"/>
<polygon fill="midnightblue" stroke="midnightblue" points="804,-85.751 800.5,-75.7511 797,-85.7511 804,-85.751"/>
</g>
<!-- Node21 -->
<g id="node21" class="node"><title>Node21</title>
<polygon fill="white" stroke="#bfbfbf" points="720,-0.5 720,-19.5 791,-19.5 791,-0.5 720,-0.5"/>
<text text-anchor="middle" x="755.5" y="-7.5" font-family="Helvetica,sans-Serif" font-size="10.00">QByteArray</text>
</g>
<!-- Node20&#45;&gt;Node21 -->
<g id="edge23" class="edge"><title>Node20&#45;&gt;Node21</title>
<path fill="none" stroke="midnightblue" d="M793.069,-56.083C786.647,-48.3768 777.194,-37.0333 769.378,-27.6531"/>
<polygon fill="midnightblue" stroke="midnightblue" points="771.883,-25.1927 762.793,-19.7511 766.506,-29.674 771.883,-25.1927"/>
</g>
<!-- Node22 -->
<g id="node22" class="node"><title>Node22</title>
<polygon fill="white" stroke="#bfbfbf" points="809.5,-0.5 809.5,-19.5 881.5,-19.5 881.5,-0.5 809.5,-0.5"/>
<text text-anchor="middle" x="845.5" y="-7.5" font-family="Helvetica,sans-Serif" font-size="10.00">QTcpSocket</text>
</g>
<!-- Node20&#45;&gt;Node22 -->
<g id="edge24" class="edge"><title>Node20&#45;&gt;Node22</title>
<path fill="none" stroke="midnightblue" d="M807.931,-56.083C814.353,-48.3768 823.806,-37.0333 831.622,-27.6531"/>
<polygon fill="midnightblue" stroke="midnightblue" points="834.494,-29.674 838.207,-19.7511 829.117,-25.1927 834.494,-29.674"/>
</g>
<!-- Node23&#45;&gt;Node5 -->
<g id="edge28" class="edge"><title>Node23&#45;&gt;Node5</title>
<path fill="none" stroke="midnightblue" d="M287.171,-225.257C321.315,-217.664 372.691,-204.79 415.5,-188 435.102,-180.312 484.964,-153.26 515.152,-136.574"/>
<polygon fill="midnightblue" stroke="midnightblue" points="517.149,-139.469 524.198,-131.559 513.755,-133.347 517.149,-139.469"/>
</g>
<!-- Node23&#45;&gt;Node6 -->
<g id="edge30" class="edge"><title>Node23&#45;&gt;Node6</title>
<path fill="none" stroke="midnightblue" d="M213.823,-224.454C178.414,-215.953 122.323,-202.436 64.974,-188.35"/>
<polygon fill="midnightblue" stroke="midnightblue" points="65.5585,-184.89 55.012,-185.901 63.8871,-191.687 65.5585,-184.89"/>
</g>
<!-- Node23&#45;&gt;Node7 -->
<g id="edge31" class="edge"><title>Node23&#45;&gt;Node7</title>
<path fill="none" stroke="midnightblue" d="M231.505,-224.324C213.462,-215.625 185.453,-202.12 164.697,-192.113"/>
<polygon fill="midnightblue" stroke="midnightblue" points="165.978,-188.845 155.45,-187.655 162.938,-195.15 165.978,-188.845"/>
</g>
<!-- Node23&#45;&gt;Node15 -->
<g id="edge29" class="edge"><title>Node23&#45;&gt;Node15</title>
<path fill="none" stroke="midnightblue" d="M246.106,-224.35C238.142,-202.453 220.994,-144.279 249.5,-112 270.767,-87.9175 486.294,-73.6889 573.835,-68.8641"/>
<polygon fill="midnightblue" stroke="midnightblue" points="574.058,-72.3573 583.855,-68.3224 573.68,-65.3675 574.058,-72.3573"/>
</g>
<!-- Node24 -->
<g id="node24" class="node"><title>Node24</title>
<polygon fill="white" stroke="#bfbfbf" points="259,-112.5 259,-131.5 308,-131.5 308,-112.5 259,-112.5"/>
<text text-anchor="middle" x="283.5" y="-119.5" font-family="Helvetica,sans-Serif" font-size="10.00">QHash</text>
</g>
<!-- Node23&#45;&gt;Node24 -->
<g id="edge27" class="edge"><title>Node23&#45;&gt;Node24</title>
<path fill="none" stroke="midnightblue" d="M252.168,-224.368C257.68,-206.537 270.427,-165.295 277.852,-141.272"/>
<polygon fill="midnightblue" stroke="midnightblue" points="281.235,-142.179 280.844,-131.591 274.547,-140.112 281.235,-142.179"/>
</g>
<!-- Node25 -->
<g id="node25" class="node"><title>Node25</title>
<g id="a_node25"><a xlink:href="../../d2/d5b/torcdevicehandler_8h.html" target="_top" xlink:title="torcdevicehandler.h">
<polygon fill="white" stroke="black" points="296.5,-168.5 296.5,-187.5 406.5,-187.5 406.5,-168.5 296.5,-168.5"/>
<text text-anchor="middle" x="351.5" y="-175.5" font-family="Helvetica,sans-Serif" font-size="10.00">torcdevicehandler.h</text>
</a>
</g>
</g>
<!-- Node23&#45;&gt;Node25 -->
<g id="edge32" class="edge"><title>Node23&#45;&gt;Node25</title>
<path fill="none" stroke="midnightblue" d="M265.888,-224.324C282.171,-215.703 307.367,-202.364 326.216,-192.386"/>
<polygon fill="midnightblue" stroke="midnightblue" points="327.952,-195.427 335.153,-187.655 324.677,-189.24 327.952,-195.427"/>
</g>
<!-- Node25&#45;&gt;Node5 -->
<g id="edge34" class="edge"><title>Node25&#45;&gt;Node5</title>
<path fill="none" stroke="midnightblue" d="M381.289,-168.444C414.271,-158.97 467.456,-143.693 502.937,-133.502"/>
<polygon fill="midnightblue" stroke="midnightblue" points="504.245,-136.768 512.89,-130.643 502.312,-130.04 504.245,-136.768"/>
</g>
<!-- Node25&#45;&gt;Node11 -->
<g id="edge35" class="edge"><title>Node25&#45;&gt;Node11</title>
<path fill="none" stroke="midnightblue" d="M367.085,-168.324C382.499,-159.743 406.312,-146.486 424.21,-136.522"/>
<polygon fill="midnightblue" stroke="midnightblue" points="425.919,-139.577 432.954,-131.655 422.514,-133.461 425.919,-139.577"/>
</g>
<!-- Node25&#45;&gt;Node24 -->
<g id="edge33" class="edge"><title>Node25&#45;&gt;Node24</title>
<path fill="none" stroke="midnightblue" d="M340.575,-168.324C330.325,-160.185 314.779,-147.839 302.499,-138.087"/>
<polygon fill="midnightblue" stroke="midnightblue" points="304.632,-135.312 294.624,-131.834 300.279,-140.794 304.632,-135.312"/>
</g>
<!-- Node26 -->
<g id="node26" class="node"><title>Node26</title>
<polygon fill="white" stroke="#bfbfbf" points="326.5,-112.5 326.5,-131.5 384.5,-131.5 384.5,-112.5 326.5,-112.5"/>
<text text-anchor="middle" x="355.5" y="-119.5" font-family="Helvetica,sans-Serif" font-size="10.00">QVariant</text>
</g>
<!-- Node25&#45;&gt;Node26 -->
<g id="edge36" class="edge"><title>Node25&#45;&gt;Node26</title>
<path fill="none" stroke="midnightblue" d="M352.161,-168.083C352.685,-161.006 353.436,-150.861 354.094,-141.986"/>
<polygon fill="midnightblue" stroke="midnightblue" points="357.603,-141.982 354.852,-131.751 350.623,-141.465 357.603,-141.982"/>
</g>
</g>
</svg>
