<?xml version="1.0" encoding="UTF-8" standalone="no"?>
<!DOCTYPE svg PUBLIC "-//W3C//DTD SVG 1.1//EN"
 "http://www.w3.org/Graphics/SVG/1.1/DTD/svg11.dtd">
<!-- Generated by graphviz version 2.38.0 (20140413.2041)
 -->
<!-- Title: torcpicamera.h Pages: 1 -->
<!--zoomable 420 -->
<svg id="main" version="1.1" xmlns="http://www.w3.org/2000/svg" xmlns:xlink="http://www.w3.org/1999/xlink" xml:space="preserve" onload="init(evt)">
<style type="text/css"><![CDATA[
.edge:hover path { stroke: red; }
.edge:hover polygon { stroke: red; fill: red; }
]]></style>
<script type="text/javascript"><![CDATA[
var edges = document.getElementsByTagName('g');
if (edges && edges.length) {
  for (var i=0;i<edges.length;i++) {
    if (edges[i].id.substr(0,4)=='edge') {
      edges[i].setAttribute('class','edge');
    }
  }
}
]]></script>
        <defs>
                <circle id="rim" cx="0" cy="0" r="7"/>
                <circle id="rim2" cx="0" cy="0" r="3.5"/>
                <g id="zoomPlus">
                        <use xlink:href="#rim" fill="#404040">
                                <set attributeName="fill" to="#808080" begin="zoomplus.mouseover" end="zoomplus.mouseout"/>
                        </use>
                        <path d="M-4,0h8M0,-4v8" fill="none" stroke="white" stroke-width="1.5" pointer-events="none"/>
                </g>
                <g id="zoomMin">
                        <use xlink:href="#rim" fill="#404040">
                                <set attributeName="fill" to="#808080" begin="zoomminus.mouseover" end="zoomminus.mouseout"/>
                        </use>
                        <path d="M-4,0h8" fill="none" stroke="white" stroke-width="1.5" pointer-events="none"/>
                </g>
                <g id="dirArrow">
                        <path fill="none" stroke="white" stroke-width="1.5" d="M0,-3.0v7 M-2.5,-0.5L0,-3.0L2.5,-0.5"/>
                </g>
               <g id="resetDef">
                       <use xlink:href="#rim2" fill="#404040">
                               <set attributeName="fill" to="#808080" begin="reset.mouseover" end="reset.mouseout"/>
                       </use>
               </g>
        </defs>

<script type="text/javascript">
var viewWidth = 1759;
var viewHeight = 420;
var sectionId = 'dynsection-0';
</script>
<script xlink:href="../../svgpan.js"/>
<svg id="graph" class="graph">
<g id="viewport">
<title>torcpicamera.h</title>
<polygon fill="white" stroke="none" points="-4,4 -4,-416 1755,-416 1755,4 -4,4"/>
<!-- Node1 -->
<g id="node1" class="node"><title>Node1</title>
<polygon fill="#bfbfbf" stroke="black" points="330,-392.5 330,-411.5 419,-411.5 419,-392.5 330,-392.5"/>
<text text-anchor="middle" x="374.5" y="-399.5" font-family="Helvetica,sans-Serif" font-size="10.00">torcpicamera.h</text>
</g>
<!-- Node2 -->
<g id="node2" class="node"><title>Node2</title>
<g id="a_node2"><a xlink:href="../../d7/df9/torcomxcore_8h.html" target="_top" xlink:title="torcomxcore.h">
<polygon fill="white" stroke="black" points="38.5,-168.5 38.5,-187.5 124.5,-187.5 124.5,-168.5 38.5,-168.5"/>
<text text-anchor="middle" x="81.5" y="-175.5" font-family="Helvetica,sans-Serif" font-size="10.00">torcomxcore.h</text>
</a>
</g>
</g>
<!-- Node1&#45;&gt;Node2 -->
<g id="edge1" class="edge"><title>Node1&#45;&gt;Node2</title>
<path fill="none" stroke="midnightblue" d="M329.592,-399.467C286.027,-396.142 219.504,-386.052 170.5,-356 119.219,-324.551 114.822,-300.62 94.5,-244 89.0876,-228.92 85.7173,-211.019 83.7687,-197.824"/>
<polygon fill="midnightblue" stroke="midnightblue" points="87.2002,-197.078 82.4067,-187.63 80.2619,-198.005 87.2002,-197.078"/>
</g>
<!-- Node6 -->
<g id="node6" class="node"><title>Node6</title>
<g id="a_node6"><a xlink:href="../../d1/de8/torcomxport_8h.html" target="_top" xlink:title="torcomxport.h">
<polygon fill="white" stroke="black" points="332,-280.5 332,-299.5 417,-299.5 417,-280.5 332,-280.5"/>
<text text-anchor="middle" x="374.5" y="-287.5" font-family="Helvetica,sans-Serif" font-size="10.00">torcomxport.h</text>
</a>
</g>
</g>
<!-- Node1&#45;&gt;Node6 -->
<g id="edge5" class="edge"><title>Node1&#45;&gt;Node6</title>
<path fill="none" stroke="midnightblue" d="M374.5,-392.368C374.5,-374.617 374.5,-333.666 374.5,-309.597"/>
<polygon fill="midnightblue" stroke="midnightblue" points="378,-309.591 374.5,-299.591 371,-309.591 378,-309.591"/>
</g>
<!-- Node10 -->
<g id="node10" class="node"><title>Node10</title>
<g id="a_node10"><a xlink:href="../../d3/de4/torcomxcomponent_8h.html" target="_top" xlink:title="torcomxcomponent.h">
<polygon fill="white" stroke="black" points="243.5,-224.5 243.5,-243.5 363.5,-243.5 363.5,-224.5 243.5,-224.5"/>
<text text-anchor="middle" x="303.5" y="-231.5" font-family="Helvetica,sans-Serif" font-size="10.00">torcomxcomponent.h</text>
</a>
</g>
</g>
<!-- Node1&#45;&gt;Node10 -->
<g id="edge18" class="edge"><title>Node1&#45;&gt;Node10</title>
<path fill="none" stroke="midnightblue" d="M369.324,-392.35C359.235,-375.214 336.689,-335.533 322.5,-300 316.369,-284.646 311.24,-266.546 307.863,-253.351"/>
<polygon fill="midnightblue" stroke="midnightblue" points="311.248,-252.459 305.454,-243.588 304.452,-254.136 311.248,-252.459"/>
</g>
<!-- Node12 -->
<g id="node12" class="node"><title>Node12</title>
<g id="a_node12"><a xlink:href="../../d5/ddd/torcomxtunnel_8h.html" target="_top" xlink:title="torcomxtunnel.h">
<polygon fill="white" stroke="black" points="180,-336.5 180,-355.5 275,-355.5 275,-336.5 180,-336.5"/>
<text text-anchor="middle" x="227.5" y="-343.5" font-family="Helvetica,sans-Serif" font-size="10.00">torcomxtunnel.h</text>
</a>
</g>
</g>
<!-- Node1&#45;&gt;Node12 -->
<g id="edge19" class="edge"><title>Node1&#45;&gt;Node12</title>
<path fill="none" stroke="midnightblue" d="M351.207,-392.444C326.693,-383.438 287.904,-369.189 260.3,-359.049"/>
<polygon fill="midnightblue" stroke="midnightblue" points="261.277,-355.679 250.684,-355.516 258.863,-362.25 261.277,-355.679"/>
</g>
<!-- Node13 -->
<g id="node13" class="node"><title>Node13</title>
<g id="a_node13"><a xlink:href="../../d4/d0f/torcmuxer_8h.html" target="_top" xlink:title="ffmpeg/torcmuxer.h">
<polygon fill="white" stroke="black" points="502,-336.5 502,-355.5 613,-355.5 613,-336.5 502,-336.5"/>
<text text-anchor="middle" x="557.5" y="-343.5" font-family="Helvetica,sans-Serif" font-size="10.00">ffmpeg/torcmuxer.h</text>
</a>
</g>
</g>
<!-- Node1&#45;&gt;Node13 -->
<g id="edge26" class="edge"><title>Node1&#45;&gt;Node13</title>
<path fill="none" stroke="midnightblue" d="M403.497,-392.444C434.685,-383.241 484.43,-368.562 518.908,-358.388"/>
<polygon fill="midnightblue" stroke="midnightblue" points="520.038,-361.704 528.639,-355.516 518.057,-354.99 520.038,-361.704"/>
</g>
<!-- Node20 -->
<g id="node20" class="node"><title>Node20</title>
<g id="a_node20"><a xlink:href="../../d3/d38/torccamera_8h.html" target="_top" xlink:title="torccamera.h">
<polygon fill="white" stroke="black" points="790,-336.5 790,-355.5 871,-355.5 871,-336.5 790,-336.5"/>
<text text-anchor="middle" x="830.5" y="-343.5" font-family="Helvetica,sans-Serif" font-size="10.00">torccamera.h</text>
</a>
</g>
</g>
<!-- Node1&#45;&gt;Node20 -->
<g id="edge34" class="edge"><title>Node1&#45;&gt;Node20</title>
<path fill="none" stroke="midnightblue" d="M419.053,-395.724C504.29,-385.63 689.94,-363.645 779.781,-353.006"/>
<polygon fill="midnightblue" stroke="midnightblue" points="780.212,-356.48 789.731,-351.828 779.388,-349.528 780.212,-356.48"/>
</g>
<!-- Node43 -->
<g id="node43" class="node"><title>Node43</title>
<polygon fill="white" stroke="#bfbfbf" points="889,-336.5 889,-355.5 1008,-355.5 1008,-336.5 889,-336.5"/>
<text text-anchor="middle" x="948.5" y="-343.5" font-family="Helvetica,sans-Serif" font-size="10.00">libavcodec/avcodec.h</text>
</g>
<!-- Node1&#45;&gt;Node43 -->
<g id="edge71" class="edge"><title>Node1&#45;&gt;Node43</title>
<path fill="none" stroke="midnightblue" d="M419.146,-397.637C505.635,-390.99 702.283,-375.224 878.696,-356.046"/>
<polygon fill="midnightblue" stroke="midnightblue" points="879.118,-359.521 888.679,-354.955 878.358,-352.562 879.118,-359.521"/>
</g>
<!-- Node3 -->
<g id="node3" class="node"><title>Node3</title>
<polygon fill="white" stroke="#bfbfbf" points="96.5,-112.5 96.5,-131.5 152.5,-131.5 152.5,-112.5 96.5,-112.5"/>
<text text-anchor="middle" x="124.5" y="-119.5" font-family="Helvetica,sans-Serif" font-size="10.00">QLibrary</text>
</g>
<!-- Node2&#45;&gt;Node3 -->
<g id="edge2" class="edge"><title>Node2&#45;&gt;Node3</title>
<path fill="none" stroke="midnightblue" d="M88.6006,-168.083C94.737,-160.377 103.77,-149.033 111.239,-139.653"/>
<polygon fill="midnightblue" stroke="midnightblue" points="114.04,-141.754 117.532,-131.751 108.564,-137.394 114.04,-141.754"/>
</g>
<!-- Node4 -->
<g id="node4" class="node"><title>Node4</title>
<polygon fill="white" stroke="#bfbfbf" points="0,-112.5 0,-131.5 79,-131.5 79,-112.5 0,-112.5"/>
<text text-anchor="middle" x="39.5" y="-119.5" font-family="Helvetica,sans-Serif" font-size="10.00">OMX_Types.h</text>
</g>
<!-- Node2&#45;&gt;Node4 -->
<g id="edge3" class="edge"><title>Node2&#45;&gt;Node4</title>
<path fill="none" stroke="midnightblue" d="M74.5646,-168.083C68.5708,-160.377 59.7482,-149.033 52.4524,-139.653"/>
<polygon fill="midnightblue" stroke="midnightblue" points="55.2086,-137.496 46.3064,-131.751 49.6831,-141.793 55.2086,-137.496"/>
</g>
<!-- Node5 -->
<g id="node5" class="node"><title>Node5</title>
<polygon fill="white" stroke="#bfbfbf" points="226,-112.5 226,-131.5 301,-131.5 301,-112.5 226,-112.5"/>
<text text-anchor="middle" x="263.5" y="-119.5" font-family="Helvetica,sans-Serif" font-size="10.00">OMX_Core.h</text>
</g>
<!-- Node2&#45;&gt;Node5 -->
<g id="edge4" class="edge"><title>Node2&#45;&gt;Node5</title>
<path fill="none" stroke="midnightblue" d="M110.338,-168.444C141.356,-159.241 190.829,-144.562 225.118,-134.388"/>
<polygon fill="midnightblue" stroke="midnightblue" points="226.205,-137.716 234.796,-131.516 224.214,-131.006 226.205,-137.716"/>
</g>
<!-- Node6&#45;&gt;Node2 -->
<g id="edge9" class="edge"><title>Node6&#45;&gt;Node2</title>
<path fill="none" stroke="midnightblue" d="M345.279,-280.452C316.772,-271.916 272.303,-258.073 234.5,-244 190.082,-227.465 139.688,-205.395 109.265,-191.696"/>
<polygon fill="midnightblue" stroke="midnightblue" points="110.676,-188.493 100.122,-187.56 107.791,-194.871 110.676,-188.493"/>
</g>
<!-- Node6&#45;&gt;Node5 -->
<g id="edge16" class="edge"><title>Node6&#45;&gt;Node5</title>
<path fill="none" stroke="midnightblue" d="M392.852,-280.428C432.152,-260.947 518.089,-211.645 482.5,-168 461.327,-142.034 369.119,-130.625 311.31,-125.947"/>
<polygon fill="midnightblue" stroke="midnightblue" points="311.531,-122.454 301.292,-125.176 310.994,-129.433 311.531,-122.454"/>
</g>
<!-- Node7 -->
<g id="node7" class="node"><title>Node7</title>
<polygon fill="white" stroke="#bfbfbf" points="805,-112.5 805,-131.5 858,-131.5 858,-112.5 805,-112.5"/>
<text text-anchor="middle" x="831.5" y="-119.5" font-family="Helvetica,sans-Serif" font-size="10.00">QMutex</text>
</g>
<!-- Node6&#45;&gt;Node7 -->
<g id="edge6" class="edge"><title>Node6&#45;&gt;Node7</title>
<path fill="none" stroke="midnightblue" d="M396.811,-280.36C418.146,-271.862 451.04,-258.141 478.5,-244 536.642,-214.058 543.509,-191.602 604.5,-168 668.808,-143.114 748.92,-131.37 794.739,-126.333"/>
<polygon fill="midnightblue" stroke="midnightblue" points="795.22,-129.801 804.799,-125.274 794.487,-122.84 795.22,-129.801"/>
</g>
<!-- Node8 -->
<g id="node8" class="node"><title>Node8</title>
<polygon fill="white" stroke="#bfbfbf" points="534.5,-224.5 534.5,-243.5 590.5,-243.5 590.5,-224.5 534.5,-224.5"/>
<text text-anchor="middle" x="562.5" y="-231.5" font-family="Helvetica,sans-Serif" font-size="10.00">QQueue</text>
</g>
<!-- Node6&#45;&gt;Node8 -->
<g id="edge7" class="edge"><title>Node6&#45;&gt;Node8</title>
<path fill="none" stroke="midnightblue" d="M404.289,-280.444C436.8,-271.105 488.941,-256.129 524.405,-245.942"/>
<polygon fill="midnightblue" stroke="midnightblue" points="525.74,-249.2 534.385,-243.075 523.808,-242.472 525.74,-249.2"/>
</g>
<!-- Node9 -->
<g id="node9" class="node"><title>Node9</title>
<polygon fill="white" stroke="#bfbfbf" points="385,-168.5 385,-187.5 474,-187.5 474,-168.5 385,-168.5"/>
<text text-anchor="middle" x="429.5" y="-175.5" font-family="Helvetica,sans-Serif" font-size="10.00">QWaitCondition</text>
</g>
<!-- Node6&#45;&gt;Node9 -->
<g id="edge8" class="edge"><title>Node6&#45;&gt;Node9</title>
<path fill="none" stroke="midnightblue" d="M381.36,-280.446C388.149,-271.684 398.511,-257.474 405.5,-244 413.289,-228.983 419.762,-210.851 424.016,-197.557"/>
<polygon fill="midnightblue" stroke="midnightblue" points="427.452,-198.29 427.046,-187.703 420.761,-196.232 427.452,-198.29"/>
</g>
<!-- Node6&#45;&gt;Node10 -->
<g id="edge10" class="edge"><title>Node6&#45;&gt;Node10</title>
<path fill="none" stroke="midnightblue" d="M363.093,-280.324C352.391,-272.185 336.159,-259.839 323.337,-250.087"/>
<polygon fill="midnightblue" stroke="midnightblue" points="325.193,-247.102 315.115,-243.834 320.956,-252.673 325.193,-247.102"/>
</g>
<!-- Node11 -->
<g id="node11" class="node"><title>Node11</title>
<polygon fill="white" stroke="#bfbfbf" points="181,-168.5 181,-187.5 290,-187.5 290,-168.5 181,-168.5"/>
<text text-anchor="middle" x="235.5" y="-175.5" font-family="Helvetica,sans-Serif" font-size="10.00">OMX_Component.h</text>
</g>
<!-- Node6&#45;&gt;Node11 -->
<g id="edge17" class="edge"><title>Node6&#45;&gt;Node11</title>
<path fill="none" stroke="midnightblue" d="M377.067,-280.415C380.531,-266.937 384.941,-240.636 372.5,-224 355.616,-201.422 327.076,-190 300.402,-184.288"/>
<polygon fill="midnightblue" stroke="midnightblue" points="300.776,-180.797 290.298,-182.367 299.468,-187.674 300.776,-180.797"/>
</g>
<!-- Node10&#45;&gt;Node2 -->
<g id="edge13" class="edge"><title>Node10&#45;&gt;Node2</title>
<path fill="none" stroke="midnightblue" d="M268.323,-224.444C229.921,-215.102 168.324,-200.119 126.445,-189.933"/>
<polygon fill="midnightblue" stroke="midnightblue" points="127.056,-186.479 116.512,-187.516 125.401,-193.281 127.056,-186.479"/>
</g>
<!-- Node10&#45;&gt;Node5 -->
<g id="edge14" class="edge"><title>Node10&#45;&gt;Node5</title>
<path fill="none" stroke="midnightblue" d="M304.382,-224.239C305.334,-211.417 305.846,-187.002 298.5,-168 294.368,-157.312 286.814,-147.087 279.779,-139.092"/>
<polygon fill="midnightblue" stroke="midnightblue" points="282.192,-136.548 272.801,-131.643 277.083,-141.334 282.192,-136.548"/>
</g>
<!-- Node10&#45;&gt;Node7 -->
<g id="edge11" class="edge"><title>Node10&#45;&gt;Node7</title>
<path fill="none" stroke="midnightblue" d="M309.913,-224.388C321.288,-209.857 346.545,-180.804 375.5,-168 450.459,-134.852 700.185,-125.912 794.767,-123.685"/>
<polygon fill="midnightblue" stroke="midnightblue" points="795.073,-127.179 804.992,-123.456 794.916,-120.181 795.073,-127.179"/>
</g>
<!-- Node10&#45;&gt;Node9 -->
<g id="edge12" class="edge"><title>Node10&#45;&gt;Node9</title>
<path fill="none" stroke="midnightblue" d="M323.465,-224.444C344.109,-215.596 376.563,-201.687 400.132,-191.586"/>
<polygon fill="midnightblue" stroke="midnightblue" points="401.816,-194.673 409.628,-187.516 399.058,-188.239 401.816,-194.673"/>
</g>
<!-- Node10&#45;&gt;Node11 -->
<g id="edge15" class="edge"><title>Node10&#45;&gt;Node11</title>
<path fill="none" stroke="midnightblue" d="M292.575,-224.324C282.325,-216.185 266.779,-203.839 254.499,-194.087"/>
<polygon fill="midnightblue" stroke="midnightblue" points="256.632,-191.312 246.624,-187.834 252.279,-196.794 256.632,-191.312"/>
</g>
<!-- Node12&#45;&gt;Node2 -->
<g id="edge21" class="edge"><title>Node12&#45;&gt;Node2</title>
<path fill="none" stroke="midnightblue" d="M202.918,-336.458C184.683,-329.113 160.191,-316.999 143.5,-300 113.981,-269.936 95.4841,-222.969 86.9901,-197.288"/>
<polygon fill="midnightblue" stroke="midnightblue" points="90.3097,-196.177 83.9593,-187.696 83.6349,-198.286 90.3097,-196.177"/>
</g>
<!-- Node12&#45;&gt;Node5 -->
<g id="edge24" class="edge"><title>Node12&#45;&gt;Node5</title>
<path fill="none" stroke="midnightblue" d="M219.9,-336.248C197.469,-309.311 135.324,-225.966 171.5,-168 181.508,-151.964 199.07,-141.486 216.186,-134.716"/>
<polygon fill="midnightblue" stroke="midnightblue" points="217.377,-138.007 225.598,-131.324 215.004,-131.421 217.377,-138.007"/>
</g>
<!-- Node12&#45;&gt;Node6 -->
<g id="edge22" class="edge"><title>Node12&#45;&gt;Node6</title>
<path fill="none" stroke="midnightblue" d="M250.793,-336.444C275.307,-327.438 314.096,-313.189 341.7,-303.049"/>
<polygon fill="midnightblue" stroke="midnightblue" points="343.137,-306.25 351.316,-299.516 340.723,-299.679 343.137,-306.25"/>
</g>
<!-- Node12&#45;&gt;Node7 -->
<g id="edge20" class="edge"><title>Node12&#45;&gt;Node7</title>
<path fill="none" stroke="midnightblue" d="M275.261,-337.606C315.971,-330.492 375.639,-318.125 425.5,-300 443.808,-293.345 446.319,-286.994 464.5,-280 522.456,-257.706 541.621,-266.494 599.5,-244 679.831,-212.78 768.517,-161.378 809.054,-136.854"/>
<polygon fill="midnightblue" stroke="midnightblue" points="810.903,-139.826 817.623,-131.635 807.262,-133.847 810.903,-139.826"/>
</g>
<!-- Node12&#45;&gt;Node10 -->
<g id="edge23" class="edge"><title>Node12&#45;&gt;Node10</title>
<path fill="none" stroke="midnightblue" d="M233.464,-336.368C246.006,-318.215 275.31,-275.802 291.761,-251.99"/>
<polygon fill="midnightblue" stroke="midnightblue" points="294.759,-253.808 297.564,-243.591 289,-249.829 294.759,-253.808"/>
</g>
<!-- Node12&#45;&gt;Node11 -->
<g id="edge25" class="edge"><title>Node12&#45;&gt;Node11</title>
<path fill="none" stroke="midnightblue" d="M227.93,-336.075C229.189,-309.945 232.887,-233.211 234.605,-197.577"/>
<polygon fill="midnightblue" stroke="midnightblue" points="238.102,-197.725 235.087,-187.568 231.11,-197.388 238.102,-197.725"/>
</g>
<!-- Node14 -->
<g id="node14" class="node"><title>Node14</title>
<polygon fill="white" stroke="#bfbfbf" points="473.5,-280.5 473.5,-299.5 531.5,-299.5 531.5,-280.5 473.5,-280.5"/>
<text text-anchor="middle" x="502.5" y="-287.5" font-family="Helvetica,sans-Serif" font-size="10.00">QtGlobal</text>
</g>
<!-- Node13&#45;&gt;Node14 -->
<g id="edge27" class="edge"><title>Node13&#45;&gt;Node14</title>
<path fill="none" stroke="midnightblue" d="M548.418,-336.083C540.329,-328.141 528.305,-316.335 518.59,-306.797"/>
<polygon fill="midnightblue" stroke="midnightblue" points="521.001,-304.26 511.413,-299.751 516.097,-309.254 521.001,-304.26"/>
</g>
<!-- Node15 -->
<g id="node15" class="node"><title>Node15</title>
<g id="a_node15"><a xlink:href="../../de/df7/torcsegmentedringbuffer_8h.html" target="_top" xlink:title="torcsegmentedringbuffer.h">
<polygon fill="white" stroke="black" points="693.5,-280.5 693.5,-299.5 837.5,-299.5 837.5,-280.5 693.5,-280.5"/>
<text text-anchor="middle" x="765.5" y="-287.5" font-family="Helvetica,sans-Serif" font-size="10.00">torcsegmentedringbuffer.h</text>
</a>
</g>
</g>
<!-- Node13&#45;&gt;Node15 -->
<g id="edge28" class="edge"><title>Node13&#45;&gt;Node15</title>
<path fill="none" stroke="midnightblue" d="M590.458,-336.444C626.287,-327.142 683.663,-312.246 722.891,-302.062"/>
<polygon fill="midnightblue" stroke="midnightblue" points="723.896,-305.417 732.696,-299.516 722.137,-298.642 723.896,-305.417"/>
</g>
<!-- Node19 -->
<g id="node19" class="node"><title>Node19</title>
<polygon fill="white" stroke="#bfbfbf" points="549.5,-280.5 549.5,-299.5 675.5,-299.5 675.5,-280.5 549.5,-280.5"/>
<text text-anchor="middle" x="612.5" y="-287.5" font-family="Helvetica,sans-Serif" font-size="10.00">libavformat/avformat.h</text>
</g>
<!-- Node13&#45;&gt;Node19 -->
<g id="edge33" class="edge"><title>Node13&#45;&gt;Node19</title>
<path fill="none" stroke="midnightblue" d="M566.582,-336.083C574.671,-328.141 586.695,-316.335 596.41,-306.797"/>
<polygon fill="midnightblue" stroke="midnightblue" points="598.903,-309.254 603.587,-299.751 593.999,-304.26 598.903,-309.254"/>
</g>
<!-- Node15&#45;&gt;Node8 -->
<g id="edge30" class="edge"><title>Node15&#45;&gt;Node8</title>
<path fill="none" stroke="midnightblue" d="M733.334,-280.444C697.209,-270.834 638.64,-255.254 600.343,-245.067"/>
<polygon fill="midnightblue" stroke="midnightblue" points="601.157,-241.661 590.593,-242.473 599.357,-248.426 601.157,-241.661"/>
</g>
<!-- Node16 -->
<g id="node16" class="node"><title>Node16</title>
<polygon fill="white" stroke="#bfbfbf" points="849,-56.5 849,-75.5 890,-75.5 890,-56.5 849,-56.5"/>
<text text-anchor="middle" x="869.5" y="-63.5" font-family="Helvetica,sans-Serif" font-size="10.00">QPair</text>
</g>
<!-- Node15&#45;&gt;Node16 -->
<g id="edge29" class="edge"><title>Node15&#45;&gt;Node16</title>
<path fill="none" stroke="midnightblue" d="M732.123,-280.457C701.678,-270.717 663.171,-252.372 675.5,-224 707.34,-150.729 793.955,-101.559 839.923,-79.7832"/>
<polygon fill="midnightblue" stroke="midnightblue" points="841.47,-82.924 849.081,-75.5534 838.535,-76.5691 841.47,-82.924"/>
</g>
<!-- Node17 -->
<g id="node17" class="node"><title>Node17</title>
<polygon fill="white" stroke="#bfbfbf" points="684.5,-224.5 684.5,-243.5 750.5,-243.5 750.5,-224.5 684.5,-224.5"/>
<text text-anchor="middle" x="717.5" y="-231.5" font-family="Helvetica,sans-Serif" font-size="10.00">QIODevice</text>
</g>
<!-- Node15&#45;&gt;Node17 -->
<g id="edge31" class="edge"><title>Node15&#45;&gt;Node17</title>
<path fill="none" stroke="midnightblue" d="M757.574,-280.083C750.654,-272.298 740.435,-260.801 732.048,-251.367"/>
<polygon fill="midnightblue" stroke="midnightblue" points="734.538,-248.9 725.279,-243.751 729.306,-253.55 734.538,-248.9"/>
</g>
<!-- Node18 -->
<g id="node18" class="node"><title>Node18</title>
<polygon fill="white" stroke="#bfbfbf" points="768.5,-224.5 768.5,-243.5 860.5,-243.5 860.5,-224.5 768.5,-224.5"/>
<text text-anchor="middle" x="814.5" y="-231.5" font-family="Helvetica,sans-Serif" font-size="10.00">QReadWriteLock</text>
</g>
<!-- Node15&#45;&gt;Node18 -->
<g id="edge32" class="edge"><title>Node15&#45;&gt;Node18</title>
<path fill="none" stroke="midnightblue" d="M773.591,-280.083C780.655,-272.298 791.088,-260.801 799.649,-251.367"/>
<polygon fill="midnightblue" stroke="midnightblue" points="802.431,-253.509 806.559,-243.751 797.247,-248.805 802.431,-253.509"/>
</g>
<!-- Node20&#45;&gt;Node15 -->
<g id="edge38" class="edge"><title>Node20&#45;&gt;Node15</title>
<path fill="none" stroke="midnightblue" d="M820.057,-336.324C810.354,-328.263 795.685,-316.077 784,-306.369"/>
<polygon fill="midnightblue" stroke="midnightblue" points="786.062,-303.532 776.133,-299.834 781.589,-308.916 786.062,-303.532"/>
</g>
<!-- Node21 -->
<g id="node21" class="node"><title>Node21</title>
<polygon fill="white" stroke="#bfbfbf" points="860,-168.5 860,-187.5 915,-187.5 915,-168.5 860,-168.5"/>
<text text-anchor="middle" x="887.5" y="-175.5" font-family="Helvetica,sans-Serif" font-size="10.00">QObject</text>
</g>
<!-- Node20&#45;&gt;Node21 -->
<g id="edge35" class="edge"><title>Node20&#45;&gt;Node21</title>
<path fill="none" stroke="midnightblue" d="M864.244,-336.456C894.932,-327.922 936.859,-314.081 946.5,-300 953.447,-289.854 960.98,-256.515 944.5,-224 937.823,-210.826 925.322,-200.287 913.725,-192.729"/>
<polygon fill="midnightblue" stroke="midnightblue" points="915.511,-189.719 905.144,-187.536 911.887,-195.708 915.511,-189.719"/>
</g>
<!-- Node22 -->
<g id="node22" class="node"><title>Node22</title>
<g id="a_node22"><a xlink:href="../../dd/db0/torcqthread_8h.html" target="_top" xlink:title="torcqthread.h">
<polygon fill="white" stroke="black" points="855.5,-280.5 855.5,-299.5 937.5,-299.5 937.5,-280.5 855.5,-280.5"/>
<text text-anchor="middle" x="896.5" y="-287.5" font-family="Helvetica,sans-Serif" font-size="10.00">torcqthread.h</text>
</a>
</g>
</g>
<!-- Node20&#45;&gt;Node22 -->
<g id="edge36" class="edge"><title>Node20&#45;&gt;Node22</title>
<path fill="none" stroke="midnightblue" d="M841.104,-336.324C850.956,-328.263 865.851,-316.077 877.715,-306.369"/>
<polygon fill="midnightblue" stroke="midnightblue" points="880.18,-308.875 885.703,-299.834 875.747,-303.457 880.18,-308.875"/>
</g>
<!-- Node24 -->
<g id="node24" class="node"><title>Node24</title>
<g id="a_node24"><a xlink:href="../../dc/d01/torcoutput_8h.html" target="_top" xlink:title="torcoutput.h">
<polygon fill="white" stroke="black" points="1035.5,-280.5 1035.5,-299.5 1111.5,-299.5 1111.5,-280.5 1035.5,-280.5"/>
<text text-anchor="middle" x="1073.5" y="-287.5" font-family="Helvetica,sans-Serif" font-size="10.00">torcoutput.h</text>
</a>
</g>
</g>
<!-- Node20&#45;&gt;Node24 -->
<g id="edge39" class="edge"><title>Node20&#45;&gt;Node24</title>
<path fill="none" stroke="midnightblue" d="M869.004,-336.444C911.306,-327.043 979.319,-311.929 1025.17,-301.739"/>
<polygon fill="midnightblue" stroke="midnightblue" points="1026.17,-305.102 1035.18,-299.516 1024.65,-298.269 1026.17,-305.102"/>
</g>
<!-- Node23 -->
<g id="node23" class="node"><title>Node23</title>
<polygon fill="white" stroke="#bfbfbf" points="879,-224.5 879,-243.5 936,-243.5 936,-224.5 879,-224.5"/>
<text text-anchor="middle" x="907.5" y="-231.5" font-family="Helvetica,sans-Serif" font-size="10.00">QThread</text>
</g>
<!-- Node22&#45;&gt;Node23 -->
<g id="edge37" class="edge"><title>Node22&#45;&gt;Node23</title>
<path fill="none" stroke="midnightblue" d="M898.316,-280.083C899.774,-272.927 901.871,-262.635 903.693,-253.691"/>
<polygon fill="midnightblue" stroke="midnightblue" points="907.151,-254.248 905.717,-243.751 900.292,-252.851 907.151,-254.248"/>
</g>
<!-- Node24&#45;&gt;Node7 -->
<g id="edge40" class="edge"><title>Node24&#45;&gt;Node7</title>
<path fill="none" stroke="midnightblue" d="M1057.86,-280.472C1033.83,-267.522 986.245,-242.455 944.5,-224 903.583,-205.912 880.821,-220.894 850.5,-188 838.931,-175.449 834.373,-156.227 832.595,-141.938"/>
<polygon fill="midnightblue" stroke="midnightblue" points="836.061,-141.406 831.684,-131.758 829.089,-142.03 836.061,-141.406"/>
</g>
<!-- Node24&#45;&gt;Node21 -->
<g id="edge41" class="edge"><title>Node24&#45;&gt;Node21</title>
<path fill="none" stroke="midnightblue" d="M1067.94,-280.131C1058.83,-266.264 1039.4,-239.44 1016.5,-224 1001.26,-213.725 957.201,-199.4 924.797,-189.693"/>
<polygon fill="midnightblue" stroke="midnightblue" points="925.742,-186.323 915.16,-186.839 923.754,-193.035 925.742,-186.323"/>
</g>
<!-- Node25 -->
<g id="node25" class="node"><title>Node25</title>
<g id="a_node25"><a xlink:href="../../d8/dfe/torcreferencecounted_8h.html" target="_top" xlink:title="torcreferencecounted.h">
<polygon fill="white" stroke="black" points="1214,-168.5 1214,-187.5 1343,-187.5 1343,-168.5 1214,-168.5"/>
<text text-anchor="middle" x="1278.5" y="-175.5" font-family="Helvetica,sans-Serif" font-size="10.00">torcreferencecounted.h</text>
</a>
</g>
</g>
<!-- Node24&#45;&gt;Node25 -->
<g id="edge42" class="edge"><title>Node24&#45;&gt;Node25</title>
<path fill="none" stroke="midnightblue" d="M1089.59,-280.368C1125.21,-261.251 1210.98,-215.229 1253.6,-192.361"/>
<polygon fill="midnightblue" stroke="midnightblue" points="1255.33,-195.404 1262.49,-187.591 1252.02,-189.236 1255.33,-195.404"/>
</g>
<!-- Node27 -->
<g id="node27" class="node"><title>Node27</title>
<g id="a_node27"><a xlink:href="../../d3/dee/torchttpservice_8h.html" target="_top" xlink:title="torchttpservice.h">
<polygon fill="white" stroke="black" points="1360.5,-224.5 1360.5,-243.5 1458.5,-243.5 1458.5,-224.5 1360.5,-224.5"/>
<text text-anchor="middle" x="1409.5" y="-231.5" font-family="Helvetica,sans-Serif" font-size="10.00">torchttpservice.h</text>
</a>
</g>
</g>
<!-- Node24&#45;&gt;Node27 -->
<g id="edge44" class="edge"><title>Node24&#45;&gt;Node27</title>
<path fill="none" stroke="midnightblue" d="M1111.72,-282.858C1169.96,-273.498 1281.41,-255.585 1350.22,-244.527"/>
<polygon fill="midnightblue" stroke="midnightblue" points="1351.15,-247.923 1360.47,-242.881 1350.04,-241.012 1351.15,-247.923"/>
</g>
<!-- Node39 -->
<g id="node39" class="node"><title>Node39</title>
<g id="a_node39"><a xlink:href="../../d1/df7/torcdevice_8h.html" target="_top" xlink:title="torcdevice.h">
<polygon fill="white" stroke="black" points="1069,-224.5 1069,-243.5 1144,-243.5 1144,-224.5 1069,-224.5"/>
<text text-anchor="middle" x="1106.5" y="-231.5" font-family="Helvetica,sans-Serif" font-size="10.00">torcdevice.h</text>
</a>
</g>
</g>
<!-- Node24&#45;&gt;Node39 -->
<g id="edge61" class="edge"><title>Node24&#45;&gt;Node39</title>
<path fill="none" stroke="midnightblue" d="M1078.95,-280.083C1083.51,-272.613 1090.17,-261.724 1095.79,-252.52"/>
<polygon fill="midnightblue" stroke="midnightblue" points="1098.92,-254.109 1101.15,-243.751 1092.95,-250.459 1098.92,-254.109"/>
</g>
<!-- Node26 -->
<g id="node26" class="node"><title>Node26</title>
<polygon fill="white" stroke="#bfbfbf" points="1243.5,-112.5 1243.5,-131.5 1313.5,-131.5 1313.5,-112.5 1243.5,-112.5"/>
<text text-anchor="middle" x="1278.5" y="-119.5" font-family="Helvetica,sans-Serif" font-size="10.00">QAtomicInt</text>
</g>
<!-- Node25&#45;&gt;Node26 -->
<g id="edge43" class="edge"><title>Node25&#45;&gt;Node26</title>
<path fill="none" stroke="midnightblue" d="M1278.5,-168.083C1278.5,-161.006 1278.5,-150.861 1278.5,-141.986"/>
<polygon fill="midnightblue" stroke="midnightblue" points="1282,-141.751 1278.5,-131.751 1275,-141.751 1282,-141.751"/>
</g>
<!-- Node27&#45;&gt;Node7 -->
<g id="edge46" class="edge"><title>Node27&#45;&gt;Node7</title>
<path fill="none" stroke="midnightblue" d="M1360.47,-233.453C1282.49,-232.887 1126.19,-226.471 1000.5,-188 982.25,-182.414 980.021,-175.567 962.5,-168 931.179,-154.473 894.339,-142.118 867.717,-133.791"/>
<polygon fill="midnightblue" stroke="midnightblue" points="868.635,-130.411 858.047,-130.803 866.568,-137.099 868.635,-130.411"/>
</g>
<!-- Node28 -->
<g id="node28" class="node"><title>Node28</title>
<polygon fill="white" stroke="#bfbfbf" points="1236.5,-56.5 1236.5,-75.5 1280.5,-75.5 1280.5,-56.5 1236.5,-56.5"/>
<text text-anchor="middle" x="1258.5" y="-63.5" font-family="Helvetica,sans-Serif" font-size="10.00">QMap</text>
</g>
<!-- Node27&#45;&gt;Node28 -->
<g id="edge45" class="edge"><title>Node27&#45;&gt;Node28</title>
<path fill="none" stroke="midnightblue" d="M1404.66,-224.339C1392.66,-203.381 1359.83,-148.943 1322.5,-112 1310.46,-100.084 1294.96,-89.0973 1282.23,-80.963"/>
<polygon fill="midnightblue" stroke="midnightblue" points="1283.88,-77.8691 1273.54,-75.5715 1280.19,-83.8174 1283.88,-77.8691"/>
</g>
<!-- Node29 -->
<g id="node29" class="node"><title>Node29</title>
<polygon fill="white" stroke="#bfbfbf" points="1555,-168.5 1555,-187.5 1634,-187.5 1634,-168.5 1555,-168.5"/>
<text text-anchor="middle" x="1594.5" y="-175.5" font-family="Helvetica,sans-Serif" font-size="10.00">QMetaObject</text>
</g>
<!-- Node27&#45;&gt;Node29 -->
<g id="edge47" class="edge"><title>Node27&#45;&gt;Node29</title>
<path fill="none" stroke="midnightblue" d="M1438.81,-224.444C1470.34,-215.241 1520.63,-200.562 1555.49,-190.388"/>
<polygon fill="midnightblue" stroke="midnightblue" points="1556.7,-193.678 1565.32,-187.516 1554.74,-186.959 1556.7,-193.678"/>
</g>
<!-- Node30 -->
<g id="node30" class="node"><title>Node30</title>
<polygon fill="white" stroke="#bfbfbf" points="1652,-168.5 1652,-187.5 1751,-187.5 1751,-168.5 1652,-168.5"/>
<text text-anchor="middle" x="1701.5" y="-175.5" font-family="Helvetica,sans-Serif" font-size="10.00">QCoreApplication</text>
</g>
<!-- Node27&#45;&gt;Node30 -->
<g id="edge48" class="edge"><title>Node27&#45;&gt;Node30</title>
<path fill="none" stroke="midnightblue" d="M1455.77,-224.444C1507.24,-214.925 1590.39,-199.547 1645.5,-189.356"/>
<polygon fill="midnightblue" stroke="midnightblue" points="1646.25,-192.777 1655.45,-187.516 1644.98,-185.893 1646.25,-192.777"/>
</g>
<!-- Node31 -->
<g id="node31" class="node"><title>Node31</title>
<g id="a_node31"><a xlink:href="../../d4/d11/torchttphandler_8h.html" target="_top" xlink:title="torchttphandler.h">
<polygon fill="white" stroke="black" points="1438,-168.5 1438,-187.5 1537,-187.5 1537,-168.5 1438,-168.5"/>
<text text-anchor="middle" x="1487.5" y="-175.5" font-family="Helvetica,sans-Serif" font-size="10.00">torchttphandler.h</text>
</a>
</g>
</g>
<!-- Node27&#45;&gt;Node31 -->
<g id="edge49" class="edge"><title>Node27&#45;&gt;Node31</title>
<path fill="none" stroke="midnightblue" d="M1422.03,-224.324C1434.09,-215.979 1452.53,-203.212 1466.77,-193.352"/>
<polygon fill="midnightblue" stroke="midnightblue" points="1468.77,-196.224 1475,-187.655 1464.78,-190.469 1468.77,-196.224"/>
</g>
<!-- Node34 -->
<g id="node34" class="node"><title>Node34</title>
<g id="a_node34"><a xlink:href="../../df/dd7/torchttprequest_8h.html" target="_top" xlink:title="torchttprequest.h">
<polygon fill="white" stroke="black" points="1385,-112.5 1385,-131.5 1486,-131.5 1486,-112.5 1385,-112.5"/>
<text text-anchor="middle" x="1435.5" y="-119.5" font-family="Helvetica,sans-Serif" font-size="10.00">torchttprequest.h</text>
</a>
</g>
</g>
<!-- Node27&#45;&gt;Node34 -->
<g id="edge60" class="edge"><title>Node27&#45;&gt;Node34</title>
<path fill="none" stroke="midnightblue" d="M1411.54,-224.368C1415.74,-206.617 1425.42,-165.666 1431.1,-141.597"/>
<polygon fill="midnightblue" stroke="midnightblue" points="1434.58,-142.128 1433.47,-131.591 1427.76,-140.518 1434.58,-142.128"/>
</g>
<!-- Node32 -->
<g id="node32" class="node"><title>Node32</title>
<polygon fill="white" stroke="#bfbfbf" points="1501,-56.5 1501,-75.5 1554,-75.5 1554,-56.5 1501,-56.5"/>
<text text-anchor="middle" x="1527.5" y="-63.5" font-family="Helvetica,sans-Serif" font-size="10.00">QString</text>
</g>
<!-- Node31&#45;&gt;Node32 -->
<g id="edge50" class="edge"><title>Node31&#45;&gt;Node32</title>
<path fill="none" stroke="midnightblue" d="M1490.64,-168.368C1497.12,-150.537 1512.12,-109.295 1520.86,-85.2717"/>
<polygon fill="midnightblue" stroke="midnightblue" points="1524.25,-86.1855 1524.38,-75.5914 1517.67,-83.7932 1524.25,-86.1855"/>
</g>
<!-- Node33 -->
<g id="node33" class="node"><title>Node33</title>
<polygon fill="white" stroke="#bfbfbf" points="1542.5,-112.5 1542.5,-131.5 1620.5,-131.5 1620.5,-112.5 1542.5,-112.5"/>
<text text-anchor="middle" x="1581.5" y="-119.5" font-family="Helvetica,sans-Serif" font-size="10.00">QVariantMap</text>
</g>
<!-- Node31&#45;&gt;Node33 -->
<g id="edge51" class="edge"><title>Node31&#45;&gt;Node33</title>
<path fill="none" stroke="midnightblue" d="M1502.6,-168.324C1517.4,-159.822 1540.19,-146.729 1557.48,-136.797"/>
<polygon fill="midnightblue" stroke="midnightblue" points="1559.51,-139.671 1566.43,-131.655 1556.02,-133.601 1559.51,-139.671"/>
</g>
<!-- Node31&#45;&gt;Node34 -->
<g id="edge52" class="edge"><title>Node31&#45;&gt;Node34</title>
<path fill="none" stroke="midnightblue" d="M1478.91,-168.083C1471.34,-160.22 1460.12,-148.569 1450.99,-139.081"/>
<polygon fill="midnightblue" stroke="midnightblue" points="1453.38,-136.527 1443.93,-131.751 1448.34,-141.382 1453.38,-136.527"/>
</g>
<!-- Node34&#45;&gt;Node16 -->
<g id="edge54" class="edge"><title>Node34&#45;&gt;Node16</title>
<path fill="none" stroke="midnightblue" d="M1384.77,-116.16C1269.93,-105.204 992.849,-78.7682 900.232,-69.9321"/>
<polygon fill="midnightblue" stroke="midnightblue" points="900.408,-66.433 890.12,-68.9673 899.743,-73.4013 900.408,-66.433"/>
</g>
<!-- Node34&#45;&gt;Node28 -->
<g id="edge53" class="edge"><title>Node34&#45;&gt;Node28</title>
<path fill="none" stroke="midnightblue" d="M1407.45,-112.444C1375.56,-102.714 1323.61,-86.8642 1290.26,-76.688"/>
<polygon fill="midnightblue" stroke="midnightblue" points="1291.13,-73.2955 1280.54,-73.7251 1289.09,-79.9909 1291.13,-73.2955"/>
</g>
<!-- Node34&#45;&gt;Node32 -->
<g id="edge55" class="edge"><title>Node34&#45;&gt;Node32</title>
<path fill="none" stroke="midnightblue" d="M1450.28,-112.324C1464.77,-103.822 1487.07,-90.7288 1503.99,-80.7975"/>
<polygon fill="midnightblue" stroke="midnightblue" points="1505.9,-83.735 1512.76,-75.6545 1502.36,-77.6981 1505.9,-83.735"/>
</g>
<!-- Node35 -->
<g id="node35" class="node"><title>Node35</title>
<polygon fill="white" stroke="#bfbfbf" points="1299,-56.5 1299,-75.5 1370,-75.5 1370,-56.5 1299,-56.5"/>
<text text-anchor="middle" x="1334.5" y="-63.5" font-family="Helvetica,sans-Serif" font-size="10.00">QDateTime</text>
</g>
<!-- Node34&#45;&gt;Node35 -->
<g id="edge56" class="edge"><title>Node34&#45;&gt;Node35</title>
<path fill="none" stroke="midnightblue" d="M1419.27,-112.324C1403.15,-103.703 1378.2,-90.3643 1359.54,-80.3855"/>
<polygon fill="midnightblue" stroke="midnightblue" points="1361.16,-77.283 1350.69,-75.6545 1357.86,-83.456 1361.16,-77.283"/>
</g>
<!-- Node36 -->
<g id="node36" class="node"><title>Node36</title>
<g id="a_node36"><a xlink:href="../../de/de6/torchttpreader_8h.html" target="_top" xlink:title="torchttpreader.h">
<polygon fill="white" stroke="black" points="1388,-56.5 1388,-75.5 1483,-75.5 1483,-56.5 1388,-56.5"/>
<text text-anchor="middle" x="1435.5" y="-63.5" font-family="Helvetica,sans-Serif" font-size="10.00">torchttpreader.h</text>
</a>
</g>
</g>
<!-- Node34&#45;&gt;Node36 -->
<g id="edge57" class="edge"><title>Node34&#45;&gt;Node36</title>
<path fill="none" stroke="midnightblue" d="M1435.5,-112.083C1435.5,-105.006 1435.5,-94.8611 1435.5,-85.9865"/>
<polygon fill="midnightblue" stroke="midnightblue" points="1439,-85.751 1435.5,-75.7511 1432,-85.7511 1439,-85.751"/>
</g>
<!-- Node37 -->
<g id="node37" class="node"><title>Node37</title>
<polygon fill="white" stroke="#bfbfbf" points="1355,-0.5 1355,-19.5 1426,-19.5 1426,-0.5 1355,-0.5"/>
<text text-anchor="middle" x="1390.5" y="-7.5" font-family="Helvetica,sans-Serif" font-size="10.00">QByteArray</text>
</g>
<!-- Node36&#45;&gt;Node37 -->
<g id="edge58" class="edge"><title>Node36&#45;&gt;Node37</title>
<path fill="none" stroke="midnightblue" d="M1428.07,-56.083C1421.65,-48.3768 1412.19,-37.0333 1404.38,-27.6531"/>
<polygon fill="midnightblue" stroke="midnightblue" points="1406.88,-25.1927 1397.79,-19.7511 1401.51,-29.674 1406.88,-25.1927"/>
</g>
<!-- Node38 -->
<g id="node38" class="node"><title>Node38</title>
<polygon fill="white" stroke="#bfbfbf" points="1444.5,-0.5 1444.5,-19.5 1516.5,-19.5 1516.5,-0.5 1444.5,-0.5"/>
<text text-anchor="middle" x="1480.5" y="-7.5" font-family="Helvetica,sans-Serif" font-size="10.00">QTcpSocket</text>
</g>
<!-- Node36&#45;&gt;Node38 -->
<g id="edge59" class="edge"><title>Node36&#45;&gt;Node38</title>
<path fill="none" stroke="midnightblue" d="M1442.93,-56.083C1449.35,-48.3768 1458.81,-37.0333 1466.62,-27.6531"/>
<polygon fill="midnightblue" stroke="midnightblue" points="1469.49,-29.674 1473.21,-19.7511 1464.12,-25.1927 1469.49,-29.674"/>
</g>
<!-- Node39&#45;&gt;Node7 -->
<g id="edge63" class="edge"><title>Node39&#45;&gt;Node7</title>
<path fill="none" stroke="midnightblue" d="M1076.27,-224.475C1047.83,-216.161 1004.25,-202.658 967.5,-188 956.622,-183.662 894.462,-153.61 858.055,-135.926"/>
<polygon fill="midnightblue" stroke="midnightblue" points="859.491,-132.732 848.967,-131.508 856.431,-139.027 859.491,-132.732"/>
</g>
<!-- Node39&#45;&gt;Node21 -->
<g id="edge65" class="edge"><title>Node39&#45;&gt;Node21</title>
<path fill="none" stroke="midnightblue" d="M1071.8,-224.444C1031.77,-214.574 966.201,-198.406 925.019,-188.251"/>
<polygon fill="midnightblue" stroke="midnightblue" points="925.652,-184.803 915.105,-185.807 923.976,-191.599 925.652,-184.803"/>
</g>
<!-- Node39&#45;&gt;Node25 -->
<g id="edge66" class="edge"><title>Node39&#45;&gt;Node25</title>
<path fill="none" stroke="midnightblue" d="M1133.75,-224.444C1162.94,-215.28 1209.42,-200.688 1241.81,-190.519"/>
<polygon fill="midnightblue" stroke="midnightblue" points="1242.88,-193.851 1251.37,-187.516 1240.78,-187.173 1242.88,-193.851"/>
</g>
<!-- Node39&#45;&gt;Node32 -->
<g id="edge64" class="edge"><title>Node39&#45;&gt;Node32</title>
<path fill="none" stroke="midnightblue" d="M1114.28,-224.393C1137.32,-199.112 1205.42,-125.974 1234.5,-112 1335.9,-63.273 1376.6,-96.4491 1490.66,-76.1104"/>
<polygon fill="midnightblue" stroke="midnightblue" points="1491.64,-79.4863 1500.82,-74.1924 1490.34,-72.6077 1491.64,-79.4863"/>
</g>
<!-- Node40 -->
<g id="node40" class="node"><title>Node40</title>
<polygon fill="white" stroke="#bfbfbf" points="1108,-112.5 1108,-131.5 1157,-131.5 1157,-112.5 1108,-112.5"/>
<text text-anchor="middle" x="1132.5" y="-119.5" font-family="Helvetica,sans-Serif" font-size="10.00">QHash</text>
</g>
<!-- Node39&#45;&gt;Node40 -->
<g id="edge62" class="edge"><title>Node39&#45;&gt;Node40</title>
<path fill="none" stroke="midnightblue" d="M1111.96,-224.437C1117.24,-215.668 1124.95,-201.453 1128.5,-188 1132.52,-172.781 1133.35,-154.892 1133.27,-141.737"/>
<polygon fill="midnightblue" stroke="midnightblue" points="1136.77,-141.495 1133.03,-131.582 1129.77,-141.664 1136.77,-141.495"/>
</g>
<!-- Node41 -->
<g id="node41" class="node"><title>Node41</title>
<g id="a_node41"><a xlink:href="../../d2/d5b/torcdevicehandler_8h.html" target="_top" xlink:title="torcdevicehandler.h">
<polygon fill="white" stroke="black" points="1009.5,-168.5 1009.5,-187.5 1119.5,-187.5 1119.5,-168.5 1009.5,-168.5"/>
<text text-anchor="middle" x="1064.5" y="-175.5" font-family="Helvetica,sans-Serif" font-size="10.00">torcdevicehandler.h</text>
</a>
</g>
</g>
<!-- Node39&#45;&gt;Node41 -->
<g id="edge67" class="edge"><title>Node39&#45;&gt;Node41</title>
<path fill="none" stroke="midnightblue" d="M1099.56,-224.083C1093.57,-216.377 1084.75,-205.033 1077.45,-195.653"/>
<polygon fill="midnightblue" stroke="midnightblue" points="1080.21,-193.496 1071.31,-187.751 1074.68,-197.793 1080.21,-193.496"/>
</g>
<!-- Node41&#45;&gt;Node7 -->
<g id="edge69" class="edge"><title>Node41&#45;&gt;Node7</title>
<path fill="none" stroke="midnightblue" d="M1027.58,-168.444C983.864,-158.312 911.508,-141.543 867.983,-131.455"/>
<polygon fill="midnightblue" stroke="midnightblue" points="868.632,-128.013 858.1,-129.165 867.052,-134.832 868.632,-128.013"/>
</g>
<!-- Node41&#45;&gt;Node40 -->
<g id="edge68" class="edge"><title>Node41&#45;&gt;Node40</title>
<path fill="none" stroke="midnightblue" d="M1075.43,-168.324C1085.67,-160.185 1101.22,-147.839 1113.5,-138.087"/>
<polygon fill="midnightblue" stroke="midnightblue" points="1115.72,-140.794 1121.38,-131.834 1111.37,-135.312 1115.72,-140.794"/>
</g>
<!-- Node42 -->
<g id="node42" class="node"><title>Node42</title>
<polygon fill="white" stroke="#bfbfbf" points="1031.5,-112.5 1031.5,-131.5 1089.5,-131.5 1089.5,-112.5 1031.5,-112.5"/>
<text text-anchor="middle" x="1060.5" y="-119.5" font-family="Helvetica,sans-Serif" font-size="10.00">QVariant</text>
</g>
<!-- Node41&#45;&gt;Node42 -->
<g id="edge70" class="edge"><title>Node41&#45;&gt;Node42</title>
<path fill="none" stroke="midnightblue" d="M1063.84,-168.083C1063.32,-161.006 1062.56,-150.861 1061.91,-141.986"/>
<polygon fill="midnightblue" stroke="midnightblue" points="1065.38,-141.465 1061.15,-131.751 1058.4,-141.982 1065.38,-141.465"/>
</g>
</g>
</svg>
        <g id="navigator" transform="translate(0 0)" fill="#404254">
                <rect fill="#f2f5e9" fill-opacity="0.5" stroke="#606060" stroke-width=".5" x="0" y="0" width="60" height="60"/>
                <use id="zoomplus" xlink:href="#zoomPlus" x="17" y="9" onmousedown="handleZoom(evt,'in')"/>
                <use id="zoomminus" xlink:href="#zoomMin" x="42" y="9" onmousedown="handleZoom(evt,'out')"/>
                <use id="reset" xlink:href="#resetDef" x="30" y="36" onmousedown="handleReset()"/>
                <g id="arrowUp" xlink:href="#dirArrow" transform="translate(30 24)" onmousedown="handlePan(0,-1)">
                  <use xlink:href="#rim" fill="#404040">
                        <set attributeName="fill" to="#808080" begin="arrowUp.mouseover" end="arrowUp.mouseout"/>
                  </use>
                  <path fill="none" stroke="white" stroke-width="1.5" d="M0,-3.0v7 M-2.5,-0.5L0,-3.0L2.5,-0.5"/>
                </g>
                <g id="arrowRight" xlink:href="#dirArrow" transform="rotate(90) translate(36 -43)" onmousedown="handlePan(1,0)">
                  <use xlink:href="#rim" fill="#404040">
                        <set attributeName="fill" to="#808080" begin="arrowRight.mouseover" end="arrowRight.mouseout"/>
                  </use>
                  <path fill="none" stroke="white" stroke-width="1.5" d="M0,-3.0v7 M-2.5,-0.5L0,-3.0L2.5,-0.5"/>
                </g>
                <g id="arrowDown" xlink:href="#dirArrow" transform="rotate(180) translate(-30 -48)" onmousedown="handlePan(0,1)">
                  <use xlink:href="#rim" fill="#404040">
                        <set attributeName="fill" to="#808080" begin="arrowDown.mouseover" end="arrowDown.mouseout"/>
                  </use>
                  <path fill="none" stroke="white" stroke-width="1.5" d="M0,-3.0v7 M-2.5,-0.5L0,-3.0L2.5,-0.5"/>
                </g>
                <g id="arrowLeft" xlink:href="#dirArrow" transform="rotate(270) translate(-36 17)" onmousedown="handlePan(-1,0)">
                  <use xlink:href="#rim" fill="#404040">
                        <set attributeName="fill" to="#808080" begin="arrowLeft.mouseover" end="arrowLeft.mouseout"/>
                  </use>
                  <path fill="none" stroke="white" stroke-width="1.5" d="M0,-3.0v7 M-2.5,-0.5L0,-3.0L2.5,-0.5"/>
                </g>
        </g>
        <svg viewBox="0 0 15 15" width="100%" height="30px" preserveAspectRatio="xMaxYMin meet">
         <g id="arrow_out" transform="scale(0.3 0.3)">
          <a xlink:href="torcpicamera_8h__incl_org.svg" target="_base">
           <rect id="button" ry="5" rx="5" y="6" x="6" height="38" width="38"
                fill="#f2f5e9" fill-opacity="0.5" stroke="#606060" stroke-width="1.0"/>
           <path id="arrow"
             d="M 11.500037,31.436501 C 11.940474,20.09759 22.043105,11.32322 32.158766,21.979434 L 37.068811,17.246167 C 37.068811,17.246167 37.088388,32 37.088388,32 L 22.160133,31.978069 C 22.160133,31.978069 26.997745,27.140456 26.997745,27.140456 C 18.528582,18.264221 13.291696,25.230495 11.500037,31.436501 z"
             style="fill:#404040;"/>
          </a>
         </g>
        </svg>
</svg>
