<?xml version="1.0" encoding="UTF-8" standalone="no"?>
<!DOCTYPE svg PUBLIC "-//W3C//DTD SVG 1.1//EN"
 "http://www.w3.org/Graphics/SVG/1.1/DTD/svg11.dtd">
<!-- Generated by graphviz version 2.38.0 (20140413.2041)
 -->
<!-- Title: torcrunlooposx.cpp Pages: 1 -->
<!--zoomable 431 -->
<svg id="main" version="1.1" xmlns="http://www.w3.org/2000/svg" xmlns:xlink="http://www.w3.org/1999/xlink" xml:space="preserve" onload="init(evt)">
<style type="text/css"><![CDATA[
.edge:hover path { stroke: red; }
.edge:hover polygon { stroke: red; fill: red; }
]]></style>
<script type="text/javascript"><![CDATA[
var edges = document.getElementsByTagName('g');
if (edges && edges.length) {
  for (var i=0;i<edges.length;i++) {
    if (edges[i].id.substr(0,4)=='edge') {
      edges[i].setAttribute('class','edge');
    }
  }
}
]]></script>
        <defs>
                <circle id="rim" cx="0" cy="0" r="7"/>
                <circle id="rim2" cx="0" cy="0" r="3.5"/>
                <g id="zoomPlus">
                        <use xlink:href="#rim" fill="#404040">
                                <set attributeName="fill" to="#808080" begin="zoomplus.mouseover" end="zoomplus.mouseout"/>
                        </use>
                        <path d="M-4,0h8M0,-4v8" fill="none" stroke="white" stroke-width="1.5" pointer-events="none"/>
                </g>
                <g id="zoomMin">
                        <use xlink:href="#rim" fill="#404040">
                                <set attributeName="fill" to="#808080" begin="zoomminus.mouseover" end="zoomminus.mouseout"/>
                        </use>
                        <path d="M-4,0h8" fill="none" stroke="white" stroke-width="1.5" pointer-events="none"/>
                </g>
                <g id="dirArrow">
                        <path fill="none" stroke="white" stroke-width="1.5" d="M0,-3.0v7 M-2.5,-0.5L0,-3.0L2.5,-0.5"/>
                </g>
               <g id="resetDef">
                       <use xlink:href="#rim2" fill="#404040">
                               <set attributeName="fill" to="#808080" begin="reset.mouseover" end="reset.mouseout"/>
                       </use>
               </g>
        </defs>

<script type="text/javascript">
var viewWidth = 1503;
var viewHeight = 431;
var sectionId = 'dynsection-0';
</script>
<script xlink:href="../../svgpan.js"/>
<svg id="graph" class="graph">
<g id="viewport">
<title>torcrunlooposx.cpp</title>
<polygon fill="white" stroke="none" points="-4,4 -4,-427 1498.74,-427 1498.74,4 -4,4"/>
<!-- Node1 -->
<g id="node1" class="node"><title>Node1</title>
<polygon fill="#bfbfbf" stroke="black" points="921.743,-403.5 921.743,-422.5 1029.74,-422.5 1029.74,-403.5 921.743,-403.5"/>
<text text-anchor="middle" x="975.743" y="-410.5" font-family="Helvetica,sans-Serif" font-size="10.00">torcrunlooposx.cpp</text>
</g>
<!-- Node2 -->
<g id="node2" class="node"><title>Node2</title>
<polygon fill="white" stroke="#bfbfbf" points="54.243,-347.5 54.243,-366.5 105.243,-366.5 105.243,-347.5 54.243,-347.5"/>
<text text-anchor="middle" x="79.743" y="-354.5" font-family="Helvetica,sans-Serif" font-size="10.00">QTimer</text>
</g>
<!-- Node1&#45;&gt;Node2 -->
<g id="edge1" class="edge"><title>Node1&#45;&gt;Node2</title>
<path fill="none" stroke="midnightblue" d="M921.362,-412.313C785.489,-412.409 420.487,-408.437 119.743,-367 118.289,-366.8 116.809,-366.573 115.318,-366.326"/>
<polygon fill="midnightblue" stroke="midnightblue" points="115.924,-362.879 105.447,-364.454 114.62,-369.756 115.924,-362.879"/>
</g>
<!-- Node3 -->
<g id="node3" class="node"><title>Node3</title>
<polygon fill="white" stroke="#bfbfbf" points="351.743,-168.5 351.743,-187.5 421.743,-187.5 421.743,-168.5 351.743,-168.5"/>
<text text-anchor="middle" x="386.743" y="-175.5" font-family="Helvetica,sans-Serif" font-size="10.00">QAtomicInt</text>
</g>
<!-- Node1&#45;&gt;Node3 -->
<g id="edge2" class="edge"><title>Node1&#45;&gt;Node3</title>
<path fill="none" stroke="midnightblue" d="M921.691,-409.141C752.071,-399.621 238.718,-366.417 190.743,-311 165.435,-281.766 166.654,-254.246 190.743,-224 209.248,-200.765 289.744,-188.537 341.649,-182.949"/>
<polygon fill="midnightblue" stroke="midnightblue" points="342.034,-186.427 351.621,-181.918 341.315,-179.465 342.034,-186.427"/>
</g>
<!-- Node4 -->
<g id="node4" class="node"><title>Node4</title>
<g id="a_node4"><a xlink:href="../../dd/dbd/torclocalcontext_8h.html" target="_top" xlink:title="torclocalcontext.h">
<polygon fill="white" stroke="black" points="586.743,-347.5 586.743,-366.5 688.743,-366.5 688.743,-347.5 586.743,-347.5"/>
<text text-anchor="middle" x="637.743" y="-354.5" font-family="Helvetica,sans-Serif" font-size="10.00">torclocalcontext.h</text>
</a>
</g>
</g>
<!-- Node1&#45;&gt;Node4 -->
<g id="edge3" class="edge"><title>Node1&#45;&gt;Node4</title>
<path fill="none" stroke="midnightblue" d="M922.186,-403.444C861.403,-393.733 762.457,-377.925 698.748,-367.746"/>
<polygon fill="midnightblue" stroke="midnightblue" points="699.264,-364.284 688.837,-366.163 698.16,-371.197 699.264,-364.284"/>
</g>
<!-- Node32 -->
<g id="node32" class="node"><title>Node32</title>
<g id="a_node32"><a xlink:href="../../dd/dd5/torcadminthread_8h.html" target="_top" xlink:title="torcadminthread.h">
<polygon fill="white" stroke="black" points="974.743,-286 974.743,-305 1080.74,-305 1080.74,-286 974.743,-286"/>
<text text-anchor="middle" x="1027.74" y="-293" font-family="Helvetica,sans-Serif" font-size="10.00">torcadminthread.h</text>
</a>
</g>
</g>
<!-- Node1&#45;&gt;Node32 -->
<g id="edge59" class="edge"><title>Node1&#45;&gt;Node32</title>
<path fill="none" stroke="midnightblue" d="M979.651,-403.319C988.121,-384.506 1008.32,-339.648 1019.66,-314.455"/>
<polygon fill="midnightblue" stroke="midnightblue" points="1022.88,-315.837 1023.79,-305.282 1016.49,-312.964 1022.88,-315.837"/>
</g>
<!-- Node34 -->
<g id="node34" class="node"><title>Node34</title>
<g id="a_node34"><a xlink:href="../../dd/db0/torcqthread_8h.html" target="_top" xlink:title="torcqthread.h">
<polygon fill="white" stroke="black" points="1227.74,-224.5 1227.74,-243.5 1309.74,-243.5 1309.74,-224.5 1227.74,-224.5"/>
<text text-anchor="middle" x="1268.74" y="-231.5" font-family="Helvetica,sans-Serif" font-size="10.00">torcqthread.h</text>
</a>
</g>
</g>
<!-- Node1&#45;&gt;Node34 -->
<g id="edge58" class="edge"><title>Node1&#45;&gt;Node34</title>
<path fill="none" stroke="midnightblue" d="M985.56,-403.281C1017.91,-374.579 1119.55,-284.602 1127.74,-280 1155.67,-264.303 1189.85,-253.221 1217.55,-245.983"/>
<polygon fill="midnightblue" stroke="midnightblue" points="1218.6,-249.328 1227.45,-243.489 1216.89,-242.54 1218.6,-249.328"/>
</g>
<!-- Node38 -->
<g id="node38" class="node"><title>Node38</title>
<g id="a_node38"><a xlink:href="../../d4/df9/torclogging_8h.html" target="_top" xlink:title="torclogging.h">
<polygon fill="white" stroke="black" points="1061.24,-224.5 1061.24,-243.5 1140.24,-243.5 1140.24,-224.5 1061.24,-224.5"/>
<text text-anchor="middle" x="1100.74" y="-231.5" font-family="Helvetica,sans-Serif" font-size="10.00">torclogging.h</text>
</a>
</g>
</g>
<!-- Node1&#45;&gt;Node38 -->
<g id="edge55" class="edge"><title>Node1&#45;&gt;Node38</title>
<path fill="none" stroke="midnightblue" d="M971.58,-403.256C961.405,-380.476 938.061,-318.407 965.743,-280 976.097,-265.635 1017.18,-253.248 1051.34,-245.127"/>
<polygon fill="midnightblue" stroke="midnightblue" points="1052.26,-248.508 1061.22,-242.85 1050.69,-241.687 1052.26,-248.508"/>
</g>
<!-- Node42 -->
<g id="node42" class="node"><title>Node42</title>
<g id="a_node42"><a xlink:href="../../d6/de4/torccocoa_8h.html" target="_top" xlink:title="torccocoa.h">
<polygon fill="white" stroke="black" points="1142.24,-347.5 1142.24,-366.5 1215.24,-366.5 1215.24,-347.5 1142.24,-347.5"/>
<text text-anchor="middle" x="1178.74" y="-354.5" font-family="Helvetica,sans-Serif" font-size="10.00">torccocoa.h</text>
</a>
</g>
</g>
<!-- Node1&#45;&gt;Node42 -->
<g id="edge56" class="edge"><title>Node1&#45;&gt;Node42</title>
<path fill="none" stroke="midnightblue" d="M1007.91,-403.444C1042.8,-394.162 1098.64,-379.309 1136.91,-369.127"/>
<polygon fill="midnightblue" stroke="midnightblue" points="1137.96,-372.47 1146.73,-366.516 1136.16,-365.705 1137.96,-372.47"/>
</g>
<!-- Node44 -->
<g id="node44" class="node"><title>Node44</title>
<g id="a_node44"><a xlink:href="../../d3/de4/torcrunlooposx_8h.html" target="_top" xlink:title="torcrunlooposx.h">
<polygon fill="white" stroke="black" points="1238.24,-347.5 1238.24,-366.5 1335.24,-366.5 1335.24,-347.5 1238.24,-347.5"/>
<text text-anchor="middle" x="1286.74" y="-354.5" font-family="Helvetica,sans-Serif" font-size="10.00">torcrunlooposx.h</text>
</a>
</g>
</g>
<!-- Node1&#45;&gt;Node44 -->
<g id="edge60" class="edge"><title>Node1&#45;&gt;Node44</title>
<path fill="none" stroke="midnightblue" d="M1025.02,-403.444C1080.23,-393.857 1169.67,-378.328 1228.34,-368.14"/>
<polygon fill="midnightblue" stroke="midnightblue" points="1228.95,-371.587 1238.21,-366.428 1227.76,-364.69 1228.95,-371.587"/>
</g>
<!-- Node5 -->
<g id="node5" class="node"><title>Node5</title>
<polygon fill="white" stroke="#bfbfbf" points="590.243,-168.5 590.243,-187.5 645.243,-187.5 645.243,-168.5 590.243,-168.5"/>
<text text-anchor="middle" x="617.743" y="-175.5" font-family="Helvetica,sans-Serif" font-size="10.00">QObject</text>
</g>
<!-- Node4&#45;&gt;Node5 -->
<g id="edge4" class="edge"><title>Node4&#45;&gt;Node5</title>
<path fill="none" stroke="midnightblue" d="M623.373,-347.33C611.863,-339.469 596.554,-326.722 589.743,-311 580.954,-290.714 600.346,-228.586 611.141,-197.344"/>
<polygon fill="midnightblue" stroke="midnightblue" points="614.517,-198.295 614.541,-187.7 607.915,-195.967 614.517,-198.295"/>
</g>
<!-- Node6 -->
<g id="node6" class="node"><title>Node6</title>
<polygon fill="white" stroke="#bfbfbf" points="705.243,-56.5 705.243,-75.5 758.243,-75.5 758.243,-56.5 705.243,-56.5"/>
<text text-anchor="middle" x="731.743" y="-63.5" font-family="Helvetica,sans-Serif" font-size="10.00">QString</text>
</g>
<!-- Node4&#45;&gt;Node6 -->
<g id="edge5" class="edge"><title>Node4&#45;&gt;Node6</title>
<path fill="none" stroke="midnightblue" d="M586.604,-356.515C413.293,-356.699 -132.219,-343.655 29.743,-168 120.466,-69.6069 563.32,-65.4888 694.844,-66.4848"/>
<polygon fill="midnightblue" stroke="midnightblue" points="695.152,-69.9877 705.183,-66.579 695.215,-62.988 695.152,-69.9877"/>
</g>
<!-- Node7 -->
<g id="node7" class="node"><title>Node7</title>
<polygon fill="white" stroke="#bfbfbf" points="199.743,-224.5 199.743,-243.5 291.743,-243.5 291.743,-224.5 199.743,-224.5"/>
<text text-anchor="middle" x="245.743" y="-231.5" font-family="Helvetica,sans-Serif" font-size="10.00">QReadWriteLock</text>
</g>
<!-- Node4&#45;&gt;Node7 -->
<g id="edge6" class="edge"><title>Node4&#45;&gt;Node7</title>
<path fill="none" stroke="midnightblue" d="M586.57,-356.001C526.301,-354.259 424.322,-345.777 344.743,-311 324.454,-302.133 323.268,-293.533 305.743,-280 292.439,-269.727 277.295,-258.371 265.55,-249.638"/>
<polygon fill="midnightblue" stroke="midnightblue" points="267.435,-246.678 257.318,-243.531 263.264,-252.3 267.435,-246.678"/>
</g>
<!-- Node8 -->
<g id="node8" class="node"><title>Node8</title>
<polygon fill="white" stroke="#bfbfbf" points="675.243,-168.5 675.243,-187.5 728.243,-187.5 728.243,-168.5 675.243,-168.5"/>
<text text-anchor="middle" x="701.743" y="-175.5" font-family="Helvetica,sans-Serif" font-size="10.00">QMutex</text>
</g>
<!-- Node4&#45;&gt;Node8 -->
<g id="edge7" class="edge"><title>Node4&#45;&gt;Node8</title>
<path fill="none" stroke="midnightblue" d="M688.835,-354.348C754.942,-351.011 864.637,-340.987 889.743,-311 914.565,-281.353 913.75,-254.311 889.743,-224 848.319,-171.698 808.333,-201.696 738.532,-188.15"/>
<polygon fill="midnightblue" stroke="midnightblue" points="739,-184.669 728.482,-185.936 737.495,-191.505 739,-184.669"/>
</g>
<!-- Node9 -->
<g id="node9" class="node"><title>Node9</title>
<g id="a_node9"><a xlink:href="../../db/db2/torclocaldefs_8h.html" target="_top" xlink:title="torclocaldefs.h">
<polygon fill="white" stroke="black" points="694.743,-286 694.743,-305 780.743,-305 780.743,-286 694.743,-286"/>
<text text-anchor="middle" x="737.743" y="-293" font-family="Helvetica,sans-Serif" font-size="10.00">torclocaldefs.h</text>
</a>
</g>
</g>
<!-- Node4&#45;&gt;Node9 -->
<g id="edge8" class="edge"><title>Node4&#45;&gt;Node9</title>
<path fill="none" stroke="midnightblue" d="M652.071,-347.475C668.407,-337.755 695.345,-321.727 714.655,-310.237"/>
<polygon fill="midnightblue" stroke="midnightblue" points="716.638,-313.13 723.442,-305.009 713.058,-307.115 716.638,-313.13"/>
</g>
<!-- Node10 -->
<g id="node10" class="node"><title>Node10</title>
<g id="a_node10"><a xlink:href="../../db/df5/torcsetting_8h.html" target="_top" xlink:title="torcsetting.h">
<polygon fill="white" stroke="black" points="599.243,-286 599.243,-305 676.243,-305 676.243,-286 599.243,-286"/>
<text text-anchor="middle" x="637.743" y="-293" font-family="Helvetica,sans-Serif" font-size="10.00">torcsetting.h</text>
</a>
</g>
</g>
<!-- Node4&#45;&gt;Node10 -->
<g id="edge9" class="edge"><title>Node4&#45;&gt;Node10</title>
<path fill="none" stroke="midnightblue" d="M637.743,-347.475C637.743,-339.08 637.743,-325.981 637.743,-315.163"/>
<polygon fill="midnightblue" stroke="midnightblue" points="641.243,-315.009 637.743,-305.009 634.243,-315.009 641.243,-315.009"/>
</g>
<!-- Node27 -->
<g id="node27" class="node"><title>Node27</title>
<g id="a_node27"><a xlink:href="../../d6/d94/torcobservable_8h.html" target="_top" xlink:title="torcobservable.h">
<polygon fill="white" stroke="black" points="200.243,-286 200.243,-305 297.243,-305 297.243,-286 200.243,-286"/>
<text text-anchor="middle" x="248.743" y="-293" font-family="Helvetica,sans-Serif" font-size="10.00">torcobservable.h</text>
</a>
</g>
</g>
<!-- Node4&#45;&gt;Node27 -->
<g id="edge34" class="edge"><title>Node4&#45;&gt;Node27</title>
<path fill="none" stroke="midnightblue" d="M586.698,-350.38C522.333,-342.967 408.396,-328.757 311.743,-311 305.803,-309.909 299.576,-308.635 293.446,-307.305"/>
<polygon fill="midnightblue" stroke="midnightblue" points="293.811,-303.8 283.288,-305.034 292.284,-310.632 293.811,-303.8"/>
</g>
<!-- Node30 -->
<g id="node30" class="node"><title>Node30</title>
<g id="a_node30"><a xlink:href="../../d7/d70/torcsqlitedb_8h.html" target="_top" xlink:title="torcsqlitedb.h">
<polygon fill="white" stroke="black" points="798.743,-286 798.743,-305 880.743,-305 880.743,-286 798.743,-286"/>
<text text-anchor="middle" x="839.743" y="-293" font-family="Helvetica,sans-Serif" font-size="10.00">torcsqlitedb.h</text>
</a>
</g>
</g>
<!-- Node4&#45;&gt;Node30 -->
<g id="edge39" class="edge"><title>Node4&#45;&gt;Node30</title>
<path fill="none" stroke="midnightblue" d="M666.685,-347.475C702.01,-337.07 761.874,-319.437 801.108,-307.88"/>
<polygon fill="midnightblue" stroke="midnightblue" points="802.251,-311.192 810.855,-305.009 800.274,-304.477 802.251,-311.192"/>
</g>
<!-- Node4&#45;&gt;Node32 -->
<g id="edge43" class="edge"><title>Node4&#45;&gt;Node32</title>
<path fill="none" stroke="midnightblue" d="M689.13,-348.16C760.095,-337.333 888.005,-317.819 964.674,-306.122"/>
<polygon fill="midnightblue" stroke="midnightblue" points="965.323,-309.564 974.681,-304.595 964.267,-302.644 965.323,-309.564"/>
</g>
<!-- Node36 -->
<g id="node36" class="node"><title>Node36</title>
<g id="a_node36"><a xlink:href="../../db/d41/torccommandline_8h.html" target="_top" xlink:title="torccommandline.h">
<polygon fill="white" stroke="black" points="353.743,-286 353.743,-305 463.743,-305 463.743,-286 353.743,-286"/>
<text text-anchor="middle" x="408.743" y="-293" font-family="Helvetica,sans-Serif" font-size="10.00">torccommandline.h</text>
</a>
</g>
</g>
<!-- Node4&#45;&gt;Node36 -->
<g id="edge47" class="edge"><title>Node4&#45;&gt;Node36</title>
<path fill="none" stroke="midnightblue" d="M604.933,-347.475C564.546,-336.982 495.866,-319.137 451.414,-307.587"/>
<polygon fill="midnightblue" stroke="midnightblue" points="452.051,-304.136 441.492,-305.009 450.291,-310.911 452.051,-304.136"/>
</g>
<!-- Node10&#45;&gt;Node5 -->
<g id="edge12" class="edge"><title>Node10&#45;&gt;Node5</title>
<path fill="none" stroke="midnightblue" d="M636.286,-285.814C634.047,-272.503 629.616,-246.262 625.743,-224 624.228,-215.293 622.517,-205.645 621.067,-197.522"/>
<polygon fill="midnightblue" stroke="midnightblue" points="624.503,-196.85 619.295,-187.623 617.612,-198.084 624.503,-196.85"/>
</g>
<!-- Node10&#45;&gt;Node7 -->
<g id="edge11" class="edge"><title>Node10&#45;&gt;Node7</title>
<path fill="none" stroke="midnightblue" d="M599.053,-288.875C538.141,-279.982 415.901,-261.981 301.895,-244.164"/>
<polygon fill="midnightblue" stroke="midnightblue" points="302.37,-240.696 291.949,-242.607 301.287,-247.612 302.37,-240.696"/>
</g>
<!-- Node11 -->
<g id="node11" class="node"><title>Node11</title>
<polygon fill="white" stroke="#bfbfbf" points="678.243,-224.5 678.243,-243.5 719.243,-243.5 719.243,-224.5 678.243,-224.5"/>
<text text-anchor="middle" x="698.743" y="-231.5" font-family="Helvetica,sans-Serif" font-size="10.00">QSet</text>
</g>
<!-- Node10&#45;&gt;Node11 -->
<g id="edge10" class="edge"><title>Node10&#45;&gt;Node11</title>
<path fill="none" stroke="midnightblue" d="M646.483,-285.975C655.905,-276.785 671.107,-261.956 682.692,-250.656"/>
<polygon fill="midnightblue" stroke="midnightblue" points="685.305,-252.997 690.019,-243.509 680.417,-247.986 685.305,-252.997"/>
</g>
<!-- Node12 -->
<g id="node12" class="node"><title>Node12</title>
<polygon fill="white" stroke="#bfbfbf" points="146.743,-168.5 146.743,-187.5 204.743,-187.5 204.743,-168.5 146.743,-168.5"/>
<text text-anchor="middle" x="175.743" y="-175.5" font-family="Helvetica,sans-Serif" font-size="10.00">QVariant</text>
</g>
<!-- Node10&#45;&gt;Node12 -->
<g id="edge13" class="edge"><title>Node10&#45;&gt;Node12</title>
<path fill="none" stroke="midnightblue" d="M605.026,-285.934C535.71,-267.788 379.426,-226.894 367.743,-224 314.815,-210.89 253.429,-196.675 214.596,-187.804"/>
<polygon fill="midnightblue" stroke="midnightblue" points="215.275,-184.369 204.747,-185.558 213.719,-191.194 215.275,-184.369"/>
</g>
<!-- Node13 -->
<g id="node13" class="node"><title>Node13</title>
<polygon fill="white" stroke="#bfbfbf" points="737.243,-224.5 737.243,-243.5 806.243,-243.5 806.243,-224.5 737.243,-224.5"/>
<text text-anchor="middle" x="771.743" y="-231.5" font-family="Helvetica,sans-Serif" font-size="10.00">QStringList</text>
</g>
<!-- Node10&#45;&gt;Node13 -->
<g id="edge14" class="edge"><title>Node10&#45;&gt;Node13</title>
<path fill="none" stroke="midnightblue" d="M656.942,-285.975C679.53,-275.945 717.242,-259.2 743.244,-247.655"/>
<polygon fill="midnightblue" stroke="midnightblue" points="744.861,-250.766 752.58,-243.509 742.02,-244.369 744.861,-250.766"/>
</g>
<!-- Node14 -->
<g id="node14" class="node"><title>Node14</title>
<g id="a_node14"><a xlink:href="../../d3/dee/torchttpservice_8h.html" target="_top" xlink:title="torchttpservice.h">
<polygon fill="white" stroke="black" points="936.743,-224.5 936.743,-243.5 1034.74,-243.5 1034.74,-224.5 936.743,-224.5"/>
<text text-anchor="middle" x="985.743" y="-231.5" font-family="Helvetica,sans-Serif" font-size="10.00">torchttpservice.h</text>
</a>
</g>
</g>
<!-- Node10&#45;&gt;Node14 -->
<g id="edge15" class="edge"><title>Node10&#45;&gt;Node14</title>
<path fill="none" stroke="midnightblue" d="M663.469,-285.982C670.625,-283.817 678.439,-281.642 685.743,-280 768.318,-261.437 865.44,-248.447 926.306,-241.348"/>
<polygon fill="midnightblue" stroke="midnightblue" points="926.961,-244.795 936.496,-240.175 926.161,-237.841 926.961,-244.795"/>
</g>
<!-- Node26 -->
<g id="node26" class="node"><title>Node26</title>
<g id="a_node26"><a xlink:href="../../d8/dfe/torcreferencecounted_8h.html" target="_top" xlink:title="torcreferencecounted.h">
<polygon fill="white" stroke="black" points="454.243,-224.5 454.243,-243.5 583.243,-243.5 583.243,-224.5 454.243,-224.5"/>
<text text-anchor="middle" x="518.743" y="-231.5" font-family="Helvetica,sans-Serif" font-size="10.00">torcreferencecounted.h</text>
</a>
</g>
</g>
<!-- Node10&#45;&gt;Node26 -->
<g id="edge32" class="edge"><title>Node10&#45;&gt;Node26</title>
<path fill="none" stroke="midnightblue" d="M620.693,-285.975C600.899,-276.078 568.026,-259.642 544.973,-248.115"/>
<polygon fill="midnightblue" stroke="midnightblue" points="546.271,-244.851 535.761,-243.509 543.14,-251.112 546.271,-244.851"/>
</g>
<!-- Node14&#45;&gt;Node8 -->
<g id="edge17" class="edge"><title>Node14&#45;&gt;Node8</title>
<path fill="none" stroke="midnightblue" d="M936.398,-225.172C888.173,-217.278 812.476,-204.24 738.412,-188.252"/>
<polygon fill="midnightblue" stroke="midnightblue" points="738.964,-184.79 728.448,-186.081 737.474,-191.63 738.964,-184.79"/>
</g>
<!-- Node15 -->
<g id="node15" class="node"><title>Node15</title>
<polygon fill="white" stroke="#bfbfbf" points="820.743,-56.5 820.743,-75.5 864.743,-75.5 864.743,-56.5 820.743,-56.5"/>
<text text-anchor="middle" x="842.743" y="-63.5" font-family="Helvetica,sans-Serif" font-size="10.00">QMap</text>
</g>
<!-- Node14&#45;&gt;Node15 -->
<g id="edge16" class="edge"><title>Node14&#45;&gt;Node15</title>
<path fill="none" stroke="midnightblue" d="M971.35,-224.382C958.256,-216.103 938.875,-202.709 924.743,-188 893.375,-155.351 865.9,-109.438 852.129,-84.6075"/>
<polygon fill="midnightblue" stroke="midnightblue" points="855.099,-82.7432 847.242,-75.6349 848.951,-86.091 855.099,-82.7432"/>
</g>
<!-- Node16 -->
<g id="node16" class="node"><title>Node16</title>
<polygon fill="white" stroke="#bfbfbf" points="940.243,-168.5 940.243,-187.5 1019.24,-187.5 1019.24,-168.5 940.243,-168.5"/>
<text text-anchor="middle" x="979.743" y="-175.5" font-family="Helvetica,sans-Serif" font-size="10.00">QMetaObject</text>
</g>
<!-- Node14&#45;&gt;Node16 -->
<g id="edge18" class="edge"><title>Node14&#45;&gt;Node16</title>
<path fill="none" stroke="midnightblue" d="M984.752,-224.083C983.957,-216.927 982.814,-206.635 981.82,-197.691"/>
<polygon fill="midnightblue" stroke="midnightblue" points="985.298,-197.303 980.715,-187.751 978.341,-198.076 985.298,-197.303"/>
</g>
<!-- Node17 -->
<g id="node17" class="node"><title>Node17</title>
<polygon fill="white" stroke="#bfbfbf" points="1037.24,-168.5 1037.24,-187.5 1136.24,-187.5 1136.24,-168.5 1037.24,-168.5"/>
<text text-anchor="middle" x="1086.74" y="-175.5" font-family="Helvetica,sans-Serif" font-size="10.00">QCoreApplication</text>
</g>
<!-- Node14&#45;&gt;Node17 -->
<g id="edge19" class="edge"><title>Node14&#45;&gt;Node17</title>
<path fill="none" stroke="midnightblue" d="M1001.97,-224.324C1018.09,-215.703 1043.04,-202.364 1061.71,-192.386"/>
<polygon fill="midnightblue" stroke="midnightblue" points="1063.39,-195.456 1070.56,-187.655 1060.09,-189.283 1063.39,-195.456"/>
</g>
<!-- Node18 -->
<g id="node18" class="node"><title>Node18</title>
<g id="a_node18"><a xlink:href="../../d4/d11/torchttphandler_8h.html" target="_top" xlink:title="torchttphandler.h">
<polygon fill="white" stroke="black" points="746.243,-168.5 746.243,-187.5 845.243,-187.5 845.243,-168.5 746.243,-168.5"/>
<text text-anchor="middle" x="795.743" y="-175.5" font-family="Helvetica,sans-Serif" font-size="10.00">torchttphandler.h</text>
</a>
</g>
</g>
<!-- Node14&#45;&gt;Node18 -->
<g id="edge20" class="edge"><title>Node14&#45;&gt;Node18</title>
<path fill="none" stroke="midnightblue" d="M955.637,-224.444C923.117,-215.201 871.164,-200.436 835.352,-190.257"/>
<polygon fill="midnightblue" stroke="midnightblue" points="836.284,-186.884 825.708,-187.516 834.37,-193.617 836.284,-186.884"/>
</g>
<!-- Node20 -->
<g id="node20" class="node"><title>Node20</title>
<g id="a_node20"><a xlink:href="../../df/dd7/torchttprequest_8h.html" target="_top" xlink:title="torchttprequest.h">
<polygon fill="white" stroke="black" points="899.243,-112.5 899.243,-131.5 1000.24,-131.5 1000.24,-112.5 899.243,-112.5"/>
<text text-anchor="middle" x="949.743" y="-119.5" font-family="Helvetica,sans-Serif" font-size="10.00">torchttprequest.h</text>
</a>
</g>
</g>
<!-- Node14&#45;&gt;Node20 -->
<g id="edge31" class="edge"><title>Node14&#45;&gt;Node20</title>
<path fill="none" stroke="midnightblue" d="M969.11,-224.464C956.255,-216.841 939.404,-204.356 931.743,-188 924.549,-172.641 931.258,-153.854 938.44,-140.435"/>
<polygon fill="midnightblue" stroke="midnightblue" points="941.503,-142.131 943.562,-131.738 935.471,-138.579 941.503,-142.131"/>
</g>
<!-- Node18&#45;&gt;Node6 -->
<g id="edge21" class="edge"><title>Node18&#45;&gt;Node6</title>
<path fill="none" stroke="midnightblue" d="M784.135,-168.233C773.939,-159.949 759.416,-146.638 750.743,-132 742.222,-117.618 737.305,-99.1602 734.617,-85.5908"/>
<polygon fill="midnightblue" stroke="midnightblue" points="738.029,-84.7839 732.854,-75.5391 731.134,-85.9935 738.029,-84.7839"/>
</g>
<!-- Node19 -->
<g id="node19" class="node"><title>Node19</title>
<polygon fill="white" stroke="#bfbfbf" points="759.743,-112.5 759.743,-131.5 837.743,-131.5 837.743,-112.5 759.743,-112.5"/>
<text text-anchor="middle" x="798.743" y="-119.5" font-family="Helvetica,sans-Serif" font-size="10.00">QVariantMap</text>
</g>
<!-- Node18&#45;&gt;Node19 -->
<g id="edge22" class="edge"><title>Node18&#45;&gt;Node19</title>
<path fill="none" stroke="midnightblue" d="M796.238,-168.083C796.632,-161.006 797.195,-150.861 797.688,-141.986"/>
<polygon fill="midnightblue" stroke="midnightblue" points="801.197,-141.93 798.257,-131.751 794.207,-141.542 801.197,-141.93"/>
</g>
<!-- Node18&#45;&gt;Node20 -->
<g id="edge23" class="edge"><title>Node18&#45;&gt;Node20</title>
<path fill="none" stroke="midnightblue" d="M820.145,-168.444C845.94,-159.399 886.82,-145.064 915.761,-134.916"/>
<polygon fill="midnightblue" stroke="midnightblue" points="917.177,-138.128 925.455,-131.516 914.861,-131.523 917.177,-138.128"/>
</g>
<!-- Node20&#45;&gt;Node6 -->
<g id="edge26" class="edge"><title>Node20&#45;&gt;Node6</title>
<path fill="none" stroke="midnightblue" d="M915.2,-112.444C875.134,-102.519 809.359,-86.2259 768.41,-76.0826"/>
<polygon fill="midnightblue" stroke="midnightblue" points="769.113,-72.651 758.565,-73.6439 767.43,-79.4457 769.113,-72.651"/>
</g>
<!-- Node20&#45;&gt;Node15 -->
<g id="edge24" class="edge"><title>Node20&#45;&gt;Node15</title>
<path fill="none" stroke="midnightblue" d="M932.552,-112.324C915.392,-103.664 888.797,-90.2424 868.996,-80.249"/>
<polygon fill="midnightblue" stroke="midnightblue" points="870.396,-77.0354 859.892,-75.6545 867.242,-83.2847 870.396,-77.0354"/>
</g>
<!-- Node21 -->
<g id="node21" class="node"><title>Node21</title>
<polygon fill="white" stroke="#bfbfbf" points="883.243,-56.5 883.243,-75.5 924.243,-75.5 924.243,-56.5 883.243,-56.5"/>
<text text-anchor="middle" x="903.743" y="-63.5" font-family="Helvetica,sans-Serif" font-size="10.00">QPair</text>
</g>
<!-- Node20&#45;&gt;Node21 -->
<g id="edge25" class="edge"><title>Node20&#45;&gt;Node21</title>
<path fill="none" stroke="midnightblue" d="M942.147,-112.083C935.515,-104.298 925.722,-92.8015 917.685,-83.3665"/>
<polygon fill="midnightblue" stroke="midnightblue" points="920.347,-81.0939 911.198,-75.7511 915.018,-85.6332 920.347,-81.0939"/>
</g>
<!-- Node22 -->
<g id="node22" class="node"><title>Node22</title>
<polygon fill="white" stroke="#bfbfbf" points="942.243,-56.5 942.243,-75.5 1013.24,-75.5 1013.24,-56.5 942.243,-56.5"/>
<text text-anchor="middle" x="977.743" y="-63.5" font-family="Helvetica,sans-Serif" font-size="10.00">QDateTime</text>
</g>
<!-- Node20&#45;&gt;Node22 -->
<g id="edge27" class="edge"><title>Node20&#45;&gt;Node22</title>
<path fill="none" stroke="midnightblue" d="M954.367,-112.083C958.199,-104.691 963.767,-93.9533 968.508,-84.8111"/>
<polygon fill="midnightblue" stroke="midnightblue" points="971.709,-86.2398 973.205,-75.7511 965.495,-83.0175 971.709,-86.2398"/>
</g>
<!-- Node23 -->
<g id="node23" class="node"><title>Node23</title>
<g id="a_node23"><a xlink:href="../../de/de6/torchttpreader_8h.html" target="_top" xlink:title="torchttpreader.h">
<polygon fill="white" stroke="black" points="1031.24,-56.5 1031.24,-75.5 1126.24,-75.5 1126.24,-56.5 1031.24,-56.5"/>
<text text-anchor="middle" x="1078.74" y="-63.5" font-family="Helvetica,sans-Serif" font-size="10.00">torchttpreader.h</text>
</a>
</g>
</g>
<!-- Node20&#45;&gt;Node23 -->
<g id="edge28" class="edge"><title>Node20&#45;&gt;Node23</title>
<path fill="none" stroke="midnightblue" d="M970.183,-112.444C991.413,-103.557 1024.84,-89.5632 1049,-79.4514"/>
<polygon fill="midnightblue" stroke="midnightblue" points="1050.53,-82.6064 1058.4,-75.5164 1047.82,-76.1493 1050.53,-82.6064"/>
</g>
<!-- Node24 -->
<g id="node24" class="node"><title>Node24</title>
<polygon fill="white" stroke="#bfbfbf" points="998.243,-0.5 998.243,-19.5 1069.24,-19.5 1069.24,-0.5 998.243,-0.5"/>
<text text-anchor="middle" x="1033.74" y="-7.5" font-family="Helvetica,sans-Serif" font-size="10.00">QByteArray</text>
</g>
<!-- Node23&#45;&gt;Node24 -->
<g id="edge29" class="edge"><title>Node23&#45;&gt;Node24</title>
<path fill="none" stroke="midnightblue" d="M1071.31,-56.083C1064.89,-48.3768 1055.44,-37.0333 1047.62,-27.6531"/>
<polygon fill="midnightblue" stroke="midnightblue" points="1050.13,-25.1927 1041.04,-19.7511 1044.75,-29.674 1050.13,-25.1927"/>
</g>
<!-- Node25 -->
<g id="node25" class="node"><title>Node25</title>
<polygon fill="white" stroke="#bfbfbf" points="1087.74,-0.5 1087.74,-19.5 1159.74,-19.5 1159.74,-0.5 1087.74,-0.5"/>
<text text-anchor="middle" x="1123.74" y="-7.5" font-family="Helvetica,sans-Serif" font-size="10.00">QTcpSocket</text>
</g>
<!-- Node23&#45;&gt;Node25 -->
<g id="edge30" class="edge"><title>Node23&#45;&gt;Node25</title>
<path fill="none" stroke="midnightblue" d="M1086.17,-56.083C1092.6,-48.3768 1102.05,-37.0333 1109.87,-27.6531"/>
<polygon fill="midnightblue" stroke="midnightblue" points="1112.74,-29.674 1116.45,-19.7511 1107.36,-25.1927 1112.74,-29.674"/>
</g>
<!-- Node26&#45;&gt;Node3 -->
<g id="edge33" class="edge"><title>Node26&#45;&gt;Node3</title>
<path fill="none" stroke="midnightblue" d="M497.827,-224.444C476.007,-215.517 441.593,-201.439 416.851,-191.317"/>
<polygon fill="midnightblue" stroke="midnightblue" points="418.142,-188.063 407.561,-187.516 415.491,-194.542 418.142,-188.063"/>
</g>
<!-- Node28 -->
<g id="node28" class="node"><title>Node28</title>
<g id="a_node28"><a xlink:href="../../d3/d66/torcevent_8h.html" target="_top" xlink:title="torcevent.h">
<polygon fill="white" stroke="black" points="34.243,-224.5 34.243,-243.5 105.243,-243.5 105.243,-224.5 34.243,-224.5"/>
<text text-anchor="middle" x="69.743" y="-231.5" font-family="Helvetica,sans-Serif" font-size="10.00">torcevent.h</text>
</a>
</g>
</g>
<!-- Node27&#45;&gt;Node28 -->
<g id="edge35" class="edge"><title>Node27&#45;&gt;Node28</title>
<path fill="none" stroke="midnightblue" d="M223.097,-285.975C192.126,-275.68 139.87,-258.31 105.092,-246.75"/>
<polygon fill="midnightblue" stroke="midnightblue" points="105.935,-243.342 95.3417,-243.509 103.727,-249.985 105.935,-243.342"/>
</g>
<!-- Node28&#45;&gt;Node12 -->
<g id="edge37" class="edge"><title>Node28&#45;&gt;Node12</title>
<path fill="none" stroke="midnightblue" d="M86.7737,-224.324C103.773,-215.664 130.119,-202.242 149.736,-192.249"/>
<polygon fill="midnightblue" stroke="midnightblue" points="151.433,-195.312 158.755,-187.655 148.255,-189.075 151.433,-195.312"/>
</g>
<!-- Node28&#45;&gt;Node15 -->
<g id="edge36" class="edge"><title>Node28&#45;&gt;Node15</title>
<path fill="none" stroke="midnightblue" d="M76.0876,-224.057C86.9065,-209.577 110.425,-181.283 137.743,-168 168.599,-152.997 676.056,-88.0681 810.351,-71.0802"/>
<polygon fill="midnightblue" stroke="midnightblue" points="810.941,-74.5335 820.424,-69.8074 810.064,-67.5887 810.941,-74.5335"/>
</g>
<!-- Node29 -->
<g id="node29" class="node"><title>Node29</title>
<polygon fill="white" stroke="#bfbfbf" points="39.243,-168.5 39.243,-187.5 90.243,-187.5 90.243,-168.5 39.243,-168.5"/>
<text text-anchor="middle" x="64.743" y="-175.5" font-family="Helvetica,sans-Serif" font-size="10.00">QEvent</text>
</g>
<!-- Node28&#45;&gt;Node29 -->
<g id="edge38" class="edge"><title>Node28&#45;&gt;Node29</title>
<path fill="none" stroke="midnightblue" d="M68.9173,-224.083C68.2621,-217.006 67.3227,-206.861 66.501,-197.986"/>
<polygon fill="midnightblue" stroke="midnightblue" points="69.9604,-197.386 65.5533,-187.751 62.9903,-198.031 69.9604,-197.386"/>
</g>
<!-- Node31 -->
<g id="node31" class="node"><title>Node31</title>
<g id="a_node31"><a xlink:href="../../d4/da3/torcdb_8h.html" target="_top" xlink:title="torcdb.h">
<polygon fill="white" stroke="black" points="824.743,-224.5 824.743,-243.5 880.743,-243.5 880.743,-224.5 824.743,-224.5"/>
<text text-anchor="middle" x="852.743" y="-231.5" font-family="Helvetica,sans-Serif" font-size="10.00">torcdb.h</text>
</a>
</g>
</g>
<!-- Node30&#45;&gt;Node31 -->
<g id="edge40" class="edge"><title>Node30&#45;&gt;Node31</title>
<path fill="none" stroke="midnightblue" d="M841.606,-285.975C843.459,-277.492 846.362,-264.204 848.74,-253.322"/>
<polygon fill="midnightblue" stroke="midnightblue" points="852.169,-254.026 850.884,-243.509 845.33,-252.532 852.169,-254.026"/>
</g>
<!-- Node31&#45;&gt;Node5 -->
<g id="edge41" class="edge"><title>Node31&#45;&gt;Node5</title>
<path fill="none" stroke="midnightblue" d="M824.527,-226.291C821.23,-225.515 817.913,-224.737 814.743,-224 759.263,-211.094 694.912,-196.457 655.261,-187.477"/>
<polygon fill="midnightblue" stroke="midnightblue" points="656.016,-184.059 645.49,-185.265 654.471,-190.886 656.016,-184.059"/>
</g>
<!-- Node31&#45;&gt;Node8 -->
<g id="edge42" class="edge"><title>Node31&#45;&gt;Node8</title>
<path fill="none" stroke="midnightblue" d="M828.817,-224.444C803.524,-215.399 763.441,-201.064 735.063,-190.916"/>
<polygon fill="midnightblue" stroke="midnightblue" points="736.152,-187.588 725.557,-187.516 733.795,-194.179 736.152,-187.588"/>
</g>
<!-- Node33 -->
<g id="node33" class="node"><title>Node33</title>
<polygon fill="white" stroke="#bfbfbf" points="1158.24,-224.5 1158.24,-243.5 1199.24,-243.5 1199.24,-224.5 1158.24,-224.5"/>
<text text-anchor="middle" x="1178.74" y="-231.5" font-family="Helvetica,sans-Serif" font-size="10.00">QList</text>
</g>
<!-- Node32&#45;&gt;Node33 -->
<g id="edge44" class="edge"><title>Node32&#45;&gt;Node33</title>
<path fill="none" stroke="midnightblue" d="M1049.38,-285.975C1075.46,-275.697 1119.44,-258.368 1148.78,-246.808"/>
<polygon fill="midnightblue" stroke="midnightblue" points="1150.1,-250.05 1158.12,-243.127 1147.53,-243.537 1150.1,-250.05"/>
</g>
<!-- Node32&#45;&gt;Node34 -->
<g id="edge45" class="edge"><title>Node32&#45;&gt;Node34</title>
<path fill="none" stroke="midnightblue" d="M1062.27,-285.975C1104.95,-275.437 1177.66,-257.486 1224.43,-245.941"/>
<polygon fill="midnightblue" stroke="midnightblue" points="1225.41,-249.304 1234.28,-243.509 1223.73,-242.508 1225.41,-249.304"/>
</g>
<!-- Node35 -->
<g id="node35" class="node"><title>Node35</title>
<polygon fill="white" stroke="#bfbfbf" points="1411.24,-168.5 1411.24,-187.5 1468.24,-187.5 1468.24,-168.5 1411.24,-168.5"/>
<text text-anchor="middle" x="1439.74" y="-175.5" font-family="Helvetica,sans-Serif" font-size="10.00">QThread</text>
</g>
<!-- Node34&#45;&gt;Node35 -->
<g id="edge46" class="edge"><title>Node34&#45;&gt;Node35</title>
<path fill="none" stroke="midnightblue" d="M1295.84,-224.444C1324.73,-215.32 1370.67,-200.813 1402.85,-190.651"/>
<polygon fill="midnightblue" stroke="midnightblue" points="1404.29,-193.865 1412.77,-187.516 1402.18,-187.19 1404.29,-193.865"/>
</g>
<!-- Node36&#45;&gt;Node5 -->
<g id="edge48" class="edge"><title>Node36&#45;&gt;Node5</title>
<path fill="none" stroke="midnightblue" d="M410.75,-285.644C414.626,-270.615 424.597,-240.177 444.743,-224 483.672,-192.74 541.993,-182.998 579.96,-180.074"/>
<polygon fill="midnightblue" stroke="midnightblue" points="580.343,-183.556 590.096,-179.418 579.89,-176.571 580.343,-183.556"/>
</g>
<!-- Node36&#45;&gt;Node12 -->
<g id="edge49" class="edge"><title>Node36&#45;&gt;Node12</title>
<path fill="none" stroke="midnightblue" d="M359.648,-285.955C299.106,-274.988 202.688,-255.955 190.743,-244 178.729,-231.976 175.56,-212.375 175.043,-197.837"/>
<polygon fill="midnightblue" stroke="midnightblue" points="178.544,-197.516 175.079,-187.504 171.544,-197.492 178.544,-197.516"/>
</g>
<!-- Node37 -->
<g id="node37" class="node"><title>Node37</title>
<polygon fill="white" stroke="#bfbfbf" points="310.243,-224.5 310.243,-243.5 359.243,-243.5 359.243,-224.5 310.243,-224.5"/>
<text text-anchor="middle" x="334.743" y="-231.5" font-family="Helvetica,sans-Serif" font-size="10.00">QHash</text>
</g>
<!-- Node36&#45;&gt;Node37 -->
<g id="edge50" class="edge"><title>Node36&#45;&gt;Node37</title>
<path fill="none" stroke="midnightblue" d="M398.141,-285.975C386.491,-276.608 367.557,-261.384 353.408,-250.008"/>
<polygon fill="midnightblue" stroke="midnightblue" points="355.312,-247.048 345.326,-243.509 350.926,-252.503 355.312,-247.048"/>
</g>
<!-- Node36&#45;&gt;Node38 -->
<g id="edge51" class="edge"><title>Node36&#45;&gt;Node38</title>
<path fill="none" stroke="midnightblue" d="M463.794,-290.078C499.661,-287.2 547.477,-283.369 589.743,-280 791.514,-263.918 842.736,-267.802 1043.74,-244 1046.22,-243.706 1048.76,-243.384 1051.32,-243.042"/>
<polygon fill="midnightblue" stroke="midnightblue" points="1051.83,-246.506 1061.24,-241.643 1050.85,-239.575 1051.83,-246.506"/>
</g>
<!-- Node39 -->
<g id="node39" class="node"><title>Node39</title>
<polygon fill="white" stroke="#bfbfbf" points="1154.24,-168.5 1154.24,-187.5 1207.24,-187.5 1207.24,-168.5 1154.24,-168.5"/>
<text text-anchor="middle" x="1180.74" y="-175.5" font-family="Helvetica,sans-Serif" font-size="10.00">stdint.h</text>
</g>
<!-- Node38&#45;&gt;Node39 -->
<g id="edge52" class="edge"><title>Node38&#45;&gt;Node39</title>
<path fill="none" stroke="midnightblue" d="M1113.6,-224.324C1125.96,-215.979 1144.87,-203.212 1159.48,-193.352"/>
<polygon fill="midnightblue" stroke="midnightblue" points="1161.59,-196.15 1167.92,-187.655 1157.67,-190.348 1161.59,-196.15"/>
</g>
<!-- Node40 -->
<g id="node40" class="node"><title>Node40</title>
<polygon fill="white" stroke="#bfbfbf" points="1225.24,-168.5 1225.24,-187.5 1276.24,-187.5 1276.24,-168.5 1225.24,-168.5"/>
<text text-anchor="middle" x="1250.74" y="-175.5" font-family="Helvetica,sans-Serif" font-size="10.00">errno.h</text>
</g>
<!-- Node38&#45;&gt;Node40 -->
<g id="edge53" class="edge"><title>Node38&#45;&gt;Node40</title>
<path fill="none" stroke="midnightblue" d="M1124.51,-224.444C1149.64,-215.399 1189.45,-201.064 1217.64,-190.916"/>
<polygon fill="midnightblue" stroke="midnightblue" points="1218.86,-194.197 1227.09,-187.516 1216.49,-187.611 1218.86,-194.197"/>
</g>
<!-- Node41 -->
<g id="node41" class="node"><title>Node41</title>
<g id="a_node41"><a xlink:href="../../d1/d37/torcloggingdefs_8h.html" target="_top" xlink:title="torcloggingdefs.h">
<polygon fill="white" stroke="black" points="1294.24,-168.5 1294.24,-187.5 1393.24,-187.5 1393.24,-168.5 1294.24,-168.5"/>
<text text-anchor="middle" x="1343.74" y="-175.5" font-family="Helvetica,sans-Serif" font-size="10.00">torcloggingdefs.h</text>
</a>
</g>
</g>
<!-- Node38&#45;&gt;Node41 -->
<g id="edge54" class="edge"><title>Node38&#45;&gt;Node41</title>
<path fill="none" stroke="midnightblue" d="M1139.25,-224.444C1181.55,-215.043 1249.56,-199.929 1295.42,-189.739"/>
<polygon fill="midnightblue" stroke="midnightblue" points="1296.42,-193.102 1305.42,-187.516 1294.9,-186.269 1296.42,-193.102"/>
</g>
<!-- Node43 -->
<g id="node43" class="node"><title>Node43</title>
<polygon fill="white" stroke="#bfbfbf" points="1136.74,-280.5 1136.74,-310.5 1258.74,-310.5 1258.74,-280.5 1136.74,-280.5"/>
<text text-anchor="start" x="1144.74" y="-298.5" font-family="Helvetica,sans-Serif" font-size="10.00">ApplicationServices</text>
<text text-anchor="middle" x="1197.74" y="-287.5" font-family="Helvetica,sans-Serif" font-size="10.00">/ApplicationServices.h</text>
</g>
<!-- Node42&#45;&gt;Node43 -->
<g id="edge57" class="edge"><title>Node42&#45;&gt;Node43</title>
<path fill="none" stroke="midnightblue" d="M1181.47,-347.475C1183.75,-340.32 1187.13,-329.748 1190.21,-320.084"/>
<polygon fill="midnightblue" stroke="midnightblue" points="1193.56,-321.114 1193.27,-310.523 1186.89,-318.984 1193.56,-321.114"/>
</g>
<!-- Node44&#45;&gt;Node34 -->
<g id="edge62" class="edge"><title>Node44&#45;&gt;Node34</title>
<path fill="none" stroke="midnightblue" d="M1285.45,-347.298C1282.54,-327.763 1275.45,-280.065 1271.5,-253.547"/>
<polygon fill="midnightblue" stroke="midnightblue" points="1274.96,-252.999 1270.03,-243.623 1268.04,-254.029 1274.96,-252.999"/>
</g>
<!-- Node45 -->
<g id="node45" class="node"><title>Node45</title>
<polygon fill="white" stroke="#bfbfbf" points="1314.74,-286 1314.74,-305 1494.74,-305 1494.74,-286 1314.74,-286"/>
<text text-anchor="middle" x="1404.74" y="-293" font-family="Helvetica,sans-Serif" font-size="10.00">CoreFoundation/CoreFoundation.h</text>
</g>
<!-- Node44&#45;&gt;Node45 -->
<g id="edge61" class="edge"><title>Node44&#45;&gt;Node45</title>
<path fill="none" stroke="midnightblue" d="M1303.65,-347.475C1323.28,-337.578 1355.87,-321.142 1378.73,-309.615"/>
<polygon fill="midnightblue" stroke="midnightblue" points="1380.51,-312.637 1387.87,-305.009 1377.36,-306.386 1380.51,-312.637"/>
</g>
</g>
</svg>
        <g id="navigator" transform="translate(0 0)" fill="#404254">
                <rect fill="#f2f5e9" fill-opacity="0.5" stroke="#606060" stroke-width=".5" x="0" y="0" width="60" height="60"/>
                <use id="zoomplus" xlink:href="#zoomPlus" x="17" y="9" onmousedown="handleZoom(evt,'in')"/>
                <use id="zoomminus" xlink:href="#zoomMin" x="42" y="9" onmousedown="handleZoom(evt,'out')"/>
                <use id="reset" xlink:href="#resetDef" x="30" y="36" onmousedown="handleReset()"/>
                <g id="arrowUp" xlink:href="#dirArrow" transform="translate(30 24)" onmousedown="handlePan(0,-1)">
                  <use xlink:href="#rim" fill="#404040">
                        <set attributeName="fill" to="#808080" begin="arrowUp.mouseover" end="arrowUp.mouseout"/>
                  </use>
                  <path fill="none" stroke="white" stroke-width="1.5" d="M0,-3.0v7 M-2.5,-0.5L0,-3.0L2.5,-0.5"/>
                </g>
                <g id="arrowRight" xlink:href="#dirArrow" transform="rotate(90) translate(36 -43)" onmousedown="handlePan(1,0)">
                  <use xlink:href="#rim" fill="#404040">
                        <set attributeName="fill" to="#808080" begin="arrowRight.mouseover" end="arrowRight.mouseout"/>
                  </use>
                  <path fill="none" stroke="white" stroke-width="1.5" d="M0,-3.0v7 M-2.5,-0.5L0,-3.0L2.5,-0.5"/>
                </g>
                <g id="arrowDown" xlink:href="#dirArrow" transform="rotate(180) translate(-30 -48)" onmousedown="handlePan(0,1)">
                  <use xlink:href="#rim" fill="#404040">
                        <set attributeName="fill" to="#808080" begin="arrowDown.mouseover" end="arrowDown.mouseout"/>
                  </use>
                  <path fill="none" stroke="white" stroke-width="1.5" d="M0,-3.0v7 M-2.5,-0.5L0,-3.0L2.5,-0.5"/>
                </g>
                <g id="arrowLeft" xlink:href="#dirArrow" transform="rotate(270) translate(-36 17)" onmousedown="handlePan(-1,0)">
                  <use xlink:href="#rim" fill="#404040">
                        <set attributeName="fill" to="#808080" begin="arrowLeft.mouseover" end="arrowLeft.mouseout"/>
                  </use>
                  <path fill="none" stroke="white" stroke-width="1.5" d="M0,-3.0v7 M-2.5,-0.5L0,-3.0L2.5,-0.5"/>
                </g>
        </g>
        <svg viewBox="0 0 15 15" width="100%" height="30px" preserveAspectRatio="xMaxYMin meet">
         <g id="arrow_out" transform="scale(0.3 0.3)">
          <a xlink:href="torcrunlooposx_8cpp__incl_org.svg" target="_base">
           <rect id="button" ry="5" rx="5" y="6" x="6" height="38" width="38"
                fill="#f2f5e9" fill-opacity="0.5" stroke="#606060" stroke-width="1.0"/>
           <path id="arrow"
             d="M 11.500037,31.436501 C 11.940474,20.09759 22.043105,11.32322 32.158766,21.979434 L 37.068811,17.246167 C 37.068811,17.246167 37.088388,32 37.088388,32 L 22.160133,31.978069 C 22.160133,31.978069 26.997745,27.140456 26.997745,27.140456 C 18.528582,18.264221 13.291696,25.230495 11.500037,31.436501 z"
             style="fill:#404040;"/>
          </a>
         </g>
        </svg>
</svg>
