<?xml version="1.0" encoding="UTF-8" standalone="no"?>
<!DOCTYPE svg PUBLIC "-//W3C//DTD SVG 1.1//EN"
 "http://www.w3.org/Graphics/SVG/1.1/DTD/svg11.dtd">
<!-- Generated by graphviz version 2.38.0 (20140413.2041)
 -->
<!-- Title: torcrunlooposx.cpp Pages: 1 -->
<svg width="1783pt" height="431pt"
 viewBox="0.00 0.00 1782.50 431.00" xmlns="http://www.w3.org/2000/svg" xmlns:xlink="http://www.w3.org/1999/xlink">
<g id="graph0" class="graph" transform="scale(1 1) rotate(0) translate(4 427)">
<title>torcrunlooposx.cpp</title>
<polygon fill="white" stroke="none" points="-4,4 -4,-427 1778.5,-427 1778.5,4 -4,4"/>
<!-- Node1 -->
<g id="node1" class="node"><title>Node1</title>
<polygon fill="#bfbfbf" stroke="black" points="984.5,-403.5 984.5,-422.5 1092.5,-422.5 1092.5,-403.5 984.5,-403.5"/>
<text text-anchor="middle" x="1038.5" y="-410.5" font-family="Helvetica,sans-Serif" font-size="10.00">torcrunlooposx.cpp</text>
</g>
<!-- Node2 -->
<g id="node2" class="node"><title>Node2</title>
<polygon fill="white" stroke="#bfbfbf" points="132,-347.5 132,-366.5 183,-366.5 183,-347.5 132,-347.5"/>
<text text-anchor="middle" x="157.5" y="-354.5" font-family="Helvetica,sans-Serif" font-size="10.00">QTimer</text>
</g>
<!-- Node1&#45;&gt;Node2 -->
<g id="edge1" class="edge"><title>Node1&#45;&gt;Node2</title>
<path fill="none" stroke="midnightblue" d="M984.086,-412.24C849.82,-412.15 492.245,-407.75 197.5,-367 196.046,-366.799 194.566,-366.572 193.075,-366.324"/>
<polygon fill="midnightblue" stroke="midnightblue" points="193.682,-362.877 183.205,-364.451 192.376,-369.754 193.682,-362.877"/>
</g>
<!-- Node3 -->
<g id="node3" class="node"><title>Node3</title>
<polygon fill="white" stroke="#bfbfbf" points="489.5,-168.5 489.5,-187.5 559.5,-187.5 559.5,-168.5 489.5,-168.5"/>
<text text-anchor="middle" x="524.5" y="-175.5" font-family="Helvetica,sans-Serif" font-size="10.00">QAtomicInt</text>
</g>
<!-- Node1&#45;&gt;Node3 -->
<g id="edge2" class="edge"><title>Node1&#45;&gt;Node3</title>
<path fill="none" stroke="midnightblue" d="M1000.96,-403.421C964.956,-394.968 909.188,-381.277 861.5,-367 711.951,-322.228 627.7,-367.719 532.5,-244 522.433,-230.917 521.212,-211.767 522.04,-197.639"/>
<polygon fill="midnightblue" stroke="midnightblue" points="525.533,-197.889 523.015,-187.598 518.565,-197.213 525.533,-197.889"/>
</g>
<!-- Node4 -->
<g id="node4" class="node"><title>Node4</title>
<g id="a_node4"><a xlink:href="../../dd/dbd/torclocalcontext_8h.html" target="_top" xlink:title="torclocalcontext.h">
<polygon fill="white" stroke="black" points="870.5,-347.5 870.5,-366.5 972.5,-366.5 972.5,-347.5 870.5,-347.5"/>
<text text-anchor="middle" x="921.5" y="-354.5" font-family="Helvetica,sans-Serif" font-size="10.00">torclocalcontext.h</text>
</a>
</g>
</g>
<!-- Node1&#45;&gt;Node4 -->
<g id="edge3" class="edge"><title>Node1&#45;&gt;Node4</title>
<path fill="none" stroke="midnightblue" d="M1019.96,-403.444C1000.88,-394.636 970.925,-380.812 949.064,-370.722"/>
<polygon fill="midnightblue" stroke="midnightblue" points="950.499,-367.529 939.952,-366.516 947.565,-373.885 950.499,-367.529"/>
</g>
<!-- Node32 -->
<g id="node32" class="node"><title>Node32</title>
<g id="a_node32"><a xlink:href="../../dd/dd5/torcadminthread_8h.html" target="_top" xlink:title="torcadminthread.h">
<polygon fill="white" stroke="black" points="1254.5,-286 1254.5,-305 1360.5,-305 1360.5,-286 1254.5,-286"/>
<text text-anchor="middle" x="1307.5" y="-293" font-family="Helvetica,sans-Serif" font-size="10.00">torcadminthread.h</text>
</a>
</g>
</g>
<!-- Node1&#45;&gt;Node32 -->
<g id="edge60" class="edge"><title>Node1&#45;&gt;Node32</title>
<path fill="none" stroke="midnightblue" d="M1058.72,-403.319C1105.86,-383.077 1223.23,-332.682 1278.21,-309.075"/>
<polygon fill="midnightblue" stroke="midnightblue" points="1279.61,-312.286 1287.41,-305.124 1276.84,-305.854 1279.61,-312.286"/>
</g>
<!-- Node34 -->
<g id="node34" class="node"><title>Node34</title>
<g id="a_node34"><a xlink:href="../../dd/db0/torcqthread_8h.html" target="_top" xlink:title="torcqthread.h">
<polygon fill="white" stroke="black" points="1347.5,-224.5 1347.5,-243.5 1429.5,-243.5 1429.5,-224.5 1347.5,-224.5"/>
<text text-anchor="middle" x="1388.5" y="-231.5" font-family="Helvetica,sans-Serif" font-size="10.00">torcqthread.h</text>
</a>
</g>
</g>
<!-- Node1&#45;&gt;Node34 -->
<g id="edge59" class="edge"><title>Node1&#45;&gt;Node34</title>
<path fill="none" stroke="midnightblue" d="M1092.68,-411.107C1166.06,-406.865 1296.25,-388.096 1369.5,-311 1384.04,-295.699 1387.93,-271.02 1388.74,-253.956"/>
<polygon fill="midnightblue" stroke="midnightblue" points="1392.25,-253.622 1388.91,-243.568 1385.25,-253.512 1392.25,-253.622"/>
</g>
<!-- Node38 -->
<g id="node38" class="node"><title>Node38</title>
<g id="a_node38"><a xlink:href="../../d4/df9/torclogging_8h.html" target="_top" xlink:title="torclogging.h">
<polygon fill="white" stroke="black" points="135,-224.5 135,-243.5 214,-243.5 214,-224.5 135,-224.5"/>
<text text-anchor="middle" x="174.5" y="-231.5" font-family="Helvetica,sans-Serif" font-size="10.00">torclogging.h</text>
</a>
</g>
</g>
<!-- Node1&#45;&gt;Node38 -->
<g id="edge56" class="edge"><title>Node1&#45;&gt;Node38</title>
<path fill="none" stroke="midnightblue" d="M984.299,-411.207C824.088,-407.95 356.099,-391.595 230.5,-311 208.361,-296.794 191.97,-270.527 182.822,-252.907"/>
<polygon fill="midnightblue" stroke="midnightblue" points="185.841,-251.115 178.284,-243.689 179.561,-254.206 185.841,-251.115"/>
</g>
<!-- Node42 -->
<g id="node42" class="node"><title>Node42</title>
<g id="a_node42"><a xlink:href="../../d6/de4/torccocoa_8h.html" target="_top" xlink:title="torccocoa.h">
<polygon fill="white" stroke="black" points="1604,-347.5 1604,-366.5 1677,-366.5 1677,-347.5 1604,-347.5"/>
<text text-anchor="middle" x="1640.5" y="-354.5" font-family="Helvetica,sans-Serif" font-size="10.00">torccocoa.h</text>
</a>
</g>
</g>
<!-- Node1&#45;&gt;Node42 -->
<g id="edge57" class="edge"><title>Node1&#45;&gt;Node42</title>
<path fill="none" stroke="midnightblue" d="M1092.72,-407.137C1209.61,-396.651 1483.65,-372.07 1593.62,-362.205"/>
<polygon fill="midnightblue" stroke="midnightblue" points="1594.09,-365.677 1603.74,-361.298 1593.46,-358.705 1594.09,-365.677"/>
</g>
<!-- Node44 -->
<g id="node44" class="node"><title>Node44</title>
<g id="a_node44"><a xlink:href="../../d3/de4/torcrunlooposx_8h.html" target="_top" xlink:title="torcrunlooposx.h">
<polygon fill="white" stroke="black" points="1417,-347.5 1417,-366.5 1514,-366.5 1514,-347.5 1417,-347.5"/>
<text text-anchor="middle" x="1465.5" y="-354.5" font-family="Helvetica,sans-Serif" font-size="10.00">torcrunlooposx.h</text>
</a>
</g>
</g>
<!-- Node1&#45;&gt;Node44 -->
<g id="edge61" class="edge"><title>Node1&#45;&gt;Node44</title>
<path fill="none" stroke="midnightblue" d="M1092.5,-405.647C1163.61,-397.207 1292.52,-381.653 1402.5,-367 1403.79,-366.828 1405.1,-366.652 1406.42,-366.474"/>
<polygon fill="midnightblue" stroke="midnightblue" points="1407.24,-369.894 1416.67,-365.068 1406.29,-362.959 1407.24,-369.894"/>
</g>
<!-- Node5 -->
<g id="node5" class="node"><title>Node5</title>
<polygon fill="white" stroke="#bfbfbf" points="583,-168.5 583,-187.5 638,-187.5 638,-168.5 583,-168.5"/>
<text text-anchor="middle" x="610.5" y="-175.5" font-family="Helvetica,sans-Serif" font-size="10.00">QObject</text>
</g>
<!-- Node4&#45;&gt;Node5 -->
<g id="edge4" class="edge"><title>Node4&#45;&gt;Node5</title>
<path fill="none" stroke="midnightblue" d="M870.4,-355.87C827.395,-353.266 766.381,-343.438 724.5,-311 690.083,-284.343 708.696,-256.291 679.5,-224 667.81,-211.071 651.612,-200.253 637.848,-192.467"/>
<polygon fill="midnightblue" stroke="midnightblue" points="639.254,-189.249 628.793,-187.572 635.925,-195.406 639.254,-189.249"/>
</g>
<!-- Node6 -->
<g id="node6" class="node"><title>Node6</title>
<polygon fill="white" stroke="#bfbfbf" points="1041,-56.5 1041,-75.5 1094,-75.5 1094,-56.5 1041,-56.5"/>
<text text-anchor="middle" x="1067.5" y="-63.5" font-family="Helvetica,sans-Serif" font-size="10.00">QString</text>
</g>
<!-- Node4&#45;&gt;Node6 -->
<g id="edge5" class="edge"><title>Node4&#45;&gt;Node6</title>
<path fill="none" stroke="midnightblue" d="M972.741,-351.964C1014.16,-346.952 1072.88,-335.785 1118.5,-311 1185.34,-274.691 1210.39,-259.068 1237.5,-188 1261.56,-124.938 1160.55,-89.5767 1103.78,-74.9981"/>
<polygon fill="midnightblue" stroke="midnightblue" points="1104.62,-71.5998 1094.07,-72.5955 1102.94,-78.3949 1104.62,-71.5998"/>
</g>
<!-- Node7 -->
<g id="node7" class="node"><title>Node7</title>
<polygon fill="white" stroke="#bfbfbf" points="1136.5,-168.5 1136.5,-187.5 1228.5,-187.5 1228.5,-168.5 1136.5,-168.5"/>
<text text-anchor="middle" x="1182.5" y="-175.5" font-family="Helvetica,sans-Serif" font-size="10.00">QReadWriteLock</text>
</g>
<!-- Node4&#45;&gt;Node7 -->
<g id="edge6" class="edge"><title>Node4&#45;&gt;Node7</title>
<path fill="none" stroke="midnightblue" d="M963.499,-347.464C994.803,-340.186 1038.08,-328.155 1073.5,-311 1120,-288.478 1140,-287.094 1168.5,-244 1177.55,-230.31 1180.87,-211.775 1182.03,-198.001"/>
<polygon fill="midnightblue" stroke="midnightblue" points="1185.54,-197.933 1182.57,-187.761 1178.55,-197.561 1185.54,-197.933"/>
</g>
<!-- Node8 -->
<g id="node8" class="node"><title>Node8</title>
<polygon fill="white" stroke="#bfbfbf" points="656,-168.5 656,-187.5 709,-187.5 709,-168.5 656,-168.5"/>
<text text-anchor="middle" x="682.5" y="-175.5" font-family="Helvetica,sans-Serif" font-size="10.00">QMutex</text>
</g>
<!-- Node4&#45;&gt;Node8 -->
<g id="edge7" class="edge"><title>Node4&#45;&gt;Node8</title>
<path fill="none" stroke="midnightblue" d="M911.755,-347.223C901.926,-338.287 886.401,-323.946 873.5,-311 836.207,-273.578 835.962,-254.036 792.5,-224 770.126,-208.538 741.629,-197.068 719.247,-189.579"/>
<polygon fill="midnightblue" stroke="midnightblue" points="720.029,-186.154 709.438,-186.418 717.882,-192.816 720.029,-186.154"/>
</g>
<!-- Node9 -->
<g id="node9" class="node"><title>Node9</title>
<g id="a_node9"><a xlink:href="../../db/db2/torclocaldefs_8h.html" target="_top" xlink:title="torclocaldefs.h">
<polygon fill="white" stroke="black" points="978.5,-286 978.5,-305 1064.5,-305 1064.5,-286 978.5,-286"/>
<text text-anchor="middle" x="1021.5" y="-293" font-family="Helvetica,sans-Serif" font-size="10.00">torclocaldefs.h</text>
</a>
</g>
</g>
<!-- Node4&#45;&gt;Node9 -->
<g id="edge8" class="edge"><title>Node4&#45;&gt;Node9</title>
<path fill="none" stroke="midnightblue" d="M935.828,-347.475C952.164,-337.755 979.102,-321.727 998.412,-310.237"/>
<polygon fill="midnightblue" stroke="midnightblue" points="1000.39,-313.13 1007.2,-305.009 996.815,-307.115 1000.39,-313.13"/>
</g>
<!-- Node10 -->
<g id="node10" class="node"><title>Node10</title>
<g id="a_node10"><a xlink:href="../../db/df5/torcsetting_8h.html" target="_top" xlink:title="torcsetting.h">
<polygon fill="white" stroke="black" points="883,-286 883,-305 960,-305 960,-286 883,-286"/>
<text text-anchor="middle" x="921.5" y="-293" font-family="Helvetica,sans-Serif" font-size="10.00">torcsetting.h</text>
</a>
</g>
</g>
<!-- Node4&#45;&gt;Node10 -->
<g id="edge9" class="edge"><title>Node4&#45;&gt;Node10</title>
<path fill="none" stroke="midnightblue" d="M921.5,-347.475C921.5,-339.08 921.5,-325.981 921.5,-315.163"/>
<polygon fill="midnightblue" stroke="midnightblue" points="925,-315.009 921.5,-305.009 918,-315.009 925,-315.009"/>
</g>
<!-- Node27 -->
<g id="node27" class="node"><title>Node27</title>
<g id="a_node27"><a xlink:href="../../d6/d94/torcobservable_8h.html" target="_top" xlink:title="torcobservable.h">
<polygon fill="white" stroke="black" points="240,-286 240,-305 337,-305 337,-286 240,-286"/>
<text text-anchor="middle" x="288.5" y="-293" font-family="Helvetica,sans-Serif" font-size="10.00">torcobservable.h</text>
</a>
</g>
</g>
<!-- Node4&#45;&gt;Node27 -->
<g id="edge35" class="edge"><title>Node4&#45;&gt;Node27</title>
<path fill="none" stroke="midnightblue" d="M870.394,-354.858C769.578,-351.976 538.226,-342.244 346.5,-311 340.659,-310.048 334.543,-308.801 328.564,-307.437"/>
<polygon fill="midnightblue" stroke="midnightblue" points="329.245,-304.002 318.704,-305.064 327.607,-310.807 329.245,-304.002"/>
</g>
<!-- Node30 -->
<g id="node30" class="node"><title>Node30</title>
<g id="a_node30"><a xlink:href="../../d7/d70/torcsqlitedb_8h.html" target="_top" xlink:title="torcsqlitedb.h">
<polygon fill="white" stroke="black" points="733.5,-286 733.5,-305 815.5,-305 815.5,-286 733.5,-286"/>
<text text-anchor="middle" x="774.5" y="-293" font-family="Helvetica,sans-Serif" font-size="10.00">torcsqlitedb.h</text>
</a>
</g>
</g>
<!-- Node4&#45;&gt;Node30 -->
<g id="edge40" class="edge"><title>Node4&#45;&gt;Node30</title>
<path fill="none" stroke="midnightblue" d="M900.438,-347.475C875.441,-337.357 833.558,-320.405 805.013,-308.851"/>
<polygon fill="midnightblue" stroke="midnightblue" points="806.105,-305.517 795.522,-305.009 803.479,-312.005 806.105,-305.517"/>
</g>
<!-- Node4&#45;&gt;Node32 -->
<g id="edge44" class="edge"><title>Node4&#45;&gt;Node32</title>
<path fill="none" stroke="midnightblue" d="M972.511,-349.97C1035.64,-342.238 1146.35,-327.806 1240.5,-311 1246.88,-309.861 1253.58,-308.55 1260.17,-307.192"/>
<polygon fill="midnightblue" stroke="midnightblue" points="1261.32,-310.527 1270.38,-305.038 1259.88,-303.678 1261.32,-310.527"/>
</g>
<!-- Node36 -->
<g id="node36" class="node"><title>Node36</title>
<g id="a_node36"><a xlink:href="../../db/d41/torccommandline_8h.html" target="_top" xlink:title="torccommandline.h">
<polygon fill="white" stroke="black" points="355.5,-286 355.5,-305 465.5,-305 465.5,-286 355.5,-286"/>
<text text-anchor="middle" x="410.5" y="-293" font-family="Helvetica,sans-Serif" font-size="10.00">torccommandline.h</text>
</a>
</g>
</g>
<!-- Node4&#45;&gt;Node36 -->
<g id="edge48" class="edge"><title>Node4&#45;&gt;Node36</title>
<path fill="none" stroke="midnightblue" d="M870.164,-350.022C776.599,-339.128 578.502,-316.062 475.609,-304.081"/>
<polygon fill="midnightblue" stroke="midnightblue" points="475.992,-300.602 465.654,-302.922 475.182,-307.555 475.992,-300.602"/>
</g>
<!-- Node10&#45;&gt;Node5 -->
<g id="edge12" class="edge"><title>Node10&#45;&gt;Node5</title>
<path fill="none" stroke="midnightblue" d="M908.495,-285.902C885.827,-271.262 837.218,-241.394 792.5,-224 733.133,-200.908 713.226,-203.761 647.98,-188.307"/>
<polygon fill="midnightblue" stroke="midnightblue" points="648.558,-184.845 638.015,-185.888 646.908,-191.648 648.558,-184.845"/>
</g>
<!-- Node10&#45;&gt;Node7 -->
<g id="edge11" class="edge"><title>Node10&#45;&gt;Node7</title>
<path fill="none" stroke="midnightblue" d="M931.4,-285.858C948.723,-271.152 986.158,-241.188 1022.5,-224 1055.69,-208.303 1095.41,-197.094 1126.97,-189.788"/>
<polygon fill="midnightblue" stroke="midnightblue" points="1127.92,-193.162 1136.91,-187.553 1126.39,-186.332 1127.92,-193.162"/>
</g>
<!-- Node11 -->
<g id="node11" class="node"><title>Node11</title>
<polygon fill="white" stroke="#bfbfbf" points="1032,-224.5 1032,-243.5 1073,-243.5 1073,-224.5 1032,-224.5"/>
<text text-anchor="middle" x="1052.5" y="-231.5" font-family="Helvetica,sans-Serif" font-size="10.00">QSet</text>
</g>
<!-- Node10&#45;&gt;Node11 -->
<g id="edge10" class="edge"><title>Node10&#45;&gt;Node11</title>
<path fill="none" stroke="midnightblue" d="M940.269,-285.975C962.351,-275.945 999.219,-259.2 1024.64,-247.655"/>
<polygon fill="midnightblue" stroke="midnightblue" points="1026.11,-250.831 1033.77,-243.509 1023.21,-244.458 1026.11,-250.831"/>
</g>
<!-- Node12 -->
<g id="node12" class="node"><title>Node12</title>
<polygon fill="white" stroke="#bfbfbf" points="365.5,-168.5 365.5,-187.5 423.5,-187.5 423.5,-168.5 365.5,-168.5"/>
<text text-anchor="middle" x="394.5" y="-175.5" font-family="Helvetica,sans-Serif" font-size="10.00">QVariant</text>
</g>
<!-- Node10&#45;&gt;Node12 -->
<g id="edge13" class="edge"><title>Node10&#45;&gt;Node12</title>
<path fill="none" stroke="midnightblue" d="M882.828,-288.486C865.072,-285.785 843.733,-282.623 824.5,-280 694.939,-262.333 658.116,-280.316 532.5,-244 490.129,-231.75 444.481,-207.928 417.753,-192.776"/>
<polygon fill="midnightblue" stroke="midnightblue" points="419.216,-189.579 408.803,-187.623 415.723,-195.646 419.216,-189.579"/>
</g>
<!-- Node13 -->
<g id="node13" class="node"><title>Node13</title>
<polygon fill="white" stroke="#bfbfbf" points="1091,-224.5 1091,-243.5 1160,-243.5 1160,-224.5 1091,-224.5"/>
<text text-anchor="middle" x="1125.5" y="-231.5" font-family="Helvetica,sans-Serif" font-size="10.00">QStringList</text>
</g>
<!-- Node10&#45;&gt;Node13 -->
<g id="edge14" class="edge"><title>Node10&#45;&gt;Node13</title>
<path fill="none" stroke="midnightblue" d="M949.656,-285.93C956.167,-283.966 963.071,-281.898 969.5,-280 1009.02,-268.332 1054.27,-255.317 1085.82,-246.297"/>
<polygon fill="midnightblue" stroke="midnightblue" points="1086.91,-249.627 1095.56,-243.516 1084.98,-242.897 1086.91,-249.627"/>
</g>
<!-- Node14 -->
<g id="node14" class="node"><title>Node14</title>
<g id="a_node14"><a xlink:href="../../d3/dee/torchttpservice_8h.html" target="_top" xlink:title="torchttpservice.h">
<polygon fill="white" stroke="black" points="877.5,-224.5 877.5,-243.5 975.5,-243.5 975.5,-224.5 877.5,-224.5"/>
<text text-anchor="middle" x="926.5" y="-231.5" font-family="Helvetica,sans-Serif" font-size="10.00">torchttpservice.h</text>
</a>
</g>
</g>
<!-- Node10&#45;&gt;Node14 -->
<g id="edge15" class="edge"><title>Node10&#45;&gt;Node14</title>
<path fill="none" stroke="midnightblue" d="M922.216,-285.975C922.922,-277.58 924.023,-264.481 924.932,-253.663"/>
<polygon fill="midnightblue" stroke="midnightblue" points="928.435,-253.767 925.785,-243.509 921.46,-253.181 928.435,-253.767"/>
</g>
<!-- Node26 -->
<g id="node26" class="node"><title>Node26</title>
<g id="a_node26"><a xlink:href="../../d8/dfe/torcreferencecounted_8h.html" target="_top" xlink:title="torcreferencecounted.h">
<polygon fill="white" stroke="black" points="542,-224.5 542,-243.5 671,-243.5 671,-224.5 542,-224.5"/>
<text text-anchor="middle" x="606.5" y="-231.5" font-family="Helvetica,sans-Serif" font-size="10.00">torcreferencecounted.h</text>
</a>
</g>
</g>
<!-- Node10&#45;&gt;Node26 -->
<g id="edge33" class="edge"><title>Node10&#45;&gt;Node26</title>
<path fill="none" stroke="midnightblue" d="M882.875,-287.204C827.473,-276.739 725.157,-257.413 661.759,-245.438"/>
<polygon fill="midnightblue" stroke="midnightblue" points="662.024,-241.926 651.548,-243.509 660.725,-248.804 662.024,-241.926"/>
</g>
<!-- Node14&#45;&gt;Node7 -->
<g id="edge18" class="edge"><title>Node14&#45;&gt;Node7</title>
<path fill="none" stroke="midnightblue" d="M967.064,-224.444C1011.82,-215.004 1083.88,-199.802 1132.2,-189.611"/>
<polygon fill="midnightblue" stroke="midnightblue" points="1133.06,-193.005 1142.13,-187.516 1131.62,-186.156 1133.06,-193.005"/>
</g>
<!-- Node14&#45;&gt;Node8 -->
<g id="edge17" class="edge"><title>Node14&#45;&gt;Node8</title>
<path fill="none" stroke="midnightblue" d="M887.837,-224.444C841.586,-214.208 764.724,-197.197 719.309,-187.146"/>
<polygon fill="midnightblue" stroke="midnightblue" points="719.818,-183.674 709.298,-184.931 718.306,-190.509 719.818,-183.674"/>
</g>
<!-- Node15 -->
<g id="node15" class="node"><title>Node15</title>
<polygon fill="white" stroke="#bfbfbf" points="715.5,-56.5 715.5,-75.5 759.5,-75.5 759.5,-56.5 715.5,-56.5"/>
<text text-anchor="middle" x="737.5" y="-63.5" font-family="Helvetica,sans-Serif" font-size="10.00">QMap</text>
</g>
<!-- Node14&#45;&gt;Node15 -->
<g id="edge16" class="edge"><title>Node14&#45;&gt;Node15</title>
<path fill="none" stroke="midnightblue" d="M877.094,-226C832.854,-218.69 772.552,-205.797 756.5,-188 731.067,-159.802 731.871,-112.067 734.683,-85.7716"/>
<polygon fill="midnightblue" stroke="midnightblue" points="738.182,-86.0038 735.986,-75.6392 731.239,-85.1116 738.182,-86.0038"/>
</g>
<!-- Node16 -->
<g id="node16" class="node"><title>Node16</title>
<polygon fill="white" stroke="#bfbfbf" points="922,-168.5 922,-187.5 1001,-187.5 1001,-168.5 922,-168.5"/>
<text text-anchor="middle" x="961.5" y="-175.5" font-family="Helvetica,sans-Serif" font-size="10.00">QMetaObject</text>
</g>
<!-- Node14&#45;&gt;Node16 -->
<g id="edge19" class="edge"><title>Node14&#45;&gt;Node16</title>
<path fill="none" stroke="midnightblue" d="M932.28,-224.083C937.172,-216.534 944.327,-205.495 950.333,-196.23"/>
<polygon fill="midnightblue" stroke="midnightblue" points="953.326,-198.046 955.828,-187.751 947.452,-194.239 953.326,-198.046"/>
</g>
<!-- Node17 -->
<g id="node17" class="node"><title>Node17</title>
<polygon fill="white" stroke="#bfbfbf" points="766,-168.5 766,-187.5 865,-187.5 865,-168.5 766,-168.5"/>
<text text-anchor="middle" x="815.5" y="-175.5" font-family="Helvetica,sans-Serif" font-size="10.00">QCoreApplication</text>
</g>
<!-- Node14&#45;&gt;Node17 -->
<g id="edge20" class="edge"><title>Node14&#45;&gt;Node17</title>
<path fill="none" stroke="midnightblue" d="M908.666,-224.324C890.784,-215.625 863.025,-202.12 842.454,-192.113"/>
<polygon fill="midnightblue" stroke="midnightblue" points="843.813,-188.882 833.29,-187.655 840.751,-195.177 843.813,-188.882"/>
</g>
<!-- Node18 -->
<g id="node18" class="node"><title>Node18</title>
<g id="a_node18"><a xlink:href="../../d4/d11/torchttphandler_8h.html" target="_top" xlink:title="torchttphandler.h">
<polygon fill="white" stroke="black" points="1019,-168.5 1019,-187.5 1118,-187.5 1118,-168.5 1019,-168.5"/>
<text text-anchor="middle" x="1068.5" y="-175.5" font-family="Helvetica,sans-Serif" font-size="10.00">torchttphandler.h</text>
</a>
</g>
</g>
<!-- Node14&#45;&gt;Node18 -->
<g id="edge21" class="edge"><title>Node14&#45;&gt;Node18</title>
<path fill="none" stroke="midnightblue" d="M949,-224.444C972.577,-215.478 1009.82,-201.314 1036.46,-191.183"/>
<polygon fill="midnightblue" stroke="midnightblue" points="1038,-194.342 1046.1,-187.516 1035.51,-187.8 1038,-194.342"/>
</g>
<!-- Node20 -->
<g id="node20" class="node"><title>Node20</title>
<g id="a_node20"><a xlink:href="../../df/dd7/torchttprequest_8h.html" target="_top" xlink:title="torchttprequest.h">
<polygon fill="white" stroke="black" points="862,-112.5 862,-131.5 963,-131.5 963,-112.5 862,-112.5"/>
<text text-anchor="middle" x="912.5" y="-119.5" font-family="Helvetica,sans-Serif" font-size="10.00">torchttprequest.h</text>
</a>
</g>
</g>
<!-- Node14&#45;&gt;Node20 -->
<g id="edge32" class="edge"><title>Node14&#45;&gt;Node20</title>
<path fill="none" stroke="midnightblue" d="M922.9,-224.222C919.444,-215.285 914.467,-200.942 912.5,-188 910.166,-172.64 910.342,-155.003 911.004,-141.979"/>
<polygon fill="midnightblue" stroke="midnightblue" points="914.503,-142.101 911.66,-131.895 907.518,-141.647 914.503,-142.101"/>
</g>
<!-- Node18&#45;&gt;Node6 -->
<g id="edge22" class="edge"><title>Node18&#45;&gt;Node6</title>
<path fill="none" stroke="midnightblue" d="M1068.42,-168.368C1068.26,-150.617 1067.89,-109.666 1067.67,-85.5974"/>
<polygon fill="midnightblue" stroke="midnightblue" points="1071.17,-85.5592 1067.58,-75.5914 1064.17,-85.6229 1071.17,-85.5592"/>
</g>
<!-- Node19 -->
<g id="node19" class="node"><title>Node19</title>
<polygon fill="white" stroke="#bfbfbf" points="1095.5,-112.5 1095.5,-131.5 1173.5,-131.5 1173.5,-112.5 1095.5,-112.5"/>
<text text-anchor="middle" x="1134.5" y="-119.5" font-family="Helvetica,sans-Serif" font-size="10.00">QVariantMap</text>
</g>
<!-- Node18&#45;&gt;Node19 -->
<g id="edge23" class="edge"><title>Node18&#45;&gt;Node19</title>
<path fill="none" stroke="midnightblue" d="M1079.1,-168.324C1088.96,-160.263 1103.85,-148.077 1115.72,-138.369"/>
<polygon fill="midnightblue" stroke="midnightblue" points="1118.18,-140.875 1123.7,-131.834 1113.75,-135.457 1118.18,-140.875"/>
</g>
<!-- Node18&#45;&gt;Node20 -->
<g id="edge24" class="edge"><title>Node18&#45;&gt;Node20</title>
<path fill="none" stroke="midnightblue" d="M1043.78,-168.444C1017.65,-159.399 976.241,-145.064 946.924,-134.916"/>
<polygon fill="midnightblue" stroke="midnightblue" points="947.698,-131.48 937.103,-131.516 945.408,-138.095 947.698,-131.48"/>
</g>
<!-- Node20&#45;&gt;Node6 -->
<g id="edge27" class="edge"><title>Node20&#45;&gt;Node6</title>
<path fill="none" stroke="midnightblue" d="M937.06,-112.444C963.023,-103.399 1004.17,-89.064 1033.3,-78.9158"/>
<polygon fill="midnightblue" stroke="midnightblue" points="1034.76,-82.1116 1043.05,-75.5164 1032.46,-75.5013 1034.76,-82.1116"/>
</g>
<!-- Node20&#45;&gt;Node15 -->
<g id="edge25" class="edge"><title>Node20&#45;&gt;Node15</title>
<path fill="none" stroke="midnightblue" d="M884.771,-112.444C853.328,-102.741 802.159,-86.952 769.171,-76.7727"/>
<polygon fill="midnightblue" stroke="midnightblue" points="770.146,-73.4109 759.559,-73.8067 768.082,-80.0997 770.146,-73.4109"/>
</g>
<!-- Node21 -->
<g id="node21" class="node"><title>Node21</title>
<polygon fill="white" stroke="#bfbfbf" points="892,-56.5 892,-75.5 933,-75.5 933,-56.5 892,-56.5"/>
<text text-anchor="middle" x="912.5" y="-63.5" font-family="Helvetica,sans-Serif" font-size="10.00">QPair</text>
</g>
<!-- Node20&#45;&gt;Node21 -->
<g id="edge26" class="edge"><title>Node20&#45;&gt;Node21</title>
<path fill="none" stroke="midnightblue" d="M912.5,-112.083C912.5,-105.006 912.5,-94.8611 912.5,-85.9865"/>
<polygon fill="midnightblue" stroke="midnightblue" points="916,-85.751 912.5,-75.7511 909,-85.7511 916,-85.751"/>
</g>
<!-- Node22 -->
<g id="node22" class="node"><title>Node22</title>
<polygon fill="white" stroke="#bfbfbf" points="951,-56.5 951,-75.5 1022,-75.5 1022,-56.5 951,-56.5"/>
<text text-anchor="middle" x="986.5" y="-63.5" font-family="Helvetica,sans-Serif" font-size="10.00">QDateTime</text>
</g>
<!-- Node20&#45;&gt;Node22 -->
<g id="edge28" class="edge"><title>Node20&#45;&gt;Node22</title>
<path fill="none" stroke="midnightblue" d="M924.389,-112.324C935.65,-104.107 952.787,-91.6017 966.209,-81.8069"/>
<polygon fill="midnightblue" stroke="midnightblue" points="968.38,-84.5559 974.394,-75.8339 964.253,-78.9014 968.38,-84.5559"/>
</g>
<!-- Node23 -->
<g id="node23" class="node"><title>Node23</title>
<g id="a_node23"><a xlink:href="../../de/de6/torchttpreader_8h.html" target="_top" xlink:title="torchttpreader.h">
<polygon fill="white" stroke="black" points="779,-56.5 779,-75.5 874,-75.5 874,-56.5 779,-56.5"/>
<text text-anchor="middle" x="826.5" y="-63.5" font-family="Helvetica,sans-Serif" font-size="10.00">torchttpreader.h</text>
</a>
</g>
</g>
<!-- Node20&#45;&gt;Node23 -->
<g id="edge29" class="edge"><title>Node20&#45;&gt;Node23</title>
<path fill="none" stroke="midnightblue" d="M898.683,-112.324C885.267,-103.9 864.676,-90.9709 848.914,-81.0741"/>
<polygon fill="midnightblue" stroke="midnightblue" points="850.613,-78.0081 840.283,-75.6545 846.891,-83.9364 850.613,-78.0081"/>
</g>
<!-- Node24 -->
<g id="node24" class="node"><title>Node24</title>
<polygon fill="white" stroke="#bfbfbf" points="746,-0.5 746,-19.5 817,-19.5 817,-0.5 746,-0.5"/>
<text text-anchor="middle" x="781.5" y="-7.5" font-family="Helvetica,sans-Serif" font-size="10.00">QByteArray</text>
</g>
<!-- Node23&#45;&gt;Node24 -->
<g id="edge30" class="edge"><title>Node23&#45;&gt;Node24</title>
<path fill="none" stroke="midnightblue" d="M819.069,-56.083C812.647,-48.3768 803.194,-37.0333 795.378,-27.6531"/>
<polygon fill="midnightblue" stroke="midnightblue" points="797.883,-25.1927 788.793,-19.7511 792.506,-29.674 797.883,-25.1927"/>
</g>
<!-- Node25 -->
<g id="node25" class="node"><title>Node25</title>
<polygon fill="white" stroke="#bfbfbf" points="835.5,-0.5 835.5,-19.5 907.5,-19.5 907.5,-0.5 835.5,-0.5"/>
<text text-anchor="middle" x="871.5" y="-7.5" font-family="Helvetica,sans-Serif" font-size="10.00">QTcpSocket</text>
</g>
<!-- Node23&#45;&gt;Node25 -->
<g id="edge31" class="edge"><title>Node23&#45;&gt;Node25</title>
<path fill="none" stroke="midnightblue" d="M833.931,-56.083C840.353,-48.3768 849.806,-37.0333 857.622,-27.6531"/>
<polygon fill="midnightblue" stroke="midnightblue" points="860.494,-29.674 864.207,-19.7511 855.117,-25.1927 860.494,-29.674"/>
</g>
<!-- Node26&#45;&gt;Node3 -->
<g id="edge34" class="edge"><title>Node26&#45;&gt;Node3</title>
<path fill="none" stroke="midnightblue" d="M593.325,-224.324C580.653,-215.979 561.267,-203.212 546.294,-193.352"/>
<polygon fill="midnightblue" stroke="midnightblue" points="547.919,-190.231 537.642,-187.655 544.069,-196.078 547.919,-190.231"/>
</g>
<!-- Node28 -->
<g id="node28" class="node"><title>Node28</title>
<g id="a_node28"><a xlink:href="../../d3/d66/torcevent_8h.html" target="_top" xlink:title="torcevent.h">
<polygon fill="white" stroke="black" points="232,-224.5 232,-243.5 303,-243.5 303,-224.5 232,-224.5"/>
<text text-anchor="middle" x="267.5" y="-231.5" font-family="Helvetica,sans-Serif" font-size="10.00">torcevent.h</text>
</a>
</g>
</g>
<!-- Node27&#45;&gt;Node28 -->
<g id="edge36" class="edge"><title>Node27&#45;&gt;Node28</title>
<path fill="none" stroke="midnightblue" d="M285.491,-285.975C282.466,-277.404 277.71,-263.927 273.847,-252.983"/>
<polygon fill="midnightblue" stroke="midnightblue" points="277.132,-251.774 270.503,-243.509 270.531,-254.104 277.132,-251.774"/>
</g>
<!-- Node28&#45;&gt;Node12 -->
<g id="edge38" class="edge"><title>Node28&#45;&gt;Node12</title>
<path fill="none" stroke="midnightblue" d="M287.624,-224.444C308.524,-215.557 341.435,-201.563 365.216,-191.451"/>
<polygon fill="midnightblue" stroke="midnightblue" points="366.638,-194.65 374.471,-187.516 363.898,-188.208 366.638,-194.65"/>
</g>
<!-- Node28&#45;&gt;Node15 -->
<g id="edge37" class="edge"><title>Node28&#45;&gt;Node15</title>
<path fill="none" stroke="midnightblue" d="M267.407,-224.434C267.747,-210.494 270.55,-182.96 286.5,-168 348.003,-110.316 612.516,-79.2706 705.237,-70.0049"/>
<polygon fill="midnightblue" stroke="midnightblue" points="705.808,-73.4657 715.419,-69.0064 705.125,-66.4991 705.808,-73.4657"/>
</g>
<!-- Node29 -->
<g id="node29" class="node"><title>Node29</title>
<polygon fill="white" stroke="#bfbfbf" points="296,-168.5 296,-187.5 347,-187.5 347,-168.5 296,-168.5"/>
<text text-anchor="middle" x="321.5" y="-175.5" font-family="Helvetica,sans-Serif" font-size="10.00">QEvent</text>
</g>
<!-- Node28&#45;&gt;Node29 -->
<g id="edge39" class="edge"><title>Node28&#45;&gt;Node29</title>
<path fill="none" stroke="midnightblue" d="M276.417,-224.083C284.28,-216.22 295.931,-204.569 305.419,-195.081"/>
<polygon fill="midnightblue" stroke="midnightblue" points="308.153,-197.297 312.749,-187.751 303.203,-192.347 308.153,-197.297"/>
</g>
<!-- Node31 -->
<g id="node31" class="node"><title>Node31</title>
<g id="a_node31"><a xlink:href="../../d4/da3/torcdb_8h.html" target="_top" xlink:title="torcdb.h">
<polygon fill="white" stroke="black" points="727.5,-224.5 727.5,-243.5 783.5,-243.5 783.5,-224.5 727.5,-224.5"/>
<text text-anchor="middle" x="755.5" y="-231.5" font-family="Helvetica,sans-Serif" font-size="10.00">torcdb.h</text>
</a>
</g>
</g>
<!-- Node30&#45;&gt;Node31 -->
<g id="edge41" class="edge"><title>Node30&#45;&gt;Node31</title>
<path fill="none" stroke="midnightblue" d="M771.778,-285.975C769.069,-277.492 764.826,-264.204 761.351,-253.322"/>
<polygon fill="midnightblue" stroke="midnightblue" points="764.593,-251.97 758.217,-243.509 757.925,-254.1 764.593,-251.97"/>
</g>
<!-- Node31&#45;&gt;Node5 -->
<g id="edge42" class="edge"><title>Node31&#45;&gt;Node5</title>
<path fill="none" stroke="midnightblue" d="M732.524,-224.444C708.343,-215.438 670.082,-201.189 642.854,-191.049"/>
<polygon fill="midnightblue" stroke="midnightblue" points="643.961,-187.727 633.368,-187.516 641.518,-194.286 643.961,-187.727"/>
</g>
<!-- Node31&#45;&gt;Node8 -->
<g id="edge43" class="edge"><title>Node31&#45;&gt;Node8</title>
<path fill="none" stroke="midnightblue" d="M743.771,-224.324C732.663,-216.107 715.758,-203.602 702.517,-193.807"/>
<polygon fill="midnightblue" stroke="midnightblue" points="704.563,-190.967 694.442,-187.834 700.4,-196.595 704.563,-190.967"/>
</g>
<!-- Node33 -->
<g id="node33" class="node"><title>Node33</title>
<polygon fill="white" stroke="#bfbfbf" points="1287,-224.5 1287,-243.5 1328,-243.5 1328,-224.5 1287,-224.5"/>
<text text-anchor="middle" x="1307.5" y="-231.5" font-family="Helvetica,sans-Serif" font-size="10.00">QList</text>
</g>
<!-- Node32&#45;&gt;Node33 -->
<g id="edge45" class="edge"><title>Node32&#45;&gt;Node33</title>
<path fill="none" stroke="midnightblue" d="M1307.5,-285.975C1307.5,-277.58 1307.5,-264.481 1307.5,-253.663"/>
<polygon fill="midnightblue" stroke="midnightblue" points="1311,-253.509 1307.5,-243.509 1304,-253.509 1311,-253.509"/>
</g>
<!-- Node32&#45;&gt;Node34 -->
<g id="edge46" class="edge"><title>Node32&#45;&gt;Node34</title>
<path fill="none" stroke="midnightblue" d="M1319.11,-285.975C1331.98,-276.52 1352.97,-261.096 1368.51,-249.687"/>
<polygon fill="midnightblue" stroke="midnightblue" points="1370.93,-252.25 1376.92,-243.509 1366.78,-246.608 1370.93,-252.25"/>
</g>
<!-- Node35 -->
<g id="node35" class="node"><title>Node35</title>
<polygon fill="white" stroke="#bfbfbf" points="1360,-168.5 1360,-187.5 1417,-187.5 1417,-168.5 1360,-168.5"/>
<text text-anchor="middle" x="1388.5" y="-175.5" font-family="Helvetica,sans-Serif" font-size="10.00">QThread</text>
</g>
<!-- Node34&#45;&gt;Node35 -->
<g id="edge47" class="edge"><title>Node34&#45;&gt;Node35</title>
<path fill="none" stroke="midnightblue" d="M1388.5,-224.083C1388.5,-217.006 1388.5,-206.861 1388.5,-197.986"/>
<polygon fill="midnightblue" stroke="midnightblue" points="1392,-197.751 1388.5,-187.751 1385,-197.751 1392,-197.751"/>
</g>
<!-- Node36&#45;&gt;Node5 -->
<g id="edge49" class="edge"><title>Node36&#45;&gt;Node5</title>
<path fill="none" stroke="midnightblue" d="M425.524,-285.814C448.547,-272.503 493.943,-246.262 532.5,-224 550.663,-213.513 571.211,-201.659 586.655,-192.751"/>
<polygon fill="midnightblue" stroke="midnightblue" points="588.631,-195.652 595.545,-187.624 585.134,-189.588 588.631,-195.652"/>
</g>
<!-- Node36&#45;&gt;Node12 -->
<g id="edge50" class="edge"><title>Node36&#45;&gt;Node12</title>
<path fill="none" stroke="midnightblue" d="M393.728,-285.891C379.263,-277.423 359.347,-263.01 350.5,-244 341.913,-225.549 358.319,-206.505 373.48,-193.838"/>
<polygon fill="midnightblue" stroke="midnightblue" points="375.873,-196.411 381.608,-187.502 371.57,-190.89 375.873,-196.411"/>
</g>
<!-- Node37 -->
<g id="node37" class="node"><title>Node37</title>
<polygon fill="white" stroke="#bfbfbf" points="360,-224.5 360,-243.5 409,-243.5 409,-224.5 360,-224.5"/>
<text text-anchor="middle" x="384.5" y="-231.5" font-family="Helvetica,sans-Serif" font-size="10.00">QHash</text>
</g>
<!-- Node36&#45;&gt;Node37 -->
<g id="edge51" class="edge"><title>Node36&#45;&gt;Node37</title>
<path fill="none" stroke="midnightblue" d="M406.775,-285.975C403.029,-277.404 397.14,-263.927 392.358,-252.983"/>
<polygon fill="midnightblue" stroke="midnightblue" points="395.43,-251.271 388.218,-243.509 389.015,-254.074 395.43,-251.271"/>
</g>
<!-- Node36&#45;&gt;Node38 -->
<g id="edge52" class="edge"><title>Node36&#45;&gt;Node38</title>
<path fill="none" stroke="midnightblue" d="M376.687,-285.975C334.978,-275.459 263.988,-257.562 218.186,-246.014"/>
<polygon fill="midnightblue" stroke="midnightblue" points="218.803,-242.56 208.25,-243.509 217.091,-249.348 218.803,-242.56"/>
</g>
<!-- Node39 -->
<g id="node39" class="node"><title>Node39</title>
<polygon fill="white" stroke="#bfbfbf" points="0,-168.5 0,-187.5 53,-187.5 53,-168.5 0,-168.5"/>
<text text-anchor="middle" x="26.5" y="-175.5" font-family="Helvetica,sans-Serif" font-size="10.00">stdint.h</text>
</g>
<!-- Node38&#45;&gt;Node39 -->
<g id="edge53" class="edge"><title>Node38&#45;&gt;Node39</title>
<path fill="none" stroke="midnightblue" d="M151.049,-224.444C126.367,-215.438 87.3147,-201.189 59.5233,-191.049"/>
<polygon fill="midnightblue" stroke="midnightblue" points="60.4352,-187.656 49.8413,-187.516 58.0359,-194.232 60.4352,-187.656"/>
</g>
<!-- Node40 -->
<g id="node40" class="node"><title>Node40</title>
<polygon fill="white" stroke="#bfbfbf" points="71,-168.5 71,-187.5 122,-187.5 122,-168.5 71,-168.5"/>
<text text-anchor="middle" x="96.5" y="-175.5" font-family="Helvetica,sans-Serif" font-size="10.00">errno.h</text>
</g>
<!-- Node38&#45;&gt;Node40 -->
<g id="edge54" class="edge"><title>Node38&#45;&gt;Node40</title>
<path fill="none" stroke="midnightblue" d="M161.968,-224.324C149.914,-215.979 131.473,-203.212 117.231,-193.352"/>
<polygon fill="midnightblue" stroke="midnightblue" points="119.215,-190.469 109.001,-187.655 115.231,-196.224 119.215,-190.469"/>
</g>
<!-- Node41 -->
<g id="node41" class="node"><title>Node41</title>
<g id="a_node41"><a xlink:href="../../d1/d37/torcloggingdefs_8h.html" target="_top" xlink:title="torcloggingdefs.h">
<polygon fill="white" stroke="black" points="140,-168.5 140,-187.5 239,-187.5 239,-168.5 140,-168.5"/>
<text text-anchor="middle" x="189.5" y="-175.5" font-family="Helvetica,sans-Serif" font-size="10.00">torcloggingdefs.h</text>
</a>
</g>
</g>
<!-- Node38&#45;&gt;Node41 -->
<g id="edge55" class="edge"><title>Node38&#45;&gt;Node41</title>
<path fill="none" stroke="midnightblue" d="M176.977,-224.083C178.986,-216.849 181.886,-206.409 184.39,-197.397"/>
<polygon fill="midnightblue" stroke="midnightblue" points="187.765,-198.323 187.069,-187.751 181.02,-196.449 187.765,-198.323"/>
</g>
<!-- Node43 -->
<g id="node43" class="node"><title>Node43</title>
<polygon fill="white" stroke="#bfbfbf" points="1652.5,-280.5 1652.5,-310.5 1774.5,-310.5 1774.5,-280.5 1652.5,-280.5"/>
<text text-anchor="start" x="1660.5" y="-298.5" font-family="Helvetica,sans-Serif" font-size="10.00">ApplicationServices</text>
<text text-anchor="middle" x="1713.5" y="-287.5" font-family="Helvetica,sans-Serif" font-size="10.00">/ApplicationServices.h</text>
</g>
<!-- Node42&#45;&gt;Node43 -->
<g id="edge58" class="edge"><title>Node42&#45;&gt;Node43</title>
<path fill="none" stroke="midnightblue" d="M1650.96,-347.475C1660.66,-339.567 1675.49,-327.485 1688.27,-317.067"/>
<polygon fill="midnightblue" stroke="midnightblue" points="1690.76,-319.554 1696.3,-310.523 1686.33,-314.128 1690.76,-319.554"/>
</g>
<!-- Node44&#45;&gt;Node34 -->
<g id="edge63" class="edge"><title>Node44&#45;&gt;Node34</title>
<path fill="none" stroke="midnightblue" d="M1459.96,-347.298C1447.31,-327.414 1416.09,-278.352 1399.41,-252.147"/>
<polygon fill="midnightblue" stroke="midnightblue" points="1402.31,-250.181 1393.99,-243.623 1396.4,-253.939 1402.31,-250.181"/>
</g>
<!-- Node45 -->
<g id="node45" class="node"><title>Node45</title>
<polygon fill="white" stroke="#bfbfbf" points="1454.5,-286 1454.5,-305 1634.5,-305 1634.5,-286 1454.5,-286"/>
<text text-anchor="middle" x="1544.5" y="-293" font-family="Helvetica,sans-Serif" font-size="10.00">CoreFoundation/CoreFoundation.h</text>
</g>
<!-- Node44&#45;&gt;Node45 -->
<g id="edge62" class="edge"><title>Node44&#45;&gt;Node45</title>
<path fill="none" stroke="midnightblue" d="M1476.82,-347.475C1489.37,-338.02 1509.85,-322.596 1525,-311.187"/>
<polygon fill="midnightblue" stroke="midnightblue" points="1527.32,-313.821 1533.2,-305.009 1523.11,-308.23 1527.32,-313.821"/>
</g>
</g>
</svg>
