<?xml version="1.0" encoding="UTF-8" standalone="no"?>
<!DOCTYPE svg PUBLIC "-//W3C//DTD SVG 1.1//EN"
 "http://www.w3.org/Graphics/SVG/1.1/DTD/svg11.dtd">
<!-- Generated by graphviz version 2.38.0 (20140413.2041)
 -->
<!-- Title: torccameraoutput.cpp Pages: 1 -->
<!--zoomable 420 -->
<svg id="main" version="1.1" xmlns="http://www.w3.org/2000/svg" xmlns:xlink="http://www.w3.org/1999/xlink" xml:space="preserve" onload="init(evt)">
<style type="text/css"><![CDATA[
.edge:hover path { stroke: red; }
.edge:hover polygon { stroke: red; fill: red; }
]]></style>
<script type="text/javascript"><![CDATA[
var edges = document.getElementsByTagName('g');
if (edges && edges.length) {
  for (var i=0;i<edges.length;i++) {
    if (edges[i].id.substr(0,4)=='edge') {
      edges[i].setAttribute('class','edge');
    }
  }
}
]]></script>
        <defs>
                <circle id="rim" cx="0" cy="0" r="7"/>
                <circle id="rim2" cx="0" cy="0" r="3.5"/>
                <g id="zoomPlus">
                        <use xlink:href="#rim" fill="#404040">
                                <set attributeName="fill" to="#808080" begin="zoomplus.mouseover" end="zoomplus.mouseout"/>
                        </use>
                        <path d="M-4,0h8M0,-4v8" fill="none" stroke="white" stroke-width="1.5" pointer-events="none"/>
                </g>
                <g id="zoomMin">
                        <use xlink:href="#rim" fill="#404040">
                                <set attributeName="fill" to="#808080" begin="zoomminus.mouseover" end="zoomminus.mouseout"/>
                        </use>
                        <path d="M-4,0h8" fill="none" stroke="white" stroke-width="1.5" pointer-events="none"/>
                </g>
                <g id="dirArrow">
                        <path fill="none" stroke="white" stroke-width="1.5" d="M0,-3.0v7 M-2.5,-0.5L0,-3.0L2.5,-0.5"/>
                </g>
               <g id="resetDef">
                       <use xlink:href="#rim2" fill="#404040">
                               <set attributeName="fill" to="#808080" begin="reset.mouseover" end="reset.mouseout"/>
                       </use>
               </g>
        </defs>

<script type="text/javascript">
var viewWidth = 1626;
var viewHeight = 420;
var sectionId = 'dynsection-0';
</script>
<script xlink:href="../../svgpan.js"/>
<svg id="graph" class="graph">
<g id="viewport">
<title>torccameraoutput.cpp</title>
<polygon fill="white" stroke="none" points="-4,4 -4,-416 1622,-416 1622,4 -4,4"/>
<!-- Node1 -->
<g id="node1" class="node"><title>Node1</title>
<polygon fill="#bfbfbf" stroke="black" points="302,-392.5 302,-411.5 426,-411.5 426,-392.5 302,-392.5"/>
<text text-anchor="middle" x="364" y="-399.5" font-family="Helvetica,sans-Serif" font-size="10.00">torccameraoutput.cpp</text>
</g>
<!-- Node2 -->
<g id="node2" class="node"><title>Node2</title>
<polygon fill="white" stroke="#bfbfbf" points="30,-336.5 30,-355.5 68,-355.5 68,-336.5 30,-336.5"/>
<text text-anchor="middle" x="49" y="-343.5" font-family="Helvetica,sans-Serif" font-size="10.00">QDir</text>
</g>
<!-- Node1&#45;&gt;Node2 -->
<g id="edge1" class="edge"><title>Node1&#45;&gt;Node2</title>
<path fill="none" stroke="midnightblue" d="M301.753,-393.035C244.372,-385.228 157,-372.162 82,-356 80.7265,-355.726 79.4289,-355.432 78.1208,-355.125"/>
<polygon fill="midnightblue" stroke="midnightblue" points="78.6623,-351.651 68.1089,-352.587 76.9425,-358.437 78.6623,-351.651"/>
</g>
<!-- Node3 -->
<g id="node3" class="node"><title>Node3</title>
<g id="a_node3"><a xlink:href="../../d4/df9/torclogging_8h.html" target="_top" xlink:title="torclogging.h">
<polygon fill="white" stroke="black" points="1129.5,-168.5 1129.5,-187.5 1208.5,-187.5 1208.5,-168.5 1129.5,-168.5"/>
<text text-anchor="middle" x="1169" y="-175.5" font-family="Helvetica,sans-Serif" font-size="10.00">torclogging.h</text>
</a>
</g>
</g>
<!-- Node1&#45;&gt;Node3 -->
<g id="edge2" class="edge"><title>Node1&#45;&gt;Node3</title>
<path fill="none" stroke="midnightblue" d="M426.199,-399.559C580.41,-395.593 971.722,-382.969 1024,-356 1093.7,-320.043 1142.14,-234.267 1160.65,-196.905"/>
<polygon fill="midnightblue" stroke="midnightblue" points="1163.88,-198.26 1165.07,-187.732 1157.58,-195.221 1163.88,-198.26"/>
</g>
<!-- Node7 -->
<g id="node7" class="node"><title>Node7</title>
<g id="a_node7"><a xlink:href="../../d3/d20/torcmime_8h.html" target="_top" xlink:title="torcmime.h">
<polygon fill="white" stroke="black" points="32,-168.5 32,-187.5 104,-187.5 104,-168.5 32,-168.5"/>
<text text-anchor="middle" x="68" y="-175.5" font-family="Helvetica,sans-Serif" font-size="10.00">torcmime.h</text>
</a>
</g>
</g>
<!-- Node1&#45;&gt;Node7 -->
<g id="edge6" class="edge"><title>Node1&#45;&gt;Node7</title>
<path fill="none" stroke="midnightblue" d="M341.736,-392.436C303.851,-377.254 225.383,-343.115 168,-300 140.603,-279.415 136.865,-270.386 115,-244 102.13,-228.469 88.7779,-209.704 79.609,-196.337"/>
<polygon fill="midnightblue" stroke="midnightblue" points="82.2483,-193.993 73.7387,-187.682 76.4549,-197.922 82.2483,-193.993"/>
</g>
<!-- Node11 -->
<g id="node11" class="node"><title>Node11</title>
<g id="a_node11"><a xlink:href="../../d1/d6c/torcdirectories_8h.html" target="_top" xlink:title="torcdirectories.h">
<polygon fill="white" stroke="black" points="347.5,-280.5 347.5,-299.5 442.5,-299.5 442.5,-280.5 347.5,-280.5"/>
<text text-anchor="middle" x="395" y="-287.5" font-family="Helvetica,sans-Serif" font-size="10.00">torcdirectories.h</text>
</a>
</g>
</g>
<!-- Node1&#45;&gt;Node11 -->
<g id="edge10" class="edge"><title>Node1&#45;&gt;Node11</title>
<path fill="none" stroke="midnightblue" d="M366.433,-392.368C371.458,-374.537 383.08,-333.295 389.851,-309.272"/>
<polygon fill="midnightblue" stroke="midnightblue" points="393.235,-310.166 392.579,-299.591 386.497,-308.267 393.235,-310.166"/>
</g>
<!-- Node16 -->
<g id="node16" class="node"><title>Node16</title>
<g id="a_node16"><a xlink:href="../../da/d80/torcoutputs_8h.html" target="_top" xlink:title="torcoutputs.h">
<polygon fill="white" stroke="black" points="934.5,-336.5 934.5,-355.5 1015.5,-355.5 1015.5,-336.5 934.5,-336.5"/>
<text text-anchor="middle" x="975" y="-343.5" font-family="Helvetica,sans-Serif" font-size="10.00">torcoutputs.h</text>
</a>
</g>
</g>
<!-- Node1&#45;&gt;Node16 -->
<g id="edge17" class="edge"><title>Node1&#45;&gt;Node16</title>
<path fill="none" stroke="midnightblue" d="M426.232,-395.5C547.448,-384.787 813.057,-361.312 924.355,-351.476"/>
<polygon fill="midnightblue" stroke="midnightblue" points="924.665,-354.962 934.318,-350.595 924.049,-347.99 924.665,-354.962"/>
</g>
<!-- Node37 -->
<g id="node37" class="node"><title>Node37</title>
<g id="a_node37"><a xlink:href="../../d9/dd8/torccamerathread_8h.html" target="_top" xlink:title="torccamerathread.h">
<polygon fill="white" stroke="black" points="177.5,-280.5 177.5,-299.5 290.5,-299.5 290.5,-280.5 177.5,-280.5"/>
<text text-anchor="middle" x="234" y="-287.5" font-family="Helvetica,sans-Serif" font-size="10.00">torccamerathread.h</text>
</a>
</g>
</g>
<!-- Node1&#45;&gt;Node37 -->
<g id="edge59" class="edge"><title>Node1&#45;&gt;Node37</title>
<path fill="none" stroke="midnightblue" d="M353.799,-392.368C331.776,-373.733 279.538,-329.532 251.885,-306.134"/>
<polygon fill="midnightblue" stroke="midnightblue" points="254.048,-303.379 244.153,-299.591 249.527,-308.723 254.048,-303.379"/>
</g>
<!-- Node44 -->
<g id="node44" class="node"><title>Node44</title>
<g id="a_node44"><a xlink:href="../../d2/d57/torccameraoutput_8h.html" target="_top" xlink:title="torccameraoutput.h">
<polygon fill="white" stroke="black" points="392.5,-336.5 392.5,-355.5 505.5,-355.5 505.5,-336.5 392.5,-336.5"/>
<text text-anchor="middle" x="449" y="-343.5" font-family="Helvetica,sans-Serif" font-size="10.00">torccameraoutput.h</text>
</a>
</g>
</g>
<!-- Node1&#45;&gt;Node44 -->
<g id="edge70" class="edge"><title>Node1&#45;&gt;Node44</title>
<path fill="none" stroke="midnightblue" d="M377.657,-392.324C390.916,-383.9 411.268,-370.971 426.846,-361.074"/>
<polygon fill="midnightblue" stroke="midnightblue" points="428.813,-363.971 435.377,-355.655 425.06,-358.063 428.813,-363.971"/>
</g>
<!-- Node4 -->
<g id="node4" class="node"><title>Node4</title>
<polygon fill="white" stroke="#bfbfbf" points="1018.5,-112.5 1018.5,-131.5 1071.5,-131.5 1071.5,-112.5 1018.5,-112.5"/>
<text text-anchor="middle" x="1045" y="-119.5" font-family="Helvetica,sans-Serif" font-size="10.00">stdint.h</text>
</g>
<!-- Node3&#45;&gt;Node4 -->
<g id="edge3" class="edge"><title>Node3&#45;&gt;Node4</title>
<path fill="none" stroke="midnightblue" d="M1149.35,-168.444C1129.04,-159.596 1097.1,-145.687 1073.9,-135.586"/>
<polygon fill="midnightblue" stroke="midnightblue" points="1075.12,-132.3 1064.56,-131.516 1072.33,-138.718 1075.12,-132.3"/>
</g>
<!-- Node5 -->
<g id="node5" class="node"><title>Node5</title>
<polygon fill="white" stroke="#bfbfbf" points="1089.5,-112.5 1089.5,-131.5 1140.5,-131.5 1140.5,-112.5 1089.5,-112.5"/>
<text text-anchor="middle" x="1115" y="-119.5" font-family="Helvetica,sans-Serif" font-size="10.00">errno.h</text>
</g>
<!-- Node3&#45;&gt;Node5 -->
<g id="edge4" class="edge"><title>Node3&#45;&gt;Node5</title>
<path fill="none" stroke="midnightblue" d="M1160.08,-168.083C1152.22,-160.22 1140.57,-148.569 1131.08,-139.081"/>
<polygon fill="midnightblue" stroke="midnightblue" points="1133.3,-136.347 1123.75,-131.751 1128.35,-141.297 1133.3,-136.347"/>
</g>
<!-- Node6 -->
<g id="node6" class="node"><title>Node6</title>
<g id="a_node6"><a xlink:href="../../d1/d37/torcloggingdefs_8h.html" target="_top" xlink:title="torcloggingdefs.h">
<polygon fill="white" stroke="black" points="1158.5,-112.5 1158.5,-131.5 1257.5,-131.5 1257.5,-112.5 1158.5,-112.5"/>
<text text-anchor="middle" x="1208" y="-119.5" font-family="Helvetica,sans-Serif" font-size="10.00">torcloggingdefs.h</text>
</a>
</g>
</g>
<!-- Node3&#45;&gt;Node6 -->
<g id="edge5" class="edge"><title>Node3&#45;&gt;Node6</title>
<path fill="none" stroke="midnightblue" d="M1175.44,-168.083C1180.95,-160.455 1189.03,-149.264 1195.76,-139.941"/>
<polygon fill="midnightblue" stroke="midnightblue" points="1198.66,-141.907 1201.68,-131.751 1192.99,-137.809 1198.66,-141.907"/>
</g>
<!-- Node8 -->
<g id="node8" class="node"><title>Node8</title>
<polygon fill="white" stroke="#bfbfbf" points="94,-112.5 94,-131.5 160,-131.5 160,-112.5 94,-112.5"/>
<text text-anchor="middle" x="127" y="-119.5" font-family="Helvetica,sans-Serif" font-size="10.00">QIODevice</text>
</g>
<!-- Node7&#45;&gt;Node8 -->
<g id="edge7" class="edge"><title>Node7&#45;&gt;Node8</title>
<path fill="none" stroke="midnightblue" d="M77.4794,-168.324C86.2011,-160.341 99.3435,-148.313 109.898,-138.653"/>
<polygon fill="midnightblue" stroke="midnightblue" points="112.334,-141.167 117.348,-131.834 107.608,-136.004 112.334,-141.167"/>
</g>
<!-- Node9 -->
<g id="node9" class="node"><title>Node9</title>
<polygon fill="white" stroke="#bfbfbf" points="604.5,-56.5 604.5,-75.5 657.5,-75.5 657.5,-56.5 604.5,-56.5"/>
<text text-anchor="middle" x="631" y="-63.5" font-family="Helvetica,sans-Serif" font-size="10.00">QString</text>
</g>
<!-- Node7&#45;&gt;Node9 -->
<g id="edge8" class="edge"><title>Node7&#45;&gt;Node9</title>
<path fill="none" stroke="midnightblue" d="M67.3917,-168.208C66.9405,-153.944 68.3869,-125.954 85,-112 123.889,-79.3367 477.939,-69.8528 594.2,-67.6067"/>
<polygon fill="midnightblue" stroke="midnightblue" points="594.443,-71.1028 604.376,-67.417 594.313,-64.1041 594.443,-71.1028"/>
</g>
<!-- Node10 -->
<g id="node10" class="node"><title>Node10</title>
<polygon fill="white" stroke="#bfbfbf" points="0,-112.5 0,-131.5 38,-131.5 38,-112.5 0,-112.5"/>
<text text-anchor="middle" x="19" y="-119.5" font-family="Helvetica,sans-Serif" font-size="10.00">QUrl</text>
</g>
<!-- Node7&#45;&gt;Node10 -->
<g id="edge9" class="edge"><title>Node7&#45;&gt;Node10</title>
<path fill="none" stroke="midnightblue" d="M59.9086,-168.083C52.8446,-160.298 42.4124,-148.801 33.8511,-139.367"/>
<polygon fill="midnightblue" stroke="midnightblue" points="36.2527,-136.805 26.9408,-131.751 31.0688,-141.509 36.2527,-136.805"/>
</g>
<!-- Node11&#45;&gt;Node9 -->
<g id="edge11" class="edge"><title>Node11&#45;&gt;Node9</title>
<path fill="none" stroke="midnightblue" d="M392.807,-280.237C388.134,-259.945 378.592,-208.384 391,-168 399.834,-139.248 404.123,-128.906 429,-112 479.239,-77.8583 551.219,-69.1851 594.315,-67.2319"/>
<polygon fill="midnightblue" stroke="midnightblue" points="594.488,-70.728 604.357,-66.8752 594.239,-63.7324 594.488,-70.728"/>
</g>
<!-- Node12 -->
<g id="node12" class="node"><title>Node12</title>
<g id="a_node12"><a xlink:href="../../db/d41/torccommandline_8h.html" target="_top" xlink:title="torccommandline.h">
<polygon fill="white" stroke="black" points="730,-224.5 730,-243.5 840,-243.5 840,-224.5 730,-224.5"/>
<text text-anchor="middle" x="785" y="-231.5" font-family="Helvetica,sans-Serif" font-size="10.00">torccommandline.h</text>
</a>
</g>
</g>
<!-- Node11&#45;&gt;Node12 -->
<g id="edge12" class="edge"><title>Node11&#45;&gt;Node12</title>
<path fill="none" stroke="midnightblue" d="M442.822,-282.379C512.316,-272.756 641.433,-254.879 719.654,-244.048"/>
<polygon fill="midnightblue" stroke="midnightblue" points="720.447,-247.472 729.872,-242.633 719.487,-240.538 720.447,-247.472"/>
</g>
<!-- Node12&#45;&gt;Node3 -->
<g id="edge16" class="edge"><title>Node12&#45;&gt;Node3</title>
<path fill="none" stroke="midnightblue" d="M840.018,-225.263C914.734,-214.756 1047.2,-196.129 1119.14,-186.012"/>
<polygon fill="midnightblue" stroke="midnightblue" points="1119.89,-189.441 1129.3,-184.583 1118.91,-182.509 1119.89,-189.441"/>
</g>
<!-- Node13 -->
<g id="node13" class="node"><title>Node13</title>
<polygon fill="white" stroke="#bfbfbf" points="547.5,-168.5 547.5,-187.5 602.5,-187.5 602.5,-168.5 547.5,-168.5"/>
<text text-anchor="middle" x="575" y="-175.5" font-family="Helvetica,sans-Serif" font-size="10.00">QObject</text>
</g>
<!-- Node12&#45;&gt;Node13 -->
<g id="edge13" class="edge"><title>Node12&#45;&gt;Node13</title>
<path fill="none" stroke="midnightblue" d="M751.725,-224.444C713.849,-214.704 652.123,-198.832 612.554,-188.657"/>
<polygon fill="midnightblue" stroke="midnightblue" points="613.311,-185.238 602.754,-186.137 611.568,-192.017 613.311,-185.238"/>
</g>
<!-- Node14 -->
<g id="node14" class="node"><title>Node14</title>
<polygon fill="white" stroke="#bfbfbf" points="871,-112.5 871,-131.5 929,-131.5 929,-112.5 871,-112.5"/>
<text text-anchor="middle" x="900" y="-119.5" font-family="Helvetica,sans-Serif" font-size="10.00">QVariant</text>
</g>
<!-- Node12&#45;&gt;Node14 -->
<g id="edge14" class="edge"><title>Node12&#45;&gt;Node14</title>
<path fill="none" stroke="midnightblue" d="M801.866,-224.378C816.669,-216.286 838.237,-203.176 854,-188 868.586,-173.958 881.538,-154.709 889.952,-140.807"/>
<polygon fill="midnightblue" stroke="midnightblue" points="893.205,-142.178 895.235,-131.779 887.163,-138.642 893.205,-142.178"/>
</g>
<!-- Node15 -->
<g id="node15" class="node"><title>Node15</title>
<polygon fill="white" stroke="#bfbfbf" points="682.5,-112.5 682.5,-131.5 731.5,-131.5 731.5,-112.5 682.5,-112.5"/>
<text text-anchor="middle" x="707" y="-119.5" font-family="Helvetica,sans-Serif" font-size="10.00">QHash</text>
</g>
<!-- Node12&#45;&gt;Node15 -->
<g id="edge15" class="edge"><title>Node12&#45;&gt;Node15</title>
<path fill="none" stroke="midnightblue" d="M768.657,-224.437C755.315,-216.641 736.94,-203.929 726,-188 716.536,-174.22 711.724,-155.695 709.315,-141.948"/>
<polygon fill="midnightblue" stroke="midnightblue" points="712.73,-141.114 707.808,-131.732 705.805,-142.136 712.73,-141.114"/>
</g>
<!-- Node17 -->
<g id="node17" class="node"><title>Node17</title>
<polygon fill="white" stroke="#bfbfbf" points="993.5,-280.5 993.5,-299.5 1034.5,-299.5 1034.5,-280.5 993.5,-280.5"/>
<text text-anchor="middle" x="1014" y="-287.5" font-family="Helvetica,sans-Serif" font-size="10.00">QList</text>
</g>
<!-- Node16&#45;&gt;Node17 -->
<g id="edge18" class="edge"><title>Node16&#45;&gt;Node17</title>
<path fill="none" stroke="midnightblue" d="M981.44,-336.083C986.949,-328.455 995.031,-317.264 1001.76,-307.941"/>
<polygon fill="midnightblue" stroke="midnightblue" points="1004.66,-309.907 1007.68,-299.751 998.987,-305.809 1004.66,-309.907"/>
</g>
<!-- Node18 -->
<g id="node18" class="node"><title>Node18</title>
<polygon fill="white" stroke="#bfbfbf" points="947.5,-112.5 947.5,-131.5 1000.5,-131.5 1000.5,-112.5 947.5,-112.5"/>
<text text-anchor="middle" x="974" y="-119.5" font-family="Helvetica,sans-Serif" font-size="10.00">QMutex</text>
</g>
<!-- Node16&#45;&gt;Node18 -->
<g id="edge19" class="edge"><title>Node16&#45;&gt;Node18</title>
<path fill="none" stroke="midnightblue" d="M998.454,-336.408C1014.16,-329.28 1033.62,-317.458 1043,-300 1047.21,-292.17 1043.97,-288.835 1043,-280 1037.41,-229.304 1042.31,-212.835 1018,-168 1011.86,-156.675 1002.04,-146.236 993.236,-138.27"/>
<polygon fill="midnightblue" stroke="midnightblue" points="995.438,-135.548 985.569,-131.694 990.881,-140.861 995.438,-135.548"/>
</g>
<!-- Node19 -->
<g id="node19" class="node"><title>Node19</title>
<g id="a_node19"><a xlink:href="../../d3/dee/torchttpservice_8h.html" target="_top" xlink:title="torchttpservice.h">
<polygon fill="white" stroke="black" points="1227,-224.5 1227,-243.5 1325,-243.5 1325,-224.5 1227,-224.5"/>
<text text-anchor="middle" x="1276" y="-231.5" font-family="Helvetica,sans-Serif" font-size="10.00">torchttpservice.h</text>
</a>
</g>
</g>
<!-- Node16&#45;&gt;Node19 -->
<g id="edge20" class="edge"><title>Node16&#45;&gt;Node19</title>
<path fill="none" stroke="midnightblue" d="M998.619,-336.368C1051.92,-316.89 1181.65,-269.479 1242.92,-247.089"/>
<polygon fill="midnightblue" stroke="midnightblue" points="1244.3,-250.311 1252.49,-243.591 1241.9,-243.737 1244.3,-250.311"/>
</g>
<!-- Node31 -->
<g id="node31" class="node"><title>Node31</title>
<g id="a_node31"><a xlink:href="../../dc/d01/torcoutput_8h.html" target="_top" xlink:title="torcoutput.h">
<polygon fill="white" stroke="black" points="636,-280.5 636,-299.5 712,-299.5 712,-280.5 636,-280.5"/>
<text text-anchor="middle" x="674" y="-287.5" font-family="Helvetica,sans-Serif" font-size="10.00">torcoutput.h</text>
</a>
</g>
</g>
<!-- Node16&#45;&gt;Node31 -->
<g id="edge37" class="edge"><title>Node16&#45;&gt;Node31</title>
<path fill="none" stroke="midnightblue" d="M934.406,-337.717C879.304,-327.832 780.982,-310.193 722.198,-299.647"/>
<polygon fill="midnightblue" stroke="midnightblue" points="722.516,-296.148 712.055,-297.827 721.28,-303.038 722.516,-296.148"/>
</g>
<!-- Node36 -->
<g id="node36" class="node"><title>Node36</title>
<g id="a_node36"><a xlink:href="../../d5/d41/torccentral_8h.html" target="_top" xlink:title="torccentral.h">
<polygon fill="white" stroke="black" points="898.5,-280.5 898.5,-299.5 975.5,-299.5 975.5,-280.5 898.5,-280.5"/>
<text text-anchor="middle" x="937" y="-287.5" font-family="Helvetica,sans-Serif" font-size="10.00">torccentral.h</text>
</a>
</g>
</g>
<!-- Node16&#45;&gt;Node36 -->
<g id="edge53" class="edge"><title>Node16&#45;&gt;Node36</title>
<path fill="none" stroke="midnightblue" d="M968.725,-336.083C963.358,-328.455 955.482,-317.264 948.921,-307.941"/>
<polygon fill="midnightblue" stroke="midnightblue" points="951.775,-305.915 943.158,-299.751 946.051,-309.943 951.775,-305.915"/>
</g>
<!-- Node19&#45;&gt;Node18 -->
<g id="edge22" class="edge"><title>Node19&#45;&gt;Node18</title>
<path fill="none" stroke="midnightblue" d="M1240.49,-224.428C1208.54,-216.323 1160.52,-203.165 1120,-188 1100.26,-180.613 1096.21,-176.664 1077,-168 1052.28,-156.851 1024.04,-144.544 1003.39,-135.622"/>
<polygon fill="midnightblue" stroke="midnightblue" points="1004.76,-132.403 994.193,-131.656 1001.99,-138.83 1004.76,-132.403"/>
</g>
<!-- Node20 -->
<g id="node20" class="node"><title>Node20</title>
<polygon fill="white" stroke="#bfbfbf" points="1574,-56.5 1574,-75.5 1618,-75.5 1618,-56.5 1574,-56.5"/>
<text text-anchor="middle" x="1596" y="-63.5" font-family="Helvetica,sans-Serif" font-size="10.00">QMap</text>
</g>
<!-- Node19&#45;&gt;Node20 -->
<g id="edge21" class="edge"><title>Node19&#45;&gt;Node20</title>
<path fill="none" stroke="midnightblue" d="M1325.11,-231.648C1397.94,-228.624 1529.7,-218.92 1564,-188 1593.09,-161.775 1597.08,-112.493 1596.89,-85.6247"/>
<polygon fill="midnightblue" stroke="midnightblue" points="1600.39,-85.5147 1596.62,-75.6144 1593.4,-85.7066 1600.39,-85.5147"/>
</g>
<!-- Node21 -->
<g id="node21" class="node"><title>Node21</title>
<polygon fill="white" stroke="#bfbfbf" points="1460.5,-168.5 1460.5,-187.5 1539.5,-187.5 1539.5,-168.5 1460.5,-168.5"/>
<text text-anchor="middle" x="1500" y="-175.5" font-family="Helvetica,sans-Serif" font-size="10.00">QMetaObject</text>
</g>
<!-- Node19&#45;&gt;Node21 -->
<g id="edge23" class="edge"><title>Node19&#45;&gt;Node21</title>
<path fill="none" stroke="midnightblue" d="M1311.49,-224.444C1350.32,-215.083 1412.66,-200.056 1454.92,-189.868"/>
<polygon fill="midnightblue" stroke="midnightblue" points="1455.77,-193.263 1464.67,-187.516 1454.13,-186.458 1455.77,-193.263"/>
</g>
<!-- Node22 -->
<g id="node22" class="node"><title>Node22</title>
<polygon fill="white" stroke="#bfbfbf" points="1343.5,-168.5 1343.5,-187.5 1442.5,-187.5 1442.5,-168.5 1343.5,-168.5"/>
<text text-anchor="middle" x="1393" y="-175.5" font-family="Helvetica,sans-Serif" font-size="10.00">QCoreApplication</text>
</g>
<!-- Node19&#45;&gt;Node22 -->
<g id="edge24" class="edge"><title>Node19&#45;&gt;Node22</title>
<path fill="none" stroke="midnightblue" d="M1294.54,-224.444C1313.62,-215.636 1343.57,-201.812 1365.44,-191.722"/>
<polygon fill="midnightblue" stroke="midnightblue" points="1366.93,-194.885 1374.55,-187.516 1364,-188.529 1366.93,-194.885"/>
</g>
<!-- Node23 -->
<g id="node23" class="node"><title>Node23</title>
<g id="a_node23"><a xlink:href="../../d4/d11/torchttphandler_8h.html" target="_top" xlink:title="torchttphandler.h">
<polygon fill="white" stroke="black" points="1226.5,-168.5 1226.5,-187.5 1325.5,-187.5 1325.5,-168.5 1226.5,-168.5"/>
<text text-anchor="middle" x="1276" y="-175.5" font-family="Helvetica,sans-Serif" font-size="10.00">torchttphandler.h</text>
</a>
</g>
</g>
<!-- Node19&#45;&gt;Node23 -->
<g id="edge25" class="edge"><title>Node19&#45;&gt;Node23</title>
<path fill="none" stroke="midnightblue" d="M1276,-224.083C1276,-217.006 1276,-206.861 1276,-197.986"/>
<polygon fill="midnightblue" stroke="midnightblue" points="1279.5,-197.751 1276,-187.751 1272.5,-197.751 1279.5,-197.751"/>
</g>
<!-- Node25 -->
<g id="node25" class="node"><title>Node25</title>
<g id="a_node25"><a xlink:href="../../df/dd7/torchttprequest_8h.html" target="_top" xlink:title="torchttprequest.h">
<polygon fill="white" stroke="black" points="1410.5,-112.5 1410.5,-131.5 1511.5,-131.5 1511.5,-112.5 1410.5,-112.5"/>
<text text-anchor="middle" x="1461" y="-119.5" font-family="Helvetica,sans-Serif" font-size="10.00">torchttprequest.h</text>
</a>
</g>
</g>
<!-- Node19&#45;&gt;Node25 -->
<g id="edge36" class="edge"><title>Node19&#45;&gt;Node25</title>
<path fill="none" stroke="midnightblue" d="M1325.14,-232.182C1395.61,-229.852 1519.98,-221.035 1548,-188 1566.95,-165.652 1530.83,-146.481 1499.51,-134.867"/>
<polygon fill="midnightblue" stroke="midnightblue" points="1500.61,-131.543 1490.02,-131.51 1498.28,-138.143 1500.61,-131.543"/>
</g>
<!-- Node23&#45;&gt;Node9 -->
<g id="edge26" class="edge"><title>Node23&#45;&gt;Node9</title>
<path fill="none" stroke="midnightblue" d="M1277.67,-168.306C1279.82,-154.182 1281.62,-126.389 1266,-112 1243.87,-91.6081 799.559,-73.3349 667.628,-68.3416"/>
<polygon fill="midnightblue" stroke="midnightblue" points="667.735,-64.8433 657.611,-67.9654 667.473,-71.8383 667.735,-64.8433"/>
</g>
<!-- Node24 -->
<g id="node24" class="node"><title>Node24</title>
<polygon fill="white" stroke="#bfbfbf" points="1314,-112.5 1314,-131.5 1392,-131.5 1392,-112.5 1314,-112.5"/>
<text text-anchor="middle" x="1353" y="-119.5" font-family="Helvetica,sans-Serif" font-size="10.00">QVariantMap</text>
</g>
<!-- Node23&#45;&gt;Node24 -->
<g id="edge27" class="edge"><title>Node23&#45;&gt;Node24</title>
<path fill="none" stroke="midnightblue" d="M1288.37,-168.324C1300.16,-160.058 1318.13,-147.453 1332.14,-137.632"/>
<polygon fill="midnightblue" stroke="midnightblue" points="1334.48,-140.262 1340.66,-131.655 1330.46,-134.531 1334.48,-140.262"/>
</g>
<!-- Node23&#45;&gt;Node25 -->
<g id="edge28" class="edge"><title>Node23&#45;&gt;Node25</title>
<path fill="none" stroke="midnightblue" d="M1305.31,-168.444C1336.84,-159.241 1387.13,-144.562 1421.99,-134.388"/>
<polygon fill="midnightblue" stroke="midnightblue" points="1423.2,-137.678 1431.82,-131.516 1421.24,-130.959 1423.2,-137.678"/>
</g>
<!-- Node25&#45;&gt;Node9 -->
<g id="edge31" class="edge"><title>Node25&#45;&gt;Node9</title>
<path fill="none" stroke="midnightblue" d="M1410.3,-113.066C1407.16,-112.676 1404.04,-112.316 1401,-112 1119.72,-82.7453 778.505,-71.1335 667.666,-67.9647"/>
<polygon fill="midnightblue" stroke="midnightblue" points="667.763,-64.4661 657.668,-67.684 667.566,-71.4633 667.763,-64.4661"/>
</g>
<!-- Node25&#45;&gt;Node20 -->
<g id="edge29" class="edge"><title>Node25&#45;&gt;Node20</title>
<path fill="none" stroke="midnightblue" d="M1482.39,-112.444C1504.71,-103.517 1539.9,-89.4387 1565.21,-79.3168"/>
<polygon fill="midnightblue" stroke="midnightblue" points="1566.72,-82.4801 1574.71,-75.5164 1564.12,-75.9807 1566.72,-82.4801"/>
</g>
<!-- Node26 -->
<g id="node26" class="node"><title>Node26</title>
<polygon fill="white" stroke="#bfbfbf" points="989.5,-56.5 989.5,-75.5 1030.5,-75.5 1030.5,-56.5 989.5,-56.5"/>
<text text-anchor="middle" x="1010" y="-63.5" font-family="Helvetica,sans-Serif" font-size="10.00">QPair</text>
</g>
<!-- Node25&#45;&gt;Node26 -->
<g id="edge30" class="edge"><title>Node25&#45;&gt;Node26</title>
<path fill="none" stroke="midnightblue" d="M1410.28,-113.267C1407.14,-112.827 1404.03,-112.401 1401,-112 1267.21,-94.2727 1107.13,-77.114 1040.96,-70.1981"/>
<polygon fill="midnightblue" stroke="midnightblue" points="1041.11,-66.695 1030.8,-69.14 1040.38,-73.6573 1041.11,-66.695"/>
</g>
<!-- Node27 -->
<g id="node27" class="node"><title>Node27</title>
<polygon fill="white" stroke="#bfbfbf" points="1445.5,-56.5 1445.5,-75.5 1516.5,-75.5 1516.5,-56.5 1445.5,-56.5"/>
<text text-anchor="middle" x="1481" y="-63.5" font-family="Helvetica,sans-Serif" font-size="10.00">QDateTime</text>
</g>
<!-- Node25&#45;&gt;Node27 -->
<g id="edge32" class="edge"><title>Node25&#45;&gt;Node27</title>
<path fill="none" stroke="midnightblue" d="M1464.3,-112.083C1466.98,-104.849 1470.85,-94.4087 1474.19,-85.3968"/>
<polygon fill="midnightblue" stroke="midnightblue" points="1477.57,-86.3442 1477.76,-75.7511 1471,-83.9129 1477.57,-86.3442"/>
</g>
<!-- Node28 -->
<g id="node28" class="node"><title>Node28</title>
<g id="a_node28"><a xlink:href="../../de/de6/torchttpreader_8h.html" target="_top" xlink:title="torchttpreader.h">
<polygon fill="white" stroke="black" points="1332.5,-56.5 1332.5,-75.5 1427.5,-75.5 1427.5,-56.5 1332.5,-56.5"/>
<text text-anchor="middle" x="1380" y="-63.5" font-family="Helvetica,sans-Serif" font-size="10.00">torchttpreader.h</text>
</a>
</g>
</g>
<!-- Node25&#45;&gt;Node28 -->
<g id="edge33" class="edge"><title>Node25&#45;&gt;Node28</title>
<path fill="none" stroke="midnightblue" d="M1447.99,-112.324C1435.47,-103.979 1416.32,-91.2122 1401.53,-81.3524"/>
<polygon fill="midnightblue" stroke="midnightblue" points="1403.24,-78.2894 1392.98,-75.6545 1399.36,-84.1137 1403.24,-78.2894"/>
</g>
<!-- Node29 -->
<g id="node29" class="node"><title>Node29</title>
<polygon fill="white" stroke="#bfbfbf" points="1299.5,-0.5 1299.5,-19.5 1370.5,-19.5 1370.5,-0.5 1299.5,-0.5"/>
<text text-anchor="middle" x="1335" y="-7.5" font-family="Helvetica,sans-Serif" font-size="10.00">QByteArray</text>
</g>
<!-- Node28&#45;&gt;Node29 -->
<g id="edge34" class="edge"><title>Node28&#45;&gt;Node29</title>
<path fill="none" stroke="midnightblue" d="M1372.57,-56.083C1366.15,-48.3768 1356.69,-37.0333 1348.88,-27.6531"/>
<polygon fill="midnightblue" stroke="midnightblue" points="1351.38,-25.1927 1342.29,-19.7511 1346.01,-29.674 1351.38,-25.1927"/>
</g>
<!-- Node30 -->
<g id="node30" class="node"><title>Node30</title>
<polygon fill="white" stroke="#bfbfbf" points="1389,-0.5 1389,-19.5 1461,-19.5 1461,-0.5 1389,-0.5"/>
<text text-anchor="middle" x="1425" y="-7.5" font-family="Helvetica,sans-Serif" font-size="10.00">QTcpSocket</text>
</g>
<!-- Node28&#45;&gt;Node30 -->
<g id="edge35" class="edge"><title>Node28&#45;&gt;Node30</title>
<path fill="none" stroke="midnightblue" d="M1387.43,-56.083C1393.85,-48.3768 1403.31,-37.0333 1411.12,-27.6531"/>
<polygon fill="midnightblue" stroke="midnightblue" points="1413.99,-29.674 1417.71,-19.7511 1408.62,-25.1927 1413.99,-29.674"/>
</g>
<!-- Node31&#45;&gt;Node13 -->
<g id="edge39" class="edge"><title>Node31&#45;&gt;Node13</title>
<path fill="none" stroke="midnightblue" d="M648.157,-280.414C630.503,-273.288 607.878,-261.467 594,-244 583.381,-230.635 578.696,-211.523 576.629,-197.481"/>
<polygon fill="midnightblue" stroke="midnightblue" points="580.102,-197.042 575.47,-187.513 573.149,-197.851 580.102,-197.042"/>
</g>
<!-- Node31&#45;&gt;Node18 -->
<g id="edge38" class="edge"><title>Node31&#45;&gt;Node18</title>
<path fill="none" stroke="midnightblue" d="M712.288,-284.911C749.227,-279.681 805.752,-268.215 849,-244 897.563,-216.81 940.98,-166.069 961.497,-139.77"/>
<polygon fill="midnightblue" stroke="midnightblue" points="964.477,-141.636 967.77,-131.566 958.916,-137.384 964.477,-141.636"/>
</g>
<!-- Node31&#45;&gt;Node19 -->
<g id="edge42" class="edge"><title>Node31&#45;&gt;Node19</title>
<path fill="none" stroke="midnightblue" d="M712.114,-285.581C814.18,-276.426 1094.25,-251.303 1217.02,-240.291"/>
<polygon fill="midnightblue" stroke="midnightblue" points="1217.35,-243.775 1226.99,-239.396 1216.72,-236.803 1217.35,-243.775"/>
</g>
<!-- Node32 -->
<g id="node32" class="node"><title>Node32</title>
<g id="a_node32"><a xlink:href="../../d8/dfe/torcreferencecounted_8h.html" target="_top" xlink:title="torcreferencecounted.h">
<polygon fill="white" stroke="black" points="400.5,-168.5 400.5,-187.5 529.5,-187.5 529.5,-168.5 400.5,-168.5"/>
<text text-anchor="middle" x="465" y="-175.5" font-family="Helvetica,sans-Serif" font-size="10.00">torcreferencecounted.h</text>
</a>
</g>
</g>
<!-- Node31&#45;&gt;Node32 -->
<g id="edge40" class="edge"><title>Node31&#45;&gt;Node32</title>
<path fill="none" stroke="midnightblue" d="M655.088,-280.406C635.972,-271.613 605.671,-257.38 580,-244 547.647,-227.138 511.095,-206.132 488.057,-192.644"/>
<polygon fill="midnightblue" stroke="midnightblue" points="489.745,-189.577 479.35,-187.528 486.198,-195.612 489.745,-189.577"/>
</g>
<!-- Node34 -->
<g id="node34" class="node"><title>Node34</title>
<g id="a_node34"><a xlink:href="../../d1/df7/torcdevice_8h.html" target="_top" xlink:title="torcdevice.h">
<polygon fill="white" stroke="black" points="636.5,-224.5 636.5,-243.5 711.5,-243.5 711.5,-224.5 636.5,-224.5"/>
<text text-anchor="middle" x="674" y="-231.5" font-family="Helvetica,sans-Serif" font-size="10.00">torcdevice.h</text>
</a>
</g>
</g>
<!-- Node31&#45;&gt;Node34 -->
<g id="edge43" class="edge"><title>Node31&#45;&gt;Node34</title>
<path fill="none" stroke="midnightblue" d="M674,-280.083C674,-273.006 674,-262.861 674,-253.986"/>
<polygon fill="midnightblue" stroke="midnightblue" points="677.5,-253.751 674,-243.751 670.5,-253.751 677.5,-253.751"/>
</g>
<!-- Node33 -->
<g id="node33" class="node"><title>Node33</title>
<polygon fill="white" stroke="#bfbfbf" points="438,-112.5 438,-131.5 508,-131.5 508,-112.5 438,-112.5"/>
<text text-anchor="middle" x="473" y="-119.5" font-family="Helvetica,sans-Serif" font-size="10.00">QAtomicInt</text>
</g>
<!-- Node32&#45;&gt;Node33 -->
<g id="edge41" class="edge"><title>Node32&#45;&gt;Node33</title>
<path fill="none" stroke="midnightblue" d="M466.321,-168.083C467.381,-160.927 468.906,-150.635 470.231,-141.691"/>
<polygon fill="midnightblue" stroke="midnightblue" points="473.7,-142.156 471.704,-131.751 466.776,-141.13 473.7,-142.156"/>
</g>
<!-- Node34&#45;&gt;Node9 -->
<g id="edge46" class="edge"><title>Node34&#45;&gt;Node9</title>
<path fill="none" stroke="midnightblue" d="M671.688,-224.075C664.92,-197.945 645.043,-121.211 635.812,-85.577"/>
<polygon fill="midnightblue" stroke="midnightblue" points="639.115,-84.3709 633.219,-75.5681 632.339,-86.1263 639.115,-84.3709"/>
</g>
<!-- Node34&#45;&gt;Node13 -->
<g id="edge47" class="edge"><title>Node34&#45;&gt;Node13</title>
<path fill="none" stroke="midnightblue" d="M658.094,-224.324C642.362,-215.743 618.058,-202.486 599.791,-192.522"/>
<polygon fill="midnightblue" stroke="midnightblue" points="601.322,-189.37 590.867,-187.655 597.97,-195.516 601.322,-189.37"/>
</g>
<!-- Node34&#45;&gt;Node15 -->
<g id="edge44" class="edge"><title>Node34&#45;&gt;Node15</title>
<path fill="none" stroke="midnightblue" d="M676.533,-224.154C680.131,-211.634 686.956,-188.035 693,-168 695.662,-159.177 698.692,-149.406 701.25,-141.229"/>
<polygon fill="midnightblue" stroke="midnightblue" points="704.613,-142.203 704.272,-131.613 697.935,-140.104 704.613,-142.203"/>
</g>
<!-- Node34&#45;&gt;Node18 -->
<g id="edge45" class="edge"><title>Node34&#45;&gt;Node18</title>
<path fill="none" stroke="midnightblue" d="M711.864,-224.711C756.641,-214.704 828.33,-197.977 854,-188 890.068,-173.982 928.956,-151.395 952.386,-136.877"/>
<polygon fill="midnightblue" stroke="midnightblue" points="954.247,-139.842 960.857,-131.562 950.526,-133.913 954.247,-139.842"/>
</g>
<!-- Node34&#45;&gt;Node32 -->
<g id="edge48" class="edge"><title>Node34&#45;&gt;Node32</title>
<path fill="none" stroke="midnightblue" d="M640.883,-224.444C604.882,-215.142 547.23,-200.246 507.814,-190.062"/>
<polygon fill="midnightblue" stroke="midnightblue" points="508.519,-186.629 497.962,-187.516 506.768,-193.407 508.519,-186.629"/>
</g>
<!-- Node35 -->
<g id="node35" class="node"><title>Node35</title>
<g id="a_node35"><a xlink:href="../../d2/d5b/torcdevicehandler_8h.html" target="_top" xlink:title="torcdevicehandler.h">
<polygon fill="white" stroke="black" points="735,-168.5 735,-187.5 845,-187.5 845,-168.5 735,-168.5"/>
<text text-anchor="middle" x="790" y="-175.5" font-family="Helvetica,sans-Serif" font-size="10.00">torcdevicehandler.h</text>
</a>
</g>
</g>
<!-- Node34&#45;&gt;Node35 -->
<g id="edge49" class="edge"><title>Node34&#45;&gt;Node35</title>
<path fill="none" stroke="midnightblue" d="M692.381,-224.444C711.216,-215.675 740.731,-201.935 762.379,-191.858"/>
<polygon fill="midnightblue" stroke="midnightblue" points="764.117,-194.91 771.705,-187.516 761.162,-188.564 764.117,-194.91"/>
</g>
<!-- Node35&#45;&gt;Node14 -->
<g id="edge52" class="edge"><title>Node35&#45;&gt;Node14</title>
<path fill="none" stroke="midnightblue" d="M807.673,-168.324C825.394,-159.625 852.903,-146.12 873.288,-136.113"/>
<polygon fill="midnightblue" stroke="midnightblue" points="874.936,-139.203 882.37,-131.655 871.851,-132.919 874.936,-139.203"/>
</g>
<!-- Node35&#45;&gt;Node15 -->
<g id="edge50" class="edge"><title>Node35&#45;&gt;Node15</title>
<path fill="none" stroke="midnightblue" d="M776.665,-168.324C763.838,-159.979 744.215,-147.212 729.06,-137.352"/>
<polygon fill="midnightblue" stroke="midnightblue" points="730.593,-134.174 720.302,-131.655 726.776,-140.042 730.593,-134.174"/>
</g>
<!-- Node35&#45;&gt;Node18 -->
<g id="edge51" class="edge"><title>Node35&#45;&gt;Node18</title>
<path fill="none" stroke="midnightblue" d="M819.155,-168.444C851.251,-159.024 902.895,-143.868 937.618,-133.677"/>
<polygon fill="midnightblue" stroke="midnightblue" points="938.761,-136.99 947.371,-130.815 936.79,-130.273 938.761,-136.99"/>
</g>
<!-- Node36&#45;&gt;Node13 -->
<g id="edge55" class="edge"><title>Node36&#45;&gt;Node13</title>
<path fill="none" stroke="midnightblue" d="M898.473,-286.921C826.007,-282.446 672.599,-270.115 627,-244 607.866,-233.042 593.068,-212.056 584.235,-196.889"/>
<polygon fill="midnightblue" stroke="midnightblue" points="587.191,-195.001 579.306,-187.926 581.058,-198.375 587.191,-195.001"/>
</g>
<!-- Node36&#45;&gt;Node14 -->
<g id="edge56" class="edge"><title>Node36&#45;&gt;Node14</title>
<path fill="none" stroke="midnightblue" d="M935.011,-280.075C929.187,-253.945 912.083,-177.211 904.141,-141.577"/>
<polygon fill="midnightblue" stroke="midnightblue" points="907.502,-140.567 901.91,-131.568 900.669,-142.09 907.502,-140.567"/>
</g>
<!-- Node36&#45;&gt;Node18 -->
<g id="edge54" class="edge"><title>Node36&#45;&gt;Node18</title>
<path fill="none" stroke="midnightblue" d="M958.483,-280.36C973.392,-273.09 992.111,-261.117 1001,-244 1016.57,-214.024 1010.02,-200.552 1001,-168 998.208,-157.921 992.491,-147.832 987.033,-139.769"/>
<polygon fill="midnightblue" stroke="midnightblue" points="989.847,-137.688 981.151,-131.636 984.175,-141.79 989.847,-137.688"/>
</g>
<!-- Node36&#45;&gt;Node19 -->
<g id="edge58" class="edge"><title>Node36&#45;&gt;Node19</title>
<path fill="none" stroke="midnightblue" d="M975.708,-281.472C978.512,-280.963 981.298,-280.467 984,-280 1064.34,-266.121 1157.49,-252.128 1216.57,-243.514"/>
<polygon fill="midnightblue" stroke="midnightblue" points="1217.44,-246.924 1226.83,-242.022 1216.43,-239.997 1217.44,-246.924"/>
</g>
<!-- Node36&#45;&gt;Node34 -->
<g id="edge57" class="edge"><title>Node36&#45;&gt;Node34</title>
<path fill="none" stroke="midnightblue" d="M898.476,-281.09C851.624,-271.47 772.533,-255.231 721.829,-244.82"/>
<polygon fill="midnightblue" stroke="midnightblue" points="722.273,-241.339 711.774,-242.756 720.866,-248.196 722.273,-241.339"/>
</g>
<!-- Node37&#45;&gt;Node32 -->
<g id="edge60" class="edge"><title>Node37&#45;&gt;Node32</title>
<path fill="none" stroke="midnightblue" d="M233.889,-280.414C234.202,-266.445 236.967,-238.871 253,-224 272.891,-205.552 337.643,-193.608 390.403,-186.695"/>
<polygon fill="midnightblue" stroke="midnightblue" points="390.96,-190.153 400.44,-185.421 390.078,-183.209 390.96,-190.153"/>
</g>
<!-- Node38 -->
<g id="node38" class="node"><title>Node38</title>
<g id="a_node38"><a xlink:href="../../dd/db0/torcqthread_8h.html" target="_top" xlink:title="torcqthread.h">
<polygon fill="white" stroke="black" points="124,-224.5 124,-243.5 206,-243.5 206,-224.5 124,-224.5"/>
<text text-anchor="middle" x="165" y="-231.5" font-family="Helvetica,sans-Serif" font-size="10.00">torcqthread.h</text>
</a>
</g>
</g>
<!-- Node37&#45;&gt;Node38 -->
<g id="edge61" class="edge"><title>Node37&#45;&gt;Node38</title>
<path fill="none" stroke="midnightblue" d="M222.914,-280.324C212.514,-272.185 196.739,-259.839 184.278,-250.087"/>
<polygon fill="midnightblue" stroke="midnightblue" points="186.32,-247.241 176.288,-243.834 182.006,-252.753 186.32,-247.241"/>
</g>
<!-- Node40 -->
<g id="node40" class="node"><title>Node40</title>
<g id="a_node40"><a xlink:href="../../d3/d38/torccamera_8h.html" target="_top" xlink:title="torccamera.h">
<polygon fill="white" stroke="black" points="262.5,-224.5 262.5,-243.5 343.5,-243.5 343.5,-224.5 262.5,-224.5"/>
<text text-anchor="middle" x="303" y="-231.5" font-family="Helvetica,sans-Serif" font-size="10.00">torccamera.h</text>
</a>
</g>
</g>
<!-- Node37&#45;&gt;Node40 -->
<g id="edge63" class="edge"><title>Node37&#45;&gt;Node40</title>
<path fill="none" stroke="midnightblue" d="M245.086,-280.324C255.486,-272.185 271.261,-259.839 283.722,-250.087"/>
<polygon fill="midnightblue" stroke="midnightblue" points="285.994,-252.753 291.712,-243.834 281.68,-247.241 285.994,-252.753"/>
</g>
<!-- Node39 -->
<g id="node39" class="node"><title>Node39</title>
<polygon fill="white" stroke="#bfbfbf" points="124.5,-168.5 124.5,-187.5 181.5,-187.5 181.5,-168.5 124.5,-168.5"/>
<text text-anchor="middle" x="153" y="-175.5" font-family="Helvetica,sans-Serif" font-size="10.00">QThread</text>
</g>
<!-- Node38&#45;&gt;Node39 -->
<g id="edge62" class="edge"><title>Node38&#45;&gt;Node39</title>
<path fill="none" stroke="midnightblue" d="M163.018,-224.083C161.428,-216.927 159.141,-206.635 157.154,-197.691"/>
<polygon fill="midnightblue" stroke="midnightblue" points="160.531,-196.754 154.945,-187.751 153.697,-198.272 160.531,-196.754"/>
</g>
<!-- Node40&#45;&gt;Node13 -->
<g id="edge64" class="edge"><title>Node40&#45;&gt;Node13</title>
<path fill="none" stroke="midnightblue" d="M343.88,-225.805C388.841,-217.751 463.45,-203.975 537.225,-188.083"/>
<polygon fill="midnightblue" stroke="midnightblue" points="538.123,-191.469 547.154,-185.929 536.639,-184.628 538.123,-191.469"/>
</g>
<!-- Node41 -->
<g id="node41" class="node"><title>Node41</title>
<g id="a_node41"><a xlink:href="../../de/df7/torcsegmentedringbuffer_8h.html" target="_top" xlink:title="torcsegmentedringbuffer.h">
<polygon fill="white" stroke="black" points="200,-168.5 200,-187.5 344,-187.5 344,-168.5 200,-168.5"/>
<text text-anchor="middle" x="272" y="-175.5" font-family="Helvetica,sans-Serif" font-size="10.00">torcsegmentedringbuffer.h</text>
</a>
</g>
</g>
<!-- Node40&#45;&gt;Node41 -->
<g id="edge65" class="edge"><title>Node40&#45;&gt;Node41</title>
<path fill="none" stroke="midnightblue" d="M297.881,-224.083C293.592,-216.613 287.342,-205.724 282.058,-196.52"/>
<polygon fill="midnightblue" stroke="midnightblue" points="285.038,-194.681 277.024,-187.751 278.967,-198.166 285.038,-194.681"/>
</g>
<!-- Node41&#45;&gt;Node8 -->
<g id="edge68" class="edge"><title>Node41&#45;&gt;Node8</title>
<path fill="none" stroke="midnightblue" d="M249.024,-168.444C224.843,-159.438 186.582,-145.189 159.354,-135.049"/>
<polygon fill="midnightblue" stroke="midnightblue" points="160.461,-131.727 149.868,-131.516 158.018,-138.286 160.461,-131.727"/>
</g>
<!-- Node41&#45;&gt;Node26 -->
<g id="edge66" class="edge"><title>Node41&#45;&gt;Node26</title>
<path fill="none" stroke="midnightblue" d="M287.93,-168.41C315.674,-153.913 375.062,-124.909 429,-112 535.076,-86.6128 874.63,-72.0677 979.111,-68.1107"/>
<polygon fill="midnightblue" stroke="midnightblue" points="979.437,-71.6011 989.299,-67.7304 979.176,-64.606 979.437,-71.6011"/>
</g>
<!-- Node42 -->
<g id="node42" class="node"><title>Node42</title>
<polygon fill="white" stroke="#bfbfbf" points="178,-112.5 178,-131.5 234,-131.5 234,-112.5 178,-112.5"/>
<text text-anchor="middle" x="206" y="-119.5" font-family="Helvetica,sans-Serif" font-size="10.00">QQueue</text>
</g>
<!-- Node41&#45;&gt;Node42 -->
<g id="edge67" class="edge"><title>Node41&#45;&gt;Node42</title>
<path fill="none" stroke="midnightblue" d="M261.396,-168.324C251.544,-160.263 236.649,-148.077 224.785,-138.369"/>
<polygon fill="midnightblue" stroke="midnightblue" points="226.753,-135.457 216.797,-131.834 222.32,-140.875 226.753,-135.457"/>
</g>
<!-- Node43 -->
<g id="node43" class="node"><title>Node43</title>
<polygon fill="white" stroke="#bfbfbf" points="252,-112.5 252,-131.5 344,-131.5 344,-112.5 252,-112.5"/>
<text text-anchor="middle" x="298" y="-119.5" font-family="Helvetica,sans-Serif" font-size="10.00">QReadWriteLock</text>
</g>
<!-- Node41&#45;&gt;Node43 -->
<g id="edge69" class="edge"><title>Node41&#45;&gt;Node43</title>
<path fill="none" stroke="midnightblue" d="M276.293,-168.083C279.852,-160.691 285.022,-149.953 289.424,-140.811"/>
<polygon fill="midnightblue" stroke="midnightblue" points="292.602,-142.279 293.787,-131.751 286.295,-139.243 292.602,-142.279"/>
</g>
<!-- Node44&#45;&gt;Node31 -->
<g id="edge71" class="edge"><title>Node44&#45;&gt;Node31</title>
<path fill="none" stroke="midnightblue" d="M484.652,-336.444C523.656,-327.083 586.266,-312.056 628.717,-301.868"/>
<polygon fill="midnightblue" stroke="midnightblue" points="629.608,-305.254 638.515,-299.516 627.974,-298.447 629.608,-305.254"/>
</g>
<!-- Node44&#45;&gt;Node40 -->
<g id="edge72" class="edge"><title>Node44&#45;&gt;Node40</title>
<path fill="none" stroke="midnightblue" d="M410.484,-336.453C387.308,-329.717 358.435,-318.325 338,-300 324.009,-287.454 314.563,-267.956 309.046,-253.586"/>
<polygon fill="midnightblue" stroke="midnightblue" points="312.217,-252.056 305.582,-243.796 305.618,-254.391 312.217,-252.056"/>
</g>
</g>
</svg>
        <g id="navigator" transform="translate(0 0)" fill="#404254">
                <rect fill="#f2f5e9" fill-opacity="0.5" stroke="#606060" stroke-width=".5" x="0" y="0" width="60" height="60"/>
                <use id="zoomplus" xlink:href="#zoomPlus" x="17" y="9" onmousedown="handleZoom(evt,'in')"/>
                <use id="zoomminus" xlink:href="#zoomMin" x="42" y="9" onmousedown="handleZoom(evt,'out')"/>
                <use id="reset" xlink:href="#resetDef" x="30" y="36" onmousedown="handleReset()"/>
                <g id="arrowUp" xlink:href="#dirArrow" transform="translate(30 24)" onmousedown="handlePan(0,-1)">
                  <use xlink:href="#rim" fill="#404040">
                        <set attributeName="fill" to="#808080" begin="arrowUp.mouseover" end="arrowUp.mouseout"/>
                  </use>
                  <path fill="none" stroke="white" stroke-width="1.5" d="M0,-3.0v7 M-2.5,-0.5L0,-3.0L2.5,-0.5"/>
                </g>
                <g id="arrowRight" xlink:href="#dirArrow" transform="rotate(90) translate(36 -43)" onmousedown="handlePan(1,0)">
                  <use xlink:href="#rim" fill="#404040">
                        <set attributeName="fill" to="#808080" begin="arrowRight.mouseover" end="arrowRight.mouseout"/>
                  </use>
                  <path fill="none" stroke="white" stroke-width="1.5" d="M0,-3.0v7 M-2.5,-0.5L0,-3.0L2.5,-0.5"/>
                </g>
                <g id="arrowDown" xlink:href="#dirArrow" transform="rotate(180) translate(-30 -48)" onmousedown="handlePan(0,1)">
                  <use xlink:href="#rim" fill="#404040">
                        <set attributeName="fill" to="#808080" begin="arrowDown.mouseover" end="arrowDown.mouseout"/>
                  </use>
                  <path fill="none" stroke="white" stroke-width="1.5" d="M0,-3.0v7 M-2.5,-0.5L0,-3.0L2.5,-0.5"/>
                </g>
                <g id="arrowLeft" xlink:href="#dirArrow" transform="rotate(270) translate(-36 17)" onmousedown="handlePan(-1,0)">
                  <use xlink:href="#rim" fill="#404040">
                        <set attributeName="fill" to="#808080" begin="arrowLeft.mouseover" end="arrowLeft.mouseout"/>
                  </use>
                  <path fill="none" stroke="white" stroke-width="1.5" d="M0,-3.0v7 M-2.5,-0.5L0,-3.0L2.5,-0.5"/>
                </g>
        </g>
        <svg viewBox="0 0 15 15" width="100%" height="30px" preserveAspectRatio="xMaxYMin meet">
         <g id="arrow_out" transform="scale(0.3 0.3)">
          <a xlink:href="torccameraoutput_8cpp__incl_org.svg" target="_base">
           <rect id="button" ry="5" rx="5" y="6" x="6" height="38" width="38"
                fill="#f2f5e9" fill-opacity="0.5" stroke="#606060" stroke-width="1.0"/>
           <path id="arrow"
             d="M 11.500037,31.436501 C 11.940474,20.09759 22.043105,11.32322 32.158766,21.979434 L 37.068811,17.246167 C 37.068811,17.246167 37.088388,32 37.088388,32 L 22.160133,31.978069 C 22.160133,31.978069 26.997745,27.140456 26.997745,27.140456 C 18.528582,18.264221 13.291696,25.230495 11.500037,31.436501 z"
             style="fill:#404040;"/>
          </a>
         </g>
        </svg>
</svg>
