<?xml version="1.0" encoding="UTF-8" standalone="no"?>
<!DOCTYPE svg PUBLIC "-//W3C//DTD SVG 1.1//EN"
 "http://www.w3.org/Graphics/SVG/1.1/DTD/svg11.dtd">
<!-- Generated by graphviz version 2.38.0 (20140413.2041)
 -->
<!-- Title: torccameraoutput.cpp Pages: 1 -->
<!--zoomable 420 -->
<svg id="main" version="1.1" xmlns="http://www.w3.org/2000/svg" xmlns:xlink="http://www.w3.org/1999/xlink" xml:space="preserve" onload="init(evt)">
<style type="text/css"><![CDATA[
.edge:hover path { stroke: red; }
.edge:hover polygon { stroke: red; fill: red; }
]]></style>
<script type="text/javascript"><![CDATA[
var edges = document.getElementsByTagName('g');
if (edges && edges.length) {
  for (var i=0;i<edges.length;i++) {
    if (edges[i].id.substr(0,4)=='edge') {
      edges[i].setAttribute('class','edge');
    }
  }
}
]]></script>
        <defs>
                <circle id="rim" cx="0" cy="0" r="7"/>
                <circle id="rim2" cx="0" cy="0" r="3.5"/>
                <g id="zoomPlus">
                        <use xlink:href="#rim" fill="#404040">
                                <set attributeName="fill" to="#808080" begin="zoomplus.mouseover" end="zoomplus.mouseout"/>
                        </use>
                        <path d="M-4,0h8M0,-4v8" fill="none" stroke="white" stroke-width="1.5" pointer-events="none"/>
                </g>
                <g id="zoomMin">
                        <use xlink:href="#rim" fill="#404040">
                                <set attributeName="fill" to="#808080" begin="zoomminus.mouseover" end="zoomminus.mouseout"/>
                        </use>
                        <path d="M-4,0h8" fill="none" stroke="white" stroke-width="1.5" pointer-events="none"/>
                </g>
                <g id="dirArrow">
                        <path fill="none" stroke="white" stroke-width="1.5" d="M0,-3.0v7 M-2.5,-0.5L0,-3.0L2.5,-0.5"/>
                </g>
               <g id="resetDef">
                       <use xlink:href="#rim2" fill="#404040">
                               <set attributeName="fill" to="#808080" begin="reset.mouseover" end="reset.mouseout"/>
                       </use>
               </g>
        </defs>

<script type="text/javascript">
var viewWidth = 1301;
var viewHeight = 420;
var sectionId = 'dynsection-0';
</script>
<script xlink:href="../../svgpan.js"/>
<svg id="graph" class="graph">
<g id="viewport">
<title>torccameraoutput.cpp</title>
<polygon fill="white" stroke="none" points="-4,4 -4,-416 1297.35,-416 1297.35,4 -4,4"/>
<!-- Node1 -->
<g id="node1" class="node"><title>Node1</title>
<polygon fill="#bfbfbf" stroke="black" points="517,-392.5 517,-411.5 641,-411.5 641,-392.5 517,-392.5"/>
<text text-anchor="middle" x="579" y="-399.5" font-family="Helvetica,sans-Serif" font-size="10.00">torccameraoutput.cpp</text>
</g>
<!-- Node2 -->
<g id="node2" class="node"><title>Node2</title>
<g id="a_node2"><a xlink:href="../../d4/df9/torclogging_8h.html" target="_top" xlink:title="torclogging.h">
<polygon fill="white" stroke="black" points="247.5,-336.5 247.5,-355.5 326.5,-355.5 326.5,-336.5 247.5,-336.5"/>
<text text-anchor="middle" x="287" y="-343.5" font-family="Helvetica,sans-Serif" font-size="10.00">torclogging.h</text>
</a>
</g>
</g>
<!-- Node1&#45;&gt;Node2 -->
<g id="edge1" class="edge"><title>Node1&#45;&gt;Node2</title>
<path fill="none" stroke="midnightblue" d="M532.732,-392.444C479.291,-382.561 391.702,-366.363 336.806,-356.211"/>
<polygon fill="midnightblue" stroke="midnightblue" points="337.422,-352.765 326.952,-354.388 336.149,-359.649 337.422,-352.765"/>
</g>
<!-- Node6 -->
<g id="node6" class="node"><title>Node6</title>
<g id="a_node6"><a xlink:href="../../da/d80/torcoutputs_8h.html" target="_top" xlink:title="torcoutputs.h">
<polygon fill="white" stroke="black" points="484.5,-336.5 484.5,-355.5 565.5,-355.5 565.5,-336.5 484.5,-336.5"/>
<text text-anchor="middle" x="525" y="-343.5" font-family="Helvetica,sans-Serif" font-size="10.00">torcoutputs.h</text>
</a>
</g>
</g>
<!-- Node1&#45;&gt;Node6 -->
<g id="edge5" class="edge"><title>Node1&#45;&gt;Node6</title>
<path fill="none" stroke="midnightblue" d="M570.083,-392.083C562.22,-384.22 550.569,-372.569 541.081,-363.081"/>
<polygon fill="midnightblue" stroke="midnightblue" points="543.297,-360.347 533.751,-355.751 538.347,-365.297 543.297,-360.347"/>
</g>
<!-- Node31 -->
<g id="node31" class="node"><title>Node31</title>
<g id="a_node31"><a xlink:href="../../d9/dd8/torccamerathread_8h.html" target="_top" xlink:title="torccamerathread.h">
<polygon fill="white" stroke="black" points="959.5,-280.5 959.5,-299.5 1072.5,-299.5 1072.5,-280.5 959.5,-280.5"/>
<text text-anchor="middle" x="1016" y="-287.5" font-family="Helvetica,sans-Serif" font-size="10.00">torccamerathread.h</text>
</a>
</g>
</g>
<!-- Node1&#45;&gt;Node31 -->
<g id="edge47" class="edge"><title>Node1&#45;&gt;Node31</title>
<path fill="none" stroke="midnightblue" d="M588.26,-392.286C604.179,-377.873 638.378,-349.338 673,-336 764.343,-300.811 878.407,-292.189 949.236,-290.569"/>
<polygon fill="midnightblue" stroke="midnightblue" points="949.433,-294.066 959.365,-290.378 949.301,-287.067 949.433,-294.066"/>
</g>
<!-- Node39 -->
<g id="node39" class="node"><title>Node39</title>
<g id="a_node39"><a xlink:href="../../d2/d57/torccameraoutput_8h.html" target="_top" xlink:title="torccameraoutput.h">
<polygon fill="white" stroke="black" points="681.5,-336.5 681.5,-355.5 794.5,-355.5 794.5,-336.5 681.5,-336.5"/>
<text text-anchor="middle" x="738" y="-343.5" font-family="Helvetica,sans-Serif" font-size="10.00">torccameraoutput.h</text>
</a>
</g>
</g>
<!-- Node1&#45;&gt;Node39 -->
<g id="edge58" class="edge"><title>Node1&#45;&gt;Node39</title>
<path fill="none" stroke="midnightblue" d="M604.194,-392.444C630.943,-383.359 673.403,-368.939 703.305,-358.783"/>
<polygon fill="midnightblue" stroke="midnightblue" points="704.581,-362.046 712.924,-355.516 702.329,-355.418 704.581,-362.046"/>
</g>
<!-- Node3 -->
<g id="node3" class="node"><title>Node3</title>
<polygon fill="white" stroke="#bfbfbf" points="307.5,-280.5 307.5,-299.5 360.5,-299.5 360.5,-280.5 307.5,-280.5"/>
<text text-anchor="middle" x="334" y="-287.5" font-family="Helvetica,sans-Serif" font-size="10.00">stdint.h</text>
</g>
<!-- Node2&#45;&gt;Node3 -->
<g id="edge2" class="edge"><title>Node2&#45;&gt;Node3</title>
<path fill="none" stroke="midnightblue" d="M294.761,-336.083C301.537,-328.298 311.543,-316.801 319.755,-307.367"/>
<polygon fill="midnightblue" stroke="midnightblue" points="322.458,-309.592 326.383,-299.751 317.178,-304.996 322.458,-309.592"/>
</g>
<!-- Node4 -->
<g id="node4" class="node"><title>Node4</title>
<polygon fill="white" stroke="#bfbfbf" points="121.5,-280.5 121.5,-299.5 172.5,-299.5 172.5,-280.5 121.5,-280.5"/>
<text text-anchor="middle" x="147" y="-287.5" font-family="Helvetica,sans-Serif" font-size="10.00">errno.h</text>
</g>
<!-- Node2&#45;&gt;Node4 -->
<g id="edge3" class="edge"><title>Node2&#45;&gt;Node4</title>
<path fill="none" stroke="midnightblue" d="M264.817,-336.444C241.572,-327.478 204.851,-313.314 178.585,-303.183"/>
<polygon fill="midnightblue" stroke="midnightblue" points="179.669,-299.85 169.08,-299.516 177.15,-306.381 179.669,-299.85"/>
</g>
<!-- Node5 -->
<g id="node5" class="node"><title>Node5</title>
<g id="a_node5"><a xlink:href="../../d1/d37/torcloggingdefs_8h.html" target="_top" xlink:title="torcloggingdefs.h">
<polygon fill="white" stroke="black" points="190.5,-280.5 190.5,-299.5 289.5,-299.5 289.5,-280.5 190.5,-280.5"/>
<text text-anchor="middle" x="240" y="-287.5" font-family="Helvetica,sans-Serif" font-size="10.00">torcloggingdefs.h</text>
</a>
</g>
</g>
<!-- Node2&#45;&gt;Node5 -->
<g id="edge4" class="edge"><title>Node2&#45;&gt;Node5</title>
<path fill="none" stroke="midnightblue" d="M279.239,-336.083C272.463,-328.298 262.457,-316.801 254.245,-307.367"/>
<polygon fill="midnightblue" stroke="midnightblue" points="256.822,-304.996 247.617,-299.751 251.542,-309.592 256.822,-304.996"/>
</g>
<!-- Node7 -->
<g id="node7" class="node"><title>Node7</title>
<polygon fill="white" stroke="#bfbfbf" points="417.5,-280.5 417.5,-299.5 458.5,-299.5 458.5,-280.5 417.5,-280.5"/>
<text text-anchor="middle" x="438" y="-287.5" font-family="Helvetica,sans-Serif" font-size="10.00">QList</text>
</g>
<!-- Node6&#45;&gt;Node7 -->
<g id="edge6" class="edge"><title>Node6&#45;&gt;Node7</title>
<path fill="none" stroke="midnightblue" d="M511.022,-336.324C497.45,-327.9 476.62,-314.971 460.675,-305.074"/>
<polygon fill="midnightblue" stroke="midnightblue" points="462.286,-301.954 451.943,-299.655 458.594,-307.902 462.286,-301.954"/>
</g>
<!-- Node8 -->
<g id="node8" class="node"><title>Node8</title>
<polygon fill="white" stroke="#bfbfbf" points="536.5,-112.5 536.5,-131.5 589.5,-131.5 589.5,-112.5 536.5,-112.5"/>
<text text-anchor="middle" x="563" y="-119.5" font-family="Helvetica,sans-Serif" font-size="10.00">QMutex</text>
</g>
<!-- Node6&#45;&gt;Node8 -->
<g id="edge7" class="edge"><title>Node6&#45;&gt;Node8</title>
<path fill="none" stroke="midnightblue" d="M535.419,-336.237C544.391,-327.957 556.704,-314.648 562,-300 581.719,-245.454 572.905,-175.124 566.912,-141.936"/>
<polygon fill="midnightblue" stroke="midnightblue" points="570.294,-140.987 564.962,-131.832 563.421,-142.314 570.294,-140.987"/>
</g>
<!-- Node9 -->
<g id="node9" class="node"><title>Node9</title>
<g id="a_node9"><a xlink:href="../../d3/dee/torchttpservice_8h.html" target="_top" xlink:title="torchttpservice.h">
<polygon fill="white" stroke="black" points="303,-224.5 303,-243.5 401,-243.5 401,-224.5 303,-224.5"/>
<text text-anchor="middle" x="352" y="-231.5" font-family="Helvetica,sans-Serif" font-size="10.00">torchttpservice.h</text>
</a>
</g>
</g>
<!-- Node6&#45;&gt;Node9 -->
<g id="edge8" class="edge"><title>Node6&#45;&gt;Node9</title>
<path fill="none" stroke="midnightblue" d="M490.048,-336.458C465.569,-329.353 432.914,-317.539 408,-300 389.616,-287.058 373.444,-266.781 363.265,-252.318"/>
<polygon fill="midnightblue" stroke="midnightblue" points="365.99,-250.099 357.479,-243.789 360.197,-254.029 365.99,-250.099"/>
</g>
<!-- Node22 -->
<g id="node22" class="node"><title>Node22</title>
<g id="a_node22"><a xlink:href="../../dc/d01/torcoutput_8h.html" target="_top" xlink:title="torcoutput.h">
<polygon fill="white" stroke="black" points="700,-280.5 700,-299.5 776,-299.5 776,-280.5 700,-280.5"/>
<text text-anchor="middle" x="738" y="-287.5" font-family="Helvetica,sans-Serif" font-size="10.00">torcoutput.h</text>
</a>
</g>
</g>
<!-- Node6&#45;&gt;Node22 -->
<g id="edge25" class="edge"><title>Node6&#45;&gt;Node22</title>
<path fill="none" stroke="midnightblue" d="M558.75,-336.444C595.518,-327.122 654.446,-312.183 694.622,-301.997"/>
<polygon fill="midnightblue" stroke="midnightblue" points="695.574,-305.367 704.407,-299.516 693.854,-298.581 695.574,-305.367"/>
</g>
<!-- Node30 -->
<g id="node30" class="node"><title>Node30</title>
<g id="a_node30"><a xlink:href="../../d5/d41/torccentral_8h.html" target="_top" xlink:title="torccentral.h">
<polygon fill="white" stroke="black" points="476.5,-280.5 476.5,-299.5 553.5,-299.5 553.5,-280.5 476.5,-280.5"/>
<text text-anchor="middle" x="515" y="-287.5" font-family="Helvetica,sans-Serif" font-size="10.00">torccentral.h</text>
</a>
</g>
</g>
<!-- Node6&#45;&gt;Node30 -->
<g id="edge41" class="edge"><title>Node6&#45;&gt;Node30</title>
<path fill="none" stroke="midnightblue" d="M523.349,-336.083C522.024,-328.927 520.118,-318.635 518.461,-309.691"/>
<polygon fill="midnightblue" stroke="midnightblue" points="521.883,-308.947 516.621,-299.751 515,-310.221 521.883,-308.947"/>
</g>
<!-- Node9&#45;&gt;Node8 -->
<g id="edge10" class="edge"><title>Node9&#45;&gt;Node8</title>
<path fill="none" stroke="midnightblue" d="M368.557,-224.368C405.304,-205.211 493.877,-159.036 537.647,-136.217"/>
<polygon fill="midnightblue" stroke="midnightblue" points="539.271,-139.318 546.52,-131.591 536.035,-133.111 539.271,-139.318"/>
</g>
<!-- Node10 -->
<g id="node10" class="node"><title>Node10</title>
<polygon fill="white" stroke="#bfbfbf" points="0,-56.5 0,-75.5 44,-75.5 44,-56.5 0,-56.5"/>
<text text-anchor="middle" x="22" y="-63.5" font-family="Helvetica,sans-Serif" font-size="10.00">QMap</text>
</g>
<!-- Node9&#45;&gt;Node10 -->
<g id="edge9" class="edge"><title>Node9&#45;&gt;Node10</title>
<path fill="none" stroke="midnightblue" d="M302.735,-230.71C231.826,-226.501 105.594,-215.317 70,-188 37.6843,-163.199 27.0792,-113.336 23.6326,-85.9988"/>
<polygon fill="midnightblue" stroke="midnightblue" points="27.0863,-85.3758 22.5513,-75.8006 20.1253,-86.1139 27.0863,-85.3758"/>
</g>
<!-- Node11 -->
<g id="node11" class="node"><title>Node11</title>
<polygon fill="white" stroke="#bfbfbf" points="205.5,-168.5 205.5,-187.5 284.5,-187.5 284.5,-168.5 205.5,-168.5"/>
<text text-anchor="middle" x="245" y="-175.5" font-family="Helvetica,sans-Serif" font-size="10.00">QMetaObject</text>
</g>
<!-- Node9&#45;&gt;Node11 -->
<g id="edge11" class="edge"><title>Node9&#45;&gt;Node11</title>
<path fill="none" stroke="midnightblue" d="M334.809,-224.324C317.649,-215.664 291.054,-202.242 271.253,-192.249"/>
<polygon fill="midnightblue" stroke="midnightblue" points="272.653,-189.035 262.149,-187.655 269.499,-195.285 272.653,-189.035"/>
</g>
<!-- Node12 -->
<g id="node12" class="node"><title>Node12</title>
<polygon fill="white" stroke="#bfbfbf" points="302.5,-168.5 302.5,-187.5 401.5,-187.5 401.5,-168.5 302.5,-168.5"/>
<text text-anchor="middle" x="352" y="-175.5" font-family="Helvetica,sans-Serif" font-size="10.00">QCoreApplication</text>
</g>
<!-- Node9&#45;&gt;Node12 -->
<g id="edge12" class="edge"><title>Node9&#45;&gt;Node12</title>
<path fill="none" stroke="midnightblue" d="M352,-224.083C352,-217.006 352,-206.861 352,-197.986"/>
<polygon fill="midnightblue" stroke="midnightblue" points="355.5,-197.751 352,-187.751 348.5,-197.751 355.5,-197.751"/>
</g>
<!-- Node13 -->
<g id="node13" class="node"><title>Node13</title>
<g id="a_node13"><a xlink:href="../../d4/d11/torchttphandler_8h.html" target="_top" xlink:title="torchttphandler.h">
<polygon fill="white" stroke="black" points="88.5,-168.5 88.5,-187.5 187.5,-187.5 187.5,-168.5 88.5,-168.5"/>
<text text-anchor="middle" x="138" y="-175.5" font-family="Helvetica,sans-Serif" font-size="10.00">torchttphandler.h</text>
</a>
</g>
</g>
<!-- Node9&#45;&gt;Node13 -->
<g id="edge13" class="edge"><title>Node9&#45;&gt;Node13</title>
<path fill="none" stroke="midnightblue" d="M318.091,-224.444C281.151,-215.122 221.946,-200.183 181.582,-189.997"/>
<polygon fill="midnightblue" stroke="midnightblue" points="182.303,-186.57 171.75,-187.516 180.59,-193.357 182.303,-186.57"/>
</g>
<!-- Node16 -->
<g id="node16" class="node"><title>Node16</title>
<g id="a_node16"><a xlink:href="../../df/dd7/torchttprequest_8h.html" target="_top" xlink:title="torchttprequest.h">
<polygon fill="white" stroke="black" points="54.5,-112.5 54.5,-131.5 155.5,-131.5 155.5,-112.5 54.5,-112.5"/>
<text text-anchor="middle" x="105" y="-119.5" font-family="Helvetica,sans-Serif" font-size="10.00">torchttprequest.h</text>
</a>
</g>
</g>
<!-- Node9&#45;&gt;Node16 -->
<g id="edge24" class="edge"><title>Node9&#45;&gt;Node16</title>
<path fill="none" stroke="midnightblue" d="M302.97,-232.22C232.298,-229.94 107.168,-221.191 79,-188 67.147,-174.033 78.2629,-153.982 89.4106,-139.852"/>
<polygon fill="midnightblue" stroke="midnightblue" points="92.3385,-141.811 96.1506,-131.926 87.006,-137.276 92.3385,-141.811"/>
</g>
<!-- Node14 -->
<g id="node14" class="node"><title>Node14</title>
<polygon fill="white" stroke="#bfbfbf" points="264.5,-56.5 264.5,-75.5 317.5,-75.5 317.5,-56.5 264.5,-56.5"/>
<text text-anchor="middle" x="291" y="-63.5" font-family="Helvetica,sans-Serif" font-size="10.00">QString</text>
</g>
<!-- Node13&#45;&gt;Node14 -->
<g id="edge14" class="edge"><title>Node13&#45;&gt;Node14</title>
<path fill="none" stroke="midnightblue" d="M186.75,-168.45C211.472,-161.991 240.516,-150.876 261,-132 274.401,-119.651 282.293,-100.125 286.59,-85.694"/>
<polygon fill="midnightblue" stroke="midnightblue" points="290.018,-86.4188 289.207,-75.8552 283.254,-84.6195 290.018,-86.4188"/>
</g>
<!-- Node15 -->
<g id="node15" class="node"><title>Node15</title>
<polygon fill="white" stroke="#bfbfbf" points="174,-112.5 174,-131.5 252,-131.5 252,-112.5 174,-112.5"/>
<text text-anchor="middle" x="213" y="-119.5" font-family="Helvetica,sans-Serif" font-size="10.00">QVariantMap</text>
</g>
<!-- Node13&#45;&gt;Node15 -->
<g id="edge15" class="edge"><title>Node13&#45;&gt;Node15</title>
<path fill="none" stroke="midnightblue" d="M150.05,-168.324C161.463,-160.107 178.831,-147.602 192.435,-137.807"/>
<polygon fill="midnightblue" stroke="midnightblue" points="194.66,-140.517 200.731,-131.834 190.57,-134.837 194.66,-140.517"/>
</g>
<!-- Node13&#45;&gt;Node16 -->
<g id="edge16" class="edge"><title>Node13&#45;&gt;Node16</title>
<path fill="none" stroke="midnightblue" d="M132.551,-168.083C127.986,-160.613 121.332,-149.724 115.707,-140.52"/>
<polygon fill="midnightblue" stroke="midnightblue" points="118.549,-138.459 110.348,-131.751 112.576,-142.109 118.549,-138.459"/>
</g>
<!-- Node16&#45;&gt;Node10 -->
<g id="edge17" class="edge"><title>Node16&#45;&gt;Node10</title>
<path fill="none" stroke="midnightblue" d="M91.6646,-112.324C78.838,-103.979 59.215,-91.2122 44.0602,-81.3524"/>
<polygon fill="midnightblue" stroke="midnightblue" points="45.5932,-78.1742 35.3023,-75.6545 41.7757,-84.0417 45.5932,-78.1742"/>
</g>
<!-- Node16&#45;&gt;Node14 -->
<g id="edge19" class="edge"><title>Node16&#45;&gt;Node14</title>
<path fill="none" stroke="midnightblue" d="M134.472,-112.444C167.01,-102.997 219.422,-87.7807 254.524,-77.5897"/>
<polygon fill="midnightblue" stroke="midnightblue" points="255.75,-80.8784 264.378,-74.729 253.798,-74.156 255.75,-80.8784"/>
</g>
<!-- Node17 -->
<g id="node17" class="node"><title>Node17</title>
<polygon fill="white" stroke="#bfbfbf" points="810.5,-56.5 810.5,-75.5 851.5,-75.5 851.5,-56.5 810.5,-56.5"/>
<text text-anchor="middle" x="831" y="-63.5" font-family="Helvetica,sans-Serif" font-size="10.00">QPair</text>
</g>
<!-- Node16&#45;&gt;Node17 -->
<g id="edge18" class="edge"><title>Node16&#45;&gt;Node17</title>
<path fill="none" stroke="midnightblue" d="M155.701,-113.098C158.845,-112.7 161.963,-112.33 165,-112 409.059,-85.4949 705.238,-72.042 800.166,-68.1892"/>
<polygon fill="midnightblue" stroke="midnightblue" points="800.378,-71.6836 810.23,-67.7863 800.098,-64.6892 800.378,-71.6836"/>
</g>
<!-- Node18 -->
<g id="node18" class="node"><title>Node18</title>
<polygon fill="white" stroke="#bfbfbf" points="62.5,-56.5 62.5,-75.5 133.5,-75.5 133.5,-56.5 62.5,-56.5"/>
<text text-anchor="middle" x="98" y="-63.5" font-family="Helvetica,sans-Serif" font-size="10.00">QDateTime</text>
</g>
<!-- Node16&#45;&gt;Node18 -->
<g id="edge20" class="edge"><title>Node16&#45;&gt;Node18</title>
<path fill="none" stroke="midnightblue" d="M103.844,-112.083C102.916,-104.927 101.582,-94.6353 100.423,-85.6911"/>
<polygon fill="midnightblue" stroke="midnightblue" points="103.891,-85.2181 99.1344,-75.7511 96.9491,-86.1181 103.891,-85.2181"/>
</g>
<!-- Node19 -->
<g id="node19" class="node"><title>Node19</title>
<g id="a_node19"><a xlink:href="../../de/de6/torchttpreader_8h.html" target="_top" xlink:title="torchttpreader.h">
<polygon fill="white" stroke="black" points="151.5,-56.5 151.5,-75.5 246.5,-75.5 246.5,-56.5 151.5,-56.5"/>
<text text-anchor="middle" x="199" y="-63.5" font-family="Helvetica,sans-Serif" font-size="10.00">torchttpreader.h</text>
</a>
</g>
</g>
<!-- Node16&#45;&gt;Node19 -->
<g id="edge21" class="edge"><title>Node16&#45;&gt;Node19</title>
<path fill="none" stroke="midnightblue" d="M120.103,-112.324C134.903,-103.822 157.694,-90.7288 174.982,-80.7975"/>
<polygon fill="midnightblue" stroke="midnightblue" points="177.007,-83.6707 183.935,-75.6545 173.52,-77.6009 177.007,-83.6707"/>
</g>
<!-- Node20 -->
<g id="node20" class="node"><title>Node20</title>
<polygon fill="white" stroke="#bfbfbf" points="118.5,-0.5 118.5,-19.5 189.5,-19.5 189.5,-0.5 118.5,-0.5"/>
<text text-anchor="middle" x="154" y="-7.5" font-family="Helvetica,sans-Serif" font-size="10.00">QByteArray</text>
</g>
<!-- Node19&#45;&gt;Node20 -->
<g id="edge22" class="edge"><title>Node19&#45;&gt;Node20</title>
<path fill="none" stroke="midnightblue" d="M191.569,-56.083C185.147,-48.3768 175.694,-37.0333 167.878,-27.6531"/>
<polygon fill="midnightblue" stroke="midnightblue" points="170.383,-25.1927 161.293,-19.7511 165.006,-29.674 170.383,-25.1927"/>
</g>
<!-- Node21 -->
<g id="node21" class="node"><title>Node21</title>
<polygon fill="white" stroke="#bfbfbf" points="208,-0.5 208,-19.5 280,-19.5 280,-0.5 208,-0.5"/>
<text text-anchor="middle" x="244" y="-7.5" font-family="Helvetica,sans-Serif" font-size="10.00">QTcpSocket</text>
</g>
<!-- Node19&#45;&gt;Node21 -->
<g id="edge23" class="edge"><title>Node19&#45;&gt;Node21</title>
<path fill="none" stroke="midnightblue" d="M206.431,-56.083C212.853,-48.3768 222.306,-37.0333 230.122,-27.6531"/>
<polygon fill="midnightblue" stroke="midnightblue" points="232.994,-29.674 236.707,-19.7511 227.617,-25.1927 232.994,-29.674"/>
</g>
<!-- Node22&#45;&gt;Node8 -->
<g id="edge26" class="edge"><title>Node22&#45;&gt;Node8</title>
<path fill="none" stroke="midnightblue" d="M722.432,-280.401C695.217,-264.79 638.338,-229.532 601,-188 588.325,-173.902 577.816,-154.916 571.086,-141.105"/>
<polygon fill="midnightblue" stroke="midnightblue" points="574.105,-139.299 566.703,-131.719 567.763,-142.261 574.105,-139.299"/>
</g>
<!-- Node22&#45;&gt;Node9 -->
<g id="edge30" class="edge"><title>Node22&#45;&gt;Node9</title>
<path fill="none" stroke="midnightblue" d="M699.932,-283.674C632.445,-274.233 491.395,-254.501 411.155,-243.276"/>
<polygon fill="midnightblue" stroke="midnightblue" points="411.593,-239.803 401.204,-241.883 410.623,-246.735 411.593,-239.803"/>
</g>
<!-- Node23 -->
<g id="node23" class="node"><title>Node23</title>
<polygon fill="white" stroke="#bfbfbf" points="852.5,-168.5 852.5,-187.5 907.5,-187.5 907.5,-168.5 852.5,-168.5"/>
<text text-anchor="middle" x="880" y="-175.5" font-family="Helvetica,sans-Serif" font-size="10.00">QObject</text>
</g>
<!-- Node22&#45;&gt;Node23 -->
<g id="edge27" class="edge"><title>Node22&#45;&gt;Node23</title>
<path fill="none" stroke="midnightblue" d="M751.21,-280.393C764.531,-271.589 785.562,-257.348 803,-244 824.098,-227.85 847.264,-207.985 862.618,-194.497"/>
<polygon fill="midnightblue" stroke="midnightblue" points="865.106,-196.969 870.282,-187.724 860.471,-191.724 865.106,-196.969"/>
</g>
<!-- Node24 -->
<g id="node24" class="node"><title>Node24</title>
<g id="a_node24"><a xlink:href="../../d8/dfe/torcreferencecounted_8h.html" target="_top" xlink:title="torcreferencecounted.h">
<polygon fill="white" stroke="black" points="925.5,-168.5 925.5,-187.5 1054.5,-187.5 1054.5,-168.5 925.5,-168.5"/>
<text text-anchor="middle" x="990" y="-175.5" font-family="Helvetica,sans-Serif" font-size="10.00">torcreferencecounted.h</text>
</a>
</g>
</g>
<!-- Node22&#45;&gt;Node24 -->
<g id="edge28" class="edge"><title>Node22&#45;&gt;Node24</title>
<path fill="none" stroke="midnightblue" d="M757.774,-280.368C802.029,-261.051 909.224,-214.259 961.024,-191.648"/>
<polygon fill="midnightblue" stroke="midnightblue" points="962.553,-194.8 970.318,-187.591 959.753,-188.384 962.553,-194.8"/>
</g>
<!-- Node26 -->
<g id="node26" class="node"><title>Node26</title>
<g id="a_node26"><a xlink:href="../../d1/df7/torcdevice_8h.html" target="_top" xlink:title="torcdevice.h">
<polygon fill="white" stroke="black" points="718.5,-224.5 718.5,-243.5 793.5,-243.5 793.5,-224.5 718.5,-224.5"/>
<text text-anchor="middle" x="756" y="-231.5" font-family="Helvetica,sans-Serif" font-size="10.00">torcdevice.h</text>
</a>
</g>
</g>
<!-- Node22&#45;&gt;Node26 -->
<g id="edge31" class="edge"><title>Node22&#45;&gt;Node26</title>
<path fill="none" stroke="midnightblue" d="M740.972,-280.083C743.384,-272.849 746.864,-262.409 749.868,-253.397"/>
<polygon fill="midnightblue" stroke="midnightblue" points="753.241,-254.345 753.083,-243.751 746.6,-252.131 753.241,-254.345"/>
</g>
<!-- Node25 -->
<g id="node25" class="node"><title>Node25</title>
<polygon fill="white" stroke="#bfbfbf" points="941,-112.5 941,-131.5 1011,-131.5 1011,-112.5 941,-112.5"/>
<text text-anchor="middle" x="976" y="-119.5" font-family="Helvetica,sans-Serif" font-size="10.00">QAtomicInt</text>
</g>
<!-- Node24&#45;&gt;Node25 -->
<g id="edge29" class="edge"><title>Node24&#45;&gt;Node25</title>
<path fill="none" stroke="midnightblue" d="M987.688,-168.083C985.833,-160.927 983.165,-150.635 980.846,-141.691"/>
<polygon fill="midnightblue" stroke="midnightblue" points="984.166,-140.553 978.269,-131.751 977.391,-142.309 984.166,-140.553"/>
</g>
<!-- Node26&#45;&gt;Node8 -->
<g id="edge33" class="edge"><title>Node26&#45;&gt;Node8</title>
<path fill="none" stroke="midnightblue" d="M754.877,-224.443C752.59,-210.517 746.074,-183.002 729,-168 692.967,-136.338 636.79,-126.693 599.94,-123.901"/>
<polygon fill="midnightblue" stroke="midnightblue" points="599.828,-120.387 589.63,-123.259 599.393,-127.373 599.828,-120.387"/>
</g>
<!-- Node26&#45;&gt;Node14 -->
<g id="edge34" class="edge"><title>Node26&#45;&gt;Node14</title>
<path fill="none" stroke="midnightblue" d="M761.384,-224.443C766.556,-215.678 774.012,-201.467 777,-188 784.701,-153.286 780.855,-132.779 752,-112 717.848,-87.4062 431.281,-72.9436 327.956,-68.4887"/>
<polygon fill="midnightblue" stroke="midnightblue" points="327.833,-64.9804 317.694,-68.0533 327.536,-71.9741 327.833,-64.9804"/>
</g>
<!-- Node26&#45;&gt;Node23 -->
<g id="edge35" class="edge"><title>Node26&#45;&gt;Node23</title>
<path fill="none" stroke="midnightblue" d="M775.648,-224.444C795.965,-215.596 827.903,-201.687 851.098,-191.586"/>
<polygon fill="midnightblue" stroke="midnightblue" points="852.673,-194.718 860.444,-187.516 849.878,-188.3 852.673,-194.718"/>
</g>
<!-- Node26&#45;&gt;Node24 -->
<g id="edge36" class="edge"><title>Node26&#45;&gt;Node24</title>
<path fill="none" stroke="midnightblue" d="M793.078,-224.444C833.728,-215.063 899.032,-199.993 943.184,-189.804"/>
<polygon fill="midnightblue" stroke="midnightblue" points="944.139,-193.175 953.095,-187.516 942.565,-186.355 944.139,-193.175"/>
</g>
<!-- Node27 -->
<g id="node27" class="node"><title>Node27</title>
<polygon fill="white" stroke="#bfbfbf" points="693.5,-112.5 693.5,-131.5 742.5,-131.5 742.5,-112.5 693.5,-112.5"/>
<text text-anchor="middle" x="718" y="-119.5" font-family="Helvetica,sans-Serif" font-size="10.00">QHash</text>
</g>
<!-- Node26&#45;&gt;Node27 -->
<g id="edge32" class="edge"><title>Node26&#45;&gt;Node27</title>
<path fill="none" stroke="midnightblue" d="M759.308,-224.21C763.606,-211.351 769.7,-186.89 762,-168 757.2,-156.225 747.671,-145.856 738.705,-138.049"/>
<polygon fill="midnightblue" stroke="midnightblue" points="740.755,-135.205 730.781,-131.631 736.35,-140.645 740.755,-135.205"/>
</g>
<!-- Node28 -->
<g id="node28" class="node"><title>Node28</title>
<g id="a_node28"><a xlink:href="../../d2/d5b/torcdevicehandler_8h.html" target="_top" xlink:title="torcdevicehandler.h">
<polygon fill="white" stroke="black" points="610,-168.5 610,-187.5 720,-187.5 720,-168.5 610,-168.5"/>
<text text-anchor="middle" x="665" y="-175.5" font-family="Helvetica,sans-Serif" font-size="10.00">torcdevicehandler.h</text>
</a>
</g>
</g>
<!-- Node26&#45;&gt;Node28 -->
<g id="edge37" class="edge"><title>Node26&#45;&gt;Node28</title>
<path fill="none" stroke="midnightblue" d="M741.379,-224.324C727.051,-215.822 704.987,-202.729 688.251,-192.797"/>
<polygon fill="midnightblue" stroke="midnightblue" points="689.97,-189.748 679.584,-187.655 686.398,-195.768 689.97,-189.748"/>
</g>
<!-- Node28&#45;&gt;Node8 -->
<g id="edge39" class="edge"><title>Node28&#45;&gt;Node8</title>
<path fill="none" stroke="midnightblue" d="M648.612,-168.324C632.329,-159.703 607.133,-146.364 588.284,-136.386"/>
<polygon fill="midnightblue" stroke="midnightblue" points="589.823,-133.24 579.347,-131.655 586.548,-139.427 589.823,-133.24"/>
</g>
<!-- Node28&#45;&gt;Node27 -->
<g id="edge38" class="edge"><title>Node28&#45;&gt;Node27</title>
<path fill="none" stroke="midnightblue" d="M673.752,-168.083C681.47,-160.22 692.905,-148.569 702.217,-139.081"/>
<polygon fill="midnightblue" stroke="midnightblue" points="704.904,-141.34 709.411,-131.751 699.908,-136.436 704.904,-141.34"/>
</g>
<!-- Node29 -->
<g id="node29" class="node"><title>Node29</title>
<polygon fill="white" stroke="#bfbfbf" points="449,-112.5 449,-131.5 507,-131.5 507,-112.5 449,-112.5"/>
<text text-anchor="middle" x="478" y="-119.5" font-family="Helvetica,sans-Serif" font-size="10.00">QVariant</text>
</g>
<!-- Node28&#45;&gt;Node29 -->
<g id="edge40" class="edge"><title>Node28&#45;&gt;Node29</title>
<path fill="none" stroke="midnightblue" d="M635.369,-168.444C603.406,-159.214 552.368,-144.475 517.126,-134.298"/>
<polygon fill="midnightblue" stroke="midnightblue" points="517.763,-130.839 507.184,-131.428 515.821,-137.565 517.763,-130.839"/>
</g>
<!-- Node30&#45;&gt;Node8 -->
<g id="edge42" class="edge"><title>Node30&#45;&gt;Node8</title>
<path fill="none" stroke="midnightblue" d="M514.614,-280.424C514.003,-260.102 514.218,-207.74 530,-168 534.097,-157.685 541.135,-147.59 547.663,-139.584"/>
<polygon fill="midnightblue" stroke="midnightblue" points="550.494,-141.661 554.381,-131.805 545.196,-137.085 550.494,-141.661"/>
</g>
<!-- Node30&#45;&gt;Node9 -->
<g id="edge46" class="edge"><title>Node30&#45;&gt;Node9</title>
<path fill="none" stroke="midnightblue" d="M489.172,-280.444C461.751,-271.359 418.223,-256.939 387.568,-246.783"/>
<polygon fill="midnightblue" stroke="midnightblue" points="388.3,-243.339 377.707,-243.516 386.099,-249.984 388.3,-243.339"/>
</g>
<!-- Node30&#45;&gt;Node23 -->
<g id="edge43" class="edge"><title>Node30&#45;&gt;Node23</title>
<path fill="none" stroke="midnightblue" d="M539.164,-280.399C575.861,-267.462 647.94,-242.537 710,-224 755.201,-210.499 807.769,-196.902 842.344,-188.243"/>
<polygon fill="midnightblue" stroke="midnightblue" points="843.612,-191.535 852.469,-185.72 841.919,-184.742 843.612,-191.535"/>
</g>
<!-- Node30&#45;&gt;Node26 -->
<g id="edge45" class="edge"><title>Node30&#45;&gt;Node26</title>
<path fill="none" stroke="midnightblue" d="M553.187,-280.444C595.264,-271.015 662.991,-255.84 708.472,-245.65"/>
<polygon fill="midnightblue" stroke="midnightblue" points="709.395,-249.029 718.388,-243.428 707.865,-242.199 709.395,-249.029"/>
</g>
<!-- Node30&#45;&gt;Node29 -->
<g id="edge44" class="edge"><title>Node30&#45;&gt;Node29</title>
<path fill="none" stroke="midnightblue" d="M509.438,-280.43C504.034,-271.655 496.066,-257.436 492,-244 481.42,-209.037 478.744,-166.168 478.122,-141.979"/>
<polygon fill="midnightblue" stroke="midnightblue" points="481.617,-141.664 477.956,-131.722 474.618,-141.777 481.617,-141.664"/>
</g>
<!-- Node31&#45;&gt;Node24 -->
<g id="edge48" class="edge"><title>Node31&#45;&gt;Node24</title>
<path fill="none" stroke="midnightblue" d="M1012.31,-280.189C1008.68,-271.226 1003.25,-256.864 1000,-244 996.112,-228.588 993.495,-210.715 991.917,-197.616"/>
<polygon fill="midnightblue" stroke="midnightblue" points="995.377,-197.067 990.791,-187.516 988.42,-197.842 995.377,-197.067"/>
</g>
<!-- Node32 -->
<g id="node32" class="node"><title>Node32</title>
<g id="a_node32"><a xlink:href="../../dd/db0/torcqthread_8h.html" target="_top" xlink:title="torcqthread.h">
<polygon fill="white" stroke="black" points="1009,-224.5 1009,-243.5 1091,-243.5 1091,-224.5 1009,-224.5"/>
<text text-anchor="middle" x="1050" y="-231.5" font-family="Helvetica,sans-Serif" font-size="10.00">torcqthread.h</text>
</a>
</g>
</g>
<!-- Node31&#45;&gt;Node32 -->
<g id="edge49" class="edge"><title>Node31&#45;&gt;Node32</title>
<path fill="none" stroke="midnightblue" d="M1021.61,-280.083C1026.37,-272.534 1033.32,-261.495 1039.15,-252.23"/>
<polygon fill="midnightblue" stroke="midnightblue" points="1042.12,-254.078 1044.49,-243.751 1036.2,-250.349 1042.12,-254.078"/>
</g>
<!-- Node34 -->
<g id="node34" class="node"><title>Node34</title>
<g id="a_node34"><a xlink:href="../../d3/d38/torccamera_8h.html" target="_top" xlink:title="torccamera.h">
<polygon fill="white" stroke="black" points="1109.5,-224.5 1109.5,-243.5 1190.5,-243.5 1190.5,-224.5 1109.5,-224.5"/>
<text text-anchor="middle" x="1150" y="-231.5" font-family="Helvetica,sans-Serif" font-size="10.00">torccamera.h</text>
</a>
</g>
</g>
<!-- Node31&#45;&gt;Node34 -->
<g id="edge51" class="edge"><title>Node31&#45;&gt;Node34</title>
<path fill="none" stroke="midnightblue" d="M1037.23,-280.444C1059.38,-271.517 1094.32,-257.439 1119.44,-247.317"/>
<polygon fill="midnightblue" stroke="midnightblue" points="1120.9,-250.501 1128.87,-243.516 1118.28,-244.008 1120.9,-250.501"/>
</g>
<!-- Node33 -->
<g id="node33" class="node"><title>Node33</title>
<polygon fill="white" stroke="#bfbfbf" points="1072.5,-168.5 1072.5,-187.5 1129.5,-187.5 1129.5,-168.5 1072.5,-168.5"/>
<text text-anchor="middle" x="1101" y="-175.5" font-family="Helvetica,sans-Serif" font-size="10.00">QThread</text>
</g>
<!-- Node32&#45;&gt;Node33 -->
<g id="edge50" class="edge"><title>Node32&#45;&gt;Node33</title>
<path fill="none" stroke="midnightblue" d="M1058.42,-224.083C1065.85,-216.22 1076.85,-204.569 1085.81,-195.081"/>
<polygon fill="midnightblue" stroke="midnightblue" points="1088.41,-197.424 1092.74,-187.751 1083.32,-192.618 1088.41,-197.424"/>
</g>
<!-- Node34&#45;&gt;Node23 -->
<g id="edge52" class="edge"><title>Node34&#45;&gt;Node23</title>
<path fill="none" stroke="midnightblue" d="M1109.22,-225.368C1056.46,-215.454 966.438,-198.397 917.844,-188.081"/>
<polygon fill="midnightblue" stroke="midnightblue" points="918.361,-184.612 907.847,-185.925 916.884,-191.455 918.361,-184.612"/>
</g>
<!-- Node35 -->
<g id="node35" class="node"><title>Node35</title>
<g id="a_node35"><a xlink:href="../../de/df7/torcsegmentedringbuffer_8h.html" target="_top" xlink:title="torcsegmentedringbuffer.h">
<polygon fill="white" stroke="black" points="1148,-168.5 1148,-187.5 1292,-187.5 1292,-168.5 1148,-168.5"/>
<text text-anchor="middle" x="1220" y="-175.5" font-family="Helvetica,sans-Serif" font-size="10.00">torcsegmentedringbuffer.h</text>
</a>
</g>
</g>
<!-- Node34&#45;&gt;Node35 -->
<g id="edge53" class="edge"><title>Node34&#45;&gt;Node35</title>
<path fill="none" stroke="midnightblue" d="M1161.25,-224.324C1171.8,-216.185 1187.8,-203.839 1200.44,-194.087"/>
<polygon fill="midnightblue" stroke="midnightblue" points="1202.77,-196.713 1208.55,-187.834 1198.49,-191.171 1202.77,-196.713"/>
</g>
<!-- Node35&#45;&gt;Node17 -->
<g id="edge54" class="edge"><title>Node35&#45;&gt;Node17</title>
<path fill="none" stroke="midnightblue" d="M1240.98,-168.369C1267.47,-156.292 1307.41,-133.418 1288,-112 1259.39,-80.4358 959.989,-70.2097 861.914,-67.6936"/>
<polygon fill="midnightblue" stroke="midnightblue" points="861.841,-64.1908 851.758,-67.4424 861.668,-71.1887 861.841,-64.1908"/>
</g>
<!-- Node36 -->
<g id="node36" class="node"><title>Node36</title>
<polygon fill="white" stroke="#bfbfbf" points="1029,-112.5 1029,-131.5 1085,-131.5 1085,-112.5 1029,-112.5"/>
<text text-anchor="middle" x="1057" y="-119.5" font-family="Helvetica,sans-Serif" font-size="10.00">QQueue</text>
</g>
<!-- Node35&#45;&gt;Node36 -->
<g id="edge55" class="edge"><title>Node35&#45;&gt;Node36</title>
<path fill="none" stroke="midnightblue" d="M1194.17,-168.444C1166.75,-159.359 1123.22,-144.939 1092.57,-134.783"/>
<polygon fill="midnightblue" stroke="midnightblue" points="1093.3,-131.339 1082.71,-131.516 1091.1,-137.984 1093.3,-131.339"/>
</g>
<!-- Node37 -->
<g id="node37" class="node"><title>Node37</title>
<polygon fill="white" stroke="#bfbfbf" points="1103,-112.5 1103,-131.5 1169,-131.5 1169,-112.5 1103,-112.5"/>
<text text-anchor="middle" x="1136" y="-119.5" font-family="Helvetica,sans-Serif" font-size="10.00">QIODevice</text>
</g>
<!-- Node35&#45;&gt;Node37 -->
<g id="edge56" class="edge"><title>Node35&#45;&gt;Node37</title>
<path fill="none" stroke="midnightblue" d="M1206.5,-168.324C1193.4,-159.9 1173.29,-146.971 1157.89,-137.074"/>
<polygon fill="midnightblue" stroke="midnightblue" points="1159.77,-134.118 1149.46,-131.655 1155.98,-140.006 1159.77,-134.118"/>
</g>
<!-- Node38 -->
<g id="node38" class="node"><title>Node38</title>
<polygon fill="white" stroke="#bfbfbf" points="1187,-112.5 1187,-131.5 1279,-131.5 1279,-112.5 1187,-112.5"/>
<text text-anchor="middle" x="1233" y="-119.5" font-family="Helvetica,sans-Serif" font-size="10.00">QReadWriteLock</text>
</g>
<!-- Node35&#45;&gt;Node38 -->
<g id="edge57" class="edge"><title>Node35&#45;&gt;Node38</title>
<path fill="none" stroke="midnightblue" d="M1222.15,-168.083C1223.87,-160.927 1226.35,-150.635 1228.5,-141.691"/>
<polygon fill="midnightblue" stroke="midnightblue" points="1231.96,-142.293 1230.89,-131.751 1225.15,-140.654 1231.96,-142.293"/>
</g>
<!-- Node39&#45;&gt;Node22 -->
<g id="edge59" class="edge"><title>Node39&#45;&gt;Node22</title>
<path fill="none" stroke="midnightblue" d="M738,-336.083C738,-329.006 738,-318.861 738,-309.986"/>
<polygon fill="midnightblue" stroke="midnightblue" points="741.5,-309.751 738,-299.751 734.5,-309.751 741.5,-309.751"/>
</g>
<!-- Node39&#45;&gt;Node34 -->
<g id="edge60" class="edge"><title>Node39&#45;&gt;Node34</title>
<path fill="none" stroke="midnightblue" d="M794.527,-341.87C878.709,-336.496 1032.43,-323.731 1082,-300 1105.15,-288.918 1125.5,-266.946 1137.77,-251.631"/>
<polygon fill="midnightblue" stroke="midnightblue" points="1140.69,-253.575 1144.02,-243.516 1135.14,-249.305 1140.69,-253.575"/>
</g>
</g>
</svg>
        <g id="navigator" transform="translate(0 0)" fill="#404254">
                <rect fill="#f2f5e9" fill-opacity="0.5" stroke="#606060" stroke-width=".5" x="0" y="0" width="60" height="60"/>
                <use id="zoomplus" xlink:href="#zoomPlus" x="17" y="9" onmousedown="handleZoom(evt,'in')"/>
                <use id="zoomminus" xlink:href="#zoomMin" x="42" y="9" onmousedown="handleZoom(evt,'out')"/>
                <use id="reset" xlink:href="#resetDef" x="30" y="36" onmousedown="handleReset()"/>
                <g id="arrowUp" xlink:href="#dirArrow" transform="translate(30 24)" onmousedown="handlePan(0,-1)">
                  <use xlink:href="#rim" fill="#404040">
                        <set attributeName="fill" to="#808080" begin="arrowUp.mouseover" end="arrowUp.mouseout"/>
                  </use>
                  <path fill="none" stroke="white" stroke-width="1.5" d="M0,-3.0v7 M-2.5,-0.5L0,-3.0L2.5,-0.5"/>
                </g>
                <g id="arrowRight" xlink:href="#dirArrow" transform="rotate(90) translate(36 -43)" onmousedown="handlePan(1,0)">
                  <use xlink:href="#rim" fill="#404040">
                        <set attributeName="fill" to="#808080" begin="arrowRight.mouseover" end="arrowRight.mouseout"/>
                  </use>
                  <path fill="none" stroke="white" stroke-width="1.5" d="M0,-3.0v7 M-2.5,-0.5L0,-3.0L2.5,-0.5"/>
                </g>
                <g id="arrowDown" xlink:href="#dirArrow" transform="rotate(180) translate(-30 -48)" onmousedown="handlePan(0,1)">
                  <use xlink:href="#rim" fill="#404040">
                        <set attributeName="fill" to="#808080" begin="arrowDown.mouseover" end="arrowDown.mouseout"/>
                  </use>
                  <path fill="none" stroke="white" stroke-width="1.5" d="M0,-3.0v7 M-2.5,-0.5L0,-3.0L2.5,-0.5"/>
                </g>
                <g id="arrowLeft" xlink:href="#dirArrow" transform="rotate(270) translate(-36 17)" onmousedown="handlePan(-1,0)">
                  <use xlink:href="#rim" fill="#404040">
                        <set attributeName="fill" to="#808080" begin="arrowLeft.mouseover" end="arrowLeft.mouseout"/>
                  </use>
                  <path fill="none" stroke="white" stroke-width="1.5" d="M0,-3.0v7 M-2.5,-0.5L0,-3.0L2.5,-0.5"/>
                </g>
        </g>
        <svg viewBox="0 0 15 15" width="100%" height="30px" preserveAspectRatio="xMaxYMin meet">
         <g id="arrow_out" transform="scale(0.3 0.3)">
          <a xlink:href="torccameraoutput_8cpp__incl_org.svg" target="_base">
           <rect id="button" ry="5" rx="5" y="6" x="6" height="38" width="38"
                fill="#f2f5e9" fill-opacity="0.5" stroke="#606060" stroke-width="1.0"/>
           <path id="arrow"
             d="M 11.500037,31.436501 C 11.940474,20.09759 22.043105,11.32322 32.158766,21.979434 L 37.068811,17.246167 C 37.068811,17.246167 37.088388,32 37.088388,32 L 22.160133,31.978069 C 22.160133,31.978069 26.997745,27.140456 26.997745,27.140456 C 18.528582,18.264221 13.291696,25.230495 11.500037,31.436501 z"
             style="fill:#404040;"/>
          </a>
         </g>
        </svg>
</svg>
