<?xml version="1.0" encoding="UTF-8" standalone="no"?>
<!DOCTYPE svg PUBLIC "-//W3C//DTD SVG 1.1//EN"
 "http://www.w3.org/Graphics/SVG/1.1/DTD/svg11.dtd">
<!-- Generated by graphviz version 2.38.0 (20140413.2041)
 -->
<!-- Title: torctemperatureoutput.h Pages: 1 -->
<svg width="408pt" height="140pt"
 viewBox="0.00 0.00 408.00 140.00" xmlns="http://www.w3.org/2000/svg" xmlns:xlink="http://www.w3.org/1999/xlink">
<g id="graph0" class="graph" transform="scale(1 1) rotate(0) translate(4 136)">
<title>torctemperatureoutput.h</title>
<polygon fill="white" stroke="none" points="-4,4 -4,-136 404,-136 404,4 -4,4"/>
<!-- Node1 -->
<g id="node1" class="node"><title>Node1</title>
<polygon fill="#bfbfbf" stroke="black" points="167.5,-112.5 167.5,-131.5 304.5,-131.5 304.5,-112.5 167.5,-112.5"/>
<text text-anchor="middle" x="236" y="-119.5" font-family="Helvetica,sans-Serif" font-size="10.00">torctemperatureoutput.h</text>
</g>
<!-- Node2 -->
<g id="node2" class="node"><title>Node2</title>
<g id="a_node2"><a xlink:href="../../d4/ddc/torcnetworktemperatureoutput_8h.html" target="_top" xlink:title="torcnetworktemperatureoutput.h">
<polygon fill="white" stroke="black" points="60,-56.5 60,-75.5 234,-75.5 234,-56.5 60,-56.5"/>
<text text-anchor="middle" x="147" y="-63.5" font-family="Helvetica,sans-Serif" font-size="10.00">torcnetworktemperatureoutput.h</text>
</a>
</g>
</g>
<!-- Node1&#45;&gt;Node2 -->
<g id="edge1" class="edge"><title>Node1&#45;&gt;Node2</title>
<path fill="none" stroke="midnightblue" d="M212.762,-106.901C196.442,-96.9986 175.135,-84.0705 161.264,-75.6545"/>
<polygon fill="midnightblue" stroke="midnightblue" points="211.336,-110.129 221.701,-112.324 214.967,-104.144 211.336,-110.129"/>
</g>
<!-- Node5 -->
<g id="node5" class="node"><title>Node5</title>
<g id="a_node5"><a xlink:href="../../d1/d03/torctemperatureoutput_8cpp.html" target="_top" xlink:title="torctemperatureoutput.cpp">
<polygon fill="white" stroke="black" points="252,-56.5 252,-75.5 400,-75.5 400,-56.5 252,-56.5"/>
<text text-anchor="middle" x="326" y="-63.5" font-family="Helvetica,sans-Serif" font-size="10.00">torctemperatureoutput.cpp</text>
</a>
</g>
</g>
<!-- Node1&#45;&gt;Node5 -->
<g id="edge4" class="edge"><title>Node1&#45;&gt;Node5</title>
<path fill="none" stroke="midnightblue" d="M259.038,-107.177C275.599,-97.2407 297.418,-84.1492 311.576,-75.6545"/>
<polygon fill="midnightblue" stroke="midnightblue" points="257.234,-104.178 250.46,-112.324 260.836,-110.18 257.234,-104.178"/>
</g>
<!-- Node3 -->
<g id="node3" class="node"><title>Node3</title>
<g id="a_node3"><a xlink:href="../../df/dc7/torcnetworkinputs_8cpp.html" target="_top" xlink:title="torcnetworkinputs.cpp">
<polygon fill="white" stroke="black" points="0,-0.5 0,-19.5 122,-19.5 122,-0.5 0,-0.5"/>
<text text-anchor="middle" x="61" y="-7.5" font-family="Helvetica,sans-Serif" font-size="10.00">torcnetworkinputs.cpp</text>
</a>
</g>
</g>
<!-- Node2&#45;&gt;Node3 -->
<g id="edge2" class="edge"><title>Node2&#45;&gt;Node3</title>
<path fill="none" stroke="midnightblue" d="M124.545,-50.9005C108.776,-40.9986 88.1864,-28.0705 74.7831,-19.6545"/>
<polygon fill="midnightblue" stroke="midnightblue" points="122.852,-53.9704 133.183,-56.324 126.575,-48.0421 122.852,-53.9704"/>
</g>
<!-- Node4 -->
<g id="node4" class="node"><title>Node4</title>
<g id="a_node4"><a xlink:href="../../dc/d8a/torcnetworktemperatureoutput_8cpp.html" target="_top" xlink:title="torcnetworktemperatureoutput.cpp">
<polygon fill="white" stroke="black" points="140.5,-0.5 140.5,-19.5 325.5,-19.5 325.5,-0.5 140.5,-0.5"/>
<text text-anchor="middle" x="233" y="-7.5" font-family="Helvetica,sans-Serif" font-size="10.00">torcnetworktemperatureoutput.cpp</text>
</a>
</g>
</g>
<!-- Node2&#45;&gt;Node4 -->
<g id="edge3" class="edge"><title>Node2&#45;&gt;Node4</title>
<path fill="none" stroke="midnightblue" d="M169.455,-50.9005C185.224,-40.9986 205.814,-28.0705 219.217,-19.6545"/>
<polygon fill="midnightblue" stroke="midnightblue" points="167.425,-48.0421 160.817,-56.324 171.148,-53.9704 167.425,-48.0421"/>
</g>
</g>
</svg>
