<?xml version="1.0" encoding="UTF-8" standalone="no"?>
<!DOCTYPE svg PUBLIC "-//W3C//DTD SVG 1.1//EN"
 "http://www.w3.org/Graphics/SVG/1.1/DTD/svg11.dtd">
<!-- Generated by graphviz version 2.38.0 (20140413.2041)
 -->
<!-- Title: torcupnp.h Pages: 1 -->
<svg width="762pt" height="140pt"
 viewBox="0.00 0.00 762.00 140.00" xmlns="http://www.w3.org/2000/svg" xmlns:xlink="http://www.w3.org/1999/xlink">
<g id="graph0" class="graph" transform="scale(1 1) rotate(0) translate(4 136)">
<title>torcupnp.h</title>
<polygon fill="white" stroke="none" points="-4,4 -4,-136 758,-136 758,4 -4,4"/>
<!-- Node1 -->
<g id="node1" class="node"><title>Node1</title>
<polygon fill="#bfbfbf" stroke="black" points="392,-112.5 392,-131.5 460,-131.5 460,-112.5 392,-112.5"/>
<text text-anchor="middle" x="426" y="-119.5" font-family="Helvetica,sans-Serif" font-size="10.00">torcupnp.h</text>
</g>
<!-- Node2 -->
<g id="node2" class="node"><title>Node2</title>
<g id="a_node2"><a xlink:href="../../da/d1a/torchttpservices_8cpp.html" target="_top" xlink:title="torchttpservices.cpp">
<polygon fill="white" stroke="black" points="0,-56.5 0,-75.5 114,-75.5 114,-56.5 0,-56.5"/>
<text text-anchor="middle" x="57" y="-63.5" font-family="Helvetica,sans-Serif" font-size="10.00">torchttpservices.cpp</text>
</a>
</g>
</g>
<!-- Node1&#45;&gt;Node2 -->
<g id="edge1" class="edge"><title>Node1&#45;&gt;Node2</title>
<path fill="none" stroke="midnightblue" d="M381.749,-114.524C314.894,-104.741 188.129,-86.1896 114.302,-75.3856"/>
<polygon fill="midnightblue" stroke="midnightblue" points="381.545,-118.032 391.947,-116.017 382.559,-111.105 381.545,-118.032"/>
</g>
<!-- Node3 -->
<g id="node3" class="node"><title>Node3</title>
<g id="a_node3"><a xlink:href="../../db/d78/torcwebsocket_8cpp.html" target="_top" xlink:title="torcwebsocket.cpp">
<polygon fill="white" stroke="black" points="132,-56.5 132,-75.5 238,-75.5 238,-56.5 132,-56.5"/>
<text text-anchor="middle" x="185" y="-63.5" font-family="Helvetica,sans-Serif" font-size="10.00">torcwebsocket.cpp</text>
</a>
</g>
</g>
<!-- Node1&#45;&gt;Node3 -->
<g id="edge2" class="edge"><title>Node1&#45;&gt;Node3</title>
<path fill="none" stroke="midnightblue" d="M382.123,-111.169C336.696,-100.99 266.441,-85.2481 223.219,-75.5637"/>
<polygon fill="midnightblue" stroke="midnightblue" points="381.458,-114.606 391.982,-113.378 382.989,-107.776 381.458,-114.606"/>
</g>
<!-- Node4 -->
<g id="node4" class="node"><title>Node4</title>
<g id="a_node4"><a xlink:href="../../de/d48/torcnetworkedcontext_8cpp.html" target="_top" xlink:title="torcnetworkedcontext.cpp">
<polygon fill="white" stroke="black" points="256.5,-56.5 256.5,-75.5 397.5,-75.5 397.5,-56.5 256.5,-56.5"/>
<text text-anchor="middle" x="327" y="-63.5" font-family="Helvetica,sans-Serif" font-size="10.00">torcnetworkedcontext.cpp</text>
</a>
</g>
</g>
<!-- Node1&#45;&gt;Node4 -->
<g id="edge3" class="edge"><title>Node1&#45;&gt;Node4</title>
<path fill="none" stroke="midnightblue" d="M401.163,-107.453C382.886,-97.4835 358.584,-84.2279 342.867,-75.6545"/>
<polygon fill="midnightblue" stroke="midnightblue" points="399.639,-110.608 410.094,-112.324 402.991,-104.463 399.639,-110.608"/>
</g>
<!-- Node5 -->
<g id="node5" class="node"><title>Node5</title>
<g id="a_node5"><a xlink:href="../../d9/de1/torcssdp_8cpp.html" target="_top" xlink:title="torcssdp.cpp">
<polygon fill="white" stroke="black" points="387,-0.5 387,-19.5 465,-19.5 465,-0.5 387,-0.5"/>
<text text-anchor="middle" x="426" y="-7.5" font-family="Helvetica,sans-Serif" font-size="10.00">torcssdp.cpp</text>
</a>
</g>
</g>
<!-- Node1&#45;&gt;Node5 -->
<g id="edge4" class="edge"><title>Node1&#45;&gt;Node5</title>
<path fill="none" stroke="midnightblue" d="M426,-102.348C426,-78.2538 426,-37.3079 426,-19.5914"/>
<polygon fill="midnightblue" stroke="midnightblue" points="422.5,-102.368 426,-112.368 429.5,-102.369 422.5,-102.368"/>
</g>
<!-- Node6 -->
<g id="node6" class="node"><title>Node6</title>
<g id="a_node6"><a xlink:href="../../dd/d3e/torcssdp_8h.html" target="_top" xlink:title="torcssdp.h">
<polygon fill="white" stroke="black" points="454.5,-56.5 454.5,-75.5 521.5,-75.5 521.5,-56.5 454.5,-56.5"/>
<text text-anchor="middle" x="488" y="-63.5" font-family="Helvetica,sans-Serif" font-size="10.00">torcssdp.h</text>
</a>
</g>
</g>
<!-- Node1&#45;&gt;Node6 -->
<g id="edge5" class="edge"><title>Node1&#45;&gt;Node6</title>
<path fill="none" stroke="midnightblue" d="M443.754,-105.537C454.808,-95.9087 468.631,-83.8694 477.857,-75.8339"/>
<polygon fill="midnightblue" stroke="midnightblue" points="441.203,-103.117 435.961,-112.324 445.801,-108.395 441.203,-103.117"/>
</g>
<!-- Node8 -->
<g id="node8" class="node"><title>Node8</title>
<g id="a_node8"><a xlink:href="../../d4/ddf/torcupnp_8cpp.html" target="_top" xlink:title="torcupnp.cpp">
<polygon fill="white" stroke="black" points="540,-56.5 540,-75.5 620,-75.5 620,-56.5 540,-56.5"/>
<text text-anchor="middle" x="580" y="-63.5" font-family="Helvetica,sans-Serif" font-size="10.00">torcupnp.cpp</text>
</a>
</g>
</g>
<!-- Node1&#45;&gt;Node8 -->
<g id="edge8" class="edge"><title>Node1&#45;&gt;Node8</title>
<path fill="none" stroke="midnightblue" d="M460.111,-109.039C489.087,-98.8786 529.962,-84.5457 555.712,-75.5164"/>
<polygon fill="midnightblue" stroke="midnightblue" points="458.68,-105.832 450.402,-112.444 460.997,-112.437 458.68,-105.832"/>
</g>
<!-- Node9 -->
<g id="node9" class="node"><title>Node9</title>
<g id="a_node9"><a xlink:href="../../d9/db2/torcupnpcontent_8cpp.html" target="_top" xlink:title="torcupnpcontent.cpp">
<polygon fill="white" stroke="black" points="638,-56.5 638,-75.5 754,-75.5 754,-56.5 638,-56.5"/>
<text text-anchor="middle" x="696" y="-63.5" font-family="Helvetica,sans-Serif" font-size="10.00">torcupnpcontent.cpp</text>
</a>
</g>
</g>
<!-- Node1&#45;&gt;Node9 -->
<g id="edge9" class="edge"><title>Node1&#45;&gt;Node9</title>
<path fill="none" stroke="midnightblue" d="M470.183,-112.163C520.796,-102.041 603.166,-85.5667 653.194,-75.5611"/>
<polygon fill="midnightblue" stroke="midnightblue" points="469.315,-108.768 460.196,-114.161 470.688,-115.632 469.315,-108.768"/>
</g>
<!-- Node6&#45;&gt;Node5 -->
<g id="edge7" class="edge"><title>Node6&#45;&gt;Node5</title>
<path fill="none" stroke="midnightblue" d="M470.246,-49.5372C459.192,-39.9087 445.369,-27.8694 436.143,-19.8339"/>
<polygon fill="midnightblue" stroke="midnightblue" points="468.199,-52.3954 478.039,-56.324 472.797,-47.1168 468.199,-52.3954"/>
</g>
<!-- Node7 -->
<g id="node7" class="node"><title>Node7</title>
<g id="a_node7"><a xlink:href="../../de/dc5/torchttpserver_8cpp.html" target="_top" xlink:title="torchttpserver.cpp">
<polygon fill="white" stroke="black" points="483,-0.5 483,-19.5 587,-19.5 587,-0.5 483,-0.5"/>
<text text-anchor="middle" x="535" y="-7.5" font-family="Helvetica,sans-Serif" font-size="10.00">torchttpserver.cpp</text>
</a>
</g>
</g>
<!-- Node6&#45;&gt;Node7 -->
<g id="edge6" class="edge"><title>Node6&#45;&gt;Node7</title>
<path fill="none" stroke="midnightblue" d="M502.421,-48.4314C510.658,-38.9673 520.654,-27.4827 527.383,-19.7511"/>
<polygon fill="midnightblue" stroke="midnightblue" points="499.686,-46.2421 495.761,-56.083 504.966,-50.8378 499.686,-46.2421"/>
</g>
</g>
</svg>
