<?xml version="1.0" encoding="UTF-8" standalone="no"?>
<!DOCTYPE svg PUBLIC "-//W3C//DTD SVG 1.1//EN"
 "http://www.w3.org/Graphics/SVG/1.1/DTD/svg11.dtd">
<!-- Generated by graphviz version 2.38.0 (20140413.2041)
 -->
<!-- Title: torcupnp.h Pages: 1 -->
<svg width="506pt" height="140pt"
 viewBox="0.00 0.00 505.50 140.00" xmlns="http://www.w3.org/2000/svg" xmlns:xlink="http://www.w3.org/1999/xlink">
<g id="graph0" class="graph" transform="scale(1 1) rotate(0) translate(4 136)">
<title>torcupnp.h</title>
<polygon fill="white" stroke="none" points="-4,4 -4,-136 501.5,-136 501.5,4 -4,4"/>
<!-- Node1 -->
<g id="node1" class="node"><title>Node1</title>
<polygon fill="#bfbfbf" stroke="black" points="197.5,-112.5 197.5,-131.5 265.5,-131.5 265.5,-112.5 197.5,-112.5"/>
<text text-anchor="middle" x="231.5" y="-119.5" font-family="Helvetica,sans-Serif" font-size="10.00">torcupnp.h</text>
</g>
<!-- Node2 -->
<g id="node2" class="node"><title>Node2</title>
<g id="a_node2"><a xlink:href="../../de/d48/torcnetworkedcontext_8cpp.html" target="_top" xlink:title="torcnetworkedcontext.cpp">
<polygon fill="white" stroke="black" points="0,-56.5 0,-75.5 141,-75.5 141,-56.5 0,-56.5"/>
<text text-anchor="middle" x="70.5" y="-63.5" font-family="Helvetica,sans-Serif" font-size="10.00">torcnetworkedcontext.cpp</text>
</a>
</g>
</g>
<!-- Node1&#45;&gt;Node2 -->
<g id="edge1" class="edge"><title>Node1&#45;&gt;Node2</title>
<path fill="none" stroke="midnightblue" d="M196.235,-109.172C165.919,-99.0039 122.93,-84.5852 95.8916,-75.5164"/>
<polygon fill="midnightblue" stroke="midnightblue" points="195.395,-112.582 205.989,-112.444 197.621,-105.945 195.395,-112.582"/>
</g>
<!-- Node3 -->
<g id="node3" class="node"><title>Node3</title>
<g id="a_node3"><a xlink:href="../../d9/de1/torcssdp_8cpp.html" target="_top" xlink:title="torcssdp.cpp">
<polygon fill="white" stroke="black" points="130.5,-0.5 130.5,-19.5 208.5,-19.5 208.5,-0.5 130.5,-0.5"/>
<text text-anchor="middle" x="169.5" y="-7.5" font-family="Helvetica,sans-Serif" font-size="10.00">torcssdp.cpp</text>
</a>
</g>
</g>
<!-- Node1&#45;&gt;Node3 -->
<g id="edge2" class="edge"><title>Node1&#45;&gt;Node3</title>
<path fill="none" stroke="midnightblue" d="M213.09,-105.54C204.544,-97.5052 194.886,-87.0635 188.5,-76 177.802,-57.4684 172.712,-32.4333 170.663,-19.5084"/>
<polygon fill="midnightblue" stroke="midnightblue" points="211.017,-108.382 220.8,-112.448 215.688,-103.168 211.017,-108.382"/>
</g>
<!-- Node4 -->
<g id="node4" class="node"><title>Node4</title>
<g id="a_node4"><a xlink:href="../../dd/d3e/torcssdp_8h.html" target="_top" xlink:title="torcssdp.h">
<polygon fill="white" stroke="black" points="198,-56.5 198,-75.5 265,-75.5 265,-56.5 198,-56.5"/>
<text text-anchor="middle" x="231.5" y="-63.5" font-family="Helvetica,sans-Serif" font-size="10.00">torcssdp.h</text>
</a>
</g>
</g>
<!-- Node1&#45;&gt;Node4 -->
<g id="edge3" class="edge"><title>Node1&#45;&gt;Node4</title>
<path fill="none" stroke="midnightblue" d="M231.5,-101.805C231.5,-92.9102 231.5,-82.7798 231.5,-75.7511"/>
<polygon fill="midnightblue" stroke="midnightblue" points="228,-102.083 231.5,-112.083 235,-102.083 228,-102.083"/>
</g>
<!-- Node6 -->
<g id="node6" class="node"><title>Node6</title>
<g id="a_node6"><a xlink:href="../../d4/ddf/torcupnp_8cpp.html" target="_top" xlink:title="torcupnp.cpp">
<polygon fill="white" stroke="black" points="283.5,-56.5 283.5,-75.5 363.5,-75.5 363.5,-56.5 283.5,-56.5"/>
<text text-anchor="middle" x="323.5" y="-63.5" font-family="Helvetica,sans-Serif" font-size="10.00">torcupnp.cpp</text>
</a>
</g>
</g>
<!-- Node1&#45;&gt;Node6 -->
<g id="edge6" class="edge"><title>Node1&#45;&gt;Node6</title>
<path fill="none" stroke="midnightblue" d="M255.05,-107.177C271.979,-97.2407 294.283,-84.1492 308.755,-75.6545"/>
<polygon fill="midnightblue" stroke="midnightblue" points="253.134,-104.243 246.281,-112.324 256.677,-110.28 253.134,-104.243"/>
</g>
<!-- Node7 -->
<g id="node7" class="node"><title>Node7</title>
<g id="a_node7"><a xlink:href="../../d9/db2/torcupnpcontent_8cpp.html" target="_top" xlink:title="torcupnpcontent.cpp">
<polygon fill="white" stroke="black" points="381.5,-56.5 381.5,-75.5 497.5,-75.5 497.5,-56.5 381.5,-56.5"/>
<text text-anchor="middle" x="439.5" y="-63.5" font-family="Helvetica,sans-Serif" font-size="10.00">torcupnpcontent.cpp</text>
</a>
</g>
</g>
<!-- Node1&#45;&gt;Node7 -->
<g id="edge7" class="edge"><title>Node1&#45;&gt;Node7</title>
<path fill="none" stroke="midnightblue" d="M274.278,-109.894C313.558,-99.6966 370.929,-84.802 406.696,-75.5164"/>
<polygon fill="midnightblue" stroke="midnightblue" points="273.258,-106.543 264.458,-112.444 275.017,-113.318 273.258,-106.543"/>
</g>
<!-- Node4&#45;&gt;Node3 -->
<g id="edge5" class="edge"><title>Node4&#45;&gt;Node3</title>
<path fill="none" stroke="midnightblue" d="M213.746,-49.5372C202.692,-39.9087 188.869,-27.8694 179.643,-19.8339"/>
<polygon fill="midnightblue" stroke="midnightblue" points="211.699,-52.3954 221.539,-56.324 216.297,-47.1168 211.699,-52.3954"/>
</g>
<!-- Node5 -->
<g id="node5" class="node"><title>Node5</title>
<g id="a_node5"><a xlink:href="../../de/dc5/torchttpserver_8cpp.html" target="_top" xlink:title="torchttpserver.cpp">
<polygon fill="white" stroke="black" points="226.5,-0.5 226.5,-19.5 330.5,-19.5 330.5,-0.5 226.5,-0.5"/>
<text text-anchor="middle" x="278.5" y="-7.5" font-family="Helvetica,sans-Serif" font-size="10.00">torchttpserver.cpp</text>
</a>
</g>
</g>
<!-- Node4&#45;&gt;Node5 -->
<g id="edge4" class="edge"><title>Node4&#45;&gt;Node5</title>
<path fill="none" stroke="midnightblue" d="M245.921,-48.4314C254.158,-38.9673 264.154,-27.4827 270.883,-19.7511"/>
<polygon fill="midnightblue" stroke="midnightblue" points="243.186,-46.2421 239.261,-56.083 248.466,-50.8378 243.186,-46.2421"/>
</g>
</g>
</svg>
