<?xml version="1.0" encoding="UTF-8" standalone="no"?>
<!DOCTYPE svg PUBLIC "-//W3C//DTD SVG 1.1//EN"
 "http://www.w3.org/Graphics/SVG/1.1/DTD/svg11.dtd">
<!-- Generated by graphviz version 2.38.0 (20140413.2041)
 -->
<!-- Title: torcomxcomponent.h Pages: 1 -->
<svg width="438pt" height="140pt"
 viewBox="0.00 0.00 438.00 140.00" xmlns="http://www.w3.org/2000/svg" xmlns:xlink="http://www.w3.org/1999/xlink">
<g id="graph0" class="graph" transform="scale(1 1) rotate(0) translate(4 136)">
<title>torcomxcomponent.h</title>
<polygon fill="white" stroke="none" points="-4,4 -4,-136 434,-136 434,4 -4,4"/>
<!-- Node1 -->
<g id="node1" class="node"><title>Node1</title>
<polygon fill="#bfbfbf" stroke="black" points="161.5,-112.5 161.5,-131.5 281.5,-131.5 281.5,-112.5 161.5,-112.5"/>
<text text-anchor="middle" x="221.5" y="-119.5" font-family="Helvetica,sans-Serif" font-size="10.00">torcomxcomponent.h</text>
</g>
<!-- Node2 -->
<g id="node2" class="node"><title>Node2</title>
<polygon fill="white" stroke="#bfbfbf" points="0,-56.5 0,-75.5 53,-75.5 53,-56.5 0,-56.5"/>
<text text-anchor="middle" x="26.5" y="-63.5" font-family="Helvetica,sans-Serif" font-size="10.00">QMutex</text>
</g>
<!-- Node1&#45;&gt;Node2 -->
<g id="edge1" class="edge"><title>Node1&#45;&gt;Node2</title>
<path fill="none" stroke="midnightblue" d="M190.602,-112.444C155.95,-102.848 99.7996,-87.2984 63.0097,-77.1104"/>
<polygon fill="midnightblue" stroke="midnightblue" points="63.7518,-73.6842 53.1804,-74.3884 61.8836,-80.4303 63.7518,-73.6842"/>
</g>
<!-- Node3 -->
<g id="node3" class="node"><title>Node3</title>
<polygon fill="white" stroke="#bfbfbf" points="71,-56.5 71,-75.5 160,-75.5 160,-56.5 71,-56.5"/>
<text text-anchor="middle" x="115.5" y="-63.5" font-family="Helvetica,sans-Serif" font-size="10.00">QWaitCondition</text>
</g>
<!-- Node1&#45;&gt;Node3 -->
<g id="edge2" class="edge"><title>Node1&#45;&gt;Node3</title>
<path fill="none" stroke="midnightblue" d="M204.469,-112.324C187.47,-103.664 161.124,-90.2424 141.507,-80.249"/>
<polygon fill="midnightblue" stroke="midnightblue" points="142.988,-77.0752 132.488,-75.6545 139.81,-83.3125 142.988,-77.0752"/>
</g>
<!-- Node4 -->
<g id="node4" class="node"><title>Node4</title>
<g id="a_node4"><a xlink:href="../../d7/df9/torcomxcore_8h.html" target="_top" xlink:title="torcomxcore.h">
<polygon fill="white" stroke="black" points="178.5,-56.5 178.5,-75.5 264.5,-75.5 264.5,-56.5 178.5,-56.5"/>
<text text-anchor="middle" x="221.5" y="-63.5" font-family="Helvetica,sans-Serif" font-size="10.00">torcomxcore.h</text>
</a>
</g>
</g>
<!-- Node1&#45;&gt;Node4 -->
<g id="edge3" class="edge"><title>Node1&#45;&gt;Node4</title>
<path fill="none" stroke="midnightblue" d="M221.5,-112.083C221.5,-105.006 221.5,-94.8611 221.5,-85.9865"/>
<polygon fill="midnightblue" stroke="midnightblue" points="225,-85.751 221.5,-75.7511 218,-85.7511 225,-85.751"/>
</g>
<!-- Node7 -->
<g id="node7" class="node"><title>Node7</title>
<polygon fill="white" stroke="#bfbfbf" points="267,-0.5 267,-19.5 342,-19.5 342,-0.5 267,-0.5"/>
<text text-anchor="middle" x="304.5" y="-7.5" font-family="Helvetica,sans-Serif" font-size="10.00">OMX_Core.h</text>
</g>
<!-- Node1&#45;&gt;Node7 -->
<g id="edge7" class="edge"><title>Node1&#45;&gt;Node7</title>
<path fill="none" stroke="midnightblue" d="M234.379,-112.225C245.801,-103.937 262.355,-90.623 273.5,-76 284.383,-61.72 292.812,-43.0064 298.114,-29.3273"/>
<polygon fill="midnightblue" stroke="midnightblue" points="301.519,-30.2107 301.684,-19.6172 294.949,-27.7953 301.519,-30.2107"/>
</g>
<!-- Node8 -->
<g id="node8" class="node"><title>Node8</title>
<polygon fill="white" stroke="#bfbfbf" points="321,-56.5 321,-75.5 430,-75.5 430,-56.5 321,-56.5"/>
<text text-anchor="middle" x="375.5" y="-63.5" font-family="Helvetica,sans-Serif" font-size="10.00">OMX_Component.h</text>
</g>
<!-- Node1&#45;&gt;Node8 -->
<g id="edge8" class="edge"><title>Node1&#45;&gt;Node8</title>
<path fill="none" stroke="midnightblue" d="M245.902,-112.444C271.697,-103.399 312.577,-89.064 341.518,-78.9158"/>
<polygon fill="midnightblue" stroke="midnightblue" points="342.934,-82.1283 351.212,-75.5164 340.618,-75.5226 342.934,-82.1283"/>
</g>
<!-- Node5 -->
<g id="node5" class="node"><title>Node5</title>
<polygon fill="white" stroke="#bfbfbf" points="96.5,-0.5 96.5,-19.5 152.5,-19.5 152.5,-0.5 96.5,-0.5"/>
<text text-anchor="middle" x="124.5" y="-7.5" font-family="Helvetica,sans-Serif" font-size="10.00">QLibrary</text>
</g>
<!-- Node4&#45;&gt;Node5 -->
<g id="edge4" class="edge"><title>Node4&#45;&gt;Node5</title>
<path fill="none" stroke="midnightblue" d="M205.915,-56.324C190.501,-47.7428 166.688,-34.486 148.79,-24.5224"/>
<polygon fill="midnightblue" stroke="midnightblue" points="150.486,-21.4606 140.046,-19.6545 147.081,-27.5767 150.486,-21.4606"/>
</g>
<!-- Node6 -->
<g id="node6" class="node"><title>Node6</title>
<polygon fill="white" stroke="#bfbfbf" points="170,-0.5 170,-19.5 249,-19.5 249,-0.5 170,-0.5"/>
<text text-anchor="middle" x="209.5" y="-7.5" font-family="Helvetica,sans-Serif" font-size="10.00">OMX_Types.h</text>
</g>
<!-- Node4&#45;&gt;Node6 -->
<g id="edge5" class="edge"><title>Node4&#45;&gt;Node6</title>
<path fill="none" stroke="midnightblue" d="M219.518,-56.083C217.928,-48.9272 215.641,-38.6353 213.654,-29.6911"/>
<polygon fill="midnightblue" stroke="midnightblue" points="217.031,-28.7537 211.445,-19.7511 210.197,-30.2722 217.031,-28.7537"/>
</g>
<!-- Node4&#45;&gt;Node7 -->
<g id="edge6" class="edge"><title>Node4&#45;&gt;Node7</title>
<path fill="none" stroke="midnightblue" d="M234.835,-56.324C247.662,-47.979 267.285,-35.2122 282.44,-25.3524"/>
<polygon fill="midnightblue" stroke="midnightblue" points="284.724,-28.0417 291.198,-19.6545 280.907,-22.1742 284.724,-28.0417"/>
</g>
</g>
</svg>
