<?xml version="1.0" encoding="UTF-8" standalone="no"?>
<!DOCTYPE svg PUBLIC "-//W3C//DTD SVG 1.1//EN"
 "http://www.w3.org/Graphics/SVG/1.1/DTD/svg11.dtd">
<!-- Generated by graphviz version 2.38.0 (20140413.2041)
 -->
<!-- Title: TorcInput Pages: 1 -->
<!--zoomable 256 -->
<svg id="main" version="1.1" xmlns="http://www.w3.org/2000/svg" xmlns:xlink="http://www.w3.org/1999/xlink" xml:space="preserve" onload="init(evt)">
<style type="text/css"><![CDATA[
.edge:hover path { stroke: red; }
.edge:hover polygon { stroke: red; fill: red; }
]]></style>
<script type="text/javascript"><![CDATA[
var edges = document.getElementsByTagName('g');
if (edges && edges.length) {
  for (var i=0;i<edges.length;i++) {
    if (edges[i].id.substr(0,4)=='edge') {
      edges[i].setAttribute('class','edge');
    }
  }
}
]]></script>
        <defs>
                <circle id="rim" cx="0" cy="0" r="7"/>
                <circle id="rim2" cx="0" cy="0" r="3.5"/>
                <g id="zoomPlus">
                        <use xlink:href="#rim" fill="#404040">
                                <set attributeName="fill" to="#808080" begin="zoomplus.mouseover" end="zoomplus.mouseout"/>
                        </use>
                        <path d="M-4,0h8M0,-4v8" fill="none" stroke="white" stroke-width="1.5" pointer-events="none"/>
                </g>
                <g id="zoomMin">
                        <use xlink:href="#rim" fill="#404040">
                                <set attributeName="fill" to="#808080" begin="zoomminus.mouseover" end="zoomminus.mouseout"/>
                        </use>
                        <path d="M-4,0h8" fill="none" stroke="white" stroke-width="1.5" pointer-events="none"/>
                </g>
                <g id="dirArrow">
                        <path fill="none" stroke="white" stroke-width="1.5" d="M0,-3.0v7 M-2.5,-0.5L0,-3.0L2.5,-0.5"/>
                </g>
               <g id="resetDef">
                       <use xlink:href="#rim2" fill="#404040">
                               <set attributeName="fill" to="#808080" begin="reset.mouseover" end="reset.mouseout"/>
                       </use>
               </g>
        </defs>

<script type="text/javascript">
var viewWidth = 873;
var viewHeight = 256;
var sectionId = 'dynsection-0';
</script>
<script xlink:href="../../svgpan.js"/>
<svg id="graph" class="graph">
<g id="viewport">
<title>TorcInput</title>
<polygon fill="white" stroke="none" points="-4,4 -4,-252 869,-252 869,4 -4,4"/>
<!-- Node1 -->
<g id="node1" class="node"><title>Node1</title>
<polygon fill="#bfbfbf" stroke="black" points="288,-133.5 288,-152.5 347,-152.5 347,-133.5 288,-133.5"/>
<text text-anchor="middle" x="317.5" y="-140.5" font-family="Helvetica,sans-Serif" font-size="10.00">TorcInput</text>
</g>
<!-- Node7 -->
<g id="node7" class="node"><title>Node7</title>
<g id="a_node7"><a xlink:href="../../d9/d9c/class_torc_integer_input.html" target="_top" xlink:title="TorcIntegerInput">
<polygon fill="white" stroke="black" points="396.5,-228.5 396.5,-247.5 489.5,-247.5 489.5,-228.5 396.5,-228.5"/>
<text text-anchor="middle" x="443" y="-235.5" font-family="Helvetica,sans-Serif" font-size="10.00">TorcIntegerInput</text>
</a>
</g>
</g>
<!-- Node1&#45;&gt;Node7 -->
<g id="edge6" class="edge"><title>Node1&#45;&gt;Node7</title>
<path fill="none" stroke="midnightblue" d="M329.674,-161.276C341.081,-178.485 360.301,-203.824 383,-219 388.725,-222.828 395.276,-225.929 401.88,-228.428"/>
<polygon fill="midnightblue" stroke="midnightblue" points="332.505,-159.206 324.168,-152.667 326.608,-162.978 332.505,-159.206"/>
</g>
<!-- Node9 -->
<g id="node9" class="node"><title>Node9</title>
<g id="a_node9"><a xlink:href="../../db/d20/class_torcp_h_input.html" target="_top" xlink:title="TorcpHInput">
<polygon fill="white" stroke="black" points="406.5,-190.5 406.5,-209.5 479.5,-209.5 479.5,-190.5 406.5,-190.5"/>
<text text-anchor="middle" x="443" y="-197.5" font-family="Helvetica,sans-Serif" font-size="10.00">TorcpHInput</text>
</a>
</g>
</g>
<!-- Node1&#45;&gt;Node9 -->
<g id="edge8" class="edge"><title>Node1&#45;&gt;Node9</title>
<path fill="none" stroke="midnightblue" d="M341.387,-158.16C353.428,-165.699 368.639,-174.553 383,-181 390.854,-184.526 399.561,-187.704 407.82,-190.406"/>
<polygon fill="midnightblue" stroke="midnightblue" points="343.174,-155.149 332.863,-152.713 339.404,-161.047 343.174,-155.149"/>
</g>
<!-- Node11 -->
<g id="node11" class="node"><title>Node11</title>
<g id="a_node11"><a xlink:href="../../d1/d8b/class_torc_p_w_m_input.html" target="_top" xlink:title="TorcPWMInput">
<polygon fill="white" stroke="black" points="402,-152.5 402,-171.5 484,-171.5 484,-152.5 402,-152.5"/>
<text text-anchor="middle" x="443" y="-159.5" font-family="Helvetica,sans-Serif" font-size="10.00">TorcPWMInput</text>
</a>
</g>
</g>
<!-- Node1&#45;&gt;Node11 -->
<g id="edge10" class="edge"><title>Node1&#45;&gt;Node11</title>
<path fill="none" stroke="midnightblue" d="M357.107,-148.94C371.327,-151.127 387.462,-153.61 401.818,-155.818"/>
<polygon fill="midnightblue" stroke="midnightblue" points="357.56,-145.468 347.144,-147.407 356.495,-152.387 357.56,-145.468"/>
</g>
<!-- Node13 -->
<g id="node13" class="node"><title>Node13</title>
<g id="a_node13"><a xlink:href="../../db/dd0/class_torc_switch_input.html" target="_top" xlink:title="TorcSwitchInput">
<polygon fill="white" stroke="black" points="398,-114.5 398,-133.5 488,-133.5 488,-114.5 398,-114.5"/>
<text text-anchor="middle" x="443" y="-121.5" font-family="Helvetica,sans-Serif" font-size="10.00">TorcSwitchInput</text>
</a>
</g>
</g>
<!-- Node1&#45;&gt;Node13 -->
<g id="edge12" class="edge"><title>Node1&#45;&gt;Node13</title>
<path fill="none" stroke="midnightblue" d="M357.053,-137.069C369.891,-135.094 384.296,-132.878 397.545,-130.839"/>
<polygon fill="midnightblue" stroke="midnightblue" points="356.495,-133.613 347.144,-138.593 357.56,-140.532 356.495,-133.613"/>
</g>
<!-- Node17 -->
<g id="node17" class="node"><title>Node17</title>
<g id="a_node17"><a xlink:href="../../d7/df7/class_torc_system_input.html" target="_top" xlink:title="TorcSystemInput">
<polygon fill="white" stroke="black" points="395,-76.5 395,-95.5 491,-95.5 491,-76.5 395,-76.5"/>
<text text-anchor="middle" x="443" y="-83.5" font-family="Helvetica,sans-Serif" font-size="10.00">TorcSystemInput</text>
</a>
</g>
</g>
<!-- Node1&#45;&gt;Node17 -->
<g id="edge16" class="edge"><title>Node1&#45;&gt;Node17</title>
<path fill="none" stroke="midnightblue" d="M341.387,-127.84C353.428,-120.301 368.639,-111.447 383,-105 390.854,-101.474 399.561,-98.2965 407.82,-95.5937"/>
<polygon fill="midnightblue" stroke="midnightblue" points="339.404,-124.953 332.863,-133.287 343.174,-130.851 339.404,-124.953"/>
</g>
<!-- Node18 -->
<g id="node18" class="node"><title>Node18</title>
<g id="a_node18"><a xlink:href="../../de/d14/class_torc_temperature_input.html" target="_top" xlink:title="TorcTemperatureInput">
<polygon fill="white" stroke="black" points="383,-38.5 383,-57.5 503,-57.5 503,-38.5 383,-38.5"/>
<text text-anchor="middle" x="443" y="-45.5" font-family="Helvetica,sans-Serif" font-size="10.00">TorcTemperatureInput</text>
</a>
</g>
</g>
<!-- Node1&#45;&gt;Node18 -->
<g id="edge17" class="edge"><title>Node1&#45;&gt;Node18</title>
<path fill="none" stroke="midnightblue" d="M329.674,-124.724C341.081,-107.515 360.301,-82.1758 383,-67 388.725,-63.1723 395.276,-60.0709 401.88,-57.5719"/>
<polygon fill="midnightblue" stroke="midnightblue" points="326.608,-123.022 324.168,-133.333 332.505,-126.794 326.608,-123.022"/>
</g>
<!-- Node2 -->
<g id="node2" class="node"><title>Node2</title>
<g id="a_node2"><a xlink:href="../../d5/d76/class_torc_device.html" target="_top" xlink:title="TorcDevice">
<polygon fill="white" stroke="black" points="170.5,-152.5 170.5,-171.5 238.5,-171.5 238.5,-152.5 170.5,-152.5"/>
<text text-anchor="middle" x="204.5" y="-159.5" font-family="Helvetica,sans-Serif" font-size="10.00">TorcDevice</text>
</a>
</g>
</g>
<!-- Node2&#45;&gt;Node1 -->
<g id="edge1" class="edge"><title>Node2&#45;&gt;Node1</title>
<path fill="none" stroke="midnightblue" d="M248.388,-154.659C261.643,-152.39 275.912,-149.948 287.947,-147.887"/>
<polygon fill="midnightblue" stroke="midnightblue" points="247.769,-151.214 238.503,-156.351 248.95,-158.113 247.769,-151.214"/>
</g>
<!-- Node3 -->
<g id="node3" class="node"><title>Node3</title>
<polygon fill="white" stroke="#bfbfbf" points="33,-190.5 33,-209.5 88,-209.5 88,-190.5 33,-190.5"/>
<text text-anchor="middle" x="60.5" y="-197.5" font-family="Helvetica,sans-Serif" font-size="10.00">QObject</text>
</g>
<!-- Node3&#45;&gt;Node2 -->
<g id="edge2" class="edge"><title>Node3&#45;&gt;Node2</title>
<path fill="none" stroke="midnightblue" d="M98.0071,-190.23C120.354,-184.25 148.722,-176.659 170.412,-170.855"/>
<polygon fill="midnightblue" stroke="midnightblue" points="96.9644,-186.886 88.2091,-192.852 98.774,-193.648 96.9644,-186.886"/>
</g>
<!-- Node4 -->
<g id="node4" class="node"><title>Node4</title>
<g id="a_node4"><a xlink:href="../../d6/dad/class_torc_reference_counter.html" target="_top" xlink:title="A reference counting implementation. ">
<polygon fill="white" stroke="black" points="0,-152.5 0,-171.5 121,-171.5 121,-152.5 0,-152.5"/>
<text text-anchor="middle" x="60.5" y="-159.5" font-family="Helvetica,sans-Serif" font-size="10.00">TorcReferenceCounter</text>
</a>
</g>
</g>
<!-- Node4&#45;&gt;Node2 -->
<g id="edge3" class="edge"><title>Node4&#45;&gt;Node2</title>
<path fill="none" stroke="midnightblue" d="M131.637,-162C145.195,-162 158.796,-162 170.461,-162"/>
<polygon fill="midnightblue" stroke="midnightblue" points="131.309,-158.5 121.309,-162 131.309,-165.5 131.309,-158.5"/>
</g>
<!-- Node5 -->
<g id="node5" class="node"><title>Node5</title>
<g id="a_node5"><a xlink:href="../../d6/d70/class_torc_h_t_t_p_service.html" target="_top" xlink:title="TorcHTTPService">
<polygon fill="white" stroke="black" points="157,-114.5 157,-133.5 252,-133.5 252,-114.5 157,-114.5"/>
<text text-anchor="middle" x="204.5" y="-121.5" font-family="Helvetica,sans-Serif" font-size="10.00">TorcHTTPService</text>
</a>
</g>
</g>
<!-- Node5&#45;&gt;Node1 -->
<g id="edge4" class="edge"><title>Node5&#45;&gt;Node1</title>
<path fill="none" stroke="midnightblue" d="M262.246,-133.713C271.125,-135.233 279.961,-136.746 287.845,-138.095"/>
<polygon fill="midnightblue" stroke="midnightblue" points="262.699,-130.24 252.252,-132.003 261.518,-137.14 262.699,-130.24"/>
</g>
<!-- Node6 -->
<g id="node6" class="node"><title>Node6</title>
<g id="a_node6"><a xlink:href="../../d5/d15/class_torc_h_t_t_p_handler.html" target="_top" xlink:title="Base HTTP response handler class. ">
<polygon fill="white" stroke="black" points="12,-114.5 12,-133.5 109,-133.5 109,-114.5 12,-114.5"/>
<text text-anchor="middle" x="60.5" y="-121.5" font-family="Helvetica,sans-Serif" font-size="10.00">TorcHTTPHandler</text>
</a>
</g>
</g>
<!-- Node6&#45;&gt;Node5 -->
<g id="edge5" class="edge"><title>Node6&#45;&gt;Node5</title>
<path fill="none" stroke="midnightblue" d="M119.424,-124C131.816,-124 144.759,-124 156.67,-124"/>
<polygon fill="midnightblue" stroke="midnightblue" points="119.179,-120.5 109.179,-124 119.179,-127.5 119.179,-120.5"/>
</g>
<!-- Node8 -->
<g id="node8" class="node"><title>Node8</title>
<g id="a_node8"><a xlink:href="../../d0/d36/class_torc_network_integer_input.html" target="_top" xlink:title="TorcNetworkIntegerInput">
<polygon fill="white" stroke="black" points="552.5,-228.5 552.5,-247.5 684.5,-247.5 684.5,-228.5 552.5,-228.5"/>
<text text-anchor="middle" x="618.5" y="-235.5" font-family="Helvetica,sans-Serif" font-size="10.00">TorcNetworkIntegerInput</text>
</a>
</g>
</g>
<!-- Node7&#45;&gt;Node8 -->
<g id="edge7" class="edge"><title>Node7&#45;&gt;Node8</title>
<path fill="none" stroke="midnightblue" d="M499.756,-238C516.502,-238 535.022,-238 552.32,-238"/>
<polygon fill="midnightblue" stroke="midnightblue" points="499.585,-234.5 489.585,-238 499.585,-241.5 499.585,-234.5"/>
</g>
<!-- Node10 -->
<g id="node10" class="node"><title>Node10</title>
<g id="a_node10"><a xlink:href="../../d5/d8a/class_torc_networkp_h_input.html" target="_top" xlink:title="TorcNetworkpHInput">
<polygon fill="white" stroke="black" points="562.5,-190.5 562.5,-209.5 674.5,-209.5 674.5,-190.5 562.5,-190.5"/>
<text text-anchor="middle" x="618.5" y="-197.5" font-family="Helvetica,sans-Serif" font-size="10.00">TorcNetworkpHInput</text>
</a>
</g>
</g>
<!-- Node9&#45;&gt;Node10 -->
<g id="edge9" class="edge"><title>Node9&#45;&gt;Node10</title>
<path fill="none" stroke="midnightblue" d="M489.705,-200C511.93,-200 538.827,-200 562.201,-200"/>
<polygon fill="midnightblue" stroke="midnightblue" points="489.529,-196.5 479.529,-200 489.529,-203.5 489.529,-196.5"/>
</g>
<!-- Node12 -->
<g id="node12" class="node"><title>Node12</title>
<g id="a_node12"><a xlink:href="../../da/d14/class_torc_network_p_w_m_input.html" target="_top" xlink:title="TorcNetworkPWMInput">
<polygon fill="white" stroke="black" points="558,-152.5 558,-171.5 679,-171.5 679,-152.5 558,-152.5"/>
<text text-anchor="middle" x="618.5" y="-159.5" font-family="Helvetica,sans-Serif" font-size="10.00">TorcNetworkPWMInput</text>
</a>
</g>
</g>
<!-- Node11&#45;&gt;Node12 -->
<g id="edge11" class="edge"><title>Node11&#45;&gt;Node12</title>
<path fill="none" stroke="midnightblue" d="M494.299,-162C514.128,-162 537.064,-162 557.73,-162"/>
<polygon fill="midnightblue" stroke="midnightblue" points="494.241,-158.5 484.24,-162 494.24,-165.5 494.241,-158.5"/>
</g>
<!-- Node14 -->
<g id="node14" class="node"><title>Node14</title>
<g id="a_node14"><a xlink:href="../../df/d5c/class_torc_network_switch_input.html" target="_top" xlink:title="TorcNetworkSwitchInput">
<polygon fill="white" stroke="black" points="554,-114.5 554,-133.5 683,-133.5 683,-114.5 554,-114.5"/>
<text text-anchor="middle" x="618.5" y="-121.5" font-family="Helvetica,sans-Serif" font-size="10.00">TorcNetworkSwitchInput</text>
</a>
</g>
</g>
<!-- Node13&#45;&gt;Node14 -->
<g id="edge13" class="edge"><title>Node13&#45;&gt;Node14</title>
<path fill="none" stroke="midnightblue" d="M498.307,-124C515.874,-124 535.515,-124 553.705,-124"/>
<polygon fill="midnightblue" stroke="midnightblue" points="498.23,-120.5 488.23,-124 498.23,-127.5 498.23,-120.5"/>
</g>
<!-- Node16 -->
<g id="node16" class="node"><title>Node16</title>
<g id="a_node16"><a xlink:href="../../de/d6d/class_torc_pi_switch_input.html" target="_top" xlink:title="TorcPiSwitchInput">
<polygon fill="white" stroke="black" points="569.5,-76.5 569.5,-95.5 667.5,-95.5 667.5,-76.5 569.5,-76.5"/>
<text text-anchor="middle" x="618.5" y="-83.5" font-family="Helvetica,sans-Serif" font-size="10.00">TorcPiSwitchInput</text>
</a>
</g>
</g>
<!-- Node13&#45;&gt;Node16 -->
<g id="edge15" class="edge"><title>Node13&#45;&gt;Node16</title>
<path fill="none" stroke="midnightblue" d="M497.66,-112.247C522.193,-106.874 550.879,-100.591 574.033,-95.5201"/>
<polygon fill="midnightblue" stroke="midnightblue" points="496.801,-108.852 487.781,-114.411 498.299,-115.69 496.801,-108.852"/>
</g>
<!-- Node15 -->
<g id="node15" class="node"><title>Node15</title>
<g id="a_node15"><a xlink:href="../../d7/d4b/class_torc_network_button_input.html" target="_top" xlink:title="A network input that mimics the behaviour of a mechanical push button. ">
<polygon fill="white" stroke="black" points="734,-114.5 734,-133.5 865,-133.5 865,-114.5 734,-114.5"/>
<text text-anchor="middle" x="799.5" y="-121.5" font-family="Helvetica,sans-Serif" font-size="10.00">TorcNetworkButtonInput</text>
</a>
</g>
</g>
<!-- Node14&#45;&gt;Node15 -->
<g id="edge14" class="edge"><title>Node14&#45;&gt;Node15</title>
<path fill="none" stroke="midnightblue" d="M693.293,-124C706.757,-124 720.712,-124 733.885,-124"/>
<polygon fill="midnightblue" stroke="midnightblue" points="693.113,-120.5 683.113,-124 693.113,-127.5 693.113,-120.5"/>
</g>
<!-- Node19 -->
<g id="node19" class="node"><title>Node19</title>
<g id="a_node19"><a xlink:href="../../d5/dd1/class_torc1_wire_d_s18_b20.html" target="_top" xlink:title="Torc1WireDS18B20">
<polygon fill="white" stroke="black" points="565,-38.5 565,-57.5 672,-57.5 672,-38.5 565,-38.5"/>
<text text-anchor="middle" x="618.5" y="-45.5" font-family="Helvetica,sans-Serif" font-size="10.00">Torc1WireDS18B20</text>
</a>
</g>
</g>
<!-- Node18&#45;&gt;Node19 -->
<g id="edge18" class="edge"><title>Node18&#45;&gt;Node19</title>
<path fill="none" stroke="midnightblue" d="M513.235,-48C530.464,-48 548.654,-48 564.933,-48"/>
<polygon fill="midnightblue" stroke="midnightblue" points="513.224,-44.5001 503.224,-48 513.224,-51.5001 513.224,-44.5001"/>
</g>
<!-- Node20 -->
<g id="node20" class="node"><title>Node20</title>
<g id="a_node20"><a xlink:href="../../d9/dc9/class_torc_network_temperature_input.html" target="_top" xlink:title="TorcNetworkTemperatureInput">
<polygon fill="white" stroke="black" points="539,-0.5 539,-19.5 698,-19.5 698,-0.5 539,-0.5"/>
<text text-anchor="middle" x="618.5" y="-7.5" font-family="Helvetica,sans-Serif" font-size="10.00">TorcNetworkTemperatureInput</text>
</a>
</g>
</g>
<!-- Node18&#45;&gt;Node20 -->
<g id="edge19" class="edge"><title>Node18&#45;&gt;Node20</title>
<path fill="none" stroke="midnightblue" d="M497.66,-36.2474C522.193,-30.8742 550.879,-24.5914 574.033,-19.5201"/>
<polygon fill="midnightblue" stroke="midnightblue" points="496.801,-32.8525 487.781,-38.411 498.299,-39.6904 496.801,-32.8525"/>
</g>
</g>
</svg>
        <g id="navigator" transform="translate(0 0)" fill="#404254">
                <rect fill="#f2f5e9" fill-opacity="0.5" stroke="#606060" stroke-width=".5" x="0" y="0" width="60" height="60"/>
                <use id="zoomplus" xlink:href="#zoomPlus" x="17" y="9" onmousedown="handleZoom(evt,'in')"/>
                <use id="zoomminus" xlink:href="#zoomMin" x="42" y="9" onmousedown="handleZoom(evt,'out')"/>
                <use id="reset" xlink:href="#resetDef" x="30" y="36" onmousedown="handleReset()"/>
                <g id="arrowUp" xlink:href="#dirArrow" transform="translate(30 24)" onmousedown="handlePan(0,-1)">
                  <use xlink:href="#rim" fill="#404040">
                        <set attributeName="fill" to="#808080" begin="arrowUp.mouseover" end="arrowUp.mouseout"/>
                  </use>
                  <path fill="none" stroke="white" stroke-width="1.5" d="M0,-3.0v7 M-2.5,-0.5L0,-3.0L2.5,-0.5"/>
                </g>
                <g id="arrowRight" xlink:href="#dirArrow" transform="rotate(90) translate(36 -43)" onmousedown="handlePan(1,0)">
                  <use xlink:href="#rim" fill="#404040">
                        <set attributeName="fill" to="#808080" begin="arrowRight.mouseover" end="arrowRight.mouseout"/>
                  </use>
                  <path fill="none" stroke="white" stroke-width="1.5" d="M0,-3.0v7 M-2.5,-0.5L0,-3.0L2.5,-0.5"/>
                </g>
                <g id="arrowDown" xlink:href="#dirArrow" transform="rotate(180) translate(-30 -48)" onmousedown="handlePan(0,1)">
                  <use xlink:href="#rim" fill="#404040">
                        <set attributeName="fill" to="#808080" begin="arrowDown.mouseover" end="arrowDown.mouseout"/>
                  </use>
                  <path fill="none" stroke="white" stroke-width="1.5" d="M0,-3.0v7 M-2.5,-0.5L0,-3.0L2.5,-0.5"/>
                </g>
                <g id="arrowLeft" xlink:href="#dirArrow" transform="rotate(270) translate(-36 17)" onmousedown="handlePan(-1,0)">
                  <use xlink:href="#rim" fill="#404040">
                        <set attributeName="fill" to="#808080" begin="arrowLeft.mouseover" end="arrowLeft.mouseout"/>
                  </use>
                  <path fill="none" stroke="white" stroke-width="1.5" d="M0,-3.0v7 M-2.5,-0.5L0,-3.0L2.5,-0.5"/>
                </g>
        </g>
        <svg viewBox="0 0 15 15" width="100%" height="30px" preserveAspectRatio="xMaxYMin meet">
         <g id="arrow_out" transform="scale(0.3 0.3)">
          <a xlink:href="class_torc_input__inherit__graph_org.svg" target="_base">
           <rect id="button" ry="5" rx="5" y="6" x="6" height="38" width="38"
                fill="#f2f5e9" fill-opacity="0.5" stroke="#606060" stroke-width="1.0"/>
           <path id="arrow"
             d="M 11.500037,31.436501 C 11.940474,20.09759 22.043105,11.32322 32.158766,21.979434 L 37.068811,17.246167 C 37.068811,17.246167 37.088388,32 37.088388,32 L 22.160133,31.978069 C 22.160133,31.978069 26.997745,27.140456 26.997745,27.140456 C 18.528582,18.264221 13.291696,25.230495 11.500037,31.436501 z"
             style="fill:#404040;"/>
          </a>
         </g>
        </svg>
</svg>
