<?xml version="1.0" encoding="UTF-8" standalone="no"?>
<!DOCTYPE svg PUBLIC "-//W3C//DTD SVG 1.1//EN"
 "http://www.w3.org/Graphics/SVG/1.1/DTD/svg11.dtd">
<!-- Generated by graphviz version 2.38.0 (20140413.2041)
 -->
<!-- Title: torcpipwmoutput.cpp Pages: 1 -->
<svg width="1424pt" height="532pt"
 viewBox="0.00 0.00 1424.00 532.00" xmlns="http://www.w3.org/2000/svg" xmlns:xlink="http://www.w3.org/1999/xlink">
<g id="graph0" class="graph" transform="scale(1 1) rotate(0) translate(4 528)">
<title>torcpipwmoutput.cpp</title>
<polygon fill="white" stroke="none" points="-4,4 -4,-528 1420,-528 1420,4 -4,4"/>
<!-- Node1 -->
<g id="node1" class="node"><title>Node1</title>
<polygon fill="#bfbfbf" stroke="black" points="779.5,-504.5 779.5,-523.5 897.5,-523.5 897.5,-504.5 779.5,-504.5"/>
<text text-anchor="middle" x="838.5" y="-511.5" font-family="Helvetica,sans-Serif" font-size="10.00">torcpipwmoutput.cpp</text>
</g>
<!-- Node2 -->
<g id="node2" class="node"><title>Node2</title>
<g id="a_node2"><a xlink:href="../../d4/df9/torclogging_8h.html" target="_top" xlink:title="torclogging.h">
<polygon fill="white" stroke="black" points="104,-448.5 104,-467.5 183,-467.5 183,-448.5 104,-448.5"/>
<text text-anchor="middle" x="143.5" y="-455.5" font-family="Helvetica,sans-Serif" font-size="10.00">torclogging.h</text>
</a>
</g>
</g>
<!-- Node1&#45;&gt;Node2 -->
<g id="edge1" class="edge"><title>Node1&#45;&gt;Node2</title>
<path fill="none" stroke="midnightblue" d="M779.245,-508.396C644.665,-497.939 317.989,-472.557 193.14,-462.857"/>
<polygon fill="midnightblue" stroke="midnightblue" points="193.339,-459.362 183.098,-462.077 192.797,-466.341 193.339,-459.362"/>
</g>
<!-- Node6 -->
<g id="node6" class="node"><title>Node6</title>
<g id="a_node6"><a xlink:href="../../d4/de1/torcpigpio_8h.html" target="_top" xlink:title="torcpigpio.h">
<polygon fill="white" stroke="black" points="708,-448.5 708,-467.5 781,-467.5 781,-448.5 708,-448.5"/>
<text text-anchor="middle" x="744.5" y="-455.5" font-family="Helvetica,sans-Serif" font-size="10.00">torcpigpio.h</text>
</a>
</g>
</g>
<!-- Node1&#45;&gt;Node6 -->
<g id="edge5" class="edge"><title>Node1&#45;&gt;Node6</title>
<path fill="none" stroke="midnightblue" d="M823.397,-504.324C808.597,-495.822 785.806,-482.729 768.518,-472.797"/>
<polygon fill="midnightblue" stroke="midnightblue" points="769.98,-469.601 759.565,-467.655 766.493,-475.671 769.98,-469.601"/>
</g>
<!-- Node33 -->
<g id="node33" class="node"><title>Node33</title>
<g id="a_node33"><a xlink:href="../../d6/d3c/torcpipwmoutput_8h.html" target="_top" xlink:title="torcpipwmoutput.h">
<polygon fill="white" stroke="black" points="971,-392.5 971,-411.5 1078,-411.5 1078,-392.5 971,-392.5"/>
<text text-anchor="middle" x="1024.5" y="-399.5" font-family="Helvetica,sans-Serif" font-size="10.00">torcpipwmoutput.h</text>
</a>
</g>
</g>
<!-- Node1&#45;&gt;Node33 -->
<g id="edge63" class="edge"><title>Node1&#45;&gt;Node33</title>
<path fill="none" stroke="midnightblue" d="M833.668,-504.36C826.809,-490.807 816.45,-464.404 829.5,-448 837.976,-437.345 909.176,-422.868 963.113,-413.243"/>
<polygon fill="midnightblue" stroke="midnightblue" points="963.725,-416.69 972.964,-411.505 962.508,-409.796 963.725,-416.69"/>
</g>
<!-- Node41 -->
<g id="node41" class="node"><title>Node41</title>
<polygon fill="white" stroke="#bfbfbf" points="838,-448.5 838,-467.5 899,-467.5 899,-448.5 838,-448.5"/>
<text text-anchor="middle" x="868.5" y="-455.5" font-family="Helvetica,sans-Serif" font-size="10.00">wiringPi.h</text>
</g>
<!-- Node1&#45;&gt;Node41 -->
<g id="edge64" class="edge"><title>Node1&#45;&gt;Node41</title>
<path fill="none" stroke="midnightblue" d="M843.454,-504.083C847.604,-496.613 853.653,-485.724 858.767,-476.52"/>
<polygon fill="midnightblue" stroke="midnightblue" points="861.841,-478.192 863.638,-467.751 855.722,-474.793 861.841,-478.192"/>
</g>
<!-- Node42 -->
<g id="node42" class="node"><title>Node42</title>
<polygon fill="white" stroke="#bfbfbf" points="917.5,-448.5 917.5,-467.5 983.5,-467.5 983.5,-448.5 917.5,-448.5"/>
<text text-anchor="middle" x="950.5" y="-455.5" font-family="Helvetica,sans-Serif" font-size="10.00">softPwm.h</text>
</g>
<!-- Node1&#45;&gt;Node42 -->
<g id="edge65" class="edge"><title>Node1&#45;&gt;Node42</title>
<path fill="none" stroke="midnightblue" d="M856.495,-504.324C874.538,-495.625 902.547,-482.12 923.303,-472.113"/>
<polygon fill="midnightblue" stroke="midnightblue" points="925.062,-475.15 932.55,-467.655 922.022,-468.845 925.062,-475.15"/>
</g>
<!-- Node43 -->
<g id="node43" class="node"><title>Node43</title>
<polygon fill="white" stroke="#bfbfbf" points="1002,-448.5 1002,-467.5 1053,-467.5 1053,-448.5 1002,-448.5"/>
<text text-anchor="middle" x="1027.5" y="-455.5" font-family="Helvetica,sans-Serif" font-size="10.00">math.h</text>
</g>
<!-- Node1&#45;&gt;Node43 -->
<g id="edge66" class="edge"><title>Node1&#45;&gt;Node43</title>
<path fill="none" stroke="midnightblue" d="M868.448,-504.444C901.984,-494.862 956.298,-479.344 991.958,-469.155"/>
<polygon fill="midnightblue" stroke="midnightblue" points="993.282,-472.417 1001.94,-466.304 991.359,-465.686 993.282,-472.417"/>
</g>
<!-- Node3 -->
<g id="node3" class="node"><title>Node3</title>
<polygon fill="white" stroke="#bfbfbf" points="0,-392.5 0,-411.5 53,-411.5 53,-392.5 0,-392.5"/>
<text text-anchor="middle" x="26.5" y="-399.5" font-family="Helvetica,sans-Serif" font-size="10.00">stdint.h</text>
</g>
<!-- Node2&#45;&gt;Node3 -->
<g id="edge2" class="edge"><title>Node2&#45;&gt;Node3</title>
<path fill="none" stroke="midnightblue" d="M124.961,-448.444C105.877,-439.636 75.9251,-425.812 54.0643,-415.722"/>
<polygon fill="midnightblue" stroke="midnightblue" points="55.4986,-412.529 44.9523,-411.516 52.5651,-418.885 55.4986,-412.529"/>
</g>
<!-- Node4 -->
<g id="node4" class="node"><title>Node4</title>
<polygon fill="white" stroke="#bfbfbf" points="71,-392.5 71,-411.5 122,-411.5 122,-392.5 71,-392.5"/>
<text text-anchor="middle" x="96.5" y="-399.5" font-family="Helvetica,sans-Serif" font-size="10.00">errno.h</text>
</g>
<!-- Node2&#45;&gt;Node4 -->
<g id="edge3" class="edge"><title>Node2&#45;&gt;Node4</title>
<path fill="none" stroke="midnightblue" d="M135.739,-448.083C128.963,-440.298 118.957,-428.801 110.745,-419.367"/>
<polygon fill="midnightblue" stroke="midnightblue" points="113.322,-416.996 104.117,-411.751 108.042,-421.592 113.322,-416.996"/>
</g>
<!-- Node5 -->
<g id="node5" class="node"><title>Node5</title>
<g id="a_node5"><a xlink:href="../../d1/d37/torcloggingdefs_8h.html" target="_top" xlink:title="torcloggingdefs.h">
<polygon fill="white" stroke="black" points="140,-392.5 140,-411.5 239,-411.5 239,-392.5 140,-392.5"/>
<text text-anchor="middle" x="189.5" y="-399.5" font-family="Helvetica,sans-Serif" font-size="10.00">torcloggingdefs.h</text>
</a>
</g>
</g>
<!-- Node2&#45;&gt;Node5 -->
<g id="edge4" class="edge"><title>Node2&#45;&gt;Node5</title>
<path fill="none" stroke="midnightblue" d="M151.096,-448.083C157.727,-440.298 167.521,-428.801 175.558,-419.367"/>
<polygon fill="midnightblue" stroke="midnightblue" points="178.225,-421.633 182.045,-411.751 172.896,-417.094 178.225,-421.633"/>
</g>
<!-- Node7 -->
<g id="node7" class="node"><title>Node7</title>
<polygon fill="white" stroke="#bfbfbf" points="245.5,-56.5 245.5,-75.5 289.5,-75.5 289.5,-56.5 245.5,-56.5"/>
<text text-anchor="middle" x="267.5" y="-63.5" font-family="Helvetica,sans-Serif" font-size="10.00">QMap</text>
</g>
<!-- Node6&#45;&gt;Node7 -->
<g id="edge6" class="edge"><title>Node6&#45;&gt;Node7</title>
<path fill="none" stroke="midnightblue" d="M707.863,-456.373C596.167,-453.48 267.5,-437.298 267.5,-347 267.5,-347 267.5,-347 267.5,-177 267.5,-144.948 267.5,-107.643 267.5,-85.7489"/>
<polygon fill="midnightblue" stroke="midnightblue" points="271,-85.5577 267.5,-75.5578 264,-85.5578 271,-85.5577"/>
</g>
<!-- Node8 -->
<g id="node8" class="node"><title>Node8</title>
<polygon fill="white" stroke="#bfbfbf" points="840,-112.5 840,-131.5 893,-131.5 893,-112.5 840,-112.5"/>
<text text-anchor="middle" x="866.5" y="-119.5" font-family="Helvetica,sans-Serif" font-size="10.00">QMutex</text>
</g>
<!-- Node6&#45;&gt;Node8 -->
<g id="edge7" class="edge"><title>Node6&#45;&gt;Node8</title>
<path fill="none" stroke="midnightblue" d="M707.821,-456.664C639.474,-453.898 499.5,-437.22 499.5,-347 499.5,-347 499.5,-347 499.5,-233 499.5,-198.115 513.889,-186.444 543.5,-168 590.622,-138.649 755.09,-127.859 829.47,-124.417"/>
<polygon fill="midnightblue" stroke="midnightblue" points="829.93,-127.9 839.765,-123.961 829.62,-120.907 829.93,-127.9"/>
</g>
<!-- Node9 -->
<g id="node9" class="node"><title>Node9</title>
<g id="a_node9"><a xlink:href="../../d5/d41/torccentral_8h.html" target="_top" xlink:title="torccentral.h">
<polygon fill="white" stroke="black" points="859,-280.5 859,-299.5 936,-299.5 936,-280.5 859,-280.5"/>
<text text-anchor="middle" x="897.5" y="-287.5" font-family="Helvetica,sans-Serif" font-size="10.00">torccentral.h</text>
</a>
</g>
</g>
<!-- Node6&#45;&gt;Node9 -->
<g id="edge8" class="edge"><title>Node6&#45;&gt;Node9</title>
<path fill="none" stroke="midnightblue" d="M750.291,-448.197C764.211,-427.384 801.242,-374.038 839.5,-336 850.625,-324.939 864.461,-314.111 875.829,-305.849"/>
<polygon fill="midnightblue" stroke="midnightblue" points="878.193,-308.463 884.318,-299.818 874.139,-302.757 878.193,-308.463"/>
</g>
<!-- Node30 -->
<g id="node30" class="node"><title>Node30</title>
<g id="a_node30"><a xlink:href="../../d9/dc5/torcpiswitchoutput_8h.html" target="_top" xlink:title="torcpiswitchoutput.h">
<polygon fill="white" stroke="black" points="840,-392.5 840,-411.5 953,-411.5 953,-392.5 840,-392.5"/>
<text text-anchor="middle" x="896.5" y="-399.5" font-family="Helvetica,sans-Serif" font-size="10.00">torcpiswitchoutput.h</text>
</a>
</g>
</g>
<!-- Node6&#45;&gt;Node30 -->
<g id="edge42" class="edge"><title>Node6&#45;&gt;Node30</title>
<path fill="none" stroke="midnightblue" d="M768.585,-448.444C794.045,-439.399 834.394,-425.064 862.959,-414.916"/>
<polygon fill="midnightblue" stroke="midnightblue" points="864.277,-418.162 872.528,-411.516 861.933,-411.566 864.277,-418.162"/>
</g>
<!-- Node6&#45;&gt;Node33 -->
<g id="edge50" class="edge"><title>Node6&#45;&gt;Node33</title>
<path fill="none" stroke="midnightblue" d="M781.105,-449.94C829.25,-440.655 914.255,-424.262 969.982,-413.514"/>
<polygon fill="midnightblue" stroke="midnightblue" points="970.875,-416.906 980.032,-411.576 969.55,-410.033 970.875,-416.906"/>
</g>
<!-- Node35 -->
<g id="node35" class="node"><title>Node35</title>
<g id="a_node35"><a xlink:href="../../d6/d66/torcpiswitchinput_8h.html" target="_top" xlink:title="torcpiswitchinput.h">
<polygon fill="white" stroke="black" points="625.5,-392.5 625.5,-411.5 731.5,-411.5 731.5,-392.5 625.5,-392.5"/>
<text text-anchor="middle" x="678.5" y="-399.5" font-family="Helvetica,sans-Serif" font-size="10.00">torcpiswitchinput.h</text>
</a>
</g>
</g>
<!-- Node6&#45;&gt;Node35 -->
<g id="edge53" class="edge"><title>Node6&#45;&gt;Node35</title>
<path fill="none" stroke="midnightblue" d="M733.896,-448.324C724.044,-440.263 709.149,-428.077 697.285,-418.369"/>
<polygon fill="midnightblue" stroke="midnightblue" points="699.253,-415.457 689.297,-411.834 694.82,-420.875 699.253,-415.457"/>
</g>
<!-- Node9&#45;&gt;Node8 -->
<g id="edge9" class="edge"><title>Node9&#45;&gt;Node8</title>
<path fill="none" stroke="midnightblue" d="M895.833,-280.075C890.954,-253.945 876.624,-177.211 869.969,-141.577"/>
<polygon fill="midnightblue" stroke="midnightblue" points="873.376,-140.756 868.1,-131.568 866.495,-142.041 873.376,-140.756"/>
</g>
<!-- Node10 -->
<g id="node10" class="node"><title>Node10</title>
<polygon fill="white" stroke="#bfbfbf" points="1175,-168.5 1175,-187.5 1230,-187.5 1230,-168.5 1175,-168.5"/>
<text text-anchor="middle" x="1202.5" y="-175.5" font-family="Helvetica,sans-Serif" font-size="10.00">QObject</text>
</g>
<!-- Node9&#45;&gt;Node10 -->
<g id="edge10" class="edge"><title>Node9&#45;&gt;Node10</title>
<path fill="none" stroke="midnightblue" d="M936.109,-281.535C972.055,-274.012 1026.81,-261.078 1072.5,-244 1111.06,-229.587 1153.28,-207.143 1178.82,-192.76"/>
<polygon fill="midnightblue" stroke="midnightblue" points="1180.8,-195.664 1187.76,-187.675 1177.33,-189.581 1180.8,-195.664"/>
</g>
<!-- Node11 -->
<g id="node11" class="node"><title>Node11</title>
<polygon fill="white" stroke="#bfbfbf" points="1202.5,-112.5 1202.5,-131.5 1260.5,-131.5 1260.5,-112.5 1202.5,-112.5"/>
<text text-anchor="middle" x="1231.5" y="-119.5" font-family="Helvetica,sans-Serif" font-size="10.00">QVariant</text>
</g>
<!-- Node9&#45;&gt;Node11 -->
<g id="edge11" class="edge"><title>Node9&#45;&gt;Node11</title>
<path fill="none" stroke="midnightblue" d="M936.077,-283.809C1018.2,-271.843 1205.61,-239.346 1239.5,-188 1248.58,-174.238 1244.81,-155.207 1239.83,-141.294"/>
<polygon fill="midnightblue" stroke="midnightblue" points="1242.99,-139.77 1235.98,-131.825 1236.5,-142.406 1242.99,-139.77"/>
</g>
<!-- Node12 -->
<g id="node12" class="node"><title>Node12</title>
<g id="a_node12"><a xlink:href="../../d1/df7/torcdevice_8h.html" target="_top" xlink:title="torcdevice.h">
<polygon fill="white" stroke="black" points="988,-224.5 988,-243.5 1063,-243.5 1063,-224.5 988,-224.5"/>
<text text-anchor="middle" x="1025.5" y="-231.5" font-family="Helvetica,sans-Serif" font-size="10.00">torcdevice.h</text>
</a>
</g>
</g>
<!-- Node9&#45;&gt;Node12 -->
<g id="edge12" class="edge"><title>Node9&#45;&gt;Node12</title>
<path fill="none" stroke="midnightblue" d="M917.782,-280.444C938.847,-271.557 972.017,-257.563 995.986,-247.451"/>
<polygon fill="midnightblue" stroke="midnightblue" points="997.46,-250.628 1005.31,-243.516 994.739,-244.179 997.46,-250.628"/>
</g>
<!-- Node19 -->
<g id="node19" class="node"><title>Node19</title>
<g id="a_node19"><a xlink:href="../../d3/dee/torchttpservice_8h.html" target="_top" xlink:title="http/torchttpservice.h">
<polygon fill="white" stroke="black" points="663.5,-224.5 663.5,-243.5 783.5,-243.5 783.5,-224.5 663.5,-224.5"/>
<text text-anchor="middle" x="723.5" y="-231.5" font-family="Helvetica,sans-Serif" font-size="10.00">http/torchttpservice.h</text>
</a>
</g>
</g>
<!-- Node9&#45;&gt;Node19 -->
<g id="edge24" class="edge"><title>Node9&#45;&gt;Node19</title>
<path fill="none" stroke="midnightblue" d="M869.929,-280.444C840.403,-271.28 793.382,-256.688 760.617,-246.519"/>
<polygon fill="midnightblue" stroke="midnightblue" points="761.53,-243.138 750.942,-243.516 759.455,-249.823 761.53,-243.138"/>
</g>
<!-- Node12&#45;&gt;Node8 -->
<g id="edge14" class="edge"><title>Node12&#45;&gt;Node8</title>
<path fill="none" stroke="midnightblue" d="M1013.02,-224.368C985.855,-205.573 921.092,-160.768 887.507,-137.533"/>
<polygon fill="midnightblue" stroke="midnightblue" points="889.134,-134.403 878.919,-131.591 885.151,-140.159 889.134,-134.403"/>
</g>
<!-- Node12&#45;&gt;Node10 -->
<g id="edge16" class="edge"><title>Node12&#45;&gt;Node10</title>
<path fill="none" stroke="midnightblue" d="M1053.55,-224.444C1083.67,-215.253 1131.69,-200.602 1165.04,-190.43"/>
<polygon fill="midnightblue" stroke="midnightblue" points="1166.33,-193.693 1174.88,-187.428 1164.29,-186.998 1166.33,-193.693"/>
</g>
<!-- Node13 -->
<g id="node13" class="node"><title>Node13</title>
<polygon fill="white" stroke="#bfbfbf" points="1057,-112.5 1057,-131.5 1106,-131.5 1106,-112.5 1057,-112.5"/>
<text text-anchor="middle" x="1081.5" y="-119.5" font-family="Helvetica,sans-Serif" font-size="10.00">QHash</text>
</g>
<!-- Node12&#45;&gt;Node13 -->
<g id="edge13" class="edge"><title>Node12&#45;&gt;Node13</title>
<path fill="none" stroke="midnightblue" d="M1046.98,-224.36C1061.89,-217.09 1080.61,-205.117 1089.5,-188 1097.03,-173.509 1093.59,-154.821 1089.12,-141.206"/>
<polygon fill="midnightblue" stroke="midnightblue" points="1092.29,-139.689 1085.51,-131.55 1085.74,-142.143 1092.29,-139.689"/>
</g>
<!-- Node14 -->
<g id="node14" class="node"><title>Node14</title>
<polygon fill="white" stroke="#bfbfbf" points="569,-56.5 569,-75.5 622,-75.5 622,-56.5 569,-56.5"/>
<text text-anchor="middle" x="595.5" y="-63.5" font-family="Helvetica,sans-Serif" font-size="10.00">QString</text>
</g>
<!-- Node12&#45;&gt;Node14 -->
<g id="edge15" class="edge"><title>Node12&#45;&gt;Node14</title>
<path fill="none" stroke="midnightblue" d="M1053.09,-224.407C1070.84,-217.435 1092.86,-205.799 1105.5,-188 1125.23,-160.224 1138.53,-137.107 1115.5,-112 1082.94,-76.4998 745.7,-68.9271 632.396,-67.3803"/>
<polygon fill="midnightblue" stroke="midnightblue" points="632.193,-63.8775 622.148,-67.2487 632.103,-70.8769 632.193,-63.8775"/>
</g>
<!-- Node15 -->
<g id="node15" class="node"><title>Node15</title>
<g id="a_node15"><a xlink:href="../../d8/dfe/torcreferencecounted_8h.html" target="_top" xlink:title="torcreferencecounted.h">
<polygon fill="white" stroke="black" points="1287,-168.5 1287,-187.5 1416,-187.5 1416,-168.5 1287,-168.5"/>
<text text-anchor="middle" x="1351.5" y="-175.5" font-family="Helvetica,sans-Serif" font-size="10.00">torcreferencecounted.h</text>
</a>
</g>
</g>
<!-- Node12&#45;&gt;Node15 -->
<g id="edge17" class="edge"><title>Node12&#45;&gt;Node15</title>
<path fill="none" stroke="midnightblue" d="M1063.21,-226.753C1118.77,-217.55 1223.23,-200.247 1289.98,-189.19"/>
<polygon fill="midnightblue" stroke="midnightblue" points="1290.66,-192.626 1299.95,-187.539 1289.51,-185.72 1290.66,-192.626"/>
</g>
<!-- Node17 -->
<g id="node17" class="node"><title>Node17</title>
<g id="a_node17"><a xlink:href="../../d2/d5b/torcdevicehandler_8h.html" target="_top" xlink:title="torcdevicehandler.h">
<polygon fill="white" stroke="black" points="970.5,-168.5 970.5,-187.5 1080.5,-187.5 1080.5,-168.5 970.5,-168.5"/>
<text text-anchor="middle" x="1025.5" y="-175.5" font-family="Helvetica,sans-Serif" font-size="10.00">torcdevicehandler.h</text>
</a>
</g>
</g>
<!-- Node12&#45;&gt;Node17 -->
<g id="edge19" class="edge"><title>Node12&#45;&gt;Node17</title>
<path fill="none" stroke="midnightblue" d="M1025.5,-224.083C1025.5,-217.006 1025.5,-206.861 1025.5,-197.986"/>
<polygon fill="midnightblue" stroke="midnightblue" points="1029,-197.751 1025.5,-187.751 1022,-197.751 1029,-197.751"/>
</g>
<!-- Node16 -->
<g id="node16" class="node"><title>Node16</title>
<polygon fill="white" stroke="#bfbfbf" points="1316.5,-112.5 1316.5,-131.5 1386.5,-131.5 1386.5,-112.5 1316.5,-112.5"/>
<text text-anchor="middle" x="1351.5" y="-119.5" font-family="Helvetica,sans-Serif" font-size="10.00">QAtomicInt</text>
</g>
<!-- Node15&#45;&gt;Node16 -->
<g id="edge18" class="edge"><title>Node15&#45;&gt;Node16</title>
<path fill="none" stroke="midnightblue" d="M1351.5,-168.083C1351.5,-161.006 1351.5,-150.861 1351.5,-141.986"/>
<polygon fill="midnightblue" stroke="midnightblue" points="1355,-141.751 1351.5,-131.751 1348,-141.751 1355,-141.751"/>
</g>
<!-- Node17&#45;&gt;Node8 -->
<g id="edge21" class="edge"><title>Node17&#45;&gt;Node8</title>
<path fill="none" stroke="midnightblue" d="M1000.31,-168.444C973.557,-159.359 931.097,-144.939 901.195,-134.783"/>
<polygon fill="midnightblue" stroke="midnightblue" points="902.171,-131.418 891.576,-131.516 899.919,-138.046 902.171,-131.418"/>
</g>
<!-- Node17&#45;&gt;Node11 -->
<g id="edge23" class="edge"><title>Node17&#45;&gt;Node11</title>
<path fill="none" stroke="midnightblue" d="M1058.14,-168.444C1094.59,-158.889 1153.56,-143.431 1192.43,-133.241"/>
<polygon fill="midnightblue" stroke="midnightblue" points="1193.56,-136.565 1202.34,-130.643 1191.78,-129.793 1193.56,-136.565"/>
</g>
<!-- Node17&#45;&gt;Node13 -->
<g id="edge20" class="edge"><title>Node17&#45;&gt;Node13</title>
<path fill="none" stroke="midnightblue" d="M1034.5,-168.324C1042.69,-160.42 1055.01,-148.548 1064.97,-138.938"/>
<polygon fill="midnightblue" stroke="midnightblue" points="1067.57,-141.295 1072.34,-131.834 1062.71,-136.256 1067.57,-141.295"/>
</g>
<!-- Node18 -->
<g id="node18" class="node"><title>Node18</title>
<polygon fill="white" stroke="#bfbfbf" points="923.5,-112.5 923.5,-131.5 1015.5,-131.5 1015.5,-112.5 923.5,-112.5"/>
<text text-anchor="middle" x="969.5" y="-119.5" font-family="Helvetica,sans-Serif" font-size="10.00">QReadWriteLock</text>
</g>
<!-- Node17&#45;&gt;Node18 -->
<g id="edge22" class="edge"><title>Node17&#45;&gt;Node18</title>
<path fill="none" stroke="midnightblue" d="M1016.5,-168.324C1008.31,-160.42 995.994,-148.548 986.028,-138.938"/>
<polygon fill="midnightblue" stroke="midnightblue" points="988.289,-136.256 978.661,-131.834 983.43,-141.295 988.289,-136.256"/>
</g>
<!-- Node19&#45;&gt;Node7 -->
<g id="edge25" class="edge"><title>Node19&#45;&gt;Node7</title>
<path fill="none" stroke="midnightblue" d="M663.184,-231.511C572.043,-228.295 404.446,-218.328 353.5,-188 313.031,-163.909 286.516,-112.555 274.655,-85.1364"/>
<polygon fill="midnightblue" stroke="midnightblue" points="277.767,-83.5032 270.708,-75.6026 271.299,-86.181 277.767,-83.5032"/>
</g>
<!-- Node19&#45;&gt;Node8 -->
<g id="edge26" class="edge"><title>Node19&#45;&gt;Node8</title>
<path fill="none" stroke="midnightblue" d="M734.721,-224.368C759.051,-205.653 816.904,-161.151 847.218,-137.832"/>
<polygon fill="midnightblue" stroke="midnightblue" points="849.539,-140.463 855.331,-131.591 845.271,-134.914 849.539,-140.463"/>
</g>
<!-- Node19&#45;&gt;Node18 -->
<g id="edge27" class="edge"><title>Node19&#45;&gt;Node18</title>
<path fill="none" stroke="midnightblue" d="M742.803,-224.368C785.915,-205.091 890.213,-158.454 940.898,-135.789"/>
<polygon fill="midnightblue" stroke="midnightblue" points="942.586,-138.869 950.286,-131.591 939.729,-132.478 942.586,-138.869"/>
</g>
<!-- Node20 -->
<g id="node20" class="node"><title>Node20</title>
<polygon fill="white" stroke="#bfbfbf" points="566,-168.5 566,-187.5 645,-187.5 645,-168.5 566,-168.5"/>
<text text-anchor="middle" x="605.5" y="-175.5" font-family="Helvetica,sans-Serif" font-size="10.00">QMetaObject</text>
</g>
<!-- Node19&#45;&gt;Node20 -->
<g id="edge28" class="edge"><title>Node19&#45;&gt;Node20</title>
<path fill="none" stroke="midnightblue" d="M704.803,-224.444C685.556,-215.636 655.348,-201.812 633.3,-191.722"/>
<polygon fill="midnightblue" stroke="midnightblue" points="634.66,-188.495 624.11,-187.516 631.747,-194.86 634.66,-188.495"/>
</g>
<!-- Node21 -->
<g id="node21" class="node"><title>Node21</title>
<polygon fill="white" stroke="#bfbfbf" points="663,-168.5 663,-187.5 762,-187.5 762,-168.5 663,-168.5"/>
<text text-anchor="middle" x="712.5" y="-175.5" font-family="Helvetica,sans-Serif" font-size="10.00">QCoreApplication</text>
</g>
<!-- Node19&#45;&gt;Node21 -->
<g id="edge29" class="edge"><title>Node19&#45;&gt;Node21</title>
<path fill="none" stroke="midnightblue" d="M721.684,-224.083C720.226,-216.927 718.129,-206.635 716.307,-197.691"/>
<polygon fill="midnightblue" stroke="midnightblue" points="719.708,-196.851 714.283,-187.751 712.849,-198.248 719.708,-196.851"/>
</g>
<!-- Node22 -->
<g id="node22" class="node"><title>Node22</title>
<g id="a_node22"><a xlink:href="../../d4/d11/torchttphandler_8h.html" target="_top" xlink:title="torchttphandler.h">
<polygon fill="white" stroke="black" points="372,-168.5 372,-187.5 471,-187.5 471,-168.5 372,-168.5"/>
<text text-anchor="middle" x="421.5" y="-175.5" font-family="Helvetica,sans-Serif" font-size="10.00">torchttphandler.h</text>
</a>
</g>
</g>
<!-- Node19&#45;&gt;Node22 -->
<g id="edge30" class="edge"><title>Node19&#45;&gt;Node22</title>
<path fill="none" stroke="midnightblue" d="M675.647,-224.444C622.301,-214.905 536.055,-199.483 479.064,-189.293"/>
<polygon fill="midnightblue" stroke="midnightblue" points="479.589,-185.831 469.129,-187.516 478.357,-192.722 479.589,-185.831"/>
</g>
<!-- Node24 -->
<g id="node24" class="node"><title>Node24</title>
<g id="a_node24"><a xlink:href="../../df/dd7/torchttprequest_8h.html" target="_top" xlink:title="torchttprequest.h">
<polygon fill="white" stroke="black" points="343,-112.5 343,-131.5 444,-131.5 444,-112.5 343,-112.5"/>
<text text-anchor="middle" x="393.5" y="-119.5" font-family="Helvetica,sans-Serif" font-size="10.00">torchttprequest.h</text>
</a>
</g>
</g>
<!-- Node19&#45;&gt;Node24 -->
<g id="edge41" class="edge"><title>Node19&#45;&gt;Node24</title>
<path fill="none" stroke="midnightblue" d="M663.22,-229.778C565.66,-223.942 382.045,-210.132 362.5,-188 349.909,-173.742 363.233,-153.474 376.116,-139.375"/>
<polygon fill="midnightblue" stroke="midnightblue" points="378.959,-141.474 383.451,-131.878 373.956,-136.578 378.959,-141.474"/>
</g>
<!-- Node22&#45;&gt;Node14 -->
<g id="edge31" class="edge"><title>Node22&#45;&gt;Node14</title>
<path fill="none" stroke="midnightblue" d="M466.237,-168.433C492.432,-161.763 525.057,-150.447 549.5,-132 565.997,-119.55 578.914,-99.4736 586.806,-84.9243"/>
<polygon fill="midnightblue" stroke="midnightblue" points="589.988,-86.3899 591.449,-75.8963 583.763,-83.1884 589.988,-86.3899"/>
</g>
<!-- Node23 -->
<g id="node23" class="node"><title>Node23</title>
<polygon fill="white" stroke="#bfbfbf" points="462.5,-112.5 462.5,-131.5 540.5,-131.5 540.5,-112.5 462.5,-112.5"/>
<text text-anchor="middle" x="501.5" y="-119.5" font-family="Helvetica,sans-Serif" font-size="10.00">QVariantMap</text>
</g>
<!-- Node22&#45;&gt;Node23 -->
<g id="edge32" class="edge"><title>Node22&#45;&gt;Node23</title>
<path fill="none" stroke="midnightblue" d="M434.353,-168.324C446.716,-159.979 465.63,-147.212 480.237,-137.352"/>
<polygon fill="midnightblue" stroke="midnightblue" points="482.348,-140.15 488.679,-131.655 478.432,-134.348 482.348,-140.15"/>
</g>
<!-- Node22&#45;&gt;Node24 -->
<g id="edge33" class="edge"><title>Node22&#45;&gt;Node24</title>
<path fill="none" stroke="midnightblue" d="M416.876,-168.083C413.044,-160.691 407.476,-149.953 402.735,-140.811"/>
<polygon fill="midnightblue" stroke="midnightblue" points="405.748,-139.018 398.038,-131.751 399.534,-142.24 405.748,-139.018"/>
</g>
<!-- Node24&#45;&gt;Node7 -->
<g id="edge34" class="edge"><title>Node24&#45;&gt;Node7</title>
<path fill="none" stroke="midnightblue" d="M373.535,-112.444C352.891,-103.596 320.437,-89.6875 296.868,-79.5865"/>
<polygon fill="midnightblue" stroke="midnightblue" points="297.942,-76.2387 287.372,-75.5164 295.184,-82.6727 297.942,-76.2387"/>
</g>
<!-- Node24&#45;&gt;Node14 -->
<g id="edge36" class="edge"><title>Node24&#45;&gt;Node14</title>
<path fill="none" stroke="midnightblue" d="M425.508,-112.444C461.863,-102.725 521.063,-86.8991 559.134,-76.7216"/>
<polygon fill="midnightblue" stroke="midnightblue" points="560.046,-80.1007 568.803,-74.1368 558.238,-73.3382 560.046,-80.1007"/>
</g>
<!-- Node25 -->
<g id="node25" class="node"><title>Node25</title>
<polygon fill="white" stroke="#bfbfbf" points="510,-56.5 510,-75.5 551,-75.5 551,-56.5 510,-56.5"/>
<text text-anchor="middle" x="530.5" y="-63.5" font-family="Helvetica,sans-Serif" font-size="10.00">QPair</text>
</g>
<!-- Node24&#45;&gt;Node25 -->
<g id="edge35" class="edge"><title>Node24&#45;&gt;Node25</title>
<path fill="none" stroke="midnightblue" d="M415.208,-112.444C438.121,-103.412 474.414,-89.1067 500.154,-78.9612"/>
<polygon fill="midnightblue" stroke="midnightblue" points="501.77,-82.0862 509.79,-75.1629 499.203,-75.5738 501.77,-82.0862"/>
</g>
<!-- Node26 -->
<g id="node26" class="node"><title>Node26</title>
<polygon fill="white" stroke="#bfbfbf" points="308,-56.5 308,-75.5 379,-75.5 379,-56.5 308,-56.5"/>
<text text-anchor="middle" x="343.5" y="-63.5" font-family="Helvetica,sans-Serif" font-size="10.00">QDateTime</text>
</g>
<!-- Node24&#45;&gt;Node26 -->
<g id="edge37" class="edge"><title>Node24&#45;&gt;Node26</title>
<path fill="none" stroke="midnightblue" d="M385.244,-112.083C378.035,-104.298 367.39,-92.8015 358.654,-83.3665"/>
<polygon fill="midnightblue" stroke="midnightblue" points="360.965,-80.7108 351.603,-75.7511 355.829,-85.4666 360.965,-80.7108"/>
</g>
<!-- Node27 -->
<g id="node27" class="node"><title>Node27</title>
<g id="a_node27"><a xlink:href="../../de/de6/torchttpreader_8h.html" target="_top" xlink:title="torchttpreader.h">
<polygon fill="white" stroke="black" points="397,-56.5 397,-75.5 492,-75.5 492,-56.5 397,-56.5"/>
<text text-anchor="middle" x="444.5" y="-63.5" font-family="Helvetica,sans-Serif" font-size="10.00">torchttpreader.h</text>
</a>
</g>
</g>
<!-- Node24&#45;&gt;Node27 -->
<g id="edge38" class="edge"><title>Node24&#45;&gt;Node27</title>
<path fill="none" stroke="midnightblue" d="M401.922,-112.083C409.348,-104.22 420.352,-92.5688 429.312,-83.0813"/>
<polygon fill="midnightblue" stroke="midnightblue" points="431.913,-85.4244 436.235,-75.7511 426.824,-80.618 431.913,-85.4244"/>
</g>
<!-- Node28 -->
<g id="node28" class="node"><title>Node28</title>
<polygon fill="white" stroke="#bfbfbf" points="364,-0.5 364,-19.5 435,-19.5 435,-0.5 364,-0.5"/>
<text text-anchor="middle" x="399.5" y="-7.5" font-family="Helvetica,sans-Serif" font-size="10.00">QByteArray</text>
</g>
<!-- Node27&#45;&gt;Node28 -->
<g id="edge39" class="edge"><title>Node27&#45;&gt;Node28</title>
<path fill="none" stroke="midnightblue" d="M437.069,-56.083C430.647,-48.3768 421.194,-37.0333 413.378,-27.6531"/>
<polygon fill="midnightblue" stroke="midnightblue" points="415.883,-25.1927 406.793,-19.7511 410.506,-29.674 415.883,-25.1927"/>
</g>
<!-- Node29 -->
<g id="node29" class="node"><title>Node29</title>
<polygon fill="white" stroke="#bfbfbf" points="453.5,-0.5 453.5,-19.5 525.5,-19.5 525.5,-0.5 453.5,-0.5"/>
<text text-anchor="middle" x="489.5" y="-7.5" font-family="Helvetica,sans-Serif" font-size="10.00">QTcpSocket</text>
</g>
<!-- Node27&#45;&gt;Node29 -->
<g id="edge40" class="edge"><title>Node27&#45;&gt;Node29</title>
<path fill="none" stroke="midnightblue" d="M451.931,-56.083C458.353,-48.3768 467.806,-37.0333 475.622,-27.6531"/>
<polygon fill="midnightblue" stroke="midnightblue" points="478.494,-29.674 482.207,-19.7511 473.117,-25.1927 478.494,-29.674"/>
</g>
<!-- Node31 -->
<g id="node31" class="node"><title>Node31</title>
<g id="a_node31"><a xlink:href="../../db/d9e/torcswitchoutput_8h.html" target="_top" xlink:title="torcswitchoutput.h">
<polygon fill="white" stroke="black" points="848,-336.5 848,-355.5 953,-355.5 953,-336.5 848,-336.5"/>
<text text-anchor="middle" x="900.5" y="-343.5" font-family="Helvetica,sans-Serif" font-size="10.00">torcswitchoutput.h</text>
</a>
</g>
</g>
<!-- Node30&#45;&gt;Node31 -->
<g id="edge43" class="edge"><title>Node30&#45;&gt;Node31</title>
<path fill="none" stroke="midnightblue" d="M897.161,-392.083C897.685,-385.006 898.436,-374.861 899.094,-365.986"/>
<polygon fill="midnightblue" stroke="midnightblue" points="902.603,-365.982 899.852,-355.751 895.623,-365.465 902.603,-365.982"/>
</g>
<!-- Node32 -->
<g id="node32" class="node"><title>Node32</title>
<g id="a_node32"><a xlink:href="../../dc/d01/torcoutput_8h.html" target="_top" xlink:title="torcoutput.h">
<polygon fill="white" stroke="black" points="986.5,-280.5 986.5,-299.5 1062.5,-299.5 1062.5,-280.5 986.5,-280.5"/>
<text text-anchor="middle" x="1024.5" y="-287.5" font-family="Helvetica,sans-Serif" font-size="10.00">torcoutput.h</text>
</a>
</g>
</g>
<!-- Node31&#45;&gt;Node32 -->
<g id="edge44" class="edge"><title>Node31&#45;&gt;Node32</title>
<path fill="none" stroke="midnightblue" d="M920.148,-336.444C940.465,-327.596 972.403,-313.687 995.598,-303.586"/>
<polygon fill="midnightblue" stroke="midnightblue" points="997.173,-306.718 1004.94,-299.516 994.378,-300.3 997.173,-306.718"/>
</g>
<!-- Node32&#45;&gt;Node8 -->
<g id="edge45" class="edge"><title>Node32&#45;&gt;Node8</title>
<path fill="none" stroke="midnightblue" d="M1015.78,-280.46C1006.65,-271.472 991.938,-256.871 979.5,-244 943.743,-207 902.738,-162.579 881.31,-139.208"/>
<polygon fill="midnightblue" stroke="midnightblue" points="883.681,-136.615 874.347,-131.603 878.518,-141.342 883.681,-136.615"/>
</g>
<!-- Node32&#45;&gt;Node10 -->
<g id="edge46" class="edge"><title>Node32&#45;&gt;Node10</title>
<path fill="none" stroke="midnightblue" d="M1062.69,-283.671C1092.18,-277.962 1132.69,-266.488 1161.5,-244 1177.07,-231.846 1188.35,-212.008 1195.09,-197.44"/>
<polygon fill="midnightblue" stroke="midnightblue" points="1198.43,-198.516 1199.19,-187.948 1192.01,-195.739 1198.43,-198.516"/>
</g>
<!-- Node32&#45;&gt;Node12 -->
<g id="edge49" class="edge"><title>Node32&#45;&gt;Node12</title>
<path fill="none" stroke="midnightblue" d="M1024.67,-280.083C1024.8,-273.006 1024.98,-262.861 1025.15,-253.986"/>
<polygon fill="midnightblue" stroke="midnightblue" points="1028.65,-253.814 1025.34,-243.751 1021.65,-253.685 1028.65,-253.814"/>
</g>
<!-- Node32&#45;&gt;Node15 -->
<g id="edge47" class="edge"><title>Node32&#45;&gt;Node15</title>
<path fill="none" stroke="midnightblue" d="M1058.5,-280.461C1091.09,-272.036 1141.53,-258.366 1184.5,-244 1233.3,-227.683 1288.75,-205.319 1321.89,-191.532"/>
<polygon fill="midnightblue" stroke="midnightblue" points="1323.55,-194.632 1331.42,-187.545 1320.85,-188.174 1323.55,-194.632"/>
</g>
<!-- Node32&#45;&gt;Node19 -->
<g id="edge48" class="edge"><title>Node32&#45;&gt;Node19</title>
<path fill="none" stroke="midnightblue" d="M986.378,-282.161C934.562,-272.865 841.454,-256.161 781.095,-245.333"/>
<polygon fill="midnightblue" stroke="midnightblue" points="781.423,-241.836 770.962,-243.515 780.187,-248.726 781.423,-241.836"/>
</g>
<!-- Node34 -->
<g id="node34" class="node"><title>Node34</title>
<g id="a_node34"><a xlink:href="../../df/d6c/torcpwmoutput_8h.html" target="_top" xlink:title="torcpwmoutput.h">
<polygon fill="white" stroke="black" points="975.5,-336.5 975.5,-355.5 1073.5,-355.5 1073.5,-336.5 975.5,-336.5"/>
<text text-anchor="middle" x="1024.5" y="-343.5" font-family="Helvetica,sans-Serif" font-size="10.00">torcpwmoutput.h</text>
</a>
</g>
</g>
<!-- Node33&#45;&gt;Node34 -->
<g id="edge51" class="edge"><title>Node33&#45;&gt;Node34</title>
<path fill="none" stroke="midnightblue" d="M1024.5,-392.083C1024.5,-385.006 1024.5,-374.861 1024.5,-365.986"/>
<polygon fill="midnightblue" stroke="midnightblue" points="1028,-365.751 1024.5,-355.751 1021,-365.751 1028,-365.751"/>
</g>
<!-- Node34&#45;&gt;Node32 -->
<g id="edge52" class="edge"><title>Node34&#45;&gt;Node32</title>
<path fill="none" stroke="midnightblue" d="M1024.5,-336.083C1024.5,-329.006 1024.5,-318.861 1024.5,-309.986"/>
<polygon fill="midnightblue" stroke="midnightblue" points="1028,-309.751 1024.5,-299.751 1021,-309.751 1028,-309.751"/>
</g>
<!-- Node36 -->
<g id="node36" class="node"><title>Node36</title>
<polygon fill="white" stroke="#bfbfbf" points="528,-336.5 528,-355.5 567,-355.5 567,-336.5 528,-336.5"/>
<text text-anchor="middle" x="547.5" y="-343.5" font-family="Helvetica,sans-Serif" font-size="10.00">QFile</text>
</g>
<!-- Node35&#45;&gt;Node36 -->
<g id="edge54" class="edge"><title>Node35&#45;&gt;Node36</title>
<path fill="none" stroke="midnightblue" d="M657.743,-392.444C635.93,-383.452 601.436,-369.233 576.844,-359.096"/>
<polygon fill="midnightblue" stroke="midnightblue" points="577.882,-355.738 567.303,-355.163 575.214,-362.21 577.882,-355.738"/>
</g>
<!-- Node37 -->
<g id="node37" class="node"><title>Node37</title>
<g id="a_node37"><a xlink:href="../../dd/db0/torcqthread_8h.html" target="_top" xlink:title="torcqthread.h">
<polygon fill="white" stroke="black" points="585.5,-336.5 585.5,-355.5 667.5,-355.5 667.5,-336.5 585.5,-336.5"/>
<text text-anchor="middle" x="626.5" y="-343.5" font-family="Helvetica,sans-Serif" font-size="10.00">torcqthread.h</text>
</a>
</g>
</g>
<!-- Node35&#45;&gt;Node37 -->
<g id="edge55" class="edge"><title>Node35&#45;&gt;Node37</title>
<path fill="none" stroke="midnightblue" d="M669.913,-392.083C662.341,-384.22 651.122,-372.569 641.986,-363.081"/>
<polygon fill="midnightblue" stroke="midnightblue" points="644.385,-360.527 634.927,-355.751 639.342,-365.382 644.385,-360.527"/>
</g>
<!-- Node39 -->
<g id="node39" class="node"><title>Node39</title>
<g id="a_node39"><a xlink:href="../../d9/d2a/torcswitchinput_8h.html" target="_top" xlink:title="torcswitchinput.h">
<polygon fill="white" stroke="black" points="685.5,-336.5 685.5,-355.5 783.5,-355.5 783.5,-336.5 685.5,-336.5"/>
<text text-anchor="middle" x="734.5" y="-343.5" font-family="Helvetica,sans-Serif" font-size="10.00">torcswitchinput.h</text>
</a>
</g>
</g>
<!-- Node35&#45;&gt;Node39 -->
<g id="edge57" class="edge"><title>Node35&#45;&gt;Node39</title>
<path fill="none" stroke="midnightblue" d="M687.497,-392.324C695.694,-384.42 708.006,-372.548 717.972,-362.938"/>
<polygon fill="midnightblue" stroke="midnightblue" points="720.57,-365.295 725.339,-355.834 715.711,-360.256 720.57,-365.295"/>
</g>
<!-- Node38 -->
<g id="node38" class="node"><title>Node38</title>
<polygon fill="white" stroke="#bfbfbf" points="598,-280.5 598,-299.5 655,-299.5 655,-280.5 598,-280.5"/>
<text text-anchor="middle" x="626.5" y="-287.5" font-family="Helvetica,sans-Serif" font-size="10.00">QThread</text>
</g>
<!-- Node37&#45;&gt;Node38 -->
<g id="edge56" class="edge"><title>Node37&#45;&gt;Node38</title>
<path fill="none" stroke="midnightblue" d="M626.5,-336.083C626.5,-329.006 626.5,-318.861 626.5,-309.986"/>
<polygon fill="midnightblue" stroke="midnightblue" points="630,-309.751 626.5,-299.751 623,-309.751 630,-309.751"/>
</g>
<!-- Node40 -->
<g id="node40" class="node"><title>Node40</title>
<g id="a_node40"><a xlink:href="../../dd/d69/torcinput_8h.html" target="_top" xlink:title="torcinput.h">
<polygon fill="white" stroke="black" points="700.5,-280.5 700.5,-299.5 768.5,-299.5 768.5,-280.5 700.5,-280.5"/>
<text text-anchor="middle" x="734.5" y="-287.5" font-family="Helvetica,sans-Serif" font-size="10.00">torcinput.h</text>
</a>
</g>
</g>
<!-- Node39&#45;&gt;Node40 -->
<g id="edge58" class="edge"><title>Node39&#45;&gt;Node40</title>
<path fill="none" stroke="midnightblue" d="M734.5,-336.083C734.5,-329.006 734.5,-318.861 734.5,-309.986"/>
<polygon fill="midnightblue" stroke="midnightblue" points="738,-309.751 734.5,-299.751 731,-309.751 738,-309.751"/>
</g>
<!-- Node40&#45;&gt;Node8 -->
<g id="edge59" class="edge"><title>Node40&#45;&gt;Node8</title>
<path fill="none" stroke="midnightblue" d="M700.07,-280.757C636.266,-263.943 510.26,-222.618 557.5,-168 592.316,-127.747 755.492,-122.769 829.653,-122.634"/>
<polygon fill="midnightblue" stroke="midnightblue" points="829.918,-126.135 839.922,-122.646 829.927,-119.135 829.918,-126.135"/>
</g>
<!-- Node40&#45;&gt;Node10 -->
<g id="edge60" class="edge"><title>Node40&#45;&gt;Node10</title>
<path fill="none" stroke="midnightblue" d="M764.528,-280.408C810.577,-267.374 901.504,-242.199 979.5,-224 1044.31,-208.879 1120.41,-194.169 1164.86,-185.879"/>
<polygon fill="midnightblue" stroke="midnightblue" points="1165.73,-189.278 1174.92,-184.012 1164.45,-182.396 1165.73,-189.278"/>
</g>
<!-- Node40&#45;&gt;Node12 -->
<g id="edge62" class="edge"><title>Node40&#45;&gt;Node12</title>
<path fill="none" stroke="midnightblue" d="M768.737,-282.647C820.469,-273.047 918.747,-254.81 977.569,-243.894"/>
<polygon fill="midnightblue" stroke="midnightblue" points="978.525,-247.277 987.719,-242.011 977.248,-240.394 978.525,-247.277"/>
</g>
<!-- Node40&#45;&gt;Node19 -->
<g id="edge61" class="edge"><title>Node40&#45;&gt;Node19</title>
<path fill="none" stroke="midnightblue" d="M732.684,-280.083C731.226,-272.927 729.129,-262.635 727.307,-253.691"/>
<polygon fill="midnightblue" stroke="midnightblue" points="730.708,-252.851 725.283,-243.751 723.849,-254.248 730.708,-252.851"/>
</g>
</g>
</svg>
