<?xml version="1.0" encoding="UTF-8" standalone="no"?>
<!DOCTYPE svg PUBLIC "-//W3C//DTD SVG 1.1//EN"
 "http://www.w3.org/Graphics/SVG/1.1/DTD/svg11.dtd">
<!-- Generated by graphviz version 2.38.0 (20140413.2041)
 -->
<!-- Title: torcpipwmoutput.cpp Pages: 1 -->
<svg width="1398pt" height="532pt"
 viewBox="0.00 0.00 1397.50 532.00" xmlns="http://www.w3.org/2000/svg" xmlns:xlink="http://www.w3.org/1999/xlink">
<g id="graph0" class="graph" transform="scale(1 1) rotate(0) translate(4 528)">
<title>torcpipwmoutput.cpp</title>
<polygon fill="white" stroke="none" points="-4,4 -4,-528 1393.5,-528 1393.5,4 -4,4"/>
<!-- Node1 -->
<g id="node1" class="node"><title>Node1</title>
<polygon fill="#bfbfbf" stroke="black" points="443.5,-504.5 443.5,-523.5 561.5,-523.5 561.5,-504.5 443.5,-504.5"/>
<text text-anchor="middle" x="502.5" y="-511.5" font-family="Helvetica,sans-Serif" font-size="10.00">torcpipwmoutput.cpp</text>
</g>
<!-- Node2 -->
<g id="node2" class="node"><title>Node2</title>
<g id="a_node2"><a xlink:href="../../d4/df9/torclogging_8h.html" target="_top" xlink:title="torclogging.h">
<polygon fill="white" stroke="black" points="104,-448.5 104,-467.5 183,-467.5 183,-448.5 104,-448.5"/>
<text text-anchor="middle" x="143.5" y="-455.5" font-family="Helvetica,sans-Serif" font-size="10.00">torclogging.h</text>
</a>
</g>
</g>
<!-- Node1&#45;&gt;Node2 -->
<g id="edge1" class="edge"><title>Node1&#45;&gt;Node2</title>
<path fill="none" stroke="midnightblue" d="M445.615,-504.444C376.083,-493.985 259.531,-476.453 193.359,-466.5"/>
<polygon fill="midnightblue" stroke="midnightblue" points="193.596,-462.996 183.186,-464.97 192.555,-469.918 193.596,-462.996"/>
</g>
<!-- Node6 -->
<g id="node6" class="node"><title>Node6</title>
<g id="a_node6"><a xlink:href="../../d4/de1/torcpigpio_8h.html" target="_top" xlink:title="torcpigpio.h">
<polygon fill="white" stroke="black" points="466,-448.5 466,-467.5 539,-467.5 539,-448.5 466,-448.5"/>
<text text-anchor="middle" x="502.5" y="-455.5" font-family="Helvetica,sans-Serif" font-size="10.00">torcpigpio.h</text>
</a>
</g>
</g>
<!-- Node1&#45;&gt;Node6 -->
<g id="edge5" class="edge"><title>Node1&#45;&gt;Node6</title>
<path fill="none" stroke="midnightblue" d="M502.5,-504.083C502.5,-497.006 502.5,-486.861 502.5,-477.986"/>
<polygon fill="midnightblue" stroke="midnightblue" points="506,-477.751 502.5,-467.751 499,-477.751 506,-477.751"/>
</g>
<!-- Node32 -->
<g id="node32" class="node"><title>Node32</title>
<g id="a_node32"><a xlink:href="../../d6/d3c/torcpipwmoutput_8h.html" target="_top" xlink:title="torcpipwmoutput.h">
<polygon fill="white" stroke="black" points="337,-392.5 337,-411.5 444,-411.5 444,-392.5 337,-392.5"/>
<text text-anchor="middle" x="390.5" y="-399.5" font-family="Helvetica,sans-Serif" font-size="10.00">torcpipwmoutput.h</text>
</a>
</g>
</g>
<!-- Node1&#45;&gt;Node32 -->
<g id="edge61" class="edge"><title>Node1&#45;&gt;Node32</title>
<path fill="none" stroke="midnightblue" d="M493.712,-504.368C474.901,-485.894 430.507,-442.293 406.53,-418.744"/>
<polygon fill="midnightblue" stroke="midnightblue" points="408.835,-416.101 399.248,-411.591 403.93,-421.096 408.835,-416.101"/>
</g>
<!-- Node40 -->
<g id="node40" class="node"><title>Node40</title>
<polygon fill="white" stroke="#bfbfbf" points="557,-448.5 557,-467.5 618,-467.5 618,-448.5 557,-448.5"/>
<text text-anchor="middle" x="587.5" y="-455.5" font-family="Helvetica,sans-Serif" font-size="10.00">wiringPi.h</text>
</g>
<!-- Node1&#45;&gt;Node40 -->
<g id="edge62" class="edge"><title>Node1&#45;&gt;Node40</title>
<path fill="none" stroke="midnightblue" d="M516.157,-504.324C529.416,-495.9 549.768,-482.971 565.346,-473.074"/>
<polygon fill="midnightblue" stroke="midnightblue" points="567.313,-475.971 573.877,-467.655 563.56,-470.063 567.313,-475.971"/>
</g>
<!-- Node41 -->
<g id="node41" class="node"><title>Node41</title>
<polygon fill="white" stroke="#bfbfbf" points="636.5,-448.5 636.5,-467.5 702.5,-467.5 702.5,-448.5 636.5,-448.5"/>
<text text-anchor="middle" x="669.5" y="-455.5" font-family="Helvetica,sans-Serif" font-size="10.00">softPwm.h</text>
</g>
<!-- Node1&#45;&gt;Node41 -->
<g id="edge63" class="edge"><title>Node1&#45;&gt;Node41</title>
<path fill="none" stroke="midnightblue" d="M528.962,-504.444C557.178,-495.32 602.04,-480.813 633.468,-470.651"/>
<polygon fill="midnightblue" stroke="midnightblue" points="634.724,-473.923 643.162,-467.516 632.57,-467.263 634.724,-473.923"/>
</g>
<!-- Node3 -->
<g id="node3" class="node"><title>Node3</title>
<polygon fill="white" stroke="#bfbfbf" points="0,-392.5 0,-411.5 53,-411.5 53,-392.5 0,-392.5"/>
<text text-anchor="middle" x="26.5" y="-399.5" font-family="Helvetica,sans-Serif" font-size="10.00">stdint.h</text>
</g>
<!-- Node2&#45;&gt;Node3 -->
<g id="edge2" class="edge"><title>Node2&#45;&gt;Node3</title>
<path fill="none" stroke="midnightblue" d="M124.961,-448.444C105.877,-439.636 75.9251,-425.812 54.0643,-415.722"/>
<polygon fill="midnightblue" stroke="midnightblue" points="55.4986,-412.529 44.9523,-411.516 52.5651,-418.885 55.4986,-412.529"/>
</g>
<!-- Node4 -->
<g id="node4" class="node"><title>Node4</title>
<polygon fill="white" stroke="#bfbfbf" points="71,-392.5 71,-411.5 122,-411.5 122,-392.5 71,-392.5"/>
<text text-anchor="middle" x="96.5" y="-399.5" font-family="Helvetica,sans-Serif" font-size="10.00">errno.h</text>
</g>
<!-- Node2&#45;&gt;Node4 -->
<g id="edge3" class="edge"><title>Node2&#45;&gt;Node4</title>
<path fill="none" stroke="midnightblue" d="M135.739,-448.083C128.963,-440.298 118.957,-428.801 110.745,-419.367"/>
<polygon fill="midnightblue" stroke="midnightblue" points="113.322,-416.996 104.117,-411.751 108.042,-421.592 113.322,-416.996"/>
</g>
<!-- Node5 -->
<g id="node5" class="node"><title>Node5</title>
<g id="a_node5"><a xlink:href="../../d1/d37/torcloggingdefs_8h.html" target="_top" xlink:title="torcloggingdefs.h">
<polygon fill="white" stroke="black" points="140,-392.5 140,-411.5 239,-411.5 239,-392.5 140,-392.5"/>
<text text-anchor="middle" x="189.5" y="-399.5" font-family="Helvetica,sans-Serif" font-size="10.00">torcloggingdefs.h</text>
</a>
</g>
</g>
<!-- Node2&#45;&gt;Node5 -->
<g id="edge4" class="edge"><title>Node2&#45;&gt;Node5</title>
<path fill="none" stroke="midnightblue" d="M151.096,-448.083C157.727,-440.298 167.521,-428.801 175.558,-419.367"/>
<polygon fill="midnightblue" stroke="midnightblue" points="178.225,-421.633 182.045,-411.751 172.896,-417.094 178.225,-421.633"/>
</g>
<!-- Node7 -->
<g id="node7" class="node"><title>Node7</title>
<polygon fill="white" stroke="#bfbfbf" points="1345.5,-56.5 1345.5,-75.5 1389.5,-75.5 1389.5,-56.5 1345.5,-56.5"/>
<text text-anchor="middle" x="1367.5" y="-63.5" font-family="Helvetica,sans-Serif" font-size="10.00">QMap</text>
</g>
<!-- Node6&#45;&gt;Node7 -->
<g id="edge6" class="edge"><title>Node6&#45;&gt;Node7</title>
<path fill="none" stroke="midnightblue" d="M539.117,-449.594C542.286,-449.027 545.446,-448.486 548.5,-448 639.048,-433.577 1367.5,-438.689 1367.5,-347 1367.5,-347 1367.5,-347 1367.5,-177 1367.5,-144.948 1367.5,-107.643 1367.5,-85.7489"/>
<polygon fill="midnightblue" stroke="midnightblue" points="1371,-85.5577 1367.5,-75.5578 1364,-85.5578 1371,-85.5577"/>
</g>
<!-- Node8 -->
<g id="node8" class="node"><title>Node8</title>
<polygon fill="white" stroke="#bfbfbf" points="577,-112.5 577,-131.5 630,-131.5 630,-112.5 577,-112.5"/>
<text text-anchor="middle" x="603.5" y="-119.5" font-family="Helvetica,sans-Serif" font-size="10.00">QMutex</text>
</g>
<!-- Node6&#45;&gt;Node8 -->
<g id="edge7" class="edge"><title>Node6&#45;&gt;Node8</title>
<path fill="none" stroke="midnightblue" d="M465.781,-456.029C399.688,-452.12 267.5,-433.49 267.5,-347 267.5,-347 267.5,-347 267.5,-233 267.5,-202.902 263.748,-187.703 286.5,-168 327.752,-132.276 492.198,-124.879 566.6,-123.372"/>
<polygon fill="midnightblue" stroke="midnightblue" points="566.963,-126.866 576.899,-123.19 566.839,-119.868 566.963,-126.866"/>
</g>
<!-- Node9 -->
<g id="node9" class="node"><title>Node9</title>
<g id="a_node9"><a xlink:href="../../d5/d41/torccentral_8h.html" target="_top" xlink:title="torccentral.h">
<polygon fill="white" stroke="black" points="565,-280.5 565,-299.5 642,-299.5 642,-280.5 565,-280.5"/>
<text text-anchor="middle" x="603.5" y="-287.5" font-family="Helvetica,sans-Serif" font-size="10.00">torccentral.h</text>
</a>
</g>
</g>
<!-- Node6&#45;&gt;Node9 -->
<g id="edge8" class="edge"><title>Node6&#45;&gt;Node9</title>
<path fill="none" stroke="midnightblue" d="M531.695,-448.367C549.785,-441.473 571.9,-429.94 584.5,-412 606.122,-381.217 606.934,-335.196 605.371,-309.698"/>
<polygon fill="midnightblue" stroke="midnightblue" points="608.846,-309.241 604.553,-299.555 601.869,-309.804 608.846,-309.241"/>
</g>
<!-- Node29 -->
<g id="node29" class="node"><title>Node29</title>
<g id="a_node29"><a xlink:href="../../d9/dc5/torcpiswitchoutput_8h.html" target="_top" xlink:title="torcpiswitchoutput.h">
<polygon fill="white" stroke="black" points="462,-392.5 462,-411.5 575,-411.5 575,-392.5 462,-392.5"/>
<text text-anchor="middle" x="518.5" y="-399.5" font-family="Helvetica,sans-Serif" font-size="10.00">torcpiswitchoutput.h</text>
</a>
</g>
</g>
<!-- Node6&#45;&gt;Node29 -->
<g id="edge40" class="edge"><title>Node6&#45;&gt;Node29</title>
<path fill="none" stroke="midnightblue" d="M505.142,-448.083C507.286,-440.849 510.379,-430.409 513.049,-421.397"/>
<polygon fill="midnightblue" stroke="midnightblue" points="516.422,-422.333 515.907,-411.751 509.71,-420.345 516.422,-422.333"/>
</g>
<!-- Node6&#45;&gt;Node32 -->
<g id="edge48" class="edge"><title>Node6&#45;&gt;Node32</title>
<path fill="none" stroke="midnightblue" d="M484.505,-448.324C466.462,-439.625 438.453,-426.12 417.697,-416.113"/>
<polygon fill="midnightblue" stroke="midnightblue" points="418.978,-412.845 408.45,-411.655 415.938,-419.15 418.978,-412.845"/>
</g>
<!-- Node34 -->
<g id="node34" class="node"><title>Node34</title>
<g id="a_node34"><a xlink:href="../../d6/d66/torcpiswitchinput_8h.html" target="_top" xlink:title="torcpiswitchinput.h">
<polygon fill="white" stroke="black" points="688.5,-392.5 688.5,-411.5 794.5,-411.5 794.5,-392.5 688.5,-392.5"/>
<text text-anchor="middle" x="741.5" y="-399.5" font-family="Helvetica,sans-Serif" font-size="10.00">torcpiswitchinput.h</text>
</a>
</g>
</g>
<!-- Node6&#45;&gt;Node34 -->
<g id="edge51" class="edge"><title>Node6&#45;&gt;Node34</title>
<path fill="none" stroke="midnightblue" d="M539.059,-448.74C580.514,-439.373 648.247,-424.07 693.822,-413.772"/>
<polygon fill="midnightblue" stroke="midnightblue" points="694.778,-417.145 703.761,-411.527 693.236,-410.317 694.778,-417.145"/>
</g>
<!-- Node9&#45;&gt;Node8 -->
<g id="edge9" class="edge"><title>Node9&#45;&gt;Node8</title>
<path fill="none" stroke="midnightblue" d="M587.961,-280.446C555.068,-261.198 483.627,-212.663 511.5,-168 523.66,-148.515 546.973,-137.236 567.087,-130.844"/>
<polygon fill="midnightblue" stroke="midnightblue" points="568.299,-134.137 576.939,-128.006 566.361,-127.411 568.299,-134.137"/>
</g>
<!-- Node10 -->
<g id="node10" class="node"><title>Node10</title>
<polygon fill="white" stroke="#bfbfbf" points="520,-168.5 520,-187.5 575,-187.5 575,-168.5 520,-168.5"/>
<text text-anchor="middle" x="547.5" y="-175.5" font-family="Helvetica,sans-Serif" font-size="10.00">QObject</text>
</g>
<!-- Node9&#45;&gt;Node10 -->
<g id="edge10" class="edge"><title>Node9&#45;&gt;Node10</title>
<path fill="none" stroke="midnightblue" d="M594.668,-280.477C586.312,-271.958 573.968,-258.128 566.5,-244 558.774,-229.383 553.802,-211.211 550.891,-197.801"/>
<polygon fill="midnightblue" stroke="midnightblue" points="554.294,-196.966 548.915,-187.838 547.427,-198.328 554.294,-196.966"/>
</g>
<!-- Node11 -->
<g id="node11" class="node"><title>Node11</title>
<polygon fill="white" stroke="#bfbfbf" points="911.5,-112.5 911.5,-131.5 969.5,-131.5 969.5,-112.5 911.5,-112.5"/>
<text text-anchor="middle" x="940.5" y="-119.5" font-family="Helvetica,sans-Serif" font-size="10.00">QVariant</text>
</g>
<!-- Node9&#45;&gt;Node11 -->
<g id="edge11" class="edge"><title>Node9&#45;&gt;Node11</title>
<path fill="none" stroke="midnightblue" d="M636.709,-280.495C704.406,-262.7 855.513,-220.494 897.5,-188 913.343,-175.739 925.244,-155.917 932.463,-141.382"/>
<polygon fill="midnightblue" stroke="midnightblue" points="935.823,-142.459 936.881,-131.917 929.48,-139.498 935.823,-142.459"/>
</g>
<!-- Node12 -->
<g id="node12" class="node"><title>Node12</title>
<g id="a_node12"><a xlink:href="../../d1/df7/torcdevice_8h.html" target="_top" xlink:title="torcdevice.h">
<polygon fill="white" stroke="black" points="609,-224.5 609,-243.5 684,-243.5 684,-224.5 609,-224.5"/>
<text text-anchor="middle" x="646.5" y="-231.5" font-family="Helvetica,sans-Serif" font-size="10.00">torcdevice.h</text>
</a>
</g>
</g>
<!-- Node9&#45;&gt;Node12 -->
<g id="edge12" class="edge"><title>Node9&#45;&gt;Node12</title>
<path fill="none" stroke="midnightblue" d="M610.601,-280.083C616.737,-272.377 625.77,-261.033 633.239,-251.653"/>
<polygon fill="midnightblue" stroke="midnightblue" points="636.04,-253.754 639.532,-243.751 630.564,-249.394 636.04,-253.754"/>
</g>
<!-- Node18 -->
<g id="node18" class="node"><title>Node18</title>
<g id="a_node18"><a xlink:href="../../d3/dee/torchttpservice_8h.html" target="_top" xlink:title="http/torchttpservice.h">
<polygon fill="white" stroke="black" points="929.5,-224.5 929.5,-243.5 1049.5,-243.5 1049.5,-224.5 929.5,-224.5"/>
<text text-anchor="middle" x="989.5" y="-231.5" font-family="Helvetica,sans-Serif" font-size="10.00">http/torchttpservice.h</text>
</a>
</g>
</g>
<!-- Node9&#45;&gt;Node18 -->
<g id="edge23" class="edge"><title>Node9&#45;&gt;Node18</title>
<path fill="none" stroke="midnightblue" d="M642.242,-281.554C645.371,-281.008 648.486,-280.483 651.5,-280 743.655,-265.237 850.496,-251.59 918.982,-243.284"/>
<polygon fill="midnightblue" stroke="midnightblue" points="919.711,-246.722 929.219,-242.048 918.872,-239.772 919.711,-246.722"/>
</g>
<!-- Node12&#45;&gt;Node8 -->
<g id="edge14" class="edge"><title>Node12&#45;&gt;Node8</title>
<path fill="none" stroke="midnightblue" d="M642.74,-224.421C638.819,-215.402 632.552,-200.775 627.5,-188 621.348,-172.444 614.798,-154.608 610.097,-141.56"/>
<polygon fill="midnightblue" stroke="midnightblue" points="613.298,-140.116 606.633,-131.88 606.707,-142.475 613.298,-140.116"/>
</g>
<!-- Node12&#45;&gt;Node10 -->
<g id="edge16" class="edge"><title>Node12&#45;&gt;Node10</title>
<path fill="none" stroke="midnightblue" d="M630.594,-224.324C614.862,-215.743 590.558,-202.486 572.291,-192.522"/>
<polygon fill="midnightblue" stroke="midnightblue" points="573.822,-189.37 563.367,-187.655 570.47,-195.516 573.822,-189.37"/>
</g>
<!-- Node13 -->
<g id="node13" class="node"><title>Node13</title>
<polygon fill="white" stroke="#bfbfbf" points="712,-112.5 712,-131.5 761,-131.5 761,-112.5 712,-112.5"/>
<text text-anchor="middle" x="736.5" y="-119.5" font-family="Helvetica,sans-Serif" font-size="10.00">QHash</text>
</g>
<!-- Node12&#45;&gt;Node13 -->
<g id="edge13" class="edge"><title>Node12&#45;&gt;Node13</title>
<path fill="none" stroke="midnightblue" d="M653.562,-224.368C668.546,-206.055 703.733,-163.049 723.113,-139.362"/>
<polygon fill="midnightblue" stroke="midnightblue" points="725.847,-141.547 729.471,-131.591 720.429,-137.115 725.847,-141.547"/>
</g>
<!-- Node14 -->
<g id="node14" class="node"><title>Node14</title>
<polygon fill="white" stroke="#bfbfbf" points="1013,-56.5 1013,-75.5 1066,-75.5 1066,-56.5 1013,-56.5"/>
<text text-anchor="middle" x="1039.5" y="-63.5" font-family="Helvetica,sans-Serif" font-size="10.00">QString</text>
</g>
<!-- Node12&#45;&gt;Node14 -->
<g id="edge15" class="edge"><title>Node12&#45;&gt;Node14</title>
<path fill="none" stroke="midnightblue" d="M684.077,-229.215C738.737,-223.06 836.695,-209.373 864.5,-188 894.441,-164.985 873.916,-136.681 902.5,-112 930.807,-87.5582 972.729,-76.3186 1002.74,-71.196"/>
<polygon fill="midnightblue" stroke="midnightblue" points="1003.47,-74.6242 1012.81,-69.6276 1002.39,-67.7075 1003.47,-74.6242"/>
</g>
<!-- Node15 -->
<g id="node15" class="node"><title>Node15</title>
<g id="a_node15"><a xlink:href="../../d8/dfe/torcreferencecounted_8h.html" target="_top" xlink:title="torcreferencecounted.h">
<polygon fill="white" stroke="black" points="296,-168.5 296,-187.5 425,-187.5 425,-168.5 296,-168.5"/>
<text text-anchor="middle" x="360.5" y="-175.5" font-family="Helvetica,sans-Serif" font-size="10.00">torcreferencecounted.h</text>
</a>
</g>
</g>
<!-- Node12&#45;&gt;Node15 -->
<g id="edge17" class="edge"><title>Node12&#45;&gt;Node15</title>
<path fill="none" stroke="midnightblue" d="M608.816,-225.885C559.45,-216.564 472.508,-200.148 415.708,-189.424"/>
<polygon fill="midnightblue" stroke="midnightblue" points="416.294,-185.973 405.818,-187.557 414.995,-192.851 416.294,-185.973"/>
</g>
<!-- Node17 -->
<g id="node17" class="node"><title>Node17</title>
<g id="a_node17"><a xlink:href="../../d2/d5b/torcdevicehandler_8h.html" target="_top" xlink:title="torcdevicehandler.h">
<polygon fill="white" stroke="black" points="745.5,-168.5 745.5,-187.5 855.5,-187.5 855.5,-168.5 745.5,-168.5"/>
<text text-anchor="middle" x="800.5" y="-175.5" font-family="Helvetica,sans-Serif" font-size="10.00">torcdevicehandler.h</text>
</a>
</g>
</g>
<!-- Node12&#45;&gt;Node17 -->
<g id="edge19" class="edge"><title>Node12&#45;&gt;Node17</title>
<path fill="none" stroke="midnightblue" d="M670.902,-224.444C696.697,-215.399 737.577,-201.064 766.518,-190.916"/>
<polygon fill="midnightblue" stroke="midnightblue" points="767.934,-194.128 776.212,-187.516 765.618,-187.523 767.934,-194.128"/>
</g>
<!-- Node16 -->
<g id="node16" class="node"><title>Node16</title>
<polygon fill="white" stroke="#bfbfbf" points="325.5,-112.5 325.5,-131.5 395.5,-131.5 395.5,-112.5 325.5,-112.5"/>
<text text-anchor="middle" x="360.5" y="-119.5" font-family="Helvetica,sans-Serif" font-size="10.00">QAtomicInt</text>
</g>
<!-- Node15&#45;&gt;Node16 -->
<g id="edge18" class="edge"><title>Node15&#45;&gt;Node16</title>
<path fill="none" stroke="midnightblue" d="M360.5,-168.083C360.5,-161.006 360.5,-150.861 360.5,-141.986"/>
<polygon fill="midnightblue" stroke="midnightblue" points="364,-141.751 360.5,-131.751 357,-141.751 364,-141.751"/>
</g>
<!-- Node17&#45;&gt;Node8 -->
<g id="edge21" class="edge"><title>Node17&#45;&gt;Node8</title>
<path fill="none" stroke="midnightblue" d="M769.285,-168.444C734.179,-158.821 677.23,-143.21 640.069,-133.024"/>
<polygon fill="midnightblue" stroke="midnightblue" points="640.716,-129.572 630.147,-130.304 638.866,-136.323 640.716,-129.572"/>
</g>
<!-- Node17&#45;&gt;Node11 -->
<g id="edge22" class="edge"><title>Node17&#45;&gt;Node11</title>
<path fill="none" stroke="midnightblue" d="M822.683,-168.444C845.928,-159.478 882.649,-145.314 908.915,-135.183"/>
<polygon fill="midnightblue" stroke="midnightblue" points="910.35,-138.381 918.42,-131.516 907.831,-131.85 910.35,-138.381"/>
</g>
<!-- Node17&#45;&gt;Node13 -->
<g id="edge20" class="edge"><title>Node17&#45;&gt;Node13</title>
<path fill="none" stroke="midnightblue" d="M790.217,-168.324C780.664,-160.263 766.22,-148.077 754.716,-138.369"/>
<polygon fill="midnightblue" stroke="midnightblue" points="756.87,-135.608 746.97,-131.834 752.356,-140.958 756.87,-135.608"/>
</g>
<!-- Node18&#45;&gt;Node7 -->
<g id="edge24" class="edge"><title>Node18&#45;&gt;Node7</title>
<path fill="none" stroke="midnightblue" d="M1049.73,-229.725C1125.39,-224.633 1250.02,-212.715 1288.5,-188 1327.08,-163.226 1350.83,-112.164 1361.27,-84.9687"/>
<polygon fill="midnightblue" stroke="midnightblue" points="1364.58,-86.1114 1364.73,-75.5176 1358.01,-83.7073 1364.58,-86.1114"/>
</g>
<!-- Node18&#45;&gt;Node8 -->
<g id="edge25" class="edge"><title>Node18&#45;&gt;Node8</title>
<path fill="none" stroke="midnightblue" d="M929.309,-227.073C877.313,-220.832 800.651,-208.925 736.5,-188 730.991,-186.203 667.214,-154.667 630.016,-136.194"/>
<polygon fill="midnightblue" stroke="midnightblue" points="631.254,-132.9 620.742,-131.584 628.139,-139.169 631.254,-132.9"/>
</g>
<!-- Node19 -->
<g id="node19" class="node"><title>Node19</title>
<polygon fill="white" stroke="#bfbfbf" points="950,-168.5 950,-187.5 1029,-187.5 1029,-168.5 950,-168.5"/>
<text text-anchor="middle" x="989.5" y="-175.5" font-family="Helvetica,sans-Serif" font-size="10.00">QMetaObject</text>
</g>
<!-- Node18&#45;&gt;Node19 -->
<g id="edge26" class="edge"><title>Node18&#45;&gt;Node19</title>
<path fill="none" stroke="midnightblue" d="M989.5,-224.083C989.5,-217.006 989.5,-206.861 989.5,-197.986"/>
<polygon fill="midnightblue" stroke="midnightblue" points="993,-197.751 989.5,-187.751 986,-197.751 993,-197.751"/>
</g>
<!-- Node20 -->
<g id="node20" class="node"><title>Node20</title>
<polygon fill="white" stroke="#bfbfbf" points="1047,-168.5 1047,-187.5 1146,-187.5 1146,-168.5 1047,-168.5"/>
<text text-anchor="middle" x="1096.5" y="-175.5" font-family="Helvetica,sans-Serif" font-size="10.00">QCoreApplication</text>
</g>
<!-- Node18&#45;&gt;Node20 -->
<g id="edge27" class="edge"><title>Node18&#45;&gt;Node20</title>
<path fill="none" stroke="midnightblue" d="M1006.69,-224.324C1023.85,-215.664 1050.45,-202.242 1070.25,-192.249"/>
<polygon fill="midnightblue" stroke="midnightblue" points="1072,-195.285 1079.35,-187.655 1068.85,-189.035 1072,-195.285"/>
</g>
<!-- Node21 -->
<g id="node21" class="node"><title>Node21</title>
<g id="a_node21"><a xlink:href="../../d4/d11/torchttphandler_8h.html" target="_top" xlink:title="torchttphandler.h">
<polygon fill="white" stroke="black" points="1164,-168.5 1164,-187.5 1263,-187.5 1263,-168.5 1164,-168.5"/>
<text text-anchor="middle" x="1213.5" y="-175.5" font-family="Helvetica,sans-Serif" font-size="10.00">torchttphandler.h</text>
</a>
</g>
</g>
<!-- Node18&#45;&gt;Node21 -->
<g id="edge28" class="edge"><title>Node18&#45;&gt;Node21</title>
<path fill="none" stroke="midnightblue" d="M1024.99,-224.444C1063.82,-215.083 1126.16,-200.056 1168.42,-189.868"/>
<polygon fill="midnightblue" stroke="midnightblue" points="1169.27,-193.263 1178.17,-187.516 1167.63,-186.458 1169.27,-193.263"/>
</g>
<!-- Node23 -->
<g id="node23" class="node"><title>Node23</title>
<g id="a_node23"><a xlink:href="../../df/dd7/torchttprequest_8h.html" target="_top" xlink:title="torchttprequest.h">
<polygon fill="white" stroke="black" points="1191,-112.5 1191,-131.5 1292,-131.5 1292,-112.5 1191,-112.5"/>
<text text-anchor="middle" x="1241.5" y="-119.5" font-family="Helvetica,sans-Serif" font-size="10.00">torchttprequest.h</text>
</a>
</g>
</g>
<!-- Node18&#45;&gt;Node23 -->
<g id="edge39" class="edge"><title>Node18&#45;&gt;Node23</title>
<path fill="none" stroke="midnightblue" d="M1049.68,-232.229C1124.11,-229.853 1244.44,-220.873 1272.5,-188 1284.85,-173.532 1271.57,-153.303 1258.76,-139.271"/>
<polygon fill="midnightblue" stroke="midnightblue" points="1260.97,-136.52 1251.48,-131.815 1255.96,-141.413 1260.97,-136.52"/>
</g>
<!-- Node21&#45;&gt;Node14 -->
<g id="edge29" class="edge"><title>Node21&#45;&gt;Node14</title>
<path fill="none" stroke="midnightblue" d="M1168.76,-168.433C1142.57,-161.763 1109.94,-150.447 1085.5,-132 1069,-119.55 1056.09,-99.4736 1048.19,-84.9243"/>
<polygon fill="midnightblue" stroke="midnightblue" points="1051.24,-83.1884 1043.55,-75.8963 1045.01,-86.3899 1051.24,-83.1884"/>
</g>
<!-- Node22 -->
<g id="node22" class="node"><title>Node22</title>
<polygon fill="white" stroke="#bfbfbf" points="1094.5,-112.5 1094.5,-131.5 1172.5,-131.5 1172.5,-112.5 1094.5,-112.5"/>
<text text-anchor="middle" x="1133.5" y="-119.5" font-family="Helvetica,sans-Serif" font-size="10.00">QVariantMap</text>
</g>
<!-- Node21&#45;&gt;Node22 -->
<g id="edge30" class="edge"><title>Node21&#45;&gt;Node22</title>
<path fill="none" stroke="midnightblue" d="M1200.65,-168.324C1188.28,-159.979 1169.37,-147.212 1154.76,-137.352"/>
<polygon fill="midnightblue" stroke="midnightblue" points="1156.57,-134.348 1146.32,-131.655 1152.65,-140.15 1156.57,-134.348"/>
</g>
<!-- Node21&#45;&gt;Node23 -->
<g id="edge31" class="edge"><title>Node21&#45;&gt;Node23</title>
<path fill="none" stroke="midnightblue" d="M1218.12,-168.083C1221.96,-160.691 1227.52,-149.953 1232.26,-140.811"/>
<polygon fill="midnightblue" stroke="midnightblue" points="1235.47,-142.24 1236.96,-131.751 1229.25,-139.018 1235.47,-142.24"/>
</g>
<!-- Node23&#45;&gt;Node7 -->
<g id="edge32" class="edge"><title>Node23&#45;&gt;Node7</title>
<path fill="none" stroke="midnightblue" d="M1261.47,-112.444C1282.11,-103.596 1314.56,-89.6875 1338.13,-79.5865"/>
<polygon fill="midnightblue" stroke="midnightblue" points="1339.82,-82.6727 1347.63,-75.5164 1337.06,-76.2387 1339.82,-82.6727"/>
</g>
<!-- Node23&#45;&gt;Node14 -->
<g id="edge34" class="edge"><title>Node23&#45;&gt;Node14</title>
<path fill="none" stroke="midnightblue" d="M1209.49,-112.444C1173.14,-102.725 1113.94,-86.8991 1075.87,-76.7216"/>
<polygon fill="midnightblue" stroke="midnightblue" points="1076.76,-73.3382 1066.2,-74.1368 1074.95,-80.1007 1076.76,-73.3382"/>
</g>
<!-- Node24 -->
<g id="node24" class="node"><title>Node24</title>
<polygon fill="white" stroke="#bfbfbf" points="1197,-56.5 1197,-75.5 1238,-75.5 1238,-56.5 1197,-56.5"/>
<text text-anchor="middle" x="1217.5" y="-63.5" font-family="Helvetica,sans-Serif" font-size="10.00">QPair</text>
</g>
<!-- Node23&#45;&gt;Node24 -->
<g id="edge33" class="edge"><title>Node23&#45;&gt;Node24</title>
<path fill="none" stroke="midnightblue" d="M1237.54,-112.083C1234.29,-104.77 1229.58,-94.1814 1225.55,-85.1034"/>
<polygon fill="midnightblue" stroke="midnightblue" points="1228.65,-83.4677 1221.39,-75.7511 1222.25,-86.3107 1228.65,-83.4677"/>
</g>
<!-- Node25 -->
<g id="node25" class="node"><title>Node25</title>
<polygon fill="white" stroke="#bfbfbf" points="1256,-56.5 1256,-75.5 1327,-75.5 1327,-56.5 1256,-56.5"/>
<text text-anchor="middle" x="1291.5" y="-63.5" font-family="Helvetica,sans-Serif" font-size="10.00">QDateTime</text>
</g>
<!-- Node23&#45;&gt;Node25 -->
<g id="edge35" class="edge"><title>Node23&#45;&gt;Node25</title>
<path fill="none" stroke="midnightblue" d="M1249.76,-112.083C1256.96,-104.298 1267.61,-92.8015 1276.35,-83.3665"/>
<polygon fill="midnightblue" stroke="midnightblue" points="1279.17,-85.4666 1283.4,-75.7511 1274.03,-80.7108 1279.17,-85.4666"/>
</g>
<!-- Node26 -->
<g id="node26" class="node"><title>Node26</title>
<g id="a_node26"><a xlink:href="../../de/de6/torchttpreader_8h.html" target="_top" xlink:title="torchttpreader.h">
<polygon fill="white" stroke="black" points="1084,-56.5 1084,-75.5 1179,-75.5 1179,-56.5 1084,-56.5"/>
<text text-anchor="middle" x="1131.5" y="-63.5" font-family="Helvetica,sans-Serif" font-size="10.00">torchttpreader.h</text>
</a>
</g>
</g>
<!-- Node23&#45;&gt;Node26 -->
<g id="edge36" class="edge"><title>Node23&#45;&gt;Node26</title>
<path fill="none" stroke="midnightblue" d="M1223.83,-112.324C1206.11,-103.625 1178.6,-90.1202 1158.21,-80.113"/>
<polygon fill="midnightblue" stroke="midnightblue" points="1159.65,-76.9195 1149.13,-75.6545 1156.56,-83.2031 1159.65,-76.9195"/>
</g>
<!-- Node27 -->
<g id="node27" class="node"><title>Node27</title>
<polygon fill="white" stroke="#bfbfbf" points="1051,-0.5 1051,-19.5 1122,-19.5 1122,-0.5 1051,-0.5"/>
<text text-anchor="middle" x="1086.5" y="-7.5" font-family="Helvetica,sans-Serif" font-size="10.00">QByteArray</text>
</g>
<!-- Node26&#45;&gt;Node27 -->
<g id="edge37" class="edge"><title>Node26&#45;&gt;Node27</title>
<path fill="none" stroke="midnightblue" d="M1124.07,-56.083C1117.65,-48.3768 1108.19,-37.0333 1100.38,-27.6531"/>
<polygon fill="midnightblue" stroke="midnightblue" points="1102.88,-25.1927 1093.79,-19.7511 1097.51,-29.674 1102.88,-25.1927"/>
</g>
<!-- Node28 -->
<g id="node28" class="node"><title>Node28</title>
<polygon fill="white" stroke="#bfbfbf" points="1140.5,-0.5 1140.5,-19.5 1212.5,-19.5 1212.5,-0.5 1140.5,-0.5"/>
<text text-anchor="middle" x="1176.5" y="-7.5" font-family="Helvetica,sans-Serif" font-size="10.00">QTcpSocket</text>
</g>
<!-- Node26&#45;&gt;Node28 -->
<g id="edge38" class="edge"><title>Node26&#45;&gt;Node28</title>
<path fill="none" stroke="midnightblue" d="M1138.93,-56.083C1145.35,-48.3768 1154.81,-37.0333 1162.62,-27.6531"/>
<polygon fill="midnightblue" stroke="midnightblue" points="1165.49,-29.674 1169.21,-19.7511 1160.12,-25.1927 1165.49,-29.674"/>
</g>
<!-- Node30 -->
<g id="node30" class="node"><title>Node30</title>
<g id="a_node30"><a xlink:href="../../db/d9e/torcswitchoutput_8h.html" target="_top" xlink:title="torcswitchoutput.h">
<polygon fill="white" stroke="black" points="464,-336.5 464,-355.5 569,-355.5 569,-336.5 464,-336.5"/>
<text text-anchor="middle" x="516.5" y="-343.5" font-family="Helvetica,sans-Serif" font-size="10.00">torcswitchoutput.h</text>
</a>
</g>
</g>
<!-- Node29&#45;&gt;Node30 -->
<g id="edge41" class="edge"><title>Node29&#45;&gt;Node30</title>
<path fill="none" stroke="midnightblue" d="M518.17,-392.083C517.908,-385.006 517.532,-374.861 517.203,-365.986"/>
<polygon fill="midnightblue" stroke="midnightblue" points="520.692,-365.615 516.824,-355.751 513.697,-365.874 520.692,-365.615"/>
</g>
<!-- Node31 -->
<g id="node31" class="node"><title>Node31</title>
<g id="a_node31"><a xlink:href="../../dc/d01/torcoutput_8h.html" target="_top" xlink:title="torcoutput.h">
<polygon fill="white" stroke="black" points="428.5,-280.5 428.5,-299.5 504.5,-299.5 504.5,-280.5 428.5,-280.5"/>
<text text-anchor="middle" x="466.5" y="-287.5" font-family="Helvetica,sans-Serif" font-size="10.00">torcoutput.h</text>
</a>
</g>
</g>
<!-- Node30&#45;&gt;Node31 -->
<g id="edge42" class="edge"><title>Node30&#45;&gt;Node31</title>
<path fill="none" stroke="midnightblue" d="M508.244,-336.083C501.035,-328.298 490.39,-316.801 481.654,-307.367"/>
<polygon fill="midnightblue" stroke="midnightblue" points="483.965,-304.711 474.603,-299.751 478.829,-309.467 483.965,-304.711"/>
</g>
<!-- Node31&#45;&gt;Node8 -->
<g id="edge43" class="edge"><title>Node31&#45;&gt;Node8</title>
<path fill="none" stroke="midnightblue" d="M466.52,-280.206C467.034,-258.474 471.269,-201.571 500.5,-168 517.613,-148.346 544.902,-136.952 567.092,-130.548"/>
<polygon fill="midnightblue" stroke="midnightblue" points="568.111,-133.899 576.874,-127.945 566.31,-127.134 568.111,-133.899"/>
</g>
<!-- Node31&#45;&gt;Node10 -->
<g id="edge44" class="edge"><title>Node31&#45;&gt;Node10</title>
<path fill="none" stroke="midnightblue" d="M472.856,-280.368C486.282,-262.135 517.732,-219.426 535.221,-195.675"/>
<polygon fill="midnightblue" stroke="midnightblue" points="538.062,-197.719 541.174,-187.591 532.426,-193.568 538.062,-197.719"/>
</g>
<!-- Node31&#45;&gt;Node12 -->
<g id="edge47" class="edge"><title>Node31&#45;&gt;Node12</title>
<path fill="none" stroke="midnightblue" d="M495.022,-280.444C525.566,-271.28 574.208,-256.688 608.103,-246.519"/>
<polygon fill="midnightblue" stroke="midnightblue" points="609.539,-249.742 618.112,-243.516 607.528,-243.038 609.539,-249.742"/>
</g>
<!-- Node31&#45;&gt;Node15 -->
<g id="edge45" class="edge"><title>Node31&#45;&gt;Node15</title>
<path fill="none" stroke="midnightblue" d="M455.278,-280.188C444.417,-271.456 427.703,-257.472 414.5,-244 399.337,-228.529 383.701,-209.281 373.182,-195.759"/>
<polygon fill="midnightblue" stroke="midnightblue" points="375.933,-193.595 367.065,-187.798 370.382,-197.86 375.933,-193.595"/>
</g>
<!-- Node31&#45;&gt;Node18 -->
<g id="edge46" class="edge"><title>Node31&#45;&gt;Node18</title>
<path fill="none" stroke="midnightblue" d="M504.534,-285.073C591.723,-276.071 807.11,-253.832 919.188,-242.26"/>
<polygon fill="midnightblue" stroke="midnightblue" points="919.788,-245.717 929.375,-241.208 919.069,-238.754 919.788,-245.717"/>
</g>
<!-- Node33 -->
<g id="node33" class="node"><title>Node33</title>
<g id="a_node33"><a xlink:href="../../df/d6c/torcpwmoutput_8h.html" target="_top" xlink:title="torcpwmoutput.h">
<polygon fill="white" stroke="black" points="343.5,-336.5 343.5,-355.5 441.5,-355.5 441.5,-336.5 343.5,-336.5"/>
<text text-anchor="middle" x="392.5" y="-343.5" font-family="Helvetica,sans-Serif" font-size="10.00">torcpwmoutput.h</text>
</a>
</g>
</g>
<!-- Node32&#45;&gt;Node33 -->
<g id="edge49" class="edge"><title>Node32&#45;&gt;Node33</title>
<path fill="none" stroke="midnightblue" d="M390.83,-392.083C391.092,-385.006 391.468,-374.861 391.797,-365.986"/>
<polygon fill="midnightblue" stroke="midnightblue" points="395.303,-365.874 392.176,-355.751 388.308,-365.615 395.303,-365.874"/>
</g>
<!-- Node33&#45;&gt;Node31 -->
<g id="edge50" class="edge"><title>Node33&#45;&gt;Node31</title>
<path fill="none" stroke="midnightblue" d="M404.389,-336.324C415.65,-328.107 432.787,-315.602 446.209,-305.807"/>
<polygon fill="midnightblue" stroke="midnightblue" points="448.38,-308.556 454.394,-299.834 444.253,-302.901 448.38,-308.556"/>
</g>
<!-- Node35 -->
<g id="node35" class="node"><title>Node35</title>
<polygon fill="white" stroke="#bfbfbf" points="855,-336.5 855,-355.5 894,-355.5 894,-336.5 855,-336.5"/>
<text text-anchor="middle" x="874.5" y="-343.5" font-family="Helvetica,sans-Serif" font-size="10.00">QFile</text>
</g>
<!-- Node34&#45;&gt;Node35 -->
<g id="edge52" class="edge"><title>Node34&#45;&gt;Node35</title>
<path fill="none" stroke="midnightblue" d="M762.574,-392.444C784.948,-383.36 820.462,-368.94 845.475,-358.785"/>
<polygon fill="midnightblue" stroke="midnightblue" points="846.876,-361.993 854.825,-354.988 844.243,-355.507 846.876,-361.993"/>
</g>
<!-- Node36 -->
<g id="node36" class="node"><title>Node36</title>
<g id="a_node36"><a xlink:href="../../dd/db0/torcqthread_8h.html" target="_top" xlink:title="torcqthread.h">
<polygon fill="white" stroke="black" points="754.5,-336.5 754.5,-355.5 836.5,-355.5 836.5,-336.5 754.5,-336.5"/>
<text text-anchor="middle" x="795.5" y="-343.5" font-family="Helvetica,sans-Serif" font-size="10.00">torcqthread.h</text>
</a>
</g>
</g>
<!-- Node34&#45;&gt;Node36 -->
<g id="edge53" class="edge"><title>Node34&#45;&gt;Node36</title>
<path fill="none" stroke="midnightblue" d="M750.417,-392.083C758.28,-384.22 769.931,-372.569 779.419,-363.081"/>
<polygon fill="midnightblue" stroke="midnightblue" points="782.153,-365.297 786.749,-355.751 777.203,-360.347 782.153,-365.297"/>
</g>
<!-- Node38 -->
<g id="node38" class="node"><title>Node38</title>
<g id="a_node38"><a xlink:href="../../d9/d2a/torcswitchinput_8h.html" target="_top" xlink:title="torcswitchinput.h">
<polygon fill="white" stroke="black" points="638.5,-336.5 638.5,-355.5 736.5,-355.5 736.5,-336.5 638.5,-336.5"/>
<text text-anchor="middle" x="687.5" y="-343.5" font-family="Helvetica,sans-Serif" font-size="10.00">torcswitchinput.h</text>
</a>
</g>
</g>
<!-- Node34&#45;&gt;Node38 -->
<g id="edge55" class="edge"><title>Node34&#45;&gt;Node38</title>
<path fill="none" stroke="midnightblue" d="M732.583,-392.083C724.72,-384.22 713.069,-372.569 703.581,-363.081"/>
<polygon fill="midnightblue" stroke="midnightblue" points="705.797,-360.347 696.251,-355.751 700.847,-365.297 705.797,-360.347"/>
</g>
<!-- Node37 -->
<g id="node37" class="node"><title>Node37</title>
<polygon fill="white" stroke="#bfbfbf" points="767,-280.5 767,-299.5 824,-299.5 824,-280.5 767,-280.5"/>
<text text-anchor="middle" x="795.5" y="-287.5" font-family="Helvetica,sans-Serif" font-size="10.00">QThread</text>
</g>
<!-- Node36&#45;&gt;Node37 -->
<g id="edge54" class="edge"><title>Node36&#45;&gt;Node37</title>
<path fill="none" stroke="midnightblue" d="M795.5,-336.083C795.5,-329.006 795.5,-318.861 795.5,-309.986"/>
<polygon fill="midnightblue" stroke="midnightblue" points="799,-309.751 795.5,-299.751 792,-309.751 799,-309.751"/>
</g>
<!-- Node39 -->
<g id="node39" class="node"><title>Node39</title>
<g id="a_node39"><a xlink:href="../../dd/d69/torcinput_8h.html" target="_top" xlink:title="torcinput.h">
<polygon fill="white" stroke="black" points="660.5,-280.5 660.5,-299.5 728.5,-299.5 728.5,-280.5 660.5,-280.5"/>
<text text-anchor="middle" x="694.5" y="-287.5" font-family="Helvetica,sans-Serif" font-size="10.00">torcinput.h</text>
</a>
</g>
</g>
<!-- Node38&#45;&gt;Node39 -->
<g id="edge56" class="edge"><title>Node38&#45;&gt;Node39</title>
<path fill="none" stroke="midnightblue" d="M688.656,-336.083C689.584,-328.927 690.918,-318.635 692.077,-309.691"/>
<polygon fill="midnightblue" stroke="midnightblue" points="695.551,-310.118 693.366,-299.751 688.609,-309.218 695.551,-310.118"/>
</g>
<!-- Node39&#45;&gt;Node8 -->
<g id="edge57" class="edge"><title>Node39&#45;&gt;Node8</title>
<path fill="none" stroke="midnightblue" d="M696.238,-280.22C698.374,-267.374 700.877,-242.928 693.5,-224 679.27,-187.488 645.357,-155.666 623.464,-137.93"/>
<polygon fill="midnightblue" stroke="midnightblue" points="625.48,-135.063 615.455,-131.634 621.154,-140.566 625.48,-135.063"/>
</g>
<!-- Node39&#45;&gt;Node10 -->
<g id="edge58" class="edge"><title>Node39&#45;&gt;Node10</title>
<path fill="none" stroke="midnightblue" d="M669.256,-280.417C649.295,-272.842 621.403,-260.446 600.5,-244 583.228,-230.411 567.898,-210.25 558.226,-195.991"/>
<polygon fill="midnightblue" stroke="midnightblue" points="561.134,-194.043 552.722,-187.601 555.281,-197.883 561.134,-194.043"/>
</g>
<!-- Node39&#45;&gt;Node12 -->
<g id="edge60" class="edge"><title>Node39&#45;&gt;Node12</title>
<path fill="none" stroke="midnightblue" d="M686.574,-280.083C679.654,-272.298 669.435,-260.801 661.048,-251.367"/>
<polygon fill="midnightblue" stroke="midnightblue" points="663.538,-248.9 654.279,-243.751 658.306,-253.55 663.538,-248.9"/>
</g>
<!-- Node39&#45;&gt;Node18 -->
<g id="edge59" class="edge"><title>Node39&#45;&gt;Node18</title>
<path fill="none" stroke="midnightblue" d="M728.628,-282.753C778.594,-273.607 872.264,-256.46 932.711,-245.395"/>
<polygon fill="midnightblue" stroke="midnightblue" points="933.646,-248.782 942.853,-243.539 932.386,-241.897 933.646,-248.782"/>
</g>
</g>
</svg>
