<?xml version="1.0" encoding="UTF-8" standalone="no"?>
<!DOCTYPE svg PUBLIC "-//W3C//DTD SVG 1.1//EN"
 "http://www.w3.org/Graphics/SVG/1.1/DTD/svg11.dtd">
<!-- Generated by graphviz version 2.38.0 (20140413.2041)
 -->
<!-- Title: TorcDeviceHandler Pages: 1 -->
<svg width="261pt" height="294pt"
 viewBox="0.00 0.00 261.00 294.00" xmlns="http://www.w3.org/2000/svg" xmlns:xlink="http://www.w3.org/1999/xlink">
<g id="graph0" class="graph" transform="scale(1 1) rotate(0) translate(4 290)">
<title>TorcDeviceHandler</title>
<polygon fill="white" stroke="none" points="-4,4 -4,-290 257,-290 257,4 -4,4"/>
<!-- Node1 -->
<g id="node1" class="node"><title>Node1</title>
<polygon fill="#bfbfbf" stroke="black" points="0,-133.5 0,-152.5 105,-152.5 105,-133.5 0,-133.5"/>
<text text-anchor="middle" x="52.5" y="-140.5" font-family="Helvetica,sans-Serif" font-size="10.00">TorcDeviceHandler</text>
</g>
<!-- Node2 -->
<g id="node2" class="node"><title>Node2</title>
<g id="a_node2"><a xlink:href="../../d6/d7b/class_torc1_wire_bus.html" target="_top" xlink:title="A class to handle the one wire files system (OWFS) for 1Wire devices. ">
<polygon fill="white" stroke="black" points="157,-266.5 157,-285.5 237,-285.5 237,-266.5 157,-266.5"/>
<text text-anchor="middle" x="197" y="-273.5" font-family="Helvetica,sans-Serif" font-size="10.00">Torc1WireBus</text>
</a>
</g>
</g>
<!-- Node1&#45;&gt;Node2 -->
<g id="edge1" class="edge"><title>Node1&#45;&gt;Node2</title>
<path fill="none" stroke="midnightblue" d="M63.2229,-161.679C77.1975,-186.79 105.26,-231.247 141,-257 146.328,-260.839 152.495,-263.953 158.734,-266.463"/>
<polygon fill="midnightblue" stroke="midnightblue" points="66.2523,-159.923 58.4176,-152.791 60.0947,-163.252 66.2523,-159.923"/>
</g>
<!-- Node3 -->
<g id="node3" class="node"><title>Node3</title>
<g id="a_node3"><a xlink:href="../../df/d70/class_torc_camera_outputs.html" target="_top" xlink:title="TorcCameraOutputs">
<polygon fill="white" stroke="black" points="141,-228.5 141,-247.5 253,-247.5 253,-228.5 141,-228.5"/>
<text text-anchor="middle" x="197" y="-235.5" font-family="Helvetica,sans-Serif" font-size="10.00">TorcCameraOutputs</text>
</a>
</g>
</g>
<!-- Node1&#45;&gt;Node3 -->
<g id="edge2" class="edge"><title>Node1&#45;&gt;Node3</title>
<path fill="none" stroke="midnightblue" d="M69.4738,-160.302C85.9666,-177.284 113.151,-202.91 141,-219 147.386,-222.689 154.602,-225.819 161.655,-228.409"/>
<polygon fill="midnightblue" stroke="midnightblue" points="71.7084,-157.573 62.2801,-152.74 66.6366,-162.398 71.7084,-157.573"/>
</g>
<!-- Node4 -->
<g id="node4" class="node"><title>Node4</title>
<g id="a_node4"><a xlink:href="../../d9/dac/class_torc_controls.html" target="_top" xlink:title="TorcControls">
<polygon fill="white" stroke="black" points="159.5,-190.5 159.5,-209.5 234.5,-209.5 234.5,-190.5 159.5,-190.5"/>
<text text-anchor="middle" x="197" y="-197.5" font-family="Helvetica,sans-Serif" font-size="10.00">TorcControls</text>
</a>
</g>
</g>
<!-- Node1&#45;&gt;Node4 -->
<g id="edge3" class="edge"><title>Node1&#45;&gt;Node4</title>
<path fill="none" stroke="midnightblue" d="M83.4753,-156.699C100.261,-164.198 121.647,-173.468 141,-181 149.379,-184.261 158.579,-187.551 167.017,-190.456"/>
<polygon fill="midnightblue" stroke="midnightblue" points="84.7299,-153.426 74.1743,-152.515 81.8583,-159.81 84.7299,-153.426"/>
</g>
<!-- Node5 -->
<g id="node5" class="node"><title>Node5</title>
<g id="a_node5"><a xlink:href="../../d3/da6/class_torc_i2_c_bus.html" target="_top" xlink:title="TorcI2CBus">
<polygon fill="white" stroke="black" points="163,-152.5 163,-171.5 231,-171.5 231,-152.5 163,-152.5"/>
<text text-anchor="middle" x="197" y="-159.5" font-family="Helvetica,sans-Serif" font-size="10.00">TorcI2CBus</text>
</a>
</g>
</g>
<!-- Node1&#45;&gt;Node5 -->
<g id="edge4" class="edge"><title>Node1&#45;&gt;Node5</title>
<path fill="none" stroke="midnightblue" d="M115.344,-151.246C131.585,-153.411 148.489,-155.665 162.601,-157.547"/>
<polygon fill="midnightblue" stroke="midnightblue" points="115.724,-147.766 105.349,-149.913 114.799,-154.704 115.724,-147.766"/>
</g>
<!-- Node6 -->
<g id="node6" class="node"><title>Node6</title>
<g id="a_node6"><a xlink:href="../../d1/d27/class_torc_network_inputs.html" target="_top" xlink:title="TorcNetworkInputs">
<polygon fill="white" stroke="black" points="145,-114.5 145,-133.5 249,-133.5 249,-114.5 145,-114.5"/>
<text text-anchor="middle" x="197" y="-121.5" font-family="Helvetica,sans-Serif" font-size="10.00">TorcNetworkInputs</text>
</a>
</g>
</g>
<!-- Node1&#45;&gt;Node6 -->
<g id="edge5" class="edge"><title>Node1&#45;&gt;Node6</title>
<path fill="none" stroke="midnightblue" d="M115.471,-134.737C125.298,-133.427 135.364,-132.085 144.905,-130.813"/>
<polygon fill="midnightblue" stroke="midnightblue" points="114.799,-131.296 105.349,-136.087 115.724,-138.234 114.799,-131.296"/>
</g>
<!-- Node7 -->
<g id="node7" class="node"><title>Node7</title>
<g id="a_node7"><a xlink:href="../../df/d23/class_torc_notify.html" target="_top" xlink:title="TorcNotify">
<polygon fill="white" stroke="black" points="165.5,-76.5 165.5,-95.5 228.5,-95.5 228.5,-76.5 165.5,-76.5"/>
<text text-anchor="middle" x="197" y="-83.5" font-family="Helvetica,sans-Serif" font-size="10.00">TorcNotify</text>
</a>
</g>
</g>
<!-- Node1&#45;&gt;Node7 -->
<g id="edge6" class="edge"><title>Node1&#45;&gt;Node7</title>
<path fill="none" stroke="midnightblue" d="M83.4753,-129.301C100.261,-121.802 121.647,-112.532 141,-105 149.379,-101.739 158.579,-98.4489 167.017,-95.5442"/>
<polygon fill="midnightblue" stroke="midnightblue" points="81.8583,-126.19 74.1743,-133.485 84.7299,-132.574 81.8583,-126.19"/>
</g>
<!-- Node8 -->
<g id="node8" class="node"><title>Node8</title>
<g id="a_node8"><a xlink:href="../../da/da0/class_torc_pi_g_p_i_o.html" target="_top" xlink:title="TorcPiGPIO">
<polygon fill="white" stroke="black" points="163.5,-38.5 163.5,-57.5 230.5,-57.5 230.5,-38.5 163.5,-38.5"/>
<text text-anchor="middle" x="197" y="-45.5" font-family="Helvetica,sans-Serif" font-size="10.00">TorcPiGPIO</text>
</a>
</g>
</g>
<!-- Node1&#45;&gt;Node8 -->
<g id="edge7" class="edge"><title>Node1&#45;&gt;Node8</title>
<path fill="none" stroke="midnightblue" d="M69.4738,-125.698C85.9666,-108.716 113.151,-83.0895 141,-67 147.91,-63.0075 155.793,-59.6698 163.391,-56.9629"/>
<polygon fill="midnightblue" stroke="midnightblue" points="66.6366,-123.602 62.2801,-133.26 71.7084,-128.427 66.6366,-123.602"/>
</g>
<!-- Node9 -->
<g id="node9" class="node"><title>Node9</title>
<g id="a_node9"><a xlink:href="../../d4/d19/class_torc_system_inputs.html" target="_top" xlink:title="TorcSystemInputs">
<polygon fill="white" stroke="black" points="146.5,-0.5 146.5,-19.5 247.5,-19.5 247.5,-0.5 146.5,-0.5"/>
<text text-anchor="middle" x="197" y="-7.5" font-family="Helvetica,sans-Serif" font-size="10.00">TorcSystemInputs</text>
</a>
</g>
</g>
<!-- Node1&#45;&gt;Node9 -->
<g id="edge8" class="edge"><title>Node1&#45;&gt;Node9</title>
<path fill="none" stroke="midnightblue" d="M63.2229,-124.321C77.1975,-99.21 105.26,-54.7526 141,-29 146.328,-25.1612 152.495,-22.0469 158.734,-19.5367"/>
<polygon fill="midnightblue" stroke="midnightblue" points="60.0947,-122.748 58.4176,-133.209 66.2523,-126.077 60.0947,-122.748"/>
</g>
</g>
</svg>
