<?xml version="1.0" encoding="UTF-8" standalone="no"?>
<!DOCTYPE svg PUBLIC "-//W3C//DTD SVG 1.1//EN"
 "http://www.w3.org/Graphics/SVG/1.1/DTD/svg11.dtd">
<!-- Generated by graphviz version 2.38.0 (20140413.2041)
 -->
<!-- Title: TorcSerialiserFactory Pages: 1 -->
<svg width="317pt" height="339pt"
 viewBox="0.00 0.00 317.00 338.50" xmlns="http://www.w3.org/2000/svg" xmlns:xlink="http://www.w3.org/1999/xlink">
<g id="graph0" class="graph" transform="scale(1 1) rotate(0) translate(4 334.5)">
<title>TorcSerialiserFactory</title>
<polygon fill="white" stroke="none" points="-4,4 -4,-334.5 313,-334.5 313,4 -4,4"/>
<!-- Node1 -->
<g id="node1" class="node"><title>Node1</title>
<polygon fill="#bfbfbf" stroke="black" points="0,-136.5 0,-155.5 114,-155.5 114,-136.5 0,-136.5"/>
<text text-anchor="middle" x="57" y="-143.5" font-family="Helvetica,sans-Serif" font-size="10.00">TorcSerialiserFactory</text>
</g>
<!-- Node2 -->
<g id="node2" class="node"><title>Node2</title>
<g id="a_node2"><a xlink:href="../../dc/dcf/class_torc_apple_binary_p_list_serialiser_factory.html" target="_top" xlink:title="TorcAppleBinaryPListSerialiser\lFactory">
<polygon fill="white" stroke="black" points="150,-300 150,-330 309,-330 309,-300 150,-300"/>
<text text-anchor="start" x="158" y="-318" font-family="Helvetica,sans-Serif" font-size="10.00">TorcAppleBinaryPListSerialiser</text>
<text text-anchor="middle" x="229.5" y="-307" font-family="Helvetica,sans-Serif" font-size="10.00">Factory</text>
</a>
</g>
</g>
<!-- Node1&#45;&gt;Node2 -->
<g id="edge1" class="edge"><title>Node1&#45;&gt;Node2</title>
<path fill="none" stroke="midnightblue" d="M65.1468,-165.475C77.5676,-196.625 106.088,-257.545 150,-291 154.534,-294.455 159.568,-297.416 164.835,-299.953"/>
<polygon fill="midnightblue" stroke="midnightblue" points="68.2801,-163.872 61.426,-155.793 61.7459,-166.383 68.2801,-163.872"/>
</g>
<!-- Node3 -->
<g id="node3" class="node"><title>Node3</title>
<g id="a_node3"><a xlink:href="../../d0/dd2/class_torc_apple_p_list_serialiser_factory.html" target="_top" xlink:title="TorcApplePListSerialiser\lFactory">
<polygon fill="white" stroke="black" points="165,-251 165,-281 294,-281 294,-251 165,-251"/>
<text text-anchor="start" x="173" y="-269" font-family="Helvetica,sans-Serif" font-size="10.00">TorcApplePListSerialiser</text>
<text text-anchor="middle" x="229.5" y="-258" font-family="Helvetica,sans-Serif" font-size="10.00">Factory</text>
</a>
</g>
</g>
<!-- Node1&#45;&gt;Node3 -->
<g id="edge2" class="edge"><title>Node1&#45;&gt;Node3</title>
<path fill="none" stroke="midnightblue" d="M70.6795,-164.022C86.7574,-185.585 116.456,-221.356 150,-242 155.583,-245.436 161.694,-248.412 167.963,-250.982"/>
<polygon fill="midnightblue" stroke="midnightblue" points="73.3647,-161.763 64.6514,-155.736 67.7042,-165.881 73.3647,-161.763"/>
</g>
<!-- Node4 -->
<g id="node4" class="node"><title>Node4</title>
<g id="a_node4"><a xlink:href="../../df/d35/class_torc_binary_p_list_serialiser_factory.html" target="_top" xlink:title="TorcBinaryPListSerialiser\lFactory">
<polygon fill="white" stroke="black" points="163.5,-202 163.5,-232 295.5,-232 295.5,-202 163.5,-202"/>
<text text-anchor="start" x="171.5" y="-220" font-family="Helvetica,sans-Serif" font-size="10.00">TorcBinaryPListSerialiser</text>
<text text-anchor="middle" x="229.5" y="-209" font-family="Helvetica,sans-Serif" font-size="10.00">Factory</text>
</a>
</g>
</g>
<!-- Node1&#45;&gt;Node4 -->
<g id="edge3" class="edge"><title>Node1&#45;&gt;Node4</title>
<path fill="none" stroke="midnightblue" d="M83.3466,-160.477C101.515,-170.472 126.78,-183.604 150,-193 157.926,-196.207 166.449,-199.23 174.854,-201.977"/>
<polygon fill="midnightblue" stroke="midnightblue" points="84.9802,-157.381 74.5408,-155.572 81.574,-163.496 84.9802,-157.381"/>
</g>
<!-- Node5 -->
<g id="node5" class="node"><title>Node5</title>
<g id="a_node5"><a xlink:href="../../d1/dd1/class_torc_javascript_serialiser_factory.html" target="_top" xlink:title="TorcJavascriptSerialiser\lFactory">
<polygon fill="white" stroke="black" points="167,-153 167,-183 292,-183 292,-153 167,-153"/>
<text text-anchor="start" x="175" y="-171" font-family="Helvetica,sans-Serif" font-size="10.00">TorcJavascriptSerialiser</text>
<text text-anchor="middle" x="229.5" y="-160" font-family="Helvetica,sans-Serif" font-size="10.00">Factory</text>
</a>
</g>
</g>
<!-- Node1&#45;&gt;Node5 -->
<g id="edge4" class="edge"><title>Node1&#45;&gt;Node5</title>
<path fill="none" stroke="midnightblue" d="M124.363,-154.563C138.389,-156.373 153.132,-158.275 166.97,-160.061"/>
<polygon fill="midnightblue" stroke="midnightblue" points="124.666,-151.073 114.301,-153.265 123.77,-158.016 124.666,-151.073"/>
</g>
<!-- Node6 -->
<g id="node6" class="node"><title>Node6</title>
<g id="a_node6"><a xlink:href="../../da/d22/class_torc_j_s_o_n_serialiser_factory.html" target="_top" xlink:title="TorcJSONSerialiserFactory">
<polygon fill="white" stroke="black" points="160.5,-114.5 160.5,-133.5 298.5,-133.5 298.5,-114.5 160.5,-114.5"/>
<text text-anchor="middle" x="229.5" y="-121.5" font-family="Helvetica,sans-Serif" font-size="10.00">TorcJSONSerialiserFactory</text>
</a>
</g>
</g>
<!-- Node1&#45;&gt;Node6 -->
<g id="edge5" class="edge"><title>Node1&#45;&gt;Node6</title>
<path fill="none" stroke="midnightblue" d="M124.499,-137.419C136.28,-135.899 148.562,-134.315 160.386,-132.789"/>
<polygon fill="midnightblue" stroke="midnightblue" points="123.77,-133.984 114.301,-138.735 124.666,-140.927 123.77,-133.984"/>
</g>
<!-- Node7 -->
<g id="node7" class="node"><title>Node7</title>
<g id="a_node7"><a xlink:href="../../da/de4/class_torc_plain_text_serialiser_factory.html" target="_top" xlink:title="TorcPlainTextSerialiserFactory">
<polygon fill="white" stroke="black" points="152,-76.5 152,-95.5 307,-95.5 307,-76.5 152,-76.5"/>
<text text-anchor="middle" x="229.5" y="-83.5" font-family="Helvetica,sans-Serif" font-size="10.00">TorcPlainTextSerialiserFactory</text>
</a>
</g>
</g>
<!-- Node1&#45;&gt;Node7 -->
<g id="edge6" class="edge"><title>Node1&#45;&gt;Node7</title>
<path fill="none" stroke="midnightblue" d="M85.9334,-131.955C103.901,-123.324 127.934,-112.518 150,-105 160.486,-101.428 171.975,-98.2509 182.851,-95.5655"/>
<polygon fill="midnightblue" stroke="midnightblue" points="84.0819,-128.964 76.6266,-136.492 87.1491,-135.256 84.0819,-128.964"/>
</g>
<!-- Node8 -->
<g id="node8" class="node"><title>Node8</title>
<g id="a_node8"><a xlink:href="../../dd/dfa/class_torc_p_list_serialiser_factory.html" target="_top" xlink:title="TorcPListSerialiserFactory">
<polygon fill="white" stroke="black" points="161,-38.5 161,-57.5 298,-57.5 298,-38.5 161,-38.5"/>
<text text-anchor="middle" x="229.5" y="-45.5" font-family="Helvetica,sans-Serif" font-size="10.00">TorcPListSerialiserFactory</text>
</a>
</g>
</g>
<!-- Node1&#45;&gt;Node8 -->
<g id="edge7" class="edge"><title>Node1&#45;&gt;Node8</title>
<path fill="none" stroke="midnightblue" d="M73.2314,-128.791C90.1935,-110.703 119.291,-82.7344 150,-67 157.488,-63.1636 165.777,-60.0818 174.082,-57.6116"/>
<polygon fill="midnightblue" stroke="midnightblue" points="70.5025,-126.589 66.3297,-136.327 75.6647,-131.316 70.5025,-126.589"/>
</g>
<!-- Node9 -->
<g id="node9" class="node"><title>Node9</title>
<g id="a_node9"><a xlink:href="../../d6/da9/class_torc_x_m_l_serialiser_factory.html" target="_top" xlink:title="TorcXMLSerialiserFactory">
<polygon fill="white" stroke="black" points="162.5,-0.5 162.5,-19.5 296.5,-19.5 296.5,-0.5 162.5,-0.5"/>
<text text-anchor="middle" x="229.5" y="-7.5" font-family="Helvetica,sans-Serif" font-size="10.00">TorcXMLSerialiserFactory</text>
</a>
</g>
</g>
<!-- Node1&#45;&gt;Node9 -->
<g id="edge8" class="edge"><title>Node1&#45;&gt;Node9</title>
<path fill="none" stroke="midnightblue" d="M67.3723,-127.449C81.5709,-101.301 111.057,-54.0138 150,-29 156.017,-25.1352 162.752,-22.0562 169.68,-19.6033"/>
<polygon fill="midnightblue" stroke="midnightblue" points="64.2508,-125.865 62.6913,-136.344 70.4455,-129.124 64.2508,-125.865"/>
</g>
</g>
</svg>
