<?xml version="1.0" encoding="UTF-8" standalone="no"?>
<!DOCTYPE svg PUBLIC "-//W3C//DTD SVG 1.1//EN"
 "http://www.w3.org/Graphics/SVG/1.1/DTD/svg11.dtd">
<!-- Generated by graphviz version 2.38.0 (20140413.2041)
 -->
<!-- Title: torcpwminput.h Pages: 1 -->
<svg width="327pt" height="140pt"
 viewBox="0.00 0.00 327.00 140.00" xmlns="http://www.w3.org/2000/svg" xmlns:xlink="http://www.w3.org/1999/xlink">
<g id="graph0" class="graph" transform="scale(1 1) rotate(0) translate(4 136)">
<title>torcpwminput.h</title>
<polygon fill="white" stroke="none" points="-4,4 -4,-136 323,-136 323,4 -4,4"/>
<!-- Node1 -->
<g id="node1" class="node"><title>Node1</title>
<polygon fill="#bfbfbf" stroke="black" points="155.5,-112.5 155.5,-131.5 246.5,-131.5 246.5,-112.5 155.5,-112.5"/>
<text text-anchor="middle" x="201" y="-119.5" font-family="Helvetica,sans-Serif" font-size="10.00">torcpwminput.h</text>
</g>
<!-- Node2 -->
<g id="node2" class="node"><title>Node2</title>
<g id="a_node2"><a xlink:href="../../d2/d3a/torcnetworkpwminput_8h.html" target="_top" xlink:title="torcnetworkpwminput.h">
<polygon fill="white" stroke="black" points="71,-56.5 71,-75.5 199,-75.5 199,-56.5 71,-56.5"/>
<text text-anchor="middle" x="135" y="-63.5" font-family="Helvetica,sans-Serif" font-size="10.00">torcnetworkpwminput.h</text>
</a>
</g>
</g>
<!-- Node1&#45;&gt;Node2 -->
<g id="edge1" class="edge"><title>Node1&#45;&gt;Node2</title>
<path fill="none" stroke="midnightblue" d="M182.446,-105.82C170.622,-96.1452 155.714,-83.9481 145.797,-75.8339"/>
<polygon fill="midnightblue" stroke="midnightblue" points="180.44,-108.7 190.396,-112.324 184.873,-103.283 180.44,-108.7"/>
</g>
<!-- Node5 -->
<g id="node5" class="node"><title>Node5</title>
<g id="a_node5"><a xlink:href="../../d6/daa/torcpwminput_8cpp.html" target="_top" xlink:title="torcpwminput.cpp">
<polygon fill="white" stroke="black" points="217,-56.5 217,-75.5 319,-75.5 319,-56.5 217,-56.5"/>
<text text-anchor="middle" x="268" y="-63.5" font-family="Helvetica,sans-Serif" font-size="10.00">torcpwminput.cpp</text>
</a>
</g>
</g>
<!-- Node1&#45;&gt;Node5 -->
<g id="edge4" class="edge"><title>Node1&#45;&gt;Node5</title>
<path fill="none" stroke="midnightblue" d="M219.835,-105.82C231.838,-96.1452 246.972,-83.9481 257.039,-75.8339"/>
<polygon fill="midnightblue" stroke="midnightblue" points="217.354,-103.324 211.765,-112.324 221.747,-108.774 217.354,-103.324"/>
</g>
<!-- Node3 -->
<g id="node3" class="node"><title>Node3</title>
<g id="a_node3"><a xlink:href="../../df/dc7/torcnetworkinputs_8cpp.html" target="_top" xlink:title="torcnetworkinputs.cpp">
<polygon fill="white" stroke="black" points="0,-0.5 0,-19.5 122,-19.5 122,-0.5 0,-0.5"/>
<text text-anchor="middle" x="61" y="-7.5" font-family="Helvetica,sans-Serif" font-size="10.00">torcnetworkinputs.cpp</text>
</a>
</g>
</g>
<!-- Node2&#45;&gt;Node3 -->
<g id="edge2" class="edge"><title>Node2&#45;&gt;Node3</title>
<path fill="none" stroke="midnightblue" d="M114.966,-50.3804C101.591,-40.6204 84.4412,-28.1057 73.1057,-19.8339"/>
<polygon fill="midnightblue" stroke="midnightblue" points="112.97,-53.2565 123.111,-56.324 117.096,-47.602 112.97,-53.2565"/>
</g>
<!-- Node4 -->
<g id="node4" class="node"><title>Node4</title>
<g id="a_node4"><a xlink:href="../../d0/dfb/torcnetworkpwminput_8cpp.html" target="_top" xlink:title="torcnetworkpwminput.cpp">
<polygon fill="white" stroke="black" points="140,-0.5 140,-19.5 280,-19.5 280,-0.5 140,-0.5"/>
<text text-anchor="middle" x="210" y="-7.5" font-family="Helvetica,sans-Serif" font-size="10.00">torcnetworkpwminput.cpp</text>
</a>
</g>
</g>
<!-- Node2&#45;&gt;Node4 -->
<g id="edge3" class="edge"><title>Node2&#45;&gt;Node4</title>
<path fill="none" stroke="midnightblue" d="M155.305,-50.3804C168.861,-40.6204 186.242,-28.1057 197.731,-19.8339"/>
<polygon fill="midnightblue" stroke="midnightblue" points="153.12,-47.6405 147.05,-56.324 157.21,-53.3213 153.12,-47.6405"/>
</g>
</g>
</svg>
