<?xml version="1.0" encoding="UTF-8" standalone="no"?>
<!DOCTYPE svg PUBLIC "-//W3C//DTD SVG 1.1//EN"
 "http://www.w3.org/Graphics/SVG/1.1/DTD/svg11.dtd">
<!-- Generated by graphviz version 2.38.0 (20140413.2041)
 -->
<!-- Title: torchttphandler.cpp Pages: 1 -->
<!--zoomable 476 -->
<svg id="main" version="1.1" xmlns="http://www.w3.org/2000/svg" xmlns:xlink="http://www.w3.org/1999/xlink" xml:space="preserve" onload="init(evt)">
<style type="text/css"><![CDATA[
.edge:hover path { stroke: red; }
.edge:hover polygon { stroke: red; fill: red; }
]]></style>
<script type="text/javascript"><![CDATA[
var edges = document.getElementsByTagName('g');
if (edges && edges.length) {
  for (var i=0;i<edges.length;i++) {
    if (edges[i].id.substr(0,4)=='edge') {
      edges[i].setAttribute('class','edge');
    }
  }
}
]]></script>
        <defs>
                <circle id="rim" cx="0" cy="0" r="7"/>
                <circle id="rim2" cx="0" cy="0" r="3.5"/>
                <g id="zoomPlus">
                        <use xlink:href="#rim" fill="#404040">
                                <set attributeName="fill" to="#808080" begin="zoomplus.mouseover" end="zoomplus.mouseout"/>
                        </use>
                        <path d="M-4,0h8M0,-4v8" fill="none" stroke="white" stroke-width="1.5" pointer-events="none"/>
                </g>
                <g id="zoomMin">
                        <use xlink:href="#rim" fill="#404040">
                                <set attributeName="fill" to="#808080" begin="zoomminus.mouseover" end="zoomminus.mouseout"/>
                        </use>
                        <path d="M-4,0h8" fill="none" stroke="white" stroke-width="1.5" pointer-events="none"/>
                </g>
                <g id="dirArrow">
                        <path fill="none" stroke="white" stroke-width="1.5" d="M0,-3.0v7 M-2.5,-0.5L0,-3.0L2.5,-0.5"/>
                </g>
               <g id="resetDef">
                       <use xlink:href="#rim2" fill="#404040">
                               <set attributeName="fill" to="#808080" begin="reset.mouseover" end="reset.mouseout"/>
                       </use>
               </g>
        </defs>

<script type="text/javascript">
var viewWidth = 1790;
var viewHeight = 476;
var sectionId = 'dynsection-0';
</script>
<script xlink:href="../../svgpan.js"/>
<svg id="graph" class="graph">
<g id="viewport">
<title>torchttphandler.cpp</title>
<polygon fill="white" stroke="none" points="-4,4 -4,-472 1785.5,-472 1785.5,4 -4,4"/>
<!-- Node1 -->
<g id="node1" class="node"><title>Node1</title>
<polygon fill="#bfbfbf" stroke="black" points="144.5,-448.5 144.5,-467.5 254.5,-467.5 254.5,-448.5 144.5,-448.5"/>
<text text-anchor="middle" x="199.5" y="-455.5" font-family="Helvetica,sans-Serif" font-size="10.00">torchttphandler.cpp</text>
</g>
<!-- Node2 -->
<g id="node2" class="node"><title>Node2</title>
<polygon fill="white" stroke="#bfbfbf" points="29,-392.5 29,-411.5 68,-411.5 68,-392.5 29,-392.5"/>
<text text-anchor="middle" x="48.5" y="-399.5" font-family="Helvetica,sans-Serif" font-size="10.00">QFile</text>
</g>
<!-- Node1&#45;&gt;Node2 -->
<g id="edge1" class="edge"><title>Node1&#45;&gt;Node2</title>
<path fill="none" stroke="midnightblue" d="M175.574,-448.444C149.091,-438.973 106.392,-423.703 77.8946,-413.512"/>
<polygon fill="midnightblue" stroke="midnightblue" points="79.0513,-410.209 68.4567,-410.137 76.6941,-416.8 79.0513,-410.209"/>
</g>
<!-- Node3 -->
<g id="node3" class="node"><title>Node3</title>
<polygon fill="white" stroke="#bfbfbf" points="86.5,-392.5 86.5,-411.5 142.5,-411.5 142.5,-392.5 86.5,-392.5"/>
<text text-anchor="middle" x="114.5" y="-399.5" font-family="Helvetica,sans-Serif" font-size="10.00">QFileInfo</text>
</g>
<!-- Node1&#45;&gt;Node3 -->
<g id="edge2" class="edge"><title>Node1&#45;&gt;Node3</title>
<path fill="none" stroke="midnightblue" d="M185.843,-448.324C172.584,-439.9 152.232,-426.971 136.654,-417.074"/>
<polygon fill="midnightblue" stroke="midnightblue" points="138.44,-414.063 128.123,-411.655 134.687,-419.971 138.44,-414.063"/>
</g>
<!-- Node4 -->
<g id="node4" class="node"><title>Node4</title>
<g id="a_node4"><a xlink:href="../../d4/df9/torclogging_8h.html" target="_top" xlink:title="torclogging.h">
<polygon fill="white" stroke="black" points="160,-392.5 160,-411.5 239,-411.5 239,-392.5 160,-392.5"/>
<text text-anchor="middle" x="199.5" y="-399.5" font-family="Helvetica,sans-Serif" font-size="10.00">torclogging.h</text>
</a>
</g>
</g>
<!-- Node1&#45;&gt;Node4 -->
<g id="edge3" class="edge"><title>Node1&#45;&gt;Node4</title>
<path fill="none" stroke="midnightblue" d="M199.5,-448.083C199.5,-441.006 199.5,-430.861 199.5,-421.986"/>
<polygon fill="midnightblue" stroke="midnightblue" points="203,-421.751 199.5,-411.751 196,-421.751 203,-421.751"/>
</g>
<!-- Node8 -->
<g id="node8" class="node"><title>Node8</title>
<g id="a_node8"><a xlink:href="../../df/d1b/torchttpserver_8h.html" target="_top" xlink:title="torchttpserver.h">
<polygon fill="white" stroke="black" points="898,-392.5 898,-411.5 991,-411.5 991,-392.5 898,-392.5"/>
<text text-anchor="middle" x="944.5" y="-399.5" font-family="Helvetica,sans-Serif" font-size="10.00">torchttpserver.h</text>
</a>
</g>
</g>
<!-- Node1&#45;&gt;Node8 -->
<g id="edge7" class="edge"><title>Node1&#45;&gt;Node8</title>
<path fill="none" stroke="midnightblue" d="M254.584,-453.007C392.023,-443.045 748.977,-417.172 887.956,-407.098"/>
<polygon fill="midnightblue" stroke="midnightblue" points="888.253,-410.586 897.974,-406.372 887.747,-403.605 888.253,-410.586"/>
</g>
<!-- Node22 -->
<g id="node22" class="node"><title>Node22</title>
<g id="a_node22"><a xlink:href="../../d4/d11/torchttphandler_8h.html" target="_top" xlink:title="torchttphandler.h">
<polygon fill="white" stroke="black" points="435,-168.5 435,-187.5 534,-187.5 534,-168.5 435,-168.5"/>
<text text-anchor="middle" x="484.5" y="-175.5" font-family="Helvetica,sans-Serif" font-size="10.00">torchttphandler.h</text>
</a>
</g>
</g>
<!-- Node1&#45;&gt;Node22 -->
<g id="edge71" class="edge"><title>Node1&#45;&gt;Node22</title>
<path fill="none" stroke="midnightblue" d="M211.852,-448.368C222.707,-440.176 238.185,-426.922 247.5,-412 263.506,-386.36 267.5,-377.225 267.5,-347 267.5,-347 267.5,-347 267.5,-289 267.5,-218.136 360.703,-192.91 424.945,-183.94"/>
<polygon fill="midnightblue" stroke="midnightblue" points="425.522,-187.394 434.988,-182.635 424.62,-180.453 425.522,-187.394"/>
</g>
<!-- Node5 -->
<g id="node5" class="node"><title>Node5</title>
<polygon fill="white" stroke="#bfbfbf" points="117,-336.5 117,-355.5 170,-355.5 170,-336.5 117,-336.5"/>
<text text-anchor="middle" x="143.5" y="-343.5" font-family="Helvetica,sans-Serif" font-size="10.00">stdint.h</text>
</g>
<!-- Node4&#45;&gt;Node5 -->
<g id="edge4" class="edge"><title>Node4&#45;&gt;Node5</title>
<path fill="none" stroke="midnightblue" d="M190.503,-392.324C182.306,-384.42 169.994,-372.548 160.028,-362.938"/>
<polygon fill="midnightblue" stroke="midnightblue" points="162.289,-360.256 152.661,-355.834 157.43,-365.295 162.289,-360.256"/>
</g>
<!-- Node6 -->
<g id="node6" class="node"><title>Node6</title>
<polygon fill="white" stroke="#bfbfbf" points="188,-336.5 188,-355.5 239,-355.5 239,-336.5 188,-336.5"/>
<text text-anchor="middle" x="213.5" y="-343.5" font-family="Helvetica,sans-Serif" font-size="10.00">errno.h</text>
</g>
<!-- Node4&#45;&gt;Node6 -->
<g id="edge5" class="edge"><title>Node4&#45;&gt;Node6</title>
<path fill="none" stroke="midnightblue" d="M201.812,-392.083C203.667,-384.927 206.335,-374.635 208.654,-365.691"/>
<polygon fill="midnightblue" stroke="midnightblue" points="212.109,-366.309 211.231,-355.751 205.334,-364.553 212.109,-366.309"/>
</g>
<!-- Node7 -->
<g id="node7" class="node"><title>Node7</title>
<g id="a_node7"><a xlink:href="../../d1/d37/torcloggingdefs_8h.html" target="_top" xlink:title="torcloggingdefs.h">
<polygon fill="white" stroke="black" points="0,-336.5 0,-355.5 99,-355.5 99,-336.5 0,-336.5"/>
<text text-anchor="middle" x="49.5" y="-343.5" font-family="Helvetica,sans-Serif" font-size="10.00">torcloggingdefs.h</text>
</a>
</g>
</g>
<!-- Node4&#45;&gt;Node7 -->
<g id="edge6" class="edge"><title>Node4&#45;&gt;Node7</title>
<path fill="none" stroke="midnightblue" d="M175.732,-392.444C150.607,-383.399 110.789,-369.064 82.5996,-358.916"/>
<polygon fill="midnightblue" stroke="midnightblue" points="83.7512,-355.611 73.1567,-355.516 81.3801,-362.197 83.7512,-355.611"/>
</g>
<!-- Node9 -->
<g id="node9" class="node"><title>Node9</title>
<polygon fill="white" stroke="#bfbfbf" points="1445.5,-0.5 1445.5,-19.5 1517.5,-19.5 1517.5,-0.5 1445.5,-0.5"/>
<text text-anchor="middle" x="1481.5" y="-7.5" font-family="Helvetica,sans-Serif" font-size="10.00">QTcpSocket</text>
</g>
<!-- Node8&#45;&gt;Node9 -->
<g id="edge8" class="edge"><title>Node8&#45;&gt;Node9</title>
<path fill="none" stroke="midnightblue" d="M991.294,-399.817C1167.56,-394.75 1781.5,-371.334 1781.5,-291 1781.5,-291 1781.5,-291 1781.5,-121 1781.5,-67.6139 1611.92,-32.3242 1527.75,-18.0971"/>
<polygon fill="midnightblue" stroke="midnightblue" points="1528.13,-14.6109 1517.69,-16.427 1526.98,-21.5165 1528.13,-14.6109"/>
</g>
<!-- Node10 -->
<g id="node10" class="node"><title>Node10</title>
<polygon fill="white" stroke="#bfbfbf" points="1700,-168.5 1700,-187.5 1753,-187.5 1753,-168.5 1700,-168.5"/>
<text text-anchor="middle" x="1726.5" y="-175.5" font-family="Helvetica,sans-Serif" font-size="10.00">QMutex</text>
</g>
<!-- Node8&#45;&gt;Node10 -->
<g id="edge9" class="edge"><title>Node8&#45;&gt;Node10</title>
<path fill="none" stroke="midnightblue" d="M991.203,-400.028C1103.06,-397.218 1383.55,-387.188 1471.5,-356 1573.5,-319.832 1672.38,-231.494 1710.28,-195.088"/>
<polygon fill="midnightblue" stroke="midnightblue" points="1713.08,-197.247 1717.8,-187.764 1708.2,-192.23 1713.08,-197.247"/>
</g>
<!-- Node11 -->
<g id="node11" class="node"><title>Node11</title>
<polygon fill="white" stroke="#bfbfbf" points="1227.5,-224.5 1227.5,-243.5 1319.5,-243.5 1319.5,-224.5 1227.5,-224.5"/>
<text text-anchor="middle" x="1273.5" y="-231.5" font-family="Helvetica,sans-Serif" font-size="10.00">QReadWriteLock</text>
</g>
<!-- Node8&#45;&gt;Node11 -->
<g id="edge10" class="edge"><title>Node8&#45;&gt;Node11</title>
<path fill="none" stroke="midnightblue" d="M976.713,-392.46C1004.37,-384.595 1044.97,-371.773 1078.5,-356 1146.01,-324.242 1219.1,-274.199 1253.48,-249.616"/>
<polygon fill="midnightblue" stroke="midnightblue" points="1255.67,-252.352 1261.74,-243.667 1251.58,-246.673 1255.67,-252.352"/>
</g>
<!-- Node12 -->
<g id="node12" class="node"><title>Node12</title>
<g id="a_node12"><a xlink:href="../../d2/d7a/torcuser_8h.html" target="_top" xlink:title="torcuser.h">
<polygon fill="white" stroke="black" points="1005,-336.5 1005,-355.5 1070,-355.5 1070,-336.5 1005,-336.5"/>
<text text-anchor="middle" x="1037.5" y="-343.5" font-family="Helvetica,sans-Serif" font-size="10.00">torcuser.h</text>
</a>
</g>
</g>
<!-- Node8&#45;&gt;Node12 -->
<g id="edge11" class="edge"><title>Node8&#45;&gt;Node12</title>
<path fill="none" stroke="midnightblue" d="M959.442,-392.324C974.085,-383.822 996.634,-370.729 1013.74,-360.797"/>
<polygon fill="midnightblue" stroke="midnightblue" points="1015.7,-363.703 1022.6,-355.655 1012.19,-357.649 1015.7,-363.703"/>
</g>
<!-- Node32 -->
<g id="node32" class="node"><title>Node32</title>
<g id="a_node32"><a xlink:href="../../d0/d06/torchtmlhandler_8h.html" target="_top" xlink:title="torchtmlhandler.h">
<polygon fill="white" stroke="black" points="545,-224.5 545,-243.5 646,-243.5 646,-224.5 545,-224.5"/>
<text text-anchor="middle" x="595.5" y="-231.5" font-family="Helvetica,sans-Serif" font-size="10.00">torchtmlhandler.h</text>
</a>
</g>
</g>
<!-- Node8&#45;&gt;Node32 -->
<g id="edge39" class="edge"><title>Node8&#45;&gt;Node32</title>
<path fill="none" stroke="midnightblue" d="M937.478,-392.324C918.776,-369.848 865.17,-309.433 806.5,-280 780.552,-266.983 708.667,-253.231 655.988,-244.406"/>
<polygon fill="midnightblue" stroke="midnightblue" points="656.497,-240.943 646.06,-242.763 655.354,-247.849 656.497,-240.943"/>
</g>
<!-- Node33 -->
<g id="node33" class="node"><title>Node33</title>
<g id="a_node33"><a xlink:href="../../d9/d9b/torchttpservices_8h.html" target="_top" xlink:title="torchttpservices.h">
<polygon fill="white" stroke="black" points="893,-280.5 893,-299.5 996,-299.5 996,-280.5 893,-280.5"/>
<text text-anchor="middle" x="944.5" y="-287.5" font-family="Helvetica,sans-Serif" font-size="10.00">torchttpservices.h</text>
</a>
</g>
</g>
<!-- Node8&#45;&gt;Node33 -->
<g id="edge42" class="edge"><title>Node8&#45;&gt;Node33</title>
<path fill="none" stroke="midnightblue" d="M944.5,-392.368C944.5,-374.617 944.5,-333.666 944.5,-309.597"/>
<polygon fill="midnightblue" stroke="midnightblue" points="948,-309.591 944.5,-299.591 941,-309.591 948,-309.591"/>
</g>
<!-- Node34 -->
<g id="node34" class="node"><title>Node34</title>
<g id="a_node34"><a xlink:href="../../d6/d66/torchtmlstaticcontent_8h.html" target="_top" xlink:title="torchtmlstaticcontent.h">
<polygon fill="white" stroke="black" points="385,-280.5 385,-299.5 514,-299.5 514,-280.5 385,-280.5"/>
<text text-anchor="middle" x="449.5" y="-287.5" font-family="Helvetica,sans-Serif" font-size="10.00">torchtmlstaticcontent.h</text>
</a>
</g>
</g>
<!-- Node8&#45;&gt;Node34 -->
<g id="edge46" class="edge"><title>Node8&#45;&gt;Node34</title>
<path fill="none" stroke="midnightblue" d="M898.088,-392.458C851.929,-383.818 779.149,-369.801 716.5,-356 637.223,-338.536 545.374,-315.571 492.69,-302.134"/>
<polygon fill="midnightblue" stroke="midnightblue" points="493.246,-298.663 482.691,-299.578 491.513,-305.445 493.246,-298.663"/>
</g>
<!-- Node35 -->
<g id="node35" class="node"><title>Node35</title>
<g id="a_node35"><a xlink:href="../../d9/dd6/torchtmldynamiccontent_8h.html" target="_top" xlink:title="torchtmldynamiccontent.h">
<polygon fill="white" stroke="black" points="655,-280.5 655,-299.5 798,-299.5 798,-280.5 655,-280.5"/>
<text text-anchor="middle" x="726.5" y="-287.5" font-family="Helvetica,sans-Serif" font-size="10.00">torchtmldynamiccontent.h</text>
</a>
</g>
</g>
<!-- Node8&#45;&gt;Node35 -->
<g id="edge48" class="edge"><title>Node8&#45;&gt;Node35</title>
<path fill="none" stroke="midnightblue" d="M909.906,-392.47C882.532,-384.961 843.832,-372.627 812.5,-356 786.597,-342.254 760.185,-320.984 743.591,-306.551"/>
<polygon fill="midnightblue" stroke="midnightblue" points="745.669,-303.715 735.863,-299.702 741.026,-308.954 745.669,-303.715"/>
</g>
<!-- Node36 -->
<g id="node36" class="node"><title>Node36</title>
<g id="a_node36"><a xlink:href="../../df/d19/torcupnpcontent_8h.html" target="_top" xlink:title="torcupnpcontent.h">
<polygon fill="white" stroke="black" points="532,-280.5 532,-299.5 637,-299.5 637,-280.5 532,-280.5"/>
<text text-anchor="middle" x="584.5" y="-287.5" font-family="Helvetica,sans-Serif" font-size="10.00">torcupnpcontent.h</text>
</a>
</g>
</g>
<!-- Node8&#45;&gt;Node36 -->
<g id="edge50" class="edge"><title>Node8&#45;&gt;Node36</title>
<path fill="none" stroke="midnightblue" d="M910.634,-392.44C876.97,-383.785 823.94,-369.758 778.5,-356 721.858,-338.85 656.771,-316.491 618.223,-302.967"/>
<polygon fill="midnightblue" stroke="midnightblue" points="619.145,-299.581 608.55,-299.564 616.821,-306.185 619.145,-299.581"/>
</g>
<!-- Node37 -->
<g id="node37" class="node"><title>Node37</title>
<g id="a_node37"><a xlink:href="../../dc/d5c/torcwebsocketpool_8h.html" target="_top" xlink:title="torcwebsocketpool.h">
<polygon fill="white" stroke="black" points="1347,-336.5 1347,-355.5 1462,-355.5 1462,-336.5 1347,-336.5"/>
<text text-anchor="middle" x="1404.5" y="-343.5" font-family="Helvetica,sans-Serif" font-size="10.00">torcwebsocketpool.h</text>
</a>
</g>
</g>
<!-- Node8&#45;&gt;Node37 -->
<g id="edge52" class="edge"><title>Node8&#45;&gt;Node37</title>
<path fill="none" stroke="midnightblue" d="M991.139,-395.525C1072.9,-385.927 1242.38,-366.031 1336.97,-354.928"/>
<polygon fill="midnightblue" stroke="midnightblue" points="1337.47,-358.392 1347,-353.75 1336.66,-351.44 1337.47,-358.392"/>
</g>
<!-- Node38 -->
<g id="node38" class="node"><title>Node38</title>
<g id="a_node38"><a xlink:href="../../dd/d9e/torcwebsocketthread_8h.html" target="_top" xlink:title="torcwebsocketthread.h">
<polygon fill="white" stroke="black" points="1296.5,-280.5 1296.5,-299.5 1422.5,-299.5 1422.5,-280.5 1296.5,-280.5"/>
<text text-anchor="middle" x="1359.5" y="-287.5" font-family="Helvetica,sans-Serif" font-size="10.00">torcwebsocketthread.h</text>
</a>
</g>
</g>
<!-- Node8&#45;&gt;Node38 -->
<g id="edge68" class="edge"><title>Node8&#45;&gt;Node38</title>
<path fill="none" stroke="midnightblue" d="M991.434,-396.184C1044.25,-390.014 1132.25,-377.465 1205.5,-356 1252.04,-342.362 1303.44,-318.832 1333.52,-304.136"/>
<polygon fill="midnightblue" stroke="midnightblue" points="1335.46,-307.085 1342.87,-299.517 1332.36,-300.809 1335.46,-307.085"/>
</g>
<!-- Node47 -->
<g id="node47" class="node"><title>Node47</title>
<g id="a_node47"><a xlink:href="../../db/d11/torchttpserverlistener_8h.html" target="_top" xlink:title="torchttpserverlistener.h">
<polygon fill="white" stroke="black" points="335.5,-336.5 335.5,-355.5 463.5,-355.5 463.5,-336.5 335.5,-336.5"/>
<text text-anchor="middle" x="399.5" y="-343.5" font-family="Helvetica,sans-Serif" font-size="10.00">torchttpserverlistener.h</text>
</a>
</g>
</g>
<!-- Node8&#45;&gt;Node47 -->
<g id="edge69" class="edge"><title>Node8&#45;&gt;Node47</title>
<path fill="none" stroke="midnightblue" d="M897.562,-396.349C802.823,-386.962 588.074,-365.684 473.983,-354.38"/>
<polygon fill="midnightblue" stroke="midnightblue" points="474.23,-350.887 463.934,-353.384 473.54,-357.853 474.23,-350.887"/>
</g>
<!-- Node13 -->
<g id="node13" class="node"><title>Node13</title>
<polygon fill="white" stroke="#bfbfbf" points="1130,-168.5 1130,-187.5 1185,-187.5 1185,-168.5 1130,-168.5"/>
<text text-anchor="middle" x="1157.5" y="-175.5" font-family="Helvetica,sans-Serif" font-size="10.00">QObject</text>
</g>
<!-- Node12&#45;&gt;Node13 -->
<g id="edge12" class="edge"><title>Node12&#45;&gt;Node13</title>
<path fill="none" stroke="midnightblue" d="M1070.03,-338.603C1139.32,-324.245 1297.69,-287.302 1328.5,-244 1333.65,-236.757 1333.93,-231.04 1328.5,-224 1324.36,-218.623 1244.27,-199.187 1195.19,-187.691"/>
<polygon fill="midnightblue" stroke="midnightblue" points="1195.76,-184.23 1185.22,-185.366 1194.17,-191.047 1195.76,-184.23"/>
</g>
<!-- Node14 -->
<g id="node14" class="node"><title>Node14</title>
<g id="a_node14"><a xlink:href="../../db/df5/torcsetting_8h.html" target="_top" xlink:title="torcsetting.h">
<polygon fill="white" stroke="black" points="1030,-280.5 1030,-299.5 1107,-299.5 1107,-280.5 1030,-280.5"/>
<text text-anchor="middle" x="1068.5" y="-287.5" font-family="Helvetica,sans-Serif" font-size="10.00">torcsetting.h</text>
</a>
</g>
</g>
<!-- Node12&#45;&gt;Node14 -->
<g id="edge13" class="edge"><title>Node12&#45;&gt;Node14</title>
<path fill="none" stroke="midnightblue" d="M1042.62,-336.083C1046.91,-328.613 1053.16,-317.724 1058.44,-308.52"/>
<polygon fill="midnightblue" stroke="midnightblue" points="1061.53,-310.166 1063.48,-299.751 1055.46,-306.681 1061.53,-310.166"/>
</g>
<!-- Node18 -->
<g id="node18" class="node"><title>Node18</title>
<g id="a_node18"><a xlink:href="../../d3/dee/torchttpservice_8h.html" target="_top" xlink:title="torchttpservice.h">
<polygon fill="white" stroke="black" points="664.5,-224.5 664.5,-243.5 762.5,-243.5 762.5,-224.5 664.5,-224.5"/>
<text text-anchor="middle" x="713.5" y="-231.5" font-family="Helvetica,sans-Serif" font-size="10.00">torchttpservice.h</text>
</a>
</g>
</g>
<!-- Node12&#45;&gt;Node18 -->
<g id="edge38" class="edge"><title>Node12&#45;&gt;Node18</title>
<path fill="none" stroke="midnightblue" d="M1004.88,-337.001C973.389,-328.92 924.561,-315.447 883.5,-300 863.773,-292.579 860.011,-287.973 840.5,-280 810.297,-267.657 775.304,-255.406 749.707,-246.81"/>
<polygon fill="midnightblue" stroke="midnightblue" points="750.637,-243.43 740.043,-243.588 748.423,-250.071 750.637,-243.43"/>
</g>
<!-- Node14&#45;&gt;Node11 -->
<g id="edge15" class="edge"><title>Node14&#45;&gt;Node11</title>
<path fill="none" stroke="midnightblue" d="M1100.98,-280.444C1136.22,-271.162 1192.6,-256.309 1231.26,-246.127"/>
<polygon fill="midnightblue" stroke="midnightblue" points="1232.39,-249.448 1241.17,-243.516 1230.61,-242.679 1232.39,-249.448"/>
</g>
<!-- Node14&#45;&gt;Node13 -->
<g id="edge16" class="edge"><title>Node14&#45;&gt;Node13</title>
<path fill="none" stroke="midnightblue" d="M1080.41,-280.277C1091.42,-271.824 1107.8,-258.225 1119.5,-244 1131.54,-229.36 1142.14,-210.446 1149.06,-196.799"/>
<polygon fill="midnightblue" stroke="midnightblue" points="1152.34,-198.068 1153.6,-187.548 1146.05,-194.984 1152.34,-198.068"/>
</g>
<!-- Node15 -->
<g id="node15" class="node"><title>Node15</title>
<polygon fill="white" stroke="#bfbfbf" points="1168,-224.5 1168,-243.5 1209,-243.5 1209,-224.5 1168,-224.5"/>
<text text-anchor="middle" x="1188.5" y="-231.5" font-family="Helvetica,sans-Serif" font-size="10.00">QSet</text>
</g>
<!-- Node14&#45;&gt;Node15 -->
<g id="edge14" class="edge"><title>Node14&#45;&gt;Node15</title>
<path fill="none" stroke="midnightblue" d="M1087.51,-280.444C1107.09,-271.636 1137.81,-257.812 1160.23,-247.722"/>
<polygon fill="midnightblue" stroke="midnightblue" points="1161.89,-250.812 1169.57,-243.516 1159.02,-244.428 1161.89,-250.812"/>
</g>
<!-- Node16 -->
<g id="node16" class="node"><title>Node16</title>
<polygon fill="white" stroke="#bfbfbf" points="818.5,-224.5 818.5,-243.5 876.5,-243.5 876.5,-224.5 818.5,-224.5"/>
<text text-anchor="middle" x="847.5" y="-231.5" font-family="Helvetica,sans-Serif" font-size="10.00">QVariant</text>
</g>
<!-- Node14&#45;&gt;Node16 -->
<g id="edge17" class="edge"><title>Node14&#45;&gt;Node16</title>
<path fill="none" stroke="midnightblue" d="M1033.48,-280.444C993.453,-270.663 928.111,-254.697 886.492,-244.527"/>
<polygon fill="midnightblue" stroke="midnightblue" points="887.253,-241.111 876.708,-242.137 885.592,-247.91 887.253,-241.111"/>
</g>
<!-- Node17 -->
<g id="node17" class="node"><title>Node17</title>
<polygon fill="white" stroke="#bfbfbf" points="1042,-224.5 1042,-243.5 1111,-243.5 1111,-224.5 1042,-224.5"/>
<text text-anchor="middle" x="1076.5" y="-231.5" font-family="Helvetica,sans-Serif" font-size="10.00">QStringList</text>
</g>
<!-- Node14&#45;&gt;Node17 -->
<g id="edge18" class="edge"><title>Node14&#45;&gt;Node17</title>
<path fill="none" stroke="midnightblue" d="M1069.82,-280.083C1070.88,-272.927 1072.41,-262.635 1073.73,-253.691"/>
<polygon fill="midnightblue" stroke="midnightblue" points="1077.2,-254.156 1075.2,-243.751 1070.28,-253.13 1077.2,-254.156"/>
</g>
<!-- Node14&#45;&gt;Node18 -->
<g id="edge19" class="edge"><title>Node14&#45;&gt;Node18</title>
<path fill="none" stroke="midnightblue" d="M1029.83,-283.118C967.788,-273.68 845.575,-255.09 772.555,-243.983"/>
<polygon fill="midnightblue" stroke="midnightblue" points="773.002,-240.511 762.59,-242.467 771.95,-247.431 773.002,-240.511"/>
</g>
<!-- Node30 -->
<g id="node30" class="node"><title>Node30</title>
<g id="a_node30"><a xlink:href="../../d8/dfe/torcreferencecounted_8h.html" target="_top" xlink:title="torcreferencecounted.h">
<polygon fill="white" stroke="black" points="895,-224.5 895,-243.5 1024,-243.5 1024,-224.5 895,-224.5"/>
<text text-anchor="middle" x="959.5" y="-231.5" font-family="Helvetica,sans-Serif" font-size="10.00">torcreferencecounted.h</text>
</a>
</g>
</g>
<!-- Node14&#45;&gt;Node30 -->
<g id="edge36" class="edge"><title>Node14&#45;&gt;Node30</title>
<path fill="none" stroke="midnightblue" d="M1050.99,-280.324C1033.43,-271.625 1006.17,-258.12 985.969,-248.113"/>
<polygon fill="midnightblue" stroke="midnightblue" points="987.484,-244.958 976.969,-243.655 984.376,-251.23 987.484,-244.958"/>
</g>
<!-- Node18&#45;&gt;Node10 -->
<g id="edge21" class="edge"><title>Node18&#45;&gt;Node10</title>
<path fill="none" stroke="midnightblue" d="M762.791,-227.877C777.777,-226.455 794.301,-225.022 809.5,-224 1197.16,-197.926 1300.85,-243.03 1689.76,-187.749"/>
<polygon fill="midnightblue" stroke="midnightblue" points="1690.48,-191.182 1699.88,-186.297 1689.49,-184.253 1690.48,-191.182"/>
</g>
<!-- Node19 -->
<g id="node19" class="node"><title>Node19</title>
<polygon fill="white" stroke="#bfbfbf" points="791.5,-56.5 791.5,-75.5 835.5,-75.5 835.5,-56.5 791.5,-56.5"/>
<text text-anchor="middle" x="813.5" y="-63.5" font-family="Helvetica,sans-Serif" font-size="10.00">QMap</text>
</g>
<!-- Node18&#45;&gt;Node19 -->
<g id="edge20" class="edge"><title>Node18&#45;&gt;Node19</title>
<path fill="none" stroke="midnightblue" d="M728.958,-224.491C742.113,-216.561 760.7,-203.626 772.5,-188 796.029,-156.84 806.586,-111.318 810.885,-85.9202"/>
<polygon fill="midnightblue" stroke="midnightblue" points="814.382,-86.2072 812.445,-75.7911 807.464,-85.1422 814.382,-86.2072"/>
</g>
<!-- Node20 -->
<g id="node20" class="node"><title>Node20</title>
<polygon fill="white" stroke="#bfbfbf" points="669,-168.5 669,-187.5 748,-187.5 748,-168.5 669,-168.5"/>
<text text-anchor="middle" x="708.5" y="-175.5" font-family="Helvetica,sans-Serif" font-size="10.00">QMetaObject</text>
</g>
<!-- Node18&#45;&gt;Node20 -->
<g id="edge22" class="edge"><title>Node18&#45;&gt;Node20</title>
<path fill="none" stroke="midnightblue" d="M712.674,-224.083C712.019,-217.006 711.08,-206.861 710.258,-197.986"/>
<polygon fill="midnightblue" stroke="midnightblue" points="713.717,-197.386 709.31,-187.751 706.747,-198.031 713.717,-197.386"/>
</g>
<!-- Node21 -->
<g id="node21" class="node"><title>Node21</title>
<polygon fill="white" stroke="#bfbfbf" points="552,-168.5 552,-187.5 651,-187.5 651,-168.5 552,-168.5"/>
<text text-anchor="middle" x="601.5" y="-175.5" font-family="Helvetica,sans-Serif" font-size="10.00">QCoreApplication</text>
</g>
<!-- Node18&#45;&gt;Node21 -->
<g id="edge23" class="edge"><title>Node18&#45;&gt;Node21</title>
<path fill="none" stroke="midnightblue" d="M695.505,-224.324C677.462,-215.625 649.453,-202.12 628.697,-192.113"/>
<polygon fill="midnightblue" stroke="midnightblue" points="629.978,-188.845 619.45,-187.655 626.938,-195.15 629.978,-188.845"/>
</g>
<!-- Node18&#45;&gt;Node22 -->
<g id="edge24" class="edge"><title>Node18&#45;&gt;Node22</title>
<path fill="none" stroke="midnightblue" d="M677.214,-224.444C637.517,-215.083 573.793,-200.056 530.588,-189.868"/>
<polygon fill="midnightblue" stroke="midnightblue" points="531.152,-186.405 520.616,-187.516 529.546,-193.218 531.152,-186.405"/>
</g>
<!-- Node25 -->
<g id="node25" class="node"><title>Node25</title>
<g id="a_node25"><a xlink:href="../../df/dd7/torchttprequest_8h.html" target="_top" xlink:title="torchttprequest.h">
<polygon fill="white" stroke="black" points="685,-112.5 685,-131.5 786,-131.5 786,-112.5 685,-112.5"/>
<text text-anchor="middle" x="735.5" y="-119.5" font-family="Helvetica,sans-Serif" font-size="10.00">torchttprequest.h</text>
</a>
</g>
</g>
<!-- Node18&#45;&gt;Node25 -->
<g id="edge35" class="edge"><title>Node18&#45;&gt;Node25</title>
<path fill="none" stroke="midnightblue" d="M725.997,-224.302C736.374,-216.251 750.387,-203.245 756.5,-188 762.893,-172.057 755.329,-153.347 747.555,-140.104"/>
<polygon fill="midnightblue" stroke="midnightblue" points="750.405,-138.066 742.054,-131.546 744.517,-141.851 750.405,-138.066"/>
</g>
<!-- Node23 -->
<g id="node23" class="node"><title>Node23</title>
<polygon fill="white" stroke="#bfbfbf" points="515,-56.5 515,-75.5 568,-75.5 568,-56.5 515,-56.5"/>
<text text-anchor="middle" x="541.5" y="-63.5" font-family="Helvetica,sans-Serif" font-size="10.00">QString</text>
</g>
<!-- Node22&#45;&gt;Node23 -->
<g id="edge25" class="edge"><title>Node22&#45;&gt;Node23</title>
<path fill="none" stroke="midnightblue" d="M485.882,-168.145C488.162,-155.205 493.488,-130.644 503.5,-112 509.16,-101.46 517.584,-91.1547 525.063,-83.0712"/>
<polygon fill="midnightblue" stroke="midnightblue" points="527.656,-85.4244 532.09,-75.8018 522.623,-80.5594 527.656,-85.4244"/>
</g>
<!-- Node24 -->
<g id="node24" class="node"><title>Node24</title>
<polygon fill="white" stroke="#bfbfbf" points="512.5,-112.5 512.5,-131.5 590.5,-131.5 590.5,-112.5 512.5,-112.5"/>
<text text-anchor="middle" x="551.5" y="-119.5" font-family="Helvetica,sans-Serif" font-size="10.00">QVariantMap</text>
</g>
<!-- Node22&#45;&gt;Node24 -->
<g id="edge26" class="edge"><title>Node22&#45;&gt;Node24</title>
<path fill="none" stroke="midnightblue" d="M495.265,-168.324C505.266,-160.263 520.387,-148.077 532.43,-138.369"/>
<polygon fill="midnightblue" stroke="midnightblue" points="534.95,-140.834 540.539,-131.834 530.557,-135.384 534.95,-140.834"/>
</g>
<!-- Node22&#45;&gt;Node25 -->
<g id="edge27" class="edge"><title>Node22&#45;&gt;Node25</title>
<path fill="none" stroke="midnightblue" d="M524.272,-168.444C568.058,-159.023 638.514,-143.866 685.88,-133.675"/>
<polygon fill="midnightblue" stroke="midnightblue" points="686.874,-137.041 695.914,-131.516 685.402,-130.198 686.874,-137.041"/>
</g>
<!-- Node25&#45;&gt;Node19 -->
<g id="edge28" class="edge"><title>Node25&#45;&gt;Node19</title>
<path fill="none" stroke="midnightblue" d="M748.032,-112.324C760.086,-103.979 778.527,-91.2122 792.769,-81.3524"/>
<polygon fill="midnightblue" stroke="midnightblue" points="794.769,-84.2243 800.999,-75.6545 790.785,-78.469 794.769,-84.2243"/>
</g>
<!-- Node25&#45;&gt;Node23 -->
<g id="edge30" class="edge"><title>Node25&#45;&gt;Node23</title>
<path fill="none" stroke="midnightblue" d="M704.76,-112.444C670.286,-102.848 614.424,-87.2984 577.822,-77.1104"/>
<polygon fill="midnightblue" stroke="midnightblue" points="578.616,-73.6982 568.044,-74.3884 576.739,-80.4419 578.616,-73.6982"/>
</g>
<!-- Node26 -->
<g id="node26" class="node"><title>Node26</title>
<polygon fill="white" stroke="#bfbfbf" points="642,-56.5 642,-75.5 683,-75.5 683,-56.5 642,-56.5"/>
<text text-anchor="middle" x="662.5" y="-63.5" font-family="Helvetica,sans-Serif" font-size="10.00">QPair</text>
</g>
<!-- Node25&#45;&gt;Node26 -->
<g id="edge29" class="edge"><title>Node25&#45;&gt;Node26</title>
<path fill="none" stroke="midnightblue" d="M723.771,-112.324C712.663,-104.107 695.758,-91.6017 682.517,-81.8069"/>
<polygon fill="midnightblue" stroke="midnightblue" points="684.563,-78.9671 674.442,-75.8339 680.4,-84.5948 684.563,-78.9671"/>
</g>
<!-- Node27 -->
<g id="node27" class="node"><title>Node27</title>
<polygon fill="white" stroke="#bfbfbf" points="701,-56.5 701,-75.5 772,-75.5 772,-56.5 701,-56.5"/>
<text text-anchor="middle" x="736.5" y="-63.5" font-family="Helvetica,sans-Serif" font-size="10.00">QDateTime</text>
</g>
<!-- Node25&#45;&gt;Node27 -->
<g id="edge31" class="edge"><title>Node25&#45;&gt;Node27</title>
<path fill="none" stroke="midnightblue" d="M735.665,-112.083C735.796,-105.006 735.984,-94.8611 736.148,-85.9865"/>
<polygon fill="midnightblue" stroke="midnightblue" points="739.652,-85.8142 736.338,-75.7511 732.653,-85.6845 739.652,-85.8142"/>
</g>
<!-- Node28 -->
<g id="node28" class="node"><title>Node28</title>
<g id="a_node28"><a xlink:href="../../de/de6/torchttpreader_8h.html" target="_top" xlink:title="torchttpreader.h">
<polygon fill="white" stroke="black" points="1166,-56.5 1166,-75.5 1261,-75.5 1261,-56.5 1166,-56.5"/>
<text text-anchor="middle" x="1213.5" y="-63.5" font-family="Helvetica,sans-Serif" font-size="10.00">torchttpreader.h</text>
</a>
</g>
</g>
<!-- Node25&#45;&gt;Node28 -->
<g id="edge32" class="edge"><title>Node25&#45;&gt;Node28</title>
<path fill="none" stroke="midnightblue" d="M786.202,-115.272C875.711,-105.16 1061.18,-84.2075 1155.58,-73.543"/>
<polygon fill="midnightblue" stroke="midnightblue" points="1156.26,-76.9886 1165.81,-72.3881 1155.48,-70.0329 1156.26,-76.9886"/>
</g>
<!-- Node28&#45;&gt;Node9 -->
<g id="edge34" class="edge"><title>Node28&#45;&gt;Node9</title>
<path fill="none" stroke="midnightblue" d="M1255.97,-56.4435C1304.85,-46.5944 1384.86,-30.4731 1435.27,-20.3148"/>
<polygon fill="midnightblue" stroke="midnightblue" points="1436.14,-23.7105 1445.25,-18.3042 1434.76,-16.8484 1436.14,-23.7105"/>
</g>
<!-- Node29 -->
<g id="node29" class="node"><title>Node29</title>
<polygon fill="white" stroke="#bfbfbf" points="1178,-0.5 1178,-19.5 1249,-19.5 1249,-0.5 1178,-0.5"/>
<text text-anchor="middle" x="1213.5" y="-7.5" font-family="Helvetica,sans-Serif" font-size="10.00">QByteArray</text>
</g>
<!-- Node28&#45;&gt;Node29 -->
<g id="edge33" class="edge"><title>Node28&#45;&gt;Node29</title>
<path fill="none" stroke="midnightblue" d="M1213.5,-56.083C1213.5,-49.0059 1213.5,-38.8611 1213.5,-29.9865"/>
<polygon fill="midnightblue" stroke="midnightblue" points="1217,-29.751 1213.5,-19.7511 1210,-29.7511 1217,-29.751"/>
</g>
<!-- Node31 -->
<g id="node31" class="node"><title>Node31</title>
<polygon fill="white" stroke="#bfbfbf" points="924.5,-168.5 924.5,-187.5 994.5,-187.5 994.5,-168.5 924.5,-168.5"/>
<text text-anchor="middle" x="959.5" y="-175.5" font-family="Helvetica,sans-Serif" font-size="10.00">QAtomicInt</text>
</g>
<!-- Node30&#45;&gt;Node31 -->
<g id="edge37" class="edge"><title>Node30&#45;&gt;Node31</title>
<path fill="none" stroke="midnightblue" d="M959.5,-224.083C959.5,-217.006 959.5,-206.861 959.5,-197.986"/>
<polygon fill="midnightblue" stroke="midnightblue" points="963,-197.751 959.5,-187.751 956,-197.751 963,-197.751"/>
</g>
<!-- Node32&#45;&gt;Node21 -->
<g id="edge40" class="edge"><title>Node32&#45;&gt;Node21</title>
<path fill="none" stroke="midnightblue" d="M596.491,-224.083C597.286,-216.927 598.429,-206.635 599.423,-197.691"/>
<polygon fill="midnightblue" stroke="midnightblue" points="602.902,-198.076 600.528,-187.751 595.945,-197.303 602.902,-198.076"/>
</g>
<!-- Node32&#45;&gt;Node22 -->
<g id="edge41" class="edge"><title>Node32&#45;&gt;Node22</title>
<path fill="none" stroke="midnightblue" d="M577.666,-224.324C559.784,-215.625 532.025,-202.12 511.454,-192.113"/>
<polygon fill="midnightblue" stroke="midnightblue" points="512.813,-188.882 502.29,-187.655 509.751,-195.177 512.813,-188.882"/>
</g>
<!-- Node33&#45;&gt;Node13 -->
<g id="edge43" class="edge"><title>Node33&#45;&gt;Node13</title>
<path fill="none" stroke="midnightblue" d="M892.912,-282.106C843.891,-273.49 781.507,-255.846 809.5,-224 829.77,-200.94 1033.91,-186.293 1119.77,-181.109"/>
<polygon fill="midnightblue" stroke="midnightblue" points="1120.1,-184.596 1129.88,-180.51 1119.69,-177.608 1120.1,-184.596"/>
</g>
<!-- Node33&#45;&gt;Node16 -->
<g id="edge44" class="edge"><title>Node33&#45;&gt;Node16</title>
<path fill="none" stroke="midnightblue" d="M928.915,-280.324C913.501,-271.743 889.688,-258.486 871.79,-248.522"/>
<polygon fill="midnightblue" stroke="midnightblue" points="873.486,-245.461 863.046,-243.655 870.081,-251.577 873.486,-245.461"/>
</g>
<!-- Node33&#45;&gt;Node18 -->
<g id="edge45" class="edge"><title>Node33&#45;&gt;Node18</title>
<path fill="none" stroke="midnightblue" d="M907.897,-280.444C867.769,-271.063 803.302,-255.993 759.715,-245.804"/>
<polygon fill="midnightblue" stroke="midnightblue" points="760.466,-242.385 749.931,-243.516 758.872,-249.201 760.466,-242.385"/>
</g>
<!-- Node34&#45;&gt;Node22 -->
<g id="edge47" class="edge"><title>Node34&#45;&gt;Node22</title>
<path fill="none" stroke="midnightblue" d="M450.934,-280.443C453.161,-267.874 457.893,-243.772 464.5,-224 467.548,-214.878 471.78,-205.083 475.566,-196.968"/>
<polygon fill="midnightblue" stroke="midnightblue" points="478.813,-198.293 480.001,-187.765 472.507,-195.254 478.813,-198.293"/>
</g>
<!-- Node35&#45;&gt;Node22 -->
<g id="edge49" class="edge"><title>Node35&#45;&gt;Node22</title>
<path fill="none" stroke="midnightblue" d="M673.011,-280.475C624.769,-272.06 558.037,-258.396 535.5,-244 517.056,-232.219 502.481,-211.391 493.715,-196.486"/>
<polygon fill="midnightblue" stroke="midnightblue" points="496.741,-194.726 488.811,-187.701 490.629,-198.138 496.741,-194.726"/>
</g>
<!-- Node36&#45;&gt;Node22 -->
<g id="edge51" class="edge"><title>Node36&#45;&gt;Node22</title>
<path fill="none" stroke="midnightblue" d="M557.55,-280.484C539.479,-273.445 516.508,-261.699 502.5,-244 491.949,-230.669 487.576,-211.552 485.767,-197.5"/>
<polygon fill="midnightblue" stroke="midnightblue" points="489.249,-197.138 484.798,-187.524 482.282,-197.815 489.249,-197.138"/>
</g>
<!-- Node37&#45;&gt;Node10 -->
<g id="edge54" class="edge"><title>Node37&#45;&gt;Node10</title>
<path fill="none" stroke="midnightblue" d="M1421.36,-336.309C1474.28,-309.024 1637.37,-224.947 1700.85,-192.224"/>
<polygon fill="midnightblue" stroke="midnightblue" points="1702.52,-195.298 1709.81,-187.605 1699.32,-189.076 1702.52,-195.298"/>
</g>
<!-- Node37&#45;&gt;Node13 -->
<g id="edge53" class="edge"><title>Node37&#45;&gt;Node13</title>
<path fill="none" stroke="midnightblue" d="M1412.73,-336.202C1423.35,-323.739 1439.55,-300.208 1431.5,-280 1418.82,-248.163 1408.48,-240.6 1378.5,-224 1307.51,-184.691 1278.95,-204.502 1199.5,-188 1198.04,-187.697 1196.55,-187.386 1195.05,-187.071"/>
<polygon fill="midnightblue" stroke="midnightblue" points="1195.56,-183.601 1185.05,-184.956 1194.11,-190.45 1195.56,-183.601"/>
</g>
<!-- Node37&#45;&gt;Node38 -->
<g id="edge55" class="edge"><title>Node37&#45;&gt;Node38</title>
<path fill="none" stroke="midnightblue" d="M1397.07,-336.083C1390.65,-328.377 1381.19,-317.033 1373.38,-307.653"/>
<polygon fill="midnightblue" stroke="midnightblue" points="1375.88,-305.193 1366.79,-299.751 1370.51,-309.674 1375.88,-305.193"/>
</g>
<!-- Node38&#45;&gt;Node13 -->
<g id="edge56" class="edge"><title>Node38&#45;&gt;Node13</title>
<path fill="none" stroke="midnightblue" d="M1362.97,-280.31C1367.79,-266.688 1374.51,-240.194 1361.5,-224 1360.84,-223.181 1254.17,-199.954 1195.37,-187.199"/>
<polygon fill="midnightblue" stroke="midnightblue" points="1195.84,-183.72 1185.32,-185.022 1194.36,-190.561 1195.84,-183.72"/>
</g>
<!-- Node39 -->
<g id="node39" class="node"><title>Node39</title>
<g id="a_node39"><a xlink:href="../../da/dbe/torcwebsocket_8h.html" target="_top" xlink:title="torcwebsocket.h">
<polygon fill="white" stroke="black" points="1452,-224.5 1452,-243.5 1547,-243.5 1547,-224.5 1452,-224.5"/>
<text text-anchor="middle" x="1499.5" y="-231.5" font-family="Helvetica,sans-Serif" font-size="10.00">torcwebsocket.h</text>
</a>
</g>
</g>
<!-- Node38&#45;&gt;Node39 -->
<g id="edge57" class="edge"><title>Node38&#45;&gt;Node39</title>
<path fill="none" stroke="midnightblue" d="M1381.68,-280.444C1404.93,-271.478 1441.65,-257.314 1467.92,-247.183"/>
<polygon fill="midnightblue" stroke="midnightblue" points="1469.35,-250.381 1477.42,-243.516 1466.83,-243.85 1469.35,-250.381"/>
</g>
<!-- Node39&#45;&gt;Node13 -->
<g id="edge60" class="edge"><title>Node39&#45;&gt;Node13</title>
<path fill="none" stroke="midnightblue" d="M1451.77,-226.008C1373.43,-214.505 1223.79,-192.42 1199.5,-188 1198.03,-187.733 1196.54,-187.453 1195.03,-187.163"/>
<polygon fill="midnightblue" stroke="midnightblue" points="1195.51,-183.689 1185.01,-185.152 1194.13,-190.552 1195.51,-183.689"/>
</g>
<!-- Node39&#45;&gt;Node28 -->
<g id="edge63" class="edge"><title>Node39&#45;&gt;Node28</title>
<path fill="none" stroke="midnightblue" d="M1451.92,-228.005C1379.34,-219.941 1247.72,-203.397 1232.5,-188 1205.68,-160.878 1207.12,-112.358 1210.38,-85.7423"/>
<polygon fill="midnightblue" stroke="midnightblue" points="1213.85,-86.1999 1211.81,-75.8028 1206.92,-85.201 1213.85,-86.1999"/>
</g>
<!-- Node40 -->
<g id="node40" class="node"><title>Node40</title>
<polygon fill="white" stroke="#bfbfbf" points="1241.5,-168.5 1241.5,-187.5 1279.5,-187.5 1279.5,-168.5 1241.5,-168.5"/>
<text text-anchor="middle" x="1260.5" y="-175.5" font-family="Helvetica,sans-Serif" font-size="10.00">QUrl</text>
</g>
<!-- Node39&#45;&gt;Node40 -->
<g id="edge58" class="edge"><title>Node39&#45;&gt;Node40</title>
<path fill="none" stroke="midnightblue" d="M1453.08,-224.498C1412.3,-216.715 1351.19,-204.298 1289.59,-188.088"/>
<polygon fill="midnightblue" stroke="midnightblue" points="1290.27,-184.646 1279.7,-185.454 1288.47,-191.411 1290.27,-184.646"/>
</g>
<!-- Node41 -->
<g id="node41" class="node"><title>Node41</title>
<polygon fill="white" stroke="#bfbfbf" points="1402,-168.5 1402,-187.5 1453,-187.5 1453,-168.5 1402,-168.5"/>
<text text-anchor="middle" x="1427.5" y="-175.5" font-family="Helvetica,sans-Serif" font-size="10.00">QTimer</text>
</g>
<!-- Node39&#45;&gt;Node41 -->
<g id="edge59" class="edge"><title>Node39&#45;&gt;Node41</title>
<path fill="none" stroke="midnightblue" d="M1487.93,-224.324C1477.08,-216.185 1460.62,-203.839 1447.62,-194.087"/>
<polygon fill="midnightblue" stroke="midnightblue" points="1449.38,-191.034 1439.28,-187.834 1445.18,-196.634 1449.38,-191.034"/>
</g>
<!-- Node42 -->
<g id="node42" class="node"><title>Node42</title>
<polygon fill="white" stroke="#bfbfbf" points="1510,-168.5 1510,-187.5 1581,-187.5 1581,-168.5 1510,-168.5"/>
<text text-anchor="middle" x="1545.5" y="-175.5" font-family="Helvetica,sans-Serif" font-size="10.00">QSslSocket</text>
</g>
<!-- Node39&#45;&gt;Node42 -->
<g id="edge61" class="edge"><title>Node39&#45;&gt;Node42</title>
<path fill="none" stroke="midnightblue" d="M1507.1,-224.083C1513.73,-216.298 1523.52,-204.801 1531.56,-195.367"/>
<polygon fill="midnightblue" stroke="midnightblue" points="1534.23,-197.633 1538.05,-187.751 1528.9,-193.094 1534.23,-197.633"/>
</g>
<!-- Node43 -->
<g id="node43" class="node"><title>Node43</title>
<polygon fill="white" stroke="#bfbfbf" points="1297.5,-168.5 1297.5,-187.5 1383.5,-187.5 1383.5,-168.5 1297.5,-168.5"/>
<text text-anchor="middle" x="1340.5" y="-175.5" font-family="Helvetica,sans-Serif" font-size="10.00">QHostAddress</text>
</g>
<!-- Node39&#45;&gt;Node43 -->
<g id="edge62" class="edge"><title>Node39&#45;&gt;Node43</title>
<path fill="none" stroke="midnightblue" d="M1474.31,-224.444C1447.56,-215.359 1405.1,-200.939 1375.19,-190.783"/>
<polygon fill="midnightblue" stroke="midnightblue" points="1376.17,-187.418 1365.58,-187.516 1373.92,-194.046 1376.17,-187.418"/>
</g>
<!-- Node44 -->
<g id="node44" class="node"><title>Node44</title>
<g id="a_node44"><a xlink:href="../../d7/d28/torcwebsocketreader_8h.html" target="_top" xlink:title="torcwebsocketreader.h">
<polygon fill="white" stroke="black" points="1419,-112.5 1419,-131.5 1544,-131.5 1544,-112.5 1419,-112.5"/>
<text text-anchor="middle" x="1481.5" y="-119.5" font-family="Helvetica,sans-Serif" font-size="10.00">torcwebsocketreader.h</text>
</a>
</g>
</g>
<!-- Node39&#45;&gt;Node44 -->
<g id="edge64" class="edge"><title>Node39&#45;&gt;Node44</title>
<path fill="none" stroke="midnightblue" d="M1498.09,-224.368C1495.18,-206.617 1488.48,-165.666 1484.54,-141.597"/>
<polygon fill="midnightblue" stroke="midnightblue" points="1487.97,-140.895 1482.91,-131.591 1481.07,-142.025 1487.97,-140.895"/>
</g>
<!-- Node45 -->
<g id="node45" class="node"><title>Node45</title>
<g id="a_node45"><a xlink:href="../../dd/db0/torcqthread_8h.html" target="_top" xlink:title="torcqthread.h">
<polygon fill="white" stroke="black" points="1599.5,-168.5 1599.5,-187.5 1681.5,-187.5 1681.5,-168.5 1599.5,-168.5"/>
<text text-anchor="middle" x="1640.5" y="-175.5" font-family="Helvetica,sans-Serif" font-size="10.00">torcqthread.h</text>
</a>
</g>
</g>
<!-- Node39&#45;&gt;Node45 -->
<g id="edge66" class="edge"><title>Node39&#45;&gt;Node45</title>
<path fill="none" stroke="midnightblue" d="M1521.84,-224.444C1545.25,-215.478 1582.24,-201.314 1608.69,-191.183"/>
<polygon fill="midnightblue" stroke="midnightblue" points="1610.18,-194.361 1618.26,-187.516 1607.67,-187.824 1610.18,-194.361"/>
</g>
<!-- Node44&#45;&gt;Node9 -->
<g id="edge65" class="edge"><title>Node44&#45;&gt;Node9</title>
<path fill="none" stroke="midnightblue" d="M1481.5,-112.368C1481.5,-94.617 1481.5,-53.6664 1481.5,-29.5974"/>
<polygon fill="midnightblue" stroke="midnightblue" points="1485,-29.5914 1481.5,-19.5914 1478,-29.5915 1485,-29.5914"/>
</g>
<!-- Node46 -->
<g id="node46" class="node"><title>Node46</title>
<polygon fill="white" stroke="#bfbfbf" points="1612,-112.5 1612,-131.5 1669,-131.5 1669,-112.5 1612,-112.5"/>
<text text-anchor="middle" x="1640.5" y="-119.5" font-family="Helvetica,sans-Serif" font-size="10.00">QThread</text>
</g>
<!-- Node45&#45;&gt;Node46 -->
<g id="edge67" class="edge"><title>Node45&#45;&gt;Node46</title>
<path fill="none" stroke="midnightblue" d="M1640.5,-168.083C1640.5,-161.006 1640.5,-150.861 1640.5,-141.986"/>
<polygon fill="midnightblue" stroke="midnightblue" points="1644,-141.751 1640.5,-131.751 1637,-141.751 1644,-141.751"/>
</g>
<!-- Node48 -->
<g id="node48" class="node"><title>Node48</title>
<polygon fill="white" stroke="#bfbfbf" points="296,-280.5 296,-299.5 367,-299.5 367,-280.5 296,-280.5"/>
<text text-anchor="middle" x="331.5" y="-287.5" font-family="Helvetica,sans-Serif" font-size="10.00">QTcpServer</text>
</g>
<!-- Node47&#45;&gt;Node48 -->
<g id="edge70" class="edge"><title>Node47&#45;&gt;Node48</title>
<path fill="none" stroke="midnightblue" d="M388.575,-336.324C378.325,-328.185 362.779,-315.839 350.499,-306.087"/>
<polygon fill="midnightblue" stroke="midnightblue" points="352.632,-303.312 342.624,-299.834 348.279,-308.794 352.632,-303.312"/>
</g>
</g>
</svg>
        <g id="navigator" transform="translate(0 0)" fill="#404254">
                <rect fill="#f2f5e9" fill-opacity="0.5" stroke="#606060" stroke-width=".5" x="0" y="0" width="60" height="60"/>
                <use id="zoomplus" xlink:href="#zoomPlus" x="17" y="9" onmousedown="handleZoom(evt,'in')"/>
                <use id="zoomminus" xlink:href="#zoomMin" x="42" y="9" onmousedown="handleZoom(evt,'out')"/>
                <use id="reset" xlink:href="#resetDef" x="30" y="36" onmousedown="handleReset()"/>
                <g id="arrowUp" xlink:href="#dirArrow" transform="translate(30 24)" onmousedown="handlePan(0,-1)">
                  <use xlink:href="#rim" fill="#404040">
                        <set attributeName="fill" to="#808080" begin="arrowUp.mouseover" end="arrowUp.mouseout"/>
                  </use>
                  <path fill="none" stroke="white" stroke-width="1.5" d="M0,-3.0v7 M-2.5,-0.5L0,-3.0L2.5,-0.5"/>
                </g>
                <g id="arrowRight" xlink:href="#dirArrow" transform="rotate(90) translate(36 -43)" onmousedown="handlePan(1,0)">
                  <use xlink:href="#rim" fill="#404040">
                        <set attributeName="fill" to="#808080" begin="arrowRight.mouseover" end="arrowRight.mouseout"/>
                  </use>
                  <path fill="none" stroke="white" stroke-width="1.5" d="M0,-3.0v7 M-2.5,-0.5L0,-3.0L2.5,-0.5"/>
                </g>
                <g id="arrowDown" xlink:href="#dirArrow" transform="rotate(180) translate(-30 -48)" onmousedown="handlePan(0,1)">
                  <use xlink:href="#rim" fill="#404040">
                        <set attributeName="fill" to="#808080" begin="arrowDown.mouseover" end="arrowDown.mouseout"/>
                  </use>
                  <path fill="none" stroke="white" stroke-width="1.5" d="M0,-3.0v7 M-2.5,-0.5L0,-3.0L2.5,-0.5"/>
                </g>
                <g id="arrowLeft" xlink:href="#dirArrow" transform="rotate(270) translate(-36 17)" onmousedown="handlePan(-1,0)">
                  <use xlink:href="#rim" fill="#404040">
                        <set attributeName="fill" to="#808080" begin="arrowLeft.mouseover" end="arrowLeft.mouseout"/>
                  </use>
                  <path fill="none" stroke="white" stroke-width="1.5" d="M0,-3.0v7 M-2.5,-0.5L0,-3.0L2.5,-0.5"/>
                </g>
        </g>
        <svg viewBox="0 0 15 15" width="100%" height="30px" preserveAspectRatio="xMaxYMin meet">
         <g id="arrow_out" transform="scale(0.3 0.3)">
          <a xlink:href="torchttphandler_8cpp__incl_org.svg" target="_base">
           <rect id="button" ry="5" rx="5" y="6" x="6" height="38" width="38"
                fill="#f2f5e9" fill-opacity="0.5" stroke="#606060" stroke-width="1.0"/>
           <path id="arrow"
             d="M 11.500037,31.436501 C 11.940474,20.09759 22.043105,11.32322 32.158766,21.979434 L 37.068811,17.246167 C 37.068811,17.246167 37.088388,32 37.088388,32 L 22.160133,31.978069 C 22.160133,31.978069 26.997745,27.140456 26.997745,27.140456 C 18.528582,18.264221 13.291696,25.230495 11.500037,31.436501 z"
             style="fill:#404040;"/>
          </a>
         </g>
        </svg>
</svg>
