<?xml version="1.0" encoding="UTF-8" standalone="no"?>
<!DOCTYPE svg PUBLIC "-//W3C//DTD SVG 1.1//EN"
 "http://www.w3.org/Graphics/SVG/1.1/DTD/svg11.dtd">
<!-- Generated by graphviz version 2.38.0 (20140413.2041)
 -->
<!-- Title: TorcHTTPService Pages: 1 -->
<svg width="941pt" height="674pt"
 viewBox="0.00 0.00 941.00 674.00" xmlns="http://www.w3.org/2000/svg" xmlns:xlink="http://www.w3.org/1999/xlink">
<g id="graph0" class="graph" transform="scale(1 1) rotate(0) translate(4 670)">
<title>TorcHTTPService</title>
<polygon fill="white" stroke="none" points="-4,4 -4,-670 937,-670 937,4 -4,4"/>
<!-- Node1 -->
<g id="node1" class="node"><title>Node1</title>
<polygon fill="#bfbfbf" stroke="black" points="133,-304.5 133,-323.5 228,-323.5 228,-304.5 133,-304.5"/>
<text text-anchor="middle" x="180.5" y="-311.5" font-family="Helvetica,sans-Serif" font-size="10.00">TorcHTTPService</text>
</g>
<!-- Node3 -->
<g id="node3" class="node"><title>Node3</title>
<g id="a_node3"><a xlink:href="../../d9/d56/class_torc_central.html" target="_top" xlink:title="TorcCentral">
<polygon fill="white" stroke="black" points="291,-608.5 291,-627.5 361,-627.5 361,-608.5 291,-608.5"/>
<text text-anchor="middle" x="326" y="-615.5" font-family="Helvetica,sans-Serif" font-size="10.00">TorcCentral</text>
</a>
</g>
</g>
<!-- Node1&#45;&gt;Node3 -->
<g id="edge2" class="edge"><title>Node1&#45;&gt;Node3</title>
<path fill="none" stroke="midnightblue" d="M181.213,-333.751C181.573,-384.952 189.755,-523.242 264,-599 271.143,-606.288 281.03,-610.792 290.766,-613.571"/>
<polygon fill="midnightblue" stroke="midnightblue" points="184.713,-333.703 181.24,-323.693 177.713,-333.684 184.713,-333.703"/>
</g>
<!-- Node4 -->
<g id="node4" class="node"><title>Node4</title>
<g id="a_node4"><a xlink:href="../../d1/d34/class_torc_control.html" target="_top" xlink:title="TorcControl">
<polygon fill="white" stroke="black" points="291,-570.5 291,-589.5 361,-589.5 361,-570.5 291,-570.5"/>
<text text-anchor="middle" x="326" y="-577.5" font-family="Helvetica,sans-Serif" font-size="10.00">TorcControl</text>
</a>
</g>
</g>
<!-- Node1&#45;&gt;Node4 -->
<g id="edge3" class="edge"><title>Node1&#45;&gt;Node4</title>
<path fill="none" stroke="midnightblue" d="M184.225,-333.921C190.917,-376.396 211.601,-477.259 264,-542 274.126,-554.511 289.536,-564.062 302.334,-570.46"/>
<polygon fill="midnightblue" stroke="midnightblue" points="187.651,-333.162 182.723,-323.783 180.726,-334.188 187.651,-333.162"/>
</g>
<!-- Node8 -->
<g id="node8" class="node"><title>Node8</title>
<g id="a_node8"><a xlink:href="../../d9/dac/class_torc_controls.html" target="_top" xlink:title="TorcControls">
<polygon fill="white" stroke="black" points="288.5,-513.5 288.5,-532.5 363.5,-532.5 363.5,-513.5 288.5,-513.5"/>
<text text-anchor="middle" x="326" y="-520.5" font-family="Helvetica,sans-Serif" font-size="10.00">TorcControls</text>
</a>
</g>
</g>
<!-- Node1&#45;&gt;Node8 -->
<g id="edge7" class="edge"><title>Node1&#45;&gt;Node8</title>
<path fill="none" stroke="midnightblue" d="M184.545,-333.872C191.489,-372.367 212.102,-457.41 264,-504 270.851,-510.15 279.672,-514.31 288.465,-517.123"/>
<polygon fill="midnightblue" stroke="midnightblue" points="187.913,-332.797 182.809,-323.513 181.01,-333.954 187.913,-332.797"/>
</g>
<!-- Node9 -->
<g id="node9" class="node"><title>Node9</title>
<g id="a_node9"><a xlink:href="../../d1/d54/class_torc_h_t_t_p_services.html" target="_top" xlink:title="Top level interface into services. ">
<polygon fill="white" stroke="black" points="276,-475.5 276,-494.5 376,-494.5 376,-475.5 276,-475.5"/>
<text text-anchor="middle" x="326" y="-482.5" font-family="Helvetica,sans-Serif" font-size="10.00">TorcHTTPServices</text>
</a>
</g>
</g>
<!-- Node1&#45;&gt;Node9 -->
<g id="edge8" class="edge"><title>Node1&#45;&gt;Node9</title>
<path fill="none" stroke="midnightblue" d="M186.814,-333.471C196.625,-365.768 220.645,-430.382 264,-466 268.714,-469.873 274.218,-472.958 279.955,-475.416"/>
<polygon fill="midnightblue" stroke="midnightblue" points="190.17,-332.476 184.024,-323.846 183.446,-334.425 190.17,-332.476"/>
</g>
<!-- Node10 -->
<g id="node10" class="node"><title>Node10</title>
<g id="a_node10"><a xlink:href="../../de/d9b/class_torc_h_t_t_p_service_test.html" target="_top" xlink:title="Implements an HTTP service for testing purposes. ">
<polygon fill="white" stroke="black" points="269.5,-437.5 269.5,-456.5 382.5,-456.5 382.5,-437.5 269.5,-437.5"/>
<text text-anchor="middle" x="326" y="-444.5" font-family="Helvetica,sans-Serif" font-size="10.00">TorcHTTPServiceTest</text>
</a>
</g>
</g>
<!-- Node1&#45;&gt;Node10 -->
<g id="edge9" class="edge"><title>Node1&#45;&gt;Node10</title>
<path fill="none" stroke="midnightblue" d="M190.262,-332.804C202.989,-358.1 228.953,-402.812 264,-428 269.404,-431.884 275.626,-434.991 281.986,-437.472"/>
<polygon fill="midnightblue" stroke="midnightblue" points="193.286,-331.02 185.766,-323.557 186.991,-334.08 193.286,-331.02"/>
</g>
<!-- Node11 -->
<g id="node11" class="node"><title>Node11</title>
<g id="a_node11"><a xlink:href="../../d8/d61/class_torc_input.html" target="_top" xlink:title="TorcInput">
<polygon fill="white" stroke="black" points="296.5,-399.5 296.5,-418.5 355.5,-418.5 355.5,-399.5 296.5,-399.5"/>
<text text-anchor="middle" x="326" y="-406.5" font-family="Helvetica,sans-Serif" font-size="10.00">TorcInput</text>
</a>
</g>
</g>
<!-- Node1&#45;&gt;Node11 -->
<g id="edge10" class="edge"><title>Node1&#45;&gt;Node11</title>
<path fill="none" stroke="midnightblue" d="M196.016,-331.253C211.307,-348.41 236.891,-374.364 264,-390 273.897,-395.708 285.704,-399.899 296.283,-402.869"/>
<polygon fill="midnightblue" stroke="midnightblue" points="198.579,-328.868 189.374,-323.622 193.299,-333.463 198.579,-328.868"/>
</g>
<!-- Node24 -->
<g id="node24" class="node"><title>Node24</title>
<g id="a_node24"><a xlink:href="../../d7/ddb/class_torc_inputs.html" target="_top" xlink:title="TorcInputs">
<polygon fill="white" stroke="black" points="293.5,-361.5 293.5,-380.5 358.5,-380.5 358.5,-361.5 293.5,-361.5"/>
<text text-anchor="middle" x="326" y="-368.5" font-family="Helvetica,sans-Serif" font-size="10.00">TorcInputs</text>
</a>
</g>
</g>
<!-- Node1&#45;&gt;Node24 -->
<g id="edge23" class="edge"><title>Node1&#45;&gt;Node24</title>
<path fill="none" stroke="midnightblue" d="M209.727,-328.106C225.484,-335.698 245.593,-344.928 264,-352 273.422,-355.62 283.854,-359.067 293.386,-362.007"/>
<polygon fill="midnightblue" stroke="midnightblue" points="211.056,-324.86 200.534,-323.624 207.989,-331.152 211.056,-324.86"/>
</g>
<!-- Node25 -->
<g id="node25" class="node"><title>Node25</title>
<g id="a_node25"><a xlink:href="../../d5/d34/class_torc_language.html" target="_top" xlink:title="A class to track and manage language and locale settings and available translations. ">
<polygon fill="white" stroke="black" points="284.5,-323.5 284.5,-342.5 367.5,-342.5 367.5,-323.5 284.5,-323.5"/>
<text text-anchor="middle" x="326" y="-330.5" font-family="Helvetica,sans-Serif" font-size="10.00">TorcLanguage</text>
</a>
</g>
</g>
<!-- Node1&#45;&gt;Node25 -->
<g id="edge24" class="edge"><title>Node1&#45;&gt;Node25</title>
<path fill="none" stroke="midnightblue" d="M238.091,-321.493C253.573,-323.543 270.043,-325.723 284.435,-327.629"/>
<polygon fill="midnightblue" stroke="midnightblue" points="238.463,-318.012 228.09,-320.169 237.544,-324.951 238.463,-318.012"/>
</g>
<!-- Node26 -->
<g id="node26" class="node"><title>Node26</title>
<g id="a_node26"><a xlink:href="../../d8/d93/class_torc_networked_context.html" target="_top" xlink:title="A class to discover and connect to other Torc applications. ">
<polygon fill="white" stroke="black" points="264,-285.5 264,-304.5 388,-304.5 388,-285.5 264,-285.5"/>
<text text-anchor="middle" x="326" y="-292.5" font-family="Helvetica,sans-Serif" font-size="10.00">TorcNetworkedContext</text>
</a>
</g>
</g>
<!-- Node1&#45;&gt;Node26 -->
<g id="edge25" class="edge"><title>Node1&#45;&gt;Node26</title>
<path fill="none" stroke="midnightblue" d="M238.164,-306.497C246.568,-305.385 255.26,-304.234 263.752,-303.109"/>
<polygon fill="midnightblue" stroke="midnightblue" points="237.544,-303.049 228.09,-307.831 238.463,-309.988 237.544,-303.049"/>
</g>
<!-- Node27 -->
<g id="node27" class="node"><title>Node27</title>
<g id="a_node27"><a xlink:href="../../d1/dc7/class_torc_output.html" target="_top" xlink:title="TorcOutput">
<polygon fill="white" stroke="black" points="292,-247.5 292,-266.5 360,-266.5 360,-247.5 292,-247.5"/>
<text text-anchor="middle" x="326" y="-254.5" font-family="Helvetica,sans-Serif" font-size="10.00">TorcOutput</text>
</a>
</g>
</g>
<!-- Node1&#45;&gt;Node27 -->
<g id="edge26" class="edge"><title>Node1&#45;&gt;Node27</title>
<path fill="none" stroke="midnightblue" d="M209.727,-299.894C225.484,-292.302 245.593,-283.072 264,-276 272.905,-272.579 282.711,-269.312 291.807,-266.482"/>
<polygon fill="midnightblue" stroke="midnightblue" points="207.989,-296.848 200.534,-304.376 211.056,-303.14 207.989,-296.848"/>
</g>
<!-- Node43 -->
<g id="node43" class="node"><title>Node43</title>
<g id="a_node43"><a xlink:href="../../df/da4/class_torc_outputs.html" target="_top" xlink:title="TorcOutputs">
<polygon fill="white" stroke="black" points="289,-209.5 289,-228.5 363,-228.5 363,-209.5 289,-209.5"/>
<text text-anchor="middle" x="326" y="-216.5" font-family="Helvetica,sans-Serif" font-size="10.00">TorcOutputs</text>
</a>
</g>
</g>
<!-- Node1&#45;&gt;Node43 -->
<g id="edge42" class="edge"><title>Node1&#45;&gt;Node43</title>
<path fill="none" stroke="midnightblue" d="M196.016,-296.747C211.307,-279.59 236.891,-253.636 264,-238 271.591,-233.622 280.305,-230.136 288.728,-227.41"/>
<polygon fill="midnightblue" stroke="midnightblue" points="193.299,-294.537 189.374,-304.378 198.579,-299.132 193.299,-294.537"/>
</g>
<!-- Node44 -->
<g id="node44" class="node"><title>Node44</title>
<g id="a_node44"><a xlink:href="../../d7/da5/class_torc_power.html" target="_top" xlink:title="A generic power status class. ">
<polygon fill="white" stroke="black" points="294,-171.5 294,-190.5 358,-190.5 358,-171.5 294,-171.5"/>
<text text-anchor="middle" x="326" y="-178.5" font-family="Helvetica,sans-Serif" font-size="10.00">TorcPower</text>
</a>
</g>
</g>
<!-- Node1&#45;&gt;Node44 -->
<g id="edge43" class="edge"><title>Node1&#45;&gt;Node44</title>
<path fill="none" stroke="midnightblue" d="M190.262,-295.196C202.989,-269.9 228.953,-225.188 264,-200 272.737,-193.721 283.611,-189.472 293.748,-186.617"/>
<polygon fill="midnightblue" stroke="midnightblue" points="186.991,-293.92 185.766,-304.443 193.286,-296.98 186.991,-293.92"/>
</g>
<!-- Node48 -->
<g id="node48" class="node"><title>Node48</title>
<g id="a_node48"><a xlink:href="../../dd/d69/class_torc_setting.html" target="_top" xlink:title="A wrapper around a database setting. ">
<polygon fill="white" stroke="black" points="291,-133.5 291,-152.5 361,-152.5 361,-133.5 291,-133.5"/>
<text text-anchor="middle" x="326" y="-140.5" font-family="Helvetica,sans-Serif" font-size="10.00">TorcSetting</text>
</a>
</g>
</g>
<!-- Node1&#45;&gt;Node48 -->
<g id="edge47" class="edge"><title>Node1&#45;&gt;Node48</title>
<path fill="none" stroke="midnightblue" d="M186.814,-294.529C196.625,-262.232 220.645,-197.618 264,-162 271.628,-155.733 281.325,-151.528 290.73,-148.707"/>
<polygon fill="midnightblue" stroke="midnightblue" points="183.446,-293.575 184.024,-304.154 190.17,-295.524 183.446,-293.575"/>
</g>
<!-- Node50 -->
<g id="node50" class="node"><title>Node50</title>
<g id="a_node50"><a xlink:href="../../d6/d7b/class_torc_time.html" target="_top" xlink:title="A simple time service to confirm the time (and date) the system is currently operating with...">
<polygon fill="white" stroke="black" points="296.5,-95.5 296.5,-114.5 355.5,-114.5 355.5,-95.5 296.5,-95.5"/>
<text text-anchor="middle" x="326" y="-102.5" font-family="Helvetica,sans-Serif" font-size="10.00">TorcTime</text>
</a>
</g>
</g>
<!-- Node1&#45;&gt;Node50 -->
<g id="edge49" class="edge"><title>Node1&#45;&gt;Node50</title>
<path fill="none" stroke="midnightblue" d="M184.545,-294.128C191.489,-255.633 212.102,-170.59 264,-124 272.914,-115.997 285.164,-111.365 296.348,-108.684"/>
<polygon fill="midnightblue" stroke="midnightblue" points="181.01,-294.046 182.809,-304.487 187.913,-295.203 181.01,-294.046"/>
</g>
<!-- Node51 -->
<g id="node51" class="node"><title>Node51</title>
<g id="a_node51"><a xlink:href="../../d5/d47/class_torc_user.html" target="_top" xlink:title="TorcUser">
<polygon fill="white" stroke="black" points="297,-57.5 297,-76.5 355,-76.5 355,-57.5 297,-57.5"/>
<text text-anchor="middle" x="326" y="-64.5" font-family="Helvetica,sans-Serif" font-size="10.00">TorcUser</text>
</a>
</g>
</g>
<!-- Node1&#45;&gt;Node51 -->
<g id="edge50" class="edge"><title>Node1&#45;&gt;Node51</title>
<path fill="none" stroke="midnightblue" d="M182.903,-294.145C187.08,-250.208 203.252,-144.06 264,-86 272.821,-77.5697 285.323,-72.8762 296.716,-70.2647"/>
<polygon fill="midnightblue" stroke="midnightblue" points="179.413,-293.874 182.063,-304.132 186.389,-294.46 179.413,-293.874"/>
</g>
<!-- Node52 -->
<g id="node52" class="node"><title>Node52</title>
<g id="a_node52"><a xlink:href="../../d3/d3c/class_web_logger.html" target="_top" xlink:title="Serves log content to registered subscribers and HTTP clients. ">
<polygon fill="white" stroke="black" points="291.5,-19.5 291.5,-38.5 360.5,-38.5 360.5,-19.5 291.5,-19.5"/>
<text text-anchor="middle" x="326" y="-26.5" font-family="Helvetica,sans-Serif" font-size="10.00">WebLogger</text>
</a>
</g>
</g>
<!-- Node1&#45;&gt;Node52 -->
<g id="edge51" class="edge"><title>Node1&#45;&gt;Node52</title>
<path fill="none" stroke="midnightblue" d="M181.698,-294.268C183.28,-245.432 194.25,-117.834 264,-48 271.368,-40.6228 281.55,-36.1016 291.485,-33.3335"/>
<polygon fill="midnightblue" stroke="midnightblue" points="178.195,-294.35 181.473,-304.425 185.194,-294.505 178.195,-294.35"/>
</g>
<!-- Node2 -->
<g id="node2" class="node"><title>Node2</title>
<g id="a_node2"><a xlink:href="../../d5/d15/class_torc_h_t_t_p_handler.html" target="_top" xlink:title="Base HTTP response handler class. ">
<polygon fill="white" stroke="black" points="0,-304.5 0,-323.5 97,-323.5 97,-304.5 0,-304.5"/>
<text text-anchor="middle" x="48.5" y="-311.5" font-family="Helvetica,sans-Serif" font-size="10.00">TorcHTTPHandler</text>
</a>
</g>
</g>
<!-- Node2&#45;&gt;Node1 -->
<g id="edge1" class="edge"><title>Node2&#45;&gt;Node1</title>
<path fill="none" stroke="midnightblue" d="M107.383,-314C115.855,-314 124.491,-314 132.705,-314"/>
<polygon fill="midnightblue" stroke="midnightblue" points="107.169,-310.5 97.169,-314 107.169,-317.5 107.169,-310.5"/>
</g>
<!-- Node5 -->
<g id="node5" class="node"><title>Node5</title>
<g id="a_node5"><a xlink:href="../../d5/d8f/class_torc_logic_control.html" target="_top" xlink:title="TorcLogicControl">
<polygon fill="white" stroke="black" points="441,-646.5 441,-665.5 536,-665.5 536,-646.5 441,-646.5"/>
<text text-anchor="middle" x="488.5" y="-653.5" font-family="Helvetica,sans-Serif" font-size="10.00">TorcLogicControl</text>
</a>
</g>
</g>
<!-- Node4&#45;&gt;Node5 -->
<g id="edge4" class="edge"><title>Node4&#45;&gt;Node5</title>
<path fill="none" stroke="midnightblue" d="M370.727,-590.602C376.751,-592.915 382.687,-595.69 388,-599 407.746,-611.302 404.186,-624.809 424,-637 430.272,-640.859 437.377,-643.976 444.507,-646.481"/>
<polygon fill="midnightblue" stroke="midnightblue" points="371.857,-587.289 361.262,-587.335 369.572,-593.906 371.857,-587.289"/>
</g>
<!-- Node6 -->
<g id="node6" class="node"><title>Node6</title>
<g id="a_node6"><a xlink:href="../../d6/d72/class_torc_timer_control.html" target="_top" xlink:title="TorcTimerControl">
<polygon fill="white" stroke="black" points="440,-608.5 440,-627.5 537,-627.5 537,-608.5 440,-608.5"/>
<text text-anchor="middle" x="488.5" y="-615.5" font-family="Helvetica,sans-Serif" font-size="10.00">TorcTimerControl</text>
</a>
</g>
</g>
<!-- Node4&#45;&gt;Node6 -->
<g id="edge5" class="edge"><title>Node4&#45;&gt;Node6</title>
<path fill="none" stroke="midnightblue" d="M370.892,-590.392C394.739,-596.038 424.018,-602.97 447.271,-608.475"/>
<polygon fill="midnightblue" stroke="midnightblue" points="371.575,-586.957 361.038,-588.059 369.963,-593.769 371.575,-586.957"/>
</g>
<!-- Node7 -->
<g id="node7" class="node"><title>Node7</title>
<g id="a_node7"><a xlink:href="../../df/d11/class_torc_transition_control.html" target="_top" xlink:title="TorcTransitionControl">
<polygon fill="white" stroke="black" points="431,-570.5 431,-589.5 546,-589.5 546,-570.5 431,-570.5"/>
<text text-anchor="middle" x="488.5" y="-577.5" font-family="Helvetica,sans-Serif" font-size="10.00">TorcTransitionControl</text>
</a>
</g>
</g>
<!-- Node4&#45;&gt;Node7 -->
<g id="edge6" class="edge"><title>Node4&#45;&gt;Node7</title>
<path fill="none" stroke="midnightblue" d="M371.186,-580C389.598,-580 411.208,-580 430.773,-580"/>
<polygon fill="midnightblue" stroke="midnightblue" points="371.038,-576.5 361.038,-580 371.038,-583.5 371.038,-576.5"/>
</g>
<!-- Node12 -->
<g id="node12" class="node"><title>Node12</title>
<g id="a_node12"><a xlink:href="../../db/d20/class_torcp_h_input.html" target="_top" xlink:title="TorcpHInput">
<polygon fill="white" stroke="black" points="452,-532.5 452,-551.5 525,-551.5 525,-532.5 452,-532.5"/>
<text text-anchor="middle" x="488.5" y="-539.5" font-family="Helvetica,sans-Serif" font-size="10.00">TorcpHInput</text>
</a>
</g>
</g>
<!-- Node11&#45;&gt;Node12 -->
<g id="edge11" class="edge"><title>Node11&#45;&gt;Node12</title>
<path fill="none" stroke="midnightblue" d="M365.217,-415.145C373.505,-417.953 381.673,-422.043 388,-428 420.875,-458.951 390.952,-492.234 424,-523 431.664,-530.135 441.904,-534.598 451.919,-537.388"/>
<polygon fill="midnightblue" stroke="midnightblue" points="366.109,-411.76 355.533,-412.402 364.201,-418.495 366.109,-411.76"/>
</g>
<!-- Node14 -->
<g id="node14" class="node"><title>Node14</title>
<g id="a_node14"><a xlink:href="../../d1/d8b/class_torc_p_w_m_input.html" target="_top" xlink:title="TorcPWMInput">
<polygon fill="white" stroke="black" points="447.5,-494.5 447.5,-513.5 529.5,-513.5 529.5,-494.5 447.5,-494.5"/>
<text text-anchor="middle" x="488.5" y="-501.5" font-family="Helvetica,sans-Serif" font-size="10.00">TorcPWMInput</text>
</a>
</g>
</g>
<!-- Node11&#45;&gt;Node14 -->
<g id="edge13" class="edge"><title>Node11&#45;&gt;Node14</title>
<path fill="none" stroke="midnightblue" d="M365.35,-416.427C373.357,-419.17 381.37,-422.91 388,-428 411.767,-446.245 400.131,-466.888 424,-485 430.875,-490.217 439.172,-494.008 447.468,-496.76"/>
<polygon fill="midnightblue" stroke="midnightblue" points="366.263,-413.047 355.68,-413.551 364.267,-419.756 366.263,-413.047"/>
</g>
<!-- Node16 -->
<g id="node16" class="node"><title>Node16</title>
<g id="a_node16"><a xlink:href="../../db/dd0/class_torc_switch_input.html" target="_top" xlink:title="TorcSwitchInput">
<polygon fill="white" stroke="black" points="443.5,-456.5 443.5,-475.5 533.5,-475.5 533.5,-456.5 443.5,-456.5"/>
<text text-anchor="middle" x="488.5" y="-463.5" font-family="Helvetica,sans-Serif" font-size="10.00">TorcSwitchInput</text>
</a>
</g>
</g>
<!-- Node11&#45;&gt;Node16 -->
<g id="edge15" class="edge"><title>Node11&#45;&gt;Node16</title>
<path fill="none" stroke="midnightblue" d="M365.383,-419.773C372.969,-422.232 380.807,-425.011 388,-428 404.707,-434.942 407.254,-440.152 424,-447 432.627,-450.528 442.152,-453.726 451.143,-456.449"/>
<polygon fill="midnightblue" stroke="midnightblue" points="366.218,-416.368 355.629,-416.734 364.135,-423.051 366.218,-416.368"/>
</g>
<!-- Node20 -->
<g id="node20" class="node"><title>Node20</title>
<g id="a_node20"><a xlink:href="../../d7/df7/class_torc_system_input.html" target="_top" xlink:title="TorcSystemInput">
<polygon fill="white" stroke="black" points="440.5,-418.5 440.5,-437.5 536.5,-437.5 536.5,-418.5 440.5,-418.5"/>
<text text-anchor="middle" x="488.5" y="-425.5" font-family="Helvetica,sans-Serif" font-size="10.00">TorcSystemInput</text>
</a>
</g>
</g>
<!-- Node11&#45;&gt;Node20 -->
<g id="edge19" class="edge"><title>Node11&#45;&gt;Node20</title>
<path fill="none" stroke="midnightblue" d="M365.879,-413.603C388.35,-416.263 416.776,-419.628 440.495,-422.436"/>
<polygon fill="midnightblue" stroke="midnightblue" points="366.036,-410.097 355.694,-412.397 365.213,-417.048 366.036,-410.097"/>
</g>
<!-- Node21 -->
<g id="node21" class="node"><title>Node21</title>
<g id="a_node21"><a xlink:href="../../de/d14/class_torc_temperature_input.html" target="_top" xlink:title="TorcTemperatureInput">
<polygon fill="white" stroke="black" points="428.5,-380.5 428.5,-399.5 548.5,-399.5 548.5,-380.5 428.5,-380.5"/>
<text text-anchor="middle" x="488.5" y="-387.5" font-family="Helvetica,sans-Serif" font-size="10.00">TorcTemperatureInput</text>
</a>
</g>
</g>
<!-- Node11&#45;&gt;Node21 -->
<g id="edge20" class="edge"><title>Node11&#45;&gt;Node21</title>
<path fill="none" stroke="midnightblue" d="M365.675,-404.422C384.493,-402.194 407.525,-399.467 428.476,-396.987"/>
<polygon fill="midnightblue" stroke="midnightblue" points="365.213,-400.952 355.694,-405.603 366.036,-407.903 365.213,-400.952"/>
</g>
<!-- Node13 -->
<g id="node13" class="node"><title>Node13</title>
<g id="a_node13"><a xlink:href="../../d5/d8a/class_torc_networkp_h_input.html" target="_top" xlink:title="TorcNetworkpHInput">
<polygon fill="white" stroke="black" points="617,-570.5 617,-589.5 729,-589.5 729,-570.5 617,-570.5"/>
<text text-anchor="middle" x="673" y="-577.5" font-family="Helvetica,sans-Serif" font-size="10.00">TorcNetworkpHInput</text>
</a>
</g>
</g>
<!-- Node12&#45;&gt;Node13 -->
<g id="edge12" class="edge"><title>Node12&#45;&gt;Node13</title>
<path fill="none" stroke="midnightblue" d="M534.985,-551.471C562.775,-557.257 598.205,-564.634 626.075,-570.437"/>
<polygon fill="midnightblue" stroke="midnightblue" points="535.625,-548.029 525.121,-549.417 534.198,-554.882 535.625,-548.029"/>
</g>
<!-- Node15 -->
<g id="node15" class="node"><title>Node15</title>
<g id="a_node15"><a xlink:href="../../da/d14/class_torc_network_p_w_m_input.html" target="_top" xlink:title="TorcNetworkPWMInput">
<polygon fill="white" stroke="black" points="612.5,-532.5 612.5,-551.5 733.5,-551.5 733.5,-532.5 612.5,-532.5"/>
<text text-anchor="middle" x="673" y="-539.5" font-family="Helvetica,sans-Serif" font-size="10.00">TorcNetworkPWMInput</text>
</a>
</g>
</g>
<!-- Node14&#45;&gt;Node15 -->
<g id="edge14" class="edge"><title>Node14&#45;&gt;Node15</title>
<path fill="none" stroke="midnightblue" d="M539.603,-514.432C566.683,-520.071 599.879,-526.983 626.257,-532.475"/>
<polygon fill="midnightblue" stroke="midnightblue" points="540.054,-510.951 529.55,-512.339 538.627,-517.804 540.054,-510.951"/>
</g>
<!-- Node17 -->
<g id="node17" class="node"><title>Node17</title>
<g id="a_node17"><a xlink:href="../../df/d5c/class_torc_network_switch_input.html" target="_top" xlink:title="TorcNetworkSwitchInput">
<polygon fill="white" stroke="black" points="608.5,-494.5 608.5,-513.5 737.5,-513.5 737.5,-494.5 608.5,-494.5"/>
<text text-anchor="middle" x="673" y="-501.5" font-family="Helvetica,sans-Serif" font-size="10.00">TorcNetworkSwitchInput</text>
</a>
</g>
</g>
<!-- Node16&#45;&gt;Node17 -->
<g id="edge16" class="edge"><title>Node16&#45;&gt;Node17</title>
<path fill="none" stroke="midnightblue" d="M543.506,-477.245C569.848,-482.73 601.188,-489.256 626.323,-494.489"/>
<polygon fill="midnightblue" stroke="midnightblue" points="544.182,-473.811 533.678,-475.199 542.755,-480.664 544.182,-473.811"/>
</g>
<!-- Node19 -->
<g id="node19" class="node"><title>Node19</title>
<g id="a_node19"><a xlink:href="../../de/d6d/class_torc_pi_switch_input.html" target="_top" xlink:title="TorcPiSwitchInput">
<polygon fill="white" stroke="black" points="624,-456.5 624,-475.5 722,-475.5 722,-456.5 624,-456.5"/>
<text text-anchor="middle" x="673" y="-463.5" font-family="Helvetica,sans-Serif" font-size="10.00">TorcPiSwitchInput</text>
</a>
</g>
</g>
<!-- Node16&#45;&gt;Node19 -->
<g id="edge18" class="edge"><title>Node16&#45;&gt;Node19</title>
<path fill="none" stroke="midnightblue" d="M543.878,-466C569.247,-466 599.188,-466 623.744,-466"/>
<polygon fill="midnightblue" stroke="midnightblue" points="543.678,-462.5 533.678,-466 543.678,-469.5 543.678,-462.5"/>
</g>
<!-- Node18 -->
<g id="node18" class="node"><title>Node18</title>
<g id="a_node18"><a xlink:href="../../d7/d4b/class_torc_network_button_input.html" target="_top" xlink:title="A network input that mimics the behaviour of a mechanical push button. ">
<polygon fill="white" stroke="black" points="797.5,-494.5 797.5,-513.5 928.5,-513.5 928.5,-494.5 797.5,-494.5"/>
<text text-anchor="middle" x="863" y="-501.5" font-family="Helvetica,sans-Serif" font-size="10.00">TorcNetworkButtonInput</text>
</a>
</g>
</g>
<!-- Node17&#45;&gt;Node18 -->
<g id="edge17" class="edge"><title>Node17&#45;&gt;Node18</title>
<path fill="none" stroke="midnightblue" d="M747.74,-504C764.158,-504 781.442,-504 797.457,-504"/>
<polygon fill="midnightblue" stroke="midnightblue" points="747.648,-500.5 737.648,-504 747.648,-507.5 747.648,-500.5"/>
</g>
<!-- Node22 -->
<g id="node22" class="node"><title>Node22</title>
<g id="a_node22"><a xlink:href="../../d5/dd1/class_torc1_wire_d_s18_b20.html" target="_top" xlink:title="Torc1WireDS18B20">
<polygon fill="white" stroke="black" points="619.5,-418.5 619.5,-437.5 726.5,-437.5 726.5,-418.5 619.5,-418.5"/>
<text text-anchor="middle" x="673" y="-425.5" font-family="Helvetica,sans-Serif" font-size="10.00">Torc1WireDS18B20</text>
</a>
</g>
</g>
<!-- Node21&#45;&gt;Node22 -->
<g id="edge21" class="edge"><title>Node21&#45;&gt;Node22</title>
<path fill="none" stroke="midnightblue" d="M545.599,-401.681C571.48,-407.07 601.815,-413.386 626.279,-418.48"/>
<polygon fill="midnightblue" stroke="midnightblue" points="546.056,-398.201 535.552,-399.589 544.629,-405.054 546.056,-398.201"/>
</g>
<!-- Node23 -->
<g id="node23" class="node"><title>Node23</title>
<g id="a_node23"><a xlink:href="../../d9/dc9/class_torc_network_temperature_input.html" target="_top" xlink:title="TorcNetworkTemperatureInput">
<polygon fill="white" stroke="black" points="593.5,-380.5 593.5,-399.5 752.5,-399.5 752.5,-380.5 593.5,-380.5"/>
<text text-anchor="middle" x="673" y="-387.5" font-family="Helvetica,sans-Serif" font-size="10.00">TorcNetworkTemperatureInput</text>
</a>
</g>
</g>
<!-- Node21&#45;&gt;Node23 -->
<g id="edge22" class="edge"><title>Node21&#45;&gt;Node23</title>
<path fill="none" stroke="midnightblue" d="M558.71,-390C569.996,-390 581.761,-390 593.256,-390"/>
<polygon fill="midnightblue" stroke="midnightblue" points="558.501,-386.5 548.5,-390 558.5,-393.5 558.501,-386.5"/>
</g>
<!-- Node28 -->
<g id="node28" class="node"><title>Node28</title>
<g id="a_node28"><a xlink:href="../../db/dc8/class_torc_camera_output.html" target="_top" xlink:title="TorcCameraOutput">
<polygon fill="white" stroke="black" points="435,-304.5 435,-323.5 542,-323.5 542,-304.5 435,-304.5"/>
<text text-anchor="middle" x="488.5" y="-311.5" font-family="Helvetica,sans-Serif" font-size="10.00">TorcCameraOutput</text>
</a>
</g>
</g>
<!-- Node27&#45;&gt;Node28 -->
<g id="edge27" class="edge"><title>Node27&#45;&gt;Node28</title>
<path fill="none" stroke="midnightblue" d="M369.66,-269.186C375.878,-271.279 382.152,-273.57 388,-276 404.707,-282.942 407.254,-288.152 424,-295 432.627,-298.528 442.152,-301.726 451.143,-304.449"/>
<polygon fill="midnightblue" stroke="midnightblue" points="370.594,-265.809 360.002,-266.067 368.443,-272.471 370.594,-265.809"/>
</g>
<!-- Node31 -->
<g id="node31" class="node"><title>Node31</title>
<g id="a_node31"><a xlink:href="../../d2/d21/class_torcp_h_output.html" target="_top" xlink:title="TorcpHOutput">
<polygon fill="white" stroke="black" points="447.5,-266.5 447.5,-285.5 529.5,-285.5 529.5,-266.5 447.5,-266.5"/>
<text text-anchor="middle" x="488.5" y="-273.5" font-family="Helvetica,sans-Serif" font-size="10.00">TorcpHOutput</text>
</a>
</g>
</g>
<!-- Node27&#45;&gt;Node31 -->
<g id="edge30" class="edge"><title>Node27&#45;&gt;Node31</title>
<path fill="none" stroke="midnightblue" d="M370.499,-262.149C394.485,-264.989 424.058,-268.49 447.471,-271.261"/>
<polygon fill="midnightblue" stroke="midnightblue" points="370.598,-258.637 360.256,-260.937 369.775,-265.588 370.598,-258.637"/>
</g>
<!-- Node33 -->
<g id="node33" class="node"><title>Node33</title>
<g id="a_node33"><a xlink:href="../../d9/db0/class_torc_p_w_m_output.html" target="_top" xlink:title="TorcPWMOutput">
<polygon fill="white" stroke="black" points="443,-228.5 443,-247.5 534,-247.5 534,-228.5 443,-228.5"/>
<text text-anchor="middle" x="488.5" y="-235.5" font-family="Helvetica,sans-Serif" font-size="10.00">TorcPWMOutput</text>
</a>
</g>
</g>
<!-- Node27&#45;&gt;Node33 -->
<g id="edge32" class="edge"><title>Node27&#45;&gt;Node33</title>
<path fill="none" stroke="midnightblue" d="M370.49,-251.852C392.881,-249.201 420.144,-245.974 442.718,-243.301"/>
<polygon fill="midnightblue" stroke="midnightblue" points="369.775,-248.412 360.256,-253.063 370.598,-255.363 369.775,-248.412"/>
</g>
<!-- Node37 -->
<g id="node37" class="node"><title>Node37</title>
<g id="a_node37"><a xlink:href="../../d9/d5b/class_torc_switch_output.html" target="_top" xlink:title="TorcSwitchOutput">
<polygon fill="white" stroke="black" points="439,-190.5 439,-209.5 538,-209.5 538,-190.5 439,-190.5"/>
<text text-anchor="middle" x="488.5" y="-197.5" font-family="Helvetica,sans-Serif" font-size="10.00">TorcSwitchOutput</text>
</a>
</g>
</g>
<!-- Node27&#45;&gt;Node37 -->
<g id="edge36" class="edge"><title>Node27&#45;&gt;Node37</title>
<path fill="none" stroke="midnightblue" d="M369.66,-244.814C375.878,-242.721 382.152,-240.43 388,-238 404.707,-231.058 407.254,-225.848 424,-219 432.627,-215.472 442.152,-212.274 451.143,-209.551"/>
<polygon fill="midnightblue" stroke="midnightblue" points="368.443,-241.529 360.002,-247.933 370.594,-248.191 368.443,-241.529"/>
</g>
<!-- Node41 -->
<g id="node41" class="node"><title>Node41</title>
<g id="a_node41"><a xlink:href="../../d5/dda/class_torc_temperature_output.html" target="_top" xlink:title="TorcTemperatureOutput">
<polygon fill="white" stroke="black" points="424,-152.5 424,-171.5 553,-171.5 553,-152.5 424,-152.5"/>
<text text-anchor="middle" x="488.5" y="-159.5" font-family="Helvetica,sans-Serif" font-size="10.00">TorcTemperatureOutput</text>
</a>
</g>
</g>
<!-- Node27&#45;&gt;Node41 -->
<g id="edge40" class="edge"><title>Node27&#45;&gt;Node41</title>
<path fill="none" stroke="midnightblue" d="M369.66,-247.995C376.193,-245.442 382.561,-242.175 388,-238 411.767,-219.755 400.131,-199.112 424,-181 429.133,-177.105 435.06,-174.004 441.186,-171.538"/>
<polygon fill="midnightblue" stroke="midnightblue" points="368.409,-244.724 360.062,-251.249 370.656,-251.353 368.409,-244.724"/>
</g>
<!-- Node29 -->
<g id="node29" class="node"><title>Node29</title>
<g id="a_node29"><a xlink:href="../../d4/dbb/class_torc_camera_stills_output.html" target="_top" xlink:title="TorcCameraStillsOutput">
<polygon fill="white" stroke="black" points="608.5,-342.5 608.5,-361.5 737.5,-361.5 737.5,-342.5 608.5,-342.5"/>
<text text-anchor="middle" x="673" y="-349.5" font-family="Helvetica,sans-Serif" font-size="10.00">TorcCameraStillsOutput</text>
</a>
</g>
</g>
<!-- Node28&#45;&gt;Node29 -->
<g id="edge28" class="edge"><title>Node28&#45;&gt;Node29</title>
<path fill="none" stroke="midnightblue" d="M545.599,-325.681C571.48,-331.07 601.815,-337.386 626.279,-342.48"/>
<polygon fill="midnightblue" stroke="midnightblue" points="546.056,-322.201 535.552,-323.589 544.629,-329.054 546.056,-322.201"/>
</g>
<!-- Node30 -->
<g id="node30" class="node"><title>Node30</title>
<g id="a_node30"><a xlink:href="../../df/d01/class_torc_camera_video_output.html" target="_top" xlink:title="TorcCameraVideoOutput">
<polygon fill="white" stroke="black" points="606,-304.5 606,-323.5 740,-323.5 740,-304.5 606,-304.5"/>
<text text-anchor="middle" x="673" y="-311.5" font-family="Helvetica,sans-Serif" font-size="10.00">TorcCameraVideoOutput</text>
</a>
</g>
</g>
<!-- Node28&#45;&gt;Node30 -->
<g id="edge29" class="edge"><title>Node28&#45;&gt;Node30</title>
<path fill="none" stroke="midnightblue" d="M552.729,-314C569.841,-314 588.409,-314 605.686,-314"/>
<polygon fill="midnightblue" stroke="midnightblue" points="552.287,-310.5 542.287,-314 552.287,-317.5 552.287,-310.5"/>
</g>
<!-- Node32 -->
<g id="node32" class="node"><title>Node32</title>
<g id="a_node32"><a xlink:href="../../d0/d23/class_torc_networkp_h_output.html" target="_top" xlink:title="TorcNetworkpHOutput">
<polygon fill="white" stroke="black" points="612.5,-266.5 612.5,-285.5 733.5,-285.5 733.5,-266.5 612.5,-266.5"/>
<text text-anchor="middle" x="673" y="-273.5" font-family="Helvetica,sans-Serif" font-size="10.00">TorcNetworkpHOutput</text>
</a>
</g>
</g>
<!-- Node31&#45;&gt;Node32 -->
<g id="edge31" class="edge"><title>Node31&#45;&gt;Node32</title>
<path fill="none" stroke="midnightblue" d="M539.558,-276C562.044,-276 588.754,-276 612.277,-276"/>
<polygon fill="midnightblue" stroke="midnightblue" points="539.55,-272.5 529.55,-276 539.55,-279.5 539.55,-272.5"/>
</g>
<!-- Node34 -->
<g id="node34" class="node"><title>Node34</title>
<g id="a_node34"><a xlink:href="../../d6/d33/class_torc_i2_c_p_c_a9685_channel.html" target="_top" xlink:title="TorcI2CPCA9685Channel">
<polygon fill="white" stroke="black" points="606.5,-228.5 606.5,-247.5 739.5,-247.5 739.5,-228.5 606.5,-228.5"/>
<text text-anchor="middle" x="673" y="-235.5" font-family="Helvetica,sans-Serif" font-size="10.00">TorcI2CPCA9685Channel</text>
</a>
</g>
</g>
<!-- Node33&#45;&gt;Node34 -->
<g id="edge33" class="edge"><title>Node33&#45;&gt;Node34</title>
<path fill="none" stroke="midnightblue" d="M544.389,-238C563.916,-238 586.099,-238 606.43,-238"/>
<polygon fill="midnightblue" stroke="midnightblue" points="544.145,-234.5 534.145,-238 544.144,-241.5 544.145,-234.5"/>
</g>
<!-- Node35 -->
<g id="node35" class="node"><title>Node35</title>
<g id="a_node35"><a xlink:href="../../d0/db8/class_torc_network_p_w_m_output.html" target="_top" xlink:title="TorcNetworkPWMOutput">
<polygon fill="white" stroke="black" points="608,-190.5 608,-209.5 738,-209.5 738,-190.5 608,-190.5"/>
<text text-anchor="middle" x="673" y="-197.5" font-family="Helvetica,sans-Serif" font-size="10.00">TorcNetworkPWMOutput</text>
</a>
</g>
</g>
<!-- Node33&#45;&gt;Node35 -->
<g id="edge34" class="edge"><title>Node33&#45;&gt;Node35</title>
<path fill="none" stroke="midnightblue" d="M544.279,-226.594C570.427,-221.149 601.357,-214.709 626.23,-209.53"/>
<polygon fill="midnightblue" stroke="midnightblue" points="543.221,-223.239 534.145,-228.704 544.648,-230.092 543.221,-223.239"/>
</g>
<!-- Node36 -->
<g id="node36" class="node"><title>Node36</title>
<g id="a_node36"><a xlink:href="../../d3/d08/class_torc_pi_p_w_m_output.html" target="_top" xlink:title="A device to output PWM signals on the Raspberry Pi. ">
<polygon fill="white" stroke="black" points="623.5,-152.5 623.5,-171.5 722.5,-171.5 722.5,-152.5 623.5,-152.5"/>
<text text-anchor="middle" x="673" y="-159.5" font-family="Helvetica,sans-Serif" font-size="10.00">TorcPiPWMOutput</text>
</a>
</g>
</g>
<!-- Node33&#45;&gt;Node36 -->
<g id="edge35" class="edge"><title>Node33&#45;&gt;Node36</title>
<path fill="none" stroke="midnightblue" d="M542.095,-224.687C545.891,-222.999 549.57,-221.111 553,-219 572.814,-206.809 568.796,-192.534 589,-181 599.399,-175.064 611.526,-170.982 623.248,-168.175"/>
<polygon fill="midnightblue" stroke="midnightblue" points="540.507,-221.551 532.493,-228.481 543.08,-228.061 540.507,-221.551"/>
</g>
<!-- Node38 -->
<g id="node38" class="node"><title>Node38</title>
<g id="a_node38"><a xlink:href="../../d1/d71/class_torc_network_switch_output.html" target="_top" xlink:title="TorcNetworkSwitchOutput">
<polygon fill="white" stroke="black" points="604,-114.5 604,-133.5 742,-133.5 742,-114.5 604,-114.5"/>
<text text-anchor="middle" x="673" y="-121.5" font-family="Helvetica,sans-Serif" font-size="10.00">TorcNetworkSwitchOutput</text>
</a>
</g>
</g>
<!-- Node37&#45;&gt;Node38 -->
<g id="edge37" class="edge"><title>Node37&#45;&gt;Node38</title>
<path fill="none" stroke="midnightblue" d="M542.095,-186.687C545.891,-184.999 549.57,-183.111 553,-181 572.814,-168.809 568.796,-154.534 589,-143 595.804,-139.116 603.348,-136.025 611.035,-133.567"/>
<polygon fill="midnightblue" stroke="midnightblue" points="540.507,-183.551 532.493,-190.481 543.08,-190.061 540.507,-183.551"/>
</g>
<!-- Node40 -->
<g id="node40" class="node"><title>Node40</title>
<g id="a_node40"><a xlink:href="../../dc/d7e/class_torc_pi_switch_output.html" target="_top" xlink:title="TorcPiSwitchOutput">
<polygon fill="white" stroke="black" points="619.5,-76.5 619.5,-95.5 726.5,-95.5 726.5,-76.5 619.5,-76.5"/>
<text text-anchor="middle" x="673" y="-83.5" font-family="Helvetica,sans-Serif" font-size="10.00">TorcPiSwitchOutput</text>
</a>
</g>
</g>
<!-- Node37&#45;&gt;Node40 -->
<g id="edge39" class="edge"><title>Node37&#45;&gt;Node40</title>
<path fill="none" stroke="midnightblue" d="M546.638,-185.671C548.879,-184.258 551.014,-182.706 553,-181 581.355,-156.649 559.861,-128.406 589,-105 597.644,-98.0569 608.346,-93.5512 619.16,-90.6508"/>
<polygon fill="midnightblue" stroke="midnightblue" points="544.77,-182.7 537.557,-190.46 548.035,-188.892 544.77,-182.7"/>
</g>
<!-- Node39 -->
<g id="node39" class="node"><title>Node39</title>
<g id="a_node39"><a xlink:href="../../d0/da9/class_torc_network_button_output.html" target="_top" xlink:title="A network output that mimics the behaviour of a mechanical push button. ">
<polygon fill="white" stroke="black" points="793,-114.5 793,-133.5 933,-133.5 933,-114.5 793,-114.5"/>
<text text-anchor="middle" x="863" y="-121.5" font-family="Helvetica,sans-Serif" font-size="10.00">TorcNetworkButtonOutput</text>
</a>
</g>
</g>
<!-- Node38&#45;&gt;Node39 -->
<g id="edge38" class="edge"><title>Node38&#45;&gt;Node39</title>
<path fill="none" stroke="midnightblue" d="M752.315,-124C765.761,-124 779.647,-124 792.832,-124"/>
<polygon fill="midnightblue" stroke="midnightblue" points="752.138,-120.5 742.138,-124 752.138,-127.5 752.138,-120.5"/>
</g>
<!-- Node42 -->
<g id="node42" class="node"><title>Node42</title>
<g id="a_node42"><a xlink:href="../../d2/dd7/class_torc_network_temperature_output.html" target="_top" xlink:title="TorcNetworkTemperatureOutput">
<polygon fill="white" stroke="black" points="589,-38.5 589,-57.5 757,-57.5 757,-38.5 589,-38.5"/>
<text text-anchor="middle" x="673" y="-45.5" font-family="Helvetica,sans-Serif" font-size="10.00">TorcNetworkTemperatureOutput</text>
</a>
</g>
</g>
<!-- Node41&#45;&gt;Node42 -->
<g id="edge41" class="edge"><title>Node41&#45;&gt;Node42</title>
<path fill="none" stroke="midnightblue" d="M546.638,-147.671C548.879,-146.258 551.014,-144.706 553,-143 581.355,-118.649 559.861,-90.4064 589,-67 593.725,-63.2044 599.066,-60.1373 604.703,-57.6626"/>
<polygon fill="midnightblue" stroke="midnightblue" points="544.77,-144.7 537.557,-152.46 548.035,-150.892 544.77,-144.7"/>
</g>
<!-- Node45 -->
<g id="node45" class="node"><title>Node45</title>
<g id="a_node45"><a xlink:href="../../d4/d2f/class_torc_power_null.html" target="_top" xlink:title="A dummy/default power implementation. ">
<polygon fill="white" stroke="black" points="447.5,-114.5 447.5,-133.5 529.5,-133.5 529.5,-114.5 447.5,-114.5"/>
<text text-anchor="middle" x="488.5" y="-121.5" font-family="Helvetica,sans-Serif" font-size="10.00">TorcPowerNull</text>
</a>
</g>
</g>
<!-- Node44&#45;&gt;Node45 -->
<g id="edge44" class="edge"><title>Node44&#45;&gt;Node45</title>
<path fill="none" stroke="midnightblue" d="M367.9,-169.402C374.69,-167.152 381.6,-164.659 388,-162 404.707,-155.058 407.254,-149.848 424,-143 432.627,-139.472 442.152,-136.274 451.143,-133.551"/>
<polygon fill="midnightblue" stroke="midnightblue" points="366.581,-166.149 358.112,-172.514 368.702,-172.819 366.581,-166.149"/>
</g>
<!-- Node46 -->
<g id="node46" class="node"><title>Node46</title>
<g id="a_node46"><a xlink:href="../../d7/d52/class_torc_power_o_s_x.html" target="_top" xlink:title="A power monitoring class for OS X. ">
<polygon fill="white" stroke="black" points="446.5,-76.5 446.5,-95.5 530.5,-95.5 530.5,-76.5 446.5,-76.5"/>
<text text-anchor="middle" x="488.5" y="-83.5" font-family="Helvetica,sans-Serif" font-size="10.00">TorcPowerOSX</text>
</a>
</g>
</g>
<!-- Node44&#45;&gt;Node46 -->
<g id="edge45" class="edge"><title>Node44&#45;&gt;Node46</title>
<path fill="none" stroke="midnightblue" d="M367.894,-172.667C375.039,-170.022 382.072,-166.551 388,-162 411.767,-143.755 400.131,-123.112 424,-105 430.6,-99.9918 438.511,-96.2978 446.472,-93.5749"/>
<polygon fill="midnightblue" stroke="midnightblue" points="366.626,-169.398 358.173,-175.786 368.764,-176.064 366.626,-169.398"/>
</g>
<!-- Node47 -->
<g id="node47" class="node"><title>Node47</title>
<g id="a_node47"><a xlink:href="../../d6/df0/class_torc_power_unix_d_bus.html" target="_top" xlink:title="A power monitoring class for Unix based systems. ">
<polygon fill="white" stroke="black" points="433.5,-38.5 433.5,-57.5 543.5,-57.5 543.5,-38.5 433.5,-38.5"/>
<text text-anchor="middle" x="488.5" y="-45.5" font-family="Helvetica,sans-Serif" font-size="10.00">TorcPowerUnixDBus</text>
</a>
</g>
</g>
<!-- Node44&#45;&gt;Node47 -->
<g id="edge46" class="edge"><title>Node44&#45;&gt;Node47</title>
<path fill="none" stroke="midnightblue" d="M368.036,-173.847C375.339,-171.093 382.392,-167.28 388,-162 420.875,-131.049 390.952,-97.7659 424,-67 428.127,-63.158 433.001,-60.0907 438.184,-57.6422"/>
<polygon fill="midnightblue" stroke="midnightblue" points="366.53,-170.651 358.037,-176.984 368.626,-177.33 366.53,-170.651"/>
</g>
<!-- Node49 -->
<g id="node49" class="node"><title>Node49</title>
<g id="a_node49"><a xlink:href="../../d0/d84/class_torc_setting_group.html" target="_top" xlink:title="High level group of related settings. ">
<polygon fill="white" stroke="black" points="439,-0.5 439,-19.5 538,-19.5 538,-0.5 439,-0.5"/>
<text text-anchor="middle" x="488.5" y="-7.5" font-family="Helvetica,sans-Serif" font-size="10.00">TorcSettingGroup</text>
</a>
</g>
</g>
<!-- Node48&#45;&gt;Node49 -->
<g id="edge48" class="edge"><title>Node48&#45;&gt;Node49</title>
<path fill="none" stroke="midnightblue" d="M370.641,-134.814C377.004,-132.161 383.062,-128.649 388,-124 420.875,-93.0492 390.952,-59.7659 424,-29 428.295,-25.0012 433.4,-21.8416 438.82,-19.3455"/>
<polygon fill="midnightblue" stroke="midnightblue" points="369.48,-131.512 361.197,-138.119 371.792,-138.119 369.48,-131.512"/>
</g>
</g>
</svg>
