<?xml version="1.0" encoding="UTF-8" standalone="no"?>
<!DOCTYPE svg PUBLIC "-//W3C//DTD SVG 1.1//EN"
 "http://www.w3.org/Graphics/SVG/1.1/DTD/svg11.dtd">
<!-- Generated by graphviz version 2.38.0 (20140413.2041)
 -->
<!-- Title: torcdevice.h Pages: 1 -->
<svg width="516pt" height="140pt"
 viewBox="0.00 0.00 516.00 140.00" xmlns="http://www.w3.org/2000/svg" xmlns:xlink="http://www.w3.org/1999/xlink">
<g id="graph0" class="graph" transform="scale(1 1) rotate(0) translate(4 136)">
<title>torcdevice.h</title>
<polygon fill="white" stroke="none" points="-4,4 -4,-136 512,-136 512,4 -4,4"/>
<!-- Node1 -->
<g id="node1" class="node"><title>Node1</title>
<polygon fill="#bfbfbf" stroke="black" points="174,-112.5 174,-131.5 249,-131.5 249,-112.5 174,-112.5"/>
<text text-anchor="middle" x="211.5" y="-119.5" font-family="Helvetica,sans-Serif" font-size="10.00">torcdevice.h</text>
</g>
<!-- Node2 -->
<g id="node2" class="node"><title>Node2</title>
<polygon fill="white" stroke="#bfbfbf" points="0,-0.5 0,-19.5 49,-19.5 49,-0.5 0,-0.5"/>
<text text-anchor="middle" x="24.5" y="-7.5" font-family="Helvetica,sans-Serif" font-size="10.00">QHash</text>
</g>
<!-- Node1&#45;&gt;Node2 -->
<g id="edge1" class="edge"><title>Node1&#45;&gt;Node2</title>
<path fill="none" stroke="midnightblue" d="M174.151,-112.434C148.156,-105.344 113.461,-93.5598 86.5,-76 66.5879,-63.0313 48.4143,-42.4727 36.9642,-27.954"/>
<polygon fill="midnightblue" stroke="midnightblue" points="39.5999,-25.6387 30.7483,-19.8164 34.0371,-29.8878 39.5999,-25.6387"/>
</g>
<!-- Node3 -->
<g id="node3" class="node"><title>Node3</title>
<polygon fill="white" stroke="#bfbfbf" points="67,-0.5 67,-19.5 120,-19.5 120,-0.5 67,-0.5"/>
<text text-anchor="middle" x="93.5" y="-7.5" font-family="Helvetica,sans-Serif" font-size="10.00">QMutex</text>
</g>
<!-- Node1&#45;&gt;Node3 -->
<g id="edge2" class="edge"><title>Node1&#45;&gt;Node3</title>
<path fill="none" stroke="midnightblue" d="M173.827,-116.612C147.923,-111.461 115.13,-100.275 97.5,-76 87.8538,-62.7183 87.8625,-43.5948 89.6774,-29.5276"/>
<polygon fill="midnightblue" stroke="midnightblue" points="93.1501,-29.9825 91.3702,-19.5383 86.2485,-28.8129 93.1501,-29.9825"/>
</g>
<!-- Node4 -->
<g id="node4" class="node"><title>Node4</title>
<polygon fill="white" stroke="#bfbfbf" points="235,-56.5 235,-75.5 288,-75.5 288,-56.5 235,-56.5"/>
<text text-anchor="middle" x="261.5" y="-63.5" font-family="Helvetica,sans-Serif" font-size="10.00">QString</text>
</g>
<!-- Node1&#45;&gt;Node4 -->
<g id="edge3" class="edge"><title>Node1&#45;&gt;Node4</title>
<path fill="none" stroke="midnightblue" d="M219.756,-112.083C226.965,-104.298 237.61,-92.8015 246.346,-83.3665"/>
<polygon fill="midnightblue" stroke="midnightblue" points="249.171,-85.4666 253.397,-75.7511 244.035,-80.7108 249.171,-85.4666"/>
</g>
<!-- Node5 -->
<g id="node5" class="node"><title>Node5</title>
<polygon fill="white" stroke="#bfbfbf" points="306,-56.5 306,-75.5 361,-75.5 361,-56.5 306,-56.5"/>
<text text-anchor="middle" x="333.5" y="-63.5" font-family="Helvetica,sans-Serif" font-size="10.00">QObject</text>
</g>
<!-- Node1&#45;&gt;Node5 -->
<g id="edge4" class="edge"><title>Node1&#45;&gt;Node5</title>
<path fill="none" stroke="midnightblue" d="M230.831,-112.444C250.82,-103.596 282.243,-89.6875 305.064,-79.5865"/>
<polygon fill="midnightblue" stroke="midnightblue" points="306.532,-82.7645 314.259,-75.5164 303.698,-76.3635 306.532,-82.7645"/>
</g>
<!-- Node6 -->
<g id="node6" class="node"><title>Node6</title>
<g id="a_node6"><a xlink:href="../../d8/dfe/torcreferencecounted_8h.html" target="_top" xlink:title="torcreferencecounted.h">
<polygon fill="white" stroke="black" points="379,-56.5 379,-75.5 508,-75.5 508,-56.5 379,-56.5"/>
<text text-anchor="middle" x="443.5" y="-63.5" font-family="Helvetica,sans-Serif" font-size="10.00">torcreferencecounted.h</text>
</a>
</g>
</g>
<!-- Node1&#45;&gt;Node6 -->
<g id="edge5" class="edge"><title>Node1&#45;&gt;Node6</title>
<path fill="none" stroke="midnightblue" d="M248.261,-112.444C288.563,-103.063 353.309,-87.9926 397.085,-77.8036"/>
<polygon fill="midnightblue" stroke="midnightblue" points="397.965,-81.1924 406.911,-75.5164 396.378,-74.3746 397.965,-81.1924"/>
</g>
<!-- Node8 -->
<g id="node8" class="node"><title>Node8</title>
<g id="a_node8"><a xlink:href="../../d2/d5b/torcdevicehandler_8h.html" target="_top" xlink:title="torcdevicehandler.h">
<polygon fill="white" stroke="black" points="106.5,-56.5 106.5,-75.5 216.5,-75.5 216.5,-56.5 106.5,-56.5"/>
<text text-anchor="middle" x="161.5" y="-63.5" font-family="Helvetica,sans-Serif" font-size="10.00">torcdevicehandler.h</text>
</a>
</g>
</g>
<!-- Node1&#45;&gt;Node8 -->
<g id="edge7" class="edge"><title>Node1&#45;&gt;Node8</title>
<path fill="none" stroke="midnightblue" d="M203.244,-112.083C196.035,-104.298 185.39,-92.8015 176.654,-83.3665"/>
<polygon fill="midnightblue" stroke="midnightblue" points="178.965,-80.7108 169.603,-75.7511 173.829,-85.4666 178.965,-80.7108"/>
</g>
<!-- Node7 -->
<g id="node7" class="node"><title>Node7</title>
<polygon fill="white" stroke="#bfbfbf" points="408.5,-0.5 408.5,-19.5 478.5,-19.5 478.5,-0.5 408.5,-0.5"/>
<text text-anchor="middle" x="443.5" y="-7.5" font-family="Helvetica,sans-Serif" font-size="10.00">QAtomicInt</text>
</g>
<!-- Node6&#45;&gt;Node7 -->
<g id="edge6" class="edge"><title>Node6&#45;&gt;Node7</title>
<path fill="none" stroke="midnightblue" d="M443.5,-56.083C443.5,-49.0059 443.5,-38.8611 443.5,-29.9865"/>
<polygon fill="midnightblue" stroke="midnightblue" points="447,-29.751 443.5,-19.7511 440,-29.7511 447,-29.751"/>
</g>
<!-- Node8&#45;&gt;Node2 -->
<g id="edge8" class="edge"><title>Node8&#45;&gt;Node2</title>
<path fill="none" stroke="midnightblue" d="M139.792,-56.4435C117.145,-47.5171 81.4279,-33.4387 55.7482,-23.3168"/>
<polygon fill="midnightblue" stroke="midnightblue" points="56.6934,-19.9273 46.1065,-19.5164 54.1264,-26.4397 56.6934,-19.9273"/>
</g>
<!-- Node8&#45;&gt;Node3 -->
<g id="edge9" class="edge"><title>Node8&#45;&gt;Node3</title>
<path fill="none" stroke="midnightblue" d="M150.575,-56.324C140.325,-48.1849 124.779,-35.8395 112.499,-26.0874"/>
<polygon fill="midnightblue" stroke="midnightblue" points="114.632,-23.3119 104.624,-19.8339 110.279,-28.7937 114.632,-23.3119"/>
</g>
<!-- Node9 -->
<g id="node9" class="node"><title>Node9</title>
<polygon fill="white" stroke="#bfbfbf" points="214.5,-0.5 214.5,-19.5 306.5,-19.5 306.5,-0.5 214.5,-0.5"/>
<text text-anchor="middle" x="260.5" y="-7.5" font-family="Helvetica,sans-Serif" font-size="10.00">QReadWriteLock</text>
</g>
<!-- Node8&#45;&gt;Node9 -->
<g id="edge10" class="edge"><title>Node8&#45;&gt;Node9</title>
<path fill="none" stroke="midnightblue" d="M177.406,-56.324C193.138,-47.7428 217.442,-34.486 235.709,-24.5224"/>
<polygon fill="midnightblue" stroke="midnightblue" points="237.53,-27.5157 244.633,-19.6545 234.178,-21.3704 237.53,-27.5157"/>
</g>
<!-- Node10 -->
<g id="node10" class="node"><title>Node10</title>
<polygon fill="white" stroke="#bfbfbf" points="138.5,-0.5 138.5,-19.5 196.5,-19.5 196.5,-0.5 138.5,-0.5"/>
<text text-anchor="middle" x="167.5" y="-7.5" font-family="Helvetica,sans-Serif" font-size="10.00">QVariant</text>
</g>
<!-- Node8&#45;&gt;Node10 -->
<g id="edge11" class="edge"><title>Node8&#45;&gt;Node10</title>
<path fill="none" stroke="midnightblue" d="M162.491,-56.083C163.286,-48.9272 164.429,-38.6353 165.423,-29.6911"/>
<polygon fill="midnightblue" stroke="midnightblue" points="168.902,-30.0765 166.528,-19.7511 161.945,-29.3034 168.902,-30.0765"/>
</g>
</g>
</svg>
