<?xml version="1.0" encoding="UTF-8" standalone="no"?>
<!DOCTYPE svg PUBLIC "-//W3C//DTD SVG 1.1//EN"
 "http://www.w3.org/Graphics/SVG/1.1/DTD/svg11.dtd">
<!-- Generated by graphviz version 2.38.0 (20140413.2041)
 -->
<!-- Title: torccentral.h Pages: 1 -->
<svg width="1071pt" height="308pt"
 viewBox="0.00 0.00 1070.92 308.00" xmlns="http://www.w3.org/2000/svg" xmlns:xlink="http://www.w3.org/1999/xlink">
<g id="graph0" class="graph" transform="scale(1 1) rotate(0) translate(4 304)">
<title>torccentral.h</title>
<polygon fill="white" stroke="none" points="-4,4 -4,-304 1066.92,-304 1066.92,4 -4,4"/>
<!-- Node1 -->
<g id="node1" class="node"><title>Node1</title>
<polygon fill="#bfbfbf" stroke="black" points="317.419,-280.5 317.419,-299.5 394.419,-299.5 394.419,-280.5 317.419,-280.5"/>
<text text-anchor="middle" x="355.919" y="-287.5" font-family="Helvetica,sans-Serif" font-size="10.00">torccentral.h</text>
</g>
<!-- Node2 -->
<g id="node2" class="node"><title>Node2</title>
<polygon fill="white" stroke="#bfbfbf" points="520.419,-112.5 520.419,-131.5 573.419,-131.5 573.419,-112.5 520.419,-112.5"/>
<text text-anchor="middle" x="546.919" y="-119.5" font-family="Helvetica,sans-Serif" font-size="10.00">QMutex</text>
</g>
<!-- Node1&#45;&gt;Node2 -->
<g id="edge1" class="edge"><title>Node1&#45;&gt;Node2</title>
<path fill="none" stroke="midnightblue" d="M378.632,-280.402C413.466,-266.162 480.206,-234.555 519.919,-188 531.307,-174.649 538.415,-155.822 542.461,-141.865"/>
<polygon fill="midnightblue" stroke="midnightblue" points="545.92,-142.473 545.073,-131.912 539.149,-140.696 545.92,-142.473"/>
</g>
<!-- Node3 -->
<g id="node3" class="node"><title>Node3</title>
<polygon fill="white" stroke="#bfbfbf" points="84.4186,-168.5 84.4186,-187.5 139.419,-187.5 139.419,-168.5 84.4186,-168.5"/>
<text text-anchor="middle" x="111.919" y="-175.5" font-family="Helvetica,sans-Serif" font-size="10.00">QObject</text>
</g>
<!-- Node1&#45;&gt;Node3 -->
<g id="edge2" class="edge"><title>Node1&#45;&gt;Node3</title>
<path fill="none" stroke="midnightblue" d="M336.772,-280.368C294.011,-261.091 190.561,-214.454 140.288,-191.789"/>
<polygon fill="midnightblue" stroke="midnightblue" points="141.531,-188.511 130.976,-187.591 138.654,-194.892 141.531,-188.511"/>
</g>
<!-- Node4 -->
<g id="node4" class="node"><title>Node4</title>
<polygon fill="white" stroke="#bfbfbf" points="280.919,-112.5 280.919,-131.5 338.919,-131.5 338.919,-112.5 280.919,-112.5"/>
<text text-anchor="middle" x="309.919" y="-119.5" font-family="Helvetica,sans-Serif" font-size="10.00">QVariant</text>
</g>
<!-- Node1&#45;&gt;Node4 -->
<g id="edge3" class="edge"><title>Node1&#45;&gt;Node4</title>
<path fill="none" stroke="midnightblue" d="M317.392,-288.529C253.82,-285.388 128.649,-268.689 74.9186,-188 8.22091,-87.8386 -118.858,-207.609 265.919,-132 267.401,-131.709 268.911,-131.41 270.436,-131.107"/>
<polygon fill="midnightblue" stroke="midnightblue" points="271.469,-134.469 280.583,-129.066 270.089,-127.606 271.469,-134.469"/>
</g>
<!-- Node5 -->
<g id="node5" class="node"><title>Node5</title>
<g id="a_node5"><a xlink:href="../../d1/df7/torcdevice_8h.html" target="_top" xlink:title="torcdevice.h">
<polygon fill="white" stroke="black" points="318.419,-224.5 318.419,-243.5 393.419,-243.5 393.419,-224.5 318.419,-224.5"/>
<text text-anchor="middle" x="355.919" y="-231.5" font-family="Helvetica,sans-Serif" font-size="10.00">torcdevice.h</text>
</a>
</g>
</g>
<!-- Node1&#45;&gt;Node5 -->
<g id="edge4" class="edge"><title>Node1&#45;&gt;Node5</title>
<path fill="none" stroke="midnightblue" d="M355.919,-280.083C355.919,-273.006 355.919,-262.861 355.919,-253.986"/>
<polygon fill="midnightblue" stroke="midnightblue" points="359.419,-253.751 355.919,-243.751 352.419,-253.751 359.419,-253.751"/>
</g>
<!-- Node11 -->
<g id="node11" class="node"><title>Node11</title>
<g id="a_node11"><a xlink:href="../../d3/dee/torchttpservice_8h.html" target="_top" xlink:title="http/torchttpservice.h">
<polygon fill="white" stroke="black" points="709.919,-224.5 709.919,-243.5 829.919,-243.5 829.919,-224.5 709.919,-224.5"/>
<text text-anchor="middle" x="769.919" y="-231.5" font-family="Helvetica,sans-Serif" font-size="10.00">http/torchttpservice.h</text>
</a>
</g>
</g>
<!-- Node1&#45;&gt;Node11 -->
<g id="edge15" class="edge"><title>Node1&#45;&gt;Node11</title>
<path fill="none" stroke="midnightblue" d="M394.495,-283.968C464.103,-274.889 611.635,-255.646 699.607,-244.171"/>
<polygon fill="midnightblue" stroke="midnightblue" points="700.304,-247.61 709.767,-242.846 699.399,-240.669 700.304,-247.61"/>
</g>
<!-- Node5&#45;&gt;Node2 -->
<g id="edge6" class="edge"><title>Node5&#45;&gt;Node2</title>
<path fill="none" stroke="midnightblue" d="M393.676,-226.937C423.244,-220.806 464.346,-209.122 494.919,-188 512.865,-175.601 527.726,-155.227 536.901,-140.593"/>
<polygon fill="midnightblue" stroke="midnightblue" points="539.944,-142.322 542.084,-131.946 533.94,-138.723 539.944,-142.322"/>
</g>
<!-- Node5&#45;&gt;Node3 -->
<g id="edge8" class="edge"><title>Node5&#45;&gt;Node3</title>
<path fill="none" stroke="midnightblue" d="M318.262,-225.23C278.572,-216.958 213.985,-203.26 149.7,-188.367"/>
<polygon fill="midnightblue" stroke="midnightblue" points="150.338,-184.923 139.805,-186.065 148.752,-191.74 150.338,-184.923"/>
</g>
<!-- Node6 -->
<g id="node6" class="node"><title>Node6</title>
<polygon fill="white" stroke="#bfbfbf" points="362.419,-112.5 362.419,-131.5 411.419,-131.5 411.419,-112.5 362.419,-112.5"/>
<text text-anchor="middle" x="386.919" y="-119.5" font-family="Helvetica,sans-Serif" font-size="10.00">QHash</text>
</g>
<!-- Node5&#45;&gt;Node6 -->
<g id="edge5" class="edge"><title>Node5&#45;&gt;Node6</title>
<path fill="none" stroke="midnightblue" d="M348.872,-224.361C339.448,-211.69 324.912,-187.462 333.919,-168 339.839,-155.207 351.387,-144.722 362.196,-137.1"/>
<polygon fill="midnightblue" stroke="midnightblue" points="364.132,-140.016 370.585,-131.613 360.3,-134.158 364.132,-140.016"/>
</g>
<!-- Node7 -->
<g id="node7" class="node"><title>Node7</title>
<polygon fill="white" stroke="#bfbfbf" points="686.419,-56.5 686.419,-75.5 739.419,-75.5 739.419,-56.5 686.419,-56.5"/>
<text text-anchor="middle" x="712.919" y="-63.5" font-family="Helvetica,sans-Serif" font-size="10.00">QString</text>
</g>
<!-- Node5&#45;&gt;Node7 -->
<g id="edge7" class="edge"><title>Node5&#45;&gt;Node7</title>
<path fill="none" stroke="midnightblue" d="M389.268,-224.457C411.66,-217.458 440.813,-205.769 461.919,-188 492.663,-162.115 477.946,-134.979 510.919,-112 560.752,-77.2696 632.862,-68.7853 676.093,-67.0282"/>
<polygon fill="midnightblue" stroke="midnightblue" points="676.281,-70.5241 686.169,-66.7198 676.066,-63.5274 676.281,-70.5241"/>
</g>
<!-- Node8 -->
<g id="node8" class="node"><title>Node8</title>
<g id="a_node8"><a xlink:href="../../d8/dfe/torcreferencecounted_8h.html" target="_top" xlink:title="torcreferencecounted.h">
<polygon fill="white" stroke="black" points="157.419,-168.5 157.419,-187.5 286.419,-187.5 286.419,-168.5 157.419,-168.5"/>
<text text-anchor="middle" x="221.919" y="-175.5" font-family="Helvetica,sans-Serif" font-size="10.00">torcreferencecounted.h</text>
</a>
</g>
</g>
<!-- Node5&#45;&gt;Node8 -->
<g id="edge9" class="edge"><title>Node5&#45;&gt;Node8</title>
<path fill="none" stroke="midnightblue" d="M334.686,-224.444C312.535,-215.517 277.6,-201.439 252.483,-191.317"/>
<polygon fill="midnightblue" stroke="midnightblue" points="253.635,-188.008 243.052,-187.516 251.019,-194.501 253.635,-188.008"/>
</g>
<!-- Node10 -->
<g id="node10" class="node"><title>Node10</title>
<g id="a_node10"><a xlink:href="../../d2/d5b/torcdevicehandler_8h.html" target="_top" xlink:title="torcdevicehandler.h">
<polygon fill="white" stroke="black" points="342.919,-168.5 342.919,-187.5 452.919,-187.5 452.919,-168.5 342.919,-168.5"/>
<text text-anchor="middle" x="397.919" y="-175.5" font-family="Helvetica,sans-Serif" font-size="10.00">torcdevicehandler.h</text>
</a>
</g>
</g>
<!-- Node5&#45;&gt;Node10 -->
<g id="edge11" class="edge"><title>Node5&#45;&gt;Node10</title>
<path fill="none" stroke="midnightblue" d="M362.854,-224.083C368.848,-216.377 377.67,-205.033 384.966,-195.653"/>
<polygon fill="midnightblue" stroke="midnightblue" points="387.735,-197.793 391.112,-187.751 382.21,-193.496 387.735,-197.793"/>
</g>
<!-- Node9 -->
<g id="node9" class="node"><title>Node9</title>
<polygon fill="white" stroke="#bfbfbf" points="186.919,-112.5 186.919,-131.5 256.919,-131.5 256.919,-112.5 186.919,-112.5"/>
<text text-anchor="middle" x="221.919" y="-119.5" font-family="Helvetica,sans-Serif" font-size="10.00">QAtomicInt</text>
</g>
<!-- Node8&#45;&gt;Node9 -->
<g id="edge10" class="edge"><title>Node8&#45;&gt;Node9</title>
<path fill="none" stroke="midnightblue" d="M221.919,-168.083C221.919,-161.006 221.919,-150.861 221.919,-141.986"/>
<polygon fill="midnightblue" stroke="midnightblue" points="225.419,-141.751 221.919,-131.751 218.419,-141.751 225.419,-141.751"/>
</g>
<!-- Node10&#45;&gt;Node2 -->
<g id="edge13" class="edge"><title>Node10&#45;&gt;Node2</title>
<path fill="none" stroke="midnightblue" d="M421.528,-168.444C446.376,-159.438 485.693,-145.189 513.672,-135.049"/>
<polygon fill="midnightblue" stroke="midnightblue" points="515.211,-138.214 523.42,-131.516 512.825,-131.633 515.211,-138.214"/>
</g>
<!-- Node10&#45;&gt;Node4 -->
<g id="edge14" class="edge"><title>Node10&#45;&gt;Node4</title>
<path fill="none" stroke="midnightblue" d="M383.78,-168.324C370.052,-159.9 348.982,-146.971 332.854,-137.074"/>
<polygon fill="midnightblue" stroke="midnightblue" points="334.376,-133.902 324.022,-131.655 330.715,-139.868 334.376,-133.902"/>
</g>
<!-- Node10&#45;&gt;Node6 -->
<g id="edge12" class="edge"><title>Node10&#45;&gt;Node6</title>
<path fill="none" stroke="midnightblue" d="M396.102,-168.083C394.645,-160.927 392.548,-150.635 390.726,-141.691"/>
<polygon fill="midnightblue" stroke="midnightblue" points="394.127,-140.851 388.701,-131.751 387.268,-142.248 394.127,-140.851"/>
</g>
<!-- Node11&#45;&gt;Node2 -->
<g id="edge17" class="edge"><title>Node11&#45;&gt;Node2</title>
<path fill="none" stroke="midnightblue" d="M717.146,-224.464C685.656,-217.788 645.739,-206.454 613.919,-188 592.121,-175.358 572.086,-154.095 559.713,-139.346"/>
<polygon fill="midnightblue" stroke="midnightblue" points="562.382,-137.081 553.358,-131.53 556.951,-141.497 562.382,-137.081"/>
</g>
<!-- Node12 -->
<g id="node12" class="node"><title>Node12</title>
<polygon fill="white" stroke="#bfbfbf" points="1018.92,-56.5 1018.92,-75.5 1062.92,-75.5 1062.92,-56.5 1018.92,-56.5"/>
<text text-anchor="middle" x="1040.92" y="-63.5" font-family="Helvetica,sans-Serif" font-size="10.00">QMap</text>
</g>
<!-- Node11&#45;&gt;Node12 -->
<g id="edge16" class="edge"><title>Node11&#45;&gt;Node12</title>
<path fill="none" stroke="midnightblue" d="M830.031,-230.415C870.458,-226.075 923.228,-215.117 961.919,-188 999.281,-161.814 1023.43,-111.77 1034.28,-84.9792"/>
<polygon fill="midnightblue" stroke="midnightblue" points="1037.54,-86.2388 1037.9,-75.6498 1031.02,-83.7072 1037.54,-86.2388"/>
</g>
<!-- Node13 -->
<g id="node13" class="node"><title>Node13</title>
<polygon fill="white" stroke="#bfbfbf" points="623.419,-168.5 623.419,-187.5 702.419,-187.5 702.419,-168.5 623.419,-168.5"/>
<text text-anchor="middle" x="662.919" y="-175.5" font-family="Helvetica,sans-Serif" font-size="10.00">QMetaObject</text>
</g>
<!-- Node11&#45;&gt;Node13 -->
<g id="edge18" class="edge"><title>Node11&#45;&gt;Node13</title>
<path fill="none" stroke="midnightblue" d="M752.727,-224.324C735.568,-215.664 708.973,-202.242 689.171,-192.249"/>
<polygon fill="midnightblue" stroke="midnightblue" points="690.572,-189.035 680.067,-187.655 687.418,-195.285 690.572,-189.035"/>
</g>
<!-- Node14 -->
<g id="node14" class="node"><title>Node14</title>
<polygon fill="white" stroke="#bfbfbf" points="720.419,-168.5 720.419,-187.5 819.419,-187.5 819.419,-168.5 720.419,-168.5"/>
<text text-anchor="middle" x="769.919" y="-175.5" font-family="Helvetica,sans-Serif" font-size="10.00">QCoreApplication</text>
</g>
<!-- Node11&#45;&gt;Node14 -->
<g id="edge19" class="edge"><title>Node11&#45;&gt;Node14</title>
<path fill="none" stroke="midnightblue" d="M769.919,-224.083C769.919,-217.006 769.919,-206.861 769.919,-197.986"/>
<polygon fill="midnightblue" stroke="midnightblue" points="773.419,-197.751 769.919,-187.751 766.419,-197.751 773.419,-197.751"/>
</g>
<!-- Node15 -->
<g id="node15" class="node"><title>Node15</title>
<g id="a_node15"><a xlink:href="../../d4/d11/torchttphandler_8h.html" target="_top" xlink:title="torchttphandler.h">
<polygon fill="white" stroke="black" points="837.419,-168.5 837.419,-187.5 936.419,-187.5 936.419,-168.5 837.419,-168.5"/>
<text text-anchor="middle" x="886.919" y="-175.5" font-family="Helvetica,sans-Serif" font-size="10.00">torchttphandler.h</text>
</a>
</g>
</g>
<!-- Node11&#45;&gt;Node15 -->
<g id="edge20" class="edge"><title>Node11&#45;&gt;Node15</title>
<path fill="none" stroke="midnightblue" d="M788.458,-224.444C807.541,-215.636 837.494,-201.812 859.354,-191.722"/>
<polygon fill="midnightblue" stroke="midnightblue" points="860.853,-194.885 868.466,-187.516 857.92,-188.529 860.853,-194.885"/>
</g>
<!-- Node17 -->
<g id="node17" class="node"><title>Node17</title>
<g id="a_node17"><a xlink:href="../../df/dd7/torchttprequest_8h.html" target="_top" xlink:title="torchttprequest.h">
<polygon fill="white" stroke="black" points="884.419,-112.5 884.419,-131.5 985.419,-131.5 985.419,-112.5 884.419,-112.5"/>
<text text-anchor="middle" x="934.919" y="-119.5" font-family="Helvetica,sans-Serif" font-size="10.00">torchttprequest.h</text>
</a>
</g>
</g>
<!-- Node11&#45;&gt;Node17 -->
<g id="edge31" class="edge"><title>Node11&#45;&gt;Node17</title>
<path fill="none" stroke="midnightblue" d="M830.277,-225.502C875.399,-218.512 931.653,-206.372 945.919,-188 956.312,-174.615 951.003,-154.97 944.679,-140.783"/>
<polygon fill="midnightblue" stroke="midnightblue" points="947.691,-138.981 940.104,-131.585 941.424,-142.098 947.691,-138.981"/>
</g>
<!-- Node15&#45;&gt;Node7 -->
<g id="edge21" class="edge"><title>Node15&#45;&gt;Node7</title>
<path fill="none" stroke="midnightblue" d="M858.381,-168.458C835.71,-160.906 803.792,-148.52 778.919,-132 758.506,-118.442 739.01,-97.9957 726.572,-83.6643"/>
<polygon fill="midnightblue" stroke="midnightblue" points="728.924,-81.0245 719.795,-75.6475 723.578,-85.5438 728.924,-81.0245"/>
</g>
<!-- Node16 -->
<g id="node16" class="node"><title>Node16</title>
<polygon fill="white" stroke="#bfbfbf" points="787.919,-112.5 787.919,-131.5 865.919,-131.5 865.919,-112.5 787.919,-112.5"/>
<text text-anchor="middle" x="826.919" y="-119.5" font-family="Helvetica,sans-Serif" font-size="10.00">QVariantMap</text>
</g>
<!-- Node15&#45;&gt;Node16 -->
<g id="edge22" class="edge"><title>Node15&#45;&gt;Node16</title>
<path fill="none" stroke="midnightblue" d="M877.279,-168.324C868.409,-160.341 855.044,-148.313 844.311,-138.653"/>
<polygon fill="midnightblue" stroke="midnightblue" points="846.508,-135.922 836.734,-131.834 841.826,-141.125 846.508,-135.922"/>
</g>
<!-- Node15&#45;&gt;Node17 -->
<g id="edge23" class="edge"><title>Node15&#45;&gt;Node17</title>
<path fill="none" stroke="midnightblue" d="M894.845,-168.083C901.765,-160.298 911.984,-148.801 920.371,-139.367"/>
<polygon fill="midnightblue" stroke="midnightblue" points="923.112,-141.55 927.14,-131.751 917.88,-136.9 923.112,-141.55"/>
</g>
<!-- Node17&#45;&gt;Node7 -->
<g id="edge26" class="edge"><title>Node17&#45;&gt;Node7</title>
<path fill="none" stroke="midnightblue" d="M898.68,-112.456C863.039,-104.013 806.824,-90.5935 749.599,-76.3936"/>
<polygon fill="midnightblue" stroke="midnightblue" points="750.21,-72.939 739.661,-73.9221 748.52,-79.7321 750.21,-72.939"/>
</g>
<!-- Node17&#45;&gt;Node12 -->
<g id="edge24" class="edge"><title>Node17&#45;&gt;Node12</title>
<path fill="none" stroke="midnightblue" d="M951.949,-112.324C968.948,-103.664 995.295,-90.2424 1014.91,-80.249"/>
<polygon fill="midnightblue" stroke="midnightblue" points="1016.61,-83.3125 1023.93,-75.6545 1013.43,-77.0752 1016.61,-83.3125"/>
</g>
<!-- Node18 -->
<g id="node18" class="node"><title>Node18</title>
<polygon fill="white" stroke="#bfbfbf" points="959.419,-56.5 959.419,-75.5 1000.42,-75.5 1000.42,-56.5 959.419,-56.5"/>
<text text-anchor="middle" x="979.919" y="-63.5" font-family="Helvetica,sans-Serif" font-size="10.00">QPair</text>
</g>
<!-- Node17&#45;&gt;Node18 -->
<g id="edge25" class="edge"><title>Node17&#45;&gt;Node18</title>
<path fill="none" stroke="midnightblue" d="M942.349,-112.083C948.771,-104.377 958.224,-93.0333 966.041,-83.6531"/>
<polygon fill="midnightblue" stroke="midnightblue" points="968.913,-85.674 972.626,-75.7511 963.535,-81.1927 968.913,-85.674"/>
</g>
<!-- Node19 -->
<g id="node19" class="node"><title>Node19</title>
<polygon fill="white" stroke="#bfbfbf" points="757.419,-56.5 757.419,-75.5 828.419,-75.5 828.419,-56.5 757.419,-56.5"/>
<text text-anchor="middle" x="792.919" y="-63.5" font-family="Helvetica,sans-Serif" font-size="10.00">QDateTime</text>
</g>
<!-- Node17&#45;&gt;Node19 -->
<g id="edge27" class="edge"><title>Node17&#45;&gt;Node19</title>
<path fill="none" stroke="midnightblue" d="M912.418,-112.444C888.841,-103.478 851.596,-89.314 824.955,-79.1827"/>
<polygon fill="midnightblue" stroke="midnightblue" points="825.905,-75.7995 815.314,-75.5164 823.417,-82.3424 825.905,-75.7995"/>
</g>
<!-- Node20 -->
<g id="node20" class="node"><title>Node20</title>
<g id="a_node20"><a xlink:href="../../de/de6/torchttpreader_8h.html" target="_top" xlink:title="torchttpreader.h">
<polygon fill="white" stroke="black" points="846.419,-56.5 846.419,-75.5 941.419,-75.5 941.419,-56.5 846.419,-56.5"/>
<text text-anchor="middle" x="893.919" y="-63.5" font-family="Helvetica,sans-Serif" font-size="10.00">torchttpreader.h</text>
</a>
</g>
</g>
<!-- Node17&#45;&gt;Node20 -->
<g id="edge28" class="edge"><title>Node17&#45;&gt;Node20</title>
<path fill="none" stroke="midnightblue" d="M928.148,-112.083C922.357,-104.455 913.86,-93.2645 906.781,-83.9408"/>
<polygon fill="midnightblue" stroke="midnightblue" points="909.398,-81.5991 900.563,-75.7511 903.822,-85.8321 909.398,-81.5991"/>
</g>
<!-- Node21 -->
<g id="node21" class="node"><title>Node21</title>
<polygon fill="white" stroke="#bfbfbf" points="813.419,-0.5 813.419,-19.5 884.419,-19.5 884.419,-0.5 813.419,-0.5"/>
<text text-anchor="middle" x="848.919" y="-7.5" font-family="Helvetica,sans-Serif" font-size="10.00">QByteArray</text>
</g>
<!-- Node20&#45;&gt;Node21 -->
<g id="edge29" class="edge"><title>Node20&#45;&gt;Node21</title>
<path fill="none" stroke="midnightblue" d="M886.488,-56.083C880.066,-48.3768 870.613,-37.0333 862.796,-27.6531"/>
<polygon fill="midnightblue" stroke="midnightblue" points="865.302,-25.1927 856.211,-19.7511 859.924,-29.674 865.302,-25.1927"/>
</g>
<!-- Node22 -->
<g id="node22" class="node"><title>Node22</title>
<polygon fill="white" stroke="#bfbfbf" points="902.919,-0.5 902.919,-19.5 974.919,-19.5 974.919,-0.5 902.919,-0.5"/>
<text text-anchor="middle" x="938.919" y="-7.5" font-family="Helvetica,sans-Serif" font-size="10.00">QTcpSocket</text>
</g>
<!-- Node20&#45;&gt;Node22 -->
<g id="edge30" class="edge"><title>Node20&#45;&gt;Node22</title>
<path fill="none" stroke="midnightblue" d="M901.349,-56.083C907.771,-48.3768 917.224,-37.0333 925.041,-27.6531"/>
<polygon fill="midnightblue" stroke="midnightblue" points="927.913,-29.674 931.626,-19.7511 922.535,-25.1927 927.913,-29.674"/>
</g>
</g>
</svg>
