<?xml version="1.0" encoding="UTF-8" standalone="no"?>
<!DOCTYPE svg PUBLIC "-//W3C//DTD SVG 1.1//EN"
 "http://www.w3.org/Graphics/SVG/1.1/DTD/svg11.dtd">
<!-- Generated by graphviz version 2.38.0 (20140413.2041)
 -->
<!-- Title: torcnetworkbuttoninput.h Pages: 1 -->
<svg width="260pt" height="84pt"
 viewBox="0.00 0.00 260.00 84.00" xmlns="http://www.w3.org/2000/svg" xmlns:xlink="http://www.w3.org/1999/xlink">
<g id="graph0" class="graph" transform="scale(1 1) rotate(0) translate(4 80)">
<title>torcnetworkbuttoninput.h</title>
<polygon fill="white" stroke="none" points="-4,4 -4,-80 256,-80 256,4 -4,4"/>
<!-- Node1 -->
<g id="node1" class="node"><title>Node1</title>
<polygon fill="#bfbfbf" stroke="black" points="41,-56.5 41,-75.5 178,-75.5 178,-56.5 41,-56.5"/>
<text text-anchor="middle" x="109.5" y="-63.5" font-family="Helvetica,sans-Serif" font-size="10.00">torcnetworkbuttoninput.h</text>
</g>
<!-- Node2 -->
<g id="node2" class="node"><title>Node2</title>
<g id="a_node2"><a xlink:href="../../d1/d0c/torcinputs_8cpp.html" target="_top" xlink:title="torcinputs.cpp">
<polygon fill="white" stroke="black" points="0,-0.5 0,-19.5 85,-19.5 85,-0.5 0,-0.5"/>
<text text-anchor="middle" x="42.5" y="-7.5" font-family="Helvetica,sans-Serif" font-size="10.00">torcinputs.cpp</text>
</a>
</g>
</g>
<!-- Node1&#45;&gt;Node2 -->
<g id="edge1" class="edge"><title>Node1&#45;&gt;Node2</title>
<path fill="none" stroke="midnightblue" d="M90.6652,-49.8197C78.6616,-40.1452 63.5283,-27.9481 53.4606,-19.8339"/>
<polygon fill="midnightblue" stroke="midnightblue" points="88.753,-52.7738 98.7353,-56.324 93.1457,-47.3236 88.753,-52.7738"/>
</g>
<!-- Node3 -->
<g id="node3" class="node"><title>Node3</title>
<g id="a_node3"><a xlink:href="../../db/d78/torcnetworkbuttoninput_8cpp.html" target="_top" xlink:title="torcnetworkbuttoninput.cpp">
<polygon fill="white" stroke="black" points="103,-0.5 103,-19.5 252,-19.5 252,-0.5 103,-0.5"/>
<text text-anchor="middle" x="177.5" y="-7.5" font-family="Helvetica,sans-Serif" font-size="10.00">torcnetworkbuttoninput.cpp</text>
</a>
</g>
</g>
<!-- Node1&#45;&gt;Node3 -->
<g id="edge2" class="edge"><title>Node1&#45;&gt;Node3</title>
<path fill="none" stroke="midnightblue" d="M128.262,-50.1008C140.5,-40.3824 156.059,-28.0269 166.376,-19.8339"/>
<polygon fill="midnightblue" stroke="midnightblue" points="126.08,-47.3642 120.425,-56.324 130.433,-52.846 126.08,-47.3642"/>
</g>
</g>
</svg>
