<?xml version="1.0" encoding="UTF-8" standalone="no"?>
<!DOCTYPE svg PUBLIC "-//W3C//DTD SVG 1.1//EN"
 "http://www.w3.org/Graphics/SVG/1.1/DTD/svg11.dtd">
<!-- Generated by graphviz version 2.38.0 (20140413.2041)
 -->
<!-- Title: torcnetwork.h Pages: 1 -->
<!--zoomable 140 -->
<svg id="main" version="1.1" xmlns="http://www.w3.org/2000/svg" xmlns:xlink="http://www.w3.org/1999/xlink" xml:space="preserve" onload="init(evt)">
<style type="text/css"><![CDATA[
.edge:hover path { stroke: red; }
.edge:hover polygon { stroke: red; fill: red; }
]]></style>
<script type="text/javascript"><![CDATA[
var edges = document.getElementsByTagName('g');
if (edges && edges.length) {
  for (var i=0;i<edges.length;i++) {
    if (edges[i].id.substr(0,4)=='edge') {
      edges[i].setAttribute('class','edge');
    }
  }
}
]]></script>
        <defs>
                <circle id="rim" cx="0" cy="0" r="7"/>
                <circle id="rim2" cx="0" cy="0" r="3.5"/>
                <g id="zoomPlus">
                        <use xlink:href="#rim" fill="#404040">
                                <set attributeName="fill" to="#808080" begin="zoomplus.mouseover" end="zoomplus.mouseout"/>
                        </use>
                        <path d="M-4,0h8M0,-4v8" fill="none" stroke="white" stroke-width="1.5" pointer-events="none"/>
                </g>
                <g id="zoomMin">
                        <use xlink:href="#rim" fill="#404040">
                                <set attributeName="fill" to="#808080" begin="zoomminus.mouseover" end="zoomminus.mouseout"/>
                        </use>
                        <path d="M-4,0h8" fill="none" stroke="white" stroke-width="1.5" pointer-events="none"/>
                </g>
                <g id="dirArrow">
                        <path fill="none" stroke="white" stroke-width="1.5" d="M0,-3.0v7 M-2.5,-0.5L0,-3.0L2.5,-0.5"/>
                </g>
               <g id="resetDef">
                       <use xlink:href="#rim2" fill="#404040">
                               <set attributeName="fill" to="#808080" begin="reset.mouseover" end="reset.mouseout"/>
                       </use>
               </g>
        </defs>

<script type="text/javascript">
var viewWidth = 1730;
var viewHeight = 140;
var sectionId = 'dynsection-1';
</script>
<script xlink:href="../../svgpan.js"/>
<svg id="graph" class="graph">
<g id="viewport">
<title>torcnetwork.h</title>
<polygon fill="white" stroke="none" points="-4,4 -4,-136 1725.5,-136 1725.5,4 -4,4"/>
<!-- Node1 -->
<g id="node1" class="node"><title>Node1</title>
<polygon fill="#bfbfbf" stroke="black" points="1000.5,-112.5 1000.5,-131.5 1082.5,-131.5 1082.5,-112.5 1000.5,-112.5"/>
<text text-anchor="middle" x="1041.5" y="-119.5" font-family="Helvetica,sans-Serif" font-size="10.00">torcnetwork.h</text>
</g>
<!-- Node2 -->
<g id="node2" class="node"><title>Node2</title>
<g id="a_node2"><a xlink:href="../../db/d31/torciotlogger_8cpp.html" target="_top" xlink:title="torciotlogger.cpp">
<polygon fill="white" stroke="black" points="0,-56.5 0,-75.5 97,-75.5 97,-56.5 0,-56.5"/>
<text text-anchor="middle" x="48.5" y="-63.5" font-family="Helvetica,sans-Serif" font-size="10.00">torciotlogger.cpp</text>
</a>
</g>
</g>
<!-- Node1&#45;&gt;Node2 -->
<g id="edge1" class="edge"><title>Node1&#45;&gt;Node2</title>
<path fill="none" stroke="midnightblue" d="M990.216,-120.487C848.855,-118.653 441.797,-110.531 105.5,-76 102.809,-75.7237 100.052,-75.4056 97.2721,-75.0575"/>
<polygon fill="midnightblue" stroke="midnightblue" points="990.282,-123.988 1000.32,-120.614 990.369,-116.989 990.282,-123.988"/>
</g>
<!-- Node3 -->
<g id="node3" class="node"><title>Node3</title>
<g id="a_node3"><a xlink:href="../../d6/da0/torciotplotternotifier_8cpp.html" target="_top" xlink:title="torciotplotternotifier.cpp">
<polygon fill="white" stroke="black" points="115,-56.5 115,-75.5 246,-75.5 246,-56.5 115,-56.5"/>
<text text-anchor="middle" x="180.5" y="-63.5" font-family="Helvetica,sans-Serif" font-size="10.00">torciotplotternotifier.cpp</text>
</a>
</g>
</g>
<!-- Node1&#45;&gt;Node3 -->
<g id="edge2" class="edge"><title>Node1&#45;&gt;Node3</title>
<path fill="none" stroke="midnightblue" d="M989.998,-119.162C864.314,-114.434 531.94,-100.476 255.5,-76 252.495,-75.734 249.425,-75.4431 246.326,-75.134"/>
<polygon fill="midnightblue" stroke="midnightblue" points="989.978,-122.663 1000.1,-119.539 990.239,-115.668 989.978,-122.663"/>
</g>
<!-- Node4 -->
<g id="node4" class="node"><title>Node4</title>
<g id="a_node4"><a xlink:href="../../d1/d3e/torcthingspeaknotifier_8cpp.html" target="_top" xlink:title="torcthingspeaknotifier.cpp">
<polygon fill="white" stroke="black" points="264.5,-56.5 264.5,-75.5 404.5,-75.5 404.5,-56.5 264.5,-56.5"/>
<text text-anchor="middle" x="334.5" y="-63.5" font-family="Helvetica,sans-Serif" font-size="10.00">torcthingspeaknotifier.cpp</text>
</a>
</g>
</g>
<!-- Node1&#45;&gt;Node4 -->
<g id="edge3" class="edge"><title>Node1&#45;&gt;Node4</title>
<path fill="none" stroke="midnightblue" d="M990.087,-118.048C882.81,-111.727 627.325,-95.8321 413.5,-76 410.614,-75.7323 407.669,-75.4479 404.695,-75.1515"/>
<polygon fill="midnightblue" stroke="midnightblue" points="990.116,-121.556 1000.3,-118.647 990.526,-114.568 990.116,-121.556"/>
</g>
<!-- Node5 -->
<g id="node5" class="node"><title>Node5</title>
<g id="a_node5"><a xlink:href="../../d6/dda/torchtmlstaticcontent_8cpp.html" target="_top" xlink:title="torchtmlstaticcontent.cpp">
<polygon fill="white" stroke="black" points="422.5,-56.5 422.5,-75.5 562.5,-75.5 562.5,-56.5 422.5,-56.5"/>
<text text-anchor="middle" x="492.5" y="-63.5" font-family="Helvetica,sans-Serif" font-size="10.00">torchtmlstaticcontent.cpp</text>
</a>
</g>
</g>
<!-- Node1&#45;&gt;Node5 -->
<g id="edge4" class="edge"><title>Node1&#45;&gt;Node5</title>
<path fill="none" stroke="midnightblue" d="M990.23,-116.395C903.812,-108.566 723.674,-91.9517 571.5,-76 568.617,-75.6978 565.675,-75.3846 562.704,-75.0642"/>
<polygon fill="midnightblue" stroke="midnightblue" points="990.021,-119.891 1000.3,-117.306 990.652,-112.919 990.021,-119.891"/>
</g>
<!-- Node6 -->
<g id="node6" class="node"><title>Node6</title>
<g id="a_node6"><a xlink:href="../../de/dc5/torchttpserver_8cpp.html" target="_top" xlink:title="torchttpserver.cpp">
<polygon fill="white" stroke="black" points="580.5,-56.5 580.5,-75.5 684.5,-75.5 684.5,-56.5 580.5,-56.5"/>
<text text-anchor="middle" x="632.5" y="-63.5" font-family="Helvetica,sans-Serif" font-size="10.00">torchttpserver.cpp</text>
</a>
</g>
</g>
<!-- Node1&#45;&gt;Node6 -->
<g id="edge5" class="edge"><title>Node1&#45;&gt;Node6</title>
<path fill="none" stroke="midnightblue" d="M990.487,-114.693C922.633,-106.239 798.969,-90.5984 693.5,-76 690.637,-75.6037 687.699,-75.1909 684.735,-74.7695"/>
<polygon fill="midnightblue" stroke="midnightblue" points="990.13,-118.176 1000.49,-115.938 990.994,-111.229 990.13,-118.176"/>
</g>
<!-- Node7 -->
<g id="node7" class="node"><title>Node7</title>
<g id="a_node7"><a xlink:href="../../de/d4e/torchttpserverlistener_8cpp.html" target="_top" xlink:title="torchttpserverlistener.cpp">
<polygon fill="white" stroke="black" points="702.5,-56.5 702.5,-75.5 842.5,-75.5 842.5,-56.5 702.5,-56.5"/>
<text text-anchor="middle" x="772.5" y="-63.5" font-family="Helvetica,sans-Serif" font-size="10.00">torchttpserverlistener.cpp</text>
</a>
</g>
</g>
<!-- Node1&#45;&gt;Node7 -->
<g id="edge6" class="edge"><title>Node1&#45;&gt;Node7</title>
<path fill="none" stroke="midnightblue" d="M990.239,-110.71C939.424,-100.509 862.485,-85.064 814.976,-75.5268"/>
<polygon fill="midnightblue" stroke="midnightblue" points="989.859,-114.203 1000.35,-112.74 991.236,-107.34 989.859,-114.203"/>
</g>
<!-- Node8 -->
<g id="node8" class="node"><title>Node8</title>
<g id="a_node8"><a xlink:href="../../d1/d77/torchttpservice_8cpp.html" target="_top" xlink:title="torchttpservice.cpp">
<polygon fill="white" stroke="black" points="861,-56.5 861,-75.5 970,-75.5 970,-56.5 861,-56.5"/>
<text text-anchor="middle" x="915.5" y="-63.5" font-family="Helvetica,sans-Serif" font-size="10.00">torchttpservice.cpp</text>
</a>
</g>
</g>
<!-- Node1&#45;&gt;Node8 -->
<g id="edge7" class="edge"><title>Node1&#45;&gt;Node8</title>
<path fill="none" stroke="midnightblue" d="M1012.34,-108.503C988.719,-98.3795 956.072,-84.388 935.372,-75.5164"/>
<polygon fill="midnightblue" stroke="midnightblue" points="1010.96,-111.721 1021.53,-112.444 1013.72,-105.287 1010.96,-111.721"/>
</g>
<!-- Node9 -->
<g id="node9" class="node"><title>Node9</title>
<g id="a_node9"><a xlink:href="../../db/d78/torcwebsocket_8cpp.html" target="_top" xlink:title="torcwebsocket.cpp">
<polygon fill="white" stroke="black" points="988.5,-56.5 988.5,-75.5 1094.5,-75.5 1094.5,-56.5 988.5,-56.5"/>
<text text-anchor="middle" x="1041.5" y="-63.5" font-family="Helvetica,sans-Serif" font-size="10.00">torcwebsocket.cpp</text>
</a>
</g>
</g>
<!-- Node1&#45;&gt;Node9 -->
<g id="edge8" class="edge"><title>Node1&#45;&gt;Node9</title>
<path fill="none" stroke="midnightblue" d="M1041.5,-101.805C1041.5,-92.9102 1041.5,-82.7798 1041.5,-75.7511"/>
<polygon fill="midnightblue" stroke="midnightblue" points="1038,-102.083 1041.5,-112.083 1045,-102.083 1038,-102.083"/>
</g>
<!-- Node10 -->
<g id="node10" class="node"><title>Node10</title>
<g id="a_node10"><a xlink:href="../../dc/d96/torcbonjour_8cpp.html" target="_top" xlink:title="torcbonjour.cpp">
<polygon fill="white" stroke="black" points="1113,-56.5 1113,-75.5 1204,-75.5 1204,-56.5 1113,-56.5"/>
<text text-anchor="middle" x="1158.5" y="-63.5" font-family="Helvetica,sans-Serif" font-size="10.00">torcbonjour.cpp</text>
</a>
</g>
</g>
<!-- Node1&#45;&gt;Node10 -->
<g id="edge9" class="edge"><title>Node1&#45;&gt;Node10</title>
<path fill="none" stroke="midnightblue" d="M1069.16,-108.232C1091.05,-98.1312 1121,-84.3091 1140.05,-75.5164"/>
<polygon fill="midnightblue" stroke="midnightblue" points="1067.65,-105.075 1060.04,-112.444 1070.59,-111.431 1067.65,-105.075"/>
</g>
<!-- Node11 -->
<g id="node11" class="node"><title>Node11</title>
<g id="a_node11"><a xlink:href="../../db/d18/torcnetworkrequest_8h.html" target="_top" xlink:title="torcnetworkrequest.h">
<polygon fill="white" stroke="black" points="1222,-56.5 1222,-75.5 1341,-75.5 1341,-56.5 1222,-56.5"/>
<text text-anchor="middle" x="1281.5" y="-63.5" font-family="Helvetica,sans-Serif" font-size="10.00">torcnetworkrequest.h</text>
</a>
</g>
</g>
<!-- Node1&#45;&gt;Node11 -->
<g id="edge10" class="edge"><title>Node1&#45;&gt;Node11</title>
<path fill="none" stroke="midnightblue" d="M1084.17,-110.153C1127.76,-99.95 1194.89,-84.8809 1238.57,-75.5164"/>
<polygon fill="midnightblue" stroke="midnightblue" points="1083.37,-106.746 1074.44,-112.444 1084.98,-113.56 1083.37,-106.746"/>
</g>
<!-- Node14 -->
<g id="node14" class="node"><title>Node14</title>
<g id="a_node14"><a xlink:href="../../de/d48/torcnetworkedcontext_8cpp.html" target="_top" xlink:title="torcnetworkedcontext.cpp">
<polygon fill="white" stroke="black" points="1365,-0.5 1365,-19.5 1506,-19.5 1506,-0.5 1365,-0.5"/>
<text text-anchor="middle" x="1435.5" y="-7.5" font-family="Helvetica,sans-Serif" font-size="10.00">torcnetworkedcontext.cpp</text>
</a>
</g>
</g>
<!-- Node1&#45;&gt;Node14 -->
<g id="edge17" class="edge"><title>Node1&#45;&gt;Node14</title>
<path fill="none" stroke="midnightblue" d="M1092.84,-121.315C1155.92,-119.977 1265.08,-111.988 1350.5,-76 1382.34,-62.5846 1412.79,-34.3504 1427.05,-19.9129"/>
<polygon fill="midnightblue" stroke="midnightblue" points="1092.69,-117.816 1082.75,-121.48 1092.8,-124.816 1092.69,-117.816"/>
</g>
<!-- Node16 -->
<g id="node16" class="node"><title>Node16</title>
<g id="a_node16"><a xlink:href="../../da/d9c/torcnetwork_8cpp.html" target="_top" xlink:title="torcnetwork.cpp">
<polygon fill="white" stroke="black" points="1398,-56.5 1398,-75.5 1491,-75.5 1491,-56.5 1398,-56.5"/>
<text text-anchor="middle" x="1444.5" y="-63.5" font-family="Helvetica,sans-Serif" font-size="10.00">torcnetwork.cpp</text>
</a>
</g>
</g>
<!-- Node1&#45;&gt;Node16 -->
<g id="edge16" class="edge"><title>Node1&#45;&gt;Node16</title>
<path fill="none" stroke="midnightblue" d="M1092.86,-114.497C1159.8,-105.963 1280.47,-90.3778 1383.5,-76 1388.16,-75.349 1393.03,-74.6559 1397.88,-73.9544"/>
<polygon fill="midnightblue" stroke="midnightblue" points="1092.07,-111.069 1082.59,-115.804 1092.95,-118.013 1092.07,-111.069"/>
</g>
<!-- Node17 -->
<g id="node17" class="node"><title>Node17</title>
<g id="a_node17"><a xlink:href="../../d9/de1/torcssdp_8cpp.html" target="_top" xlink:title="torcssdp.cpp">
<polygon fill="white" stroke="black" points="1509.5,-56.5 1509.5,-75.5 1587.5,-75.5 1587.5,-56.5 1509.5,-56.5"/>
<text text-anchor="middle" x="1548.5" y="-63.5" font-family="Helvetica,sans-Serif" font-size="10.00">torcssdp.cpp</text>
</a>
</g>
</g>
<!-- Node1&#45;&gt;Node17 -->
<g id="edge18" class="edge"><title>Node1&#45;&gt;Node17</title>
<path fill="none" stroke="midnightblue" d="M1092.96,-117.434C1178.03,-111.206 1353.26,-96.9808 1500.5,-76 1503.35,-75.5933 1506.3,-75.136 1509.25,-74.6485"/>
<polygon fill="midnightblue" stroke="midnightblue" points="1092.51,-113.957 1082.79,-118.171 1093.02,-120.939 1092.51,-113.957"/>
</g>
<!-- Node18 -->
<g id="node18" class="node"><title>Node18</title>
<g id="a_node18"><a xlink:href="../../d9/db2/torcupnpcontent_8cpp.html" target="_top" xlink:title="torcupnpcontent.cpp">
<polygon fill="white" stroke="black" points="1605.5,-56.5 1605.5,-75.5 1721.5,-75.5 1721.5,-56.5 1605.5,-56.5"/>
<text text-anchor="middle" x="1663.5" y="-63.5" font-family="Helvetica,sans-Serif" font-size="10.00">torcupnpcontent.cpp</text>
</a>
</g>
</g>
<!-- Node1&#45;&gt;Node18 -->
<g id="edge19" class="edge"><title>Node1&#45;&gt;Node18</title>
<path fill="none" stroke="midnightblue" d="M1092.87,-117.742C1190.93,-111.321 1411.49,-95.9124 1596.5,-76 1599.42,-75.686 1602.4,-75.3475 1605.42,-74.9923"/>
<polygon fill="midnightblue" stroke="midnightblue" points="1092.4,-114.265 1082.65,-118.408 1092.85,-121.25 1092.4,-114.265"/>
</g>
<!-- Node11&#45;&gt;Node1 -->
<g id="edge13" class="edge"><title>Node11&#45;&gt;Node1</title>
<path fill="none" stroke="midnightblue" d="M1238.65,-77.8871C1194.48,-88.2263 1126.25,-103.536 1082.69,-112.857"/>
<polygon fill="midnightblue" stroke="midnightblue" points="1239.58,-81.2639 1248.52,-75.5666 1237.98,-74.45 1239.58,-81.2639"/>
</g>
<!-- Node12 -->
<g id="node12" class="node"><title>Node12</title>
<g id="a_node12"><a xlink:href="../../df/dc4/torcpushbulletnotifier_8cpp.html" target="_top" xlink:title="torcpushbulletnotifier.cpp">
<polygon fill="white" stroke="black" points="919,-0.5 919,-19.5 1056,-19.5 1056,-0.5 919,-0.5"/>
<text text-anchor="middle" x="987.5" y="-7.5" font-family="Helvetica,sans-Serif" font-size="10.00">torcpushbulletnotifier.cpp</text>
</a>
</g>
</g>
<!-- Node11&#45;&gt;Node12 -->
<g id="edge11" class="edge"><title>Node11&#45;&gt;Node12</title>
<path fill="none" stroke="midnightblue" d="M1224.88,-54.6007C1169.32,-44.3953 1085.6,-29.0189 1033.87,-19.5164"/>
<polygon fill="midnightblue" stroke="midnightblue" points="1224.45,-58.0794 1234.91,-56.4435 1225.71,-51.1945 1224.45,-58.0794"/>
</g>
<!-- Node13 -->
<g id="node13" class="node"><title>Node13</title>
<g id="a_node13"><a xlink:href="../../d1/d3b/torccameraoutput_8cpp.html" target="_top" xlink:title="torccameraoutput.cpp">
<polygon fill="white" stroke="black" points="1074.5,-0.5 1074.5,-19.5 1198.5,-19.5 1198.5,-0.5 1074.5,-0.5"/>
<text text-anchor="middle" x="1136.5" y="-7.5" font-family="Helvetica,sans-Serif" font-size="10.00">torccameraoutput.cpp</text>
</a>
</g>
</g>
<!-- Node11&#45;&gt;Node13 -->
<g id="edge12" class="edge"><title>Node11&#45;&gt;Node13</title>
<path fill="none" stroke="midnightblue" d="M1249.02,-52.9058C1221.76,-42.7536 1183.51,-28.5063 1159.37,-19.5164"/>
<polygon fill="midnightblue" stroke="midnightblue" points="1247.93,-56.2334 1258.52,-56.4435 1250.37,-49.6736 1247.93,-56.2334"/>
</g>
<!-- Node11&#45;&gt;Node14 -->
<g id="edge14" class="edge"><title>Node11&#45;&gt;Node14</title>
<path fill="none" stroke="midnightblue" d="M1315.61,-53.0392C1344.59,-42.8786 1385.46,-28.5457 1411.21,-19.5164"/>
<polygon fill="midnightblue" stroke="midnightblue" points="1314.18,-49.8317 1305.9,-56.4435 1316.5,-56.4373 1314.18,-49.8317"/>
</g>
<!-- Node15 -->
<g id="node15" class="node"><title>Node15</title>
<g id="a_node15"><a xlink:href="../../d8/dcb/torcnetworkrequest_8cpp.html" target="_top" xlink:title="torcnetworkrequest.cpp">
<polygon fill="white" stroke="black" points="1216.5,-0.5 1216.5,-19.5 1346.5,-19.5 1346.5,-0.5 1216.5,-0.5"/>
<text text-anchor="middle" x="1281.5" y="-7.5" font-family="Helvetica,sans-Serif" font-size="10.00">torcnetworkrequest.cpp</text>
</a>
</g>
</g>
<!-- Node11&#45;&gt;Node15 -->
<g id="edge15" class="edge"><title>Node11&#45;&gt;Node15</title>
<path fill="none" stroke="midnightblue" d="M1281.5,-45.8045C1281.5,-36.9102 1281.5,-26.7798 1281.5,-19.7511"/>
<polygon fill="midnightblue" stroke="midnightblue" points="1278,-46.083 1281.5,-56.083 1285,-46.083 1278,-46.083"/>
</g>
</g>
</svg>
        <g id="navigator" transform="translate(0 0)" fill="#404254">
                <rect fill="#f2f5e9" fill-opacity="0.5" stroke="#606060" stroke-width=".5" x="0" y="0" width="60" height="60"/>
                <use id="zoomplus" xlink:href="#zoomPlus" x="17" y="9" onmousedown="handleZoom(evt,'in')"/>
                <use id="zoomminus" xlink:href="#zoomMin" x="42" y="9" onmousedown="handleZoom(evt,'out')"/>
                <use id="reset" xlink:href="#resetDef" x="30" y="36" onmousedown="handleReset()"/>
                <g id="arrowUp" xlink:href="#dirArrow" transform="translate(30 24)" onmousedown="handlePan(0,-1)">
                  <use xlink:href="#rim" fill="#404040">
                        <set attributeName="fill" to="#808080" begin="arrowUp.mouseover" end="arrowUp.mouseout"/>
                  </use>
                  <path fill="none" stroke="white" stroke-width="1.5" d="M0,-3.0v7 M-2.5,-0.5L0,-3.0L2.5,-0.5"/>
                </g>
                <g id="arrowRight" xlink:href="#dirArrow" transform="rotate(90) translate(36 -43)" onmousedown="handlePan(1,0)">
                  <use xlink:href="#rim" fill="#404040">
                        <set attributeName="fill" to="#808080" begin="arrowRight.mouseover" end="arrowRight.mouseout"/>
                  </use>
                  <path fill="none" stroke="white" stroke-width="1.5" d="M0,-3.0v7 M-2.5,-0.5L0,-3.0L2.5,-0.5"/>
                </g>
                <g id="arrowDown" xlink:href="#dirArrow" transform="rotate(180) translate(-30 -48)" onmousedown="handlePan(0,1)">
                  <use xlink:href="#rim" fill="#404040">
                        <set attributeName="fill" to="#808080" begin="arrowDown.mouseover" end="arrowDown.mouseout"/>
                  </use>
                  <path fill="none" stroke="white" stroke-width="1.5" d="M0,-3.0v7 M-2.5,-0.5L0,-3.0L2.5,-0.5"/>
                </g>
                <g id="arrowLeft" xlink:href="#dirArrow" transform="rotate(270) translate(-36 17)" onmousedown="handlePan(-1,0)">
                  <use xlink:href="#rim" fill="#404040">
                        <set attributeName="fill" to="#808080" begin="arrowLeft.mouseover" end="arrowLeft.mouseout"/>
                  </use>
                  <path fill="none" stroke="white" stroke-width="1.5" d="M0,-3.0v7 M-2.5,-0.5L0,-3.0L2.5,-0.5"/>
                </g>
        </g>
        <svg viewBox="0 0 15 15" width="100%" height="30px" preserveAspectRatio="xMaxYMin meet">
         <g id="arrow_out" transform="scale(0.3 0.3)">
          <a xlink:href="torcnetwork_8h__dep__incl_org.svg" target="_base">
           <rect id="button" ry="5" rx="5" y="6" x="6" height="38" width="38"
                fill="#f2f5e9" fill-opacity="0.5" stroke="#606060" stroke-width="1.0"/>
           <path id="arrow"
             d="M 11.500037,31.436501 C 11.940474,20.09759 22.043105,11.32322 32.158766,21.979434 L 37.068811,17.246167 C 37.068811,17.246167 37.088388,32 37.088388,32 L 22.160133,31.978069 C 22.160133,31.978069 26.997745,27.140456 26.997745,27.140456 C 18.528582,18.264221 13.291696,25.230495 11.500037,31.436501 z"
             style="fill:#404040;"/>
          </a>
         </g>
        </svg>
</svg>
