<?xml version="1.0" encoding="UTF-8" standalone="no"?>
<!DOCTYPE svg PUBLIC "-//W3C//DTD SVG 1.1//EN"
 "http://www.w3.org/Graphics/SVG/1.1/DTD/svg11.dtd">
<!-- Generated by graphviz version 2.38.0 (20140413.2041)
 -->
<!-- Title: torccamerathread.h Pages: 1 -->
<svg width="621pt" height="252pt"
 viewBox="0.00 0.00 620.50 252.00" xmlns="http://www.w3.org/2000/svg" xmlns:xlink="http://www.w3.org/1999/xlink">
<g id="graph0" class="graph" transform="scale(1 1) rotate(0) translate(4 248)">
<title>torccamerathread.h</title>
<polygon fill="white" stroke="none" points="-4,4 -4,-248 616.5,-248 616.5,4 -4,4"/>
<!-- Node1 -->
<g id="node1" class="node"><title>Node1</title>
<polygon fill="#bfbfbf" stroke="black" points="132,-224.5 132,-243.5 245,-243.5 245,-224.5 132,-224.5"/>
<text text-anchor="middle" x="188.5" y="-231.5" font-family="Helvetica,sans-Serif" font-size="10.00">torccamerathread.h</text>
</g>
<!-- Node2 -->
<g id="node2" class="node"><title>Node2</title>
<g id="a_node2"><a xlink:href="../../d8/dfe/torcreferencecounted_8h.html" target="_top" xlink:title="torcreferencecounted.h">
<polygon fill="white" stroke="black" points="0,-168.5 0,-187.5 129,-187.5 129,-168.5 0,-168.5"/>
<text text-anchor="middle" x="64.5" y="-175.5" font-family="Helvetica,sans-Serif" font-size="10.00">torcreferencecounted.h</text>
</a>
</g>
</g>
<!-- Node1&#45;&gt;Node2 -->
<g id="edge1" class="edge"><title>Node1&#45;&gt;Node2</title>
<path fill="none" stroke="midnightblue" d="M168.852,-224.444C148.535,-215.596 116.597,-201.687 93.4023,-191.586"/>
<polygon fill="midnightblue" stroke="midnightblue" points="94.6221,-188.3 84.0562,-187.516 91.8271,-194.718 94.6221,-188.3"/>
</g>
<!-- Node4 -->
<g id="node4" class="node"><title>Node4</title>
<g id="a_node4"><a xlink:href="../../dd/db0/torcqthread_8h.html" target="_top" xlink:title="torcqthread.h">
<polygon fill="white" stroke="black" points="147.5,-168.5 147.5,-187.5 229.5,-187.5 229.5,-168.5 147.5,-168.5"/>
<text text-anchor="middle" x="188.5" y="-175.5" font-family="Helvetica,sans-Serif" font-size="10.00">torcqthread.h</text>
</a>
</g>
</g>
<!-- Node1&#45;&gt;Node4 -->
<g id="edge3" class="edge"><title>Node1&#45;&gt;Node4</title>
<path fill="none" stroke="midnightblue" d="M188.5,-224.083C188.5,-217.006 188.5,-206.861 188.5,-197.986"/>
<polygon fill="midnightblue" stroke="midnightblue" points="192,-197.751 188.5,-187.751 185,-197.751 192,-197.751"/>
</g>
<!-- Node6 -->
<g id="node6" class="node"><title>Node6</title>
<g id="a_node6"><a xlink:href="../../d3/d38/torccamera_8h.html" target="_top" xlink:title="torccamera.h">
<polygon fill="white" stroke="black" points="264,-168.5 264,-187.5 345,-187.5 345,-168.5 264,-168.5"/>
<text text-anchor="middle" x="304.5" y="-175.5" font-family="Helvetica,sans-Serif" font-size="10.00">torccamera.h</text>
</a>
</g>
</g>
<!-- Node1&#45;&gt;Node6 -->
<g id="edge5" class="edge"><title>Node1&#45;&gt;Node6</title>
<path fill="none" stroke="midnightblue" d="M206.881,-224.444C225.716,-215.675 255.231,-201.935 276.879,-191.858"/>
<polygon fill="midnightblue" stroke="midnightblue" points="278.617,-194.91 286.205,-187.516 275.662,-188.564 278.617,-194.91"/>
</g>
<!-- Node3 -->
<g id="node3" class="node"><title>Node3</title>
<polygon fill="white" stroke="#bfbfbf" points="29.5,-112.5 29.5,-131.5 99.5,-131.5 99.5,-112.5 29.5,-112.5"/>
<text text-anchor="middle" x="64.5" y="-119.5" font-family="Helvetica,sans-Serif" font-size="10.00">QAtomicInt</text>
</g>
<!-- Node2&#45;&gt;Node3 -->
<g id="edge2" class="edge"><title>Node2&#45;&gt;Node3</title>
<path fill="none" stroke="midnightblue" d="M64.5,-168.083C64.5,-161.006 64.5,-150.861 64.5,-141.986"/>
<polygon fill="midnightblue" stroke="midnightblue" points="68.0001,-141.751 64.5,-131.751 61.0001,-141.751 68.0001,-141.751"/>
</g>
<!-- Node5 -->
<g id="node5" class="node"><title>Node5</title>
<polygon fill="white" stroke="#bfbfbf" points="124,-112.5 124,-131.5 181,-131.5 181,-112.5 124,-112.5"/>
<text text-anchor="middle" x="152.5" y="-119.5" font-family="Helvetica,sans-Serif" font-size="10.00">QThread</text>
</g>
<!-- Node4&#45;&gt;Node5 -->
<g id="edge4" class="edge"><title>Node4&#45;&gt;Node5</title>
<path fill="none" stroke="midnightblue" d="M182.555,-168.083C177.523,-160.534 170.163,-149.495 163.987,-140.23"/>
<polygon fill="midnightblue" stroke="midnightblue" points="166.793,-138.13 158.334,-131.751 160.969,-142.013 166.793,-138.13"/>
</g>
<!-- Node7 -->
<g id="node7" class="node"><title>Node7</title>
<polygon fill="white" stroke="#bfbfbf" points="199,-112.5 199,-131.5 254,-131.5 254,-112.5 199,-112.5"/>
<text text-anchor="middle" x="226.5" y="-119.5" font-family="Helvetica,sans-Serif" font-size="10.00">QObject</text>
</g>
<!-- Node6&#45;&gt;Node7 -->
<g id="edge6" class="edge"><title>Node6&#45;&gt;Node7</title>
<path fill="none" stroke="midnightblue" d="M291.968,-168.324C279.914,-159.979 261.473,-147.212 247.231,-137.352"/>
<polygon fill="midnightblue" stroke="midnightblue" points="249.215,-134.469 239.001,-131.655 245.231,-140.224 249.215,-134.469"/>
</g>
<!-- Node8 -->
<g id="node8" class="node"><title>Node8</title>
<g id="a_node8"><a xlink:href="../../d2/d60/torcmaths_8h.html" target="_top" xlink:title="torcmaths.h">
<polygon fill="white" stroke="black" points="155,-56.5 155,-75.5 230,-75.5 230,-56.5 155,-56.5"/>
<text text-anchor="middle" x="192.5" y="-63.5" font-family="Helvetica,sans-Serif" font-size="10.00">torcmaths.h</text>
</a>
</g>
</g>
<!-- Node6&#45;&gt;Node8 -->
<g id="edge7" class="edge"><title>Node6&#45;&gt;Node8</title>
<path fill="none" stroke="midnightblue" d="M300.34,-168.175C293.736,-154.838 279.811,-129.27 262.5,-112 249.869,-99.3982 233.134,-88.4823 219.194,-80.5584"/>
<polygon fill="midnightblue" stroke="midnightblue" points="220.527,-77.2982 210.074,-75.5668 217.166,-83.4385 220.527,-77.2982"/>
</g>
<!-- Node10 -->
<g id="node10" class="node"><title>Node10</title>
<g id="a_node10"><a xlink:href="../../de/df7/torcsegmentedringbuffer_8h.html" target="_top" xlink:title="torcsegmentedringbuffer.h">
<polygon fill="white" stroke="black" points="248.5,-56.5 248.5,-75.5 392.5,-75.5 392.5,-56.5 248.5,-56.5"/>
<text text-anchor="middle" x="320.5" y="-63.5" font-family="Helvetica,sans-Serif" font-size="10.00">torcsegmentedringbuffer.h</text>
</a>
</g>
</g>
<!-- Node6&#45;&gt;Node10 -->
<g id="edge9" class="edge"><title>Node6&#45;&gt;Node10</title>
<path fill="none" stroke="midnightblue" d="M305.755,-168.368C308.338,-150.617 314.294,-109.666 317.795,-85.5974"/>
<polygon fill="midnightblue" stroke="midnightblue" points="321.274,-85.9911 319.25,-75.5914 314.347,-84.9835 321.274,-85.9911"/>
</g>
<!-- Node14 -->
<g id="node14" class="node"><title>Node14</title>
<g id="a_node14"><a xlink:href="../../d4/d0f/torcmuxer_8h.html" target="_top" xlink:title="ffmpeg/torcmuxer.h">
<polygon fill="white" stroke="black" points="349,-112.5 349,-131.5 460,-131.5 460,-112.5 349,-112.5"/>
<text text-anchor="middle" x="404.5" y="-119.5" font-family="Helvetica,sans-Serif" font-size="10.00">ffmpeg/torcmuxer.h</text>
</a>
</g>
</g>
<!-- Node6&#45;&gt;Node14 -->
<g id="edge14" class="edge"><title>Node6&#45;&gt;Node14</title>
<path fill="none" stroke="midnightblue" d="M320.567,-168.324C336.458,-159.743 361.007,-146.486 379.458,-136.522"/>
<polygon fill="midnightblue" stroke="midnightblue" points="381.337,-139.486 388.473,-131.655 378.011,-133.326 381.337,-139.486"/>
</g>
<!-- Node17 -->
<g id="node17" class="node"><title>Node17</title>
<polygon fill="white" stroke="#bfbfbf" points="478,-112.5 478,-131.5 597,-131.5 597,-112.5 478,-112.5"/>
<text text-anchor="middle" x="537.5" y="-119.5" font-family="Helvetica,sans-Serif" font-size="10.00">libavcodec/avcodec.h</text>
</g>
<!-- Node6&#45;&gt;Node17 -->
<g id="edge18" class="edge"><title>Node6&#45;&gt;Node17</title>
<path fill="none" stroke="midnightblue" d="M341.42,-168.444C381.895,-159.063 446.921,-143.993 490.884,-133.804"/>
<polygon fill="midnightblue" stroke="midnightblue" points="491.802,-137.184 500.753,-131.516 490.221,-130.365 491.802,-137.184"/>
</g>
<!-- Node9 -->
<g id="node9" class="node"><title>Node9</title>
<polygon fill="white" stroke="#bfbfbf" points="164.5,-0.5 164.5,-19.5 220.5,-19.5 220.5,-0.5 164.5,-0.5"/>
<text text-anchor="middle" x="192.5" y="-7.5" font-family="Helvetica,sans-Serif" font-size="10.00">QQueue</text>
</g>
<!-- Node8&#45;&gt;Node9 -->
<g id="edge8" class="edge"><title>Node8&#45;&gt;Node9</title>
<path fill="none" stroke="midnightblue" d="M192.5,-56.083C192.5,-49.0059 192.5,-38.8611 192.5,-29.9865"/>
<polygon fill="midnightblue" stroke="midnightblue" points="196,-29.751 192.5,-19.7511 189,-29.7511 196,-29.751"/>
</g>
<!-- Node10&#45;&gt;Node9 -->
<g id="edge11" class="edge"><title>Node10&#45;&gt;Node9</title>
<path fill="none" stroke="midnightblue" d="M300.218,-56.4435C279.153,-47.5566 245.983,-33.5632 222.014,-23.4514"/>
<polygon fill="midnightblue" stroke="midnightblue" points="223.261,-20.1787 212.687,-19.5164 220.54,-26.6283 223.261,-20.1787"/>
</g>
<!-- Node11 -->
<g id="node11" class="node"><title>Node11</title>
<polygon fill="white" stroke="#bfbfbf" points="239,-0.5 239,-19.5 280,-19.5 280,-0.5 239,-0.5"/>
<text text-anchor="middle" x="259.5" y="-7.5" font-family="Helvetica,sans-Serif" font-size="10.00">QPair</text>
</g>
<!-- Node10&#45;&gt;Node11 -->
<g id="edge10" class="edge"><title>Node10&#45;&gt;Node11</title>
<path fill="none" stroke="midnightblue" d="M310.699,-56.324C301.682,-48.3414 288.094,-36.3128 277.182,-26.6529"/>
<polygon fill="midnightblue" stroke="midnightblue" points="279.287,-23.8416 269.479,-19.8339 274.647,-29.083 279.287,-23.8416"/>
</g>
<!-- Node12 -->
<g id="node12" class="node"><title>Node12</title>
<polygon fill="white" stroke="#bfbfbf" points="298.5,-0.5 298.5,-19.5 364.5,-19.5 364.5,-0.5 298.5,-0.5"/>
<text text-anchor="middle" x="331.5" y="-7.5" font-family="Helvetica,sans-Serif" font-size="10.00">QIODevice</text>
</g>
<!-- Node10&#45;&gt;Node12 -->
<g id="edge12" class="edge"><title>Node10&#45;&gt;Node12</title>
<path fill="none" stroke="midnightblue" d="M322.316,-56.083C323.774,-48.9272 325.871,-38.6353 327.693,-29.6911"/>
<polygon fill="midnightblue" stroke="midnightblue" points="331.151,-30.2485 329.717,-19.7511 324.292,-28.8512 331.151,-30.2485"/>
</g>
<!-- Node13 -->
<g id="node13" class="node"><title>Node13</title>
<polygon fill="white" stroke="#bfbfbf" points="382.5,-0.5 382.5,-19.5 474.5,-19.5 474.5,-0.5 382.5,-0.5"/>
<text text-anchor="middle" x="428.5" y="-7.5" font-family="Helvetica,sans-Serif" font-size="10.00">QReadWriteLock</text>
</g>
<!-- Node10&#45;&gt;Node13 -->
<g id="edge13" class="edge"><title>Node10&#45;&gt;Node13</title>
<path fill="none" stroke="midnightblue" d="M337.852,-56.324C355.172,-47.6641 382.015,-34.2424 402.002,-24.249"/>
<polygon fill="midnightblue" stroke="midnightblue" points="403.812,-27.2572 411.191,-19.6545 400.681,-20.9962 403.812,-27.2572"/>
</g>
<!-- Node14&#45;&gt;Node10 -->
<g id="edge16" class="edge"><title>Node14&#45;&gt;Node10</title>
<path fill="none" stroke="midnightblue" d="M391.004,-112.324C377.9,-103.9 357.788,-90.9709 342.393,-81.0741"/>
<polygon fill="midnightblue" stroke="midnightblue" points="344.267,-78.118 333.963,-75.6545 340.482,-84.0063 344.267,-78.118"/>
</g>
<!-- Node15 -->
<g id="node15" class="node"><title>Node15</title>
<polygon fill="white" stroke="#bfbfbf" points="410.5,-56.5 410.5,-75.5 468.5,-75.5 468.5,-56.5 410.5,-56.5"/>
<text text-anchor="middle" x="439.5" y="-63.5" font-family="Helvetica,sans-Serif" font-size="10.00">QtGlobal</text>
</g>
<!-- Node14&#45;&gt;Node15 -->
<g id="edge15" class="edge"><title>Node14&#45;&gt;Node15</title>
<path fill="none" stroke="midnightblue" d="M410.28,-112.083C415.172,-104.534 422.327,-93.4948 428.333,-84.2298"/>
<polygon fill="midnightblue" stroke="midnightblue" points="431.326,-86.0463 433.828,-75.7511 425.452,-82.239 431.326,-86.0463"/>
</g>
<!-- Node16 -->
<g id="node16" class="node"><title>Node16</title>
<polygon fill="white" stroke="#bfbfbf" points="486.5,-56.5 486.5,-75.5 612.5,-75.5 612.5,-56.5 486.5,-56.5"/>
<text text-anchor="middle" x="549.5" y="-63.5" font-family="Helvetica,sans-Serif" font-size="10.00">libavformat/avformat.h</text>
</g>
<!-- Node14&#45;&gt;Node16 -->
<g id="edge17" class="edge"><title>Node14&#45;&gt;Node16</title>
<path fill="none" stroke="midnightblue" d="M427.476,-112.444C451.657,-103.438 489.918,-89.1891 517.146,-79.049"/>
<polygon fill="midnightblue" stroke="midnightblue" points="518.482,-82.2864 526.632,-75.5164 516.039,-75.7265 518.482,-82.2864"/>
</g>
</g>
</svg>
