<?xml version="1.0" encoding="UTF-8" standalone="no"?>
<!DOCTYPE svg PUBLIC "-//W3C//DTD SVG 1.1//EN"
 "http://www.w3.org/Graphics/SVG/1.1/DTD/svg11.dtd">
<!-- Generated by graphviz version 2.38.0 (20140413.2041)
 -->
<!-- Title: torccamerathread.h Pages: 1 -->
<svg width="584pt" height="196pt"
 viewBox="0.00 0.00 583.50 196.00" xmlns="http://www.w3.org/2000/svg" xmlns:xlink="http://www.w3.org/1999/xlink">
<g id="graph0" class="graph" transform="scale(1 1) rotate(0) translate(4 192)">
<title>torccamerathread.h</title>
<polygon fill="white" stroke="none" points="-4,4 -4,-192 579.5,-192 579.5,4 -4,4"/>
<!-- Node1 -->
<g id="node1" class="node"><title>Node1</title>
<polygon fill="#bfbfbf" stroke="black" points="132,-168.5 132,-187.5 245,-187.5 245,-168.5 132,-168.5"/>
<text text-anchor="middle" x="188.5" y="-175.5" font-family="Helvetica,sans-Serif" font-size="10.00">torccamerathread.h</text>
</g>
<!-- Node2 -->
<g id="node2" class="node"><title>Node2</title>
<g id="a_node2"><a xlink:href="../../d8/dfe/torcreferencecounted_8h.html" target="_top" xlink:title="torcreferencecounted.h">
<polygon fill="white" stroke="black" points="0,-112.5 0,-131.5 129,-131.5 129,-112.5 0,-112.5"/>
<text text-anchor="middle" x="64.5" y="-119.5" font-family="Helvetica,sans-Serif" font-size="10.00">torcreferencecounted.h</text>
</a>
</g>
</g>
<!-- Node1&#45;&gt;Node2 -->
<g id="edge1" class="edge"><title>Node1&#45;&gt;Node2</title>
<path fill="none" stroke="midnightblue" d="M168.852,-168.444C148.535,-159.596 116.597,-145.687 93.4023,-135.586"/>
<polygon fill="midnightblue" stroke="midnightblue" points="94.6221,-132.3 84.0562,-131.516 91.8271,-138.718 94.6221,-132.3"/>
</g>
<!-- Node4 -->
<g id="node4" class="node"><title>Node4</title>
<g id="a_node4"><a xlink:href="../../dd/db0/torcqthread_8h.html" target="_top" xlink:title="torcqthread.h">
<polygon fill="white" stroke="black" points="147.5,-112.5 147.5,-131.5 229.5,-131.5 229.5,-112.5 147.5,-112.5"/>
<text text-anchor="middle" x="188.5" y="-119.5" font-family="Helvetica,sans-Serif" font-size="10.00">torcqthread.h</text>
</a>
</g>
</g>
<!-- Node1&#45;&gt;Node4 -->
<g id="edge3" class="edge"><title>Node1&#45;&gt;Node4</title>
<path fill="none" stroke="midnightblue" d="M188.5,-168.083C188.5,-161.006 188.5,-150.861 188.5,-141.986"/>
<polygon fill="midnightblue" stroke="midnightblue" points="192,-141.751 188.5,-131.751 185,-141.751 192,-141.751"/>
</g>
<!-- Node6 -->
<g id="node6" class="node"><title>Node6</title>
<g id="a_node6"><a xlink:href="../../d3/d38/torccamera_8h.html" target="_top" xlink:title="torccamera.h">
<polygon fill="white" stroke="black" points="248,-112.5 248,-131.5 329,-131.5 329,-112.5 248,-112.5"/>
<text text-anchor="middle" x="288.5" y="-119.5" font-family="Helvetica,sans-Serif" font-size="10.00">torccamera.h</text>
</a>
</g>
</g>
<!-- Node1&#45;&gt;Node6 -->
<g id="edge5" class="edge"><title>Node1&#45;&gt;Node6</title>
<path fill="none" stroke="midnightblue" d="M204.567,-168.324C220.458,-159.743 245.007,-146.486 263.458,-136.522"/>
<polygon fill="midnightblue" stroke="midnightblue" points="265.337,-139.486 272.473,-131.655 262.011,-133.326 265.337,-139.486"/>
</g>
<!-- Node3 -->
<g id="node3" class="node"><title>Node3</title>
<polygon fill="white" stroke="#bfbfbf" points="29.5,-56.5 29.5,-75.5 99.5,-75.5 99.5,-56.5 29.5,-56.5"/>
<text text-anchor="middle" x="64.5" y="-63.5" font-family="Helvetica,sans-Serif" font-size="10.00">QAtomicInt</text>
</g>
<!-- Node2&#45;&gt;Node3 -->
<g id="edge2" class="edge"><title>Node2&#45;&gt;Node3</title>
<path fill="none" stroke="midnightblue" d="M64.5,-112.083C64.5,-105.006 64.5,-94.8611 64.5,-85.9865"/>
<polygon fill="midnightblue" stroke="midnightblue" points="68.0001,-85.751 64.5,-75.7511 61.0001,-85.7511 68.0001,-85.751"/>
</g>
<!-- Node5 -->
<g id="node5" class="node"><title>Node5</title>
<polygon fill="white" stroke="#bfbfbf" points="160,-56.5 160,-75.5 217,-75.5 217,-56.5 160,-56.5"/>
<text text-anchor="middle" x="188.5" y="-63.5" font-family="Helvetica,sans-Serif" font-size="10.00">QThread</text>
</g>
<!-- Node4&#45;&gt;Node5 -->
<g id="edge4" class="edge"><title>Node4&#45;&gt;Node5</title>
<path fill="none" stroke="midnightblue" d="M188.5,-112.083C188.5,-105.006 188.5,-94.8611 188.5,-85.9865"/>
<polygon fill="midnightblue" stroke="midnightblue" points="192,-85.751 188.5,-75.7511 185,-85.7511 192,-85.751"/>
</g>
<!-- Node7 -->
<g id="node7" class="node"><title>Node7</title>
<polygon fill="white" stroke="#bfbfbf" points="248,-56.5 248,-75.5 303,-75.5 303,-56.5 248,-56.5"/>
<text text-anchor="middle" x="275.5" y="-63.5" font-family="Helvetica,sans-Serif" font-size="10.00">QObject</text>
</g>
<!-- Node6&#45;&gt;Node7 -->
<g id="edge6" class="edge"><title>Node6&#45;&gt;Node7</title>
<path fill="none" stroke="midnightblue" d="M286.353,-112.083C284.631,-104.927 282.153,-94.6353 280,-85.6911"/>
<polygon fill="midnightblue" stroke="midnightblue" points="283.35,-84.6541 277.607,-75.7511 276.545,-86.2925 283.35,-84.6541"/>
</g>
<!-- Node8 -->
<g id="node8" class="node"><title>Node8</title>
<g id="a_node8"><a xlink:href="../../de/df7/torcsegmentedringbuffer_8h.html" target="_top" xlink:title="torcsegmentedringbuffer.h">
<polygon fill="white" stroke="black" points="321.5,-56.5 321.5,-75.5 465.5,-75.5 465.5,-56.5 321.5,-56.5"/>
<text text-anchor="middle" x="393.5" y="-63.5" font-family="Helvetica,sans-Serif" font-size="10.00">torcsegmentedringbuffer.h</text>
</a>
</g>
</g>
<!-- Node6&#45;&gt;Node8 -->
<g id="edge7" class="edge"><title>Node6&#45;&gt;Node8</title>
<path fill="none" stroke="midnightblue" d="M305.37,-112.324C322.209,-103.664 348.307,-90.2424 367.738,-80.249"/>
<polygon fill="midnightblue" stroke="midnightblue" points="369.38,-83.3405 376.672,-75.6545 366.178,-77.1155 369.38,-83.3405"/>
</g>
<!-- Node9 -->
<g id="node9" class="node"><title>Node9</title>
<polygon fill="white" stroke="#bfbfbf" points="266,-0.5 266,-19.5 307,-19.5 307,-0.5 266,-0.5"/>
<text text-anchor="middle" x="286.5" y="-7.5" font-family="Helvetica,sans-Serif" font-size="10.00">QPair</text>
</g>
<!-- Node8&#45;&gt;Node9 -->
<g id="edge8" class="edge"><title>Node8&#45;&gt;Node9</title>
<path fill="none" stroke="midnightblue" d="M376.309,-56.324C359.149,-47.6641 332.554,-34.2424 312.753,-24.249"/>
<polygon fill="midnightblue" stroke="midnightblue" points="314.153,-21.0354 303.649,-19.6545 310.999,-27.2847 314.153,-21.0354"/>
</g>
<!-- Node10 -->
<g id="node10" class="node"><title>Node10</title>
<polygon fill="white" stroke="#bfbfbf" points="325.5,-0.5 325.5,-19.5 381.5,-19.5 381.5,-0.5 325.5,-0.5"/>
<text text-anchor="middle" x="353.5" y="-7.5" font-family="Helvetica,sans-Serif" font-size="10.00">QQueue</text>
</g>
<!-- Node8&#45;&gt;Node10 -->
<g id="edge9" class="edge"><title>Node8&#45;&gt;Node10</title>
<path fill="none" stroke="midnightblue" d="M386.895,-56.083C381.245,-48.4554 372.955,-37.2645 366.049,-27.9408"/>
<polygon fill="midnightblue" stroke="midnightblue" points="368.747,-25.7034 359.982,-19.7511 363.122,-29.87 368.747,-25.7034"/>
</g>
<!-- Node11 -->
<g id="node11" class="node"><title>Node11</title>
<polygon fill="white" stroke="#bfbfbf" points="399.5,-0.5 399.5,-19.5 465.5,-19.5 465.5,-0.5 399.5,-0.5"/>
<text text-anchor="middle" x="432.5" y="-7.5" font-family="Helvetica,sans-Serif" font-size="10.00">QIODevice</text>
</g>
<!-- Node8&#45;&gt;Node11 -->
<g id="edge10" class="edge"><title>Node8&#45;&gt;Node11</title>
<path fill="none" stroke="midnightblue" d="M399.94,-56.083C405.449,-48.4554 413.531,-37.2645 420.265,-27.9408"/>
<polygon fill="midnightblue" stroke="midnightblue" points="423.162,-29.9071 426.18,-19.7511 417.487,-25.8087 423.162,-29.9071"/>
</g>
<!-- Node12 -->
<g id="node12" class="node"><title>Node12</title>
<polygon fill="white" stroke="#bfbfbf" points="483.5,-0.5 483.5,-19.5 575.5,-19.5 575.5,-0.5 483.5,-0.5"/>
<text text-anchor="middle" x="529.5" y="-7.5" font-family="Helvetica,sans-Serif" font-size="10.00">QReadWriteLock</text>
</g>
<!-- Node8&#45;&gt;Node12 -->
<g id="edge11" class="edge"><title>Node8&#45;&gt;Node12</title>
<path fill="none" stroke="midnightblue" d="M415.05,-56.4435C437.531,-47.5171 472.988,-33.4387 498.48,-23.3168"/>
<polygon fill="midnightblue" stroke="midnightblue" points="500.049,-26.4598 508.051,-19.5164 497.465,-19.9539 500.049,-26.4598"/>
</g>
</g>
</svg>
