<?xml version="1.0" encoding="UTF-8" standalone="no"?>
<!DOCTYPE svg PUBLIC "-//W3C//DTD SVG 1.1//EN"
 "http://www.w3.org/Graphics/SVG/1.1/DTD/svg11.dtd">
<!-- Generated by graphviz version 2.38.0 (20140413.2041)
 -->
<!-- Title: TorcDevice Pages: 1 -->
<!--zoomable 778 -->
<svg id="main" version="1.1" xmlns="http://www.w3.org/2000/svg" xmlns:xlink="http://www.w3.org/1999/xlink" xml:space="preserve" onload="init(evt)">
<style type="text/css"><![CDATA[
.edge:hover path { stroke: red; }
.edge:hover polygon { stroke: red; fill: red; }
]]></style>
<script type="text/javascript"><![CDATA[
var edges = document.getElementsByTagName('g');
if (edges && edges.length) {
  for (var i=0;i<edges.length;i++) {
    if (edges[i].id.substr(0,4)=='edge') {
      edges[i].setAttribute('class','edge');
    }
  }
}
]]></script>
        <defs>
                <circle id="rim" cx="0" cy="0" r="7"/>
                <circle id="rim2" cx="0" cy="0" r="3.5"/>
                <g id="zoomPlus">
                        <use xlink:href="#rim" fill="#404040">
                                <set attributeName="fill" to="#808080" begin="zoomplus.mouseover" end="zoomplus.mouseout"/>
                        </use>
                        <path d="M-4,0h8M0,-4v8" fill="none" stroke="white" stroke-width="1.5" pointer-events="none"/>
                </g>
                <g id="zoomMin">
                        <use xlink:href="#rim" fill="#404040">
                                <set attributeName="fill" to="#808080" begin="zoomminus.mouseover" end="zoomminus.mouseout"/>
                        </use>
                        <path d="M-4,0h8" fill="none" stroke="white" stroke-width="1.5" pointer-events="none"/>
                </g>
                <g id="dirArrow">
                        <path fill="none" stroke="white" stroke-width="1.5" d="M0,-3.0v7 M-2.5,-0.5L0,-3.0L2.5,-0.5"/>
                </g>
               <g id="resetDef">
                       <use xlink:href="#rim2" fill="#404040">
                               <set attributeName="fill" to="#808080" begin="reset.mouseover" end="reset.mouseout"/>
                       </use>
               </g>
        </defs>

<script type="text/javascript">
var viewWidth = 903;
var viewHeight = 778;
var sectionId = 'dynsection-0';
</script>
<script xlink:href="../../svgpan.js"/>
<svg id="graph" class="graph">
<g id="viewport">
<title>TorcDevice</title>
<polygon fill="white" stroke="none" points="-4,4 -4,-774 899,-774 899,4 -4,4"/>
<!-- Node1 -->
<g id="node1" class="node"><title>Node1</title>
<polygon fill="#bfbfbf" stroke="black" points="157,-427.5 157,-446.5 225,-446.5 225,-427.5 157,-427.5"/>
<text text-anchor="middle" x="191" y="-434.5" font-family="Helvetica,sans-Serif" font-size="10.00">TorcDevice</text>
</g>
<!-- Node4 -->
<g id="node4" class="node"><title>Node4</title>
<g id="a_node4"><a xlink:href="../../d1/d34/class_torc_control.html" target="_top" xlink:title="TorcControl">
<polygon fill="white" stroke="black" points="270.5,-693.5 270.5,-712.5 340.5,-712.5 340.5,-693.5 270.5,-693.5"/>
<text text-anchor="middle" x="305.5" y="-700.5" font-family="Helvetica,sans-Serif" font-size="10.00">TorcControl</text>
</a>
</g>
</g>
<!-- Node1&#45;&gt;Node4 -->
<g id="edge3" class="edge"><title>Node1&#45;&gt;Node4</title>
<path fill="none" stroke="midnightblue" d="M200.169,-456.316C222.511,-509.142 284.051,-654.649 300.444,-693.409"/>
<polygon fill="midnightblue" stroke="midnightblue" points="203.256,-454.629 196.137,-446.783 196.809,-457.356 203.256,-454.629"/>
</g>
<!-- Node8 -->
<g id="node8" class="node"><title>Node8</title>
<g id="a_node8"><a xlink:href="../../d8/d61/class_torc_input.html" target="_top" xlink:title="TorcInput">
<polygon fill="white" stroke="black" points="276,-541.5 276,-560.5 335,-560.5 335,-541.5 276,-541.5"/>
<text text-anchor="middle" x="305.5" y="-548.5" font-family="Helvetica,sans-Serif" font-size="10.00">TorcInput</text>
</a>
</g>
</g>
<!-- Node1&#45;&gt;Node8 -->
<g id="edge7" class="edge"><title>Node1&#45;&gt;Node8</title>
<path fill="none" stroke="midnightblue" d="M208.922,-454.147C232.87,-478.415 275.857,-521.975 294.933,-541.305"/>
<polygon fill="midnightblue" stroke="midnightblue" points="211.107,-451.379 201.592,-446.72 206.125,-456.296 211.107,-451.379"/>
</g>
<!-- Node21 -->
<g id="node21" class="node"><title>Node21</title>
<g id="a_node21"><a xlink:href="../../dc/d10/class_torc_notification.html" target="_top" xlink:title="TorcNotification">
<polygon fill="white" stroke="black" points="261,-427.5 261,-446.5 350,-446.5 350,-427.5 261,-427.5"/>
<text text-anchor="middle" x="305.5" y="-434.5" font-family="Helvetica,sans-Serif" font-size="10.00">TorcNotification</text>
</a>
</g>
</g>
<!-- Node1&#45;&gt;Node21 -->
<g id="edge20" class="edge"><title>Node1&#45;&gt;Node21</title>
<path fill="none" stroke="midnightblue" d="M235.403,-437C243.714,-437 252.421,-437 260.743,-437"/>
<polygon fill="midnightblue" stroke="midnightblue" points="235.145,-433.5 225.145,-437 235.145,-440.5 235.145,-433.5"/>
</g>
<!-- Node24 -->
<g id="node24" class="node"><title>Node24</title>
<g id="a_node24"><a xlink:href="../../d4/d20/class_torc_notifier.html" target="_top" xlink:title="TorcNotifier">
<polygon fill="white" stroke="black" points="270.5,-351.5 270.5,-370.5 340.5,-370.5 340.5,-351.5 270.5,-351.5"/>
<text text-anchor="middle" x="305.5" y="-358.5" font-family="Helvetica,sans-Serif" font-size="10.00">TorcNotifier</text>
</a>
</g>
</g>
<!-- Node1&#45;&gt;Node24 -->
<g id="edge23" class="edge"><title>Node1&#45;&gt;Node24</title>
<path fill="none" stroke="midnightblue" d="M214.588,-421.741C237.21,-406.458 271.324,-383.412 290.367,-370.547"/>
<polygon fill="midnightblue" stroke="midnightblue" points="212.575,-418.876 206.248,-427.375 216.494,-424.677 212.575,-418.876"/>
</g>
<!-- Node30 -->
<g id="node30" class="node"><title>Node30</title>
<g id="a_node30"><a xlink:href="../../d1/dc7/class_torc_output.html" target="_top" xlink:title="TorcOutput">
<polygon fill="white" stroke="black" points="271.5,-199.5 271.5,-218.5 339.5,-218.5 339.5,-199.5 271.5,-199.5"/>
<text text-anchor="middle" x="305.5" y="-206.5" font-family="Helvetica,sans-Serif" font-size="10.00">TorcOutput</text>
</a>
</g>
</g>
<!-- Node1&#45;&gt;Node30 -->
<g id="edge29" class="edge"><title>Node1&#45;&gt;Node30</title>
<path fill="none" stroke="midnightblue" d="M201.231,-418.291C224.097,-371.949 282.746,-253.089 299.789,-218.547"/>
<polygon fill="midnightblue" stroke="midnightblue" points="197.977,-416.977 196.691,-427.493 204.254,-420.074 197.977,-416.977"/>
</g>
<!-- Node2 -->
<g id="node2" class="node"><title>Node2</title>
<polygon fill="white" stroke="#bfbfbf" points="33,-446.5 33,-465.5 88,-465.5 88,-446.5 33,-446.5"/>
<text text-anchor="middle" x="60.5" y="-453.5" font-family="Helvetica,sans-Serif" font-size="10.00">QObject</text>
</g>
<!-- Node2&#45;&gt;Node1 -->
<g id="edge1" class="edge"><title>Node2&#45;&gt;Node1</title>
<path fill="none" stroke="midnightblue" d="M98.1763,-450.577C116.549,-447.861 138.633,-444.595 156.54,-441.947"/>
<polygon fill="midnightblue" stroke="midnightblue" points="97.5058,-447.138 88.1253,-452.063 98.5297,-454.063 97.5058,-447.138"/>
</g>
<!-- Node3 -->
<g id="node3" class="node"><title>Node3</title>
<g id="a_node3"><a xlink:href="../../d6/dad/class_torc_reference_counter.html" target="_top" xlink:title="A reference counting implementation. ">
<polygon fill="white" stroke="black" points="0,-408.5 0,-427.5 121,-427.5 121,-408.5 0,-408.5"/>
<text text-anchor="middle" x="60.5" y="-415.5" font-family="Helvetica,sans-Serif" font-size="10.00">TorcReferenceCounter</text>
</a>
</g>
</g>
<!-- Node3&#45;&gt;Node1 -->
<g id="edge2" class="edge"><title>Node3&#45;&gt;Node1</title>
<path fill="none" stroke="midnightblue" d="M131.249,-428.313C140.096,-429.621 148.804,-430.909 156.694,-432.075"/>
<polygon fill="midnightblue" stroke="midnightblue" points="131.64,-424.833 121.236,-426.833 130.616,-431.758 131.64,-424.833"/>
</g>
<!-- Node5 -->
<g id="node5" class="node"><title>Node5</title>
<g id="a_node5"><a xlink:href="../../d5/d8f/class_torc_logic_control.html" target="_top" xlink:title="TorcLogicControl">
<polygon fill="white" stroke="black" points="403,-750.5 403,-769.5 498,-769.5 498,-750.5 403,-750.5"/>
<text text-anchor="middle" x="450.5" y="-757.5" font-family="Helvetica,sans-Serif" font-size="10.00">TorcLogicControl</text>
</a>
</g>
</g>
<!-- Node4&#45;&gt;Node5 -->
<g id="edge4" class="edge"><title>Node4&#45;&gt;Node5</title>
<path fill="none" stroke="midnightblue" d="M333.747,-717.317C348.885,-724.94 368.205,-734.133 386,-741 394.91,-744.439 404.718,-747.645 413.904,-750.408"/>
<polygon fill="midnightblue" stroke="midnightblue" points="334.958,-714.006 324.461,-712.574 331.774,-720.24 334.958,-714.006"/>
</g>
<!-- Node6 -->
<g id="node6" class="node"><title>Node6</title>
<g id="a_node6"><a xlink:href="../../d6/d72/class_torc_timer_control.html" target="_top" xlink:title="TorcTimerControl">
<polygon fill="white" stroke="black" points="402,-712.5 402,-731.5 499,-731.5 499,-712.5 402,-712.5"/>
<text text-anchor="middle" x="450.5" y="-719.5" font-family="Helvetica,sans-Serif" font-size="10.00">TorcTimerControl</text>
</a>
</g>
</g>
<!-- Node4&#45;&gt;Node6 -->
<g id="edge5" class="edge"><title>Node4&#45;&gt;Node6</title>
<path fill="none" stroke="midnightblue" d="M350.989,-708.911C367.101,-711.052 385.359,-713.478 401.741,-715.654"/>
<polygon fill="midnightblue" stroke="midnightblue" points="351.126,-705.399 340.752,-707.551 350.204,-712.338 351.126,-705.399"/>
</g>
<!-- Node7 -->
<g id="node7" class="node"><title>Node7</title>
<g id="a_node7"><a xlink:href="../../df/d11/class_torc_transition_control.html" target="_top" xlink:title="TorcTransitionControl">
<polygon fill="white" stroke="black" points="393,-674.5 393,-693.5 508,-693.5 508,-674.5 393,-674.5"/>
<text text-anchor="middle" x="450.5" y="-681.5" font-family="Helvetica,sans-Serif" font-size="10.00">TorcTransitionControl</text>
</a>
</g>
</g>
<!-- Node4&#45;&gt;Node7 -->
<g id="edge6" class="edge"><title>Node4&#45;&gt;Node7</title>
<path fill="none" stroke="midnightblue" d="M351.031,-697.083C364.288,-695.322 378.995,-693.368 392.913,-691.519"/>
<polygon fill="midnightblue" stroke="midnightblue" points="350.204,-693.662 340.752,-698.449 351.126,-700.601 350.204,-693.662"/>
</g>
<!-- Node9 -->
<g id="node9" class="node"><title>Node9</title>
<g id="a_node9"><a xlink:href="../../db/d20/class_torcp_h_input.html" target="_top" xlink:title="TorcpHInput">
<polygon fill="white" stroke="black" points="414,-636.5 414,-655.5 487,-655.5 487,-636.5 414,-636.5"/>
<text text-anchor="middle" x="450.5" y="-643.5" font-family="Helvetica,sans-Serif" font-size="10.00">TorcpHInput</text>
</a>
</g>
</g>
<!-- Node8&#45;&gt;Node9 -->
<g id="edge8" class="edge"><title>Node8&#45;&gt;Node9</title>
<path fill="none" stroke="midnightblue" d="M320.722,-568.812C335.371,-586.037 359.717,-611.712 386,-627 394.455,-631.918 404.296,-635.664 413.67,-638.476"/>
<polygon fill="midnightblue" stroke="midnightblue" points="323.059,-566.146 313.986,-560.675 317.666,-570.61 323.059,-566.146"/>
</g>
<!-- Node11 -->
<g id="node11" class="node"><title>Node11</title>
<g id="a_node11"><a xlink:href="../../d1/d8b/class_torc_p_w_m_input.html" target="_top" xlink:title="TorcPWMInput">
<polygon fill="white" stroke="black" points="409.5,-598.5 409.5,-617.5 491.5,-617.5 491.5,-598.5 409.5,-598.5"/>
<text text-anchor="middle" x="450.5" y="-605.5" font-family="Helvetica,sans-Serif" font-size="10.00">TorcPWMInput</text>
</a>
</g>
</g>
<!-- Node8&#45;&gt;Node11 -->
<g id="edge10" class="edge"><title>Node8&#45;&gt;Node11</title>
<path fill="none" stroke="midnightblue" d="M333.747,-565.317C348.885,-572.94 368.205,-582.133 386,-589 394.91,-592.439 404.718,-595.645 413.904,-598.408"/>
<polygon fill="midnightblue" stroke="midnightblue" points="334.958,-562.006 324.461,-560.574 331.774,-568.24 334.958,-562.006"/>
</g>
<!-- Node13 -->
<g id="node13" class="node"><title>Node13</title>
<g id="a_node13"><a xlink:href="../../db/dd0/class_torc_switch_input.html" target="_top" xlink:title="TorcSwitchInput">
<polygon fill="white" stroke="black" points="405.5,-560.5 405.5,-579.5 495.5,-579.5 495.5,-560.5 405.5,-560.5"/>
<text text-anchor="middle" x="450.5" y="-567.5" font-family="Helvetica,sans-Serif" font-size="10.00">TorcSwitchInput</text>
</a>
</g>
</g>
<!-- Node8&#45;&gt;Node13 -->
<g id="edge12" class="edge"><title>Node8&#45;&gt;Node13</title>
<path fill="none" stroke="midnightblue" d="M345.014,-556.117C363.66,-558.595 386.138,-561.581 405.461,-564.149"/>
<polygon fill="midnightblue" stroke="midnightblue" points="345.468,-552.647 335.094,-554.799 344.546,-559.586 345.468,-552.647"/>
</g>
<!-- Node17 -->
<g id="node17" class="node"><title>Node17</title>
<g id="a_node17"><a xlink:href="../../d7/df7/class_torc_system_input.html" target="_top" xlink:title="TorcSystemInput">
<polygon fill="white" stroke="black" points="402.5,-522.5 402.5,-541.5 498.5,-541.5 498.5,-522.5 402.5,-522.5"/>
<text text-anchor="middle" x="450.5" y="-529.5" font-family="Helvetica,sans-Serif" font-size="10.00">TorcSystemInput</text>
</a>
</g>
</g>
<!-- Node8&#45;&gt;Node17 -->
<g id="edge16" class="edge"><title>Node8&#45;&gt;Node17</title>
<path fill="none" stroke="midnightblue" d="M345.048,-545.878C362.703,-543.533 383.788,-540.731 402.376,-538.261"/>
<polygon fill="midnightblue" stroke="midnightblue" points="344.546,-542.414 335.094,-547.201 345.468,-549.353 344.546,-542.414"/>
</g>
<!-- Node18 -->
<g id="node18" class="node"><title>Node18</title>
<g id="a_node18"><a xlink:href="../../de/d14/class_torc_temperature_input.html" target="_top" xlink:title="TorcTemperatureInput">
<polygon fill="white" stroke="black" points="390.5,-484.5 390.5,-503.5 510.5,-503.5 510.5,-484.5 390.5,-484.5"/>
<text text-anchor="middle" x="450.5" y="-491.5" font-family="Helvetica,sans-Serif" font-size="10.00">TorcTemperatureInput</text>
</a>
</g>
</g>
<!-- Node8&#45;&gt;Node18 -->
<g id="edge17" class="edge"><title>Node8&#45;&gt;Node18</title>
<path fill="none" stroke="midnightblue" d="M333.747,-536.683C348.885,-529.06 368.205,-519.867 386,-513 394.91,-509.561 404.718,-506.355 413.904,-503.592"/>
<polygon fill="midnightblue" stroke="midnightblue" points="331.774,-533.76 324.461,-541.426 334.958,-539.994 331.774,-533.76"/>
</g>
<!-- Node10 -->
<g id="node10" class="node"><title>Node10</title>
<g id="a_node10"><a xlink:href="../../d5/d8a/class_torc_networkp_h_input.html" target="_top" xlink:title="TorcNetworkpHInput">
<polygon fill="white" stroke="black" points="579,-636.5 579,-655.5 691,-655.5 691,-636.5 579,-636.5"/>
<text text-anchor="middle" x="635" y="-643.5" font-family="Helvetica,sans-Serif" font-size="10.00">TorcNetworkpHInput</text>
</a>
</g>
</g>
<!-- Node9&#45;&gt;Node10 -->
<g id="edge9" class="edge"><title>Node9&#45;&gt;Node10</title>
<path fill="none" stroke="midnightblue" d="M497.312,-646C522.015,-646 552.683,-646 578.707,-646"/>
<polygon fill="midnightblue" stroke="midnightblue" points="497.121,-642.5 487.121,-646 497.121,-649.5 497.121,-642.5"/>
</g>
<!-- Node12 -->
<g id="node12" class="node"><title>Node12</title>
<g id="a_node12"><a xlink:href="../../da/d14/class_torc_network_p_w_m_input.html" target="_top" xlink:title="TorcNetworkPWMInput">
<polygon fill="white" stroke="black" points="574.5,-598.5 574.5,-617.5 695.5,-617.5 695.5,-598.5 574.5,-598.5"/>
<text text-anchor="middle" x="635" y="-605.5" font-family="Helvetica,sans-Serif" font-size="10.00">TorcNetworkPWMInput</text>
</a>
</g>
</g>
<!-- Node11&#45;&gt;Node12 -->
<g id="edge11" class="edge"><title>Node11&#45;&gt;Node12</title>
<path fill="none" stroke="midnightblue" d="M501.558,-608C524.044,-608 550.754,-608 574.277,-608"/>
<polygon fill="midnightblue" stroke="midnightblue" points="501.55,-604.5 491.55,-608 501.55,-611.5 501.55,-604.5"/>
</g>
<!-- Node14 -->
<g id="node14" class="node"><title>Node14</title>
<g id="a_node14"><a xlink:href="../../df/d5c/class_torc_network_switch_input.html" target="_top" xlink:title="TorcNetworkSwitchInput">
<polygon fill="white" stroke="black" points="570.5,-560.5 570.5,-579.5 699.5,-579.5 699.5,-560.5 570.5,-560.5"/>
<text text-anchor="middle" x="635" y="-567.5" font-family="Helvetica,sans-Serif" font-size="10.00">TorcNetworkSwitchInput</text>
</a>
</g>
</g>
<!-- Node13&#45;&gt;Node14 -->
<g id="edge13" class="edge"><title>Node13&#45;&gt;Node14</title>
<path fill="none" stroke="midnightblue" d="M505.954,-570C526.159,-570 549.255,-570 570.218,-570"/>
<polygon fill="midnightblue" stroke="midnightblue" points="505.678,-566.5 495.678,-570 505.678,-573.5 505.678,-566.5"/>
</g>
<!-- Node16 -->
<g id="node16" class="node"><title>Node16</title>
<g id="a_node16"><a xlink:href="../../de/d6d/class_torc_pi_switch_input.html" target="_top" xlink:title="TorcPiSwitchInput">
<polygon fill="white" stroke="black" points="586,-522.5 586,-541.5 684,-541.5 684,-522.5 586,-522.5"/>
<text text-anchor="middle" x="635" y="-529.5" font-family="Helvetica,sans-Serif" font-size="10.00">TorcPiSwitchInput</text>
</a>
</g>
</g>
<!-- Node13&#45;&gt;Node16 -->
<g id="edge15" class="edge"><title>Node13&#45;&gt;Node16</title>
<path fill="none" stroke="midnightblue" d="M505.506,-558.755C531.848,-553.27 563.188,-546.744 588.323,-541.511"/>
<polygon fill="midnightblue" stroke="midnightblue" points="504.755,-555.336 495.678,-560.801 506.182,-562.189 504.755,-555.336"/>
</g>
<!-- Node15 -->
<g id="node15" class="node"><title>Node15</title>
<g id="a_node15"><a xlink:href="../../d7/d4b/class_torc_network_button_input.html" target="_top" xlink:title="A network input that mimics the behaviour of a mechanical push button. ">
<polygon fill="white" stroke="black" points="759.5,-560.5 759.5,-579.5 890.5,-579.5 890.5,-560.5 759.5,-560.5"/>
<text text-anchor="middle" x="825" y="-567.5" font-family="Helvetica,sans-Serif" font-size="10.00">TorcNetworkButtonInput</text>
</a>
</g>
</g>
<!-- Node14&#45;&gt;Node15 -->
<g id="edge14" class="edge"><title>Node14&#45;&gt;Node15</title>
<path fill="none" stroke="midnightblue" d="M709.74,-570C726.158,-570 743.442,-570 759.457,-570"/>
<polygon fill="midnightblue" stroke="midnightblue" points="709.648,-566.5 699.648,-570 709.648,-573.5 709.648,-566.5"/>
</g>
<!-- Node19 -->
<g id="node19" class="node"><title>Node19</title>
<g id="a_node19"><a xlink:href="../../d5/dd1/class_torc1_wire_d_s18_b20.html" target="_top" xlink:title="Torc1WireDS18B20">
<polygon fill="white" stroke="black" points="581.5,-484.5 581.5,-503.5 688.5,-503.5 688.5,-484.5 581.5,-484.5"/>
<text text-anchor="middle" x="635" y="-491.5" font-family="Helvetica,sans-Serif" font-size="10.00">Torc1WireDS18B20</text>
</a>
</g>
</g>
<!-- Node18&#45;&gt;Node19 -->
<g id="edge18" class="edge"><title>Node18&#45;&gt;Node19</title>
<path fill="none" stroke="midnightblue" d="M520.562,-494C540.714,-494 562.402,-494 581.363,-494"/>
<polygon fill="midnightblue" stroke="midnightblue" points="520.501,-490.5 510.5,-494 520.5,-497.5 520.501,-490.5"/>
</g>
<!-- Node20 -->
<g id="node20" class="node"><title>Node20</title>
<g id="a_node20"><a xlink:href="../../d9/dc9/class_torc_network_temperature_input.html" target="_top" xlink:title="TorcNetworkTemperatureInput">
<polygon fill="white" stroke="black" points="555.5,-446.5 555.5,-465.5 714.5,-465.5 714.5,-446.5 555.5,-446.5"/>
<text text-anchor="middle" x="635" y="-453.5" font-family="Helvetica,sans-Serif" font-size="10.00">TorcNetworkTemperatureInput</text>
</a>
</g>
</g>
<!-- Node18&#45;&gt;Node20 -->
<g id="edge19" class="edge"><title>Node18&#45;&gt;Node20</title>
<path fill="none" stroke="midnightblue" d="M507.599,-482.319C533.48,-476.93 563.815,-470.614 588.279,-465.52"/>
<polygon fill="midnightblue" stroke="midnightblue" points="506.629,-478.946 497.552,-484.411 508.056,-485.799 506.629,-478.946"/>
</g>
<!-- Node22 -->
<g id="node22" class="node"><title>Node22</title>
<g id="a_node22"><a xlink:href="../../d7/df8/class_torc_system_notification.html" target="_top" xlink:title="TorcSystemNotification">
<polygon fill="white" stroke="black" points="387.5,-446.5 387.5,-465.5 513.5,-465.5 513.5,-446.5 387.5,-446.5"/>
<text text-anchor="middle" x="450.5" y="-453.5" font-family="Helvetica,sans-Serif" font-size="10.00">TorcSystemNotification</text>
</a>
</g>
</g>
<!-- Node21&#45;&gt;Node22 -->
<g id="edge21" class="edge"><title>Node21&#45;&gt;Node22</title>
<path fill="none" stroke="midnightblue" d="M360.338,-444.153C369.17,-445.327 378.386,-446.551 387.399,-447.749"/>
<polygon fill="midnightblue" stroke="midnightblue" points="360.556,-440.652 350.182,-442.804 359.634,-447.591 360.556,-440.652"/>
</g>
<!-- Node23 -->
<g id="node23" class="node"><title>Node23</title>
<g id="a_node23"><a xlink:href="../../dd/d6d/class_torc_trigger_notification.html" target="_top" xlink:title="TorcTriggerNotification">
<polygon fill="white" stroke="black" points="390,-408.5 390,-427.5 511,-427.5 511,-408.5 390,-408.5"/>
<text text-anchor="middle" x="450.5" y="-415.5" font-family="Helvetica,sans-Serif" font-size="10.00">TorcTriggerNotification</text>
</a>
</g>
</g>
<!-- Node21&#45;&gt;Node23 -->
<g id="edge22" class="edge"><title>Node21&#45;&gt;Node23</title>
<path fill="none" stroke="midnightblue" d="M360.379,-429.841C369.972,-428.567 380.016,-427.232 389.761,-425.937"/>
<polygon fill="midnightblue" stroke="midnightblue" points="359.634,-426.409 350.182,-431.196 360.556,-433.348 359.634,-426.409"/>
</g>
<!-- Node25 -->
<g id="node25" class="node"><title>Node25</title>
<g id="a_node25"><a xlink:href="../../d0/db9/class_torc_i_o_t_logger.html" target="_top" xlink:title="TorcIOTLogger">
<polygon fill="white" stroke="black" points="409,-370.5 409,-389.5 492,-389.5 492,-370.5 409,-370.5"/>
<text text-anchor="middle" x="450.5" y="-377.5" font-family="Helvetica,sans-Serif" font-size="10.00">TorcIOTLogger</text>
</a>
</g>
</g>
<!-- Node24&#45;&gt;Node25 -->
<g id="edge24" class="edge"><title>Node24&#45;&gt;Node25</title>
<path fill="none" stroke="midnightblue" d="M350.733,-366.877C369.304,-369.345 390.762,-372.196 408.922,-374.609"/>
<polygon fill="midnightblue" stroke="midnightblue" points="351.126,-363.399 340.752,-365.551 350.204,-370.338 351.126,-363.399"/>
</g>
<!-- Node28 -->
<g id="node28" class="node"><title>Node28</title>
<g id="a_node28"><a xlink:href="../../df/dd1/class_torc_log_notifier.html" target="_top" xlink:title="Log notifications to the log file. ">
<polygon fill="white" stroke="black" points="407,-332.5 407,-351.5 494,-351.5 494,-332.5 407,-332.5"/>
<text text-anchor="middle" x="450.5" y="-339.5" font-family="Helvetica,sans-Serif" font-size="10.00">TorcLogNotifier</text>
</a>
</g>
</g>
<!-- Node24&#45;&gt;Node28 -->
<g id="edge27" class="edge"><title>Node24&#45;&gt;Node28</title>
<path fill="none" stroke="midnightblue" d="M350.9,-355.101C368.721,-352.733 389.18,-350.015 406.825,-347.67"/>
<polygon fill="midnightblue" stroke="midnightblue" points="350.204,-351.662 340.752,-356.449 351.126,-358.601 350.204,-351.662"/>
</g>
<!-- Node29 -->
<g id="node29" class="node"><title>Node29</title>
<g id="a_node29"><a xlink:href="../../d7/d0b/class_torc_pushbullet_notifier.html" target="_top" xlink:title="Send push notifications using the Pushbullet API. ">
<polygon fill="white" stroke="black" points="391,-294.5 391,-313.5 510,-313.5 510,-294.5 391,-294.5"/>
<text text-anchor="middle" x="450.5" y="-301.5" font-family="Helvetica,sans-Serif" font-size="10.00">TorcPushbulletNotifier</text>
</a>
</g>
</g>
<!-- Node24&#45;&gt;Node29 -->
<g id="edge28" class="edge"><title>Node24&#45;&gt;Node29</title>
<path fill="none" stroke="midnightblue" d="M333.747,-346.683C348.885,-339.06 368.205,-329.867 386,-323 394.91,-319.561 404.718,-316.355 413.904,-313.592"/>
<polygon fill="midnightblue" stroke="midnightblue" points="331.774,-343.76 324.461,-351.426 334.958,-349.994 331.774,-343.76"/>
</g>
<!-- Node26 -->
<g id="node26" class="node"><title>Node26</title>
<g id="a_node26"><a xlink:href="../../df/d10/class_torc_io_t_plotter_notifier.html" target="_top" xlink:title="TorcIoTPlotterNotifier">
<polygon fill="white" stroke="black" points="577.5,-399.5 577.5,-418.5 692.5,-418.5 692.5,-399.5 577.5,-399.5"/>
<text text-anchor="middle" x="635" y="-406.5" font-family="Helvetica,sans-Serif" font-size="10.00">TorcIoTPlotterNotifier</text>
</a>
</g>
</g>
<!-- Node25&#45;&gt;Node26 -->
<g id="edge25" class="edge"><title>Node25&#45;&gt;Node26</title>
<path fill="none" stroke="midnightblue" d="M502.056,-388.034C525.425,-391.747 553.271,-396.172 577.346,-399.997"/>
<polygon fill="midnightblue" stroke="midnightblue" points="502.428,-384.549 492.003,-386.436 501.329,-391.462 502.428,-384.549"/>
</g>
<!-- Node27 -->
<g id="node27" class="node"><title>Node27</title>
<g id="a_node27"><a xlink:href="../../d0/d1f/class_torc_thing_speak_notifier.html" target="_top" xlink:title="TorcThingSpeakNotifier">
<polygon fill="white" stroke="black" points="572.5,-361.5 572.5,-380.5 697.5,-380.5 697.5,-361.5 572.5,-361.5"/>
<text text-anchor="middle" x="635" y="-368.5" font-family="Helvetica,sans-Serif" font-size="10.00">TorcThingSpeakNotifier</text>
</a>
</g>
</g>
<!-- Node25&#45;&gt;Node27 -->
<g id="edge26" class="edge"><title>Node25&#45;&gt;Node27</title>
<path fill="none" stroke="midnightblue" d="M502.04,-377.508C523.841,-376.433 549.541,-375.165 572.44,-374.036"/>
<polygon fill="midnightblue" stroke="midnightblue" points="501.818,-374.014 492.003,-378.003 502.163,-381.006 501.818,-374.014"/>
</g>
<!-- Node31 -->
<g id="node31" class="node"><title>Node31</title>
<g id="a_node31"><a xlink:href="../../db/dc8/class_torc_camera_output.html" target="_top" xlink:title="TorcCameraOutput">
<polygon fill="white" stroke="black" points="397,-256.5 397,-275.5 504,-275.5 504,-256.5 397,-256.5"/>
<text text-anchor="middle" x="450.5" y="-263.5" font-family="Helvetica,sans-Serif" font-size="10.00">TorcCameraOutput</text>
</a>
</g>
</g>
<!-- Node30&#45;&gt;Node31 -->
<g id="edge30" class="edge"><title>Node30&#45;&gt;Node31</title>
<path fill="none" stroke="midnightblue" d="M333.747,-223.317C348.885,-230.94 368.205,-240.133 386,-247 394.91,-250.439 404.718,-253.645 413.904,-256.408"/>
<polygon fill="midnightblue" stroke="midnightblue" points="334.958,-220.006 324.461,-218.574 331.774,-226.24 334.958,-220.006"/>
</g>
<!-- Node34 -->
<g id="node34" class="node"><title>Node34</title>
<g id="a_node34"><a xlink:href="../../d2/d21/class_torcp_h_output.html" target="_top" xlink:title="TorcpHOutput">
<polygon fill="white" stroke="black" points="409.5,-218.5 409.5,-237.5 491.5,-237.5 491.5,-218.5 409.5,-218.5"/>
<text text-anchor="middle" x="450.5" y="-225.5" font-family="Helvetica,sans-Serif" font-size="10.00">TorcpHOutput</text>
</a>
</g>
</g>
<!-- Node30&#45;&gt;Node34 -->
<g id="edge33" class="edge"><title>Node30&#45;&gt;Node34</title>
<path fill="none" stroke="midnightblue" d="M349.82,-214.756C368.754,-217.271 390.826,-220.204 409.381,-222.67"/>
<polygon fill="midnightblue" stroke="midnightblue" points="350.04,-211.254 339.667,-213.407 349.118,-218.193 350.04,-211.254"/>
</g>
<!-- Node36 -->
<g id="node36" class="node"><title>Node36</title>
<g id="a_node36"><a xlink:href="../../d9/db0/class_torc_p_w_m_output.html" target="_top" xlink:title="TorcPWMOutput">
<polygon fill="white" stroke="black" points="405,-152.5 405,-171.5 496,-171.5 496,-152.5 405,-152.5"/>
<text text-anchor="middle" x="450.5" y="-159.5" font-family="Helvetica,sans-Serif" font-size="10.00">TorcPWMOutput</text>
</a>
</g>
</g>
<!-- Node30&#45;&gt;Node36 -->
<g id="edge35" class="edge"><title>Node30&#45;&gt;Node36</title>
<path fill="none" stroke="midnightblue" d="M345.137,-196.301C368.735,-188.545 398.437,-178.783 420.114,-171.658"/>
<polygon fill="midnightblue" stroke="midnightblue" points="343.845,-193.041 335.438,-199.489 346.031,-199.691 343.845,-193.041"/>
</g>
<!-- Node40 -->
<g id="node40" class="node"><title>Node40</title>
<g id="a_node40"><a xlink:href="../../d9/d5b/class_torc_switch_output.html" target="_top" xlink:title="TorcSwitchOutput">
<polygon fill="white" stroke="black" points="401,-76.5 401,-95.5 500,-95.5 500,-76.5 401,-76.5"/>
<text text-anchor="middle" x="450.5" y="-83.5" font-family="Helvetica,sans-Serif" font-size="10.00">TorcSwitchOutput</text>
</a>
</g>
</g>
<!-- Node30&#45;&gt;Node40 -->
<g id="edge39" class="edge"><title>Node30&#45;&gt;Node40</title>
<path fill="none" stroke="midnightblue" d="M325.458,-192.694C355.703,-166.678 413.945,-116.582 438.331,-95.6068"/>
<polygon fill="midnightblue" stroke="midnightblue" points="323.02,-190.174 317.721,-199.348 327.585,-195.481 323.02,-190.174"/>
</g>
<!-- Node44 -->
<g id="node44" class="node"><title>Node44</title>
<g id="a_node44"><a xlink:href="../../d5/dda/class_torc_temperature_output.html" target="_top" xlink:title="TorcTemperatureOutput">
<polygon fill="white" stroke="black" points="386,-19.5 386,-38.5 515,-38.5 515,-19.5 386,-19.5"/>
<text text-anchor="middle" x="450.5" y="-26.5" font-family="Helvetica,sans-Serif" font-size="10.00">TorcTemperatureOutput</text>
</a>
</g>
</g>
<!-- Node30&#45;&gt;Node44 -->
<g id="edge43" class="edge"><title>Node30&#45;&gt;Node44</title>
<path fill="none" stroke="midnightblue" d="M313.497,-189.789C324.944,-160.451 350.055,-103.999 386,-67 397.817,-54.8365 414.331,-45.1136 427.555,-38.5483"/>
<polygon fill="midnightblue" stroke="midnightblue" points="310.169,-188.693 309.903,-199.285 316.716,-191.171 310.169,-188.693"/>
</g>
<!-- Node32 -->
<g id="node32" class="node"><title>Node32</title>
<g id="a_node32"><a xlink:href="../../d4/dbb/class_torc_camera_stills_output.html" target="_top" xlink:title="TorcCameraStillsOutput">
<polygon fill="white" stroke="black" points="570.5,-304.5 570.5,-323.5 699.5,-323.5 699.5,-304.5 570.5,-304.5"/>
<text text-anchor="middle" x="635" y="-311.5" font-family="Helvetica,sans-Serif" font-size="10.00">TorcCameraStillsOutput</text>
</a>
</g>
</g>
<!-- Node31&#45;&gt;Node32 -->
<g id="edge31" class="edge"><title>Node31&#45;&gt;Node32</title>
<path fill="none" stroke="midnightblue" d="M493.612,-278.54C515.519,-285.01 539.976,-292.134 551,-295 563.59,-298.273 577.332,-301.541 589.946,-304.42"/>
<polygon fill="midnightblue" stroke="midnightblue" points="494.366,-275.113 483.784,-275.631 492.379,-281.825 494.366,-275.113"/>
</g>
<!-- Node33 -->
<g id="node33" class="node"><title>Node33</title>
<g id="a_node33"><a xlink:href="../../df/d01/class_torc_camera_video_output.html" target="_top" xlink:title="TorcCameraVideoOutput">
<polygon fill="white" stroke="black" points="568,-266.5 568,-285.5 702,-285.5 702,-266.5 568,-266.5"/>
<text text-anchor="middle" x="635" y="-273.5" font-family="Helvetica,sans-Serif" font-size="10.00">TorcCameraVideoOutput</text>
</a>
</g>
</g>
<!-- Node31&#45;&gt;Node33 -->
<g id="edge32" class="edge"><title>Node31&#45;&gt;Node33</title>
<path fill="none" stroke="midnightblue" d="M514.729,-269.465C531.841,-270.402 550.409,-271.42 567.686,-272.366"/>
<polygon fill="midnightblue" stroke="midnightblue" points="514.463,-265.945 504.287,-268.892 514.08,-272.934 514.463,-265.945"/>
</g>
<!-- Node35 -->
<g id="node35" class="node"><title>Node35</title>
<g id="a_node35"><a xlink:href="../../d0/d23/class_torc_networkp_h_output.html" target="_top" xlink:title="TorcNetworkpHOutput">
<polygon fill="white" stroke="black" points="574.5,-228.5 574.5,-247.5 695.5,-247.5 695.5,-228.5 574.5,-228.5"/>
<text text-anchor="middle" x="635" y="-235.5" font-family="Helvetica,sans-Serif" font-size="10.00">TorcNetworkpHOutput</text>
</a>
</g>
</g>
<!-- Node34&#45;&gt;Node35 -->
<g id="edge34" class="edge"><title>Node34&#45;&gt;Node35</title>
<path fill="none" stroke="midnightblue" d="M501.558,-230.743C524.044,-231.975 550.754,-233.439 574.277,-234.728"/>
<polygon fill="midnightblue" stroke="midnightblue" points="501.727,-227.247 491.55,-230.195 501.344,-234.237 501.727,-227.247"/>
</g>
<!-- Node37 -->
<g id="node37" class="node"><title>Node37</title>
<g id="a_node37"><a xlink:href="../../d6/d33/class_torc_i2_c_p_c_a9685_channel.html" target="_top" xlink:title="TorcI2CPCA9685Channel">
<polygon fill="white" stroke="black" points="568.5,-190.5 568.5,-209.5 701.5,-209.5 701.5,-190.5 568.5,-190.5"/>
<text text-anchor="middle" x="635" y="-197.5" font-family="Helvetica,sans-Serif" font-size="10.00">TorcI2CPCA9685Channel</text>
</a>
</g>
</g>
<!-- Node36&#45;&gt;Node37 -->
<g id="edge36" class="edge"><title>Node36&#45;&gt;Node37</title>
<path fill="none" stroke="midnightblue" d="M506.279,-173.406C532.427,-178.851 563.357,-185.291 588.23,-190.47"/>
<polygon fill="midnightblue" stroke="midnightblue" points="506.648,-169.908 496.145,-171.296 505.221,-176.761 506.648,-169.908"/>
</g>
<!-- Node38 -->
<g id="node38" class="node"><title>Node38</title>
<g id="a_node38"><a xlink:href="../../d0/db8/class_torc_network_p_w_m_output.html" target="_top" xlink:title="TorcNetworkPWMOutput">
<polygon fill="white" stroke="black" points="570,-152.5 570,-171.5 700,-171.5 700,-152.5 570,-152.5"/>
<text text-anchor="middle" x="635" y="-159.5" font-family="Helvetica,sans-Serif" font-size="10.00">TorcNetworkPWMOutput</text>
</a>
</g>
</g>
<!-- Node36&#45;&gt;Node38 -->
<g id="edge37" class="edge"><title>Node36&#45;&gt;Node38</title>
<path fill="none" stroke="midnightblue" d="M506.318,-162C526.31,-162 549.092,-162 569.824,-162"/>
<polygon fill="midnightblue" stroke="midnightblue" points="506.145,-158.5 496.145,-162 506.144,-165.5 506.145,-158.5"/>
</g>
<!-- Node39 -->
<g id="node39" class="node"><title>Node39</title>
<g id="a_node39"><a xlink:href="../../d3/d08/class_torc_pi_p_w_m_output.html" target="_top" xlink:title="A device to output PWM signals on the Raspberry Pi. ">
<polygon fill="white" stroke="black" points="585.5,-114.5 585.5,-133.5 684.5,-133.5 684.5,-114.5 585.5,-114.5"/>
<text text-anchor="middle" x="635" y="-121.5" font-family="Helvetica,sans-Serif" font-size="10.00">TorcPiPWMOutput</text>
</a>
</g>
</g>
<!-- Node36&#45;&gt;Node39 -->
<g id="edge38" class="edge"><title>Node36&#45;&gt;Node39</title>
<path fill="none" stroke="midnightblue" d="M506.279,-150.594C532.427,-145.149 563.357,-138.709 588.23,-133.53"/>
<polygon fill="midnightblue" stroke="midnightblue" points="505.221,-147.239 496.145,-152.704 506.648,-154.092 505.221,-147.239"/>
</g>
<!-- Node41 -->
<g id="node41" class="node"><title>Node41</title>
<g id="a_node41"><a xlink:href="../../d1/d71/class_torc_network_switch_output.html" target="_top" xlink:title="TorcNetworkSwitchOutput">
<polygon fill="white" stroke="black" points="566,-76.5 566,-95.5 704,-95.5 704,-76.5 566,-76.5"/>
<text text-anchor="middle" x="635" y="-83.5" font-family="Helvetica,sans-Serif" font-size="10.00">TorcNetworkSwitchOutput</text>
</a>
</g>
</g>
<!-- Node40&#45;&gt;Node41 -->
<g id="edge40" class="edge"><title>Node40&#45;&gt;Node41</title>
<path fill="none" stroke="midnightblue" d="M510.54,-86C528.151,-86 547.599,-86 565.748,-86"/>
<polygon fill="midnightblue" stroke="midnightblue" points="510.407,-82.5001 500.407,-86 510.407,-89.5001 510.407,-82.5001"/>
</g>
<!-- Node43 -->
<g id="node43" class="node"><title>Node43</title>
<g id="a_node43"><a xlink:href="../../dc/d7e/class_torc_pi_switch_output.html" target="_top" xlink:title="TorcPiSwitchOutput">
<polygon fill="white" stroke="black" points="581.5,-38.5 581.5,-57.5 688.5,-57.5 688.5,-38.5 581.5,-38.5"/>
<text text-anchor="middle" x="635" y="-45.5" font-family="Helvetica,sans-Serif" font-size="10.00">TorcPiSwitchOutput</text>
</a>
</g>
</g>
<!-- Node40&#45;&gt;Node43 -->
<g id="edge42" class="edge"><title>Node40&#45;&gt;Node43</title>
<path fill="none" stroke="midnightblue" d="M507.599,-74.319C533.48,-68.9301 563.815,-62.6139 588.279,-57.5201"/>
<polygon fill="midnightblue" stroke="midnightblue" points="506.629,-70.9459 497.552,-76.411 508.056,-77.799 506.629,-70.9459"/>
</g>
<!-- Node42 -->
<g id="node42" class="node"><title>Node42</title>
<g id="a_node42"><a xlink:href="../../d0/da9/class_torc_network_button_output.html" target="_top" xlink:title="A network output that mimics the behaviour of a mechanical push button. ">
<polygon fill="white" stroke="black" points="755,-76.5 755,-95.5 895,-95.5 895,-76.5 755,-76.5"/>
<text text-anchor="middle" x="825" y="-83.5" font-family="Helvetica,sans-Serif" font-size="10.00">TorcNetworkButtonOutput</text>
</a>
</g>
</g>
<!-- Node41&#45;&gt;Node42 -->
<g id="edge41" class="edge"><title>Node41&#45;&gt;Node42</title>
<path fill="none" stroke="midnightblue" d="M714.315,-86C727.761,-86 741.647,-86 754.832,-86"/>
<polygon fill="midnightblue" stroke="midnightblue" points="714.138,-82.5001 704.138,-86 714.138,-89.5001 714.138,-82.5001"/>
</g>
<!-- Node45 -->
<g id="node45" class="node"><title>Node45</title>
<g id="a_node45"><a xlink:href="../../d2/dd7/class_torc_network_temperature_output.html" target="_top" xlink:title="TorcNetworkTemperatureOutput">
<polygon fill="white" stroke="black" points="551,-0.5 551,-19.5 719,-19.5 719,-0.5 551,-0.5"/>
<text text-anchor="middle" x="635" y="-7.5" font-family="Helvetica,sans-Serif" font-size="10.00">TorcNetworkTemperatureOutput</text>
</a>
</g>
</g>
<!-- Node44&#45;&gt;Node45 -->
<g id="edge44" class="edge"><title>Node44&#45;&gt;Node45</title>
<path fill="none" stroke="midnightblue" d="M525.207,-21.3263C533.616,-20.4509 542.231,-19.554 550.753,-18.6669"/>
<polygon fill="midnightblue" stroke="midnightblue" points="524.657,-17.8646 515.073,-22.3814 525.382,-24.827 524.657,-17.8646"/>
</g>
</g>
</svg>
        <g id="navigator" transform="translate(0 0)" fill="#404254">
                <rect fill="#f2f5e9" fill-opacity="0.5" stroke="#606060" stroke-width=".5" x="0" y="0" width="60" height="60"/>
                <use id="zoomplus" xlink:href="#zoomPlus" x="17" y="9" onmousedown="handleZoom(evt,'in')"/>
                <use id="zoomminus" xlink:href="#zoomMin" x="42" y="9" onmousedown="handleZoom(evt,'out')"/>
                <use id="reset" xlink:href="#resetDef" x="30" y="36" onmousedown="handleReset()"/>
                <g id="arrowUp" xlink:href="#dirArrow" transform="translate(30 24)" onmousedown="handlePan(0,-1)">
                  <use xlink:href="#rim" fill="#404040">
                        <set attributeName="fill" to="#808080" begin="arrowUp.mouseover" end="arrowUp.mouseout"/>
                  </use>
                  <path fill="none" stroke="white" stroke-width="1.5" d="M0,-3.0v7 M-2.5,-0.5L0,-3.0L2.5,-0.5"/>
                </g>
                <g id="arrowRight" xlink:href="#dirArrow" transform="rotate(90) translate(36 -43)" onmousedown="handlePan(1,0)">
                  <use xlink:href="#rim" fill="#404040">
                        <set attributeName="fill" to="#808080" begin="arrowRight.mouseover" end="arrowRight.mouseout"/>
                  </use>
                  <path fill="none" stroke="white" stroke-width="1.5" d="M0,-3.0v7 M-2.5,-0.5L0,-3.0L2.5,-0.5"/>
                </g>
                <g id="arrowDown" xlink:href="#dirArrow" transform="rotate(180) translate(-30 -48)" onmousedown="handlePan(0,1)">
                  <use xlink:href="#rim" fill="#404040">
                        <set attributeName="fill" to="#808080" begin="arrowDown.mouseover" end="arrowDown.mouseout"/>
                  </use>
                  <path fill="none" stroke="white" stroke-width="1.5" d="M0,-3.0v7 M-2.5,-0.5L0,-3.0L2.5,-0.5"/>
                </g>
                <g id="arrowLeft" xlink:href="#dirArrow" transform="rotate(270) translate(-36 17)" onmousedown="handlePan(-1,0)">
                  <use xlink:href="#rim" fill="#404040">
                        <set attributeName="fill" to="#808080" begin="arrowLeft.mouseover" end="arrowLeft.mouseout"/>
                  </use>
                  <path fill="none" stroke="white" stroke-width="1.5" d="M0,-3.0v7 M-2.5,-0.5L0,-3.0L2.5,-0.5"/>
                </g>
        </g>
        <svg viewBox="0 0 15 15" width="100%" height="30px" preserveAspectRatio="xMaxYMin meet">
         <g id="arrow_out" transform="scale(0.3 0.3)">
          <a xlink:href="class_torc_device__inherit__graph_org.svg" target="_base">
           <rect id="button" ry="5" rx="5" y="6" x="6" height="38" width="38"
                fill="#f2f5e9" fill-opacity="0.5" stroke="#606060" stroke-width="1.0"/>
           <path id="arrow"
             d="M 11.500037,31.436501 C 11.940474,20.09759 22.043105,11.32322 32.158766,21.979434 L 37.068811,17.246167 C 37.068811,17.246167 37.088388,32 37.088388,32 L 22.160133,31.978069 C 22.160133,31.978069 26.997745,27.140456 26.997745,27.140456 C 18.528582,18.264221 13.291696,25.230495 11.500037,31.436501 z"
             style="fill:#404040;"/>
          </a>
         </g>
        </svg>
</svg>
