<?xml version="1.0" encoding="UTF-8" standalone="no"?>
<!DOCTYPE svg PUBLIC "-//W3C//DTD SVG 1.1//EN"
 "http://www.w3.org/Graphics/SVG/1.1/DTD/svg11.dtd">
<!-- Generated by graphviz version 2.38.0 (20140413.2041)
 -->
<!-- Title: torciotlogger.cpp Pages: 1 -->
<!--zoomable 476 -->
<svg id="main" version="1.1" xmlns="http://www.w3.org/2000/svg" xmlns:xlink="http://www.w3.org/1999/xlink" xml:space="preserve" onload="init(evt)">
<style type="text/css"><![CDATA[
.edge:hover path { stroke: red; }
.edge:hover polygon { stroke: red; fill: red; }
]]></style>
<script type="text/javascript"><![CDATA[
var edges = document.getElementsByTagName('g');
if (edges && edges.length) {
  for (var i=0;i<edges.length;i++) {
    if (edges[i].id.substr(0,4)=='edge') {
      edges[i].setAttribute('class','edge');
    }
  }
}
]]></script>
        <defs>
                <circle id="rim" cx="0" cy="0" r="7"/>
                <circle id="rim2" cx="0" cy="0" r="3.5"/>
                <g id="zoomPlus">
                        <use xlink:href="#rim" fill="#404040">
                                <set attributeName="fill" to="#808080" begin="zoomplus.mouseover" end="zoomplus.mouseout"/>
                        </use>
                        <path d="M-4,0h8M0,-4v8" fill="none" stroke="white" stroke-width="1.5" pointer-events="none"/>
                </g>
                <g id="zoomMin">
                        <use xlink:href="#rim" fill="#404040">
                                <set attributeName="fill" to="#808080" begin="zoomminus.mouseover" end="zoomminus.mouseout"/>
                        </use>
                        <path d="M-4,0h8" fill="none" stroke="white" stroke-width="1.5" pointer-events="none"/>
                </g>
                <g id="dirArrow">
                        <path fill="none" stroke="white" stroke-width="1.5" d="M0,-3.0v7 M-2.5,-0.5L0,-3.0L2.5,-0.5"/>
                </g>
               <g id="resetDef">
                       <use xlink:href="#rim2" fill="#404040">
                               <set attributeName="fill" to="#808080" begin="reset.mouseover" end="reset.mouseout"/>
                       </use>
               </g>
        </defs>

<script type="text/javascript">
var viewWidth = 1424;
var viewHeight = 476;
var sectionId = 'dynsection-0';
</script>
<script xlink:href="../../svgpan.js"/>
<svg id="graph" class="graph">
<g id="viewport">
<title>torciotlogger.cpp</title>
<polygon fill="white" stroke="none" points="-4,4 -4,-472 1420,-472 1420,4 -4,4"/>
<!-- Node1 -->
<g id="node1" class="node"><title>Node1</title>
<polygon fill="#bfbfbf" stroke="black" points="989,-448.5 989,-467.5 1086,-467.5 1086,-448.5 989,-448.5"/>
<text text-anchor="middle" x="1037.5" y="-455.5" font-family="Helvetica,sans-Serif" font-size="10.00">torciotlogger.cpp</text>
</g>
<!-- Node2 -->
<g id="node2" class="node"><title>Node2</title>
<g id="a_node2"><a xlink:href="../../de/dd7/torciotlogger_8h.html" target="_top" xlink:title="torciotlogger.h">
<polygon fill="white" stroke="black" points="275.5,-392.5 275.5,-411.5 361.5,-411.5 361.5,-392.5 275.5,-392.5"/>
<text text-anchor="middle" x="318.5" y="-399.5" font-family="Helvetica,sans-Serif" font-size="10.00">torciotlogger.h</text>
</a>
</g>
</g>
<!-- Node1&#45;&gt;Node2 -->
<g id="edge1" class="edge"><title>Node1&#45;&gt;Node2</title>
<path fill="none" stroke="midnightblue" d="M988.927,-453.352C859.488,-443.631 506.947,-417.153 372.016,-407.019"/>
<polygon fill="midnightblue" stroke="midnightblue" points="372.155,-403.52 361.921,-406.261 371.631,-410.5 372.155,-403.52"/>
</g>
<!-- Node16 -->
<g id="node16" class="node"><title>Node16</title>
<g id="a_node16"><a xlink:href="../../da/da5/torcnetwork_8h.html" target="_top" xlink:title="torcnetwork.h">
<polygon fill="white" stroke="black" points="695.5,-336.5 695.5,-355.5 777.5,-355.5 777.5,-336.5 695.5,-336.5"/>
<text text-anchor="middle" x="736.5" y="-343.5" font-family="Helvetica,sans-Serif" font-size="10.00">torcnetwork.h</text>
</a>
</g>
</g>
<!-- Node1&#45;&gt;Node16 -->
<g id="edge19" class="edge"><title>Node1&#45;&gt;Node16</title>
<path fill="none" stroke="midnightblue" d="M1013.88,-448.368C960.581,-428.89 830.847,-381.479 769.58,-359.089"/>
<polygon fill="midnightblue" stroke="midnightblue" points="770.603,-355.737 760.009,-355.591 768.2,-362.311 770.603,-355.737"/>
</g>
<!-- Node27 -->
<g id="node27" class="node"><title>Node27</title>
<g id="a_node27"><a xlink:href="../../df/dd7/torchttprequest_8h.html" target="_top" xlink:title="torchttprequest.h">
<polygon fill="white" stroke="black" points="1021,-112.5 1021,-131.5 1122,-131.5 1122,-112.5 1021,-112.5"/>
<text text-anchor="middle" x="1071.5" y="-119.5" font-family="Helvetica,sans-Serif" font-size="10.00">torchttprequest.h</text>
</a>
</g>
</g>
<!-- Node1&#45;&gt;Node27 -->
<g id="edge57" class="edge"><title>Node1&#45;&gt;Node27</title>
<path fill="none" stroke="midnightblue" d="M1057.34,-448.391C1089.27,-433.043 1148.5,-397.734 1148.5,-347 1148.5,-347 1148.5,-347 1148.5,-233 1148.5,-192.93 1113.79,-157.077 1090.97,-137.844"/>
<polygon fill="midnightblue" stroke="midnightblue" points="1093.17,-135.115 1083.19,-131.532 1088.76,-140.551 1093.17,-135.115"/>
</g>
<!-- Node36 -->
<g id="node36" class="node"><title>Node36</title>
<g id="a_node36"><a xlink:href="../../d4/df9/torclogging_8h.html" target="_top" xlink:title="torclogging.h">
<polygon fill="white" stroke="black" points="1205,-392.5 1205,-411.5 1284,-411.5 1284,-392.5 1205,-392.5"/>
<text text-anchor="middle" x="1244.5" y="-399.5" font-family="Helvetica,sans-Serif" font-size="10.00">torclogging.h</text>
</a>
</g>
</g>
<!-- Node1&#45;&gt;Node36 -->
<g id="edge53" class="edge"><title>Node1&#45;&gt;Node36</title>
<path fill="none" stroke="midnightblue" d="M1070.3,-448.444C1105.88,-439.162 1162.81,-424.309 1201.85,-414.127"/>
<polygon fill="midnightblue" stroke="midnightblue" points="1203.06,-417.427 1211.85,-411.516 1201.29,-410.654 1203.06,-417.427"/>
</g>
<!-- Node3 -->
<g id="node3" class="node"><title>Node3</title>
<polygon fill="white" stroke="#bfbfbf" points="535,-224.5 535,-243.5 590,-243.5 590,-224.5 535,-224.5"/>
<text text-anchor="middle" x="562.5" y="-231.5" font-family="Helvetica,sans-Serif" font-size="10.00">QObject</text>
</g>
<!-- Node2&#45;&gt;Node3 -->
<g id="edge2" class="edge"><title>Node2&#45;&gt;Node3</title>
<path fill="none" stroke="midnightblue" d="M331.275,-392.309C370.969,-365.304 492.435,-282.667 541.557,-249.248"/>
<polygon fill="midnightblue" stroke="midnightblue" points="543.552,-252.124 549.852,-243.605 539.615,-246.336 543.552,-252.124"/>
</g>
<!-- Node4 -->
<g id="node4" class="node"><title>Node4</title>
<polygon fill="white" stroke="#bfbfbf" points="0,-336.5 0,-355.5 51,-355.5 51,-336.5 0,-336.5"/>
<text text-anchor="middle" x="25.5" y="-343.5" font-family="Helvetica,sans-Serif" font-size="10.00">QTimer</text>
</g>
<!-- Node2&#45;&gt;Node4 -->
<g id="edge3" class="edge"><title>Node2&#45;&gt;Node4</title>
<path fill="none" stroke="midnightblue" d="M275.413,-393.947C224.972,-385.55 138.976,-370.792 65.5,-356 64.0608,-355.71 62.5938,-355.409 61.1129,-355.099"/>
<polygon fill="midnightblue" stroke="midnightblue" points="61.797,-351.666 51.2841,-352.982 60.3225,-358.509 61.797,-351.666"/>
</g>
<!-- Node5 -->
<g id="node5" class="node"><title>Node5</title>
<polygon fill="white" stroke="#bfbfbf" points="413,-56.5 413,-75.5 484,-75.5 484,-56.5 413,-56.5"/>
<text text-anchor="middle" x="448.5" y="-63.5" font-family="Helvetica,sans-Serif" font-size="10.00">QDateTime</text>
</g>
<!-- Node2&#45;&gt;Node5 -->
<g id="edge4" class="edge"><title>Node2&#45;&gt;Node5</title>
<path fill="none" stroke="midnightblue" d="M275.496,-399.933C206.686,-395.687 79.5,-376.302 79.5,-291 79.5,-291 79.5,-291 79.5,-177 79.5,-110.257 304.007,-80.7088 402.784,-70.9381"/>
<polygon fill="midnightblue" stroke="midnightblue" points="403.165,-74.4177 412.783,-69.9743 402.494,-67.45 403.165,-74.4177"/>
</g>
<!-- Node6 -->
<g id="node6" class="node"><title>Node6</title>
<g id="a_node6"><a xlink:href="../../db/df1/torcnotifier_8h.html" target="_top" xlink:title="torcnotifier.h">
<polygon fill="white" stroke="black" points="280,-336.5 280,-355.5 357,-355.5 357,-336.5 280,-336.5"/>
<text text-anchor="middle" x="318.5" y="-343.5" font-family="Helvetica,sans-Serif" font-size="10.00">torcnotifier.h</text>
</a>
</g>
</g>
<!-- Node2&#45;&gt;Node6 -->
<g id="edge5" class="edge"><title>Node2&#45;&gt;Node6</title>
<path fill="none" stroke="midnightblue" d="M318.5,-392.083C318.5,-385.006 318.5,-374.861 318.5,-365.986"/>
<polygon fill="midnightblue" stroke="midnightblue" points="322,-365.751 318.5,-355.751 315,-365.751 322,-365.751"/>
</g>
<!-- Node7 -->
<g id="node7" class="node"><title>Node7</title>
<polygon fill="white" stroke="#bfbfbf" points="330.5,-168.5 330.5,-187.5 388.5,-187.5 388.5,-168.5 330.5,-168.5"/>
<text text-anchor="middle" x="359.5" y="-175.5" font-family="Helvetica,sans-Serif" font-size="10.00">QVariant</text>
</g>
<!-- Node6&#45;&gt;Node7 -->
<g id="edge6" class="edge"><title>Node6&#45;&gt;Node7</title>
<path fill="none" stroke="midnightblue" d="M320.704,-336.075C327.158,-309.945 346.111,-233.211 354.912,-197.577"/>
<polygon fill="midnightblue" stroke="midnightblue" points="358.384,-198.116 357.384,-187.568 351.588,-196.437 358.384,-198.116"/>
</g>
<!-- Node8 -->
<g id="node8" class="node"><title>Node8</title>
<g id="a_node8"><a xlink:href="../../d1/df7/torcdevice_8h.html" target="_top" xlink:title="torcdevice.h">
<polygon fill="white" stroke="black" points="239,-280.5 239,-299.5 314,-299.5 314,-280.5 239,-280.5"/>
<text text-anchor="middle" x="276.5" y="-287.5" font-family="Helvetica,sans-Serif" font-size="10.00">torcdevice.h</text>
</a>
</g>
</g>
<!-- Node6&#45;&gt;Node8 -->
<g id="edge7" class="edge"><title>Node6&#45;&gt;Node8</title>
<path fill="none" stroke="midnightblue" d="M311.565,-336.083C305.571,-328.377 296.748,-317.033 289.452,-307.653"/>
<polygon fill="midnightblue" stroke="midnightblue" points="292.209,-305.496 283.306,-299.751 286.683,-309.793 292.209,-305.496"/>
</g>
<!-- Node8&#45;&gt;Node3 -->
<g id="edge11" class="edge"><title>Node8&#45;&gt;Node3</title>
<path fill="none" stroke="midnightblue" d="M314.181,-282.912C361.16,-275.163 444.131,-260.957 524.833,-244.037"/>
<polygon fill="midnightblue" stroke="midnightblue" points="525.6,-247.453 534.66,-241.961 524.153,-240.604 525.6,-247.453"/>
</g>
<!-- Node9 -->
<g id="node9" class="node"><title>Node9</title>
<polygon fill="white" stroke="#bfbfbf" points="165,-168.5 165,-187.5 214,-187.5 214,-168.5 165,-168.5"/>
<text text-anchor="middle" x="189.5" y="-175.5" font-family="Helvetica,sans-Serif" font-size="10.00">QHash</text>
</g>
<!-- Node8&#45;&gt;Node9 -->
<g id="edge8" class="edge"><title>Node8&#45;&gt;Node9</title>
<path fill="none" stroke="midnightblue" d="M255.043,-280.366C239.338,-272.973 218.717,-260.839 206.5,-244 196.761,-230.576 192.596,-212.012 190.818,-198.159"/>
<polygon fill="midnightblue" stroke="midnightblue" points="194.266,-197.461 189.815,-187.846 187.299,-198.138 194.266,-197.461"/>
</g>
<!-- Node10 -->
<g id="node10" class="node"><title>Node10</title>
<polygon fill="white" stroke="#bfbfbf" points="250,-168.5 250,-187.5 303,-187.5 303,-168.5 250,-168.5"/>
<text text-anchor="middle" x="276.5" y="-175.5" font-family="Helvetica,sans-Serif" font-size="10.00">QMutex</text>
</g>
<!-- Node8&#45;&gt;Node10 -->
<g id="edge9" class="edge"><title>Node8&#45;&gt;Node10</title>
<path fill="none" stroke="midnightblue" d="M256.295,-280.406C233.152,-269.206 199.946,-248.174 212.5,-224 219.653,-210.226 233.171,-199.783 245.947,-192.441"/>
<polygon fill="midnightblue" stroke="midnightblue" points="247.817,-195.412 255.017,-187.64 244.542,-189.225 247.817,-195.412"/>
</g>
<!-- Node11 -->
<g id="node11" class="node"><title>Node11</title>
<polygon fill="white" stroke="#bfbfbf" points="870,-56.5 870,-75.5 923,-75.5 923,-56.5 870,-56.5"/>
<text text-anchor="middle" x="896.5" y="-63.5" font-family="Helvetica,sans-Serif" font-size="10.00">QString</text>
</g>
<!-- Node8&#45;&gt;Node11 -->
<g id="edge10" class="edge"><title>Node8&#45;&gt;Node11</title>
<path fill="none" stroke="midnightblue" d="M255.724,-280.444C211.779,-261.192 116.524,-212.649 155.5,-168 202.512,-114.146 717.069,-78.201 859.912,-69.2094"/>
<polygon fill="midnightblue" stroke="midnightblue" points="860.162,-72.7007 869.924,-68.5851 859.726,-65.7143 860.162,-72.7007"/>
</g>
<!-- Node12 -->
<g id="node12" class="node"><title>Node12</title>
<g id="a_node12"><a xlink:href="../../d8/dfe/torcreferencecounted_8h.html" target="_top" xlink:title="torcreferencecounted.h">
<polygon fill="white" stroke="black" points="388,-224.5 388,-243.5 517,-243.5 517,-224.5 388,-224.5"/>
<text text-anchor="middle" x="452.5" y="-231.5" font-family="Helvetica,sans-Serif" font-size="10.00">torcreferencecounted.h</text>
</a>
</g>
</g>
<!-- Node8&#45;&gt;Node12 -->
<g id="edge12" class="edge"><title>Node8&#45;&gt;Node12</title>
<path fill="none" stroke="midnightblue" d="M304.388,-280.444C334.254,-271.28 381.815,-256.688 414.956,-246.519"/>
<polygon fill="midnightblue" stroke="midnightblue" points="416.209,-249.796 424.743,-243.516 414.156,-243.104 416.209,-249.796"/>
</g>
<!-- Node14 -->
<g id="node14" class="node"><title>Node14</title>
<g id="a_node14"><a xlink:href="../../d2/d5b/torcdevicehandler_8h.html" target="_top" xlink:title="torcdevicehandler.h">
<polygon fill="white" stroke="black" points="221.5,-224.5 221.5,-243.5 331.5,-243.5 331.5,-224.5 221.5,-224.5"/>
<text text-anchor="middle" x="276.5" y="-231.5" font-family="Helvetica,sans-Serif" font-size="10.00">torcdevicehandler.h</text>
</a>
</g>
</g>
<!-- Node8&#45;&gt;Node14 -->
<g id="edge14" class="edge"><title>Node8&#45;&gt;Node14</title>
<path fill="none" stroke="midnightblue" d="M276.5,-280.083C276.5,-273.006 276.5,-262.861 276.5,-253.986"/>
<polygon fill="midnightblue" stroke="midnightblue" points="280,-253.751 276.5,-243.751 273,-253.751 280,-253.751"/>
</g>
<!-- Node13 -->
<g id="node13" class="node"><title>Node13</title>
<polygon fill="white" stroke="#bfbfbf" points="475.5,-168.5 475.5,-187.5 545.5,-187.5 545.5,-168.5 475.5,-168.5"/>
<text text-anchor="middle" x="510.5" y="-175.5" font-family="Helvetica,sans-Serif" font-size="10.00">QAtomicInt</text>
</g>
<!-- Node12&#45;&gt;Node13 -->
<g id="edge13" class="edge"><title>Node12&#45;&gt;Node13</title>
<path fill="none" stroke="midnightblue" d="M461.819,-224.324C470.393,-216.341 483.312,-204.313 493.688,-194.653"/>
<polygon fill="midnightblue" stroke="midnightblue" points="496.078,-197.21 501.012,-187.834 491.308,-192.086 496.078,-197.21"/>
</g>
<!-- Node14&#45;&gt;Node7 -->
<g id="edge18" class="edge"><title>Node14&#45;&gt;Node7</title>
<path fill="none" stroke="midnightblue" d="M289.835,-224.324C302.662,-215.979 322.285,-203.212 337.44,-193.352"/>
<polygon fill="midnightblue" stroke="midnightblue" points="339.724,-196.042 346.198,-187.655 335.907,-190.174 339.724,-196.042"/>
</g>
<!-- Node14&#45;&gt;Node9 -->
<g id="edge15" class="edge"><title>Node14&#45;&gt;Node9</title>
<path fill="none" stroke="midnightblue" d="M262.522,-224.324C248.95,-215.9 228.12,-202.971 212.175,-193.074"/>
<polygon fill="midnightblue" stroke="midnightblue" points="213.786,-189.954 203.443,-187.655 210.094,-195.902 213.786,-189.954"/>
</g>
<!-- Node14&#45;&gt;Node10 -->
<g id="edge16" class="edge"><title>Node14&#45;&gt;Node10</title>
<path fill="none" stroke="midnightblue" d="M276.5,-224.083C276.5,-217.006 276.5,-206.861 276.5,-197.986"/>
<polygon fill="midnightblue" stroke="midnightblue" points="280,-197.751 276.5,-187.751 273,-197.751 280,-197.751"/>
</g>
<!-- Node15 -->
<g id="node15" class="node"><title>Node15</title>
<polygon fill="white" stroke="#bfbfbf" points="620.5,-168.5 620.5,-187.5 712.5,-187.5 712.5,-168.5 620.5,-168.5"/>
<text text-anchor="middle" x="666.5" y="-175.5" font-family="Helvetica,sans-Serif" font-size="10.00">QReadWriteLock</text>
</g>
<!-- Node14&#45;&gt;Node15 -->
<g id="edge17" class="edge"><title>Node14&#45;&gt;Node15</title>
<path fill="none" stroke="midnightblue" d="M331.55,-225.378C405.348,-215.16 535.665,-197.116 610.13,-186.805"/>
<polygon fill="midnightblue" stroke="midnightblue" points="610.829,-190.242 620.254,-185.403 609.869,-183.308 610.829,-190.242"/>
</g>
<!-- Node16&#45;&gt;Node3 -->
<g id="edge20" class="edge"><title>Node16&#45;&gt;Node3</title>
<path fill="none" stroke="midnightblue" d="M695.267,-341.014C645.556,-335.257 566.428,-322.726 548.5,-300 537.811,-286.451 544.381,-266.559 551.697,-252.354"/>
<polygon fill="midnightblue" stroke="midnightblue" points="554.787,-254 556.679,-243.575 548.699,-250.545 554.787,-254"/>
</g>
<!-- Node16&#45;&gt;Node13 -->
<g id="edge22" class="edge"><title>Node16&#45;&gt;Node13</title>
<path fill="none" stroke="midnightblue" d="M733.907,-336.198C726.332,-311.041 703.624,-239.635 685.5,-224 649.458,-192.908 594.662,-182.865 556.006,-179.841"/>
<polygon fill="midnightblue" stroke="midnightblue" points="555.765,-176.318 545.56,-179.162 555.312,-183.303 555.765,-176.318"/>
</g>
<!-- Node17 -->
<g id="node17" class="node"><title>Node17</title>
<polygon fill="white" stroke="#bfbfbf" points="734,-280.5 734,-299.5 801,-299.5 801,-280.5 734,-280.5"/>
<text text-anchor="middle" x="767.5" y="-287.5" font-family="Helvetica,sans-Serif" font-size="10.00">QtNetwork</text>
</g>
<!-- Node16&#45;&gt;Node17 -->
<g id="edge21" class="edge"><title>Node16&#45;&gt;Node17</title>
<path fill="none" stroke="midnightblue" d="M741.619,-336.083C745.908,-328.613 752.158,-317.724 757.442,-308.52"/>
<polygon fill="midnightblue" stroke="midnightblue" points="760.533,-310.166 762.476,-299.751 754.462,-306.681 760.533,-310.166"/>
</g>
<!-- Node18 -->
<g id="node18" class="node"><title>Node18</title>
<g id="a_node18"><a xlink:href="../../db/df5/torcsetting_8h.html" target="_top" xlink:title="torcsetting.h">
<polygon fill="white" stroke="black" points="819,-280.5 819,-299.5 896,-299.5 896,-280.5 819,-280.5"/>
<text text-anchor="middle" x="857.5" y="-287.5" font-family="Helvetica,sans-Serif" font-size="10.00">torcsetting.h</text>
</a>
</g>
</g>
<!-- Node16&#45;&gt;Node18 -->
<g id="edge23" class="edge"><title>Node16&#45;&gt;Node18</title>
<path fill="none" stroke="midnightblue" d="M755.673,-336.444C775.409,-327.636 806.385,-313.812 828.993,-303.722"/>
<polygon fill="midnightblue" stroke="midnightblue" points="830.711,-306.788 838.417,-299.516 827.859,-300.396 830.711,-306.788"/>
</g>
<!-- Node32 -->
<g id="node32" class="node"><title>Node32</title>
<g id="a_node32"><a xlink:href="../../d3/dd0/torctimer_8h.html" target="_top" xlink:title="torctimer.h">
<polygon fill="white" stroke="black" points="982,-280.5 982,-299.5 1051,-299.5 1051,-280.5 982,-280.5"/>
<text text-anchor="middle" x="1016.5" y="-287.5" font-family="Helvetica,sans-Serif" font-size="10.00">torctimer.h</text>
</a>
</g>
</g>
<!-- Node16&#45;&gt;Node32 -->
<g id="edge48" class="edge"><title>Node16&#45;&gt;Node32</title>
<path fill="none" stroke="midnightblue" d="M777.514,-337.09C829.458,-327.072 918.623,-309.876 972.118,-299.559"/>
<polygon fill="midnightblue" stroke="midnightblue" points="972.841,-302.984 981.998,-297.654 971.516,-296.111 972.841,-302.984"/>
</g>
<!-- Node34 -->
<g id="node34" class="node"><title>Node34</title>
<g id="a_node34"><a xlink:href="../../db/d18/torcnetworkrequest_8h.html" target="_top" xlink:title="torcnetworkrequest.h">
<polygon fill="white" stroke="black" points="558,-280.5 558,-299.5 677,-299.5 677,-280.5 558,-280.5"/>
<text text-anchor="middle" x="617.5" y="-287.5" font-family="Helvetica,sans-Serif" font-size="10.00">torcnetworkrequest.h</text>
</a>
</g>
</g>
<!-- Node16&#45;&gt;Node34 -->
<g id="edge50" class="edge"><title>Node16&#45;&gt;Node34</title>
<path fill="none" stroke="midnightblue" d="M712.555,-336.444C691.405,-327.715 661.052,-314.059 640.268,-303.994"/>
<polygon fill="midnightblue" stroke="midnightblue" points="641.704,-300.8 631.188,-299.516 638.608,-307.078 641.704,-300.8"/>
</g>
<!-- Node18&#45;&gt;Node3 -->
<g id="edge26" class="edge"><title>Node18&#45;&gt;Node3</title>
<path fill="none" stroke="midnightblue" d="M818.998,-281.724C815.786,-281.134 812.588,-280.553 809.5,-280 718.965,-263.79 693.289,-263.548 600.195,-244.245"/>
<polygon fill="midnightblue" stroke="midnightblue" points="600.865,-240.809 590.36,-242.187 599.431,-247.661 600.865,-240.809"/>
</g>
<!-- Node18&#45;&gt;Node7 -->
<g id="edge27" class="edge"><title>Node18&#45;&gt;Node7</title>
<path fill="none" stroke="midnightblue" d="M838.859,-280.363C807.765,-266.323 743.041,-238.646 685.5,-224 632.001,-210.383 473.509,-191.682 399.02,-183.332"/>
<polygon fill="midnightblue" stroke="midnightblue" points="398.988,-179.806 388.662,-182.177 398.212,-186.763 398.988,-179.806"/>
</g>
<!-- Node18&#45;&gt;Node12 -->
<g id="edge47" class="edge"><title>Node18&#45;&gt;Node12</title>
<path fill="none" stroke="midnightblue" d="M818.762,-281.53C815.632,-280.99 812.516,-280.472 809.5,-280 795.739,-277.845 627.834,-256.846 527.272,-244.309"/>
<polygon fill="midnightblue" stroke="midnightblue" points="527.514,-240.812 517.158,-243.048 526.649,-247.758 527.514,-240.812"/>
</g>
<!-- Node18&#45;&gt;Node15 -->
<g id="edge25" class="edge"><title>Node18&#45;&gt;Node15</title>
<path fill="none" stroke="midnightblue" d="M872.679,-280.465C893.085,-267.924 925.004,-243.855 908.5,-224 902.536,-216.825 792.062,-198.494 722.462,-187.569"/>
<polygon fill="midnightblue" stroke="midnightblue" points="722.927,-184.099 712.507,-186.013 721.846,-191.015 722.927,-184.099"/>
</g>
<!-- Node19 -->
<g id="node19" class="node"><title>Node19</title>
<polygon fill="white" stroke="#bfbfbf" points="772,-224.5 772,-243.5 813,-243.5 813,-224.5 772,-224.5"/>
<text text-anchor="middle" x="792.5" y="-231.5" font-family="Helvetica,sans-Serif" font-size="10.00">QSet</text>
</g>
<!-- Node18&#45;&gt;Node19 -->
<g id="edge24" class="edge"><title>Node18&#45;&gt;Node19</title>
<path fill="none" stroke="midnightblue" d="M847.057,-280.324C837.354,-272.263 822.685,-260.077 811,-250.369"/>
<polygon fill="midnightblue" stroke="midnightblue" points="813.062,-247.532 803.133,-243.834 808.589,-252.916 813.062,-247.532"/>
</g>
<!-- Node20 -->
<g id="node20" class="node"><title>Node20</title>
<polygon fill="white" stroke="#bfbfbf" points="831,-224.5 831,-243.5 900,-243.5 900,-224.5 831,-224.5"/>
<text text-anchor="middle" x="865.5" y="-231.5" font-family="Helvetica,sans-Serif" font-size="10.00">QStringList</text>
</g>
<!-- Node18&#45;&gt;Node20 -->
<g id="edge28" class="edge"><title>Node18&#45;&gt;Node20</title>
<path fill="none" stroke="midnightblue" d="M858.821,-280.083C859.881,-272.927 861.406,-262.635 862.731,-253.691"/>
<polygon fill="midnightblue" stroke="midnightblue" points="866.2,-254.156 864.204,-243.751 859.276,-253.13 866.2,-254.156"/>
</g>
<!-- Node21 -->
<g id="node21" class="node"><title>Node21</title>
<g id="a_node21"><a xlink:href="../../d3/dee/torchttpservice_8h.html" target="_top" xlink:title="torchttpservice.h">
<polygon fill="white" stroke="black" points="956.5,-224.5 956.5,-243.5 1054.5,-243.5 1054.5,-224.5 956.5,-224.5"/>
<text text-anchor="middle" x="1005.5" y="-231.5" font-family="Helvetica,sans-Serif" font-size="10.00">torchttpservice.h</text>
</a>
</g>
</g>
<!-- Node18&#45;&gt;Node21 -->
<g id="edge29" class="edge"><title>Node18&#45;&gt;Node21</title>
<path fill="none" stroke="midnightblue" d="M880.951,-280.444C905.633,-271.438 944.685,-257.189 972.477,-247.049"/>
<polygon fill="midnightblue" stroke="midnightblue" points="973.964,-250.232 982.159,-243.516 971.565,-243.656 973.964,-250.232"/>
</g>
<!-- Node21&#45;&gt;Node10 -->
<g id="edge31" class="edge"><title>Node21&#45;&gt;Node10</title>
<path fill="none" stroke="midnightblue" d="M956.179,-228.123C940.904,-226.694 924.014,-225.195 908.5,-224 647.893,-203.924 580.696,-221.708 321.5,-188 318.779,-187.646 315.976,-187.225 313.162,-186.76"/>
<polygon fill="midnightblue" stroke="midnightblue" points="313.514,-183.267 303.051,-184.933 312.269,-190.156 313.514,-183.267"/>
</g>
<!-- Node21&#45;&gt;Node15 -->
<g id="edge32" class="edge"><title>Node21&#45;&gt;Node15</title>
<path fill="none" stroke="midnightblue" d="M956.206,-225.148C894.152,-215.263 787.813,-198.324 722.676,-187.948"/>
<polygon fill="midnightblue" stroke="midnightblue" points="723.015,-184.458 712.588,-186.342 721.913,-191.371 723.015,-184.458"/>
</g>
<!-- Node22 -->
<g id="node22" class="node"><title>Node22</title>
<polygon fill="white" stroke="#bfbfbf" points="951.5,-56.5 951.5,-75.5 995.5,-75.5 995.5,-56.5 951.5,-56.5"/>
<text text-anchor="middle" x="973.5" y="-63.5" font-family="Helvetica,sans-Serif" font-size="10.00">QMap</text>
</g>
<!-- Node21&#45;&gt;Node22 -->
<g id="edge30" class="edge"><title>Node21&#45;&gt;Node22</title>
<path fill="none" stroke="midnightblue" d="M956.354,-227.39C888.223,-219.113 771.993,-202.986 759.5,-188 753.808,-181.172 754.741,-175.508 759.5,-168 780.308,-135.17 887.273,-95.6919 941.661,-77.3301"/>
<polygon fill="midnightblue" stroke="midnightblue" points="942.796,-80.6412 951.172,-74.1536 940.578,-74.0017 942.796,-80.6412"/>
</g>
<!-- Node23 -->
<g id="node23" class="node"><title>Node23</title>
<polygon fill="white" stroke="#bfbfbf" points="769,-168.5 769,-187.5 848,-187.5 848,-168.5 769,-168.5"/>
<text text-anchor="middle" x="808.5" y="-175.5" font-family="Helvetica,sans-Serif" font-size="10.00">QMetaObject</text>
</g>
<!-- Node21&#45;&gt;Node23 -->
<g id="edge33" class="edge"><title>Node21&#45;&gt;Node23</title>
<path fill="none" stroke="midnightblue" d="M974.285,-224.444C940.567,-215.201 886.7,-200.436 849.568,-190.257"/>
<polygon fill="midnightblue" stroke="midnightblue" points="850.139,-186.785 839.569,-187.516 848.288,-193.536 850.139,-186.785"/>
</g>
<!-- Node24 -->
<g id="node24" class="node"><title>Node24</title>
<polygon fill="white" stroke="#bfbfbf" points="866,-168.5 866,-187.5 965,-187.5 965,-168.5 866,-168.5"/>
<text text-anchor="middle" x="915.5" y="-175.5" font-family="Helvetica,sans-Serif" font-size="10.00">QCoreApplication</text>
</g>
<!-- Node21&#45;&gt;Node24 -->
<g id="edge34" class="edge"><title>Node21&#45;&gt;Node24</title>
<path fill="none" stroke="midnightblue" d="M991.04,-224.324C977,-215.9 955.452,-202.971 938.957,-193.074"/>
<polygon fill="midnightblue" stroke="midnightblue" points="940.3,-189.798 929.924,-187.655 936.698,-195.801 940.3,-189.798"/>
</g>
<!-- Node25 -->
<g id="node25" class="node"><title>Node25</title>
<g id="a_node25"><a xlink:href="../../d4/d11/torchttphandler_8h.html" target="_top" xlink:title="torchttphandler.h">
<polygon fill="white" stroke="black" points="983,-168.5 983,-187.5 1082,-187.5 1082,-168.5 983,-168.5"/>
<text text-anchor="middle" x="1032.5" y="-175.5" font-family="Helvetica,sans-Serif" font-size="10.00">torchttphandler.h</text>
</a>
</g>
</g>
<!-- Node21&#45;&gt;Node25 -->
<g id="edge35" class="edge"><title>Node21&#45;&gt;Node25</title>
<path fill="none" stroke="midnightblue" d="M1009.96,-224.083C1013.65,-216.691 1019.02,-205.953 1023.59,-196.811"/>
<polygon fill="midnightblue" stroke="midnightblue" points="1026.78,-198.261 1028.12,-187.751 1020.52,-195.13 1026.78,-198.261"/>
</g>
<!-- Node21&#45;&gt;Node27 -->
<g id="edge46" class="edge"><title>Node21&#45;&gt;Node27</title>
<path fill="none" stroke="midnightblue" d="M1039.3,-224.388C1057.89,-217.735 1079.39,-206.453 1090.5,-188 1099.47,-173.106 1091.74,-153.73 1083.6,-140.02"/>
<polygon fill="midnightblue" stroke="midnightblue" points="1086.49,-138.041 1078.11,-131.559 1080.62,-141.852 1086.49,-138.041"/>
</g>
<!-- Node25&#45;&gt;Node11 -->
<g id="edge36" class="edge"><title>Node25&#45;&gt;Node11</title>
<path fill="none" stroke="midnightblue" d="M982.91,-168.502C959.554,-162.118 933.039,-151.055 915.5,-132 903.94,-119.441 899.381,-100.22 897.6,-85.9337"/>
<polygon fill="midnightblue" stroke="midnightblue" points="901.066,-85.4027 896.687,-75.7556 894.094,-86.0284 901.066,-85.4027"/>
</g>
<!-- Node26 -->
<g id="node26" class="node"><title>Node26</title>
<polygon fill="white" stroke="#bfbfbf" points="924.5,-112.5 924.5,-131.5 1002.5,-131.5 1002.5,-112.5 924.5,-112.5"/>
<text text-anchor="middle" x="963.5" y="-119.5" font-family="Helvetica,sans-Serif" font-size="10.00">QVariantMap</text>
</g>
<!-- Node25&#45;&gt;Node26 -->
<g id="edge37" class="edge"><title>Node25&#45;&gt;Node26</title>
<path fill="none" stroke="midnightblue" d="M1021.41,-168.324C1011.01,-160.185 995.239,-147.839 982.778,-138.087"/>
<polygon fill="midnightblue" stroke="midnightblue" points="984.82,-135.241 974.788,-131.834 980.506,-140.753 984.82,-135.241"/>
</g>
<!-- Node25&#45;&gt;Node27 -->
<g id="edge38" class="edge"><title>Node25&#45;&gt;Node27</title>
<path fill="none" stroke="midnightblue" d="M1038.94,-168.083C1044.45,-160.455 1052.53,-149.264 1059.26,-139.941"/>
<polygon fill="midnightblue" stroke="midnightblue" points="1062.16,-141.907 1065.18,-131.751 1056.49,-137.809 1062.16,-141.907"/>
</g>
<!-- Node27&#45;&gt;Node5 -->
<g id="edge42" class="edge"><title>Node27&#45;&gt;Node5</title>
<path fill="none" stroke="midnightblue" d="M1020.79,-113.142C1017.65,-112.733 1014.53,-112.348 1011.5,-112 819.955,-90.0057 590.513,-75.2505 494.392,-69.5895"/>
<polygon fill="midnightblue" stroke="midnightblue" points="494.34,-66.0806 484.153,-68.9913 493.932,-73.0687 494.34,-66.0806"/>
</g>
<!-- Node27&#45;&gt;Node11 -->
<g id="edge41" class="edge"><title>Node27&#45;&gt;Node11</title>
<path fill="none" stroke="midnightblue" d="M1043.77,-112.444C1013.81,-103.199 965.948,-88.4296 932.962,-78.2511"/>
<polygon fill="midnightblue" stroke="midnightblue" points="933.826,-74.855 923.239,-75.2508 931.762,-81.5438 933.826,-74.855"/>
</g>
<!-- Node27&#45;&gt;Node22 -->
<g id="edge39" class="edge"><title>Node27&#45;&gt;Node22</title>
<path fill="none" stroke="midnightblue" d="M1055.75,-112.324C1040.18,-103.743 1016.12,-90.486 998.041,-80.5224"/>
<polygon fill="midnightblue" stroke="midnightblue" points="999.654,-77.4152 989.206,-75.6545 996.276,-83.546 999.654,-77.4152"/>
</g>
<!-- Node28 -->
<g id="node28" class="node"><title>Node28</title>
<polygon fill="white" stroke="#bfbfbf" points="1132,-56.5 1132,-75.5 1173,-75.5 1173,-56.5 1132,-56.5"/>
<text text-anchor="middle" x="1152.5" y="-63.5" font-family="Helvetica,sans-Serif" font-size="10.00">QPair</text>
</g>
<!-- Node27&#45;&gt;Node28 -->
<g id="edge40" class="edge"><title>Node27&#45;&gt;Node28</title>
<path fill="none" stroke="midnightblue" d="M1084.51,-112.324C1097.03,-103.979 1116.18,-91.2122 1130.97,-81.3524"/>
<polygon fill="midnightblue" stroke="midnightblue" points="1133.14,-84.1137 1139.52,-75.6545 1129.26,-78.2894 1133.14,-84.1137"/>
</g>
<!-- Node29 -->
<g id="node29" class="node"><title>Node29</title>
<g id="a_node29"><a xlink:href="../../de/de6/torchttpreader_8h.html" target="_top" xlink:title="torchttpreader.h">
<polygon fill="white" stroke="black" points="1019,-56.5 1019,-75.5 1114,-75.5 1114,-56.5 1019,-56.5"/>
<text text-anchor="middle" x="1066.5" y="-63.5" font-family="Helvetica,sans-Serif" font-size="10.00">torchttpreader.h</text>
</a>
</g>
</g>
<!-- Node27&#45;&gt;Node29 -->
<g id="edge43" class="edge"><title>Node27&#45;&gt;Node29</title>
<path fill="none" stroke="midnightblue" d="M1070.67,-112.083C1070.02,-105.006 1069.08,-94.8611 1068.26,-85.9865"/>
<polygon fill="midnightblue" stroke="midnightblue" points="1071.72,-85.3858 1067.31,-75.7511 1064.75,-86.0312 1071.72,-85.3858"/>
</g>
<!-- Node30 -->
<g id="node30" class="node"><title>Node30</title>
<polygon fill="white" stroke="#bfbfbf" points="986,-0.5 986,-19.5 1057,-19.5 1057,-0.5 986,-0.5"/>
<text text-anchor="middle" x="1021.5" y="-7.5" font-family="Helvetica,sans-Serif" font-size="10.00">QByteArray</text>
</g>
<!-- Node29&#45;&gt;Node30 -->
<g id="edge44" class="edge"><title>Node29&#45;&gt;Node30</title>
<path fill="none" stroke="midnightblue" d="M1059.07,-56.083C1052.65,-48.3768 1043.19,-37.0333 1035.38,-27.6531"/>
<polygon fill="midnightblue" stroke="midnightblue" points="1037.88,-25.1927 1028.79,-19.7511 1032.51,-29.674 1037.88,-25.1927"/>
</g>
<!-- Node31 -->
<g id="node31" class="node"><title>Node31</title>
<polygon fill="white" stroke="#bfbfbf" points="1075.5,-0.5 1075.5,-19.5 1147.5,-19.5 1147.5,-0.5 1075.5,-0.5"/>
<text text-anchor="middle" x="1111.5" y="-7.5" font-family="Helvetica,sans-Serif" font-size="10.00">QTcpSocket</text>
</g>
<!-- Node29&#45;&gt;Node31 -->
<g id="edge45" class="edge"><title>Node29&#45;&gt;Node31</title>
<path fill="none" stroke="midnightblue" d="M1073.93,-56.083C1080.35,-48.3768 1089.81,-37.0333 1097.62,-27.6531"/>
<polygon fill="midnightblue" stroke="midnightblue" points="1100.49,-29.674 1104.21,-19.7511 1095.12,-25.1927 1100.49,-29.674"/>
</g>
<!-- Node33 -->
<g id="node33" class="node"><title>Node33</title>
<polygon fill="white" stroke="#bfbfbf" points="1073,-224.5 1073,-243.5 1120,-243.5 1120,-224.5 1073,-224.5"/>
<text text-anchor="middle" x="1096.5" y="-231.5" font-family="Helvetica,sans-Serif" font-size="10.00">QTime</text>
</g>
<!-- Node32&#45;&gt;Node33 -->
<g id="edge49" class="edge"><title>Node32&#45;&gt;Node33</title>
<path fill="none" stroke="midnightblue" d="M1029.35,-280.324C1041.72,-271.979 1060.63,-259.212 1075.24,-249.352"/>
<polygon fill="midnightblue" stroke="midnightblue" points="1077.35,-252.15 1083.68,-243.655 1073.43,-246.348 1077.35,-252.15"/>
</g>
<!-- Node34&#45;&gt;Node16 -->
<g id="edge52" class="edge"><title>Node34&#45;&gt;Node16</title>
<path fill="none" stroke="midnightblue" d="M641.682,-299.655C662.721,-308.346 692.738,-321.849 713.436,-331.862"/>
<polygon fill="midnightblue" stroke="midnightblue" points="711.978,-335.046 722.495,-336.324 715.071,-328.766 711.978,-335.046"/>
</g>
<!-- Node35 -->
<g id="node35" class="node"><title>Node35</title>
<polygon fill="white" stroke="#bfbfbf" points="608,-224.5 608,-243.5 677,-243.5 677,-224.5 608,-224.5"/>
<text text-anchor="middle" x="642.5" y="-231.5" font-family="Helvetica,sans-Serif" font-size="10.00">QMetaType</text>
</g>
<!-- Node34&#45;&gt;Node35 -->
<g id="edge51" class="edge"><title>Node34&#45;&gt;Node35</title>
<path fill="none" stroke="midnightblue" d="M621.628,-280.083C625.014,-272.77 629.916,-262.181 634.119,-253.103"/>
<polygon fill="midnightblue" stroke="midnightblue" points="637.423,-254.296 638.449,-243.751 631.071,-251.355 637.423,-254.296"/>
</g>
<!-- Node37 -->
<g id="node37" class="node"><title>Node37</title>
<polygon fill="white" stroke="#bfbfbf" points="1177,-336.5 1177,-355.5 1230,-355.5 1230,-336.5 1177,-336.5"/>
<text text-anchor="middle" x="1203.5" y="-343.5" font-family="Helvetica,sans-Serif" font-size="10.00">stdint.h</text>
</g>
<!-- Node36&#45;&gt;Node37 -->
<g id="edge54" class="edge"><title>Node36&#45;&gt;Node37</title>
<path fill="none" stroke="midnightblue" d="M1237.73,-392.083C1231.94,-384.455 1223.44,-373.264 1216.36,-363.941"/>
<polygon fill="midnightblue" stroke="midnightblue" points="1218.98,-361.599 1210.14,-355.751 1213.4,-365.832 1218.98,-361.599"/>
</g>
<!-- Node38 -->
<g id="node38" class="node"><title>Node38</title>
<polygon fill="white" stroke="#bfbfbf" points="1248,-336.5 1248,-355.5 1299,-355.5 1299,-336.5 1248,-336.5"/>
<text text-anchor="middle" x="1273.5" y="-343.5" font-family="Helvetica,sans-Serif" font-size="10.00">errno.h</text>
</g>
<!-- Node36&#45;&gt;Node38 -->
<g id="edge55" class="edge"><title>Node36&#45;&gt;Node38</title>
<path fill="none" stroke="midnightblue" d="M1249.29,-392.083C1253.26,-384.691 1259.03,-373.953 1263.93,-364.811"/>
<polygon fill="midnightblue" stroke="midnightblue" points="1267.15,-366.217 1268.8,-355.751 1260.99,-362.905 1267.15,-366.217"/>
</g>
<!-- Node39 -->
<g id="node39" class="node"><title>Node39</title>
<g id="a_node39"><a xlink:href="../../d1/d37/torcloggingdefs_8h.html" target="_top" xlink:title="torcloggingdefs.h">
<polygon fill="white" stroke="black" points="1317,-336.5 1317,-355.5 1416,-355.5 1416,-336.5 1317,-336.5"/>
<text text-anchor="middle" x="1366.5" y="-343.5" font-family="Helvetica,sans-Serif" font-size="10.00">torcloggingdefs.h</text>
</a>
</g>
</g>
<!-- Node36&#45;&gt;Node39 -->
<g id="edge56" class="edge"><title>Node36&#45;&gt;Node39</title>
<path fill="none" stroke="midnightblue" d="M1263.83,-392.444C1283.82,-383.596 1315.24,-369.687 1338.06,-359.586"/>
<polygon fill="midnightblue" stroke="midnightblue" points="1339.53,-362.764 1347.26,-355.516 1336.7,-356.363 1339.53,-362.764"/>
</g>
</g>
</svg>
        <g id="navigator" transform="translate(0 0)" fill="#404254">
                <rect fill="#f2f5e9" fill-opacity="0.5" stroke="#606060" stroke-width=".5" x="0" y="0" width="60" height="60"/>
                <use id="zoomplus" xlink:href="#zoomPlus" x="17" y="9" onmousedown="handleZoom(evt,'in')"/>
                <use id="zoomminus" xlink:href="#zoomMin" x="42" y="9" onmousedown="handleZoom(evt,'out')"/>
                <use id="reset" xlink:href="#resetDef" x="30" y="36" onmousedown="handleReset()"/>
                <g id="arrowUp" xlink:href="#dirArrow" transform="translate(30 24)" onmousedown="handlePan(0,-1)">
                  <use xlink:href="#rim" fill="#404040">
                        <set attributeName="fill" to="#808080" begin="arrowUp.mouseover" end="arrowUp.mouseout"/>
                  </use>
                  <path fill="none" stroke="white" stroke-width="1.5" d="M0,-3.0v7 M-2.5,-0.5L0,-3.0L2.5,-0.5"/>
                </g>
                <g id="arrowRight" xlink:href="#dirArrow" transform="rotate(90) translate(36 -43)" onmousedown="handlePan(1,0)">
                  <use xlink:href="#rim" fill="#404040">
                        <set attributeName="fill" to="#808080" begin="arrowRight.mouseover" end="arrowRight.mouseout"/>
                  </use>
                  <path fill="none" stroke="white" stroke-width="1.5" d="M0,-3.0v7 M-2.5,-0.5L0,-3.0L2.5,-0.5"/>
                </g>
                <g id="arrowDown" xlink:href="#dirArrow" transform="rotate(180) translate(-30 -48)" onmousedown="handlePan(0,1)">
                  <use xlink:href="#rim" fill="#404040">
                        <set attributeName="fill" to="#808080" begin="arrowDown.mouseover" end="arrowDown.mouseout"/>
                  </use>
                  <path fill="none" stroke="white" stroke-width="1.5" d="M0,-3.0v7 M-2.5,-0.5L0,-3.0L2.5,-0.5"/>
                </g>
                <g id="arrowLeft" xlink:href="#dirArrow" transform="rotate(270) translate(-36 17)" onmousedown="handlePan(-1,0)">
                  <use xlink:href="#rim" fill="#404040">
                        <set attributeName="fill" to="#808080" begin="arrowLeft.mouseover" end="arrowLeft.mouseout"/>
                  </use>
                  <path fill="none" stroke="white" stroke-width="1.5" d="M0,-3.0v7 M-2.5,-0.5L0,-3.0L2.5,-0.5"/>
                </g>
        </g>
        <svg viewBox="0 0 15 15" width="100%" height="30px" preserveAspectRatio="xMaxYMin meet">
         <g id="arrow_out" transform="scale(0.3 0.3)">
          <a xlink:href="torciotlogger_8cpp__incl_org.svg" target="_base">
           <rect id="button" ry="5" rx="5" y="6" x="6" height="38" width="38"
                fill="#f2f5e9" fill-opacity="0.5" stroke="#606060" stroke-width="1.0"/>
           <path id="arrow"
             d="M 11.500037,31.436501 C 11.940474,20.09759 22.043105,11.32322 32.158766,21.979434 L 37.068811,17.246167 C 37.068811,17.246167 37.088388,32 37.088388,32 L 22.160133,31.978069 C 22.160133,31.978069 26.997745,27.140456 26.997745,27.140456 C 18.528582,18.264221 13.291696,25.230495 11.500037,31.436501 z"
             style="fill:#404040;"/>
          </a>
         </g>
        </svg>
</svg>
