<?xml version="1.0" encoding="UTF-8" standalone="no"?>
<!DOCTYPE svg PUBLIC "-//W3C//DTD SVG 1.1//EN"
 "http://www.w3.org/Graphics/SVG/1.1/DTD/svg11.dtd">
<!-- Generated by graphviz version 2.38.0 (20140413.2041)
 -->
<!-- Title: torciotlogger.cpp Pages: 1 -->
<!--zoomable 476 -->
<svg id="main" version="1.1" xmlns="http://www.w3.org/2000/svg" xmlns:xlink="http://www.w3.org/1999/xlink" xml:space="preserve" onload="init(evt)">
<style type="text/css"><![CDATA[
.edge:hover path { stroke: red; }
.edge:hover polygon { stroke: red; fill: red; }
]]></style>
<script type="text/javascript"><![CDATA[
var edges = document.getElementsByTagName('g');
if (edges && edges.length) {
  for (var i=0;i<edges.length;i++) {
    if (edges[i].id.substr(0,4)=='edge') {
      edges[i].setAttribute('class','edge');
    }
  }
}
]]></script>
        <defs>
                <circle id="rim" cx="0" cy="0" r="7"/>
                <circle id="rim2" cx="0" cy="0" r="3.5"/>
                <g id="zoomPlus">
                        <use xlink:href="#rim" fill="#404040">
                                <set attributeName="fill" to="#808080" begin="zoomplus.mouseover" end="zoomplus.mouseout"/>
                        </use>
                        <path d="M-4,0h8M0,-4v8" fill="none" stroke="white" stroke-width="1.5" pointer-events="none"/>
                </g>
                <g id="zoomMin">
                        <use xlink:href="#rim" fill="#404040">
                                <set attributeName="fill" to="#808080" begin="zoomminus.mouseover" end="zoomminus.mouseout"/>
                        </use>
                        <path d="M-4,0h8" fill="none" stroke="white" stroke-width="1.5" pointer-events="none"/>
                </g>
                <g id="dirArrow">
                        <path fill="none" stroke="white" stroke-width="1.5" d="M0,-3.0v7 M-2.5,-0.5L0,-3.0L2.5,-0.5"/>
                </g>
               <g id="resetDef">
                       <use xlink:href="#rim2" fill="#404040">
                               <set attributeName="fill" to="#808080" begin="reset.mouseover" end="reset.mouseout"/>
                       </use>
               </g>
        </defs>

<script type="text/javascript">
var viewWidth = 1496;
var viewHeight = 476;
var sectionId = 'dynsection-0';
</script>
<script xlink:href="../../svgpan.js"/>
<svg id="graph" class="graph">
<g id="viewport">
<title>torciotlogger.cpp</title>
<polygon fill="white" stroke="none" points="-4,4 -4,-472 1492,-472 1492,4 -4,4"/>
<!-- Node1 -->
<g id="node1" class="node"><title>Node1</title>
<polygon fill="#bfbfbf" stroke="black" points="1052,-448.5 1052,-467.5 1149,-467.5 1149,-448.5 1052,-448.5"/>
<text text-anchor="middle" x="1100.5" y="-455.5" font-family="Helvetica,sans-Serif" font-size="10.00">torciotlogger.cpp</text>
</g>
<!-- Node2 -->
<g id="node2" class="node"><title>Node2</title>
<g id="a_node2"><a xlink:href="../../de/dd7/torciotlogger_8h.html" target="_top" xlink:title="torciotlogger.h">
<polygon fill="white" stroke="black" points="192.5,-392.5 192.5,-411.5 278.5,-411.5 278.5,-392.5 192.5,-392.5"/>
<text text-anchor="middle" x="235.5" y="-399.5" font-family="Helvetica,sans-Serif" font-size="10.00">torciotlogger.h</text>
</a>
</g>
</g>
<!-- Node1&#45;&gt;Node2 -->
<g id="edge1" class="edge"><title>Node1&#45;&gt;Node2</title>
<path fill="none" stroke="midnightblue" d="M1051.83,-453.962C901.502,-444.577 445.307,-416.098 288.839,-406.33"/>
<polygon fill="midnightblue" stroke="midnightblue" points="288.734,-402.817 278.536,-405.687 288.298,-409.803 288.734,-402.817"/>
</g>
<!-- Node15 -->
<g id="node15" class="node"><title>Node15</title>
<g id="a_node15"><a xlink:href="../../da/da5/torcnetwork_8h.html" target="_top" xlink:title="torcnetwork.h">
<polygon fill="white" stroke="black" points="733.5,-336.5 733.5,-355.5 815.5,-355.5 815.5,-336.5 733.5,-336.5"/>
<text text-anchor="middle" x="774.5" y="-343.5" font-family="Helvetica,sans-Serif" font-size="10.00">torcnetwork.h</text>
</a>
</g>
</g>
<!-- Node1&#45;&gt;Node15 -->
<g id="edge18" class="edge"><title>Node1&#45;&gt;Node15</title>
<path fill="none" stroke="midnightblue" d="M1075.19,-448.46C1017.42,-428.966 875.735,-381.159 809.586,-358.839"/>
<polygon fill="midnightblue" stroke="midnightblue" points="810.612,-355.491 800.018,-355.61 808.374,-362.124 810.612,-355.491"/>
</g>
<!-- Node27 -->
<g id="node27" class="node"><title>Node27</title>
<g id="a_node27"><a xlink:href="../../df/dd7/torchttprequest_8h.html" target="_top" xlink:title="torchttprequest.h">
<polygon fill="white" stroke="black" points="1030,-112.5 1030,-131.5 1131,-131.5 1131,-112.5 1030,-112.5"/>
<text text-anchor="middle" x="1080.5" y="-119.5" font-family="Helvetica,sans-Serif" font-size="10.00">torchttprequest.h</text>
</a>
</g>
</g>
<!-- Node1&#45;&gt;Node27 -->
<g id="edge55" class="edge"><title>Node1&#45;&gt;Node27</title>
<path fill="none" stroke="midnightblue" d="M1122.79,-448.496C1157.49,-433.632 1220.5,-399.426 1220.5,-347 1220.5,-347 1220.5,-347 1220.5,-233 1220.5,-202.205 1218.1,-189.953 1196.5,-168 1180.48,-151.716 1157.9,-141.206 1136.91,-134.479"/>
<polygon fill="midnightblue" stroke="midnightblue" points="1137.68,-131.055 1127.1,-131.56 1135.68,-137.765 1137.68,-131.055"/>
</g>
<!-- Node36 -->
<g id="node36" class="node"><title>Node36</title>
<g id="a_node36"><a xlink:href="../../d4/df9/torclogging_8h.html" target="_top" xlink:title="torclogging.h">
<polygon fill="white" stroke="black" points="1277,-392.5 1277,-411.5 1356,-411.5 1356,-392.5 1277,-392.5"/>
<text text-anchor="middle" x="1316.5" y="-399.5" font-family="Helvetica,sans-Serif" font-size="10.00">torclogging.h</text>
</a>
</g>
</g>
<!-- Node1&#45;&gt;Node36 -->
<g id="edge51" class="edge"><title>Node1&#45;&gt;Node36</title>
<path fill="none" stroke="midnightblue" d="M1134.73,-448.444C1172.01,-439.122 1231.77,-424.183 1272.51,-413.997"/>
<polygon fill="midnightblue" stroke="midnightblue" points="1273.58,-417.337 1282.43,-411.516 1271.88,-410.546 1273.58,-417.337"/>
</g>
<!-- Node3 -->
<g id="node3" class="node"><title>Node3</title>
<polygon fill="white" stroke="#bfbfbf" points="535,-224.5 535,-243.5 590,-243.5 590,-224.5 535,-224.5"/>
<text text-anchor="middle" x="562.5" y="-231.5" font-family="Helvetica,sans-Serif" font-size="10.00">QObject</text>
</g>
<!-- Node2&#45;&gt;Node3 -->
<g id="edge2" class="edge"><title>Node2&#45;&gt;Node3</title>
<path fill="none" stroke="midnightblue" d="M252.621,-392.309C306.368,-365.024 471.991,-280.947 536.45,-248.224"/>
<polygon fill="midnightblue" stroke="midnightblue" points="538.216,-251.253 545.549,-243.605 535.048,-245.011 538.216,-251.253"/>
</g>
<!-- Node4 -->
<g id="node4" class="node"><title>Node4</title>
<polygon fill="white" stroke="#bfbfbf" points="0,-336.5 0,-355.5 51,-355.5 51,-336.5 0,-336.5"/>
<text text-anchor="middle" x="25.5" y="-343.5" font-family="Helvetica,sans-Serif" font-size="10.00">QTimer</text>
</g>
<!-- Node2&#45;&gt;Node4 -->
<g id="edge3" class="edge"><title>Node2&#45;&gt;Node4</title>
<path fill="none" stroke="midnightblue" d="M202.225,-392.444C163.605,-382.513 100.187,-366.205 60.7456,-356.063"/>
<polygon fill="midnightblue" stroke="midnightblue" points="61.5796,-352.664 51.023,-353.563 59.8362,-359.443 61.5796,-352.664"/>
</g>
<!-- Node5 -->
<g id="node5" class="node"><title>Node5</title>
<polygon fill="white" stroke="#bfbfbf" points="465,-56.5 465,-75.5 536,-75.5 536,-56.5 465,-56.5"/>
<text text-anchor="middle" x="500.5" y="-63.5" font-family="Helvetica,sans-Serif" font-size="10.00">QDateTime</text>
</g>
<!-- Node2&#45;&gt;Node5 -->
<g id="edge4" class="edge"><title>Node2&#45;&gt;Node5</title>
<path fill="none" stroke="midnightblue" d="M198.925,-392.462C152.816,-379.274 79.5,-349.159 79.5,-291 79.5,-291 79.5,-291 79.5,-177 79.5,-100.066 346,-75.9212 454.933,-69.2654"/>
<polygon fill="midnightblue" stroke="midnightblue" points="455.192,-72.7563 464.969,-68.6747 454.78,-65.7684 455.192,-72.7563"/>
</g>
<!-- Node6 -->
<g id="node6" class="node"><title>Node6</title>
<g id="a_node6"><a xlink:href="../../db/df1/torcnotifier_8h.html" target="_top" xlink:title="torcnotifier.h">
<polygon fill="white" stroke="black" points="197,-336.5 197,-355.5 274,-355.5 274,-336.5 197,-336.5"/>
<text text-anchor="middle" x="235.5" y="-343.5" font-family="Helvetica,sans-Serif" font-size="10.00">torcnotifier.h</text>
</a>
</g>
</g>
<!-- Node2&#45;&gt;Node6 -->
<g id="edge5" class="edge"><title>Node2&#45;&gt;Node6</title>
<path fill="none" stroke="midnightblue" d="M235.5,-392.083C235.5,-385.006 235.5,-374.861 235.5,-365.986"/>
<polygon fill="midnightblue" stroke="midnightblue" points="239,-365.751 235.5,-355.751 232,-365.751 239,-365.751"/>
</g>
<!-- Node7 -->
<g id="node7" class="node"><title>Node7</title>
<polygon fill="white" stroke="#bfbfbf" points="247.5,-168.5 247.5,-187.5 305.5,-187.5 305.5,-168.5 247.5,-168.5"/>
<text text-anchor="middle" x="276.5" y="-175.5" font-family="Helvetica,sans-Serif" font-size="10.00">QVariant</text>
</g>
<!-- Node6&#45;&gt;Node7 -->
<g id="edge6" class="edge"><title>Node6&#45;&gt;Node7</title>
<path fill="none" stroke="midnightblue" d="M230.204,-336.237C218.422,-315.509 192.593,-262.333 212.5,-224 219.653,-210.226 233.171,-199.783 245.947,-192.441"/>
<polygon fill="midnightblue" stroke="midnightblue" points="247.817,-195.412 255.017,-187.64 244.542,-189.225 247.817,-195.412"/>
</g>
<!-- Node8 -->
<g id="node8" class="node"><title>Node8</title>
<g id="a_node8"><a xlink:href="../../d1/df7/torcdevice_8h.html" target="_top" xlink:title="torcdevice.h">
<polygon fill="white" stroke="black" points="239,-280.5 239,-299.5 314,-299.5 314,-280.5 239,-280.5"/>
<text text-anchor="middle" x="276.5" y="-287.5" font-family="Helvetica,sans-Serif" font-size="10.00">torcdevice.h</text>
</a>
</g>
</g>
<!-- Node6&#45;&gt;Node8 -->
<g id="edge7" class="edge"><title>Node6&#45;&gt;Node8</title>
<path fill="none" stroke="midnightblue" d="M242.27,-336.083C248.062,-328.455 256.558,-317.264 263.638,-307.941"/>
<polygon fill="midnightblue" stroke="midnightblue" points="266.596,-309.832 269.856,-299.751 261.021,-305.599 266.596,-309.832"/>
</g>
<!-- Node8&#45;&gt;Node3 -->
<g id="edge11" class="edge"><title>Node8&#45;&gt;Node3</title>
<path fill="none" stroke="midnightblue" d="M314.181,-282.912C361.16,-275.163 444.131,-260.957 524.833,-244.037"/>
<polygon fill="midnightblue" stroke="midnightblue" points="525.6,-247.453 534.66,-241.961 524.153,-240.604 525.6,-247.453"/>
</g>
<!-- Node9 -->
<g id="node9" class="node"><title>Node9</title>
<polygon fill="white" stroke="#bfbfbf" points="163,-168.5 163,-187.5 212,-187.5 212,-168.5 163,-168.5"/>
<text text-anchor="middle" x="187.5" y="-175.5" font-family="Helvetica,sans-Serif" font-size="10.00">QHash</text>
</g>
<!-- Node8&#45;&gt;Node9 -->
<g id="edge8" class="edge"><title>Node8&#45;&gt;Node9</title>
<path fill="none" stroke="midnightblue" d="M258.829,-280.35C244.588,-272.583 224.95,-259.956 212.5,-244 201.819,-230.311 195.254,-211.525 191.549,-197.669"/>
<polygon fill="midnightblue" stroke="midnightblue" points="194.916,-196.703 189.166,-187.805 188.112,-198.347 194.916,-196.703"/>
</g>
<!-- Node10 -->
<g id="node10" class="node"><title>Node10</title>
<polygon fill="white" stroke="#bfbfbf" points="333,-168.5 333,-187.5 386,-187.5 386,-168.5 333,-168.5"/>
<text text-anchor="middle" x="359.5" y="-175.5" font-family="Helvetica,sans-Serif" font-size="10.00">QMutex</text>
</g>
<!-- Node8&#45;&gt;Node10 -->
<g id="edge9" class="edge"><title>Node8&#45;&gt;Node10</title>
<path fill="none" stroke="midnightblue" d="M294.814,-280.459C309.238,-272.833 328.8,-260.347 340.5,-244 350.229,-230.406 355.012,-211.861 357.342,-198.058"/>
<polygon fill="midnightblue" stroke="midnightblue" points="360.859,-198.18 358.777,-187.792 353.926,-197.211 360.859,-198.18"/>
</g>
<!-- Node11 -->
<g id="node11" class="node"><title>Node11</title>
<polygon fill="white" stroke="#bfbfbf" points="975,-56.5 975,-75.5 1028,-75.5 1028,-56.5 975,-56.5"/>
<text text-anchor="middle" x="1001.5" y="-63.5" font-family="Helvetica,sans-Serif" font-size="10.00">QString</text>
</g>
<!-- Node8&#45;&gt;Node11 -->
<g id="edge10" class="edge"><title>Node8&#45;&gt;Node11</title>
<path fill="none" stroke="midnightblue" d="M255.372,-280.45C210.684,-261.208 113.821,-212.686 153.5,-168 208.292,-106.295 809.141,-75.5272 964.832,-68.5553"/>
<polygon fill="midnightblue" stroke="midnightblue" points="965.012,-72.0509 974.847,-68.1123 964.702,-65.0577 965.012,-72.0509"/>
</g>
<!-- Node12 -->
<g id="node12" class="node"><title>Node12</title>
<g id="a_node12"><a xlink:href="../../d8/dfe/torcreferencecounted_8h.html" target="_top" xlink:title="torcreferencecounted.h">
<polygon fill="white" stroke="black" points="388,-224.5 388,-243.5 517,-243.5 517,-224.5 388,-224.5"/>
<text text-anchor="middle" x="452.5" y="-231.5" font-family="Helvetica,sans-Serif" font-size="10.00">torcreferencecounted.h</text>
</a>
</g>
</g>
<!-- Node8&#45;&gt;Node12 -->
<g id="edge12" class="edge"><title>Node8&#45;&gt;Node12</title>
<path fill="none" stroke="midnightblue" d="M304.388,-280.444C334.254,-271.28 381.815,-256.688 414.956,-246.519"/>
<polygon fill="midnightblue" stroke="midnightblue" points="416.209,-249.796 424.743,-243.516 414.156,-243.104 416.209,-249.796"/>
</g>
<!-- Node14 -->
<g id="node14" class="node"><title>Node14</title>
<g id="a_node14"><a xlink:href="../../d2/d5b/torcdevicehandler_8h.html" target="_top" xlink:title="torcdevicehandler.h">
<polygon fill="white" stroke="black" points="221.5,-224.5 221.5,-243.5 331.5,-243.5 331.5,-224.5 221.5,-224.5"/>
<text text-anchor="middle" x="276.5" y="-231.5" font-family="Helvetica,sans-Serif" font-size="10.00">torcdevicehandler.h</text>
</a>
</g>
</g>
<!-- Node8&#45;&gt;Node14 -->
<g id="edge14" class="edge"><title>Node8&#45;&gt;Node14</title>
<path fill="none" stroke="midnightblue" d="M276.5,-280.083C276.5,-273.006 276.5,-262.861 276.5,-253.986"/>
<polygon fill="midnightblue" stroke="midnightblue" points="280,-253.751 276.5,-243.751 273,-253.751 280,-253.751"/>
</g>
<!-- Node13 -->
<g id="node13" class="node"><title>Node13</title>
<polygon fill="white" stroke="#bfbfbf" points="562.5,-168.5 562.5,-187.5 632.5,-187.5 632.5,-168.5 562.5,-168.5"/>
<text text-anchor="middle" x="597.5" y="-175.5" font-family="Helvetica,sans-Serif" font-size="10.00">QAtomicInt</text>
</g>
<!-- Node12&#45;&gt;Node13 -->
<g id="edge13" class="edge"><title>Node12&#45;&gt;Node13</title>
<path fill="none" stroke="midnightblue" d="M475.476,-224.444C499.657,-215.438 537.918,-201.189 565.146,-191.049"/>
<polygon fill="midnightblue" stroke="midnightblue" points="566.482,-194.286 574.632,-187.516 564.039,-187.727 566.482,-194.286"/>
</g>
<!-- Node14&#45;&gt;Node7 -->
<g id="edge17" class="edge"><title>Node14&#45;&gt;Node7</title>
<path fill="none" stroke="midnightblue" d="M276.5,-224.083C276.5,-217.006 276.5,-206.861 276.5,-197.986"/>
<polygon fill="midnightblue" stroke="midnightblue" points="280,-197.751 276.5,-187.751 273,-197.751 280,-197.751"/>
</g>
<!-- Node14&#45;&gt;Node9 -->
<g id="edge15" class="edge"><title>Node14&#45;&gt;Node9</title>
<path fill="none" stroke="midnightblue" d="M262.201,-224.324C248.317,-215.9 227.008,-202.971 210.696,-193.074"/>
<polygon fill="midnightblue" stroke="midnightblue" points="212.129,-189.85 201.764,-187.655 208.498,-195.834 212.129,-189.85"/>
</g>
<!-- Node14&#45;&gt;Node10 -->
<g id="edge16" class="edge"><title>Node14&#45;&gt;Node10</title>
<path fill="none" stroke="midnightblue" d="M289.835,-224.324C302.662,-215.979 322.285,-203.212 337.44,-193.352"/>
<polygon fill="midnightblue" stroke="midnightblue" points="339.724,-196.042 346.198,-187.655 335.907,-190.174 339.724,-196.042"/>
</g>
<!-- Node15&#45;&gt;Node3 -->
<g id="edge19" class="edge"><title>Node15&#45;&gt;Node3</title>
<path fill="none" stroke="midnightblue" d="M733.182,-339.712C684.632,-332.729 607.958,-319.05 586.5,-300 573.166,-288.163 567.227,-268.244 564.59,-253.569"/>
<polygon fill="midnightblue" stroke="midnightblue" points="568.042,-252.987 563.149,-243.59 561.114,-253.988 568.042,-252.987"/>
</g>
<!-- Node15&#45;&gt;Node13 -->
<g id="edge21" class="edge"><title>Node15&#45;&gt;Node13</title>
<path fill="none" stroke="midnightblue" d="M769.992,-336.316C758.48,-314.836 726.028,-258.46 685.5,-224 669.286,-210.213 648.126,-199.223 630.619,-191.555"/>
<polygon fill="midnightblue" stroke="midnightblue" points="631.898,-188.296 621.324,-187.64 629.181,-194.747 631.898,-188.296"/>
</g>
<!-- Node16 -->
<g id="node16" class="node"><title>Node16</title>
<polygon fill="white" stroke="#bfbfbf" points="772,-280.5 772,-299.5 839,-299.5 839,-280.5 772,-280.5"/>
<text text-anchor="middle" x="805.5" y="-287.5" font-family="Helvetica,sans-Serif" font-size="10.00">QtNetwork</text>
</g>
<!-- Node15&#45;&gt;Node16 -->
<g id="edge20" class="edge"><title>Node15&#45;&gt;Node16</title>
<path fill="none" stroke="midnightblue" d="M779.619,-336.083C783.908,-328.613 790.158,-317.724 795.442,-308.52"/>
<polygon fill="midnightblue" stroke="midnightblue" points="798.533,-310.166 800.476,-299.751 792.462,-306.681 798.533,-310.166"/>
</g>
<!-- Node17 -->
<g id="node17" class="node"><title>Node17</title>
<g id="a_node17"><a xlink:href="../../db/df5/torcsetting_8h.html" target="_top" xlink:title="torcsetting.h">
<polygon fill="white" stroke="black" points="857,-280.5 857,-299.5 934,-299.5 934,-280.5 857,-280.5"/>
<text text-anchor="middle" x="895.5" y="-287.5" font-family="Helvetica,sans-Serif" font-size="10.00">torcsetting.h</text>
</a>
</g>
</g>
<!-- Node15&#45;&gt;Node17 -->
<g id="edge22" class="edge"><title>Node15&#45;&gt;Node17</title>
<path fill="none" stroke="midnightblue" d="M793.673,-336.444C813.409,-327.636 844.385,-313.812 866.993,-303.722"/>
<polygon fill="midnightblue" stroke="midnightblue" points="868.711,-306.788 876.417,-299.516 865.859,-300.396 868.711,-306.788"/>
</g>
<!-- Node32 -->
<g id="node32" class="node"><title>Node32</title>
<g id="a_node32"><a xlink:href="../../d3/dd0/torctimer_8h.html" target="_top" xlink:title="torctimer.h">
<polygon fill="white" stroke="black" points="1037,-280.5 1037,-299.5 1106,-299.5 1106,-280.5 1037,-280.5"/>
<text text-anchor="middle" x="1071.5" y="-287.5" font-family="Helvetica,sans-Serif" font-size="10.00">torctimer.h</text>
</a>
</g>
</g>
<!-- Node15&#45;&gt;Node32 -->
<g id="edge46" class="edge"><title>Node15&#45;&gt;Node32</title>
<path fill="none" stroke="midnightblue" d="M815.797,-337.492C871.28,-327.404 969.515,-309.543 1026.72,-299.141"/>
<polygon fill="midnightblue" stroke="midnightblue" points="1027.35,-302.584 1036.57,-297.352 1026.1,-295.697 1027.35,-302.584"/>
</g>
<!-- Node34 -->
<g id="node34" class="node"><title>Node34</title>
<g id="a_node34"><a xlink:href="../../db/d18/torcnetworkrequest_8h.html" target="_top" xlink:title="torcnetworkrequest.h">
<polygon fill="white" stroke="black" points="596,-280.5 596,-299.5 715,-299.5 715,-280.5 596,-280.5"/>
<text text-anchor="middle" x="655.5" y="-287.5" font-family="Helvetica,sans-Serif" font-size="10.00">torcnetworkrequest.h</text>
</a>
</g>
</g>
<!-- Node15&#45;&gt;Node34 -->
<g id="edge48" class="edge"><title>Node15&#45;&gt;Node34</title>
<path fill="none" stroke="midnightblue" d="M750.555,-336.444C729.405,-327.715 699.052,-314.059 678.268,-303.994"/>
<polygon fill="midnightblue" stroke="midnightblue" points="679.704,-300.8 669.188,-299.516 676.608,-307.078 679.704,-300.8"/>
</g>
<!-- Node17&#45;&gt;Node3 -->
<g id="edge25" class="edge"><title>Node17&#45;&gt;Node3</title>
<path fill="none" stroke="midnightblue" d="M856.752,-281.591C853.625,-281.037 850.511,-280.5 847.5,-280 740.423,-262.229 709.981,-265.378 600.48,-244.239"/>
<polygon fill="midnightblue" stroke="midnightblue" points="600.831,-240.742 590.345,-242.258 599.488,-247.612 600.831,-240.742"/>
</g>
<!-- Node17&#45;&gt;Node7 -->
<g id="edge26" class="edge"><title>Node17&#45;&gt;Node7</title>
<path fill="none" stroke="midnightblue" d="M870.164,-280.455C822.625,-264.539 721.598,-231.304 685.5,-224 527.029,-191.935 483.505,-211.228 323.5,-188 320.855,-187.616 318.132,-187.186 315.394,-186.729"/>
<polygon fill="midnightblue" stroke="midnightblue" points="315.971,-183.277 305.514,-184.98 314.751,-190.169 315.971,-183.277"/>
</g>
<!-- Node17&#45;&gt;Node12 -->
<g id="edge45" class="edge"><title>Node17&#45;&gt;Node12</title>
<path fill="none" stroke="midnightblue" d="M856.769,-281.483C853.638,-280.953 850.519,-280.451 847.5,-280 708.278,-259.194 670.214,-260.728 527.388,-244.205"/>
<polygon fill="midnightblue" stroke="midnightblue" points="527.712,-240.719 517.374,-243.037 526.901,-247.672 527.712,-240.719"/>
</g>
<!-- Node18 -->
<g id="node18" class="node"><title>Node18</title>
<polygon fill="white" stroke="#bfbfbf" points="969,-224.5 969,-243.5 1010,-243.5 1010,-224.5 969,-224.5"/>
<text text-anchor="middle" x="989.5" y="-231.5" font-family="Helvetica,sans-Serif" font-size="10.00">QSet</text>
</g>
<!-- Node17&#45;&gt;Node18 -->
<g id="edge23" class="edge"><title>Node17&#45;&gt;Node18</title>
<path fill="none" stroke="midnightblue" d="M910.603,-280.324C925.403,-271.822 948.194,-258.729 965.482,-248.797"/>
<polygon fill="midnightblue" stroke="midnightblue" points="967.507,-251.671 974.435,-243.655 964.02,-245.601 967.507,-251.671"/>
</g>
<!-- Node19 -->
<g id="node19" class="node"><title>Node19</title>
<polygon fill="white" stroke="#bfbfbf" points="771.5,-224.5 771.5,-243.5 863.5,-243.5 863.5,-224.5 771.5,-224.5"/>
<text text-anchor="middle" x="817.5" y="-231.5" font-family="Helvetica,sans-Serif" font-size="10.00">QReadWriteLock</text>
</g>
<!-- Node17&#45;&gt;Node19 -->
<g id="edge24" class="edge"><title>Node17&#45;&gt;Node19</title>
<path fill="none" stroke="midnightblue" d="M882.968,-280.324C870.914,-271.979 852.473,-259.212 838.231,-249.352"/>
<polygon fill="midnightblue" stroke="midnightblue" points="840.215,-246.469 830.001,-243.655 836.231,-252.224 840.215,-246.469"/>
</g>
<!-- Node20 -->
<g id="node20" class="node"><title>Node20</title>
<polygon fill="white" stroke="#bfbfbf" points="882,-224.5 882,-243.5 951,-243.5 951,-224.5 882,-224.5"/>
<text text-anchor="middle" x="916.5" y="-231.5" font-family="Helvetica,sans-Serif" font-size="10.00">QStringList</text>
</g>
<!-- Node17&#45;&gt;Node20 -->
<g id="edge27" class="edge"><title>Node17&#45;&gt;Node20</title>
<path fill="none" stroke="midnightblue" d="M898.968,-280.083C901.812,-272.77 905.929,-262.181 909.46,-253.103"/>
<polygon fill="midnightblue" stroke="midnightblue" points="912.734,-254.34 913.097,-243.751 906.21,-251.803 912.734,-254.34"/>
</g>
<!-- Node21 -->
<g id="node21" class="node"><title>Node21</title>
<g id="a_node21"><a xlink:href="../../d3/dee/torchttpservice_8h.html" target="_top" xlink:title="torchttpservice.h">
<polygon fill="white" stroke="black" points="1028.5,-224.5 1028.5,-243.5 1126.5,-243.5 1126.5,-224.5 1028.5,-224.5"/>
<text text-anchor="middle" x="1077.5" y="-231.5" font-family="Helvetica,sans-Serif" font-size="10.00">torchttpservice.h</text>
</a>
</g>
</g>
<!-- Node17&#45;&gt;Node21 -->
<g id="edge28" class="edge"><title>Node17&#45;&gt;Node21</title>
<path fill="none" stroke="midnightblue" d="M924.338,-280.444C955.356,-271.241 1004.83,-256.562 1039.12,-246.388"/>
<polygon fill="midnightblue" stroke="midnightblue" points="1040.21,-249.716 1048.8,-243.516 1038.21,-243.006 1040.21,-249.716"/>
</g>
<!-- Node21&#45;&gt;Node10 -->
<g id="edge30" class="edge"><title>Node21&#45;&gt;Node10</title>
<path fill="none" stroke="midnightblue" d="M1028.28,-225.179C1024.98,-224.751 1021.69,-224.352 1018.5,-224 896.236,-210.524 516.116,-188.033 396.159,-181.1"/>
<polygon fill="midnightblue" stroke="midnightblue" points="396.208,-177.597 386.023,-180.515 395.805,-184.585 396.208,-177.597"/>
</g>
<!-- Node22 -->
<g id="node22" class="node"><title>Node22</title>
<polygon fill="white" stroke="#bfbfbf" points="1230.5,-56.5 1230.5,-75.5 1274.5,-75.5 1274.5,-56.5 1230.5,-56.5"/>
<text text-anchor="middle" x="1252.5" y="-63.5" font-family="Helvetica,sans-Serif" font-size="10.00">QMap</text>
</g>
<!-- Node21&#45;&gt;Node22 -->
<g id="edge29" class="edge"><title>Node21&#45;&gt;Node22</title>
<path fill="none" stroke="midnightblue" d="M1123.21,-224.484C1147.44,-217.978 1176.29,-206.808 1196.5,-188 1226.9,-159.715 1242.19,-111.662 1248.62,-85.4296"/>
<polygon fill="midnightblue" stroke="midnightblue" points="1252.04,-86.1725 1250.85,-75.6445 1245.22,-84.6156 1252.04,-86.1725"/>
</g>
<!-- Node23 -->
<g id="node23" class="node"><title>Node23</title>
<polygon fill="white" stroke="#bfbfbf" points="1109,-168.5 1109,-187.5 1188,-187.5 1188,-168.5 1109,-168.5"/>
<text text-anchor="middle" x="1148.5" y="-175.5" font-family="Helvetica,sans-Serif" font-size="10.00">QMetaObject</text>
</g>
<!-- Node21&#45;&gt;Node23 -->
<g id="edge31" class="edge"><title>Node21&#45;&gt;Node23</title>
<path fill="none" stroke="midnightblue" d="M1088.91,-224.324C1099.61,-216.185 1115.84,-203.839 1128.66,-194.087"/>
<polygon fill="midnightblue" stroke="midnightblue" points="1131.04,-196.673 1136.89,-187.834 1126.81,-191.102 1131.04,-196.673"/>
</g>
<!-- Node24 -->
<g id="node24" class="node"><title>Node24</title>
<polygon fill="white" stroke="#bfbfbf" points="836,-168.5 836,-187.5 935,-187.5 935,-168.5 836,-168.5"/>
<text text-anchor="middle" x="885.5" y="-175.5" font-family="Helvetica,sans-Serif" font-size="10.00">QCoreApplication</text>
</g>
<!-- Node21&#45;&gt;Node24 -->
<g id="edge32" class="edge"><title>Node21&#45;&gt;Node24</title>
<path fill="none" stroke="midnightblue" d="M1047.08,-224.444C1014.22,-215.201 961.715,-200.436 925.526,-190.257"/>
<polygon fill="midnightblue" stroke="midnightblue" points="926.355,-186.855 915.781,-187.516 924.46,-193.593 926.355,-186.855"/>
</g>
<!-- Node25 -->
<g id="node25" class="node"><title>Node25</title>
<g id="a_node25"><a xlink:href="../../d4/d11/torchttphandler_8h.html" target="_top" xlink:title="torchttphandler.h">
<polygon fill="white" stroke="black" points="953,-168.5 953,-187.5 1052,-187.5 1052,-168.5 953,-168.5"/>
<text text-anchor="middle" x="1002.5" y="-175.5" font-family="Helvetica,sans-Serif" font-size="10.00">torchttphandler.h</text>
</a>
</g>
</g>
<!-- Node21&#45;&gt;Node25 -->
<g id="edge33" class="edge"><title>Node21&#45;&gt;Node25</title>
<path fill="none" stroke="midnightblue" d="M1065.45,-224.324C1054.04,-216.107 1036.67,-203.602 1023.07,-193.807"/>
<polygon fill="midnightblue" stroke="midnightblue" points="1024.93,-190.837 1014.77,-187.834 1020.84,-196.517 1024.93,-190.837"/>
</g>
<!-- Node21&#45;&gt;Node27 -->
<g id="edge44" class="edge"><title>Node21&#45;&gt;Node27</title>
<path fill="none" stroke="midnightblue" d="M1077.74,-224.368C1078.22,-206.617 1079.34,-165.666 1079.99,-141.597"/>
<polygon fill="midnightblue" stroke="midnightblue" points="1083.49,-141.683 1080.27,-131.591 1076.49,-141.492 1083.49,-141.683"/>
</g>
<!-- Node25&#45;&gt;Node11 -->
<g id="edge34" class="edge"><title>Node25&#45;&gt;Node11</title>
<path fill="none" stroke="midnightblue" d="M1002.42,-168.368C1002.26,-150.617 1001.89,-109.666 1001.67,-85.5974"/>
<polygon fill="midnightblue" stroke="midnightblue" points="1005.17,-85.5592 1001.58,-75.5914 998.169,-85.6229 1005.17,-85.5592"/>
</g>
<!-- Node26 -->
<g id="node26" class="node"><title>Node26</title>
<polygon fill="white" stroke="#bfbfbf" points="895.5,-112.5 895.5,-131.5 973.5,-131.5 973.5,-112.5 895.5,-112.5"/>
<text text-anchor="middle" x="934.5" y="-119.5" font-family="Helvetica,sans-Serif" font-size="10.00">QVariantMap</text>
</g>
<!-- Node25&#45;&gt;Node26 -->
<g id="edge35" class="edge"><title>Node25&#45;&gt;Node26</title>
<path fill="none" stroke="midnightblue" d="M991.575,-168.324C981.325,-160.185 965.779,-147.839 953.499,-138.087"/>
<polygon fill="midnightblue" stroke="midnightblue" points="955.632,-135.312 945.624,-131.834 951.279,-140.794 955.632,-135.312"/>
</g>
<!-- Node25&#45;&gt;Node27 -->
<g id="edge36" class="edge"><title>Node25&#45;&gt;Node27</title>
<path fill="none" stroke="midnightblue" d="M1015.03,-168.324C1027.09,-159.979 1045.53,-147.212 1059.77,-137.352"/>
<polygon fill="midnightblue" stroke="midnightblue" points="1061.77,-140.224 1068,-131.655 1057.78,-134.469 1061.77,-140.224"/>
</g>
<!-- Node27&#45;&gt;Node5 -->
<g id="edge40" class="edge"><title>Node27&#45;&gt;Node5</title>
<path fill="none" stroke="midnightblue" d="M1029.79,-116.279C918.267,-105.896 653.141,-81.2114 546.295,-71.2637"/>
<polygon fill="midnightblue" stroke="midnightblue" points="546.441,-67.7622 536.16,-70.32 545.792,-74.7321 546.441,-67.7622"/>
</g>
<!-- Node27&#45;&gt;Node11 -->
<g id="edge39" class="edge"><title>Node27&#45;&gt;Node11</title>
<path fill="none" stroke="midnightblue" d="M1067.81,-112.324C1055.6,-103.979 1036.92,-91.2122 1022.5,-81.3524"/>
<polygon fill="midnightblue" stroke="midnightblue" points="1024.39,-78.4082 1014.16,-75.6545 1020.44,-84.1871 1024.39,-78.4082"/>
</g>
<!-- Node27&#45;&gt;Node22 -->
<g id="edge37" class="edge"><title>Node27&#45;&gt;Node22</title>
<path fill="none" stroke="midnightblue" d="M1107.75,-112.444C1138.35,-102.837 1187.96,-87.2622 1220.41,-77.0749"/>
<polygon fill="midnightblue" stroke="midnightblue" points="1221.8,-80.3057 1230.3,-73.971 1219.71,-73.6271 1221.8,-80.3057"/>
</g>
<!-- Node28 -->
<g id="node28" class="node"><title>Node28</title>
<polygon fill="white" stroke="#bfbfbf" points="1053,-56.5 1053,-75.5 1094,-75.5 1094,-56.5 1053,-56.5"/>
<text text-anchor="middle" x="1073.5" y="-63.5" font-family="Helvetica,sans-Serif" font-size="10.00">QPair</text>
</g>
<!-- Node27&#45;&gt;Node28 -->
<g id="edge38" class="edge"><title>Node27&#45;&gt;Node28</title>
<path fill="none" stroke="midnightblue" d="M1079.34,-112.083C1078.42,-104.927 1077.08,-94.6353 1075.92,-85.6911"/>
<polygon fill="midnightblue" stroke="midnightblue" points="1079.39,-85.2181 1074.63,-75.7511 1072.45,-86.1181 1079.39,-85.2181"/>
</g>
<!-- Node29 -->
<g id="node29" class="node"><title>Node29</title>
<g id="a_node29"><a xlink:href="../../de/de6/torchttpreader_8h.html" target="_top" xlink:title="torchttpreader.h">
<polygon fill="white" stroke="black" points="1112,-56.5 1112,-75.5 1207,-75.5 1207,-56.5 1112,-56.5"/>
<text text-anchor="middle" x="1159.5" y="-63.5" font-family="Helvetica,sans-Serif" font-size="10.00">torchttpreader.h</text>
</a>
</g>
</g>
<!-- Node27&#45;&gt;Node29 -->
<g id="edge41" class="edge"><title>Node27&#45;&gt;Node29</title>
<path fill="none" stroke="midnightblue" d="M1093.19,-112.324C1105.4,-103.979 1124.08,-91.2122 1138.5,-81.3524"/>
<polygon fill="midnightblue" stroke="midnightblue" points="1140.56,-84.1871 1146.84,-75.6545 1136.61,-78.4082 1140.56,-84.1871"/>
</g>
<!-- Node30 -->
<g id="node30" class="node"><title>Node30</title>
<polygon fill="white" stroke="#bfbfbf" points="1079,-0.5 1079,-19.5 1150,-19.5 1150,-0.5 1079,-0.5"/>
<text text-anchor="middle" x="1114.5" y="-7.5" font-family="Helvetica,sans-Serif" font-size="10.00">QByteArray</text>
</g>
<!-- Node29&#45;&gt;Node30 -->
<g id="edge42" class="edge"><title>Node29&#45;&gt;Node30</title>
<path fill="none" stroke="midnightblue" d="M1152.07,-56.083C1145.65,-48.3768 1136.19,-37.0333 1128.38,-27.6531"/>
<polygon fill="midnightblue" stroke="midnightblue" points="1130.88,-25.1927 1121.79,-19.7511 1125.51,-29.674 1130.88,-25.1927"/>
</g>
<!-- Node31 -->
<g id="node31" class="node"><title>Node31</title>
<polygon fill="white" stroke="#bfbfbf" points="1168.5,-0.5 1168.5,-19.5 1240.5,-19.5 1240.5,-0.5 1168.5,-0.5"/>
<text text-anchor="middle" x="1204.5" y="-7.5" font-family="Helvetica,sans-Serif" font-size="10.00">QTcpSocket</text>
</g>
<!-- Node29&#45;&gt;Node31 -->
<g id="edge43" class="edge"><title>Node29&#45;&gt;Node31</title>
<path fill="none" stroke="midnightblue" d="M1166.93,-56.083C1173.35,-48.3768 1182.81,-37.0333 1190.62,-27.6531"/>
<polygon fill="midnightblue" stroke="midnightblue" points="1193.49,-29.674 1197.21,-19.7511 1188.12,-25.1927 1193.49,-29.674"/>
</g>
<!-- Node33 -->
<g id="node33" class="node"><title>Node33</title>
<polygon fill="white" stroke="#bfbfbf" points="1145,-224.5 1145,-243.5 1192,-243.5 1192,-224.5 1145,-224.5"/>
<text text-anchor="middle" x="1168.5" y="-231.5" font-family="Helvetica,sans-Serif" font-size="10.00">QTime</text>
</g>
<!-- Node32&#45;&gt;Node33 -->
<g id="edge47" class="edge"><title>Node32&#45;&gt;Node33</title>
<path fill="none" stroke="midnightblue" d="M1087.08,-280.324C1102.5,-271.743 1126.31,-258.486 1144.21,-248.522"/>
<polygon fill="midnightblue" stroke="midnightblue" points="1145.92,-251.577 1152.95,-243.655 1142.51,-245.461 1145.92,-251.577"/>
</g>
<!-- Node34&#45;&gt;Node15 -->
<g id="edge50" class="edge"><title>Node34&#45;&gt;Node15</title>
<path fill="none" stroke="midnightblue" d="M679.682,-299.655C700.721,-308.346 730.738,-321.849 751.436,-331.862"/>
<polygon fill="midnightblue" stroke="midnightblue" points="749.978,-335.046 760.495,-336.324 753.071,-328.766 749.978,-335.046"/>
</g>
<!-- Node35 -->
<g id="node35" class="node"><title>Node35</title>
<polygon fill="white" stroke="#bfbfbf" points="608,-224.5 608,-243.5 677,-243.5 677,-224.5 608,-224.5"/>
<text text-anchor="middle" x="642.5" y="-231.5" font-family="Helvetica,sans-Serif" font-size="10.00">QMetaType</text>
</g>
<!-- Node34&#45;&gt;Node35 -->
<g id="edge49" class="edge"><title>Node34&#45;&gt;Node35</title>
<path fill="none" stroke="midnightblue" d="M653.353,-280.083C651.631,-272.927 649.153,-262.635 647,-253.691"/>
<polygon fill="midnightblue" stroke="midnightblue" points="650.35,-252.654 644.607,-243.751 643.545,-254.293 650.35,-252.654"/>
</g>
<!-- Node37 -->
<g id="node37" class="node"><title>Node37</title>
<polygon fill="white" stroke="#bfbfbf" points="1249,-336.5 1249,-355.5 1302,-355.5 1302,-336.5 1249,-336.5"/>
<text text-anchor="middle" x="1275.5" y="-343.5" font-family="Helvetica,sans-Serif" font-size="10.00">stdint.h</text>
</g>
<!-- Node36&#45;&gt;Node37 -->
<g id="edge52" class="edge"><title>Node36&#45;&gt;Node37</title>
<path fill="none" stroke="midnightblue" d="M1309.73,-392.083C1303.94,-384.455 1295.44,-373.264 1288.36,-363.941"/>
<polygon fill="midnightblue" stroke="midnightblue" points="1290.98,-361.599 1282.14,-355.751 1285.4,-365.832 1290.98,-361.599"/>
</g>
<!-- Node38 -->
<g id="node38" class="node"><title>Node38</title>
<polygon fill="white" stroke="#bfbfbf" points="1320,-336.5 1320,-355.5 1371,-355.5 1371,-336.5 1320,-336.5"/>
<text text-anchor="middle" x="1345.5" y="-343.5" font-family="Helvetica,sans-Serif" font-size="10.00">errno.h</text>
</g>
<!-- Node36&#45;&gt;Node38 -->
<g id="edge53" class="edge"><title>Node36&#45;&gt;Node38</title>
<path fill="none" stroke="midnightblue" d="M1321.29,-392.083C1325.26,-384.691 1331.03,-373.953 1335.93,-364.811"/>
<polygon fill="midnightblue" stroke="midnightblue" points="1339.15,-366.217 1340.8,-355.751 1332.99,-362.905 1339.15,-366.217"/>
</g>
<!-- Node39 -->
<g id="node39" class="node"><title>Node39</title>
<g id="a_node39"><a xlink:href="../../d1/d37/torcloggingdefs_8h.html" target="_top" xlink:title="torcloggingdefs.h">
<polygon fill="white" stroke="black" points="1389,-336.5 1389,-355.5 1488,-355.5 1488,-336.5 1389,-336.5"/>
<text text-anchor="middle" x="1438.5" y="-343.5" font-family="Helvetica,sans-Serif" font-size="10.00">torcloggingdefs.h</text>
</a>
</g>
</g>
<!-- Node36&#45;&gt;Node39 -->
<g id="edge54" class="edge"><title>Node36&#45;&gt;Node39</title>
<path fill="none" stroke="midnightblue" d="M1335.83,-392.444C1355.82,-383.596 1387.24,-369.687 1410.06,-359.586"/>
<polygon fill="midnightblue" stroke="midnightblue" points="1411.53,-362.764 1419.26,-355.516 1408.7,-356.363 1411.53,-362.764"/>
</g>
</g>
</svg>
        <g id="navigator" transform="translate(0 0)" fill="#404254">
                <rect fill="#f2f5e9" fill-opacity="0.5" stroke="#606060" stroke-width=".5" x="0" y="0" width="60" height="60"/>
                <use id="zoomplus" xlink:href="#zoomPlus" x="17" y="9" onmousedown="handleZoom(evt,'in')"/>
                <use id="zoomminus" xlink:href="#zoomMin" x="42" y="9" onmousedown="handleZoom(evt,'out')"/>
                <use id="reset" xlink:href="#resetDef" x="30" y="36" onmousedown="handleReset()"/>
                <g id="arrowUp" xlink:href="#dirArrow" transform="translate(30 24)" onmousedown="handlePan(0,-1)">
                  <use xlink:href="#rim" fill="#404040">
                        <set attributeName="fill" to="#808080" begin="arrowUp.mouseover" end="arrowUp.mouseout"/>
                  </use>
                  <path fill="none" stroke="white" stroke-width="1.5" d="M0,-3.0v7 M-2.5,-0.5L0,-3.0L2.5,-0.5"/>
                </g>
                <g id="arrowRight" xlink:href="#dirArrow" transform="rotate(90) translate(36 -43)" onmousedown="handlePan(1,0)">
                  <use xlink:href="#rim" fill="#404040">
                        <set attributeName="fill" to="#808080" begin="arrowRight.mouseover" end="arrowRight.mouseout"/>
                  </use>
                  <path fill="none" stroke="white" stroke-width="1.5" d="M0,-3.0v7 M-2.5,-0.5L0,-3.0L2.5,-0.5"/>
                </g>
                <g id="arrowDown" xlink:href="#dirArrow" transform="rotate(180) translate(-30 -48)" onmousedown="handlePan(0,1)">
                  <use xlink:href="#rim" fill="#404040">
                        <set attributeName="fill" to="#808080" begin="arrowDown.mouseover" end="arrowDown.mouseout"/>
                  </use>
                  <path fill="none" stroke="white" stroke-width="1.5" d="M0,-3.0v7 M-2.5,-0.5L0,-3.0L2.5,-0.5"/>
                </g>
                <g id="arrowLeft" xlink:href="#dirArrow" transform="rotate(270) translate(-36 17)" onmousedown="handlePan(-1,0)">
                  <use xlink:href="#rim" fill="#404040">
                        <set attributeName="fill" to="#808080" begin="arrowLeft.mouseover" end="arrowLeft.mouseout"/>
                  </use>
                  <path fill="none" stroke="white" stroke-width="1.5" d="M0,-3.0v7 M-2.5,-0.5L0,-3.0L2.5,-0.5"/>
                </g>
        </g>
        <svg viewBox="0 0 15 15" width="100%" height="30px" preserveAspectRatio="xMaxYMin meet">
         <g id="arrow_out" transform="scale(0.3 0.3)">
          <a xlink:href="torciotlogger_8cpp__incl_org.svg" target="_base">
           <rect id="button" ry="5" rx="5" y="6" x="6" height="38" width="38"
                fill="#f2f5e9" fill-opacity="0.5" stroke="#606060" stroke-width="1.0"/>
           <path id="arrow"
             d="M 11.500037,31.436501 C 11.940474,20.09759 22.043105,11.32322 32.158766,21.979434 L 37.068811,17.246167 C 37.068811,17.246167 37.088388,32 37.088388,32 L 22.160133,31.978069 C 22.160133,31.978069 26.997745,27.140456 26.997745,27.140456 C 18.528582,18.264221 13.291696,25.230495 11.500037,31.436501 z"
             style="fill:#404040;"/>
          </a>
         </g>
        </svg>
</svg>
