<?xml version="1.0" encoding="UTF-8" standalone="no"?>
<!DOCTYPE svg PUBLIC "-//W3C//DTD SVG 1.1//EN"
 "http://www.w3.org/Graphics/SVG/1.1/DTD/svg11.dtd">
<!-- Generated by graphviz version 2.38.0 (20140413.2041)
 -->
<!-- Title: torcnetworkpwminput.h Pages: 1 -->
<svg width="252pt" height="84pt"
 viewBox="0.00 0.00 251.50 84.00" xmlns="http://www.w3.org/2000/svg" xmlns:xlink="http://www.w3.org/1999/xlink">
<g id="graph0" class="graph" transform="scale(1 1) rotate(0) translate(4 80)">
<title>torcnetworkpwminput.h</title>
<polygon fill="white" stroke="none" points="-4,4 -4,-80 247.5,-80 247.5,4 -4,4"/>
<!-- Node1 -->
<g id="node1" class="node"><title>Node1</title>
<polygon fill="#bfbfbf" stroke="black" points="43.5,-56.5 43.5,-75.5 171.5,-75.5 171.5,-56.5 43.5,-56.5"/>
<text text-anchor="middle" x="107.5" y="-63.5" font-family="Helvetica,sans-Serif" font-size="10.00">torcnetworkpwminput.h</text>
</g>
<!-- Node2 -->
<g id="node2" class="node"><title>Node2</title>
<g id="a_node2"><a xlink:href="../../d1/d0c/torcinputs_8cpp.html" target="_top" xlink:title="torcinputs.cpp">
<polygon fill="white" stroke="black" points="0,-0.5 0,-19.5 85,-19.5 85,-0.5 0,-0.5"/>
<text text-anchor="middle" x="42.5" y="-7.5" font-family="Helvetica,sans-Serif" font-size="10.00">torcinputs.cpp</text>
</a>
</g>
</g>
<!-- Node1&#45;&gt;Node2 -->
<g id="edge1" class="edge"><title>Node1&#45;&gt;Node2</title>
<path fill="none" stroke="midnightblue" d="M89.2274,-49.8197C77.5822,-40.1452 62.9005,-27.9481 53.1334,-19.8339"/>
<polygon fill="midnightblue" stroke="midnightblue" points="87.1281,-52.6259 97.0566,-56.324 91.6013,-47.2416 87.1281,-52.6259"/>
</g>
<!-- Node3 -->
<g id="node3" class="node"><title>Node3</title>
<g id="a_node3"><a xlink:href="../../d0/dfb/torcnetworkpwminput_8cpp.html" target="_top" xlink:title="torcnetworkpwminput.cpp">
<polygon fill="white" stroke="black" points="103.5,-0.5 103.5,-19.5 243.5,-19.5 243.5,-0.5 103.5,-0.5"/>
<text text-anchor="middle" x="173.5" y="-7.5" font-family="Helvetica,sans-Serif" font-size="10.00">torcnetworkpwminput.cpp</text>
</a>
</g>
</g>
<!-- Node1&#45;&gt;Node3 -->
<g id="edge2" class="edge"><title>Node1&#45;&gt;Node3</title>
<path fill="none" stroke="midnightblue" d="M126.054,-49.8197C137.878,-40.1452 152.786,-27.9481 162.703,-19.8339"/>
<polygon fill="midnightblue" stroke="midnightblue" points="123.627,-47.2827 118.104,-56.324 128.06,-52.7004 123.627,-47.2827"/>
</g>
</g>
</svg>
