<?xml version="1.0" encoding="UTF-8" standalone="no"?>
<!DOCTYPE svg PUBLIC "-//W3C//DTD SVG 1.1//EN"
 "http://www.w3.org/Graphics/SVG/1.1/DTD/svg11.dtd">
<!-- Generated by graphviz version 2.38.0 (20140413.2041)
 -->
<!-- Title: torcsysteminputs.cpp Pages: 1 -->
<!--zoomable 420 -->
<svg id="main" version="1.1" xmlns="http://www.w3.org/2000/svg" xmlns:xlink="http://www.w3.org/1999/xlink" xml:space="preserve" onload="init(evt)">
<style type="text/css"><![CDATA[
.edge:hover path { stroke: red; }
.edge:hover polygon { stroke: red; fill: red; }
]]></style>
<script type="text/javascript"><![CDATA[
var edges = document.getElementsByTagName('g');
if (edges && edges.length) {
  for (var i=0;i<edges.length;i++) {
    if (edges[i].id.substr(0,4)=='edge') {
      edges[i].setAttribute('class','edge');
    }
  }
}
]]></script>
        <defs>
                <circle id="rim" cx="0" cy="0" r="7"/>
                <circle id="rim2" cx="0" cy="0" r="3.5"/>
                <g id="zoomPlus">
                        <use xlink:href="#rim" fill="#404040">
                                <set attributeName="fill" to="#808080" begin="zoomplus.mouseover" end="zoomplus.mouseout"/>
                        </use>
                        <path d="M-4,0h8M0,-4v8" fill="none" stroke="white" stroke-width="1.5" pointer-events="none"/>
                </g>
                <g id="zoomMin">
                        <use xlink:href="#rim" fill="#404040">
                                <set attributeName="fill" to="#808080" begin="zoomminus.mouseover" end="zoomminus.mouseout"/>
                        </use>
                        <path d="M-4,0h8" fill="none" stroke="white" stroke-width="1.5" pointer-events="none"/>
                </g>
                <g id="dirArrow">
                        <path fill="none" stroke="white" stroke-width="1.5" d="M0,-3.0v7 M-2.5,-0.5L0,-3.0L2.5,-0.5"/>
                </g>
               <g id="resetDef">
                       <use xlink:href="#rim2" fill="#404040">
                               <set attributeName="fill" to="#808080" begin="reset.mouseover" end="reset.mouseout"/>
                       </use>
               </g>
        </defs>

<script type="text/javascript">
var viewWidth = 1551;
var viewHeight = 420;
var sectionId = 'dynsection-0';
</script>
<script xlink:href="../../svgpan.js"/>
<svg id="graph" class="graph">
<g id="viewport">
<title>torcsysteminputs.cpp</title>
<polygon fill="white" stroke="none" points="-4,4 -4,-416 1546.5,-416 1546.5,4 -4,4"/>
<!-- Node1 -->
<g id="node1" class="node"><title>Node1</title>
<polygon fill="#bfbfbf" stroke="black" points="817.5,-392.5 817.5,-411.5 937.5,-411.5 937.5,-392.5 817.5,-392.5"/>
<text text-anchor="middle" x="877.5" y="-399.5" font-family="Helvetica,sans-Serif" font-size="10.00">torcsysteminputs.cpp</text>
</g>
<!-- Node2 -->
<g id="node2" class="node"><title>Node2</title>
<g id="a_node2"><a xlink:href="../../d4/df9/torclogging_8h.html" target="_top" xlink:title="torclogging.h">
<polygon fill="white" stroke="black" points="104,-336.5 104,-355.5 183,-355.5 183,-336.5 104,-336.5"/>
<text text-anchor="middle" x="143.5" y="-343.5" font-family="Helvetica,sans-Serif" font-size="10.00">torclogging.h</text>
</a>
</g>
</g>
<!-- Node1&#45;&gt;Node2 -->
<g id="edge1" class="edge"><title>Node1&#45;&gt;Node2</title>
<path fill="none" stroke="midnightblue" d="M817.434,-396.581C675.924,-386.17 323.719,-360.259 193.195,-350.656"/>
<polygon fill="midnightblue" stroke="midnightblue" points="193.317,-347.156 183.087,-349.912 192.803,-354.137 193.317,-347.156"/>
</g>
<!-- Node6 -->
<g id="node6" class="node"><title>Node6</title>
<g id="a_node6"><a xlink:href="../../d1/d49/torccoreutils_8h.html" target="_top" xlink:title="torccoreutils.h">
<polygon fill="white" stroke="black" points="343,-336.5 343,-355.5 428,-355.5 428,-336.5 343,-336.5"/>
<text text-anchor="middle" x="385.5" y="-343.5" font-family="Helvetica,sans-Serif" font-size="10.00">torccoreutils.h</text>
</a>
</g>
</g>
<!-- Node1&#45;&gt;Node6 -->
<g id="edge5" class="edge"><title>Node1&#45;&gt;Node6</title>
<path fill="none" stroke="midnightblue" d="M817.171,-394.379C720.07,-383.721 530.698,-362.936 438.491,-352.816"/>
<polygon fill="midnightblue" stroke="midnightblue" points="438.597,-349.307 428.274,-351.695 437.833,-356.265 438.597,-349.307"/>
</g>
<!-- Node10 -->
<g id="node10" class="node"><title>Node10</title>
<g id="a_node10"><a xlink:href="../../d4/d68/torcinputs_8h.html" target="_top" xlink:title="torcinputs.h">
<polygon fill="white" stroke="black" points="1089.5,-336.5 1089.5,-355.5 1163.5,-355.5 1163.5,-336.5 1089.5,-336.5"/>
<text text-anchor="middle" x="1126.5" y="-343.5" font-family="Helvetica,sans-Serif" font-size="10.00">torcinputs.h</text>
</a>
</g>
</g>
<!-- Node1&#45;&gt;Node10 -->
<g id="edge9" class="edge"><title>Node1&#45;&gt;Node10</title>
<path fill="none" stroke="midnightblue" d="M916.955,-392.444C961.031,-382.885 1032.35,-367.419 1079.33,-357.229"/>
<polygon fill="midnightblue" stroke="midnightblue" points="1080.23,-360.615 1089.26,-355.075 1078.75,-353.774 1080.23,-360.615"/>
</g>
<!-- Node35 -->
<g id="node35" class="node"><title>Node35</title>
<g id="a_node35"><a xlink:href="../../d1/dcd/torcsysteminput_8h.html" target="_top" xlink:title="torcsysteminput.h">
<polygon fill="white" stroke="black" points="950.5,-336.5 950.5,-355.5 1054.5,-355.5 1054.5,-336.5 950.5,-336.5"/>
<text text-anchor="middle" x="1002.5" y="-343.5" font-family="Helvetica,sans-Serif" font-size="10.00">torcsysteminput.h</text>
</a>
</g>
</g>
<!-- Node1&#45;&gt;Node35 -->
<g id="edge52" class="edge"><title>Node1&#45;&gt;Node35</title>
<path fill="none" stroke="midnightblue" d="M897.307,-392.444C917.787,-383.596 949.983,-369.687 973.365,-359.586"/>
<polygon fill="midnightblue" stroke="midnightblue" points="974.994,-362.695 982.786,-355.516 972.218,-356.269 974.994,-362.695"/>
</g>
<!-- Node36 -->
<g id="node36" class="node"><title>Node36</title>
<g id="a_node36"><a xlink:href="../../d7/ddf/torcsysteminputs_8h.html" target="_top" xlink:title="torcsysteminputs.h">
<polygon fill="white" stroke="black" points="823,-336.5 823,-355.5 932,-355.5 932,-336.5 823,-336.5"/>
<text text-anchor="middle" x="877.5" y="-343.5" font-family="Helvetica,sans-Serif" font-size="10.00">torcsysteminputs.h</text>
</a>
</g>
</g>
<!-- Node1&#45;&gt;Node36 -->
<g id="edge54" class="edge"><title>Node1&#45;&gt;Node36</title>
<path fill="none" stroke="midnightblue" d="M877.5,-392.083C877.5,-385.006 877.5,-374.861 877.5,-365.986"/>
<polygon fill="midnightblue" stroke="midnightblue" points="881,-365.751 877.5,-355.751 874,-365.751 881,-365.751"/>
</g>
<!-- Node3 -->
<g id="node3" class="node"><title>Node3</title>
<polygon fill="white" stroke="#bfbfbf" points="0,-280.5 0,-299.5 53,-299.5 53,-280.5 0,-280.5"/>
<text text-anchor="middle" x="26.5" y="-287.5" font-family="Helvetica,sans-Serif" font-size="10.00">stdint.h</text>
</g>
<!-- Node2&#45;&gt;Node3 -->
<g id="edge2" class="edge"><title>Node2&#45;&gt;Node3</title>
<path fill="none" stroke="midnightblue" d="M124.961,-336.444C105.877,-327.636 75.9251,-313.812 54.0643,-303.722"/>
<polygon fill="midnightblue" stroke="midnightblue" points="55.4986,-300.529 44.9523,-299.516 52.5651,-306.885 55.4986,-300.529"/>
</g>
<!-- Node4 -->
<g id="node4" class="node"><title>Node4</title>
<polygon fill="white" stroke="#bfbfbf" points="71,-280.5 71,-299.5 122,-299.5 122,-280.5 71,-280.5"/>
<text text-anchor="middle" x="96.5" y="-287.5" font-family="Helvetica,sans-Serif" font-size="10.00">errno.h</text>
</g>
<!-- Node2&#45;&gt;Node4 -->
<g id="edge3" class="edge"><title>Node2&#45;&gt;Node4</title>
<path fill="none" stroke="midnightblue" d="M135.739,-336.083C128.963,-328.298 118.957,-316.801 110.745,-307.367"/>
<polygon fill="midnightblue" stroke="midnightblue" points="113.322,-304.996 104.117,-299.751 108.042,-309.592 113.322,-304.996"/>
</g>
<!-- Node5 -->
<g id="node5" class="node"><title>Node5</title>
<g id="a_node5"><a xlink:href="../../d1/d37/torcloggingdefs_8h.html" target="_top" xlink:title="torcloggingdefs.h">
<polygon fill="white" stroke="black" points="140,-280.5 140,-299.5 239,-299.5 239,-280.5 140,-280.5"/>
<text text-anchor="middle" x="189.5" y="-287.5" font-family="Helvetica,sans-Serif" font-size="10.00">torcloggingdefs.h</text>
</a>
</g>
</g>
<!-- Node2&#45;&gt;Node5 -->
<g id="edge4" class="edge"><title>Node2&#45;&gt;Node5</title>
<path fill="none" stroke="midnightblue" d="M151.096,-336.083C157.727,-328.298 167.521,-316.801 175.558,-307.367"/>
<polygon fill="midnightblue" stroke="midnightblue" points="178.225,-309.633 182.045,-299.751 172.896,-305.094 178.225,-309.633"/>
</g>
<!-- Node7 -->
<g id="node7" class="node"><title>Node7</title>
<polygon fill="white" stroke="#bfbfbf" points="257,-280.5 257,-299.5 296,-299.5 296,-280.5 257,-280.5"/>
<text text-anchor="middle" x="276.5" y="-287.5" font-family="Helvetica,sans-Serif" font-size="10.00">QFile</text>
</g>
<!-- Node6&#45;&gt;Node7 -->
<g id="edge6" class="edge"><title>Node6&#45;&gt;Node7</title>
<path fill="none" stroke="midnightblue" d="M367.987,-336.324C350.428,-327.625 323.169,-314.12 302.969,-304.113"/>
<polygon fill="midnightblue" stroke="midnightblue" points="304.484,-300.958 293.969,-299.655 301.376,-307.23 304.484,-300.958"/>
</g>
<!-- Node8 -->
<g id="node8" class="node"><title>Node8</title>
<polygon fill="white" stroke="#bfbfbf" points="314.5,-280.5 314.5,-299.5 390.5,-299.5 390.5,-280.5 314.5,-280.5"/>
<text text-anchor="middle" x="352.5" y="-287.5" font-family="Helvetica,sans-Serif" font-size="10.00">QMetaEnum</text>
</g>
<!-- Node6&#45;&gt;Node8 -->
<g id="edge7" class="edge"><title>Node6&#45;&gt;Node8</title>
<path fill="none" stroke="midnightblue" d="M380.051,-336.083C375.486,-328.613 368.832,-317.724 363.207,-308.52"/>
<polygon fill="midnightblue" stroke="midnightblue" points="366.049,-306.459 357.848,-299.751 360.076,-310.109 366.049,-306.459"/>
</g>
<!-- Node9 -->
<g id="node9" class="node"><title>Node9</title>
<polygon fill="white" stroke="#bfbfbf" points="762,-56.5 762,-75.5 833,-75.5 833,-56.5 762,-56.5"/>
<text text-anchor="middle" x="797.5" y="-63.5" font-family="Helvetica,sans-Serif" font-size="10.00">QDateTime</text>
</g>
<!-- Node6&#45;&gt;Node9 -->
<g id="edge8" class="edge"><title>Node6&#45;&gt;Node9</title>
<path fill="none" stroke="midnightblue" d="M389.951,-336.424C398.958,-318.244 418.5,-274.278 418.5,-235 418.5,-235 418.5,-235 418.5,-177 418.5,-140.822 436.289,-130.295 467.5,-112 514.763,-84.2962 672.865,-72.9498 751.824,-68.9241"/>
<polygon fill="midnightblue" stroke="midnightblue" points="752.147,-72.4125 761.963,-68.4253 751.803,-65.4209 752.147,-72.4125"/>
</g>
<!-- Node11 -->
<g id="node11" class="node"><title>Node11</title>
<polygon fill="white" stroke="#bfbfbf" points="1355,-280.5 1355,-299.5 1396,-299.5 1396,-280.5 1355,-280.5"/>
<text text-anchor="middle" x="1375.5" y="-287.5" font-family="Helvetica,sans-Serif" font-size="10.00">QList</text>
</g>
<!-- Node10&#45;&gt;Node11 -->
<g id="edge10" class="edge"><title>Node10&#45;&gt;Node11</title>
<path fill="none" stroke="midnightblue" d="M1163.72,-337.694C1206.5,-329.178 1278.76,-314.422 1340.5,-300 1341.95,-299.661 1343.43,-299.308 1344.93,-298.945"/>
<polygon fill="midnightblue" stroke="midnightblue" points="1345.95,-302.297 1354.81,-296.483 1344.26,-295.505 1345.95,-302.297"/>
</g>
<!-- Node12 -->
<g id="node12" class="node"><title>Node12</title>
<polygon fill="white" stroke="#bfbfbf" points="951,-112.5 951,-131.5 1004,-131.5 1004,-112.5 951,-112.5"/>
<text text-anchor="middle" x="977.5" y="-119.5" font-family="Helvetica,sans-Serif" font-size="10.00">QMutex</text>
</g>
<!-- Node10&#45;&gt;Node12 -->
<g id="edge11" class="edge"><title>Node10&#45;&gt;Node12</title>
<path fill="none" stroke="midnightblue" d="M1148.13,-336.45C1207.88,-311.673 1366.87,-237.185 1306.5,-168 1268.94,-124.957 1092.37,-121.588 1014.52,-122.262"/>
<polygon fill="midnightblue" stroke="midnightblue" points="1014.18,-118.766 1004.22,-122.381 1014.26,-125.766 1014.18,-118.766"/>
</g>
<!-- Node13 -->
<g id="node13" class="node"><title>Node13</title>
<g id="a_node13"><a xlink:href="../../d3/dee/torchttpservice_8h.html" target="_top" xlink:title="torchttpservice.h">
<polygon fill="white" stroke="black" points="1118.5,-224.5 1118.5,-243.5 1216.5,-243.5 1216.5,-224.5 1118.5,-224.5"/>
<text text-anchor="middle" x="1167.5" y="-231.5" font-family="Helvetica,sans-Serif" font-size="10.00">torchttpservice.h</text>
</a>
</g>
</g>
<!-- Node10&#45;&gt;Node13 -->
<g id="edge12" class="edge"><title>Node10&#45;&gt;Node13</title>
<path fill="none" stroke="midnightblue" d="M1129.72,-336.368C1136.36,-318.537 1151.74,-277.295 1160.69,-253.272"/>
<polygon fill="midnightblue" stroke="midnightblue" points="1164.08,-254.184 1164.3,-243.591 1157.53,-251.739 1164.08,-254.184"/>
</g>
<!-- Node26 -->
<g id="node26" class="node"><title>Node26</title>
<g id="a_node26"><a xlink:href="../../dd/d69/torcinput_8h.html" target="_top" xlink:title="torcinput.h">
<polygon fill="white" stroke="black" points="964.5,-280.5 964.5,-299.5 1032.5,-299.5 1032.5,-280.5 964.5,-280.5"/>
<text text-anchor="middle" x="998.5" y="-287.5" font-family="Helvetica,sans-Serif" font-size="10.00">torcinput.h</text>
</a>
</g>
</g>
<!-- Node10&#45;&gt;Node26 -->
<g id="edge30" class="edge"><title>Node10&#45;&gt;Node26</title>
<path fill="none" stroke="midnightblue" d="M1106.22,-336.444C1085.15,-327.557 1051.98,-313.563 1028.01,-303.451"/>
<polygon fill="midnightblue" stroke="midnightblue" points="1029.26,-300.179 1018.69,-299.516 1026.54,-306.628 1029.26,-300.179"/>
</g>
<!-- Node34 -->
<g id="node34" class="node"><title>Node34</title>
<g id="a_node34"><a xlink:href="../../d5/d41/torccentral_8h.html" target="_top" xlink:title="torccentral.h">
<polygon fill="white" stroke="black" points="846,-280.5 846,-299.5 923,-299.5 923,-280.5 846,-280.5"/>
<text text-anchor="middle" x="884.5" y="-287.5" font-family="Helvetica,sans-Serif" font-size="10.00">torccentral.h</text>
</a>
</g>
</g>
<!-- Node10&#45;&gt;Node34 -->
<g id="edge46" class="edge"><title>Node10&#45;&gt;Node34</title>
<path fill="none" stroke="midnightblue" d="M1089.48,-336.74C1047.42,-327.354 978.636,-312.005 932.486,-301.708"/>
<polygon fill="midnightblue" stroke="midnightblue" points="933.235,-298.289 922.713,-299.527 931.71,-305.121 933.235,-298.289"/>
</g>
<!-- Node13&#45;&gt;Node12 -->
<g id="edge14" class="edge"><title>Node13&#45;&gt;Node12</title>
<path fill="none" stroke="midnightblue" d="M1167.83,-224.066C1167.82,-210.11 1165.69,-183.166 1150.5,-168 1114.39,-131.942 1053.3,-123.639 1014.21,-122.313"/>
<polygon fill="midnightblue" stroke="midnightblue" points="1014.12,-118.811 1004.05,-122.108 1013.98,-125.809 1014.12,-118.811"/>
</g>
<!-- Node14 -->
<g id="node14" class="node"><title>Node14</title>
<polygon fill="white" stroke="#bfbfbf" points="1498.5,-56.5 1498.5,-75.5 1542.5,-75.5 1542.5,-56.5 1498.5,-56.5"/>
<text text-anchor="middle" x="1520.5" y="-63.5" font-family="Helvetica,sans-Serif" font-size="10.00">QMap</text>
</g>
<!-- Node13&#45;&gt;Node14 -->
<g id="edge13" class="edge"><title>Node13&#45;&gt;Node14</title>
<path fill="none" stroke="midnightblue" d="M1216.57,-232.025C1294.19,-229.503 1440.47,-220.454 1479.5,-188 1510.24,-162.438 1518.02,-112.886 1519.93,-85.7989"/>
<polygon fill="midnightblue" stroke="midnightblue" points="1523.43,-85.8649 1520.44,-75.7011 1516.44,-85.5119 1523.43,-85.8649"/>
</g>
<!-- Node15 -->
<g id="node15" class="node"><title>Node15</title>
<polygon fill="white" stroke="#bfbfbf" points="825.5,-112.5 825.5,-131.5 917.5,-131.5 917.5,-112.5 825.5,-112.5"/>
<text text-anchor="middle" x="871.5" y="-119.5" font-family="Helvetica,sans-Serif" font-size="10.00">QReadWriteLock</text>
</g>
<!-- Node13&#45;&gt;Node15 -->
<g id="edge15" class="edge"><title>Node13&#45;&gt;Node15</title>
<path fill="none" stroke="midnightblue" d="M1144.27,-224.368C1091.86,-204.89 964.28,-157.479 904.03,-135.089"/>
<polygon fill="midnightblue" stroke="midnightblue" points="905.212,-131.794 894.619,-131.591 902.773,-138.356 905.212,-131.794"/>
</g>
<!-- Node16 -->
<g id="node16" class="node"><title>Node16</title>
<polygon fill="white" stroke="#bfbfbf" points="1063,-168.5 1063,-187.5 1142,-187.5 1142,-168.5 1063,-168.5"/>
<text text-anchor="middle" x="1102.5" y="-175.5" font-family="Helvetica,sans-Serif" font-size="10.00">QMetaObject</text>
</g>
<!-- Node13&#45;&gt;Node16 -->
<g id="edge16" class="edge"><title>Node13&#45;&gt;Node16</title>
<path fill="none" stroke="midnightblue" d="M1157.06,-224.324C1147.35,-216.263 1132.68,-204.077 1121,-194.369"/>
<polygon fill="midnightblue" stroke="midnightblue" points="1123.06,-191.532 1113.13,-187.834 1118.59,-196.916 1123.06,-191.532"/>
</g>
<!-- Node17 -->
<g id="node17" class="node"><title>Node17</title>
<polygon fill="white" stroke="#bfbfbf" points="1199,-168.5 1199,-187.5 1298,-187.5 1298,-168.5 1199,-168.5"/>
<text text-anchor="middle" x="1248.5" y="-175.5" font-family="Helvetica,sans-Serif" font-size="10.00">QCoreApplication</text>
</g>
<!-- Node13&#45;&gt;Node17 -->
<g id="edge17" class="edge"><title>Node13&#45;&gt;Node17</title>
<path fill="none" stroke="midnightblue" d="M1180.51,-224.324C1193.03,-215.979 1212.18,-203.212 1226.97,-193.352"/>
<polygon fill="midnightblue" stroke="midnightblue" points="1229.14,-196.114 1235.52,-187.655 1225.26,-190.289 1229.14,-196.114"/>
</g>
<!-- Node18 -->
<g id="node18" class="node"><title>Node18</title>
<g id="a_node18"><a xlink:href="../../d4/d11/torchttphandler_8h.html" target="_top" xlink:title="torchttphandler.h">
<polygon fill="white" stroke="black" points="1355,-168.5 1355,-187.5 1454,-187.5 1454,-168.5 1355,-168.5"/>
<text text-anchor="middle" x="1404.5" y="-175.5" font-family="Helvetica,sans-Serif" font-size="10.00">torchttphandler.h</text>
</a>
</g>
</g>
<!-- Node13&#45;&gt;Node18 -->
<g id="edge18" class="edge"><title>Node13&#45;&gt;Node18</title>
<path fill="none" stroke="midnightblue" d="M1205.05,-224.444C1246.31,-215.043 1312.64,-199.929 1357.37,-189.739"/>
<polygon fill="midnightblue" stroke="midnightblue" points="1358.15,-193.151 1367.12,-187.516 1356.59,-186.326 1358.15,-193.151"/>
</g>
<!-- Node21 -->
<g id="node21" class="node"><title>Node21</title>
<g id="a_node21"><a xlink:href="../../df/dd7/torchttprequest_8h.html" target="_top" xlink:title="torchttprequest.h">
<polygon fill="white" stroke="black" points="1382,-112.5 1382,-131.5 1483,-131.5 1483,-112.5 1382,-112.5"/>
<text text-anchor="middle" x="1432.5" y="-119.5" font-family="Helvetica,sans-Serif" font-size="10.00">torchttprequest.h</text>
</a>
</g>
</g>
<!-- Node13&#45;&gt;Node21 -->
<g id="edge29" class="edge"><title>Node13&#45;&gt;Node21</title>
<path fill="none" stroke="midnightblue" d="M1216.7,-232.909C1292.26,-231.604 1431.4,-224.204 1462.5,-188 1474.82,-173.657 1461.9,-153.404 1449.39,-139.332"/>
<polygon fill="midnightblue" stroke="midnightblue" points="1451.7,-136.679 1442.27,-131.853 1446.63,-141.507 1451.7,-136.679"/>
</g>
<!-- Node19 -->
<g id="node19" class="node"><title>Node19</title>
<polygon fill="white" stroke="#bfbfbf" points="1231,-56.5 1231,-75.5 1284,-75.5 1284,-56.5 1231,-56.5"/>
<text text-anchor="middle" x="1257.5" y="-63.5" font-family="Helvetica,sans-Serif" font-size="10.00">QString</text>
</g>
<!-- Node18&#45;&gt;Node19 -->
<g id="edge19" class="edge"><title>Node18&#45;&gt;Node19</title>
<path fill="none" stroke="midnightblue" d="M1354.79,-170.638C1328.24,-164.78 1296.92,-153.543 1276.5,-132 1264.76,-119.61 1260.22,-100.367 1258.5,-86.029"/>
<polygon fill="midnightblue" stroke="midnightblue" points="1261.96,-85.4755 1257.63,-75.8066 1254.99,-86.0663 1261.96,-85.4755"/>
</g>
<!-- Node20 -->
<g id="node20" class="node"><title>Node20</title>
<polygon fill="white" stroke="#bfbfbf" points="1285.5,-112.5 1285.5,-131.5 1363.5,-131.5 1363.5,-112.5 1285.5,-112.5"/>
<text text-anchor="middle" x="1324.5" y="-119.5" font-family="Helvetica,sans-Serif" font-size="10.00">QVariantMap</text>
</g>
<!-- Node18&#45;&gt;Node20 -->
<g id="edge20" class="edge"><title>Node18&#45;&gt;Node20</title>
<path fill="none" stroke="midnightblue" d="M1391.65,-168.324C1379.28,-159.979 1360.37,-147.212 1345.76,-137.352"/>
<polygon fill="midnightblue" stroke="midnightblue" points="1347.57,-134.348 1337.32,-131.655 1343.65,-140.15 1347.57,-134.348"/>
</g>
<!-- Node18&#45;&gt;Node21 -->
<g id="edge21" class="edge"><title>Node18&#45;&gt;Node21</title>
<path fill="none" stroke="midnightblue" d="M1409.12,-168.083C1412.96,-160.691 1418.52,-149.953 1423.26,-140.811"/>
<polygon fill="midnightblue" stroke="midnightblue" points="1426.47,-142.24 1427.96,-131.751 1420.25,-139.018 1426.47,-142.24"/>
</g>
<!-- Node21&#45;&gt;Node9 -->
<g id="edge25" class="edge"><title>Node21&#45;&gt;Node9</title>
<path fill="none" stroke="midnightblue" d="M1381.79,-113.136C1378.65,-112.729 1375.53,-112.346 1372.5,-112 1176.2,-89.6247 940.918,-75.0086 843.355,-69.4829"/>
<polygon fill="midnightblue" stroke="midnightblue" points="843.428,-65.9816 833.247,-68.9152 843.035,-72.9706 843.428,-65.9816"/>
</g>
<!-- Node21&#45;&gt;Node14 -->
<g id="edge22" class="edge"><title>Node21&#45;&gt;Node14</title>
<path fill="none" stroke="midnightblue" d="M1446.64,-112.324C1460.37,-103.9 1481.44,-90.9709 1497.56,-81.0741"/>
<polygon fill="midnightblue" stroke="midnightblue" points="1499.7,-83.8678 1506.4,-75.6545 1496.04,-77.9016 1499.7,-83.8678"/>
</g>
<!-- Node21&#45;&gt;Node19 -->
<g id="edge24" class="edge"><title>Node21&#45;&gt;Node19</title>
<path fill="none" stroke="midnightblue" d="M1404.77,-112.444C1374.81,-103.199 1326.95,-88.4296 1293.96,-78.2511"/>
<polygon fill="midnightblue" stroke="midnightblue" points="1294.83,-74.855 1284.24,-75.2508 1292.76,-81.5438 1294.83,-74.855"/>
</g>
<!-- Node22 -->
<g id="node22" class="node"><title>Node22</title>
<polygon fill="white" stroke="#bfbfbf" points="1326,-56.5 1326,-75.5 1367,-75.5 1367,-56.5 1326,-56.5"/>
<text text-anchor="middle" x="1346.5" y="-63.5" font-family="Helvetica,sans-Serif" font-size="10.00">QPair</text>
</g>
<!-- Node21&#45;&gt;Node22 -->
<g id="edge23" class="edge"><title>Node21&#45;&gt;Node22</title>
<path fill="none" stroke="midnightblue" d="M1418.68,-112.324C1405.27,-103.9 1384.68,-90.9709 1368.91,-81.0741"/>
<polygon fill="midnightblue" stroke="midnightblue" points="1370.61,-78.0081 1360.28,-75.6545 1366.89,-83.9364 1370.61,-78.0081"/>
</g>
<!-- Node23 -->
<g id="node23" class="node"><title>Node23</title>
<g id="a_node23"><a xlink:href="../../de/de6/torchttpreader_8h.html" target="_top" xlink:title="torchttpreader.h">
<polygon fill="white" stroke="black" points="1385,-56.5 1385,-75.5 1480,-75.5 1480,-56.5 1385,-56.5"/>
<text text-anchor="middle" x="1432.5" y="-63.5" font-family="Helvetica,sans-Serif" font-size="10.00">torchttpreader.h</text>
</a>
</g>
</g>
<!-- Node21&#45;&gt;Node23 -->
<g id="edge26" class="edge"><title>Node21&#45;&gt;Node23</title>
<path fill="none" stroke="midnightblue" d="M1432.5,-112.083C1432.5,-105.006 1432.5,-94.8611 1432.5,-85.9865"/>
<polygon fill="midnightblue" stroke="midnightblue" points="1436,-85.751 1432.5,-75.7511 1429,-85.7511 1436,-85.751"/>
</g>
<!-- Node24 -->
<g id="node24" class="node"><title>Node24</title>
<polygon fill="white" stroke="#bfbfbf" points="1352,-0.5 1352,-19.5 1423,-19.5 1423,-0.5 1352,-0.5"/>
<text text-anchor="middle" x="1387.5" y="-7.5" font-family="Helvetica,sans-Serif" font-size="10.00">QByteArray</text>
</g>
<!-- Node23&#45;&gt;Node24 -->
<g id="edge27" class="edge"><title>Node23&#45;&gt;Node24</title>
<path fill="none" stroke="midnightblue" d="M1425.07,-56.083C1418.65,-48.3768 1409.19,-37.0333 1401.38,-27.6531"/>
<polygon fill="midnightblue" stroke="midnightblue" points="1403.88,-25.1927 1394.79,-19.7511 1398.51,-29.674 1403.88,-25.1927"/>
</g>
<!-- Node25 -->
<g id="node25" class="node"><title>Node25</title>
<polygon fill="white" stroke="#bfbfbf" points="1441.5,-0.5 1441.5,-19.5 1513.5,-19.5 1513.5,-0.5 1441.5,-0.5"/>
<text text-anchor="middle" x="1477.5" y="-7.5" font-family="Helvetica,sans-Serif" font-size="10.00">QTcpSocket</text>
</g>
<!-- Node23&#45;&gt;Node25 -->
<g id="edge28" class="edge"><title>Node23&#45;&gt;Node25</title>
<path fill="none" stroke="midnightblue" d="M1439.93,-56.083C1446.35,-48.3768 1455.81,-37.0333 1463.62,-27.6531"/>
<polygon fill="midnightblue" stroke="midnightblue" points="1466.49,-29.674 1470.21,-19.7511 1461.12,-25.1927 1466.49,-29.674"/>
</g>
<!-- Node26&#45;&gt;Node12 -->
<g id="edge31" class="edge"><title>Node26&#45;&gt;Node12</title>
<path fill="none" stroke="midnightblue" d="M997.371,-280.075C994.065,-253.945 984.358,-177.211 979.85,-141.577"/>
<polygon fill="midnightblue" stroke="midnightblue" points="983.311,-141.05 978.584,-131.568 976.367,-141.928 983.311,-141.05"/>
</g>
<!-- Node26&#45;&gt;Node13 -->
<g id="edge33" class="edge"><title>Node26&#45;&gt;Node13</title>
<path fill="none" stroke="midnightblue" d="M1025.28,-280.444C1053.83,-271.32 1099.23,-256.813 1131.04,-246.651"/>
<polygon fill="midnightblue" stroke="midnightblue" points="1132.39,-249.894 1140.85,-243.516 1130.26,-243.226 1132.39,-249.894"/>
</g>
<!-- Node27 -->
<g id="node27" class="node"><title>Node27</title>
<polygon fill="white" stroke="#bfbfbf" points="875,-168.5 875,-187.5 930,-187.5 930,-168.5 875,-168.5"/>
<text text-anchor="middle" x="902.5" y="-175.5" font-family="Helvetica,sans-Serif" font-size="10.00">QObject</text>
</g>
<!-- Node26&#45;&gt;Node27 -->
<g id="edge32" class="edge"><title>Node26&#45;&gt;Node27</title>
<path fill="none" stroke="midnightblue" d="M990.967,-280.368C974.984,-262.055 937.452,-219.049 916.78,-195.362"/>
<polygon fill="midnightblue" stroke="midnightblue" points="919.21,-192.824 909.998,-187.591 913.936,-197.427 919.21,-192.824"/>
</g>
<!-- Node28 -->
<g id="node28" class="node"><title>Node28</title>
<g id="a_node28"><a xlink:href="../../d1/df7/torcdevice_8h.html" target="_top" xlink:title="torcdevice.h">
<polygon fill="white" stroke="black" points="755,-224.5 755,-243.5 830,-243.5 830,-224.5 755,-224.5"/>
<text text-anchor="middle" x="792.5" y="-231.5" font-family="Helvetica,sans-Serif" font-size="10.00">torcdevice.h</text>
</a>
</g>
</g>
<!-- Node26&#45;&gt;Node28 -->
<g id="edge34" class="edge"><title>Node26&#45;&gt;Node28</title>
<path fill="none" stroke="midnightblue" d="M965.859,-280.444C930.45,-271.162 873.791,-256.309 834.947,-246.127"/>
<polygon fill="midnightblue" stroke="midnightblue" points="835.549,-242.667 824.989,-243.516 833.774,-249.438 835.549,-242.667"/>
</g>
<!-- Node28&#45;&gt;Node12 -->
<g id="edge36" class="edge"><title>Node28&#45;&gt;Node12</title>
<path fill="none" stroke="midnightblue" d="M800.277,-224.37C812.859,-210.831 838.959,-184.447 865.5,-168 889.24,-153.289 918.618,-141.698 941.328,-133.967"/>
<polygon fill="midnightblue" stroke="midnightblue" points="942.538,-137.253 950.933,-130.79 940.34,-130.608 942.538,-137.253"/>
</g>
<!-- Node28&#45;&gt;Node19 -->
<g id="edge37" class="edge"><title>Node28&#45;&gt;Node19</title>
<path fill="none" stroke="midnightblue" d="M762.419,-224.443C703.989,-206.444 584.81,-162.167 631.5,-112 651.672,-90.326 1088.99,-73.0126 1220.45,-68.2831"/>
<polygon fill="midnightblue" stroke="midnightblue" points="1220.93,-71.7684 1230.8,-67.9142 1220.68,-64.7729 1220.93,-71.7684"/>
</g>
<!-- Node28&#45;&gt;Node27 -->
<g id="edge38" class="edge"><title>Node28&#45;&gt;Node27</title>
<path fill="none" stroke="midnightblue" d="M810.173,-224.324C827.894,-215.625 855.403,-202.12 875.788,-192.113"/>
<polygon fill="midnightblue" stroke="midnightblue" points="877.436,-195.203 884.87,-187.655 874.351,-188.919 877.436,-195.203"/>
</g>
<!-- Node29 -->
<g id="node29" class="node"><title>Node29</title>
<polygon fill="white" stroke="#bfbfbf" points="724,-112.5 724,-131.5 773,-131.5 773,-112.5 724,-112.5"/>
<text text-anchor="middle" x="748.5" y="-119.5" font-family="Helvetica,sans-Serif" font-size="10.00">QHash</text>
</g>
<!-- Node28&#45;&gt;Node29 -->
<g id="edge35" class="edge"><title>Node28&#45;&gt;Node29</title>
<path fill="none" stroke="midnightblue" d="M754.674,-224.938C734.584,-218.525 711.601,-207.299 699.5,-188 688.08,-169.788 707.531,-150.27 725.198,-137.428"/>
<polygon fill="midnightblue" stroke="midnightblue" points="727.304,-140.228 733.585,-131.695 723.354,-134.449 727.304,-140.228"/>
</g>
<!-- Node30 -->
<g id="node30" class="node"><title>Node30</title>
<g id="a_node30"><a xlink:href="../../d8/dfe/torcreferencecounted_8h.html" target="_top" xlink:title="torcreferencecounted.h">
<polygon fill="white" stroke="black" points="447,-168.5 447,-187.5 576,-187.5 576,-168.5 447,-168.5"/>
<text text-anchor="middle" x="511.5" y="-175.5" font-family="Helvetica,sans-Serif" font-size="10.00">torcreferencecounted.h</text>
</a>
</g>
</g>
<!-- Node28&#45;&gt;Node30 -->
<g id="edge39" class="edge"><title>Node28&#45;&gt;Node30</title>
<path fill="none" stroke="midnightblue" d="M754.895,-225.773C706.323,-216.439 621.433,-200.126 565.846,-189.444"/>
<polygon fill="midnightblue" stroke="midnightblue" points="566.304,-185.968 555.824,-187.518 564.983,-192.842 566.304,-185.968"/>
</g>
<!-- Node32 -->
<g id="node32" class="node"><title>Node32</title>
<g id="a_node32"><a xlink:href="../../d2/d5b/torcdevicehandler_8h.html" target="_top" xlink:title="torcdevicehandler.h">
<polygon fill="white" stroke="black" points="708.5,-168.5 708.5,-187.5 818.5,-187.5 818.5,-168.5 708.5,-168.5"/>
<text text-anchor="middle" x="763.5" y="-175.5" font-family="Helvetica,sans-Serif" font-size="10.00">torcdevicehandler.h</text>
</a>
</g>
</g>
<!-- Node28&#45;&gt;Node32 -->
<g id="edge41" class="edge"><title>Node28&#45;&gt;Node32</title>
<path fill="none" stroke="midnightblue" d="M787.711,-224.083C783.742,-216.691 777.975,-205.953 773.065,-196.811"/>
<polygon fill="midnightblue" stroke="midnightblue" points="776.014,-194.905 768.2,-187.751 769.847,-198.217 776.014,-194.905"/>
</g>
<!-- Node31 -->
<g id="node31" class="node"><title>Node31</title>
<polygon fill="white" stroke="#bfbfbf" points="476.5,-112.5 476.5,-131.5 546.5,-131.5 546.5,-112.5 476.5,-112.5"/>
<text text-anchor="middle" x="511.5" y="-119.5" font-family="Helvetica,sans-Serif" font-size="10.00">QAtomicInt</text>
</g>
<!-- Node30&#45;&gt;Node31 -->
<g id="edge40" class="edge"><title>Node30&#45;&gt;Node31</title>
<path fill="none" stroke="midnightblue" d="M511.5,-168.083C511.5,-161.006 511.5,-150.861 511.5,-141.986"/>
<polygon fill="midnightblue" stroke="midnightblue" points="515,-141.751 511.5,-131.751 508,-141.751 515,-141.751"/>
</g>
<!-- Node32&#45;&gt;Node12 -->
<g id="edge43" class="edge"><title>Node32&#45;&gt;Node12</title>
<path fill="none" stroke="midnightblue" d="M797.409,-168.444C836.548,-158.567 900.679,-142.385 940.916,-132.231"/>
<polygon fill="midnightblue" stroke="midnightblue" points="942.009,-135.565 950.849,-129.725 940.296,-128.778 942.009,-135.565"/>
</g>
<!-- Node32&#45;&gt;Node15 -->
<g id="edge44" class="edge"><title>Node32&#45;&gt;Node15</title>
<path fill="none" stroke="midnightblue" d="M780.852,-168.324C798.172,-159.664 825.015,-146.242 845.002,-136.249"/>
<polygon fill="midnightblue" stroke="midnightblue" points="846.812,-139.257 854.191,-131.655 843.681,-132.996 846.812,-139.257"/>
</g>
<!-- Node32&#45;&gt;Node29 -->
<g id="edge42" class="edge"><title>Node32&#45;&gt;Node29</title>
<path fill="none" stroke="midnightblue" d="M761.023,-168.083C759.014,-160.849 756.114,-150.409 753.61,-141.397"/>
<polygon fill="midnightblue" stroke="midnightblue" points="756.98,-140.449 750.931,-131.751 750.235,-142.323 756.98,-140.449"/>
</g>
<!-- Node33 -->
<g id="node33" class="node"><title>Node33</title>
<polygon fill="white" stroke="#bfbfbf" points="640.5,-112.5 640.5,-131.5 698.5,-131.5 698.5,-112.5 640.5,-112.5"/>
<text text-anchor="middle" x="669.5" y="-119.5" font-family="Helvetica,sans-Serif" font-size="10.00">QVariant</text>
</g>
<!-- Node32&#45;&gt;Node33 -->
<g id="edge45" class="edge"><title>Node32&#45;&gt;Node33</title>
<path fill="none" stroke="midnightblue" d="M748.397,-168.324C733.597,-159.822 710.806,-146.729 693.518,-136.797"/>
<polygon fill="midnightblue" stroke="midnightblue" points="694.98,-133.601 684.565,-131.655 691.493,-139.671 694.98,-133.601"/>
</g>
<!-- Node34&#45;&gt;Node12 -->
<g id="edge47" class="edge"><title>Node34&#45;&gt;Node12</title>
<path fill="none" stroke="midnightblue" d="M889.5,-280.075C904.266,-253.719 947.876,-175.878 967.606,-140.661"/>
<polygon fill="midnightblue" stroke="midnightblue" points="970.866,-142.003 972.7,-131.568 964.759,-138.582 970.866,-142.003"/>
</g>
<!-- Node34&#45;&gt;Node13 -->
<g id="edge51" class="edge"><title>Node34&#45;&gt;Node13</title>
<path fill="none" stroke="midnightblue" d="M923.257,-281.605C972.28,-272.25 1057,-256.085 1112.65,-245.466"/>
<polygon fill="midnightblue" stroke="midnightblue" points="1113.52,-248.863 1122.69,-243.551 1112.21,-241.987 1113.52,-248.863"/>
</g>
<!-- Node34&#45;&gt;Node27 -->
<g id="edge48" class="edge"><title>Node34&#45;&gt;Node27</title>
<path fill="none" stroke="midnightblue" d="M885.912,-280.368C888.817,-262.617 895.518,-221.666 899.457,-197.597"/>
<polygon fill="midnightblue" stroke="midnightblue" points="902.933,-198.025 901.094,-187.591 896.025,-196.895 902.933,-198.025"/>
</g>
<!-- Node34&#45;&gt;Node28 -->
<g id="edge50" class="edge"><title>Node34&#45;&gt;Node28</title>
<path fill="none" stroke="midnightblue" d="M869.719,-280.324C855.233,-271.822 832.927,-258.729 816.007,-248.797"/>
<polygon fill="midnightblue" stroke="midnightblue" points="817.641,-245.698 807.245,-243.655 814.097,-251.735 817.641,-245.698"/>
</g>
<!-- Node34&#45;&gt;Node33 -->
<g id="edge49" class="edge"><title>Node34&#45;&gt;Node33</title>
<path fill="none" stroke="midnightblue" d="M845.7,-281.891C816.508,-275.296 776.388,-263.495 745.5,-244 716.521,-225.71 710.382,-217.233 692.5,-188 683.716,-173.64 677.642,-155.443 673.952,-141.957"/>
<polygon fill="midnightblue" stroke="midnightblue" points="677.258,-140.756 671.405,-131.925 670.473,-142.479 677.258,-140.756"/>
</g>
<!-- Node35&#45;&gt;Node26 -->
<g id="edge53" class="edge"><title>Node35&#45;&gt;Node26</title>
<path fill="none" stroke="midnightblue" d="M1001.84,-336.083C1001.32,-329.006 1000.56,-318.861 999.906,-309.986"/>
<polygon fill="midnightblue" stroke="midnightblue" points="1003.38,-309.465 999.148,-299.751 996.397,-309.982 1003.38,-309.465"/>
</g>
<!-- Node36&#45;&gt;Node26 -->
<g id="edge56" class="edge"><title>Node36&#45;&gt;Node26</title>
<path fill="none" stroke="midnightblue" d="M896.673,-336.444C916.409,-327.636 947.385,-313.812 969.993,-303.722"/>
<polygon fill="midnightblue" stroke="midnightblue" points="971.711,-306.788 979.417,-299.516 968.859,-300.396 971.711,-306.788"/>
</g>
<!-- Node36&#45;&gt;Node34 -->
<g id="edge55" class="edge"><title>Node36&#45;&gt;Node34</title>
<path fill="none" stroke="midnightblue" d="M878.656,-336.083C879.584,-328.927 880.918,-318.635 882.077,-309.691"/>
<polygon fill="midnightblue" stroke="midnightblue" points="885.551,-310.118 883.366,-299.751 878.609,-309.218 885.551,-310.118"/>
</g>
</g>
</svg>
        <g id="navigator" transform="translate(0 0)" fill="#404254">
                <rect fill="#f2f5e9" fill-opacity="0.5" stroke="#606060" stroke-width=".5" x="0" y="0" width="60" height="60"/>
                <use id="zoomplus" xlink:href="#zoomPlus" x="17" y="9" onmousedown="handleZoom(evt,'in')"/>
                <use id="zoomminus" xlink:href="#zoomMin" x="42" y="9" onmousedown="handleZoom(evt,'out')"/>
                <use id="reset" xlink:href="#resetDef" x="30" y="36" onmousedown="handleReset()"/>
                <g id="arrowUp" xlink:href="#dirArrow" transform="translate(30 24)" onmousedown="handlePan(0,-1)">
                  <use xlink:href="#rim" fill="#404040">
                        <set attributeName="fill" to="#808080" begin="arrowUp.mouseover" end="arrowUp.mouseout"/>
                  </use>
                  <path fill="none" stroke="white" stroke-width="1.5" d="M0,-3.0v7 M-2.5,-0.5L0,-3.0L2.5,-0.5"/>
                </g>
                <g id="arrowRight" xlink:href="#dirArrow" transform="rotate(90) translate(36 -43)" onmousedown="handlePan(1,0)">
                  <use xlink:href="#rim" fill="#404040">
                        <set attributeName="fill" to="#808080" begin="arrowRight.mouseover" end="arrowRight.mouseout"/>
                  </use>
                  <path fill="none" stroke="white" stroke-width="1.5" d="M0,-3.0v7 M-2.5,-0.5L0,-3.0L2.5,-0.5"/>
                </g>
                <g id="arrowDown" xlink:href="#dirArrow" transform="rotate(180) translate(-30 -48)" onmousedown="handlePan(0,1)">
                  <use xlink:href="#rim" fill="#404040">
                        <set attributeName="fill" to="#808080" begin="arrowDown.mouseover" end="arrowDown.mouseout"/>
                  </use>
                  <path fill="none" stroke="white" stroke-width="1.5" d="M0,-3.0v7 M-2.5,-0.5L0,-3.0L2.5,-0.5"/>
                </g>
                <g id="arrowLeft" xlink:href="#dirArrow" transform="rotate(270) translate(-36 17)" onmousedown="handlePan(-1,0)">
                  <use xlink:href="#rim" fill="#404040">
                        <set attributeName="fill" to="#808080" begin="arrowLeft.mouseover" end="arrowLeft.mouseout"/>
                  </use>
                  <path fill="none" stroke="white" stroke-width="1.5" d="M0,-3.0v7 M-2.5,-0.5L0,-3.0L2.5,-0.5"/>
                </g>
        </g>
        <svg viewBox="0 0 15 15" width="100%" height="30px" preserveAspectRatio="xMaxYMin meet">
         <g id="arrow_out" transform="scale(0.3 0.3)">
          <a xlink:href="torcsysteminputs_8cpp__incl_org.svg" target="_base">
           <rect id="button" ry="5" rx="5" y="6" x="6" height="38" width="38"
                fill="#f2f5e9" fill-opacity="0.5" stroke="#606060" stroke-width="1.0"/>
           <path id="arrow"
             d="M 11.500037,31.436501 C 11.940474,20.09759 22.043105,11.32322 32.158766,21.979434 L 37.068811,17.246167 C 37.068811,17.246167 37.088388,32 37.088388,32 L 22.160133,31.978069 C 22.160133,31.978069 26.997745,27.140456 26.997745,27.140456 C 18.528582,18.264221 13.291696,25.230495 11.500037,31.436501 z"
             style="fill:#404040;"/>
          </a>
         </g>
        </svg>
</svg>
