<?xml version="1.0" encoding="UTF-8" standalone="no"?>
<!DOCTYPE svg PUBLIC "-//W3C//DTD SVG 1.1//EN"
 "http://www.w3.org/Graphics/SVG/1.1/DTD/svg11.dtd">
<!-- Generated by graphviz version 2.38.0 (20140413.2041)
 -->
<!-- Title: torcsysteminputs.cpp Pages: 1 -->
<!--zoomable 420 -->
<svg id="main" version="1.1" xmlns="http://www.w3.org/2000/svg" xmlns:xlink="http://www.w3.org/1999/xlink" xml:space="preserve" onload="init(evt)">
<style type="text/css"><![CDATA[
.edge:hover path { stroke: red; }
.edge:hover polygon { stroke: red; fill: red; }
]]></style>
<script type="text/javascript"><![CDATA[
var edges = document.getElementsByTagName('g');
if (edges && edges.length) {
  for (var i=0;i<edges.length;i++) {
    if (edges[i].id.substr(0,4)=='edge') {
      edges[i].setAttribute('class','edge');
    }
  }
}
]]></script>
        <defs>
                <circle id="rim" cx="0" cy="0" r="7"/>
                <circle id="rim2" cx="0" cy="0" r="3.5"/>
                <g id="zoomPlus">
                        <use xlink:href="#rim" fill="#404040">
                                <set attributeName="fill" to="#808080" begin="zoomplus.mouseover" end="zoomplus.mouseout"/>
                        </use>
                        <path d="M-4,0h8M0,-4v8" fill="none" stroke="white" stroke-width="1.5" pointer-events="none"/>
                </g>
                <g id="zoomMin">
                        <use xlink:href="#rim" fill="#404040">
                                <set attributeName="fill" to="#808080" begin="zoomminus.mouseover" end="zoomminus.mouseout"/>
                        </use>
                        <path d="M-4,0h8" fill="none" stroke="white" stroke-width="1.5" pointer-events="none"/>
                </g>
                <g id="dirArrow">
                        <path fill="none" stroke="white" stroke-width="1.5" d="M0,-3.0v7 M-2.5,-0.5L0,-3.0L2.5,-0.5"/>
                </g>
               <g id="resetDef">
                       <use xlink:href="#rim2" fill="#404040">
                               <set attributeName="fill" to="#808080" begin="reset.mouseover" end="reset.mouseout"/>
                       </use>
               </g>
        </defs>

<script type="text/javascript">
var viewWidth = 1055;
var viewHeight = 420;
var sectionId = 'dynsection-0';
</script>
<script xlink:href="../../svgpan.js"/>
<svg id="graph" class="graph">
<g id="viewport">
<title>torcsysteminputs.cpp</title>
<polygon fill="white" stroke="none" points="-4,4 -4,-416 1051.35,-416 1051.35,4 -4,4"/>
<!-- Node1 -->
<g id="node1" class="node"><title>Node1</title>
<polygon fill="#bfbfbf" stroke="black" points="430,-392.5 430,-411.5 550,-411.5 550,-392.5 430,-392.5"/>
<text text-anchor="middle" x="490" y="-399.5" font-family="Helvetica,sans-Serif" font-size="10.00">torcsysteminputs.cpp</text>
</g>
<!-- Node2 -->
<g id="node2" class="node"><title>Node2</title>
<g id="a_node2"><a xlink:href="../../d4/df9/torclogging_8h.html" target="_top" xlink:title="torclogging.h">
<polygon fill="white" stroke="black" points="257.5,-336.5 257.5,-355.5 336.5,-355.5 336.5,-336.5 257.5,-336.5"/>
<text text-anchor="middle" x="297" y="-343.5" font-family="Helvetica,sans-Serif" font-size="10.00">torclogging.h</text>
</a>
</g>
</g>
<!-- Node1&#45;&gt;Node2 -->
<g id="edge1" class="edge"><title>Node1&#45;&gt;Node2</title>
<path fill="none" stroke="midnightblue" d="M459.419,-392.444C426.385,-383.201 373.612,-368.436 337.234,-358.257"/>
<polygon fill="midnightblue" stroke="midnightblue" points="338.012,-354.84 327.438,-355.516 336.125,-361.582 338.012,-354.84"/>
</g>
<!-- Node6 -->
<g id="node6" class="node"><title>Node6</title>
<g id="a_node6"><a xlink:href="../../d4/d68/torcinputs_8h.html" target="_top" xlink:title="torcinputs.h">
<polygon fill="white" stroke="black" points="400,-336.5 400,-355.5 474,-355.5 474,-336.5 400,-336.5"/>
<text text-anchor="middle" x="437" y="-343.5" font-family="Helvetica,sans-Serif" font-size="10.00">torcinputs.h</text>
</a>
</g>
</g>
<!-- Node1&#45;&gt;Node6 -->
<g id="edge5" class="edge"><title>Node1&#45;&gt;Node6</title>
<path fill="none" stroke="midnightblue" d="M481.248,-392.083C473.53,-384.22 462.095,-372.569 452.783,-363.081"/>
<polygon fill="midnightblue" stroke="midnightblue" points="455.092,-360.436 445.589,-355.751 450.096,-365.34 455.092,-360.436"/>
</g>
<!-- Node31 -->
<g id="node31" class="node"><title>Node31</title>
<g id="a_node31"><a xlink:href="../../d1/dcd/torcsysteminput_8h.html" target="_top" xlink:title="torcsysteminput.h">
<polygon fill="white" stroke="black" points="492,-336.5 492,-355.5 596,-355.5 596,-336.5 492,-336.5"/>
<text text-anchor="middle" x="544" y="-343.5" font-family="Helvetica,sans-Serif" font-size="10.00">torcsysteminput.h</text>
</a>
</g>
</g>
<!-- Node1&#45;&gt;Node31 -->
<g id="edge46" class="edge"><title>Node1&#45;&gt;Node31</title>
<path fill="none" stroke="midnightblue" d="M498.917,-392.083C506.78,-384.22 518.431,-372.569 527.919,-363.081"/>
<polygon fill="midnightblue" stroke="midnightblue" points="530.653,-365.297 535.249,-355.751 525.703,-360.347 530.653,-365.297"/>
</g>
<!-- Node32 -->
<g id="node32" class="node"><title>Node32</title>
<g id="a_node32"><a xlink:href="../../d7/ddf/torcsysteminputs_8h.html" target="_top" xlink:title="torcsysteminputs.h">
<polygon fill="white" stroke="black" points="614.5,-336.5 614.5,-355.5 723.5,-355.5 723.5,-336.5 614.5,-336.5"/>
<text text-anchor="middle" x="669" y="-343.5" font-family="Helvetica,sans-Serif" font-size="10.00">torcsysteminputs.h</text>
</a>
</g>
</g>
<!-- Node1&#45;&gt;Node32 -->
<g id="edge48" class="edge"><title>Node1&#45;&gt;Node32</title>
<path fill="none" stroke="midnightblue" d="M518.363,-392.444C548.738,-383.28 597.11,-368.688 630.816,-358.519"/>
<polygon fill="midnightblue" stroke="midnightblue" points="632.207,-361.756 640.77,-355.516 630.185,-355.054 632.207,-361.756"/>
</g>
<!-- Node3 -->
<g id="node3" class="node"><title>Node3</title>
<polygon fill="white" stroke="#bfbfbf" points="235.5,-280.5 235.5,-299.5 288.5,-299.5 288.5,-280.5 235.5,-280.5"/>
<text text-anchor="middle" x="262" y="-287.5" font-family="Helvetica,sans-Serif" font-size="10.00">stdint.h</text>
</g>
<!-- Node2&#45;&gt;Node3 -->
<g id="edge2" class="edge"><title>Node2&#45;&gt;Node3</title>
<path fill="none" stroke="midnightblue" d="M291.22,-336.083C286.328,-328.534 279.173,-317.495 273.167,-308.23"/>
<polygon fill="midnightblue" stroke="midnightblue" points="276.048,-306.239 267.672,-299.751 270.174,-310.046 276.048,-306.239"/>
</g>
<!-- Node4 -->
<g id="node4" class="node"><title>Node4</title>
<polygon fill="white" stroke="#bfbfbf" points="306.5,-280.5 306.5,-299.5 357.5,-299.5 357.5,-280.5 306.5,-280.5"/>
<text text-anchor="middle" x="332" y="-287.5" font-family="Helvetica,sans-Serif" font-size="10.00">errno.h</text>
</g>
<!-- Node2&#45;&gt;Node4 -->
<g id="edge3" class="edge"><title>Node2&#45;&gt;Node4</title>
<path fill="none" stroke="midnightblue" d="M302.78,-336.083C307.672,-328.534 314.827,-317.495 320.833,-308.23"/>
<polygon fill="midnightblue" stroke="midnightblue" points="323.826,-310.046 326.328,-299.751 317.952,-306.239 323.826,-310.046"/>
</g>
<!-- Node5 -->
<g id="node5" class="node"><title>Node5</title>
<g id="a_node5"><a xlink:href="../../d1/d37/torcloggingdefs_8h.html" target="_top" xlink:title="torcloggingdefs.h">
<polygon fill="white" stroke="black" points="118.5,-280.5 118.5,-299.5 217.5,-299.5 217.5,-280.5 118.5,-280.5"/>
<text text-anchor="middle" x="168" y="-287.5" font-family="Helvetica,sans-Serif" font-size="10.00">torcloggingdefs.h</text>
</a>
</g>
</g>
<!-- Node2&#45;&gt;Node5 -->
<g id="edge4" class="edge"><title>Node2&#45;&gt;Node5</title>
<path fill="none" stroke="midnightblue" d="M276.56,-336.444C255.33,-327.557 221.901,-313.563 197.745,-303.451"/>
<polygon fill="midnightblue" stroke="midnightblue" points="198.921,-300.149 188.345,-299.516 196.218,-306.606 198.921,-300.149"/>
</g>
<!-- Node7 -->
<g id="node7" class="node"><title>Node7</title>
<polygon fill="white" stroke="#bfbfbf" points="414.5,-280.5 414.5,-299.5 455.5,-299.5 455.5,-280.5 414.5,-280.5"/>
<text text-anchor="middle" x="435" y="-287.5" font-family="Helvetica,sans-Serif" font-size="10.00">QList</text>
</g>
<!-- Node6&#45;&gt;Node7 -->
<g id="edge6" class="edge"><title>Node6&#45;&gt;Node7</title>
<path fill="none" stroke="midnightblue" d="M436.67,-336.083C436.408,-329.006 436.032,-318.861 435.703,-309.986"/>
<polygon fill="midnightblue" stroke="midnightblue" points="439.192,-309.615 435.324,-299.751 432.197,-309.874 439.192,-309.615"/>
</g>
<!-- Node8 -->
<g id="node8" class="node"><title>Node8</title>
<polygon fill="white" stroke="#bfbfbf" points="514.5,-112.5 514.5,-131.5 567.5,-131.5 567.5,-112.5 514.5,-112.5"/>
<text text-anchor="middle" x="541" y="-119.5" font-family="Helvetica,sans-Serif" font-size="10.00">QMutex</text>
</g>
<!-- Node6&#45;&gt;Node8 -->
<g id="edge7" class="edge"><title>Node6&#45;&gt;Node8</title>
<path fill="none" stroke="midnightblue" d="M442.728,-336.23C448.449,-327.299 457.328,-312.961 464,-300 493.075,-243.517 521.312,-173.628 534.01,-141.16"/>
<polygon fill="midnightblue" stroke="midnightblue" points="537.342,-142.246 537.699,-131.657 530.817,-139.713 537.342,-142.246"/>
</g>
<!-- Node9 -->
<g id="node9" class="node"><title>Node9</title>
<g id="a_node9"><a xlink:href="../../d3/dee/torchttpservice_8h.html" target="_top" xlink:title="torchttpservice.h">
<polygon fill="white" stroke="black" points="329,-224.5 329,-243.5 427,-243.5 427,-224.5 329,-224.5"/>
<text text-anchor="middle" x="378" y="-231.5" font-family="Helvetica,sans-Serif" font-size="10.00">torchttpservice.h</text>
</a>
</g>
</g>
<!-- Node6&#45;&gt;Node9 -->
<g id="edge8" class="edge"><title>Node6&#45;&gt;Node9</title>
<path fill="none" stroke="midnightblue" d="M430.011,-336.422C423.075,-327.641 412.433,-313.417 405,-300 396.589,-284.819 389.2,-266.475 384.288,-253.151"/>
<polygon fill="midnightblue" stroke="midnightblue" points="387.571,-251.935 380.908,-243.698 380.979,-254.292 387.571,-251.935"/>
</g>
<!-- Node22 -->
<g id="node22" class="node"><title>Node22</title>
<g id="a_node22"><a xlink:href="../../dd/d69/torcinput_8h.html" target="_top" xlink:title="torcinput.h">
<polygon fill="white" stroke="black" points="512,-280.5 512,-299.5 580,-299.5 580,-280.5 512,-280.5"/>
<text text-anchor="middle" x="546" y="-287.5" font-family="Helvetica,sans-Serif" font-size="10.00">torcinput.h</text>
</a>
</g>
</g>
<!-- Node6&#45;&gt;Node22 -->
<g id="edge25" class="edge"><title>Node6&#45;&gt;Node22</title>
<path fill="none" stroke="midnightblue" d="M454.513,-336.324C472.072,-327.625 499.331,-314.12 519.531,-304.113"/>
<polygon fill="midnightblue" stroke="midnightblue" points="521.124,-307.23 528.531,-299.655 518.016,-300.958 521.124,-307.23"/>
</g>
<!-- Node30 -->
<g id="node30" class="node"><title>Node30</title>
<g id="a_node30"><a xlink:href="../../d5/d41/torccentral_8h.html" target="_top" xlink:title="torccentral.h">
<polygon fill="white" stroke="black" points="630.5,-280.5 630.5,-299.5 707.5,-299.5 707.5,-280.5 630.5,-280.5"/>
<text text-anchor="middle" x="669" y="-287.5" font-family="Helvetica,sans-Serif" font-size="10.00">torccentral.h</text>
</a>
</g>
</g>
<!-- Node6&#45;&gt;Node30 -->
<g id="edge40" class="edge"><title>Node6&#45;&gt;Node30</title>
<path fill="none" stroke="midnightblue" d="M473.761,-336.444C514.063,-327.063 578.809,-311.993 622.585,-301.804"/>
<polygon fill="midnightblue" stroke="midnightblue" points="623.465,-305.192 632.411,-299.516 621.878,-298.375 623.465,-305.192"/>
</g>
<!-- Node9&#45;&gt;Node8 -->
<g id="edge10" class="edge"><title>Node9&#45;&gt;Node8</title>
<path fill="none" stroke="midnightblue" d="M389.777,-224.393C407.149,-211.763 440.749,-187.585 470,-168 486.015,-157.277 504.403,-145.641 518.453,-136.888"/>
<polygon fill="midnightblue" stroke="midnightblue" points="520.338,-139.837 526.99,-131.591 516.648,-133.889 520.338,-139.837"/>
</g>
<!-- Node10 -->
<g id="node10" class="node"><title>Node10</title>
<polygon fill="white" stroke="#bfbfbf" points="0,-56.5 0,-75.5 44,-75.5 44,-56.5 0,-56.5"/>
<text text-anchor="middle" x="22" y="-63.5" font-family="Helvetica,sans-Serif" font-size="10.00">QMap</text>
</g>
<!-- Node9&#45;&gt;Node10 -->
<g id="edge9" class="edge"><title>Node9&#45;&gt;Node10</title>
<path fill="none" stroke="midnightblue" d="M328.931,-230.646C256.398,-226.307 125.032,-214.901 87,-188 51.752,-163.068 33.8492,-112.878 26.3879,-85.6287"/>
<polygon fill="midnightblue" stroke="midnightblue" points="29.7435,-84.6227 23.8805,-75.7979 22.9606,-86.3528 29.7435,-84.6227"/>
</g>
<!-- Node11 -->
<g id="node11" class="node"><title>Node11</title>
<polygon fill="white" stroke="#bfbfbf" points="338.5,-168.5 338.5,-187.5 417.5,-187.5 417.5,-168.5 338.5,-168.5"/>
<text text-anchor="middle" x="378" y="-175.5" font-family="Helvetica,sans-Serif" font-size="10.00">QMetaObject</text>
</g>
<!-- Node9&#45;&gt;Node11 -->
<g id="edge11" class="edge"><title>Node9&#45;&gt;Node11</title>
<path fill="none" stroke="midnightblue" d="M378,-224.083C378,-217.006 378,-206.861 378,-197.986"/>
<polygon fill="midnightblue" stroke="midnightblue" points="381.5,-197.751 378,-187.751 374.5,-197.751 381.5,-197.751"/>
</g>
<!-- Node12 -->
<g id="node12" class="node"><title>Node12</title>
<polygon fill="white" stroke="#bfbfbf" points="104.5,-168.5 104.5,-187.5 203.5,-187.5 203.5,-168.5 104.5,-168.5"/>
<text text-anchor="middle" x="154" y="-175.5" font-family="Helvetica,sans-Serif" font-size="10.00">QCoreApplication</text>
</g>
<!-- Node9&#45;&gt;Node12 -->
<g id="edge12" class="edge"><title>Node9&#45;&gt;Node12</title>
<path fill="none" stroke="midnightblue" d="M342.507,-224.444C303.676,-215.083 241.344,-200.056 199.082,-189.868"/>
<polygon fill="midnightblue" stroke="midnightblue" points="199.869,-186.458 189.327,-187.516 198.229,-193.263 199.869,-186.458"/>
</g>
<!-- Node13 -->
<g id="node13" class="node"><title>Node13</title>
<g id="a_node13"><a xlink:href="../../d4/d11/torchttphandler_8h.html" target="_top" xlink:title="torchttphandler.h">
<polygon fill="white" stroke="black" points="221.5,-168.5 221.5,-187.5 320.5,-187.5 320.5,-168.5 221.5,-168.5"/>
<text text-anchor="middle" x="271" y="-175.5" font-family="Helvetica,sans-Serif" font-size="10.00">torchttphandler.h</text>
</a>
</g>
</g>
<!-- Node9&#45;&gt;Node13 -->
<g id="edge13" class="edge"><title>Node9&#45;&gt;Node13</title>
<path fill="none" stroke="midnightblue" d="M360.809,-224.324C343.649,-215.664 317.054,-202.242 297.253,-192.249"/>
<polygon fill="midnightblue" stroke="midnightblue" points="298.653,-189.035 288.149,-187.655 295.499,-195.285 298.653,-189.035"/>
</g>
<!-- Node16 -->
<g id="node16" class="node"><title>Node16</title>
<g id="a_node16"><a xlink:href="../../df/dd7/torchttprequest_8h.html" target="_top" xlink:title="torchttprequest.h">
<polygon fill="white" stroke="black" points="115.5,-112.5 115.5,-131.5 216.5,-131.5 216.5,-112.5 115.5,-112.5"/>
<text text-anchor="middle" x="166" y="-119.5" font-family="Helvetica,sans-Serif" font-size="10.00">torchttprequest.h</text>
</a>
</g>
</g>
<!-- Node9&#45;&gt;Node16 -->
<g id="edge24" class="edge"><title>Node9&#45;&gt;Node16</title>
<path fill="none" stroke="midnightblue" d="M328.999,-232.548C256.107,-230.719 124.512,-222.576 95,-188 77.9933,-168.075 108.432,-148.181 134.591,-135.75"/>
<polygon fill="midnightblue" stroke="midnightblue" points="136.27,-138.832 143.938,-131.522 133.385,-132.454 136.27,-138.832"/>
</g>
<!-- Node14 -->
<g id="node14" class="node"><title>Node14</title>
<polygon fill="white" stroke="#bfbfbf" points="323.5,-56.5 323.5,-75.5 376.5,-75.5 376.5,-56.5 323.5,-56.5"/>
<text text-anchor="middle" x="350" y="-63.5" font-family="Helvetica,sans-Serif" font-size="10.00">QString</text>
</g>
<!-- Node13&#45;&gt;Node14 -->
<g id="edge14" class="edge"><title>Node13&#45;&gt;Node14</title>
<path fill="none" stroke="midnightblue" d="M283.754,-168.273C295.039,-160.017 311.327,-146.723 322,-132 332.357,-117.714 339.905,-99.0009 344.537,-85.3237"/>
<polygon fill="midnightblue" stroke="midnightblue" points="347.929,-86.2056 347.624,-75.6152 341.258,-84.0844 347.929,-86.2056"/>
</g>
<!-- Node15 -->
<g id="node15" class="node"><title>Node15</title>
<polygon fill="white" stroke="#bfbfbf" points="235,-112.5 235,-131.5 313,-131.5 313,-112.5 235,-112.5"/>
<text text-anchor="middle" x="274" y="-119.5" font-family="Helvetica,sans-Serif" font-size="10.00">QVariantMap</text>
</g>
<!-- Node13&#45;&gt;Node15 -->
<g id="edge15" class="edge"><title>Node13&#45;&gt;Node15</title>
<path fill="none" stroke="midnightblue" d="M271.495,-168.083C271.889,-161.006 272.452,-150.861 272.945,-141.986"/>
<polygon fill="midnightblue" stroke="midnightblue" points="276.454,-141.93 273.514,-131.751 269.464,-141.542 276.454,-141.93"/>
</g>
<!-- Node13&#45;&gt;Node16 -->
<g id="edge16" class="edge"><title>Node13&#45;&gt;Node16</title>
<path fill="none" stroke="midnightblue" d="M254.13,-168.324C237.291,-159.664 211.193,-146.242 191.762,-136.249"/>
<polygon fill="midnightblue" stroke="midnightblue" points="193.322,-133.116 182.828,-131.655 190.12,-139.341 193.322,-133.116"/>
</g>
<!-- Node16&#45;&gt;Node10 -->
<g id="edge17" class="edge"><title>Node16&#45;&gt;Node10</title>
<path fill="none" stroke="midnightblue" d="M143.183,-112.444C119.027,-103.385 80.7235,-89.0213 53.6547,-78.8705"/>
<polygon fill="midnightblue" stroke="midnightblue" points="54.8296,-75.5731 44.2373,-75.339 52.3717,-82.1274 54.8296,-75.5731"/>
</g>
<!-- Node16&#45;&gt;Node14 -->
<g id="edge19" class="edge"><title>Node16&#45;&gt;Node14</title>
<path fill="none" stroke="midnightblue" d="M195.155,-112.444C227.251,-103.024 278.895,-87.8679 313.618,-77.6774"/>
<polygon fill="midnightblue" stroke="midnightblue" points="314.761,-80.9895 323.371,-74.8151 312.79,-74.2728 314.761,-80.9895"/>
</g>
<!-- Node17 -->
<g id="node17" class="node"><title>Node17</title>
<polygon fill="white" stroke="#bfbfbf" points="264.5,-56.5 264.5,-75.5 305.5,-75.5 305.5,-56.5 264.5,-56.5"/>
<text text-anchor="middle" x="285" y="-63.5" font-family="Helvetica,sans-Serif" font-size="10.00">QPair</text>
</g>
<!-- Node16&#45;&gt;Node17 -->
<g id="edge18" class="edge"><title>Node16&#45;&gt;Node17</title>
<path fill="none" stroke="midnightblue" d="M184.856,-112.444C204.266,-103.636 234.73,-89.8116 256.965,-79.722"/>
<polygon fill="midnightblue" stroke="midnightblue" points="258.572,-82.836 266.232,-75.5164 255.68,-76.4615 258.572,-82.836"/>
</g>
<!-- Node18 -->
<g id="node18" class="node"><title>Node18</title>
<polygon fill="white" stroke="#bfbfbf" points="62.5,-56.5 62.5,-75.5 133.5,-75.5 133.5,-56.5 62.5,-56.5"/>
<text text-anchor="middle" x="98" y="-63.5" font-family="Helvetica,sans-Serif" font-size="10.00">QDateTime</text>
</g>
<!-- Node16&#45;&gt;Node18 -->
<g id="edge20" class="edge"><title>Node16&#45;&gt;Node18</title>
<path fill="none" stroke="midnightblue" d="M155.075,-112.324C144.825,-104.185 129.279,-91.8395 116.999,-82.0874"/>
<polygon fill="midnightblue" stroke="midnightblue" points="119.132,-79.3119 109.124,-75.8339 114.779,-84.7937 119.132,-79.3119"/>
</g>
<!-- Node19 -->
<g id="node19" class="node"><title>Node19</title>
<g id="a_node19"><a xlink:href="../../de/de6/torchttpreader_8h.html" target="_top" xlink:title="torchttpreader.h">
<polygon fill="white" stroke="black" points="151.5,-56.5 151.5,-75.5 246.5,-75.5 246.5,-56.5 151.5,-56.5"/>
<text text-anchor="middle" x="199" y="-63.5" font-family="Helvetica,sans-Serif" font-size="10.00">torchttpreader.h</text>
</a>
</g>
</g>
<!-- Node16&#45;&gt;Node19 -->
<g id="edge21" class="edge"><title>Node16&#45;&gt;Node19</title>
<path fill="none" stroke="midnightblue" d="M171.449,-112.083C176.014,-104.613 182.668,-93.7244 188.293,-84.5199"/>
<polygon fill="midnightblue" stroke="midnightblue" points="191.424,-86.109 193.652,-75.7511 185.451,-82.4588 191.424,-86.109"/>
</g>
<!-- Node20 -->
<g id="node20" class="node"><title>Node20</title>
<polygon fill="white" stroke="#bfbfbf" points="118.5,-0.5 118.5,-19.5 189.5,-19.5 189.5,-0.5 118.5,-0.5"/>
<text text-anchor="middle" x="154" y="-7.5" font-family="Helvetica,sans-Serif" font-size="10.00">QByteArray</text>
</g>
<!-- Node19&#45;&gt;Node20 -->
<g id="edge22" class="edge"><title>Node19&#45;&gt;Node20</title>
<path fill="none" stroke="midnightblue" d="M191.569,-56.083C185.147,-48.3768 175.694,-37.0333 167.878,-27.6531"/>
<polygon fill="midnightblue" stroke="midnightblue" points="170.383,-25.1927 161.293,-19.7511 165.006,-29.674 170.383,-25.1927"/>
</g>
<!-- Node21 -->
<g id="node21" class="node"><title>Node21</title>
<polygon fill="white" stroke="#bfbfbf" points="208,-0.5 208,-19.5 280,-19.5 280,-0.5 208,-0.5"/>
<text text-anchor="middle" x="244" y="-7.5" font-family="Helvetica,sans-Serif" font-size="10.00">QTcpSocket</text>
</g>
<!-- Node19&#45;&gt;Node21 -->
<g id="edge23" class="edge"><title>Node19&#45;&gt;Node21</title>
<path fill="none" stroke="midnightblue" d="M206.431,-56.083C212.853,-48.3768 222.306,-37.0333 230.122,-27.6531"/>
<polygon fill="midnightblue" stroke="midnightblue" points="232.994,-29.674 236.707,-19.7511 227.617,-25.1927 232.994,-29.674"/>
</g>
<!-- Node22&#45;&gt;Node8 -->
<g id="edge26" class="edge"><title>Node22&#45;&gt;Node8</title>
<path fill="none" stroke="midnightblue" d="M545.731,-280.075C544.944,-253.945 542.633,-177.211 541.56,-141.577"/>
<polygon fill="midnightblue" stroke="midnightblue" points="545.058,-141.458 541.258,-131.568 538.061,-141.669 545.058,-141.458"/>
</g>
<!-- Node22&#45;&gt;Node9 -->
<g id="edge28" class="edge"><title>Node22&#45;&gt;Node9</title>
<path fill="none" stroke="midnightblue" d="M519.38,-280.444C490.994,-271.32 445.863,-256.813 414.247,-246.651"/>
<polygon fill="midnightblue" stroke="midnightblue" points="415.087,-243.244 404.496,-243.516 412.945,-249.909 415.087,-243.244"/>
</g>
<!-- Node23 -->
<g id="node23" class="node"><title>Node23</title>
<polygon fill="white" stroke="#bfbfbf" points="978.5,-168.5 978.5,-187.5 1033.5,-187.5 1033.5,-168.5 978.5,-168.5"/>
<text text-anchor="middle" x="1006" y="-175.5" font-family="Helvetica,sans-Serif" font-size="10.00">QObject</text>
</g>
<!-- Node22&#45;&gt;Node23 -->
<g id="edge27" class="edge"><title>Node22&#45;&gt;Node23</title>
<path fill="none" stroke="midnightblue" d="M580.213,-282.185C619.865,-274.066 687.058,-259.622 744,-244 771.922,-236.34 778.055,-231.575 806,-224 874.529,-205.424 894.989,-204.789 967.977,-188.182"/>
<polygon fill="midnightblue" stroke="midnightblue" points="969.174,-191.498 978.135,-185.845 967.605,-184.676 969.174,-191.498"/>
</g>
<!-- Node24 -->
<g id="node24" class="node"><title>Node24</title>
<g id="a_node24"><a xlink:href="../../d1/df7/torcdevice_8h.html" target="_top" xlink:title="torcdevice.h">
<polygon fill="white" stroke="black" points="659.5,-224.5 659.5,-243.5 734.5,-243.5 734.5,-224.5 659.5,-224.5"/>
<text text-anchor="middle" x="697" y="-231.5" font-family="Helvetica,sans-Serif" font-size="10.00">torcdevice.h</text>
</a>
</g>
</g>
<!-- Node22&#45;&gt;Node24 -->
<g id="edge29" class="edge"><title>Node22&#45;&gt;Node24</title>
<path fill="none" stroke="midnightblue" d="M569.926,-280.444C595.219,-271.399 635.302,-257.064 663.68,-246.916"/>
<polygon fill="midnightblue" stroke="midnightblue" points="664.948,-250.179 673.186,-243.516 662.591,-243.588 664.948,-250.179"/>
</g>
<!-- Node24&#45;&gt;Node8 -->
<g id="edge31" class="edge"><title>Node24&#45;&gt;Node8</title>
<path fill="none" stroke="midnightblue" d="M681.39,-224.457C665.946,-215.816 641.812,-201.798 622,-188 599.529,-172.35 575.211,-152.392 559.147,-138.745"/>
<polygon fill="midnightblue" stroke="midnightblue" points="561.007,-135.73 551.136,-131.881 556.452,-141.045 561.007,-135.73"/>
</g>
<!-- Node24&#45;&gt;Node14 -->
<g id="edge32" class="edge"><title>Node24&#45;&gt;Node14</title>
<path fill="none" stroke="midnightblue" d="M688.736,-224.163C663.754,-197.533 589.885,-119.424 576,-112 515.12,-79.4515 433.63,-70.3362 386.975,-67.852"/>
<polygon fill="midnightblue" stroke="midnightblue" points="386.882,-64.3442 376.733,-67.3842 386.562,-71.3369 386.882,-64.3442"/>
</g>
<!-- Node24&#45;&gt;Node23 -->
<g id="edge33" class="edge"><title>Node24&#45;&gt;Node23</title>
<path fill="none" stroke="midnightblue" d="M734.56,-227.692C785.284,-220.327 878.693,-206.064 968.131,-188.047"/>
<polygon fill="midnightblue" stroke="midnightblue" points="969.068,-191.428 978.17,-186.005 967.673,-184.569 969.068,-191.428"/>
</g>
<!-- Node25 -->
<g id="node25" class="node"><title>Node25</title>
<polygon fill="white" stroke="#bfbfbf" points="838.5,-112.5 838.5,-131.5 887.5,-131.5 887.5,-112.5 838.5,-112.5"/>
<text text-anchor="middle" x="863" y="-119.5" font-family="Helvetica,sans-Serif" font-size="10.00">QHash</text>
</g>
<!-- Node24&#45;&gt;Node25 -->
<g id="edge30" class="edge"><title>Node24&#45;&gt;Node25</title>
<path fill="none" stroke="midnightblue" d="M726.134,-224.368C748.438,-216.908 779.296,-204.688 803,-188 822.135,-174.529 839.748,-154.066 850.871,-139.707"/>
<polygon fill="midnightblue" stroke="midnightblue" points="853.701,-141.768 856.915,-131.672 848.106,-137.56 853.701,-141.768"/>
</g>
<!-- Node26 -->
<g id="node26" class="node"><title>Node26</title>
<g id="a_node26"><a xlink:href="../../d8/dfe/torcreferencecounted_8h.html" target="_top" xlink:title="torcreferencecounted.h">
<polygon fill="white" stroke="black" points="664.5,-168.5 664.5,-187.5 793.5,-187.5 793.5,-168.5 664.5,-168.5"/>
<text text-anchor="middle" x="729" y="-175.5" font-family="Helvetica,sans-Serif" font-size="10.00">torcreferencecounted.h</text>
</a>
</g>
</g>
<!-- Node24&#45;&gt;Node26 -->
<g id="edge34" class="edge"><title>Node24&#45;&gt;Node26</title>
<path fill="none" stroke="midnightblue" d="M702.284,-224.083C706.711,-216.613 713.163,-205.724 718.618,-196.52"/>
<polygon fill="midnightblue" stroke="midnightblue" points="721.727,-198.138 723.814,-187.751 715.705,-194.57 721.727,-198.138"/>
</g>
<!-- Node28 -->
<g id="node28" class="node"><title>Node28</title>
<g id="a_node28"><a xlink:href="../../d2/d5b/torcdevicehandler_8h.html" target="_top" xlink:title="torcdevicehandler.h">
<polygon fill="white" stroke="black" points="850,-168.5 850,-187.5 960,-187.5 960,-168.5 850,-168.5"/>
<text text-anchor="middle" x="905" y="-175.5" font-family="Helvetica,sans-Serif" font-size="10.00">torcdevicehandler.h</text>
</a>
</g>
</g>
<!-- Node24&#45;&gt;Node28 -->
<g id="edge36" class="edge"><title>Node24&#45;&gt;Node28</title>
<path fill="none" stroke="midnightblue" d="M729.958,-224.444C765.787,-215.142 823.163,-200.246 862.391,-190.062"/>
<polygon fill="midnightblue" stroke="midnightblue" points="863.396,-193.417 872.196,-187.516 861.637,-186.642 863.396,-193.417"/>
</g>
<!-- Node27 -->
<g id="node27" class="node"><title>Node27</title>
<polygon fill="white" stroke="#bfbfbf" points="694,-112.5 694,-131.5 764,-131.5 764,-112.5 694,-112.5"/>
<text text-anchor="middle" x="729" y="-119.5" font-family="Helvetica,sans-Serif" font-size="10.00">QAtomicInt</text>
</g>
<!-- Node26&#45;&gt;Node27 -->
<g id="edge35" class="edge"><title>Node26&#45;&gt;Node27</title>
<path fill="none" stroke="midnightblue" d="M729,-168.083C729,-161.006 729,-150.861 729,-141.986"/>
<polygon fill="midnightblue" stroke="midnightblue" points="732.5,-141.751 729,-131.751 725.5,-141.751 732.5,-141.751"/>
</g>
<!-- Node28&#45;&gt;Node8 -->
<g id="edge38" class="edge"><title>Node28&#45;&gt;Node8</title>
<path fill="none" stroke="midnightblue" d="M849.716,-168.799C774.547,-157.647 642.126,-138.002 577.942,-128.48"/>
<polygon fill="midnightblue" stroke="midnightblue" points="578.284,-124.993 567.879,-126.988 577.257,-131.917 578.284,-124.993"/>
</g>
<!-- Node28&#45;&gt;Node25 -->
<g id="edge37" class="edge"><title>Node28&#45;&gt;Node25</title>
<path fill="none" stroke="midnightblue" d="M898.065,-168.083C892.071,-160.377 883.248,-149.033 875.952,-139.653"/>
<polygon fill="midnightblue" stroke="midnightblue" points="878.709,-137.496 869.806,-131.751 873.183,-141.793 878.709,-137.496"/>
</g>
<!-- Node29 -->
<g id="node29" class="node"><title>Node29</title>
<polygon fill="white" stroke="#bfbfbf" points="954,-112.5 954,-131.5 1012,-131.5 1012,-112.5 954,-112.5"/>
<text text-anchor="middle" x="983" y="-119.5" font-family="Helvetica,sans-Serif" font-size="10.00">QVariant</text>
</g>
<!-- Node28&#45;&gt;Node29 -->
<g id="edge39" class="edge"><title>Node28&#45;&gt;Node29</title>
<path fill="none" stroke="midnightblue" d="M917.532,-168.324C929.586,-159.979 948.027,-147.212 962.269,-137.352"/>
<polygon fill="midnightblue" stroke="midnightblue" points="964.269,-140.224 970.499,-131.655 960.285,-134.469 964.269,-140.224"/>
</g>
<!-- Node30&#45;&gt;Node8 -->
<g id="edge41" class="edge"><title>Node30&#45;&gt;Node8</title>
<path fill="none" stroke="midnightblue" d="M662.118,-280.075C641.621,-253.493 580.74,-174.538 553.926,-139.763"/>
<polygon fill="midnightblue" stroke="midnightblue" points="556.485,-137.35 547.607,-131.568 550.941,-141.624 556.485,-137.35"/>
</g>
<!-- Node30&#45;&gt;Node9 -->
<g id="edge45" class="edge"><title>Node30&#45;&gt;Node9</title>
<path fill="none" stroke="midnightblue" d="M630.357,-281.829C580.04,-272.492 491.723,-256.103 434.048,-245.401"/>
<polygon fill="midnightblue" stroke="midnightblue" points="434.476,-241.92 424.006,-243.537 433.199,-248.803 434.476,-241.92"/>
</g>
<!-- Node30&#45;&gt;Node23 -->
<g id="edge42" class="edge"><title>Node30&#45;&gt;Node23</title>
<path fill="none" stroke="midnightblue" d="M695.163,-280.46C754.885,-260.966 901.349,-213.159 969.73,-190.839"/>
<polygon fill="midnightblue" stroke="midnightblue" points="971.201,-194.041 979.621,-187.61 969.028,-187.386 971.201,-194.041"/>
</g>
<!-- Node30&#45;&gt;Node24 -->
<g id="edge44" class="edge"><title>Node30&#45;&gt;Node24</title>
<path fill="none" stroke="midnightblue" d="M673.624,-280.083C677.456,-272.691 683.024,-261.953 687.765,-252.811"/>
<polygon fill="midnightblue" stroke="midnightblue" points="690.966,-254.24 692.462,-243.751 684.752,-251.018 690.966,-254.24"/>
</g>
<!-- Node30&#45;&gt;Node29 -->
<g id="edge43" class="edge"><title>Node30&#45;&gt;Node29</title>
<path fill="none" stroke="midnightblue" d="M707.755,-284.505C795.014,-273.499 1002.44,-242.074 1043,-188 1057.33,-168.887 1032.09,-149 1010.08,-136.338"/>
<polygon fill="midnightblue" stroke="midnightblue" points="1011.73,-133.253 1001.27,-131.537 1008.38,-139.398 1011.73,-133.253"/>
</g>
<!-- Node31&#45;&gt;Node22 -->
<g id="edge47" class="edge"><title>Node31&#45;&gt;Node22</title>
<path fill="none" stroke="midnightblue" d="M544.33,-336.083C544.592,-329.006 544.968,-318.861 545.297,-309.986"/>
<polygon fill="midnightblue" stroke="midnightblue" points="548.803,-309.874 545.676,-299.751 541.808,-309.615 548.803,-309.874"/>
</g>
<!-- Node32&#45;&gt;Node22 -->
<g id="edge50" class="edge"><title>Node32&#45;&gt;Node22</title>
<path fill="none" stroke="midnightblue" d="M649.51,-336.444C629.358,-327.596 597.677,-313.687 574.669,-303.586"/>
<polygon fill="midnightblue" stroke="midnightblue" points="575.962,-300.332 565.399,-299.516 573.148,-306.741 575.962,-300.332"/>
</g>
<!-- Node32&#45;&gt;Node30 -->
<g id="edge49" class="edge"><title>Node32&#45;&gt;Node30</title>
<path fill="none" stroke="midnightblue" d="M669,-336.083C669,-329.006 669,-318.861 669,-309.986"/>
<polygon fill="midnightblue" stroke="midnightblue" points="672.5,-309.751 669,-299.751 665.5,-309.751 672.5,-309.751"/>
</g>
</g>
</svg>
        <g id="navigator" transform="translate(0 0)" fill="#404254">
                <rect fill="#f2f5e9" fill-opacity="0.5" stroke="#606060" stroke-width=".5" x="0" y="0" width="60" height="60"/>
                <use id="zoomplus" xlink:href="#zoomPlus" x="17" y="9" onmousedown="handleZoom(evt,'in')"/>
                <use id="zoomminus" xlink:href="#zoomMin" x="42" y="9" onmousedown="handleZoom(evt,'out')"/>
                <use id="reset" xlink:href="#resetDef" x="30" y="36" onmousedown="handleReset()"/>
                <g id="arrowUp" xlink:href="#dirArrow" transform="translate(30 24)" onmousedown="handlePan(0,-1)">
                  <use xlink:href="#rim" fill="#404040">
                        <set attributeName="fill" to="#808080" begin="arrowUp.mouseover" end="arrowUp.mouseout"/>
                  </use>
                  <path fill="none" stroke="white" stroke-width="1.5" d="M0,-3.0v7 M-2.5,-0.5L0,-3.0L2.5,-0.5"/>
                </g>
                <g id="arrowRight" xlink:href="#dirArrow" transform="rotate(90) translate(36 -43)" onmousedown="handlePan(1,0)">
                  <use xlink:href="#rim" fill="#404040">
                        <set attributeName="fill" to="#808080" begin="arrowRight.mouseover" end="arrowRight.mouseout"/>
                  </use>
                  <path fill="none" stroke="white" stroke-width="1.5" d="M0,-3.0v7 M-2.5,-0.5L0,-3.0L2.5,-0.5"/>
                </g>
                <g id="arrowDown" xlink:href="#dirArrow" transform="rotate(180) translate(-30 -48)" onmousedown="handlePan(0,1)">
                  <use xlink:href="#rim" fill="#404040">
                        <set attributeName="fill" to="#808080" begin="arrowDown.mouseover" end="arrowDown.mouseout"/>
                  </use>
                  <path fill="none" stroke="white" stroke-width="1.5" d="M0,-3.0v7 M-2.5,-0.5L0,-3.0L2.5,-0.5"/>
                </g>
                <g id="arrowLeft" xlink:href="#dirArrow" transform="rotate(270) translate(-36 17)" onmousedown="handlePan(-1,0)">
                  <use xlink:href="#rim" fill="#404040">
                        <set attributeName="fill" to="#808080" begin="arrowLeft.mouseover" end="arrowLeft.mouseout"/>
                  </use>
                  <path fill="none" stroke="white" stroke-width="1.5" d="M0,-3.0v7 M-2.5,-0.5L0,-3.0L2.5,-0.5"/>
                </g>
        </g>
        <svg viewBox="0 0 15 15" width="100%" height="30px" preserveAspectRatio="xMaxYMin meet">
         <g id="arrow_out" transform="scale(0.3 0.3)">
          <a xlink:href="torcsysteminputs_8cpp__incl_org.svg" target="_base">
           <rect id="button" ry="5" rx="5" y="6" x="6" height="38" width="38"
                fill="#f2f5e9" fill-opacity="0.5" stroke="#606060" stroke-width="1.0"/>
           <path id="arrow"
             d="M 11.500037,31.436501 C 11.940474,20.09759 22.043105,11.32322 32.158766,21.979434 L 37.068811,17.246167 C 37.068811,17.246167 37.088388,32 37.088388,32 L 22.160133,31.978069 C 22.160133,31.978069 26.997745,27.140456 26.997745,27.140456 C 18.528582,18.264221 13.291696,25.230495 11.500037,31.436501 z"
             style="fill:#404040;"/>
          </a>
         </g>
        </svg>
</svg>
