<?xml version="1.0" encoding="UTF-8" standalone="no"?>
<!DOCTYPE svg PUBLIC "-//W3C//DTD SVG 1.1//EN"
 "http://www.w3.org/Graphics/SVG/1.1/DTD/svg11.dtd">
<!-- Generated by graphviz version 2.38.0 (20140413.2041)
 -->
<!-- Title: torccocoa.mm Pages: 1 -->
<svg width="438pt" height="151pt"
 viewBox="0.00 0.00 438.00 151.00" xmlns="http://www.w3.org/2000/svg" xmlns:xlink="http://www.w3.org/1999/xlink">
<g id="graph0" class="graph" transform="scale(1 1) rotate(0) translate(4 147)">
<title>torccocoa.mm</title>
<polygon fill="white" stroke="none" points="-4,4 -4,-147 434,-147 434,4 -4,4"/>
<!-- Node1 -->
<g id="node1" class="node"><title>Node1</title>
<polygon fill="#bfbfbf" stroke="black" points="243.5,-123.5 243.5,-142.5 329.5,-142.5 329.5,-123.5 243.5,-123.5"/>
<text text-anchor="middle" x="286.5" y="-130.5" font-family="Helvetica,sans-Serif" font-size="10.00">torccocoa.mm</text>
</g>
<!-- Node2 -->
<g id="node2" class="node"><title>Node2</title>
<g id="a_node2"><a xlink:href="../../d4/df9/torclogging_8h.html" target="_top" xlink:title="torclogging.h">
<polygon fill="white" stroke="black" points="89,-67.5 89,-86.5 168,-86.5 168,-67.5 89,-67.5"/>
<text text-anchor="middle" x="128.5" y="-74.5" font-family="Helvetica,sans-Serif" font-size="10.00">torclogging.h</text>
</a>
</g>
</g>
<!-- Node1&#45;&gt;Node2 -->
<g id="edge1" class="edge"><title>Node1&#45;&gt;Node2</title>
<path fill="none" stroke="midnightblue" d="M261.464,-123.444C234.884,-114.359 192.691,-99.9388 162.977,-89.7831"/>
<polygon fill="midnightblue" stroke="midnightblue" points="164.013,-86.4386 153.418,-86.5164 161.749,-93.0625 164.013,-86.4386"/>
</g>
<!-- Node6 -->
<g id="node6" class="node"><title>Node6</title>
<g id="a_node6"><a xlink:href="../../d6/de4/torccocoa_8h.html" target="_top" xlink:title="torccocoa.h">
<polygon fill="white" stroke="black" points="250,-67.5 250,-86.5 323,-86.5 323,-67.5 250,-67.5"/>
<text text-anchor="middle" x="286.5" y="-74.5" font-family="Helvetica,sans-Serif" font-size="10.00">torccocoa.h</text>
</a>
</g>
</g>
<!-- Node1&#45;&gt;Node6 -->
<g id="edge5" class="edge"><title>Node1&#45;&gt;Node6</title>
<path fill="none" stroke="midnightblue" d="M286.5,-123.083C286.5,-116.006 286.5,-105.861 286.5,-96.9865"/>
<polygon fill="midnightblue" stroke="midnightblue" points="290,-96.751 286.5,-86.7511 283,-96.7511 290,-96.751"/>
</g>
<!-- Node8 -->
<g id="node8" class="node"><title>Node8</title>
<polygon fill="white" stroke="#bfbfbf" points="341,-67.5 341,-86.5 430,-86.5 430,-67.5 341,-67.5"/>
<text text-anchor="middle" x="385.5" y="-74.5" font-family="Helvetica,sans-Serif" font-size="10.00">Cocoa/Cocoa.h</text>
</g>
<!-- Node1&#45;&gt;Node8 -->
<g id="edge7" class="edge"><title>Node1&#45;&gt;Node8</title>
<path fill="none" stroke="midnightblue" d="M302.406,-123.324C318.138,-114.743 342.442,-101.486 360.709,-91.5224"/>
<polygon fill="midnightblue" stroke="midnightblue" points="362.53,-94.5157 369.633,-86.6545 359.178,-88.3704 362.53,-94.5157"/>
</g>
<!-- Node3 -->
<g id="node3" class="node"><title>Node3</title>
<polygon fill="white" stroke="#bfbfbf" points="0,-6 0,-25 53,-25 53,-6 0,-6"/>
<text text-anchor="middle" x="26.5" y="-13" font-family="Helvetica,sans-Serif" font-size="10.00">stdint.h</text>
</g>
<!-- Node2&#45;&gt;Node3 -->
<g id="edge2" class="edge"><title>Node2&#45;&gt;Node3</title>
<path fill="none" stroke="midnightblue" d="M113.886,-67.4751C97.1467,-57.7106 69.4955,-41.5807 49.7814,-30.0808"/>
<polygon fill="midnightblue" stroke="midnightblue" points="51.4884,-27.0246 41.087,-25.0091 47.9612,-33.0711 51.4884,-27.0246"/>
</g>
<!-- Node4 -->
<g id="node4" class="node"><title>Node4</title>
<polygon fill="white" stroke="#bfbfbf" points="71,-6 71,-25 122,-25 122,-6 71,-6"/>
<text text-anchor="middle" x="96.5" y="-13" font-family="Helvetica,sans-Serif" font-size="10.00">errno.h</text>
</g>
<!-- Node2&#45;&gt;Node4 -->
<g id="edge3" class="edge"><title>Node2&#45;&gt;Node4</title>
<path fill="none" stroke="midnightblue" d="M123.915,-67.4751C119.258,-58.8152 111.908,-45.1486 105.99,-34.1453"/>
<polygon fill="midnightblue" stroke="midnightblue" points="108.895,-32.1584 101.076,-25.0091 102.73,-35.474 108.895,-32.1584"/>
</g>
<!-- Node5 -->
<g id="node5" class="node"><title>Node5</title>
<g id="a_node5"><a xlink:href="../../d1/d37/torcloggingdefs_8h.html" target="_top" xlink:title="torcloggingdefs.h">
<polygon fill="white" stroke="black" points="140,-6 140,-25 239,-25 239,-6 140,-6"/>
<text text-anchor="middle" x="189.5" y="-13" font-family="Helvetica,sans-Serif" font-size="10.00">torcloggingdefs.h</text>
</a>
</g>
</g>
<!-- Node2&#45;&gt;Node5 -->
<g id="edge4" class="edge"><title>Node2&#45;&gt;Node5</title>
<path fill="none" stroke="midnightblue" d="M137.24,-67.4751C146.662,-58.285 161.864,-43.4563 173.449,-32.156"/>
<polygon fill="midnightblue" stroke="midnightblue" points="176.062,-34.4971 180.776,-25.0091 171.174,-29.4861 176.062,-34.4971"/>
</g>
<!-- Node7 -->
<g id="node7" class="node"><title>Node7</title>
<polygon fill="white" stroke="#bfbfbf" points="257.5,-0.5 257.5,-30.5 379.5,-30.5 379.5,-0.5 257.5,-0.5"/>
<text text-anchor="start" x="265.5" y="-18.5" font-family="Helvetica,sans-Serif" font-size="10.00">ApplicationServices</text>
<text text-anchor="middle" x="318.5" y="-7.5" font-family="Helvetica,sans-Serif" font-size="10.00">/ApplicationServices.h</text>
</g>
<!-- Node6&#45;&gt;Node7 -->
<g id="edge6" class="edge"><title>Node6&#45;&gt;Node7</title>
<path fill="none" stroke="midnightblue" d="M291.085,-67.4751C295.014,-60.1698 300.859,-49.3016 306.144,-39.475"/>
<polygon fill="midnightblue" stroke="midnightblue" points="309.304,-40.9879 310.958,-30.523 303.139,-37.6722 309.304,-40.9879"/>
</g>
</g>
</svg>
