<?xml version="1.0" encoding="UTF-8" standalone="no"?>
<!DOCTYPE svg PUBLIC "-//W3C//DTD SVG 1.1//EN"
 "http://www.w3.org/Graphics/SVG/1.1/DTD/svg11.dtd">
<!-- Generated by graphviz version 2.38.0 (20140413.2041)
 -->
<!-- Title: torcoutputs.cpp Pages: 1 -->
<!--zoomable 420 -->
<svg id="main" version="1.1" xmlns="http://www.w3.org/2000/svg" xmlns:xlink="http://www.w3.org/1999/xlink" xml:space="preserve" onload="init(evt)">
<style type="text/css"><![CDATA[
.edge:hover path { stroke: red; }
.edge:hover polygon { stroke: red; fill: red; }
]]></style>
<script type="text/javascript"><![CDATA[
var edges = document.getElementsByTagName('g');
if (edges && edges.length) {
  for (var i=0;i<edges.length;i++) {
    if (edges[i].id.substr(0,4)=='edge') {
      edges[i].setAttribute('class','edge');
    }
  }
}
]]></script>
        <defs>
                <circle id="rim" cx="0" cy="0" r="7"/>
                <circle id="rim2" cx="0" cy="0" r="3.5"/>
                <g id="zoomPlus">
                        <use xlink:href="#rim" fill="#404040">
                                <set attributeName="fill" to="#808080" begin="zoomplus.mouseover" end="zoomplus.mouseout"/>
                        </use>
                        <path d="M-4,0h8M0,-4v8" fill="none" stroke="white" stroke-width="1.5" pointer-events="none"/>
                </g>
                <g id="zoomMin">
                        <use xlink:href="#rim" fill="#404040">
                                <set attributeName="fill" to="#808080" begin="zoomminus.mouseover" end="zoomminus.mouseout"/>
                        </use>
                        <path d="M-4,0h8" fill="none" stroke="white" stroke-width="1.5" pointer-events="none"/>
                </g>
                <g id="dirArrow">
                        <path fill="none" stroke="white" stroke-width="1.5" d="M0,-3.0v7 M-2.5,-0.5L0,-3.0L2.5,-0.5"/>
                </g>
               <g id="resetDef">
                       <use xlink:href="#rim2" fill="#404040">
                               <set attributeName="fill" to="#808080" begin="reset.mouseover" end="reset.mouseout"/>
                       </use>
               </g>
        </defs>

<script type="text/javascript">
var viewWidth = 1598;
var viewHeight = 420;
var sectionId = 'dynsection-0';
</script>
<script xlink:href="../../svgpan.js"/>
<svg id="graph" class="graph">
<g id="viewport">
<title>torcoutputs.cpp</title>
<polygon fill="white" stroke="none" points="-4,4 -4,-416 1593.82,-416 1593.82,4 -4,4"/>
<!-- Node1 -->
<g id="node1" class="node"><title>Node1</title>
<polygon fill="#bfbfbf" stroke="black" points="557.5,-392.5 557.5,-411.5 649.5,-411.5 649.5,-392.5 557.5,-392.5"/>
<text text-anchor="middle" x="603.5" y="-399.5" font-family="Helvetica,sans-Serif" font-size="10.00">torcoutputs.cpp</text>
</g>
<!-- Node2 -->
<g id="node2" class="node"><title>Node2</title>
<g id="a_node2"><a xlink:href="../../d4/df9/torclogging_8h.html" target="_top" xlink:title="torclogging.h">
<polygon fill="white" stroke="black" points="104,-336.5 104,-355.5 183,-355.5 183,-336.5 104,-336.5"/>
<text text-anchor="middle" x="143.5" y="-343.5" font-family="Helvetica,sans-Serif" font-size="10.00">torclogging.h</text>
</a>
</g>
</g>
<!-- Node1&#45;&gt;Node2 -->
<g id="edge1" class="edge"><title>Node1&#45;&gt;Node2</title>
<path fill="none" stroke="midnightblue" d="M557.287,-395.575C470.283,-385.361 282.872,-363.361 193.234,-352.838"/>
<polygon fill="midnightblue" stroke="midnightblue" points="193.399,-349.334 183.059,-351.644 192.583,-356.286 193.399,-349.334"/>
</g>
<!-- Node6 -->
<g id="node6" class="node"><title>Node6</title>
<g id="a_node6"><a xlink:href="../../d1/d49/torccoreutils_8h.html" target="_top" xlink:title="torccoreutils.h">
<polygon fill="white" stroke="black" points="343,-336.5 343,-355.5 428,-355.5 428,-336.5 343,-336.5"/>
<text text-anchor="middle" x="385.5" y="-343.5" font-family="Helvetica,sans-Serif" font-size="10.00">torccoreutils.h</text>
</a>
</g>
</g>
<!-- Node1&#45;&gt;Node6 -->
<g id="edge5" class="edge"><title>Node1&#45;&gt;Node6</title>
<path fill="none" stroke="midnightblue" d="M568.957,-392.444C531.247,-383.102 470.76,-368.119 429.635,-357.933"/>
<polygon fill="midnightblue" stroke="midnightblue" points="430.429,-354.524 419.881,-355.516 428.746,-361.318 430.429,-354.524"/>
</g>
<!-- Node10 -->
<g id="node10" class="node"><title>Node10</title>
<g id="a_node10"><a xlink:href="../../d5/d41/torccentral_8h.html" target="_top" xlink:title="torccentral.h">
<polygon fill="white" stroke="black" points="1144,-280.5 1144,-299.5 1221,-299.5 1221,-280.5 1144,-280.5"/>
<text text-anchor="middle" x="1182.5" y="-287.5" font-family="Helvetica,sans-Serif" font-size="10.00">torccentral.h</text>
</a>
</g>
</g>
<!-- Node1&#45;&gt;Node10 -->
<g id="edge9" class="edge"><title>Node1&#45;&gt;Node10</title>
<path fill="none" stroke="midnightblue" d="M648.451,-392.46C755.25,-372.17 1023.51,-321.206 1133.89,-300.235"/>
<polygon fill="midnightblue" stroke="midnightblue" points="1134.59,-303.665 1143.76,-298.36 1133.28,-296.788 1134.59,-303.665"/>
</g>
<!-- Node32 -->
<g id="node32" class="node"><title>Node32</title>
<g id="a_node32"><a xlink:href="../../da/d80/torcoutputs_8h.html" target="_top" xlink:title="torcoutputs.h">
<polygon fill="white" stroke="black" points="1189,-336.5 1189,-355.5 1270,-355.5 1270,-336.5 1189,-336.5"/>
<text text-anchor="middle" x="1229.5" y="-343.5" font-family="Helvetica,sans-Serif" font-size="10.00">torcoutputs.h</text>
</a>
</g>
</g>
<!-- Node1&#45;&gt;Node32 -->
<g id="edge43" class="edge"><title>Node1&#45;&gt;Node32</title>
<path fill="none" stroke="midnightblue" d="M649.531,-397.029C763.688,-387.182 1059.19,-361.691 1178.46,-351.403"/>
<polygon fill="midnightblue" stroke="midnightblue" points="1179.11,-354.86 1188.77,-350.514 1178.5,-347.886 1179.11,-354.86"/>
</g>
<!-- Node3 -->
<g id="node3" class="node"><title>Node3</title>
<polygon fill="white" stroke="#bfbfbf" points="0,-280.5 0,-299.5 53,-299.5 53,-280.5 0,-280.5"/>
<text text-anchor="middle" x="26.5" y="-287.5" font-family="Helvetica,sans-Serif" font-size="10.00">stdint.h</text>
</g>
<!-- Node2&#45;&gt;Node3 -->
<g id="edge2" class="edge"><title>Node2&#45;&gt;Node3</title>
<path fill="none" stroke="midnightblue" d="M124.961,-336.444C105.877,-327.636 75.9251,-313.812 54.0643,-303.722"/>
<polygon fill="midnightblue" stroke="midnightblue" points="55.4986,-300.529 44.9523,-299.516 52.5651,-306.885 55.4986,-300.529"/>
</g>
<!-- Node4 -->
<g id="node4" class="node"><title>Node4</title>
<polygon fill="white" stroke="#bfbfbf" points="71,-280.5 71,-299.5 122,-299.5 122,-280.5 71,-280.5"/>
<text text-anchor="middle" x="96.5" y="-287.5" font-family="Helvetica,sans-Serif" font-size="10.00">errno.h</text>
</g>
<!-- Node2&#45;&gt;Node4 -->
<g id="edge3" class="edge"><title>Node2&#45;&gt;Node4</title>
<path fill="none" stroke="midnightblue" d="M135.739,-336.083C128.963,-328.298 118.957,-316.801 110.745,-307.367"/>
<polygon fill="midnightblue" stroke="midnightblue" points="113.322,-304.996 104.117,-299.751 108.042,-309.592 113.322,-304.996"/>
</g>
<!-- Node5 -->
<g id="node5" class="node"><title>Node5</title>
<g id="a_node5"><a xlink:href="../../d1/d37/torcloggingdefs_8h.html" target="_top" xlink:title="torcloggingdefs.h">
<polygon fill="white" stroke="black" points="140,-280.5 140,-299.5 239,-299.5 239,-280.5 140,-280.5"/>
<text text-anchor="middle" x="189.5" y="-287.5" font-family="Helvetica,sans-Serif" font-size="10.00">torcloggingdefs.h</text>
</a>
</g>
</g>
<!-- Node2&#45;&gt;Node5 -->
<g id="edge4" class="edge"><title>Node2&#45;&gt;Node5</title>
<path fill="none" stroke="midnightblue" d="M151.096,-336.083C157.727,-328.298 167.521,-316.801 175.558,-307.367"/>
<polygon fill="midnightblue" stroke="midnightblue" points="178.225,-309.633 182.045,-299.751 172.896,-305.094 178.225,-309.633"/>
</g>
<!-- Node7 -->
<g id="node7" class="node"><title>Node7</title>
<polygon fill="white" stroke="#bfbfbf" points="257,-280.5 257,-299.5 296,-299.5 296,-280.5 257,-280.5"/>
<text text-anchor="middle" x="276.5" y="-287.5" font-family="Helvetica,sans-Serif" font-size="10.00">QFile</text>
</g>
<!-- Node6&#45;&gt;Node7 -->
<g id="edge6" class="edge"><title>Node6&#45;&gt;Node7</title>
<path fill="none" stroke="midnightblue" d="M367.987,-336.324C350.428,-327.625 323.169,-314.12 302.969,-304.113"/>
<polygon fill="midnightblue" stroke="midnightblue" points="304.484,-300.958 293.969,-299.655 301.376,-307.23 304.484,-300.958"/>
</g>
<!-- Node8 -->
<g id="node8" class="node"><title>Node8</title>
<polygon fill="white" stroke="#bfbfbf" points="314.5,-280.5 314.5,-299.5 390.5,-299.5 390.5,-280.5 314.5,-280.5"/>
<text text-anchor="middle" x="352.5" y="-287.5" font-family="Helvetica,sans-Serif" font-size="10.00">QMetaEnum</text>
</g>
<!-- Node6&#45;&gt;Node8 -->
<g id="edge7" class="edge"><title>Node6&#45;&gt;Node8</title>
<path fill="none" stroke="midnightblue" d="M380.051,-336.083C375.486,-328.613 368.832,-317.724 363.207,-308.52"/>
<polygon fill="midnightblue" stroke="midnightblue" points="366.049,-306.459 357.848,-299.751 360.076,-310.109 366.049,-306.459"/>
</g>
<!-- Node9 -->
<g id="node9" class="node"><title>Node9</title>
<polygon fill="white" stroke="#bfbfbf" points="327,-56.5 327,-75.5 398,-75.5 398,-56.5 327,-56.5"/>
<text text-anchor="middle" x="362.5" y="-63.5" font-family="Helvetica,sans-Serif" font-size="10.00">QDateTime</text>
</g>
<!-- Node6&#45;&gt;Node9 -->
<g id="edge8" class="edge"><title>Node6&#45;&gt;Node9</title>
<path fill="none" stroke="midnightblue" d="M389.951,-336.424C398.958,-318.244 418.5,-274.278 418.5,-235 418.5,-235 418.5,-235 418.5,-177 418.5,-140.436 393.623,-103.747 377.031,-83.3424"/>
<polygon fill="midnightblue" stroke="midnightblue" points="379.651,-81.0212 370.523,-75.6425 374.305,-85.5395 379.651,-81.0212"/>
</g>
<!-- Node11 -->
<g id="node11" class="node"><title>Node11</title>
<polygon fill="white" stroke="#bfbfbf" points="1200,-112.5 1200,-131.5 1253,-131.5 1253,-112.5 1200,-112.5"/>
<text text-anchor="middle" x="1226.5" y="-119.5" font-family="Helvetica,sans-Serif" font-size="10.00">QMutex</text>
</g>
<!-- Node10&#45;&gt;Node11 -->
<g id="edge10" class="edge"><title>Node10&#45;&gt;Node11</title>
<path fill="none" stroke="midnightblue" d="M1184.87,-280.075C1191.79,-253.945 1212.13,-177.211 1221.58,-141.577"/>
<polygon fill="midnightblue" stroke="midnightblue" points="1225.05,-142.131 1224.23,-131.568 1218.28,-140.338 1225.05,-142.131"/>
</g>
<!-- Node12 -->
<g id="node12" class="node"><title>Node12</title>
<polygon fill="white" stroke="#bfbfbf" points="1321,-168.5 1321,-187.5 1376,-187.5 1376,-168.5 1321,-168.5"/>
<text text-anchor="middle" x="1348.5" y="-175.5" font-family="Helvetica,sans-Serif" font-size="10.00">QObject</text>
</g>
<!-- Node10&#45;&gt;Node12 -->
<g id="edge11" class="edge"><title>Node10&#45;&gt;Node12</title>
<path fill="none" stroke="midnightblue" d="M1214.16,-280.446C1246.71,-271.195 1294.65,-256.142 1309.5,-244 1324.58,-231.665 1335.27,-211.855 1341.59,-197.343"/>
<polygon fill="midnightblue" stroke="midnightblue" points="1344.91,-198.477 1345.43,-187.895 1338.42,-195.843 1344.91,-198.477"/>
</g>
<!-- Node13 -->
<g id="node13" class="node"><title>Node13</title>
<polygon fill="white" stroke="#bfbfbf" points="806.5,-112.5 806.5,-131.5 864.5,-131.5 864.5,-112.5 806.5,-112.5"/>
<text text-anchor="middle" x="835.5" y="-119.5" font-family="Helvetica,sans-Serif" font-size="10.00">QVariant</text>
</g>
<!-- Node10&#45;&gt;Node13 -->
<g id="edge12" class="edge"><title>Node10&#45;&gt;Node13</title>
<path fill="none" stroke="midnightblue" d="M1143.83,-288.105C1060.57,-285.576 867.395,-276.301 811.5,-244 778.086,-224.69 751.467,-202.12 769.5,-168 776.924,-153.953 790.921,-143.467 804.121,-136.167"/>
<polygon fill="midnightblue" stroke="midnightblue" points="805.723,-139.279 813.041,-131.618 802.543,-133.043 805.723,-139.279"/>
</g>
<!-- Node14 -->
<g id="node14" class="node"><title>Node14</title>
<g id="a_node14"><a xlink:href="../../d1/df7/torcdevice_8h.html" target="_top" xlink:title="torcdevice.h">
<polygon fill="white" stroke="black" points="1225,-224.5 1225,-243.5 1300,-243.5 1300,-224.5 1225,-224.5"/>
<text text-anchor="middle" x="1262.5" y="-231.5" font-family="Helvetica,sans-Serif" font-size="10.00">torcdevice.h</text>
</a>
</g>
</g>
<!-- Node10&#45;&gt;Node14 -->
<g id="edge13" class="edge"><title>Node10&#45;&gt;Node14</title>
<path fill="none" stroke="midnightblue" d="M1195.35,-280.324C1207.72,-271.979 1226.63,-259.212 1241.24,-249.352"/>
<polygon fill="midnightblue" stroke="midnightblue" points="1243.35,-252.15 1249.68,-243.655 1239.43,-246.348 1243.35,-252.15"/>
</g>
<!-- Node21 -->
<g id="node21" class="node"><title>Node21</title>
<g id="a_node21"><a xlink:href="../../d3/dee/torchttpservice_8h.html" target="_top" xlink:title="http/torchttpservice.h">
<polygon fill="white" stroke="black" points="820.5,-224.5 820.5,-243.5 940.5,-243.5 940.5,-224.5 820.5,-224.5"/>
<text text-anchor="middle" x="880.5" y="-231.5" font-family="Helvetica,sans-Serif" font-size="10.00">http/torchttpservice.h</text>
</a>
</g>
</g>
<!-- Node10&#45;&gt;Node21 -->
<g id="edge25" class="edge"><title>Node10&#45;&gt;Node21</title>
<path fill="none" stroke="midnightblue" d="M1143.94,-282.106C1091.93,-272.806 998.864,-256.164 938.419,-245.356"/>
<polygon fill="midnightblue" stroke="midnightblue" points="938.731,-241.857 928.271,-243.542 937.499,-248.747 938.731,-241.857"/>
</g>
<!-- Node14&#45;&gt;Node11 -->
<g id="edge15" class="edge"><title>Node14&#45;&gt;Node11</title>
<path fill="none" stroke="midnightblue" d="M1259.68,-224.368C1253.84,-206.537 1240.34,-165.295 1232.48,-141.272"/>
<polygon fill="midnightblue" stroke="midnightblue" points="1235.75,-140.007 1229.31,-131.591 1229.1,-142.184 1235.75,-140.007"/>
</g>
<!-- Node14&#45;&gt;Node12 -->
<g id="edge17" class="edge"><title>Node14&#45;&gt;Node12</title>
<path fill="none" stroke="midnightblue" d="M1276.32,-224.324C1289.73,-215.9 1310.32,-202.971 1326.09,-193.074"/>
<polygon fill="midnightblue" stroke="midnightblue" points="1328.11,-195.936 1334.72,-187.655 1324.39,-190.008 1328.11,-195.936"/>
</g>
<!-- Node15 -->
<g id="node15" class="node"><title>Node15</title>
<polygon fill="white" stroke="#bfbfbf" points="1074,-112.5 1074,-131.5 1123,-131.5 1123,-112.5 1074,-112.5"/>
<text text-anchor="middle" x="1098.5" y="-119.5" font-family="Helvetica,sans-Serif" font-size="10.00">QHash</text>
</g>
<!-- Node14&#45;&gt;Node15 -->
<g id="edge14" class="edge"><title>Node14&#45;&gt;Node15</title>
<path fill="none" stroke="midnightblue" d="M1249.63,-224.368C1221.49,-205.492 1154.24,-160.385 1119.73,-137.237"/>
<polygon fill="midnightblue" stroke="midnightblue" points="1121.56,-134.255 1111.31,-131.591 1117.66,-140.069 1121.56,-134.255"/>
</g>
<!-- Node16 -->
<g id="node16" class="node"><title>Node16</title>
<polygon fill="white" stroke="#bfbfbf" points="684,-56.5 684,-75.5 737,-75.5 737,-56.5 684,-56.5"/>
<text text-anchor="middle" x="710.5" y="-63.5" font-family="Helvetica,sans-Serif" font-size="10.00">QString</text>
</g>
<!-- Node14&#45;&gt;Node16 -->
<g id="edge16" class="edge"><title>Node14&#45;&gt;Node16</title>
<path fill="none" stroke="midnightblue" d="M1265.98,-224.277C1274.13,-202.207 1291.69,-143.664 1262.5,-112 1227.66,-74.2079 865.92,-68.1536 747.673,-67.1845"/>
<polygon fill="midnightblue" stroke="midnightblue" points="747.354,-63.6821 737.328,-67.1078 747.302,-70.6819 747.354,-63.6821"/>
</g>
<!-- Node17 -->
<g id="node17" class="node"><title>Node17</title>
<g id="a_node17"><a xlink:href="../../d8/dfe/torcreferencecounted_8h.html" target="_top" xlink:title="torcreferencecounted.h">
<polygon fill="white" stroke="black" points="1433,-168.5 1433,-187.5 1562,-187.5 1562,-168.5 1433,-168.5"/>
<text text-anchor="middle" x="1497.5" y="-175.5" font-family="Helvetica,sans-Serif" font-size="10.00">torcreferencecounted.h</text>
</a>
</g>
</g>
<!-- Node14&#45;&gt;Node17 -->
<g id="edge18" class="edge"><title>Node14&#45;&gt;Node17</title>
<path fill="none" stroke="midnightblue" d="M1299.74,-224.444C1340.56,-215.063 1406.14,-199.993 1450.48,-189.804"/>
<polygon fill="midnightblue" stroke="midnightblue" points="1451.48,-193.167 1460.44,-187.516 1449.91,-186.345 1451.48,-193.167"/>
</g>
<!-- Node19 -->
<g id="node19" class="node"><title>Node19</title>
<g id="a_node19"><a xlink:href="../../d2/d5b/torcdevicehandler_8h.html" target="_top" xlink:title="torcdevicehandler.h">
<polygon fill="white" stroke="black" points="1002.5,-168.5 1002.5,-187.5 1112.5,-187.5 1112.5,-168.5 1002.5,-168.5"/>
<text text-anchor="middle" x="1057.5" y="-175.5" font-family="Helvetica,sans-Serif" font-size="10.00">torcdevicehandler.h</text>
</a>
</g>
</g>
<!-- Node14&#45;&gt;Node19 -->
<g id="edge20" class="edge"><title>Node14&#45;&gt;Node19</title>
<path fill="none" stroke="midnightblue" d="M1230.02,-224.444C1194.78,-215.162 1138.4,-200.309 1099.74,-190.127"/>
<polygon fill="midnightblue" stroke="midnightblue" points="1100.39,-186.679 1089.83,-187.516 1098.61,-193.448 1100.39,-186.679"/>
</g>
<!-- Node18 -->
<g id="node18" class="node"><title>Node18</title>
<polygon fill="white" stroke="#bfbfbf" points="1462.5,-112.5 1462.5,-131.5 1532.5,-131.5 1532.5,-112.5 1462.5,-112.5"/>
<text text-anchor="middle" x="1497.5" y="-119.5" font-family="Helvetica,sans-Serif" font-size="10.00">QAtomicInt</text>
</g>
<!-- Node17&#45;&gt;Node18 -->
<g id="edge19" class="edge"><title>Node17&#45;&gt;Node18</title>
<path fill="none" stroke="midnightblue" d="M1497.5,-168.083C1497.5,-161.006 1497.5,-150.861 1497.5,-141.986"/>
<polygon fill="midnightblue" stroke="midnightblue" points="1501,-141.751 1497.5,-131.751 1494,-141.751 1501,-141.751"/>
</g>
<!-- Node19&#45;&gt;Node11 -->
<g id="edge22" class="edge"><title>Node19&#45;&gt;Node11</title>
<path fill="none" stroke="midnightblue" d="M1084.28,-168.444C1112.83,-159.32 1158.23,-144.813 1190.04,-134.651"/>
<polygon fill="midnightblue" stroke="midnightblue" points="1191.39,-137.894 1199.85,-131.516 1189.26,-131.226 1191.39,-137.894"/>
</g>
<!-- Node19&#45;&gt;Node13 -->
<g id="edge24" class="edge"><title>Node19&#45;&gt;Node13</title>
<path fill="none" stroke="midnightblue" d="M1022.32,-168.444C982.114,-158.663 916.476,-142.697 874.668,-132.527"/>
<polygon fill="midnightblue" stroke="midnightblue" points="875.384,-129.1 864.84,-130.137 873.73,-135.901 875.384,-129.1"/>
</g>
<!-- Node19&#45;&gt;Node15 -->
<g id="edge21" class="edge"><title>Node19&#45;&gt;Node15</title>
<path fill="none" stroke="midnightblue" d="M1064.27,-168.083C1070.06,-160.455 1078.56,-149.264 1085.64,-139.941"/>
<polygon fill="midnightblue" stroke="midnightblue" points="1088.6,-141.832 1091.86,-131.751 1083.02,-137.599 1088.6,-141.832"/>
</g>
<!-- Node20 -->
<g id="node20" class="node"><title>Node20</title>
<polygon fill="white" stroke="#bfbfbf" points="936.5,-112.5 936.5,-131.5 1028.5,-131.5 1028.5,-112.5 936.5,-112.5"/>
<text text-anchor="middle" x="982.5" y="-119.5" font-family="Helvetica,sans-Serif" font-size="10.00">QReadWriteLock</text>
</g>
<!-- Node19&#45;&gt;Node20 -->
<g id="edge23" class="edge"><title>Node19&#45;&gt;Node20</title>
<path fill="none" stroke="midnightblue" d="M1045.45,-168.324C1034.04,-160.107 1016.67,-147.602 1003.07,-137.807"/>
<polygon fill="midnightblue" stroke="midnightblue" points="1004.93,-134.837 994.769,-131.834 1000.84,-140.517 1004.93,-134.837"/>
</g>
<!-- Node21&#45;&gt;Node11 -->
<g id="edge27" class="edge"><title>Node21&#45;&gt;Node11</title>
<path fill="none" stroke="midnightblue" d="M940.617,-227.99C990.421,-222.388 1062.36,-210.901 1121.5,-188 1153.89,-175.456 1187.34,-152.754 1207.54,-137.776"/>
<polygon fill="midnightblue" stroke="midnightblue" points="1209.72,-140.515 1215.58,-131.692 1205.49,-134.931 1209.72,-140.515"/>
</g>
<!-- Node21&#45;&gt;Node20 -->
<g id="edge28" class="edge"><title>Node21&#45;&gt;Node20</title>
<path fill="none" stroke="midnightblue" d="M843.459,-224.464C806.44,-214.195 757.899,-194.914 779.5,-168 797.596,-145.453 872.519,-133.504 926.073,-127.718"/>
<polygon fill="midnightblue" stroke="midnightblue" points="926.554,-131.187 936.14,-126.674 925.832,-124.224 926.554,-131.187"/>
</g>
<!-- Node22 -->
<g id="node22" class="node"><title>Node22</title>
<polygon fill="white" stroke="#bfbfbf" points="588.5,-56.5 588.5,-75.5 632.5,-75.5 632.5,-56.5 588.5,-56.5"/>
<text text-anchor="middle" x="610.5" y="-63.5" font-family="Helvetica,sans-Serif" font-size="10.00">QMap</text>
</g>
<!-- Node21&#45;&gt;Node22 -->
<g id="edge26" class="edge"><title>Node21&#45;&gt;Node22</title>
<path fill="none" stroke="midnightblue" d="M820.453,-232.687C743.137,-230.86 615.165,-222.534 585.5,-188 560.092,-158.422 583.372,-109.841 599.007,-84.1571"/>
<polygon fill="midnightblue" stroke="midnightblue" points="602.087,-85.8365 604.507,-75.5218 596.183,-82.0757 602.087,-85.8365"/>
</g>
<!-- Node23 -->
<g id="node23" class="node"><title>Node23</title>
<polygon fill="white" stroke="#bfbfbf" points="788,-168.5 788,-187.5 867,-187.5 867,-168.5 788,-168.5"/>
<text text-anchor="middle" x="827.5" y="-175.5" font-family="Helvetica,sans-Serif" font-size="10.00">QMetaObject</text>
</g>
<!-- Node21&#45;&gt;Node23 -->
<g id="edge29" class="edge"><title>Node21&#45;&gt;Node23</title>
<path fill="none" stroke="midnightblue" d="M871.748,-224.083C864.03,-216.22 852.595,-204.569 843.283,-195.081"/>
<polygon fill="midnightblue" stroke="midnightblue" points="845.592,-192.436 836.089,-187.751 840.596,-197.34 845.592,-192.436"/>
</g>
<!-- Node24 -->
<g id="node24" class="node"><title>Node24</title>
<polygon fill="white" stroke="#bfbfbf" points="885,-168.5 885,-187.5 984,-187.5 984,-168.5 885,-168.5"/>
<text text-anchor="middle" x="934.5" y="-175.5" font-family="Helvetica,sans-Serif" font-size="10.00">QCoreApplication</text>
</g>
<!-- Node21&#45;&gt;Node24 -->
<g id="edge30" class="edge"><title>Node21&#45;&gt;Node24</title>
<path fill="none" stroke="midnightblue" d="M889.417,-224.083C897.28,-216.22 908.931,-204.569 918.419,-195.081"/>
<polygon fill="midnightblue" stroke="midnightblue" points="921.153,-197.297 925.749,-187.751 916.203,-192.347 921.153,-197.297"/>
</g>
<!-- Node25 -->
<g id="node25" class="node"><title>Node25</title>
<g id="a_node25"><a xlink:href="../../d4/d11/torchttphandler_8h.html" target="_top" xlink:title="torchttphandler.h">
<polygon fill="white" stroke="black" points="594,-168.5 594,-187.5 693,-187.5 693,-168.5 594,-168.5"/>
<text text-anchor="middle" x="643.5" y="-175.5" font-family="Helvetica,sans-Serif" font-size="10.00">torchttphandler.h</text>
</a>
</g>
</g>
<!-- Node21&#45;&gt;Node25 -->
<g id="edge31" class="edge"><title>Node21&#45;&gt;Node25</title>
<path fill="none" stroke="midnightblue" d="M842.947,-224.444C801.689,-215.043 735.356,-199.929 690.634,-189.739"/>
<polygon fill="midnightblue" stroke="midnightblue" points="691.405,-186.326 680.878,-187.516 689.85,-193.151 691.405,-186.326"/>
</g>
<!-- Node27 -->
<g id="node27" class="node"><title>Node27</title>
<g id="a_node27"><a xlink:href="../../df/dd7/torchttprequest_8h.html" target="_top" xlink:title="torchttprequest.h">
<polygon fill="white" stroke="black" points="447,-112.5 447,-131.5 548,-131.5 548,-112.5 447,-112.5"/>
<text text-anchor="middle" x="497.5" y="-119.5" font-family="Helvetica,sans-Serif" font-size="10.00">torchttprequest.h</text>
</a>
</g>
</g>
<!-- Node21&#45;&gt;Node27 -->
<g id="edge42" class="edge"><title>Node21&#45;&gt;Node27</title>
<path fill="none" stroke="midnightblue" d="M820.323,-229.969C738.293,-224.964 596.423,-212.937 551.5,-188 531.929,-177.136 516.504,-156.132 507.236,-140.935"/>
<polygon fill="midnightblue" stroke="midnightblue" points="510.082,-138.864 502.053,-131.951 504.019,-142.362 510.082,-138.864"/>
</g>
<!-- Node25&#45;&gt;Node16 -->
<g id="edge32" class="edge"><title>Node25&#45;&gt;Node16</title>
<path fill="none" stroke="midnightblue" d="M655.902,-168.399C666.791,-160.228 682.29,-146.987 691.5,-132 700.252,-117.757 705.143,-99.284 707.763,-85.6734"/>
<polygon fill="midnightblue" stroke="midnightblue" points="711.252,-86.0265 709.463,-75.5838 704.35,-84.863 711.252,-86.0265"/>
</g>
<!-- Node26 -->
<g id="node26" class="node"><title>Node26</title>
<polygon fill="white" stroke="#bfbfbf" points="604.5,-112.5 604.5,-131.5 682.5,-131.5 682.5,-112.5 604.5,-112.5"/>
<text text-anchor="middle" x="643.5" y="-119.5" font-family="Helvetica,sans-Serif" font-size="10.00">QVariantMap</text>
</g>
<!-- Node25&#45;&gt;Node26 -->
<g id="edge33" class="edge"><title>Node25&#45;&gt;Node26</title>
<path fill="none" stroke="midnightblue" d="M643.5,-168.083C643.5,-161.006 643.5,-150.861 643.5,-141.986"/>
<polygon fill="midnightblue" stroke="midnightblue" points="647,-141.751 643.5,-131.751 640,-141.751 647,-141.751"/>
</g>
<!-- Node25&#45;&gt;Node27 -->
<g id="edge34" class="edge"><title>Node25&#45;&gt;Node27</title>
<path fill="none" stroke="midnightblue" d="M620.366,-168.444C596.018,-159.438 557.493,-145.189 530.077,-135.049"/>
<polygon fill="midnightblue" stroke="midnightblue" points="531.119,-131.703 520.526,-131.516 528.691,-138.268 531.119,-131.703"/>
</g>
<!-- Node27&#45;&gt;Node9 -->
<g id="edge38" class="edge"><title>Node27&#45;&gt;Node9</title>
<path fill="none" stroke="midnightblue" d="M476.109,-112.444C453.793,-103.517 418.597,-89.4387 393.292,-79.3168"/>
<polygon fill="midnightblue" stroke="midnightblue" points="394.376,-75.9807 383.791,-75.5164 391.776,-82.4801 394.376,-75.9807"/>
</g>
<!-- Node27&#45;&gt;Node16 -->
<g id="edge37" class="edge"><title>Node27&#45;&gt;Node16</title>
<path fill="none" stroke="midnightblue" d="M531.25,-112.444C570.207,-102.567 634.038,-86.3846 674.087,-76.2314"/>
<polygon fill="midnightblue" stroke="midnightblue" points="675.14,-79.5753 683.973,-73.7251 673.42,-72.7899 675.14,-79.5753"/>
</g>
<!-- Node27&#45;&gt;Node22 -->
<g id="edge35" class="edge"><title>Node27&#45;&gt;Node22</title>
<path fill="none" stroke="midnightblue" d="M515.405,-112.444C533.754,-103.675 562.505,-89.9355 583.594,-79.8579"/>
<polygon fill="midnightblue" stroke="midnightblue" points="585.165,-82.9862 592.679,-75.5164 582.147,-76.6703 585.165,-82.9862"/>
</g>
<!-- Node28 -->
<g id="node28" class="node"><title>Node28</title>
<polygon fill="white" stroke="#bfbfbf" points="529,-56.5 529,-75.5 570,-75.5 570,-56.5 529,-56.5"/>
<text text-anchor="middle" x="549.5" y="-63.5" font-family="Helvetica,sans-Serif" font-size="10.00">QPair</text>
</g>
<!-- Node27&#45;&gt;Node28 -->
<g id="edge36" class="edge"><title>Node27&#45;&gt;Node28</title>
<path fill="none" stroke="midnightblue" d="M506.087,-112.083C513.659,-104.22 524.878,-92.5688 534.014,-83.0813"/>
<polygon fill="midnightblue" stroke="midnightblue" points="536.658,-85.3821 541.073,-75.7511 531.615,-80.5266 536.658,-85.3821"/>
</g>
<!-- Node29 -->
<g id="node29" class="node"><title>Node29</title>
<g id="a_node29"><a xlink:href="../../de/de6/torchttpreader_8h.html" target="_top" xlink:title="torchttpreader.h">
<polygon fill="white" stroke="black" points="416,-56.5 416,-75.5 511,-75.5 511,-56.5 416,-56.5"/>
<text text-anchor="middle" x="463.5" y="-63.5" font-family="Helvetica,sans-Serif" font-size="10.00">torchttpreader.h</text>
</a>
</g>
</g>
<!-- Node27&#45;&gt;Node29 -->
<g id="edge39" class="edge"><title>Node27&#45;&gt;Node29</title>
<path fill="none" stroke="midnightblue" d="M491.886,-112.083C487.133,-104.534 480.182,-93.4948 474.348,-84.2298"/>
<polygon fill="midnightblue" stroke="midnightblue" points="477.3,-82.3486 469.01,-75.7511 471.376,-86.0783 477.3,-82.3486"/>
</g>
<!-- Node30 -->
<g id="node30" class="node"><title>Node30</title>
<polygon fill="white" stroke="#bfbfbf" points="383,-0.5 383,-19.5 454,-19.5 454,-0.5 383,-0.5"/>
<text text-anchor="middle" x="418.5" y="-7.5" font-family="Helvetica,sans-Serif" font-size="10.00">QByteArray</text>
</g>
<!-- Node29&#45;&gt;Node30 -->
<g id="edge40" class="edge"><title>Node29&#45;&gt;Node30</title>
<path fill="none" stroke="midnightblue" d="M456.069,-56.083C449.647,-48.3768 440.194,-37.0333 432.378,-27.6531"/>
<polygon fill="midnightblue" stroke="midnightblue" points="434.883,-25.1927 425.793,-19.7511 429.506,-29.674 434.883,-25.1927"/>
</g>
<!-- Node31 -->
<g id="node31" class="node"><title>Node31</title>
<polygon fill="white" stroke="#bfbfbf" points="472.5,-0.5 472.5,-19.5 544.5,-19.5 544.5,-0.5 472.5,-0.5"/>
<text text-anchor="middle" x="508.5" y="-7.5" font-family="Helvetica,sans-Serif" font-size="10.00">QTcpSocket</text>
</g>
<!-- Node29&#45;&gt;Node31 -->
<g id="edge41" class="edge"><title>Node29&#45;&gt;Node31</title>
<path fill="none" stroke="midnightblue" d="M470.931,-56.083C477.353,-48.3768 486.806,-37.0333 494.622,-27.6531"/>
<polygon fill="midnightblue" stroke="midnightblue" points="497.494,-29.674 501.207,-19.7511 492.117,-25.1927 497.494,-29.674"/>
</g>
<!-- Node32&#45;&gt;Node10 -->
<g id="edge53" class="edge"><title>Node32&#45;&gt;Node10</title>
<path fill="none" stroke="midnightblue" d="M1221.74,-336.083C1214.96,-328.298 1204.96,-316.801 1196.74,-307.367"/>
<polygon fill="midnightblue" stroke="midnightblue" points="1199.32,-304.996 1190.12,-299.751 1194.04,-309.592 1199.32,-304.996"/>
</g>
<!-- Node32&#45;&gt;Node11 -->
<g id="edge45" class="edge"><title>Node32&#45;&gt;Node11</title>
<path fill="none" stroke="midnightblue" d="M1270.34,-339.743C1379.45,-324.157 1663.36,-272.621 1571.5,-168 1551.36,-145.066 1347.99,-130.296 1263.26,-125.094"/>
<polygon fill="midnightblue" stroke="midnightblue" points="1263.25,-121.588 1253.06,-124.479 1262.83,-128.575 1263.25,-121.588"/>
</g>
<!-- Node32&#45;&gt;Node21 -->
<g id="edge46" class="edge"><title>Node32&#45;&gt;Node21</title>
<path fill="none" stroke="midnightblue" d="M1202.4,-336.46C1140.43,-316.926 988.254,-268.963 917.627,-246.702"/>
<polygon fill="midnightblue" stroke="midnightblue" points="918.408,-243.278 907.818,-243.61 916.304,-249.955 918.408,-243.278"/>
</g>
<!-- Node33 -->
<g id="node33" class="node"><title>Node33</title>
<polygon fill="white" stroke="#bfbfbf" points="1334,-280.5 1334,-299.5 1375,-299.5 1375,-280.5 1334,-280.5"/>
<text text-anchor="middle" x="1354.5" y="-287.5" font-family="Helvetica,sans-Serif" font-size="10.00">QList</text>
</g>
<!-- Node32&#45;&gt;Node33 -->
<g id="edge44" class="edge"><title>Node32&#45;&gt;Node33</title>
<path fill="none" stroke="midnightblue" d="M1249.31,-336.444C1269.79,-327.596 1301.98,-313.687 1325.36,-303.586"/>
<polygon fill="midnightblue" stroke="midnightblue" points="1326.99,-306.695 1334.79,-299.516 1324.22,-300.269 1326.99,-306.695"/>
</g>
<!-- Node34 -->
<g id="node34" class="node"><title>Node34</title>
<g id="a_node34"><a xlink:href="../../dc/d01/torcoutput_8h.html" target="_top" xlink:title="torcoutput.h">
<polygon fill="white" stroke="black" points="1239.5,-280.5 1239.5,-299.5 1315.5,-299.5 1315.5,-280.5 1239.5,-280.5"/>
<text text-anchor="middle" x="1277.5" y="-287.5" font-family="Helvetica,sans-Serif" font-size="10.00">torcoutput.h</text>
</a>
</g>
</g>
<!-- Node32&#45;&gt;Node34 -->
<g id="edge47" class="edge"><title>Node32&#45;&gt;Node34</title>
<path fill="none" stroke="midnightblue" d="M1237.43,-336.083C1244.35,-328.298 1254.57,-316.801 1262.95,-307.367"/>
<polygon fill="midnightblue" stroke="midnightblue" points="1265.69,-309.55 1269.72,-299.751 1260.46,-304.9 1265.69,-309.55"/>
</g>
<!-- Node34&#45;&gt;Node11 -->
<g id="edge48" class="edge"><title>Node34&#45;&gt;Node11</title>
<path fill="none" stroke="midnightblue" d="M1302.06,-280.352C1319.91,-273.016 1343.64,-260.963 1359.5,-244 1383.88,-217.922 1407.03,-196.474 1385.5,-168 1370.75,-148.499 1305.16,-135.018 1262.96,-128.185"/>
<polygon fill="midnightblue" stroke="midnightblue" points="1263.47,-124.721 1253.05,-126.63 1262.38,-131.636 1263.47,-124.721"/>
</g>
<!-- Node34&#45;&gt;Node12 -->
<g id="edge49" class="edge"><title>Node34&#45;&gt;Node12</title>
<path fill="none" stroke="midnightblue" d="M1298.21,-280.497C1313.21,-273.171 1332.53,-261.066 1342.5,-244 1350.63,-230.086 1351.58,-211.576 1350.82,-197.868"/>
<polygon fill="midnightblue" stroke="midnightblue" points="1354.28,-197.333 1349.89,-187.689 1347.31,-197.964 1354.28,-197.333"/>
</g>
<!-- Node34&#45;&gt;Node14 -->
<g id="edge52" class="edge"><title>Node34&#45;&gt;Node14</title>
<path fill="none" stroke="midnightblue" d="M1275.02,-280.083C1273.01,-272.849 1270.11,-262.409 1267.61,-253.397"/>
<polygon fill="midnightblue" stroke="midnightblue" points="1270.98,-252.449 1264.93,-243.751 1264.24,-254.323 1270.98,-252.449"/>
</g>
<!-- Node34&#45;&gt;Node17 -->
<g id="edge50" class="edge"><title>Node34&#45;&gt;Node17</title>
<path fill="none" stroke="midnightblue" d="M1315.58,-281.007C1344.89,-273.89 1385.78,-261.82 1418.5,-244 1442.72,-230.812 1466.61,-209.714 1481.68,-195.15"/>
<polygon fill="midnightblue" stroke="midnightblue" points="1484.43,-197.345 1489.08,-187.823 1479.51,-192.37 1484.43,-197.345"/>
</g>
<!-- Node34&#45;&gt;Node21 -->
<g id="edge51" class="edge"><title>Node34&#45;&gt;Node21</title>
<path fill="none" stroke="midnightblue" d="M1239.31,-281.485C1236.34,-280.961 1233.37,-280.459 1230.5,-280 1133.92,-264.559 1021.68,-250.876 950.875,-242.763"/>
<polygon fill="midnightblue" stroke="midnightblue" points="951.067,-239.263 940.735,-241.607 950.274,-246.218 951.067,-239.263"/>
</g>
</g>
</svg>
        <g id="navigator" transform="translate(0 0)" fill="#404254">
                <rect fill="#f2f5e9" fill-opacity="0.5" stroke="#606060" stroke-width=".5" x="0" y="0" width="60" height="60"/>
                <use id="zoomplus" xlink:href="#zoomPlus" x="17" y="9" onmousedown="handleZoom(evt,'in')"/>
                <use id="zoomminus" xlink:href="#zoomMin" x="42" y="9" onmousedown="handleZoom(evt,'out')"/>
                <use id="reset" xlink:href="#resetDef" x="30" y="36" onmousedown="handleReset()"/>
                <g id="arrowUp" xlink:href="#dirArrow" transform="translate(30 24)" onmousedown="handlePan(0,-1)">
                  <use xlink:href="#rim" fill="#404040">
                        <set attributeName="fill" to="#808080" begin="arrowUp.mouseover" end="arrowUp.mouseout"/>
                  </use>
                  <path fill="none" stroke="white" stroke-width="1.5" d="M0,-3.0v7 M-2.5,-0.5L0,-3.0L2.5,-0.5"/>
                </g>
                <g id="arrowRight" xlink:href="#dirArrow" transform="rotate(90) translate(36 -43)" onmousedown="handlePan(1,0)">
                  <use xlink:href="#rim" fill="#404040">
                        <set attributeName="fill" to="#808080" begin="arrowRight.mouseover" end="arrowRight.mouseout"/>
                  </use>
                  <path fill="none" stroke="white" stroke-width="1.5" d="M0,-3.0v7 M-2.5,-0.5L0,-3.0L2.5,-0.5"/>
                </g>
                <g id="arrowDown" xlink:href="#dirArrow" transform="rotate(180) translate(-30 -48)" onmousedown="handlePan(0,1)">
                  <use xlink:href="#rim" fill="#404040">
                        <set attributeName="fill" to="#808080" begin="arrowDown.mouseover" end="arrowDown.mouseout"/>
                  </use>
                  <path fill="none" stroke="white" stroke-width="1.5" d="M0,-3.0v7 M-2.5,-0.5L0,-3.0L2.5,-0.5"/>
                </g>
                <g id="arrowLeft" xlink:href="#dirArrow" transform="rotate(270) translate(-36 17)" onmousedown="handlePan(-1,0)">
                  <use xlink:href="#rim" fill="#404040">
                        <set attributeName="fill" to="#808080" begin="arrowLeft.mouseover" end="arrowLeft.mouseout"/>
                  </use>
                  <path fill="none" stroke="white" stroke-width="1.5" d="M0,-3.0v7 M-2.5,-0.5L0,-3.0L2.5,-0.5"/>
                </g>
        </g>
        <svg viewBox="0 0 15 15" width="100%" height="30px" preserveAspectRatio="xMaxYMin meet">
         <g id="arrow_out" transform="scale(0.3 0.3)">
          <a xlink:href="torcoutputs_8cpp__incl_org.svg" target="_base">
           <rect id="button" ry="5" rx="5" y="6" x="6" height="38" width="38"
                fill="#f2f5e9" fill-opacity="0.5" stroke="#606060" stroke-width="1.0"/>
           <path id="arrow"
             d="M 11.500037,31.436501 C 11.940474,20.09759 22.043105,11.32322 32.158766,21.979434 L 37.068811,17.246167 C 37.068811,17.246167 37.088388,32 37.088388,32 L 22.160133,31.978069 C 22.160133,31.978069 26.997745,27.140456 26.997745,27.140456 C 18.528582,18.264221 13.291696,25.230495 11.500037,31.436501 z"
             style="fill:#404040;"/>
          </a>
         </g>
        </svg>
</svg>
