<?xml version="1.0" encoding="UTF-8" standalone="no"?>
<!DOCTYPE svg PUBLIC "-//W3C//DTD SVG 1.1//EN"
 "http://www.w3.org/Graphics/SVG/1.1/DTD/svg11.dtd">
<!-- Generated by graphviz version 2.38.0 (20140413.2041)
 -->
<!-- Title: torcpiswitchinput.cpp Pages: 1 -->
<!--zoomable 532 -->
<svg id="main" version="1.1" xmlns="http://www.w3.org/2000/svg" xmlns:xlink="http://www.w3.org/1999/xlink" xml:space="preserve" onload="init(evt)">
<style type="text/css"><![CDATA[
.edge:hover path { stroke: red; }
.edge:hover polygon { stroke: red; fill: red; }
]]></style>
<script type="text/javascript"><![CDATA[
var edges = document.getElementsByTagName('g');
if (edges && edges.length) {
  for (var i=0;i<edges.length;i++) {
    if (edges[i].id.substr(0,4)=='edge') {
      edges[i].setAttribute('class','edge');
    }
  }
}
]]></script>
        <defs>
                <circle id="rim" cx="0" cy="0" r="7"/>
                <circle id="rim2" cx="0" cy="0" r="3.5"/>
                <g id="zoomPlus">
                        <use xlink:href="#rim" fill="#404040">
                                <set attributeName="fill" to="#808080" begin="zoomplus.mouseover" end="zoomplus.mouseout"/>
                        </use>
                        <path d="M-4,0h8M0,-4v8" fill="none" stroke="white" stroke-width="1.5" pointer-events="none"/>
                </g>
                <g id="zoomMin">
                        <use xlink:href="#rim" fill="#404040">
                                <set attributeName="fill" to="#808080" begin="zoomminus.mouseover" end="zoomminus.mouseout"/>
                        </use>
                        <path d="M-4,0h8" fill="none" stroke="white" stroke-width="1.5" pointer-events="none"/>
                </g>
                <g id="dirArrow">
                        <path fill="none" stroke="white" stroke-width="1.5" d="M0,-3.0v7 M-2.5,-0.5L0,-3.0L2.5,-0.5"/>
                </g>
               <g id="resetDef">
                       <use xlink:href="#rim2" fill="#404040">
                               <set attributeName="fill" to="#808080" begin="reset.mouseover" end="reset.mouseout"/>
                       </use>
               </g>
        </defs>

<script type="text/javascript">
var viewWidth = 1398;
var viewHeight = 532;
var sectionId = 'dynsection-0';
</script>
<script xlink:href="../../svgpan.js"/>
<svg id="graph" class="graph">
<g id="viewport">
<title>torcpiswitchinput.cpp</title>
<polygon fill="white" stroke="none" points="-4,4 -4,-528 1393.5,-528 1393.5,4 -4,4"/>
<!-- Node1 -->
<g id="node1" class="node"><title>Node1</title>
<polygon fill="#bfbfbf" stroke="black" points="750,-504.5 750,-523.5 867,-523.5 867,-504.5 750,-504.5"/>
<text text-anchor="middle" x="808.5" y="-511.5" font-family="Helvetica,sans-Serif" font-size="10.00">torcpiswitchinput.cpp</text>
</g>
<!-- Node2 -->
<g id="node2" class="node"><title>Node2</title>
<g id="a_node2"><a xlink:href="../../d4/df9/torclogging_8h.html" target="_top" xlink:title="torclogging.h">
<polygon fill="white" stroke="black" points="103,-448.5 103,-467.5 182,-467.5 182,-448.5 103,-448.5"/>
<text text-anchor="middle" x="142.5" y="-455.5" font-family="Helvetica,sans-Serif" font-size="10.00">torclogging.h</text>
</a>
</g>
</g>
<!-- Node1&#45;&gt;Node2 -->
<g id="edge1" class="edge"><title>Node1&#45;&gt;Node2</title>
<path fill="none" stroke="midnightblue" d="M749.981,-508.255C620.75,-497.777 312.924,-472.818 192.249,-463.034"/>
<polygon fill="midnightblue" stroke="midnightblue" points="192.433,-459.537 182.183,-462.218 191.868,-466.514 192.433,-459.537"/>
</g>
<!-- Node6 -->
<g id="node6" class="node"><title>Node6</title>
<g id="a_node6"><a xlink:href="../../d4/de1/torcpigpio_8h.html" target="_top" xlink:title="torcpigpio.h">
<polygon fill="white" stroke="black" points="610,-448.5 610,-467.5 683,-467.5 683,-448.5 610,-448.5"/>
<text text-anchor="middle" x="646.5" y="-455.5" font-family="Helvetica,sans-Serif" font-size="10.00">torcpigpio.h</text>
</a>
</g>
</g>
<!-- Node1&#45;&gt;Node6 -->
<g id="edge5" class="edge"><title>Node1&#45;&gt;Node6</title>
<path fill="none" stroke="midnightblue" d="M782.831,-504.444C755.577,-495.359 712.316,-480.939 681.849,-470.783"/>
<polygon fill="midnightblue" stroke="midnightblue" points="682.643,-467.358 672.049,-467.516 680.429,-473.999 682.643,-467.358"/>
</g>
<!-- Node34 -->
<g id="node34" class="node"><title>Node34</title>
<g id="a_node34"><a xlink:href="../../d6/d66/torcpiswitchinput_8h.html" target="_top" xlink:title="torcpiswitchinput.h">
<polygon fill="white" stroke="black" points="918.5,-392.5 918.5,-411.5 1024.5,-411.5 1024.5,-392.5 918.5,-392.5"/>
<text text-anchor="middle" x="971.5" y="-399.5" font-family="Helvetica,sans-Serif" font-size="10.00">torcpiswitchinput.h</text>
</a>
</g>
</g>
<!-- Node1&#45;&gt;Node34 -->
<g id="edge61" class="edge"><title>Node1&#45;&gt;Node34</title>
<path fill="none" stroke="midnightblue" d="M783.877,-504.475C754.618,-493.034 712.06,-471.424 731.5,-448 737.201,-441.131 839.331,-423.815 908.508,-412.776"/>
<polygon fill="midnightblue" stroke="midnightblue" points="909.133,-416.221 918.46,-411.195 908.034,-409.308 909.133,-416.221"/>
</g>
<!-- Node40 -->
<g id="node40" class="node"><title>Node40</title>
<polygon fill="white" stroke="#bfbfbf" points="740,-448.5 740,-467.5 801,-467.5 801,-448.5 740,-448.5"/>
<text text-anchor="middle" x="770.5" y="-455.5" font-family="Helvetica,sans-Serif" font-size="10.00">wiringPi.h</text>
</g>
<!-- Node1&#45;&gt;Node40 -->
<g id="edge62" class="edge"><title>Node1&#45;&gt;Node40</title>
<path fill="none" stroke="midnightblue" d="M802.225,-504.083C796.858,-496.455 788.982,-485.264 782.421,-475.941"/>
<polygon fill="midnightblue" stroke="midnightblue" points="785.275,-473.915 776.658,-467.751 779.551,-477.943 785.275,-473.915"/>
</g>
<!-- Node41 -->
<g id="node41" class="node"><title>Node41</title>
<polygon fill="white" stroke="#bfbfbf" points="819,-448.5 819,-467.5 874,-467.5 874,-448.5 819,-448.5"/>
<text text-anchor="middle" x="846.5" y="-455.5" font-family="Helvetica,sans-Serif" font-size="10.00">unistd.h</text>
</g>
<!-- Node1&#45;&gt;Node41 -->
<g id="edge63" class="edge"><title>Node1&#45;&gt;Node41</title>
<path fill="none" stroke="midnightblue" d="M814.775,-504.083C820.142,-496.455 828.018,-485.264 834.579,-475.941"/>
<polygon fill="midnightblue" stroke="midnightblue" points="837.449,-477.943 840.342,-467.751 831.725,-473.915 837.449,-477.943"/>
</g>
<!-- Node42 -->
<g id="node42" class="node"><title>Node42</title>
<polygon fill="white" stroke="#bfbfbf" points="892.5,-448.5 892.5,-467.5 934.5,-467.5 934.5,-448.5 892.5,-448.5"/>
<text text-anchor="middle" x="913.5" y="-455.5" font-family="Helvetica,sans-Serif" font-size="10.00">poll.h</text>
</g>
<!-- Node1&#45;&gt;Node42 -->
<g id="edge64" class="edge"><title>Node1&#45;&gt;Node42</title>
<path fill="none" stroke="midnightblue" d="M825.37,-504.324C842.209,-495.664 868.307,-482.242 887.738,-472.249"/>
<polygon fill="midnightblue" stroke="midnightblue" points="889.38,-475.341 896.672,-467.655 886.178,-469.116 889.38,-475.341"/>
</g>
<!-- Node43 -->
<g id="node43" class="node"><title>Node43</title>
<polygon fill="white" stroke="#bfbfbf" points="952.5,-448.5 952.5,-467.5 998.5,-467.5 998.5,-448.5 952.5,-448.5"/>
<text text-anchor="middle" x="975.5" y="-455.5" font-family="Helvetica,sans-Serif" font-size="10.00">fcntl.h</text>
</g>
<!-- Node1&#45;&gt;Node43 -->
<g id="edge65" class="edge"><title>Node1&#45;&gt;Node43</title>
<path fill="none" stroke="midnightblue" d="M834.962,-504.444C864.174,-494.998 911.228,-479.783 942.745,-469.592"/>
<polygon fill="midnightblue" stroke="midnightblue" points="943.951,-472.88 952.389,-466.473 941.797,-466.22 943.951,-472.88"/>
</g>
<!-- Node44 -->
<g id="node44" class="node"><title>Node44</title>
<polygon fill="white" stroke="#bfbfbf" points="1016.5,-448.5 1016.5,-467.5 1080.5,-467.5 1080.5,-448.5 1016.5,-448.5"/>
<text text-anchor="middle" x="1048.5" y="-455.5" font-family="Helvetica,sans-Serif" font-size="10.00">sys/ioctl.h</text>
</g>
<!-- Node1&#45;&gt;Node44 -->
<g id="edge66" class="edge"><title>Node1&#45;&gt;Node44</title>
<path fill="none" stroke="midnightblue" d="M846.529,-504.444C890.152,-494.628 961.458,-478.584 1006.63,-468.42"/>
<polygon fill="midnightblue" stroke="midnightblue" points="1007.42,-471.83 1016.41,-466.22 1005.89,-465.001 1007.42,-471.83"/>
</g>
<!-- Node3 -->
<g id="node3" class="node"><title>Node3</title>
<polygon fill="white" stroke="#bfbfbf" points="0,-392.5 0,-411.5 53,-411.5 53,-392.5 0,-392.5"/>
<text text-anchor="middle" x="26.5" y="-399.5" font-family="Helvetica,sans-Serif" font-size="10.00">stdint.h</text>
</g>
<!-- Node2&#45;&gt;Node3 -->
<g id="edge2" class="edge"><title>Node2&#45;&gt;Node3</title>
<path fill="none" stroke="midnightblue" d="M124.119,-448.444C105.284,-439.675 75.7688,-425.935 54.1207,-415.858"/>
<polygon fill="midnightblue" stroke="midnightblue" points="55.3375,-412.564 44.7946,-411.516 52.3833,-418.91 55.3375,-412.564"/>
</g>
<!-- Node4 -->
<g id="node4" class="node"><title>Node4</title>
<polygon fill="white" stroke="#bfbfbf" points="71,-392.5 71,-411.5 122,-411.5 122,-392.5 71,-392.5"/>
<text text-anchor="middle" x="96.5" y="-399.5" font-family="Helvetica,sans-Serif" font-size="10.00">errno.h</text>
</g>
<!-- Node2&#45;&gt;Node4 -->
<g id="edge3" class="edge"><title>Node2&#45;&gt;Node4</title>
<path fill="none" stroke="midnightblue" d="M134.904,-448.083C128.273,-440.298 118.479,-428.801 110.442,-419.367"/>
<polygon fill="midnightblue" stroke="midnightblue" points="113.104,-417.094 103.955,-411.751 107.775,-421.633 113.104,-417.094"/>
</g>
<!-- Node5 -->
<g id="node5" class="node"><title>Node5</title>
<g id="a_node5"><a xlink:href="../../d1/d37/torcloggingdefs_8h.html" target="_top" xlink:title="torcloggingdefs.h">
<polygon fill="white" stroke="black" points="140,-392.5 140,-411.5 239,-411.5 239,-392.5 140,-392.5"/>
<text text-anchor="middle" x="189.5" y="-399.5" font-family="Helvetica,sans-Serif" font-size="10.00">torcloggingdefs.h</text>
</a>
</g>
</g>
<!-- Node2&#45;&gt;Node5 -->
<g id="edge4" class="edge"><title>Node2&#45;&gt;Node5</title>
<path fill="none" stroke="midnightblue" d="M150.261,-448.083C157.037,-440.298 167.043,-428.801 175.255,-419.367"/>
<polygon fill="midnightblue" stroke="midnightblue" points="177.958,-421.592 181.883,-411.751 172.678,-416.996 177.958,-421.592"/>
</g>
<!-- Node7 -->
<g id="node7" class="node"><title>Node7</title>
<polygon fill="white" stroke="#bfbfbf" points="1345.5,-56.5 1345.5,-75.5 1389.5,-75.5 1389.5,-56.5 1345.5,-56.5"/>
<text text-anchor="middle" x="1367.5" y="-63.5" font-family="Helvetica,sans-Serif" font-size="10.00">QMap</text>
</g>
<!-- Node6&#45;&gt;Node7 -->
<g id="edge6" class="edge"><title>Node6&#45;&gt;Node7</title>
<path fill="none" stroke="midnightblue" d="M664.931,-448.354C707.739,-428.308 817.272,-377.228 909.5,-336 966.561,-310.492 980.142,-302.38 1038.5,-280 1158.83,-233.852 1209.87,-264.625 1313.5,-188 1338.09,-169.815 1341.13,-159.975 1353.5,-132 1360,-117.301 1363.57,-99.3661 1365.47,-86.0618"/>
<polygon fill="midnightblue" stroke="midnightblue" points="1368.99,-86.1148 1366.75,-75.7599 1362.05,-85.253 1368.99,-86.1148"/>
</g>
<!-- Node8 -->
<g id="node8" class="node"><title>Node8</title>
<polygon fill="white" stroke="#bfbfbf" points="577,-112.5 577,-131.5 630,-131.5 630,-112.5 577,-112.5"/>
<text text-anchor="middle" x="603.5" y="-119.5" font-family="Helvetica,sans-Serif" font-size="10.00">QMutex</text>
</g>
<!-- Node6&#45;&gt;Node8 -->
<g id="edge7" class="edge"><title>Node6&#45;&gt;Node8</title>
<path fill="none" stroke="midnightblue" d="M609.816,-454.217C514.701,-445.999 267.5,-417.826 267.5,-347 267.5,-347 267.5,-347 267.5,-233 267.5,-202.902 263.748,-187.703 286.5,-168 327.752,-132.276 492.198,-124.879 566.6,-123.372"/>
<polygon fill="midnightblue" stroke="midnightblue" points="566.963,-126.866 576.899,-123.19 566.839,-119.868 566.963,-126.866"/>
</g>
<!-- Node9 -->
<g id="node9" class="node"><title>Node9</title>
<g id="a_node9"><a xlink:href="../../d5/d41/torccentral_8h.html" target="_top" xlink:title="torccentral.h">
<polygon fill="white" stroke="black" points="651,-280.5 651,-299.5 728,-299.5 728,-280.5 651,-280.5"/>
<text text-anchor="middle" x="689.5" y="-287.5" font-family="Helvetica,sans-Serif" font-size="10.00">torccentral.h</text>
</a>
</g>
</g>
<!-- Node6&#45;&gt;Node9 -->
<g id="edge8" class="edge"><title>Node6&#45;&gt;Node9</title>
<path fill="none" stroke="midnightblue" d="M652.198,-448.429C657.754,-439.654 666.005,-425.435 670.5,-412 682.154,-377.167 686.731,-334.252 688.476,-310.02"/>
<polygon fill="midnightblue" stroke="midnightblue" points="691.988,-309.943 689.124,-299.743 685.002,-309.503 691.988,-309.943"/>
</g>
<!-- Node29 -->
<g id="node29" class="node"><title>Node29</title>
<g id="a_node29"><a xlink:href="../../d9/dc5/torcpiswitchoutput_8h.html" target="_top" xlink:title="torcpiswitchoutput.h">
<polygon fill="white" stroke="black" points="548,-392.5 548,-411.5 661,-411.5 661,-392.5 548,-392.5"/>
<text text-anchor="middle" x="604.5" y="-399.5" font-family="Helvetica,sans-Serif" font-size="10.00">torcpiswitchoutput.h</text>
</a>
</g>
</g>
<!-- Node6&#45;&gt;Node29 -->
<g id="edge40" class="edge"><title>Node6&#45;&gt;Node29</title>
<path fill="none" stroke="midnightblue" d="M639.565,-448.083C633.571,-440.377 624.748,-429.033 617.452,-419.653"/>
<polygon fill="midnightblue" stroke="midnightblue" points="620.209,-417.496 611.306,-411.751 614.683,-421.793 620.209,-417.496"/>
</g>
<!-- Node32 -->
<g id="node32" class="node"><title>Node32</title>
<g id="a_node32"><a xlink:href="../../d6/d3c/torcpipwmoutput_8h.html" target="_top" xlink:title="torcpipwmoutput.h">
<polygon fill="white" stroke="black" points="423,-392.5 423,-411.5 530,-411.5 530,-392.5 423,-392.5"/>
<text text-anchor="middle" x="476.5" y="-399.5" font-family="Helvetica,sans-Serif" font-size="10.00">torcpipwmoutput.h</text>
</a>
</g>
</g>
<!-- Node6&#45;&gt;Node32 -->
<g id="edge48" class="edge"><title>Node6&#45;&gt;Node32</title>
<path fill="none" stroke="midnightblue" d="M619.563,-448.444C590.84,-439.32 545.171,-424.813 513.179,-414.651"/>
<polygon fill="midnightblue" stroke="midnightblue" points="513.901,-411.208 503.311,-411.516 511.782,-417.88 513.901,-411.208"/>
</g>
<!-- Node6&#45;&gt;Node34 -->
<g id="edge51" class="edge"><title>Node6&#45;&gt;Node34</title>
<path fill="none" stroke="midnightblue" d="M683.262,-450.459C688.05,-449.623 692.891,-448.785 697.5,-448 769.751,-435.692 852.826,-422.132 908.385,-413.147"/>
<polygon fill="midnightblue" stroke="midnightblue" points="909.116,-416.575 918.429,-411.524 907.999,-409.664 909.116,-416.575"/>
</g>
<!-- Node9&#45;&gt;Node8 -->
<g id="edge9" class="edge"><title>Node9&#45;&gt;Node8</title>
<path fill="none" stroke="midnightblue" d="M650.862,-280.95C606.493,-269.274 536.596,-242.747 511.5,-188 498.705,-160.088 536.21,-141.963 567.13,-132.12"/>
<polygon fill="midnightblue" stroke="midnightblue" points="568.284,-135.428 576.865,-129.213 566.281,-128.721 568.284,-135.428"/>
</g>
<!-- Node10 -->
<g id="node10" class="node"><title>Node10</title>
<polygon fill="white" stroke="#bfbfbf" points="520,-168.5 520,-187.5 575,-187.5 575,-168.5 520,-168.5"/>
<text text-anchor="middle" x="547.5" y="-175.5" font-family="Helvetica,sans-Serif" font-size="10.00">QObject</text>
</g>
<!-- Node9&#45;&gt;Node10 -->
<g id="edge10" class="edge"><title>Node9&#45;&gt;Node10</title>
<path fill="none" stroke="midnightblue" d="M666.388,-280.462C647.453,-272.762 620.601,-260.17 600.5,-244 583.376,-230.225 568.02,-210.097 558.3,-195.897"/>
<polygon fill="midnightblue" stroke="midnightblue" points="561.208,-193.948 552.765,-187.548 555.374,-197.816 561.208,-193.948"/>
</g>
<!-- Node11 -->
<g id="node11" class="node"><title>Node11</title>
<polygon fill="white" stroke="#bfbfbf" points="828.5,-112.5 828.5,-131.5 886.5,-131.5 886.5,-112.5 828.5,-112.5"/>
<text text-anchor="middle" x="857.5" y="-119.5" font-family="Helvetica,sans-Serif" font-size="10.00">QVariant</text>
</g>
<!-- Node9&#45;&gt;Node11 -->
<g id="edge11" class="edge"><title>Node9&#45;&gt;Node11</title>
<path fill="none" stroke="midnightblue" d="M712.178,-280.487C746.065,-266.554 809.455,-235.577 842.5,-188 851.894,-174.475 855.48,-155.922 856.812,-142.099"/>
<polygon fill="midnightblue" stroke="midnightblue" points="860.324,-142.02 857.479,-131.814 853.339,-141.567 860.324,-142.02"/>
</g>
<!-- Node12 -->
<g id="node12" class="node"><title>Node12</title>
<g id="a_node12"><a xlink:href="../../d1/df7/torcdevice_8h.html" target="_top" xlink:title="torcdevice.h">
<polygon fill="white" stroke="black" points="646,-224.5 646,-243.5 721,-243.5 721,-224.5 646,-224.5"/>
<text text-anchor="middle" x="683.5" y="-231.5" font-family="Helvetica,sans-Serif" font-size="10.00">torcdevice.h</text>
</a>
</g>
</g>
<!-- Node9&#45;&gt;Node12 -->
<g id="edge12" class="edge"><title>Node9&#45;&gt;Node12</title>
<path fill="none" stroke="midnightblue" d="M688.509,-280.083C687.714,-272.927 686.571,-262.635 685.577,-253.691"/>
<polygon fill="midnightblue" stroke="midnightblue" points="689.055,-253.303 684.472,-243.751 682.098,-254.076 689.055,-253.303"/>
</g>
<!-- Node18 -->
<g id="node18" class="node"><title>Node18</title>
<g id="a_node18"><a xlink:href="../../d3/dee/torchttpservice_8h.html" target="_top" xlink:title="http/torchttpservice.h">
<polygon fill="white" stroke="black" points="929.5,-224.5 929.5,-243.5 1049.5,-243.5 1049.5,-224.5 929.5,-224.5"/>
<text text-anchor="middle" x="989.5" y="-231.5" font-family="Helvetica,sans-Serif" font-size="10.00">http/torchttpservice.h</text>
</a>
</g>
</g>
<!-- Node9&#45;&gt;Node18 -->
<g id="edge23" class="edge"><title>Node9&#45;&gt;Node18</title>
<path fill="none" stroke="midnightblue" d="M728.106,-282.051C779.866,-272.734 872.169,-256.12 932.092,-245.333"/>
<polygon fill="midnightblue" stroke="midnightblue" points="932.931,-248.739 942.153,-243.522 931.691,-241.849 932.931,-248.739"/>
</g>
<!-- Node12&#45;&gt;Node8 -->
<g id="edge14" class="edge"><title>Node12&#45;&gt;Node8</title>
<path fill="none" stroke="midnightblue" d="M668.765,-224.373C656.239,-216.367 638.574,-203.387 627.5,-188 617.409,-173.978 611.087,-155.233 607.481,-141.477"/>
<polygon fill="midnightblue" stroke="midnightblue" points="610.874,-140.616 605.151,-131.699 604.065,-142.238 610.874,-140.616"/>
</g>
<!-- Node12&#45;&gt;Node10 -->
<g id="edge16" class="edge"><title>Node12&#45;&gt;Node10</title>
<path fill="none" stroke="midnightblue" d="M661.95,-224.444C639.469,-215.517 604.012,-201.439 578.52,-191.317"/>
<polygon fill="midnightblue" stroke="midnightblue" points="579.535,-187.954 568.949,-187.516 576.951,-194.46 579.535,-187.954"/>
</g>
<!-- Node13 -->
<g id="node13" class="node"><title>Node13</title>
<polygon fill="white" stroke="#bfbfbf" points="746,-112.5 746,-131.5 795,-131.5 795,-112.5 746,-112.5"/>
<text text-anchor="middle" x="770.5" y="-119.5" font-family="Helvetica,sans-Serif" font-size="10.00">QHash</text>
</g>
<!-- Node12&#45;&gt;Node13 -->
<g id="edge13" class="edge"><title>Node12&#45;&gt;Node13</title>
<path fill="none" stroke="midnightblue" d="M721.088,-226.34C759.075,-218.753 813.914,-205.155 826.5,-188 840.085,-169.483 816.993,-149.693 796.475,-136.88"/>
<polygon fill="midnightblue" stroke="midnightblue" points="798.053,-133.747 787.663,-131.677 794.494,-139.775 798.053,-133.747"/>
</g>
<!-- Node14 -->
<g id="node14" class="node"><title>Node14</title>
<polygon fill="white" stroke="#bfbfbf" points="1013,-56.5 1013,-75.5 1066,-75.5 1066,-56.5 1013,-56.5"/>
<text text-anchor="middle" x="1039.5" y="-63.5" font-family="Helvetica,sans-Serif" font-size="10.00">QString</text>
</g>
<!-- Node12&#45;&gt;Node14 -->
<g id="edge15" class="edge"><title>Node12&#45;&gt;Node14</title>
<path fill="none" stroke="midnightblue" d="M721.13,-225.425C753.999,-218.094 802.565,-205.514 842.5,-188 911.672,-157.663 985.6,-106.544 1019.91,-81.5884"/>
<polygon fill="midnightblue" stroke="midnightblue" points="1022.14,-84.2961 1028.13,-75.5586 1018,-78.6523 1022.14,-84.2961"/>
</g>
<!-- Node15 -->
<g id="node15" class="node"><title>Node15</title>
<g id="a_node15"><a xlink:href="../../d8/dfe/torcreferencecounted_8h.html" target="_top" xlink:title="torcreferencecounted.h">
<polygon fill="white" stroke="black" points="296,-168.5 296,-187.5 425,-187.5 425,-168.5 296,-168.5"/>
<text text-anchor="middle" x="360.5" y="-175.5" font-family="Helvetica,sans-Serif" font-size="10.00">torcreferencecounted.h</text>
</a>
</g>
</g>
<!-- Node12&#45;&gt;Node15 -->
<g id="edge17" class="edge"><title>Node12&#45;&gt;Node15</title>
<path fill="none" stroke="midnightblue" d="M645.816,-226.7C590.766,-217.496 487.748,-200.274 421.726,-189.236"/>
<polygon fill="midnightblue" stroke="midnightblue" points="421.901,-185.717 411.461,-187.52 420.747,-192.621 421.901,-185.717"/>
</g>
<!-- Node17 -->
<g id="node17" class="node"><title>Node17</title>
<g id="a_node17"><a xlink:href="../../d2/d5b/torcdevicehandler_8h.html" target="_top" xlink:title="torcdevicehandler.h">
<polygon fill="white" stroke="black" points="707.5,-168.5 707.5,-187.5 817.5,-187.5 817.5,-168.5 707.5,-168.5"/>
<text text-anchor="middle" x="762.5" y="-175.5" font-family="Helvetica,sans-Serif" font-size="10.00">torcdevicehandler.h</text>
</a>
</g>
</g>
<!-- Node12&#45;&gt;Node17 -->
<g id="edge19" class="edge"><title>Node12&#45;&gt;Node17</title>
<path fill="none" stroke="midnightblue" d="M696.193,-224.324C708.401,-215.979 727.078,-203.212 741.503,-193.352"/>
<polygon fill="midnightblue" stroke="midnightblue" points="743.558,-196.187 749.839,-187.655 739.608,-190.408 743.558,-196.187"/>
</g>
<!-- Node16 -->
<g id="node16" class="node"><title>Node16</title>
<polygon fill="white" stroke="#bfbfbf" points="325.5,-112.5 325.5,-131.5 395.5,-131.5 395.5,-112.5 325.5,-112.5"/>
<text text-anchor="middle" x="360.5" y="-119.5" font-family="Helvetica,sans-Serif" font-size="10.00">QAtomicInt</text>
</g>
<!-- Node15&#45;&gt;Node16 -->
<g id="edge18" class="edge"><title>Node15&#45;&gt;Node16</title>
<path fill="none" stroke="midnightblue" d="M360.5,-168.083C360.5,-161.006 360.5,-150.861 360.5,-141.986"/>
<polygon fill="midnightblue" stroke="midnightblue" points="364,-141.751 360.5,-131.751 357,-141.751 364,-141.751"/>
</g>
<!-- Node17&#45;&gt;Node8 -->
<g id="edge21" class="edge"><title>Node17&#45;&gt;Node8</title>
<path fill="none" stroke="midnightblue" d="M737.306,-168.444C710.557,-159.359 668.097,-144.939 638.195,-134.783"/>
<polygon fill="midnightblue" stroke="midnightblue" points="639.171,-131.418 628.576,-131.516 636.919,-138.046 639.171,-131.418"/>
</g>
<!-- Node17&#45;&gt;Node11 -->
<g id="edge22" class="edge"><title>Node17&#45;&gt;Node11</title>
<path fill="none" stroke="midnightblue" d="M777.763,-168.324C792.721,-159.822 815.755,-146.729 833.227,-136.797"/>
<polygon fill="midnightblue" stroke="midnightblue" points="835.31,-139.639 842.274,-131.655 831.851,-133.553 835.31,-139.639"/>
</g>
<!-- Node17&#45;&gt;Node13 -->
<g id="edge20" class="edge"><title>Node17&#45;&gt;Node13</title>
<path fill="none" stroke="midnightblue" d="M763.821,-168.083C764.881,-160.927 766.406,-150.635 767.731,-141.691"/>
<polygon fill="midnightblue" stroke="midnightblue" points="771.2,-142.156 769.204,-131.751 764.276,-141.13 771.2,-142.156"/>
</g>
<!-- Node18&#45;&gt;Node7 -->
<g id="edge24" class="edge"><title>Node18&#45;&gt;Node7</title>
<path fill="none" stroke="midnightblue" d="M1049.73,-229.725C1125.39,-224.633 1250.02,-212.715 1288.5,-188 1327.08,-163.226 1350.83,-112.164 1361.27,-84.9687"/>
<polygon fill="midnightblue" stroke="midnightblue" points="1364.58,-86.1114 1364.73,-75.5176 1358.01,-83.7073 1364.58,-86.1114"/>
</g>
<!-- Node18&#45;&gt;Node8 -->
<g id="edge25" class="edge"><title>Node18&#45;&gt;Node8</title>
<path fill="none" stroke="midnightblue" d="M929.23,-231.441C868.92,-228.115 774.439,-218.044 698.5,-188 668.637,-176.185 638.831,-153.59 620.778,-138.404"/>
<polygon fill="midnightblue" stroke="midnightblue" points="622.771,-135.501 612.911,-131.624 618.201,-140.804 622.771,-135.501"/>
</g>
<!-- Node19 -->
<g id="node19" class="node"><title>Node19</title>
<polygon fill="white" stroke="#bfbfbf" points="950,-168.5 950,-187.5 1029,-187.5 1029,-168.5 950,-168.5"/>
<text text-anchor="middle" x="989.5" y="-175.5" font-family="Helvetica,sans-Serif" font-size="10.00">QMetaObject</text>
</g>
<!-- Node18&#45;&gt;Node19 -->
<g id="edge26" class="edge"><title>Node18&#45;&gt;Node19</title>
<path fill="none" stroke="midnightblue" d="M989.5,-224.083C989.5,-217.006 989.5,-206.861 989.5,-197.986"/>
<polygon fill="midnightblue" stroke="midnightblue" points="993,-197.751 989.5,-187.751 986,-197.751 993,-197.751"/>
</g>
<!-- Node20 -->
<g id="node20" class="node"><title>Node20</title>
<polygon fill="white" stroke="#bfbfbf" points="1047,-168.5 1047,-187.5 1146,-187.5 1146,-168.5 1047,-168.5"/>
<text text-anchor="middle" x="1096.5" y="-175.5" font-family="Helvetica,sans-Serif" font-size="10.00">QCoreApplication</text>
</g>
<!-- Node18&#45;&gt;Node20 -->
<g id="edge27" class="edge"><title>Node18&#45;&gt;Node20</title>
<path fill="none" stroke="midnightblue" d="M1006.69,-224.324C1023.85,-215.664 1050.45,-202.242 1070.25,-192.249"/>
<polygon fill="midnightblue" stroke="midnightblue" points="1072,-195.285 1079.35,-187.655 1068.85,-189.035 1072,-195.285"/>
</g>
<!-- Node21 -->
<g id="node21" class="node"><title>Node21</title>
<g id="a_node21"><a xlink:href="../../d4/d11/torchttphandler_8h.html" target="_top" xlink:title="torchttphandler.h">
<polygon fill="white" stroke="black" points="1164,-168.5 1164,-187.5 1263,-187.5 1263,-168.5 1164,-168.5"/>
<text text-anchor="middle" x="1213.5" y="-175.5" font-family="Helvetica,sans-Serif" font-size="10.00">torchttphandler.h</text>
</a>
</g>
</g>
<!-- Node18&#45;&gt;Node21 -->
<g id="edge28" class="edge"><title>Node18&#45;&gt;Node21</title>
<path fill="none" stroke="midnightblue" d="M1024.99,-224.444C1063.82,-215.083 1126.16,-200.056 1168.42,-189.868"/>
<polygon fill="midnightblue" stroke="midnightblue" points="1169.27,-193.263 1178.17,-187.516 1167.63,-186.458 1169.27,-193.263"/>
</g>
<!-- Node23 -->
<g id="node23" class="node"><title>Node23</title>
<g id="a_node23"><a xlink:href="../../df/dd7/torchttprequest_8h.html" target="_top" xlink:title="torchttprequest.h">
<polygon fill="white" stroke="black" points="1191,-112.5 1191,-131.5 1292,-131.5 1292,-112.5 1191,-112.5"/>
<text text-anchor="middle" x="1241.5" y="-119.5" font-family="Helvetica,sans-Serif" font-size="10.00">torchttprequest.h</text>
</a>
</g>
</g>
<!-- Node18&#45;&gt;Node23 -->
<g id="edge39" class="edge"><title>Node18&#45;&gt;Node23</title>
<path fill="none" stroke="midnightblue" d="M1049.68,-232.229C1124.11,-229.853 1244.44,-220.873 1272.5,-188 1284.85,-173.532 1271.57,-153.303 1258.76,-139.271"/>
<polygon fill="midnightblue" stroke="midnightblue" points="1260.97,-136.52 1251.48,-131.815 1255.96,-141.413 1260.97,-136.52"/>
</g>
<!-- Node21&#45;&gt;Node14 -->
<g id="edge29" class="edge"><title>Node21&#45;&gt;Node14</title>
<path fill="none" stroke="midnightblue" d="M1168.76,-168.433C1142.57,-161.763 1109.94,-150.447 1085.5,-132 1069,-119.55 1056.09,-99.4736 1048.19,-84.9243"/>
<polygon fill="midnightblue" stroke="midnightblue" points="1051.24,-83.1884 1043.55,-75.8963 1045.01,-86.3899 1051.24,-83.1884"/>
</g>
<!-- Node22 -->
<g id="node22" class="node"><title>Node22</title>
<polygon fill="white" stroke="#bfbfbf" points="1094.5,-112.5 1094.5,-131.5 1172.5,-131.5 1172.5,-112.5 1094.5,-112.5"/>
<text text-anchor="middle" x="1133.5" y="-119.5" font-family="Helvetica,sans-Serif" font-size="10.00">QVariantMap</text>
</g>
<!-- Node21&#45;&gt;Node22 -->
<g id="edge30" class="edge"><title>Node21&#45;&gt;Node22</title>
<path fill="none" stroke="midnightblue" d="M1200.65,-168.324C1188.28,-159.979 1169.37,-147.212 1154.76,-137.352"/>
<polygon fill="midnightblue" stroke="midnightblue" points="1156.57,-134.348 1146.32,-131.655 1152.65,-140.15 1156.57,-134.348"/>
</g>
<!-- Node21&#45;&gt;Node23 -->
<g id="edge31" class="edge"><title>Node21&#45;&gt;Node23</title>
<path fill="none" stroke="midnightblue" d="M1218.12,-168.083C1221.96,-160.691 1227.52,-149.953 1232.26,-140.811"/>
<polygon fill="midnightblue" stroke="midnightblue" points="1235.47,-142.24 1236.96,-131.751 1229.25,-139.018 1235.47,-142.24"/>
</g>
<!-- Node23&#45;&gt;Node7 -->
<g id="edge32" class="edge"><title>Node23&#45;&gt;Node7</title>
<path fill="none" stroke="midnightblue" d="M1261.47,-112.444C1282.11,-103.596 1314.56,-89.6875 1338.13,-79.5865"/>
<polygon fill="midnightblue" stroke="midnightblue" points="1339.82,-82.6727 1347.63,-75.5164 1337.06,-76.2387 1339.82,-82.6727"/>
</g>
<!-- Node23&#45;&gt;Node14 -->
<g id="edge34" class="edge"><title>Node23&#45;&gt;Node14</title>
<path fill="none" stroke="midnightblue" d="M1209.49,-112.444C1173.14,-102.725 1113.94,-86.8991 1075.87,-76.7216"/>
<polygon fill="midnightblue" stroke="midnightblue" points="1076.76,-73.3382 1066.2,-74.1368 1074.95,-80.1007 1076.76,-73.3382"/>
</g>
<!-- Node24 -->
<g id="node24" class="node"><title>Node24</title>
<polygon fill="white" stroke="#bfbfbf" points="1084,-56.5 1084,-75.5 1125,-75.5 1125,-56.5 1084,-56.5"/>
<text text-anchor="middle" x="1104.5" y="-63.5" font-family="Helvetica,sans-Serif" font-size="10.00">QPair</text>
</g>
<!-- Node23&#45;&gt;Node24 -->
<g id="edge33" class="edge"><title>Node23&#45;&gt;Node24</title>
<path fill="none" stroke="midnightblue" d="M1219.79,-112.444C1196.88,-103.412 1160.59,-89.1067 1134.85,-78.9612"/>
<polygon fill="midnightblue" stroke="midnightblue" points="1135.8,-75.5738 1125.21,-75.1629 1133.23,-82.0862 1135.8,-75.5738"/>
</g>
<!-- Node25 -->
<g id="node25" class="node"><title>Node25</title>
<polygon fill="white" stroke="#bfbfbf" points="1143,-56.5 1143,-75.5 1214,-75.5 1214,-56.5 1143,-56.5"/>
<text text-anchor="middle" x="1178.5" y="-63.5" font-family="Helvetica,sans-Serif" font-size="10.00">QDateTime</text>
</g>
<!-- Node23&#45;&gt;Node25 -->
<g id="edge35" class="edge"><title>Node23&#45;&gt;Node25</title>
<path fill="none" stroke="midnightblue" d="M1231.38,-112.324C1221.97,-104.263 1207.76,-92.0765 1196.43,-82.3695"/>
<polygon fill="midnightblue" stroke="midnightblue" points="1198.68,-79.6844 1188.81,-75.8339 1194.12,-84.9993 1198.68,-79.6844"/>
</g>
<!-- Node26 -->
<g id="node26" class="node"><title>Node26</title>
<g id="a_node26"><a xlink:href="../../de/de6/torchttpreader_8h.html" target="_top" xlink:title="torchttpreader.h">
<polygon fill="white" stroke="black" points="1232,-56.5 1232,-75.5 1327,-75.5 1327,-56.5 1232,-56.5"/>
<text text-anchor="middle" x="1279.5" y="-63.5" font-family="Helvetica,sans-Serif" font-size="10.00">torchttpreader.h</text>
</a>
</g>
</g>
<!-- Node23&#45;&gt;Node26 -->
<g id="edge36" class="edge"><title>Node23&#45;&gt;Node26</title>
<path fill="none" stroke="midnightblue" d="M1247.77,-112.083C1253.14,-104.455 1261.02,-93.2645 1267.58,-83.9408"/>
<polygon fill="midnightblue" stroke="midnightblue" points="1270.45,-85.9434 1273.34,-75.7511 1264.72,-81.9149 1270.45,-85.9434"/>
</g>
<!-- Node27 -->
<g id="node27" class="node"><title>Node27</title>
<polygon fill="white" stroke="#bfbfbf" points="1199,-0.5 1199,-19.5 1270,-19.5 1270,-0.5 1199,-0.5"/>
<text text-anchor="middle" x="1234.5" y="-7.5" font-family="Helvetica,sans-Serif" font-size="10.00">QByteArray</text>
</g>
<!-- Node26&#45;&gt;Node27 -->
<g id="edge37" class="edge"><title>Node26&#45;&gt;Node27</title>
<path fill="none" stroke="midnightblue" d="M1272.07,-56.083C1265.65,-48.3768 1256.19,-37.0333 1248.38,-27.6531"/>
<polygon fill="midnightblue" stroke="midnightblue" points="1250.88,-25.1927 1241.79,-19.7511 1245.51,-29.674 1250.88,-25.1927"/>
</g>
<!-- Node28 -->
<g id="node28" class="node"><title>Node28</title>
<polygon fill="white" stroke="#bfbfbf" points="1288.5,-0.5 1288.5,-19.5 1360.5,-19.5 1360.5,-0.5 1288.5,-0.5"/>
<text text-anchor="middle" x="1324.5" y="-7.5" font-family="Helvetica,sans-Serif" font-size="10.00">QTcpSocket</text>
</g>
<!-- Node26&#45;&gt;Node28 -->
<g id="edge38" class="edge"><title>Node26&#45;&gt;Node28</title>
<path fill="none" stroke="midnightblue" d="M1286.93,-56.083C1293.35,-48.3768 1302.81,-37.0333 1310.62,-27.6531"/>
<polygon fill="midnightblue" stroke="midnightblue" points="1313.49,-29.674 1317.21,-19.7511 1308.12,-25.1927 1313.49,-29.674"/>
</g>
<!-- Node30 -->
<g id="node30" class="node"><title>Node30</title>
<g id="a_node30"><a xlink:href="../../db/d9e/torcswitchoutput_8h.html" target="_top" xlink:title="torcswitchoutput.h">
<polygon fill="white" stroke="black" points="550,-336.5 550,-355.5 655,-355.5 655,-336.5 550,-336.5"/>
<text text-anchor="middle" x="602.5" y="-343.5" font-family="Helvetica,sans-Serif" font-size="10.00">torcswitchoutput.h</text>
</a>
</g>
</g>
<!-- Node29&#45;&gt;Node30 -->
<g id="edge41" class="edge"><title>Node29&#45;&gt;Node30</title>
<path fill="none" stroke="midnightblue" d="M604.17,-392.083C603.908,-385.006 603.532,-374.861 603.203,-365.986"/>
<polygon fill="midnightblue" stroke="midnightblue" points="606.692,-365.615 602.824,-355.751 599.697,-365.874 606.692,-365.615"/>
</g>
<!-- Node31 -->
<g id="node31" class="node"><title>Node31</title>
<g id="a_node31"><a xlink:href="../../dc/d01/torcoutput_8h.html" target="_top" xlink:title="torcoutput.h">
<polygon fill="white" stroke="black" points="453.5,-280.5 453.5,-299.5 529.5,-299.5 529.5,-280.5 453.5,-280.5"/>
<text text-anchor="middle" x="491.5" y="-287.5" font-family="Helvetica,sans-Serif" font-size="10.00">torcoutput.h</text>
</a>
</g>
</g>
<!-- Node30&#45;&gt;Node31 -->
<g id="edge42" class="edge"><title>Node30&#45;&gt;Node31</title>
<path fill="none" stroke="midnightblue" d="M584.666,-336.324C566.784,-327.625 539.025,-314.12 518.454,-304.113"/>
<polygon fill="midnightblue" stroke="midnightblue" points="519.813,-300.882 509.29,-299.655 516.751,-307.177 519.813,-300.882"/>
</g>
<!-- Node31&#45;&gt;Node8 -->
<g id="edge43" class="edge"><title>Node31&#45;&gt;Node8</title>
<path fill="none" stroke="midnightblue" d="M489.767,-280.375C485.992,-259.03 479.261,-202.938 504.5,-168 519.198,-147.654 545.33,-136.304 567.055,-130.093"/>
<polygon fill="midnightblue" stroke="midnightblue" points="568.185,-133.416 576.983,-127.514 566.424,-126.641 568.185,-133.416"/>
</g>
<!-- Node31&#45;&gt;Node10 -->
<g id="edge44" class="edge"><title>Node31&#45;&gt;Node10</title>
<path fill="none" stroke="midnightblue" d="M495.894,-280.368C505.054,-262.376 526.347,-220.55 538.526,-196.627"/>
<polygon fill="midnightblue" stroke="midnightblue" points="541.708,-198.091 543.126,-187.591 535.47,-194.915 541.708,-198.091"/>
</g>
<!-- Node31&#45;&gt;Node12 -->
<g id="edge47" class="edge"><title>Node31&#45;&gt;Node12</title>
<path fill="none" stroke="midnightblue" d="M521.923,-280.444C554.785,-271.201 607.285,-256.436 643.474,-246.257"/>
<polygon fill="midnightblue" stroke="midnightblue" points="644.54,-249.593 653.219,-243.516 642.645,-242.855 644.54,-249.593"/>
</g>
<!-- Node31&#45;&gt;Node15 -->
<g id="edge45" class="edge"><title>Node31&#45;&gt;Node15</title>
<path fill="none" stroke="midnightblue" d="M481.221,-280.368C459.028,-261.733 406.389,-217.532 378.523,-194.134"/>
<polygon fill="midnightblue" stroke="midnightblue" points="380.641,-191.342 370.732,-187.591 376.139,-196.702 380.641,-191.342"/>
</g>
<!-- Node31&#45;&gt;Node18 -->
<g id="edge46" class="edge"><title>Node31&#45;&gt;Node18</title>
<path fill="none" stroke="midnightblue" d="M529.75,-284.852C613.153,-275.809 812.428,-254.201 919.167,-242.626"/>
<polygon fill="midnightblue" stroke="midnightblue" points="919.637,-246.096 929.201,-241.538 918.882,-239.137 919.637,-246.096"/>
</g>
<!-- Node33 -->
<g id="node33" class="node"><title>Node33</title>
<g id="a_node33"><a xlink:href="../../df/d6c/torcpwmoutput_8h.html" target="_top" xlink:title="torcpwmoutput.h">
<polygon fill="white" stroke="black" points="431.5,-336.5 431.5,-355.5 529.5,-355.5 529.5,-336.5 431.5,-336.5"/>
<text text-anchor="middle" x="480.5" y="-343.5" font-family="Helvetica,sans-Serif" font-size="10.00">torcpwmoutput.h</text>
</a>
</g>
</g>
<!-- Node32&#45;&gt;Node33 -->
<g id="edge49" class="edge"><title>Node32&#45;&gt;Node33</title>
<path fill="none" stroke="midnightblue" d="M477.161,-392.083C477.685,-385.006 478.436,-374.861 479.094,-365.986"/>
<polygon fill="midnightblue" stroke="midnightblue" points="482.603,-365.982 479.852,-355.751 475.623,-365.465 482.603,-365.982"/>
</g>
<!-- Node33&#45;&gt;Node31 -->
<g id="edge50" class="edge"><title>Node33&#45;&gt;Node31</title>
<path fill="none" stroke="midnightblue" d="M482.316,-336.083C483.774,-328.927 485.871,-318.635 487.693,-309.691"/>
<polygon fill="midnightblue" stroke="midnightblue" points="491.151,-310.248 489.717,-299.751 484.292,-308.851 491.151,-310.248"/>
</g>
<!-- Node35 -->
<g id="node35" class="node"><title>Node35</title>
<polygon fill="white" stroke="#bfbfbf" points="1135,-336.5 1135,-355.5 1174,-355.5 1174,-336.5 1135,-336.5"/>
<text text-anchor="middle" x="1154.5" y="-343.5" font-family="Helvetica,sans-Serif" font-size="10.00">QFile</text>
</g>
<!-- Node34&#45;&gt;Node35 -->
<g id="edge52" class="edge"><title>Node34&#45;&gt;Node35</title>
<path fill="none" stroke="midnightblue" d="M1001.35,-392.436C1030.47,-384.048 1076.25,-370.768 1125.06,-356.096"/>
<polygon fill="midnightblue" stroke="midnightblue" points="1126.29,-359.38 1134.86,-353.144 1124.27,-352.678 1126.29,-359.38"/>
</g>
<!-- Node36 -->
<g id="node36" class="node"><title>Node36</title>
<g id="a_node36"><a xlink:href="../../dd/db0/torcqthread_8h.html" target="_top" xlink:title="torcqthread.h">
<polygon fill="white" stroke="black" points="1034.5,-336.5 1034.5,-355.5 1116.5,-355.5 1116.5,-336.5 1034.5,-336.5"/>
<text text-anchor="middle" x="1075.5" y="-343.5" font-family="Helvetica,sans-Serif" font-size="10.00">torcqthread.h</text>
</a>
</g>
</g>
<!-- Node34&#45;&gt;Node36 -->
<g id="edge53" class="edge"><title>Node34&#45;&gt;Node36</title>
<path fill="none" stroke="midnightblue" d="M988.209,-392.324C1004.81,-383.703 1030.5,-370.364 1049.72,-360.386"/>
<polygon fill="midnightblue" stroke="midnightblue" points="1051.57,-363.369 1058.83,-355.655 1048.34,-357.156 1051.57,-363.369"/>
</g>
<!-- Node38 -->
<g id="node38" class="node"><title>Node38</title>
<g id="a_node38"><a xlink:href="../../d9/d2a/torcswitchinput_8h.html" target="_top" xlink:title="torcswitchinput.h">
<polygon fill="white" stroke="black" points="918.5,-336.5 918.5,-355.5 1016.5,-355.5 1016.5,-336.5 918.5,-336.5"/>
<text text-anchor="middle" x="967.5" y="-343.5" font-family="Helvetica,sans-Serif" font-size="10.00">torcswitchinput.h</text>
</a>
</g>
</g>
<!-- Node34&#45;&gt;Node38 -->
<g id="edge55" class="edge"><title>Node34&#45;&gt;Node38</title>
<path fill="none" stroke="midnightblue" d="M970.839,-392.083C970.315,-385.006 969.564,-374.861 968.906,-365.986"/>
<polygon fill="midnightblue" stroke="midnightblue" points="972.377,-365.465 968.148,-355.751 965.397,-365.982 972.377,-365.465"/>
</g>
<!-- Node37 -->
<g id="node37" class="node"><title>Node37</title>
<polygon fill="white" stroke="#bfbfbf" points="1047,-280.5 1047,-299.5 1104,-299.5 1104,-280.5 1047,-280.5"/>
<text text-anchor="middle" x="1075.5" y="-287.5" font-family="Helvetica,sans-Serif" font-size="10.00">QThread</text>
</g>
<!-- Node36&#45;&gt;Node37 -->
<g id="edge54" class="edge"><title>Node36&#45;&gt;Node37</title>
<path fill="none" stroke="midnightblue" d="M1075.5,-336.083C1075.5,-329.006 1075.5,-318.861 1075.5,-309.986"/>
<polygon fill="midnightblue" stroke="midnightblue" points="1079,-309.751 1075.5,-299.751 1072,-309.751 1079,-309.751"/>
</g>
<!-- Node39 -->
<g id="node39" class="node"><title>Node39</title>
<g id="a_node39"><a xlink:href="../../dd/d69/torcinput_8h.html" target="_top" xlink:title="torcinput.h">
<polygon fill="white" stroke="black" points="753.5,-280.5 753.5,-299.5 821.5,-299.5 821.5,-280.5 753.5,-280.5"/>
<text text-anchor="middle" x="787.5" y="-287.5" font-family="Helvetica,sans-Serif" font-size="10.00">torcinput.h</text>
</a>
</g>
</g>
<!-- Node38&#45;&gt;Node39 -->
<g id="edge56" class="edge"><title>Node38&#45;&gt;Node39</title>
<path fill="none" stroke="midnightblue" d="M938.978,-336.444C908.434,-327.28 859.792,-312.688 825.897,-302.519"/>
<polygon fill="midnightblue" stroke="midnightblue" points="826.472,-299.038 815.888,-299.516 824.461,-305.742 826.472,-299.038"/>
</g>
<!-- Node39&#45;&gt;Node8 -->
<g id="edge57" class="edge"><title>Node39&#45;&gt;Node8</title>
<path fill="none" stroke="midnightblue" d="M781.709,-280.457C772.27,-267.036 752.41,-240.812 730.5,-224 701.801,-201.977 685.903,-210.404 657.5,-188 640.114,-174.286 624.457,-154.148 614.535,-139.928"/>
<polygon fill="midnightblue" stroke="midnightblue" points="617.382,-137.89 608.882,-131.565 611.583,-141.81 617.382,-137.89"/>
</g>
<!-- Node39&#45;&gt;Node10 -->
<g id="edge58" class="edge"><title>Node39&#45;&gt;Node10</title>
<path fill="none" stroke="midnightblue" d="M753.222,-282.155C722.004,-275.132 675.168,-262.591 637.5,-244 610.17,-230.512 582.265,-208.887 564.923,-194.324"/>
<polygon fill="midnightblue" stroke="midnightblue" points="567.18,-191.649 557.306,-187.808 562.63,-196.968 567.18,-191.649"/>
</g>
<!-- Node39&#45;&gt;Node12 -->
<g id="edge60" class="edge"><title>Node39&#45;&gt;Node12</title>
<path fill="none" stroke="midnightblue" d="M770.791,-280.324C754.188,-271.703 728.498,-258.364 709.28,-248.386"/>
<polygon fill="midnightblue" stroke="midnightblue" points="710.656,-245.156 700.168,-243.655 707.43,-251.369 710.656,-245.156"/>
</g>
<!-- Node39&#45;&gt;Node18 -->
<g id="edge59" class="edge"><title>Node39&#45;&gt;Node18</title>
<path fill="none" stroke="midnightblue" d="M819.508,-280.444C854.229,-271.162 909.788,-256.309 947.877,-246.127"/>
<polygon fill="midnightblue" stroke="midnightblue" points="948.885,-249.48 957.642,-243.516 947.078,-242.718 948.885,-249.48"/>
</g>
</g>
</svg>
        <g id="navigator" transform="translate(0 0)" fill="#404254">
                <rect fill="#f2f5e9" fill-opacity="0.5" stroke="#606060" stroke-width=".5" x="0" y="0" width="60" height="60"/>
                <use id="zoomplus" xlink:href="#zoomPlus" x="17" y="9" onmousedown="handleZoom(evt,'in')"/>
                <use id="zoomminus" xlink:href="#zoomMin" x="42" y="9" onmousedown="handleZoom(evt,'out')"/>
                <use id="reset" xlink:href="#resetDef" x="30" y="36" onmousedown="handleReset()"/>
                <g id="arrowUp" xlink:href="#dirArrow" transform="translate(30 24)" onmousedown="handlePan(0,-1)">
                  <use xlink:href="#rim" fill="#404040">
                        <set attributeName="fill" to="#808080" begin="arrowUp.mouseover" end="arrowUp.mouseout"/>
                  </use>
                  <path fill="none" stroke="white" stroke-width="1.5" d="M0,-3.0v7 M-2.5,-0.5L0,-3.0L2.5,-0.5"/>
                </g>
                <g id="arrowRight" xlink:href="#dirArrow" transform="rotate(90) translate(36 -43)" onmousedown="handlePan(1,0)">
                  <use xlink:href="#rim" fill="#404040">
                        <set attributeName="fill" to="#808080" begin="arrowRight.mouseover" end="arrowRight.mouseout"/>
                  </use>
                  <path fill="none" stroke="white" stroke-width="1.5" d="M0,-3.0v7 M-2.5,-0.5L0,-3.0L2.5,-0.5"/>
                </g>
                <g id="arrowDown" xlink:href="#dirArrow" transform="rotate(180) translate(-30 -48)" onmousedown="handlePan(0,1)">
                  <use xlink:href="#rim" fill="#404040">
                        <set attributeName="fill" to="#808080" begin="arrowDown.mouseover" end="arrowDown.mouseout"/>
                  </use>
                  <path fill="none" stroke="white" stroke-width="1.5" d="M0,-3.0v7 M-2.5,-0.5L0,-3.0L2.5,-0.5"/>
                </g>
                <g id="arrowLeft" xlink:href="#dirArrow" transform="rotate(270) translate(-36 17)" onmousedown="handlePan(-1,0)">
                  <use xlink:href="#rim" fill="#404040">
                        <set attributeName="fill" to="#808080" begin="arrowLeft.mouseover" end="arrowLeft.mouseout"/>
                  </use>
                  <path fill="none" stroke="white" stroke-width="1.5" d="M0,-3.0v7 M-2.5,-0.5L0,-3.0L2.5,-0.5"/>
                </g>
        </g>
        <svg viewBox="0 0 15 15" width="100%" height="30px" preserveAspectRatio="xMaxYMin meet">
         <g id="arrow_out" transform="scale(0.3 0.3)">
          <a xlink:href="torcpiswitchinput_8cpp__incl_org.svg" target="_base">
           <rect id="button" ry="5" rx="5" y="6" x="6" height="38" width="38"
                fill="#f2f5e9" fill-opacity="0.5" stroke="#606060" stroke-width="1.0"/>
           <path id="arrow"
             d="M 11.500037,31.436501 C 11.940474,20.09759 22.043105,11.32322 32.158766,21.979434 L 37.068811,17.246167 C 37.068811,17.246167 37.088388,32 37.088388,32 L 22.160133,31.978069 C 22.160133,31.978069 26.997745,27.140456 26.997745,27.140456 C 18.528582,18.264221 13.291696,25.230495 11.500037,31.436501 z"
             style="fill:#404040;"/>
          </a>
         </g>
        </svg>
</svg>
