<?xml version="1.0" encoding="UTF-8" standalone="no"?>
<!DOCTYPE svg PUBLIC "-//W3C//DTD SVG 1.1//EN"
 "http://www.w3.org/Graphics/SVG/1.1/DTD/svg11.dtd">
<!-- Generated by graphviz version 2.38.0 (20140413.2041)
 -->
<!-- Title: TorcPWMOutput Pages: 1 -->
<svg width="407pt" height="252pt"
 viewBox="0.00 0.00 407.00 252.00" xmlns="http://www.w3.org/2000/svg" xmlns:xlink="http://www.w3.org/1999/xlink">
<g id="graph0" class="graph" transform="scale(1 1) rotate(0) translate(4 248)">
<title>TorcPWMOutput</title>
<polygon fill="white" stroke="none" points="-4,4 -4,-248 403,-248 403,4 -4,4"/>
<!-- Node1 -->
<g id="node1" class="node"><title>Node1</title>
<polygon fill="#bfbfbf" stroke="black" points="171,-56.5 171,-75.5 262,-75.5 262,-56.5 171,-56.5"/>
<text text-anchor="middle" x="216.5" y="-63.5" font-family="Helvetica,sans-Serif" font-size="10.00">TorcPWMOutput</text>
</g>
<!-- Node8 -->
<g id="node8" class="node"><title>Node8</title>
<g id="a_node8"><a xlink:href="../../d6/d33/class_torc_i2_c_p_c_a9685_channel.html" target="_top" xlink:title="TorcI2CPCA9685Channel">
<polygon fill="white" stroke="black" points="0,-0.5 0,-19.5 133,-19.5 133,-0.5 0,-0.5"/>
<text text-anchor="middle" x="66.5" y="-7.5" font-family="Helvetica,sans-Serif" font-size="10.00">TorcI2CPCA9685Channel</text>
</a>
</g>
</g>
<!-- Node1&#45;&gt;Node8 -->
<g id="edge7" class="edge"><title>Node1&#45;&gt;Node8</title>
<path fill="none" stroke="midnightblue" d="M183.275,-53.0392C155.052,-42.8786 115.238,-28.5457 90.1567,-19.5164"/>
<polygon fill="midnightblue" stroke="midnightblue" points="182.138,-56.3494 192.732,-56.4435 184.509,-49.7632 182.138,-56.3494"/>
</g>
<!-- Node9 -->
<g id="node9" class="node"><title>Node9</title>
<g id="a_node9"><a xlink:href="../../d0/db8/class_torc_network_p_w_m_output.html" target="_top" xlink:title="TorcNetworkPWMOutput">
<polygon fill="white" stroke="black" points="151.5,-0.5 151.5,-19.5 281.5,-19.5 281.5,-0.5 151.5,-0.5"/>
<text text-anchor="middle" x="216.5" y="-7.5" font-family="Helvetica,sans-Serif" font-size="10.00">TorcNetworkPWMOutput</text>
</a>
</g>
</g>
<!-- Node1&#45;&gt;Node9 -->
<g id="edge8" class="edge"><title>Node1&#45;&gt;Node9</title>
<path fill="none" stroke="midnightblue" d="M216.5,-45.8045C216.5,-36.9102 216.5,-26.7798 216.5,-19.7511"/>
<polygon fill="midnightblue" stroke="midnightblue" points="213,-46.083 216.5,-56.083 220,-46.083 213,-46.083"/>
</g>
<!-- Node10 -->
<g id="node10" class="node"><title>Node10</title>
<g id="a_node10"><a xlink:href="../../d3/d08/class_torc_pi_p_w_m_output.html" target="_top" xlink:title="A device to output PWM signals on the Raspberry Pi. ">
<polygon fill="white" stroke="black" points="300,-0.5 300,-19.5 399,-19.5 399,-0.5 300,-0.5"/>
<text text-anchor="middle" x="349.5" y="-7.5" font-family="Helvetica,sans-Serif" font-size="10.00">TorcPiPWMOutput</text>
</a>
</g>
</g>
<!-- Node1&#45;&gt;Node10 -->
<g id="edge9" class="edge"><title>Node1&#45;&gt;Node10</title>
<path fill="none" stroke="midnightblue" d="M246.948,-52.6377C271.907,-42.504 306.577,-28.4274 328.524,-19.5164"/>
<polygon fill="midnightblue" stroke="midnightblue" points="245.523,-49.4387 237.574,-56.4435 248.156,-55.9245 245.523,-49.4387"/>
</g>
<!-- Node2 -->
<g id="node2" class="node"><title>Node2</title>
<g id="a_node2"><a xlink:href="../../d1/dc7/class_torc_output.html" target="_top" xlink:title="TorcOutput">
<polygon fill="white" stroke="black" points="182.5,-112.5 182.5,-131.5 250.5,-131.5 250.5,-112.5 182.5,-112.5"/>
<text text-anchor="middle" x="216.5" y="-119.5" font-family="Helvetica,sans-Serif" font-size="10.00">TorcOutput</text>
</a>
</g>
</g>
<!-- Node2&#45;&gt;Node1 -->
<g id="edge1" class="edge"><title>Node2&#45;&gt;Node1</title>
<path fill="none" stroke="midnightblue" d="M216.5,-101.805C216.5,-92.9102 216.5,-82.7798 216.5,-75.7511"/>
<polygon fill="midnightblue" stroke="midnightblue" points="213,-102.083 216.5,-112.083 220,-102.083 213,-102.083"/>
</g>
<!-- Node3 -->
<g id="node3" class="node"><title>Node3</title>
<g id="a_node3"><a xlink:href="../../d5/d76/class_torc_device.html" target="_top" xlink:title="TorcDevice">
<polygon fill="white" stroke="black" points="126.5,-168.5 126.5,-187.5 194.5,-187.5 194.5,-168.5 126.5,-168.5"/>
<text text-anchor="middle" x="160.5" y="-175.5" font-family="Helvetica,sans-Serif" font-size="10.00">TorcDevice</text>
</a>
</g>
</g>
<!-- Node3&#45;&gt;Node2 -->
<g id="edge2" class="edge"><title>Node3&#45;&gt;Node2</title>
<path fill="none" stroke="midnightblue" d="M176.83,-161.253C186.765,-151.673 199.088,-139.791 207.339,-131.834"/>
<polygon fill="midnightblue" stroke="midnightblue" points="174.266,-158.863 169.497,-168.324 179.125,-163.902 174.266,-158.863"/>
</g>
<!-- Node4 -->
<g id="node4" class="node"><title>Node4</title>
<polygon fill="white" stroke="#bfbfbf" points="27,-224.5 27,-243.5 82,-243.5 82,-224.5 27,-224.5"/>
<text text-anchor="middle" x="54.5" y="-231.5" font-family="Helvetica,sans-Serif" font-size="10.00">QObject</text>
</g>
<!-- Node4&#45;&gt;Node3 -->
<g id="edge3" class="edge"><title>Node4&#45;&gt;Node3</title>
<path fill="none" stroke="midnightblue" d="M80.5562,-219.726C100.184,-209.727 126.528,-196.307 143.512,-187.655"/>
<polygon fill="midnightblue" stroke="midnightblue" points="78.8524,-216.666 71.5307,-224.324 82.0299,-222.903 78.8524,-216.666"/>
</g>
<!-- Node5 -->
<g id="node5" class="node"><title>Node5</title>
<g id="a_node5"><a xlink:href="../../d6/dad/class_torc_reference_counter.html" target="_top" xlink:title="A reference counting implementation. ">
<polygon fill="white" stroke="black" points="100,-224.5 100,-243.5 221,-243.5 221,-224.5 100,-224.5"/>
<text text-anchor="middle" x="160.5" y="-231.5" font-family="Helvetica,sans-Serif" font-size="10.00">TorcReferenceCounter</text>
</a>
</g>
</g>
<!-- Node5&#45;&gt;Node3 -->
<g id="edge4" class="edge"><title>Node5&#45;&gt;Node3</title>
<path fill="none" stroke="midnightblue" d="M160.5,-213.805C160.5,-204.91 160.5,-194.78 160.5,-187.751"/>
<polygon fill="midnightblue" stroke="midnightblue" points="157,-214.083 160.5,-224.083 164,-214.083 157,-214.083"/>
</g>
<!-- Node6 -->
<g id="node6" class="node"><title>Node6</title>
<g id="a_node6"><a xlink:href="../../d6/d70/class_torc_h_t_t_p_service.html" target="_top" xlink:title="TorcHTTPService">
<polygon fill="white" stroke="black" points="226,-168.5 226,-187.5 321,-187.5 321,-168.5 226,-168.5"/>
<text text-anchor="middle" x="273.5" y="-175.5" font-family="Helvetica,sans-Serif" font-size="10.00">TorcHTTPService</text>
</a>
</g>
</g>
<!-- Node6&#45;&gt;Node2 -->
<g id="edge5" class="edge"><title>Node6&#45;&gt;Node2</title>
<path fill="none" stroke="midnightblue" d="M256.879,-161.253C246.766,-151.673 234.223,-139.791 225.825,-131.834"/>
<polygon fill="midnightblue" stroke="midnightblue" points="254.675,-163.987 264.342,-168.324 259.49,-158.906 254.675,-163.987"/>
</g>
<!-- Node7 -->
<g id="node7" class="node"><title>Node7</title>
<g id="a_node7"><a xlink:href="../../d5/d15/class_torc_h_t_t_p_handler.html" target="_top" xlink:title="Base HTTP response handler class. ">
<polygon fill="white" stroke="black" points="239,-224.5 239,-243.5 336,-243.5 336,-224.5 239,-224.5"/>
<text text-anchor="middle" x="287.5" y="-231.5" font-family="Helvetica,sans-Serif" font-size="10.00">TorcHTTPHandler</text>
</a>
</g>
</g>
<!-- Node7&#45;&gt;Node6 -->
<g id="edge6" class="edge"><title>Node7&#45;&gt;Node6</title>
<path fill="none" stroke="midnightblue" d="M282.677,-214.396C280.335,-205.362 277.632,-194.936 275.769,-187.751"/>
<polygon fill="midnightblue" stroke="midnightblue" points="279.29,-215.281 285.188,-224.083 286.066,-213.525 279.29,-215.281"/>
</g>
</g>
</svg>
