<?xml version="1.0" encoding="UTF-8" standalone="no"?>
<!DOCTYPE svg PUBLIC "-//W3C//DTD SVG 1.1//EN"
 "http://www.w3.org/Graphics/SVG/1.1/DTD/svg11.dtd">
<!-- Generated by graphviz version 2.38.0 (20140413.2041)
 -->
<!-- Title: torcevent.h Pages: 1 -->
<!--zoomable 308 -->
<svg id="main" version="1.1" xmlns="http://www.w3.org/2000/svg" xmlns:xlink="http://www.w3.org/1999/xlink" xml:space="preserve" onload="init(evt)">
<style type="text/css"><![CDATA[
.edge:hover path { stroke: red; }
.edge:hover polygon { stroke: red; fill: red; }
]]></style>
<script type="text/javascript"><![CDATA[
var edges = document.getElementsByTagName('g');
if (edges && edges.length) {
  for (var i=0;i<edges.length;i++) {
    if (edges[i].id.substr(0,4)=='edge') {
      edges[i].setAttribute('class','edge');
    }
  }
}
]]></script>
        <defs>
                <circle id="rim" cx="0" cy="0" r="7"/>
                <circle id="rim2" cx="0" cy="0" r="3.5"/>
                <g id="zoomPlus">
                        <use xlink:href="#rim" fill="#404040">
                                <set attributeName="fill" to="#808080" begin="zoomplus.mouseover" end="zoomplus.mouseout"/>
                        </use>
                        <path d="M-4,0h8M0,-4v8" fill="none" stroke="white" stroke-width="1.5" pointer-events="none"/>
                </g>
                <g id="zoomMin">
                        <use xlink:href="#rim" fill="#404040">
                                <set attributeName="fill" to="#808080" begin="zoomminus.mouseover" end="zoomminus.mouseout"/>
                        </use>
                        <path d="M-4,0h8" fill="none" stroke="white" stroke-width="1.5" pointer-events="none"/>
                </g>
                <g id="dirArrow">
                        <path fill="none" stroke="white" stroke-width="1.5" d="M0,-3.0v7 M-2.5,-0.5L0,-3.0L2.5,-0.5"/>
                </g>
               <g id="resetDef">
                       <use xlink:href="#rim2" fill="#404040">
                               <set attributeName="fill" to="#808080" begin="reset.mouseover" end="reset.mouseout"/>
                       </use>
               </g>
        </defs>

<script type="text/javascript">
var viewWidth = 2890;
var viewHeight = 308;
var sectionId = 'dynsection-1';
</script>
<script xlink:href="../../svgpan.js"/>
<svg id="graph" class="graph">
<g id="viewport">
<title>torcevent.h</title>
<polygon fill="white" stroke="none" points="-4,4 -4,-304 2886,-304 2886,4 -4,4"/>
<!-- Node1 -->
<g id="node1" class="node"><title>Node1</title>
<polygon fill="#bfbfbf" stroke="black" points="2569,-280.5 2569,-299.5 2640,-299.5 2640,-280.5 2569,-280.5"/>
<text text-anchor="middle" x="2604.5" y="-287.5" font-family="Helvetica,sans-Serif" font-size="10.00">torcevent.h</text>
</g>
<!-- Node2 -->
<g id="node2" class="node"><title>Node2</title>
<g id="a_node2"><a xlink:href="../../d1/d81/torccentral_8cpp.html" target="_top" xlink:title="torccentral.cpp">
<polygon fill="white" stroke="black" points="0,-112.5 0,-131.5 89,-131.5 89,-112.5 0,-112.5"/>
<text text-anchor="middle" x="44.5" y="-119.5" font-family="Helvetica,sans-Serif" font-size="10.00">torccentral.cpp</text>
</a>
</g>
</g>
<!-- Node1&#45;&gt;Node2 -->
<g id="edge1" class="edge"><title>Node1&#45;&gt;Node2</title>
<path fill="none" stroke="midnightblue" d="M2558.52,-287.88C2308.61,-281.424 1088.53,-245.213 98.5,-132 95.4783,-131.654 92.3683,-131.255 89.2392,-130.82"/>
<polygon fill="midnightblue" stroke="midnightblue" points="2558.6,-291.383 2568.68,-288.14 2558.78,-284.385 2558.6,-291.383"/>
</g>
<!-- Node3 -->
<g id="node3" class="node"><title>Node3</title>
<g id="a_node3"><a xlink:href="../../d6/d94/torcobservable_8h.html" target="_top" xlink:title="torcobservable.h">
<polygon fill="white" stroke="black" points="2063,-224.5 2063,-243.5 2160,-243.5 2160,-224.5 2063,-224.5"/>
<text text-anchor="middle" x="2111.5" y="-231.5" font-family="Helvetica,sans-Serif" font-size="10.00">torcobservable.h</text>
</a>
</g>
</g>
<!-- Node1&#45;&gt;Node3 -->
<g id="edge2" class="edge"><title>Node1&#45;&gt;Node3</title>
<path fill="none" stroke="midnightblue" d="M2558.7,-283.984C2465.78,-273.805 2255.82,-250.808 2160.37,-240.353"/>
<polygon fill="midnightblue" stroke="midnightblue" points="2558.33,-287.463 2568.65,-285.073 2559.09,-280.505 2558.33,-287.463"/>
</g>
<!-- Node18 -->
<g id="node18" class="node"><title>Node18</title>
<g id="a_node18"><a xlink:href="../../dc/d96/torcbonjour_8cpp.html" target="_top" xlink:title="torcbonjour.cpp">
<polygon fill="white" stroke="black" points="2520,-112.5 2520,-131.5 2611,-131.5 2611,-112.5 2520,-112.5"/>
<text text-anchor="middle" x="2565.5" y="-119.5" font-family="Helvetica,sans-Serif" font-size="10.00">torcbonjour.cpp</text>
</a>
</g>
</g>
<!-- Node1&#45;&gt;Node18 -->
<g id="edge43" class="edge"><title>Node1&#45;&gt;Node18</title>
<path fill="none" stroke="midnightblue" d="M2600.02,-269.93C2591.56,-233.92 2573.54,-157.231 2567.51,-131.568"/>
<polygon fill="midnightblue" stroke="midnightblue" points="2596.71,-271.141 2602.4,-280.075 2603.52,-269.54 2596.71,-271.141"/>
</g>
<!-- Node20 -->
<g id="node20" class="node"><title>Node20</title>
<g id="a_node20"><a xlink:href="../../da/d67/torclocalcontext_8cpp.html" target="_top" xlink:title="torclocalcontext.cpp">
<polygon fill="white" stroke="black" points="2629,-112.5 2629,-131.5 2742,-131.5 2742,-112.5 2629,-112.5"/>
<text text-anchor="middle" x="2685.5" y="-119.5" font-family="Helvetica,sans-Serif" font-size="10.00">torclocalcontext.cpp</text>
</a>
</g>
</g>
<!-- Node1&#45;&gt;Node20 -->
<g id="edge45" class="edge"><title>Node1&#45;&gt;Node20</title>
<path fill="none" stroke="midnightblue" d="M2613.35,-270.856C2630.73,-235.252 2668.69,-157.453 2681.32,-131.568"/>
<polygon fill="midnightblue" stroke="midnightblue" points="2610.09,-269.553 2608.85,-280.075 2616.39,-272.623 2610.09,-269.553"/>
</g>
<!-- Node24 -->
<g id="node24" class="node"><title>Node24</title>
<g id="a_node24"><a xlink:href="../../de/d48/torcnetworkedcontext_8cpp.html" target="_top" xlink:title="torcnetworkedcontext.cpp">
<polygon fill="white" stroke="black" points="2530,-56.5 2530,-75.5 2671,-75.5 2671,-56.5 2530,-56.5"/>
<text text-anchor="middle" x="2600.5" y="-63.5" font-family="Helvetica,sans-Serif" font-size="10.00">torcnetworkedcontext.cpp</text>
</a>
</g>
</g>
<!-- Node1&#45;&gt;Node24 -->
<g id="edge46" class="edge"><title>Node1&#45;&gt;Node24</title>
<path fill="none" stroke="midnightblue" d="M2630.91,-275.671C2684.86,-246.691 2798.79,-175.445 2751.5,-112 2732.86,-86.9981 2700.88,-75.3398 2671.13,-70.099"/>
<polygon fill="midnightblue" stroke="midnightblue" points="2629.11,-272.666 2621.89,-280.423 2632.37,-278.86 2629.11,-272.666"/>
</g>
<!-- Node36 -->
<g id="node36" class="node"><title>Node36</title>
<g id="a_node36"><a xlink:href="../../d4/d7c/torcevent_8cpp.html" target="_top" xlink:title="torcevent.cpp">
<polygon fill="white" stroke="black" points="2799,-224.5 2799,-243.5 2882,-243.5 2882,-224.5 2799,-224.5"/>
<text text-anchor="middle" x="2840.5" y="-231.5" font-family="Helvetica,sans-Serif" font-size="10.00">torcevent.cpp</text>
</a>
</g>
</g>
<!-- Node1&#45;&gt;Node36 -->
<g id="edge44" class="edge"><title>Node1&#45;&gt;Node36</title>
<path fill="none" stroke="midnightblue" d="M2650.06,-278.575C2694.58,-268.388 2761.55,-253.065 2803.06,-243.567"/>
<polygon fill="midnightblue" stroke="midnightblue" points="2649.05,-275.215 2640.09,-280.857 2650.62,-282.038 2649.05,-275.215"/>
</g>
<!-- Node4 -->
<g id="node4" class="node"><title>Node4</title>
<g id="a_node4"><a xlink:href="../../dd/dbd/torclocalcontext_8h.html" target="_top" xlink:title="torclocalcontext.h">
<polygon fill="white" stroke="black" points="1525.5,-168.5 1525.5,-187.5 1627.5,-187.5 1627.5,-168.5 1525.5,-168.5"/>
<text text-anchor="middle" x="1576.5" y="-175.5" font-family="Helvetica,sans-Serif" font-size="10.00">torclocalcontext.h</text>
</a>
</g>
</g>
<!-- Node3&#45;&gt;Node4 -->
<g id="edge3" class="edge"><title>Node3&#45;&gt;Node4</title>
<path fill="none" stroke="midnightblue" d="M2052.44,-227.039C1946.88,-216.384 1727.53,-194.244 1627.82,-184.18"/>
<polygon fill="midnightblue" stroke="midnightblue" points="2052.3,-230.543 2062.6,-228.065 2053.01,-223.578 2052.3,-230.543"/>
</g>
<!-- Node35 -->
<g id="node35" class="node"><title>Node35</title>
<g id="a_node35"><a xlink:href="../../d4/d74/torcobservable_8cpp.html" target="_top" xlink:title="torcobservable.cpp">
<polygon fill="white" stroke="black" points="2057.5,-168.5 2057.5,-187.5 2165.5,-187.5 2165.5,-168.5 2057.5,-168.5"/>
<text text-anchor="middle" x="2111.5" y="-175.5" font-family="Helvetica,sans-Serif" font-size="10.00">torcobservable.cpp</text>
</a>
</g>
</g>
<!-- Node3&#45;&gt;Node35 -->
<g id="edge42" class="edge"><title>Node3&#45;&gt;Node35</title>
<path fill="none" stroke="midnightblue" d="M2111.5,-213.805C2111.5,-204.91 2111.5,-194.78 2111.5,-187.751"/>
<polygon fill="midnightblue" stroke="midnightblue" points="2108,-214.083 2111.5,-224.083 2115,-214.083 2108,-214.083"/>
</g>
<!-- Node4&#45;&gt;Node2 -->
<g id="edge10" class="edge"><title>Node4&#45;&gt;Node2</title>
<path fill="none" stroke="midnightblue" d="M1515.23,-176.236C1272.79,-173.044 380.124,-159.629 98.5,-132 95.4732,-131.703 92.3593,-131.34 89.2274,-130.931"/>
<polygon fill="midnightblue" stroke="midnightblue" points="1515.23,-179.737 1525.27,-176.368 1515.32,-172.737 1515.23,-179.737"/>
</g>
<!-- Node5 -->
<g id="node5" class="node"><title>Node5</title>
<g id="a_node5"><a xlink:href="../../d3/d4a/torctimercontrol_8cpp.html" target="_top" xlink:title="torctimercontrol.cpp">
<polygon fill="white" stroke="black" points="107.5,-112.5 107.5,-131.5 221.5,-131.5 221.5,-112.5 107.5,-112.5"/>
<text text-anchor="middle" x="164.5" y="-119.5" font-family="Helvetica,sans-Serif" font-size="10.00">torctimercontrol.cpp</text>
</a>
</g>
</g>
<!-- Node4&#45;&gt;Node5 -->
<g id="edge4" class="edge"><title>Node4&#45;&gt;Node5</title>
<path fill="none" stroke="midnightblue" d="M1515.25,-177.175C1324.6,-177.244 724.926,-173.866 230.5,-132 227.619,-131.756 224.672,-131.474 221.698,-131.163"/>
<polygon fill="midnightblue" stroke="midnightblue" points="1515.36,-180.675 1525.35,-177.168 1515.35,-173.675 1515.36,-180.675"/>
</g>
<!-- Node6 -->
<g id="node6" class="node"><title>Node6</title>
<g id="a_node6"><a xlink:href="../../da/dcd/torctransitioncontrol_8cpp.html" target="_top" xlink:title="torctransitioncontrol.cpp">
<polygon fill="white" stroke="black" points="1509.5,-112.5 1509.5,-131.5 1643.5,-131.5 1643.5,-112.5 1509.5,-112.5"/>
<text text-anchor="middle" x="1576.5" y="-119.5" font-family="Helvetica,sans-Serif" font-size="10.00">torctransitioncontrol.cpp</text>
</a>
</g>
</g>
<!-- Node4&#45;&gt;Node6 -->
<g id="edge5" class="edge"><title>Node4&#45;&gt;Node6</title>
<path fill="none" stroke="midnightblue" d="M1576.5,-157.805C1576.5,-148.91 1576.5,-138.78 1576.5,-131.751"/>
<polygon fill="midnightblue" stroke="midnightblue" points="1573,-158.083 1576.5,-168.083 1580,-158.083 1573,-158.083"/>
</g>
<!-- Node7 -->
<g id="node7" class="node"><title>Node7</title>
<g id="a_node7"><a xlink:href="../../d0/ddb/torcsysteminput_8cpp.html" target="_top" xlink:title="torcsysteminput.cpp">
<polygon fill="white" stroke="black" points="1662,-112.5 1662,-131.5 1777,-131.5 1777,-112.5 1662,-112.5"/>
<text text-anchor="middle" x="1719.5" y="-119.5" font-family="Helvetica,sans-Serif" font-size="10.00">torcsysteminput.cpp</text>
</a>
</g>
</g>
<!-- Node4&#45;&gt;Node7 -->
<g id="edge6" class="edge"><title>Node4&#45;&gt;Node7</title>
<path fill="none" stroke="midnightblue" d="M1608.53,-164.906C1635.41,-154.754 1673.14,-140.506 1696.95,-131.516"/>
<polygon fill="midnightblue" stroke="midnightblue" points="1607.28,-161.636 1599.16,-168.444 1609.75,-168.185 1607.28,-161.636"/>
</g>
<!-- Node8 -->
<g id="node8" class="node"><title>Node8</title>
<g id="a_node8"><a xlink:href="../../d1/d5d/torcsystemnotification_8h.html" target="_top" xlink:title="torcsystemnotification.h">
<polygon fill="white" stroke="black" points="239.5,-112.5 239.5,-131.5 371.5,-131.5 371.5,-112.5 239.5,-112.5"/>
<text text-anchor="middle" x="305.5" y="-119.5" font-family="Helvetica,sans-Serif" font-size="10.00">torcsystemnotification.h</text>
</a>
</g>
</g>
<!-- Node4&#45;&gt;Node8 -->
<g id="edge7" class="edge"><title>Node4&#45;&gt;Node8</title>
<path fill="none" stroke="midnightblue" d="M1515.29,-176.464C1338.89,-174.537 814.372,-166.137 380.5,-132 377.624,-131.774 374.688,-131.52 371.724,-131.245"/>
<polygon fill="midnightblue" stroke="midnightblue" points="1515.38,-179.965 1525.41,-176.571 1515.45,-172.965 1515.38,-179.965"/>
</g>
<!-- Node10 -->
<g id="node10" class="node"><title>Node10</title>
<g id="a_node10"><a xlink:href="../../d6/d7a/server_2main_8cpp.html" target="_top" xlink:title="main.cpp">
<polygon fill="white" stroke="black" points="1795,-112.5 1795,-131.5 1856,-131.5 1856,-112.5 1795,-112.5"/>
<text text-anchor="middle" x="1825.5" y="-119.5" font-family="Helvetica,sans-Serif" font-size="10.00">main.cpp</text>
</a>
</g>
</g>
<!-- Node4&#45;&gt;Node10 -->
<g id="edge9" class="edge"><title>Node4&#45;&gt;Node10</title>
<path fill="none" stroke="midnightblue" d="M1626.38,-166.396C1668.74,-157.358 1731.14,-143.968 1785.5,-132 1788.56,-131.327 1791.75,-130.619 1794.93,-129.908"/>
<polygon fill="midnightblue" stroke="midnightblue" points="1625.64,-162.975 1616.59,-168.483 1627.1,-169.821 1625.64,-162.975"/>
</g>
<!-- Node11 -->
<g id="node11" class="node"><title>Node11</title>
<g id="a_node11"><a xlink:href="../../d6/ddf/torcxsdtest_8cpp.html" target="_top" xlink:title="torcxsdtest.cpp">
<polygon fill="white" stroke="black" points="1874,-112.5 1874,-131.5 1965,-131.5 1965,-112.5 1874,-112.5"/>
<text text-anchor="middle" x="1919.5" y="-119.5" font-family="Helvetica,sans-Serif" font-size="10.00">torcxsdtest.cpp</text>
</a>
</g>
</g>
<!-- Node4&#45;&gt;Node11 -->
<g id="edge11" class="edge"><title>Node4&#45;&gt;Node11</title>
<path fill="none" stroke="midnightblue" d="M1637.65,-167.576C1695.96,-158.558 1786.25,-144.516 1864.5,-132 1867.56,-131.511 1870.71,-131.004 1873.89,-130.49"/>
<polygon fill="midnightblue" stroke="midnightblue" points="1636.85,-164.158 1627.5,-169.145 1637.92,-171.076 1636.85,-164.158"/>
</g>
<!-- Node12 -->
<g id="node12" class="node"><title>Node12</title>
<g id="a_node12"><a xlink:href="../../dd/dbf/testtorclocalcontext_8cpp.html" target="_top" xlink:title="testtorclocalcontext.cpp">
<polygon fill="white" stroke="black" points="1983.5,-112.5 1983.5,-131.5 2115.5,-131.5 2115.5,-112.5 1983.5,-112.5"/>
<text text-anchor="middle" x="2049.5" y="-119.5" font-family="Helvetica,sans-Serif" font-size="10.00">testtorclocalcontext.cpp</text>
</a>
</g>
</g>
<!-- Node4&#45;&gt;Node12 -->
<g id="edge12" class="edge"><title>Node4&#45;&gt;Node12</title>
<path fill="none" stroke="midnightblue" d="M1637.71,-170.158C1715.7,-161.418 1854.64,-145.774 1973.5,-132 1976.67,-131.633 1979.91,-131.256 1983.18,-130.873"/>
<polygon fill="midnightblue" stroke="midnightblue" points="1637.13,-166.701 1627.59,-171.292 1637.91,-173.657 1637.13,-166.701"/>
</g>
<!-- Node13 -->
<g id="node13" class="node"><title>Node13</title>
<g id="a_node13"><a xlink:href="../../de/dc5/torchttpserver_8cpp.html" target="_top" xlink:title="torchttpserver.cpp">
<polygon fill="white" stroke="black" points="2407.5,-0.5 2407.5,-19.5 2511.5,-19.5 2511.5,-0.5 2407.5,-0.5"/>
<text text-anchor="middle" x="2459.5" y="-7.5" font-family="Helvetica,sans-Serif" font-size="10.00">torchttpserver.cpp</text>
</a>
</g>
</g>
<!-- Node4&#45;&gt;Node13 -->
<g id="edge13" class="edge"><title>Node4&#45;&gt;Node13</title>
<path fill="none" stroke="midnightblue" d="M1637.83,-175.415C1826.85,-170.324 2392.5,-153.454 2472.5,-132 2491.31,-126.954 2493.15,-118.53 2511.5,-112 2583.85,-86.2544 2632.18,-135.693 2680.5,-76 2686.09,-69.0908 2686.12,-62.8839 2680.5,-56 2659.6,-30.4144 2570.22,-19.0065 2511.73,-14.2024"/>
<polygon fill="midnightblue" stroke="midnightblue" points="1637.69,-171.918 1627.79,-175.684 1637.88,-178.915 1637.69,-171.918"/>
</g>
<!-- Node14 -->
<g id="node14" class="node"><title>Node14</title>
<g id="a_node14"><a xlink:href="../../da/d1a/torchttpservices_8cpp.html" target="_top" xlink:title="torchttpservices.cpp">
<polygon fill="white" stroke="black" points="1917.5,-56.5 1917.5,-75.5 2031.5,-75.5 2031.5,-56.5 1917.5,-56.5"/>
<text text-anchor="middle" x="1974.5" y="-63.5" font-family="Helvetica,sans-Serif" font-size="10.00">torchttpservices.cpp</text>
</a>
</g>
</g>
<!-- Node4&#45;&gt;Node14 -->
<g id="edge14" class="edge"><title>Node4&#45;&gt;Node14</title>
<path fill="none" stroke="midnightblue" d="M1638.11,-176.846C1780.47,-175.848 2122.76,-169.531 2157.5,-132 2163.54,-125.476 2162.98,-118.996 2157.5,-112 2142.01,-92.2376 2079.3,-79.9957 2031.57,-73.3608"/>
<polygon fill="midnightblue" stroke="midnightblue" points="1637.79,-173.348 1627.81,-176.911 1637.83,-180.348 1637.79,-173.348"/>
</g>
<!-- Node15 -->
<g id="node15" class="node"><title>Node15</title>
<g id="a_node15"><a xlink:href="../../df/d2a/torcpowerosx_8cpp.html" target="_top" xlink:title="torcpowerosx.cpp">
<polygon fill="white" stroke="black" points="390,-112.5 390,-131.5 491,-131.5 491,-112.5 390,-112.5"/>
<text text-anchor="middle" x="440.5" y="-119.5" font-family="Helvetica,sans-Serif" font-size="10.00">torcpowerosx.cpp</text>
</a>
</g>
</g>
<!-- Node4&#45;&gt;Node15 -->
<g id="edge15" class="edge"><title>Node4&#45;&gt;Node15</title>
<path fill="none" stroke="midnightblue" d="M1514.98,-176.73C1350.2,-175.508 885.231,-168.793 500.5,-132 497.459,-131.709 494.337,-131.369 491.192,-130.994"/>
<polygon fill="midnightblue" stroke="midnightblue" points="1515.38,-180.232 1525.4,-176.802 1515.43,-173.233 1515.38,-180.232"/>
</g>
<!-- Node16 -->
<g id="node16" class="node"><title>Node16</title>
<g id="a_node16"><a xlink:href="../../d7/d74/torcrunlooposx_8cpp.html" target="_top" xlink:title="torcrunlooposx.cpp">
<polygon fill="white" stroke="black" points="509.5,-112.5 509.5,-131.5 617.5,-131.5 617.5,-112.5 509.5,-112.5"/>
<text text-anchor="middle" x="563.5" y="-119.5" font-family="Helvetica,sans-Serif" font-size="10.00">torcrunlooposx.cpp</text>
</a>
</g>
</g>
<!-- Node4&#45;&gt;Node16 -->
<g id="edge16" class="edge"><title>Node4&#45;&gt;Node16</title>
<path fill="none" stroke="midnightblue" d="M1515.39,-176.107C1364.29,-173.463 961.126,-163.756 626.5,-132 623.64,-131.729 620.712,-131.42 617.757,-131.083"/>
<polygon fill="midnightblue" stroke="midnightblue" points="1515.35,-179.606 1525.4,-176.278 1515.47,-172.607 1515.35,-179.606"/>
</g>
<!-- Node17 -->
<g id="node17" class="node"><title>Node17</title>
<g id="a_node17"><a xlink:href="../../d5/d95/torcadminthread_8cpp.html" target="_top" xlink:title="torcadminthread.cpp">
<polygon fill="white" stroke="black" points="636,-112.5 636,-131.5 753,-131.5 753,-112.5 636,-112.5"/>
<text text-anchor="middle" x="694.5" y="-119.5" font-family="Helvetica,sans-Serif" font-size="10.00">torcadminthread.cpp</text>
</a>
</g>
</g>
<!-- Node4&#45;&gt;Node17 -->
<g id="edge17" class="edge"><title>Node4&#45;&gt;Node17</title>
<path fill="none" stroke="midnightblue" d="M1515.24,-175.212C1379.46,-170.898 1043.02,-158.279 762.5,-132 759.417,-131.711 756.259,-131.388 753.073,-131.041"/>
<polygon fill="midnightblue" stroke="midnightblue" points="1515.34,-178.717 1525.44,-175.532 1515.56,-171.72 1515.34,-178.717"/>
</g>
<!-- Node4&#45;&gt;Node18 -->
<g id="edge18" class="edge"><title>Node4&#45;&gt;Node18</title>
<path fill="none" stroke="midnightblue" d="M1638.06,-176.154C1787.21,-173.641 2179.69,-164.244 2505.5,-132 2510.11,-131.544 2514.91,-130.978 2519.7,-130.355"/>
<polygon fill="midnightblue" stroke="midnightblue" points="1637.68,-172.66 1627.74,-176.324 1637.8,-179.659 1637.68,-172.66"/>
</g>
<!-- Node19 -->
<g id="node19" class="node"><title>Node19</title>
<g id="a_node19"><a xlink:href="../../d3/df3/torclanguage_8cpp.html" target="_top" xlink:title="torclanguage.cpp">
<polygon fill="white" stroke="black" points="771.5,-112.5 771.5,-131.5 871.5,-131.5 871.5,-112.5 771.5,-112.5"/>
<text text-anchor="middle" x="821.5" y="-119.5" font-family="Helvetica,sans-Serif" font-size="10.00">torclanguage.cpp</text>
</a>
</g>
</g>
<!-- Node4&#45;&gt;Node19 -->
<g id="edge19" class="edge"><title>Node4&#45;&gt;Node19</title>
<path fill="none" stroke="midnightblue" d="M1515.07,-174.821C1393.59,-170.116 1114.15,-157.326 880.5,-132 877.616,-131.687 874.656,-131.335 871.673,-130.957"/>
<polygon fill="midnightblue" stroke="midnightblue" points="1515.16,-178.327 1525.29,-175.212 1515.43,-171.332 1515.16,-178.327"/>
</g>
<!-- Node4&#45;&gt;Node20 -->
<g id="edge20" class="edge"><title>Node4&#45;&gt;Node20</title>
<path fill="none" stroke="midnightblue" d="M1637.88,-176.378C1799.2,-174.306 2248.34,-165.709 2620.5,-132 2623.22,-131.753 2626.01,-131.474 2628.82,-131.17"/>
<polygon fill="midnightblue" stroke="midnightblue" points="1637.63,-172.881 1627.67,-176.505 1637.71,-179.88 1637.63,-172.881"/>
</g>
<!-- Node21 -->
<g id="node21" class="node"><title>Node21</title>
<g id="a_node21"><a xlink:href="../../da/d9c/torcnetwork_8cpp.html" target="_top" xlink:title="torcnetwork.cpp">
<polygon fill="white" stroke="black" points="890,-112.5 890,-131.5 983,-131.5 983,-112.5 890,-112.5"/>
<text text-anchor="middle" x="936.5" y="-119.5" font-family="Helvetica,sans-Serif" font-size="10.00">torcnetwork.cpp</text>
</a>
</g>
</g>
<!-- Node4&#45;&gt;Node21 -->
<g id="edge21" class="edge"><title>Node4&#45;&gt;Node21</title>
<path fill="none" stroke="midnightblue" d="M1515.24,-174.014C1408.56,-168.429 1181.87,-154.855 991.5,-132 988.81,-131.677 986.051,-131.317 983.269,-130.932"/>
<polygon fill="midnightblue" stroke="midnightblue" points="1515.33,-177.523 1525.49,-174.546 1515.69,-170.532 1515.33,-177.523"/>
</g>
<!-- Node22 -->
<g id="node22" class="node"><title>Node22</title>
<g id="a_node22"><a xlink:href="../../d5/d9a/torcnetworkedcontext_8h.html" target="_top" xlink:title="torcnetworkedcontext.h">
<polygon fill="white" stroke="black" points="2333.5,-112.5 2333.5,-131.5 2463.5,-131.5 2463.5,-112.5 2333.5,-112.5"/>
<text text-anchor="middle" x="2398.5" y="-119.5" font-family="Helvetica,sans-Serif" font-size="10.00">torcnetworkedcontext.h</text>
</a>
</g>
</g>
<!-- Node4&#45;&gt;Node22 -->
<g id="edge22" class="edge"><title>Node4&#45;&gt;Node22</title>
<path fill="none" stroke="midnightblue" d="M1638.25,-174.367C1765.72,-168.689 2067.18,-153.998 2319.5,-132 2324.04,-131.604 2328.72,-131.161 2333.43,-130.689"/>
<polygon fill="midnightblue" stroke="midnightblue" points="1637.75,-170.886 1627.91,-174.825 1638.06,-177.879 1637.75,-170.886"/>
</g>
<!-- Node25 -->
<g id="node25" class="node"><title>Node25</title>
<g id="a_node25"><a xlink:href="../../d2/da7/torcpower_8cpp.html" target="_top" xlink:title="torcpower.cpp">
<polygon fill="white" stroke="black" points="1001,-112.5 1001,-131.5 1084,-131.5 1084,-112.5 1001,-112.5"/>
<text text-anchor="middle" x="1042.5" y="-119.5" font-family="Helvetica,sans-Serif" font-size="10.00">torcpower.cpp</text>
</a>
</g>
</g>
<!-- Node4&#45;&gt;Node25 -->
<g id="edge25" class="edge"><title>Node4&#45;&gt;Node25</title>
<path fill="none" stroke="midnightblue" d="M1515.22,-172.988C1423.18,-166.58 1243.87,-152.621 1092.5,-132 1089.79,-131.631 1087,-131.219 1084.2,-130.781"/>
<polygon fill="midnightblue" stroke="midnightblue" points="1515.25,-176.498 1525.47,-173.695 1515.73,-169.515 1515.25,-176.498"/>
</g>
<!-- Node26 -->
<g id="node26" class="node"><title>Node26</title>
<g id="a_node26"><a xlink:href="../../d8/d8c/torcqthread_8cpp.html" target="_top" xlink:title="torcqthread.cpp">
<polygon fill="white" stroke="black" points="1102,-112.5 1102,-131.5 1195,-131.5 1195,-112.5 1102,-112.5"/>
<text text-anchor="middle" x="1148.5" y="-119.5" font-family="Helvetica,sans-Serif" font-size="10.00">torcqthread.cpp</text>
</a>
</g>
</g>
<!-- Node4&#45;&gt;Node26 -->
<g id="edge26" class="edge"><title>Node4&#45;&gt;Node26</title>
<path fill="none" stroke="midnightblue" d="M1515.36,-170.424C1441.39,-162.283 1313.13,-147.576 1203.5,-132 1200.82,-131.619 1198.06,-131.214 1195.29,-130.794"/>
<polygon fill="midnightblue" stroke="midnightblue" points="1515.11,-173.917 1525.43,-171.528 1515.87,-166.959 1515.11,-173.917"/>
</g>
<!-- Node27 -->
<g id="node27" class="node"><title>Node27</title>
<g id="a_node27"><a xlink:href="../../de/d3c/torcsetting_8cpp.html" target="_top" xlink:title="torcsetting.cpp">
<polygon fill="white" stroke="black" points="1213,-112.5 1213,-131.5 1302,-131.5 1302,-112.5 1213,-112.5"/>
<text text-anchor="middle" x="1257.5" y="-119.5" font-family="Helvetica,sans-Serif" font-size="10.00">torcsetting.cpp</text>
</a>
</g>
</g>
<!-- Node4&#45;&gt;Node27 -->
<g id="edge27" class="edge"><title>Node4&#45;&gt;Node27</title>
<path fill="none" stroke="midnightblue" d="M1515.92,-166.763C1462.01,-157.649 1381,-143.949 1310.5,-132 1307.74,-131.532 1304.9,-131.05 1302.03,-130.564"/>
<polygon fill="midnightblue" stroke="midnightblue" points="1515.56,-170.251 1526,-168.466 1516.72,-163.348 1515.56,-170.251"/>
</g>
<!-- Node28 -->
<g id="node28" class="node"><title>Node28</title>
<g id="a_node28"><a xlink:href="../../d8/d51/torctime_8cpp.html" target="_top" xlink:title="torctime.cpp">
<polygon fill="white" stroke="black" points="1320,-112.5 1320,-131.5 1397,-131.5 1397,-112.5 1320,-112.5"/>
<text text-anchor="middle" x="1358.5" y="-119.5" font-family="Helvetica,sans-Serif" font-size="10.00">torctime.cpp</text>
</a>
</g>
</g>
<!-- Node4&#45;&gt;Node28 -->
<g id="edge28" class="edge"><title>Node4&#45;&gt;Node28</title>
<path fill="none" stroke="midnightblue" d="M1532.19,-166.024C1491.01,-155.823 1430.53,-140.841 1392.88,-131.516"/>
<polygon fill="midnightblue" stroke="midnightblue" points="1531.41,-169.436 1541.96,-168.444 1533.09,-162.642 1531.41,-169.436"/>
</g>
<!-- Node29 -->
<g id="node29" class="node"><title>Node29</title>
<g id="a_node29"><a xlink:href="../../d5/d2f/torcuser_8cpp.html" target="_top" xlink:title="torcuser.cpp">
<polygon fill="white" stroke="black" points="1415.5,-112.5 1415.5,-131.5 1491.5,-131.5 1491.5,-112.5 1415.5,-112.5"/>
<text text-anchor="middle" x="1453.5" y="-119.5" font-family="Helvetica,sans-Serif" font-size="10.00">torcuser.cpp</text>
</a>
</g>
</g>
<!-- Node4&#45;&gt;Node29 -->
<g id="edge29" class="edge"><title>Node4&#45;&gt;Node29</title>
<path fill="none" stroke="midnightblue" d="M1547.73,-164.368C1524.69,-154.255 1493.02,-140.349 1472.9,-131.516"/>
<polygon fill="midnightblue" stroke="midnightblue" points="1546.45,-167.628 1557.01,-168.444 1549.26,-161.219 1546.45,-167.628"/>
</g>
<!-- Node30 -->
<g id="node30" class="node"><title>Node30</title>
<g id="a_node30"><a xlink:href="../../d9/de1/torcssdp_8cpp.html" target="_top" xlink:title="torcssdp.cpp">
<polygon fill="white" stroke="black" points="2020.5,-0.5 2020.5,-19.5 2098.5,-19.5 2098.5,-0.5 2020.5,-0.5"/>
<text text-anchor="middle" x="2059.5" y="-7.5" font-family="Helvetica,sans-Serif" font-size="10.00">torcssdp.cpp</text>
</a>
</g>
</g>
<!-- Node4&#45;&gt;Node30 -->
<g id="edge30" class="edge"><title>Node4&#45;&gt;Node30</title>
<path fill="none" stroke="midnightblue" d="M1637.98,-176.535C1774.21,-174.864 2092.08,-167.196 2124.5,-132 2130.52,-125.462 2130.25,-118.782 2124.5,-112 2061.59,-37.7397 1971.41,-150.26 1908.5,-76 1875.02,-36.4742 1964.91,-20.3219 2020.07,-14.2682"/>
<polygon fill="midnightblue" stroke="midnightblue" points="1637.67,-173.038 1627.71,-176.653 1637.75,-180.037 1637.67,-173.038"/>
</g>
<!-- Node31 -->
<g id="node31" class="node"><title>Node31</title>
<g id="a_node31"><a xlink:href="../../dd/d1e/torcupnp_8h.html" target="_top" xlink:title="torcupnp.h">
<polygon fill="white" stroke="black" points="2209.5,-112.5 2209.5,-131.5 2277.5,-131.5 2277.5,-112.5 2209.5,-112.5"/>
<text text-anchor="middle" x="2243.5" y="-119.5" font-family="Helvetica,sans-Serif" font-size="10.00">torcupnp.h</text>
</a>
</g>
</g>
<!-- Node4&#45;&gt;Node31 -->
<g id="edge31" class="edge"><title>Node4&#45;&gt;Node31</title>
<path fill="none" stroke="midnightblue" d="M1637.69,-174.841C1749.06,-170.402 1992.15,-158.371 2195.5,-132 2200.04,-131.411 2204.8,-130.67 2209.49,-129.868"/>
<polygon fill="midnightblue" stroke="midnightblue" points="1637.5,-171.345 1627.65,-175.234 1637.78,-178.34 1637.5,-171.345"/>
</g>
<!-- Node34 -->
<g id="node34" class="node"><title>Node34</title>
<g id="a_node34"><a xlink:href="../../d9/db2/torcupnpcontent_8cpp.html" target="_top" xlink:title="torcupnpcontent.cpp">
<polygon fill="white" stroke="black" points="2271.5,-56.5 2271.5,-75.5 2387.5,-75.5 2387.5,-56.5 2271.5,-56.5"/>
<text text-anchor="middle" x="2329.5" y="-63.5" font-family="Helvetica,sans-Serif" font-size="10.00">torcupnpcontent.cpp</text>
</a>
</g>
</g>
<!-- Node4&#45;&gt;Node34 -->
<g id="edge41" class="edge"><title>Node4&#45;&gt;Node34</title>
<path fill="none" stroke="midnightblue" d="M1638.03,-176.213C1800.28,-173.701 2231.13,-164.057 2286.5,-132 2308.51,-119.254 2321.39,-90.1739 2326.67,-75.6243"/>
<polygon fill="midnightblue" stroke="midnightblue" points="1637.68,-172.717 1627.73,-176.368 1637.79,-179.716 1637.68,-172.717"/>
</g>
<!-- Node9 -->
<g id="node9" class="node"><title>Node9</title>
<g id="a_node9"><a xlink:href="../../d8/de9/torcsystemnotification_8cpp.html" target="_top" xlink:title="torcsystemnotification.cpp">
<polygon fill="white" stroke="black" points="234,-56.5 234,-75.5 377,-75.5 377,-56.5 234,-56.5"/>
<text text-anchor="middle" x="305.5" y="-63.5" font-family="Helvetica,sans-Serif" font-size="10.00">torcsystemnotification.cpp</text>
</a>
</g>
</g>
<!-- Node8&#45;&gt;Node9 -->
<g id="edge8" class="edge"><title>Node8&#45;&gt;Node9</title>
<path fill="none" stroke="midnightblue" d="M305.5,-101.805C305.5,-92.9102 305.5,-82.7798 305.5,-75.7511"/>
<polygon fill="midnightblue" stroke="midnightblue" points="302,-102.083 305.5,-112.083 309,-102.083 302,-102.083"/>
</g>
<!-- Node23 -->
<g id="node23" class="node"><title>Node23</title>
<g id="a_node23"><a xlink:href="../../db/d78/torcwebsocket_8cpp.html" target="_top" xlink:title="torcwebsocket.cpp">
<polygon fill="white" stroke="black" points="2405.5,-56.5 2405.5,-75.5 2511.5,-75.5 2511.5,-56.5 2405.5,-56.5"/>
<text text-anchor="middle" x="2458.5" y="-63.5" font-family="Helvetica,sans-Serif" font-size="10.00">torcwebsocket.cpp</text>
</a>
</g>
</g>
<!-- Node22&#45;&gt;Node23 -->
<g id="edge23" class="edge"><title>Node22&#45;&gt;Node23</title>
<path fill="none" stroke="midnightblue" d="M2415.68,-105.537C2426.38,-95.9087 2439.76,-83.8694 2448.68,-75.8339"/>
<polygon fill="midnightblue" stroke="midnightblue" points="2413.23,-103.033 2408.14,-112.324 2417.91,-108.236 2413.23,-103.033"/>
</g>
<!-- Node22&#45;&gt;Node24 -->
<g id="edge24" class="edge"><title>Node22&#45;&gt;Node24</title>
<path fill="none" stroke="midnightblue" d="M2440.29,-109.829C2478.43,-99.6333 2533.98,-84.7823 2568.64,-75.5164"/>
<polygon fill="midnightblue" stroke="midnightblue" points="2439.26,-106.48 2430.51,-112.444 2441.07,-113.242 2439.26,-106.48"/>
</g>
<!-- Node31&#45;&gt;Node14 -->
<g id="edge32" class="edge"><title>Node31&#45;&gt;Node14</title>
<path fill="none" stroke="midnightblue" d="M2199.48,-112.163C2149.05,-102.041 2066.99,-85.5667 2017.15,-75.5611"/>
<polygon fill="midnightblue" stroke="midnightblue" points="2198.94,-115.624 2209.43,-114.161 2200.32,-108.761 2198.94,-115.624"/>
</g>
<!-- Node31&#45;&gt;Node23 -->
<g id="edge33" class="edge"><title>Node31&#45;&gt;Node23</title>
<path fill="none" stroke="midnightblue" d="M2287.46,-109.959C2328.07,-99.7598 2387.54,-84.8217 2424.59,-75.5164"/>
<polygon fill="midnightblue" stroke="midnightblue" points="2286.41,-106.613 2277.57,-112.444 2288.12,-113.402 2286.41,-106.613"/>
</g>
<!-- Node31&#45;&gt;Node24 -->
<g id="edge34" class="edge"><title>Node31&#45;&gt;Node24</title>
<path fill="none" stroke="midnightblue" d="M2287.63,-114.325C2352.41,-104.527 2473.22,-86.2522 2544.27,-75.5048"/>
<polygon fill="midnightblue" stroke="midnightblue" points="2287.09,-110.866 2277.73,-115.822 2288.14,-117.787 2287.09,-110.866"/>
</g>
<!-- Node31&#45;&gt;Node30 -->
<g id="edge35" class="edge"><title>Node31&#45;&gt;Node30</title>
<path fill="none" stroke="midnightblue" d="M2199.1,-111.241C2153.27,-100.799 2087.24,-84.5828 2078.5,-76 2063.07,-60.8426 2060,-33.8949 2059.5,-19.9357"/>
<polygon fill="midnightblue" stroke="midnightblue" points="2198.6,-114.715 2209.12,-113.505 2200.14,-107.887 2198.6,-114.715"/>
</g>
<!-- Node32 -->
<g id="node32" class="node"><title>Node32</title>
<g id="a_node32"><a xlink:href="../../dd/d3e/torcssdp_8h.html" target="_top" xlink:title="torcssdp.h">
<polygon fill="white" stroke="black" points="2186,-56.5 2186,-75.5 2253,-75.5 2253,-56.5 2186,-56.5"/>
<text text-anchor="middle" x="2219.5" y="-63.5" font-family="Helvetica,sans-Serif" font-size="10.00">torcssdp.h</text>
</a>
</g>
</g>
<!-- Node31&#45;&gt;Node32 -->
<g id="edge36" class="edge"><title>Node31&#45;&gt;Node32</title>
<path fill="none" stroke="midnightblue" d="M2235.36,-102.69C2231.32,-93.589 2226.62,-83.0141 2223.39,-75.7511"/>
<polygon fill="midnightblue" stroke="midnightblue" points="2232.28,-104.366 2239.54,-112.083 2238.67,-101.523 2232.28,-104.366"/>
</g>
<!-- Node33 -->
<g id="node33" class="node"><title>Node33</title>
<g id="a_node33"><a xlink:href="../../d4/ddf/torcupnp_8cpp.html" target="_top" xlink:title="torcupnp.cpp">
<polygon fill="white" stroke="black" points="2087.5,-56.5 2087.5,-75.5 2167.5,-75.5 2167.5,-56.5 2087.5,-56.5"/>
<text text-anchor="middle" x="2127.5" y="-63.5" font-family="Helvetica,sans-Serif" font-size="10.00">torcupnp.cpp</text>
</a>
</g>
</g>
<!-- Node31&#45;&gt;Node33 -->
<g id="edge39" class="edge"><title>Node31&#45;&gt;Node33</title>
<path fill="none" stroke="midnightblue" d="M2215.78,-108.096C2194.11,-98.0073 2164.6,-84.2697 2145.79,-75.5164"/>
<polygon fill="midnightblue" stroke="midnightblue" points="2214.58,-111.396 2225.12,-112.444 2217.53,-105.05 2214.58,-111.396"/>
</g>
<!-- Node31&#45;&gt;Node34 -->
<g id="edge40" class="edge"><title>Node31&#45;&gt;Node34</title>
<path fill="none" stroke="midnightblue" d="M2265.95,-106.901C2281.72,-96.9986 2302.31,-84.0705 2315.72,-75.6545"/>
<polygon fill="midnightblue" stroke="midnightblue" points="2263.93,-104.042 2257.32,-112.324 2267.65,-109.97 2263.93,-104.042"/>
</g>
<!-- Node32&#45;&gt;Node13 -->
<g id="edge37" class="edge"><title>Node32&#45;&gt;Node13</title>
<path fill="none" stroke="midnightblue" d="M2262.93,-55.2284C2308.13,-45.0585 2378.22,-29.2884 2421.35,-19.5834"/>
<polygon fill="midnightblue" stroke="midnightblue" points="2262.11,-51.8248 2253.12,-57.4347 2263.65,-58.6541 2262.11,-51.8248"/>
</g>
<!-- Node32&#45;&gt;Node30 -->
<g id="edge38" class="edge"><title>Node32&#45;&gt;Node30</title>
<path fill="none" stroke="midnightblue" d="M2184.45,-53.172C2154.33,-43.0039 2111.6,-28.5852 2084.73,-19.5164"/>
<polygon fill="midnightblue" stroke="midnightblue" points="2183.55,-56.5619 2194.15,-56.4435 2185.79,-49.9295 2183.55,-56.5619"/>
</g>
</g>
</svg>
        <g id="navigator" transform="translate(0 0)" fill="#404254">
                <rect fill="#f2f5e9" fill-opacity="0.5" stroke="#606060" stroke-width=".5" x="0" y="0" width="60" height="60"/>
                <use id="zoomplus" xlink:href="#zoomPlus" x="17" y="9" onmousedown="handleZoom(evt,'in')"/>
                <use id="zoomminus" xlink:href="#zoomMin" x="42" y="9" onmousedown="handleZoom(evt,'out')"/>
                <use id="reset" xlink:href="#resetDef" x="30" y="36" onmousedown="handleReset()"/>
                <g id="arrowUp" xlink:href="#dirArrow" transform="translate(30 24)" onmousedown="handlePan(0,-1)">
                  <use xlink:href="#rim" fill="#404040">
                        <set attributeName="fill" to="#808080" begin="arrowUp.mouseover" end="arrowUp.mouseout"/>
                  </use>
                  <path fill="none" stroke="white" stroke-width="1.5" d="M0,-3.0v7 M-2.5,-0.5L0,-3.0L2.5,-0.5"/>
                </g>
                <g id="arrowRight" xlink:href="#dirArrow" transform="rotate(90) translate(36 -43)" onmousedown="handlePan(1,0)">
                  <use xlink:href="#rim" fill="#404040">
                        <set attributeName="fill" to="#808080" begin="arrowRight.mouseover" end="arrowRight.mouseout"/>
                  </use>
                  <path fill="none" stroke="white" stroke-width="1.5" d="M0,-3.0v7 M-2.5,-0.5L0,-3.0L2.5,-0.5"/>
                </g>
                <g id="arrowDown" xlink:href="#dirArrow" transform="rotate(180) translate(-30 -48)" onmousedown="handlePan(0,1)">
                  <use xlink:href="#rim" fill="#404040">
                        <set attributeName="fill" to="#808080" begin="arrowDown.mouseover" end="arrowDown.mouseout"/>
                  </use>
                  <path fill="none" stroke="white" stroke-width="1.5" d="M0,-3.0v7 M-2.5,-0.5L0,-3.0L2.5,-0.5"/>
                </g>
                <g id="arrowLeft" xlink:href="#dirArrow" transform="rotate(270) translate(-36 17)" onmousedown="handlePan(-1,0)">
                  <use xlink:href="#rim" fill="#404040">
                        <set attributeName="fill" to="#808080" begin="arrowLeft.mouseover" end="arrowLeft.mouseout"/>
                  </use>
                  <path fill="none" stroke="white" stroke-width="1.5" d="M0,-3.0v7 M-2.5,-0.5L0,-3.0L2.5,-0.5"/>
                </g>
        </g>
        <svg viewBox="0 0 15 15" width="100%" height="30px" preserveAspectRatio="xMaxYMin meet">
         <g id="arrow_out" transform="scale(0.3 0.3)">
          <a xlink:href="torcevent_8h__dep__incl_org.svg" target="_base">
           <rect id="button" ry="5" rx="5" y="6" x="6" height="38" width="38"
                fill="#f2f5e9" fill-opacity="0.5" stroke="#606060" stroke-width="1.0"/>
           <path id="arrow"
             d="M 11.500037,31.436501 C 11.940474,20.09759 22.043105,11.32322 32.158766,21.979434 L 37.068811,17.246167 C 37.068811,17.246167 37.088388,32 37.088388,32 L 22.160133,31.978069 C 22.160133,31.978069 26.997745,27.140456 26.997745,27.140456 C 18.528582,18.264221 13.291696,25.230495 11.500037,31.436501 z"
             style="fill:#404040;"/>
          </a>
         </g>
        </svg>
</svg>
