<?xml version="1.0" encoding="UTF-8" standalone="no"?>
<!DOCTYPE svg PUBLIC "-//W3C//DTD SVG 1.1//EN"
 "http://www.w3.org/Graphics/SVG/1.1/DTD/svg11.dtd">
<!-- Generated by graphviz version 2.38.0 (20140413.2041)
 -->
<!-- Title: torchttpserver.h Pages: 1 -->
<svg width="1366pt" height="140pt"
 viewBox="0.00 0.00 1365.50 140.00" xmlns="http://www.w3.org/2000/svg" xmlns:xlink="http://www.w3.org/1999/xlink">
<g id="graph0" class="graph" transform="scale(1 1) rotate(0) translate(4 136)">
<title>torchttpserver.h</title>
<polygon fill="white" stroke="none" points="-4,4 -4,-136 1361.5,-136 1361.5,4 -4,4"/>
<!-- Node1 -->
<g id="node1" class="node"><title>Node1</title>
<polygon fill="#bfbfbf" stroke="black" points="659,-112.5 659,-131.5 752,-131.5 752,-112.5 659,-112.5"/>
<text text-anchor="middle" x="705.5" y="-119.5" font-family="Helvetica,sans-Serif" font-size="10.00">torchttpserver.h</text>
</g>
<!-- Node2 -->
<g id="node2" class="node"><title>Node2</title>
<g id="a_node2"><a xlink:href="../../d6/d68/torchtmlhandler_8cpp.html" target="_top" xlink:title="torchtmlhandler.cpp">
<polygon fill="white" stroke="black" points="0,-56.5 0,-75.5 113,-75.5 113,-56.5 0,-56.5"/>
<text text-anchor="middle" x="56.5" y="-63.5" font-family="Helvetica,sans-Serif" font-size="10.00">torchtmlhandler.cpp</text>
</a>
</g>
</g>
<!-- Node1&#45;&gt;Node2 -->
<g id="edge1" class="edge"><title>Node1&#45;&gt;Node2</title>
<path fill="none" stroke="midnightblue" d="M648.945,-117.738C544.681,-111.478 315.194,-96.5572 122.5,-76 119.51,-75.681 116.447,-75.334 113.356,-74.968"/>
<polygon fill="midnightblue" stroke="midnightblue" points="648.748,-121.232 658.939,-118.334 649.165,-114.244 648.748,-121.232"/>
</g>
<!-- Node3 -->
<g id="node3" class="node"><title>Node3</title>
<g id="a_node3"><a xlink:href="../../d6/dda/torchtmlstaticcontent_8cpp.html" target="_top" xlink:title="torchtmlstaticcontent.cpp">
<polygon fill="white" stroke="black" points="131.5,-56.5 131.5,-75.5 271.5,-75.5 271.5,-56.5 131.5,-56.5"/>
<text text-anchor="middle" x="201.5" y="-63.5" font-family="Helvetica,sans-Serif" font-size="10.00">torchtmlstaticcontent.cpp</text>
</a>
</g>
</g>
<!-- Node1&#45;&gt;Node3 -->
<g id="edge2" class="edge"><title>Node1&#45;&gt;Node3</title>
<path fill="none" stroke="midnightblue" d="M648.908,-115.152C567.443,-106.702 412.408,-90.4969 280.5,-76 277.619,-75.6833 274.678,-75.358 271.708,-75.0277"/>
<polygon fill="midnightblue" stroke="midnightblue" points="648.642,-118.643 658.949,-116.193 649.364,-111.681 648.642,-118.643"/>
</g>
<!-- Node4 -->
<g id="node4" class="node"><title>Node4</title>
<g id="a_node4"><a xlink:href="../../d1/d87/torchttphandler_8cpp.html" target="_top" xlink:title="torchttphandler.cpp">
<polygon fill="white" stroke="black" points="289.5,-56.5 289.5,-75.5 399.5,-75.5 399.5,-56.5 289.5,-56.5"/>
<text text-anchor="middle" x="344.5" y="-63.5" font-family="Helvetica,sans-Serif" font-size="10.00">torchttphandler.cpp</text>
</a>
</g>
</g>
<!-- Node1&#45;&gt;Node4 -->
<g id="edge3" class="edge"><title>Node1&#45;&gt;Node4</title>
<path fill="none" stroke="midnightblue" d="M648.54,-112.48C580.323,-102.275 466.849,-85.3015 399.508,-75.2284"/>
<polygon fill="midnightblue" stroke="midnightblue" points="648.268,-115.978 658.676,-113.996 649.303,-109.055 648.268,-115.978"/>
</g>
<!-- Node5 -->
<g id="node5" class="node"><title>Node5</title>
<g id="a_node5"><a xlink:href="../../d6/da3/torchttprequest_8cpp.html" target="_top" xlink:title="torchttprequest.cpp">
<polygon fill="white" stroke="black" points="417.5,-56.5 417.5,-75.5 529.5,-75.5 529.5,-56.5 417.5,-56.5"/>
<text text-anchor="middle" x="473.5" y="-63.5" font-family="Helvetica,sans-Serif" font-size="10.00">torchttprequest.cpp</text>
</a>
</g>
</g>
<!-- Node1&#45;&gt;Node5 -->
<g id="edge4" class="edge"><title>Node1&#45;&gt;Node5</title>
<path fill="none" stroke="midnightblue" d="M658.897,-110.153C615.063,-99.95 550.322,-84.8809 510.089,-75.5164"/>
<polygon fill="midnightblue" stroke="midnightblue" points="658.206,-113.585 668.739,-112.444 659.793,-106.768 658.206,-113.585"/>
</g>
<!-- Node6 -->
<g id="node6" class="node"><title>Node6</title>
<g id="a_node6"><a xlink:href="../../de/dc5/torchttpserver_8cpp.html" target="_top" xlink:title="torchttpserver.cpp">
<polygon fill="white" stroke="black" points="815.5,-0.5 815.5,-19.5 919.5,-19.5 919.5,-0.5 815.5,-0.5"/>
<text text-anchor="middle" x="867.5" y="-7.5" font-family="Helvetica,sans-Serif" font-size="10.00">torchttpserver.cpp</text>
</a>
</g>
</g>
<!-- Node1&#45;&gt;Node6 -->
<g id="edge5" class="edge"><title>Node1&#45;&gt;Node6</title>
<path fill="none" stroke="midnightblue" d="M648.986,-112.349C603.592,-103.036 551.258,-85.4456 576.5,-56 606.652,-20.8264 739.98,-12.9018 815.27,-11.2728"/>
<polygon fill="midnightblue" stroke="midnightblue" points="648.348,-115.79 658.833,-114.267 649.686,-108.919 648.348,-115.79"/>
</g>
<!-- Node7 -->
<g id="node7" class="node"><title>Node7</title>
<g id="a_node7"><a xlink:href="../../d1/d77/torchttpservice_8cpp.html" target="_top" xlink:title="torchttpservice.cpp">
<polygon fill="white" stroke="black" points="586,-56.5 586,-75.5 695,-75.5 695,-56.5 586,-56.5"/>
<text text-anchor="middle" x="640.5" y="-63.5" font-family="Helvetica,sans-Serif" font-size="10.00">torchttpservice.cpp</text>
</a>
</g>
</g>
<!-- Node1&#45;&gt;Node7 -->
<g id="edge6" class="edge"><title>Node1&#45;&gt;Node7</title>
<path fill="none" stroke="midnightblue" d="M687.227,-105.82C675.582,-96.1452 660.901,-83.9481 651.133,-75.8339"/>
<polygon fill="midnightblue" stroke="midnightblue" points="685.128,-108.626 695.057,-112.324 689.601,-103.242 685.128,-108.626"/>
</g>
<!-- Node8 -->
<g id="node8" class="node"><title>Node8</title>
<g id="a_node8"><a xlink:href="../../da/d1a/torchttpservices_8cpp.html" target="_top" xlink:title="torchttpservices.cpp">
<polygon fill="white" stroke="black" points="713.5,-56.5 713.5,-75.5 827.5,-75.5 827.5,-56.5 713.5,-56.5"/>
<text text-anchor="middle" x="770.5" y="-63.5" font-family="Helvetica,sans-Serif" font-size="10.00">torchttpservices.cpp</text>
</a>
</g>
</g>
<!-- Node1&#45;&gt;Node8 -->
<g id="edge7" class="edge"><title>Node1&#45;&gt;Node8</title>
<path fill="none" stroke="midnightblue" d="M723.773,-105.82C735.418,-96.1452 750.099,-83.9481 759.867,-75.8339"/>
<polygon fill="midnightblue" stroke="midnightblue" points="721.399,-103.242 715.943,-112.324 725.872,-108.626 721.399,-103.242"/>
</g>
<!-- Node9 -->
<g id="node9" class="node"><title>Node9</title>
<g id="a_node9"><a xlink:href="../../db/d78/torcwebsocket_8cpp.html" target="_top" xlink:title="torcwebsocket.cpp">
<polygon fill="white" stroke="black" points="845.5,-56.5 845.5,-75.5 951.5,-75.5 951.5,-56.5 845.5,-56.5"/>
<text text-anchor="middle" x="898.5" y="-63.5" font-family="Helvetica,sans-Serif" font-size="10.00">torcwebsocket.cpp</text>
</a>
</g>
</g>
<!-- Node1&#45;&gt;Node9 -->
<g id="edge8" class="edge"><title>Node1&#45;&gt;Node9</title>
<path fill="none" stroke="midnightblue" d="M745.892,-109.699C782.317,-99.507 835.086,-84.7429 868.062,-75.5164"/>
<polygon fill="midnightblue" stroke="midnightblue" points="744.769,-106.378 736.081,-112.444 746.655,-113.12 744.769,-106.378"/>
</g>
<!-- Node10 -->
<g id="node10" class="node"><title>Node10</title>
<g id="a_node10"><a xlink:href="../../de/d48/torcnetworkedcontext_8cpp.html" target="_top" xlink:title="torcnetworkedcontext.cpp">
<polygon fill="white" stroke="black" points="970,-56.5 970,-75.5 1111,-75.5 1111,-56.5 970,-56.5"/>
<text text-anchor="middle" x="1040.5" y="-63.5" font-family="Helvetica,sans-Serif" font-size="10.00">torcnetworkedcontext.cpp</text>
</a>
</g>
</g>
<!-- Node1&#45;&gt;Node10 -->
<g id="edge9" class="edge"><title>Node1&#45;&gt;Node10</title>
<path fill="none" stroke="midnightblue" d="M762.244,-111.853C825.293,-101.69 926.282,-85.4112 987.695,-75.5118"/>
<polygon fill="midnightblue" stroke="midnightblue" points="761.396,-108.445 752.08,-113.492 762.51,-115.355 761.396,-108.445"/>
</g>
<!-- Node11 -->
<g id="node11" class="node"><title>Node11</title>
<g id="a_node11"><a xlink:href="../../d0/d89/torcrpcrequest_8cpp.html" target="_top" xlink:title="torcrpcrequest.cpp">
<polygon fill="white" stroke="black" points="1129,-56.5 1129,-75.5 1236,-75.5 1236,-56.5 1129,-56.5"/>
<text text-anchor="middle" x="1182.5" y="-63.5" font-family="Helvetica,sans-Serif" font-size="10.00">torcrpcrequest.cpp</text>
</a>
</g>
</g>
<!-- Node1&#45;&gt;Node11 -->
<g id="edge10" class="edge"><title>Node1&#45;&gt;Node11</title>
<path fill="none" stroke="midnightblue" d="M762.596,-115.468C842.677,-107.559 992.864,-92.1785 1120.5,-76 1123.2,-75.6581 1125.96,-75.2971 1128.75,-74.924"/>
<polygon fill="midnightblue" stroke="midnightblue" points="761.851,-112.024 752.242,-116.488 762.537,-118.991 761.851,-112.024"/>
</g>
<!-- Node12 -->
<g id="node12" class="node"><title>Node12</title>
<g id="a_node12"><a xlink:href="../../d9/de1/torcssdp_8cpp.html" target="_top" xlink:title="torcssdp.cpp">
<polygon fill="white" stroke="black" points="1279.5,-0.5 1279.5,-19.5 1357.5,-19.5 1357.5,-0.5 1279.5,-0.5"/>
<text text-anchor="middle" x="1318.5" y="-7.5" font-family="Helvetica,sans-Serif" font-size="10.00">torcssdp.cpp</text>
</a>
</g>
</g>
<!-- Node1&#45;&gt;Node12 -->
<g id="edge11" class="edge"><title>Node1&#45;&gt;Node12</title>
<path fill="none" stroke="midnightblue" d="M762.183,-121.215C908.877,-121.181 1292.23,-117.122 1330.5,-76 1344.88,-60.5428 1332.39,-33.7262 1324.23,-19.8646"/>
<polygon fill="midnightblue" stroke="midnightblue" points="762.039,-117.715 752.038,-121.211 762.036,-124.715 762.039,-117.715"/>
</g>
<!-- Node13 -->
<g id="node13" class="node"><title>Node13</title>
<g id="a_node13"><a xlink:href="../../dd/d3e/torcssdp_8h.html" target="_top" xlink:title="torcssdp.h">
<polygon fill="white" stroke="black" points="1254,-56.5 1254,-75.5 1321,-75.5 1321,-56.5 1254,-56.5"/>
<text text-anchor="middle" x="1287.5" y="-63.5" font-family="Helvetica,sans-Serif" font-size="10.00">torcssdp.h</text>
</a>
</g>
</g>
<!-- Node1&#45;&gt;Node13 -->
<g id="edge12" class="edge"><title>Node1&#45;&gt;Node13</title>
<path fill="none" stroke="midnightblue" d="M762.382,-118.656C861.124,-114.054 1070.46,-101.938 1245.5,-76 1248.16,-75.6065 1250.89,-75.1456 1253.64,-74.6442"/>
<polygon fill="midnightblue" stroke="midnightblue" points="762.15,-115.163 752.32,-119.117 762.47,-122.156 762.15,-115.163"/>
</g>
<!-- Node13&#45;&gt;Node6 -->
<g id="edge13" class="edge"><title>Node13&#45;&gt;Node6</title>
<path fill="none" stroke="midnightblue" d="M1243.44,-55.7759C1122.34,-35.9855 990.811,-22.376 919.688,-15.6705"/>
<polygon fill="midnightblue" stroke="midnightblue" points="1243.19,-59.282 1253.63,-57.4596 1244.33,-52.3757 1243.19,-59.282"/>
</g>
<!-- Node13&#45;&gt;Node12 -->
<g id="edge14" class="edge"><title>Node13&#45;&gt;Node12</title>
<path fill="none" stroke="midnightblue" d="M1297.68,-47.2747C1302.97,-38.0454 1309.22,-27.1703 1313.48,-19.7511"/>
<polygon fill="midnightblue" stroke="midnightblue" points="1294.56,-45.6679 1292.62,-56.083 1300.63,-49.153 1294.56,-45.6679"/>
</g>
</g>
</svg>
