<?xml version="1.0" encoding="UTF-8" standalone="no"?>
<!DOCTYPE svg PUBLIC "-//W3C//DTD SVG 1.1//EN"
 "http://www.w3.org/Graphics/SVG/1.1/DTD/svg11.dtd">
<!-- Generated by graphviz version 2.38.0 (20140413.2041)
 -->
<!-- Title: torcomxcomponent.cpp Pages: 1 -->
<svg width="807pt" height="252pt"
 viewBox="0.00 0.00 806.50 252.00" xmlns="http://www.w3.org/2000/svg" xmlns:xlink="http://www.w3.org/1999/xlink">
<g id="graph0" class="graph" transform="scale(1 1) rotate(0) translate(4 248)">
<title>torcomxcomponent.cpp</title>
<polygon fill="white" stroke="none" points="-4,4 -4,-248 802.5,-248 802.5,4 -4,4"/>
<!-- Node1 -->
<g id="node1" class="node"><title>Node1</title>
<polygon fill="#bfbfbf" stroke="black" points="238,-224.5 238,-243.5 369,-243.5 369,-224.5 238,-224.5"/>
<text text-anchor="middle" x="303.5" y="-231.5" font-family="Helvetica,sans-Serif" font-size="10.00">torcomxcomponent.cpp</text>
</g>
<!-- Node2 -->
<g id="node2" class="node"><title>Node2</title>
<polygon fill="white" stroke="#bfbfbf" points="43,-168.5 43,-187.5 132,-187.5 132,-168.5 43,-168.5"/>
<text text-anchor="middle" x="87.5" y="-175.5" font-family="Helvetica,sans-Serif" font-size="10.00">QElapsedTimer</text>
</g>
<!-- Node1&#45;&gt;Node2 -->
<g id="edge1" class="edge"><title>Node1&#45;&gt;Node2</title>
<path fill="none" stroke="midnightblue" d="M269.274,-224.444C231.988,-215.122 172.231,-200.183 131.489,-189.997"/>
<polygon fill="midnightblue" stroke="midnightblue" points="132.116,-186.546 121.566,-187.516 130.418,-193.337 132.116,-186.546"/>
</g>
<!-- Node3 -->
<g id="node3" class="node"><title>Node3</title>
<g id="a_node3"><a xlink:href="../../d4/df9/torclogging_8h.html" target="_top" xlink:title="torclogging.h">
<polygon fill="white" stroke="black" points="150,-168.5 150,-187.5 229,-187.5 229,-168.5 150,-168.5"/>
<text text-anchor="middle" x="189.5" y="-175.5" font-family="Helvetica,sans-Serif" font-size="10.00">torclogging.h</text>
</a>
</g>
</g>
<!-- Node1&#45;&gt;Node3 -->
<g id="edge2" class="edge"><title>Node1&#45;&gt;Node3</title>
<path fill="none" stroke="midnightblue" d="M285.436,-224.444C266.925,-215.675 237.919,-201.935 216.645,-191.858"/>
<polygon fill="midnightblue" stroke="midnightblue" points="218.015,-188.634 207.479,-187.516 215.018,-194.96 218.015,-188.634"/>
</g>
<!-- Node7 -->
<g id="node7" class="node"><title>Node7</title>
<g id="a_node7"><a xlink:href="../../d1/de8/torcomxport_8h.html" target="_top" xlink:title="torcomxport.h">
<polygon fill="white" stroke="black" points="356,-168.5 356,-187.5 441,-187.5 441,-168.5 356,-168.5"/>
<text text-anchor="middle" x="398.5" y="-175.5" font-family="Helvetica,sans-Serif" font-size="10.00">torcomxport.h</text>
</a>
</g>
</g>
<!-- Node1&#45;&gt;Node7 -->
<g id="edge6" class="edge"><title>Node1&#45;&gt;Node7</title>
<path fill="none" stroke="midnightblue" d="M318.763,-224.324C333.721,-215.822 356.755,-202.729 374.227,-192.797"/>
<polygon fill="midnightblue" stroke="midnightblue" points="376.31,-195.639 383.274,-187.655 372.851,-189.553 376.31,-195.639"/>
</g>
<!-- Node15 -->
<g id="node15" class="node"><title>Node15</title>
<g id="a_node15"><a xlink:href="../../d3/de4/torcomxcomponent_8h.html" target="_top" xlink:title="torcomxcomponent.h">
<polygon fill="white" stroke="black" points="483.5,-112.5 483.5,-131.5 603.5,-131.5 603.5,-112.5 483.5,-112.5"/>
<text text-anchor="middle" x="543.5" y="-119.5" font-family="Helvetica,sans-Serif" font-size="10.00">torcomxcomponent.h</text>
</a>
</g>
</g>
<!-- Node1&#45;&gt;Node15 -->
<g id="edge22" class="edge"><title>Node1&#45;&gt;Node15</title>
<path fill="none" stroke="midnightblue" d="M343.137,-224.443C373.466,-217.057 415.832,-204.898 450.5,-188 478.652,-174.278 507.705,-152.531 525.683,-138.018"/>
<polygon fill="midnightblue" stroke="midnightblue" points="528.062,-140.594 533.567,-131.541 523.618,-135.185 528.062,-140.594"/>
</g>
<!-- Node4 -->
<g id="node4" class="node"><title>Node4</title>
<polygon fill="white" stroke="#bfbfbf" points="0,-112.5 0,-131.5 53,-131.5 53,-112.5 0,-112.5"/>
<text text-anchor="middle" x="26.5" y="-119.5" font-family="Helvetica,sans-Serif" font-size="10.00">stdint.h</text>
</g>
<!-- Node3&#45;&gt;Node4 -->
<g id="edge3" class="edge"><title>Node3&#45;&gt;Node4</title>
<path fill="none" stroke="midnightblue" d="M163.672,-168.444C136.251,-159.359 92.7225,-144.939 62.0676,-134.783"/>
<polygon fill="midnightblue" stroke="midnightblue" points="62.8003,-131.339 52.207,-131.516 60.5989,-137.984 62.8003,-131.339"/>
</g>
<!-- Node5 -->
<g id="node5" class="node"><title>Node5</title>
<polygon fill="white" stroke="#bfbfbf" points="71,-112.5 71,-131.5 122,-131.5 122,-112.5 71,-112.5"/>
<text text-anchor="middle" x="96.5" y="-119.5" font-family="Helvetica,sans-Serif" font-size="10.00">errno.h</text>
</g>
<!-- Node3&#45;&gt;Node5 -->
<g id="edge4" class="edge"><title>Node3&#45;&gt;Node5</title>
<path fill="none" stroke="midnightblue" d="M174.558,-168.324C159.915,-159.822 137.366,-146.729 120.262,-136.797"/>
<polygon fill="midnightblue" stroke="midnightblue" points="121.81,-133.649 111.405,-131.655 118.295,-139.703 121.81,-133.649"/>
</g>
<!-- Node6 -->
<g id="node6" class="node"><title>Node6</title>
<g id="a_node6"><a xlink:href="../../d1/d37/torcloggingdefs_8h.html" target="_top" xlink:title="torcloggingdefs.h">
<polygon fill="white" stroke="black" points="140,-112.5 140,-131.5 239,-131.5 239,-112.5 140,-112.5"/>
<text text-anchor="middle" x="189.5" y="-119.5" font-family="Helvetica,sans-Serif" font-size="10.00">torcloggingdefs.h</text>
</a>
</g>
</g>
<!-- Node3&#45;&gt;Node6 -->
<g id="edge5" class="edge"><title>Node3&#45;&gt;Node6</title>
<path fill="none" stroke="midnightblue" d="M189.5,-168.083C189.5,-161.006 189.5,-150.861 189.5,-141.986"/>
<polygon fill="midnightblue" stroke="midnightblue" points="193,-141.751 189.5,-131.751 186,-141.751 193,-141.751"/>
</g>
<!-- Node8 -->
<g id="node8" class="node"><title>Node8</title>
<polygon fill="white" stroke="#bfbfbf" points="299,-56.5 299,-75.5 352,-75.5 352,-56.5 299,-56.5"/>
<text text-anchor="middle" x="325.5" y="-63.5" font-family="Helvetica,sans-Serif" font-size="10.00">QMutex</text>
</g>
<!-- Node7&#45;&gt;Node8 -->
<g id="edge7" class="edge"><title>Node7&#45;&gt;Node8</title>
<path fill="none" stroke="midnightblue" d="M393.928,-168.367C387.118,-155.704 373.689,-131.485 360.5,-112 353.912,-102.267 345.905,-91.8808 339.213,-83.5417"/>
<polygon fill="midnightblue" stroke="midnightblue" points="341.859,-81.2484 332.829,-75.7058 336.432,-85.6695 341.859,-81.2484"/>
</g>
<!-- Node9 -->
<g id="node9" class="node"><title>Node9</title>
<polygon fill="white" stroke="#bfbfbf" points="295.5,-112.5 295.5,-131.5 351.5,-131.5 351.5,-112.5 295.5,-112.5"/>
<text text-anchor="middle" x="323.5" y="-119.5" font-family="Helvetica,sans-Serif" font-size="10.00">QQueue</text>
</g>
<!-- Node7&#45;&gt;Node9 -->
<g id="edge8" class="edge"><title>Node7&#45;&gt;Node9</title>
<path fill="none" stroke="midnightblue" d="M386.45,-168.324C375.037,-160.107 357.669,-147.602 344.065,-137.807"/>
<polygon fill="midnightblue" stroke="midnightblue" points="345.93,-134.837 335.769,-131.834 341.84,-140.517 345.93,-134.837"/>
</g>
<!-- Node10 -->
<g id="node10" class="node"><title>Node10</title>
<polygon fill="white" stroke="#bfbfbf" points="370,-56.5 370,-75.5 459,-75.5 459,-56.5 370,-56.5"/>
<text text-anchor="middle" x="414.5" y="-63.5" font-family="Helvetica,sans-Serif" font-size="10.00">QWaitCondition</text>
</g>
<!-- Node7&#45;&gt;Node10 -->
<g id="edge9" class="edge"><title>Node7&#45;&gt;Node10</title>
<path fill="none" stroke="midnightblue" d="M399.755,-168.368C402.338,-150.617 408.294,-109.666 411.795,-85.5974"/>
<polygon fill="midnightblue" stroke="midnightblue" points="415.274,-85.9911 413.25,-75.5914 408.347,-84.9835 415.274,-85.9911"/>
</g>
<!-- Node11 -->
<g id="node11" class="node"><title>Node11</title>
<g id="a_node11"><a xlink:href="../../d7/df9/torcomxcore_8h.html" target="_top" xlink:title="torcomxcore.h">
<polygon fill="white" stroke="black" points="642.5,-56.5 642.5,-75.5 728.5,-75.5 728.5,-56.5 642.5,-56.5"/>
<text text-anchor="middle" x="685.5" y="-63.5" font-family="Helvetica,sans-Serif" font-size="10.00">torcomxcore.h</text>
</a>
</g>
</g>
<!-- Node7&#45;&gt;Node11 -->
<g id="edge10" class="edge"><title>Node7&#45;&gt;Node11</title>
<path fill="none" stroke="midnightblue" d="M441.247,-174.5C486.041,-170.436 557.423,-159.796 612.5,-132 636.275,-120.001 658.335,-98.2859 671.847,-83.2766"/>
<polygon fill="midnightblue" stroke="midnightblue" points="674.493,-85.5679 678.431,-75.7322 669.219,-80.9652 674.493,-85.5679"/>
</g>
<!-- Node14 -->
<g id="node14" class="node"><title>Node14</title>
<polygon fill="white" stroke="#bfbfbf" points="553,-0.5 553,-19.5 628,-19.5 628,-0.5 553,-0.5"/>
<text text-anchor="middle" x="590.5" y="-7.5" font-family="Helvetica,sans-Serif" font-size="10.00">OMX_Core.h</text>
</g>
<!-- Node7&#45;&gt;Node14 -->
<g id="edge20" class="edge"><title>Node7&#45;&gt;Node14</title>
<path fill="none" stroke="midnightblue" d="M355.745,-171.622C331.061,-166.08 301.931,-154.83 286.5,-132 277.368,-118.49 268.37,-79.2366 289.5,-56 322.56,-19.6444 466.478,-12.3629 542.709,-11.099"/>
<polygon fill="midnightblue" stroke="midnightblue" points="543.047,-14.5948 552.998,-10.9582 542.951,-7.59548 543.047,-14.5948"/>
</g>
<!-- Node7&#45;&gt;Node15 -->
<g id="edge14" class="edge"><title>Node7&#45;&gt;Node15</title>
<path fill="none" stroke="midnightblue" d="M421.476,-168.444C445.657,-159.438 483.918,-145.189 511.146,-135.049"/>
<polygon fill="midnightblue" stroke="midnightblue" points="512.482,-138.286 520.632,-131.516 510.039,-131.727 512.482,-138.286"/>
</g>
<!-- Node16 -->
<g id="node16" class="node"><title>Node16</title>
<polygon fill="white" stroke="#bfbfbf" points="477,-56.5 477,-75.5 586,-75.5 586,-56.5 477,-56.5"/>
<text text-anchor="middle" x="531.5" y="-63.5" font-family="Helvetica,sans-Serif" font-size="10.00">OMX_Component.h</text>
</g>
<!-- Node7&#45;&gt;Node16 -->
<g id="edge21" class="edge"><title>Node7&#45;&gt;Node16</title>
<path fill="none" stroke="midnightblue" d="M408.234,-168.462C422.591,-155.916 450.356,-131.842 474.5,-112 486.951,-101.767 501.18,-90.5336 512.306,-81.85"/>
<polygon fill="midnightblue" stroke="midnightblue" points="514.726,-84.4023 520.471,-75.5005 510.428,-78.8765 514.726,-84.4023"/>
</g>
<!-- Node12 -->
<g id="node12" class="node"><title>Node12</title>
<polygon fill="white" stroke="#bfbfbf" points="742.5,-0.5 742.5,-19.5 798.5,-19.5 798.5,-0.5 742.5,-0.5"/>
<text text-anchor="middle" x="770.5" y="-7.5" font-family="Helvetica,sans-Serif" font-size="10.00">QLibrary</text>
</g>
<!-- Node11&#45;&gt;Node12 -->
<g id="edge11" class="edge"><title>Node11&#45;&gt;Node12</title>
<path fill="none" stroke="midnightblue" d="M699.157,-56.324C712.416,-47.9002 732.768,-34.9709 748.346,-25.0741"/>
<polygon fill="midnightblue" stroke="midnightblue" points="750.313,-27.9711 756.877,-19.6545 746.56,-22.0626 750.313,-27.9711"/>
</g>
<!-- Node13 -->
<g id="node13" class="node"><title>Node13</title>
<polygon fill="white" stroke="#bfbfbf" points="646,-0.5 646,-19.5 725,-19.5 725,-0.5 646,-0.5"/>
<text text-anchor="middle" x="685.5" y="-7.5" font-family="Helvetica,sans-Serif" font-size="10.00">OMX_Types.h</text>
</g>
<!-- Node11&#45;&gt;Node13 -->
<g id="edge12" class="edge"><title>Node11&#45;&gt;Node13</title>
<path fill="none" stroke="midnightblue" d="M685.5,-56.083C685.5,-49.0059 685.5,-38.8611 685.5,-29.9865"/>
<polygon fill="midnightblue" stroke="midnightblue" points="689,-29.751 685.5,-19.7511 682,-29.7511 689,-29.751"/>
</g>
<!-- Node11&#45;&gt;Node14 -->
<g id="edge13" class="edge"><title>Node11&#45;&gt;Node14</title>
<path fill="none" stroke="midnightblue" d="M670.237,-56.324C655.279,-47.8215 632.245,-34.7288 614.773,-24.7975"/>
<polygon fill="midnightblue" stroke="midnightblue" points="616.149,-21.5534 605.726,-19.6545 612.69,-27.639 616.149,-21.5534"/>
</g>
<!-- Node15&#45;&gt;Node8 -->
<g id="edge15" class="edge"><title>Node15&#45;&gt;Node8</title>
<path fill="none" stroke="midnightblue" d="M508.941,-112.483C474.329,-103.948 419.268,-90.3517 362.162,-76.1599"/>
<polygon fill="midnightblue" stroke="midnightblue" points="362.783,-72.7079 352.234,-73.6918 361.095,-79.5011 362.783,-72.7079"/>
</g>
<!-- Node15&#45;&gt;Node10 -->
<g id="edge16" class="edge"><title>Node15&#45;&gt;Node10</title>
<path fill="none" stroke="midnightblue" d="M523.06,-112.444C501.83,-103.557 468.401,-89.5632 444.245,-79.4514"/>
<polygon fill="midnightblue" stroke="midnightblue" points="445.421,-76.1493 434.845,-75.5164 442.718,-82.6064 445.421,-76.1493"/>
</g>
<!-- Node15&#45;&gt;Node11 -->
<g id="edge17" class="edge"><title>Node15&#45;&gt;Node11</title>
<path fill="none" stroke="midnightblue" d="M566,-112.444C589.577,-103.478 626.822,-89.314 653.464,-79.1827"/>
<polygon fill="midnightblue" stroke="midnightblue" points="655.002,-82.3424 663.105,-75.5164 652.514,-75.7995 655.002,-82.3424"/>
</g>
<!-- Node15&#45;&gt;Node14 -->
<g id="edge18" class="edge"><title>Node15&#45;&gt;Node14</title>
<path fill="none" stroke="midnightblue" d="M559.283,-112.467C571.703,-104.769 588.105,-92.179 595.5,-76 602.116,-61.5244 599.955,-43.3385 596.663,-29.8866"/>
<polygon fill="midnightblue" stroke="midnightblue" points="599.917,-28.536 593.8,-19.8857 593.187,-30.4629 599.917,-28.536"/>
</g>
<!-- Node15&#45;&gt;Node16 -->
<g id="edge19" class="edge"><title>Node15&#45;&gt;Node16</title>
<path fill="none" stroke="midnightblue" d="M541.518,-112.083C539.928,-104.927 537.641,-94.6353 535.654,-85.6911"/>
<polygon fill="midnightblue" stroke="midnightblue" points="539.031,-84.7537 533.445,-75.7511 532.197,-86.2722 539.031,-84.7537"/>
</g>
</g>
</svg>
