<?xml version="1.0" encoding="UTF-8" standalone="no"?>
<!DOCTYPE svg PUBLIC "-//W3C//DTD SVG 1.1//EN"
 "http://www.w3.org/Graphics/SVG/1.1/DTD/svg11.dtd">
<!-- Generated by graphviz version 2.38.0 (20140413.2041)
 -->
<!-- Title: torccamerathread.cpp Pages: 1 -->
<svg width="1155pt" height="420pt"
 viewBox="0.00 0.00 1155.07 420.00" xmlns="http://www.w3.org/2000/svg" xmlns:xlink="http://www.w3.org/1999/xlink">
<g id="graph0" class="graph" transform="scale(1 1) rotate(0) translate(4 416)">
<title>torccamerathread.cpp</title>
<polygon fill="white" stroke="none" points="-4,4 -4,-416 1151.07,-416 1151.07,4 -4,4"/>
<!-- Node1 -->
<g id="node1" class="node"><title>Node1</title>
<polygon fill="#bfbfbf" stroke="black" points="662.567,-392.5 662.567,-411.5 786.567,-411.5 786.567,-392.5 662.567,-392.5"/>
<text text-anchor="middle" x="724.567" y="-399.5" font-family="Helvetica,sans-Serif" font-size="10.00">torccamerathread.cpp</text>
</g>
<!-- Node2 -->
<g id="node2" class="node"><title>Node2</title>
<g id="a_node2"><a xlink:href="../../d4/df9/torclogging_8h.html" target="_top" xlink:title="torclogging.h">
<polygon fill="white" stroke="black" points="529.067,-336.5 529.067,-355.5 608.067,-355.5 608.067,-336.5 529.067,-336.5"/>
<text text-anchor="middle" x="568.567" y="-343.5" font-family="Helvetica,sans-Serif" font-size="10.00">torclogging.h</text>
</a>
</g>
</g>
<!-- Node1&#45;&gt;Node2 -->
<g id="edge1" class="edge"><title>Node1&#45;&gt;Node2</title>
<path fill="none" stroke="midnightblue" d="M699.848,-392.444C673.719,-383.399 632.308,-369.064 602.991,-358.916"/>
<polygon fill="midnightblue" stroke="midnightblue" points="603.765,-355.48 593.17,-355.516 601.475,-362.095 603.765,-355.48"/>
</g>
<!-- Node6 -->
<g id="node6" class="node"><title>Node6</title>
<g id="a_node6"><a xlink:href="../../d2/d57/torccameraoutput_8h.html" target="_top" xlink:title="torccameraoutput.h">
<polygon fill="white" stroke="black" points="668.067,-336.5 668.067,-355.5 781.067,-355.5 781.067,-336.5 668.067,-336.5"/>
<text text-anchor="middle" x="724.567" y="-343.5" font-family="Helvetica,sans-Serif" font-size="10.00">torccameraoutput.h</text>
</a>
</g>
</g>
<!-- Node1&#45;&gt;Node6 -->
<g id="edge5" class="edge"><title>Node1&#45;&gt;Node6</title>
<path fill="none" stroke="midnightblue" d="M724.567,-392.083C724.567,-385.006 724.567,-374.861 724.567,-365.986"/>
<polygon fill="midnightblue" stroke="midnightblue" points="728.067,-365.751 724.567,-355.751 721.067,-365.751 728.067,-365.751"/>
</g>
<!-- Node34 -->
<g id="node34" class="node"><title>Node34</title>
<g id="a_node34"><a xlink:href="../../d9/dd8/torccamerathread_8h.html" target="_top" xlink:title="torccamerathread.h">
<polygon fill="white" stroke="black" points="815.067,-280.5 815.067,-299.5 928.067,-299.5 928.067,-280.5 815.067,-280.5"/>
<text text-anchor="middle" x="871.567" y="-287.5" font-family="Helvetica,sans-Serif" font-size="10.00">torccamerathread.h</text>
</a>
</g>
</g>
<!-- Node1&#45;&gt;Node34 -->
<g id="edge45" class="edge"><title>Node1&#45;&gt;Node34</title>
<path fill="none" stroke="midnightblue" d="M737.927,-392.332C751.411,-383.481 772.734,-369.204 790.567,-356 812.575,-339.705 836.979,-319.867 853.19,-306.425"/>
<polygon fill="midnightblue" stroke="midnightblue" points="855.844,-308.769 861.286,-299.679 851.363,-303.392 855.844,-308.769"/>
</g>
<!-- Node3 -->
<g id="node3" class="node"><title>Node3</title>
<polygon fill="white" stroke="#bfbfbf" points="406.067,-280.5 406.067,-299.5 459.067,-299.5 459.067,-280.5 406.067,-280.5"/>
<text text-anchor="middle" x="432.567" y="-287.5" font-family="Helvetica,sans-Serif" font-size="10.00">stdint.h</text>
</g>
<!-- Node2&#45;&gt;Node3 -->
<g id="edge2" class="edge"><title>Node2&#45;&gt;Node3</title>
<path fill="none" stroke="midnightblue" d="M547.018,-336.444C524.536,-327.517 489.079,-313.439 463.587,-303.317"/>
<polygon fill="midnightblue" stroke="midnightblue" points="464.602,-299.954 454.016,-299.516 462.018,-306.46 464.602,-299.954"/>
</g>
<!-- Node4 -->
<g id="node4" class="node"><title>Node4</title>
<polygon fill="white" stroke="#bfbfbf" points="477.067,-280.5 477.067,-299.5 528.067,-299.5 528.067,-280.5 477.067,-280.5"/>
<text text-anchor="middle" x="502.567" y="-287.5" font-family="Helvetica,sans-Serif" font-size="10.00">errno.h</text>
</g>
<!-- Node2&#45;&gt;Node4 -->
<g id="edge3" class="edge"><title>Node2&#45;&gt;Node4</title>
<path fill="none" stroke="midnightblue" d="M557.963,-336.324C548.111,-328.263 533.216,-316.077 521.352,-306.369"/>
<polygon fill="midnightblue" stroke="midnightblue" points="523.32,-303.457 513.364,-299.834 518.887,-308.875 523.32,-303.457"/>
</g>
<!-- Node5 -->
<g id="node5" class="node"><title>Node5</title>
<g id="a_node5"><a xlink:href="../../d1/d37/torcloggingdefs_8h.html" target="_top" xlink:title="torcloggingdefs.h">
<polygon fill="white" stroke="black" points="546.067,-280.5 546.067,-299.5 645.067,-299.5 645.067,-280.5 546.067,-280.5"/>
<text text-anchor="middle" x="595.567" y="-287.5" font-family="Helvetica,sans-Serif" font-size="10.00">torcloggingdefs.h</text>
</a>
</g>
</g>
<!-- Node2&#45;&gt;Node5 -->
<g id="edge4" class="edge"><title>Node2&#45;&gt;Node5</title>
<path fill="none" stroke="midnightblue" d="M573.026,-336.083C576.721,-328.691 582.091,-317.953 586.662,-308.811"/>
<polygon fill="midnightblue" stroke="midnightblue" points="589.85,-310.261 591.192,-299.751 583.589,-307.13 589.85,-310.261"/>
</g>
<!-- Node7 -->
<g id="node7" class="node"><title>Node7</title>
<g id="a_node7"><a xlink:href="../../dc/d01/torcoutput_8h.html" target="_top" xlink:title="torcoutput.h">
<polygon fill="white" stroke="black" points="663.567,-280.5 663.567,-299.5 739.567,-299.5 739.567,-280.5 663.567,-280.5"/>
<text text-anchor="middle" x="701.567" y="-287.5" font-family="Helvetica,sans-Serif" font-size="10.00">torcoutput.h</text>
</a>
</g>
</g>
<!-- Node6&#45;&gt;Node7 -->
<g id="edge6" class="edge"><title>Node6&#45;&gt;Node7</title>
<path fill="none" stroke="midnightblue" d="M720.769,-336.083C717.654,-328.77 713.144,-318.181 709.278,-309.103"/>
<polygon fill="midnightblue" stroke="midnightblue" points="712.433,-307.58 705.294,-299.751 705.993,-310.323 712.433,-307.58"/>
</g>
<!-- Node29 -->
<g id="node29" class="node"><title>Node29</title>
<g id="a_node29"><a xlink:href="../../d3/d38/torccamera_8h.html" target="_top" xlink:title="torccamera.h">
<polygon fill="white" stroke="black" points="768.067,-224.5 768.067,-243.5 849.067,-243.5 849.067,-224.5 768.067,-224.5"/>
<text text-anchor="middle" x="808.567" y="-231.5" font-family="Helvetica,sans-Serif" font-size="10.00">torccamera.h</text>
</a>
</g>
</g>
<!-- Node6&#45;&gt;Node29 -->
<g id="edge38" class="edge"><title>Node6&#45;&gt;Node29</title>
<path fill="none" stroke="midnightblue" d="M731.159,-336.368C745.082,-318.135 777.697,-275.426 795.833,-251.675"/>
<polygon fill="midnightblue" stroke="midnightblue" points="798.719,-253.663 802.006,-243.591 793.156,-249.415 798.719,-253.663"/>
</g>
<!-- Node8 -->
<g id="node8" class="node"><title>Node8</title>
<polygon fill="white" stroke="#bfbfbf" points="420.067,-112.5 420.067,-131.5 473.067,-131.5 473.067,-112.5 420.067,-112.5"/>
<text text-anchor="middle" x="446.567" y="-119.5" font-family="Helvetica,sans-Serif" font-size="10.00">QMutex</text>
</g>
<!-- Node7&#45;&gt;Node8 -->
<g id="edge7" class="edge"><title>Node7&#45;&gt;Node8</title>
<path fill="none" stroke="midnightblue" d="M663.337,-281.834C612.968,-270.479 524.684,-243.67 472.567,-188 460.507,-175.118 453.764,-155.941 450.186,-141.752"/>
<polygon fill="midnightblue" stroke="midnightblue" points="453.53,-140.667 447.953,-131.658 446.695,-142.178 453.53,-140.667"/>
</g>
<!-- Node9 -->
<g id="node9" class="node"><title>Node9</title>
<polygon fill="white" stroke="#bfbfbf" points="707.067,-168.5 707.067,-187.5 762.067,-187.5 762.067,-168.5 707.067,-168.5"/>
<text text-anchor="middle" x="734.567" y="-175.5" font-family="Helvetica,sans-Serif" font-size="10.00">QObject</text>
</g>
<!-- Node7&#45;&gt;Node9 -->
<g id="edge8" class="edge"><title>Node7&#45;&gt;Node9</title>
<path fill="none" stroke="midnightblue" d="M704.157,-280.368C709.506,-262.537 721.879,-221.295 729.086,-197.272"/>
<polygon fill="midnightblue" stroke="midnightblue" points="732.469,-198.175 731.99,-187.591 725.764,-196.164 732.469,-198.175"/>
</g>
<!-- Node10 -->
<g id="node10" class="node"><title>Node10</title>
<g id="a_node10"><a xlink:href="../../d8/dfe/torcreferencecounted_8h.html" target="_top" xlink:title="torcreferencecounted.h">
<polygon fill="white" stroke="black" points="780.067,-168.5 780.067,-187.5 909.067,-187.5 909.067,-168.5 780.067,-168.5"/>
<text text-anchor="middle" x="844.567" y="-175.5" font-family="Helvetica,sans-Serif" font-size="10.00">torcreferencecounted.h</text>
</a>
</g>
</g>
<!-- Node7&#45;&gt;Node10 -->
<g id="edge9" class="edge"><title>Node7&#45;&gt;Node10</title>
<path fill="none" stroke="midnightblue" d="M707.873,-280.102C717.725,-266.667 737.899,-240.976 759.567,-224 776.158,-211.002 797.053,-199.881 813.974,-191.947"/>
<polygon fill="midnightblue" stroke="midnightblue" points="815.762,-194.979 823.416,-187.653 812.864,-188.607 815.762,-194.979"/>
</g>
<!-- Node12 -->
<g id="node12" class="node"><title>Node12</title>
<g id="a_node12"><a xlink:href="../../d3/dee/torchttpservice_8h.html" target="_top" xlink:title="torchttpservice.h">
<polygon fill="white" stroke="black" points="233.567,-224.5 233.567,-243.5 331.567,-243.5 331.567,-224.5 233.567,-224.5"/>
<text text-anchor="middle" x="282.567" y="-231.5" font-family="Helvetica,sans-Serif" font-size="10.00">torchttpservice.h</text>
</a>
</g>
</g>
<!-- Node7&#45;&gt;Node12 -->
<g id="edge11" class="edge"><title>Node7&#45;&gt;Node12</title>
<path fill="none" stroke="midnightblue" d="M663.386,-281.461C660.406,-280.942 657.44,-280.448 654.567,-280 544.527,-262.83 415.3,-248.5 341.759,-240.89"/>
<polygon fill="midnightblue" stroke="midnightblue" points="342.066,-237.403 331.76,-239.861 341.349,-244.366 342.066,-237.403"/>
</g>
<!-- Node25 -->
<g id="node25" class="node"><title>Node25</title>
<g id="a_node25"><a xlink:href="../../d1/df7/torcdevice_8h.html" target="_top" xlink:title="torcdevice.h">
<polygon fill="white" stroke="black" points="598.067,-224.5 598.067,-243.5 673.067,-243.5 673.067,-224.5 598.067,-224.5"/>
<text text-anchor="middle" x="635.567" y="-231.5" font-family="Helvetica,sans-Serif" font-size="10.00">torcdevice.h</text>
</a>
</g>
</g>
<!-- Node7&#45;&gt;Node25 -->
<g id="edge28" class="edge"><title>Node7&#45;&gt;Node25</title>
<path fill="none" stroke="midnightblue" d="M690.963,-280.324C681.111,-272.263 666.216,-260.077 654.352,-250.369"/>
<polygon fill="midnightblue" stroke="midnightblue" points="656.32,-247.457 646.364,-243.834 651.887,-252.875 656.32,-247.457"/>
</g>
<!-- Node11 -->
<g id="node11" class="node"><title>Node11</title>
<polygon fill="white" stroke="#bfbfbf" points="759.567,-112.5 759.567,-131.5 829.567,-131.5 829.567,-112.5 759.567,-112.5"/>
<text text-anchor="middle" x="794.567" y="-119.5" font-family="Helvetica,sans-Serif" font-size="10.00">QAtomicInt</text>
</g>
<!-- Node10&#45;&gt;Node11 -->
<g id="edge10" class="edge"><title>Node10&#45;&gt;Node11</title>
<path fill="none" stroke="midnightblue" d="M836.311,-168.083C829.102,-160.298 818.457,-148.801 809.721,-139.367"/>
<polygon fill="midnightblue" stroke="midnightblue" points="812.032,-136.711 802.67,-131.751 806.896,-141.467 812.032,-136.711"/>
</g>
<!-- Node12&#45;&gt;Node8 -->
<g id="edge13" class="edge"><title>Node12&#45;&gt;Node8</title>
<path fill="none" stroke="midnightblue" d="M297.525,-224.374C312.627,-215.556 336.522,-201.303 356.567,-188 381.547,-171.422 409.397,-150.993 427.408,-137.513"/>
<polygon fill="midnightblue" stroke="midnightblue" points="429.514,-140.308 435.404,-131.501 425.308,-134.713 429.514,-140.308"/>
</g>
<!-- Node13 -->
<g id="node13" class="node"><title>Node13</title>
<polygon fill="white" stroke="#bfbfbf" points="34.5672,-56.5 34.5672,-75.5 78.5672,-75.5 78.5672,-56.5 34.5672,-56.5"/>
<text text-anchor="middle" x="56.5672" y="-63.5" font-family="Helvetica,sans-Serif" font-size="10.00">QMap</text>
</g>
<!-- Node12&#45;&gt;Node13 -->
<g id="edge12" class="edge"><title>Node12&#45;&gt;Node13</title>
<path fill="none" stroke="midnightblue" d="M233.537,-232.22C162.865,-229.94 37.7348,-221.191 9.56716,-188 -17.159,-156.508 18.4746,-108.087 40.8751,-83.1201"/>
<polygon fill="midnightblue" stroke="midnightblue" points="43.6107,-85.3179 47.8552,-75.6104 38.4835,-80.5522 43.6107,-85.3179"/>
</g>
<!-- Node14 -->
<g id="node14" class="node"><title>Node14</title>
<polygon fill="white" stroke="#bfbfbf" points="136.067,-168.5 136.067,-187.5 215.067,-187.5 215.067,-168.5 136.067,-168.5"/>
<text text-anchor="middle" x="175.567" y="-175.5" font-family="Helvetica,sans-Serif" font-size="10.00">QMetaObject</text>
</g>
<!-- Node12&#45;&gt;Node14 -->
<g id="edge14" class="edge"><title>Node12&#45;&gt;Node14</title>
<path fill="none" stroke="midnightblue" d="M265.376,-224.324C248.216,-215.664 221.621,-202.242 201.82,-192.249"/>
<polygon fill="midnightblue" stroke="midnightblue" points="203.22,-189.035 192.716,-187.655 200.066,-195.285 203.22,-189.035"/>
</g>
<!-- Node15 -->
<g id="node15" class="node"><title>Node15</title>
<polygon fill="white" stroke="#bfbfbf" points="233.067,-168.5 233.067,-187.5 332.067,-187.5 332.067,-168.5 233.067,-168.5"/>
<text text-anchor="middle" x="282.567" y="-175.5" font-family="Helvetica,sans-Serif" font-size="10.00">QCoreApplication</text>
</g>
<!-- Node12&#45;&gt;Node15 -->
<g id="edge15" class="edge"><title>Node12&#45;&gt;Node15</title>
<path fill="none" stroke="midnightblue" d="M282.567,-224.083C282.567,-217.006 282.567,-206.861 282.567,-197.986"/>
<polygon fill="midnightblue" stroke="midnightblue" points="286.067,-197.751 282.567,-187.751 279.067,-197.751 286.067,-197.751"/>
</g>
<!-- Node16 -->
<g id="node16" class="node"><title>Node16</title>
<g id="a_node16"><a xlink:href="../../d4/d11/torchttphandler_8h.html" target="_top" xlink:title="torchttphandler.h">
<polygon fill="white" stroke="black" points="19.0672,-168.5 19.0672,-187.5 118.067,-187.5 118.067,-168.5 19.0672,-168.5"/>
<text text-anchor="middle" x="68.5672" y="-175.5" font-family="Helvetica,sans-Serif" font-size="10.00">torchttphandler.h</text>
</a>
</g>
</g>
<!-- Node12&#45;&gt;Node16 -->
<g id="edge16" class="edge"><title>Node12&#45;&gt;Node16</title>
<path fill="none" stroke="midnightblue" d="M248.658,-224.444C211.718,-215.122 152.514,-200.183 112.149,-189.997"/>
<polygon fill="midnightblue" stroke="midnightblue" points="112.87,-186.57 102.317,-187.516 111.157,-193.357 112.87,-186.57"/>
</g>
<!-- Node19 -->
<g id="node19" class="node"><title>Node19</title>
<g id="a_node19"><a xlink:href="../../df/dd7/torchttprequest_8h.html" target="_top" xlink:title="torchttprequest.h">
<polygon fill="white" stroke="black" points="228.067,-112.5 228.067,-131.5 329.067,-131.5 329.067,-112.5 228.067,-112.5"/>
<text text-anchor="middle" x="278.567" y="-119.5" font-family="Helvetica,sans-Serif" font-size="10.00">torchttprequest.h</text>
</a>
</g>
</g>
<!-- Node12&#45;&gt;Node19 -->
<g id="edge27" class="edge"><title>Node12&#45;&gt;Node19</title>
<path fill="none" stroke="midnightblue" d="M300.956,-224.326C322.446,-212.886 353.632,-191.443 341.567,-168 334.49,-154.247 321.046,-143.766 308.389,-136.394"/>
<polygon fill="midnightblue" stroke="midnightblue" points="309.88,-133.222 299.415,-131.573 306.568,-139.389 309.88,-133.222"/>
</g>
<!-- Node17 -->
<g id="node17" class="node"><title>Node17</title>
<polygon fill="white" stroke="#bfbfbf" points="332.067,-56.5 332.067,-75.5 385.067,-75.5 385.067,-56.5 332.067,-56.5"/>
<text text-anchor="middle" x="358.567" y="-63.5" font-family="Helvetica,sans-Serif" font-size="10.00">QString</text>
</g>
<!-- Node16&#45;&gt;Node17 -->
<g id="edge17" class="edge"><title>Node16&#45;&gt;Node17</title>
<path fill="none" stroke="midnightblue" d="M118.248,-169.054C195.659,-156.627 336.494,-133.814 338.567,-132 351.738,-120.478 356.362,-100.509 357.921,-85.7362"/>
<polygon fill="midnightblue" stroke="midnightblue" points="361.418,-85.8935 358.606,-75.6787 354.434,-85.4176 361.418,-85.8935"/>
</g>
<!-- Node18 -->
<g id="node18" class="node"><title>Node18</title>
<polygon fill="white" stroke="#bfbfbf" points="29.5672,-112.5 29.5672,-131.5 107.567,-131.5 107.567,-112.5 29.5672,-112.5"/>
<text text-anchor="middle" x="68.5672" y="-119.5" font-family="Helvetica,sans-Serif" font-size="10.00">QVariantMap</text>
</g>
<!-- Node16&#45;&gt;Node18 -->
<g id="edge18" class="edge"><title>Node16&#45;&gt;Node18</title>
<path fill="none" stroke="midnightblue" d="M68.5672,-168.083C68.5672,-161.006 68.5672,-150.861 68.5672,-141.986"/>
<polygon fill="midnightblue" stroke="midnightblue" points="72.0673,-141.751 68.5672,-131.751 65.0673,-141.751 72.0673,-141.751"/>
</g>
<!-- Node16&#45;&gt;Node19 -->
<g id="edge19" class="edge"><title>Node16&#45;&gt;Node19</title>
<path fill="none" stroke="midnightblue" d="M101.842,-168.444C138.015,-159.142 195.944,-144.246 235.548,-134.062"/>
<polygon fill="midnightblue" stroke="midnightblue" points="236.634,-137.397 245.448,-131.516 234.891,-130.617 236.634,-137.397"/>
</g>
<!-- Node19&#45;&gt;Node13 -->
<g id="edge20" class="edge"><title>Node19&#45;&gt;Node13</title>
<path fill="none" stroke="midnightblue" d="M243.391,-112.444C200.786,-102.08 129.635,-84.7732 88.5299,-74.7747"/>
<polygon fill="midnightblue" stroke="midnightblue" points="89.3064,-71.3616 78.7625,-72.3989 87.6519,-78.1633 89.3064,-71.3616"/>
</g>
<!-- Node19&#45;&gt;Node17 -->
<g id="edge22" class="edge"><title>Node19&#45;&gt;Node17</title>
<path fill="none" stroke="midnightblue" d="M291.421,-112.324C303.784,-103.979 322.697,-91.2122 337.304,-81.3524"/>
<polygon fill="midnightblue" stroke="midnightblue" points="339.415,-84.1503 345.746,-75.6545 335.499,-78.3483 339.415,-84.1503"/>
</g>
<!-- Node20 -->
<g id="node20" class="node"><title>Node20</title>
<polygon fill="white" stroke="#bfbfbf" points="754.067,-56.5 754.067,-75.5 795.067,-75.5 795.067,-56.5 754.067,-56.5"/>
<text text-anchor="middle" x="774.567" y="-63.5" font-family="Helvetica,sans-Serif" font-size="10.00">QPair</text>
</g>
<!-- Node19&#45;&gt;Node20 -->
<g id="edge21" class="edge"><title>Node19&#45;&gt;Node20</title>
<path fill="none" stroke="midnightblue" d="M329.317,-115.475C431.854,-104.311 660.992,-79.3651 743.89,-70.3399"/>
<polygon fill="midnightblue" stroke="midnightblue" points="744.363,-73.8092 753.925,-69.2473 743.605,-66.8503 744.363,-73.8092"/>
</g>
<!-- Node21 -->
<g id="node21" class="node"><title>Node21</title>
<polygon fill="white" stroke="#bfbfbf" points="243.067,-56.5 243.067,-75.5 314.067,-75.5 314.067,-56.5 243.067,-56.5"/>
<text text-anchor="middle" x="278.567" y="-63.5" font-family="Helvetica,sans-Serif" font-size="10.00">QDateTime</text>
</g>
<!-- Node19&#45;&gt;Node21 -->
<g id="edge23" class="edge"><title>Node19&#45;&gt;Node21</title>
<path fill="none" stroke="midnightblue" d="M278.567,-112.083C278.567,-105.006 278.567,-94.8611 278.567,-85.9865"/>
<polygon fill="midnightblue" stroke="midnightblue" points="282.067,-85.751 278.567,-75.7511 275.067,-85.7511 282.067,-85.751"/>
</g>
<!-- Node22 -->
<g id="node22" class="node"><title>Node22</title>
<g id="a_node22"><a xlink:href="../../de/de6/torchttpreader_8h.html" target="_top" xlink:title="torchttpreader.h">
<polygon fill="white" stroke="black" points="130.067,-56.5 130.067,-75.5 225.067,-75.5 225.067,-56.5 130.067,-56.5"/>
<text text-anchor="middle" x="177.567" y="-63.5" font-family="Helvetica,sans-Serif" font-size="10.00">torchttpreader.h</text>
</a>
</g>
</g>
<!-- Node19&#45;&gt;Node22 -->
<g id="edge24" class="edge"><title>Node19&#45;&gt;Node22</title>
<path fill="none" stroke="midnightblue" d="M262.34,-112.324C246.216,-103.703 221.267,-90.3643 202.603,-80.3855"/>
<polygon fill="midnightblue" stroke="midnightblue" points="204.223,-77.283 193.754,-75.6545 200.923,-83.456 204.223,-77.283"/>
</g>
<!-- Node23 -->
<g id="node23" class="node"><title>Node23</title>
<polygon fill="white" stroke="#bfbfbf" points="97.0672,-0.5 97.0672,-19.5 168.067,-19.5 168.067,-0.5 97.0672,-0.5"/>
<text text-anchor="middle" x="132.567" y="-7.5" font-family="Helvetica,sans-Serif" font-size="10.00">QByteArray</text>
</g>
<!-- Node22&#45;&gt;Node23 -->
<g id="edge25" class="edge"><title>Node22&#45;&gt;Node23</title>
<path fill="none" stroke="midnightblue" d="M170.136,-56.083C163.714,-48.3768 154.262,-37.0333 146.445,-27.6531"/>
<polygon fill="midnightblue" stroke="midnightblue" points="148.95,-25.1927 139.86,-19.7511 143.573,-29.674 148.95,-25.1927"/>
</g>
<!-- Node24 -->
<g id="node24" class="node"><title>Node24</title>
<polygon fill="white" stroke="#bfbfbf" points="186.567,-0.5 186.567,-19.5 258.567,-19.5 258.567,-0.5 186.567,-0.5"/>
<text text-anchor="middle" x="222.567" y="-7.5" font-family="Helvetica,sans-Serif" font-size="10.00">QTcpSocket</text>
</g>
<!-- Node22&#45;&gt;Node24 -->
<g id="edge26" class="edge"><title>Node22&#45;&gt;Node24</title>
<path fill="none" stroke="midnightblue" d="M184.998,-56.083C191.42,-48.3768 200.873,-37.0333 208.69,-27.6531"/>
<polygon fill="midnightblue" stroke="midnightblue" points="211.562,-29.674 215.275,-19.7511 206.184,-25.1927 211.562,-29.674"/>
</g>
<!-- Node25&#45;&gt;Node8 -->
<g id="edge30" class="edge"><title>Node25&#45;&gt;Node8</title>
<path fill="none" stroke="midnightblue" d="M598.053,-226.758C568.932,-220.546 528.595,-208.84 498.567,-188 480.647,-175.563 465.782,-155.196 456.599,-140.573"/>
<polygon fill="midnightblue" stroke="midnightblue" points="459.559,-138.705 451.409,-131.935 453.559,-142.309 459.559,-138.705"/>
</g>
<!-- Node25&#45;&gt;Node9 -->
<g id="edge32" class="edge"><title>Node25&#45;&gt;Node9</title>
<path fill="none" stroke="midnightblue" d="M651.473,-224.324C667.205,-215.743 691.51,-202.486 709.776,-192.522"/>
<polygon fill="midnightblue" stroke="midnightblue" points="711.598,-195.516 718.701,-187.655 708.246,-189.37 711.598,-195.516"/>
</g>
<!-- Node25&#45;&gt;Node10 -->
<g id="edge33" class="edge"><title>Node25&#45;&gt;Node10</title>
<path fill="none" stroke="midnightblue" d="M668.684,-224.444C704.685,-215.142 762.337,-200.246 801.753,-190.062"/>
<polygon fill="midnightblue" stroke="midnightblue" points="802.799,-193.407 811.605,-187.516 801.048,-186.629 802.799,-193.407"/>
</g>
<!-- Node25&#45;&gt;Node17 -->
<g id="edge31" class="edge"><title>Node25&#45;&gt;Node17</title>
<path fill="none" stroke="midnightblue" d="M603.324,-224.475C581.293,-217.431 552.425,-205.685 531.567,-188 500.913,-162.009 513.991,-137.056 482.567,-112 457.117,-91.7069 421.703,-80.076 395.235,-73.7442"/>
<polygon fill="midnightblue" stroke="midnightblue" points="395.735,-70.2696 385.212,-71.495 394.203,-77.0997 395.735,-70.2696"/>
</g>
<!-- Node26 -->
<g id="node26" class="node"><title>Node26</title>
<polygon fill="white" stroke="#bfbfbf" points="648.067,-112.5 648.067,-131.5 697.067,-131.5 697.067,-112.5 648.067,-112.5"/>
<text text-anchor="middle" x="672.567" y="-119.5" font-family="Helvetica,sans-Serif" font-size="10.00">QHash</text>
</g>
<!-- Node25&#45;&gt;Node26 -->
<g id="edge29" class="edge"><title>Node25&#45;&gt;Node26</title>
<path fill="none" stroke="midnightblue" d="M641.147,-224.389C646.612,-215.582 654.794,-201.338 659.567,-188 664.966,-172.915 668.337,-155.014 670.29,-141.821"/>
<polygon fill="midnightblue" stroke="midnightblue" points="673.796,-142.004 671.656,-131.628 666.858,-141.075 673.796,-142.004"/>
</g>
<!-- Node27 -->
<g id="node27" class="node"><title>Node27</title>
<g id="a_node27"><a xlink:href="../../d2/d5b/torcdevicehandler_8h.html" target="_top" xlink:title="torcdevicehandler.h">
<polygon fill="white" stroke="black" points="540.567,-168.5 540.567,-187.5 650.567,-187.5 650.567,-168.5 540.567,-168.5"/>
<text text-anchor="middle" x="595.567" y="-175.5" font-family="Helvetica,sans-Serif" font-size="10.00">torcdevicehandler.h</text>
</a>
</g>
</g>
<!-- Node25&#45;&gt;Node27 -->
<g id="edge34" class="edge"><title>Node25&#45;&gt;Node27</title>
<path fill="none" stroke="midnightblue" d="M628.962,-224.083C623.312,-216.455 615.022,-205.264 608.116,-195.941"/>
<polygon fill="midnightblue" stroke="midnightblue" points="610.814,-193.703 602.049,-187.751 605.189,-197.87 610.814,-193.703"/>
</g>
<!-- Node27&#45;&gt;Node8 -->
<g id="edge36" class="edge"><title>Node27&#45;&gt;Node8</title>
<path fill="none" stroke="midnightblue" d="M571.958,-168.444C547.109,-159.438 507.793,-145.189 479.814,-135.049"/>
<polygon fill="midnightblue" stroke="midnightblue" points="480.66,-131.633 470.066,-131.516 478.275,-138.214 480.66,-131.633"/>
</g>
<!-- Node27&#45;&gt;Node26 -->
<g id="edge35" class="edge"><title>Node27&#45;&gt;Node26</title>
<path fill="none" stroke="midnightblue" d="M607.939,-168.324C619.726,-160.058 637.699,-147.453 651.703,-137.632"/>
<polygon fill="midnightblue" stroke="midnightblue" points="654.049,-140.262 660.226,-131.655 650.03,-134.531 654.049,-140.262"/>
</g>
<!-- Node28 -->
<g id="node28" class="node"><title>Node28</title>
<polygon fill="white" stroke="#bfbfbf" points="566.567,-112.5 566.567,-131.5 624.567,-131.5 624.567,-112.5 566.567,-112.5"/>
<text text-anchor="middle" x="595.567" y="-119.5" font-family="Helvetica,sans-Serif" font-size="10.00">QVariant</text>
</g>
<!-- Node27&#45;&gt;Node28 -->
<g id="edge37" class="edge"><title>Node27&#45;&gt;Node28</title>
<path fill="none" stroke="midnightblue" d="M595.567,-168.083C595.567,-161.006 595.567,-150.861 595.567,-141.986"/>
<polygon fill="midnightblue" stroke="midnightblue" points="599.067,-141.751 595.567,-131.751 592.067,-141.751 599.067,-141.751"/>
</g>
<!-- Node29&#45;&gt;Node9 -->
<g id="edge39" class="edge"><title>Node29&#45;&gt;Node9</title>
<path fill="none" stroke="midnightblue" d="M796.678,-224.324C785.417,-216.107 768.281,-203.602 754.858,-193.807"/>
<polygon fill="midnightblue" stroke="midnightblue" points="756.814,-190.901 746.673,-187.834 752.688,-196.556 756.814,-190.901"/>
</g>
<!-- Node30 -->
<g id="node30" class="node"><title>Node30</title>
<g id="a_node30"><a xlink:href="../../de/df7/torcsegmentedringbuffer_8h.html" target="_top" xlink:title="torcsegmentedringbuffer.h">
<polygon fill="white" stroke="black" points="927.567,-168.5 927.567,-187.5 1071.57,-187.5 1071.57,-168.5 927.567,-168.5"/>
<text text-anchor="middle" x="999.567" y="-175.5" font-family="Helvetica,sans-Serif" font-size="10.00">torcsegmentedringbuffer.h</text>
</a>
</g>
</g>
<!-- Node29&#45;&gt;Node30 -->
<g id="edge40" class="edge"><title>Node29&#45;&gt;Node30</title>
<path fill="none" stroke="midnightblue" d="M838.832,-224.444C871.522,-215.201 923.749,-200.436 959.75,-190.257"/>
<polygon fill="midnightblue" stroke="midnightblue" points="960.774,-193.605 969.444,-187.516 958.869,-186.869 960.774,-193.605"/>
</g>
<!-- Node30&#45;&gt;Node20 -->
<g id="edge41" class="edge"><title>Node30&#45;&gt;Node20</title>
<path fill="none" stroke="midnightblue" d="M1039.46,-168.438C1078.89,-158.204 1130.16,-139.009 1106.57,-112 1067.54,-67.3261 879.944,-65.2736 805.3,-66.2848"/>
<polygon fill="midnightblue" stroke="midnightblue" points="805.079,-62.7878 795.137,-66.4515 805.193,-69.7869 805.079,-62.7878"/>
</g>
<!-- Node31 -->
<g id="node31" class="node"><title>Node31</title>
<polygon fill="white" stroke="#bfbfbf" points="847.567,-112.5 847.567,-131.5 903.567,-131.5 903.567,-112.5 847.567,-112.5"/>
<text text-anchor="middle" x="875.567" y="-119.5" font-family="Helvetica,sans-Serif" font-size="10.00">QQueue</text>
</g>
<!-- Node30&#45;&gt;Node31 -->
<g id="edge42" class="edge"><title>Node30&#45;&gt;Node31</title>
<path fill="none" stroke="midnightblue" d="M979.919,-168.444C959.603,-159.596 927.664,-145.687 904.469,-135.586"/>
<polygon fill="midnightblue" stroke="midnightblue" points="905.689,-132.3 895.123,-131.516 902.894,-138.718 905.689,-132.3"/>
</g>
<!-- Node32 -->
<g id="node32" class="node"><title>Node32</title>
<polygon fill="white" stroke="#bfbfbf" points="921.567,-112.5 921.567,-131.5 987.567,-131.5 987.567,-112.5 921.567,-112.5"/>
<text text-anchor="middle" x="954.567" y="-119.5" font-family="Helvetica,sans-Serif" font-size="10.00">QIODevice</text>
</g>
<!-- Node30&#45;&gt;Node32 -->
<g id="edge43" class="edge"><title>Node30&#45;&gt;Node32</title>
<path fill="none" stroke="midnightblue" d="M992.136,-168.083C985.714,-160.377 976.262,-149.033 968.445,-139.653"/>
<polygon fill="midnightblue" stroke="midnightblue" points="970.95,-137.193 961.86,-131.751 965.573,-141.674 970.95,-137.193"/>
</g>
<!-- Node33 -->
<g id="node33" class="node"><title>Node33</title>
<polygon fill="white" stroke="#bfbfbf" points="1005.57,-112.5 1005.57,-131.5 1097.57,-131.5 1097.57,-112.5 1005.57,-112.5"/>
<text text-anchor="middle" x="1051.57" y="-119.5" font-family="Helvetica,sans-Serif" font-size="10.00">QReadWriteLock</text>
</g>
<!-- Node30&#45;&gt;Node33 -->
<g id="edge44" class="edge"><title>Node30&#45;&gt;Node33</title>
<path fill="none" stroke="midnightblue" d="M1008.15,-168.083C1015.73,-160.22 1026.95,-148.569 1036.08,-139.081"/>
<polygon fill="midnightblue" stroke="midnightblue" points="1038.72,-141.382 1043.14,-131.751 1033.68,-136.527 1038.72,-141.382"/>
</g>
<!-- Node34&#45;&gt;Node10 -->
<g id="edge46" class="edge"><title>Node34&#45;&gt;Node10</title>
<path fill="none" stroke="midnightblue" d="M870.091,-280.103C867.934,-267.521 863.625,-243.85 858.567,-224 856.291,-215.069 853.308,-205.286 850.68,-197.128"/>
<polygon fill="midnightblue" stroke="midnightblue" points="853.977,-195.95 847.52,-187.551 847.33,-198.144 853.977,-195.95"/>
</g>
<!-- Node34&#45;&gt;Node29 -->
<g id="edge49" class="edge"><title>Node34&#45;&gt;Node29</title>
<path fill="none" stroke="midnightblue" d="M861.445,-280.324C852.041,-272.263 837.823,-260.077 826.498,-250.369"/>
<polygon fill="midnightblue" stroke="midnightblue" points="828.744,-247.684 818.873,-243.834 824.188,-252.999 828.744,-247.684"/>
</g>
<!-- Node35 -->
<g id="node35" class="node"><title>Node35</title>
<g id="a_node35"><a xlink:href="../../dd/db0/torcqthread_8h.html" target="_top" xlink:title="torcqthread.h">
<polygon fill="white" stroke="black" points="1007.57,-224.5 1007.57,-243.5 1089.57,-243.5 1089.57,-224.5 1007.57,-224.5"/>
<text text-anchor="middle" x="1048.57" y="-231.5" font-family="Helvetica,sans-Serif" font-size="10.00">torcqthread.h</text>
</a>
</g>
</g>
<!-- Node34&#45;&gt;Node35 -->
<g id="edge47" class="edge"><title>Node34&#45;&gt;Node35</title>
<path fill="none" stroke="midnightblue" d="M899.613,-280.444C929.649,-271.28 977.48,-256.688 1010.81,-246.519"/>
<polygon fill="midnightblue" stroke="midnightblue" points="1012.11,-249.782 1020.65,-243.516 1010.07,-243.087 1012.11,-249.782"/>
</g>
<!-- Node36 -->
<g id="node36" class="node"><title>Node36</title>
<polygon fill="white" stroke="#bfbfbf" points="1090.07,-168.5 1090.07,-187.5 1147.07,-187.5 1147.07,-168.5 1090.07,-168.5"/>
<text text-anchor="middle" x="1118.57" y="-175.5" font-family="Helvetica,sans-Serif" font-size="10.00">QThread</text>
</g>
<!-- Node35&#45;&gt;Node36 -->
<g id="edge48" class="edge"><title>Node35&#45;&gt;Node36</title>
<path fill="none" stroke="midnightblue" d="M1059.81,-224.324C1070.36,-216.185 1086.37,-203.839 1099.01,-194.087"/>
<polygon fill="midnightblue" stroke="midnightblue" points="1101.34,-196.713 1107.12,-187.834 1097.06,-191.171 1101.34,-196.713"/>
</g>
</g>
</svg>
