<?xml version="1.0" encoding="UTF-8" standalone="no"?>
<!DOCTYPE svg PUBLIC "-//W3C//DTD SVG 1.1//EN"
 "http://www.w3.org/Graphics/SVG/1.1/DTD/svg11.dtd">
<!-- Generated by graphviz version 2.38.0 (20140413.2041)
 -->
<!-- Title: torcpiswitchinput.h Pages: 1 -->
<!--zoomable 420 -->
<svg id="main" version="1.1" xmlns="http://www.w3.org/2000/svg" xmlns:xlink="http://www.w3.org/1999/xlink" xml:space="preserve" onload="init(evt)">
<style type="text/css"><![CDATA[
.edge:hover path { stroke: red; }
.edge:hover polygon { stroke: red; fill: red; }
]]></style>
<script type="text/javascript"><![CDATA[
var edges = document.getElementsByTagName('g');
if (edges && edges.length) {
  for (var i=0;i<edges.length;i++) {
    if (edges[i].id.substr(0,4)=='edge') {
      edges[i].setAttribute('class','edge');
    }
  }
}
]]></script>
        <defs>
                <circle id="rim" cx="0" cy="0" r="7"/>
                <circle id="rim2" cx="0" cy="0" r="3.5"/>
                <g id="zoomPlus">
                        <use xlink:href="#rim" fill="#404040">
                                <set attributeName="fill" to="#808080" begin="zoomplus.mouseover" end="zoomplus.mouseout"/>
                        </use>
                        <path d="M-4,0h8M0,-4v8" fill="none" stroke="white" stroke-width="1.5" pointer-events="none"/>
                </g>
                <g id="zoomMin">
                        <use xlink:href="#rim" fill="#404040">
                                <set attributeName="fill" to="#808080" begin="zoomminus.mouseover" end="zoomminus.mouseout"/>
                        </use>
                        <path d="M-4,0h8" fill="none" stroke="white" stroke-width="1.5" pointer-events="none"/>
                </g>
                <g id="dirArrow">
                        <path fill="none" stroke="white" stroke-width="1.5" d="M0,-3.0v7 M-2.5,-0.5L0,-3.0L2.5,-0.5"/>
                </g>
               <g id="resetDef">
                       <use xlink:href="#rim2" fill="#404040">
                               <set attributeName="fill" to="#808080" begin="reset.mouseover" end="reset.mouseout"/>
                       </use>
               </g>
        </defs>

<script type="text/javascript">
var viewWidth = 941;
var viewHeight = 420;
var sectionId = 'dynsection-0';
</script>
<script xlink:href="../../svgpan.js"/>
<svg id="graph" class="graph">
<g id="viewport">
<title>torcpiswitchinput.h</title>
<polygon fill="white" stroke="none" points="-4,4 -4,-416 936.5,-416 936.5,4 -4,4"/>
<!-- Node1 -->
<g id="node1" class="node"><title>Node1</title>
<polygon fill="#bfbfbf" stroke="black" points="322,-392.5 322,-411.5 428,-411.5 428,-392.5 322,-392.5"/>
<text text-anchor="middle" x="375" y="-399.5" font-family="Helvetica,sans-Serif" font-size="10.00">torcpiswitchinput.h</text>
</g>
<!-- Node2 -->
<g id="node2" class="node"><title>Node2</title>
<polygon fill="white" stroke="#bfbfbf" points="276.5,-336.5 276.5,-355.5 315.5,-355.5 315.5,-336.5 276.5,-336.5"/>
<text text-anchor="middle" x="296" y="-343.5" font-family="Helvetica,sans-Serif" font-size="10.00">QFile</text>
</g>
<!-- Node1&#45;&gt;Node2 -->
<g id="edge1" class="edge"><title>Node1&#45;&gt;Node2</title>
<path fill="none" stroke="midnightblue" d="M362.307,-392.324C350.099,-383.979 331.422,-371.212 316.997,-361.352"/>
<polygon fill="midnightblue" stroke="midnightblue" points="318.892,-358.408 308.661,-355.655 314.942,-364.187 318.892,-358.408"/>
</g>
<!-- Node3 -->
<g id="node3" class="node"><title>Node3</title>
<g id="a_node3"><a xlink:href="../../dd/db0/torcqthread_8h.html" target="_top" xlink:title="torcqthread.h">
<polygon fill="white" stroke="black" points="334,-336.5 334,-355.5 416,-355.5 416,-336.5 334,-336.5"/>
<text text-anchor="middle" x="375" y="-343.5" font-family="Helvetica,sans-Serif" font-size="10.00">torcqthread.h</text>
</a>
</g>
</g>
<!-- Node1&#45;&gt;Node3 -->
<g id="edge2" class="edge"><title>Node1&#45;&gt;Node3</title>
<path fill="none" stroke="midnightblue" d="M375,-392.083C375,-385.006 375,-374.861 375,-365.986"/>
<polygon fill="midnightblue" stroke="midnightblue" points="378.5,-365.751 375,-355.751 371.5,-365.751 378.5,-365.751"/>
</g>
<!-- Node5 -->
<g id="node5" class="node"><title>Node5</title>
<g id="a_node5"><a xlink:href="../../d9/d2a/torcswitchinput_8h.html" target="_top" xlink:title="torcswitchinput.h">
<polygon fill="white" stroke="black" points="434,-336.5 434,-355.5 532,-355.5 532,-336.5 434,-336.5"/>
<text text-anchor="middle" x="483" y="-343.5" font-family="Helvetica,sans-Serif" font-size="10.00">torcswitchinput.h</text>
</a>
</g>
</g>
<!-- Node1&#45;&gt;Node5 -->
<g id="edge4" class="edge"><title>Node1&#45;&gt;Node5</title>
<path fill="none" stroke="midnightblue" d="M392.352,-392.324C409.672,-383.664 436.515,-370.242 456.502,-360.249"/>
<polygon fill="midnightblue" stroke="midnightblue" points="458.312,-363.257 465.691,-355.655 455.181,-356.996 458.312,-363.257"/>
</g>
<!-- Node4 -->
<g id="node4" class="node"><title>Node4</title>
<polygon fill="white" stroke="#bfbfbf" points="346.5,-280.5 346.5,-299.5 403.5,-299.5 403.5,-280.5 346.5,-280.5"/>
<text text-anchor="middle" x="375" y="-287.5" font-family="Helvetica,sans-Serif" font-size="10.00">QThread</text>
</g>
<!-- Node3&#45;&gt;Node4 -->
<g id="edge3" class="edge"><title>Node3&#45;&gt;Node4</title>
<path fill="none" stroke="midnightblue" d="M375,-336.083C375,-329.006 375,-318.861 375,-309.986"/>
<polygon fill="midnightblue" stroke="midnightblue" points="378.5,-309.751 375,-299.751 371.5,-309.751 378.5,-309.751"/>
</g>
<!-- Node6 -->
<g id="node6" class="node"><title>Node6</title>
<g id="a_node6"><a xlink:href="../../dd/d69/torcinput_8h.html" target="_top" xlink:title="torcinput.h">
<polygon fill="white" stroke="black" points="449,-280.5 449,-299.5 517,-299.5 517,-280.5 449,-280.5"/>
<text text-anchor="middle" x="483" y="-287.5" font-family="Helvetica,sans-Serif" font-size="10.00">torcinput.h</text>
</a>
</g>
</g>
<!-- Node5&#45;&gt;Node6 -->
<g id="edge5" class="edge"><title>Node5&#45;&gt;Node6</title>
<path fill="none" stroke="midnightblue" d="M483,-336.083C483,-329.006 483,-318.861 483,-309.986"/>
<polygon fill="midnightblue" stroke="midnightblue" points="486.5,-309.751 483,-299.751 479.5,-309.751 486.5,-309.751"/>
</g>
<!-- Node7 -->
<g id="node7" class="node"><title>Node7</title>
<polygon fill="white" stroke="#bfbfbf" points="479.5,-112.5 479.5,-131.5 532.5,-131.5 532.5,-112.5 479.5,-112.5"/>
<text text-anchor="middle" x="506" y="-119.5" font-family="Helvetica,sans-Serif" font-size="10.00">QMutex</text>
</g>
<!-- Node6&#45;&gt;Node7 -->
<g id="edge6" class="edge"><title>Node6&#45;&gt;Node7</title>
<path fill="none" stroke="midnightblue" d="M480.964,-280.282C476.62,-260.087 467.723,-208.714 479,-168 481.792,-157.921 487.509,-147.832 492.967,-139.769"/>
<polygon fill="midnightblue" stroke="midnightblue" points="495.825,-141.79 498.849,-131.636 490.153,-137.688 495.825,-141.79"/>
</g>
<!-- Node8 -->
<g id="node8" class="node"><title>Node8</title>
<polygon fill="white" stroke="#bfbfbf" points="487.5,-168.5 487.5,-187.5 542.5,-187.5 542.5,-168.5 487.5,-168.5"/>
<text text-anchor="middle" x="515" y="-175.5" font-family="Helvetica,sans-Serif" font-size="10.00">QObject</text>
</g>
<!-- Node6&#45;&gt;Node8 -->
<g id="edge7" class="edge"><title>Node6&#45;&gt;Node8</title>
<path fill="none" stroke="midnightblue" d="M485.511,-280.368C490.698,-262.537 502.696,-221.295 509.685,-197.272"/>
<polygon fill="midnightblue" stroke="midnightblue" points="513.068,-198.171 512.501,-187.591 506.347,-196.216 513.068,-198.171"/>
</g>
<!-- Node9 -->
<g id="node9" class="node"><title>Node9</title>
<g id="a_node9"><a xlink:href="../../d3/dee/torchttpservice_8h.html" target="_top" xlink:title="http/torchttpservice.h">
<polygon fill="white" stroke="black" points="166,-224.5 166,-243.5 286,-243.5 286,-224.5 166,-224.5"/>
<text text-anchor="middle" x="226" y="-231.5" font-family="Helvetica,sans-Serif" font-size="10.00">http/torchttpservice.h</text>
</a>
</g>
</g>
<!-- Node6&#45;&gt;Node9 -->
<g id="edge8" class="edge"><title>Node6&#45;&gt;Node9</title>
<path fill="none" stroke="midnightblue" d="M448.872,-281.829C404.71,-272.55 327.404,-256.307 276.452,-245.601"/>
<polygon fill="midnightblue" stroke="midnightblue" points="277.136,-242.168 266.63,-243.537 275.697,-249.019 277.136,-242.168"/>
</g>
<!-- Node22 -->
<g id="node22" class="node"><title>Node22</title>
<g id="a_node22"><a xlink:href="../../d1/df7/torcdevice_8h.html" target="_top" xlink:title="torcdevice.h">
<polygon fill="white" stroke="black" points="571.5,-224.5 571.5,-243.5 646.5,-243.5 646.5,-224.5 571.5,-224.5"/>
<text text-anchor="middle" x="609" y="-231.5" font-family="Helvetica,sans-Serif" font-size="10.00">torcdevice.h</text>
</a>
</g>
</g>
<!-- Node6&#45;&gt;Node22 -->
<g id="edge25" class="edge"><title>Node6&#45;&gt;Node22</title>
<path fill="none" stroke="midnightblue" d="M502.965,-280.444C523.609,-271.596 556.063,-257.687 579.632,-247.586"/>
<polygon fill="midnightblue" stroke="midnightblue" points="581.316,-250.673 589.128,-243.516 578.558,-244.239 581.316,-250.673"/>
</g>
<!-- Node9&#45;&gt;Node7 -->
<g id="edge10" class="edge"><title>Node9&#45;&gt;Node7</title>
<path fill="none" stroke="midnightblue" d="M276.274,-224.434C312.228,-217.289 361.264,-205.438 402,-188 433.544,-174.497 466.586,-152.237 486.741,-137.595"/>
<polygon fill="midnightblue" stroke="midnightblue" points="488.829,-140.404 494.795,-131.649 484.671,-134.773 488.829,-140.404"/>
</g>
<!-- Node10 -->
<g id="node10" class="node"><title>Node10</title>
<polygon fill="white" stroke="#bfbfbf" points="0,-56.5 0,-75.5 44,-75.5 44,-56.5 0,-56.5"/>
<text text-anchor="middle" x="22" y="-63.5" font-family="Helvetica,sans-Serif" font-size="10.00">QMap</text>
</g>
<!-- Node9&#45;&gt;Node10 -->
<g id="edge9" class="edge"><title>Node9&#45;&gt;Node10</title>
<path fill="none" stroke="midnightblue" d="M165.716,-230.406C131.022,-225.853 88.9086,-214.665 61,-188 32.5031,-160.772 24.7858,-112.654 22.7243,-86.0378"/>
<polygon fill="midnightblue" stroke="midnightblue" points="26.2023,-85.5535 22.1317,-75.7718 19.2139,-85.9569 26.2023,-85.5535"/>
</g>
<!-- Node11 -->
<g id="node11" class="node"><title>Node11</title>
<polygon fill="white" stroke="#bfbfbf" points="79.5,-168.5 79.5,-187.5 158.5,-187.5 158.5,-168.5 79.5,-168.5"/>
<text text-anchor="middle" x="119" y="-175.5" font-family="Helvetica,sans-Serif" font-size="10.00">QMetaObject</text>
</g>
<!-- Node9&#45;&gt;Node11 -->
<g id="edge11" class="edge"><title>Node9&#45;&gt;Node11</title>
<path fill="none" stroke="midnightblue" d="M208.809,-224.324C191.649,-215.664 165.054,-202.242 145.253,-192.249"/>
<polygon fill="midnightblue" stroke="midnightblue" points="146.653,-189.035 136.149,-187.655 143.499,-195.285 146.653,-189.035"/>
</g>
<!-- Node12 -->
<g id="node12" class="node"><title>Node12</title>
<polygon fill="white" stroke="#bfbfbf" points="176.5,-168.5 176.5,-187.5 275.5,-187.5 275.5,-168.5 176.5,-168.5"/>
<text text-anchor="middle" x="226" y="-175.5" font-family="Helvetica,sans-Serif" font-size="10.00">QCoreApplication</text>
</g>
<!-- Node9&#45;&gt;Node12 -->
<g id="edge12" class="edge"><title>Node9&#45;&gt;Node12</title>
<path fill="none" stroke="midnightblue" d="M226,-224.083C226,-217.006 226,-206.861 226,-197.986"/>
<polygon fill="midnightblue" stroke="midnightblue" points="229.5,-197.751 226,-187.751 222.5,-197.751 229.5,-197.751"/>
</g>
<!-- Node13 -->
<g id="node13" class="node"><title>Node13</title>
<g id="a_node13"><a xlink:href="../../d4/d11/torchttphandler_8h.html" target="_top" xlink:title="torchttphandler.h">
<polygon fill="white" stroke="black" points="293.5,-168.5 293.5,-187.5 392.5,-187.5 392.5,-168.5 293.5,-168.5"/>
<text text-anchor="middle" x="343" y="-175.5" font-family="Helvetica,sans-Serif" font-size="10.00">torchttphandler.h</text>
</a>
</g>
</g>
<!-- Node9&#45;&gt;Node13 -->
<g id="edge13" class="edge"><title>Node9&#45;&gt;Node13</title>
<path fill="none" stroke="midnightblue" d="M244.539,-224.444C263.623,-215.636 293.575,-201.812 315.436,-191.722"/>
<polygon fill="midnightblue" stroke="midnightblue" points="316.935,-194.885 324.548,-187.516 314.001,-188.529 316.935,-194.885"/>
</g>
<!-- Node16 -->
<g id="node16" class="node"><title>Node16</title>
<g id="a_node16"><a xlink:href="../../df/dd7/torchttprequest_8h.html" target="_top" xlink:title="torchttprequest.h">
<polygon fill="white" stroke="black" points="123.5,-112.5 123.5,-131.5 224.5,-131.5 224.5,-112.5 123.5,-112.5"/>
<text text-anchor="middle" x="174" y="-119.5" font-family="Helvetica,sans-Serif" font-size="10.00">torchttprequest.h</text>
</a>
</g>
</g>
<!-- Node9&#45;&gt;Node16 -->
<g id="edge24" class="edge"><title>Node9&#45;&gt;Node16</title>
<path fill="none" stroke="midnightblue" d="M172.014,-224.477C132.044,-216.936 82.4552,-204.556 70,-188 50.9285,-162.649 89.2836,-144.79 124.681,-134.289"/>
<polygon fill="midnightblue" stroke="midnightblue" points="125.854,-137.595 134.536,-131.522 123.962,-130.855 125.854,-137.595"/>
</g>
<!-- Node14 -->
<g id="node14" class="node"><title>Node14</title>
<polygon fill="white" stroke="#bfbfbf" points="349.5,-56.5 349.5,-75.5 402.5,-75.5 402.5,-56.5 349.5,-56.5"/>
<text text-anchor="middle" x="376" y="-63.5" font-family="Helvetica,sans-Serif" font-size="10.00">QString</text>
</g>
<!-- Node13&#45;&gt;Node14 -->
<g id="edge14" class="edge"><title>Node13&#45;&gt;Node14</title>
<path fill="none" stroke="midnightblue" d="M345.728,-168.387C348.582,-159.339 353.172,-144.69 357,-132 361.722,-116.347 366.921,-98.5199 370.684,-85.4992"/>
<polygon fill="midnightblue" stroke="midnightblue" points="374.06,-86.4239 373.467,-75.8457 367.334,-84.4852 374.06,-86.4239"/>
</g>
<!-- Node15 -->
<g id="node15" class="node"><title>Node15</title>
<polygon fill="white" stroke="#bfbfbf" points="270,-112.5 270,-131.5 348,-131.5 348,-112.5 270,-112.5"/>
<text text-anchor="middle" x="309" y="-119.5" font-family="Helvetica,sans-Serif" font-size="10.00">QVariantMap</text>
</g>
<!-- Node13&#45;&gt;Node15 -->
<g id="edge15" class="edge"><title>Node13&#45;&gt;Node15</title>
<path fill="none" stroke="midnightblue" d="M337.386,-168.083C332.633,-160.534 325.682,-149.495 319.848,-140.23"/>
<polygon fill="midnightblue" stroke="midnightblue" points="322.8,-138.349 314.51,-131.751 316.876,-142.078 322.8,-138.349"/>
</g>
<!-- Node13&#45;&gt;Node16 -->
<g id="edge16" class="edge"><title>Node13&#45;&gt;Node16</title>
<path fill="none" stroke="midnightblue" d="M316.221,-168.444C287.667,-159.32 242.267,-144.813 210.463,-134.651"/>
<polygon fill="midnightblue" stroke="midnightblue" points="211.244,-131.226 200.653,-131.516 209.114,-137.894 211.244,-131.226"/>
</g>
<!-- Node16&#45;&gt;Node10 -->
<g id="edge17" class="edge"><title>Node16&#45;&gt;Node10</title>
<path fill="none" stroke="midnightblue" d="M149.915,-112.444C124.006,-103.239 82.6775,-88.5565 54.0398,-78.3826"/>
<polygon fill="midnightblue" stroke="midnightblue" points="55.0803,-75.038 44.4856,-74.9883 52.7369,-81.6341 55.0803,-75.038"/>
</g>
<!-- Node16&#45;&gt;Node14 -->
<g id="edge19" class="edge"><title>Node16&#45;&gt;Node14</title>
<path fill="none" stroke="midnightblue" d="M206.008,-112.444C242.363,-102.725 301.563,-86.8991 339.634,-76.7216"/>
<polygon fill="midnightblue" stroke="midnightblue" points="340.546,-80.1007 349.303,-74.1368 338.738,-73.3382 340.546,-80.1007"/>
</g>
<!-- Node17 -->
<g id="node17" class="node"><title>Node17</title>
<polygon fill="white" stroke="#bfbfbf" points="79.5,-56.5 79.5,-75.5 120.5,-75.5 120.5,-56.5 79.5,-56.5"/>
<text text-anchor="middle" x="100" y="-63.5" font-family="Helvetica,sans-Serif" font-size="10.00">QPair</text>
</g>
<!-- Node16&#45;&gt;Node17 -->
<g id="edge18" class="edge"><title>Node16&#45;&gt;Node17</title>
<path fill="none" stroke="midnightblue" d="M162.111,-112.324C150.85,-104.107 133.713,-91.6017 120.291,-81.8069"/>
<polygon fill="midnightblue" stroke="midnightblue" points="122.247,-78.9014 112.106,-75.8339 118.12,-84.5559 122.247,-78.9014"/>
</g>
<!-- Node18 -->
<g id="node18" class="node"><title>Node18</title>
<polygon fill="white" stroke="#bfbfbf" points="138.5,-56.5 138.5,-75.5 209.5,-75.5 209.5,-56.5 138.5,-56.5"/>
<text text-anchor="middle" x="174" y="-63.5" font-family="Helvetica,sans-Serif" font-size="10.00">QDateTime</text>
</g>
<!-- Node16&#45;&gt;Node18 -->
<g id="edge20" class="edge"><title>Node16&#45;&gt;Node18</title>
<path fill="none" stroke="midnightblue" d="M174,-112.083C174,-105.006 174,-94.8611 174,-85.9865"/>
<polygon fill="midnightblue" stroke="midnightblue" points="177.5,-85.751 174,-75.7511 170.5,-85.7511 177.5,-85.751"/>
</g>
<!-- Node19 -->
<g id="node19" class="node"><title>Node19</title>
<g id="a_node19"><a xlink:href="../../de/de6/torchttpreader_8h.html" target="_top" xlink:title="torchttpreader.h">
<polygon fill="white" stroke="black" points="227.5,-56.5 227.5,-75.5 322.5,-75.5 322.5,-56.5 227.5,-56.5"/>
<text text-anchor="middle" x="275" y="-63.5" font-family="Helvetica,sans-Serif" font-size="10.00">torchttpreader.h</text>
</a>
</g>
</g>
<!-- Node16&#45;&gt;Node19 -->
<g id="edge21" class="edge"><title>Node16&#45;&gt;Node19</title>
<path fill="none" stroke="midnightblue" d="M190.227,-112.324C206.351,-103.703 231.3,-90.3643 249.964,-80.3855"/>
<polygon fill="midnightblue" stroke="midnightblue" points="251.644,-83.456 258.813,-75.6545 248.344,-77.283 251.644,-83.456"/>
</g>
<!-- Node20 -->
<g id="node20" class="node"><title>Node20</title>
<polygon fill="white" stroke="#bfbfbf" points="194.5,-0.5 194.5,-19.5 265.5,-19.5 265.5,-0.5 194.5,-0.5"/>
<text text-anchor="middle" x="230" y="-7.5" font-family="Helvetica,sans-Serif" font-size="10.00">QByteArray</text>
</g>
<!-- Node19&#45;&gt;Node20 -->
<g id="edge22" class="edge"><title>Node19&#45;&gt;Node20</title>
<path fill="none" stroke="midnightblue" d="M267.569,-56.083C261.147,-48.3768 251.694,-37.0333 243.878,-27.6531"/>
<polygon fill="midnightblue" stroke="midnightblue" points="246.383,-25.1927 237.293,-19.7511 241.006,-29.674 246.383,-25.1927"/>
</g>
<!-- Node21 -->
<g id="node21" class="node"><title>Node21</title>
<polygon fill="white" stroke="#bfbfbf" points="284,-0.5 284,-19.5 356,-19.5 356,-0.5 284,-0.5"/>
<text text-anchor="middle" x="320" y="-7.5" font-family="Helvetica,sans-Serif" font-size="10.00">QTcpSocket</text>
</g>
<!-- Node19&#45;&gt;Node21 -->
<g id="edge23" class="edge"><title>Node19&#45;&gt;Node21</title>
<path fill="none" stroke="midnightblue" d="M282.431,-56.083C288.853,-48.3768 298.306,-37.0333 306.122,-27.6531"/>
<polygon fill="midnightblue" stroke="midnightblue" points="308.994,-29.674 312.707,-19.7511 303.617,-25.1927 308.994,-29.674"/>
</g>
<!-- Node22&#45;&gt;Node7 -->
<g id="edge27" class="edge"><title>Node22&#45;&gt;Node7</title>
<path fill="none" stroke="midnightblue" d="M601.823,-224.402C591.209,-211.782 570.576,-187.617 552,-168 542.59,-158.063 531.653,-147.332 522.804,-138.842"/>
<polygon fill="midnightblue" stroke="midnightblue" points="525.025,-136.124 515.37,-131.763 520.198,-141.193 525.025,-136.124"/>
</g>
<!-- Node22&#45;&gt;Node8 -->
<g id="edge29" class="edge"><title>Node22&#45;&gt;Node8</title>
<path fill="none" stroke="midnightblue" d="M593.897,-224.324C579.097,-215.822 556.306,-202.729 539.018,-192.797"/>
<polygon fill="midnightblue" stroke="midnightblue" points="540.48,-189.601 530.065,-187.655 536.993,-195.671 540.48,-189.601"/>
</g>
<!-- Node22&#45;&gt;Node14 -->
<g id="edge28" class="edge"><title>Node22&#45;&gt;Node14</title>
<path fill="none" stroke="midnightblue" d="M606.809,-224.418C600.67,-202.169 581.132,-142.257 542,-112 504.268,-82.8255 448.995,-72.5388 412.761,-68.9278"/>
<polygon fill="midnightblue" stroke="midnightblue" points="412.889,-65.4257 402.622,-68.0418 412.279,-72.3991 412.889,-65.4257"/>
</g>
<!-- Node23 -->
<g id="node23" class="node"><title>Node23</title>
<polygon fill="white" stroke="#bfbfbf" points="745.5,-112.5 745.5,-131.5 794.5,-131.5 794.5,-112.5 745.5,-112.5"/>
<text text-anchor="middle" x="770" y="-119.5" font-family="Helvetica,sans-Serif" font-size="10.00">QHash</text>
</g>
<!-- Node22&#45;&gt;Node23 -->
<g id="edge26" class="edge"><title>Node22&#45;&gt;Node23</title>
<path fill="none" stroke="midnightblue" d="M646.521,-231.741C680.029,-228.538 728.016,-218.468 756,-188 767.337,-175.657 770.318,-156.407 770.774,-142.055"/>
<polygon fill="midnightblue" stroke="midnightblue" points="774.273,-141.798 770.71,-131.821 767.273,-141.842 774.273,-141.798"/>
</g>
<!-- Node24 -->
<g id="node24" class="node"><title>Node24</title>
<g id="a_node24"><a xlink:href="../../d8/dfe/torcreferencecounted_8h.html" target="_top" xlink:title="torcreferencecounted.h">
<polygon fill="white" stroke="black" points="803.5,-168.5 803.5,-187.5 932.5,-187.5 932.5,-168.5 803.5,-168.5"/>
<text text-anchor="middle" x="868" y="-175.5" font-family="Helvetica,sans-Serif" font-size="10.00">torcreferencecounted.h</text>
</a>
</g>
</g>
<!-- Node22&#45;&gt;Node24 -->
<g id="edge30" class="edge"><title>Node22&#45;&gt;Node24</title>
<path fill="none" stroke="midnightblue" d="M646.661,-225.148C691.55,-215.789 766.773,-200.105 816.887,-189.657"/>
<polygon fill="midnightblue" stroke="midnightblue" points="817.794,-193.043 826.869,-187.576 816.365,-186.19 817.794,-193.043"/>
</g>
<!-- Node26 -->
<g id="node26" class="node"><title>Node26</title>
<g id="a_node26"><a xlink:href="../../d2/d5b/torcdevicehandler_8h.html" target="_top" xlink:title="torcdevicehandler.h">
<polygon fill="white" stroke="black" points="637,-168.5 637,-187.5 747,-187.5 747,-168.5 637,-168.5"/>
<text text-anchor="middle" x="692" y="-175.5" font-family="Helvetica,sans-Serif" font-size="10.00">torcdevicehandler.h</text>
</a>
</g>
</g>
<!-- Node22&#45;&gt;Node26 -->
<g id="edge32" class="edge"><title>Node22&#45;&gt;Node26</title>
<path fill="none" stroke="midnightblue" d="M622.335,-224.324C635.162,-215.979 654.785,-203.212 669.94,-193.352"/>
<polygon fill="midnightblue" stroke="midnightblue" points="672.224,-196.042 678.698,-187.655 668.407,-190.174 672.224,-196.042"/>
</g>
<!-- Node25 -->
<g id="node25" class="node"><title>Node25</title>
<polygon fill="white" stroke="#bfbfbf" points="833,-112.5 833,-131.5 903,-131.5 903,-112.5 833,-112.5"/>
<text text-anchor="middle" x="868" y="-119.5" font-family="Helvetica,sans-Serif" font-size="10.00">QAtomicInt</text>
</g>
<!-- Node24&#45;&gt;Node25 -->
<g id="edge31" class="edge"><title>Node24&#45;&gt;Node25</title>
<path fill="none" stroke="midnightblue" d="M868,-168.083C868,-161.006 868,-150.861 868,-141.986"/>
<polygon fill="midnightblue" stroke="midnightblue" points="871.5,-141.751 868,-131.751 864.5,-141.751 871.5,-141.751"/>
</g>
<!-- Node26&#45;&gt;Node7 -->
<g id="edge34" class="edge"><title>Node26&#45;&gt;Node7</title>
<path fill="none" stroke="midnightblue" d="M662.528,-168.444C629.99,-158.997 577.578,-143.781 542.476,-133.59"/>
<polygon fill="midnightblue" stroke="midnightblue" points="543.202,-130.156 532.622,-130.729 541.25,-136.878 543.202,-130.156"/>
</g>
<!-- Node26&#45;&gt;Node23 -->
<g id="edge33" class="edge"><title>Node26&#45;&gt;Node23</title>
<path fill="none" stroke="midnightblue" d="M704.532,-168.324C716.586,-159.979 735.027,-147.212 749.269,-137.352"/>
<polygon fill="midnightblue" stroke="midnightblue" points="751.269,-140.224 757.499,-131.655 747.285,-134.469 751.269,-140.224"/>
</g>
<!-- Node27 -->
<g id="node27" class="node"><title>Node27</title>
<polygon fill="white" stroke="#bfbfbf" points="663,-112.5 663,-131.5 721,-131.5 721,-112.5 663,-112.5"/>
<text text-anchor="middle" x="692" y="-119.5" font-family="Helvetica,sans-Serif" font-size="10.00">QVariant</text>
</g>
<!-- Node26&#45;&gt;Node27 -->
<g id="edge35" class="edge"><title>Node26&#45;&gt;Node27</title>
<path fill="none" stroke="midnightblue" d="M692,-168.083C692,-161.006 692,-150.861 692,-141.986"/>
<polygon fill="midnightblue" stroke="midnightblue" points="695.5,-141.751 692,-131.751 688.5,-141.751 695.5,-141.751"/>
</g>
</g>
</svg>
        <g id="navigator" transform="translate(0 0)" fill="#404254">
                <rect fill="#f2f5e9" fill-opacity="0.5" stroke="#606060" stroke-width=".5" x="0" y="0" width="60" height="60"/>
                <use id="zoomplus" xlink:href="#zoomPlus" x="17" y="9" onmousedown="handleZoom(evt,'in')"/>
                <use id="zoomminus" xlink:href="#zoomMin" x="42" y="9" onmousedown="handleZoom(evt,'out')"/>
                <use id="reset" xlink:href="#resetDef" x="30" y="36" onmousedown="handleReset()"/>
                <g id="arrowUp" xlink:href="#dirArrow" transform="translate(30 24)" onmousedown="handlePan(0,-1)">
                  <use xlink:href="#rim" fill="#404040">
                        <set attributeName="fill" to="#808080" begin="arrowUp.mouseover" end="arrowUp.mouseout"/>
                  </use>
                  <path fill="none" stroke="white" stroke-width="1.5" d="M0,-3.0v7 M-2.5,-0.5L0,-3.0L2.5,-0.5"/>
                </g>
                <g id="arrowRight" xlink:href="#dirArrow" transform="rotate(90) translate(36 -43)" onmousedown="handlePan(1,0)">
                  <use xlink:href="#rim" fill="#404040">
                        <set attributeName="fill" to="#808080" begin="arrowRight.mouseover" end="arrowRight.mouseout"/>
                  </use>
                  <path fill="none" stroke="white" stroke-width="1.5" d="M0,-3.0v7 M-2.5,-0.5L0,-3.0L2.5,-0.5"/>
                </g>
                <g id="arrowDown" xlink:href="#dirArrow" transform="rotate(180) translate(-30 -48)" onmousedown="handlePan(0,1)">
                  <use xlink:href="#rim" fill="#404040">
                        <set attributeName="fill" to="#808080" begin="arrowDown.mouseover" end="arrowDown.mouseout"/>
                  </use>
                  <path fill="none" stroke="white" stroke-width="1.5" d="M0,-3.0v7 M-2.5,-0.5L0,-3.0L2.5,-0.5"/>
                </g>
                <g id="arrowLeft" xlink:href="#dirArrow" transform="rotate(270) translate(-36 17)" onmousedown="handlePan(-1,0)">
                  <use xlink:href="#rim" fill="#404040">
                        <set attributeName="fill" to="#808080" begin="arrowLeft.mouseover" end="arrowLeft.mouseout"/>
                  </use>
                  <path fill="none" stroke="white" stroke-width="1.5" d="M0,-3.0v7 M-2.5,-0.5L0,-3.0L2.5,-0.5"/>
                </g>
        </g>
        <svg viewBox="0 0 15 15" width="100%" height="30px" preserveAspectRatio="xMaxYMin meet">
         <g id="arrow_out" transform="scale(0.3 0.3)">
          <a xlink:href="torcpiswitchinput_8h__incl_org.svg" target="_base">
           <rect id="button" ry="5" rx="5" y="6" x="6" height="38" width="38"
                fill="#f2f5e9" fill-opacity="0.5" stroke="#606060" stroke-width="1.0"/>
           <path id="arrow"
             d="M 11.500037,31.436501 C 11.940474,20.09759 22.043105,11.32322 32.158766,21.979434 L 37.068811,17.246167 C 37.068811,17.246167 37.088388,32 37.088388,32 L 22.160133,31.978069 C 22.160133,31.978069 26.997745,27.140456 26.997745,27.140456 C 18.528582,18.264221 13.291696,25.230495 11.500037,31.436501 z"
             style="fill:#404040;"/>
          </a>
         </g>
        </svg>
</svg>
