<?xml version="1.0" encoding="UTF-8" standalone="no"?>
<!DOCTYPE svg PUBLIC "-//W3C//DTD SVG 1.1//EN"
 "http://www.w3.org/Graphics/SVG/1.1/DTD/svg11.dtd">
<!-- Generated by graphviz version 2.38.0 (20140413.2041)
 -->
<!-- Title: torchttpservicetest.h Pages: 1 -->
<!--zoomable 308 -->
<svg id="main" version="1.1" xmlns="http://www.w3.org/2000/svg" xmlns:xlink="http://www.w3.org/1999/xlink" xml:space="preserve" onload="init(evt)">
<style type="text/css"><![CDATA[
.edge:hover path { stroke: red; }
.edge:hover polygon { stroke: red; fill: red; }
]]></style>
<script type="text/javascript"><![CDATA[
var edges = document.getElementsByTagName('g');
if (edges && edges.length) {
  for (var i=0;i<edges.length;i++) {
    if (edges[i].id.substr(0,4)=='edge') {
      edges[i].setAttribute('class','edge');
    }
  }
}
]]></script>
        <defs>
                <circle id="rim" cx="0" cy="0" r="7"/>
                <circle id="rim2" cx="0" cy="0" r="3.5"/>
                <g id="zoomPlus">
                        <use xlink:href="#rim" fill="#404040">
                                <set attributeName="fill" to="#808080" begin="zoomplus.mouseover" end="zoomplus.mouseout"/>
                        </use>
                        <path d="M-4,0h8M0,-4v8" fill="none" stroke="white" stroke-width="1.5" pointer-events="none"/>
                </g>
                <g id="zoomMin">
                        <use xlink:href="#rim" fill="#404040">
                                <set attributeName="fill" to="#808080" begin="zoomminus.mouseover" end="zoomminus.mouseout"/>
                        </use>
                        <path d="M-4,0h8" fill="none" stroke="white" stroke-width="1.5" pointer-events="none"/>
                </g>
                <g id="dirArrow">
                        <path fill="none" stroke="white" stroke-width="1.5" d="M0,-3.0v7 M-2.5,-0.5L0,-3.0L2.5,-0.5"/>
                </g>
               <g id="resetDef">
                       <use xlink:href="#rim2" fill="#404040">
                               <set attributeName="fill" to="#808080" begin="reset.mouseover" end="reset.mouseout"/>
                       </use>
               </g>
        </defs>

<script type="text/javascript">
var viewWidth = 817;
var viewHeight = 308;
var sectionId = 'dynsection-0';
</script>
<script xlink:href="../../svgpan.js"/>
<svg id="graph" class="graph">
<g id="viewport">
<title>torchttpservicetest.h</title>
<polygon fill="white" stroke="none" points="-4,4 -4,-304 813,-304 813,4 -4,4"/>
<!-- Node1 -->
<g id="node1" class="node"><title>Node1</title>
<polygon fill="#bfbfbf" stroke="black" points="273.5,-280.5 273.5,-299.5 389.5,-299.5 389.5,-280.5 273.5,-280.5"/>
<text text-anchor="middle" x="331.5" y="-287.5" font-family="Helvetica,sans-Serif" font-size="10.00">torchttpservicetest.h</text>
</g>
<!-- Node2 -->
<g id="node2" class="node"><title>Node2</title>
<polygon fill="white" stroke="#bfbfbf" points="0,-224.5 0,-243.5 55,-243.5 55,-224.5 0,-224.5"/>
<text text-anchor="middle" x="27.5" y="-231.5" font-family="Helvetica,sans-Serif" font-size="10.00">QObject</text>
</g>
<!-- Node1&#45;&gt;Node2 -->
<g id="edge1" class="edge"><title>Node1&#45;&gt;Node2</title>
<path fill="none" stroke="midnightblue" d="M277.943,-280.461C224.908,-271.85 141.44,-257.88 69.5,-244 68.0356,-243.717 66.5436,-243.424 65.0374,-243.123"/>
<polygon fill="midnightblue" stroke="midnightblue" points="65.5293,-239.651 55.0296,-241.068 64.1209,-246.508 65.5293,-239.651"/>
</g>
<!-- Node3 -->
<g id="node3" class="node"><title>Node3</title>
<polygon fill="white" stroke="#bfbfbf" points="19,-56.5 19,-75.5 90,-75.5 90,-56.5 19,-56.5"/>
<text text-anchor="middle" x="54.5" y="-63.5" font-family="Helvetica,sans-Serif" font-size="10.00">QDateTime</text>
</g>
<!-- Node1&#45;&gt;Node3 -->
<g id="edge2" class="edge"><title>Node1&#45;&gt;Node3</title>
<path fill="none" stroke="midnightblue" d="M310.17,-280.497C274.334,-265.523 200.926,-231.838 149.5,-188 112.895,-156.797 80.7774,-109.613 64.949,-84.3755"/>
<polygon fill="midnightblue" stroke="midnightblue" points="67.7553,-82.2574 59.5343,-75.5741 61.7931,-85.9254 67.7553,-82.2574"/>
</g>
<!-- Node4 -->
<g id="node4" class="node"><title>Node4</title>
<polygon fill="white" stroke="#bfbfbf" points="740,-224.5 740,-243.5 809,-243.5 809,-224.5 740,-224.5"/>
<text text-anchor="middle" x="774.5" y="-231.5" font-family="Helvetica,sans-Serif" font-size="10.00">QStringList</text>
</g>
<!-- Node1&#45;&gt;Node4 -->
<g id="edge3" class="edge"><title>Node1&#45;&gt;Node4</title>
<path fill="none" stroke="midnightblue" d="M389.741,-283.597C466.772,-276.165 606.669,-261.678 725.5,-244 726.799,-243.807 728.117,-243.605 729.446,-243.396"/>
<polygon fill="midnightblue" stroke="midnightblue" points="730.459,-246.775 739.75,-241.684 729.312,-239.87 730.459,-246.775"/>
</g>
<!-- Node5 -->
<g id="node5" class="node"><title>Node5</title>
<polygon fill="white" stroke="#bfbfbf" points="514.5,-112.5 514.5,-131.5 592.5,-131.5 592.5,-112.5 514.5,-112.5"/>
<text text-anchor="middle" x="553.5" y="-119.5" font-family="Helvetica,sans-Serif" font-size="10.00">QVariantMap</text>
</g>
<!-- Node1&#45;&gt;Node5 -->
<g id="edge4" class="edge"><title>Node1&#45;&gt;Node5</title>
<path fill="none" stroke="midnightblue" d="M389.508,-281.291C481.926,-267.687 655.92,-236.219 692.5,-188 719.237,-152.756 652.8,-135.885 602.816,-128.381"/>
<polygon fill="midnightblue" stroke="midnightblue" points="603.147,-124.893 592.756,-126.96 602.168,-131.824 603.147,-124.893"/>
</g>
<!-- Node6 -->
<g id="node6" class="node"><title>Node6</title>
<g id="a_node6"><a xlink:href="../../d3/dee/torchttpservice_8h.html" target="_top" xlink:title="torchttpservice.h">
<polygon fill="white" stroke="black" points="282.5,-224.5 282.5,-243.5 380.5,-243.5 380.5,-224.5 282.5,-224.5"/>
<text text-anchor="middle" x="331.5" y="-231.5" font-family="Helvetica,sans-Serif" font-size="10.00">torchttpservice.h</text>
</a>
</g>
</g>
<!-- Node1&#45;&gt;Node6 -->
<g id="edge5" class="edge"><title>Node1&#45;&gt;Node6</title>
<path fill="none" stroke="midnightblue" d="M331.5,-280.083C331.5,-273.006 331.5,-262.861 331.5,-253.986"/>
<polygon fill="midnightblue" stroke="midnightblue" points="335,-253.751 331.5,-243.751 328,-253.751 335,-253.751"/>
</g>
<!-- Node7 -->
<g id="node7" class="node"><title>Node7</title>
<polygon fill="white" stroke="#bfbfbf" points="108.5,-56.5 108.5,-75.5 152.5,-75.5 152.5,-56.5 108.5,-56.5"/>
<text text-anchor="middle" x="130.5" y="-63.5" font-family="Helvetica,sans-Serif" font-size="10.00">QMap</text>
</g>
<!-- Node6&#45;&gt;Node7 -->
<g id="edge6" class="edge"><title>Node6&#45;&gt;Node7</title>
<path fill="none" stroke="midnightblue" d="M282.183,-229.361C247.703,-224.57 202.315,-213.506 170.5,-188 139.384,-163.055 132.255,-113.251 130.761,-85.9609"/>
<polygon fill="midnightblue" stroke="midnightblue" points="134.253,-85.6559 130.412,-75.7818 127.257,-85.8959 134.253,-85.6559"/>
</g>
<!-- Node8 -->
<g id="node8" class="node"><title>Node8</title>
<polygon fill="white" stroke="#bfbfbf" points="305,-168.5 305,-187.5 358,-187.5 358,-168.5 305,-168.5"/>
<text text-anchor="middle" x="331.5" y="-175.5" font-family="Helvetica,sans-Serif" font-size="10.00">QMutex</text>
</g>
<!-- Node6&#45;&gt;Node8 -->
<g id="edge7" class="edge"><title>Node6&#45;&gt;Node8</title>
<path fill="none" stroke="midnightblue" d="M331.5,-224.083C331.5,-217.006 331.5,-206.861 331.5,-197.986"/>
<polygon fill="midnightblue" stroke="midnightblue" points="335,-197.751 331.5,-187.751 328,-197.751 335,-197.751"/>
</g>
<!-- Node9 -->
<g id="node9" class="node"><title>Node9</title>
<polygon fill="white" stroke="#bfbfbf" points="376.5,-168.5 376.5,-187.5 468.5,-187.5 468.5,-168.5 376.5,-168.5"/>
<text text-anchor="middle" x="422.5" y="-175.5" font-family="Helvetica,sans-Serif" font-size="10.00">QReadWriteLock</text>
</g>
<!-- Node6&#45;&gt;Node9 -->
<g id="edge8" class="edge"><title>Node6&#45;&gt;Node9</title>
<path fill="none" stroke="midnightblue" d="M346.121,-224.324C360.449,-215.822 382.513,-202.729 399.249,-192.797"/>
<polygon fill="midnightblue" stroke="midnightblue" points="401.102,-195.768 407.916,-187.655 397.53,-189.748 401.102,-195.768"/>
</g>
<!-- Node10 -->
<g id="node10" class="node"><title>Node10</title>
<polygon fill="white" stroke="#bfbfbf" points="487,-168.5 487,-187.5 566,-187.5 566,-168.5 487,-168.5"/>
<text text-anchor="middle" x="526.5" y="-175.5" font-family="Helvetica,sans-Serif" font-size="10.00">QMetaObject</text>
</g>
<!-- Node6&#45;&gt;Node10 -->
<g id="edge9" class="edge"><title>Node6&#45;&gt;Node10</title>
<path fill="none" stroke="midnightblue" d="M362.398,-224.444C395.774,-215.201 449.094,-200.436 485.849,-190.257"/>
<polygon fill="midnightblue" stroke="midnightblue" points="487.043,-193.558 495.746,-187.516 485.175,-186.812 487.043,-193.558"/>
</g>
<!-- Node11 -->
<g id="node11" class="node"><title>Node11</title>
<polygon fill="white" stroke="#bfbfbf" points="584,-168.5 584,-187.5 683,-187.5 683,-168.5 584,-168.5"/>
<text text-anchor="middle" x="633.5" y="-175.5" font-family="Helvetica,sans-Serif" font-size="10.00">QCoreApplication</text>
</g>
<!-- Node6&#45;&gt;Node11 -->
<g id="edge10" class="edge"><title>Node6&#45;&gt;Node11</title>
<path fill="none" stroke="midnightblue" d="M379.353,-224.444C432.699,-214.905 518.945,-199.483 575.936,-189.293"/>
<polygon fill="midnightblue" stroke="midnightblue" points="576.643,-192.722 585.871,-187.516 575.411,-185.831 576.643,-192.722"/>
</g>
<!-- Node12 -->
<g id="node12" class="node"><title>Node12</title>
<g id="a_node12"><a xlink:href="../../d4/d11/torchttphandler_8h.html" target="_top" xlink:title="torchttphandler.h">
<polygon fill="white" stroke="black" points="188,-168.5 188,-187.5 287,-187.5 287,-168.5 188,-168.5"/>
<text text-anchor="middle" x="237.5" y="-175.5" font-family="Helvetica,sans-Serif" font-size="10.00">torchttphandler.h</text>
</a>
</g>
</g>
<!-- Node6&#45;&gt;Node12 -->
<g id="edge11" class="edge"><title>Node6&#45;&gt;Node12</title>
<path fill="none" stroke="midnightblue" d="M316.397,-224.324C301.597,-215.822 278.806,-202.729 261.518,-192.797"/>
<polygon fill="midnightblue" stroke="midnightblue" points="262.98,-189.601 252.565,-187.655 259.493,-195.671 262.98,-189.601"/>
</g>
<!-- Node14 -->
<g id="node14" class="node"><title>Node14</title>
<g id="a_node14"><a xlink:href="../../df/dd7/torchttprequest_8h.html" target="_top" xlink:title="torchttprequest.h">
<polygon fill="white" stroke="black" points="150,-112.5 150,-131.5 251,-131.5 251,-112.5 150,-112.5"/>
<text text-anchor="middle" x="200.5" y="-119.5" font-family="Helvetica,sans-Serif" font-size="10.00">torchttprequest.h</text>
</a>
</g>
</g>
<!-- Node6&#45;&gt;Node14 -->
<g id="edge22" class="edge"><title>Node6&#45;&gt;Node14</title>
<path fill="none" stroke="midnightblue" d="M282.112,-225.021C242.342,-217.47 191.065,-204.793 178.5,-188 167.844,-173.759 177.1,-154.021 186.666,-140.041"/>
<polygon fill="midnightblue" stroke="midnightblue" points="189.634,-141.915 192.792,-131.802 184.017,-137.739 189.634,-141.915"/>
</g>
<!-- Node12&#45;&gt;Node5 -->
<g id="edge13" class="edge"><title>Node12&#45;&gt;Node5</title>
<path fill="none" stroke="midnightblue" d="M287.223,-168.503C346.414,-158.388 444.669,-141.598 503.834,-131.487"/>
<polygon fill="midnightblue" stroke="midnightblue" points="504.784,-134.876 514.052,-129.741 503.605,-127.976 504.784,-134.876"/>
</g>
<!-- Node13 -->
<g id="node13" class="node"><title>Node13</title>
<polygon fill="white" stroke="#bfbfbf" points="343,-56.5 343,-75.5 396,-75.5 396,-56.5 343,-56.5"/>
<text text-anchor="middle" x="369.5" y="-63.5" font-family="Helvetica,sans-Serif" font-size="10.00">QString</text>
</g>
<!-- Node12&#45;&gt;Node13 -->
<g id="edge12" class="edge"><title>Node12&#45;&gt;Node13</title>
<path fill="none" stroke="midnightblue" d="M247.858,-168.368C270.22,-149.733 323.261,-105.532 351.339,-82.1338"/>
<polygon fill="midnightblue" stroke="midnightblue" points="353.749,-84.6821 359.19,-75.5914 349.267,-79.3045 353.749,-84.6821"/>
</g>
<!-- Node12&#45;&gt;Node14 -->
<g id="edge14" class="edge"><title>Node12&#45;&gt;Node14</title>
<path fill="none" stroke="midnightblue" d="M231.39,-168.083C226.218,-160.534 218.654,-149.495 212.306,-140.23"/>
<polygon fill="midnightblue" stroke="midnightblue" points="215.036,-138.022 206.496,-131.751 209.261,-141.979 215.036,-138.022"/>
</g>
<!-- Node14&#45;&gt;Node3 -->
<g id="edge18" class="edge"><title>Node14&#45;&gt;Node3</title>
<path fill="none" stroke="midnightblue" d="M177.366,-112.444C153.018,-103.438 114.493,-89.1891 87.077,-79.049"/>
<polygon fill="midnightblue" stroke="midnightblue" points="88.1191,-75.7028 77.5259,-75.5164 85.6908,-82.2681 88.1191,-75.7028"/>
</g>
<!-- Node14&#45;&gt;Node7 -->
<g id="edge15" class="edge"><title>Node14&#45;&gt;Node7</title>
<path fill="none" stroke="midnightblue" d="M189.253,-112.324C178.703,-104.185 162.699,-91.8395 150.058,-82.0874"/>
<polygon fill="midnightblue" stroke="midnightblue" points="152.007,-79.1707 141.951,-75.8339 147.731,-84.7132 152.007,-79.1707"/>
</g>
<!-- Node14&#45;&gt;Node13 -->
<g id="edge17" class="edge"><title>Node14&#45;&gt;Node13</title>
<path fill="none" stroke="midnightblue" d="M227.279,-112.444C255.833,-103.32 301.233,-88.8133 333.037,-78.6509"/>
<polygon fill="midnightblue" stroke="midnightblue" points="334.386,-81.8941 342.847,-75.5164 332.256,-75.2262 334.386,-81.8941"/>
</g>
<!-- Node15 -->
<g id="node15" class="node"><title>Node15</title>
<polygon fill="white" stroke="#bfbfbf" points="171,-56.5 171,-75.5 212,-75.5 212,-56.5 171,-56.5"/>
<text text-anchor="middle" x="191.5" y="-63.5" font-family="Helvetica,sans-Serif" font-size="10.00">QPair</text>
</g>
<!-- Node14&#45;&gt;Node15 -->
<g id="edge16" class="edge"><title>Node14&#45;&gt;Node15</title>
<path fill="none" stroke="midnightblue" d="M199.014,-112.083C197.821,-104.927 196.106,-94.6353 194.615,-85.6911"/>
<polygon fill="midnightblue" stroke="midnightblue" points="198.055,-85.0396 192.959,-75.7511 191.15,-86.1904 198.055,-85.0396"/>
</g>
<!-- Node16 -->
<g id="node16" class="node"><title>Node16</title>
<g id="a_node16"><a xlink:href="../../de/de6/torchttpreader_8h.html" target="_top" xlink:title="torchttpreader.h">
<polygon fill="white" stroke="black" points="230,-56.5 230,-75.5 325,-75.5 325,-56.5 230,-56.5"/>
<text text-anchor="middle" x="277.5" y="-63.5" font-family="Helvetica,sans-Serif" font-size="10.00">torchttpreader.h</text>
</a>
</g>
</g>
<!-- Node14&#45;&gt;Node16 -->
<g id="edge19" class="edge"><title>Node14&#45;&gt;Node16</title>
<path fill="none" stroke="midnightblue" d="M212.871,-112.324C224.658,-104.058 242.632,-91.4527 256.636,-81.6322"/>
<polygon fill="midnightblue" stroke="midnightblue" points="258.982,-84.2619 265.159,-75.6545 254.962,-78.5307 258.982,-84.2619"/>
</g>
<!-- Node17 -->
<g id="node17" class="node"><title>Node17</title>
<polygon fill="white" stroke="#bfbfbf" points="197,-0.5 197,-19.5 268,-19.5 268,-0.5 197,-0.5"/>
<text text-anchor="middle" x="232.5" y="-7.5" font-family="Helvetica,sans-Serif" font-size="10.00">QByteArray</text>
</g>
<!-- Node16&#45;&gt;Node17 -->
<g id="edge20" class="edge"><title>Node16&#45;&gt;Node17</title>
<path fill="none" stroke="midnightblue" d="M270.069,-56.083C263.647,-48.3768 254.194,-37.0333 246.378,-27.6531"/>
<polygon fill="midnightblue" stroke="midnightblue" points="248.883,-25.1927 239.793,-19.7511 243.506,-29.674 248.883,-25.1927"/>
</g>
<!-- Node18 -->
<g id="node18" class="node"><title>Node18</title>
<polygon fill="white" stroke="#bfbfbf" points="286.5,-0.5 286.5,-19.5 358.5,-19.5 358.5,-0.5 286.5,-0.5"/>
<text text-anchor="middle" x="322.5" y="-7.5" font-family="Helvetica,sans-Serif" font-size="10.00">QTcpSocket</text>
</g>
<!-- Node16&#45;&gt;Node18 -->
<g id="edge21" class="edge"><title>Node16&#45;&gt;Node18</title>
<path fill="none" stroke="midnightblue" d="M284.931,-56.083C291.353,-48.3768 300.806,-37.0333 308.622,-27.6531"/>
<polygon fill="midnightblue" stroke="midnightblue" points="311.494,-29.674 315.207,-19.7511 306.117,-25.1927 311.494,-29.674"/>
</g>
</g>
</svg>
        <g id="navigator" transform="translate(0 0)" fill="#404254">
                <rect fill="#f2f5e9" fill-opacity="0.5" stroke="#606060" stroke-width=".5" x="0" y="0" width="60" height="60"/>
                <use id="zoomplus" xlink:href="#zoomPlus" x="17" y="9" onmousedown="handleZoom(evt,'in')"/>
                <use id="zoomminus" xlink:href="#zoomMin" x="42" y="9" onmousedown="handleZoom(evt,'out')"/>
                <use id="reset" xlink:href="#resetDef" x="30" y="36" onmousedown="handleReset()"/>
                <g id="arrowUp" xlink:href="#dirArrow" transform="translate(30 24)" onmousedown="handlePan(0,-1)">
                  <use xlink:href="#rim" fill="#404040">
                        <set attributeName="fill" to="#808080" begin="arrowUp.mouseover" end="arrowUp.mouseout"/>
                  </use>
                  <path fill="none" stroke="white" stroke-width="1.5" d="M0,-3.0v7 M-2.5,-0.5L0,-3.0L2.5,-0.5"/>
                </g>
                <g id="arrowRight" xlink:href="#dirArrow" transform="rotate(90) translate(36 -43)" onmousedown="handlePan(1,0)">
                  <use xlink:href="#rim" fill="#404040">
                        <set attributeName="fill" to="#808080" begin="arrowRight.mouseover" end="arrowRight.mouseout"/>
                  </use>
                  <path fill="none" stroke="white" stroke-width="1.5" d="M0,-3.0v7 M-2.5,-0.5L0,-3.0L2.5,-0.5"/>
                </g>
                <g id="arrowDown" xlink:href="#dirArrow" transform="rotate(180) translate(-30 -48)" onmousedown="handlePan(0,1)">
                  <use xlink:href="#rim" fill="#404040">
                        <set attributeName="fill" to="#808080" begin="arrowDown.mouseover" end="arrowDown.mouseout"/>
                  </use>
                  <path fill="none" stroke="white" stroke-width="1.5" d="M0,-3.0v7 M-2.5,-0.5L0,-3.0L2.5,-0.5"/>
                </g>
                <g id="arrowLeft" xlink:href="#dirArrow" transform="rotate(270) translate(-36 17)" onmousedown="handlePan(-1,0)">
                  <use xlink:href="#rim" fill="#404040">
                        <set attributeName="fill" to="#808080" begin="arrowLeft.mouseover" end="arrowLeft.mouseout"/>
                  </use>
                  <path fill="none" stroke="white" stroke-width="1.5" d="M0,-3.0v7 M-2.5,-0.5L0,-3.0L2.5,-0.5"/>
                </g>
        </g>
        <svg viewBox="0 0 15 15" width="100%" height="30px" preserveAspectRatio="xMaxYMin meet">
         <g id="arrow_out" transform="scale(0.3 0.3)">
          <a xlink:href="torchttpservicetest_8h__incl_org.svg" target="_base">
           <rect id="button" ry="5" rx="5" y="6" x="6" height="38" width="38"
                fill="#f2f5e9" fill-opacity="0.5" stroke="#606060" stroke-width="1.0"/>
           <path id="arrow"
             d="M 11.500037,31.436501 C 11.940474,20.09759 22.043105,11.32322 32.158766,21.979434 L 37.068811,17.246167 C 37.068811,17.246167 37.088388,32 37.088388,32 L 22.160133,31.978069 C 22.160133,31.978069 26.997745,27.140456 26.997745,27.140456 C 18.528582,18.264221 13.291696,25.230495 11.500037,31.436501 z"
             style="fill:#404040;"/>
          </a>
         </g>
        </svg>
</svg>
