<?xml version="1.0" encoding="UTF-8" standalone="no"?>
<!DOCTYPE svg PUBLIC "-//W3C//DTD SVG 1.1//EN"
 "http://www.w3.org/Graphics/SVG/1.1/DTD/svg11.dtd">
<!-- Generated by graphviz version 2.38.0 (20140413.2041)
 -->
<!-- Title: torcnetworkswitchoutput.h Pages: 1 -->
<svg width="415pt" height="140pt"
 viewBox="0.00 0.00 415.00 140.00" xmlns="http://www.w3.org/2000/svg" xmlns:xlink="http://www.w3.org/1999/xlink">
<g id="graph0" class="graph" transform="scale(1 1) rotate(0) translate(4 136)">
<title>torcnetworkswitchoutput.h</title>
<polygon fill="white" stroke="none" points="-4,4 -4,-136 411,-136 411,4 -4,4"/>
<!-- Node1 -->
<g id="node1" class="node"><title>Node1</title>
<polygon fill="#bfbfbf" stroke="black" points="90.5,-112.5 90.5,-131.5 233.5,-131.5 233.5,-112.5 90.5,-112.5"/>
<text text-anchor="middle" x="162" y="-119.5" font-family="Helvetica,sans-Serif" font-size="10.00">torcnetworkswitchoutput.h</text>
</g>
<!-- Node2 -->
<g id="node2" class="node"><title>Node2</title>
<g id="a_node2"><a xlink:href="../../df/dc7/torcnetworkinputs_8cpp.html" target="_top" xlink:title="torcnetworkinputs.cpp">
<polygon fill="white" stroke="black" points="0,-0.5 0,-19.5 122,-19.5 122,-0.5 0,-0.5"/>
<text text-anchor="middle" x="61" y="-7.5" font-family="Helvetica,sans-Serif" font-size="10.00">torcnetworkinputs.cpp</text>
</a>
</g>
</g>
<!-- Node1&#45;&gt;Node2 -->
<g id="edge1" class="edge"><title>Node1&#45;&gt;Node2</title>
<path fill="none" stroke="midnightblue" d="M125.463,-108.356C109.462,-101.14 91.7048,-90.5742 80,-76 66.4541,-59.1333 62.565,-32.9334 61.4489,-19.5301"/>
<polygon fill="midnightblue" stroke="midnightblue" points="124.554,-111.77 135.129,-112.421 127.268,-105.318 124.554,-111.77"/>
</g>
<!-- Node3 -->
<g id="node3" class="node"><title>Node3</title>
<g id="a_node3"><a xlink:href="../../d0/d55/torcnetworkbuttonoutput_8h.html" target="_top" xlink:title="torcnetworkbuttonoutput.h">
<polygon fill="white" stroke="black" points="89.5,-56.5 89.5,-75.5 234.5,-75.5 234.5,-56.5 89.5,-56.5"/>
<text text-anchor="middle" x="162" y="-63.5" font-family="Helvetica,sans-Serif" font-size="10.00">torcnetworkbuttonoutput.h</text>
</a>
</g>
</g>
<!-- Node1&#45;&gt;Node3 -->
<g id="edge2" class="edge"><title>Node1&#45;&gt;Node3</title>
<path fill="none" stroke="midnightblue" d="M162,-101.805C162,-92.9102 162,-82.7798 162,-75.7511"/>
<polygon fill="midnightblue" stroke="midnightblue" points="158.5,-102.083 162,-112.083 165.5,-102.083 158.5,-102.083"/>
</g>
<!-- Node5 -->
<g id="node5" class="node"><title>Node5</title>
<g id="a_node5"><a xlink:href="../../d3/df9/torcnetworkswitchoutput_8cpp.html" target="_top" xlink:title="torcnetworkswitchoutput.cpp">
<polygon fill="white" stroke="black" points="253,-56.5 253,-75.5 407,-75.5 407,-56.5 253,-56.5"/>
<text text-anchor="middle" x="330" y="-63.5" font-family="Helvetica,sans-Serif" font-size="10.00">torcnetworkswitchoutput.cpp</text>
</a>
</g>
</g>
<!-- Node1&#45;&gt;Node5 -->
<g id="edge5" class="edge"><title>Node1&#45;&gt;Node5</title>
<path fill="none" stroke="midnightblue" d="M198.386,-109.304C230.042,-99.1294 275.168,-84.6246 303.504,-75.5164"/>
<polygon fill="midnightblue" stroke="midnightblue" points="197.069,-106.051 188.62,-112.444 199.211,-112.715 197.069,-106.051"/>
</g>
<!-- Node3&#45;&gt;Node2 -->
<g id="edge3" class="edge"><title>Node3&#45;&gt;Node2</title>
<path fill="none" stroke="midnightblue" d="M136.917,-51.5895C118.243,-41.6052 93.296,-28.2672 77.1871,-19.6545"/>
<polygon fill="midnightblue" stroke="midnightblue" points="135.304,-54.6955 145.773,-56.324 138.604,-48.5224 135.304,-54.6955"/>
</g>
<!-- Node4 -->
<g id="node4" class="node"><title>Node4</title>
<g id="a_node4"><a xlink:href="../../df/d6d/torcnetworkbuttonoutput_8cpp.html" target="_top" xlink:title="torcnetworkbuttonoutput.cpp">
<polygon fill="white" stroke="black" points="140,-0.5 140,-19.5 296,-19.5 296,-0.5 140,-0.5"/>
<text text-anchor="middle" x="218" y="-7.5" font-family="Helvetica,sans-Serif" font-size="10.00">torcnetworkbuttonoutput.cpp</text>
</a>
</g>
</g>
<!-- Node3&#45;&gt;Node4 -->
<g id="edge4" class="edge"><title>Node3&#45;&gt;Node4</title>
<path fill="none" stroke="midnightblue" d="M178.33,-49.2533C188.265,-39.6731 200.588,-27.7906 208.839,-19.8339"/>
<polygon fill="midnightblue" stroke="midnightblue" points="175.766,-46.8631 170.997,-56.324 180.625,-51.902 175.766,-46.8631"/>
</g>
</g>
</svg>
