<?xml version="1.0" encoding="UTF-8" standalone="no"?>
<!DOCTYPE svg PUBLIC "-//W3C//DTD SVG 1.1//EN"
 "http://www.w3.org/Graphics/SVG/1.1/DTD/svg11.dtd">
<!-- Generated by graphviz version 2.38.0 (20140413.2041)
 -->
<!-- Title: torccommandline.h Pages: 1 -->
<!--zoomable 252 -->
<svg id="main" version="1.1" xmlns="http://www.w3.org/2000/svg" xmlns:xlink="http://www.w3.org/1999/xlink" xml:space="preserve" onload="init(evt)">
<style type="text/css"><![CDATA[
.edge:hover path { stroke: red; }
.edge:hover polygon { stroke: red; fill: red; }
]]></style>
<script type="text/javascript"><![CDATA[
var edges = document.getElementsByTagName('g');
if (edges && edges.length) {
  for (var i=0;i<edges.length;i++) {
    if (edges[i].id.substr(0,4)=='edge') {
      edges[i].setAttribute('class','edge');
    }
  }
}
]]></script>
        <defs>
                <circle id="rim" cx="0" cy="0" r="7"/>
                <circle id="rim2" cx="0" cy="0" r="3.5"/>
                <g id="zoomPlus">
                        <use xlink:href="#rim" fill="#404040">
                                <set attributeName="fill" to="#808080" begin="zoomplus.mouseover" end="zoomplus.mouseout"/>
                        </use>
                        <path d="M-4,0h8M0,-4v8" fill="none" stroke="white" stroke-width="1.5" pointer-events="none"/>
                </g>
                <g id="zoomMin">
                        <use xlink:href="#rim" fill="#404040">
                                <set attributeName="fill" to="#808080" begin="zoomminus.mouseover" end="zoomminus.mouseout"/>
                        </use>
                        <path d="M-4,0h8" fill="none" stroke="white" stroke-width="1.5" pointer-events="none"/>
                </g>
                <g id="dirArrow">
                        <path fill="none" stroke="white" stroke-width="1.5" d="M0,-3.0v7 M-2.5,-0.5L0,-3.0L2.5,-0.5"/>
                </g>
               <g id="resetDef">
                       <use xlink:href="#rim2" fill="#404040">
                               <set attributeName="fill" to="#808080" begin="reset.mouseover" end="reset.mouseout"/>
                       </use>
               </g>
        </defs>

<script type="text/javascript">
var viewWidth = 3745;
var viewHeight = 252;
var sectionId = 'dynsection-1';
</script>
<script xlink:href="../../svgpan.js"/>
<svg id="graph" class="graph">
<g id="viewport">
<title>torccommandline.h</title>
<polygon fill="white" stroke="none" points="-4,4 -4,-248 3740.55,-248 3740.55,4 -4,4"/>
<!-- Node1 -->
<g id="node1" class="node"><title>Node1</title>
<polygon fill="#bfbfbf" stroke="black" points="804.5,-224.5 804.5,-243.5 914.5,-243.5 914.5,-224.5 804.5,-224.5"/>
<text text-anchor="middle" x="859.5" y="-231.5" font-family="Helvetica,sans-Serif" font-size="10.00">torccommandline.h</text>
</g>
<!-- Node2 -->
<g id="node2" class="node"><title>Node2</title>
<g id="a_node2"><a xlink:href="../../d6/d7a/server_2main_8cpp.html" target="_top" xlink:title="main.cpp">
<polygon fill="white" stroke="black" points="0,-112.5 0,-131.5 61,-131.5 61,-112.5 0,-112.5"/>
<text text-anchor="middle" x="30.5" y="-119.5" font-family="Helvetica,sans-Serif" font-size="10.00">main.cpp</text>
</a>
</g>
</g>
<!-- Node1&#45;&gt;Node2 -->
<g id="edge1" class="edge"><title>Node1&#45;&gt;Node2</title>
<path fill="none" stroke="midnightblue" d="M794.06,-232.8C681.596,-231.431 444.799,-224.054 248.5,-188 175.667,-174.623 92.5789,-145.972 53.3282,-131.598"/>
<polygon fill="midnightblue" stroke="midnightblue" points="794.186,-236.301 804.224,-232.911 794.263,-229.302 794.186,-236.301"/>
</g>
<!-- Node3 -->
<g id="node3" class="node"><title>Node3</title>
<g id="a_node3"><a xlink:href="../../da/dd8/torcxsdtest_8h.html" target="_top" xlink:title="torcxsdtest.h">
<polygon fill="white" stroke="black" points="257.5,-168.5 257.5,-187.5 337.5,-187.5 337.5,-168.5 257.5,-168.5"/>
<text text-anchor="middle" x="297.5" y="-175.5" font-family="Helvetica,sans-Serif" font-size="10.00">torcxsdtest.h</text>
</a>
</g>
</g>
<!-- Node1&#45;&gt;Node3 -->
<g id="edge2" class="edge"><title>Node1&#45;&gt;Node3</title>
<path fill="none" stroke="midnightblue" d="M794.057,-226.712C676.697,-215.435 433.752,-192.092 337.773,-182.87"/>
<polygon fill="midnightblue" stroke="midnightblue" points="794.044,-230.227 804.333,-227.699 794.713,-223.259 794.044,-230.227"/>
</g>
<!-- Node5 -->
<g id="node5" class="node"><title>Node5</title>
<g id="a_node5"><a xlink:href="../../dd/dbd/torclocalcontext_8h.html" target="_top" xlink:title="torclocalcontext.h">
<polygon fill="white" stroke="black" points="2085.5,-168.5 2085.5,-187.5 2187.5,-187.5 2187.5,-168.5 2085.5,-168.5"/>
<text text-anchor="middle" x="2136.5" y="-175.5" font-family="Helvetica,sans-Serif" font-size="10.00">torclocalcontext.h</text>
</a>
</g>
</g>
<!-- Node1&#45;&gt;Node5 -->
<g id="edge5" class="edge"><title>Node1&#45;&gt;Node5</title>
<path fill="none" stroke="midnightblue" d="M925.083,-230.227C1149.61,-220.732 1884.61,-189.652 2085.41,-181.16"/>
<polygon fill="midnightblue" stroke="midnightblue" points="924.624,-226.743 914.781,-230.662 924.92,-233.737 924.624,-226.743"/>
</g>
<!-- Node35 -->
<g id="node35" class="node"><title>Node35</title>
<g id="a_node35"><a xlink:href="../../dd/d32/torccommandline_8cpp.html" target="_top" xlink:title="torccommandline.cpp">
<polygon fill="white" stroke="black" points="2206,-168.5 2206,-187.5 2327,-187.5 2327,-168.5 2206,-168.5"/>
<text text-anchor="middle" x="2266.5" y="-175.5" font-family="Helvetica,sans-Serif" font-size="10.00">torccommandline.cpp</text>
</a>
</g>
</g>
<!-- Node1&#45;&gt;Node35 -->
<g id="edge44" class="edge"><title>Node1&#45;&gt;Node35</title>
<path fill="none" stroke="midnightblue" d="M924.717,-232.979C1118.71,-232.45 1708.96,-227.458 2196.5,-188 2199.55,-187.753 2202.68,-187.468 2205.83,-187.156"/>
<polygon fill="midnightblue" stroke="midnightblue" points="924.679,-229.479 914.687,-233.003 924.696,-236.479 924.679,-229.479"/>
</g>
<!-- Node36 -->
<g id="node36" class="node"><title>Node36</title>
<g id="a_node36"><a xlink:href="../../d1/d6c/torcdirectories_8h.html" target="_top" xlink:title="torcdirectories.h">
<polygon fill="white" stroke="black" points="812,-168.5 812,-187.5 907,-187.5 907,-168.5 812,-168.5"/>
<text text-anchor="middle" x="859.5" y="-175.5" font-family="Helvetica,sans-Serif" font-size="10.00">torcdirectories.h</text>
</a>
</g>
</g>
<!-- Node1&#45;&gt;Node36 -->
<g id="edge45" class="edge"><title>Node1&#45;&gt;Node36</title>
<path fill="none" stroke="midnightblue" d="M859.5,-213.805C859.5,-204.91 859.5,-194.78 859.5,-187.751"/>
<polygon fill="midnightblue" stroke="midnightblue" points="856,-214.083 859.5,-224.083 863,-214.083 856,-214.083"/>
</g>
<!-- Node3&#45;&gt;Node2 -->
<g id="edge3" class="edge"><title>Node3&#45;&gt;Node2</title>
<path fill="none" stroke="midnightblue" d="M247.406,-167.59C201.148,-158.787 130.571,-145.07 69.5,-132 66.782,-131.418 63.9613,-130.799 61.1362,-130.167"/>
<polygon fill="midnightblue" stroke="midnightblue" points="246.992,-171.074 257.47,-169.5 248.298,-164.196 246.992,-171.074"/>
</g>
<!-- Node4 -->
<g id="node4" class="node"><title>Node4</title>
<g id="a_node4"><a xlink:href="../../d6/ddf/torcxsdtest_8cpp.html" target="_top" xlink:title="torcxsdtest.cpp">
<polygon fill="white" stroke="black" points="252,-112.5 252,-131.5 343,-131.5 343,-112.5 252,-112.5"/>
<text text-anchor="middle" x="297.5" y="-119.5" font-family="Helvetica,sans-Serif" font-size="10.00">torcxsdtest.cpp</text>
</a>
</g>
</g>
<!-- Node3&#45;&gt;Node4 -->
<g id="edge4" class="edge"><title>Node3&#45;&gt;Node4</title>
<path fill="none" stroke="midnightblue" d="M297.5,-157.805C297.5,-148.91 297.5,-138.78 297.5,-131.751"/>
<polygon fill="midnightblue" stroke="midnightblue" points="294,-158.083 297.5,-168.083 301,-158.083 294,-158.083"/>
</g>
<!-- Node5&#45;&gt;Node2 -->
<g id="edge11" class="edge"><title>Node5&#45;&gt;Node2</title>
<path fill="none" stroke="midnightblue" d="M2075.11,-176.414C1753.79,-173.246 272.539,-157.365 69.5,-132 66.7419,-131.655 63.8936,-131.199 61.0506,-130.674"/>
<polygon fill="midnightblue" stroke="midnightblue" points="2075.13,-179.914 2085.17,-176.513 2075.2,-172.915 2075.13,-179.914"/>
</g>
<!-- Node5&#45;&gt;Node4 -->
<g id="edge13" class="edge"><title>Node5&#45;&gt;Node4</title>
<path fill="none" stroke="midnightblue" d="M2075.08,-176.607C1802.05,-174.68 696.733,-164.958 351.5,-132 348.756,-131.738 345.941,-131.42 343.106,-131.062"/>
<polygon fill="midnightblue" stroke="midnightblue" points="2075.17,-180.107 2085.2,-176.677 2075.22,-173.107 2075.17,-180.107"/>
</g>
<!-- Node6 -->
<g id="node6" class="node"><title>Node6</title>
<g id="a_node6"><a xlink:href="../../d3/d4a/torctimercontrol_8cpp.html" target="_top" xlink:title="torctimercontrol.cpp">
<polygon fill="white" stroke="black" points="3007.5,-112.5 3007.5,-131.5 3121.5,-131.5 3121.5,-112.5 3007.5,-112.5"/>
<text text-anchor="middle" x="3064.5" y="-119.5" font-family="Helvetica,sans-Serif" font-size="10.00">torctimercontrol.cpp</text>
</a>
</g>
</g>
<!-- Node5&#45;&gt;Node6 -->
<g id="edge6" class="edge"><title>Node5&#45;&gt;Node6</title>
<path fill="none" stroke="midnightblue" d="M2197.78,-168.099C2553.95,-134.503 2646.88,-163.81 2998.5,-132 3001.38,-131.74 3004.33,-131.444 3007.3,-131.123"/>
<polygon fill="midnightblue" stroke="midnightblue" points="2197.33,-164.626 2187.71,-169.059 2198,-171.594 2197.33,-164.626"/>
</g>
<!-- Node7 -->
<g id="node7" class="node"><title>Node7</title>
<g id="a_node7"><a xlink:href="../../da/dcd/torctransitioncontrol_8cpp.html" target="_top" xlink:title="torctransitioncontrol.cpp">
<polygon fill="white" stroke="black" points="3139.5,-112.5 3139.5,-131.5 3273.5,-131.5 3273.5,-112.5 3139.5,-112.5"/>
<text text-anchor="middle" x="3206.5" y="-119.5" font-family="Helvetica,sans-Serif" font-size="10.00">torctransitioncontrol.cpp</text>
</a>
</g>
</g>
<!-- Node5&#45;&gt;Node7 -->
<g id="edge7" class="edge"><title>Node5&#45;&gt;Node7</title>
<path fill="none" stroke="midnightblue" d="M2197.87,-168.098C2612.43,-130.215 2720.13,-164.165 3130.5,-132 3133.41,-131.772 3136.39,-131.516 3139.39,-131.24"/>
<polygon fill="midnightblue" stroke="midnightblue" points="2197.34,-164.632 2187.71,-169.036 2197.99,-171.602 2197.34,-164.632"/>
</g>
<!-- Node8 -->
<g id="node8" class="node"><title>Node8</title>
<g id="a_node8"><a xlink:href="../../d0/ddb/torcsysteminput_8cpp.html" target="_top" xlink:title="torcsysteminput.cpp">
<polygon fill="white" stroke="black" points="3292,-112.5 3292,-131.5 3407,-131.5 3407,-112.5 3292,-112.5"/>
<text text-anchor="middle" x="3349.5" y="-119.5" font-family="Helvetica,sans-Serif" font-size="10.00">torcsysteminput.cpp</text>
</a>
</g>
</g>
<!-- Node5&#45;&gt;Node8 -->
<g id="edge8" class="edge"><title>Node5&#45;&gt;Node8</title>
<path fill="none" stroke="midnightblue" d="M2197.71,-168.12C2679.75,-125.363 2804.97,-171.893 3282.5,-132 3285.54,-131.746 3288.66,-131.451 3291.8,-131.125"/>
<polygon fill="midnightblue" stroke="midnightblue" points="2197.35,-164.638 2187.7,-169.015 2197.98,-171.61 2197.35,-164.638"/>
</g>
<!-- Node9 -->
<g id="node9" class="node"><title>Node9</title>
<g id="a_node9"><a xlink:href="../../d1/d5d/torcsystemnotification_8h.html" target="_top" xlink:title="torcsystemnotification.h">
<polygon fill="white" stroke="black" points="3425.5,-112.5 3425.5,-131.5 3557.5,-131.5 3557.5,-112.5 3425.5,-112.5"/>
<text text-anchor="middle" x="3491.5" y="-119.5" font-family="Helvetica,sans-Serif" font-size="10.00">torcsystemnotification.h</text>
</a>
</g>
</g>
<!-- Node5&#45;&gt;Node9 -->
<g id="edge9" class="edge"><title>Node5&#45;&gt;Node9</title>
<path fill="none" stroke="midnightblue" d="M2197.72,-168.122C2739.12,-120.993 2879.29,-172.084 3416.5,-132 3419.38,-131.785 3422.31,-131.541 3425.28,-131.274"/>
<polygon fill="midnightblue" stroke="midnightblue" points="2197.36,-164.641 2187.7,-169.002 2197.97,-171.614 2197.36,-164.641"/>
</g>
<!-- Node11 -->
<g id="node11" class="node"><title>Node11</title>
<g id="a_node11"><a xlink:href="../../d1/d81/torccentral_8cpp.html" target="_top" xlink:title="torccentral.cpp">
<polygon fill="white" stroke="black" points="1324,-112.5 1324,-131.5 1413,-131.5 1413,-112.5 1324,-112.5"/>
<text text-anchor="middle" x="1368.5" y="-119.5" font-family="Helvetica,sans-Serif" font-size="10.00">torccentral.cpp</text>
</a>
</g>
</g>
<!-- Node5&#45;&gt;Node11 -->
<g id="edge12" class="edge"><title>Node5&#45;&gt;Node11</title>
<path fill="none" stroke="midnightblue" d="M2075.22,-175.248C1951.5,-171.247 1663.15,-159.564 1422.5,-132 1419.48,-131.654 1416.37,-131.254 1413.24,-130.818"/>
<polygon fill="midnightblue" stroke="midnightblue" points="2075.15,-178.748 2085.26,-175.568 2075.38,-171.751 2075.15,-178.748"/>
</g>
<!-- Node12 -->
<g id="node12" class="node"><title>Node12</title>
<g id="a_node12"><a xlink:href="../../dd/dbf/testtorclocalcontext_8cpp.html" target="_top" xlink:title="testtorclocalcontext.cpp">
<polygon fill="white" stroke="black" points="3575.5,-112.5 3575.5,-131.5 3707.5,-131.5 3707.5,-112.5 3575.5,-112.5"/>
<text text-anchor="middle" x="3641.5" y="-119.5" font-family="Helvetica,sans-Serif" font-size="10.00">testtorclocalcontext.cpp</text>
</a>
</g>
</g>
<!-- Node5&#45;&gt;Node12 -->
<g id="edge14" class="edge"><title>Node5&#45;&gt;Node12</title>
<path fill="none" stroke="midnightblue" d="M2198.04,-168.099C2805.65,-116.165 2962.87,-176.058 3566.5,-132 3569.38,-131.79 3572.31,-131.55 3575.28,-131.286"/>
<polygon fill="midnightblue" stroke="midnightblue" points="2197.37,-164.644 2187.7,-168.99 2197.97,-171.618 2197.37,-164.644"/>
</g>
<!-- Node13 -->
<g id="node13" class="node"><title>Node13</title>
<g id="a_node13"><a xlink:href="../../de/dc5/torchttpserver_8cpp.html" target="_top" xlink:title="torchttpserver.cpp">
<polygon fill="white" stroke="black" points="2699.5,-0.5 2699.5,-19.5 2803.5,-19.5 2803.5,-0.5 2699.5,-0.5"/>
<text text-anchor="middle" x="2751.5" y="-7.5" font-family="Helvetica,sans-Serif" font-size="10.00">torchttpserver.cpp</text>
</a>
</g>
</g>
<!-- Node5&#45;&gt;Node13 -->
<g id="edge15" class="edge"><title>Node5&#45;&gt;Node13</title>
<path fill="none" stroke="midnightblue" d="M2197.8,-168.519C2336.84,-164.229 3688.02,-161.164 3716.5,-132 3753.13,-94.4883 3755.36,-95.5154 3572.5,-56 3424.86,-24.0959 2960.27,-14.188 2803.64,-11.7117"/>
<polygon fill="midnightblue" stroke="midnightblue" points="2197.53,-165.027 2187.7,-168.98 2197.85,-172.02 2197.53,-165.027"/>
</g>
<!-- Node14 -->
<g id="node14" class="node"><title>Node14</title>
<g id="a_node14"><a xlink:href="../../da/d1a/torchttpservices_8cpp.html" target="_top" xlink:title="torchttpservices.cpp">
<polygon fill="white" stroke="black" points="1486.5,-56.5 1486.5,-75.5 1600.5,-75.5 1600.5,-56.5 1486.5,-56.5"/>
<text text-anchor="middle" x="1543.5" y="-63.5" font-family="Helvetica,sans-Serif" font-size="10.00">torchttpservices.cpp</text>
</a>
</g>
</g>
<!-- Node5&#45;&gt;Node14 -->
<g id="edge16" class="edge"><title>Node5&#45;&gt;Node14</title>
<path fill="none" stroke="midnightblue" d="M2075.04,-176.497C1955.76,-174.739 1697.46,-166.891 1616.5,-132 1587.2,-119.374 1561.57,-90.2374 1550.01,-75.6496"/>
<polygon fill="midnightblue" stroke="midnightblue" points="2075.06,-179.998 2085.11,-176.636 2075.16,-172.998 2075.06,-179.998"/>
</g>
<!-- Node15 -->
<g id="node15" class="node"><title>Node15</title>
<g id="a_node15"><a xlink:href="../../df/d2a/torcpowerosx_8cpp.html" target="_top" xlink:title="torcpowerosx.cpp">
<polygon fill="white" stroke="black" points="1898,-112.5 1898,-131.5 1999,-131.5 1999,-112.5 1898,-112.5"/>
<text text-anchor="middle" x="1948.5" y="-119.5" font-family="Helvetica,sans-Serif" font-size="10.00">torcpowerosx.cpp</text>
</a>
</g>
</g>
<!-- Node5&#45;&gt;Node15 -->
<g id="edge17" class="edge"><title>Node5&#45;&gt;Node15</title>
<path fill="none" stroke="midnightblue" d="M2096.7,-165.568C2061.23,-155.381 2010.13,-140.703 1978.15,-131.516"/>
<polygon fill="midnightblue" stroke="midnightblue" points="2096.13,-169.047 2106.71,-168.444 2098.07,-162.319 2096.13,-169.047"/>
</g>
<!-- Node16 -->
<g id="node16" class="node"><title>Node16</title>
<g id="a_node16"><a xlink:href="../../d7/d74/torcrunlooposx_8cpp.html" target="_top" xlink:title="torcrunlooposx.cpp">
<polygon fill="white" stroke="black" points="2017.5,-112.5 2017.5,-131.5 2125.5,-131.5 2125.5,-112.5 2017.5,-112.5"/>
<text text-anchor="middle" x="2071.5" y="-119.5" font-family="Helvetica,sans-Serif" font-size="10.00">torcrunlooposx.cpp</text>
</a>
</g>
</g>
<!-- Node5&#45;&gt;Node16 -->
<g id="edge18" class="edge"><title>Node5&#45;&gt;Node16</title>
<path fill="none" stroke="midnightblue" d="M2118.23,-161.82C2106.58,-152.145 2091.9,-139.948 2082.13,-131.834"/>
<polygon fill="midnightblue" stroke="midnightblue" points="2116.13,-164.626 2126.06,-168.324 2120.6,-159.242 2116.13,-164.626"/>
</g>
<!-- Node17 -->
<g id="node17" class="node"><title>Node17</title>
<g id="a_node17"><a xlink:href="../../d5/d95/torcadminthread_8cpp.html" target="_top" xlink:title="torcadminthread.cpp">
<polygon fill="white" stroke="black" points="2144,-112.5 2144,-131.5 2261,-131.5 2261,-112.5 2144,-112.5"/>
<text text-anchor="middle" x="2202.5" y="-119.5" font-family="Helvetica,sans-Serif" font-size="10.00">torcadminthread.cpp</text>
</a>
</g>
</g>
<!-- Node5&#45;&gt;Node17 -->
<g id="edge19" class="edge"><title>Node5&#45;&gt;Node17</title>
<path fill="none" stroke="midnightblue" d="M2155.05,-161.82C2166.88,-152.145 2181.79,-139.948 2191.7,-131.834"/>
<polygon fill="midnightblue" stroke="midnightblue" points="2152.63,-159.283 2147.1,-168.324 2157.06,-164.7 2152.63,-159.283"/>
</g>
<!-- Node18 -->
<g id="node18" class="node"><title>Node18</title>
<g id="a_node18"><a xlink:href="../../dc/d96/torcbonjour_8cpp.html" target="_top" xlink:title="torcbonjour.cpp">
<polygon fill="white" stroke="black" points="2279,-112.5 2279,-131.5 2370,-131.5 2370,-112.5 2279,-112.5"/>
<text text-anchor="middle" x="2324.5" y="-119.5" font-family="Helvetica,sans-Serif" font-size="10.00">torcbonjour.cpp</text>
</a>
</g>
</g>
<!-- Node5&#45;&gt;Node18 -->
<g id="edge20" class="edge"><title>Node5&#45;&gt;Node18</title>
<path fill="none" stroke="midnightblue" d="M2176.3,-165.568C2211.77,-155.381 2262.87,-140.703 2294.85,-131.516"/>
<polygon fill="midnightblue" stroke="midnightblue" points="2174.93,-162.319 2166.29,-168.444 2176.87,-169.047 2174.93,-162.319"/>
</g>
<!-- Node19 -->
<g id="node19" class="node"><title>Node19</title>
<g id="a_node19"><a xlink:href="../../d3/df3/torclanguage_8cpp.html" target="_top" xlink:title="torclanguage.cpp">
<polygon fill="white" stroke="black" points="1431.5,-112.5 1431.5,-131.5 1531.5,-131.5 1531.5,-112.5 1431.5,-112.5"/>
<text text-anchor="middle" x="1481.5" y="-119.5" font-family="Helvetica,sans-Serif" font-size="10.00">torclanguage.cpp</text>
</a>
</g>
</g>
<!-- Node5&#45;&gt;Node19 -->
<g id="edge21" class="edge"><title>Node5&#45;&gt;Node19</title>
<path fill="none" stroke="midnightblue" d="M2075.4,-173.635C1968.02,-167.434 1738.51,-152.898 1545.5,-132 1541.04,-131.517 1536.41,-130.965 1531.77,-130.378"/>
<polygon fill="midnightblue" stroke="midnightblue" points="2075.23,-177.131 2085.41,-174.209 2075.63,-170.142 2075.23,-177.131"/>
</g>
<!-- Node20 -->
<g id="node20" class="node"><title>Node20</title>
<g id="a_node20"><a xlink:href="../../da/d67/torclocalcontext_8cpp.html" target="_top" xlink:title="torclocalcontext.cpp">
<polygon fill="white" stroke="black" points="1193,-112.5 1193,-131.5 1306,-131.5 1306,-112.5 1193,-112.5"/>
<text text-anchor="middle" x="1249.5" y="-119.5" font-family="Helvetica,sans-Serif" font-size="10.00">torclocalcontext.cpp</text>
</a>
</g>
</g>
<!-- Node5&#45;&gt;Node20 -->
<g id="edge22" class="edge"><title>Node5&#45;&gt;Node20</title>
<path fill="none" stroke="midnightblue" d="M2075.21,-175.333C1938.58,-171.247 1598.72,-159.028 1315.5,-132 1312.51,-131.714 1309.44,-131.394 1306.35,-131.049"/>
<polygon fill="midnightblue" stroke="midnightblue" points="2075.37,-178.839 2085.47,-175.636 2075.58,-171.843 2075.37,-178.839"/>
</g>
<!-- Node21 -->
<g id="node21" class="node"><title>Node21</title>
<g id="a_node21"><a xlink:href="../../da/d9c/torcnetwork_8cpp.html" target="_top" xlink:title="torcnetwork.cpp">
<polygon fill="white" stroke="black" points="2388,-112.5 2388,-131.5 2481,-131.5 2481,-112.5 2388,-112.5"/>
<text text-anchor="middle" x="2434.5" y="-119.5" font-family="Helvetica,sans-Serif" font-size="10.00">torcnetwork.cpp</text>
</a>
</g>
</g>
<!-- Node5&#45;&gt;Node21 -->
<g id="edge23" class="edge"><title>Node5&#45;&gt;Node21</title>
<path fill="none" stroke="midnightblue" d="M2193.57,-166.659C2250.06,-156.422 2335.49,-140.941 2387.99,-131.428"/>
<polygon fill="midnightblue" stroke="midnightblue" points="2192.93,-163.217 2183.72,-168.444 2194.18,-170.104 2192.93,-163.217"/>
</g>
<!-- Node22 -->
<g id="node22" class="node"><title>Node22</title>
<g id="a_node22"><a xlink:href="../../d5/d9a/torcnetworkedcontext_8h.html" target="_top" xlink:title="torcnetworkedcontext.h">
<polygon fill="white" stroke="black" points="1711.5,-112.5 1711.5,-131.5 1841.5,-131.5 1841.5,-112.5 1711.5,-112.5"/>
<text text-anchor="middle" x="1776.5" y="-119.5" font-family="Helvetica,sans-Serif" font-size="10.00">torcnetworkedcontext.h</text>
</a>
</g>
</g>
<!-- Node5&#45;&gt;Node22 -->
<g id="edge24" class="edge"><title>Node5&#45;&gt;Node22</title>
<path fill="none" stroke="midnightblue" d="M2075.21,-167.806C2007.51,-157.651 1899.37,-141.431 1833.46,-131.544"/>
<polygon fill="midnightblue" stroke="midnightblue" points="2074.89,-171.298 2085.3,-169.32 2075.93,-164.376 2074.89,-171.298"/>
</g>
<!-- Node25 -->
<g id="node25" class="node"><title>Node25</title>
<g id="a_node25"><a xlink:href="../../d2/da7/torcpower_8cpp.html" target="_top" xlink:title="torcpower.cpp">
<polygon fill="white" stroke="black" points="2499,-112.5 2499,-131.5 2582,-131.5 2582,-112.5 2499,-112.5"/>
<text text-anchor="middle" x="2540.5" y="-119.5" font-family="Helvetica,sans-Serif" font-size="10.00">torcpower.cpp</text>
</a>
</g>
</g>
<!-- Node5&#45;&gt;Node25 -->
<g id="edge27" class="edge"><title>Node5&#45;&gt;Node25</title>
<path fill="none" stroke="midnightblue" d="M2197.79,-167.997C2329.2,-150.47 2363.94,-151.15 2490.5,-132 2493.2,-131.591 2495.99,-131.149 2498.79,-130.688"/>
<polygon fill="midnightblue" stroke="midnightblue" points="2197.19,-164.547 2187.74,-169.348 2198.12,-171.485 2197.19,-164.547"/>
</g>
<!-- Node26 -->
<g id="node26" class="node"><title>Node26</title>
<g id="a_node26"><a xlink:href="../../d8/d8c/torcqthread_8cpp.html" target="_top" xlink:title="torcqthread.cpp">
<polygon fill="white" stroke="black" points="2600,-112.5 2600,-131.5 2693,-131.5 2693,-112.5 2600,-112.5"/>
<text text-anchor="middle" x="2646.5" y="-119.5" font-family="Helvetica,sans-Serif" font-size="10.00">torcqthread.cpp</text>
</a>
</g>
</g>
<!-- Node5&#45;&gt;Node26 -->
<g id="edge28" class="edge"><title>Node5&#45;&gt;Node26</title>
<path fill="none" stroke="midnightblue" d="M2197.85,-168.033C2373.81,-147.411 2420.3,-153.8 2591.5,-132 2594.19,-131.658 2596.95,-131.283 2599.73,-130.886"/>
<polygon fill="midnightblue" stroke="midnightblue" points="2197.25,-164.58 2187.73,-169.232 2198.07,-171.531 2197.25,-164.58"/>
</g>
<!-- Node27 -->
<g id="node27" class="node"><title>Node27</title>
<g id="a_node27"><a xlink:href="../../de/d3c/torcsetting_8cpp.html" target="_top" xlink:title="torcsetting.cpp">
<polygon fill="white" stroke="black" points="2711,-112.5 2711,-131.5 2800,-131.5 2800,-112.5 2711,-112.5"/>
<text text-anchor="middle" x="2755.5" y="-119.5" font-family="Helvetica,sans-Serif" font-size="10.00">torcsetting.cpp</text>
</a>
</g>
</g>
<!-- Node5&#45;&gt;Node27 -->
<g id="edge29" class="edge"><title>Node5&#45;&gt;Node27</title>
<path fill="none" stroke="midnightblue" d="M2197.87,-168.059C2422.92,-144 2482.37,-158.473 2702.5,-132 2705.19,-131.677 2707.95,-131.311 2710.72,-130.917"/>
<polygon fill="midnightblue" stroke="midnightblue" points="2197.28,-164.601 2187.72,-169.157 2198.04,-171.56 2197.28,-164.601"/>
</g>
<!-- Node28 -->
<g id="node28" class="node"><title>Node28</title>
<g id="a_node28"><a xlink:href="../../d8/d51/torctime_8cpp.html" target="_top" xlink:title="torctime.cpp">
<polygon fill="white" stroke="black" points="2818,-112.5 2818,-131.5 2895,-131.5 2895,-112.5 2818,-112.5"/>
<text text-anchor="middle" x="2856.5" y="-119.5" font-family="Helvetica,sans-Serif" font-size="10.00">torctime.cpp</text>
</a>
</g>
</g>
<!-- Node5&#45;&gt;Node28 -->
<g id="edge30" class="edge"><title>Node5&#45;&gt;Node28</title>
<path fill="none" stroke="midnightblue" d="M2197.9,-168.072C2470.29,-140.704 2542.42,-165.282 2809.5,-132 2812.22,-131.661 2815.02,-131.26 2817.83,-130.818"/>
<polygon fill="midnightblue" stroke="midnightblue" points="2197.31,-164.615 2187.71,-169.111 2198.02,-171.579 2197.31,-164.615"/>
</g>
<!-- Node29 -->
<g id="node29" class="node"><title>Node29</title>
<g id="a_node29"><a xlink:href="../../d5/d2f/torcuser_8cpp.html" target="_top" xlink:title="torcuser.cpp">
<polygon fill="white" stroke="black" points="2913.5,-112.5 2913.5,-131.5 2989.5,-131.5 2989.5,-112.5 2913.5,-112.5"/>
<text text-anchor="middle" x="2951.5" y="-119.5" font-family="Helvetica,sans-Serif" font-size="10.00">torcuser.cpp</text>
</a>
</g>
</g>
<!-- Node5&#45;&gt;Node29 -->
<g id="edge31" class="edge"><title>Node5&#45;&gt;Node29</title>
<path fill="none" stroke="midnightblue" d="M2198.03,-168.07C2512.38,-137.697 2595.49,-169.272 2904.5,-132 2907.39,-131.652 2910.36,-131.231 2913.35,-130.763"/>
<polygon fill="midnightblue" stroke="midnightblue" points="2197.32,-164.623 2187.71,-169.082 2198,-171.59 2197.32,-164.623"/>
</g>
<!-- Node30 -->
<g id="node30" class="node"><title>Node30</title>
<g id="a_node30"><a xlink:href="../../d9/de1/torcssdp_8cpp.html" target="_top" xlink:title="torcssdp.cpp">
<polygon fill="white" stroke="black" points="1589.5,-0.5 1589.5,-19.5 1667.5,-19.5 1667.5,-0.5 1589.5,-0.5"/>
<text text-anchor="middle" x="1628.5" y="-7.5" font-family="Helvetica,sans-Serif" font-size="10.00">torcssdp.cpp</text>
</a>
</g>
</g>
<!-- Node5&#45;&gt;Node30 -->
<g id="edge32" class="edge"><title>Node5&#45;&gt;Node30</title>
<path fill="none" stroke="midnightblue" d="M2075.09,-175.236C1950.41,-171.131 1671.68,-159.147 1580.5,-132 1577.38,-131.071 1479.16,-78.7992 1477.5,-76 1451.32,-31.9643 1536.09,-17.7251 1589.09,-13.1472"/>
<polygon fill="midnightblue" stroke="midnightblue" points="2075.13,-178.739 2085.23,-175.564 2075.35,-171.742 2075.13,-178.739"/>
</g>
<!-- Node31 -->
<g id="node31" class="node"><title>Node31</title>
<g id="a_node31"><a xlink:href="../../dd/d1e/torcupnp_8h.html" target="_top" xlink:title="torcupnp.h">
<polygon fill="white" stroke="black" points="1625.5,-112.5 1625.5,-131.5 1693.5,-131.5 1693.5,-112.5 1625.5,-112.5"/>
<text text-anchor="middle" x="1659.5" y="-119.5" font-family="Helvetica,sans-Serif" font-size="10.00">torcupnp.h</text>
</a>
</g>
</g>
<!-- Node5&#45;&gt;Node31 -->
<g id="edge33" class="edge"><title>Node5&#45;&gt;Node31</title>
<path fill="none" stroke="midnightblue" d="M2075,-172.629C1990.66,-166.179 1834.52,-152.605 1702.5,-132 1699.64,-131.553 1696.68,-131.041 1693.71,-130.492"/>
<polygon fill="midnightblue" stroke="midnightblue" points="2074.93,-176.134 2085.17,-173.399 2075.46,-169.154 2074.93,-176.134"/>
</g>
<!-- Node34 -->
<g id="node34" class="node"><title>Node34</title>
<g id="a_node34"><a xlink:href="../../d9/db2/torcupnpcontent_8cpp.html" target="_top" xlink:title="torcupnpcontent.cpp">
<polygon fill="white" stroke="black" points="2124.5,-56.5 2124.5,-75.5 2240.5,-75.5 2240.5,-56.5 2124.5,-56.5"/>
<text text-anchor="middle" x="2182.5" y="-63.5" font-family="Helvetica,sans-Serif" font-size="10.00">torcupnpcontent.cpp</text>
</a>
</g>
</g>
<!-- Node5&#45;&gt;Node34 -->
<g id="edge43" class="edge"><title>Node5&#45;&gt;Node34</title>
<path fill="none" stroke="midnightblue" d="M2075.11,-174.534C2009.78,-170.468 1912.69,-159.799 1889.5,-132 1883.81,-125.175 1883.71,-118.746 1889.5,-112 1893.31,-107.557 2039.8,-86.6872 2124.16,-74.9928"/>
<polygon fill="midnightblue" stroke="midnightblue" points="2075.11,-178.04 2085.3,-175.131 2075.52,-171.052 2075.11,-178.04"/>
</g>
<!-- Node10 -->
<g id="node10" class="node"><title>Node10</title>
<g id="a_node10"><a xlink:href="../../d8/de9/torcsystemnotification_8cpp.html" target="_top" xlink:title="torcsystemnotification.cpp">
<polygon fill="white" stroke="black" points="3420,-56.5 3420,-75.5 3563,-75.5 3563,-56.5 3420,-56.5"/>
<text text-anchor="middle" x="3491.5" y="-63.5" font-family="Helvetica,sans-Serif" font-size="10.00">torcsystemnotification.cpp</text>
</a>
</g>
</g>
<!-- Node9&#45;&gt;Node10 -->
<g id="edge10" class="edge"><title>Node9&#45;&gt;Node10</title>
<path fill="none" stroke="midnightblue" d="M3491.5,-101.805C3491.5,-92.9102 3491.5,-82.7798 3491.5,-75.7511"/>
<polygon fill="midnightblue" stroke="midnightblue" points="3488,-102.083 3491.5,-112.083 3495,-102.083 3488,-102.083"/>
</g>
<!-- Node23 -->
<g id="node23" class="node"><title>Node23</title>
<g id="a_node23"><a xlink:href="../../db/d78/torcwebsocket_8cpp.html" target="_top" xlink:title="torcwebsocket.cpp">
<polygon fill="white" stroke="black" points="2000.5,-56.5 2000.5,-75.5 2106.5,-75.5 2106.5,-56.5 2000.5,-56.5"/>
<text text-anchor="middle" x="2053.5" y="-63.5" font-family="Helvetica,sans-Serif" font-size="10.00">torcwebsocket.cpp</text>
</a>
</g>
</g>
<!-- Node22&#45;&gt;Node23 -->
<g id="edge25" class="edge"><title>Node22&#45;&gt;Node23</title>
<path fill="none" stroke="midnightblue" d="M1830.5,-110.473C1882.85,-100.268 1961.27,-84.9794 2009.81,-75.5164"/>
<polygon fill="midnightblue" stroke="midnightblue" points="1829.54,-107.095 1820.39,-112.444 1830.88,-113.965 1829.54,-107.095"/>
</g>
<!-- Node24 -->
<g id="node24" class="node"><title>Node24</title>
<g id="a_node24"><a xlink:href="../../de/d48/torcnetworkedcontext_8cpp.html" target="_top" xlink:title="torcnetworkedcontext.cpp">
<polygon fill="white" stroke="black" points="1841,-56.5 1841,-75.5 1982,-75.5 1982,-56.5 1841,-56.5"/>
<text text-anchor="middle" x="1911.5" y="-63.5" font-family="Helvetica,sans-Serif" font-size="10.00">torcnetworkedcontext.cpp</text>
</a>
</g>
</g>
<!-- Node22&#45;&gt;Node24 -->
<g id="edge26" class="edge"><title>Node22&#45;&gt;Node24</title>
<path fill="none" stroke="midnightblue" d="M1807.41,-108.638C1832.74,-98.504 1867.93,-84.4274 1890.21,-75.5164"/>
<polygon fill="midnightblue" stroke="midnightblue" points="1805.88,-105.48 1797.89,-112.444 1808.48,-111.979 1805.88,-105.48"/>
</g>
<!-- Node31&#45;&gt;Node14 -->
<g id="edge34" class="edge"><title>Node31&#45;&gt;Node14</title>
<path fill="none" stroke="midnightblue" d="M1631.78,-108.096C1610.11,-98.0073 1580.6,-84.2697 1561.79,-75.5164"/>
<polygon fill="midnightblue" stroke="midnightblue" points="1630.58,-111.396 1641.12,-112.444 1633.53,-105.05 1630.58,-111.396"/>
</g>
<!-- Node31&#45;&gt;Node23 -->
<g id="edge35" class="edge"><title>Node31&#45;&gt;Node23</title>
<path fill="none" stroke="midnightblue" d="M1703.92,-111.88C1831.92,-90.8414 1866.48,-92.8589 1991.5,-76 1994.41,-75.6075 1997.4,-75.1977 2000.41,-74.7786"/>
<polygon fill="midnightblue" stroke="midnightblue" points="1703.01,-108.483 1693.72,-113.572 1704.16,-115.388 1703.01,-108.483"/>
</g>
<!-- Node31&#45;&gt;Node24 -->
<g id="edge36" class="edge"><title>Node31&#45;&gt;Node24</title>
<path fill="none" stroke="midnightblue" d="M1703.73,-111.523C1751.15,-101.361 1825.78,-85.3686 1871.5,-75.5704"/>
<polygon fill="midnightblue" stroke="midnightblue" points="1702.79,-108.143 1693.75,-113.661 1704.26,-114.988 1702.79,-108.143"/>
</g>
<!-- Node31&#45;&gt;Node30 -->
<g id="edge37" class="edge"><title>Node31&#45;&gt;Node30</title>
<path fill="none" stroke="midnightblue" d="M1654.34,-102.674C1647.56,-78.6248 1635.94,-37.3881 1630.92,-19.5914"/>
<polygon fill="midnightblue" stroke="midnightblue" points="1650.99,-103.693 1657.07,-112.368 1657.72,-101.794 1650.99,-103.693"/>
</g>
<!-- Node32 -->
<g id="node32" class="node"><title>Node32</title>
<g id="a_node32"><a xlink:href="../../dd/d3e/torcssdp_8h.html" target="_top" xlink:title="torcssdp.h">
<polygon fill="white" stroke="black" points="1657,-56.5 1657,-75.5 1724,-75.5 1724,-56.5 1657,-56.5"/>
<text text-anchor="middle" x="1690.5" y="-63.5" font-family="Helvetica,sans-Serif" font-size="10.00">torcssdp.h</text>
</a>
</g>
</g>
<!-- Node31&#45;&gt;Node32 -->
<g id="edge38" class="edge"><title>Node31&#45;&gt;Node32</title>
<path fill="none" stroke="midnightblue" d="M1669.68,-103.275C1674.97,-94.0454 1681.22,-83.1703 1685.48,-75.7511"/>
<polygon fill="midnightblue" stroke="midnightblue" points="1666.56,-101.668 1664.62,-112.083 1672.63,-105.153 1666.56,-101.668"/>
</g>
<!-- Node33 -->
<g id="node33" class="node"><title>Node33</title>
<g id="a_node33"><a xlink:href="../../d4/ddf/torcupnp_8cpp.html" target="_top" xlink:title="torcupnp.cpp">
<polygon fill="white" stroke="black" points="1742.5,-56.5 1742.5,-75.5 1822.5,-75.5 1822.5,-56.5 1742.5,-56.5"/>
<text text-anchor="middle" x="1782.5" y="-63.5" font-family="Helvetica,sans-Serif" font-size="10.00">torcupnp.cpp</text>
</a>
</g>
</g>
<!-- Node31&#45;&gt;Node33 -->
<g id="edge41" class="edge"><title>Node31&#45;&gt;Node33</title>
<path fill="none" stroke="midnightblue" d="M1688.27,-108.368C1711.31,-98.2553 1742.98,-84.3486 1763.1,-75.5164"/>
<polygon fill="midnightblue" stroke="midnightblue" points="1686.74,-105.219 1678.99,-112.444 1689.55,-111.628 1686.74,-105.219"/>
</g>
<!-- Node31&#45;&gt;Node34 -->
<g id="edge42" class="edge"><title>Node31&#45;&gt;Node34</title>
<path fill="none" stroke="midnightblue" d="M1703.65,-111.997C1886.49,-85.4626 1935.59,-95.9141 2115.5,-76 2118.42,-75.6772 2121.4,-75.3316 2124.42,-74.9708"/>
<polygon fill="midnightblue" stroke="midnightblue" points="1703.09,-108.542 1693.7,-113.457 1704.1,-115.467 1703.09,-108.542"/>
</g>
<!-- Node32&#45;&gt;Node13 -->
<g id="edge39" class="edge"><title>Node32&#45;&gt;Node13</title>
<path fill="none" stroke="midnightblue" d="M1734.17,-56.1575C2109.07,-9.68935 2550.18,-9.05464 2699.34,-10.332"/>
<polygon fill="midnightblue" stroke="midnightblue" points="1733.7,-52.6889 1724.21,-57.4045 1734.57,-59.6346 1733.7,-52.6889"/>
</g>
<!-- Node32&#45;&gt;Node30 -->
<g id="edge40" class="edge"><title>Node32&#45;&gt;Node30</title>
<path fill="none" stroke="midnightblue" d="M1672.75,-49.5372C1661.69,-39.9087 1647.87,-27.8694 1638.64,-19.8339"/>
<polygon fill="midnightblue" stroke="midnightblue" points="1670.7,-52.3954 1680.54,-56.324 1675.3,-47.1168 1670.7,-52.3954"/>
</g>
<!-- Node36&#45;&gt;Node4 -->
<g id="edge49" class="edge"><title>Node36&#45;&gt;Node4</title>
<path fill="none" stroke="midnightblue" d="M801.54,-173.32C707.052,-166.995 514.04,-152.713 351.5,-132 348.766,-131.652 345.958,-131.267 343.129,-130.858"/>
<polygon fill="midnightblue" stroke="midnightblue" points="801.534,-176.828 811.744,-173.998 801.998,-169.843 801.534,-176.828"/>
</g>
<!-- Node36&#45;&gt;Node11 -->
<g id="edge48" class="edge"><title>Node36&#45;&gt;Node11</title>
<path fill="none" stroke="midnightblue" d="M917.385,-172.591C1004.12,-165.69 1172.87,-151.124 1315.5,-132 1318.18,-131.64 1320.94,-131.247 1323.71,-130.831"/>
<polygon fill="midnightblue" stroke="midnightblue" points="916.915,-169.117 907.222,-173.395 917.466,-176.096 916.915,-169.117"/>
</g>
<!-- Node36&#45;&gt;Node19 -->
<g id="edge55" class="edge"><title>Node36&#45;&gt;Node19</title>
<path fill="none" stroke="midnightblue" d="M917.163,-173.758C1019.25,-167.715 1238.4,-153.371 1422.5,-132 1425.38,-131.665 1428.34,-131.296 1431.32,-130.904"/>
<polygon fill="midnightblue" stroke="midnightblue" points="916.842,-170.271 907.065,-174.352 917.253,-177.259 916.842,-170.271"/>
</g>
<!-- Node36&#45;&gt;Node20 -->
<g id="edge56" class="edge"><title>Node36&#45;&gt;Node20</title>
<path fill="none" stroke="midnightblue" d="M917.416,-168.981C991.553,-158.716 1119.18,-141.044 1192.75,-130.857"/>
<polygon fill="midnightblue" stroke="midnightblue" points="916.747,-165.54 907.322,-170.379 917.707,-172.474 916.747,-165.54"/>
</g>
<!-- Node37 -->
<g id="node37" class="node"><title>Node37</title>
<g id="a_node37"><a xlink:href="../../d7/de1/torcpicamera_8cpp.html" target="_top" xlink:title="torcpicamera.cpp">
<polygon fill="white" stroke="black" points="931,-112.5 931,-131.5 1032,-131.5 1032,-112.5 931,-112.5"/>
<text text-anchor="middle" x="981.5" y="-119.5" font-family="Helvetica,sans-Serif" font-size="10.00">torcpicamera.cpp</text>
</a>
</g>
</g>
<!-- Node36&#45;&gt;Node37 -->
<g id="edge46" class="edge"><title>Node36&#45;&gt;Node37</title>
<path fill="none" stroke="midnightblue" d="M888.039,-164.368C910.886,-154.255 942.305,-140.349 962.259,-131.516"/>
<polygon fill="midnightblue" stroke="midnightblue" points="886.559,-161.196 878.831,-168.444 889.392,-167.597 886.559,-161.196"/>
</g>
<!-- Node38 -->
<g id="node38" class="node"><title>Node38</title>
<g id="a_node38"><a xlink:href="../../d1/d3b/torccameraoutput_8cpp.html" target="_top" xlink:title="torccameraoutput.cpp">
<polygon fill="white" stroke="black" points="1050.5,-112.5 1050.5,-131.5 1174.5,-131.5 1174.5,-112.5 1050.5,-112.5"/>
<text text-anchor="middle" x="1112.5" y="-119.5" font-family="Helvetica,sans-Serif" font-size="10.00">torccameraoutput.cpp</text>
</a>
</g>
</g>
<!-- Node36&#45;&gt;Node38 -->
<g id="edge47" class="edge"><title>Node36&#45;&gt;Node38</title>
<path fill="none" stroke="midnightblue" d="M909.418,-166.346C957.231,-156.141 1028.45,-140.94 1072.6,-131.516"/>
<polygon fill="midnightblue" stroke="midnightblue" points="908.638,-162.933 899.589,-168.444 910.099,-169.779 908.638,-162.933"/>
</g>
<!-- Node39 -->
<g id="node39" class="node"><title>Node39</title>
<g id="a_node39"><a xlink:href="../../d6/d33/torchtmldynamiccontent_8cpp.html" target="_top" xlink:title="torchtmldynamiccontent.cpp">
<polygon fill="white" stroke="black" points="79,-112.5 79,-131.5 234,-131.5 234,-112.5 79,-112.5"/>
<text text-anchor="middle" x="156.5" y="-119.5" font-family="Helvetica,sans-Serif" font-size="10.00">torchtmldynamiccontent.cpp</text>
</a>
</g>
</g>
<!-- Node36&#45;&gt;Node39 -->
<g id="edge50" class="edge"><title>Node36&#45;&gt;Node39</title>
<path fill="none" stroke="midnightblue" d="M801.701,-173.394C692.404,-166.439 447.964,-150.239 242.5,-132 239.808,-131.761 237.07,-131.511 234.305,-131.253"/>
<polygon fill="midnightblue" stroke="midnightblue" points="801.648,-176.897 811.85,-174.037 802.092,-169.911 801.648,-176.897"/>
</g>
<!-- Node40 -->
<g id="node40" class="node"><title>Node40</title>
<g id="a_node40"><a xlink:href="../../d6/d68/torchtmlhandler_8cpp.html" target="_top" xlink:title="torchtmlhandler.cpp">
<polygon fill="white" stroke="black" points="361,-112.5 361,-131.5 474,-131.5 474,-112.5 361,-112.5"/>
<text text-anchor="middle" x="417.5" y="-119.5" font-family="Helvetica,sans-Serif" font-size="10.00">torchtmlhandler.cpp</text>
</a>
</g>
</g>
<!-- Node36&#45;&gt;Node40 -->
<g id="edge51" class="edge"><title>Node36&#45;&gt;Node40</title>
<path fill="none" stroke="midnightblue" d="M801.966,-170.411C728.166,-161.892 596.23,-146.431 483.5,-132 480.403,-131.604 477.225,-131.191 474.018,-130.769"/>
<polygon fill="midnightblue" stroke="midnightblue" points="801.65,-173.898 811.985,-171.567 802.452,-166.944 801.65,-173.898"/>
</g>
<!-- Node41 -->
<g id="node41" class="node"><title>Node41</title>
<g id="a_node41"><a xlink:href="../../d6/dda/torchtmlstaticcontent_8cpp.html" target="_top" xlink:title="torchtmlstaticcontent.cpp">
<polygon fill="white" stroke="black" points="492.5,-112.5 492.5,-131.5 632.5,-131.5 632.5,-112.5 492.5,-112.5"/>
<text text-anchor="middle" x="562.5" y="-119.5" font-family="Helvetica,sans-Serif" font-size="10.00">torchtmlstaticcontent.cpp</text>
</a>
</g>
</g>
<!-- Node36&#45;&gt;Node41 -->
<g id="edge52" class="edge"><title>Node36&#45;&gt;Node41</title>
<path fill="none" stroke="midnightblue" d="M802.304,-166.601C746.174,-156.395 661.604,-141.019 609.34,-131.516"/>
<polygon fill="midnightblue" stroke="midnightblue" points="801.975,-170.098 812.439,-168.444 803.227,-163.211 801.975,-170.098"/>
</g>
<!-- Node42 -->
<g id="node42" class="node"><title>Node42</title>
<g id="a_node42"><a xlink:href="../../d7/d7c/torcwebsocketthread_8cpp.html" target="_top" xlink:title="torcwebsocketthread.cpp">
<polygon fill="white" stroke="black" points="651,-112.5 651,-131.5 788,-131.5 788,-112.5 651,-112.5"/>
<text text-anchor="middle" x="719.5" y="-119.5" font-family="Helvetica,sans-Serif" font-size="10.00">torcwebsocketthread.cpp</text>
</a>
</g>
</g>
<!-- Node36&#45;&gt;Node42 -->
<g id="edge53" class="edge"><title>Node36&#45;&gt;Node42</title>
<path fill="none" stroke="midnightblue" d="M827.798,-164.772C801.5,-154.629 764.784,-140.467 741.58,-131.516"/>
<polygon fill="midnightblue" stroke="midnightblue" points="826.727,-168.11 837.317,-168.444 829.246,-161.579 826.727,-168.11"/>
</g>
<!-- Node43 -->
<g id="node43" class="node"><title>Node43</title>
<g id="a_node43"><a xlink:href="../../d7/def/torcdirectories_8cpp.html" target="_top" xlink:title="torcdirectories.cpp">
<polygon fill="white" stroke="black" points="806.5,-112.5 806.5,-131.5 912.5,-131.5 912.5,-112.5 806.5,-112.5"/>
<text text-anchor="middle" x="859.5" y="-119.5" font-family="Helvetica,sans-Serif" font-size="10.00">torcdirectories.cpp</text>
</a>
</g>
</g>
<!-- Node36&#45;&gt;Node43 -->
<g id="edge54" class="edge"><title>Node36&#45;&gt;Node43</title>
<path fill="none" stroke="midnightblue" d="M859.5,-157.805C859.5,-148.91 859.5,-138.78 859.5,-131.751"/>
<polygon fill="midnightblue" stroke="midnightblue" points="856,-158.083 859.5,-168.083 863,-158.083 856,-158.083"/>
</g>
</g>
</svg>
        <g id="navigator" transform="translate(0 0)" fill="#404254">
                <rect fill="#f2f5e9" fill-opacity="0.5" stroke="#606060" stroke-width=".5" x="0" y="0" width="60" height="60"/>
                <use id="zoomplus" xlink:href="#zoomPlus" x="17" y="9" onmousedown="handleZoom(evt,'in')"/>
                <use id="zoomminus" xlink:href="#zoomMin" x="42" y="9" onmousedown="handleZoom(evt,'out')"/>
                <use id="reset" xlink:href="#resetDef" x="30" y="36" onmousedown="handleReset()"/>
                <g id="arrowUp" xlink:href="#dirArrow" transform="translate(30 24)" onmousedown="handlePan(0,-1)">
                  <use xlink:href="#rim" fill="#404040">
                        <set attributeName="fill" to="#808080" begin="arrowUp.mouseover" end="arrowUp.mouseout"/>
                  </use>
                  <path fill="none" stroke="white" stroke-width="1.5" d="M0,-3.0v7 M-2.5,-0.5L0,-3.0L2.5,-0.5"/>
                </g>
                <g id="arrowRight" xlink:href="#dirArrow" transform="rotate(90) translate(36 -43)" onmousedown="handlePan(1,0)">
                  <use xlink:href="#rim" fill="#404040">
                        <set attributeName="fill" to="#808080" begin="arrowRight.mouseover" end="arrowRight.mouseout"/>
                  </use>
                  <path fill="none" stroke="white" stroke-width="1.5" d="M0,-3.0v7 M-2.5,-0.5L0,-3.0L2.5,-0.5"/>
                </g>
                <g id="arrowDown" xlink:href="#dirArrow" transform="rotate(180) translate(-30 -48)" onmousedown="handlePan(0,1)">
                  <use xlink:href="#rim" fill="#404040">
                        <set attributeName="fill" to="#808080" begin="arrowDown.mouseover" end="arrowDown.mouseout"/>
                  </use>
                  <path fill="none" stroke="white" stroke-width="1.5" d="M0,-3.0v7 M-2.5,-0.5L0,-3.0L2.5,-0.5"/>
                </g>
                <g id="arrowLeft" xlink:href="#dirArrow" transform="rotate(270) translate(-36 17)" onmousedown="handlePan(-1,0)">
                  <use xlink:href="#rim" fill="#404040">
                        <set attributeName="fill" to="#808080" begin="arrowLeft.mouseover" end="arrowLeft.mouseout"/>
                  </use>
                  <path fill="none" stroke="white" stroke-width="1.5" d="M0,-3.0v7 M-2.5,-0.5L0,-3.0L2.5,-0.5"/>
                </g>
        </g>
        <svg viewBox="0 0 15 15" width="100%" height="30px" preserveAspectRatio="xMaxYMin meet">
         <g id="arrow_out" transform="scale(0.3 0.3)">
          <a xlink:href="torccommandline_8h__dep__incl_org.svg" target="_base">
           <rect id="button" ry="5" rx="5" y="6" x="6" height="38" width="38"
                fill="#f2f5e9" fill-opacity="0.5" stroke="#606060" stroke-width="1.0"/>
           <path id="arrow"
             d="M 11.500037,31.436501 C 11.940474,20.09759 22.043105,11.32322 32.158766,21.979434 L 37.068811,17.246167 C 37.068811,17.246167 37.088388,32 37.088388,32 L 22.160133,31.978069 C 22.160133,31.978069 26.997745,27.140456 26.997745,27.140456 C 18.528582,18.264221 13.291696,25.230495 11.500037,31.436501 z"
             style="fill:#404040;"/>
          </a>
         </g>
        </svg>
</svg>
