<?xml version="1.0" encoding="UTF-8" standalone="no"?>
<!DOCTYPE svg PUBLIC "-//W3C//DTD SVG 1.1//EN"
 "http://www.w3.org/Graphics/SVG/1.1/DTD/svg11.dtd">
<!-- Generated by graphviz version 2.38.0 (20140413.2041)
 -->
<!-- Title: torccommandline.h Pages: 1 -->
<svg width="3833pt" height="252pt"
 viewBox="0.00 0.00 3832.50 252.00" xmlns="http://www.w3.org/2000/svg" xmlns:xlink="http://www.w3.org/1999/xlink">
<g id="graph0" class="graph" transform="scale(1 1) rotate(0) translate(4 248)">
<title>torccommandline.h</title>
<polygon fill="white" stroke="none" points="-4,4 -4,-248 3828.5,-248 3828.5,4 -4,4"/>
<!-- Node1 -->
<g id="node1" class="node"><title>Node1</title>
<polygon fill="#bfbfbf" stroke="black" points="695.5,-224.5 695.5,-243.5 805.5,-243.5 805.5,-224.5 695.5,-224.5"/>
<text text-anchor="middle" x="750.5" y="-231.5" font-family="Helvetica,sans-Serif" font-size="10.00">torccommandline.h</text>
</g>
<!-- Node2 -->
<g id="node2" class="node"><title>Node2</title>
<g id="a_node2"><a xlink:href="../../d6/d7a/server_2main_8cpp.html" target="_top" xlink:title="main.cpp">
<polygon fill="white" stroke="black" points="0,-112.5 0,-131.5 61,-131.5 61,-112.5 0,-112.5"/>
<text text-anchor="middle" x="30.5" y="-119.5" font-family="Helvetica,sans-Serif" font-size="10.00">main.cpp</text>
</a>
</g>
</g>
<!-- Node1&#45;&gt;Node2 -->
<g id="edge1" class="edge"><title>Node1&#45;&gt;Node2</title>
<path fill="none" stroke="midnightblue" d="M685.007,-225.828C612.576,-217.666 492.49,-203.449 389.5,-188 247.147,-166.646 211.646,-160.251 70.5,-132 67.429,-131.385 64.232,-130.716 61.043,-130.029"/>
<polygon fill="midnightblue" stroke="midnightblue" points="685.012,-229.351 695.34,-226.988 685.793,-222.394 685.012,-229.351"/>
</g>
<!-- Node3 -->
<g id="node3" class="node"><title>Node3</title>
<g id="a_node3"><a xlink:href="../../da/dd8/torcxsdtest_8h.html" target="_top" xlink:title="torcxsdtest.h">
<polygon fill="white" stroke="black" points="398.5,-168.5 398.5,-187.5 478.5,-187.5 478.5,-168.5 398.5,-168.5"/>
<text text-anchor="middle" x="438.5" y="-175.5" font-family="Helvetica,sans-Serif" font-size="10.00">torcxsdtest.h</text>
</a>
</g>
</g>
<!-- Node1&#45;&gt;Node3 -->
<g id="edge2" class="edge"><title>Node1&#45;&gt;Node3</title>
<path fill="none" stroke="midnightblue" d="M690.991,-222.7C628.725,-211.924 532.688,-195.302 478.777,-185.971"/>
<polygon fill="midnightblue" stroke="midnightblue" points="690.612,-226.187 701.063,-224.444 691.806,-219.289 690.612,-226.187"/>
</g>
<!-- Node5 -->
<g id="node5" class="node"><title>Node5</title>
<g id="a_node5"><a xlink:href="../../dd/dbd/torclocalcontext_8h.html" target="_top" xlink:title="torclocalcontext.h">
<polygon fill="white" stroke="black" points="2144.5,-168.5 2144.5,-187.5 2246.5,-187.5 2246.5,-168.5 2144.5,-168.5"/>
<text text-anchor="middle" x="2195.5" y="-175.5" font-family="Helvetica,sans-Serif" font-size="10.00">torclocalcontext.h</text>
</a>
</g>
</g>
<!-- Node1&#45;&gt;Node5 -->
<g id="edge5" class="edge"><title>Node1&#45;&gt;Node5</title>
<path fill="none" stroke="midnightblue" d="M816.018,-230.552C1061.64,-221.373 1924.91,-189.112 2144.42,-180.909"/>
<polygon fill="midnightblue" stroke="midnightblue" points="815.682,-227.062 805.82,-230.933 815.944,-234.057 815.682,-227.062"/>
</g>
<!-- Node34 -->
<g id="node34" class="node"><title>Node34</title>
<g id="a_node34"><a xlink:href="../../dd/d32/torccommandline_8cpp.html" target="_top" xlink:title="torccommandline.cpp">
<polygon fill="white" stroke="black" points="2265,-168.5 2265,-187.5 2386,-187.5 2386,-168.5 2265,-168.5"/>
<text text-anchor="middle" x="2325.5" y="-175.5" font-family="Helvetica,sans-Serif" font-size="10.00">torccommandline.cpp</text>
</a>
</g>
</g>
<!-- Node1&#45;&gt;Node34 -->
<g id="edge41" class="edge"><title>Node1&#45;&gt;Node34</title>
<path fill="none" stroke="midnightblue" d="M815.828,-233.329C1025.43,-233.896 1699.73,-231.931 2255.5,-188 2258.55,-187.759 2261.68,-187.479 2264.83,-187.17"/>
<polygon fill="midnightblue" stroke="midnightblue" points="815.623,-229.828 805.613,-233.298 815.602,-236.828 815.623,-229.828"/>
</g>
<!-- Node35 -->
<g id="node35" class="node"><title>Node35</title>
<g id="a_node35"><a xlink:href="../../d1/d6c/torcdirectories_8h.html" target="_top" xlink:title="torcdirectories.h">
<polygon fill="white" stroke="black" points="703,-168.5 703,-187.5 798,-187.5 798,-168.5 703,-168.5"/>
<text text-anchor="middle" x="750.5" y="-175.5" font-family="Helvetica,sans-Serif" font-size="10.00">torcdirectories.h</text>
</a>
</g>
</g>
<!-- Node1&#45;&gt;Node35 -->
<g id="edge42" class="edge"><title>Node1&#45;&gt;Node35</title>
<path fill="none" stroke="midnightblue" d="M750.5,-213.805C750.5,-204.91 750.5,-194.78 750.5,-187.751"/>
<polygon fill="midnightblue" stroke="midnightblue" points="747,-214.083 750.5,-224.083 754,-214.083 747,-214.083"/>
</g>
<!-- Node3&#45;&gt;Node2 -->
<g id="edge3" class="edge"><title>Node3&#45;&gt;Node2</title>
<path fill="none" stroke="midnightblue" d="M388.264,-172.458C317.199,-165.67 183.386,-151.552 70.5,-132 67.414,-131.466 64.2072,-130.849 61.0122,-130.194"/>
<polygon fill="midnightblue" stroke="midnightblue" points="387.999,-175.948 398.284,-173.406 388.658,-168.979 387.999,-175.948"/>
</g>
<!-- Node4 -->
<g id="node4" class="node"><title>Node4</title>
<g id="a_node4"><a xlink:href="../../d6/ddf/torcxsdtest_8cpp.html" target="_top" xlink:title="torcxsdtest.cpp">
<polygon fill="white" stroke="black" points="393,-112.5 393,-131.5 484,-131.5 484,-112.5 393,-112.5"/>
<text text-anchor="middle" x="438.5" y="-119.5" font-family="Helvetica,sans-Serif" font-size="10.00">torcxsdtest.cpp</text>
</a>
</g>
</g>
<!-- Node3&#45;&gt;Node4 -->
<g id="edge4" class="edge"><title>Node3&#45;&gt;Node4</title>
<path fill="none" stroke="midnightblue" d="M438.5,-157.805C438.5,-148.91 438.5,-138.78 438.5,-131.751"/>
<polygon fill="midnightblue" stroke="midnightblue" points="435,-158.083 438.5,-168.083 442,-158.083 435,-158.083"/>
</g>
<!-- Node5&#45;&gt;Node2 -->
<g id="edge10" class="edge"><title>Node5&#45;&gt;Node2</title>
<path fill="none" stroke="midnightblue" d="M2134,-176.432C1807.03,-173.314 279.651,-157.483 70.5,-132 67.5324,-131.638 64.4618,-131.153 61.402,-130.595"/>
<polygon fill="midnightblue" stroke="midnightblue" points="2134.19,-179.934 2144.22,-176.529 2134.25,-172.934 2134.19,-179.934"/>
</g>
<!-- Node5&#45;&gt;Node4 -->
<g id="edge12" class="edge"><title>Node5&#45;&gt;Node4</title>
<path fill="none" stroke="midnightblue" d="M2133.94,-176.494C1868.61,-174.138 821.466,-163.025 493.5,-132 490.418,-131.708 487.246,-131.349 484.057,-130.944"/>
<polygon fill="midnightblue" stroke="midnightblue" points="2134.12,-179.995 2144.15,-176.583 2134.18,-172.995 2134.12,-179.995"/>
</g>
<!-- Node6 -->
<g id="node6" class="node"><title>Node6</title>
<g id="a_node6"><a xlink:href="../../d3/d4a/torctimercontrol_8cpp.html" target="_top" xlink:title="torctimercontrol.cpp">
<polygon fill="white" stroke="black" points="2397.5,-112.5 2397.5,-131.5 2511.5,-131.5 2511.5,-112.5 2397.5,-112.5"/>
<text text-anchor="middle" x="2454.5" y="-119.5" font-family="Helvetica,sans-Serif" font-size="10.00">torctimercontrol.cpp</text>
</a>
</g>
</g>
<!-- Node5&#45;&gt;Node6 -->
<g id="edge6" class="edge"><title>Node5&#45;&gt;Node6</title>
<path fill="none" stroke="midnightblue" d="M2246.6,-166.346C2295.55,-156.141 2368.45,-140.94 2413.65,-131.516"/>
<polygon fill="midnightblue" stroke="midnightblue" points="2245.61,-162.976 2236.54,-168.444 2247.04,-169.829 2245.61,-162.976"/>
</g>
<!-- Node7 -->
<g id="node7" class="node"><title>Node7</title>
<g id="a_node7"><a xlink:href="../../da/dcd/torctransitioncontrol_8cpp.html" target="_top" xlink:title="torctransitioncontrol.cpp">
<polygon fill="white" stroke="black" points="2529.5,-112.5 2529.5,-131.5 2663.5,-131.5 2663.5,-112.5 2529.5,-112.5"/>
<text text-anchor="middle" x="2596.5" y="-119.5" font-family="Helvetica,sans-Serif" font-size="10.00">torctransitioncontrol.cpp</text>
</a>
</g>
</g>
<!-- Node5&#45;&gt;Node7 -->
<g id="edge7" class="edge"><title>Node5&#45;&gt;Node7</title>
<path fill="none" stroke="midnightblue" d="M2256.88,-167.965C2358.49,-153.794 2463.65,-140.056 2530.01,-131.503"/>
<polygon fill="midnightblue" stroke="midnightblue" points="2256.17,-164.532 2246.75,-169.382 2257.14,-171.464 2256.17,-164.532"/>
</g>
<!-- Node8 -->
<g id="node8" class="node"><title>Node8</title>
<g id="a_node8"><a xlink:href="../../d0/ddb/torcsysteminput_8cpp.html" target="_top" xlink:title="torcsysteminput.cpp">
<polygon fill="white" stroke="black" points="2682,-112.5 2682,-131.5 2797,-131.5 2797,-112.5 2682,-112.5"/>
<text text-anchor="middle" x="2739.5" y="-119.5" font-family="Helvetica,sans-Serif" font-size="10.00">torcsysteminput.cpp</text>
</a>
</g>
</g>
<!-- Node5&#45;&gt;Node8 -->
<g id="edge8" class="edge"><title>Node5&#45;&gt;Node8</title>
<path fill="none" stroke="midnightblue" d="M2256.83,-168.04C2442.53,-146.646 2491.28,-152.001 2672.5,-132 2675.53,-131.665 2678.64,-131.306 2681.78,-130.93"/>
<polygon fill="midnightblue" stroke="midnightblue" points="2256.25,-164.582 2246.73,-169.214 2257.06,-171.536 2256.25,-164.582"/>
</g>
<!-- Node9 -->
<g id="node9" class="node"><title>Node9</title>
<g id="a_node9"><a xlink:href="../../d8/de9/torcsystemnotification_8cpp.html" target="_top" xlink:title="torcsystemnotification.cpp">
<polygon fill="white" stroke="black" points="2815,-112.5 2815,-131.5 2958,-131.5 2958,-112.5 2815,-112.5"/>
<text text-anchor="middle" x="2886.5" y="-119.5" font-family="Helvetica,sans-Serif" font-size="10.00">torcsystemnotification.cpp</text>
</a>
</g>
</g>
<!-- Node5&#45;&gt;Node9 -->
<g id="edge9" class="edge"><title>Node5&#45;&gt;Node9</title>
<path fill="none" stroke="midnightblue" d="M2257,-168.048C2501.83,-142.412 2565.83,-153.402 2806.5,-132 2809.28,-131.752 2812.12,-131.489 2814.99,-131.213"/>
<polygon fill="midnightblue" stroke="midnightblue" points="2256.29,-164.604 2246.72,-169.136 2257.03,-171.565 2256.29,-164.604"/>
</g>
<!-- Node10 -->
<g id="node10" class="node"><title>Node10</title>
<g id="a_node10"><a xlink:href="../../d1/d81/torccentral_8cpp.html" target="_top" xlink:title="torccentral.cpp">
<polygon fill="white" stroke="black" points="1300,-112.5 1300,-131.5 1389,-131.5 1389,-112.5 1300,-112.5"/>
<text text-anchor="middle" x="1344.5" y="-119.5" font-family="Helvetica,sans-Serif" font-size="10.00">torccentral.cpp</text>
</a>
</g>
</g>
<!-- Node5&#45;&gt;Node10 -->
<g id="edge11" class="edge"><title>Node5&#45;&gt;Node10</title>
<path fill="none" stroke="midnightblue" d="M2133.98,-175.804C1999.95,-172.7 1671.68,-162.386 1398.5,-132 1395.48,-131.664 1392.37,-131.271 1389.24,-130.841"/>
<polygon fill="midnightblue" stroke="midnightblue" points="2133.98,-179.305 2144.06,-176.032 2134.14,-172.307 2133.98,-179.305"/>
</g>
<!-- Node11 -->
<g id="node11" class="node"><title>Node11</title>
<g id="a_node11"><a xlink:href="../../dd/dbf/testtorclocalcontext_8cpp.html" target="_top" xlink:title="testtorclocalcontext.cpp">
<polygon fill="white" stroke="black" points="2976.5,-112.5 2976.5,-131.5 3108.5,-131.5 3108.5,-112.5 2976.5,-112.5"/>
<text text-anchor="middle" x="3042.5" y="-119.5" font-family="Helvetica,sans-Serif" font-size="10.00">testtorclocalcontext.cpp</text>
</a>
</g>
</g>
<!-- Node5&#45;&gt;Node11 -->
<g id="edge13" class="edge"><title>Node5&#45;&gt;Node11</title>
<path fill="none" stroke="midnightblue" d="M2257.09,-168.061C2573.13,-137.34 2655.62,-158.576 2967.5,-132 2970.37,-131.755 2973.31,-131.486 2976.27,-131.198"/>
<polygon fill="midnightblue" stroke="midnightblue" points="2256.32,-164.62 2246.71,-169.081 2257.01,-171.586 2256.32,-164.62"/>
</g>
<!-- Node12 -->
<g id="node12" class="node"><title>Node12</title>
<g id="a_node12"><a xlink:href="../../de/dc5/torchttpserver_8cpp.html" target="_top" xlink:title="torchttpserver.cpp">
<polygon fill="white" stroke="black" points="3084.5,-0.5 3084.5,-19.5 3188.5,-19.5 3188.5,-0.5 3084.5,-0.5"/>
<text text-anchor="middle" x="3136.5" y="-7.5" font-family="Helvetica,sans-Serif" font-size="10.00">torchttpserver.cpp</text>
</a>
</g>
</g>
<!-- Node5&#45;&gt;Node12 -->
<g id="edge14" class="edge"><title>Node5&#45;&gt;Node12</title>
<path fill="none" stroke="midnightblue" d="M2256.98,-168.407C2365.24,-163.478 3083.2,-162.594 3117.5,-132 3150.19,-102.84 3142.57,-42.2591 3138.35,-19.7072"/>
<polygon fill="midnightblue" stroke="midnightblue" points="2256.47,-164.932 2246.71,-169.048 2256.91,-171.918 2256.47,-164.932"/>
</g>
<!-- Node13 -->
<g id="node13" class="node"><title>Node13</title>
<g id="a_node13"><a xlink:href="../../da/d1a/torchttpservices_8cpp.html" target="_top" xlink:title="torchttpservices.cpp">
<polygon fill="white" stroke="black" points="3566.5,-112.5 3566.5,-131.5 3680.5,-131.5 3680.5,-112.5 3566.5,-112.5"/>
<text text-anchor="middle" x="3623.5" y="-119.5" font-family="Helvetica,sans-Serif" font-size="10.00">torchttpservices.cpp</text>
</a>
</g>
</g>
<!-- Node5&#45;&gt;Node13 -->
<g id="edge15" class="edge"><title>Node5&#45;&gt;Node13</title>
<path fill="none" stroke="midnightblue" d="M2256.96,-168.105C2834.5,-118.413 2984.36,-178.87 3557.5,-132 3560.38,-131.764 3563.33,-131.489 3566.3,-131.184"/>
<polygon fill="midnightblue" stroke="midnightblue" points="2256.36,-164.643 2246.7,-168.995 2256.97,-171.617 2256.36,-164.643"/>
</g>
<!-- Node14 -->
<g id="node14" class="node"><title>Node14</title>
<g id="a_node14"><a xlink:href="../../df/d2a/torcpowerosx_8cpp.html" target="_top" xlink:title="torcpowerosx.cpp">
<polygon fill="white" stroke="black" points="3699,-112.5 3699,-131.5 3800,-131.5 3800,-112.5 3699,-112.5"/>
<text text-anchor="middle" x="3749.5" y="-119.5" font-family="Helvetica,sans-Serif" font-size="10.00">torcpowerosx.cpp</text>
</a>
</g>
</g>
<!-- Node5&#45;&gt;Node14 -->
<g id="edge16" class="edge"><title>Node5&#45;&gt;Node14</title>
<path fill="none" stroke="midnightblue" d="M2257.05,-168.101C2893.02,-114.195 3058.23,-187.062 3689.5,-132 3692.54,-131.735 3695.67,-131.414 3698.81,-131.054"/>
<polygon fill="midnightblue" stroke="midnightblue" points="2256.37,-164.646 2246.7,-168.985 2256.96,-171.621 2256.37,-164.646"/>
</g>
<!-- Node15 -->
<g id="node15" class="node"><title>Node15</title>
<g id="a_node15"><a xlink:href="../../d7/d74/torcrunlooposx_8cpp.html" target="_top" xlink:title="torcrunlooposx.cpp">
<polygon fill="white" stroke="black" points="1407.5,-112.5 1407.5,-131.5 1515.5,-131.5 1515.5,-112.5 1407.5,-112.5"/>
<text text-anchor="middle" x="1461.5" y="-119.5" font-family="Helvetica,sans-Serif" font-size="10.00">torcrunlooposx.cpp</text>
</a>
</g>
</g>
<!-- Node5&#45;&gt;Node15 -->
<g id="edge17" class="edge"><title>Node5&#45;&gt;Node15</title>
<path fill="none" stroke="midnightblue" d="M2133.82,-174.358C2015.59,-168.961 1748.94,-155.183 1525.5,-132 1522.26,-131.664 1518.94,-131.289 1515.59,-130.888"/>
<polygon fill="midnightblue" stroke="midnightblue" points="2133.97,-177.868 2144.12,-174.824 2134.29,-170.875 2133.97,-177.868"/>
</g>
<!-- Node16 -->
<g id="node16" class="node"><title>Node16</title>
<g id="a_node16"><a xlink:href="../../d5/d95/torcadminthread_8cpp.html" target="_top" xlink:title="torcadminthread.cpp">
<polygon fill="white" stroke="black" points="1534,-112.5 1534,-131.5 1651,-131.5 1651,-112.5 1534,-112.5"/>
<text text-anchor="middle" x="1592.5" y="-119.5" font-family="Helvetica,sans-Serif" font-size="10.00">torcadminthread.cpp</text>
</a>
</g>
</g>
<!-- Node5&#45;&gt;Node16 -->
<g id="edge18" class="edge"><title>Node5&#45;&gt;Node16</title>
<path fill="none" stroke="midnightblue" d="M2133.97,-172.782C2034.36,-165.74 1831.67,-150.516 1660.5,-132 1657.42,-131.667 1654.27,-131.309 1651.08,-130.934"/>
<polygon fill="midnightblue" stroke="midnightblue" points="2133.93,-176.288 2144.15,-173.499 2134.42,-169.306 2133.93,-176.288"/>
</g>
<!-- Node17 -->
<g id="node17" class="node"><title>Node17</title>
<g id="a_node17"><a xlink:href="../../dc/d96/torcbonjour_8cpp.html" target="_top" xlink:title="torcbonjour.cpp">
<polygon fill="white" stroke="black" points="1669,-112.5 1669,-131.5 1760,-131.5 1760,-112.5 1669,-112.5"/>
<text text-anchor="middle" x="1714.5" y="-119.5" font-family="Helvetica,sans-Serif" font-size="10.00">torcbonjour.cpp</text>
</a>
</g>
</g>
<!-- Node5&#45;&gt;Node17 -->
<g id="edge19" class="edge"><title>Node5&#45;&gt;Node17</title>
<path fill="none" stroke="midnightblue" d="M2134.24,-171.634C2051.36,-164.122 1898.98,-149.418 1769.5,-132 1766.43,-131.587 1763.27,-131.137 1760.09,-130.665"/>
<polygon fill="midnightblue" stroke="midnightblue" points="2133.97,-175.123 2144.24,-172.536 2134.59,-168.151 2133.97,-175.123"/>
</g>
<!-- Node18 -->
<g id="node18" class="node"><title>Node18</title>
<g id="a_node18"><a xlink:href="../../d3/df3/torclanguage_8cpp.html" target="_top" xlink:title="torclanguage.cpp">
<polygon fill="white" stroke="black" points="1050.5,-112.5 1050.5,-131.5 1150.5,-131.5 1150.5,-112.5 1050.5,-112.5"/>
<text text-anchor="middle" x="1100.5" y="-119.5" font-family="Helvetica,sans-Serif" font-size="10.00">torclanguage.cpp</text>
</a>
</g>
</g>
<!-- Node5&#45;&gt;Node18 -->
<g id="edge20" class="edge"><title>Node5&#45;&gt;Node18</title>
<path fill="none" stroke="midnightblue" d="M2134.34,-176.589C1974.12,-175.025 1529.03,-167.552 1160.5,-132 1157.25,-131.686 1153.91,-131.317 1150.54,-130.909"/>
<polygon fill="midnightblue" stroke="midnightblue" points="2134.45,-180.09 2144.48,-176.684 2134.51,-173.09 2134.45,-180.09"/>
</g>
<!-- Node19 -->
<g id="node19" class="node"><title>Node19</title>
<g id="a_node19"><a xlink:href="../../da/d67/torclocalcontext_8cpp.html" target="_top" xlink:title="torclocalcontext.cpp">
<polygon fill="white" stroke="black" points="1169,-112.5 1169,-131.5 1282,-131.5 1282,-112.5 1169,-112.5"/>
<text text-anchor="middle" x="1225.5" y="-119.5" font-family="Helvetica,sans-Serif" font-size="10.00">torclocalcontext.cpp</text>
</a>
</g>
</g>
<!-- Node5&#45;&gt;Node19 -->
<g id="edge21" class="edge"><title>Node5&#45;&gt;Node19</title>
<path fill="none" stroke="midnightblue" d="M2134.31,-175.765C1988.24,-172.421 1607.79,-161.383 1291.5,-132 1288.51,-131.722 1285.44,-131.407 1282.35,-131.067"/>
<polygon fill="midnightblue" stroke="midnightblue" points="2134.34,-179.266 2144.42,-175.992 2134.5,-172.268 2134.34,-179.266"/>
</g>
<!-- Node20 -->
<g id="node20" class="node"><title>Node20</title>
<g id="a_node20"><a xlink:href="../../da/d9c/torcnetwork_8cpp.html" target="_top" xlink:title="torcnetwork.cpp">
<polygon fill="white" stroke="black" points="1778,-112.5 1778,-131.5 1871,-131.5 1871,-112.5 1778,-112.5"/>
<text text-anchor="middle" x="1824.5" y="-119.5" font-family="Helvetica,sans-Serif" font-size="10.00">torcnetwork.cpp</text>
</a>
</g>
</g>
<!-- Node5&#45;&gt;Node20 -->
<g id="edge22" class="edge"><title>Node5&#45;&gt;Node20</title>
<path fill="none" stroke="midnightblue" d="M2134.21,-168.567C2070.7,-159.752 1968.58,-145.369 1880.5,-132 1877.48,-131.542 1874.37,-131.063 1871.24,-130.575"/>
<polygon fill="midnightblue" stroke="midnightblue" points="2134.06,-172.08 2144.45,-169.986 2135.02,-165.146 2134.06,-172.08"/>
</g>
<!-- Node21 -->
<g id="node21" class="node"><title>Node21</title>
<g id="a_node21"><a xlink:href="../../dd/d1e/torcupnp_8h.html" target="_top" xlink:title="torcupnp.h">
<polygon fill="white" stroke="black" points="3294.5,-112.5 3294.5,-131.5 3362.5,-131.5 3362.5,-112.5 3294.5,-112.5"/>
<text text-anchor="middle" x="3328.5" y="-119.5" font-family="Helvetica,sans-Serif" font-size="10.00">torcupnp.h</text>
</a>
</g>
</g>
<!-- Node5&#45;&gt;Node21 -->
<g id="edge23" class="edge"><title>Node5&#45;&gt;Node21</title>
<path fill="none" stroke="midnightblue" d="M2256.86,-168.097C2670.97,-130.069 2777.85,-153.127 3188.5,-132 3224.62,-130.142 3265.94,-127.411 3294.28,-125.445"/>
<polygon fill="midnightblue" stroke="midnightblue" points="2256.34,-164.63 2246.71,-169.036 2256.99,-171.6 2256.34,-164.63"/>
</g>
<!-- Node23 -->
<g id="node23" class="node"><title>Node23</title>
<g id="a_node23"><a xlink:href="../../d9/de1/torcssdp_8cpp.html" target="_top" xlink:title="torcssdp.cpp">
<polygon fill="white" stroke="black" points="3206.5,-0.5 3206.5,-19.5 3284.5,-19.5 3284.5,-0.5 3206.5,-0.5"/>
<text text-anchor="middle" x="3245.5" y="-7.5" font-family="Helvetica,sans-Serif" font-size="10.00">torcssdp.cpp</text>
</a>
</g>
</g>
<!-- Node5&#45;&gt;Node23 -->
<g id="edge39" class="edge"><title>Node5&#45;&gt;Node23</title>
<path fill="none" stroke="midnightblue" d="M2256.81,-168.27C2391.69,-159.815 3053.16,-176.347 3137.5,-132 3174.87,-112.35 3165.85,-87.0182 3194.5,-56 3207.16,-42.2939 3223.62,-28.3649 3234.37,-19.709"/>
<polygon fill="midnightblue" stroke="midnightblue" points="2256.41,-164.79 2246.71,-169.044 2256.95,-171.77 2256.41,-164.79"/>
</g>
<!-- Node26 -->
<g id="node26" class="node"><title>Node26</title>
<g id="a_node26"><a xlink:href="../../d9/db2/torcupnpcontent_8cpp.html" target="_top" xlink:title="torcupnpcontent.cpp">
<polygon fill="white" stroke="black" points="3424.5,-56.5 3424.5,-75.5 3540.5,-75.5 3540.5,-56.5 3424.5,-56.5"/>
<text text-anchor="middle" x="3482.5" y="-63.5" font-family="Helvetica,sans-Serif" font-size="10.00">torcupnpcontent.cpp</text>
</a>
</g>
</g>
<!-- Node5&#45;&gt;Node26 -->
<g id="edge40" class="edge"><title>Node5&#45;&gt;Node26</title>
<path fill="none" stroke="midnightblue" d="M2256.79,-168.23C2418.77,-157.338 3255.08,-165.604 3371.5,-132 3382.01,-128.965 3441.49,-92.4757 3468.8,-75.5379"/>
<polygon fill="midnightblue" stroke="midnightblue" points="2256.4,-164.749 2246.7,-169.012 2256.95,-171.728 2256.4,-164.749"/>
</g>
<!-- Node27 -->
<g id="node27" class="node"><title>Node27</title>
<g id="a_node27"><a xlink:href="../../d5/d9a/torcnetworkedcontext_8h.html" target="_top" xlink:title="torcnetworkedcontext.h">
<polygon fill="white" stroke="black" points="3418.5,-112.5 3418.5,-131.5 3548.5,-131.5 3548.5,-112.5 3418.5,-112.5"/>
<text text-anchor="middle" x="3483.5" y="-119.5" font-family="Helvetica,sans-Serif" font-size="10.00">torcnetworkedcontext.h</text>
</a>
</g>
</g>
<!-- Node5&#45;&gt;Node27 -->
<g id="edge31" class="edge"><title>Node5&#45;&gt;Node27</title>
<path fill="none" stroke="midnightblue" d="M2256.9,-168.104C2766.69,-123.277 2898.72,-168.678 3404.5,-132 3409.04,-131.671 3413.73,-131.276 3418.44,-130.84"/>
<polygon fill="midnightblue" stroke="midnightblue" points="2256.36,-164.639 2246.7,-169.009 2256.97,-171.612 2256.36,-164.639"/>
</g>
<!-- Node29 -->
<g id="node29" class="node"><title>Node29</title>
<g id="a_node29"><a xlink:href="../../d2/da7/torcpower_8cpp.html" target="_top" xlink:title="torcpower.cpp">
<polygon fill="white" stroke="black" points="1889,-112.5 1889,-131.5 1972,-131.5 1972,-112.5 1889,-112.5"/>
<text text-anchor="middle" x="1930.5" y="-119.5" font-family="Helvetica,sans-Serif" font-size="10.00">torcpower.cpp</text>
</a>
</g>
</g>
<!-- Node5&#45;&gt;Node29 -->
<g id="edge34" class="edge"><title>Node5&#45;&gt;Node29</title>
<path fill="none" stroke="midnightblue" d="M2143.53,-166.41C2093.45,-156.204 2018.64,-140.96 1972.29,-131.516"/>
<polygon fill="midnightblue" stroke="midnightblue" points="2143.01,-169.876 2153.51,-168.444 2144.41,-163.017 2143.01,-169.876"/>
</g>
<!-- Node30 -->
<g id="node30" class="node"><title>Node30</title>
<g id="a_node30"><a xlink:href="../../d8/d8c/torcqthread_8cpp.html" target="_top" xlink:title="torcqthread.cpp">
<polygon fill="white" stroke="black" points="1990,-112.5 1990,-131.5 2083,-131.5 2083,-112.5 1990,-112.5"/>
<text text-anchor="middle" x="2036.5" y="-119.5" font-family="Helvetica,sans-Serif" font-size="10.00">torcqthread.cpp</text>
</a>
</g>
</g>
<!-- Node5&#45;&gt;Node30 -->
<g id="edge35" class="edge"><title>Node5&#45;&gt;Node30</title>
<path fill="none" stroke="midnightblue" d="M2160.67,-165.172C2130.73,-155.004 2088.28,-140.585 2061.58,-131.516"/>
<polygon fill="midnightblue" stroke="midnightblue" points="2159.71,-168.542 2170.31,-168.444 2161.96,-161.914 2159.71,-168.542"/>
</g>
<!-- Node31 -->
<g id="node31" class="node"><title>Node31</title>
<g id="a_node31"><a xlink:href="../../de/d3c/torcsetting_8cpp.html" target="_top" xlink:title="torcsetting.cpp">
<polygon fill="white" stroke="black" points="2101,-112.5 2101,-131.5 2190,-131.5 2190,-112.5 2101,-112.5"/>
<text text-anchor="middle" x="2145.5" y="-119.5" font-family="Helvetica,sans-Serif" font-size="10.00">torcsetting.cpp</text>
</a>
</g>
</g>
<!-- Node5&#45;&gt;Node31 -->
<g id="edge36" class="edge"><title>Node5&#45;&gt;Node31</title>
<path fill="none" stroke="midnightblue" d="M2180.42,-160.718C2171.61,-151.2 2160.83,-139.561 2153.6,-131.751"/>
<polygon fill="midnightblue" stroke="midnightblue" points="2177.88,-163.123 2187.24,-168.083 2183.02,-158.367 2177.88,-163.123"/>
</g>
<!-- Node32 -->
<g id="node32" class="node"><title>Node32</title>
<g id="a_node32"><a xlink:href="../../d8/d51/torctime_8cpp.html" target="_top" xlink:title="torctime.cpp">
<polygon fill="white" stroke="black" points="2208,-112.5 2208,-131.5 2285,-131.5 2285,-112.5 2208,-112.5"/>
<text text-anchor="middle" x="2246.5" y="-119.5" font-family="Helvetica,sans-Serif" font-size="10.00">torctime.cpp</text>
</a>
</g>
</g>
<!-- Node5&#45;&gt;Node32 -->
<g id="edge37" class="edge"><title>Node5&#45;&gt;Node32</title>
<path fill="none" stroke="midnightblue" d="M2210.88,-160.718C2219.87,-151.2 2230.86,-139.561 2238.24,-131.751"/>
<polygon fill="midnightblue" stroke="midnightblue" points="2208.24,-158.41 2203.92,-168.083 2213.33,-163.216 2208.24,-158.41"/>
</g>
<!-- Node33 -->
<g id="node33" class="node"><title>Node33</title>
<g id="a_node33"><a xlink:href="../../d5/d2f/torcuser_8cpp.html" target="_top" xlink:title="torcuser.cpp">
<polygon fill="white" stroke="black" points="2303.5,-112.5 2303.5,-131.5 2379.5,-131.5 2379.5,-112.5 2303.5,-112.5"/>
<text text-anchor="middle" x="2341.5" y="-119.5" font-family="Helvetica,sans-Serif" font-size="10.00">torcuser.cpp</text>
</a>
</g>
</g>
<!-- Node5&#45;&gt;Node33 -->
<g id="edge38" class="edge"><title>Node5&#45;&gt;Node33</title>
<path fill="none" stroke="midnightblue" d="M2228.2,-164.906C2255.65,-154.754 2294.17,-140.506 2318.47,-131.516"/>
<polygon fill="midnightblue" stroke="midnightblue" points="2226.8,-161.692 2218.63,-168.444 2229.23,-168.257 2226.8,-161.692"/>
</g>
<!-- Node22 -->
<g id="node22" class="node"><title>Node22</title>
<g id="a_node22"><a xlink:href="../../de/d48/torcnetworkedcontext_8cpp.html" target="_top" xlink:title="torcnetworkedcontext.cpp">
<polygon fill="white" stroke="black" points="3559,-56.5 3559,-75.5 3700,-75.5 3700,-56.5 3559,-56.5"/>
<text text-anchor="middle" x="3629.5" y="-63.5" font-family="Helvetica,sans-Serif" font-size="10.00">torcnetworkedcontext.cpp</text>
</a>
</g>
</g>
<!-- Node21&#45;&gt;Node22 -->
<g id="edge24" class="edge"><title>Node21&#45;&gt;Node22</title>
<path fill="none" stroke="midnightblue" d="M3372.69,-113.072C3428.6,-103.042 3524.5,-85.8373 3581.95,-75.5298"/>
<polygon fill="midnightblue" stroke="midnightblue" points="3371.96,-109.647 3362.74,-114.858 3373.2,-116.537 3371.96,-109.647"/>
</g>
<!-- Node21&#45;&gt;Node23 -->
<g id="edge25" class="edge"><title>Node21&#45;&gt;Node23</title>
<path fill="none" stroke="midnightblue" d="M3351.73,-106.651C3369.91,-93.581 3390.15,-73.6787 3377.5,-56 3356.58,-26.7609 3315.51,-16.3016 3284.71,-12.6734"/>
<polygon fill="midnightblue" stroke="midnightblue" points="3349.44,-103.973 3343.13,-112.479 3353.37,-109.768 3349.44,-103.973"/>
</g>
<!-- Node24 -->
<g id="node24" class="node"><title>Node24</title>
<g id="a_node24"><a xlink:href="../../dd/d3e/torcssdp_8h.html" target="_top" xlink:title="torcssdp.h">
<polygon fill="white" stroke="black" points="3203,-56.5 3203,-75.5 3270,-75.5 3270,-56.5 3203,-56.5"/>
<text text-anchor="middle" x="3236.5" y="-63.5" font-family="Helvetica,sans-Serif" font-size="10.00">torcssdp.h</text>
</a>
</g>
</g>
<!-- Node21&#45;&gt;Node24 -->
<g id="edge26" class="edge"><title>Node21&#45;&gt;Node24</title>
<path fill="none" stroke="midnightblue" d="M3304.95,-107.177C3288.02,-97.2407 3265.72,-84.1492 3251.24,-75.6545"/>
<polygon fill="midnightblue" stroke="midnightblue" points="3303.32,-110.28 3313.72,-112.324 3306.87,-104.243 3303.32,-110.28"/>
</g>
<!-- Node25 -->
<g id="node25" class="node"><title>Node25</title>
<g id="a_node25"><a xlink:href="../../d4/ddf/torcupnp_8cpp.html" target="_top" xlink:title="torcupnp.cpp">
<polygon fill="white" stroke="black" points="3288.5,-56.5 3288.5,-75.5 3368.5,-75.5 3368.5,-56.5 3288.5,-56.5"/>
<text text-anchor="middle" x="3328.5" y="-63.5" font-family="Helvetica,sans-Serif" font-size="10.00">torcupnp.cpp</text>
</a>
</g>
</g>
<!-- Node21&#45;&gt;Node25 -->
<g id="edge29" class="edge"><title>Node21&#45;&gt;Node25</title>
<path fill="none" stroke="midnightblue" d="M3328.5,-101.805C3328.5,-92.9102 3328.5,-82.7798 3328.5,-75.7511"/>
<polygon fill="midnightblue" stroke="midnightblue" points="3325,-102.083 3328.5,-112.083 3332,-102.083 3325,-102.083"/>
</g>
<!-- Node21&#45;&gt;Node26 -->
<g id="edge30" class="edge"><title>Node21&#45;&gt;Node26</title>
<path fill="none" stroke="midnightblue" d="M3362.61,-109.039C3391.59,-98.8786 3432.46,-84.5457 3458.21,-75.5164"/>
<polygon fill="midnightblue" stroke="midnightblue" points="3361.18,-105.832 3352.9,-112.444 3363.5,-112.437 3361.18,-105.832"/>
</g>
<!-- Node24&#45;&gt;Node12 -->
<g id="edge27" class="edge"><title>Node24&#45;&gt;Node12</title>
<path fill="none" stroke="midnightblue" d="M3211.41,-51.4526C3192.95,-41.4835 3168.4,-28.2279 3152.53,-19.6545"/>
<polygon fill="midnightblue" stroke="midnightblue" points="3209.97,-54.6521 3220.43,-56.324 3213.3,-48.4928 3209.97,-54.6521"/>
</g>
<!-- Node24&#45;&gt;Node23 -->
<g id="edge28" class="edge"><title>Node24&#45;&gt;Node23</title>
<path fill="none" stroke="midnightblue" d="M3239.65,-46.1005C3241.14,-37.1357 3242.86,-26.8579 3244.04,-19.7511"/>
<polygon fill="midnightblue" stroke="midnightblue" points="3236.18,-45.6436 3237.99,-56.083 3243.08,-46.7945 3236.18,-45.6436"/>
</g>
<!-- Node27&#45;&gt;Node22 -->
<g id="edge33" class="edge"><title>Node27&#45;&gt;Node22</title>
<path fill="none" stroke="midnightblue" d="M3516.2,-108.906C3543.65,-98.7536 3582.17,-84.5063 3606.47,-75.5164"/>
<polygon fill="midnightblue" stroke="midnightblue" points="3514.8,-105.692 3506.63,-112.444 3517.23,-112.257 3514.8,-105.692"/>
</g>
<!-- Node28 -->
<g id="node28" class="node"><title>Node28</title>
<g id="a_node28"><a xlink:href="../../db/d78/torcwebsocket_8cpp.html" target="_top" xlink:title="torcwebsocket.cpp">
<polygon fill="white" stroke="black" points="3718.5,-56.5 3718.5,-75.5 3824.5,-75.5 3824.5,-56.5 3718.5,-56.5"/>
<text text-anchor="middle" x="3771.5" y="-63.5" font-family="Helvetica,sans-Serif" font-size="10.00">torcwebsocket.cpp</text>
</a>
</g>
</g>
<!-- Node27&#45;&gt;Node28 -->
<g id="edge32" class="edge"><title>Node27&#45;&gt;Node28</title>
<path fill="none" stroke="midnightblue" d="M3539.3,-110.537C3593.73,-100.332 3675.5,-84.9992 3726.08,-75.5164"/>
<polygon fill="midnightblue" stroke="midnightblue" points="3538.32,-107.161 3529.13,-112.444 3539.61,-114.041 3538.32,-107.161"/>
</g>
<!-- Node35&#45;&gt;Node4 -->
<g id="edge45" class="edge"><title>Node35&#45;&gt;Node4</title>
<path fill="none" stroke="midnightblue" d="M692.671,-166.991C632.477,-156.573 539.434,-140.469 484.189,-130.908"/>
<polygon fill="midnightblue" stroke="midnightblue" points="692.324,-170.483 702.774,-168.74 693.518,-163.586 692.324,-170.483"/>
</g>
<!-- Node35&#45;&gt;Node10 -->
<g id="edge44" class="edge"><title>Node35&#45;&gt;Node10</title>
<path fill="none" stroke="midnightblue" d="M808.141,-173.824C907.214,-168.003 1116.07,-154.15 1291.5,-132 1294.19,-131.661 1296.94,-131.283 1299.72,-130.88"/>
<polygon fill="midnightblue" stroke="midnightblue" points="807.821,-170.336 798.041,-174.411 808.228,-177.324 807.821,-170.336"/>
</g>
<!-- Node35&#45;&gt;Node18 -->
<g id="edge51" class="edge"><title>Node35&#45;&gt;Node18</title>
<path fill="none" stroke="midnightblue" d="M808.112,-168.111C875.637,-157.693 986.431,-140.599 1050.49,-130.716"/>
<polygon fill="midnightblue" stroke="midnightblue" points="807.416,-164.677 798.067,-169.661 808.484,-171.595 807.416,-164.677"/>
</g>
<!-- Node35&#45;&gt;Node19 -->
<g id="edge52" class="edge"><title>Node35&#45;&gt;Node19</title>
<path fill="none" stroke="midnightblue" d="M808.353,-171.112C887.639,-162.934 1034.48,-147.399 1159.5,-132 1162.6,-131.618 1165.78,-131.217 1168.99,-130.804"/>
<polygon fill="midnightblue" stroke="midnightblue" points="807.68,-167.663 798.091,-172.169 808.396,-174.626 807.68,-167.663"/>
</g>
<!-- Node36 -->
<g id="node36" class="node"><title>Node36</title>
<g id="a_node36"><a xlink:href="../../d7/de1/torcpicamera_8cpp.html" target="_top" xlink:title="torcpicamera.cpp">
<polygon fill="white" stroke="black" points="627,-112.5 627,-131.5 728,-131.5 728,-112.5 627,-112.5"/>
<text text-anchor="middle" x="677.5" y="-119.5" font-family="Helvetica,sans-Serif" font-size="10.00">torcpicamera.cpp</text>
</a>
</g>
</g>
<!-- Node35&#45;&gt;Node36 -->
<g id="edge43" class="edge"><title>Node35&#45;&gt;Node36</title>
<path fill="none" stroke="midnightblue" d="M730.358,-162.101C717.221,-152.382 700.518,-140.027 689.442,-131.834"/>
<polygon fill="midnightblue" stroke="midnightblue" points="728.65,-165.191 738.771,-168.324 732.813,-159.563 728.65,-165.191"/>
</g>
<!-- Node37 -->
<g id="node37" class="node"><title>Node37</title>
<g id="a_node37"><a xlink:href="../../d6/d33/torchtmldynamiccontent_8cpp.html" target="_top" xlink:title="torchtmldynamiccontent.cpp">
<polygon fill="white" stroke="black" points="746,-112.5 746,-131.5 901,-131.5 901,-112.5 746,-112.5"/>
<text text-anchor="middle" x="823.5" y="-119.5" font-family="Helvetica,sans-Serif" font-size="10.00">torchtmldynamiccontent.cpp</text>
</a>
</g>
</g>
<!-- Node35&#45;&gt;Node37 -->
<g id="edge46" class="edge"><title>Node35&#45;&gt;Node37</title>
<path fill="none" stroke="midnightblue" d="M770.642,-162.101C783.779,-152.382 800.482,-140.027 811.558,-131.834"/>
<polygon fill="midnightblue" stroke="midnightblue" points="768.187,-159.563 762.229,-168.324 772.35,-165.191 768.187,-159.563"/>
</g>
<!-- Node38 -->
<g id="node38" class="node"><title>Node38</title>
<g id="a_node38"><a xlink:href="../../d6/d68/torchtmlhandler_8cpp.html" target="_top" xlink:title="torchtmlhandler.cpp">
<polygon fill="white" stroke="black" points="919,-112.5 919,-131.5 1032,-131.5 1032,-112.5 919,-112.5"/>
<text text-anchor="middle" x="975.5" y="-119.5" font-family="Helvetica,sans-Serif" font-size="10.00">torchtmlhandler.cpp</text>
</a>
</g>
</g>
<!-- Node35&#45;&gt;Node38 -->
<g id="edge47" class="edge"><title>Node35&#45;&gt;Node38</title>
<path fill="none" stroke="midnightblue" d="M795.965,-166.088C838.473,-155.887 901.079,-140.861 940.015,-131.516"/>
<polygon fill="midnightblue" stroke="midnightblue" points="795.059,-162.706 786.152,-168.444 796.693,-169.513 795.059,-162.706"/>
</g>
<!-- Node39 -->
<g id="node39" class="node"><title>Node39</title>
<g id="a_node39"><a xlink:href="../../d6/dda/torchtmlstaticcontent_8cpp.html" target="_top" xlink:title="torchtmlstaticcontent.cpp">
<polygon fill="white" stroke="black" points="79.5,-112.5 79.5,-131.5 219.5,-131.5 219.5,-112.5 79.5,-112.5"/>
<text text-anchor="middle" x="149.5" y="-119.5" font-family="Helvetica,sans-Serif" font-size="10.00">torchtmlstaticcontent.cpp</text>
</a>
</g>
</g>
<!-- Node35&#45;&gt;Node39 -->
<g id="edge48" class="edge"><title>Node35&#45;&gt;Node39</title>
<path fill="none" stroke="midnightblue" d="M692.852,-172.55C596.585,-165.003 397.042,-148.862 228.5,-132 225.616,-131.711 222.673,-131.41 219.701,-131.099"/>
<polygon fill="midnightblue" stroke="midnightblue" points="692.714,-176.05 702.957,-173.341 693.26,-169.071 692.714,-176.05"/>
</g>
<!-- Node40 -->
<g id="node40" class="node"><title>Node40</title>
<g id="a_node40"><a xlink:href="../../d7/d7c/torcwebsocketthread_8cpp.html" target="_top" xlink:title="torcwebsocketthread.cpp">
<polygon fill="white" stroke="black" points="238,-112.5 238,-131.5 375,-131.5 375,-112.5 238,-112.5"/>
<text text-anchor="middle" x="306.5" y="-119.5" font-family="Helvetica,sans-Serif" font-size="10.00">torcwebsocketthread.cpp</text>
</a>
</g>
</g>
<!-- Node35&#45;&gt;Node40 -->
<g id="edge49" class="edge"><title>Node35&#45;&gt;Node40</title>
<path fill="none" stroke="midnightblue" d="M692.891,-169.993C611.261,-160.066 462.189,-141.935 375.001,-131.331"/>
<polygon fill="midnightblue" stroke="midnightblue" points="692.635,-173.488 702.984,-171.221 693.48,-166.539 692.635,-173.488"/>
</g>
<!-- Node41 -->
<g id="node41" class="node"><title>Node41</title>
<g id="a_node41"><a xlink:href="../../d7/def/torcdirectories_8cpp.html" target="_top" xlink:title="torcdirectories.cpp">
<polygon fill="white" stroke="black" points="502.5,-112.5 502.5,-131.5 608.5,-131.5 608.5,-112.5 502.5,-112.5"/>
<text text-anchor="middle" x="555.5" y="-119.5" font-family="Helvetica,sans-Serif" font-size="10.00">torcdirectories.cpp</text>
</a>
</g>
</g>
<!-- Node35&#45;&gt;Node41 -->
<g id="edge50" class="edge"><title>Node35&#45;&gt;Node41</title>
<path fill="none" stroke="midnightblue" d="M709.69,-165.699C672.887,-155.507 619.571,-140.743 586.254,-131.516"/>
<polygon fill="midnightblue" stroke="midnightblue" points="709.03,-169.148 719.602,-168.444 710.898,-162.402 709.03,-169.148"/>
</g>
</g>
</svg>
