<?xml version="1.0" encoding="UTF-8" standalone="no"?>
<!DOCTYPE svg PUBLIC "-//W3C//DTD SVG 1.1//EN"
 "http://www.w3.org/Graphics/SVG/1.1/DTD/svg11.dtd">
<!-- Generated by graphviz version 2.38.0 (20140413.2041)
 -->
<!-- Title: torchtmlhandler.h Pages: 1 -->
<svg width="1540pt" height="196pt"
 viewBox="0.00 0.00 1540.08 196.00" xmlns="http://www.w3.org/2000/svg" xmlns:xlink="http://www.w3.org/1999/xlink">
<g id="graph0" class="graph" transform="scale(1 1) rotate(0) translate(4 192)">
<title>torchtmlhandler.h</title>
<polygon fill="white" stroke="none" points="-4,4 -4,-192 1536.08,-192 1536.08,4 -4,4"/>
<!-- Node1 -->
<g id="node1" class="node"><title>Node1</title>
<polygon fill="#bfbfbf" stroke="black" points="25.5777,-168.5 25.5777,-187.5 126.578,-187.5 126.578,-168.5 25.5777,-168.5"/>
<text text-anchor="middle" x="76.0777" y="-175.5" font-family="Helvetica,sans-Serif" font-size="10.00">torchtmlhandler.h</text>
</g>
<!-- Node2 -->
<g id="node2" class="node"><title>Node2</title>
<g id="a_node2"><a xlink:href="../../df/d1b/torchttpserver_8h.html" target="_top" xlink:title="torchttpserver.h">
<polygon fill="white" stroke="black" points="817.578,-112.5 817.578,-131.5 910.578,-131.5 910.578,-112.5 817.578,-112.5"/>
<text text-anchor="middle" x="864.078" y="-119.5" font-family="Helvetica,sans-Serif" font-size="10.00">torchttpserver.h</text>
</a>
</g>
</g>
<!-- Node1&#45;&gt;Node2 -->
<g id="edge1" class="edge"><title>Node1&#45;&gt;Node2</title>
<path fill="none" stroke="midnightblue" d="M136.956,-172.828C288.89,-162.416 682.255,-135.46 817.556,-126.188"/>
<polygon fill="midnightblue" stroke="midnightblue" points="136.608,-169.344 126.871,-173.519 137.087,-176.327 136.608,-169.344"/>
</g>
<!-- Node3 -->
<g id="node3" class="node"><title>Node3</title>
<g id="a_node3"><a xlink:href="../../d6/d68/torchtmlhandler_8cpp.html" target="_top" xlink:title="torchtmlhandler.cpp">
<polygon fill="white" stroke="black" points="19.5777,-56.5 19.5777,-75.5 132.578,-75.5 132.578,-56.5 19.5777,-56.5"/>
<text text-anchor="middle" x="76.0777" y="-63.5" font-family="Helvetica,sans-Serif" font-size="10.00">torchtmlhandler.cpp</text>
</a>
</g>
</g>
<!-- Node1&#45;&gt;Node3 -->
<g id="edge19" class="edge"><title>Node1&#45;&gt;Node3</title>
<path fill="none" stroke="midnightblue" d="M76.0777,-158.348C76.0777,-134.254 76.0777,-93.3079 76.0777,-75.5914"/>
<polygon fill="midnightblue" stroke="midnightblue" points="72.5778,-158.368 76.0777,-168.368 79.5778,-158.369 72.5778,-158.368"/>
</g>
<!-- Node9 -->
<g id="node9" class="node"><title>Node9</title>
<g id="a_node9"><a xlink:href="../../de/dc5/torchttpserver_8cpp.html" target="_top" xlink:title="torchttpserver.cpp">
<polygon fill="white" stroke="black" points="1036.08,-0.5 1036.08,-19.5 1140.08,-19.5 1140.08,-0.5 1036.08,-0.5"/>
<text text-anchor="middle" x="1088.08" y="-7.5" font-family="Helvetica,sans-Serif" font-size="10.00">torchttpserver.cpp</text>
</a>
</g>
</g>
<!-- Node1&#45;&gt;Node9 -->
<g id="edge20" class="edge"><title>Node1&#45;&gt;Node9</title>
<path fill="none" stroke="midnightblue" d="M56.9083,-161.881C27.8985,-137.267 -20.6762,-88.0645 10.0777,-56 45.937,-18.6126 825.016,-12.2375 1035.86,-11.1957"/>
<polygon fill="midnightblue" stroke="midnightblue" points="54.8891,-164.753 64.8321,-168.412 59.341,-159.351 54.8891,-164.753"/>
</g>
<!-- Node2&#45;&gt;Node3 -->
<g id="edge2" class="edge"><title>Node2&#45;&gt;Node3</title>
<path fill="none" stroke="midnightblue" d="M807.309,-118.878C685.322,-114.008 389.203,-100.517 142.078,-76 139.086,-75.7032 136.021,-75.3738 132.928,-75.0215"/>
<polygon fill="midnightblue" stroke="midnightblue" points="807.395,-122.384 817.525,-119.282 807.672,-115.39 807.395,-122.384"/>
</g>
<!-- Node4 -->
<g id="node4" class="node"><title>Node4</title>
<g id="a_node4"><a xlink:href="../../db/d11/torchttpserverlistener_8h.html" target="_top" xlink:title="torchttpserverlistener.h">
<polygon fill="white" stroke="black" points="1398.08,-56.5 1398.08,-75.5 1526.08,-75.5 1526.08,-56.5 1398.08,-56.5"/>
<text text-anchor="middle" x="1462.08" y="-63.5" font-family="Helvetica,sans-Serif" font-size="10.00">torchttpserverlistener.h</text>
</a>
</g>
</g>
<!-- Node2&#45;&gt;Node4 -->
<g id="edge3" class="edge"><title>Node2&#45;&gt;Node4</title>
<path fill="none" stroke="midnightblue" d="M920.596,-116.421C1015.64,-109.01 1213.06,-93.447 1380.08,-76 1385.79,-75.403 1391.75,-74.7377 1397.75,-74.0467"/>
<polygon fill="midnightblue" stroke="midnightblue" points="920.319,-112.932 910.622,-117.198 920.863,-119.91 920.319,-112.932"/>
</g>
<!-- Node6 -->
<g id="node6" class="node"><title>Node6</title>
<g id="a_node6"><a xlink:href="../../d6/dda/torchtmlstaticcontent_8cpp.html" target="_top" xlink:title="torchtmlstaticcontent.cpp">
<polygon fill="white" stroke="black" points="1240.08,-56.5 1240.08,-75.5 1380.08,-75.5 1380.08,-56.5 1240.08,-56.5"/>
<text text-anchor="middle" x="1310.08" y="-63.5" font-family="Helvetica,sans-Serif" font-size="10.00">torchtmlstaticcontent.cpp</text>
</a>
</g>
</g>
<!-- Node2&#45;&gt;Node6 -->
<g id="edge6" class="edge"><title>Node2&#45;&gt;Node6</title>
<path fill="none" stroke="midnightblue" d="M921.017,-114.106C1002.35,-104.258 1151.68,-86.1787 1239.79,-75.5102"/>
<polygon fill="midnightblue" stroke="midnightblue" points="920.471,-110.646 910.965,-115.323 921.313,-117.596 920.471,-110.646"/>
</g>
<!-- Node7 -->
<g id="node7" class="node"><title>Node7</title>
<g id="a_node7"><a xlink:href="../../d1/d87/torchttphandler_8cpp.html" target="_top" xlink:title="torchttphandler.cpp">
<polygon fill="white" stroke="black" points="151.078,-56.5 151.078,-75.5 261.078,-75.5 261.078,-56.5 151.078,-56.5"/>
<text text-anchor="middle" x="206.078" y="-63.5" font-family="Helvetica,sans-Serif" font-size="10.00">torchttphandler.cpp</text>
</a>
</g>
</g>
<!-- Node2&#45;&gt;Node7 -->
<g id="edge7" class="edge"><title>Node2&#45;&gt;Node7</title>
<path fill="none" stroke="midnightblue" d="M807.252,-117.911C701.385,-111.886 466.855,-97.2675 270.078,-76 267.177,-75.6865 264.206,-75.3439 261.208,-74.9813"/>
<polygon fill="midnightblue" stroke="midnightblue" points="807.212,-121.414 817.393,-118.484 807.607,-114.425 807.212,-121.414"/>
</g>
<!-- Node8 -->
<g id="node8" class="node"><title>Node8</title>
<g id="a_node8"><a xlink:href="../../d6/da3/torchttprequest_8cpp.html" target="_top" xlink:title="torchttprequest.cpp">
<polygon fill="white" stroke="black" points="279.078,-56.5 279.078,-75.5 391.078,-75.5 391.078,-56.5 279.078,-56.5"/>
<text text-anchor="middle" x="335.078" y="-63.5" font-family="Helvetica,sans-Serif" font-size="10.00">torchttprequest.cpp</text>
</a>
</g>
</g>
<!-- Node2&#45;&gt;Node8 -->
<g id="edge8" class="edge"><title>Node2&#45;&gt;Node8</title>
<path fill="none" stroke="midnightblue" d="M807.259,-116.244C719.709,-108.745 546.595,-93.241 400.078,-76 397.136,-75.6538 394.121,-75.2852 391.079,-74.9021"/>
<polygon fill="midnightblue" stroke="midnightblue" points="806.988,-119.733 817.249,-117.096 807.583,-112.758 806.988,-119.733"/>
</g>
<!-- Node2&#45;&gt;Node9 -->
<g id="edge9" class="edge"><title>Node2&#45;&gt;Node9</title>
<path fill="none" stroke="midnightblue" d="M921.176,-114.859C973.837,-108.079 1046.95,-95.4727 1068.08,-76 1084.23,-61.116 1087.47,-33.5473 1088.03,-19.5835"/>
<polygon fill="midnightblue" stroke="midnightblue" points="920.427,-111.425 910.938,-116.138 921.295,-118.371 920.427,-111.425"/>
</g>
<!-- Node10 -->
<g id="node10" class="node"><title>Node10</title>
<g id="a_node10"><a xlink:href="../../d1/d77/torchttpservice_8cpp.html" target="_top" xlink:title="torchttpservice.cpp">
<polygon fill="white" stroke="black" points="409.578,-56.5 409.578,-75.5 518.578,-75.5 518.578,-56.5 409.578,-56.5"/>
<text text-anchor="middle" x="464.078" y="-63.5" font-family="Helvetica,sans-Serif" font-size="10.00">torchttpservice.cpp</text>
</a>
</g>
</g>
<!-- Node2&#45;&gt;Node10 -->
<g id="edge10" class="edge"><title>Node2&#45;&gt;Node10</title>
<path fill="none" stroke="midnightblue" d="M807.003,-113.472C740.142,-104.627 626.041,-89.4479 528.078,-76 525.076,-75.588 521.996,-75.1628 518.887,-74.7317"/>
<polygon fill="midnightblue" stroke="midnightblue" points="806.946,-116.995 817.319,-114.836 807.864,-110.056 806.946,-116.995"/>
</g>
<!-- Node11 -->
<g id="node11" class="node"><title>Node11</title>
<g id="a_node11"><a xlink:href="../../da/d1a/torchttpservices_8cpp.html" target="_top" xlink:title="torchttpservices.cpp">
<polygon fill="white" stroke="black" points="537.078,-56.5 537.078,-75.5 651.078,-75.5 651.078,-56.5 537.078,-56.5"/>
<text text-anchor="middle" x="594.078" y="-63.5" font-family="Helvetica,sans-Serif" font-size="10.00">torchttpservices.cpp</text>
</a>
</g>
</g>
<!-- Node2&#45;&gt;Node11 -->
<g id="edge11" class="edge"><title>Node2&#45;&gt;Node11</title>
<path fill="none" stroke="midnightblue" d="M811.445,-110.473C760.417,-100.268 683.975,-84.9794 636.66,-75.5164"/>
<polygon fill="midnightblue" stroke="midnightblue" points="810.803,-113.914 821.295,-112.444 812.176,-107.05 810.803,-113.914"/>
</g>
<!-- Node12 -->
<g id="node12" class="node"><title>Node12</title>
<g id="a_node12"><a xlink:href="../../db/d78/torcwebsocket_8cpp.html" target="_top" xlink:title="torcwebsocket.cpp">
<polygon fill="white" stroke="black" points="669.078,-56.5 669.078,-75.5 775.078,-75.5 775.078,-56.5 669.078,-56.5"/>
<text text-anchor="middle" x="722.078" y="-63.5" font-family="Helvetica,sans-Serif" font-size="10.00">torcwebsocket.cpp</text>
</a>
</g>
</g>
<!-- Node2&#45;&gt;Node12 -->
<g id="edge12" class="edge"><title>Node2&#45;&gt;Node12</title>
<path fill="none" stroke="midnightblue" d="M831.923,-108.772C805.249,-98.6287 768.009,-84.4669 744.473,-75.5164"/>
<polygon fill="midnightblue" stroke="midnightblue" points="830.986,-112.16 841.577,-112.444 833.475,-105.618 830.986,-112.16"/>
</g>
<!-- Node13 -->
<g id="node13" class="node"><title>Node13</title>
<g id="a_node13"><a xlink:href="../../de/d48/torcnetworkedcontext_8cpp.html" target="_top" xlink:title="torcnetworkedcontext.cpp">
<polygon fill="white" stroke="black" points="793.578,-56.5 793.578,-75.5 934.578,-75.5 934.578,-56.5 793.578,-56.5"/>
<text text-anchor="middle" x="864.078" y="-63.5" font-family="Helvetica,sans-Serif" font-size="10.00">torcnetworkedcontext.cpp</text>
</a>
</g>
</g>
<!-- Node2&#45;&gt;Node13 -->
<g id="edge13" class="edge"><title>Node2&#45;&gt;Node13</title>
<path fill="none" stroke="midnightblue" d="M864.078,-101.805C864.078,-92.9102 864.078,-82.7798 864.078,-75.7511"/>
<polygon fill="midnightblue" stroke="midnightblue" points="860.578,-102.083 864.078,-112.083 867.578,-102.083 860.578,-102.083"/>
</g>
<!-- Node14 -->
<g id="node14" class="node"><title>Node14</title>
<g id="a_node14"><a xlink:href="../../d0/d89/torcrpcrequest_8cpp.html" target="_top" xlink:title="torcrpcrequest.cpp">
<polygon fill="white" stroke="black" points="952.578,-56.5 952.578,-75.5 1059.58,-75.5 1059.58,-56.5 952.578,-56.5"/>
<text text-anchor="middle" x="1006.08" y="-63.5" font-family="Helvetica,sans-Serif" font-size="10.00">torcrpcrequest.cpp</text>
</a>
</g>
</g>
<!-- Node2&#45;&gt;Node14 -->
<g id="edge14" class="edge"><title>Node2&#45;&gt;Node14</title>
<path fill="none" stroke="midnightblue" d="M896.233,-108.772C922.906,-98.6287 960.146,-84.4669 983.683,-75.5164"/>
<polygon fill="midnightblue" stroke="midnightblue" points="894.681,-105.618 886.578,-112.444 897.169,-112.16 894.681,-105.618"/>
</g>
<!-- Node15 -->
<g id="node15" class="node"><title>Node15</title>
<g id="a_node15"><a xlink:href="../../d9/de1/torcssdp_8cpp.html" target="_top" xlink:title="torcssdp.cpp">
<polygon fill="white" stroke="black" points="1165.08,-0.5 1165.08,-19.5 1243.08,-19.5 1243.08,-0.5 1165.08,-0.5"/>
<text text-anchor="middle" x="1204.08" y="-7.5" font-family="Helvetica,sans-Serif" font-size="10.00">torcssdp.cpp</text>
</a>
</g>
</g>
<!-- Node2&#45;&gt;Node15 -->
<g id="edge15" class="edge"><title>Node2&#45;&gt;Node15</title>
<path fill="none" stroke="midnightblue" d="M920.761,-120.951C1004.17,-119.639 1154.22,-112.151 1192.08,-76 1207.52,-61.2601 1206.85,-33.6261 1205.34,-19.6158"/>
<polygon fill="midnightblue" stroke="midnightblue" points="920.637,-117.453 910.684,-121.085 920.73,-124.452 920.637,-117.453"/>
</g>
<!-- Node16 -->
<g id="node16" class="node"><title>Node16</title>
<g id="a_node16"><a xlink:href="../../dd/d3e/torcssdp_8h.html" target="_top" xlink:title="torcssdp.h">
<polygon fill="white" stroke="black" points="1116.58,-56.5 1116.58,-75.5 1183.58,-75.5 1183.58,-56.5 1116.58,-56.5"/>
<text text-anchor="middle" x="1150.08" y="-63.5" font-family="Helvetica,sans-Serif" font-size="10.00">torcssdp.h</text>
</a>
</g>
</g>
<!-- Node2&#45;&gt;Node16 -->
<g id="edge16" class="edge"><title>Node2&#45;&gt;Node16</title>
<path fill="none" stroke="midnightblue" d="M919.537,-110.529C977.82,-99.5241 1067.64,-82.5653 1116.17,-73.4026"/>
<polygon fill="midnightblue" stroke="midnightblue" points="918.572,-107.149 909.395,-112.444 919.871,-114.027 918.572,-107.149"/>
</g>
<!-- Node4&#45;&gt;Node2 -->
<g id="edge4" class="edge"><title>Node4&#45;&gt;Node2</title>
<path fill="none" stroke="midnightblue" d="M1392.69,-76.5487C1210.9,-95.3436 1002.34,-111.44 910.864,-117.94"/>
<polygon fill="midnightblue" stroke="midnightblue" points="1393.11,-80.0238 1402.7,-75.5086 1392.39,-73.0614 1393.11,-80.0238"/>
</g>
<!-- Node5 -->
<g id="node5" class="node"><title>Node5</title>
<g id="a_node5"><a xlink:href="../../de/d4e/torchttpserverlistener_8cpp.html" target="_top" xlink:title="torchttpserverlistener.cpp">
<polygon fill="white" stroke="black" points="1392.08,-0.5 1392.08,-19.5 1532.08,-19.5 1532.08,-0.5 1392.08,-0.5"/>
<text text-anchor="middle" x="1462.08" y="-7.5" font-family="Helvetica,sans-Serif" font-size="10.00">torchttpserverlistener.cpp</text>
</a>
</g>
</g>
<!-- Node4&#45;&gt;Node5 -->
<g id="edge5" class="edge"><title>Node4&#45;&gt;Node5</title>
<path fill="none" stroke="midnightblue" d="M1462.08,-45.8045C1462.08,-36.9102 1462.08,-26.7798 1462.08,-19.7511"/>
<polygon fill="midnightblue" stroke="midnightblue" points="1458.58,-46.083 1462.08,-56.083 1465.58,-46.083 1458.58,-46.083"/>
</g>
<!-- Node16&#45;&gt;Node9 -->
<g id="edge17" class="edge"><title>Node16&#45;&gt;Node9</title>
<path fill="none" stroke="midnightblue" d="M1132.32,-49.5372C1121.27,-39.9087 1107.45,-27.8694 1098.22,-19.8339"/>
<polygon fill="midnightblue" stroke="midnightblue" points="1130.28,-52.3954 1140.12,-56.324 1134.87,-47.1168 1130.28,-52.3954"/>
</g>
<!-- Node16&#45;&gt;Node15 -->
<g id="edge18" class="edge"><title>Node16&#45;&gt;Node15</title>
<path fill="none" stroke="midnightblue" d="M1166.08,-49.0024C1175.64,-39.4329 1187.44,-27.6389 1195.33,-19.7511"/>
<polygon fill="midnightblue" stroke="midnightblue" points="1163.59,-46.537 1158.99,-56.083 1168.54,-51.4868 1163.59,-46.537"/>
</g>
</g>
</svg>
