<?xml version="1.0" encoding="UTF-8" standalone="no"?>
<!DOCTYPE svg PUBLIC "-//W3C//DTD SVG 1.1//EN"
 "http://www.w3.org/Graphics/SVG/1.1/DTD/svg11.dtd">
<!-- Generated by graphviz version 2.38.0 (20140413.2041)
 -->
<!-- Title: torcswitchoutput.h Pages: 1 -->
<svg width="908pt" height="196pt"
 viewBox="0.00 0.00 907.50 196.00" xmlns="http://www.w3.org/2000/svg" xmlns:xlink="http://www.w3.org/1999/xlink">
<g id="graph0" class="graph" transform="scale(1 1) rotate(0) translate(4 192)">
<title>torcswitchoutput.h</title>
<polygon fill="white" stroke="none" points="-4,4 -4,-192 903.5,-192 903.5,4 -4,4"/>
<!-- Node1 -->
<g id="node1" class="node"><title>Node1</title>
<polygon fill="#bfbfbf" stroke="black" points="554,-168.5 554,-187.5 659,-187.5 659,-168.5 554,-168.5"/>
<text text-anchor="middle" x="606.5" y="-175.5" font-family="Helvetica,sans-Serif" font-size="10.00">torcswitchoutput.h</text>
</g>
<!-- Node2 -->
<g id="node2" class="node"><title>Node2</title>
<g id="a_node2"><a xlink:href="../../d9/dc5/torcpiswitchoutput_8h.html" target="_top" xlink:title="torcpiswitchoutput.h">
<polygon fill="white" stroke="black" points="380,-112.5 380,-131.5 493,-131.5 493,-112.5 380,-112.5"/>
<text text-anchor="middle" x="436.5" y="-119.5" font-family="Helvetica,sans-Serif" font-size="10.00">torcpiswitchoutput.h</text>
</a>
</g>
</g>
<!-- Node1&#45;&gt;Node2 -->
<g id="edge1" class="edge"><title>Node1&#45;&gt;Node2</title>
<path fill="none" stroke="midnightblue" d="M569.681,-165.304C537.648,-155.129 491.985,-140.625 463.311,-131.516"/>
<polygon fill="midnightblue" stroke="midnightblue" points="568.973,-168.752 579.563,-168.444 571.092,-162.08 568.973,-168.752"/>
</g>
<!-- Node8 -->
<g id="node8" class="node"><title>Node8</title>
<g id="a_node8"><a xlink:href="../../d2/d9b/torcnetworkswitchoutput_8h.html" target="_top" xlink:title="torcnetworkswitchoutput.h">
<polygon fill="white" stroke="black" points="535,-112.5 535,-131.5 678,-131.5 678,-112.5 535,-112.5"/>
<text text-anchor="middle" x="606.5" y="-119.5" font-family="Helvetica,sans-Serif" font-size="10.00">torcnetworkswitchoutput.h</text>
</a>
</g>
</g>
<!-- Node1&#45;&gt;Node8 -->
<g id="edge8" class="edge"><title>Node1&#45;&gt;Node8</title>
<path fill="none" stroke="midnightblue" d="M606.5,-157.805C606.5,-148.91 606.5,-138.78 606.5,-131.751"/>
<polygon fill="midnightblue" stroke="midnightblue" points="603,-158.083 606.5,-168.083 610,-158.083 603,-158.083"/>
</g>
<!-- Node13 -->
<g id="node13" class="node"><title>Node13</title>
<g id="a_node13"><a xlink:href="../../d2/d94/torcswitchoutput_8cpp.html" target="_top" xlink:title="torcswitchoutput.cpp">
<polygon fill="white" stroke="black" points="696.5,-112.5 696.5,-131.5 812.5,-131.5 812.5,-112.5 696.5,-112.5"/>
<text text-anchor="middle" x="754.5" y="-119.5" font-family="Helvetica,sans-Serif" font-size="10.00">torcswitchoutput.cpp</text>
</a>
</g>
</g>
<!-- Node1&#45;&gt;Node13 -->
<g id="edge14" class="edge"><title>Node1&#45;&gt;Node13</title>
<path fill="none" stroke="midnightblue" d="M639.647,-164.906C667.472,-154.754 706.52,-140.506 731.159,-131.516"/>
<polygon fill="midnightblue" stroke="midnightblue" points="638.146,-161.728 629.951,-168.444 640.545,-168.304 638.146,-161.728"/>
</g>
<!-- Node3 -->
<g id="node3" class="node"><title>Node3</title>
<g id="a_node3"><a xlink:href="../../d4/de1/torcpigpio_8h.html" target="_top" xlink:title="torcpigpio.h">
<polygon fill="white" stroke="black" points="260,-56.5 260,-75.5 333,-75.5 333,-56.5 260,-56.5"/>
<text text-anchor="middle" x="296.5" y="-63.5" font-family="Helvetica,sans-Serif" font-size="10.00">torcpigpio.h</text>
</a>
</g>
</g>
<!-- Node2&#45;&gt;Node3 -->
<g id="edge2" class="edge"><title>Node2&#45;&gt;Node3</title>
<path fill="none" stroke="midnightblue" d="M404.798,-108.772C378.5,-98.6287 341.784,-84.4669 318.58,-75.5164"/>
<polygon fill="midnightblue" stroke="midnightblue" points="403.727,-112.11 414.317,-112.444 406.246,-105.579 403.727,-112.11"/>
</g>
<!-- Node7 -->
<g id="node7" class="node"><title>Node7</title>
<g id="a_node7"><a xlink:href="../../d2/de8/torcpiswitchoutput_8cpp.html" target="_top" xlink:title="torcpiswitchoutput.cpp">
<polygon fill="white" stroke="black" points="374,-0.5 374,-19.5 499,-19.5 499,-0.5 374,-0.5"/>
<text text-anchor="middle" x="436.5" y="-7.5" font-family="Helvetica,sans-Serif" font-size="10.00">torcpiswitchoutput.cpp</text>
</a>
</g>
</g>
<!-- Node2&#45;&gt;Node7 -->
<g id="edge7" class="edge"><title>Node2&#45;&gt;Node7</title>
<path fill="none" stroke="midnightblue" d="M436.5,-102.348C436.5,-78.2538 436.5,-37.3079 436.5,-19.5914"/>
<polygon fill="midnightblue" stroke="midnightblue" points="433,-102.368 436.5,-112.368 440,-102.369 433,-102.368"/>
</g>
<!-- Node4 -->
<g id="node4" class="node"><title>Node4</title>
<g id="a_node4"><a xlink:href="../../dd/df5/torcpiswitchinput_8cpp.html" target="_top" xlink:title="torcpiswitchinput.cpp">
<polygon fill="white" stroke="black" points="0,-0.5 0,-19.5 117,-19.5 117,-0.5 0,-0.5"/>
<text text-anchor="middle" x="58.5" y="-7.5" font-family="Helvetica,sans-Serif" font-size="10.00">torcpiswitchinput.cpp</text>
</a>
</g>
</g>
<!-- Node3&#45;&gt;Node4 -->
<g id="edge3" class="edge"><title>Node3&#45;&gt;Node4</title>
<path fill="none" stroke="midnightblue" d="M250.03,-54.4563C205.034,-44.2473 137.674,-28.9639 95.9934,-19.5069"/>
<polygon fill="midnightblue" stroke="midnightblue" points="249.307,-57.8813 259.834,-56.6808 250.856,-51.0548 249.307,-57.8813"/>
</g>
<!-- Node5 -->
<g id="node5" class="node"><title>Node5</title>
<g id="a_node5"><a xlink:href="../../da/d84/torcpigpio_8cpp.html" target="_top" xlink:title="torcpigpio.cpp">
<polygon fill="white" stroke="black" points="135.5,-0.5 135.5,-19.5 219.5,-19.5 219.5,-0.5 135.5,-0.5"/>
<text text-anchor="middle" x="177.5" y="-7.5" font-family="Helvetica,sans-Serif" font-size="10.00">torcpigpio.cpp</text>
</a>
</g>
</g>
<!-- Node3&#45;&gt;Node5 -->
<g id="edge4" class="edge"><title>Node3&#45;&gt;Node5</title>
<path fill="none" stroke="midnightblue" d="M268.363,-52.2321C246.104,-42.1312 215.644,-28.3091 196.268,-19.5164"/>
<polygon fill="midnightblue" stroke="midnightblue" points="267.091,-55.4984 277.644,-56.4435 269.984,-49.124 267.091,-55.4984"/>
</g>
<!-- Node6 -->
<g id="node6" class="node"><title>Node6</title>
<g id="a_node6"><a xlink:href="../../d1/d80/torcpipwmoutput_8cpp.html" target="_top" xlink:title="torcpipwmoutput.cpp">
<polygon fill="white" stroke="black" points="237.5,-0.5 237.5,-19.5 355.5,-19.5 355.5,-0.5 237.5,-0.5"/>
<text text-anchor="middle" x="296.5" y="-7.5" font-family="Helvetica,sans-Serif" font-size="10.00">torcpipwmoutput.cpp</text>
</a>
</g>
</g>
<!-- Node3&#45;&gt;Node6 -->
<g id="edge5" class="edge"><title>Node3&#45;&gt;Node6</title>
<path fill="none" stroke="midnightblue" d="M296.5,-45.8045C296.5,-36.9102 296.5,-26.7798 296.5,-19.7511"/>
<polygon fill="midnightblue" stroke="midnightblue" points="293,-46.083 296.5,-56.083 300,-46.083 293,-46.083"/>
</g>
<!-- Node3&#45;&gt;Node7 -->
<g id="edge6" class="edge"><title>Node3&#45;&gt;Node7</title>
<path fill="none" stroke="midnightblue" d="M328.202,-52.772C354.5,-42.6287 391.216,-28.4669 414.42,-19.5164"/>
<polygon fill="midnightblue" stroke="midnightblue" points="326.754,-49.5792 318.683,-56.4435 329.273,-56.1103 326.754,-49.5792"/>
</g>
<!-- Node9 -->
<g id="node9" class="node"><title>Node9</title>
<g id="a_node9"><a xlink:href="../../df/dc7/torcnetworkinputs_8cpp.html" target="_top" xlink:title="torcnetworkinputs.cpp">
<polygon fill="white" stroke="black" points="517.5,-0.5 517.5,-19.5 639.5,-19.5 639.5,-0.5 517.5,-0.5"/>
<text text-anchor="middle" x="578.5" y="-7.5" font-family="Helvetica,sans-Serif" font-size="10.00">torcnetworkinputs.cpp</text>
</a>
</g>
</g>
<!-- Node8&#45;&gt;Node9 -->
<g id="edge9" class="edge"><title>Node8&#45;&gt;Node9</title>
<path fill="none" stroke="midnightblue" d="M590.317,-104.962C583.403,-96.9796 576.104,-86.7488 572.5,-76 566.015,-56.6594 571.616,-32.3815 575.513,-19.6711"/>
<polygon fill="midnightblue" stroke="midnightblue" points="587.845,-107.444 597.212,-112.395 592.977,-102.683 587.845,-107.444"/>
</g>
<!-- Node10 -->
<g id="node10" class="node"><title>Node10</title>
<g id="a_node10"><a xlink:href="../../d0/d55/torcnetworkbuttonoutput_8h.html" target="_top" xlink:title="torcnetworkbuttonoutput.h">
<polygon fill="white" stroke="black" points="582,-56.5 582,-75.5 727,-75.5 727,-56.5 582,-56.5"/>
<text text-anchor="middle" x="654.5" y="-63.5" font-family="Helvetica,sans-Serif" font-size="10.00">torcnetworkbuttonoutput.h</text>
</a>
</g>
</g>
<!-- Node8&#45;&gt;Node10 -->
<g id="edge10" class="edge"><title>Node8&#45;&gt;Node10</title>
<path fill="none" stroke="midnightblue" d="M621.228,-104.431C629.64,-94.9673 639.849,-83.4827 646.721,-75.7511"/>
<polygon fill="midnightblue" stroke="midnightblue" points="618.454,-102.284 614.426,-112.083 623.686,-106.934 618.454,-102.284"/>
</g>
<!-- Node12 -->
<g id="node12" class="node"><title>Node12</title>
<g id="a_node12"><a xlink:href="../../d3/df9/torcnetworkswitchoutput_8cpp.html" target="_top" xlink:title="torcnetworkswitchoutput.cpp">
<polygon fill="white" stroke="black" points="745.5,-56.5 745.5,-75.5 899.5,-75.5 899.5,-56.5 745.5,-56.5"/>
<text text-anchor="middle" x="822.5" y="-63.5" font-family="Helvetica,sans-Serif" font-size="10.00">torcnetworkswitchoutput.cpp</text>
</a>
</g>
</g>
<!-- Node8&#45;&gt;Node12 -->
<g id="edge13" class="edge"><title>Node8&#45;&gt;Node12</title>
<path fill="none" stroke="midnightblue" d="M650.664,-109.959C691.461,-99.7598 751.213,-84.8217 788.434,-75.5164"/>
<polygon fill="midnightblue" stroke="midnightblue" points="649.578,-106.623 640.726,-112.444 651.276,-113.414 649.578,-106.623"/>
</g>
<!-- Node10&#45;&gt;Node9 -->
<g id="edge11" class="edge"><title>Node10&#45;&gt;Node9</title>
<path fill="none" stroke="midnightblue" d="M633.924,-50.3804C620.188,-40.6204 602.575,-28.1057 590.933,-19.8339"/>
<polygon fill="midnightblue" stroke="midnightblue" points="632.11,-53.385 642.289,-56.324 636.165,-47.6787 632.11,-53.385"/>
</g>
<!-- Node11 -->
<g id="node11" class="node"><title>Node11</title>
<g id="a_node11"><a xlink:href="../../df/d6d/torcnetworkbuttonoutput_8cpp.html" target="_top" xlink:title="torcnetworkbuttonoutput.cpp">
<polygon fill="white" stroke="black" points="657.5,-0.5 657.5,-19.5 813.5,-19.5 813.5,-0.5 657.5,-0.5"/>
<text text-anchor="middle" x="735.5" y="-7.5" font-family="Helvetica,sans-Serif" font-size="10.00">torcnetworkbuttonoutput.cpp</text>
</a>
</g>
</g>
<!-- Node10&#45;&gt;Node11 -->
<g id="edge12" class="edge"><title>Node10&#45;&gt;Node11</title>
<path fill="none" stroke="midnightblue" d="M676.067,-50.6221C690.864,-40.7574 710.012,-27.9919 722.518,-19.6545"/>
<polygon fill="midnightblue" stroke="midnightblue" points="673.893,-47.8647 667.514,-56.324 677.776,-53.6891 673.893,-47.8647"/>
</g>
</g>
</svg>
