<?xml version="1.0" encoding="UTF-8" standalone="no"?>
<!DOCTYPE svg PUBLIC "-//W3C//DTD SVG 1.1//EN"
 "http://www.w3.org/Graphics/SVG/1.1/DTD/svg11.dtd">
<!-- Generated by graphviz version 2.38.0 (20140413.2041)
 -->
<!-- Title: torcpower.h Pages: 1 -->
<!--zoomable 364 -->
<svg id="main" version="1.1" xmlns="http://www.w3.org/2000/svg" xmlns:xlink="http://www.w3.org/1999/xlink" xml:space="preserve" onload="init(evt)">
<style type="text/css"><![CDATA[
.edge:hover path { stroke: red; }
.edge:hover polygon { stroke: red; fill: red; }
]]></style>
<script type="text/javascript"><![CDATA[
var edges = document.getElementsByTagName('g');
if (edges && edges.length) {
  for (var i=0;i<edges.length;i++) {
    if (edges[i].id.substr(0,4)=='edge') {
      edges[i].setAttribute('class','edge');
    }
  }
}
]]></script>
        <defs>
                <circle id="rim" cx="0" cy="0" r="7"/>
                <circle id="rim2" cx="0" cy="0" r="3.5"/>
                <g id="zoomPlus">
                        <use xlink:href="#rim" fill="#404040">
                                <set attributeName="fill" to="#808080" begin="zoomplus.mouseover" end="zoomplus.mouseout"/>
                        </use>
                        <path d="M-4,0h8M0,-4v8" fill="none" stroke="white" stroke-width="1.5" pointer-events="none"/>
                </g>
                <g id="zoomMin">
                        <use xlink:href="#rim" fill="#404040">
                                <set attributeName="fill" to="#808080" begin="zoomminus.mouseover" end="zoomminus.mouseout"/>
                        </use>
                        <path d="M-4,0h8" fill="none" stroke="white" stroke-width="1.5" pointer-events="none"/>
                </g>
                <g id="dirArrow">
                        <path fill="none" stroke="white" stroke-width="1.5" d="M0,-3.0v7 M-2.5,-0.5L0,-3.0L2.5,-0.5"/>
                </g>
               <g id="resetDef">
                       <use xlink:href="#rim2" fill="#404040">
                               <set attributeName="fill" to="#808080" begin="reset.mouseover" end="reset.mouseout"/>
                       </use>
               </g>
        </defs>

<script type="text/javascript">
var viewWidth = 919;
var viewHeight = 364;
var sectionId = 'dynsection-0';
</script>
<script xlink:href="../../svgpan.js"/>
<svg id="graph" class="graph">
<g id="viewport">
<title>torcpower.h</title>
<polygon fill="white" stroke="none" points="-4,4 -4,-360 914.5,-360 914.5,4 -4,4"/>
<!-- Node1 -->
<g id="node1" class="node"><title>Node1</title>
<polygon fill="#bfbfbf" stroke="black" points="410.5,-336.5 410.5,-355.5 482.5,-355.5 482.5,-336.5 410.5,-336.5"/>
<text text-anchor="middle" x="446.5" y="-343.5" font-family="Helvetica,sans-Serif" font-size="10.00">torcpower.h</text>
</g>
<!-- Node2 -->
<g id="node2" class="node"><title>Node2</title>
<polygon fill="white" stroke="#bfbfbf" points="0,-224.5 0,-243.5 55,-243.5 55,-224.5 0,-224.5"/>
<text text-anchor="middle" x="27.5" y="-231.5" font-family="Helvetica,sans-Serif" font-size="10.00">QObject</text>
</g>
<!-- Node1&#45;&gt;Node2 -->
<g id="edge1" class="edge"><title>Node1&#45;&gt;Node2</title>
<path fill="none" stroke="midnightblue" d="M413.97,-336.46C337.448,-316.371 146.383,-266.21 65.0784,-244.865"/>
<polygon fill="midnightblue" stroke="midnightblue" points="65.8271,-241.443 55.2661,-242.289 64.0496,-248.214 65.8271,-241.443"/>
</g>
<!-- Node3 -->
<g id="node3" class="node"><title>Node3</title>
<polygon fill="white" stroke="#bfbfbf" points="439,-168.5 439,-187.5 492,-187.5 492,-168.5 439,-168.5"/>
<text text-anchor="middle" x="465.5" y="-175.5" font-family="Helvetica,sans-Serif" font-size="10.00">QMutex</text>
</g>
<!-- Node1&#45;&gt;Node3 -->
<g id="edge2" class="edge"><title>Node1&#45;&gt;Node3</title>
<path fill="none" stroke="midnightblue" d="M459.917,-336.417C482.48,-321.084 527.243,-286.568 544.5,-244 547.84,-235.762 548.967,-231.685 544.5,-224 535.238,-208.065 517.99,-197.305 501.968,-190.314"/>
<polygon fill="midnightblue" stroke="midnightblue" points="502.818,-186.885 492.232,-186.435 500.227,-193.388 502.818,-186.885"/>
</g>
<!-- Node4 -->
<g id="node4" class="node"><title>Node4</title>
<g id="a_node4"><a xlink:href="../../db/df5/torcsetting_8h.html" target="_top" xlink:title="torcsetting.h">
<polygon fill="white" stroke="black" points="291,-280.5 291,-299.5 368,-299.5 368,-280.5 291,-280.5"/>
<text text-anchor="middle" x="329.5" y="-287.5" font-family="Helvetica,sans-Serif" font-size="10.00">torcsetting.h</text>
</a>
</g>
</g>
<!-- Node1&#45;&gt;Node4 -->
<g id="edge3" class="edge"><title>Node1&#45;&gt;Node4</title>
<path fill="none" stroke="midnightblue" d="M427.961,-336.444C408.877,-327.636 378.925,-313.812 357.064,-303.722"/>
<polygon fill="midnightblue" stroke="midnightblue" points="358.499,-300.529 347.952,-299.516 355.565,-306.885 358.499,-300.529"/>
</g>
<!-- Node9 -->
<g id="node9" class="node"><title>Node9</title>
<g id="a_node9"><a xlink:href="../../d3/dee/torchttpservice_8h.html" target="_top" xlink:title="torchttpservice.h">
<polygon fill="white" stroke="black" points="608.5,-224.5 608.5,-243.5 706.5,-243.5 706.5,-224.5 608.5,-224.5"/>
<text text-anchor="middle" x="657.5" y="-231.5" font-family="Helvetica,sans-Serif" font-size="10.00">torchttpservice.h</text>
</a>
</g>
</g>
<!-- Node1&#45;&gt;Node9 -->
<g id="edge28" class="edge"><title>Node1&#45;&gt;Node9</title>
<path fill="none" stroke="midnightblue" d="M481.832,-336.498C509.033,-329.108 547.011,-316.919 577.5,-300 601.793,-286.52 626.043,-265.484 641.368,-251.015"/>
<polygon fill="midnightblue" stroke="midnightblue" points="644.141,-253.203 648.908,-243.741 639.281,-248.165 644.141,-253.203"/>
</g>
<!-- Node4&#45;&gt;Node2 -->
<g id="edge6" class="edge"><title>Node4&#45;&gt;Node2</title>
<path fill="none" stroke="midnightblue" d="M290.557,-283.378C240.499,-275.939 150.707,-261.881 65.2209,-244.246"/>
<polygon fill="midnightblue" stroke="midnightblue" points="65.8626,-240.804 55.3589,-242.191 64.4347,-247.657 65.8626,-240.804"/>
</g>
<!-- Node5 -->
<g id="node5" class="node"><title>Node5</title>
<polygon fill="white" stroke="#bfbfbf" points="160,-224.5 160,-243.5 201,-243.5 201,-224.5 160,-224.5"/>
<text text-anchor="middle" x="180.5" y="-231.5" font-family="Helvetica,sans-Serif" font-size="10.00">QSet</text>
</g>
<!-- Node4&#45;&gt;Node5 -->
<g id="edge4" class="edge"><title>Node4&#45;&gt;Node5</title>
<path fill="none" stroke="midnightblue" d="M305.891,-280.444C280.165,-271.12 238.932,-256.177 210.827,-245.991"/>
<polygon fill="midnightblue" stroke="midnightblue" points="211.714,-242.59 201.12,-242.473 209.329,-249.171 211.714,-242.59"/>
</g>
<!-- Node6 -->
<g id="node6" class="node"><title>Node6</title>
<polygon fill="white" stroke="#bfbfbf" points="219.5,-224.5 219.5,-243.5 311.5,-243.5 311.5,-224.5 219.5,-224.5"/>
<text text-anchor="middle" x="265.5" y="-231.5" font-family="Helvetica,sans-Serif" font-size="10.00">QReadWriteLock</text>
</g>
<!-- Node4&#45;&gt;Node6 -->
<g id="edge5" class="edge"><title>Node4&#45;&gt;Node6</title>
<path fill="none" stroke="midnightblue" d="M319.217,-280.324C309.664,-272.263 295.22,-260.077 283.716,-250.369"/>
<polygon fill="midnightblue" stroke="midnightblue" points="285.87,-247.608 275.97,-243.834 281.356,-252.958 285.87,-247.608"/>
</g>
<!-- Node7 -->
<g id="node7" class="node"><title>Node7</title>
<polygon fill="white" stroke="#bfbfbf" points="477.5,-224.5 477.5,-243.5 535.5,-243.5 535.5,-224.5 477.5,-224.5"/>
<text text-anchor="middle" x="506.5" y="-231.5" font-family="Helvetica,sans-Serif" font-size="10.00">QVariant</text>
</g>
<!-- Node4&#45;&gt;Node7 -->
<g id="edge7" class="edge"><title>Node4&#45;&gt;Node7</title>
<path fill="none" stroke="midnightblue" d="M357.546,-280.444C387.582,-271.28 435.413,-256.688 468.743,-246.519"/>
<polygon fill="midnightblue" stroke="midnightblue" points="470.042,-249.782 478.585,-243.516 467.999,-243.087 470.042,-249.782"/>
</g>
<!-- Node8 -->
<g id="node8" class="node"><title>Node8</title>
<polygon fill="white" stroke="#bfbfbf" points="73,-224.5 73,-243.5 142,-243.5 142,-224.5 73,-224.5"/>
<text text-anchor="middle" x="107.5" y="-231.5" font-family="Helvetica,sans-Serif" font-size="10.00">QStringList</text>
</g>
<!-- Node4&#45;&gt;Node8 -->
<g id="edge8" class="edge"><title>Node4&#45;&gt;Node8</title>
<path fill="none" stroke="midnightblue" d="M294.323,-280.444C255.808,-271.075 193.962,-256.031 152.076,-245.843"/>
<polygon fill="midnightblue" stroke="midnightblue" points="152.69,-242.39 142.147,-243.428 151.036,-249.192 152.69,-242.39"/>
</g>
<!-- Node4&#45;&gt;Node9 -->
<g id="edge9" class="edge"><title>Node4&#45;&gt;Node9</title>
<path fill="none" stroke="midnightblue" d="M368.09,-282.647C424.95,-273.286 531.697,-255.711 598.447,-244.722"/>
<polygon fill="midnightblue" stroke="midnightblue" points="599.1,-248.162 608.399,-243.084 597.963,-241.255 599.1,-248.162"/>
</g>
<!-- Node22 -->
<g id="node22" class="node"><title>Node22</title>
<g id="a_node22"><a xlink:href="../../d8/dfe/torcreferencecounted_8h.html" target="_top" xlink:title="torcreferencecounted.h">
<polygon fill="white" stroke="black" points="330,-224.5 330,-243.5 459,-243.5 459,-224.5 330,-224.5"/>
<text text-anchor="middle" x="394.5" y="-231.5" font-family="Helvetica,sans-Serif" font-size="10.00">torcreferencecounted.h</text>
</a>
</g>
</g>
<!-- Node4&#45;&gt;Node22 -->
<g id="edge26" class="edge"><title>Node4&#45;&gt;Node22</title>
<path fill="none" stroke="midnightblue" d="M339.943,-280.324C349.646,-272.263 364.315,-260.077 376,-250.369"/>
<polygon fill="midnightblue" stroke="midnightblue" points="378.411,-252.916 383.867,-243.834 373.938,-247.532 378.411,-252.916"/>
</g>
<!-- Node9&#45;&gt;Node3 -->
<g id="edge11" class="edge"><title>Node9&#45;&gt;Node3</title>
<path fill="none" stroke="midnightblue" d="M627.077,-224.444C593.055,-214.875 537.985,-199.386 501.756,-189.197"/>
<polygon fill="midnightblue" stroke="midnightblue" points="502.645,-185.811 492.071,-186.473 500.75,-192.55 502.645,-185.811"/>
</g>
<!-- Node10 -->
<g id="node10" class="node"><title>Node10</title>
<polygon fill="white" stroke="#bfbfbf" points="866.5,-56.5 866.5,-75.5 910.5,-75.5 910.5,-56.5 866.5,-56.5"/>
<text text-anchor="middle" x="888.5" y="-63.5" font-family="Helvetica,sans-Serif" font-size="10.00">QMap</text>
</g>
<!-- Node9&#45;&gt;Node10 -->
<g id="edge10" class="edge"><title>Node9&#45;&gt;Node10</title>
<path fill="none" stroke="midnightblue" d="M706.699,-226.923C756.189,-219.868 828.024,-206.751 848.5,-188 877.78,-161.187 885.666,-112.511 887.763,-85.7966"/>
<polygon fill="midnightblue" stroke="midnightblue" points="891.274,-85.7092 888.365,-75.5217 884.286,-85.2999 891.274,-85.7092"/>
</g>
<!-- Node11 -->
<g id="node11" class="node"><title>Node11</title>
<polygon fill="white" stroke="#bfbfbf" points="627,-168.5 627,-187.5 706,-187.5 706,-168.5 627,-168.5"/>
<text text-anchor="middle" x="666.5" y="-175.5" font-family="Helvetica,sans-Serif" font-size="10.00">QMetaObject</text>
</g>
<!-- Node9&#45;&gt;Node11 -->
<g id="edge12" class="edge"><title>Node9&#45;&gt;Node11</title>
<path fill="none" stroke="midnightblue" d="M658.986,-224.083C660.179,-216.927 661.894,-206.635 663.385,-197.691"/>
<polygon fill="midnightblue" stroke="midnightblue" points="666.85,-198.19 665.041,-187.751 659.945,-197.04 666.85,-198.19"/>
</g>
<!-- Node12 -->
<g id="node12" class="node"><title>Node12</title>
<polygon fill="white" stroke="#bfbfbf" points="724,-168.5 724,-187.5 823,-187.5 823,-168.5 724,-168.5"/>
<text text-anchor="middle" x="773.5" y="-175.5" font-family="Helvetica,sans-Serif" font-size="10.00">QCoreApplication</text>
</g>
<!-- Node9&#45;&gt;Node12 -->
<g id="edge13" class="edge"><title>Node9&#45;&gt;Node12</title>
<path fill="none" stroke="midnightblue" d="M675.881,-224.444C694.716,-215.675 724.231,-201.935 745.879,-191.858"/>
<polygon fill="midnightblue" stroke="midnightblue" points="747.617,-194.91 755.205,-187.516 744.662,-188.564 747.617,-194.91"/>
</g>
<!-- Node13 -->
<g id="node13" class="node"><title>Node13</title>
<g id="a_node13"><a xlink:href="../../d4/d11/torchttphandler_8h.html" target="_top" xlink:title="torchttphandler.h">
<polygon fill="white" stroke="black" points="510,-168.5 510,-187.5 609,-187.5 609,-168.5 510,-168.5"/>
<text text-anchor="middle" x="559.5" y="-175.5" font-family="Helvetica,sans-Serif" font-size="10.00">torchttphandler.h</text>
</a>
</g>
</g>
<!-- Node9&#45;&gt;Node13 -->
<g id="edge14" class="edge"><title>Node9&#45;&gt;Node13</title>
<path fill="none" stroke="midnightblue" d="M641.755,-224.324C626.181,-215.743 602.123,-202.486 584.041,-192.522"/>
<polygon fill="midnightblue" stroke="midnightblue" points="585.654,-189.415 575.206,-187.655 582.276,-195.546 585.654,-189.415"/>
</g>
<!-- Node16 -->
<g id="node16" class="node"><title>Node16</title>
<g id="a_node16"><a xlink:href="../../df/dd7/torchttprequest_8h.html" target="_top" xlink:title="torchttprequest.h">
<polygon fill="white" stroke="black" points="691,-112.5 691,-131.5 792,-131.5 792,-112.5 691,-112.5"/>
<text text-anchor="middle" x="741.5" y="-119.5" font-family="Helvetica,sans-Serif" font-size="10.00">torchttprequest.h</text>
</a>
</g>
</g>
<!-- Node9&#45;&gt;Node16 -->
<g id="edge25" class="edge"><title>Node9&#45;&gt;Node16</title>
<path fill="none" stroke="midnightblue" d="M706.817,-227.066C753.01,-220.374 817.17,-207.771 832.5,-188 850.667,-164.571 814.782,-145.965 782.865,-134.765"/>
<polygon fill="midnightblue" stroke="midnightblue" points="783.745,-131.369 773.152,-131.529 781.533,-138.01 783.745,-131.369"/>
</g>
<!-- Node14 -->
<g id="node14" class="node"><title>Node14</title>
<polygon fill="white" stroke="#bfbfbf" points="534,-56.5 534,-75.5 587,-75.5 587,-56.5 534,-56.5"/>
<text text-anchor="middle" x="560.5" y="-63.5" font-family="Helvetica,sans-Serif" font-size="10.00">QString</text>
</g>
<!-- Node13&#45;&gt;Node14 -->
<g id="edge15" class="edge"><title>Node13&#45;&gt;Node14</title>
<path fill="none" stroke="midnightblue" d="M559.578,-168.368C559.74,-150.617 560.112,-109.666 560.331,-85.5974"/>
<polygon fill="midnightblue" stroke="midnightblue" points="563.831,-85.6229 560.422,-75.5914 556.831,-85.5592 563.831,-85.6229"/>
</g>
<!-- Node15 -->
<g id="node15" class="node"><title>Node15</title>
<polygon fill="white" stroke="#bfbfbf" points="587.5,-112.5 587.5,-131.5 665.5,-131.5 665.5,-112.5 587.5,-112.5"/>
<text text-anchor="middle" x="626.5" y="-119.5" font-family="Helvetica,sans-Serif" font-size="10.00">QVariantMap</text>
</g>
<!-- Node13&#45;&gt;Node15 -->
<g id="edge16" class="edge"><title>Node13&#45;&gt;Node15</title>
<path fill="none" stroke="midnightblue" d="M570.265,-168.324C580.266,-160.263 595.387,-148.077 607.43,-138.369"/>
<polygon fill="midnightblue" stroke="midnightblue" points="609.95,-140.834 615.539,-131.834 605.557,-135.384 609.95,-140.834"/>
</g>
<!-- Node13&#45;&gt;Node16 -->
<g id="edge17" class="edge"><title>Node13&#45;&gt;Node16</title>
<path fill="none" stroke="midnightblue" d="M588.338,-168.444C619.356,-159.241 668.829,-144.562 703.118,-134.388"/>
<polygon fill="midnightblue" stroke="midnightblue" points="704.205,-137.716 712.796,-131.516 702.214,-131.006 704.205,-137.716"/>
</g>
<!-- Node16&#45;&gt;Node10 -->
<g id="edge18" class="edge"><title>Node16&#45;&gt;Node10</title>
<path fill="none" stroke="midnightblue" d="M764.793,-112.444C789.596,-103.332 829.011,-88.8531 856.669,-78.6929"/>
<polygon fill="midnightblue" stroke="midnightblue" points="858.099,-81.8965 866.279,-75.1629 855.685,-75.3258 858.099,-81.8965"/>
</g>
<!-- Node16&#45;&gt;Node14 -->
<g id="edge20" class="edge"><title>Node16&#45;&gt;Node14</title>
<path fill="none" stroke="midnightblue" d="M712.82,-112.444C681.429,-103.078 631.029,-88.0419 596.88,-77.8536"/>
<polygon fill="midnightblue" stroke="midnightblue" points="597.859,-74.4934 587.276,-74.9883 595.858,-81.2012 597.859,-74.4934"/>
</g>
<!-- Node17 -->
<g id="node17" class="node"><title>Node17</title>
<polygon fill="white" stroke="#bfbfbf" points="807,-56.5 807,-75.5 848,-75.5 848,-56.5 807,-56.5"/>
<text text-anchor="middle" x="827.5" y="-63.5" font-family="Helvetica,sans-Serif" font-size="10.00">QPair</text>
</g>
<!-- Node16&#45;&gt;Node17 -->
<g id="edge19" class="edge"><title>Node16&#45;&gt;Node17</title>
<path fill="none" stroke="midnightblue" d="M755.317,-112.324C768.733,-103.9 789.324,-90.9709 805.086,-81.0741"/>
<polygon fill="midnightblue" stroke="midnightblue" points="807.109,-83.9364 813.717,-75.6545 803.387,-78.0081 807.109,-83.9364"/>
</g>
<!-- Node18 -->
<g id="node18" class="node"><title>Node18</title>
<polygon fill="white" stroke="#bfbfbf" points="605,-56.5 605,-75.5 676,-75.5 676,-56.5 605,-56.5"/>
<text text-anchor="middle" x="640.5" y="-63.5" font-family="Helvetica,sans-Serif" font-size="10.00">QDateTime</text>
</g>
<!-- Node16&#45;&gt;Node18 -->
<g id="edge21" class="edge"><title>Node16&#45;&gt;Node18</title>
<path fill="none" stroke="midnightblue" d="M725.273,-112.324C709.149,-103.703 684.2,-90.3643 665.536,-80.3855"/>
<polygon fill="midnightblue" stroke="midnightblue" points="667.156,-77.283 656.687,-75.6545 663.856,-83.456 667.156,-77.283"/>
</g>
<!-- Node19 -->
<g id="node19" class="node"><title>Node19</title>
<g id="a_node19"><a xlink:href="../../de/de6/torchttpreader_8h.html" target="_top" xlink:title="torchttpreader.h">
<polygon fill="white" stroke="black" points="694,-56.5 694,-75.5 789,-75.5 789,-56.5 694,-56.5"/>
<text text-anchor="middle" x="741.5" y="-63.5" font-family="Helvetica,sans-Serif" font-size="10.00">torchttpreader.h</text>
</a>
</g>
</g>
<!-- Node16&#45;&gt;Node19 -->
<g id="edge22" class="edge"><title>Node16&#45;&gt;Node19</title>
<path fill="none" stroke="midnightblue" d="M741.5,-112.083C741.5,-105.006 741.5,-94.8611 741.5,-85.9865"/>
<polygon fill="midnightblue" stroke="midnightblue" points="745,-85.751 741.5,-75.7511 738,-85.7511 745,-85.751"/>
</g>
<!-- Node20 -->
<g id="node20" class="node"><title>Node20</title>
<polygon fill="white" stroke="#bfbfbf" points="661,-0.5 661,-19.5 732,-19.5 732,-0.5 661,-0.5"/>
<text text-anchor="middle" x="696.5" y="-7.5" font-family="Helvetica,sans-Serif" font-size="10.00">QByteArray</text>
</g>
<!-- Node19&#45;&gt;Node20 -->
<g id="edge23" class="edge"><title>Node19&#45;&gt;Node20</title>
<path fill="none" stroke="midnightblue" d="M734.069,-56.083C727.647,-48.3768 718.194,-37.0333 710.378,-27.6531"/>
<polygon fill="midnightblue" stroke="midnightblue" points="712.883,-25.1927 703.793,-19.7511 707.506,-29.674 712.883,-25.1927"/>
</g>
<!-- Node21 -->
<g id="node21" class="node"><title>Node21</title>
<polygon fill="white" stroke="#bfbfbf" points="750.5,-0.5 750.5,-19.5 822.5,-19.5 822.5,-0.5 750.5,-0.5"/>
<text text-anchor="middle" x="786.5" y="-7.5" font-family="Helvetica,sans-Serif" font-size="10.00">QTcpSocket</text>
</g>
<!-- Node19&#45;&gt;Node21 -->
<g id="edge24" class="edge"><title>Node19&#45;&gt;Node21</title>
<path fill="none" stroke="midnightblue" d="M748.931,-56.083C755.353,-48.3768 764.806,-37.0333 772.622,-27.6531"/>
<polygon fill="midnightblue" stroke="midnightblue" points="775.494,-29.674 779.207,-19.7511 770.117,-25.1927 775.494,-29.674"/>
</g>
<!-- Node23 -->
<g id="node23" class="node"><title>Node23</title>
<polygon fill="white" stroke="#bfbfbf" points="350.5,-168.5 350.5,-187.5 420.5,-187.5 420.5,-168.5 350.5,-168.5"/>
<text text-anchor="middle" x="385.5" y="-175.5" font-family="Helvetica,sans-Serif" font-size="10.00">QAtomicInt</text>
</g>
<!-- Node22&#45;&gt;Node23 -->
<g id="edge27" class="edge"><title>Node22&#45;&gt;Node23</title>
<path fill="none" stroke="midnightblue" d="M393.014,-224.083C391.821,-216.927 390.106,-206.635 388.615,-197.691"/>
<polygon fill="midnightblue" stroke="midnightblue" points="392.055,-197.04 386.959,-187.751 385.15,-198.19 392.055,-197.04"/>
</g>
</g>
</svg>
        <g id="navigator" transform="translate(0 0)" fill="#404254">
                <rect fill="#f2f5e9" fill-opacity="0.5" stroke="#606060" stroke-width=".5" x="0" y="0" width="60" height="60"/>
                <use id="zoomplus" xlink:href="#zoomPlus" x="17" y="9" onmousedown="handleZoom(evt,'in')"/>
                <use id="zoomminus" xlink:href="#zoomMin" x="42" y="9" onmousedown="handleZoom(evt,'out')"/>
                <use id="reset" xlink:href="#resetDef" x="30" y="36" onmousedown="handleReset()"/>
                <g id="arrowUp" xlink:href="#dirArrow" transform="translate(30 24)" onmousedown="handlePan(0,-1)">
                  <use xlink:href="#rim" fill="#404040">
                        <set attributeName="fill" to="#808080" begin="arrowUp.mouseover" end="arrowUp.mouseout"/>
                  </use>
                  <path fill="none" stroke="white" stroke-width="1.5" d="M0,-3.0v7 M-2.5,-0.5L0,-3.0L2.5,-0.5"/>
                </g>
                <g id="arrowRight" xlink:href="#dirArrow" transform="rotate(90) translate(36 -43)" onmousedown="handlePan(1,0)">
                  <use xlink:href="#rim" fill="#404040">
                        <set attributeName="fill" to="#808080" begin="arrowRight.mouseover" end="arrowRight.mouseout"/>
                  </use>
                  <path fill="none" stroke="white" stroke-width="1.5" d="M0,-3.0v7 M-2.5,-0.5L0,-3.0L2.5,-0.5"/>
                </g>
                <g id="arrowDown" xlink:href="#dirArrow" transform="rotate(180) translate(-30 -48)" onmousedown="handlePan(0,1)">
                  <use xlink:href="#rim" fill="#404040">
                        <set attributeName="fill" to="#808080" begin="arrowDown.mouseover" end="arrowDown.mouseout"/>
                  </use>
                  <path fill="none" stroke="white" stroke-width="1.5" d="M0,-3.0v7 M-2.5,-0.5L0,-3.0L2.5,-0.5"/>
                </g>
                <g id="arrowLeft" xlink:href="#dirArrow" transform="rotate(270) translate(-36 17)" onmousedown="handlePan(-1,0)">
                  <use xlink:href="#rim" fill="#404040">
                        <set attributeName="fill" to="#808080" begin="arrowLeft.mouseover" end="arrowLeft.mouseout"/>
                  </use>
                  <path fill="none" stroke="white" stroke-width="1.5" d="M0,-3.0v7 M-2.5,-0.5L0,-3.0L2.5,-0.5"/>
                </g>
        </g>
        <svg viewBox="0 0 15 15" width="100%" height="30px" preserveAspectRatio="xMaxYMin meet">
         <g id="arrow_out" transform="scale(0.3 0.3)">
          <a xlink:href="torcpower_8h__incl_org.svg" target="_base">
           <rect id="button" ry="5" rx="5" y="6" x="6" height="38" width="38"
                fill="#f2f5e9" fill-opacity="0.5" stroke="#606060" stroke-width="1.0"/>
           <path id="arrow"
             d="M 11.500037,31.436501 C 11.940474,20.09759 22.043105,11.32322 32.158766,21.979434 L 37.068811,17.246167 C 37.068811,17.246167 37.088388,32 37.088388,32 L 22.160133,31.978069 C 22.160133,31.978069 26.997745,27.140456 26.997745,27.140456 C 18.528582,18.264221 13.291696,25.230495 11.500037,31.436501 z"
             style="fill:#404040;"/>
          </a>
         </g>
        </svg>
</svg>
