<?xml version="1.0" encoding="UTF-8" standalone="no"?>
<!DOCTYPE svg PUBLIC "-//W3C//DTD SVG 1.1//EN"
 "http://www.w3.org/Graphics/SVG/1.1/DTD/svg11.dtd">
<!-- Generated by graphviz version 2.38.0 (20140413.2041)
 -->
<!-- Title: torccentral.h Pages: 1 -->
<!--zoomable 196 -->
<svg id="main" version="1.1" xmlns="http://www.w3.org/2000/svg" xmlns:xlink="http://www.w3.org/1999/xlink" xml:space="preserve" onload="init(evt)">
<style type="text/css"><![CDATA[
.edge:hover path { stroke: red; }
.edge:hover polygon { stroke: red; fill: red; }
]]></style>
<script type="text/javascript"><![CDATA[
var edges = document.getElementsByTagName('g');
if (edges && edges.length) {
  for (var i=0;i<edges.length;i++) {
    if (edges[i].id.substr(0,4)=='edge') {
      edges[i].setAttribute('class','edge');
    }
  }
}
]]></script>
        <defs>
                <circle id="rim" cx="0" cy="0" r="7"/>
                <circle id="rim2" cx="0" cy="0" r="3.5"/>
                <g id="zoomPlus">
                        <use xlink:href="#rim" fill="#404040">
                                <set attributeName="fill" to="#808080" begin="zoomplus.mouseover" end="zoomplus.mouseout"/>
                        </use>
                        <path d="M-4,0h8M0,-4v8" fill="none" stroke="white" stroke-width="1.5" pointer-events="none"/>
                </g>
                <g id="zoomMin">
                        <use xlink:href="#rim" fill="#404040">
                                <set attributeName="fill" to="#808080" begin="zoomminus.mouseover" end="zoomminus.mouseout"/>
                        </use>
                        <path d="M-4,0h8" fill="none" stroke="white" stroke-width="1.5" pointer-events="none"/>
                </g>
                <g id="dirArrow">
                        <path fill="none" stroke="white" stroke-width="1.5" d="M0,-3.0v7 M-2.5,-0.5L0,-3.0L2.5,-0.5"/>
                </g>
               <g id="resetDef">
                       <use xlink:href="#rim2" fill="#404040">
                               <set attributeName="fill" to="#808080" begin="reset.mouseover" end="reset.mouseout"/>
                       </use>
               </g>
        </defs>

<script type="text/javascript">
var viewWidth = 2185;
var viewHeight = 196;
var sectionId = 'dynsection-1';
</script>
<script xlink:href="../../svgpan.js"/>
<svg id="graph" class="graph">
<g id="viewport">
<title>torccentral.h</title>
<polygon fill="white" stroke="none" points="-4,4 -4,-192 2181,-192 2181,4 -4,4"/>
<!-- Node1 -->
<g id="node1" class="node"><title>Node1</title>
<polygon fill="#bfbfbf" stroke="black" points="1064,-168.5 1064,-187.5 1141,-187.5 1141,-168.5 1064,-168.5"/>
<text text-anchor="middle" x="1102.5" y="-175.5" font-family="Helvetica,sans-Serif" font-size="10.00">torccentral.h</text>
</g>
<!-- Node2 -->
<g id="node2" class="node"><title>Node2</title>
<g id="a_node2"><a xlink:href="../../d5/d16/torccontrol_8cpp.html" target="_top" xlink:title="torccontrol.cpp">
<polygon fill="white" stroke="black" points="0,-112.5 0,-131.5 89,-131.5 89,-112.5 0,-112.5"/>
<text text-anchor="middle" x="44.5" y="-119.5" font-family="Helvetica,sans-Serif" font-size="10.00">torccontrol.cpp</text>
</a>
</g>
</g>
<!-- Node1&#45;&gt;Node2 -->
<g id="edge1" class="edge"><title>Node1&#45;&gt;Node2</title>
<path fill="none" stroke="midnightblue" d="M1053.48,-176.636C908.154,-175.16 467.166,-167.825 103.5,-132 98.8598,-131.543 94.0278,-130.968 89.2149,-130.332"/>
<polygon fill="midnightblue" stroke="midnightblue" points="1053.79,-180.139 1063.82,-176.736 1053.86,-173.139 1053.79,-180.139"/>
</g>
<!-- Node3 -->
<g id="node3" class="node"><title>Node3</title>
<g id="a_node3"><a xlink:href="../../db/d27/torccontrols_8h.html" target="_top" xlink:title="torccontrols.h">
<polygon fill="white" stroke="black" points="608,-112.5 608,-131.5 691,-131.5 691,-112.5 608,-112.5"/>
<text text-anchor="middle" x="649.5" y="-119.5" font-family="Helvetica,sans-Serif" font-size="10.00">torccontrols.h</text>
</a>
</g>
</g>
<!-- Node1&#45;&gt;Node3 -->
<g id="edge2" class="edge"><title>Node1&#45;&gt;Node3</title>
<path fill="none" stroke="midnightblue" d="M1053.73,-171.186C964.236,-160.518 775.293,-137.995 691.286,-127.981"/>
<polygon fill="midnightblue" stroke="midnightblue" points="1053.53,-174.688 1063.88,-172.396 1054.36,-167.737 1053.53,-174.688"/>
</g>
<!-- Node5 -->
<g id="node5" class="node"><title>Node5</title>
<g id="a_node5"><a xlink:href="../../d1/d81/torccentral_8cpp.html" target="_top" xlink:title="torccentral.cpp">
<polygon fill="white" stroke="black" points="462,-56.5 462,-75.5 551,-75.5 551,-56.5 462,-56.5"/>
<text text-anchor="middle" x="506.5" y="-63.5" font-family="Helvetica,sans-Serif" font-size="10.00">torccentral.cpp</text>
</a>
</g>
</g>
<!-- Node1&#45;&gt;Node5 -->
<g id="edge45" class="edge"><title>Node1&#45;&gt;Node5</title>
<path fill="none" stroke="midnightblue" d="M1053.81,-175.867C944.216,-172.8 681.278,-162.411 598.5,-132 563.989,-119.321 530.55,-90.2096 515.22,-75.6385"/>
<polygon fill="midnightblue" stroke="midnightblue" points="1053.84,-179.369 1063.93,-176.141 1054.03,-172.371 1053.84,-179.369"/>
</g>
<!-- Node7 -->
<g id="node7" class="node"><title>Node7</title>
<g id="a_node7"><a xlink:href="../../d2/df5/torc1wirebus_8h.html" target="_top" xlink:title="torc1wirebus.h">
<polygon fill="white" stroke="black" points="237.5,-112.5 237.5,-131.5 323.5,-131.5 323.5,-112.5 237.5,-112.5"/>
<text text-anchor="middle" x="280.5" y="-119.5" font-family="Helvetica,sans-Serif" font-size="10.00">torc1wirebus.h</text>
</a>
</g>
</g>
<!-- Node1&#45;&gt;Node7 -->
<g id="edge6" class="edge"><title>Node1&#45;&gt;Node7</title>
<path fill="none" stroke="midnightblue" d="M1053.83,-173.803C906.09,-164.097 464.267,-135.072 323.848,-125.848"/>
<polygon fill="midnightblue" stroke="midnightblue" points="1053.75,-177.305 1063.96,-174.468 1054.21,-170.32 1053.75,-177.305"/>
</g>
<!-- Node10 -->
<g id="node10" class="node"><title>Node10</title>
<g id="a_node10"><a xlink:href="../../df/d8e/torc1wireds18b20_8cpp.html" target="_top" xlink:title="torc1wireds18b20.cpp">
<polygon fill="white" stroke="black" points="94.5,-0.5 94.5,-19.5 216.5,-19.5 216.5,-0.5 94.5,-0.5"/>
<text text-anchor="middle" x="155.5" y="-7.5" font-family="Helvetica,sans-Serif" font-size="10.00">torc1wireds18b20.cpp</text>
</a>
</g>
</g>
<!-- Node1&#45;&gt;Node10 -->
<g id="edge12" class="edge"><title>Node1&#45;&gt;Node10</title>
<path fill="none" stroke="midnightblue" d="M1053.93,-176.255C881.579,-173.369 305.559,-161.588 228.5,-132 191.629,-117.843 177.571,-111.119 159.5,-76 150.085,-57.7033 152.035,-32.5691 153.949,-19.5673"/>
<polygon fill="midnightblue" stroke="midnightblue" points="1053.92,-179.755 1063.98,-176.42 1054.04,-172.756 1053.92,-179.755"/>
</g>
<!-- Node11 -->
<g id="node11" class="node"><title>Node11</title>
<g id="a_node11"><a xlink:href="../../d4/d68/torcinputs_8h.html" target="_top" xlink:title="torcinputs.h">
<polygon fill="white" stroke="black" points="779.5,-112.5 779.5,-131.5 853.5,-131.5 853.5,-112.5 779.5,-112.5"/>
<text text-anchor="middle" x="816.5" y="-119.5" font-family="Helvetica,sans-Serif" font-size="10.00">torcinputs.h</text>
</a>
</g>
</g>
<!-- Node1&#45;&gt;Node11 -->
<g id="edge13" class="edge"><title>Node1&#45;&gt;Node11</title>
<path fill="none" stroke="midnightblue" d="M1053.78,-167.8C997.077,-157.095 904.716,-139.656 853.555,-129.996"/>
<polygon fill="midnightblue" stroke="midnightblue" points="1053.45,-171.301 1063.93,-169.717 1054.75,-164.423 1053.45,-171.301"/>
</g>
<!-- Node13 -->
<g id="node13" class="node"><title>Node13</title>
<g id="a_node13"><a xlink:href="../../d1/d0c/torcinputs_8cpp.html" target="_top" xlink:title="torcinputs.cpp">
<polygon fill="white" stroke="black" points="856,-56.5 856,-75.5 941,-75.5 941,-56.5 856,-56.5"/>
<text text-anchor="middle" x="898.5" y="-63.5" font-family="Helvetica,sans-Serif" font-size="10.00">torcinputs.cpp</text>
</a>
</g>
</g>
<!-- Node1&#45;&gt;Node13 -->
<g id="edge21" class="edge"><title>Node1&#45;&gt;Node13</title>
<path fill="none" stroke="midnightblue" d="M1053.93,-169.161C1023.8,-162.662 985.302,-151.27 955.5,-132 932.057,-116.842 912.59,-89.3974 903.696,-75.522"/>
<polygon fill="midnightblue" stroke="midnightblue" points="1053.3,-172.605 1063.8,-171.182 1054.7,-165.747 1053.3,-172.605"/>
</g>
<!-- Node15 -->
<g id="node15" class="node"><title>Node15</title>
<g id="a_node15"><a xlink:href="../../da/d84/torcpigpio_8cpp.html" target="_top" xlink:title="torcpigpio.cpp">
<polygon fill="white" stroke="black" points="1567.5,-56.5 1567.5,-75.5 1651.5,-75.5 1651.5,-56.5 1567.5,-56.5"/>
<text text-anchor="middle" x="1609.5" y="-63.5" font-family="Helvetica,sans-Serif" font-size="10.00">torcpigpio.cpp</text>
</a>
</g>
</g>
<!-- Node1&#45;&gt;Node15 -->
<g id="edge38" class="edge"><title>Node1&#45;&gt;Node15</title>
<path fill="none" stroke="midnightblue" d="M1151.14,-169.892C1194.65,-162.78 1259.82,-150.258 1314.5,-132 1334.49,-125.325 1337.4,-118.35 1357.5,-112 1360,-111.209 1496.17,-87.0584 1567.27,-74.4711"/>
<polygon fill="midnightblue" stroke="midnightblue" points="1150.43,-166.462 1141.11,-171.499 1151.53,-173.373 1150.43,-166.462"/>
</g>
<!-- Node16 -->
<g id="node16" class="node"><title>Node16</title>
<g id="a_node16"><a xlink:href="../../d7/ddf/torcsysteminputs_8h.html" target="_top" xlink:title="torcsysteminputs.h">
<polygon fill="white" stroke="black" points="965,-112.5 965,-131.5 1074,-131.5 1074,-112.5 965,-112.5"/>
<text text-anchor="middle" x="1019.5" y="-119.5" font-family="Helvetica,sans-Serif" font-size="10.00">torcsysteminputs.h</text>
</a>
</g>
</g>
<!-- Node1&#45;&gt;Node16 -->
<g id="edge22" class="edge"><title>Node1&#45;&gt;Node16</title>
<path fill="none" stroke="midnightblue" d="M1080.4,-162.622C1065.24,-152.757 1045.62,-139.992 1032.8,-131.655"/>
<polygon fill="midnightblue" stroke="midnightblue" points="1078.87,-165.804 1089.16,-168.324 1082.69,-159.937 1078.87,-165.804"/>
</g>
<!-- Node17 -->
<g id="node17" class="node"><title>Node17</title>
<g id="a_node17"><a xlink:href="../../d6/d33/torci2cbus_8cpp.html" target="_top" xlink:title="torci2cbus.cpp">
<polygon fill="white" stroke="black" points="1097.5,-56.5 1097.5,-75.5 1183.5,-75.5 1183.5,-56.5 1097.5,-56.5"/>
<text text-anchor="middle" x="1140.5" y="-63.5" font-family="Helvetica,sans-Serif" font-size="10.00">torci2cbus.cpp</text>
</a>
</g>
</g>
<!-- Node1&#45;&gt;Node17 -->
<g id="edge24" class="edge"><title>Node1&#45;&gt;Node17</title>
<path fill="none" stroke="midnightblue" d="M1107.22,-158.784C1110.77,-145.653 1115.96,-127.576 1121.5,-112 1126.11,-99.0573 1132.49,-84.4749 1136.56,-75.5109"/>
<polygon fill="midnightblue" stroke="midnightblue" points="1103.83,-157.924 1104.65,-168.487 1110.6,-159.715 1103.83,-157.924"/>
</g>
<!-- Node18 -->
<g id="node18" class="node"><title>Node18</title>
<g id="a_node18"><a xlink:href="../../de/d67/torci2cbus_8h.html" target="_top" xlink:title="torci2cbus.h">
<polygon fill="white" stroke="black" points="1131,-112.5 1131,-131.5 1206,-131.5 1206,-112.5 1131,-112.5"/>
<text text-anchor="middle" x="1168.5" y="-119.5" font-family="Helvetica,sans-Serif" font-size="10.00">torci2cbus.h</text>
</a>
</g>
</g>
<!-- Node1&#45;&gt;Node18 -->
<g id="edge25" class="edge"><title>Node1&#45;&gt;Node18</title>
<path fill="none" stroke="midnightblue" d="M1121.05,-161.82C1132.88,-152.145 1147.79,-139.948 1157.7,-131.834"/>
<polygon fill="midnightblue" stroke="midnightblue" points="1118.63,-159.283 1113.1,-168.324 1123.06,-164.7 1118.63,-159.283"/>
</g>
<!-- Node21 -->
<g id="node21" class="node"><title>Node21</title>
<g id="a_node21"><a xlink:href="../../da/d80/torcoutputs_8h.html" target="_top" xlink:title="torcoutputs.h">
<polygon fill="white" stroke="black" points="1224,-112.5 1224,-131.5 1305,-131.5 1305,-112.5 1224,-112.5"/>
<text text-anchor="middle" x="1264.5" y="-119.5" font-family="Helvetica,sans-Serif" font-size="10.00">torcoutputs.h</text>
</a>
</g>
</g>
<!-- Node1&#45;&gt;Node21 -->
<g id="edge29" class="edge"><title>Node1&#45;&gt;Node21</title>
<path fill="none" stroke="midnightblue" d="M1137.98,-165.172C1168.49,-155.004 1211.74,-140.585 1238.95,-131.516"/>
<polygon fill="midnightblue" stroke="midnightblue" points="1136.55,-161.961 1128.17,-168.444 1138.76,-168.602 1136.55,-161.961"/>
</g>
<!-- Node24 -->
<g id="node24" class="node"><title>Node24</title>
<g id="a_node24"><a xlink:href="../../d5/da7/torcoutputs_8cpp.html" target="_top" xlink:title="torcoutputs.cpp">
<polygon fill="white" stroke="black" points="1669.5,-56.5 1669.5,-75.5 1761.5,-75.5 1761.5,-56.5 1669.5,-56.5"/>
<text text-anchor="middle" x="1715.5" y="-63.5" font-family="Helvetica,sans-Serif" font-size="10.00">torcoutputs.cpp</text>
</a>
</g>
</g>
<!-- Node1&#45;&gt;Node24 -->
<g id="edge44" class="edge"><title>Node1&#45;&gt;Node24</title>
<path fill="none" stroke="midnightblue" d="M1151.35,-171.96C1201.86,-165.86 1282.56,-153.614 1349.5,-132 1369.17,-125.647 1371.68,-117.887 1391.5,-112 1507.13,-77.655 1541.19,-93.7414 1660.5,-76 1663.37,-75.5731 1666.32,-75.1226 1669.3,-74.66"/>
<polygon fill="midnightblue" stroke="midnightblue" points="1150.88,-168.491 1141.35,-173.134 1151.69,-175.443 1150.88,-168.491"/>
</g>
<!-- Node25 -->
<g id="node25" class="node"><title>Node25</title>
<g id="a_node25"><a xlink:href="../../d7/de1/torcpicamera_8cpp.html" target="_top" xlink:title="torcpicamera.cpp">
<polygon fill="white" stroke="black" points="1400,-112.5 1400,-131.5 1501,-131.5 1501,-112.5 1400,-112.5"/>
<text text-anchor="middle" x="1450.5" y="-119.5" font-family="Helvetica,sans-Serif" font-size="10.00">torcpicamera.cpp</text>
</a>
</g>
</g>
<!-- Node1&#45;&gt;Node25 -->
<g id="edge37" class="edge"><title>Node1&#45;&gt;Node25</title>
<path fill="none" stroke="midnightblue" d="M1151.16,-169.449C1216.85,-159.256 1333.33,-141.182 1399.96,-130.842"/>
<polygon fill="midnightblue" stroke="midnightblue" points="1150.42,-166.023 1141.07,-171.015 1151.49,-172.94 1150.42,-166.023"/>
</g>
<!-- Node26 -->
<g id="node26" class="node"><title>Node26</title>
<g id="a_node26"><a xlink:href="../../d4/de1/torcpigpio_8h.html" target="_top" xlink:title="torcpigpio.h">
<polygon fill="white" stroke="black" points="1573,-112.5 1573,-131.5 1646,-131.5 1646,-112.5 1573,-112.5"/>
<text text-anchor="middle" x="1609.5" y="-119.5" font-family="Helvetica,sans-Serif" font-size="10.00">torcpigpio.h</text>
</a>
</g>
</g>
<!-- Node1&#45;&gt;Node26 -->
<g id="edge39" class="edge"><title>Node1&#45;&gt;Node26</title>
<path fill="none" stroke="midnightblue" d="M1151.26,-171.807C1252.38,-161.036 1482.96,-136.478 1572.75,-126.914"/>
<polygon fill="midnightblue" stroke="midnightblue" points="1150.6,-168.357 1141.02,-172.897 1151.34,-175.318 1150.6,-168.357"/>
</g>
<!-- Node30 -->
<g id="node30" class="node"><title>Node30</title>
<g id="a_node30"><a xlink:href="../../dd/d82/torcdevice_8cpp.html" target="_top" xlink:title="torcdevice.cpp">
<polygon fill="white" stroke="black" points="1664.5,-112.5 1664.5,-131.5 1750.5,-131.5 1750.5,-112.5 1664.5,-112.5"/>
<text text-anchor="middle" x="1707.5" y="-119.5" font-family="Helvetica,sans-Serif" font-size="10.00">torcdevice.cpp</text>
</a>
</g>
</g>
<!-- Node1&#45;&gt;Node30 -->
<g id="edge46" class="edge"><title>Node1&#45;&gt;Node30</title>
<path fill="none" stroke="midnightblue" d="M1151.22,-174.516C1247.73,-169.268 1469.95,-155.558 1655.5,-132 1658.41,-131.631 1661.4,-131.213 1664.41,-130.765"/>
<polygon fill="midnightblue" stroke="midnightblue" points="1150.97,-171.024 1141.17,-175.056 1151.35,-178.014 1150.97,-171.024"/>
</g>
<!-- Node31 -->
<g id="node31" class="node"><title>Node31</title>
<g id="a_node31"><a xlink:href="../../d6/ddf/torcxsdtest_8cpp.html" target="_top" xlink:title="torcxsdtest.cpp">
<polygon fill="white" stroke="black" points="1769,-112.5 1769,-131.5 1860,-131.5 1860,-112.5 1769,-112.5"/>
<text text-anchor="middle" x="1814.5" y="-119.5" font-family="Helvetica,sans-Serif" font-size="10.00">torcxsdtest.cpp</text>
</a>
</g>
</g>
<!-- Node1&#45;&gt;Node31 -->
<g id="edge47" class="edge"><title>Node1&#45;&gt;Node31</title>
<path fill="none" stroke="midnightblue" d="M1151.17,-175.23C1260.32,-170.918 1532.86,-158.247 1759.5,-132 1762.58,-131.644 1765.74,-131.236 1768.93,-130.795"/>
<polygon fill="midnightblue" stroke="midnightblue" points="1150.98,-171.735 1141.12,-175.621 1151.25,-178.729 1150.98,-171.735"/>
</g>
<!-- Node4 -->
<g id="node4" class="node"><title>Node4</title>
<g id="a_node4"><a xlink:href="../../d4/d91/torccontrols_8cpp.html" target="_top" xlink:title="torccontrols.cpp">
<polygon fill="white" stroke="black" points="349.5,-56.5 349.5,-75.5 443.5,-75.5 443.5,-56.5 349.5,-56.5"/>
<text text-anchor="middle" x="396.5" y="-63.5" font-family="Helvetica,sans-Serif" font-size="10.00">torccontrols.cpp</text>
</a>
</g>
</g>
<!-- Node3&#45;&gt;Node4 -->
<g id="edge3" class="edge"><title>Node3&#45;&gt;Node4</title>
<path fill="none" stroke="midnightblue" d="M599.582,-110.346C551.769,-100.141 480.552,-84.94 436.401,-75.5164"/>
<polygon fill="midnightblue" stroke="midnightblue" points="598.901,-113.779 609.411,-112.444 600.362,-106.933 598.901,-113.779"/>
</g>
<!-- Node3&#45;&gt;Node5 -->
<g id="edge4" class="edge"><title>Node3&#45;&gt;Node5</title>
<path fill="none" stroke="midnightblue" d="M617.473,-108.906C590.588,-98.7536 552.859,-84.5063 529.053,-75.5164"/>
<polygon fill="midnightblue" stroke="midnightblue" points="616.25,-112.185 626.841,-112.444 618.722,-105.636 616.25,-112.185"/>
</g>
<!-- Node6 -->
<g id="node6" class="node"><title>Node6</title>
<g id="a_node6"><a xlink:href="../../dd/dbf/testtorclocalcontext_8cpp.html" target="_top" xlink:title="testtorclocalcontext.cpp">
<polygon fill="white" stroke="black" points="607.5,-56.5 607.5,-75.5 739.5,-75.5 739.5,-56.5 607.5,-56.5"/>
<text text-anchor="middle" x="673.5" y="-63.5" font-family="Helvetica,sans-Serif" font-size="10.00">testtorclocalcontext.cpp</text>
</a>
</g>
</g>
<!-- Node3&#45;&gt;Node6 -->
<g id="edge5" class="edge"><title>Node3&#45;&gt;Node6</title>
<path fill="none" stroke="midnightblue" d="M657.638,-102.69C661.683,-93.589 666.383,-83.0141 669.611,-75.7511"/>
<polygon fill="midnightblue" stroke="midnightblue" points="654.326,-101.523 653.463,-112.083 660.723,-104.366 654.326,-101.523"/>
</g>
<!-- Node8 -->
<g id="node8" class="node"><title>Node8</title>
<g id="a_node8"><a xlink:href="../../d8/d63/torc1wirebus_8cpp.html" target="_top" xlink:title="torc1wirebus.cpp">
<polygon fill="white" stroke="black" points="272.5,-0.5 272.5,-19.5 370.5,-19.5 370.5,-0.5 272.5,-0.5"/>
<text text-anchor="middle" x="321.5" y="-7.5" font-family="Helvetica,sans-Serif" font-size="10.00">torc1wirebus.cpp</text>
</a>
</g>
</g>
<!-- Node7&#45;&gt;Node8 -->
<g id="edge7" class="edge"><title>Node7&#45;&gt;Node8</title>
<path fill="none" stroke="midnightblue" d="M290.02,-103.302C294.186,-95.1355 298.927,-85.2241 302.5,-76 310.144,-56.2662 316.432,-32.148 319.492,-19.5671"/>
<polygon fill="midnightblue" stroke="midnightblue" points="286.88,-101.753 285.341,-112.235 293.081,-105.001 286.88,-101.753"/>
</g>
<!-- Node9 -->
<g id="node9" class="node"><title>Node9</title>
<g id="a_node9"><a xlink:href="../../d0/d86/torc1wireds18b20_8h.html" target="_top" xlink:title="torc1wireds18b20.h">
<polygon fill="white" stroke="black" points="183.5,-56.5 183.5,-75.5 293.5,-75.5 293.5,-56.5 183.5,-56.5"/>
<text text-anchor="middle" x="238.5" y="-63.5" font-family="Helvetica,sans-Serif" font-size="10.00">torc1wireds18b20.h</text>
</a>
</g>
</g>
<!-- Node7&#45;&gt;Node9 -->
<g id="edge8" class="edge"><title>Node7&#45;&gt;Node9</title>
<path fill="none" stroke="midnightblue" d="M267.39,-104.144C260.072,-94.7357 251.259,-83.4046 245.306,-75.7511"/>
<polygon fill="midnightblue" stroke="midnightblue" points="264.662,-106.338 273.565,-112.083 270.188,-102.041 264.662,-106.338"/>
</g>
<!-- Node7&#45;&gt;Node10 -->
<g id="edge11" class="edge"><title>Node7&#45;&gt;Node10</title>
<path fill="none" stroke="midnightblue" d="M229.218,-109.327C209.706,-102.54 188.763,-92.0395 174.5,-76 160.125,-59.8345 156.598,-33.3278 155.752,-19.6965"/>
<polygon fill="midnightblue" stroke="midnightblue" points="228.354,-112.726 238.946,-112.458 230.499,-106.062 228.354,-112.726"/>
</g>
<!-- Node9&#45;&gt;Node8 -->
<g id="edge9" class="edge"><title>Node9&#45;&gt;Node8</title>
<path fill="none" stroke="midnightblue" d="M260.599,-50.6221C275.762,-40.7574 295.383,-27.9919 308.198,-19.6545"/>
<polygon fill="midnightblue" stroke="midnightblue" points="258.309,-47.9367 251.835,-56.324 262.126,-53.8042 258.309,-47.9367"/>
</g>
<!-- Node9&#45;&gt;Node10 -->
<g id="edge10" class="edge"><title>Node9&#45;&gt;Node10</title>
<path fill="none" stroke="midnightblue" d="M216.401,-50.6221C201.238,-40.7574 181.617,-27.9919 168.802,-19.6545"/>
<polygon fill="midnightblue" stroke="midnightblue" points="214.874,-53.8042 225.165,-56.324 218.691,-47.9367 214.874,-53.8042"/>
</g>
<!-- Node11&#45;&gt;Node5 -->
<g id="edge19" class="edge"><title>Node11&#45;&gt;Node5</title>
<path fill="none" stroke="midnightblue" d="M769.207,-112.762C709.941,-102.438 609.125,-84.8767 551.135,-74.7751"/>
<polygon fill="midnightblue" stroke="midnightblue" points="768.962,-116.272 779.415,-114.54 770.164,-109.376 768.962,-116.272"/>
</g>
<!-- Node11&#45;&gt;Node6 -->
<g id="edge20" class="edge"><title>Node11&#45;&gt;Node6</title>
<path fill="none" stroke="midnightblue" d="M784.473,-108.906C757.588,-98.7536 719.859,-84.5063 696.053,-75.5164"/>
<polygon fill="midnightblue" stroke="midnightblue" points="783.25,-112.185 793.841,-112.444 785.722,-105.636 783.25,-112.185"/>
</g>
<!-- Node11&#45;&gt;Node8 -->
<g id="edge14" class="edge"><title>Node11&#45;&gt;Node8</title>
<path fill="none" stroke="midnightblue" d="M769.401,-115.034C724.566,-108.484 655.648,-96.1323 598.5,-76 580.127,-69.5275 577.926,-62.3189 559.5,-56 496.254,-34.3111 419.761,-22.2048 370.874,-16.1443"/>
<polygon fill="midnightblue" stroke="midnightblue" points="769.03,-118.516 779.423,-116.46 770.016,-111.586 769.03,-118.516"/>
</g>
<!-- Node12 -->
<g id="node12" class="node"><title>Node12</title>
<g id="a_node12"><a xlink:href="../../da/d5d/torcinput_8cpp.html" target="_top" xlink:title="torcinput.cpp">
<polygon fill="white" stroke="black" points="757.5,-56.5 757.5,-75.5 837.5,-75.5 837.5,-56.5 757.5,-56.5"/>
<text text-anchor="middle" x="797.5" y="-63.5" font-family="Helvetica,sans-Serif" font-size="10.00">torcinput.cpp</text>
</a>
</g>
</g>
<!-- Node11&#45;&gt;Node12 -->
<g id="edge15" class="edge"><title>Node11&#45;&gt;Node12</title>
<path fill="none" stroke="midnightblue" d="M809.954,-102.396C806.776,-93.362 803.107,-82.936 800.579,-75.7511"/>
<polygon fill="midnightblue" stroke="midnightblue" points="806.742,-103.812 813.363,-112.083 813.345,-101.488 806.742,-103.812"/>
</g>
<!-- Node11&#45;&gt;Node13 -->
<g id="edge16" class="edge"><title>Node11&#45;&gt;Node13</title>
<path fill="none" stroke="midnightblue" d="M838.333,-106.622C853.313,-96.7574 872.697,-83.9919 885.358,-75.6545"/>
<polygon fill="midnightblue" stroke="midnightblue" points="836.101,-103.901 829.675,-112.324 839.951,-109.747 836.101,-103.901"/>
</g>
<!-- Node14 -->
<g id="node14" class="node"><title>Node14</title>
<g id="a_node14"><a xlink:href="../../dd/d56/torcsysteminputs_8cpp.html" target="_top" xlink:title="torcsysteminputs.cpp">
<polygon fill="white" stroke="black" points="959.5,-56.5 959.5,-75.5 1079.5,-75.5 1079.5,-56.5 959.5,-56.5"/>
<text text-anchor="middle" x="1019.5" y="-63.5" font-family="Helvetica,sans-Serif" font-size="10.00">torcsysteminputs.cpp</text>
</a>
</g>
</g>
<!-- Node11&#45;&gt;Node14 -->
<g id="edge17" class="edge"><title>Node11&#45;&gt;Node14</title>
<path fill="none" stroke="midnightblue" d="M858.494,-109.829C896.823,-99.6333 952.652,-84.7823 987.485,-75.5164"/>
<polygon fill="midnightblue" stroke="midnightblue" points="857.43,-106.49 848.666,-112.444 859.23,-113.255 857.43,-106.49"/>
</g>
<!-- Node11&#45;&gt;Node15 -->
<g id="edge18" class="edge"><title>Node11&#45;&gt;Node15</title>
<path fill="none" stroke="midnightblue" d="M863.947,-117.869C890.81,-116.111 925.03,-113.896 955.5,-112 1223.46,-95.3264 1291.86,-107.381 1558.5,-76 1561.36,-75.6637 1564.3,-75.2709 1567.25,-74.8409"/>
<polygon fill="midnightblue" stroke="midnightblue" points="863.415,-114.396 853.665,-118.543 863.873,-121.381 863.415,-114.396"/>
</g>
<!-- Node16&#45;&gt;Node14 -->
<g id="edge23" class="edge"><title>Node16&#45;&gt;Node14</title>
<path fill="none" stroke="midnightblue" d="M1019.5,-101.805C1019.5,-92.9102 1019.5,-82.7798 1019.5,-75.7511"/>
<polygon fill="midnightblue" stroke="midnightblue" points="1016,-102.083 1019.5,-112.083 1023,-102.083 1016,-102.083"/>
</g>
<!-- Node18&#45;&gt;Node17 -->
<g id="edge26" class="edge"><title>Node18&#45;&gt;Node17</title>
<path fill="none" stroke="midnightblue" d="M1159.16,-102.983C1154.41,-93.8168 1148.84,-83.0922 1145.04,-75.7511"/>
<polygon fill="midnightblue" stroke="midnightblue" points="1156.17,-104.817 1163.88,-112.083 1162.38,-101.594 1156.17,-104.817"/>
</g>
<!-- Node19 -->
<g id="node19" class="node"><title>Node19</title>
<g id="a_node19"><a xlink:href="../../db/dd5/torci2cpca9685_8h.html" target="_top" xlink:title="torci2cpca9685.h">
<polygon fill="white" stroke="black" points="1202,-56.5 1202,-75.5 1301,-75.5 1301,-56.5 1202,-56.5"/>
<text text-anchor="middle" x="1251.5" y="-63.5" font-family="Helvetica,sans-Serif" font-size="10.00">torci2cpca9685.h</text>
</a>
</g>
</g>
<!-- Node18&#45;&gt;Node19 -->
<g id="edge27" class="edge"><title>Node18&#45;&gt;Node19</title>
<path fill="none" stroke="midnightblue" d="M1190.6,-106.622C1205.76,-96.7574 1225.38,-83.9919 1238.2,-75.6545"/>
<polygon fill="midnightblue" stroke="midnightblue" points="1188.31,-103.937 1181.84,-112.324 1192.13,-109.804 1188.31,-103.937"/>
</g>
<!-- Node20 -->
<g id="node20" class="node"><title>Node20</title>
<g id="a_node20"><a xlink:href="../../d9/d02/torci2cpca9685_8cpp.html" target="_top" xlink:title="torci2cpca9685.cpp">
<polygon fill="white" stroke="black" points="1196.5,-0.5 1196.5,-19.5 1306.5,-19.5 1306.5,-0.5 1196.5,-0.5"/>
<text text-anchor="middle" x="1251.5" y="-7.5" font-family="Helvetica,sans-Serif" font-size="10.00">torci2cpca9685.cpp</text>
</a>
</g>
</g>
<!-- Node19&#45;&gt;Node20 -->
<g id="edge28" class="edge"><title>Node19&#45;&gt;Node20</title>
<path fill="none" stroke="midnightblue" d="M1251.5,-45.8045C1251.5,-36.9102 1251.5,-26.7798 1251.5,-19.7511"/>
<polygon fill="midnightblue" stroke="midnightblue" points="1248,-46.083 1251.5,-56.083 1255,-46.083 1248,-46.083"/>
</g>
<!-- Node21&#45;&gt;Node5 -->
<g id="edge35" class="edge"><title>Node21&#45;&gt;Node5</title>
<path fill="none" stroke="midnightblue" d="M1213.68,-112.064C940.424,-80.0768 868.575,-97.0938 598.5,-76 583.14,-74.8003 566.363,-73.2348 551.391,-71.7465"/>
<polygon fill="midnightblue" stroke="midnightblue" points="1213.56,-115.575 1223.9,-113.273 1214.38,-108.623 1213.56,-115.575"/>
</g>
<!-- Node21&#45;&gt;Node6 -->
<g id="edge36" class="edge"><title>Node21&#45;&gt;Node6</title>
<path fill="none" stroke="midnightblue" d="M1213.91,-112.063C1006.76,-85.8968 951.996,-96.061 748.5,-76 745.629,-75.7169 742.697,-75.4161 739.737,-75.1025"/>
<polygon fill="midnightblue" stroke="midnightblue" points="1213.53,-115.543 1223.89,-113.337 1214.42,-108.599 1213.53,-115.543"/>
</g>
<!-- Node21&#45;&gt;Node15 -->
<g id="edge31" class="edge"><title>Node21&#45;&gt;Node15</title>
<path fill="none" stroke="midnightblue" d="M1315.05,-112.703C1316.55,-112.465 1318.04,-112.23 1319.5,-112 1425.62,-95.3261 1452.49,-93.3354 1558.5,-76 1561.43,-75.5212 1564.45,-75.0163 1567.49,-74.4999"/>
<polygon fill="midnightblue" stroke="midnightblue" points="1314.36,-109.269 1305.04,-114.306 1315.47,-116.181 1314.36,-109.269"/>
</g>
<!-- Node21&#45;&gt;Node19 -->
<g id="edge30" class="edge"><title>Node21&#45;&gt;Node19</title>
<path fill="none" stroke="midnightblue" d="M1259.95,-102.101C1257.79,-93.1357 1255.32,-82.8579 1253.61,-75.7511"/>
<polygon fill="midnightblue" stroke="midnightblue" points="1256.61,-103.18 1262.35,-112.083 1263.42,-101.542 1256.61,-103.18"/>
</g>
<!-- Node22 -->
<g id="node22" class="node"><title>Node22</title>
<g id="a_node22"><a xlink:href="../../d1/d3b/torccameraoutput_8cpp.html" target="_top" xlink:title="torccameraoutput.cpp">
<polygon fill="white" stroke="black" points="1319.5,-56.5 1319.5,-75.5 1443.5,-75.5 1443.5,-56.5 1319.5,-56.5"/>
<text text-anchor="middle" x="1381.5" y="-63.5" font-family="Helvetica,sans-Serif" font-size="10.00">torccameraoutput.cpp</text>
</a>
</g>
</g>
<!-- Node21&#45;&gt;Node22 -->
<g id="edge32" class="edge"><title>Node21&#45;&gt;Node22</title>
<path fill="none" stroke="midnightblue" d="M1292.16,-108.232C1314.05,-98.1312 1344,-84.3091 1363.05,-75.5164"/>
<polygon fill="midnightblue" stroke="midnightblue" points="1290.65,-105.075 1283.04,-112.444 1293.59,-111.431 1290.65,-105.075"/>
</g>
<!-- Node23 -->
<g id="node23" class="node"><title>Node23</title>
<g id="a_node23"><a xlink:href="../../d5/d6d/torcoutput_8cpp.html" target="_top" xlink:title="torcoutput.cpp">
<polygon fill="white" stroke="black" points="1462,-56.5 1462,-75.5 1549,-75.5 1549,-56.5 1462,-56.5"/>
<text text-anchor="middle" x="1505.5" y="-63.5" font-family="Helvetica,sans-Serif" font-size="10.00">torcoutput.cpp</text>
</a>
</g>
</g>
<!-- Node21&#45;&gt;Node23 -->
<g id="edge33" class="edge"><title>Node21&#45;&gt;Node23</title>
<path fill="none" stroke="midnightblue" d="M1312.62,-110.217C1358.16,-100.013 1425.61,-84.9006 1467.49,-75.5164"/>
<polygon fill="midnightblue" stroke="midnightblue" points="1311.68,-106.842 1302.69,-112.444 1313.21,-113.672 1311.68,-106.842"/>
</g>
<!-- Node21&#45;&gt;Node24 -->
<g id="edge34" class="edge"><title>Node21&#45;&gt;Node24</title>
<path fill="none" stroke="midnightblue" d="M1315.22,-116.04C1390.65,-108.483 1536.78,-93.1412 1660.5,-76 1663.38,-75.6016 1666.33,-75.173 1669.31,-74.7268"/>
<polygon fill="midnightblue" stroke="midnightblue" points="1314.66,-112.579 1305.06,-117.054 1315.36,-119.544 1314.66,-112.579"/>
</g>
<!-- Node26&#45;&gt;Node15 -->
<g id="edge41" class="edge"><title>Node26&#45;&gt;Node15</title>
<path fill="none" stroke="midnightblue" d="M1609.5,-101.805C1609.5,-92.9102 1609.5,-82.7798 1609.5,-75.7511"/>
<polygon fill="midnightblue" stroke="midnightblue" points="1606,-102.083 1609.5,-112.083 1613,-102.083 1606,-102.083"/>
</g>
<!-- Node27 -->
<g id="node27" class="node"><title>Node27</title>
<g id="a_node27"><a xlink:href="../../dd/df5/torcpiswitchinput_8cpp.html" target="_top" xlink:title="torcpiswitchinput.cpp">
<polygon fill="white" stroke="black" points="1780,-56.5 1780,-75.5 1897,-75.5 1897,-56.5 1780,-56.5"/>
<text text-anchor="middle" x="1838.5" y="-63.5" font-family="Helvetica,sans-Serif" font-size="10.00">torcpiswitchinput.cpp</text>
</a>
</g>
</g>
<!-- Node26&#45;&gt;Node27 -->
<g id="edge40" class="edge"><title>Node26&#45;&gt;Node27</title>
<path fill="none" stroke="midnightblue" d="M1655.77,-110.088C1699.04,-99.8865 1762.76,-84.8612 1802.38,-75.5164"/>
<polygon fill="midnightblue" stroke="midnightblue" points="1654.72,-106.742 1645.79,-112.444 1656.32,-113.555 1654.72,-106.742"/>
</g>
<!-- Node28 -->
<g id="node28" class="node"><title>Node28</title>
<g id="a_node28"><a xlink:href="../../d1/d80/torcpipwmoutput_8cpp.html" target="_top" xlink:title="torcpipwmoutput.cpp">
<polygon fill="white" stroke="black" points="1915.5,-56.5 1915.5,-75.5 2033.5,-75.5 2033.5,-56.5 1915.5,-56.5"/>
<text text-anchor="middle" x="1974.5" y="-63.5" font-family="Helvetica,sans-Serif" font-size="10.00">torcpipwmoutput.cpp</text>
</a>
</g>
</g>
<!-- Node26&#45;&gt;Node28 -->
<g id="edge42" class="edge"><title>Node26&#45;&gt;Node28</title>
<path fill="none" stroke="midnightblue" d="M1656.3,-111.964C1718.58,-101.834 1841.63,-84.9454 1915.4,-74.9547"/>
<polygon fill="midnightblue" stroke="midnightblue" points="1655.42,-108.563 1646.13,-113.652 1656.56,-115.469 1655.42,-108.563"/>
</g>
<!-- Node29 -->
<g id="node29" class="node"><title>Node29</title>
<g id="a_node29"><a xlink:href="../../d2/de8/torcpiswitchoutput_8cpp.html" target="_top" xlink:title="torcpiswitchoutput.cpp">
<polygon fill="white" stroke="black" points="2052,-56.5 2052,-75.5 2177,-75.5 2177,-56.5 2052,-56.5"/>
<text text-anchor="middle" x="2114.5" y="-63.5" font-family="Helvetica,sans-Serif" font-size="10.00">torcpiswitchoutput.cpp</text>
</a>
</g>
</g>
<!-- Node26&#45;&gt;Node29 -->
<g id="edge43" class="edge"><title>Node26&#45;&gt;Node29</title>
<path fill="none" stroke="midnightblue" d="M1656,-112.075C1828.17,-87.6477 1873.96,-94.3681 2042.5,-76 2045.51,-75.6724 2048.58,-75.3272 2051.69,-74.9705"/>
<polygon fill="midnightblue" stroke="midnightblue" points="1655.5,-108.611 1646.1,-113.495 1656.5,-115.54 1655.5,-108.611"/>
</g>
</g>
</svg>
        <g id="navigator" transform="translate(0 0)" fill="#404254">
                <rect fill="#f2f5e9" fill-opacity="0.5" stroke="#606060" stroke-width=".5" x="0" y="0" width="60" height="60"/>
                <use id="zoomplus" xlink:href="#zoomPlus" x="17" y="9" onmousedown="handleZoom(evt,'in')"/>
                <use id="zoomminus" xlink:href="#zoomMin" x="42" y="9" onmousedown="handleZoom(evt,'out')"/>
                <use id="reset" xlink:href="#resetDef" x="30" y="36" onmousedown="handleReset()"/>
                <g id="arrowUp" xlink:href="#dirArrow" transform="translate(30 24)" onmousedown="handlePan(0,-1)">
                  <use xlink:href="#rim" fill="#404040">
                        <set attributeName="fill" to="#808080" begin="arrowUp.mouseover" end="arrowUp.mouseout"/>
                  </use>
                  <path fill="none" stroke="white" stroke-width="1.5" d="M0,-3.0v7 M-2.5,-0.5L0,-3.0L2.5,-0.5"/>
                </g>
                <g id="arrowRight" xlink:href="#dirArrow" transform="rotate(90) translate(36 -43)" onmousedown="handlePan(1,0)">
                  <use xlink:href="#rim" fill="#404040">
                        <set attributeName="fill" to="#808080" begin="arrowRight.mouseover" end="arrowRight.mouseout"/>
                  </use>
                  <path fill="none" stroke="white" stroke-width="1.5" d="M0,-3.0v7 M-2.5,-0.5L0,-3.0L2.5,-0.5"/>
                </g>
                <g id="arrowDown" xlink:href="#dirArrow" transform="rotate(180) translate(-30 -48)" onmousedown="handlePan(0,1)">
                  <use xlink:href="#rim" fill="#404040">
                        <set attributeName="fill" to="#808080" begin="arrowDown.mouseover" end="arrowDown.mouseout"/>
                  </use>
                  <path fill="none" stroke="white" stroke-width="1.5" d="M0,-3.0v7 M-2.5,-0.5L0,-3.0L2.5,-0.5"/>
                </g>
                <g id="arrowLeft" xlink:href="#dirArrow" transform="rotate(270) translate(-36 17)" onmousedown="handlePan(-1,0)">
                  <use xlink:href="#rim" fill="#404040">
                        <set attributeName="fill" to="#808080" begin="arrowLeft.mouseover" end="arrowLeft.mouseout"/>
                  </use>
                  <path fill="none" stroke="white" stroke-width="1.5" d="M0,-3.0v7 M-2.5,-0.5L0,-3.0L2.5,-0.5"/>
                </g>
        </g>
        <svg viewBox="0 0 15 15" width="100%" height="30px" preserveAspectRatio="xMaxYMin meet">
         <g id="arrow_out" transform="scale(0.3 0.3)">
          <a xlink:href="torccentral_8h__dep__incl_org.svg" target="_base">
           <rect id="button" ry="5" rx="5" y="6" x="6" height="38" width="38"
                fill="#f2f5e9" fill-opacity="0.5" stroke="#606060" stroke-width="1.0"/>
           <path id="arrow"
             d="M 11.500037,31.436501 C 11.940474,20.09759 22.043105,11.32322 32.158766,21.979434 L 37.068811,17.246167 C 37.068811,17.246167 37.088388,32 37.088388,32 L 22.160133,31.978069 C 22.160133,31.978069 26.997745,27.140456 26.997745,27.140456 C 18.528582,18.264221 13.291696,25.230495 11.500037,31.436501 z"
             style="fill:#404040;"/>
          </a>
         </g>
        </svg>
</svg>
