<?xml version="1.0" encoding="UTF-8" standalone="no"?>
<!DOCTYPE svg PUBLIC "-//W3C//DTD SVG 1.1//EN"
 "http://www.w3.org/Graphics/SVG/1.1/DTD/svg11.dtd">
<!-- Generated by graphviz version 2.38.0 (20140413.2041)
 -->
<!-- Title: torcupnpcontent.cpp Pages: 1 -->
<!--zoomable 476 -->
<svg id="main" version="1.1" xmlns="http://www.w3.org/2000/svg" xmlns:xlink="http://www.w3.org/1999/xlink" xml:space="preserve" onload="init(evt)">
<style type="text/css"><![CDATA[
.edge:hover path { stroke: red; }
.edge:hover polygon { stroke: red; fill: red; }
]]></style>
<script type="text/javascript"><![CDATA[
var edges = document.getElementsByTagName('g');
if (edges && edges.length) {
  for (var i=0;i<edges.length;i++) {
    if (edges[i].id.substr(0,4)=='edge') {
      edges[i].setAttribute('class','edge');
    }
  }
}
]]></script>
        <defs>
                <circle id="rim" cx="0" cy="0" r="7"/>
                <circle id="rim2" cx="0" cy="0" r="3.5"/>
                <g id="zoomPlus">
                        <use xlink:href="#rim" fill="#404040">
                                <set attributeName="fill" to="#808080" begin="zoomplus.mouseover" end="zoomplus.mouseout"/>
                        </use>
                        <path d="M-4,0h8M0,-4v8" fill="none" stroke="white" stroke-width="1.5" pointer-events="none"/>
                </g>
                <g id="zoomMin">
                        <use xlink:href="#rim" fill="#404040">
                                <set attributeName="fill" to="#808080" begin="zoomminus.mouseover" end="zoomminus.mouseout"/>
                        </use>
                        <path d="M-4,0h8" fill="none" stroke="white" stroke-width="1.5" pointer-events="none"/>
                </g>
                <g id="dirArrow">
                        <path fill="none" stroke="white" stroke-width="1.5" d="M0,-3.0v7 M-2.5,-0.5L0,-3.0L2.5,-0.5"/>
                </g>
               <g id="resetDef">
                       <use xlink:href="#rim2" fill="#404040">
                               <set attributeName="fill" to="#808080" begin="reset.mouseover" end="reset.mouseout"/>
                       </use>
               </g>
        </defs>

<script type="text/javascript">
var viewWidth = 1537;
var viewHeight = 476;
var sectionId = 'dynsection-0';
</script>
<script xlink:href="../../svgpan.js"/>
<svg id="graph" class="graph">
<g id="viewport">
<title>torcupnpcontent.cpp</title>
<polygon fill="white" stroke="none" points="-4,4 -4,-472 1533,-472 1533,4 -4,4"/>
<!-- Node1 -->
<g id="node1" class="node"><title>Node1</title>
<polygon fill="#bfbfbf" stroke="black" points="981.5,-448.5 981.5,-467.5 1097.5,-467.5 1097.5,-448.5 981.5,-448.5"/>
<text text-anchor="middle" x="1039.5" y="-455.5" font-family="Helvetica,sans-Serif" font-size="10.00">torcupnpcontent.cpp</text>
</g>
<!-- Node2 -->
<g id="node2" class="node"><title>Node2</title>
<polygon fill="white" stroke="#bfbfbf" points="715.5,-392.5 715.5,-411.5 801.5,-411.5 801.5,-392.5 715.5,-392.5"/>
<text text-anchor="middle" x="758.5" y="-399.5" font-family="Helvetica,sans-Serif" font-size="10.00">QHostAddress</text>
</g>
<!-- Node1&#45;&gt;Node2 -->
<g id="edge1" class="edge"><title>Node1&#45;&gt;Node2</title>
<path fill="none" stroke="midnightblue" d="M994.975,-448.444C945.253,-438.889 864.814,-423.43 811.789,-413.241"/>
<polygon fill="midnightblue" stroke="midnightblue" points="812.374,-409.789 801.894,-411.339 811.053,-416.663 812.374,-409.789"/>
</g>
<!-- Node3 -->
<g id="node3" class="node"><title>Node3</title>
<polygon fill="white" stroke="#bfbfbf" points="820,-392.5 820,-411.5 925,-411.5 925,-392.5 820,-392.5"/>
<text text-anchor="middle" x="872.5" y="-399.5" font-family="Helvetica,sans-Serif" font-size="10.00">QXmlStreamWriter</text>
</g>
<!-- Node1&#45;&gt;Node3 -->
<g id="edge2" class="edge"><title>Node1&#45;&gt;Node3</title>
<path fill="none" stroke="midnightblue" d="M1013.04,-448.444C984.822,-439.32 939.96,-424.813 908.532,-414.651"/>
<polygon fill="midnightblue" stroke="midnightblue" points="909.43,-411.263 898.838,-411.516 907.276,-417.923 909.43,-411.263"/>
</g>
<!-- Node4 -->
<g id="node4" class="node"><title>Node4</title>
<g id="a_node4"><a xlink:href="../../dd/dbd/torclocalcontext_8h.html" target="_top" xlink:title="torclocalcontext.h">
<polygon fill="white" stroke="black" points="545.5,-336.5 545.5,-355.5 647.5,-355.5 647.5,-336.5 545.5,-336.5"/>
<text text-anchor="middle" x="596.5" y="-343.5" font-family="Helvetica,sans-Serif" font-size="10.00">torclocalcontext.h</text>
</a>
</g>
</g>
<!-- Node1&#45;&gt;Node4 -->
<g id="edge3" class="edge"><title>Node1&#45;&gt;Node4</title>
<path fill="none" stroke="midnightblue" d="M1039.78,-448.223C1039.71,-433.981 1037.28,-406.022 1020.5,-392 993.233,-369.216 768.353,-355.295 657.628,-349.759"/>
<polygon fill="midnightblue" stroke="midnightblue" points="657.761,-346.261 647.601,-349.265 657.416,-353.253 657.761,-346.261"/>
</g>
<!-- Node18 -->
<g id="node18" class="node"><title>Node18</title>
<g id="a_node18"><a xlink:href="../../d4/d11/torchttphandler_8h.html" target="_top" xlink:title="torchttphandler.h">
<polygon fill="white" stroke="black" points="1071,-168.5 1071,-187.5 1170,-187.5 1170,-168.5 1071,-168.5"/>
<text text-anchor="middle" x="1120.5" y="-175.5" font-family="Helvetica,sans-Serif" font-size="10.00">torchttphandler.h</text>
</a>
</g>
</g>
<!-- Node1&#45;&gt;Node18 -->
<g id="edge55" class="edge"><title>Node1&#45;&gt;Node18</title>
<path fill="none" stroke="midnightblue" d="M1061.6,-448.442C1096.02,-433.501 1158.5,-399.189 1158.5,-347 1158.5,-347 1158.5,-347 1158.5,-289 1158.5,-254.813 1141.9,-217.764 1130.64,-196.571"/>
<polygon fill="midnightblue" stroke="midnightblue" points="1133.68,-194.832 1125.78,-187.769 1127.55,-198.215 1133.68,-194.832"/>
</g>
<!-- Node43 -->
<g id="node43" class="node"><title>Node43</title>
<g id="a_node43"><a xlink:href="../../dd/d1e/torcupnp_8h.html" target="_top" xlink:title="torcupnp.h">
<polygon fill="white" stroke="black" points="943.5,-392.5 943.5,-411.5 1011.5,-411.5 1011.5,-392.5 943.5,-392.5"/>
<text text-anchor="middle" x="977.5" y="-399.5" font-family="Helvetica,sans-Serif" font-size="10.00">torcupnp.h</text>
</a>
</g>
</g>
<!-- Node1&#45;&gt;Node43 -->
<g id="edge56" class="edge"><title>Node1&#45;&gt;Node43</title>
<path fill="none" stroke="midnightblue" d="M1029.54,-448.324C1020.37,-440.341 1006.56,-428.313 995.472,-418.653"/>
<polygon fill="midnightblue" stroke="midnightblue" points="997.482,-415.762 987.643,-411.834 992.885,-421.041 997.482,-415.762"/>
</g>
<!-- Node44 -->
<g id="node44" class="node"><title>Node44</title>
<g id="a_node44"><a xlink:href="../../df/d19/torcupnpcontent_8h.html" target="_top" xlink:title="torcupnpcontent.h">
<polygon fill="white" stroke="black" points="1025,-336.5 1025,-355.5 1130,-355.5 1130,-336.5 1025,-336.5"/>
<text text-anchor="middle" x="1077.5" y="-343.5" font-family="Helvetica,sans-Serif" font-size="10.00">torcupnpcontent.h</text>
</a>
</g>
</g>
<!-- Node1&#45;&gt;Node44 -->
<g id="edge58" class="edge"><title>Node1&#45;&gt;Node44</title>
<path fill="none" stroke="midnightblue" d="M1042.48,-448.368C1048.64,-430.537 1062.89,-389.295 1071.19,-365.272"/>
<polygon fill="midnightblue" stroke="midnightblue" points="1074.57,-366.186 1074.53,-355.591 1067.96,-363.9 1074.57,-366.186"/>
</g>
<!-- Node45 -->
<g id="node45" class="node"><title>Node45</title>
<g id="a_node45"><a xlink:href="../../da/da5/torcnetwork_8h.html" target="_top" xlink:title="torcnetwork.h">
<polygon fill="white" stroke="black" points="1211.5,-336.5 1211.5,-355.5 1293.5,-355.5 1293.5,-336.5 1211.5,-336.5"/>
<text text-anchor="middle" x="1252.5" y="-343.5" font-family="Helvetica,sans-Serif" font-size="10.00">torcnetwork.h</text>
</a>
</g>
</g>
<!-- Node1&#45;&gt;Node45 -->
<g id="edge60" class="edge"><title>Node1&#45;&gt;Node45</title>
<path fill="none" stroke="midnightblue" d="M1075.95,-448.436C1103.53,-441.079 1141.77,-428.96 1172.5,-412 1196.82,-398.576 1221.07,-377.528 1236.38,-363.041"/>
<polygon fill="midnightblue" stroke="midnightblue" points="1239.16,-365.224 1243.92,-355.757 1234.29,-360.192 1239.16,-365.224"/>
</g>
<!-- Node5 -->
<g id="node5" class="node"><title>Node5</title>
<polygon fill="white" stroke="#bfbfbf" points="566,-168.5 566,-187.5 621,-187.5 621,-168.5 566,-168.5"/>
<text text-anchor="middle" x="593.5" y="-175.5" font-family="Helvetica,sans-Serif" font-size="10.00">QObject</text>
</g>
<!-- Node4&#45;&gt;Node5 -->
<g id="edge4" class="edge"><title>Node4&#45;&gt;Node5</title>
<path fill="none" stroke="midnightblue" d="M600.611,-336.277C604.559,-327.383 610.245,-313.074 612.5,-300 618.772,-263.639 607.812,-220.979 600.099,-197.264"/>
<polygon fill="midnightblue" stroke="midnightblue" points="603.314,-195.848 596.76,-187.523 596.692,-198.118 603.314,-195.848"/>
</g>
<!-- Node6 -->
<g id="node6" class="node"><title>Node6</title>
<polygon fill="white" stroke="#bfbfbf" points="895,-56.5 895,-75.5 948,-75.5 948,-56.5 895,-56.5"/>
<text text-anchor="middle" x="921.5" y="-63.5" font-family="Helvetica,sans-Serif" font-size="10.00">QString</text>
</g>
<!-- Node4&#45;&gt;Node6 -->
<g id="edge5" class="edge"><title>Node4&#45;&gt;Node6</title>
<path fill="none" stroke="midnightblue" d="M603.185,-336.444C609.791,-327.68 619.846,-313.469 626.5,-300 642.311,-267.992 629.885,-251.623 652.5,-224 686.885,-182.002 832.774,-109.32 894.133,-79.9093"/>
<polygon fill="midnightblue" stroke="midnightblue" points="895.707,-83.0366 903.225,-75.5718 892.692,-76.7187 895.707,-83.0366"/>
</g>
<!-- Node7 -->
<g id="node7" class="node"><title>Node7</title>
<polygon fill="white" stroke="#bfbfbf" points="661.5,-224.5 661.5,-243.5 753.5,-243.5 753.5,-224.5 661.5,-224.5"/>
<text text-anchor="middle" x="707.5" y="-231.5" font-family="Helvetica,sans-Serif" font-size="10.00">QReadWriteLock</text>
</g>
<!-- Node4&#45;&gt;Node7 -->
<g id="edge6" class="edge"><title>Node4&#45;&gt;Node7</title>
<path fill="none" stroke="midnightblue" d="M624.6,-336.494C643.547,-329.459 667.851,-317.715 683.5,-300 695.063,-286.911 701.23,-267.761 704.402,-253.636"/>
<polygon fill="midnightblue" stroke="midnightblue" points="707.881,-254.08 706.35,-243.596 701.009,-252.746 707.881,-254.08"/>
</g>
<!-- Node8 -->
<g id="node8" class="node"><title>Node8</title>
<polygon fill="white" stroke="#bfbfbf" points="494,-168.5 494,-187.5 547,-187.5 547,-168.5 494,-168.5"/>
<text text-anchor="middle" x="520.5" y="-175.5" font-family="Helvetica,sans-Serif" font-size="10.00">QMutex</text>
</g>
<!-- Node4&#45;&gt;Node8 -->
<g id="edge7" class="edge"><title>Node4&#45;&gt;Node8</title>
<path fill="none" stroke="midnightblue" d="M545.463,-345.366C465.82,-344.726 317.642,-338.265 284.5,-300 262.272,-274.336 295.635,-240.398 318.5,-224 331.872,-214.41 429.546,-195.502 484.022,-185.522"/>
<polygon fill="midnightblue" stroke="midnightblue" points="484.771,-188.943 493.983,-183.709 483.518,-182.056 484.771,-188.943"/>
</g>
<!-- Node9 -->
<g id="node9" class="node"><title>Node9</title>
<g id="a_node9"><a xlink:href="../../db/db2/torclocaldefs_8h.html" target="_top" xlink:title="torclocaldefs.h">
<polygon fill="white" stroke="black" points="517.5,-280.5 517.5,-299.5 603.5,-299.5 603.5,-280.5 517.5,-280.5"/>
<text text-anchor="middle" x="560.5" y="-287.5" font-family="Helvetica,sans-Serif" font-size="10.00">torclocaldefs.h</text>
</a>
</g>
</g>
<!-- Node4&#45;&gt;Node9 -->
<g id="edge8" class="edge"><title>Node4&#45;&gt;Node9</title>
<path fill="none" stroke="midnightblue" d="M590.555,-336.083C585.523,-328.534 578.163,-317.495 571.987,-308.23"/>
<polygon fill="midnightblue" stroke="midnightblue" points="574.793,-306.13 566.334,-299.751 568.969,-310.013 574.793,-306.13"/>
</g>
<!-- Node10 -->
<g id="node10" class="node"><title>Node10</title>
<g id="a_node10"><a xlink:href="../../db/df5/torcsetting_8h.html" target="_top" xlink:title="torcsetting.h">
<polygon fill="white" stroke="black" points="806,-280.5 806,-299.5 883,-299.5 883,-280.5 806,-280.5"/>
<text text-anchor="middle" x="844.5" y="-287.5" font-family="Helvetica,sans-Serif" font-size="10.00">torcsetting.h</text>
</a>
</g>
</g>
<!-- Node4&#45;&gt;Node10 -->
<g id="edge9" class="edge"><title>Node4&#45;&gt;Node10</title>
<path fill="none" stroke="midnightblue" d="M635.796,-336.444C679.187,-326.996 749.082,-311.776 795.886,-301.585"/>
<polygon fill="midnightblue" stroke="midnightblue" points="796.769,-304.975 805.796,-299.428 795.28,-298.135 796.769,-304.975"/>
</g>
<!-- Node28 -->
<g id="node28" class="node"><title>Node28</title>
<g id="a_node28"><a xlink:href="../../d6/d94/torcobservable_8h.html" target="_top" xlink:title="torcobservable.h">
<polygon fill="white" stroke="black" points="65,-280.5 65,-299.5 162,-299.5 162,-280.5 65,-280.5"/>
<text text-anchor="middle" x="113.5" y="-287.5" font-family="Helvetica,sans-Serif" font-size="10.00">torcobservable.h</text>
</a>
</g>
</g>
<!-- Node4&#45;&gt;Node28 -->
<g id="edge34" class="edge"><title>Node4&#45;&gt;Node28</title>
<path fill="none" stroke="midnightblue" d="M545.268,-339.272C454.847,-329.163 267.517,-308.219 172.104,-297.552"/>
<polygon fill="midnightblue" stroke="midnightblue" points="172.376,-294.061 162.049,-296.428 171.599,-301.017 172.376,-294.061"/>
</g>
<!-- Node31 -->
<g id="node31" class="node"><title>Node31</title>
<g id="a_node31"><a xlink:href="../../d7/d70/torcsqlitedb_8h.html" target="_top" xlink:title="torcsqlitedb.h">
<polygon fill="white" stroke="black" points="417.5,-280.5 417.5,-299.5 499.5,-299.5 499.5,-280.5 417.5,-280.5"/>
<text text-anchor="middle" x="458.5" y="-287.5" font-family="Helvetica,sans-Serif" font-size="10.00">torcsqlitedb.h</text>
</a>
</g>
</g>
<!-- Node4&#45;&gt;Node31 -->
<g id="edge39" class="edge"><title>Node4&#45;&gt;Node31</title>
<path fill="none" stroke="midnightblue" d="M574.633,-336.444C551.721,-327.478 515.525,-313.314 489.634,-303.183"/>
<polygon fill="midnightblue" stroke="midnightblue" points="490.852,-299.901 480.264,-299.516 488.301,-306.42 490.852,-299.901"/>
</g>
<!-- Node33 -->
<g id="node33" class="node"><title>Node33</title>
<g id="a_node33"><a xlink:href="../../dd/dd5/torcadminthread_8h.html" target="_top" xlink:title="torcadminthread.h">
<polygon fill="white" stroke="black" points="293.5,-280.5 293.5,-299.5 399.5,-299.5 399.5,-280.5 293.5,-280.5"/>
<text text-anchor="middle" x="346.5" y="-287.5" font-family="Helvetica,sans-Serif" font-size="10.00">torcadminthread.h</text>
</a>
</g>
</g>
<!-- Node4&#45;&gt;Node33 -->
<g id="edge43" class="edge"><title>Node4&#45;&gt;Node33</title>
<path fill="none" stroke="midnightblue" d="M556.887,-336.444C513.275,-327.023 443.1,-311.866 395.922,-301.675"/>
<polygon fill="midnightblue" stroke="midnightblue" points="396.441,-298.207 385.928,-299.516 394.964,-305.049 396.441,-298.207"/>
</g>
<!-- Node37 -->
<g id="node37" class="node"><title>Node37</title>
<g id="a_node37"><a xlink:href="../../db/d41/torccommandline_8h.html" target="_top" xlink:title="torccommandline.h">
<polygon fill="white" stroke="black" points="161.5,-224.5 161.5,-243.5 271.5,-243.5 271.5,-224.5 161.5,-224.5"/>
<text text-anchor="middle" x="216.5" y="-231.5" font-family="Helvetica,sans-Serif" font-size="10.00">torccommandline.h</text>
</a>
</g>
</g>
<!-- Node4&#45;&gt;Node37 -->
<g id="edge47" class="edge"><title>Node4&#45;&gt;Node37</title>
<path fill="none" stroke="midnightblue" d="M545.295,-343.949C461.092,-341.309 298.07,-332.085 251.5,-300 235.703,-289.117 226.414,-268.741 221.423,-253.692"/>
<polygon fill="midnightblue" stroke="midnightblue" points="224.714,-252.481 218.516,-243.888 218.003,-254.471 224.714,-252.481"/>
</g>
<!-- Node10&#45;&gt;Node5 -->
<g id="edge12" class="edge"><title>Node10&#45;&gt;Node5</title>
<path fill="none" stroke="midnightblue" d="M836.233,-280.478C822.302,-266.603 792.698,-239.159 762.5,-224 739.625,-212.517 673.579,-196.641 631.147,-187.139"/>
<polygon fill="midnightblue" stroke="midnightblue" points="631.691,-183.674 621.17,-184.924 630.174,-190.508 631.691,-183.674"/>
</g>
<!-- Node10&#45;&gt;Node7 -->
<g id="edge11" class="edge"><title>Node10&#45;&gt;Node7</title>
<path fill="none" stroke="midnightblue" d="M822.792,-280.444C800.145,-271.517 764.428,-257.439 738.748,-247.317"/>
<polygon fill="midnightblue" stroke="midnightblue" points="739.693,-243.927 729.106,-243.516 737.126,-250.44 739.693,-243.927"/>
</g>
<!-- Node11 -->
<g id="node11" class="node"><title>Node11</title>
<polygon fill="white" stroke="#bfbfbf" points="897,-224.5 897,-243.5 938,-243.5 938,-224.5 897,-224.5"/>
<text text-anchor="middle" x="917.5" y="-231.5" font-family="Helvetica,sans-Serif" font-size="10.00">QSet</text>
</g>
<!-- Node10&#45;&gt;Node11 -->
<g id="edge10" class="edge"><title>Node10&#45;&gt;Node11</title>
<path fill="none" stroke="midnightblue" d="M856.229,-280.324C867.337,-272.107 884.242,-259.602 897.483,-249.807"/>
<polygon fill="midnightblue" stroke="midnightblue" points="899.6,-252.595 905.558,-243.834 895.437,-246.967 899.6,-252.595"/>
</g>
<!-- Node12 -->
<g id="node12" class="node"><title>Node12</title>
<polygon fill="white" stroke="#bfbfbf" points="107.5,-168.5 107.5,-187.5 165.5,-187.5 165.5,-168.5 107.5,-168.5"/>
<text text-anchor="middle" x="136.5" y="-175.5" font-family="Helvetica,sans-Serif" font-size="10.00">QVariant</text>
</g>
<!-- Node10&#45;&gt;Node12 -->
<g id="edge13" class="edge"><title>Node10&#45;&gt;Node12</title>
<path fill="none" stroke="midnightblue" d="M805.611,-287.09C661.441,-279.933 165.119,-254.568 152.5,-244 139.294,-232.94 136.017,-212.898 135.598,-197.982"/>
<polygon fill="midnightblue" stroke="midnightblue" points="139.099,-197.849 135.717,-187.809 132.1,-197.767 139.099,-197.849"/>
</g>
<!-- Node13 -->
<g id="node13" class="node"><title>Node13</title>
<polygon fill="white" stroke="#bfbfbf" points="810,-224.5 810,-243.5 879,-243.5 879,-224.5 810,-224.5"/>
<text text-anchor="middle" x="844.5" y="-231.5" font-family="Helvetica,sans-Serif" font-size="10.00">QStringList</text>
</g>
<!-- Node10&#45;&gt;Node13 -->
<g id="edge14" class="edge"><title>Node10&#45;&gt;Node13</title>
<path fill="none" stroke="midnightblue" d="M844.5,-280.083C844.5,-273.006 844.5,-262.861 844.5,-253.986"/>
<polygon fill="midnightblue" stroke="midnightblue" points="848,-253.751 844.5,-243.751 841,-253.751 848,-253.751"/>
</g>
<!-- Node14 -->
<g id="node14" class="node"><title>Node14</title>
<g id="a_node14"><a xlink:href="../../d3/dee/torchttpservice_8h.html" target="_top" xlink:title="torchttpservice.h">
<polygon fill="white" stroke="black" points="994.5,-224.5 994.5,-243.5 1092.5,-243.5 1092.5,-224.5 994.5,-224.5"/>
<text text-anchor="middle" x="1043.5" y="-231.5" font-family="Helvetica,sans-Serif" font-size="10.00">torchttpservice.h</text>
</a>
</g>
</g>
<!-- Node10&#45;&gt;Node14 -->
<g id="edge15" class="edge"><title>Node10&#45;&gt;Node14</title>
<path fill="none" stroke="midnightblue" d="M876.032,-280.444C910.092,-271.201 964.506,-256.436 1002.02,-246.257"/>
<polygon fill="midnightblue" stroke="midnightblue" points="1003.38,-249.513 1012.12,-243.516 1001.55,-242.758 1003.38,-249.513"/>
</g>
<!-- Node26 -->
<g id="node26" class="node"><title>Node26</title>
<g id="a_node26"><a xlink:href="../../d8/dfe/torcreferencecounted_8h.html" target="_top" xlink:title="torcreferencecounted.h">
<polygon fill="white" stroke="black" points="1187,-224.5 1187,-243.5 1316,-243.5 1316,-224.5 1187,-224.5"/>
<text text-anchor="middle" x="1251.5" y="-231.5" font-family="Helvetica,sans-Serif" font-size="10.00">torcreferencecounted.h</text>
</a>
</g>
</g>
<!-- Node10&#45;&gt;Node26 -->
<g id="edge32" class="edge"><title>Node10&#45;&gt;Node26</title>
<path fill="none" stroke="midnightblue" d="M883.157,-283.871C950.533,-274.932 1090.55,-256.355 1177.22,-244.855"/>
<polygon fill="midnightblue" stroke="midnightblue" points="1177.81,-248.308 1187.26,-243.523 1176.89,-241.369 1177.81,-248.308"/>
</g>
<!-- Node14&#45;&gt;Node8 -->
<g id="edge17" class="edge"><title>Node14&#45;&gt;Node8</title>
<path fill="none" stroke="midnightblue" d="M994.17,-228.362C979.182,-226.956 962.668,-225.411 947.5,-224 774.178,-207.876 729.197,-216.648 557.5,-188 557.394,-187.982 557.288,-187.965 557.182,-187.947"/>
<polygon fill="midnightblue" stroke="midnightblue" points="557.568,-184.456 547.081,-185.959 556.217,-191.324 557.568,-184.456"/>
</g>
<!-- Node15 -->
<g id="node15" class="node"><title>Node15</title>
<polygon fill="white" stroke="#bfbfbf" points="571.5,-56.5 571.5,-75.5 615.5,-75.5 615.5,-56.5 571.5,-56.5"/>
<text text-anchor="middle" x="593.5" y="-63.5" font-family="Helvetica,sans-Serif" font-size="10.00">QMap</text>
</g>
<!-- Node14&#45;&gt;Node15 -->
<g id="edge16" class="edge"><title>Node14&#45;&gt;Node15</title>
<path fill="none" stroke="midnightblue" d="M994.27,-225.086C934.581,-215.267 837.611,-198.537 802.5,-188 741.07,-169.564 724.077,-165.689 669.5,-132 646.563,-117.842 623.495,-96.9504 608.891,-82.6996"/>
<polygon fill="midnightblue" stroke="midnightblue" points="611.261,-80.1206 601.703,-75.5506 606.325,-85.084 611.261,-80.1206"/>
</g>
<!-- Node16 -->
<g id="node16" class="node"><title>Node16</title>
<polygon fill="white" stroke="#bfbfbf" points="857,-168.5 857,-187.5 936,-187.5 936,-168.5 857,-168.5"/>
<text text-anchor="middle" x="896.5" y="-175.5" font-family="Helvetica,sans-Serif" font-size="10.00">QMetaObject</text>
</g>
<!-- Node14&#45;&gt;Node16 -->
<g id="edge18" class="edge"><title>Node14&#45;&gt;Node16</title>
<path fill="none" stroke="midnightblue" d="M1020.21,-224.444C995.693,-215.438 956.904,-201.189 929.3,-191.049"/>
<polygon fill="midnightblue" stroke="midnightblue" points="930.277,-187.679 919.684,-187.516 927.863,-194.25 930.277,-187.679"/>
</g>
<!-- Node17 -->
<g id="node17" class="node"><title>Node17</title>
<polygon fill="white" stroke="#bfbfbf" points="954,-168.5 954,-187.5 1053,-187.5 1053,-168.5 954,-168.5"/>
<text text-anchor="middle" x="1003.5" y="-175.5" font-family="Helvetica,sans-Serif" font-size="10.00">QCoreApplication</text>
</g>
<!-- Node14&#45;&gt;Node17 -->
<g id="edge19" class="edge"><title>Node14&#45;&gt;Node17</title>
<path fill="none" stroke="midnightblue" d="M1036.89,-224.083C1031.24,-216.455 1022.96,-205.264 1016.05,-195.941"/>
<polygon fill="midnightblue" stroke="midnightblue" points="1018.75,-193.703 1009.98,-187.751 1013.12,-197.87 1018.75,-193.703"/>
</g>
<!-- Node14&#45;&gt;Node18 -->
<g id="edge20" class="edge"><title>Node14&#45;&gt;Node18</title>
<path fill="none" stroke="midnightblue" d="M1055.87,-224.324C1067.66,-216.058 1085.63,-203.453 1099.64,-193.632"/>
<polygon fill="midnightblue" stroke="midnightblue" points="1101.98,-196.262 1108.16,-187.655 1097.96,-190.531 1101.98,-196.262"/>
</g>
<!-- Node20 -->
<g id="node20" class="node"><title>Node20</title>
<g id="a_node20"><a xlink:href="../../df/dd7/torchttprequest_8h.html" target="_top" xlink:title="torchttprequest.h">
<polygon fill="white" stroke="black" points="678,-112.5 678,-131.5 779,-131.5 779,-112.5 678,-112.5"/>
<text text-anchor="middle" x="728.5" y="-119.5" font-family="Helvetica,sans-Serif" font-size="10.00">torchttprequest.h</text>
</a>
</g>
</g>
<!-- Node14&#45;&gt;Node20 -->
<g id="edge31" class="edge"><title>Node14&#45;&gt;Node20</title>
<path fill="none" stroke="midnightblue" d="M994.345,-225.444C954.255,-218.39 896.596,-206.192 848.5,-188 812.307,-174.31 773.453,-151.632 750.065,-137.007"/>
<polygon fill="midnightblue" stroke="midnightblue" points="751.93,-134.045 741.61,-131.648 748.183,-139.958 751.93,-134.045"/>
</g>
<!-- Node18&#45;&gt;Node6 -->
<g id="edge21" class="edge"><title>Node18&#45;&gt;Node6</title>
<path fill="none" stroke="midnightblue" d="M1104.88,-168.368C1070.37,-149.292 987.391,-103.422 945.933,-80.5054"/>
<polygon fill="midnightblue" stroke="midnightblue" points="947.488,-77.366 937.043,-75.5914 944.101,-83.4924 947.488,-77.366"/>
</g>
<!-- Node19 -->
<g id="node19" class="node"><title>Node19</title>
<polygon fill="white" stroke="#bfbfbf" points="1081.5,-112.5 1081.5,-131.5 1159.5,-131.5 1159.5,-112.5 1081.5,-112.5"/>
<text text-anchor="middle" x="1120.5" y="-119.5" font-family="Helvetica,sans-Serif" font-size="10.00">QVariantMap</text>
</g>
<!-- Node18&#45;&gt;Node19 -->
<g id="edge22" class="edge"><title>Node18&#45;&gt;Node19</title>
<path fill="none" stroke="midnightblue" d="M1120.5,-168.083C1120.5,-161.006 1120.5,-150.861 1120.5,-141.986"/>
<polygon fill="midnightblue" stroke="midnightblue" points="1124,-141.751 1120.5,-131.751 1117,-141.751 1124,-141.751"/>
</g>
<!-- Node18&#45;&gt;Node20 -->
<g id="edge23" class="edge"><title>Node18&#45;&gt;Node20</title>
<path fill="none" stroke="midnightblue" d="M1070.84,-169.227C1068.02,-168.806 1065.22,-168.395 1062.5,-168 967.078,-154.17 856.106,-139.499 789.144,-130.8"/>
<polygon fill="midnightblue" stroke="midnightblue" points="789.554,-127.324 779.187,-129.508 788.654,-134.266 789.554,-127.324"/>
</g>
<!-- Node20&#45;&gt;Node6 -->
<g id="edge26" class="edge"><title>Node20&#45;&gt;Node6</title>
<path fill="none" stroke="midnightblue" d="M759.081,-112.444C793.28,-102.875 848.637,-87.3864 885.055,-77.1971"/>
<polygon fill="midnightblue" stroke="midnightblue" points="886.104,-80.5381 894.791,-74.473 884.218,-73.797 886.104,-80.5381"/>
</g>
<!-- Node20&#45;&gt;Node15 -->
<g id="edge24" class="edge"><title>Node20&#45;&gt;Node15</title>
<path fill="none" stroke="midnightblue" d="M707.109,-112.444C684.793,-103.517 649.597,-89.4387 624.292,-79.3168"/>
<polygon fill="midnightblue" stroke="midnightblue" points="625.376,-75.9807 614.791,-75.5164 622.776,-82.4801 625.376,-75.9807"/>
</g>
<!-- Node21 -->
<g id="node21" class="node"><title>Node21</title>
<polygon fill="white" stroke="#bfbfbf" points="634,-56.5 634,-75.5 675,-75.5 675,-56.5 634,-56.5"/>
<text text-anchor="middle" x="654.5" y="-63.5" font-family="Helvetica,sans-Serif" font-size="10.00">QPair</text>
</g>
<!-- Node20&#45;&gt;Node21 -->
<g id="edge25" class="edge"><title>Node20&#45;&gt;Node21</title>
<path fill="none" stroke="midnightblue" d="M716.611,-112.324C705.35,-104.107 688.213,-91.6017 674.791,-81.8069"/>
<polygon fill="midnightblue" stroke="midnightblue" points="676.747,-78.9014 666.606,-75.8339 672.62,-84.5559 676.747,-78.9014"/>
</g>
<!-- Node22 -->
<g id="node22" class="node"><title>Node22</title>
<polygon fill="white" stroke="#bfbfbf" points="693,-56.5 693,-75.5 764,-75.5 764,-56.5 693,-56.5"/>
<text text-anchor="middle" x="728.5" y="-63.5" font-family="Helvetica,sans-Serif" font-size="10.00">QDateTime</text>
</g>
<!-- Node20&#45;&gt;Node22 -->
<g id="edge27" class="edge"><title>Node20&#45;&gt;Node22</title>
<path fill="none" stroke="midnightblue" d="M728.5,-112.083C728.5,-105.006 728.5,-94.8611 728.5,-85.9865"/>
<polygon fill="midnightblue" stroke="midnightblue" points="732,-85.751 728.5,-75.7511 725,-85.7511 732,-85.751"/>
</g>
<!-- Node23 -->
<g id="node23" class="node"><title>Node23</title>
<g id="a_node23"><a xlink:href="../../de/de6/torchttpreader_8h.html" target="_top" xlink:title="torchttpreader.h">
<polygon fill="white" stroke="black" points="782,-56.5 782,-75.5 877,-75.5 877,-56.5 782,-56.5"/>
<text text-anchor="middle" x="829.5" y="-63.5" font-family="Helvetica,sans-Serif" font-size="10.00">torchttpreader.h</text>
</a>
</g>
</g>
<!-- Node20&#45;&gt;Node23 -->
<g id="edge28" class="edge"><title>Node20&#45;&gt;Node23</title>
<path fill="none" stroke="midnightblue" d="M744.727,-112.324C760.851,-103.703 785.8,-90.3643 804.464,-80.3855"/>
<polygon fill="midnightblue" stroke="midnightblue" points="806.144,-83.456 813.313,-75.6545 802.844,-77.283 806.144,-83.456"/>
</g>
<!-- Node24 -->
<g id="node24" class="node"><title>Node24</title>
<polygon fill="white" stroke="#bfbfbf" points="749,-0.5 749,-19.5 820,-19.5 820,-0.5 749,-0.5"/>
<text text-anchor="middle" x="784.5" y="-7.5" font-family="Helvetica,sans-Serif" font-size="10.00">QByteArray</text>
</g>
<!-- Node23&#45;&gt;Node24 -->
<g id="edge29" class="edge"><title>Node23&#45;&gt;Node24</title>
<path fill="none" stroke="midnightblue" d="M822.069,-56.083C815.647,-48.3768 806.194,-37.0333 798.378,-27.6531"/>
<polygon fill="midnightblue" stroke="midnightblue" points="800.883,-25.1927 791.793,-19.7511 795.506,-29.674 800.883,-25.1927"/>
</g>
<!-- Node25 -->
<g id="node25" class="node"><title>Node25</title>
<polygon fill="white" stroke="#bfbfbf" points="838.5,-0.5 838.5,-19.5 910.5,-19.5 910.5,-0.5 838.5,-0.5"/>
<text text-anchor="middle" x="874.5" y="-7.5" font-family="Helvetica,sans-Serif" font-size="10.00">QTcpSocket</text>
</g>
<!-- Node23&#45;&gt;Node25 -->
<g id="edge30" class="edge"><title>Node23&#45;&gt;Node25</title>
<path fill="none" stroke="midnightblue" d="M836.931,-56.083C843.353,-48.3768 852.806,-37.0333 860.622,-27.6531"/>
<polygon fill="midnightblue" stroke="midnightblue" points="863.494,-29.674 867.207,-19.7511 858.117,-25.1927 863.494,-29.674"/>
</g>
<!-- Node27 -->
<g id="node27" class="node"><title>Node27</title>
<polygon fill="white" stroke="#bfbfbf" points="1306.5,-168.5 1306.5,-187.5 1376.5,-187.5 1376.5,-168.5 1306.5,-168.5"/>
<text text-anchor="middle" x="1341.5" y="-175.5" font-family="Helvetica,sans-Serif" font-size="10.00">QAtomicInt</text>
</g>
<!-- Node26&#45;&gt;Node27 -->
<g id="edge33" class="edge"><title>Node26&#45;&gt;Node27</title>
<path fill="none" stroke="midnightblue" d="M1265.96,-224.324C1280,-215.9 1301.55,-202.971 1318.04,-193.074"/>
<polygon fill="midnightblue" stroke="midnightblue" points="1320.3,-195.801 1327.08,-187.655 1316.7,-189.798 1320.3,-195.801"/>
</g>
<!-- Node29 -->
<g id="node29" class="node"><title>Node29</title>
<g id="a_node29"><a xlink:href="../../d3/d66/torcevent_8h.html" target="_top" xlink:title="torcevent.h">
<polygon fill="white" stroke="black" points="34,-224.5 34,-243.5 105,-243.5 105,-224.5 34,-224.5"/>
<text text-anchor="middle" x="69.5" y="-231.5" font-family="Helvetica,sans-Serif" font-size="10.00">torcevent.h</text>
</a>
</g>
</g>
<!-- Node28&#45;&gt;Node29 -->
<g id="edge35" class="edge"><title>Node28&#45;&gt;Node29</title>
<path fill="none" stroke="midnightblue" d="M106.234,-280.083C99.9552,-272.377 90.7124,-261.033 83.0692,-251.653"/>
<polygon fill="midnightblue" stroke="midnightblue" points="85.6606,-249.293 76.6305,-243.751 80.2339,-253.714 85.6606,-249.293"/>
</g>
<!-- Node29&#45;&gt;Node12 -->
<g id="edge37" class="edge"><title>Node29&#45;&gt;Node12</title>
<path fill="none" stroke="midnightblue" d="M80.2647,-224.324C90.2661,-216.263 105.387,-204.077 117.43,-194.369"/>
<polygon fill="midnightblue" stroke="midnightblue" points="119.95,-196.834 125.539,-187.834 115.557,-191.384 119.95,-196.834"/>
</g>
<!-- Node29&#45;&gt;Node15 -->
<g id="edge36" class="edge"><title>Node29&#45;&gt;Node15</title>
<path fill="none" stroke="midnightblue" d="M71.3973,-224.457C77.0779,-201.206 96.3639,-136.871 140.5,-112 212.619,-71.3606 470.042,-67.099 561.21,-66.892"/>
<polygon fill="midnightblue" stroke="midnightblue" points="561.483,-70.3919 571.48,-66.8847 561.478,-63.3919 561.483,-70.3919"/>
</g>
<!-- Node30 -->
<g id="node30" class="node"><title>Node30</title>
<polygon fill="white" stroke="#bfbfbf" points="0,-168.5 0,-187.5 51,-187.5 51,-168.5 0,-168.5"/>
<text text-anchor="middle" x="25.5" y="-175.5" font-family="Helvetica,sans-Serif" font-size="10.00">QEvent</text>
</g>
<!-- Node29&#45;&gt;Node30 -->
<g id="edge38" class="edge"><title>Node29&#45;&gt;Node30</title>
<path fill="none" stroke="midnightblue" d="M62.2343,-224.083C55.9552,-216.377 46.7124,-205.033 39.0692,-195.653"/>
<polygon fill="midnightblue" stroke="midnightblue" points="41.6606,-193.293 32.6305,-187.751 36.2339,-197.714 41.6606,-193.293"/>
</g>
<!-- Node32 -->
<g id="node32" class="node"><title>Node32</title>
<g id="a_node32"><a xlink:href="../../d4/da3/torcdb_8h.html" target="_top" xlink:title="torcdb.h">
<polygon fill="white" stroke="black" points="492.5,-224.5 492.5,-243.5 548.5,-243.5 548.5,-224.5 492.5,-224.5"/>
<text text-anchor="middle" x="520.5" y="-231.5" font-family="Helvetica,sans-Serif" font-size="10.00">torcdb.h</text>
</a>
</g>
</g>
<!-- Node31&#45;&gt;Node32 -->
<g id="edge40" class="edge"><title>Node31&#45;&gt;Node32</title>
<path fill="none" stroke="midnightblue" d="M468.461,-280.324C477.627,-272.341 491.437,-260.313 502.528,-250.653"/>
<polygon fill="midnightblue" stroke="midnightblue" points="505.115,-253.041 510.357,-243.834 500.518,-247.762 505.115,-253.041"/>
</g>
<!-- Node32&#45;&gt;Node5 -->
<g id="edge41" class="edge"><title>Node32&#45;&gt;Node5</title>
<path fill="none" stroke="midnightblue" d="M532.229,-224.324C543.337,-216.107 560.242,-203.602 573.483,-193.807"/>
<polygon fill="midnightblue" stroke="midnightblue" points="575.6,-196.595 581.558,-187.834 571.437,-190.967 575.6,-196.595"/>
</g>
<!-- Node32&#45;&gt;Node8 -->
<g id="edge42" class="edge"><title>Node32&#45;&gt;Node8</title>
<path fill="none" stroke="midnightblue" d="M520.5,-224.083C520.5,-217.006 520.5,-206.861 520.5,-197.986"/>
<polygon fill="midnightblue" stroke="midnightblue" points="524,-197.751 520.5,-187.751 517,-197.751 524,-197.751"/>
</g>
<!-- Node34 -->
<g id="node34" class="node"><title>Node34</title>
<polygon fill="white" stroke="#bfbfbf" points="328,-224.5 328,-243.5 369,-243.5 369,-224.5 328,-224.5"/>
<text text-anchor="middle" x="348.5" y="-231.5" font-family="Helvetica,sans-Serif" font-size="10.00">QList</text>
</g>
<!-- Node33&#45;&gt;Node34 -->
<g id="edge44" class="edge"><title>Node33&#45;&gt;Node34</title>
<path fill="none" stroke="midnightblue" d="M346.83,-280.083C347.092,-273.006 347.468,-262.861 347.797,-253.986"/>
<polygon fill="midnightblue" stroke="midnightblue" points="351.303,-253.874 348.176,-243.751 344.308,-253.615 351.303,-253.874"/>
</g>
<!-- Node35 -->
<g id="node35" class="node"><title>Node35</title>
<g id="a_node35"><a xlink:href="../../dd/db0/torcqthread_8h.html" target="_top" xlink:title="torcqthread.h">
<polygon fill="white" stroke="black" points="387.5,-224.5 387.5,-243.5 469.5,-243.5 469.5,-224.5 387.5,-224.5"/>
<text text-anchor="middle" x="428.5" y="-231.5" font-family="Helvetica,sans-Serif" font-size="10.00">torcqthread.h</text>
</a>
</g>
</g>
<!-- Node33&#45;&gt;Node35 -->
<g id="edge45" class="edge"><title>Node33&#45;&gt;Node35</title>
<path fill="none" stroke="midnightblue" d="M359.675,-280.324C372.347,-271.979 391.733,-259.212 406.706,-249.352"/>
<polygon fill="midnightblue" stroke="midnightblue" points="408.931,-252.078 415.358,-243.655 405.081,-246.231 408.931,-252.078"/>
</g>
<!-- Node36 -->
<g id="node36" class="node"><title>Node36</title>
<polygon fill="white" stroke="#bfbfbf" points="400,-168.5 400,-187.5 457,-187.5 457,-168.5 400,-168.5"/>
<text text-anchor="middle" x="428.5" y="-175.5" font-family="Helvetica,sans-Serif" font-size="10.00">QThread</text>
</g>
<!-- Node35&#45;&gt;Node36 -->
<g id="edge46" class="edge"><title>Node35&#45;&gt;Node36</title>
<path fill="none" stroke="midnightblue" d="M428.5,-224.083C428.5,-217.006 428.5,-206.861 428.5,-197.986"/>
<polygon fill="midnightblue" stroke="midnightblue" points="432,-197.751 428.5,-187.751 425,-197.751 432,-197.751"/>
</g>
<!-- Node37&#45;&gt;Node5 -->
<g id="edge48" class="edge"><title>Node37&#45;&gt;Node5</title>
<path fill="none" stroke="midnightblue" d="M271.551,-227.547C336.987,-220.656 449.635,-207.511 555.769,-187.953"/>
<polygon fill="midnightblue" stroke="midnightblue" points="556.5,-191.377 565.689,-186.103 555.216,-184.496 556.5,-191.377"/>
</g>
<!-- Node37&#45;&gt;Node12 -->
<g id="edge49" class="edge"><title>Node37&#45;&gt;Node12</title>
<path fill="none" stroke="midnightblue" d="M203.647,-224.324C191.284,-215.979 172.37,-203.212 157.763,-193.352"/>
<polygon fill="midnightblue" stroke="midnightblue" points="159.568,-190.348 149.321,-187.655 155.652,-196.15 159.568,-190.348"/>
</g>
<!-- Node38 -->
<g id="node38" class="node"><title>Node38</title>
<polygon fill="white" stroke="#bfbfbf" points="187,-168.5 187,-187.5 236,-187.5 236,-168.5 187,-168.5"/>
<text text-anchor="middle" x="211.5" y="-175.5" font-family="Helvetica,sans-Serif" font-size="10.00">QHash</text>
</g>
<!-- Node37&#45;&gt;Node38 -->
<g id="edge50" class="edge"><title>Node37&#45;&gt;Node38</title>
<path fill="none" stroke="midnightblue" d="M215.674,-224.083C215.019,-217.006 214.08,-206.861 213.258,-197.986"/>
<polygon fill="midnightblue" stroke="midnightblue" points="216.717,-197.386 212.31,-187.751 209.747,-198.031 216.717,-197.386"/>
</g>
<!-- Node39 -->
<g id="node39" class="node"><title>Node39</title>
<g id="a_node39"><a xlink:href="../../d4/df9/torclogging_8h.html" target="_top" xlink:title="torclogging.h">
<polygon fill="white" stroke="black" points="254,-168.5 254,-187.5 333,-187.5 333,-168.5 254,-168.5"/>
<text text-anchor="middle" x="293.5" y="-175.5" font-family="Helvetica,sans-Serif" font-size="10.00">torclogging.h</text>
</a>
</g>
</g>
<!-- Node37&#45;&gt;Node39 -->
<g id="edge51" class="edge"><title>Node37&#45;&gt;Node39</title>
<path fill="none" stroke="midnightblue" d="M228.871,-224.324C240.658,-216.058 258.632,-203.453 272.636,-193.632"/>
<polygon fill="midnightblue" stroke="midnightblue" points="274.982,-196.262 281.159,-187.655 270.962,-190.531 274.982,-196.262"/>
</g>
<!-- Node40 -->
<g id="node40" class="node"><title>Node40</title>
<polygon fill="white" stroke="#bfbfbf" points="267,-112.5 267,-131.5 320,-131.5 320,-112.5 267,-112.5"/>
<text text-anchor="middle" x="293.5" y="-119.5" font-family="Helvetica,sans-Serif" font-size="10.00">stdint.h</text>
</g>
<!-- Node39&#45;&gt;Node40 -->
<g id="edge52" class="edge"><title>Node39&#45;&gt;Node40</title>
<path fill="none" stroke="midnightblue" d="M293.5,-168.083C293.5,-161.006 293.5,-150.861 293.5,-141.986"/>
<polygon fill="midnightblue" stroke="midnightblue" points="297,-141.751 293.5,-131.751 290,-141.751 297,-141.751"/>
</g>
<!-- Node41 -->
<g id="node41" class="node"><title>Node41</title>
<polygon fill="white" stroke="#bfbfbf" points="338,-112.5 338,-131.5 389,-131.5 389,-112.5 338,-112.5"/>
<text text-anchor="middle" x="363.5" y="-119.5" font-family="Helvetica,sans-Serif" font-size="10.00">errno.h</text>
</g>
<!-- Node39&#45;&gt;Node41 -->
<g id="edge53" class="edge"><title>Node39&#45;&gt;Node41</title>
<path fill="none" stroke="midnightblue" d="M304.747,-168.324C315.297,-160.185 331.301,-147.839 343.942,-138.087"/>
<polygon fill="midnightblue" stroke="midnightblue" points="346.269,-140.713 352.049,-131.834 341.993,-135.171 346.269,-140.713"/>
</g>
<!-- Node42 -->
<g id="node42" class="node"><title>Node42</title>
<g id="a_node42"><a xlink:href="../../d1/d37/torcloggingdefs_8h.html" target="_top" xlink:title="torcloggingdefs.h">
<polygon fill="white" stroke="black" points="150,-112.5 150,-131.5 249,-131.5 249,-112.5 150,-112.5"/>
<text text-anchor="middle" x="199.5" y="-119.5" font-family="Helvetica,sans-Serif" font-size="10.00">torcloggingdefs.h</text>
</a>
</g>
</g>
<!-- Node39&#45;&gt;Node42 -->
<g id="edge54" class="edge"><title>Node39&#45;&gt;Node42</title>
<path fill="none" stroke="midnightblue" d="M278.397,-168.324C263.597,-159.822 240.806,-146.729 223.518,-136.797"/>
<polygon fill="midnightblue" stroke="midnightblue" points="224.98,-133.601 214.565,-131.655 221.493,-139.671 224.98,-133.601"/>
</g>
<!-- Node43&#45;&gt;Node4 -->
<g id="edge57" class="edge"><title>Node43&#45;&gt;Node4</title>
<path fill="none" stroke="midnightblue" d="M943.276,-393.599C940.313,-393.03 937.357,-392.488 934.5,-392 838.203,-375.535 725.6,-361.598 657.731,-353.772"/>
<polygon fill="midnightblue" stroke="midnightblue" points="657.975,-350.277 647.641,-352.615 657.178,-357.231 657.975,-350.277"/>
</g>
<!-- Node44&#45;&gt;Node18 -->
<g id="edge59" class="edge"><title>Node44&#45;&gt;Node18</title>
<path fill="none" stroke="midnightblue" d="M1079.81,-336.075C1086.58,-309.945 1106.46,-233.211 1115.69,-197.577"/>
<polygon fill="midnightblue" stroke="midnightblue" points="1119.16,-198.126 1118.28,-187.568 1112.38,-196.371 1119.16,-198.126"/>
</g>
<!-- Node45&#45;&gt;Node5 -->
<g id="edge61" class="edge"><title>Node45&#45;&gt;Node5</title>
<path fill="none" stroke="midnightblue" d="M1226.67,-336.417C1178.51,-320.151 1072.04,-282.964 985.5,-244 968.097,-236.165 965.702,-229.74 947.5,-224 889.116,-205.59 709.907,-188.786 631.216,-182.08"/>
<polygon fill="midnightblue" stroke="midnightblue" points="631.504,-178.592 621.245,-181.239 630.915,-185.568 631.504,-178.592"/>
</g>
<!-- Node45&#45;&gt;Node10 -->
<g id="edge64" class="edge"><title>Node45&#45;&gt;Node10</title>
<path fill="none" stroke="midnightblue" d="M1211.13,-339.525C1135.27,-329.484 974.244,-308.172 893.22,-297.448"/>
<polygon fill="midnightblue" stroke="midnightblue" points="893.648,-293.974 883.275,-296.132 892.73,-300.914 893.648,-293.974"/>
</g>
<!-- Node45&#45;&gt;Node27 -->
<g id="edge63" class="edge"><title>Node45&#45;&gt;Node27</title>
<path fill="none" stroke="midnightblue" d="M1293.6,-344.907C1329.16,-342.44 1379.07,-332.795 1406.5,-300 1428.24,-274.011 1428.83,-253.687 1412.5,-224 1404.61,-209.663 1390.01,-199.253 1376.1,-192.079"/>
<polygon fill="midnightblue" stroke="midnightblue" points="1377.2,-188.728 1366.66,-187.622 1374.21,-195.058 1377.2,-188.728"/>
</g>
<!-- Node46 -->
<g id="node46" class="node"><title>Node46</title>
<polygon fill="white" stroke="#bfbfbf" points="1330,-280.5 1330,-299.5 1397,-299.5 1397,-280.5 1330,-280.5"/>
<text text-anchor="middle" x="1363.5" y="-287.5" font-family="Helvetica,sans-Serif" font-size="10.00">QtNetwork</text>
</g>
<!-- Node45&#45;&gt;Node46 -->
<g id="edge62" class="edge"><title>Node45&#45;&gt;Node46</title>
<path fill="none" stroke="midnightblue" d="M1270.33,-336.324C1288.22,-327.625 1315.98,-314.12 1336.55,-304.113"/>
<polygon fill="midnightblue" stroke="midnightblue" points="1338.25,-307.177 1345.71,-299.655 1335.19,-300.882 1338.25,-307.177"/>
</g>
<!-- Node47 -->
<g id="node47" class="node"><title>Node47</title>
<g id="a_node47"><a xlink:href="../../d3/dd0/torctimer_8h.html" target="_top" xlink:title="torctimer.h">
<polygon fill="white" stroke="black" points="1460,-280.5 1460,-299.5 1529,-299.5 1529,-280.5 1460,-280.5"/>
<text text-anchor="middle" x="1494.5" y="-287.5" font-family="Helvetica,sans-Serif" font-size="10.00">torctimer.h</text>
</a>
</g>
</g>
<!-- Node45&#45;&gt;Node47 -->
<g id="edge65" class="edge"><title>Node45&#45;&gt;Node47</title>
<path fill="none" stroke="midnightblue" d="M1290.85,-336.444C1334.09,-326.794 1404.31,-311.125 1449.95,-300.941"/>
<polygon fill="midnightblue" stroke="midnightblue" points="1450.86,-304.323 1459.86,-298.729 1449.34,-297.491 1450.86,-304.323"/>
</g>
<!-- Node49 -->
<g id="node49" class="node"><title>Node49</title>
<g id="a_node49"><a xlink:href="../../db/d18/torcnetworkrequest_8h.html" target="_top" xlink:title="torcnetworkrequest.h">
<polygon fill="white" stroke="black" points="1193,-280.5 1193,-299.5 1312,-299.5 1312,-280.5 1193,-280.5"/>
<text text-anchor="middle" x="1252.5" y="-287.5" font-family="Helvetica,sans-Serif" font-size="10.00">torcnetworkrequest.h</text>
</a>
</g>
</g>
<!-- Node45&#45;&gt;Node49 -->
<g id="edge67" class="edge"><title>Node45&#45;&gt;Node49</title>
<path fill="none" stroke="midnightblue" d="M1247.33,-336.083C1245.82,-328.927 1245.39,-318.635 1246.04,-309.691"/>
<polygon fill="midnightblue" stroke="midnightblue" points="1249.52,-310.126 1247.37,-299.751 1242.58,-309.2 1249.52,-310.126"/>
</g>
<!-- Node48 -->
<g id="node48" class="node"><title>Node48</title>
<polygon fill="white" stroke="#bfbfbf" points="1471,-224.5 1471,-243.5 1518,-243.5 1518,-224.5 1471,-224.5"/>
<text text-anchor="middle" x="1494.5" y="-231.5" font-family="Helvetica,sans-Serif" font-size="10.00">QTime</text>
</g>
<!-- Node47&#45;&gt;Node48 -->
<g id="edge66" class="edge"><title>Node47&#45;&gt;Node48</title>
<path fill="none" stroke="midnightblue" d="M1494.5,-280.083C1494.5,-273.006 1494.5,-262.861 1494.5,-253.986"/>
<polygon fill="midnightblue" stroke="midnightblue" points="1498,-253.751 1494.5,-243.751 1491,-253.751 1498,-253.751"/>
</g>
<!-- Node49&#45;&gt;Node45 -->
<g id="edge69" class="edge"><title>Node49&#45;&gt;Node45</title>
<path fill="none" stroke="midnightblue" d="M1257.63,-299.751C1259.16,-306.858 1259.6,-317.136 1258.97,-326.101"/>
<polygon fill="midnightblue" stroke="midnightblue" points="1255.49,-325.713 1257.67,-336.083 1262.43,-326.622 1255.49,-325.713"/>
</g>
<!-- Node50 -->
<g id="node50" class="node"><title>Node50</title>
<polygon fill="white" stroke="#bfbfbf" points="1334,-224.5 1334,-243.5 1403,-243.5 1403,-224.5 1334,-224.5"/>
<text text-anchor="middle" x="1368.5" y="-231.5" font-family="Helvetica,sans-Serif" font-size="10.00">QMetaType</text>
</g>
<!-- Node49&#45;&gt;Node50 -->
<g id="edge68" class="edge"><title>Node49&#45;&gt;Node50</title>
<path fill="none" stroke="midnightblue" d="M1270.88,-280.444C1289.72,-271.675 1319.23,-257.935 1340.88,-247.858"/>
<polygon fill="midnightblue" stroke="midnightblue" points="1342.62,-250.91 1350.21,-243.516 1339.66,-244.564 1342.62,-250.91"/>
</g>
</g>
</svg>
        <g id="navigator" transform="translate(0 0)" fill="#404254">
                <rect fill="#f2f5e9" fill-opacity="0.5" stroke="#606060" stroke-width=".5" x="0" y="0" width="60" height="60"/>
                <use id="zoomplus" xlink:href="#zoomPlus" x="17" y="9" onmousedown="handleZoom(evt,'in')"/>
                <use id="zoomminus" xlink:href="#zoomMin" x="42" y="9" onmousedown="handleZoom(evt,'out')"/>
                <use id="reset" xlink:href="#resetDef" x="30" y="36" onmousedown="handleReset()"/>
                <g id="arrowUp" xlink:href="#dirArrow" transform="translate(30 24)" onmousedown="handlePan(0,-1)">
                  <use xlink:href="#rim" fill="#404040">
                        <set attributeName="fill" to="#808080" begin="arrowUp.mouseover" end="arrowUp.mouseout"/>
                  </use>
                  <path fill="none" stroke="white" stroke-width="1.5" d="M0,-3.0v7 M-2.5,-0.5L0,-3.0L2.5,-0.5"/>
                </g>
                <g id="arrowRight" xlink:href="#dirArrow" transform="rotate(90) translate(36 -43)" onmousedown="handlePan(1,0)">
                  <use xlink:href="#rim" fill="#404040">
                        <set attributeName="fill" to="#808080" begin="arrowRight.mouseover" end="arrowRight.mouseout"/>
                  </use>
                  <path fill="none" stroke="white" stroke-width="1.5" d="M0,-3.0v7 M-2.5,-0.5L0,-3.0L2.5,-0.5"/>
                </g>
                <g id="arrowDown" xlink:href="#dirArrow" transform="rotate(180) translate(-30 -48)" onmousedown="handlePan(0,1)">
                  <use xlink:href="#rim" fill="#404040">
                        <set attributeName="fill" to="#808080" begin="arrowDown.mouseover" end="arrowDown.mouseout"/>
                  </use>
                  <path fill="none" stroke="white" stroke-width="1.5" d="M0,-3.0v7 M-2.5,-0.5L0,-3.0L2.5,-0.5"/>
                </g>
                <g id="arrowLeft" xlink:href="#dirArrow" transform="rotate(270) translate(-36 17)" onmousedown="handlePan(-1,0)">
                  <use xlink:href="#rim" fill="#404040">
                        <set attributeName="fill" to="#808080" begin="arrowLeft.mouseover" end="arrowLeft.mouseout"/>
                  </use>
                  <path fill="none" stroke="white" stroke-width="1.5" d="M0,-3.0v7 M-2.5,-0.5L0,-3.0L2.5,-0.5"/>
                </g>
        </g>
        <svg viewBox="0 0 15 15" width="100%" height="30px" preserveAspectRatio="xMaxYMin meet">
         <g id="arrow_out" transform="scale(0.3 0.3)">
          <a xlink:href="torcupnpcontent_8cpp__incl_org.svg" target="_base">
           <rect id="button" ry="5" rx="5" y="6" x="6" height="38" width="38"
                fill="#f2f5e9" fill-opacity="0.5" stroke="#606060" stroke-width="1.0"/>
           <path id="arrow"
             d="M 11.500037,31.436501 C 11.940474,20.09759 22.043105,11.32322 32.158766,21.979434 L 37.068811,17.246167 C 37.068811,17.246167 37.088388,32 37.088388,32 L 22.160133,31.978069 C 22.160133,31.978069 26.997745,27.140456 26.997745,27.140456 C 18.528582,18.264221 13.291696,25.230495 11.500037,31.436501 z"
             style="fill:#404040;"/>
          </a>
         </g>
        </svg>
</svg>
