<?xml version="1.0" encoding="UTF-8" standalone="no"?>
<!DOCTYPE svg PUBLIC "-//W3C//DTD SVG 1.1//EN"
 "http://www.w3.org/Graphics/SVG/1.1/DTD/svg11.dtd">
<!-- Generated by graphviz version 2.38.0 (20140413.2041)
 -->
<!-- Title: torcxsdtest.h Pages: 1 -->
<svg width="407pt" height="196pt"
 viewBox="0.00 0.00 407.00 196.00" xmlns="http://www.w3.org/2000/svg" xmlns:xlink="http://www.w3.org/1999/xlink">
<g id="graph0" class="graph" transform="scale(1 1) rotate(0) translate(4 192)">
<title>torcxsdtest.h</title>
<polygon fill="white" stroke="none" points="-4,4 -4,-192 403,-192 403,4 -4,4"/>
<!-- Node1 -->
<g id="node1" class="node"><title>Node1</title>
<polygon fill="#bfbfbf" stroke="black" points="48.5,-168.5 48.5,-187.5 128.5,-187.5 128.5,-168.5 48.5,-168.5"/>
<text text-anchor="middle" x="88.5" y="-175.5" font-family="Helvetica,sans-Serif" font-size="10.00">torcxsdtest.h</text>
</g>
<!-- Node2 -->
<g id="node2" class="node"><title>Node2</title>
<polygon fill="white" stroke="#bfbfbf" points="12,-112.5 12,-131.5 65,-131.5 65,-112.5 12,-112.5"/>
<text text-anchor="middle" x="38.5" y="-119.5" font-family="Helvetica,sans-Serif" font-size="10.00">QString</text>
</g>
<!-- Node1&#45;&gt;Node2 -->
<g id="edge1" class="edge"><title>Node1&#45;&gt;Node2</title>
<path fill="none" stroke="midnightblue" d="M80.2435,-168.083C73.0353,-160.298 62.3902,-148.801 53.6542,-139.367"/>
<polygon fill="midnightblue" stroke="midnightblue" points="55.9651,-136.711 46.6028,-131.751 50.8288,-141.467 55.9651,-136.711"/>
</g>
<!-- Node3 -->
<g id="node3" class="node"><title>Node3</title>
<g id="a_node3"><a xlink:href="../../db/d41/torccommandline_8h.html" target="_top" xlink:title="torccommandline.h">
<polygon fill="white" stroke="black" points="83.5,-112.5 83.5,-131.5 193.5,-131.5 193.5,-112.5 83.5,-112.5"/>
<text text-anchor="middle" x="138.5" y="-119.5" font-family="Helvetica,sans-Serif" font-size="10.00">torccommandline.h</text>
</a>
</g>
</g>
<!-- Node1&#45;&gt;Node3 -->
<g id="edge2" class="edge"><title>Node1&#45;&gt;Node3</title>
<path fill="none" stroke="midnightblue" d="M96.7565,-168.083C103.965,-160.298 114.61,-148.801 123.346,-139.367"/>
<polygon fill="midnightblue" stroke="midnightblue" points="126.171,-141.467 130.397,-131.751 121.035,-136.711 126.171,-141.467"/>
</g>
<!-- Node4 -->
<g id="node4" class="node"><title>Node4</title>
<polygon fill="white" stroke="#bfbfbf" points="0,-56.5 0,-75.5 55,-75.5 55,-56.5 0,-56.5"/>
<text text-anchor="middle" x="27.5" y="-63.5" font-family="Helvetica,sans-Serif" font-size="10.00">QObject</text>
</g>
<!-- Node3&#45;&gt;Node4 -->
<g id="edge3" class="edge"><title>Node3&#45;&gt;Node4</title>
<path fill="none" stroke="midnightblue" d="M120.666,-112.324C102.784,-103.625 75.0249,-90.1202 54.4544,-80.113"/>
<polygon fill="midnightblue" stroke="midnightblue" points="55.8133,-76.8819 45.2898,-75.6545 52.751,-83.1765 55.8133,-76.8819"/>
</g>
<!-- Node5 -->
<g id="node5" class="node"><title>Node5</title>
<polygon fill="white" stroke="#bfbfbf" points="73.5,-56.5 73.5,-75.5 131.5,-75.5 131.5,-56.5 73.5,-56.5"/>
<text text-anchor="middle" x="102.5" y="-63.5" font-family="Helvetica,sans-Serif" font-size="10.00">QVariant</text>
</g>
<!-- Node3&#45;&gt;Node5 -->
<g id="edge4" class="edge"><title>Node3&#45;&gt;Node5</title>
<path fill="none" stroke="midnightblue" d="M132.555,-112.083C127.523,-104.534 120.163,-93.4948 113.987,-84.2298"/>
<polygon fill="midnightblue" stroke="midnightblue" points="116.793,-82.1301 108.334,-75.7511 110.969,-86.0131 116.793,-82.1301"/>
</g>
<!-- Node6 -->
<g id="node6" class="node"><title>Node6</title>
<polygon fill="white" stroke="#bfbfbf" points="150,-56.5 150,-75.5 199,-75.5 199,-56.5 150,-56.5"/>
<text text-anchor="middle" x="174.5" y="-63.5" font-family="Helvetica,sans-Serif" font-size="10.00">QHash</text>
</g>
<!-- Node3&#45;&gt;Node6 -->
<g id="edge5" class="edge"><title>Node3&#45;&gt;Node6</title>
<path fill="none" stroke="midnightblue" d="M144.445,-112.083C149.477,-104.534 156.837,-93.4948 163.013,-84.2298"/>
<polygon fill="midnightblue" stroke="midnightblue" points="166.031,-86.0131 168.666,-75.7511 160.207,-82.1301 166.031,-86.0131"/>
</g>
<!-- Node7 -->
<g id="node7" class="node"><title>Node7</title>
<g id="a_node7"><a xlink:href="../../d4/df9/torclogging_8h.html" target="_top" xlink:title="torclogging.h">
<polygon fill="white" stroke="black" points="217,-56.5 217,-75.5 296,-75.5 296,-56.5 217,-56.5"/>
<text text-anchor="middle" x="256.5" y="-63.5" font-family="Helvetica,sans-Serif" font-size="10.00">torclogging.h</text>
</a>
</g>
</g>
<!-- Node3&#45;&gt;Node7 -->
<g id="edge6" class="edge"><title>Node3&#45;&gt;Node7</title>
<path fill="none" stroke="midnightblue" d="M157.197,-112.444C176.444,-103.636 206.652,-89.8116 228.7,-79.722"/>
<polygon fill="midnightblue" stroke="midnightblue" points="230.253,-82.8603 237.89,-75.5164 227.34,-76.4951 230.253,-82.8603"/>
</g>
<!-- Node8 -->
<g id="node8" class="node"><title>Node8</title>
<polygon fill="white" stroke="#bfbfbf" points="160,-0.5 160,-19.5 213,-19.5 213,-0.5 160,-0.5"/>
<text text-anchor="middle" x="186.5" y="-7.5" font-family="Helvetica,sans-Serif" font-size="10.00">stdint.h</text>
</g>
<!-- Node7&#45;&gt;Node8 -->
<g id="edge7" class="edge"><title>Node7&#45;&gt;Node8</title>
<path fill="none" stroke="midnightblue" d="M245.253,-56.324C234.703,-48.1849 218.699,-35.8395 206.058,-26.0874"/>
<polygon fill="midnightblue" stroke="midnightblue" points="208.007,-23.1707 197.951,-19.8339 203.731,-28.7132 208.007,-23.1707"/>
</g>
<!-- Node9 -->
<g id="node9" class="node"><title>Node9</title>
<polygon fill="white" stroke="#bfbfbf" points="231,-0.5 231,-19.5 282,-19.5 282,-0.5 231,-0.5"/>
<text text-anchor="middle" x="256.5" y="-7.5" font-family="Helvetica,sans-Serif" font-size="10.00">errno.h</text>
</g>
<!-- Node7&#45;&gt;Node9 -->
<g id="edge8" class="edge"><title>Node7&#45;&gt;Node9</title>
<path fill="none" stroke="midnightblue" d="M256.5,-56.083C256.5,-49.0059 256.5,-38.8611 256.5,-29.9865"/>
<polygon fill="midnightblue" stroke="midnightblue" points="260,-29.751 256.5,-19.7511 253,-29.7511 260,-29.751"/>
</g>
<!-- Node10 -->
<g id="node10" class="node"><title>Node10</title>
<g id="a_node10"><a xlink:href="../../d1/d37/torcloggingdefs_8h.html" target="_top" xlink:title="torcloggingdefs.h">
<polygon fill="white" stroke="black" points="300,-0.5 300,-19.5 399,-19.5 399,-0.5 300,-0.5"/>
<text text-anchor="middle" x="349.5" y="-7.5" font-family="Helvetica,sans-Serif" font-size="10.00">torcloggingdefs.h</text>
</a>
</g>
</g>
<!-- Node7&#45;&gt;Node10 -->
<g id="edge9" class="edge"><title>Node7&#45;&gt;Node10</title>
<path fill="none" stroke="midnightblue" d="M271.442,-56.324C286.085,-47.8215 308.634,-34.7288 325.738,-24.7975"/>
<polygon fill="midnightblue" stroke="midnightblue" points="327.705,-27.7027 334.595,-19.6545 324.19,-21.6491 327.705,-27.7027"/>
</g>
</g>
</svg>
