<?xml version="1.0" encoding="UTF-8" standalone="no"?>
<!DOCTYPE svg PUBLIC "-//W3C//DTD SVG 1.1//EN"
 "http://www.w3.org/Graphics/SVG/1.1/DTD/svg11.dtd">
<!-- Generated by graphviz version 2.38.0 (20140413.2041)
 -->
<!-- Title: torcuser.cpp Pages: 1 -->
<!--zoomable 420 -->
<svg id="main" version="1.1" xmlns="http://www.w3.org/2000/svg" xmlns:xlink="http://www.w3.org/1999/xlink" xml:space="preserve" onload="init(evt)">
<style type="text/css"><![CDATA[
.edge:hover path { stroke: red; }
.edge:hover polygon { stroke: red; fill: red; }
]]></style>
<script type="text/javascript"><![CDATA[
var edges = document.getElementsByTagName('g');
if (edges && edges.length) {
  for (var i=0;i<edges.length;i++) {
    if (edges[i].id.substr(0,4)=='edge') {
      edges[i].setAttribute('class','edge');
    }
  }
}
]]></script>
        <defs>
                <circle id="rim" cx="0" cy="0" r="7"/>
                <circle id="rim2" cx="0" cy="0" r="3.5"/>
                <g id="zoomPlus">
                        <use xlink:href="#rim" fill="#404040">
                                <set attributeName="fill" to="#808080" begin="zoomplus.mouseover" end="zoomplus.mouseout"/>
                        </use>
                        <path d="M-4,0h8M0,-4v8" fill="none" stroke="white" stroke-width="1.5" pointer-events="none"/>
                </g>
                <g id="zoomMin">
                        <use xlink:href="#rim" fill="#404040">
                                <set attributeName="fill" to="#808080" begin="zoomminus.mouseover" end="zoomminus.mouseout"/>
                        </use>
                        <path d="M-4,0h8" fill="none" stroke="white" stroke-width="1.5" pointer-events="none"/>
                </g>
                <g id="dirArrow">
                        <path fill="none" stroke="white" stroke-width="1.5" d="M0,-3.0v7 M-2.5,-0.5L0,-3.0L2.5,-0.5"/>
                </g>
               <g id="resetDef">
                       <use xlink:href="#rim2" fill="#404040">
                               <set attributeName="fill" to="#808080" begin="reset.mouseover" end="reset.mouseout"/>
                       </use>
               </g>
        </defs>

<script type="text/javascript">
var viewWidth = 1652;
var viewHeight = 420;
var sectionId = 'dynsection-0';
</script>
<script xlink:href="../../svgpan.js"/>
<svg id="graph" class="graph">
<g id="viewport">
<title>torcuser.cpp</title>
<polygon fill="white" stroke="none" points="-4,4 -4,-416 1648,-416 1648,4 -4,4"/>
<!-- Node1 -->
<g id="node1" class="node"><title>Node1</title>
<polygon fill="#bfbfbf" stroke="black" points="625.5,-392.5 625.5,-411.5 701.5,-411.5 701.5,-392.5 625.5,-392.5"/>
<text text-anchor="middle" x="663.5" y="-399.5" font-family="Helvetica,sans-Serif" font-size="10.00">torcuser.cpp</text>
</g>
<!-- Node2 -->
<g id="node2" class="node"><title>Node2</title>
<polygon fill="white" stroke="#bfbfbf" points="104,-336.5 104,-355.5 163,-355.5 163,-336.5 104,-336.5"/>
<text text-anchor="middle" x="133.5" y="-343.5" font-family="Helvetica,sans-Serif" font-size="10.00">QRegExp</text>
</g>
<!-- Node1&#45;&gt;Node2 -->
<g id="edge1" class="edge"><title>Node1&#45;&gt;Node2</title>
<path fill="none" stroke="midnightblue" d="M625.21,-398.884C542.927,-394.024 343.257,-380.551 177.5,-356 176.054,-355.786 174.583,-355.555 173.1,-355.31"/>
<polygon fill="midnightblue" stroke="midnightblue" points="173.705,-351.863 163.244,-353.543 172.469,-358.753 173.705,-351.863"/>
</g>
<!-- Node3 -->
<g id="node3" class="node"><title>Node3</title>
<polygon fill="white" stroke="#bfbfbf" points="598,-168.5 598,-187.5 651,-187.5 651,-168.5 598,-168.5"/>
<text text-anchor="middle" x="624.5" y="-175.5" font-family="Helvetica,sans-Serif" font-size="10.00">QMutex</text>
</g>
<!-- Node1&#45;&gt;Node3 -->
<g id="edge2" class="edge"><title>Node1&#45;&gt;Node3</title>
<path fill="none" stroke="midnightblue" d="M625.491,-396.621C538.283,-385.712 328.111,-354.227 286.5,-300 246.324,-247.644 309.553,-274.174 375.5,-244 393.214,-235.895 396.152,-230.542 414.5,-224 473.389,-203.005 545.225,-190.208 587.785,-183.876"/>
<polygon fill="midnightblue" stroke="midnightblue" points="588.297,-187.339 597.692,-182.441 587.294,-180.411 588.297,-187.339"/>
</g>
<!-- Node4 -->
<g id="node4" class="node"><title>Node4</title>
<g id="a_node4"><a xlink:href="../../d4/df9/torclogging_8h.html" target="_top" xlink:title="torclogging.h">
<polygon fill="white" stroke="black" points="150,-224.5 150,-243.5 229,-243.5 229,-224.5 150,-224.5"/>
<text text-anchor="middle" x="189.5" y="-231.5" font-family="Helvetica,sans-Serif" font-size="10.00">torclogging.h</text>
</a>
</g>
</g>
<!-- Node1&#45;&gt;Node4 -->
<g id="edge3" class="edge"><title>Node1&#45;&gt;Node4</title>
<path fill="none" stroke="midnightblue" d="M625.352,-399.705C522.612,-395.868 245.8,-383.096 215.5,-356 186.63,-330.183 185.525,-280.735 187.399,-253.732"/>
<polygon fill="midnightblue" stroke="midnightblue" points="190.894,-253.943 188.312,-243.668 183.923,-253.311 190.894,-253.943"/>
</g>
<!-- Node8 -->
<g id="node8" class="node"><title>Node8</title>
<g id="a_node8"><a xlink:href="../../dd/dbd/torclocalcontext_8h.html" target="_top" xlink:title="torclocalcontext.h">
<polygon fill="white" stroke="black" points="612.5,-336.5 612.5,-355.5 714.5,-355.5 714.5,-336.5 612.5,-336.5"/>
<text text-anchor="middle" x="663.5" y="-343.5" font-family="Helvetica,sans-Serif" font-size="10.00">torclocalcontext.h</text>
</a>
</g>
</g>
<!-- Node1&#45;&gt;Node8 -->
<g id="edge7" class="edge"><title>Node1&#45;&gt;Node8</title>
<path fill="none" stroke="midnightblue" d="M663.5,-392.083C663.5,-385.006 663.5,-374.861 663.5,-365.986"/>
<polygon fill="midnightblue" stroke="midnightblue" points="667,-365.751 663.5,-355.751 660,-365.751 667,-365.751"/>
</g>
<!-- Node36 -->
<g id="node36" class="node"><title>Node36</title>
<g id="a_node36"><a xlink:href="../../dd/dd5/torcadminthread_8h.html" target="_top" xlink:title="torcadminthread.h">
<polygon fill="white" stroke="black" points="819.5,-280.5 819.5,-299.5 925.5,-299.5 925.5,-280.5 819.5,-280.5"/>
<text text-anchor="middle" x="872.5" y="-287.5" font-family="Helvetica,sans-Serif" font-size="10.00">torcadminthread.h</text>
</a>
</g>
</g>
<!-- Node1&#45;&gt;Node36 -->
<g id="edge56" class="edge"><title>Node1&#45;&gt;Node36</title>
<path fill="none" stroke="midnightblue" d="M679.9,-392.368C716.222,-373.251 803.665,-327.229 847.114,-304.361"/>
<polygon fill="midnightblue" stroke="midnightblue" points="848.957,-307.346 856.176,-299.591 845.697,-301.152 848.957,-307.346"/>
</g>
<!-- Node42 -->
<g id="node42" class="node"><title>Node42</title>
<g id="a_node42"><a xlink:href="../../dd/d5f/torclanguage_8h.html" target="_top" xlink:title="torclanguage.h">
<polygon fill="white" stroke="black" points="1090,-336.5 1090,-355.5 1179,-355.5 1179,-336.5 1090,-336.5"/>
<text text-anchor="middle" x="1134.5" y="-343.5" font-family="Helvetica,sans-Serif" font-size="10.00">torclanguage.h</text>
</a>
</g>
</g>
<!-- Node1&#45;&gt;Node42 -->
<g id="edge57" class="edge"><title>Node1&#45;&gt;Node42</title>
<path fill="none" stroke="midnightblue" d="M701.645,-396.627C784.898,-387.082 983.145,-364.353 1079.73,-353.279"/>
<polygon fill="midnightblue" stroke="midnightblue" points="1080.34,-356.733 1089.87,-352.116 1079.54,-349.778 1080.34,-356.733"/>
</g>
<!-- Node45 -->
<g id="node45" class="node"><title>Node45</title>
<g id="a_node45"><a xlink:href="../../d2/d7a/torcuser_8h.html" target="_top" xlink:title="torcuser.h">
<polygon fill="white" stroke="black" points="1340,-336.5 1340,-355.5 1405,-355.5 1405,-336.5 1340,-336.5"/>
<text text-anchor="middle" x="1372.5" y="-343.5" font-family="Helvetica,sans-Serif" font-size="10.00">torcuser.h</text>
</a>
</g>
</g>
<!-- Node1&#45;&gt;Node45 -->
<g id="edge65" class="edge"><title>Node1&#45;&gt;Node45</title>
<path fill="none" stroke="midnightblue" d="M701.619,-398.097C823.177,-388.838 1201.15,-360.05 1329.42,-350.281"/>
<polygon fill="midnightblue" stroke="midnightblue" points="1329.92,-353.753 1339.63,-349.503 1329.39,-346.773 1329.92,-353.753"/>
</g>
<!-- Node5 -->
<g id="node5" class="node"><title>Node5</title>
<polygon fill="white" stroke="#bfbfbf" points="0,-168.5 0,-187.5 53,-187.5 53,-168.5 0,-168.5"/>
<text text-anchor="middle" x="26.5" y="-175.5" font-family="Helvetica,sans-Serif" font-size="10.00">stdint.h</text>
</g>
<!-- Node4&#45;&gt;Node5 -->
<g id="edge4" class="edge"><title>Node4&#45;&gt;Node5</title>
<path fill="none" stroke="midnightblue" d="M163.672,-224.444C136.251,-215.359 92.7225,-200.939 62.0676,-190.783"/>
<polygon fill="midnightblue" stroke="midnightblue" points="62.8003,-187.339 52.207,-187.516 60.5989,-193.984 62.8003,-187.339"/>
</g>
<!-- Node6 -->
<g id="node6" class="node"><title>Node6</title>
<polygon fill="white" stroke="#bfbfbf" points="71,-168.5 71,-187.5 122,-187.5 122,-168.5 71,-168.5"/>
<text text-anchor="middle" x="96.5" y="-175.5" font-family="Helvetica,sans-Serif" font-size="10.00">errno.h</text>
</g>
<!-- Node4&#45;&gt;Node6 -->
<g id="edge5" class="edge"><title>Node4&#45;&gt;Node6</title>
<path fill="none" stroke="midnightblue" d="M174.558,-224.324C159.915,-215.822 137.366,-202.729 120.262,-192.797"/>
<polygon fill="midnightblue" stroke="midnightblue" points="121.81,-189.649 111.405,-187.655 118.295,-195.703 121.81,-189.649"/>
</g>
<!-- Node7 -->
<g id="node7" class="node"><title>Node7</title>
<g id="a_node7"><a xlink:href="../../d1/d37/torcloggingdefs_8h.html" target="_top" xlink:title="torcloggingdefs.h">
<polygon fill="white" stroke="black" points="140,-168.5 140,-187.5 239,-187.5 239,-168.5 140,-168.5"/>
<text text-anchor="middle" x="189.5" y="-175.5" font-family="Helvetica,sans-Serif" font-size="10.00">torcloggingdefs.h</text>
</a>
</g>
</g>
<!-- Node4&#45;&gt;Node7 -->
<g id="edge6" class="edge"><title>Node4&#45;&gt;Node7</title>
<path fill="none" stroke="midnightblue" d="M189.5,-224.083C189.5,-217.006 189.5,-206.861 189.5,-197.986"/>
<polygon fill="midnightblue" stroke="midnightblue" points="193,-197.751 189.5,-187.751 186,-197.751 193,-197.751"/>
</g>
<!-- Node8&#45;&gt;Node3 -->
<g id="edge11" class="edge"><title>Node8&#45;&gt;Node3</title>
<path fill="none" stroke="midnightblue" d="M622.449,-336.383C602.54,-329.916 580.406,-318.814 568.5,-300 546.036,-264.502 583.566,-218.523 607.318,-194.764"/>
<polygon fill="midnightblue" stroke="midnightblue" points="609.972,-197.068 614.738,-187.606 605.111,-192.03 609.972,-197.068"/>
</g>
<!-- Node9 -->
<g id="node9" class="node"><title>Node9</title>
<polygon fill="white" stroke="#bfbfbf" points="715,-168.5 715,-187.5 770,-187.5 770,-168.5 715,-168.5"/>
<text text-anchor="middle" x="742.5" y="-175.5" font-family="Helvetica,sans-Serif" font-size="10.00">QObject</text>
</g>
<!-- Node8&#45;&gt;Node9 -->
<g id="edge8" class="edge"><title>Node8&#45;&gt;Node9</title>
<path fill="none" stroke="midnightblue" d="M714.643,-336.811C736.285,-330.54 759.465,-319.483 772.5,-300 777.443,-292.612 773.813,-288.791 772.5,-280 770.028,-263.453 766.292,-260.029 761.5,-244 756.818,-228.335 751.616,-210.509 747.84,-197.492"/>
<polygon fill="midnightblue" stroke="midnightblue" points="751.19,-196.474 745.047,-187.841 744.466,-198.42 751.19,-196.474"/>
</g>
<!-- Node10 -->
<g id="node10" class="node"><title>Node10</title>
<polygon fill="white" stroke="#bfbfbf" points="1267,-56.5 1267,-75.5 1320,-75.5 1320,-56.5 1267,-56.5"/>
<text text-anchor="middle" x="1293.5" y="-63.5" font-family="Helvetica,sans-Serif" font-size="10.00">QString</text>
</g>
<!-- Node8&#45;&gt;Node10 -->
<g id="edge9" class="edge"><title>Node8&#45;&gt;Node10</title>
<path fill="none" stroke="midnightblue" d="M612.22,-345.637C520.755,-345.707 334.541,-340.679 286.5,-300 263.531,-280.551 267.5,-265.098 267.5,-235 267.5,-235 267.5,-235 267.5,-177 267.5,-75.3993 1073.19,-67.4868 1256.64,-67.002"/>
<polygon fill="midnightblue" stroke="midnightblue" points="1256.85,-70.5016 1266.85,-66.9812 1256.84,-63.5016 1256.85,-70.5016"/>
</g>
<!-- Node11 -->
<g id="node11" class="node"><title>Node11</title>
<polygon fill="white" stroke="#bfbfbf" points="968.5,-224.5 968.5,-243.5 1060.5,-243.5 1060.5,-224.5 968.5,-224.5"/>
<text text-anchor="middle" x="1014.5" y="-231.5" font-family="Helvetica,sans-Serif" font-size="10.00">QReadWriteLock</text>
</g>
<!-- Node8&#45;&gt;Node11 -->
<g id="edge10" class="edge"><title>Node8&#45;&gt;Node11</title>
<path fill="none" stroke="midnightblue" d="M714.688,-344.241C770.916,-341.682 862.757,-332.334 934.5,-300 960.104,-288.46 984.381,-266.641 999.335,-251.483"/>
<polygon fill="midnightblue" stroke="midnightblue" points="1002.25,-253.5 1006.63,-243.854 997.192,-248.661 1002.25,-253.5"/>
</g>
<!-- Node12 -->
<g id="node12" class="node"><title>Node12</title>
<g id="a_node12"><a xlink:href="../../db/db2/torclocaldefs_8h.html" target="_top" xlink:title="torclocaldefs.h">
<polygon fill="white" stroke="black" points="577.5,-280.5 577.5,-299.5 663.5,-299.5 663.5,-280.5 577.5,-280.5"/>
<text text-anchor="middle" x="620.5" y="-287.5" font-family="Helvetica,sans-Serif" font-size="10.00">torclocaldefs.h</text>
</a>
</g>
</g>
<!-- Node8&#45;&gt;Node12 -->
<g id="edge12" class="edge"><title>Node8&#45;&gt;Node12</title>
<path fill="none" stroke="midnightblue" d="M656.399,-336.083C650.263,-328.377 641.23,-317.033 633.761,-307.653"/>
<polygon fill="midnightblue" stroke="midnightblue" points="636.436,-305.394 627.468,-299.751 630.96,-309.754 636.436,-305.394"/>
</g>
<!-- Node13 -->
<g id="node13" class="node"><title>Node13</title>
<g id="a_node13"><a xlink:href="../../db/df5/torcsetting_8h.html" target="_top" xlink:title="torcsetting.h">
<polygon fill="white" stroke="black" points="1220,-280.5 1220,-299.5 1297,-299.5 1297,-280.5 1220,-280.5"/>
<text text-anchor="middle" x="1258.5" y="-287.5" font-family="Helvetica,sans-Serif" font-size="10.00">torcsetting.h</text>
</a>
</g>
</g>
<!-- Node8&#45;&gt;Node13 -->
<g id="edge13" class="edge"><title>Node8&#45;&gt;Node13</title>
<path fill="none" stroke="midnightblue" d="M714.695,-342.632C810.175,-337.818 1022.04,-325.255 1209.77,-300.108"/>
<polygon fill="midnightblue" stroke="midnightblue" points="1210.39,-303.557 1219.83,-298.746 1209.45,-296.621 1210.39,-303.557"/>
</g>
<!-- Node31 -->
<g id="node31" class="node"><title>Node31</title>
<g id="a_node31"><a xlink:href="../../d6/d94/torcobservable_8h.html" target="_top" xlink:title="torcobservable.h">
<polygon fill="white" stroke="black" points="296,-280.5 296,-299.5 393,-299.5 393,-280.5 296,-280.5"/>
<text text-anchor="middle" x="344.5" y="-287.5" font-family="Helvetica,sans-Serif" font-size="10.00">torcobservable.h</text>
</a>
</g>
</g>
<!-- Node8&#45;&gt;Node31 -->
<g id="edge38" class="edge"><title>Node8&#45;&gt;Node31</title>
<path fill="none" stroke="midnightblue" d="M612.954,-336.444C555.99,-326.801 463.511,-311.146 403.345,-300.961"/>
<polygon fill="midnightblue" stroke="midnightblue" points="403.685,-297.469 393.241,-299.251 402.516,-304.371 403.685,-297.469"/>
</g>
<!-- Node34 -->
<g id="node34" class="node"><title>Node34</title>
<g id="a_node34"><a xlink:href="../../d7/d70/torcsqlitedb_8h.html" target="_top" xlink:title="torcsqlitedb.h">
<polygon fill="white" stroke="black" points="681.5,-280.5 681.5,-299.5 763.5,-299.5 763.5,-280.5 681.5,-280.5"/>
<text text-anchor="middle" x="722.5" y="-287.5" font-family="Helvetica,sans-Serif" font-size="10.00">torcsqlitedb.h</text>
</a>
</g>
</g>
<!-- Node8&#45;&gt;Node34 -->
<g id="edge43" class="edge"><title>Node8&#45;&gt;Node34</title>
<path fill="none" stroke="midnightblue" d="M672.979,-336.324C681.701,-328.341 694.843,-316.313 705.398,-306.653"/>
<polygon fill="midnightblue" stroke="midnightblue" points="707.834,-309.167 712.848,-299.834 703.108,-304.004 707.834,-309.167"/>
</g>
<!-- Node8&#45;&gt;Node36 -->
<g id="edge47" class="edge"><title>Node8&#45;&gt;Node36</title>
<path fill="none" stroke="midnightblue" d="M696.617,-336.444C732.618,-327.142 790.27,-312.246 829.686,-302.062"/>
<polygon fill="midnightblue" stroke="midnightblue" points="830.732,-305.407 839.538,-299.516 828.981,-298.629 830.732,-305.407"/>
</g>
<!-- Node40 -->
<g id="node40" class="node"><title>Node40</title>
<g id="a_node40"><a xlink:href="../../db/d41/torccommandline_8h.html" target="_top" xlink:title="torccommandline.h">
<polygon fill="white" stroke="black" points="411.5,-280.5 411.5,-299.5 521.5,-299.5 521.5,-280.5 411.5,-280.5"/>
<text text-anchor="middle" x="466.5" y="-287.5" font-family="Helvetica,sans-Serif" font-size="10.00">torccommandline.h</text>
</a>
</g>
</g>
<!-- Node8&#45;&gt;Node40 -->
<g id="edge51" class="edge"><title>Node8&#45;&gt;Node40</title>
<path fill="none" stroke="midnightblue" d="M632.285,-336.444C598.567,-327.201 544.7,-312.436 507.568,-302.257"/>
<polygon fill="midnightblue" stroke="midnightblue" points="508.139,-298.785 497.569,-299.516 506.288,-305.536 508.139,-298.785"/>
</g>
<!-- Node13&#45;&gt;Node9 -->
<g id="edge16" class="edge"><title>Node13&#45;&gt;Node9</title>
<path fill="none" stroke="midnightblue" d="M1261.08,-280.437C1264.69,-266.502 1269.27,-238.974 1254.5,-224 1218.93,-187.93 864.871,-195.64 780.383,-187.681"/>
<polygon fill="midnightblue" stroke="midnightblue" points="780.663,-184.189 770.311,-186.448 779.812,-191.137 780.663,-184.189"/>
</g>
<!-- Node13&#45;&gt;Node11 -->
<g id="edge15" class="edge"><title>Node13&#45;&gt;Node11</title>
<path fill="none" stroke="midnightblue" d="M1219.84,-280.444C1177.36,-271.043 1109.07,-255.929 1063.03,-245.739"/>
<polygon fill="midnightblue" stroke="midnightblue" points="1063.5,-242.26 1052.98,-243.516 1061.99,-249.095 1063.5,-242.26"/>
</g>
<!-- Node14 -->
<g id="node14" class="node"><title>Node14</title>
<polygon fill="white" stroke="#bfbfbf" points="1117,-224.5 1117,-243.5 1158,-243.5 1158,-224.5 1117,-224.5"/>
<text text-anchor="middle" x="1137.5" y="-231.5" font-family="Helvetica,sans-Serif" font-size="10.00">QSet</text>
</g>
<!-- Node13&#45;&gt;Node14 -->
<g id="edge14" class="edge"><title>Node13&#45;&gt;Node14</title>
<path fill="none" stroke="midnightblue" d="M1239.33,-280.444C1219.59,-271.636 1188.61,-257.812 1166.01,-247.722"/>
<polygon fill="midnightblue" stroke="midnightblue" points="1167.14,-244.396 1156.58,-243.516 1164.29,-250.788 1167.14,-244.396"/>
</g>
<!-- Node15 -->
<g id="node15" class="node"><title>Node15</title>
<polygon fill="white" stroke="#bfbfbf" points="472.5,-168.5 472.5,-187.5 530.5,-187.5 530.5,-168.5 472.5,-168.5"/>
<text text-anchor="middle" x="501.5" y="-175.5" font-family="Helvetica,sans-Serif" font-size="10.00">QVariant</text>
</g>
<!-- Node13&#45;&gt;Node15 -->
<g id="edge17" class="edge"><title>Node13&#45;&gt;Node15</title>
<path fill="none" stroke="midnightblue" d="M1223.63,-280.473C1192.83,-272.487 1146.96,-259.481 1108.5,-244 1090.43,-236.727 1088.25,-229.276 1069.5,-224 863.137,-165.936 802.029,-207.031 588.5,-188 573.043,-186.622 556.063,-184.91 541.238,-183.351"/>
<polygon fill="midnightblue" stroke="midnightblue" points="541.192,-179.826 530.877,-182.249 540.451,-186.787 541.192,-179.826"/>
</g>
<!-- Node16 -->
<g id="node16" class="node"><title>Node16</title>
<polygon fill="white" stroke="#bfbfbf" points="1176,-224.5 1176,-243.5 1245,-243.5 1245,-224.5 1176,-224.5"/>
<text text-anchor="middle" x="1210.5" y="-231.5" font-family="Helvetica,sans-Serif" font-size="10.00">QStringList</text>
</g>
<!-- Node13&#45;&gt;Node16 -->
<g id="edge18" class="edge"><title>Node13&#45;&gt;Node16</title>
<path fill="none" stroke="midnightblue" d="M1250.57,-280.083C1243.65,-272.298 1233.43,-260.801 1225.05,-251.367"/>
<polygon fill="midnightblue" stroke="midnightblue" points="1227.54,-248.9 1218.28,-243.751 1222.31,-253.55 1227.54,-248.9"/>
</g>
<!-- Node17 -->
<g id="node17" class="node"><title>Node17</title>
<g id="a_node17"><a xlink:href="../../d3/dee/torchttpservice_8h.html" target="_top" xlink:title="torchttpservice.h">
<polygon fill="white" stroke="black" points="1487.5,-224.5 1487.5,-243.5 1585.5,-243.5 1585.5,-224.5 1487.5,-224.5"/>
<text text-anchor="middle" x="1536.5" y="-231.5" font-family="Helvetica,sans-Serif" font-size="10.00">torchttpservice.h</text>
</a>
</g>
</g>
<!-- Node13&#45;&gt;Node17 -->
<g id="edge19" class="edge"><title>Node13&#45;&gt;Node17</title>
<path fill="none" stroke="midnightblue" d="M1297.15,-281.492C1345.47,-272.107 1428.42,-255.994 1482.86,-245.419"/>
<polygon fill="midnightblue" stroke="midnightblue" points="1483.53,-248.854 1492.68,-243.512 1482.2,-241.983 1483.53,-248.854"/>
</g>
<!-- Node29 -->
<g id="node29" class="node"><title>Node29</title>
<g id="a_node29"><a xlink:href="../../d8/dfe/torcreferencecounted_8h.html" target="_top" xlink:title="torcreferencecounted.h">
<polygon fill="white" stroke="black" points="1302,-224.5 1302,-243.5 1431,-243.5 1431,-224.5 1302,-224.5"/>
<text text-anchor="middle" x="1366.5" y="-231.5" font-family="Helvetica,sans-Serif" font-size="10.00">torcreferencecounted.h</text>
</a>
</g>
</g>
<!-- Node13&#45;&gt;Node29 -->
<g id="edge36" class="edge"><title>Node13&#45;&gt;Node29</title>
<path fill="none" stroke="midnightblue" d="M1275.85,-280.324C1293.17,-271.664 1320.02,-258.242 1340,-248.249"/>
<polygon fill="midnightblue" stroke="midnightblue" points="1341.81,-251.257 1349.19,-243.655 1338.68,-244.996 1341.81,-251.257"/>
</g>
<!-- Node17&#45;&gt;Node3 -->
<g id="edge21" class="edge"><title>Node17&#45;&gt;Node3</title>
<path fill="none" stroke="midnightblue" d="M1487.2,-227.954C1472.22,-226.534 1455.69,-225.084 1440.5,-224 1114.27,-200.73 1031.52,-214.071 705.5,-188 691.002,-186.841 675.086,-185.161 661.23,-183.566"/>
<polygon fill="midnightblue" stroke="midnightblue" points="661.433,-180.066 651.092,-182.373 660.614,-187.018 661.433,-180.066"/>
</g>
<!-- Node18 -->
<g id="node18" class="node"><title>Node18</title>
<polygon fill="white" stroke="#bfbfbf" points="1338.5,-56.5 1338.5,-75.5 1382.5,-75.5 1382.5,-56.5 1338.5,-56.5"/>
<text text-anchor="middle" x="1360.5" y="-63.5" font-family="Helvetica,sans-Serif" font-size="10.00">QMap</text>
</g>
<!-- Node17&#45;&gt;Node18 -->
<g id="edge20" class="edge"><title>Node17&#45;&gt;Node18</title>
<path fill="none" stroke="midnightblue" d="M1487.22,-225.962C1407.4,-214.446 1258.27,-192.414 1254.5,-188 1220.79,-148.479 1292.03,-102.508 1333.5,-80.3251"/>
<polygon fill="midnightblue" stroke="midnightblue" points="1335.34,-83.3147 1342.59,-75.5887 1332.1,-77.1074 1335.34,-83.3147"/>
</g>
<!-- Node19 -->
<g id="node19" class="node"><title>Node19</title>
<polygon fill="white" stroke="#bfbfbf" points="1497,-168.5 1497,-187.5 1576,-187.5 1576,-168.5 1497,-168.5"/>
<text text-anchor="middle" x="1536.5" y="-175.5" font-family="Helvetica,sans-Serif" font-size="10.00">QMetaObject</text>
</g>
<!-- Node17&#45;&gt;Node19 -->
<g id="edge22" class="edge"><title>Node17&#45;&gt;Node19</title>
<path fill="none" stroke="midnightblue" d="M1536.5,-224.083C1536.5,-217.006 1536.5,-206.861 1536.5,-197.986"/>
<polygon fill="midnightblue" stroke="midnightblue" points="1540,-197.751 1536.5,-187.751 1533,-197.751 1540,-197.751"/>
</g>
<!-- Node20 -->
<g id="node20" class="node"><title>Node20</title>
<polygon fill="white" stroke="#bfbfbf" points="1263,-168.5 1263,-187.5 1362,-187.5 1362,-168.5 1263,-168.5"/>
<text text-anchor="middle" x="1312.5" y="-175.5" font-family="Helvetica,sans-Serif" font-size="10.00">QCoreApplication</text>
</g>
<!-- Node17&#45;&gt;Node20 -->
<g id="edge23" class="edge"><title>Node17&#45;&gt;Node20</title>
<path fill="none" stroke="midnightblue" d="M1501.01,-224.444C1462.18,-215.083 1399.84,-200.056 1357.58,-189.868"/>
<polygon fill="midnightblue" stroke="midnightblue" points="1358.37,-186.458 1347.83,-187.516 1356.73,-193.263 1358.37,-186.458"/>
</g>
<!-- Node21 -->
<g id="node21" class="node"><title>Node21</title>
<g id="a_node21"><a xlink:href="../../d4/d11/torchttphandler_8h.html" target="_top" xlink:title="torchttphandler.h">
<polygon fill="white" stroke="black" points="1380,-168.5 1380,-187.5 1479,-187.5 1479,-168.5 1380,-168.5"/>
<text text-anchor="middle" x="1429.5" y="-175.5" font-family="Helvetica,sans-Serif" font-size="10.00">torchttphandler.h</text>
</a>
</g>
</g>
<!-- Node17&#45;&gt;Node21 -->
<g id="edge24" class="edge"><title>Node17&#45;&gt;Node21</title>
<path fill="none" stroke="midnightblue" d="M1519.31,-224.324C1502.15,-215.664 1475.55,-202.242 1455.75,-192.249"/>
<polygon fill="midnightblue" stroke="midnightblue" points="1457.15,-189.035 1446.65,-187.655 1454,-195.285 1457.15,-189.035"/>
</g>
<!-- Node23 -->
<g id="node23" class="node"><title>Node23</title>
<g id="a_node23"><a xlink:href="../../df/dd7/torchttprequest_8h.html" target="_top" xlink:title="torchttprequest.h">
<polygon fill="white" stroke="black" points="1464,-112.5 1464,-131.5 1565,-131.5 1565,-112.5 1464,-112.5"/>
<text text-anchor="middle" x="1514.5" y="-119.5" font-family="Helvetica,sans-Serif" font-size="10.00">torchttprequest.h</text>
</a>
</g>
</g>
<!-- Node17&#45;&gt;Node23 -->
<g id="edge35" class="edge"><title>Node17&#45;&gt;Node23</title>
<path fill="none" stroke="midnightblue" d="M1551.38,-224.309C1569.83,-212.343 1597.49,-189.792 1585.5,-168 1577.61,-153.663 1563.01,-143.253 1549.1,-136.079"/>
<polygon fill="midnightblue" stroke="midnightblue" points="1550.2,-132.728 1539.66,-131.622 1547.21,-139.058 1550.2,-132.728"/>
</g>
<!-- Node21&#45;&gt;Node10 -->
<g id="edge25" class="edge"><title>Node21&#45;&gt;Node10</title>
<path fill="none" stroke="midnightblue" d="M1413.88,-168.441C1399.04,-160.001 1376.39,-146.32 1358.5,-132 1339.72,-116.966 1320.53,-97.1043 1307.91,-83.3103"/>
<polygon fill="midnightblue" stroke="midnightblue" points="1310.26,-80.6916 1300.97,-75.6031 1305.06,-85.3761 1310.26,-80.6916"/>
</g>
<!-- Node22 -->
<g id="node22" class="node"><title>Node22</title>
<polygon fill="white" stroke="#bfbfbf" points="1367.5,-112.5 1367.5,-131.5 1445.5,-131.5 1445.5,-112.5 1367.5,-112.5"/>
<text text-anchor="middle" x="1406.5" y="-119.5" font-family="Helvetica,sans-Serif" font-size="10.00">QVariantMap</text>
</g>
<!-- Node21&#45;&gt;Node22 -->
<g id="edge26" class="edge"><title>Node21&#45;&gt;Node22</title>
<path fill="none" stroke="midnightblue" d="M1425.7,-168.083C1422.59,-160.77 1418.08,-150.181 1414.21,-141.103"/>
<polygon fill="midnightblue" stroke="midnightblue" points="1417.37,-139.58 1410.23,-131.751 1410.93,-142.323 1417.37,-139.58"/>
</g>
<!-- Node21&#45;&gt;Node23 -->
<g id="edge27" class="edge"><title>Node21&#45;&gt;Node23</title>
<path fill="none" stroke="midnightblue" d="M1443.16,-168.324C1456.42,-159.9 1476.77,-146.971 1492.35,-137.074"/>
<polygon fill="midnightblue" stroke="midnightblue" points="1494.31,-139.971 1500.88,-131.655 1490.56,-134.063 1494.31,-139.971"/>
</g>
<!-- Node23&#45;&gt;Node10 -->
<g id="edge30" class="edge"><title>Node23&#45;&gt;Node10</title>
<path fill="none" stroke="midnightblue" d="M1479.02,-112.44C1443.8,-103.929 1388.01,-90.4036 1330.27,-76.1781"/>
<polygon fill="midnightblue" stroke="midnightblue" points="1330.78,-72.6989 1320.23,-73.703 1329.1,-79.4953 1330.78,-72.6989"/>
</g>
<!-- Node23&#45;&gt;Node18 -->
<g id="edge28" class="edge"><title>Node23&#45;&gt;Node18</title>
<path fill="none" stroke="midnightblue" d="M1490.1,-112.444C1463.7,-103.186 1421.49,-88.3866 1392.46,-78.2066"/>
<polygon fill="midnightblue" stroke="midnightblue" points="1393.38,-74.8213 1382.79,-74.8151 1391.07,-81.427 1393.38,-74.8213"/>
</g>
<!-- Node24 -->
<g id="node24" class="node"><title>Node24</title>
<polygon fill="white" stroke="#bfbfbf" points="1603,-56.5 1603,-75.5 1644,-75.5 1644,-56.5 1603,-56.5"/>
<text text-anchor="middle" x="1623.5" y="-63.5" font-family="Helvetica,sans-Serif" font-size="10.00">QPair</text>
</g>
<!-- Node23&#45;&gt;Node24 -->
<g id="edge29" class="edge"><title>Node23&#45;&gt;Node24</title>
<path fill="none" stroke="midnightblue" d="M1532.01,-112.324C1549.57,-103.625 1576.83,-90.1202 1597.03,-80.113"/>
<polygon fill="midnightblue" stroke="midnightblue" points="1598.62,-83.23 1606.03,-75.6545 1595.52,-76.9575 1598.62,-83.23"/>
</g>
<!-- Node25 -->
<g id="node25" class="node"><title>Node25</title>
<polygon fill="white" stroke="#bfbfbf" points="1401,-56.5 1401,-75.5 1472,-75.5 1472,-56.5 1401,-56.5"/>
<text text-anchor="middle" x="1436.5" y="-63.5" font-family="Helvetica,sans-Serif" font-size="10.00">QDateTime</text>
</g>
<!-- Node23&#45;&gt;Node25 -->
<g id="edge31" class="edge"><title>Node23&#45;&gt;Node25</title>
<path fill="none" stroke="midnightblue" d="M1501.97,-112.324C1489.91,-103.979 1471.47,-91.2122 1457.23,-81.3524"/>
<polygon fill="midnightblue" stroke="midnightblue" points="1459.22,-78.469 1449,-75.6545 1455.23,-84.2243 1459.22,-78.469"/>
</g>
<!-- Node26 -->
<g id="node26" class="node"><title>Node26</title>
<g id="a_node26"><a xlink:href="../../de/de6/torchttpreader_8h.html" target="_top" xlink:title="torchttpreader.h">
<polygon fill="white" stroke="black" points="1490,-56.5 1490,-75.5 1585,-75.5 1585,-56.5 1490,-56.5"/>
<text text-anchor="middle" x="1537.5" y="-63.5" font-family="Helvetica,sans-Serif" font-size="10.00">torchttpreader.h</text>
</a>
</g>
</g>
<!-- Node23&#45;&gt;Node26 -->
<g id="edge32" class="edge"><title>Node23&#45;&gt;Node26</title>
<path fill="none" stroke="midnightblue" d="M1518.3,-112.083C1521.41,-104.77 1525.92,-94.1814 1529.79,-85.1034"/>
<polygon fill="midnightblue" stroke="midnightblue" points="1533.07,-86.3229 1533.77,-75.7511 1526.63,-83.5798 1533.07,-86.3229"/>
</g>
<!-- Node27 -->
<g id="node27" class="node"><title>Node27</title>
<polygon fill="white" stroke="#bfbfbf" points="1457,-0.5 1457,-19.5 1528,-19.5 1528,-0.5 1457,-0.5"/>
<text text-anchor="middle" x="1492.5" y="-7.5" font-family="Helvetica,sans-Serif" font-size="10.00">QByteArray</text>
</g>
<!-- Node26&#45;&gt;Node27 -->
<g id="edge33" class="edge"><title>Node26&#45;&gt;Node27</title>
<path fill="none" stroke="midnightblue" d="M1530.07,-56.083C1523.65,-48.3768 1514.19,-37.0333 1506.38,-27.6531"/>
<polygon fill="midnightblue" stroke="midnightblue" points="1508.88,-25.1927 1499.79,-19.7511 1503.51,-29.674 1508.88,-25.1927"/>
</g>
<!-- Node28 -->
<g id="node28" class="node"><title>Node28</title>
<polygon fill="white" stroke="#bfbfbf" points="1546.5,-0.5 1546.5,-19.5 1618.5,-19.5 1618.5,-0.5 1546.5,-0.5"/>
<text text-anchor="middle" x="1582.5" y="-7.5" font-family="Helvetica,sans-Serif" font-size="10.00">QTcpSocket</text>
</g>
<!-- Node26&#45;&gt;Node28 -->
<g id="edge34" class="edge"><title>Node26&#45;&gt;Node28</title>
<path fill="none" stroke="midnightblue" d="M1544.93,-56.083C1551.35,-48.3768 1560.81,-37.0333 1568.62,-27.6531"/>
<polygon fill="midnightblue" stroke="midnightblue" points="1571.49,-29.674 1575.21,-19.7511 1566.12,-25.1927 1571.49,-29.674"/>
</g>
<!-- Node30 -->
<g id="node30" class="node"><title>Node30</title>
<polygon fill="white" stroke="#bfbfbf" points="1136.5,-168.5 1136.5,-187.5 1206.5,-187.5 1206.5,-168.5 1136.5,-168.5"/>
<text text-anchor="middle" x="1171.5" y="-175.5" font-family="Helvetica,sans-Serif" font-size="10.00">QAtomicInt</text>
</g>
<!-- Node29&#45;&gt;Node30 -->
<g id="edge37" class="edge"><title>Node29&#45;&gt;Node30</title>
<path fill="none" stroke="midnightblue" d="M1335.6,-224.444C1302.23,-215.201 1248.91,-200.436 1212.15,-190.257"/>
<polygon fill="midnightblue" stroke="midnightblue" points="1212.83,-186.812 1202.25,-187.516 1210.96,-193.558 1212.83,-186.812"/>
</g>
<!-- Node32 -->
<g id="node32" class="node"><title>Node32</title>
<g id="a_node32"><a xlink:href="../../d3/d66/torcevent_8h.html" target="_top" xlink:title="torcevent.h">
<polygon fill="white" stroke="black" points="296,-224.5 296,-243.5 367,-243.5 367,-224.5 296,-224.5"/>
<text text-anchor="middle" x="331.5" y="-231.5" font-family="Helvetica,sans-Serif" font-size="10.00">torcevent.h</text>
</a>
</g>
</g>
<!-- Node31&#45;&gt;Node32 -->
<g id="edge39" class="edge"><title>Node31&#45;&gt;Node32</title>
<path fill="none" stroke="midnightblue" d="M342.353,-280.083C340.631,-272.927 338.153,-262.635 336,-253.691"/>
<polygon fill="midnightblue" stroke="midnightblue" points="339.35,-252.654 333.607,-243.751 332.545,-254.293 339.35,-252.654"/>
</g>
<!-- Node32&#45;&gt;Node15 -->
<g id="edge41" class="edge"><title>Node32&#45;&gt;Node15</title>
<path fill="none" stroke="midnightblue" d="M358.437,-224.444C387.16,-215.32 432.829,-200.813 464.821,-190.651"/>
<polygon fill="midnightblue" stroke="midnightblue" points="466.218,-193.88 474.689,-187.516 464.099,-187.208 466.218,-193.88"/>
</g>
<!-- Node32&#45;&gt;Node18 -->
<g id="edge40" class="edge"><title>Node32&#45;&gt;Node18</title>
<path fill="none" stroke="midnightblue" d="M345.099,-224.273C368.332,-209.841 417.615,-181.279 463.5,-168 832.121,-61.3211 947.746,-149.165 1328.36,-75.896"/>
<polygon fill="midnightblue" stroke="midnightblue" points="1329.12,-79.3148 1338.26,-73.9655 1327.78,-72.4442 1329.12,-79.3148"/>
</g>
<!-- Node33 -->
<g id="node33" class="node"><title>Node33</title>
<polygon fill="white" stroke="#bfbfbf" points="306,-168.5 306,-187.5 357,-187.5 357,-168.5 306,-168.5"/>
<text text-anchor="middle" x="331.5" y="-175.5" font-family="Helvetica,sans-Serif" font-size="10.00">QEvent</text>
</g>
<!-- Node32&#45;&gt;Node33 -->
<g id="edge42" class="edge"><title>Node32&#45;&gt;Node33</title>
<path fill="none" stroke="midnightblue" d="M331.5,-224.083C331.5,-217.006 331.5,-206.861 331.5,-197.986"/>
<polygon fill="midnightblue" stroke="midnightblue" points="335,-197.751 331.5,-187.751 328,-197.751 335,-197.751"/>
</g>
<!-- Node35 -->
<g id="node35" class="node"><title>Node35</title>
<g id="a_node35"><a xlink:href="../../d4/da3/torcdb_8h.html" target="_top" xlink:title="torcdb.h">
<polygon fill="white" stroke="black" points="658.5,-224.5 658.5,-243.5 714.5,-243.5 714.5,-224.5 658.5,-224.5"/>
<text text-anchor="middle" x="686.5" y="-231.5" font-family="Helvetica,sans-Serif" font-size="10.00">torcdb.h</text>
</a>
</g>
</g>
<!-- Node34&#45;&gt;Node35 -->
<g id="edge44" class="edge"><title>Node34&#45;&gt;Node35</title>
<path fill="none" stroke="midnightblue" d="M716.555,-280.083C711.523,-272.534 704.163,-261.495 697.987,-252.23"/>
<polygon fill="midnightblue" stroke="midnightblue" points="700.793,-250.13 692.334,-243.751 694.969,-254.013 700.793,-250.13"/>
</g>
<!-- Node35&#45;&gt;Node3 -->
<g id="edge46" class="edge"><title>Node35&#45;&gt;Node3</title>
<path fill="none" stroke="midnightblue" d="M676.539,-224.324C667.373,-216.341 653.563,-204.313 642.472,-194.653"/>
<polygon fill="midnightblue" stroke="midnightblue" points="644.482,-191.762 634.643,-187.834 639.885,-197.041 644.482,-191.762"/>
</g>
<!-- Node35&#45;&gt;Node9 -->
<g id="edge45" class="edge"><title>Node35&#45;&gt;Node9</title>
<path fill="none" stroke="midnightblue" d="M695.497,-224.324C703.694,-216.42 716.006,-204.548 725.972,-194.938"/>
<polygon fill="midnightblue" stroke="midnightblue" points="728.57,-197.295 733.339,-187.834 723.711,-192.256 728.57,-197.295"/>
</g>
<!-- Node37 -->
<g id="node37" class="node"><title>Node37</title>
<polygon fill="white" stroke="#bfbfbf" points="871,-224.5 871,-243.5 912,-243.5 912,-224.5 871,-224.5"/>
<text text-anchor="middle" x="891.5" y="-231.5" font-family="Helvetica,sans-Serif" font-size="10.00">QList</text>
</g>
<!-- Node36&#45;&gt;Node37 -->
<g id="edge48" class="edge"><title>Node36&#45;&gt;Node37</title>
<path fill="none" stroke="midnightblue" d="M875.637,-280.083C878.183,-272.849 881.856,-262.409 885.027,-253.397"/>
<polygon fill="midnightblue" stroke="midnightblue" points="888.403,-254.346 888.421,-243.751 881.8,-252.023 888.403,-254.346"/>
</g>
<!-- Node38 -->
<g id="node38" class="node"><title>Node38</title>
<g id="a_node38"><a xlink:href="../../dd/db0/torcqthread_8h.html" target="_top" xlink:title="torcqthread.h">
<polygon fill="white" stroke="black" points="770.5,-224.5 770.5,-243.5 852.5,-243.5 852.5,-224.5 770.5,-224.5"/>
<text text-anchor="middle" x="811.5" y="-231.5" font-family="Helvetica,sans-Serif" font-size="10.00">torcqthread.h</text>
</a>
</g>
</g>
<!-- Node36&#45;&gt;Node38 -->
<g id="edge49" class="edge"><title>Node36&#45;&gt;Node38</title>
<path fill="none" stroke="midnightblue" d="M862.699,-280.324C853.682,-272.341 840.094,-260.313 829.182,-250.653"/>
<polygon fill="midnightblue" stroke="midnightblue" points="831.287,-247.842 821.479,-243.834 826.647,-253.083 831.287,-247.842"/>
</g>
<!-- Node39 -->
<g id="node39" class="node"><title>Node39</title>
<polygon fill="white" stroke="#bfbfbf" points="788,-168.5 788,-187.5 845,-187.5 845,-168.5 788,-168.5"/>
<text text-anchor="middle" x="816.5" y="-175.5" font-family="Helvetica,sans-Serif" font-size="10.00">QThread</text>
</g>
<!-- Node38&#45;&gt;Node39 -->
<g id="edge50" class="edge"><title>Node38&#45;&gt;Node39</title>
<path fill="none" stroke="midnightblue" d="M812.326,-224.083C812.981,-217.006 813.92,-206.861 814.742,-197.986"/>
<polygon fill="midnightblue" stroke="midnightblue" points="818.253,-198.031 815.69,-187.751 811.283,-197.386 818.253,-198.031"/>
</g>
<!-- Node40&#45;&gt;Node4 -->
<g id="edge55" class="edge"><title>Node40&#45;&gt;Node4</title>
<path fill="none" stroke="midnightblue" d="M422.609,-280.444C372.696,-270.713 291.381,-254.861 239.181,-244.685"/>
<polygon fill="midnightblue" stroke="midnightblue" points="239.632,-241.207 229.147,-242.729 238.293,-248.078 239.632,-241.207"/>
</g>
<!-- Node40&#45;&gt;Node9 -->
<g id="edge52" class="edge"><title>Node40&#45;&gt;Node9</title>
<path fill="none" stroke="midnightblue" d="M488.157,-280.368C536.829,-260.97 655.009,-213.87 711.469,-191.367"/>
<polygon fill="midnightblue" stroke="midnightblue" points="712.95,-194.545 720.943,-187.591 710.358,-188.042 712.95,-194.545"/>
</g>
<!-- Node40&#45;&gt;Node15 -->
<g id="edge53" class="edge"><title>Node40&#45;&gt;Node15</title>
<path fill="none" stroke="midnightblue" d="M469.435,-280.393C472.503,-271.35 477.429,-256.704 481.5,-244 486.511,-228.364 491.979,-210.535 495.93,-197.51"/>
<polygon fill="midnightblue" stroke="midnightblue" points="499.306,-198.437 498.848,-187.852 492.605,-196.412 499.306,-198.437"/>
</g>
<!-- Node41 -->
<g id="node41" class="node"><title>Node41</title>
<polygon fill="white" stroke="#bfbfbf" points="424,-224.5 424,-243.5 473,-243.5 473,-224.5 424,-224.5"/>
<text text-anchor="middle" x="448.5" y="-231.5" font-family="Helvetica,sans-Serif" font-size="10.00">QHash</text>
</g>
<!-- Node40&#45;&gt;Node41 -->
<g id="edge54" class="edge"><title>Node40&#45;&gt;Node41</title>
<path fill="none" stroke="midnightblue" d="M463.528,-280.083C461.116,-272.849 457.636,-262.409 454.632,-253.397"/>
<polygon fill="midnightblue" stroke="midnightblue" points="457.9,-252.131 451.417,-243.751 451.259,-254.345 457.9,-252.131"/>
</g>
<!-- Node42&#45;&gt;Node9 -->
<g id="edge59" class="edge"><title>Node42&#45;&gt;Node9</title>
<path fill="none" stroke="midnightblue" d="M1111.16,-336.421C1089.67,-328.169 1057.17,-314.793 1030.5,-300 978.537,-271.174 974.609,-248.561 920.5,-224 918.872,-223.261 831.984,-201.427 780.222,-188.449"/>
<polygon fill="midnightblue" stroke="midnightblue" points="780.925,-185.017 770.374,-185.98 779.223,-191.807 780.925,-185.017"/>
</g>
<!-- Node42&#45;&gt;Node11 -->
<g id="edge62" class="edge"><title>Node42&#45;&gt;Node11</title>
<path fill="none" stroke="midnightblue" d="M1108.98,-336.397C1090.38,-329.085 1065.54,-317.04 1048.5,-300 1035.3,-286.795 1026.06,-267.394 1020.59,-253.225"/>
<polygon fill="midnightblue" stroke="midnightblue" points="1023.8,-251.826 1017.12,-243.6 1017.21,-254.195 1023.8,-251.826"/>
</g>
<!-- Node42&#45;&gt;Node13 -->
<g id="edge63" class="edge"><title>Node42&#45;&gt;Node13</title>
<path fill="none" stroke="midnightblue" d="M1154.15,-336.444C1174.46,-327.596 1206.4,-313.687 1229.6,-303.586"/>
<polygon fill="midnightblue" stroke="midnightblue" points="1231.17,-306.718 1238.94,-299.516 1228.38,-300.3 1231.17,-306.718"/>
</g>
<!-- Node42&#45;&gt;Node17 -->
<g id="edge64" class="edge"><title>Node42&#45;&gt;Node17</title>
<path fill="none" stroke="midnightblue" d="M1167.85,-336.481C1202.54,-327.572 1258.4,-313.088 1306.5,-300 1373.5,-281.769 1451.19,-259.598 1496.96,-246.428"/>
<polygon fill="midnightblue" stroke="midnightblue" points="1498.14,-249.731 1506.78,-243.6 1496.2,-243.004 1498.14,-249.731"/>
</g>
<!-- Node42&#45;&gt;Node18 -->
<g id="edge58" class="edge"><title>Node42&#45;&gt;Node18</title>
<path fill="none" stroke="midnightblue" d="M1179.14,-340.057C1303.1,-325.734 1642.5,-282.206 1642.5,-235 1642.5,-235 1642.5,-235 1642.5,-177 1642.5,-135.192 1611.6,-131.272 1574.5,-112 1504.04,-75.4024 1474.88,-93.6864 1392.58,-75.7594"/>
<polygon fill="midnightblue" stroke="midnightblue" points="1393.35,-72.3456 1382.82,-73.5201 1391.78,-79.1682 1393.35,-72.3456"/>
</g>
<!-- Node43 -->
<g id="node43" class="node"><title>Node43</title>
<polygon fill="white" stroke="#bfbfbf" points="1147,-280.5 1147,-299.5 1202,-299.5 1202,-280.5 1147,-280.5"/>
<text text-anchor="middle" x="1174.5" y="-287.5" font-family="Helvetica,sans-Serif" font-size="10.00">QLocale</text>
</g>
<!-- Node42&#45;&gt;Node43 -->
<g id="edge60" class="edge"><title>Node42&#45;&gt;Node43</title>
<path fill="none" stroke="midnightblue" d="M1141.11,-336.083C1146.76,-328.455 1155.04,-317.264 1161.95,-307.941"/>
<polygon fill="midnightblue" stroke="midnightblue" points="1164.88,-309.87 1168.02,-299.751 1159.25,-305.703 1164.88,-309.87"/>
</g>
<!-- Node44 -->
<g id="node44" class="node"><title>Node44</title>
<polygon fill="white" stroke="#bfbfbf" points="1058,-280.5 1058,-299.5 1129,-299.5 1129,-280.5 1058,-280.5"/>
<text text-anchor="middle" x="1093.5" y="-287.5" font-family="Helvetica,sans-Serif" font-size="10.00">QTranslator</text>
</g>
<!-- Node42&#45;&gt;Node44 -->
<g id="edge61" class="edge"><title>Node42&#45;&gt;Node44</title>
<path fill="none" stroke="midnightblue" d="M1127.73,-336.083C1121.94,-328.455 1113.44,-317.264 1106.36,-307.941"/>
<polygon fill="midnightblue" stroke="midnightblue" points="1108.98,-305.599 1100.14,-299.751 1103.4,-309.832 1108.98,-305.599"/>
</g>
<!-- Node45&#45;&gt;Node9 -->
<g id="edge66" class="edge"><title>Node45&#45;&gt;Node9</title>
<path fill="none" stroke="midnightblue" d="M1383.96,-336.469C1411.05,-315.336 1474.3,-259.691 1440.5,-224 1391.63,-172.396 888.602,-197.083 780.504,-187.676"/>
<polygon fill="midnightblue" stroke="midnightblue" points="780.636,-184.169 770.302,-186.507 779.838,-191.123 780.636,-184.169"/>
</g>
<!-- Node45&#45;&gt;Node13 -->
<g id="edge67" class="edge"><title>Node45&#45;&gt;Node13</title>
<path fill="none" stroke="midnightblue" d="M1354.44,-336.444C1335.93,-327.675 1306.92,-313.935 1285.64,-303.858"/>
<polygon fill="midnightblue" stroke="midnightblue" points="1287.01,-300.634 1276.48,-299.516 1284.02,-306.96 1287.01,-300.634"/>
</g>
<!-- Node45&#45;&gt;Node17 -->
<g id="edge68" class="edge"><title>Node45&#45;&gt;Node17</title>
<path fill="none" stroke="midnightblue" d="M1405.24,-342.573C1436.58,-338.575 1483.28,-327.996 1512.5,-300 1525.24,-287.797 1531.26,-268.25 1534.07,-253.774"/>
<polygon fill="midnightblue" stroke="midnightblue" points="1537.53,-254.328 1535.67,-243.899 1530.62,-253.215 1537.53,-254.328"/>
</g>
</g>
</svg>
        <g id="navigator" transform="translate(0 0)" fill="#404254">
                <rect fill="#f2f5e9" fill-opacity="0.5" stroke="#606060" stroke-width=".5" x="0" y="0" width="60" height="60"/>
                <use id="zoomplus" xlink:href="#zoomPlus" x="17" y="9" onmousedown="handleZoom(evt,'in')"/>
                <use id="zoomminus" xlink:href="#zoomMin" x="42" y="9" onmousedown="handleZoom(evt,'out')"/>
                <use id="reset" xlink:href="#resetDef" x="30" y="36" onmousedown="handleReset()"/>
                <g id="arrowUp" xlink:href="#dirArrow" transform="translate(30 24)" onmousedown="handlePan(0,-1)">
                  <use xlink:href="#rim" fill="#404040">
                        <set attributeName="fill" to="#808080" begin="arrowUp.mouseover" end="arrowUp.mouseout"/>
                  </use>
                  <path fill="none" stroke="white" stroke-width="1.5" d="M0,-3.0v7 M-2.5,-0.5L0,-3.0L2.5,-0.5"/>
                </g>
                <g id="arrowRight" xlink:href="#dirArrow" transform="rotate(90) translate(36 -43)" onmousedown="handlePan(1,0)">
                  <use xlink:href="#rim" fill="#404040">
                        <set attributeName="fill" to="#808080" begin="arrowRight.mouseover" end="arrowRight.mouseout"/>
                  </use>
                  <path fill="none" stroke="white" stroke-width="1.5" d="M0,-3.0v7 M-2.5,-0.5L0,-3.0L2.5,-0.5"/>
                </g>
                <g id="arrowDown" xlink:href="#dirArrow" transform="rotate(180) translate(-30 -48)" onmousedown="handlePan(0,1)">
                  <use xlink:href="#rim" fill="#404040">
                        <set attributeName="fill" to="#808080" begin="arrowDown.mouseover" end="arrowDown.mouseout"/>
                  </use>
                  <path fill="none" stroke="white" stroke-width="1.5" d="M0,-3.0v7 M-2.5,-0.5L0,-3.0L2.5,-0.5"/>
                </g>
                <g id="arrowLeft" xlink:href="#dirArrow" transform="rotate(270) translate(-36 17)" onmousedown="handlePan(-1,0)">
                  <use xlink:href="#rim" fill="#404040">
                        <set attributeName="fill" to="#808080" begin="arrowLeft.mouseover" end="arrowLeft.mouseout"/>
                  </use>
                  <path fill="none" stroke="white" stroke-width="1.5" d="M0,-3.0v7 M-2.5,-0.5L0,-3.0L2.5,-0.5"/>
                </g>
        </g>
        <svg viewBox="0 0 15 15" width="100%" height="30px" preserveAspectRatio="xMaxYMin meet">
         <g id="arrow_out" transform="scale(0.3 0.3)">
          <a xlink:href="torcuser_8cpp__incl_org.svg" target="_base">
           <rect id="button" ry="5" rx="5" y="6" x="6" height="38" width="38"
                fill="#f2f5e9" fill-opacity="0.5" stroke="#606060" stroke-width="1.0"/>
           <path id="arrow"
             d="M 11.500037,31.436501 C 11.940474,20.09759 22.043105,11.32322 32.158766,21.979434 L 37.068811,17.246167 C 37.068811,17.246167 37.088388,32 37.088388,32 L 22.160133,31.978069 C 22.160133,31.978069 26.997745,27.140456 26.997745,27.140456 C 18.528582,18.264221 13.291696,25.230495 11.500037,31.436501 z"
             style="fill:#404040;"/>
          </a>
         </g>
        </svg>
</svg>
