<?xml version="1.0" encoding="UTF-8" standalone="no"?>
<!DOCTYPE svg PUBLIC "-//W3C//DTD SVG 1.1//EN"
 "http://www.w3.org/Graphics/SVG/1.1/DTD/svg11.dtd">
<!-- Generated by graphviz version 2.38.0 (20140413.2041)
 -->
<!-- Title: torcuser.cpp Pages: 1 -->
<!--zoomable 420 -->
<svg id="main" version="1.1" xmlns="http://www.w3.org/2000/svg" xmlns:xlink="http://www.w3.org/1999/xlink" xml:space="preserve" onload="init(evt)">
<style type="text/css"><![CDATA[
.edge:hover path { stroke: red; }
.edge:hover polygon { stroke: red; fill: red; }
]]></style>
<script type="text/javascript"><![CDATA[
var edges = document.getElementsByTagName('g');
if (edges && edges.length) {
  for (var i=0;i<edges.length;i++) {
    if (edges[i].id.substr(0,4)=='edge') {
      edges[i].setAttribute('class','edge');
    }
  }
}
]]></script>
        <defs>
                <circle id="rim" cx="0" cy="0" r="7"/>
                <circle id="rim2" cx="0" cy="0" r="3.5"/>
                <g id="zoomPlus">
                        <use xlink:href="#rim" fill="#404040">
                                <set attributeName="fill" to="#808080" begin="zoomplus.mouseover" end="zoomplus.mouseout"/>
                        </use>
                        <path d="M-4,0h8M0,-4v8" fill="none" stroke="white" stroke-width="1.5" pointer-events="none"/>
                </g>
                <g id="zoomMin">
                        <use xlink:href="#rim" fill="#404040">
                                <set attributeName="fill" to="#808080" begin="zoomminus.mouseover" end="zoomminus.mouseout"/>
                        </use>
                        <path d="M-4,0h8" fill="none" stroke="white" stroke-width="1.5" pointer-events="none"/>
                </g>
                <g id="dirArrow">
                        <path fill="none" stroke="white" stroke-width="1.5" d="M0,-3.0v7 M-2.5,-0.5L0,-3.0L2.5,-0.5"/>
                </g>
               <g id="resetDef">
                       <use xlink:href="#rim2" fill="#404040">
                               <set attributeName="fill" to="#808080" begin="reset.mouseover" end="reset.mouseout"/>
                       </use>
               </g>
        </defs>

<script type="text/javascript">
var viewWidth = 1745;
var viewHeight = 420;
var sectionId = 'dynsection-0';
</script>
<script xlink:href="../../svgpan.js"/>
<svg id="graph" class="graph">
<g id="viewport">
<title>torcuser.cpp</title>
<polygon fill="white" stroke="none" points="-4,4 -4,-416 1740.5,-416 1740.5,4 -4,4"/>
<!-- Node1 -->
<g id="node1" class="node"><title>Node1</title>
<polygon fill="#bfbfbf" stroke="black" points="539.5,-392.5 539.5,-411.5 615.5,-411.5 615.5,-392.5 539.5,-392.5"/>
<text text-anchor="middle" x="577.5" y="-399.5" font-family="Helvetica,sans-Serif" font-size="10.00">torcuser.cpp</text>
</g>
<!-- Node2 -->
<g id="node2" class="node"><title>Node2</title>
<polygon fill="white" stroke="#bfbfbf" points="39,-336.5 39,-355.5 98,-355.5 98,-336.5 39,-336.5"/>
<text text-anchor="middle" x="68.5" y="-343.5" font-family="Helvetica,sans-Serif" font-size="10.00">QRegExp</text>
</g>
<!-- Node1&#45;&gt;Node2 -->
<g id="edge1" class="edge"><title>Node1&#45;&gt;Node2</title>
<path fill="none" stroke="midnightblue" d="M539.36,-398.674C459.729,-393.519 270.105,-379.678 112.5,-356 111.054,-355.783 109.584,-355.549 108.101,-355.303"/>
<polygon fill="midnightblue" stroke="midnightblue" points="108.709,-351.856 98.2464,-353.526 107.467,-358.745 108.709,-351.856"/>
</g>
<!-- Node3 -->
<g id="node3" class="node"><title>Node3</title>
<polygon fill="white" stroke="#bfbfbf" points="303,-168.5 303,-187.5 356,-187.5 356,-168.5 303,-168.5"/>
<text text-anchor="middle" x="329.5" y="-175.5" font-family="Helvetica,sans-Serif" font-size="10.00">QMutex</text>
</g>
<!-- Node1&#45;&gt;Node3 -->
<g id="edge2" class="edge"><title>Node1&#45;&gt;Node3</title>
<path fill="none" stroke="midnightblue" d="M539.431,-396.349C453.709,-385.014 249.873,-352.946 209.5,-300 195.56,-281.719 210.959,-241.477 226.5,-224 243.817,-204.525 271.097,-193.123 293.232,-186.671"/>
<polygon fill="midnightblue" stroke="midnightblue" points="294.241,-190.024 302.986,-184.043 292.42,-183.265 294.241,-190.024"/>
</g>
<!-- Node4 -->
<g id="node4" class="node"><title>Node4</title>
<g id="a_node4"><a xlink:href="../../d4/df9/torclogging_8h.html" target="_top" xlink:title="torclogging.h">
<polygon fill="white" stroke="black" points="57,-224.5 57,-243.5 136,-243.5 136,-224.5 57,-224.5"/>
<text text-anchor="middle" x="96.5" y="-231.5" font-family="Helvetica,sans-Serif" font-size="10.00">torclogging.h</text>
</a>
</g>
</g>
<!-- Node1&#45;&gt;Node4 -->
<g id="edge3" class="edge"><title>Node1&#45;&gt;Node4</title>
<path fill="none" stroke="midnightblue" d="M539.419,-401.714C446.644,-402.724 212.026,-400.673 150.5,-356 116.784,-331.519 103.746,-281.109 99.0035,-253.715"/>
<polygon fill="midnightblue" stroke="midnightblue" points="102.417,-252.882 97.4427,-243.527 95.4974,-253.942 102.417,-252.882"/>
</g>
<!-- Node8 -->
<g id="node8" class="node"><title>Node8</title>
<g id="a_node8"><a xlink:href="../../dd/dbd/torclocalcontext_8h.html" target="_top" xlink:title="torclocalcontext.h">
<polygon fill="white" stroke="black" points="526.5,-336.5 526.5,-355.5 628.5,-355.5 628.5,-336.5 526.5,-336.5"/>
<text text-anchor="middle" x="577.5" y="-343.5" font-family="Helvetica,sans-Serif" font-size="10.00">torclocalcontext.h</text>
</a>
</g>
</g>
<!-- Node1&#45;&gt;Node8 -->
<g id="edge7" class="edge"><title>Node1&#45;&gt;Node8</title>
<path fill="none" stroke="midnightblue" d="M577.5,-392.083C577.5,-385.006 577.5,-374.861 577.5,-365.986"/>
<polygon fill="midnightblue" stroke="midnightblue" points="581,-365.751 577.5,-355.751 574,-365.751 581,-365.751"/>
</g>
<!-- Node36 -->
<g id="node36" class="node"><title>Node36</title>
<g id="a_node36"><a xlink:href="../../dd/dd5/torcadminthread_8h.html" target="_top" xlink:title="torcadminthread.h">
<polygon fill="white" stroke="black" points="754.5,-280.5 754.5,-299.5 860.5,-299.5 860.5,-280.5 754.5,-280.5"/>
<text text-anchor="middle" x="807.5" y="-287.5" font-family="Helvetica,sans-Serif" font-size="10.00">torcadminthread.h</text>
</a>
</g>
</g>
<!-- Node1&#45;&gt;Node36 -->
<g id="edge57" class="edge"><title>Node1&#45;&gt;Node36</title>
<path fill="none" stroke="midnightblue" d="M595.548,-392.368C635.772,-373.131 732.964,-326.648 780.462,-303.931"/>
<polygon fill="midnightblue" stroke="midnightblue" points="782.025,-307.064 789.536,-299.591 779.005,-300.749 782.025,-307.064"/>
</g>
<!-- Node42 -->
<g id="node42" class="node"><title>Node42</title>
<g id="a_node42"><a xlink:href="../../dd/d5f/torclanguage_8h.html" target="_top" xlink:title="torclanguage.h">
<polygon fill="white" stroke="black" points="1428,-336.5 1428,-355.5 1517,-355.5 1517,-336.5 1428,-336.5"/>
<text text-anchor="middle" x="1472.5" y="-343.5" font-family="Helvetica,sans-Serif" font-size="10.00">torclanguage.h</text>
</a>
</g>
</g>
<!-- Node1&#45;&gt;Node42 -->
<g id="edge58" class="edge"><title>Node1&#45;&gt;Node42</title>
<path fill="none" stroke="midnightblue" d="M615.671,-398.697C757.038,-390.168 1251.2,-360.352 1417.45,-350.322"/>
<polygon fill="midnightblue" stroke="midnightblue" points="1418.15,-353.786 1427.92,-349.69 1417.72,-346.799 1418.15,-353.786"/>
</g>
<!-- Node45 -->
<g id="node45" class="node"><title>Node45</title>
<g id="a_node45"><a xlink:href="../../d2/d7a/torcuser_8h.html" target="_top" xlink:title="torcuser.h">
<polygon fill="white" stroke="black" points="974,-336.5 974,-355.5 1039,-355.5 1039,-336.5 974,-336.5"/>
<text text-anchor="middle" x="1006.5" y="-343.5" font-family="Helvetica,sans-Serif" font-size="10.00">torcuser.h</text>
</a>
</g>
</g>
<!-- Node1&#45;&gt;Node45 -->
<g id="edge66" class="edge"><title>Node1&#45;&gt;Node45</title>
<path fill="none" stroke="midnightblue" d="M615.571,-396.208C695.493,-386.148 880.264,-362.89 963.947,-352.356"/>
<polygon fill="midnightblue" stroke="midnightblue" points="964.391,-355.828 973.876,-351.107 963.517,-348.883 964.391,-355.828"/>
</g>
<!-- Node5 -->
<g id="node5" class="node"><title>Node5</title>
<polygon fill="white" stroke="#bfbfbf" points="0,-168.5 0,-187.5 53,-187.5 53,-168.5 0,-168.5"/>
<text text-anchor="middle" x="26.5" y="-175.5" font-family="Helvetica,sans-Serif" font-size="10.00">stdint.h</text>
</g>
<!-- Node4&#45;&gt;Node5 -->
<g id="edge4" class="edge"><title>Node4&#45;&gt;Node5</title>
<path fill="none" stroke="midnightblue" d="M85.2533,-224.324C74.7026,-216.185 58.6993,-203.839 46.0578,-194.087"/>
<polygon fill="midnightblue" stroke="midnightblue" points="48.007,-191.171 37.9513,-187.834 43.7314,-196.713 48.007,-191.171"/>
</g>
<!-- Node6 -->
<g id="node6" class="node"><title>Node6</title>
<polygon fill="white" stroke="#bfbfbf" points="71,-168.5 71,-187.5 122,-187.5 122,-168.5 71,-168.5"/>
<text text-anchor="middle" x="96.5" y="-175.5" font-family="Helvetica,sans-Serif" font-size="10.00">errno.h</text>
</g>
<!-- Node4&#45;&gt;Node6 -->
<g id="edge5" class="edge"><title>Node4&#45;&gt;Node6</title>
<path fill="none" stroke="midnightblue" d="M96.5,-224.083C96.5,-217.006 96.5,-206.861 96.5,-197.986"/>
<polygon fill="midnightblue" stroke="midnightblue" points="100,-197.751 96.5,-187.751 93.0001,-197.751 100,-197.751"/>
</g>
<!-- Node7 -->
<g id="node7" class="node"><title>Node7</title>
<g id="a_node7"><a xlink:href="../../d1/d37/torcloggingdefs_8h.html" target="_top" xlink:title="torcloggingdefs.h">
<polygon fill="white" stroke="black" points="140,-168.5 140,-187.5 239,-187.5 239,-168.5 140,-168.5"/>
<text text-anchor="middle" x="189.5" y="-175.5" font-family="Helvetica,sans-Serif" font-size="10.00">torcloggingdefs.h</text>
</a>
</g>
</g>
<!-- Node4&#45;&gt;Node7 -->
<g id="edge6" class="edge"><title>Node4&#45;&gt;Node7</title>
<path fill="none" stroke="midnightblue" d="M111.442,-224.324C126.085,-215.822 148.634,-202.729 165.738,-192.797"/>
<polygon fill="midnightblue" stroke="midnightblue" points="167.705,-195.703 174.595,-187.655 164.19,-189.649 167.705,-195.703"/>
</g>
<!-- Node8&#45;&gt;Node3 -->
<g id="edge11" class="edge"><title>Node8&#45;&gt;Node3</title>
<path fill="none" stroke="midnightblue" d="M526.315,-342.219C432.63,-336.601 241.326,-322.49 221.5,-300 186.791,-260.628 259.887,-214.44 302.197,-192.237"/>
<polygon fill="midnightblue" stroke="midnightblue" points="303.902,-195.296 311.209,-187.624 300.712,-189.065 303.902,-195.296"/>
</g>
<!-- Node9 -->
<g id="node9" class="node"><title>Node9</title>
<polygon fill="white" stroke="#bfbfbf" points="895,-168.5 895,-187.5 950,-187.5 950,-168.5 895,-168.5"/>
<text text-anchor="middle" x="922.5" y="-175.5" font-family="Helvetica,sans-Serif" font-size="10.00">QObject</text>
</g>
<!-- Node8&#45;&gt;Node9 -->
<g id="edge8" class="edge"><title>Node8&#45;&gt;Node9</title>
<path fill="none" stroke="midnightblue" d="M628.784,-337.181C654.755,-330.925 685.208,-319.772 706.5,-300 733.484,-274.942 711.362,-247.755 739.5,-224 745.11,-219.264 832.853,-199.039 884.772,-187.379"/>
<polygon fill="midnightblue" stroke="midnightblue" points="885.649,-190.769 894.643,-185.168 884.12,-183.938 885.649,-190.769"/>
</g>
<!-- Node10 -->
<g id="node10" class="node"><title>Node10</title>
<polygon fill="white" stroke="#bfbfbf" points="861,-56.5 861,-75.5 914,-75.5 914,-56.5 861,-56.5"/>
<text text-anchor="middle" x="887.5" y="-63.5" font-family="Helvetica,sans-Serif" font-size="10.00">QString</text>
</g>
<!-- Node8&#45;&gt;Node10 -->
<g id="edge9" class="edge"><title>Node8&#45;&gt;Node10</title>
<path fill="none" stroke="midnightblue" d="M530.02,-336.444C507.052,-330.021 480.781,-318.941 463.5,-300 443.214,-277.766 444.5,-265.098 444.5,-235 444.5,-235 444.5,-235 444.5,-177 444.5,-93.5864 744.078,-72.9747 850.522,-68.2838"/>
<polygon fill="midnightblue" stroke="midnightblue" points="850.941,-71.7694 860.786,-67.8549 850.649,-64.7755 850.941,-71.7694"/>
</g>
<!-- Node11 -->
<g id="node11" class="node"><title>Node11</title>
<polygon fill="white" stroke="#bfbfbf" points="1207.5,-168.5 1207.5,-187.5 1299.5,-187.5 1299.5,-168.5 1207.5,-168.5"/>
<text text-anchor="middle" x="1253.5" y="-175.5" font-family="Helvetica,sans-Serif" font-size="10.00">QReadWriteLock</text>
</g>
<!-- Node8&#45;&gt;Node11 -->
<g id="edge10" class="edge"><title>Node8&#45;&gt;Node11</title>
<path fill="none" stroke="midnightblue" d="M628.759,-344.576C731.566,-342.96 969.928,-335.355 1166.5,-300 1255.25,-284.039 1307.25,-316.024 1361.5,-244 1380.96,-218.166 1341.95,-200.497 1305.5,-190.175"/>
<polygon fill="midnightblue" stroke="midnightblue" points="1306.4,-186.792 1295.84,-187.583 1304.59,-193.554 1306.4,-186.792"/>
</g>
<!-- Node12 -->
<g id="node12" class="node"><title>Node12</title>
<g id="a_node12"><a xlink:href="../../db/db2/torclocaldefs_8h.html" target="_top" xlink:title="torclocaldefs.h">
<polygon fill="white" stroke="black" points="230.5,-280.5 230.5,-299.5 316.5,-299.5 316.5,-280.5 230.5,-280.5"/>
<text text-anchor="middle" x="273.5" y="-287.5" font-family="Helvetica,sans-Serif" font-size="10.00">torclocaldefs.h</text>
</a>
</g>
</g>
<!-- Node8&#45;&gt;Node12 -->
<g id="edge12" class="edge"><title>Node8&#45;&gt;Node12</title>
<path fill="none" stroke="midnightblue" d="M529.33,-336.444C474.052,-326.624 383.678,-310.571 326.462,-300.408"/>
<polygon fill="midnightblue" stroke="midnightblue" points="326.987,-296.946 316.529,-298.643 325.763,-303.838 326.987,-296.946"/>
</g>
<!-- Node13 -->
<g id="node13" class="node"><title>Node13</title>
<g id="a_node13"><a xlink:href="../../db/df5/torcsetting_8h.html" target="_top" xlink:title="torcsetting.h">
<polygon fill="white" stroke="black" points="1080,-280.5 1080,-299.5 1157,-299.5 1157,-280.5 1080,-280.5"/>
<text text-anchor="middle" x="1118.5" y="-287.5" font-family="Helvetica,sans-Serif" font-size="10.00">torcsetting.h</text>
</a>
</g>
</g>
<!-- Node8&#45;&gt;Node13 -->
<g id="edge13" class="edge"><title>Node8&#45;&gt;Node13</title>
<path fill="none" stroke="midnightblue" d="M628.884,-339.871C733.05,-329.474 967.837,-306.038 1069.75,-295.866"/>
<polygon fill="midnightblue" stroke="midnightblue" points="1070.17,-299.341 1079.77,-294.865 1069.48,-292.376 1070.17,-299.341"/>
</g>
<!-- Node31 -->
<g id="node31" class="node"><title>Node31</title>
<g id="a_node31"><a xlink:href="../../d6/d94/torcobservable_8h.html" target="_top" xlink:title="torcobservable.h">
<polygon fill="white" stroke="black" points="601,-280.5 601,-299.5 698,-299.5 698,-280.5 601,-280.5"/>
<text text-anchor="middle" x="649.5" y="-287.5" font-family="Helvetica,sans-Serif" font-size="10.00">torcobservable.h</text>
</a>
</g>
</g>
<!-- Node8&#45;&gt;Node31 -->
<g id="edge39" class="edge"><title>Node8&#45;&gt;Node31</title>
<path fill="none" stroke="midnightblue" d="M589.068,-336.324C599.92,-328.185 616.381,-315.839 629.383,-306.087"/>
<polygon fill="midnightblue" stroke="midnightblue" points="631.821,-308.634 637.721,-299.834 627.621,-303.034 631.821,-308.634"/>
</g>
<!-- Node34 -->
<g id="node34" class="node"><title>Node34</title>
<g id="a_node34"><a xlink:href="../../d7/d70/torcsqlitedb_8h.html" target="_top" xlink:title="torcsqlitedb.h">
<polygon fill="white" stroke="black" points="334.5,-280.5 334.5,-299.5 416.5,-299.5 416.5,-280.5 334.5,-280.5"/>
<text text-anchor="middle" x="375.5" y="-287.5" font-family="Helvetica,sans-Serif" font-size="10.00">torcsqlitedb.h</text>
</a>
</g>
</g>
<!-- Node8&#45;&gt;Node34 -->
<g id="edge44" class="edge"><title>Node8&#45;&gt;Node34</title>
<path fill="none" stroke="midnightblue" d="M545.492,-336.444C510.771,-327.162 455.212,-312.309 417.123,-302.127"/>
<polygon fill="midnightblue" stroke="midnightblue" points="417.922,-298.718 407.358,-299.516 416.115,-305.48 417.922,-298.718"/>
</g>
<!-- Node8&#45;&gt;Node36 -->
<g id="edge48" class="edge"><title>Node8&#45;&gt;Node36</title>
<path fill="none" stroke="midnightblue" d="M613.944,-336.444C653.899,-327.063 718.087,-311.993 761.485,-301.804"/>
<polygon fill="midnightblue" stroke="midnightblue" points="762.291,-305.21 771.226,-299.516 760.691,-298.395 762.291,-305.21"/>
</g>
<!-- Node40 -->
<g id="node40" class="node"><title>Node40</title>
<g id="a_node40"><a xlink:href="../../db/d41/torccommandline_8h.html" target="_top" xlink:title="torccommandline.h">
<polygon fill="white" stroke="black" points="472.5,-280.5 472.5,-299.5 582.5,-299.5 582.5,-280.5 472.5,-280.5"/>
<text text-anchor="middle" x="527.5" y="-287.5" font-family="Helvetica,sans-Serif" font-size="10.00">torccommandline.h</text>
</a>
</g>
</g>
<!-- Node8&#45;&gt;Node40 -->
<g id="edge52" class="edge"><title>Node8&#45;&gt;Node40</title>
<path fill="none" stroke="midnightblue" d="M569.244,-336.083C562.035,-328.298 551.39,-316.801 542.654,-307.367"/>
<polygon fill="midnightblue" stroke="midnightblue" points="544.965,-304.711 535.603,-299.751 539.829,-309.467 544.965,-304.711"/>
</g>
<!-- Node13&#45;&gt;Node9 -->
<g id="edge16" class="edge"><title>Node13&#45;&gt;Node9</title>
<path fill="none" stroke="midnightblue" d="M1104.4,-280.349C1083.6,-267.665 1043.39,-243.418 1008.5,-224 988.684,-212.97 965.934,-201.1 948.812,-192.322"/>
<polygon fill="midnightblue" stroke="midnightblue" points="949.944,-188.97 939.446,-187.541 946.761,-195.205 949.944,-188.97"/>
</g>
<!-- Node13&#45;&gt;Node11 -->
<g id="edge15" class="edge"><title>Node13&#45;&gt;Node11</title>
<path fill="none" stroke="midnightblue" d="M1157.18,-287.071C1215.62,-283.256 1322.11,-272.487 1345.5,-244 1364.51,-220.853 1327.84,-202.137 1295.32,-190.835"/>
<polygon fill="midnightblue" stroke="midnightblue" points="1296.02,-187.38 1285.42,-187.569 1293.82,-194.027 1296.02,-187.38"/>
</g>
<!-- Node14 -->
<g id="node14" class="node"><title>Node14</title>
<polygon fill="white" stroke="#bfbfbf" points="1061,-224.5 1061,-243.5 1102,-243.5 1102,-224.5 1061,-224.5"/>
<text text-anchor="middle" x="1081.5" y="-231.5" font-family="Helvetica,sans-Serif" font-size="10.00">QSet</text>
</g>
<!-- Node13&#45;&gt;Node14 -->
<g id="edge14" class="edge"><title>Node13&#45;&gt;Node14</title>
<path fill="none" stroke="midnightblue" d="M1112.39,-280.083C1107.22,-272.534 1099.65,-261.495 1093.31,-252.23"/>
<polygon fill="midnightblue" stroke="midnightblue" points="1096.04,-250.022 1087.5,-243.751 1090.26,-253.979 1096.04,-250.022"/>
</g>
<!-- Node15 -->
<g id="node15" class="node"><title>Node15</title>
<polygon fill="white" stroke="#bfbfbf" points="625.5,-168.5 625.5,-187.5 683.5,-187.5 683.5,-168.5 625.5,-168.5"/>
<text text-anchor="middle" x="654.5" y="-175.5" font-family="Helvetica,sans-Serif" font-size="10.00">QVariant</text>
</g>
<!-- Node13&#45;&gt;Node15 -->
<g id="edge17" class="edge"><title>Node13&#45;&gt;Node15</title>
<path fill="none" stroke="midnightblue" d="M1079.94,-283.118C1031.8,-275.486 947.066,-261.103 875.5,-244 809.281,-228.175 733.402,-204.653 689.994,-190.669"/>
<polygon fill="midnightblue" stroke="midnightblue" points="691.053,-187.333 680.461,-187.583 688.897,-193.993 691.053,-187.333"/>
</g>
<!-- Node16 -->
<g id="node16" class="node"><title>Node16</title>
<polygon fill="white" stroke="#bfbfbf" points="1120,-224.5 1120,-243.5 1189,-243.5 1189,-224.5 1120,-224.5"/>
<text text-anchor="middle" x="1154.5" y="-231.5" font-family="Helvetica,sans-Serif" font-size="10.00">QStringList</text>
</g>
<!-- Node13&#45;&gt;Node16 -->
<g id="edge18" class="edge"><title>Node13&#45;&gt;Node16</title>
<path fill="none" stroke="midnightblue" d="M1124.44,-280.083C1129.48,-272.534 1136.84,-261.495 1143.01,-252.23"/>
<polygon fill="midnightblue" stroke="midnightblue" points="1146.03,-254.013 1148.67,-243.751 1140.21,-250.13 1146.03,-254.013"/>
</g>
<!-- Node17 -->
<g id="node17" class="node"><title>Node17</title>
<g id="a_node17"><a xlink:href="../../d3/dee/torchttpservice_8h.html" target="_top" xlink:title="torchttpservice.h">
<polygon fill="white" stroke="black" points="1468.5,-224.5 1468.5,-243.5 1566.5,-243.5 1566.5,-224.5 1468.5,-224.5"/>
<text text-anchor="middle" x="1517.5" y="-231.5" font-family="Helvetica,sans-Serif" font-size="10.00">torchttpservice.h</text>
</a>
</g>
</g>
<!-- Node13&#45;&gt;Node17 -->
<g id="edge19" class="edge"><title>Node13&#45;&gt;Node17</title>
<path fill="none" stroke="midnightblue" d="M1157.12,-283.773C1227.15,-274.296 1375.49,-254.22 1458.35,-243.005"/>
<polygon fill="midnightblue" stroke="midnightblue" points="1458.93,-246.459 1468.37,-241.649 1457.99,-239.522 1458.93,-246.459"/>
</g>
<!-- Node29 -->
<g id="node29" class="node"><title>Node29</title>
<g id="a_node29"><a xlink:href="../../d8/dfe/torcreferencecounted_8h.html" target="_top" xlink:title="torcreferencecounted.h">
<polygon fill="white" stroke="black" points="1207,-224.5 1207,-243.5 1336,-243.5 1336,-224.5 1207,-224.5"/>
<text text-anchor="middle" x="1271.5" y="-231.5" font-family="Helvetica,sans-Serif" font-size="10.00">torcreferencecounted.h</text>
</a>
</g>
</g>
<!-- Node13&#45;&gt;Node29 -->
<g id="edge37" class="edge"><title>Node13&#45;&gt;Node29</title>
<path fill="none" stroke="midnightblue" d="M1142.74,-280.444C1168.37,-271.399 1208.99,-257.064 1237.74,-246.916"/>
<polygon fill="midnightblue" stroke="midnightblue" points="1239.11,-250.145 1247.37,-243.516 1236.78,-243.544 1239.11,-250.145"/>
</g>
<!-- Node17&#45;&gt;Node3 -->
<g id="edge21" class="edge"><title>Node17&#45;&gt;Node3</title>
<path fill="none" stroke="midnightblue" d="M1468.2,-230.315C1433.82,-228.469 1386.87,-225.998 1345.5,-224 962.595,-205.503 498.367,-186.012 366.19,-180.519"/>
<polygon fill="midnightblue" stroke="midnightblue" points="366.327,-177.021 356.191,-180.103 366.037,-184.015 366.327,-177.021"/>
</g>
<!-- Node17&#45;&gt;Node11 -->
<g id="edge22" class="edge"><title>Node17&#45;&gt;Node11</title>
<path fill="none" stroke="midnightblue" d="M1475.67,-224.444C1429.42,-214.984 1354.89,-199.738 1305.06,-189.547"/>
<polygon fill="midnightblue" stroke="midnightblue" points="1305.63,-186.091 1295.14,-187.516 1304.23,-192.949 1305.63,-186.091"/>
</g>
<!-- Node18 -->
<g id="node18" class="node"><title>Node18</title>
<polygon fill="white" stroke="#bfbfbf" points="1327.5,-56.5 1327.5,-75.5 1371.5,-75.5 1371.5,-56.5 1327.5,-56.5"/>
<text text-anchor="middle" x="1349.5" y="-63.5" font-family="Helvetica,sans-Serif" font-size="10.00">QMap</text>
</g>
<!-- Node17&#45;&gt;Node18 -->
<g id="edge20" class="edge"><title>Node17&#45;&gt;Node18</title>
<path fill="none" stroke="midnightblue" d="M1511.52,-224.395C1496.78,-203.561 1456.9,-149.377 1415.5,-112 1402.58,-100.333 1386.46,-89.2882 1373.39,-81.0601"/>
<polygon fill="midnightblue" stroke="midnightblue" points="1374.85,-77.8498 1364.49,-75.5982 1371.18,-83.8145 1374.85,-77.8498"/>
</g>
<!-- Node19 -->
<g id="node19" class="node"><title>Node19</title>
<polygon fill="white" stroke="#bfbfbf" points="1512,-168.5 1512,-187.5 1591,-187.5 1591,-168.5 1512,-168.5"/>
<text text-anchor="middle" x="1551.5" y="-175.5" font-family="Helvetica,sans-Serif" font-size="10.00">QMetaObject</text>
</g>
<!-- Node17&#45;&gt;Node19 -->
<g id="edge23" class="edge"><title>Node17&#45;&gt;Node19</title>
<path fill="none" stroke="midnightblue" d="M1523.11,-224.083C1527.87,-216.534 1534.82,-205.495 1540.65,-196.23"/>
<polygon fill="midnightblue" stroke="midnightblue" points="1543.62,-198.078 1545.99,-187.751 1537.7,-194.349 1543.62,-198.078"/>
</g>
<!-- Node20 -->
<g id="node20" class="node"><title>Node20</title>
<polygon fill="white" stroke="#bfbfbf" points="1609,-168.5 1609,-187.5 1708,-187.5 1708,-168.5 1609,-168.5"/>
<text text-anchor="middle" x="1658.5" y="-175.5" font-family="Helvetica,sans-Serif" font-size="10.00">QCoreApplication</text>
</g>
<!-- Node17&#45;&gt;Node20 -->
<g id="edge24" class="edge"><title>Node17&#45;&gt;Node20</title>
<path fill="none" stroke="midnightblue" d="M1539.84,-224.444C1563.25,-215.478 1600.24,-201.314 1626.69,-191.183"/>
<polygon fill="midnightblue" stroke="midnightblue" points="1628.18,-194.361 1636.26,-187.516 1625.67,-187.824 1628.18,-194.361"/>
</g>
<!-- Node21 -->
<g id="node21" class="node"><title>Node21</title>
<g id="a_node21"><a xlink:href="../../d4/d11/torchttphandler_8h.html" target="_top" xlink:title="torchttphandler.h">
<polygon fill="white" stroke="black" points="1318,-168.5 1318,-187.5 1417,-187.5 1417,-168.5 1318,-168.5"/>
<text text-anchor="middle" x="1367.5" y="-175.5" font-family="Helvetica,sans-Serif" font-size="10.00">torchttphandler.h</text>
</a>
</g>
</g>
<!-- Node17&#45;&gt;Node21 -->
<g id="edge25" class="edge"><title>Node17&#45;&gt;Node21</title>
<path fill="none" stroke="midnightblue" d="M1493.73,-224.444C1468.61,-215.399 1428.79,-201.064 1400.6,-190.916"/>
<polygon fill="midnightblue" stroke="midnightblue" points="1401.75,-187.611 1391.16,-187.516 1399.38,-194.197 1401.75,-187.611"/>
</g>
<!-- Node23 -->
<g id="node23" class="node"><title>Node23</title>
<g id="a_node23"><a xlink:href="../../df/dd7/torchttprequest_8h.html" target="_top" xlink:title="torchttprequest.h">
<polygon fill="white" stroke="black" points="972,-112.5 972,-131.5 1073,-131.5 1073,-112.5 972,-112.5"/>
<text text-anchor="middle" x="1022.5" y="-119.5" font-family="Helvetica,sans-Serif" font-size="10.00">torchttprequest.h</text>
</a>
</g>
</g>
<!-- Node17&#45;&gt;Node23 -->
<g id="edge36" class="edge"><title>Node17&#45;&gt;Node23</title>
<path fill="none" stroke="midnightblue" d="M1508.86,-224.44C1493.69,-209.987 1460.59,-181.049 1426.5,-168 1365.29,-144.57 1180.24,-131.451 1083.27,-126.014"/>
<polygon fill="midnightblue" stroke="midnightblue" points="1083.21,-122.506 1073.03,-125.45 1082.82,-129.495 1083.21,-122.506"/>
</g>
<!-- Node21&#45;&gt;Node10 -->
<g id="edge26" class="edge"><title>Node21&#45;&gt;Node10</title>
<path fill="none" stroke="midnightblue" d="M1317.95,-169.267C1314.75,-168.822 1311.58,-168.396 1308.5,-168 1155.59,-148.371 1105.15,-192.851 963.5,-132 938.196,-121.129 915.071,-98.7742 901.139,-83.3404"/>
<polygon fill="midnightblue" stroke="midnightblue" points="903.599,-80.835 894.39,-75.5951 898.321,-85.4337 903.599,-80.835"/>
</g>
<!-- Node22 -->
<g id="node22" class="node"><title>Node22</title>
<polygon fill="white" stroke="#bfbfbf" points="1328.5,-112.5 1328.5,-131.5 1406.5,-131.5 1406.5,-112.5 1328.5,-112.5"/>
<text text-anchor="middle" x="1367.5" y="-119.5" font-family="Helvetica,sans-Serif" font-size="10.00">QVariantMap</text>
</g>
<!-- Node21&#45;&gt;Node22 -->
<g id="edge27" class="edge"><title>Node21&#45;&gt;Node22</title>
<path fill="none" stroke="midnightblue" d="M1367.5,-168.083C1367.5,-161.006 1367.5,-150.861 1367.5,-141.986"/>
<polygon fill="midnightblue" stroke="midnightblue" points="1371,-141.751 1367.5,-131.751 1364,-141.751 1371,-141.751"/>
</g>
<!-- Node21&#45;&gt;Node23 -->
<g id="edge28" class="edge"><title>Node21&#45;&gt;Node23</title>
<path fill="none" stroke="midnightblue" d="M1317.7,-169.206C1255.67,-159.496 1149.74,-142.916 1083.07,-132.481"/>
<polygon fill="midnightblue" stroke="midnightblue" points="1083.55,-129.012 1073.12,-130.924 1082.46,-135.928 1083.55,-129.012"/>
</g>
<!-- Node23&#45;&gt;Node10 -->
<g id="edge31" class="edge"><title>Node23&#45;&gt;Node10</title>
<path fill="none" stroke="midnightblue" d="M1001.11,-112.444C978.793,-103.517 943.597,-89.4387 918.292,-79.3168"/>
<polygon fill="midnightblue" stroke="midnightblue" points="919.376,-75.9807 908.791,-75.5164 916.776,-82.4801 919.376,-75.9807"/>
</g>
<!-- Node23&#45;&gt;Node18 -->
<g id="edge29" class="edge"><title>Node23&#45;&gt;Node18</title>
<path fill="none" stroke="midnightblue" d="M1073.23,-112.622C1141.32,-101.378 1260.27,-81.7346 1317.27,-72.323"/>
<polygon fill="midnightblue" stroke="midnightblue" points="1318.19,-75.7185 1327.48,-70.6358 1317.05,-68.812 1318.19,-75.7185"/>
</g>
<!-- Node24 -->
<g id="node24" class="node"><title>Node24</title>
<polygon fill="white" stroke="#bfbfbf" points="1045,-56.5 1045,-75.5 1086,-75.5 1086,-56.5 1045,-56.5"/>
<text text-anchor="middle" x="1065.5" y="-63.5" font-family="Helvetica,sans-Serif" font-size="10.00">QPair</text>
</g>
<!-- Node23&#45;&gt;Node24 -->
<g id="edge30" class="edge"><title>Node23&#45;&gt;Node24</title>
<path fill="none" stroke="midnightblue" d="M1029.6,-112.083C1035.74,-104.377 1044.77,-93.0333 1052.24,-83.6531"/>
<polygon fill="midnightblue" stroke="midnightblue" points="1055.04,-85.7542 1058.53,-75.7511 1049.56,-81.3936 1055.04,-85.7542"/>
</g>
<!-- Node25 -->
<g id="node25" class="node"><title>Node25</title>
<polygon fill="white" stroke="#bfbfbf" points="1104,-56.5 1104,-75.5 1175,-75.5 1175,-56.5 1104,-56.5"/>
<text text-anchor="middle" x="1139.5" y="-63.5" font-family="Helvetica,sans-Serif" font-size="10.00">QDateTime</text>
</g>
<!-- Node23&#45;&gt;Node25 -->
<g id="edge32" class="edge"><title>Node23&#45;&gt;Node25</title>
<path fill="none" stroke="midnightblue" d="M1041.04,-112.444C1060.12,-103.636 1090.07,-89.8116 1111.94,-79.722"/>
<polygon fill="midnightblue" stroke="midnightblue" points="1113.43,-82.8849 1121.05,-75.5164 1110.5,-76.5292 1113.43,-82.8849"/>
</g>
<!-- Node26 -->
<g id="node26" class="node"><title>Node26</title>
<g id="a_node26"><a xlink:href="../../de/de6/torchttpreader_8h.html" target="_top" xlink:title="torchttpreader.h">
<polygon fill="white" stroke="black" points="932,-56.5 932,-75.5 1027,-75.5 1027,-56.5 932,-56.5"/>
<text text-anchor="middle" x="979.5" y="-63.5" font-family="Helvetica,sans-Serif" font-size="10.00">torchttpreader.h</text>
</a>
</g>
</g>
<!-- Node23&#45;&gt;Node26 -->
<g id="edge33" class="edge"><title>Node23&#45;&gt;Node26</title>
<path fill="none" stroke="midnightblue" d="M1015.4,-112.083C1009.26,-104.377 1000.23,-93.0333 992.761,-83.6531"/>
<polygon fill="midnightblue" stroke="midnightblue" points="995.436,-81.3936 986.468,-75.7511 989.96,-85.7542 995.436,-81.3936"/>
</g>
<!-- Node27 -->
<g id="node27" class="node"><title>Node27</title>
<polygon fill="white" stroke="#bfbfbf" points="899,-0.5 899,-19.5 970,-19.5 970,-0.5 899,-0.5"/>
<text text-anchor="middle" x="934.5" y="-7.5" font-family="Helvetica,sans-Serif" font-size="10.00">QByteArray</text>
</g>
<!-- Node26&#45;&gt;Node27 -->
<g id="edge34" class="edge"><title>Node26&#45;&gt;Node27</title>
<path fill="none" stroke="midnightblue" d="M972.069,-56.083C965.647,-48.3768 956.194,-37.0333 948.378,-27.6531"/>
<polygon fill="midnightblue" stroke="midnightblue" points="950.883,-25.1927 941.793,-19.7511 945.506,-29.674 950.883,-25.1927"/>
</g>
<!-- Node28 -->
<g id="node28" class="node"><title>Node28</title>
<polygon fill="white" stroke="#bfbfbf" points="988.5,-0.5 988.5,-19.5 1060.5,-19.5 1060.5,-0.5 988.5,-0.5"/>
<text text-anchor="middle" x="1024.5" y="-7.5" font-family="Helvetica,sans-Serif" font-size="10.00">QTcpSocket</text>
</g>
<!-- Node26&#45;&gt;Node28 -->
<g id="edge35" class="edge"><title>Node26&#45;&gt;Node28</title>
<path fill="none" stroke="midnightblue" d="M986.931,-56.083C993.353,-48.3768 1002.81,-37.0333 1010.62,-27.6531"/>
<polygon fill="midnightblue" stroke="midnightblue" points="1013.49,-29.674 1017.21,-19.7511 1008.12,-25.1927 1013.49,-29.674"/>
</g>
<!-- Node30 -->
<g id="node30" class="node"><title>Node30</title>
<polygon fill="white" stroke="#bfbfbf" points="1119.5,-168.5 1119.5,-187.5 1189.5,-187.5 1189.5,-168.5 1119.5,-168.5"/>
<text text-anchor="middle" x="1154.5" y="-175.5" font-family="Helvetica,sans-Serif" font-size="10.00">QAtomicInt</text>
</g>
<!-- Node29&#45;&gt;Node30 -->
<g id="edge38" class="edge"><title>Node29&#45;&gt;Node30</title>
<path fill="none" stroke="midnightblue" d="M1252.96,-224.444C1233.88,-215.636 1203.93,-201.812 1182.06,-191.722"/>
<polygon fill="midnightblue" stroke="midnightblue" points="1183.5,-188.529 1172.95,-187.516 1180.57,-194.885 1183.5,-188.529"/>
</g>
<!-- Node32 -->
<g id="node32" class="node"><title>Node32</title>
<g id="a_node32"><a xlink:href="../../d3/d66/torcevent_8h.html" target="_top" xlink:title="torcevent.h">
<polygon fill="white" stroke="black" points="583,-224.5 583,-243.5 654,-243.5 654,-224.5 583,-224.5"/>
<text text-anchor="middle" x="618.5" y="-231.5" font-family="Helvetica,sans-Serif" font-size="10.00">torcevent.h</text>
</a>
</g>
</g>
<!-- Node31&#45;&gt;Node32 -->
<g id="edge40" class="edge"><title>Node31&#45;&gt;Node32</title>
<path fill="none" stroke="midnightblue" d="M644.381,-280.083C640.092,-272.613 633.842,-261.724 628.558,-252.52"/>
<polygon fill="midnightblue" stroke="midnightblue" points="631.538,-250.681 623.524,-243.751 625.467,-254.166 631.538,-250.681"/>
</g>
<!-- Node32&#45;&gt;Node15 -->
<g id="edge42" class="edge"><title>Node32&#45;&gt;Node15</title>
<path fill="none" stroke="midnightblue" d="M624.445,-224.083C629.477,-216.534 636.837,-205.495 643.013,-196.23"/>
<polygon fill="midnightblue" stroke="midnightblue" points="646.031,-198.013 648.666,-187.751 640.207,-194.13 646.031,-198.013"/>
</g>
<!-- Node32&#45;&gt;Node18 -->
<g id="edge41" class="edge"><title>Node32&#45;&gt;Node18</title>
<path fill="none" stroke="midnightblue" d="M651.37,-224.395C701.773,-211.344 801.275,-186.147 886.5,-168 973.126,-149.555 995.882,-150.482 1082.5,-132 1167.88,-113.783 1267.62,-88.3988 1317.57,-75.4009"/>
<polygon fill="midnightblue" stroke="midnightblue" points="1318.65,-78.7343 1327.45,-72.8223 1316.89,-71.9611 1318.65,-78.7343"/>
</g>
<!-- Node33 -->
<g id="node33" class="node"><title>Node33</title>
<polygon fill="white" stroke="#bfbfbf" points="556,-168.5 556,-187.5 607,-187.5 607,-168.5 556,-168.5"/>
<text text-anchor="middle" x="581.5" y="-175.5" font-family="Helvetica,sans-Serif" font-size="10.00">QEvent</text>
</g>
<!-- Node32&#45;&gt;Node33 -->
<g id="edge43" class="edge"><title>Node32&#45;&gt;Node33</title>
<path fill="none" stroke="midnightblue" d="M612.39,-224.083C607.218,-216.534 599.654,-205.495 593.306,-196.23"/>
<polygon fill="midnightblue" stroke="midnightblue" points="596.036,-194.022 587.496,-187.751 590.261,-197.979 596.036,-194.022"/>
</g>
<!-- Node35 -->
<g id="node35" class="node"><title>Node35</title>
<g id="a_node35"><a xlink:href="../../d4/da3/torcdb_8h.html" target="_top" xlink:title="torcdb.h">
<polygon fill="white" stroke="black" points="347.5,-224.5 347.5,-243.5 403.5,-243.5 403.5,-224.5 347.5,-224.5"/>
<text text-anchor="middle" x="375.5" y="-231.5" font-family="Helvetica,sans-Serif" font-size="10.00">torcdb.h</text>
</a>
</g>
</g>
<!-- Node34&#45;&gt;Node35 -->
<g id="edge45" class="edge"><title>Node34&#45;&gt;Node35</title>
<path fill="none" stroke="midnightblue" d="M375.5,-280.083C375.5,-273.006 375.5,-262.861 375.5,-253.986"/>
<polygon fill="midnightblue" stroke="midnightblue" points="379,-253.751 375.5,-243.751 372,-253.751 379,-253.751"/>
</g>
<!-- Node35&#45;&gt;Node3 -->
<g id="edge47" class="edge"><title>Node35&#45;&gt;Node3</title>
<path fill="none" stroke="midnightblue" d="M367.904,-224.083C361.273,-216.298 351.479,-204.801 343.442,-195.367"/>
<polygon fill="midnightblue" stroke="midnightblue" points="346.104,-193.094 336.955,-187.751 340.775,-197.633 346.104,-193.094"/>
</g>
<!-- Node35&#45;&gt;Node9 -->
<g id="edge46" class="edge"><title>Node35&#45;&gt;Node9</title>
<path fill="none" stroke="midnightblue" d="M403.757,-230.21C494.916,-221.211 781.284,-192.941 884.741,-182.728"/>
<polygon fill="midnightblue" stroke="midnightblue" points="885.13,-186.206 894.738,-181.741 884.443,-179.24 885.13,-186.206"/>
</g>
<!-- Node37 -->
<g id="node37" class="node"><title>Node37</title>
<polygon fill="white" stroke="#bfbfbf" points="749,-224.5 749,-243.5 790,-243.5 790,-224.5 749,-224.5"/>
<text text-anchor="middle" x="769.5" y="-231.5" font-family="Helvetica,sans-Serif" font-size="10.00">QList</text>
</g>
<!-- Node36&#45;&gt;Node37 -->
<g id="edge49" class="edge"><title>Node36&#45;&gt;Node37</title>
<path fill="none" stroke="midnightblue" d="M801.225,-280.083C795.858,-272.455 787.982,-261.264 781.421,-251.941"/>
<polygon fill="midnightblue" stroke="midnightblue" points="784.275,-249.915 775.658,-243.751 778.551,-253.943 784.275,-249.915"/>
</g>
<!-- Node38 -->
<g id="node38" class="node"><title>Node38</title>
<g id="a_node38"><a xlink:href="../../dd/db0/torcqthread_8h.html" target="_top" xlink:title="torcqthread.h">
<polygon fill="white" stroke="black" points="884.5,-224.5 884.5,-243.5 966.5,-243.5 966.5,-224.5 884.5,-224.5"/>
<text text-anchor="middle" x="925.5" y="-231.5" font-family="Helvetica,sans-Serif" font-size="10.00">torcqthread.h</text>
</a>
</g>
</g>
<!-- Node36&#45;&gt;Node38 -->
<g id="edge50" class="edge"><title>Node36&#45;&gt;Node38</title>
<path fill="none" stroke="midnightblue" d="M826.197,-280.444C845.444,-271.636 875.652,-257.812 897.7,-247.722"/>
<polygon fill="midnightblue" stroke="midnightblue" points="899.253,-250.86 906.89,-243.516 896.34,-244.495 899.253,-250.86"/>
</g>
<!-- Node39 -->
<g id="node39" class="node"><title>Node39</title>
<polygon fill="white" stroke="#bfbfbf" points="968,-168.5 968,-187.5 1025,-187.5 1025,-168.5 968,-168.5"/>
<text text-anchor="middle" x="996.5" y="-175.5" font-family="Helvetica,sans-Serif" font-size="10.00">QThread</text>
</g>
<!-- Node38&#45;&gt;Node39 -->
<g id="edge51" class="edge"><title>Node38&#45;&gt;Node39</title>
<path fill="none" stroke="midnightblue" d="M936.907,-224.324C947.609,-216.185 963.841,-203.839 976.663,-194.087"/>
<polygon fill="midnightblue" stroke="midnightblue" points="979.044,-196.673 984.885,-187.834 974.807,-191.102 979.044,-196.673"/>
</g>
<!-- Node40&#45;&gt;Node4 -->
<g id="edge56" class="edge"><title>Node40&#45;&gt;Node4</title>
<path fill="none" stroke="midnightblue" d="M472.476,-282.106C387.927,-271.513 227.346,-251.394 146.154,-241.221"/>
<polygon fill="midnightblue" stroke="midnightblue" points="146.541,-237.742 136.184,-239.972 145.671,-244.688 146.541,-237.742"/>
</g>
<!-- Node40&#45;&gt;Node9 -->
<g id="edge53" class="edge"><title>Node40&#45;&gt;Node9</title>
<path fill="none" stroke="midnightblue" d="M555.992,-280.457C583.53,-271.978 626.282,-258.223 662.5,-244 682.495,-236.148 686.078,-230.662 706.5,-224 781.578,-199.509 803.224,-204.273 880.5,-188 881.959,-187.693 883.447,-187.378 884.95,-187.06"/>
<polygon fill="midnightblue" stroke="midnightblue" points="885.891,-190.438 894.943,-184.934 884.434,-183.592 885.891,-190.438"/>
</g>
<!-- Node40&#45;&gt;Node15 -->
<g id="edge54" class="edge"><title>Node40&#45;&gt;Node15</title>
<path fill="none" stroke="midnightblue" d="M520.029,-280.193C509.684,-266.878 493.648,-241.34 506.5,-224 513.166,-215.005 573.942,-198.636 615.508,-188.315"/>
<polygon fill="midnightblue" stroke="midnightblue" points="616.482,-191.68 625.357,-185.893 614.811,-184.882 616.482,-191.68"/>
</g>
<!-- Node41 -->
<g id="node41" class="node"><title>Node41</title>
<polygon fill="white" stroke="#bfbfbf" points="516,-224.5 516,-243.5 565,-243.5 565,-224.5 516,-224.5"/>
<text text-anchor="middle" x="540.5" y="-231.5" font-family="Helvetica,sans-Serif" font-size="10.00">QHash</text>
</g>
<!-- Node40&#45;&gt;Node41 -->
<g id="edge55" class="edge"><title>Node40&#45;&gt;Node41</title>
<path fill="none" stroke="midnightblue" d="M529.647,-280.083C531.369,-272.927 533.847,-262.635 536,-253.691"/>
<polygon fill="midnightblue" stroke="midnightblue" points="539.455,-254.293 538.393,-243.751 532.65,-252.654 539.455,-254.293"/>
</g>
<!-- Node42&#45;&gt;Node9 -->
<g id="edge60" class="edge"><title>Node42&#45;&gt;Node9</title>
<path fill="none" stroke="midnightblue" d="M1427.87,-343.149C1337.27,-338.881 1134.98,-326.607 1071.5,-300 1063.89,-296.811 978.901,-226.156 940.794,-194.316"/>
<polygon fill="midnightblue" stroke="midnightblue" points="942.923,-191.534 933.007,-187.804 938.433,-196.904 942.923,-191.534"/>
</g>
<!-- Node42&#45;&gt;Node11 -->
<g id="edge63" class="edge"><title>Node42&#45;&gt;Node11</title>
<path fill="none" stroke="midnightblue" d="M1469.52,-336.206C1460.84,-311.072 1435.04,-239.72 1416.5,-224 1400.3,-210.259 1350.31,-197.672 1309.93,-189.326"/>
<polygon fill="midnightblue" stroke="midnightblue" points="1310.39,-185.848 1299.89,-187.297 1309,-192.709 1310.39,-185.848"/>
</g>
<!-- Node42&#45;&gt;Node13 -->
<g id="edge64" class="edge"><title>Node42&#45;&gt;Node13</title>
<path fill="none" stroke="midnightblue" d="M1427.67,-338.161C1360.95,-327.984 1236.03,-308.929 1167.17,-298.424"/>
<polygon fill="midnightblue" stroke="midnightblue" points="1167.43,-294.924 1157.02,-296.876 1166.38,-301.844 1167.43,-294.924"/>
</g>
<!-- Node42&#45;&gt;Node17 -->
<g id="edge65" class="edge"><title>Node42&#45;&gt;Node17</title>
<path fill="none" stroke="midnightblue" d="M1517.24,-344.968C1552.1,-342.279 1598.48,-332.283 1622.5,-300 1641.45,-274.53 1603.35,-256.777 1567.85,-246.336"/>
<polygon fill="midnightblue" stroke="midnightblue" points="1568.53,-242.892 1557.96,-243.584 1566.66,-249.636 1568.53,-242.892"/>
</g>
<!-- Node42&#45;&gt;Node18 -->
<g id="edge59" class="edge"><title>Node42&#45;&gt;Node18</title>
<path fill="none" stroke="midnightblue" d="M1517.28,-345.624C1592.6,-344.078 1736.5,-328.844 1736.5,-235 1736.5,-235 1736.5,-235 1736.5,-177 1736.5,-103.512 1475.04,-76.515 1381.94,-69.2308"/>
<polygon fill="midnightblue" stroke="midnightblue" points="1381.93,-65.7205 1371.7,-68.4566 1381.4,-72.7006 1381.93,-65.7205"/>
</g>
<!-- Node43 -->
<g id="node43" class="node"><title>Node43</title>
<polygon fill="white" stroke="#bfbfbf" points="1558,-280.5 1558,-299.5 1613,-299.5 1613,-280.5 1558,-280.5"/>
<text text-anchor="middle" x="1585.5" y="-287.5" font-family="Helvetica,sans-Serif" font-size="10.00">QLocale</text>
</g>
<!-- Node42&#45;&gt;Node43 -->
<g id="edge61" class="edge"><title>Node42&#45;&gt;Node43</title>
<path fill="none" stroke="midnightblue" d="M1490.41,-336.444C1508.75,-327.675 1537.51,-313.935 1558.59,-303.858"/>
<polygon fill="midnightblue" stroke="midnightblue" points="1560.17,-306.986 1567.68,-299.516 1557.15,-300.67 1560.17,-306.986"/>
</g>
<!-- Node44 -->
<g id="node44" class="node"><title>Node44</title>
<polygon fill="white" stroke="#bfbfbf" points="1469,-280.5 1469,-299.5 1540,-299.5 1540,-280.5 1469,-280.5"/>
<text text-anchor="middle" x="1504.5" y="-287.5" font-family="Helvetica,sans-Serif" font-size="10.00">QTranslator</text>
</g>
<!-- Node42&#45;&gt;Node44 -->
<g id="edge62" class="edge"><title>Node42&#45;&gt;Node44</title>
<path fill="none" stroke="midnightblue" d="M1477.78,-336.083C1482.21,-328.613 1488.66,-317.724 1494.12,-308.52"/>
<polygon fill="midnightblue" stroke="midnightblue" points="1497.23,-310.138 1499.31,-299.751 1491.21,-306.57 1497.23,-310.138"/>
</g>
<!-- Node45&#45;&gt;Node9 -->
<g id="edge67" class="edge"><title>Node45&#45;&gt;Node9</title>
<path fill="none" stroke="midnightblue" d="M986.024,-336.435C955.355,-322.336 898.626,-291.032 875.5,-244 866.29,-225.271 883.974,-206.193 900.217,-193.594"/>
<polygon fill="midnightblue" stroke="midnightblue" points="902.394,-196.339 908.431,-187.632 898.282,-190.674 902.394,-196.339"/>
</g>
<!-- Node45&#45;&gt;Node13 -->
<g id="edge68" class="edge"><title>Node45&#45;&gt;Node13</title>
<path fill="none" stroke="midnightblue" d="M1024.49,-336.324C1042.54,-327.625 1070.55,-314.12 1091.3,-304.113"/>
<polygon fill="midnightblue" stroke="midnightblue" points="1093.06,-307.15 1100.55,-299.655 1090.02,-300.845 1093.06,-307.15"/>
</g>
<!-- Node45&#45;&gt;Node17 -->
<g id="edge69" class="edge"><title>Node45&#45;&gt;Node17</title>
<path fill="none" stroke="midnightblue" d="M1039.03,-344.501C1104.54,-342.753 1256.55,-334.923 1378.5,-300 1421.15,-287.786 1467.14,-263.953 1494.07,-248.789"/>
<polygon fill="midnightblue" stroke="midnightblue" points="1496.14,-251.634 1503.09,-243.632 1492.67,-245.558 1496.14,-251.634"/>
</g>
</g>
</svg>
        <g id="navigator" transform="translate(0 0)" fill="#404254">
                <rect fill="#f2f5e9" fill-opacity="0.5" stroke="#606060" stroke-width=".5" x="0" y="0" width="60" height="60"/>
                <use id="zoomplus" xlink:href="#zoomPlus" x="17" y="9" onmousedown="handleZoom(evt,'in')"/>
                <use id="zoomminus" xlink:href="#zoomMin" x="42" y="9" onmousedown="handleZoom(evt,'out')"/>
                <use id="reset" xlink:href="#resetDef" x="30" y="36" onmousedown="handleReset()"/>
                <g id="arrowUp" xlink:href="#dirArrow" transform="translate(30 24)" onmousedown="handlePan(0,-1)">
                  <use xlink:href="#rim" fill="#404040">
                        <set attributeName="fill" to="#808080" begin="arrowUp.mouseover" end="arrowUp.mouseout"/>
                  </use>
                  <path fill="none" stroke="white" stroke-width="1.5" d="M0,-3.0v7 M-2.5,-0.5L0,-3.0L2.5,-0.5"/>
                </g>
                <g id="arrowRight" xlink:href="#dirArrow" transform="rotate(90) translate(36 -43)" onmousedown="handlePan(1,0)">
                  <use xlink:href="#rim" fill="#404040">
                        <set attributeName="fill" to="#808080" begin="arrowRight.mouseover" end="arrowRight.mouseout"/>
                  </use>
                  <path fill="none" stroke="white" stroke-width="1.5" d="M0,-3.0v7 M-2.5,-0.5L0,-3.0L2.5,-0.5"/>
                </g>
                <g id="arrowDown" xlink:href="#dirArrow" transform="rotate(180) translate(-30 -48)" onmousedown="handlePan(0,1)">
                  <use xlink:href="#rim" fill="#404040">
                        <set attributeName="fill" to="#808080" begin="arrowDown.mouseover" end="arrowDown.mouseout"/>
                  </use>
                  <path fill="none" stroke="white" stroke-width="1.5" d="M0,-3.0v7 M-2.5,-0.5L0,-3.0L2.5,-0.5"/>
                </g>
                <g id="arrowLeft" xlink:href="#dirArrow" transform="rotate(270) translate(-36 17)" onmousedown="handlePan(-1,0)">
                  <use xlink:href="#rim" fill="#404040">
                        <set attributeName="fill" to="#808080" begin="arrowLeft.mouseover" end="arrowLeft.mouseout"/>
                  </use>
                  <path fill="none" stroke="white" stroke-width="1.5" d="M0,-3.0v7 M-2.5,-0.5L0,-3.0L2.5,-0.5"/>
                </g>
        </g>
        <svg viewBox="0 0 15 15" width="100%" height="30px" preserveAspectRatio="xMaxYMin meet">
         <g id="arrow_out" transform="scale(0.3 0.3)">
          <a xlink:href="torcuser_8cpp__incl_org.svg" target="_base">
           <rect id="button" ry="5" rx="5" y="6" x="6" height="38" width="38"
                fill="#f2f5e9" fill-opacity="0.5" stroke="#606060" stroke-width="1.0"/>
           <path id="arrow"
             d="M 11.500037,31.436501 C 11.940474,20.09759 22.043105,11.32322 32.158766,21.979434 L 37.068811,17.246167 C 37.068811,17.246167 37.088388,32 37.088388,32 L 22.160133,31.978069 C 22.160133,31.978069 26.997745,27.140456 26.997745,27.140456 C 18.528582,18.264221 13.291696,25.230495 11.500037,31.436501 z"
             style="fill:#404040;"/>
          </a>
         </g>
        </svg>
</svg>
