<?xml version="1.0" encoding="UTF-8" standalone="no"?>
<!DOCTYPE svg PUBLIC "-//W3C//DTD SVG 1.1//EN"
 "http://www.w3.org/Graphics/SVG/1.1/DTD/svg11.dtd">
<!-- Generated by graphviz version 2.38.0 (20140413.2041)
 -->
<!-- Title: torcsetting.cpp Pages: 1 -->
<svg width="1270pt" height="420pt"
 viewBox="0.00 0.00 1270.00 420.00" xmlns="http://www.w3.org/2000/svg" xmlns:xlink="http://www.w3.org/1999/xlink">
<g id="graph0" class="graph" transform="scale(1 1) rotate(0) translate(4 416)">
<title>torcsetting.cpp</title>
<polygon fill="white" stroke="none" points="-4,4 -4,-416 1266,-416 1266,4 -4,4"/>
<!-- Node1 -->
<g id="node1" class="node"><title>Node1</title>
<polygon fill="#bfbfbf" stroke="black" points="565,-392.5 565,-411.5 654,-411.5 654,-392.5 565,-392.5"/>
<text text-anchor="middle" x="609.5" y="-399.5" font-family="Helvetica,sans-Serif" font-size="10.00">torcsetting.cpp</text>
</g>
<!-- Node2 -->
<g id="node2" class="node"><title>Node2</title>
<g id="a_node2"><a xlink:href="../../dd/dbd/torclocalcontext_8h.html" target="_top" xlink:title="torclocalcontext.h">
<polygon fill="white" stroke="black" points="648.5,-336.5 648.5,-355.5 750.5,-355.5 750.5,-336.5 648.5,-336.5"/>
<text text-anchor="middle" x="699.5" y="-343.5" font-family="Helvetica,sans-Serif" font-size="10.00">torclocalcontext.h</text>
</a>
</g>
</g>
<!-- Node1&#45;&gt;Node2 -->
<g id="edge1" class="edge"><title>Node1&#45;&gt;Node2</title>
<path fill="none" stroke="midnightblue" d="M623.96,-392.324C638,-383.9 659.548,-370.971 676.043,-361.074"/>
<polygon fill="midnightblue" stroke="midnightblue" points="678.302,-363.801 685.076,-355.655 674.7,-357.798 678.302,-363.801"/>
</g>
<!-- Node8 -->
<g id="node8" class="node"><title>Node8</title>
<g id="a_node8"><a xlink:href="../../db/df5/torcsetting_8h.html" target="_top" xlink:title="torcsetting.h">
<polygon fill="white" stroke="black" points="382,-280.5 382,-299.5 459,-299.5 459,-280.5 382,-280.5"/>
<text text-anchor="middle" x="420.5" y="-287.5" font-family="Helvetica,sans-Serif" font-size="10.00">torcsetting.h</text>
</a>
</g>
</g>
<!-- Node1&#45;&gt;Node8 -->
<g id="edge53" class="edge"><title>Node1&#45;&gt;Node8</title>
<path fill="none" stroke="midnightblue" d="M594.669,-392.368C561.961,-373.332 483.412,-327.615 443.954,-304.65"/>
<polygon fill="midnightblue" stroke="midnightblue" points="445.665,-301.597 435.262,-299.591 442.144,-307.647 445.665,-301.597"/>
</g>
<!-- Node3 -->
<g id="node3" class="node"><title>Node3</title>
<polygon fill="white" stroke="#bfbfbf" points="627,-168.5 627,-187.5 682,-187.5 682,-168.5 627,-168.5"/>
<text text-anchor="middle" x="654.5" y="-175.5" font-family="Helvetica,sans-Serif" font-size="10.00">QObject</text>
</g>
<!-- Node2&#45;&gt;Node3 -->
<g id="edge2" class="edge"><title>Node2&#45;&gt;Node3</title>
<path fill="none" stroke="midnightblue" d="M715.283,-336.467C727.703,-328.769 744.105,-316.179 751.5,-300 755.195,-291.916 754.819,-288.246 751.5,-280 749.352,-274.663 697.335,-221.986 670.38,-194.904"/>
<polygon fill="midnightblue" stroke="midnightblue" points="672.741,-192.315 663.203,-187.702 667.783,-197.256 672.741,-192.315"/>
</g>
<!-- Node4 -->
<g id="node4" class="node"><title>Node4</title>
<polygon fill="white" stroke="#bfbfbf" points="722,-56.5 722,-75.5 775,-75.5 775,-56.5 722,-56.5"/>
<text text-anchor="middle" x="748.5" y="-63.5" font-family="Helvetica,sans-Serif" font-size="10.00">QString</text>
</g>
<!-- Node2&#45;&gt;Node4 -->
<g id="edge3" class="edge"><title>Node2&#45;&gt;Node4</title>
<path fill="none" stroke="midnightblue" d="M750.533,-342.549C797.67,-338.527 868.502,-327.922 923.5,-300 961.648,-280.633 994.5,-277.782 994.5,-235 994.5,-235 994.5,-235 994.5,-177 994.5,-86.63 854.439,-70.0094 785.685,-67.2947"/>
<polygon fill="midnightblue" stroke="midnightblue" points="785.399,-63.7841 775.295,-66.9693 785.18,-70.7807 785.399,-63.7841"/>
</g>
<!-- Node5 -->
<g id="node5" class="node"><title>Node5</title>
<polygon fill="white" stroke="#bfbfbf" points="448.5,-224.5 448.5,-243.5 540.5,-243.5 540.5,-224.5 448.5,-224.5"/>
<text text-anchor="middle" x="494.5" y="-231.5" font-family="Helvetica,sans-Serif" font-size="10.00">QReadWriteLock</text>
</g>
<!-- Node2&#45;&gt;Node5 -->
<g id="edge4" class="edge"><title>Node2&#45;&gt;Node5</title>
<path fill="none" stroke="midnightblue" d="M648.186,-338.274C600.362,-331.013 533.63,-318.017 514.5,-300 501.886,-288.119 497.161,-268.497 495.427,-253.915"/>
<polygon fill="midnightblue" stroke="midnightblue" points="498.882,-253.228 494.582,-243.545 491.905,-253.796 498.882,-253.228"/>
</g>
<!-- Node6 -->
<g id="node6" class="node"><title>Node6</title>
<polygon fill="white" stroke="#bfbfbf" points="556,-168.5 556,-187.5 609,-187.5 609,-168.5 556,-168.5"/>
<text text-anchor="middle" x="582.5" y="-175.5" font-family="Helvetica,sans-Serif" font-size="10.00">QMutex</text>
</g>
<!-- Node2&#45;&gt;Node6 -->
<g id="edge5" class="edge"><title>Node2&#45;&gt;Node6</title>
<path fill="none" stroke="midnightblue" d="M648.358,-344.67C613.853,-341.434 570.555,-330.87 547.5,-300 535.209,-283.543 559.802,-226.085 573.767,-196.66"/>
<polygon fill="midnightblue" stroke="midnightblue" points="576.978,-198.06 578.185,-187.534 570.677,-195.01 576.978,-198.06"/>
</g>
<!-- Node7 -->
<g id="node7" class="node"><title>Node7</title>
<g id="a_node7"><a xlink:href="../../db/db2/torclocaldefs_8h.html" target="_top" xlink:title="torclocaldefs.h">
<polygon fill="white" stroke="black" points="656.5,-280.5 656.5,-299.5 742.5,-299.5 742.5,-280.5 656.5,-280.5"/>
<text text-anchor="middle" x="699.5" y="-287.5" font-family="Helvetica,sans-Serif" font-size="10.00">torclocaldefs.h</text>
</a>
</g>
</g>
<!-- Node2&#45;&gt;Node7 -->
<g id="edge6" class="edge"><title>Node2&#45;&gt;Node7</title>
<path fill="none" stroke="midnightblue" d="M699.5,-336.083C699.5,-329.006 699.5,-318.861 699.5,-309.986"/>
<polygon fill="midnightblue" stroke="midnightblue" points="703,-309.751 699.5,-299.751 696,-309.751 703,-309.751"/>
</g>
<!-- Node2&#45;&gt;Node8 -->
<g id="edge7" class="edge"><title>Node2&#45;&gt;Node8</title>
<path fill="none" stroke="midnightblue" d="M655.292,-336.444C604.586,-326.63 521.706,-310.588 469.19,-300.424"/>
<polygon fill="midnightblue" stroke="midnightblue" points="469.593,-296.937 459.111,-298.473 468.263,-303.81 469.593,-296.937"/>
</g>
<!-- Node26 -->
<g id="node26" class="node"><title>Node26</title>
<g id="a_node26"><a xlink:href="../../d6/d94/torcobservable_8h.html" target="_top" xlink:title="torcobservable.h">
<polygon fill="white" stroke="black" points="799,-280.5 799,-299.5 896,-299.5 896,-280.5 799,-280.5"/>
<text text-anchor="middle" x="847.5" y="-287.5" font-family="Helvetica,sans-Serif" font-size="10.00">torcobservable.h</text>
</a>
</g>
</g>
<!-- Node2&#45;&gt;Node26 -->
<g id="edge32" class="edge"><title>Node2&#45;&gt;Node26</title>
<path fill="none" stroke="midnightblue" d="M722.951,-336.444C747.633,-327.438 786.685,-313.189 814.477,-303.049"/>
<polygon fill="midnightblue" stroke="midnightblue" points="815.964,-306.232 824.159,-299.516 813.565,-299.656 815.964,-306.232"/>
</g>
<!-- Node29 -->
<g id="node29" class="node"><title>Node29</title>
<g id="a_node29"><a xlink:href="../../d7/d70/torcsqlitedb_8h.html" target="_top" xlink:title="torcsqlitedb.h">
<polygon fill="white" stroke="black" points="556.5,-280.5 556.5,-299.5 638.5,-299.5 638.5,-280.5 556.5,-280.5"/>
<text text-anchor="middle" x="597.5" y="-287.5" font-family="Helvetica,sans-Serif" font-size="10.00">torcsqlitedb.h</text>
</a>
</g>
</g>
<!-- Node2&#45;&gt;Node29 -->
<g id="edge37" class="edge"><title>Node2&#45;&gt;Node29</title>
<path fill="none" stroke="midnightblue" d="M683.112,-336.324C666.829,-327.703 641.633,-314.364 622.784,-304.386"/>
<polygon fill="midnightblue" stroke="midnightblue" points="624.323,-301.24 613.847,-299.655 621.048,-307.427 624.323,-301.24"/>
</g>
<!-- Node31 -->
<g id="node31" class="node"><title>Node31</title>
<g id="a_node31"><a xlink:href="../../dd/dd5/torcadminthread_8h.html" target="_top" xlink:title="torcadminthread.h">
<polygon fill="white" stroke="black" points="1022.5,-280.5 1022.5,-299.5 1128.5,-299.5 1128.5,-280.5 1022.5,-280.5"/>
<text text-anchor="middle" x="1075.5" y="-287.5" font-family="Helvetica,sans-Serif" font-size="10.00">torcadminthread.h</text>
</a>
</g>
</g>
<!-- Node2&#45;&gt;Node31 -->
<g id="edge41" class="edge"><title>Node2&#45;&gt;Node31</title>
<path fill="none" stroke="midnightblue" d="M750.6,-337.661C818.583,-327.898 938.73,-310.642 1012.32,-300.073"/>
<polygon fill="midnightblue" stroke="midnightblue" points="1012.99,-303.514 1022.39,-298.628 1011.99,-296.585 1012.99,-303.514"/>
</g>
<!-- Node35 -->
<g id="node35" class="node"><title>Node35</title>
<g id="a_node35"><a xlink:href="../../db/d41/torccommandline_8h.html" target="_top" xlink:title="torccommandline.h">
<polygon fill="white" stroke="black" points="856.5,-224.5 856.5,-243.5 966.5,-243.5 966.5,-224.5 856.5,-224.5"/>
<text text-anchor="middle" x="911.5" y="-231.5" font-family="Helvetica,sans-Serif" font-size="10.00">torccommandline.h</text>
</a>
</g>
</g>
<!-- Node2&#45;&gt;Node35 -->
<g id="edge45" class="edge"><title>Node2&#45;&gt;Node35</title>
<path fill="none" stroke="midnightblue" d="M750.698,-340.521C804.589,-334.679 884.37,-322.449 904.5,-300 915.501,-287.731 916.276,-268.472 914.885,-254.097"/>
<polygon fill="midnightblue" stroke="midnightblue" points="918.303,-253.266 913.459,-243.843 911.37,-254.23 918.303,-253.266"/>
</g>
<!-- Node8&#45;&gt;Node3 -->
<g id="edge10" class="edge"><title>Node8&#45;&gt;Node3</title>
<path fill="none" stroke="midnightblue" d="M420.373,-280.396C420.663,-266.403 423.395,-238.793 439.5,-224 496.619,-171.532 535.579,-202.856 616.559,-187.954"/>
<polygon fill="midnightblue" stroke="midnightblue" points="617.547,-191.324 626.647,-185.898 616.149,-184.465 617.547,-191.324"/>
</g>
<!-- Node8&#45;&gt;Node5 -->
<g id="edge9" class="edge"><title>Node8&#45;&gt;Node5</title>
<path fill="none" stroke="midnightblue" d="M432.389,-280.324C443.65,-272.107 460.787,-259.602 474.209,-249.807"/>
<polygon fill="midnightblue" stroke="midnightblue" points="476.38,-252.556 482.394,-243.834 472.253,-246.901 476.38,-252.556"/>
</g>
<!-- Node9 -->
<g id="node9" class="node"><title>Node9</title>
<polygon fill="white" stroke="#bfbfbf" points="351,-224.5 351,-243.5 392,-243.5 392,-224.5 351,-224.5"/>
<text text-anchor="middle" x="371.5" y="-231.5" font-family="Helvetica,sans-Serif" font-size="10.00">QSet</text>
</g>
<!-- Node8&#45;&gt;Node9 -->
<g id="edge8" class="edge"><title>Node8&#45;&gt;Node9</title>
<path fill="none" stroke="midnightblue" d="M412.409,-280.083C405.345,-272.298 394.912,-260.801 386.351,-251.367"/>
<polygon fill="midnightblue" stroke="midnightblue" points="388.753,-248.805 379.441,-243.751 383.569,-253.509 388.753,-248.805"/>
</g>
<!-- Node10 -->
<g id="node10" class="node"><title>Node10</title>
<polygon fill="white" stroke="#bfbfbf" points="808.5,-168.5 808.5,-187.5 866.5,-187.5 866.5,-168.5 808.5,-168.5"/>
<text text-anchor="middle" x="837.5" y="-175.5" font-family="Helvetica,sans-Serif" font-size="10.00">QVariant</text>
</g>
<!-- Node8&#45;&gt;Node10 -->
<g id="edge11" class="edge"><title>Node8&#45;&gt;Node10</title>
<path fill="none" stroke="midnightblue" d="M459.243,-285.547C554.7,-276.898 794.51,-254.271 808.5,-244 823.264,-233.161 830.653,-213.084 834.258,-198.1"/>
<polygon fill="midnightblue" stroke="midnightblue" points="837.775,-198.368 836.337,-187.871 830.915,-196.974 837.775,-198.368"/>
</g>
<!-- Node11 -->
<g id="node11" class="node"><title>Node11</title>
<polygon fill="white" stroke="#bfbfbf" points="0,-224.5 0,-243.5 69,-243.5 69,-224.5 0,-224.5"/>
<text text-anchor="middle" x="34.5" y="-231.5" font-family="Helvetica,sans-Serif" font-size="10.00">QStringList</text>
</g>
<!-- Node8&#45;&gt;Node11 -->
<g id="edge12" class="edge"><title>Node8&#45;&gt;Node11</title>
<path fill="none" stroke="midnightblue" d="M381.778,-284.889C319.893,-278.109 194.686,-263.528 79.2568,-244.199"/>
<polygon fill="midnightblue" stroke="midnightblue" points="79.6344,-240.713 69.1908,-242.497 78.4672,-247.615 79.6344,-240.713"/>
</g>
<!-- Node12 -->
<g id="node12" class="node"><title>Node12</title>
<g id="a_node12"><a xlink:href="../../d3/dee/torchttpservice_8h.html" target="_top" xlink:title="torchttpservice.h">
<polygon fill="white" stroke="black" points="234.5,-224.5 234.5,-243.5 332.5,-243.5 332.5,-224.5 234.5,-224.5"/>
<text text-anchor="middle" x="283.5" y="-231.5" font-family="Helvetica,sans-Serif" font-size="10.00">torchttpservice.h</text>
</a>
</g>
</g>
<!-- Node8&#45;&gt;Node12 -->
<g id="edge13" class="edge"><title>Node8&#45;&gt;Node12</title>
<path fill="none" stroke="midnightblue" d="M398.792,-280.444C376.145,-271.517 340.428,-257.439 314.748,-247.317"/>
<polygon fill="midnightblue" stroke="midnightblue" points="315.693,-243.927 305.106,-243.516 313.126,-250.44 315.693,-243.927"/>
</g>
<!-- Node24 -->
<g id="node24" class="node"><title>Node24</title>
<g id="a_node24"><a xlink:href="../../d8/dfe/torcreferencecounted_8h.html" target="_top" xlink:title="torcreferencecounted.h">
<polygon fill="white" stroke="black" points="87,-224.5 87,-243.5 216,-243.5 216,-224.5 87,-224.5"/>
<text text-anchor="middle" x="151.5" y="-231.5" font-family="Helvetica,sans-Serif" font-size="10.00">torcreferencecounted.h</text>
</a>
</g>
</g>
<!-- Node8&#45;&gt;Node24 -->
<g id="edge30" class="edge"><title>Node8&#45;&gt;Node24</title>
<path fill="none" stroke="midnightblue" d="M381.959,-281.263C335.244,-271.885 256.303,-256.039 204.043,-245.548"/>
<polygon fill="midnightblue" stroke="midnightblue" points="204.457,-242.061 193.964,-243.524 203.079,-248.924 204.457,-242.061"/>
</g>
<!-- Node12&#45;&gt;Node6 -->
<g id="edge15" class="edge"><title>Node12&#45;&gt;Node6</title>
<path fill="none" stroke="midnightblue" d="M332.537,-225.065C392.922,-215.219 493.027,-198.639 545.897,-187.962"/>
<polygon fill="midnightblue" stroke="midnightblue" points="546.733,-191.364 555.816,-185.909 545.314,-184.509 546.733,-191.364"/>
</g>
<!-- Node13 -->
<g id="node13" class="node"><title>Node13</title>
<polygon fill="white" stroke="#bfbfbf" points="448.5,-56.5 448.5,-75.5 492.5,-75.5 492.5,-56.5 448.5,-56.5"/>
<text text-anchor="middle" x="470.5" y="-63.5" font-family="Helvetica,sans-Serif" font-size="10.00">QMap</text>
</g>
<!-- Node12&#45;&gt;Node13 -->
<g id="edge14" class="edge"><title>Node12&#45;&gt;Node13</title>
<path fill="none" stroke="midnightblue" d="M317.112,-224.462C339.691,-217.465 369.114,-205.777 390.5,-188 421.593,-162.154 418.175,-145.71 440.5,-112 446.602,-102.786 453.435,-92.5318 459.037,-84.1419"/>
<polygon fill="midnightblue" stroke="midnightblue" points="462.088,-85.8756 464.733,-75.6164 456.267,-81.9866 462.088,-85.8756"/>
</g>
<!-- Node14 -->
<g id="node14" class="node"><title>Node14</title>
<polygon fill="white" stroke="#bfbfbf" points="186,-168.5 186,-187.5 265,-187.5 265,-168.5 186,-168.5"/>
<text text-anchor="middle" x="225.5" y="-175.5" font-family="Helvetica,sans-Serif" font-size="10.00">QMetaObject</text>
</g>
<!-- Node12&#45;&gt;Node14 -->
<g id="edge16" class="edge"><title>Node12&#45;&gt;Node14</title>
<path fill="none" stroke="midnightblue" d="M274.181,-224.324C265.607,-216.341 252.688,-204.313 242.312,-194.653"/>
<polygon fill="midnightblue" stroke="midnightblue" points="244.692,-192.086 234.988,-187.834 239.922,-197.21 244.692,-192.086"/>
</g>
<!-- Node15 -->
<g id="node15" class="node"><title>Node15</title>
<polygon fill="white" stroke="#bfbfbf" points="283,-168.5 283,-187.5 382,-187.5 382,-168.5 283,-168.5"/>
<text text-anchor="middle" x="332.5" y="-175.5" font-family="Helvetica,sans-Serif" font-size="10.00">QCoreApplication</text>
</g>
<!-- Node12&#45;&gt;Node15 -->
<g id="edge17" class="edge"><title>Node12&#45;&gt;Node15</title>
<path fill="none" stroke="midnightblue" d="M291.591,-224.083C298.655,-216.298 309.088,-204.801 317.649,-195.367"/>
<polygon fill="midnightblue" stroke="midnightblue" points="320.431,-197.509 324.559,-187.751 315.247,-192.805 320.431,-197.509"/>
</g>
<!-- Node16 -->
<g id="node16" class="node"><title>Node16</title>
<g id="a_node16"><a xlink:href="../../d4/d11/torchttphandler_8h.html" target="_top" xlink:title="torchttphandler.h">
<polygon fill="white" stroke="black" points="439,-168.5 439,-187.5 538,-187.5 538,-168.5 439,-168.5"/>
<text text-anchor="middle" x="488.5" y="-175.5" font-family="Helvetica,sans-Serif" font-size="10.00">torchttphandler.h</text>
</a>
</g>
</g>
<!-- Node12&#45;&gt;Node16 -->
<g id="edge18" class="edge"><title>Node12&#45;&gt;Node16</title>
<path fill="none" stroke="midnightblue" d="M315.983,-224.444C351.22,-215.162 407.604,-200.309 446.259,-190.127"/>
<polygon fill="midnightblue" stroke="midnightblue" points="447.391,-193.448 456.169,-187.516 445.607,-186.679 447.391,-193.448"/>
</g>
<!-- Node18 -->
<g id="node18" class="node"><title>Node18</title>
<g id="a_node18"><a xlink:href="../../df/dd7/torchttprequest_8h.html" target="_top" xlink:title="torchttprequest.h">
<polygon fill="white" stroke="black" points="281,-112.5 281,-131.5 382,-131.5 382,-112.5 281,-112.5"/>
<text text-anchor="middle" x="331.5" y="-119.5" font-family="Helvetica,sans-Serif" font-size="10.00">torchttprequest.h</text>
</a>
</g>
</g>
<!-- Node12&#45;&gt;Node18 -->
<g id="edge29" class="edge"><title>Node12&#45;&gt;Node18</title>
<path fill="none" stroke="midnightblue" d="M241.906,-224.442C203.522,-214.592 155.421,-196.069 176.5,-168 188.123,-152.522 232.343,-140.645 270.592,-132.989"/>
<polygon fill="midnightblue" stroke="midnightblue" points="271.522,-136.374 280.675,-131.038 270.193,-129.501 271.522,-136.374"/>
</g>
<!-- Node16&#45;&gt;Node4 -->
<g id="edge19" class="edge"><title>Node16&#45;&gt;Node4</title>
<path fill="none" stroke="midnightblue" d="M508.902,-168.368C554.657,-149.01 665.62,-102.065 718.937,-79.5074"/>
<polygon fill="midnightblue" stroke="midnightblue" points="720.347,-82.7113 728.193,-75.5914 717.62,-76.2645 720.347,-82.7113"/>
</g>
<!-- Node17 -->
<g id="node17" class="node"><title>Node17</title>
<polygon fill="white" stroke="#bfbfbf" points="449.5,-112.5 449.5,-131.5 527.5,-131.5 527.5,-112.5 449.5,-112.5"/>
<text text-anchor="middle" x="488.5" y="-119.5" font-family="Helvetica,sans-Serif" font-size="10.00">QVariantMap</text>
</g>
<!-- Node16&#45;&gt;Node17 -->
<g id="edge20" class="edge"><title>Node16&#45;&gt;Node17</title>
<path fill="none" stroke="midnightblue" d="M488.5,-168.083C488.5,-161.006 488.5,-150.861 488.5,-141.986"/>
<polygon fill="midnightblue" stroke="midnightblue" points="492,-141.751 488.5,-131.751 485,-141.751 492,-141.751"/>
</g>
<!-- Node16&#45;&gt;Node18 -->
<g id="edge21" class="edge"><title>Node16&#45;&gt;Node18</title>
<path fill="none" stroke="midnightblue" d="M463.623,-168.444C437.211,-159.359 395.285,-144.939 365.758,-134.783"/>
<polygon fill="midnightblue" stroke="midnightblue" points="366.855,-131.459 356.261,-131.516 364.579,-138.079 366.855,-131.459"/>
</g>
<!-- Node18&#45;&gt;Node4 -->
<g id="edge24" class="edge"><title>Node18&#45;&gt;Node4</title>
<path fill="none" stroke="midnightblue" d="M382.215,-114.433C467.243,-103.422 636.579,-81.4934 711.439,-71.7993"/>
<polygon fill="midnightblue" stroke="midnightblue" points="712.31,-75.2158 721.777,-70.4605 711.411,-68.2738 712.31,-75.2158"/>
</g>
<!-- Node18&#45;&gt;Node13 -->
<g id="edge22" class="edge"><title>Node18&#45;&gt;Node13</title>
<path fill="none" stroke="midnightblue" d="M353.525,-112.444C376.604,-103.478 413.062,-89.314 439.141,-79.1827"/>
<polygon fill="midnightblue" stroke="midnightblue" points="440.524,-82.4002 448.578,-75.5164 437.989,-75.8753 440.524,-82.4002"/>
</g>
<!-- Node19 -->
<g id="node19" class="node"><title>Node19</title>
<polygon fill="white" stroke="#bfbfbf" points="187,-56.5 187,-75.5 228,-75.5 228,-56.5 187,-56.5"/>
<text text-anchor="middle" x="207.5" y="-63.5" font-family="Helvetica,sans-Serif" font-size="10.00">QPair</text>
</g>
<!-- Node18&#45;&gt;Node19 -->
<g id="edge23" class="edge"><title>Node18&#45;&gt;Node19</title>
<path fill="none" stroke="midnightblue" d="M311.852,-112.444C291.535,-103.596 259.597,-89.6875 236.402,-79.5865"/>
<polygon fill="midnightblue" stroke="midnightblue" points="237.622,-76.3002 227.056,-75.5164 234.827,-82.7181 237.622,-76.3002"/>
</g>
<!-- Node20 -->
<g id="node20" class="node"><title>Node20</title>
<polygon fill="white" stroke="#bfbfbf" points="246,-56.5 246,-75.5 317,-75.5 317,-56.5 246,-56.5"/>
<text text-anchor="middle" x="281.5" y="-63.5" font-family="Helvetica,sans-Serif" font-size="10.00">QDateTime</text>
</g>
<!-- Node18&#45;&gt;Node20 -->
<g id="edge25" class="edge"><title>Node18&#45;&gt;Node20</title>
<path fill="none" stroke="midnightblue" d="M323.244,-112.083C316.035,-104.298 305.39,-92.8015 296.654,-83.3665"/>
<polygon fill="midnightblue" stroke="midnightblue" points="298.965,-80.7108 289.603,-75.7511 293.829,-85.4666 298.965,-80.7108"/>
</g>
<!-- Node21 -->
<g id="node21" class="node"><title>Node21</title>
<g id="a_node21"><a xlink:href="../../de/de6/torchttpreader_8h.html" target="_top" xlink:title="torchttpreader.h">
<polygon fill="white" stroke="black" points="335,-56.5 335,-75.5 430,-75.5 430,-56.5 335,-56.5"/>
<text text-anchor="middle" x="382.5" y="-63.5" font-family="Helvetica,sans-Serif" font-size="10.00">torchttpreader.h</text>
</a>
</g>
</g>
<!-- Node18&#45;&gt;Node21 -->
<g id="edge26" class="edge"><title>Node18&#45;&gt;Node21</title>
<path fill="none" stroke="midnightblue" d="M339.922,-112.083C347.348,-104.22 358.352,-92.5688 367.312,-83.0813"/>
<polygon fill="midnightblue" stroke="midnightblue" points="369.913,-85.4244 374.235,-75.7511 364.824,-80.618 369.913,-85.4244"/>
</g>
<!-- Node22 -->
<g id="node22" class="node"><title>Node22</title>
<polygon fill="white" stroke="#bfbfbf" points="302,-0.5 302,-19.5 373,-19.5 373,-0.5 302,-0.5"/>
<text text-anchor="middle" x="337.5" y="-7.5" font-family="Helvetica,sans-Serif" font-size="10.00">QByteArray</text>
</g>
<!-- Node21&#45;&gt;Node22 -->
<g id="edge27" class="edge"><title>Node21&#45;&gt;Node22</title>
<path fill="none" stroke="midnightblue" d="M375.069,-56.083C368.647,-48.3768 359.194,-37.0333 351.378,-27.6531"/>
<polygon fill="midnightblue" stroke="midnightblue" points="353.883,-25.1927 344.793,-19.7511 348.506,-29.674 353.883,-25.1927"/>
</g>
<!-- Node23 -->
<g id="node23" class="node"><title>Node23</title>
<polygon fill="white" stroke="#bfbfbf" points="391.5,-0.5 391.5,-19.5 463.5,-19.5 463.5,-0.5 391.5,-0.5"/>
<text text-anchor="middle" x="427.5" y="-7.5" font-family="Helvetica,sans-Serif" font-size="10.00">QTcpSocket</text>
</g>
<!-- Node21&#45;&gt;Node23 -->
<g id="edge28" class="edge"><title>Node21&#45;&gt;Node23</title>
<path fill="none" stroke="midnightblue" d="M389.931,-56.083C396.353,-48.3768 405.806,-37.0333 413.622,-27.6531"/>
<polygon fill="midnightblue" stroke="midnightblue" points="416.494,-29.674 420.207,-19.7511 411.117,-25.1927 416.494,-29.674"/>
</g>
<!-- Node25 -->
<g id="node25" class="node"><title>Node25</title>
<polygon fill="white" stroke="#bfbfbf" points="59.5,-168.5 59.5,-187.5 129.5,-187.5 129.5,-168.5 59.5,-168.5"/>
<text text-anchor="middle" x="94.5" y="-175.5" font-family="Helvetica,sans-Serif" font-size="10.00">QAtomicInt</text>
</g>
<!-- Node24&#45;&gt;Node25 -->
<g id="edge31" class="edge"><title>Node24&#45;&gt;Node25</title>
<path fill="none" stroke="midnightblue" d="M142.342,-224.324C133.999,-216.42 121.468,-204.548 111.323,-194.938"/>
<polygon fill="midnightblue" stroke="midnightblue" points="113.491,-192.171 103.825,-187.834 108.677,-197.252 113.491,-192.171"/>
</g>
<!-- Node27 -->
<g id="node27" class="node"><title>Node27</title>
<g id="a_node27"><a xlink:href="../../d3/d66/torcevent_8h.html" target="_top" xlink:title="torcevent.h">
<polygon fill="white" stroke="black" points="729,-224.5 729,-243.5 800,-243.5 800,-224.5 729,-224.5"/>
<text text-anchor="middle" x="764.5" y="-231.5" font-family="Helvetica,sans-Serif" font-size="10.00">torcevent.h</text>
</a>
</g>
</g>
<!-- Node26&#45;&gt;Node27 -->
<g id="edge33" class="edge"><title>Node26&#45;&gt;Node27</title>
<path fill="none" stroke="midnightblue" d="M834.165,-280.324C821.338,-271.979 801.715,-259.212 786.56,-249.352"/>
<polygon fill="midnightblue" stroke="midnightblue" points="788.093,-246.174 777.802,-243.655 784.276,-252.042 788.093,-246.174"/>
</g>
<!-- Node27&#45;&gt;Node10 -->
<g id="edge35" class="edge"><title>Node27&#45;&gt;Node10</title>
<path fill="none" stroke="midnightblue" d="M776.229,-224.324C787.337,-216.107 804.242,-203.602 817.483,-193.807"/>
<polygon fill="midnightblue" stroke="midnightblue" points="819.6,-196.595 825.558,-187.834 815.437,-190.967 819.6,-196.595"/>
</g>
<!-- Node27&#45;&gt;Node13 -->
<g id="edge34" class="edge"><title>Node27&#45;&gt;Node13</title>
<path fill="none" stroke="midnightblue" d="M756.069,-224.093C742.995,-210.646 716.607,-184.94 690.5,-168 627.864,-127.359 546.209,-94.483 502.099,-78.168"/>
<polygon fill="midnightblue" stroke="midnightblue" points="503.096,-74.8058 492.502,-74.6611 500.693,-81.3806 503.096,-74.8058"/>
</g>
<!-- Node28 -->
<g id="node28" class="node"><title>Node28</title>
<polygon fill="white" stroke="#bfbfbf" points="739,-168.5 739,-187.5 790,-187.5 790,-168.5 739,-168.5"/>
<text text-anchor="middle" x="764.5" y="-175.5" font-family="Helvetica,sans-Serif" font-size="10.00">QEvent</text>
</g>
<!-- Node27&#45;&gt;Node28 -->
<g id="edge36" class="edge"><title>Node27&#45;&gt;Node28</title>
<path fill="none" stroke="midnightblue" d="M764.5,-224.083C764.5,-217.006 764.5,-206.861 764.5,-197.986"/>
<polygon fill="midnightblue" stroke="midnightblue" points="768,-197.751 764.5,-187.751 761,-197.751 768,-197.751"/>
</g>
<!-- Node30 -->
<g id="node30" class="node"><title>Node30</title>
<g id="a_node30"><a xlink:href="../../d4/da3/torcdb_8h.html" target="_top" xlink:title="torcdb.h">
<polygon fill="white" stroke="black" points="596.5,-224.5 596.5,-243.5 652.5,-243.5 652.5,-224.5 596.5,-224.5"/>
<text text-anchor="middle" x="624.5" y="-231.5" font-family="Helvetica,sans-Serif" font-size="10.00">torcdb.h</text>
</a>
</g>
</g>
<!-- Node29&#45;&gt;Node30 -->
<g id="edge38" class="edge"><title>Node29&#45;&gt;Node30</title>
<path fill="none" stroke="midnightblue" d="M601.959,-280.083C605.654,-272.691 611.023,-261.953 615.594,-252.811"/>
<polygon fill="midnightblue" stroke="midnightblue" points="618.783,-254.261 620.124,-243.751 612.522,-251.13 618.783,-254.261"/>
</g>
<!-- Node30&#45;&gt;Node3 -->
<g id="edge39" class="edge"><title>Node30&#45;&gt;Node3</title>
<path fill="none" stroke="midnightblue" d="M629.454,-224.083C633.604,-216.613 639.653,-205.724 644.767,-196.52"/>
<polygon fill="midnightblue" stroke="midnightblue" points="647.841,-198.192 649.638,-187.751 641.722,-194.793 647.841,-198.192"/>
</g>
<!-- Node30&#45;&gt;Node6 -->
<g id="edge40" class="edge"><title>Node30&#45;&gt;Node6</title>
<path fill="none" stroke="midnightblue" d="M617.565,-224.083C611.571,-216.377 602.748,-205.033 595.452,-195.653"/>
<polygon fill="midnightblue" stroke="midnightblue" points="598.209,-193.496 589.306,-187.751 592.683,-197.793 598.209,-193.496"/>
</g>
<!-- Node32 -->
<g id="node32" class="node"><title>Node32</title>
<polygon fill="white" stroke="#bfbfbf" points="1052,-224.5 1052,-243.5 1093,-243.5 1093,-224.5 1052,-224.5"/>
<text text-anchor="middle" x="1072.5" y="-231.5" font-family="Helvetica,sans-Serif" font-size="10.00">QList</text>
</g>
<!-- Node31&#45;&gt;Node32 -->
<g id="edge42" class="edge"><title>Node31&#45;&gt;Node32</title>
<path fill="none" stroke="midnightblue" d="M1075,-280.083C1074.61,-273.006 1074.05,-262.861 1073.55,-253.986"/>
<polygon fill="midnightblue" stroke="midnightblue" points="1077.04,-253.542 1072.99,-243.751 1070.05,-253.93 1077.04,-253.542"/>
</g>
<!-- Node33 -->
<g id="node33" class="node"><title>Node33</title>
<g id="a_node33"><a xlink:href="../../dd/db0/torcqthread_8h.html" target="_top" xlink:title="torcqthread.h">
<polygon fill="white" stroke="black" points="1111.5,-224.5 1111.5,-243.5 1193.5,-243.5 1193.5,-224.5 1111.5,-224.5"/>
<text text-anchor="middle" x="1152.5" y="-231.5" font-family="Helvetica,sans-Serif" font-size="10.00">torcqthread.h</text>
</a>
</g>
</g>
<!-- Node31&#45;&gt;Node33 -->
<g id="edge43" class="edge"><title>Node31&#45;&gt;Node33</title>
<path fill="none" stroke="midnightblue" d="M1087.87,-280.324C1099.66,-272.058 1117.63,-259.453 1131.64,-249.632"/>
<polygon fill="midnightblue" stroke="midnightblue" points="1133.98,-252.262 1140.16,-243.655 1129.96,-246.531 1133.98,-252.262"/>
</g>
<!-- Node34 -->
<g id="node34" class="node"><title>Node34</title>
<polygon fill="white" stroke="#bfbfbf" points="1124,-168.5 1124,-187.5 1181,-187.5 1181,-168.5 1124,-168.5"/>
<text text-anchor="middle" x="1152.5" y="-175.5" font-family="Helvetica,sans-Serif" font-size="10.00">QThread</text>
</g>
<!-- Node33&#45;&gt;Node34 -->
<g id="edge44" class="edge"><title>Node33&#45;&gt;Node34</title>
<path fill="none" stroke="midnightblue" d="M1152.5,-224.083C1152.5,-217.006 1152.5,-206.861 1152.5,-197.986"/>
<polygon fill="midnightblue" stroke="midnightblue" points="1156,-197.751 1152.5,-187.751 1149,-197.751 1156,-197.751"/>
</g>
<!-- Node35&#45;&gt;Node3 -->
<g id="edge46" class="edge"><title>Node35&#45;&gt;Node3</title>
<path fill="none" stroke="midnightblue" d="M870.778,-224.444C821.725,-214.137 739.984,-196.962 692.283,-186.939"/>
<polygon fill="midnightblue" stroke="midnightblue" points="692.865,-183.485 682.359,-184.854 691.425,-190.335 692.865,-183.485"/>
</g>
<!-- Node35&#45;&gt;Node10 -->
<g id="edge47" class="edge"><title>Node35&#45;&gt;Node10</title>
<path fill="none" stroke="midnightblue" d="M899.611,-224.324C888.35,-216.107 871.213,-203.602 857.791,-193.807"/>
<polygon fill="midnightblue" stroke="midnightblue" points="859.747,-190.901 849.606,-187.834 855.62,-196.556 859.747,-190.901"/>
</g>
<!-- Node36 -->
<g id="node36" class="node"><title>Node36</title>
<polygon fill="white" stroke="#bfbfbf" points="887,-168.5 887,-187.5 936,-187.5 936,-168.5 887,-168.5"/>
<text text-anchor="middle" x="911.5" y="-175.5" font-family="Helvetica,sans-Serif" font-size="10.00">QHash</text>
</g>
<!-- Node35&#45;&gt;Node36 -->
<g id="edge48" class="edge"><title>Node35&#45;&gt;Node36</title>
<path fill="none" stroke="midnightblue" d="M911.5,-224.083C911.5,-217.006 911.5,-206.861 911.5,-197.986"/>
<polygon fill="midnightblue" stroke="midnightblue" points="915,-197.751 911.5,-187.751 908,-197.751 915,-197.751"/>
</g>
<!-- Node37 -->
<g id="node37" class="node"><title>Node37</title>
<g id="a_node37"><a xlink:href="../../d4/df9/torclogging_8h.html" target="_top" xlink:title="torclogging.h">
<polygon fill="white" stroke="black" points="1025,-168.5 1025,-187.5 1104,-187.5 1104,-168.5 1025,-168.5"/>
<text text-anchor="middle" x="1064.5" y="-175.5" font-family="Helvetica,sans-Serif" font-size="10.00">torclogging.h</text>
</a>
</g>
</g>
<!-- Node35&#45;&gt;Node37 -->
<g id="edge49" class="edge"><title>Node35&#45;&gt;Node37</title>
<path fill="none" stroke="midnightblue" d="M935.743,-224.444C961.371,-215.399 1001.99,-201.064 1030.74,-190.916"/>
<polygon fill="midnightblue" stroke="midnightblue" points="1032.11,-194.145 1040.37,-187.516 1029.78,-187.544 1032.11,-194.145"/>
</g>
<!-- Node38 -->
<g id="node38" class="node"><title>Node38</title>
<polygon fill="white" stroke="#bfbfbf" points="1023,-112.5 1023,-131.5 1076,-131.5 1076,-112.5 1023,-112.5"/>
<text text-anchor="middle" x="1049.5" y="-119.5" font-family="Helvetica,sans-Serif" font-size="10.00">stdint.h</text>
</g>
<!-- Node37&#45;&gt;Node38 -->
<g id="edge50" class="edge"><title>Node37&#45;&gt;Node38</title>
<path fill="none" stroke="midnightblue" d="M1062.02,-168.083C1060.01,-160.849 1057.11,-150.409 1054.61,-141.397"/>
<polygon fill="midnightblue" stroke="midnightblue" points="1057.98,-140.449 1051.93,-131.751 1051.24,-142.323 1057.98,-140.449"/>
</g>
<!-- Node39 -->
<g id="node39" class="node"><title>Node39</title>
<polygon fill="white" stroke="#bfbfbf" points="1094,-112.5 1094,-131.5 1145,-131.5 1145,-112.5 1094,-112.5"/>
<text text-anchor="middle" x="1119.5" y="-119.5" font-family="Helvetica,sans-Serif" font-size="10.00">errno.h</text>
</g>
<!-- Node37&#45;&gt;Node39 -->
<g id="edge51" class="edge"><title>Node37&#45;&gt;Node39</title>
<path fill="none" stroke="midnightblue" d="M1073.58,-168.083C1081.67,-160.141 1093.7,-148.335 1103.41,-138.797"/>
<polygon fill="midnightblue" stroke="midnightblue" points="1105.9,-141.254 1110.59,-131.751 1101,-136.26 1105.9,-141.254"/>
</g>
<!-- Node40 -->
<g id="node40" class="node"><title>Node40</title>
<g id="a_node40"><a xlink:href="../../d1/d37/torcloggingdefs_8h.html" target="_top" xlink:title="torcloggingdefs.h">
<polygon fill="white" stroke="black" points="1163,-112.5 1163,-131.5 1262,-131.5 1262,-112.5 1163,-112.5"/>
<text text-anchor="middle" x="1212.5" y="-119.5" font-family="Helvetica,sans-Serif" font-size="10.00">torcloggingdefs.h</text>
</a>
</g>
</g>
<!-- Node37&#45;&gt;Node40 -->
<g id="edge52" class="edge"><title>Node37&#45;&gt;Node40</title>
<path fill="none" stroke="midnightblue" d="M1087.95,-168.444C1112.63,-159.438 1151.69,-145.189 1179.48,-135.049"/>
<polygon fill="midnightblue" stroke="midnightblue" points="1180.96,-138.232 1189.16,-131.516 1178.56,-131.656 1180.96,-138.232"/>
</g>
</g>
</svg>
