<?xml version="1.0" encoding="UTF-8" standalone="no"?>
<!DOCTYPE svg PUBLIC "-//W3C//DTD SVG 1.1//EN"
 "http://www.w3.org/Graphics/SVG/1.1/DTD/svg11.dtd">
<!-- Generated by graphviz version 2.38.0 (20140413.2041)
 -->
<!-- Title: torclognotifier.cpp Pages: 1 -->
<svg width="718pt" height="308pt"
 viewBox="0.00 0.00 718.00 308.00" xmlns="http://www.w3.org/2000/svg" xmlns:xlink="http://www.w3.org/1999/xlink">
<g id="graph0" class="graph" transform="scale(1 1) rotate(0) translate(4 304)">
<title>torclognotifier.cpp</title>
<polygon fill="white" stroke="none" points="-4,4 -4,-304 714,-304 714,4 -4,4"/>
<!-- Node1 -->
<g id="node1" class="node"><title>Node1</title>
<polygon fill="#bfbfbf" stroke="black" points="144.5,-280.5 144.5,-299.5 246.5,-299.5 246.5,-280.5 144.5,-280.5"/>
<text text-anchor="middle" x="195.5" y="-287.5" font-family="Helvetica,sans-Serif" font-size="10.00">torclognotifier.cpp</text>
</g>
<!-- Node2 -->
<g id="node2" class="node"><title>Node2</title>
<g id="a_node2"><a xlink:href="../../d4/df9/torclogging_8h.html" target="_top" xlink:title="torclogging.h">
<polygon fill="white" stroke="black" points="81,-224.5 81,-243.5 160,-243.5 160,-224.5 81,-224.5"/>
<text text-anchor="middle" x="120.5" y="-231.5" font-family="Helvetica,sans-Serif" font-size="10.00">torclogging.h</text>
</a>
</g>
</g>
<!-- Node1&#45;&gt;Node2 -->
<g id="edge1" class="edge"><title>Node1&#45;&gt;Node2</title>
<path fill="none" stroke="midnightblue" d="M183.45,-280.324C172.037,-272.107 154.669,-259.602 141.065,-249.807"/>
<polygon fill="midnightblue" stroke="midnightblue" points="142.93,-246.837 132.769,-243.834 138.84,-252.517 142.93,-246.837"/>
</g>
<!-- Node6 -->
<g id="node6" class="node"><title>Node6</title>
<g id="a_node6"><a xlink:href="../../d0/d71/torclognotifier_8h.html" target="_top" xlink:title="torclognotifier.h">
<polygon fill="white" stroke="black" points="226,-224.5 226,-243.5 317,-243.5 317,-224.5 226,-224.5"/>
<text text-anchor="middle" x="271.5" y="-231.5" font-family="Helvetica,sans-Serif" font-size="10.00">torclognotifier.h</text>
</a>
</g>
</g>
<!-- Node1&#45;&gt;Node6 -->
<g id="edge5" class="edge"><title>Node1&#45;&gt;Node6</title>
<path fill="none" stroke="midnightblue" d="M207.711,-280.324C219.276,-272.107 236.875,-259.602 250.661,-249.807"/>
<polygon fill="midnightblue" stroke="midnightblue" points="252.943,-252.479 259.067,-243.834 248.888,-246.773 252.943,-252.479"/>
</g>
<!-- Node3 -->
<g id="node3" class="node"><title>Node3</title>
<polygon fill="white" stroke="#bfbfbf" points="0,-168.5 0,-187.5 53,-187.5 53,-168.5 0,-168.5"/>
<text text-anchor="middle" x="26.5" y="-175.5" font-family="Helvetica,sans-Serif" font-size="10.00">stdint.h</text>
</g>
<!-- Node2&#45;&gt;Node3 -->
<g id="edge2" class="edge"><title>Node2&#45;&gt;Node3</title>
<path fill="none" stroke="midnightblue" d="M105.397,-224.324C90.5967,-215.822 67.8058,-202.729 50.5178,-192.797"/>
<polygon fill="midnightblue" stroke="midnightblue" points="51.9798,-189.601 41.5652,-187.655 48.4929,-195.671 51.9798,-189.601"/>
</g>
<!-- Node4 -->
<g id="node4" class="node"><title>Node4</title>
<polygon fill="white" stroke="#bfbfbf" points="71,-168.5 71,-187.5 122,-187.5 122,-168.5 71,-168.5"/>
<text text-anchor="middle" x="96.5" y="-175.5" font-family="Helvetica,sans-Serif" font-size="10.00">errno.h</text>
</g>
<!-- Node2&#45;&gt;Node4 -->
<g id="edge3" class="edge"><title>Node2&#45;&gt;Node4</title>
<path fill="none" stroke="midnightblue" d="M116.537,-224.083C113.287,-216.77 108.581,-206.181 104.546,-197.103"/>
<polygon fill="midnightblue" stroke="midnightblue" points="107.649,-195.468 100.389,-187.751 101.252,-198.311 107.649,-195.468"/>
</g>
<!-- Node5 -->
<g id="node5" class="node"><title>Node5</title>
<g id="a_node5"><a xlink:href="../../d1/d37/torcloggingdefs_8h.html" target="_top" xlink:title="torcloggingdefs.h">
<polygon fill="white" stroke="black" points="140,-168.5 140,-187.5 239,-187.5 239,-168.5 140,-168.5"/>
<text text-anchor="middle" x="189.5" y="-175.5" font-family="Helvetica,sans-Serif" font-size="10.00">torcloggingdefs.h</text>
</a>
</g>
</g>
<!-- Node2&#45;&gt;Node5 -->
<g id="edge4" class="edge"><title>Node2&#45;&gt;Node5</title>
<path fill="none" stroke="midnightblue" d="M131.586,-224.324C141.986,-216.185 157.761,-203.839 170.222,-194.087"/>
<polygon fill="midnightblue" stroke="midnightblue" points="172.494,-196.753 178.212,-187.834 168.18,-191.241 172.494,-196.753"/>
</g>
<!-- Node7 -->
<g id="node7" class="node"><title>Node7</title>
<g id="a_node7"><a xlink:href="../../db/df1/torcnotifier_8h.html" target="_top" xlink:title="torcnotifier.h">
<polygon fill="white" stroke="black" points="257,-168.5 257,-187.5 334,-187.5 334,-168.5 257,-168.5"/>
<text text-anchor="middle" x="295.5" y="-175.5" font-family="Helvetica,sans-Serif" font-size="10.00">torcnotifier.h</text>
</a>
</g>
</g>
<!-- Node6&#45;&gt;Node7 -->
<g id="edge6" class="edge"><title>Node6&#45;&gt;Node7</title>
<path fill="none" stroke="midnightblue" d="M275.463,-224.083C278.713,-216.77 283.419,-206.181 287.454,-197.103"/>
<polygon fill="midnightblue" stroke="midnightblue" points="290.748,-198.311 291.611,-187.751 284.351,-195.468 290.748,-198.311"/>
</g>
<!-- Node8 -->
<g id="node8" class="node"><title>Node8</title>
<polygon fill="white" stroke="#bfbfbf" points="229.5,-0.5 229.5,-19.5 287.5,-19.5 287.5,-0.5 229.5,-0.5"/>
<text text-anchor="middle" x="258.5" y="-7.5" font-family="Helvetica,sans-Serif" font-size="10.00">QVariant</text>
</g>
<!-- Node7&#45;&gt;Node8 -->
<g id="edge7" class="edge"><title>Node7&#45;&gt;Node8</title>
<path fill="none" stroke="midnightblue" d="M286.232,-168.377C269.596,-152.188 235.221,-115.317 222.5,-76 219.764,-67.5428 219.558,-64.3878 222.5,-56 226.285,-45.2094 233.867,-35.084 241.1,-27.1808"/>
<polygon fill="midnightblue" stroke="midnightblue" points="243.826,-29.4005 248.338,-19.8145 238.833,-24.4943 243.826,-29.4005"/>
</g>
<!-- Node9 -->
<g id="node9" class="node"><title>Node9</title>
<g id="a_node9"><a xlink:href="../../d1/df7/torcdevice_8h.html" target="_top" xlink:title="torcdevice.h">
<polygon fill="white" stroke="black" points="349,-112.5 349,-131.5 424,-131.5 424,-112.5 349,-112.5"/>
<text text-anchor="middle" x="386.5" y="-119.5" font-family="Helvetica,sans-Serif" font-size="10.00">torcdevice.h</text>
</a>
</g>
</g>
<!-- Node7&#45;&gt;Node9 -->
<g id="edge8" class="edge"><title>Node7&#45;&gt;Node9</title>
<path fill="none" stroke="midnightblue" d="M310.121,-168.324C324.449,-159.822 346.513,-146.729 363.249,-136.797"/>
<polygon fill="midnightblue" stroke="midnightblue" points="365.102,-139.768 371.916,-131.655 361.53,-133.748 365.102,-139.768"/>
</g>
<!-- Node10 -->
<g id="node10" class="node"><title>Node10</title>
<polygon fill="white" stroke="#bfbfbf" points="369,-0.5 369,-19.5 418,-19.5 418,-0.5 369,-0.5"/>
<text text-anchor="middle" x="393.5" y="-7.5" font-family="Helvetica,sans-Serif" font-size="10.00">QHash</text>
</g>
<!-- Node9&#45;&gt;Node10 -->
<g id="edge9" class="edge"><title>Node9&#45;&gt;Node10</title>
<path fill="none" stroke="midnightblue" d="M387.049,-112.368C388.179,-94.617 390.785,-53.6664 392.317,-29.5974"/>
<polygon fill="midnightblue" stroke="midnightblue" points="395.811,-29.7935 392.953,-19.5914 388.825,-29.3489 395.811,-29.7935"/>
</g>
<!-- Node11 -->
<g id="node11" class="node"><title>Node11</title>
<polygon fill="white" stroke="#bfbfbf" points="484,-0.5 484,-19.5 537,-19.5 537,-0.5 484,-0.5"/>
<text text-anchor="middle" x="510.5" y="-7.5" font-family="Helvetica,sans-Serif" font-size="10.00">QMutex</text>
</g>
<!-- Node9&#45;&gt;Node11 -->
<g id="edge10" class="edge"><title>Node9&#45;&gt;Node11</title>
<path fill="none" stroke="midnightblue" d="M424.269,-121.13C458.938,-118.981 508.581,-109.689 533.5,-76 544.128,-61.6321 534.537,-41.9154 524.695,-27.9753"/>
<polygon fill="midnightblue" stroke="midnightblue" points="527.263,-25.5715 518.402,-19.7632 521.707,-29.8294 527.263,-25.5715"/>
</g>
<!-- Node12 -->
<g id="node12" class="node"><title>Node12</title>
<polygon fill="white" stroke="#bfbfbf" points="232,-56.5 232,-75.5 285,-75.5 285,-56.5 232,-56.5"/>
<text text-anchor="middle" x="258.5" y="-63.5" font-family="Helvetica,sans-Serif" font-size="10.00">QString</text>
</g>
<!-- Node9&#45;&gt;Node12 -->
<g id="edge11" class="edge"><title>Node9&#45;&gt;Node12</title>
<path fill="none" stroke="midnightblue" d="M366.218,-112.444C345.153,-103.557 311.983,-89.5632 288.014,-79.4514"/>
<polygon fill="midnightblue" stroke="midnightblue" points="289.261,-76.1787 278.687,-75.5164 286.54,-82.6283 289.261,-76.1787"/>
</g>
<!-- Node13 -->
<g id="node13" class="node"><title>Node13</title>
<polygon fill="white" stroke="#bfbfbf" points="303,-56.5 303,-75.5 358,-75.5 358,-56.5 303,-56.5"/>
<text text-anchor="middle" x="330.5" y="-63.5" font-family="Helvetica,sans-Serif" font-size="10.00">QObject</text>
</g>
<!-- Node9&#45;&gt;Node13 -->
<g id="edge12" class="edge"><title>Node9&#45;&gt;Node13</title>
<path fill="none" stroke="midnightblue" d="M377.503,-112.324C369.306,-104.42 356.994,-92.5482 347.028,-82.9377"/>
<polygon fill="midnightblue" stroke="midnightblue" points="349.289,-80.2558 339.661,-75.8339 344.43,-85.2947 349.289,-80.2558"/>
</g>
<!-- Node14 -->
<g id="node14" class="node"><title>Node14</title>
<g id="a_node14"><a xlink:href="../../d8/dfe/torcreferencecounted_8h.html" target="_top" xlink:title="torcreferencecounted.h">
<polygon fill="white" stroke="black" points="581,-56.5 581,-75.5 710,-75.5 710,-56.5 581,-56.5"/>
<text text-anchor="middle" x="645.5" y="-63.5" font-family="Helvetica,sans-Serif" font-size="10.00">torcreferencecounted.h</text>
</a>
</g>
</g>
<!-- Node9&#45;&gt;Node14 -->
<g id="edge13" class="edge"><title>Node9&#45;&gt;Node14</title>
<path fill="none" stroke="midnightblue" d="M424.161,-113.148C469.05,-103.789 544.273,-88.1052 594.387,-77.6568"/>
<polygon fill="midnightblue" stroke="midnightblue" points="595.294,-81.043 604.369,-75.5756 593.865,-74.1904 595.294,-81.043"/>
</g>
<!-- Node16 -->
<g id="node16" class="node"><title>Node16</title>
<g id="a_node16"><a xlink:href="../../d2/d5b/torcdevicehandler_8h.html" target="_top" xlink:title="torcdevicehandler.h">
<polygon fill="white" stroke="black" points="414.5,-56.5 414.5,-75.5 524.5,-75.5 524.5,-56.5 414.5,-56.5"/>
<text text-anchor="middle" x="469.5" y="-63.5" font-family="Helvetica,sans-Serif" font-size="10.00">torcdevicehandler.h</text>
</a>
</g>
</g>
<!-- Node9&#45;&gt;Node16 -->
<g id="edge15" class="edge"><title>Node9&#45;&gt;Node16</title>
<path fill="none" stroke="midnightblue" d="M399.835,-112.324C412.662,-103.979 432.285,-91.2122 447.44,-81.3524"/>
<polygon fill="midnightblue" stroke="midnightblue" points="449.724,-84.0417 456.198,-75.6545 445.907,-78.1742 449.724,-84.0417"/>
</g>
<!-- Node15 -->
<g id="node15" class="node"><title>Node15</title>
<polygon fill="white" stroke="#bfbfbf" points="610.5,-0.5 610.5,-19.5 680.5,-19.5 680.5,-0.5 610.5,-0.5"/>
<text text-anchor="middle" x="645.5" y="-7.5" font-family="Helvetica,sans-Serif" font-size="10.00">QAtomicInt</text>
</g>
<!-- Node14&#45;&gt;Node15 -->
<g id="edge14" class="edge"><title>Node14&#45;&gt;Node15</title>
<path fill="none" stroke="midnightblue" d="M645.5,-56.083C645.5,-49.0059 645.5,-38.8611 645.5,-29.9865"/>
<polygon fill="midnightblue" stroke="midnightblue" points="649,-29.751 645.5,-19.7511 642,-29.7511 649,-29.751"/>
</g>
<!-- Node16&#45;&gt;Node8 -->
<g id="edge18" class="edge"><title>Node16&#45;&gt;Node8</title>
<path fill="none" stroke="midnightblue" d="M436.066,-56.4435C398.438,-46.8136 337.381,-31.1876 297.581,-21.0018"/>
<polygon fill="midnightblue" stroke="midnightblue" points="298.256,-17.5617 287.7,-18.473 296.52,-24.3431 298.256,-17.5617"/>
</g>
<!-- Node16&#45;&gt;Node10 -->
<g id="edge16" class="edge"><title>Node16&#45;&gt;Node10</title>
<path fill="none" stroke="midnightblue" d="M457.289,-56.324C445.724,-48.1066 428.125,-35.6017 414.339,-25.8069"/>
<polygon fill="midnightblue" stroke="midnightblue" points="416.112,-22.7729 405.933,-19.8339 412.057,-28.4791 416.112,-22.7729"/>
</g>
<!-- Node16&#45;&gt;Node11 -->
<g id="edge17" class="edge"><title>Node16&#45;&gt;Node11</title>
<path fill="none" stroke="midnightblue" d="M476.27,-56.083C482.062,-48.4554 490.558,-37.2645 497.638,-27.9408"/>
<polygon fill="midnightblue" stroke="midnightblue" points="500.596,-29.8321 503.856,-19.7511 495.021,-25.5991 500.596,-29.8321"/>
</g>
</g>
</svg>
