<?xml version="1.0" encoding="UTF-8" standalone="no"?>
<!DOCTYPE svg PUBLIC "-//W3C//DTD SVG 1.1//EN"
 "http://www.w3.org/Graphics/SVG/1.1/DTD/svg11.dtd">
<!-- Generated by graphviz version 2.38.0 (20140413.2041)
 -->
<!-- Title: torcoutputs.h Pages: 1 -->
<svg width="831pt" height="140pt"
 viewBox="0.00 0.00 831.00 140.00" xmlns="http://www.w3.org/2000/svg" xmlns:xlink="http://www.w3.org/1999/xlink">
<g id="graph0" class="graph" transform="scale(1 1) rotate(0) translate(4 136)">
<title>torcoutputs.h</title>
<polygon fill="white" stroke="none" points="-4,4 -4,-136 827,-136 827,4 -4,4"/>
<!-- Node1 -->
<g id="node1" class="node"><title>Node1</title>
<polygon fill="#bfbfbf" stroke="black" points="370.5,-112.5 370.5,-131.5 451.5,-131.5 451.5,-112.5 370.5,-112.5"/>
<text text-anchor="middle" x="411" y="-119.5" font-family="Helvetica,sans-Serif" font-size="10.00">torcoutputs.h</text>
</g>
<!-- Node2 -->
<g id="node2" class="node"><title>Node2</title>
<g id="a_node2"><a xlink:href="../../db/dd5/torci2cpca9685_8h.html" target="_top" xlink:title="torci2cpca9685.h">
<polygon fill="white" stroke="black" points="5.5,-56.5 5.5,-75.5 104.5,-75.5 104.5,-56.5 5.5,-56.5"/>
<text text-anchor="middle" x="55" y="-63.5" font-family="Helvetica,sans-Serif" font-size="10.00">torci2cpca9685.h</text>
</a>
</g>
</g>
<!-- Node1&#45;&gt;Node2 -->
<g id="edge1" class="edge"><title>Node1&#45;&gt;Node2</title>
<path fill="none" stroke="midnightblue" d="M359.963,-113.283C300.793,-104.333 200.333,-89.1251 114,-76 110.927,-75.5328 107.764,-75.0515 104.574,-74.5658"/>
<polygon fill="midnightblue" stroke="midnightblue" points="359.752,-116.791 370.163,-114.826 360.799,-109.87 359.752,-116.791"/>
</g>
<!-- Node4 -->
<g id="node4" class="node"><title>Node4</title>
<g id="a_node4"><a xlink:href="../../da/d84/torcpigpio_8cpp.html" target="_top" xlink:title="torcpigpio.cpp">
<polygon fill="white" stroke="black" points="123,-56.5 123,-75.5 207,-75.5 207,-56.5 123,-56.5"/>
<text text-anchor="middle" x="165" y="-63.5" font-family="Helvetica,sans-Serif" font-size="10.00">torcpigpio.cpp</text>
</a>
</g>
</g>
<!-- Node1&#45;&gt;Node4 -->
<g id="edge3" class="edge"><title>Node1&#45;&gt;Node4</title>
<path fill="none" stroke="midnightblue" d="M362.171,-110.281C315.684,-100.077 246.637,-84.9203 203.797,-75.5164"/>
<polygon fill="midnightblue" stroke="midnightblue" points="361.503,-113.718 372.021,-112.444 363.004,-106.881 361.503,-113.718"/>
</g>
<!-- Node5 -->
<g id="node5" class="node"><title>Node5</title>
<g id="a_node5"><a xlink:href="../../d1/d3b/torccameraoutput_8cpp.html" target="_top" xlink:title="torccameraoutput.cpp">
<polygon fill="white" stroke="black" points="225,-56.5 225,-75.5 349,-75.5 349,-56.5 225,-56.5"/>
<text text-anchor="middle" x="287" y="-63.5" font-family="Helvetica,sans-Serif" font-size="10.00">torccameraoutput.cpp</text>
</a>
</g>
</g>
<!-- Node1&#45;&gt;Node5 -->
<g id="edge4" class="edge"><title>Node1&#45;&gt;Node5</title>
<path fill="none" stroke="midnightblue" d="M381.993,-108.368C358.771,-98.2553 326.837,-84.3486 306.556,-75.5164"/>
<polygon fill="midnightblue" stroke="midnightblue" points="380.786,-111.66 391.352,-112.444 383.581,-105.242 380.786,-111.66"/>
</g>
<!-- Node6 -->
<g id="node6" class="node"><title>Node6</title>
<g id="a_node6"><a xlink:href="../../d5/d6d/torcoutput_8cpp.html" target="_top" xlink:title="torcoutput.cpp">
<polygon fill="white" stroke="black" points="367.5,-56.5 367.5,-75.5 454.5,-75.5 454.5,-56.5 367.5,-56.5"/>
<text text-anchor="middle" x="411" y="-63.5" font-family="Helvetica,sans-Serif" font-size="10.00">torcoutput.cpp</text>
</a>
</g>
</g>
<!-- Node1&#45;&gt;Node6 -->
<g id="edge5" class="edge"><title>Node1&#45;&gt;Node6</title>
<path fill="none" stroke="midnightblue" d="M411,-101.805C411,-92.9102 411,-82.7798 411,-75.7511"/>
<polygon fill="midnightblue" stroke="midnightblue" points="407.5,-102.083 411,-112.083 414.5,-102.083 407.5,-102.083"/>
</g>
<!-- Node7 -->
<g id="node7" class="node"><title>Node7</title>
<g id="a_node7"><a xlink:href="../../d5/da7/torcoutputs_8cpp.html" target="_top" xlink:title="torcoutputs.cpp">
<polygon fill="white" stroke="black" points="473,-56.5 473,-75.5 565,-75.5 565,-56.5 473,-56.5"/>
<text text-anchor="middle" x="519" y="-63.5" font-family="Helvetica,sans-Serif" font-size="10.00">torcoutputs.cpp</text>
</a>
</g>
</g>
<!-- Node1&#45;&gt;Node7 -->
<g id="edge6" class="edge"><title>Node1&#45;&gt;Node7</title>
<path fill="none" stroke="midnightblue" d="M437.548,-107.726C457.546,-97.7271 484.387,-84.3065 501.691,-75.6545"/>
<polygon fill="midnightblue" stroke="midnightblue" points="435.731,-104.721 428.352,-112.324 438.862,-110.982 435.731,-104.721"/>
</g>
<!-- Node8 -->
<g id="node8" class="node"><title>Node8</title>
<g id="a_node8"><a xlink:href="../../d1/d81/torccentral_8cpp.html" target="_top" xlink:title="torccentral.cpp">
<polygon fill="white" stroke="black" points="583.5,-56.5 583.5,-75.5 672.5,-75.5 672.5,-56.5 583.5,-56.5"/>
<text text-anchor="middle" x="628" y="-63.5" font-family="Helvetica,sans-Serif" font-size="10.00">torccentral.cpp</text>
</a>
</g>
</g>
<!-- Node1&#45;&gt;Node8 -->
<g id="edge7" class="edge"><title>Node1&#45;&gt;Node8</title>
<path fill="none" stroke="midnightblue" d="M455.108,-110.024C496.1,-99.8232 556.304,-84.8414 593.777,-75.5164"/>
<polygon fill="midnightblue" stroke="midnightblue" points="454.243,-106.632 445.384,-112.444 455.934,-113.425 454.243,-106.632"/>
</g>
<!-- Node9 -->
<g id="node9" class="node"><title>Node9</title>
<g id="a_node9"><a xlink:href="../../dd/dbf/testtorclocalcontext_8cpp.html" target="_top" xlink:title="testtorclocalcontext.cpp">
<polygon fill="white" stroke="black" points="691,-56.5 691,-75.5 823,-75.5 823,-56.5 691,-56.5"/>
<text text-anchor="middle" x="757" y="-63.5" font-family="Helvetica,sans-Serif" font-size="10.00">testtorclocalcontext.cpp</text>
</a>
</g>
</g>
<!-- Node1&#45;&gt;Node9 -->
<g id="edge8" class="edge"><title>Node1&#45;&gt;Node9</title>
<path fill="none" stroke="midnightblue" d="M461.617,-113.1C525.917,-103.065 636.447,-85.8146 702.532,-75.5008"/>
<polygon fill="midnightblue" stroke="midnightblue" points="461.049,-109.646 451.708,-114.647 462.128,-116.563 461.049,-109.646"/>
</g>
<!-- Node3 -->
<g id="node3" class="node"><title>Node3</title>
<g id="a_node3"><a xlink:href="../../d9/d02/torci2cpca9685_8cpp.html" target="_top" xlink:title="torci2cpca9685.cpp">
<polygon fill="white" stroke="black" points="0,-0.5 0,-19.5 110,-19.5 110,-0.5 0,-0.5"/>
<text text-anchor="middle" x="55" y="-7.5" font-family="Helvetica,sans-Serif" font-size="10.00">torci2cpca9685.cpp</text>
</a>
</g>
</g>
<!-- Node2&#45;&gt;Node3 -->
<g id="edge2" class="edge"><title>Node2&#45;&gt;Node3</title>
<path fill="none" stroke="midnightblue" d="M55,-45.8045C55,-36.9102 55,-26.7798 55,-19.7511"/>
<polygon fill="midnightblue" stroke="midnightblue" points="51.5001,-46.083 55,-56.083 58.5001,-46.083 51.5001,-46.083"/>
</g>
</g>
</svg>
