<?xml version="1.0" encoding="UTF-8" standalone="no"?>
<!DOCTYPE svg PUBLIC "-//W3C//DTD SVG 1.1//EN"
 "http://www.w3.org/Graphics/SVG/1.1/DTD/svg11.dtd">
<!-- Generated by graphviz version 2.38.0 (20140413.2041)
 -->
<!-- Title: torcoutputs.h Pages: 1 -->
<svg width="966pt" height="140pt"
 viewBox="0.00 0.00 966.00 140.00" xmlns="http://www.w3.org/2000/svg" xmlns:xlink="http://www.w3.org/1999/xlink">
<g id="graph0" class="graph" transform="scale(1 1) rotate(0) translate(4 136)">
<title>torcoutputs.h</title>
<polygon fill="white" stroke="none" points="-4,4 -4,-136 962,-136 962,4 -4,4"/>
<!-- Node1 -->
<g id="node1" class="node"><title>Node1</title>
<polygon fill="#bfbfbf" stroke="black" points="443.5,-112.5 443.5,-131.5 524.5,-131.5 524.5,-112.5 443.5,-112.5"/>
<text text-anchor="middle" x="484" y="-119.5" font-family="Helvetica,sans-Serif" font-size="10.00">torcoutputs.h</text>
</g>
<!-- Node2 -->
<g id="node2" class="node"><title>Node2</title>
<g id="a_node2"><a xlink:href="../../df/dc7/torcnetworkinputs_8cpp.html" target="_top" xlink:title="torcnetworkinputs.cpp">
<polygon fill="white" stroke="black" points="0,-56.5 0,-75.5 122,-75.5 122,-56.5 0,-56.5"/>
<text text-anchor="middle" x="61" y="-63.5" font-family="Helvetica,sans-Serif" font-size="10.00">torcnetworkinputs.cpp</text>
</a>
</g>
</g>
<!-- Node1&#45;&gt;Node2 -->
<g id="edge1" class="edge"><title>Node1&#45;&gt;Node2</title>
<path fill="none" stroke="midnightblue" d="M433.375,-114.537C355.349,-104.576 205.959,-85.5055 122.058,-74.7946"/>
<polygon fill="midnightblue" stroke="midnightblue" points="433.078,-118.028 443.441,-115.822 433.965,-111.084 433.078,-118.028"/>
</g>
<!-- Node3 -->
<g id="node3" class="node"><title>Node3</title>
<g id="a_node3"><a xlink:href="../../db/dd5/torci2cpca9685_8h.html" target="_top" xlink:title="torci2cpca9685.h">
<polygon fill="white" stroke="black" points="140.5,-56.5 140.5,-75.5 239.5,-75.5 239.5,-56.5 140.5,-56.5"/>
<text text-anchor="middle" x="190" y="-63.5" font-family="Helvetica,sans-Serif" font-size="10.00">torci2cpca9685.h</text>
</a>
</g>
</g>
<!-- Node1&#45;&gt;Node3 -->
<g id="edge2" class="edge"><title>Node1&#45;&gt;Node3</title>
<path fill="none" stroke="midnightblue" d="M433.492,-111.723C378.151,-101.558 290.125,-85.3904 236.448,-75.5313"/>
<polygon fill="midnightblue" stroke="midnightblue" points="432.961,-115.184 443.429,-113.548 434.226,-108.299 432.961,-115.184"/>
</g>
<!-- Node5 -->
<g id="node5" class="node"><title>Node5</title>
<g id="a_node5"><a xlink:href="../../da/d84/torcpigpio_8cpp.html" target="_top" xlink:title="torcpigpio.cpp">
<polygon fill="white" stroke="black" points="258,-56.5 258,-75.5 342,-75.5 342,-56.5 258,-56.5"/>
<text text-anchor="middle" x="300" y="-63.5" font-family="Helvetica,sans-Serif" font-size="10.00">torcpigpio.cpp</text>
</a>
</g>
</g>
<!-- Node1&#45;&gt;Node5 -->
<g id="edge4" class="edge"><title>Node1&#45;&gt;Node5</title>
<path fill="none" stroke="midnightblue" d="M445.046,-109.568C410.335,-99.381 360.323,-84.7034 329.019,-75.5164"/>
<polygon fill="midnightblue" stroke="midnightblue" points="444.264,-112.986 454.845,-112.444 446.235,-106.269 444.264,-112.986"/>
</g>
<!-- Node6 -->
<g id="node6" class="node"><title>Node6</title>
<g id="a_node6"><a xlink:href="../../d1/d3b/torccameraoutput_8cpp.html" target="_top" xlink:title="torccameraoutput.cpp">
<polygon fill="white" stroke="black" points="360,-56.5 360,-75.5 484,-75.5 484,-56.5 360,-56.5"/>
<text text-anchor="middle" x="422" y="-63.5" font-family="Helvetica,sans-Serif" font-size="10.00">torccameraoutput.cpp</text>
</a>
</g>
</g>
<!-- Node1&#45;&gt;Node6 -->
<g id="edge5" class="edge"><title>Node1&#45;&gt;Node6</title>
<path fill="none" stroke="midnightblue" d="M466.246,-105.537C455.192,-95.9087 441.369,-83.8694 432.143,-75.8339"/>
<polygon fill="midnightblue" stroke="midnightblue" points="464.199,-108.395 474.039,-112.324 468.797,-103.117 464.199,-108.395"/>
</g>
<!-- Node7 -->
<g id="node7" class="node"><title>Node7</title>
<g id="a_node7"><a xlink:href="../../d5/d6d/torcoutput_8cpp.html" target="_top" xlink:title="torcoutput.cpp">
<polygon fill="white" stroke="black" points="502.5,-56.5 502.5,-75.5 589.5,-75.5 589.5,-56.5 502.5,-56.5"/>
<text text-anchor="middle" x="546" y="-63.5" font-family="Helvetica,sans-Serif" font-size="10.00">torcoutput.cpp</text>
</a>
</g>
</g>
<!-- Node1&#45;&gt;Node7 -->
<g id="edge6" class="edge"><title>Node1&#45;&gt;Node7</title>
<path fill="none" stroke="midnightblue" d="M501.754,-105.537C512.808,-95.9087 526.631,-83.8694 535.857,-75.8339"/>
<polygon fill="midnightblue" stroke="midnightblue" points="499.203,-103.117 493.961,-112.324 503.801,-108.395 499.203,-103.117"/>
</g>
<!-- Node8 -->
<g id="node8" class="node"><title>Node8</title>
<g id="a_node8"><a xlink:href="../../d5/da7/torcoutputs_8cpp.html" target="_top" xlink:title="torcoutputs.cpp">
<polygon fill="white" stroke="black" points="608,-56.5 608,-75.5 700,-75.5 700,-56.5 608,-56.5"/>
<text text-anchor="middle" x="654" y="-63.5" font-family="Helvetica,sans-Serif" font-size="10.00">torcoutputs.cpp</text>
</a>
</g>
</g>
<!-- Node1&#45;&gt;Node8 -->
<g id="edge7" class="edge"><title>Node1&#45;&gt;Node8</title>
<path fill="none" stroke="midnightblue" d="M520.819,-109.304C552.852,-99.1294 598.515,-84.6246 627.189,-75.5164"/>
<polygon fill="midnightblue" stroke="midnightblue" points="519.408,-106.08 510.937,-112.444 521.527,-112.752 519.408,-106.08"/>
</g>
<!-- Node9 -->
<g id="node9" class="node"><title>Node9</title>
<g id="a_node9"><a xlink:href="../../d1/d81/torccentral_8cpp.html" target="_top" xlink:title="torccentral.cpp">
<polygon fill="white" stroke="black" points="718.5,-56.5 718.5,-75.5 807.5,-75.5 807.5,-56.5 718.5,-56.5"/>
<text text-anchor="middle" x="763" y="-63.5" font-family="Helvetica,sans-Serif" font-size="10.00">torccentral.cpp</text>
</a>
</g>
</g>
<!-- Node1&#45;&gt;Node9 -->
<g id="edge8" class="edge"><title>Node1&#45;&gt;Node9</title>
<path fill="none" stroke="midnightblue" d="M534.68,-111.191C587.245,-101.017 668.615,-85.2681 718.693,-75.5756"/>
<polygon fill="midnightblue" stroke="midnightblue" points="533.722,-107.811 524.569,-113.148 535.052,-114.684 533.722,-107.811"/>
</g>
<!-- Node10 -->
<g id="node10" class="node"><title>Node10</title>
<g id="a_node10"><a xlink:href="../../dd/dbf/testtorclocalcontext_8cpp.html" target="_top" xlink:title="testtorclocalcontext.cpp">
<polygon fill="white" stroke="black" points="826,-56.5 826,-75.5 958,-75.5 958,-56.5 826,-56.5"/>
<text text-anchor="middle" x="892" y="-63.5" font-family="Helvetica,sans-Serif" font-size="10.00">testtorclocalcontext.cpp</text>
</a>
</g>
</g>
<!-- Node1&#45;&gt;Node10 -->
<g id="edge9" class="edge"><title>Node1&#45;&gt;Node10</title>
<path fill="none" stroke="midnightblue" d="M534.622,-114.3C608.647,-104.503 746.421,-86.2678 827.576,-75.5267"/>
<polygon fill="midnightblue" stroke="midnightblue" points="534.067,-110.843 524.612,-115.625 534.985,-117.782 534.067,-110.843"/>
</g>
<!-- Node4 -->
<g id="node4" class="node"><title>Node4</title>
<g id="a_node4"><a xlink:href="../../d9/d02/torci2cpca9685_8cpp.html" target="_top" xlink:title="torci2cpca9685.cpp">
<polygon fill="white" stroke="black" points="135,-0.5 135,-19.5 245,-19.5 245,-0.5 135,-0.5"/>
<text text-anchor="middle" x="190" y="-7.5" font-family="Helvetica,sans-Serif" font-size="10.00">torci2cpca9685.cpp</text>
</a>
</g>
</g>
<!-- Node3&#45;&gt;Node4 -->
<g id="edge3" class="edge"><title>Node3&#45;&gt;Node4</title>
<path fill="none" stroke="midnightblue" d="M190,-45.8045C190,-36.9102 190,-26.7798 190,-19.7511"/>
<polygon fill="midnightblue" stroke="midnightblue" points="186.5,-46.083 190,-56.083 193.5,-46.083 186.5,-46.083"/>
</g>
</g>
</svg>
