<?xml version="1.0" encoding="UTF-8" standalone="no"?>
<!DOCTYPE svg PUBLIC "-//W3C//DTD SVG 1.1//EN"
 "http://www.w3.org/Graphics/SVG/1.1/DTD/svg11.dtd">
<!-- Generated by graphviz version 2.38.0 (20140413.2041)
 -->
<!-- Title: torcoutputs.h Pages: 1 -->
<svg width="1055pt" height="364pt"
 viewBox="0.00 0.00 1055.02 364.00" xmlns="http://www.w3.org/2000/svg" xmlns:xlink="http://www.w3.org/1999/xlink">
<g id="graph0" class="graph" transform="scale(1 1) rotate(0) translate(4 360)">
<title>torcoutputs.h</title>
<polygon fill="white" stroke="none" points="-4,4 -4,-360 1051.02,-360 1051.02,4 -4,4"/>
<!-- Node1 -->
<g id="node1" class="node"><title>Node1</title>
<polygon fill="#bfbfbf" stroke="black" points="443.5,-336.5 443.5,-355.5 524.5,-355.5 524.5,-336.5 443.5,-336.5"/>
<text text-anchor="middle" x="484" y="-343.5" font-family="Helvetica,sans-Serif" font-size="10.00">torcoutputs.h</text>
</g>
<!-- Node2 -->
<g id="node2" class="node"><title>Node2</title>
<polygon fill="white" stroke="#bfbfbf" points="376.5,-280.5 376.5,-299.5 417.5,-299.5 417.5,-280.5 376.5,-280.5"/>
<text text-anchor="middle" x="397" y="-287.5" font-family="Helvetica,sans-Serif" font-size="10.00">QList</text>
</g>
<!-- Node1&#45;&gt;Node2 -->
<g id="edge1" class="edge"><title>Node1&#45;&gt;Node2</title>
<path fill="none" stroke="midnightblue" d="M470.022,-336.324C456.45,-327.9 435.62,-314.971 419.675,-305.074"/>
<polygon fill="midnightblue" stroke="midnightblue" points="421.286,-301.954 410.943,-299.655 417.594,-307.902 421.286,-301.954"/>
</g>
<!-- Node3 -->
<g id="node3" class="node"><title>Node3</title>
<polygon fill="white" stroke="#bfbfbf" points="514.5,-112.5 514.5,-131.5 567.5,-131.5 567.5,-112.5 514.5,-112.5"/>
<text text-anchor="middle" x="541" y="-119.5" font-family="Helvetica,sans-Serif" font-size="10.00">QMutex</text>
</g>
<!-- Node1&#45;&gt;Node3 -->
<g id="edge2" class="edge"><title>Node1&#45;&gt;Node3</title>
<path fill="none" stroke="midnightblue" d="M486.211,-336.15C492.688,-310.262 512.218,-232.435 529,-168 531.27,-159.285 533.836,-149.636 536.011,-141.515"/>
<polygon fill="midnightblue" stroke="midnightblue" points="539.455,-142.185 538.67,-131.619 532.695,-140.368 539.455,-142.185"/>
</g>
<!-- Node4 -->
<g id="node4" class="node"><title>Node4</title>
<g id="a_node4"><a xlink:href="../../d3/dee/torchttpservice_8h.html" target="_top" xlink:title="torchttpservice.h">
<polygon fill="white" stroke="black" points="329,-224.5 329,-243.5 427,-243.5 427,-224.5 329,-224.5"/>
<text text-anchor="middle" x="378" y="-231.5" font-family="Helvetica,sans-Serif" font-size="10.00">torchttpservice.h</text>
</a>
</g>
</g>
<!-- Node1&#45;&gt;Node4 -->
<g id="edge3" class="edge"><title>Node1&#45;&gt;Node4</title>
<path fill="none" stroke="midnightblue" d="M476.726,-336.367C465.962,-323.704 445.012,-299.485 426,-280 416.128,-269.882 404.584,-259.031 395.291,-250.52"/>
<polygon fill="midnightblue" stroke="midnightblue" points="397.559,-247.851 387.803,-243.72 392.853,-253.033 397.559,-247.851"/>
</g>
<!-- Node17 -->
<g id="node17" class="node"><title>Node17</title>
<g id="a_node17"><a xlink:href="../../dc/d01/torcoutput_8h.html" target="_top" xlink:title="torcoutput.h">
<polygon fill="white" stroke="black" points="576,-280.5 576,-299.5 652,-299.5 652,-280.5 576,-280.5"/>
<text text-anchor="middle" x="614" y="-287.5" font-family="Helvetica,sans-Serif" font-size="10.00">torcoutput.h</text>
</a>
</g>
</g>
<!-- Node1&#45;&gt;Node17 -->
<g id="edge20" class="edge"><title>Node1&#45;&gt;Node17</title>
<path fill="none" stroke="midnightblue" d="M504.599,-336.444C525.993,-327.557 559.681,-313.563 584.024,-303.451"/>
<polygon fill="midnightblue" stroke="midnightblue" points="585.605,-306.585 593.497,-299.516 582.92,-300.12 585.605,-306.585"/>
</g>
<!-- Node25 -->
<g id="node25" class="node"><title>Node25</title>
<g id="a_node25"><a xlink:href="../../d5/d41/torccentral_8h.html" target="_top" xlink:title="torccentral.h">
<polygon fill="white" stroke="black" points="690.5,-280.5 690.5,-299.5 767.5,-299.5 767.5,-280.5 690.5,-280.5"/>
<text text-anchor="middle" x="729" y="-287.5" font-family="Helvetica,sans-Serif" font-size="10.00">torccentral.h</text>
</a>
</g>
</g>
<!-- Node1&#45;&gt;Node25 -->
<g id="edge36" class="edge"><title>Node1&#45;&gt;Node25</title>
<path fill="none" stroke="midnightblue" d="M522.821,-336.444C565.561,-327.023 634.332,-311.866 680.566,-301.675"/>
<polygon fill="midnightblue" stroke="midnightblue" points="681.348,-305.087 690.361,-299.516 679.842,-298.251 681.348,-305.087"/>
</g>
<!-- Node4&#45;&gt;Node3 -->
<g id="edge5" class="edge"><title>Node4&#45;&gt;Node3</title>
<path fill="none" stroke="midnightblue" d="M389.777,-224.393C407.149,-211.763 440.749,-187.585 470,-168 486.015,-157.277 504.403,-145.641 518.453,-136.888"/>
<polygon fill="midnightblue" stroke="midnightblue" points="520.338,-139.837 526.99,-131.591 516.648,-133.889 520.338,-139.837"/>
</g>
<!-- Node5 -->
<g id="node5" class="node"><title>Node5</title>
<polygon fill="white" stroke="#bfbfbf" points="0,-56.5 0,-75.5 44,-75.5 44,-56.5 0,-56.5"/>
<text text-anchor="middle" x="22" y="-63.5" font-family="Helvetica,sans-Serif" font-size="10.00">QMap</text>
</g>
<!-- Node4&#45;&gt;Node5 -->
<g id="edge4" class="edge"><title>Node4&#45;&gt;Node5</title>
<path fill="none" stroke="midnightblue" d="M328.931,-230.646C256.398,-226.307 125.032,-214.901 87,-188 51.752,-163.068 33.8492,-112.878 26.3879,-85.6287"/>
<polygon fill="midnightblue" stroke="midnightblue" points="29.7435,-84.6227 23.8805,-75.7979 22.9606,-86.3528 29.7435,-84.6227"/>
</g>
<!-- Node6 -->
<g id="node6" class="node"><title>Node6</title>
<polygon fill="white" stroke="#bfbfbf" points="338.5,-168.5 338.5,-187.5 417.5,-187.5 417.5,-168.5 338.5,-168.5"/>
<text text-anchor="middle" x="378" y="-175.5" font-family="Helvetica,sans-Serif" font-size="10.00">QMetaObject</text>
</g>
<!-- Node4&#45;&gt;Node6 -->
<g id="edge6" class="edge"><title>Node4&#45;&gt;Node6</title>
<path fill="none" stroke="midnightblue" d="M378,-224.083C378,-217.006 378,-206.861 378,-197.986"/>
<polygon fill="midnightblue" stroke="midnightblue" points="381.5,-197.751 378,-187.751 374.5,-197.751 381.5,-197.751"/>
</g>
<!-- Node7 -->
<g id="node7" class="node"><title>Node7</title>
<polygon fill="white" stroke="#bfbfbf" points="104.5,-168.5 104.5,-187.5 203.5,-187.5 203.5,-168.5 104.5,-168.5"/>
<text text-anchor="middle" x="154" y="-175.5" font-family="Helvetica,sans-Serif" font-size="10.00">QCoreApplication</text>
</g>
<!-- Node4&#45;&gt;Node7 -->
<g id="edge7" class="edge"><title>Node4&#45;&gt;Node7</title>
<path fill="none" stroke="midnightblue" d="M342.507,-224.444C303.676,-215.083 241.344,-200.056 199.082,-189.868"/>
<polygon fill="midnightblue" stroke="midnightblue" points="199.869,-186.458 189.327,-187.516 198.229,-193.263 199.869,-186.458"/>
</g>
<!-- Node8 -->
<g id="node8" class="node"><title>Node8</title>
<g id="a_node8"><a xlink:href="../../d4/d11/torchttphandler_8h.html" target="_top" xlink:title="torchttphandler.h">
<polygon fill="white" stroke="black" points="221.5,-168.5 221.5,-187.5 320.5,-187.5 320.5,-168.5 221.5,-168.5"/>
<text text-anchor="middle" x="271" y="-175.5" font-family="Helvetica,sans-Serif" font-size="10.00">torchttphandler.h</text>
</a>
</g>
</g>
<!-- Node4&#45;&gt;Node8 -->
<g id="edge8" class="edge"><title>Node4&#45;&gt;Node8</title>
<path fill="none" stroke="midnightblue" d="M360.809,-224.324C343.649,-215.664 317.054,-202.242 297.253,-192.249"/>
<polygon fill="midnightblue" stroke="midnightblue" points="298.653,-189.035 288.149,-187.655 295.499,-195.285 298.653,-189.035"/>
</g>
<!-- Node11 -->
<g id="node11" class="node"><title>Node11</title>
<g id="a_node11"><a xlink:href="../../df/dd7/torchttprequest_8h.html" target="_top" xlink:title="torchttprequest.h">
<polygon fill="white" stroke="black" points="115.5,-112.5 115.5,-131.5 216.5,-131.5 216.5,-112.5 115.5,-112.5"/>
<text text-anchor="middle" x="166" y="-119.5" font-family="Helvetica,sans-Serif" font-size="10.00">torchttprequest.h</text>
</a>
</g>
</g>
<!-- Node4&#45;&gt;Node11 -->
<g id="edge19" class="edge"><title>Node4&#45;&gt;Node11</title>
<path fill="none" stroke="midnightblue" d="M328.999,-232.548C256.107,-230.719 124.512,-222.576 95,-188 77.9933,-168.075 108.432,-148.181 134.591,-135.75"/>
<polygon fill="midnightblue" stroke="midnightblue" points="136.27,-138.832 143.938,-131.522 133.385,-132.454 136.27,-138.832"/>
</g>
<!-- Node9 -->
<g id="node9" class="node"><title>Node9</title>
<polygon fill="white" stroke="#bfbfbf" points="323.5,-56.5 323.5,-75.5 376.5,-75.5 376.5,-56.5 323.5,-56.5"/>
<text text-anchor="middle" x="350" y="-63.5" font-family="Helvetica,sans-Serif" font-size="10.00">QString</text>
</g>
<!-- Node8&#45;&gt;Node9 -->
<g id="edge9" class="edge"><title>Node8&#45;&gt;Node9</title>
<path fill="none" stroke="midnightblue" d="M283.754,-168.273C295.039,-160.017 311.327,-146.723 322,-132 332.357,-117.714 339.905,-99.0009 344.537,-85.3237"/>
<polygon fill="midnightblue" stroke="midnightblue" points="347.929,-86.2056 347.624,-75.6152 341.258,-84.0844 347.929,-86.2056"/>
</g>
<!-- Node10 -->
<g id="node10" class="node"><title>Node10</title>
<polygon fill="white" stroke="#bfbfbf" points="235,-112.5 235,-131.5 313,-131.5 313,-112.5 235,-112.5"/>
<text text-anchor="middle" x="274" y="-119.5" font-family="Helvetica,sans-Serif" font-size="10.00">QVariantMap</text>
</g>
<!-- Node8&#45;&gt;Node10 -->
<g id="edge10" class="edge"><title>Node8&#45;&gt;Node10</title>
<path fill="none" stroke="midnightblue" d="M271.495,-168.083C271.889,-161.006 272.452,-150.861 272.945,-141.986"/>
<polygon fill="midnightblue" stroke="midnightblue" points="276.454,-141.93 273.514,-131.751 269.464,-141.542 276.454,-141.93"/>
</g>
<!-- Node8&#45;&gt;Node11 -->
<g id="edge11" class="edge"><title>Node8&#45;&gt;Node11</title>
<path fill="none" stroke="midnightblue" d="M254.13,-168.324C237.291,-159.664 211.193,-146.242 191.762,-136.249"/>
<polygon fill="midnightblue" stroke="midnightblue" points="193.322,-133.116 182.828,-131.655 190.12,-139.341 193.322,-133.116"/>
</g>
<!-- Node11&#45;&gt;Node5 -->
<g id="edge12" class="edge"><title>Node11&#45;&gt;Node5</title>
<path fill="none" stroke="midnightblue" d="M143.183,-112.444C119.027,-103.385 80.7235,-89.0213 53.6547,-78.8705"/>
<polygon fill="midnightblue" stroke="midnightblue" points="54.8296,-75.5731 44.2373,-75.339 52.3717,-82.1274 54.8296,-75.5731"/>
</g>
<!-- Node11&#45;&gt;Node9 -->
<g id="edge14" class="edge"><title>Node11&#45;&gt;Node9</title>
<path fill="none" stroke="midnightblue" d="M195.155,-112.444C227.251,-103.024 278.895,-87.8679 313.618,-77.6774"/>
<polygon fill="midnightblue" stroke="midnightblue" points="314.761,-80.9895 323.371,-74.8151 312.79,-74.2728 314.761,-80.9895"/>
</g>
<!-- Node12 -->
<g id="node12" class="node"><title>Node12</title>
<polygon fill="white" stroke="#bfbfbf" points="264.5,-56.5 264.5,-75.5 305.5,-75.5 305.5,-56.5 264.5,-56.5"/>
<text text-anchor="middle" x="285" y="-63.5" font-family="Helvetica,sans-Serif" font-size="10.00">QPair</text>
</g>
<!-- Node11&#45;&gt;Node12 -->
<g id="edge13" class="edge"><title>Node11&#45;&gt;Node12</title>
<path fill="none" stroke="midnightblue" d="M184.856,-112.444C204.266,-103.636 234.73,-89.8116 256.965,-79.722"/>
<polygon fill="midnightblue" stroke="midnightblue" points="258.572,-82.836 266.232,-75.5164 255.68,-76.4615 258.572,-82.836"/>
</g>
<!-- Node13 -->
<g id="node13" class="node"><title>Node13</title>
<polygon fill="white" stroke="#bfbfbf" points="62.5,-56.5 62.5,-75.5 133.5,-75.5 133.5,-56.5 62.5,-56.5"/>
<text text-anchor="middle" x="98" y="-63.5" font-family="Helvetica,sans-Serif" font-size="10.00">QDateTime</text>
</g>
<!-- Node11&#45;&gt;Node13 -->
<g id="edge15" class="edge"><title>Node11&#45;&gt;Node13</title>
<path fill="none" stroke="midnightblue" d="M155.075,-112.324C144.825,-104.185 129.279,-91.8395 116.999,-82.0874"/>
<polygon fill="midnightblue" stroke="midnightblue" points="119.132,-79.3119 109.124,-75.8339 114.779,-84.7937 119.132,-79.3119"/>
</g>
<!-- Node14 -->
<g id="node14" class="node"><title>Node14</title>
<g id="a_node14"><a xlink:href="../../de/de6/torchttpreader_8h.html" target="_top" xlink:title="torchttpreader.h">
<polygon fill="white" stroke="black" points="151.5,-56.5 151.5,-75.5 246.5,-75.5 246.5,-56.5 151.5,-56.5"/>
<text text-anchor="middle" x="199" y="-63.5" font-family="Helvetica,sans-Serif" font-size="10.00">torchttpreader.h</text>
</a>
</g>
</g>
<!-- Node11&#45;&gt;Node14 -->
<g id="edge16" class="edge"><title>Node11&#45;&gt;Node14</title>
<path fill="none" stroke="midnightblue" d="M171.449,-112.083C176.014,-104.613 182.668,-93.7244 188.293,-84.5199"/>
<polygon fill="midnightblue" stroke="midnightblue" points="191.424,-86.109 193.652,-75.7511 185.451,-82.4588 191.424,-86.109"/>
</g>
<!-- Node15 -->
<g id="node15" class="node"><title>Node15</title>
<polygon fill="white" stroke="#bfbfbf" points="118.5,-0.5 118.5,-19.5 189.5,-19.5 189.5,-0.5 118.5,-0.5"/>
<text text-anchor="middle" x="154" y="-7.5" font-family="Helvetica,sans-Serif" font-size="10.00">QByteArray</text>
</g>
<!-- Node14&#45;&gt;Node15 -->
<g id="edge17" class="edge"><title>Node14&#45;&gt;Node15</title>
<path fill="none" stroke="midnightblue" d="M191.569,-56.083C185.147,-48.3768 175.694,-37.0333 167.878,-27.6531"/>
<polygon fill="midnightblue" stroke="midnightblue" points="170.383,-25.1927 161.293,-19.7511 165.006,-29.674 170.383,-25.1927"/>
</g>
<!-- Node16 -->
<g id="node16" class="node"><title>Node16</title>
<polygon fill="white" stroke="#bfbfbf" points="208,-0.5 208,-19.5 280,-19.5 280,-0.5 208,-0.5"/>
<text text-anchor="middle" x="244" y="-7.5" font-family="Helvetica,sans-Serif" font-size="10.00">QTcpSocket</text>
</g>
<!-- Node14&#45;&gt;Node16 -->
<g id="edge18" class="edge"><title>Node14&#45;&gt;Node16</title>
<path fill="none" stroke="midnightblue" d="M206.431,-56.083C212.853,-48.3768 222.306,-37.0333 230.122,-27.6531"/>
<polygon fill="midnightblue" stroke="midnightblue" points="232.994,-29.674 236.707,-19.7511 227.617,-25.1927 232.994,-29.674"/>
</g>
<!-- Node17&#45;&gt;Node3 -->
<g id="edge21" class="edge"><title>Node17&#45;&gt;Node3</title>
<path fill="none" stroke="midnightblue" d="M591.101,-280.44C575.442,-273.27 555.81,-261.384 546,-244 527.811,-211.766 532.273,-166.647 536.835,-141.606"/>
<polygon fill="midnightblue" stroke="midnightblue" points="540.3,-142.128 538.857,-131.632 533.44,-140.737 540.3,-142.128"/>
</g>
<!-- Node17&#45;&gt;Node4 -->
<g id="edge25" class="edge"><title>Node17&#45;&gt;Node4</title>
<path fill="none" stroke="midnightblue" d="M576.605,-280.444C535.608,-271.063 469.746,-255.993 425.216,-245.804"/>
<polygon fill="midnightblue" stroke="midnightblue" points="425.749,-242.335 415.22,-243.516 424.187,-249.159 425.749,-242.335"/>
</g>
<!-- Node18 -->
<g id="node18" class="node"><title>Node18</title>
<polygon fill="white" stroke="#bfbfbf" points="978.5,-168.5 978.5,-187.5 1033.5,-187.5 1033.5,-168.5 978.5,-168.5"/>
<text text-anchor="middle" x="1006" y="-175.5" font-family="Helvetica,sans-Serif" font-size="10.00">QObject</text>
</g>
<!-- Node17&#45;&gt;Node18 -->
<g id="edge22" class="edge"><title>Node17&#45;&gt;Node18</title>
<path fill="none" stroke="midnightblue" d="M648.025,-280.434C682.785,-271.604 738.276,-257.29 786,-244 850.426,-226.06 924.989,-203.688 968.671,-190.418"/>
<polygon fill="midnightblue" stroke="midnightblue" points="969.749,-193.748 978.297,-187.489 967.711,-187.051 969.749,-193.748"/>
</g>
<!-- Node19 -->
<g id="node19" class="node"><title>Node19</title>
<g id="a_node19"><a xlink:href="../../d8/dfe/torcreferencecounted_8h.html" target="_top" xlink:title="torcreferencecounted.h">
<polygon fill="white" stroke="black" points="626.5,-168.5 626.5,-187.5 755.5,-187.5 755.5,-168.5 626.5,-168.5"/>
<text text-anchor="middle" x="691" y="-175.5" font-family="Helvetica,sans-Serif" font-size="10.00">torcreferencecounted.h</text>
</a>
</g>
</g>
<!-- Node17&#45;&gt;Node19 -->
<g id="edge23" class="edge"><title>Node17&#45;&gt;Node19</title>
<path fill="none" stroke="midnightblue" d="M620.042,-280.368C632.749,-262.215 662.439,-219.802 679.107,-195.99"/>
<polygon fill="midnightblue" stroke="midnightblue" points="682.119,-197.791 684.986,-187.591 676.384,-193.777 682.119,-197.791"/>
</g>
<!-- Node21 -->
<g id="node21" class="node"><title>Node21</title>
<g id="a_node21"><a xlink:href="../../d1/df7/torcdevice_8h.html" target="_top" xlink:title="torcdevice.h">
<polygon fill="white" stroke="black" points="701.5,-224.5 701.5,-243.5 776.5,-243.5 776.5,-224.5 701.5,-224.5"/>
<text text-anchor="middle" x="739" y="-231.5" font-family="Helvetica,sans-Serif" font-size="10.00">torcdevice.h</text>
</a>
</g>
</g>
<!-- Node17&#45;&gt;Node21 -->
<g id="edge26" class="edge"><title>Node17&#45;&gt;Node21</title>
<path fill="none" stroke="midnightblue" d="M633.807,-280.444C654.287,-271.596 686.483,-257.687 709.865,-247.586"/>
<polygon fill="midnightblue" stroke="midnightblue" points="711.494,-250.695 719.286,-243.516 708.718,-244.269 711.494,-250.695"/>
</g>
<!-- Node20 -->
<g id="node20" class="node"><title>Node20</title>
<polygon fill="white" stroke="#bfbfbf" points="656,-112.5 656,-131.5 726,-131.5 726,-112.5 656,-112.5"/>
<text text-anchor="middle" x="691" y="-119.5" font-family="Helvetica,sans-Serif" font-size="10.00">QAtomicInt</text>
</g>
<!-- Node19&#45;&gt;Node20 -->
<g id="edge24" class="edge"><title>Node19&#45;&gt;Node20</title>
<path fill="none" stroke="midnightblue" d="M691,-168.083C691,-161.006 691,-150.861 691,-141.986"/>
<polygon fill="midnightblue" stroke="midnightblue" points="694.5,-141.751 691,-131.751 687.5,-141.751 694.5,-141.751"/>
</g>
<!-- Node21&#45;&gt;Node3 -->
<g id="edge28" class="edge"><title>Node21&#45;&gt;Node3</title>
<path fill="none" stroke="midnightblue" d="M707.087,-224.432C681.882,-216.902 646.354,-204.558 618,-188 594.547,-174.303 571.221,-153.314 556.494,-138.914"/>
<polygon fill="midnightblue" stroke="midnightblue" points="558.799,-136.27 549.25,-131.68 553.853,-141.223 558.799,-136.27"/>
</g>
<!-- Node21&#45;&gt;Node9 -->
<g id="edge29" class="edge"><title>Node21&#45;&gt;Node9</title>
<path fill="none" stroke="midnightblue" d="M745.89,-224.319C752.269,-215.684 761.308,-201.77 765,-188 774.404,-152.925 765.019,-132.435 735,-112 678.851,-73.7783 471.862,-67.8545 386.833,-67.0583"/>
<polygon fill="midnightblue" stroke="midnightblue" points="386.64,-63.5568 376.614,-66.9821 386.588,-70.5567 386.64,-63.5568"/>
</g>
<!-- Node21&#45;&gt;Node18 -->
<g id="edge30" class="edge"><title>Node21&#45;&gt;Node18</title>
<path fill="none" stroke="midnightblue" d="M776.556,-226.194C820.22,-218.161 894.688,-204.094 968.251,-188.085"/>
<polygon fill="midnightblue" stroke="midnightblue" points="969.131,-191.475 978.151,-185.917 967.634,-184.637 969.131,-191.475"/>
</g>
<!-- Node21&#45;&gt;Node19 -->
<g id="edge31" class="edge"><title>Node21&#45;&gt;Node19</title>
<path fill="none" stroke="midnightblue" d="M731.074,-224.083C724.154,-216.298 713.935,-204.801 705.548,-195.367"/>
<polygon fill="midnightblue" stroke="midnightblue" points="708.038,-192.9 698.779,-187.751 702.806,-197.55 708.038,-192.9"/>
</g>
<!-- Node22 -->
<g id="node22" class="node"><title>Node22</title>
<polygon fill="white" stroke="#bfbfbf" points="846.5,-112.5 846.5,-131.5 895.5,-131.5 895.5,-112.5 846.5,-112.5"/>
<text text-anchor="middle" x="871" y="-119.5" font-family="Helvetica,sans-Serif" font-size="10.00">QHash</text>
</g>
<!-- Node21&#45;&gt;Node22 -->
<g id="edge27" class="edge"><title>Node21&#45;&gt;Node22</title>
<path fill="none" stroke="midnightblue" d="M750.959,-224.294C763.026,-215.413 782.097,-201.113 798,-188 817.7,-171.756 839.462,-152.152 854.055,-138.749"/>
<polygon fill="midnightblue" stroke="midnightblue" points="856.775,-141.001 861.75,-131.647 852.028,-135.858 856.775,-141.001"/>
</g>
<!-- Node23 -->
<g id="node23" class="node"><title>Node23</title>
<g id="a_node23"><a xlink:href="../../d2/d5b/torcdevicehandler_8h.html" target="_top" xlink:title="torcdevicehandler.h">
<polygon fill="white" stroke="black" points="850,-168.5 850,-187.5 960,-187.5 960,-168.5 850,-168.5"/>
<text text-anchor="middle" x="905" y="-175.5" font-family="Helvetica,sans-Serif" font-size="10.00">torcdevicehandler.h</text>
</a>
</g>
</g>
<!-- Node21&#45;&gt;Node23 -->
<g id="edge32" class="edge"><title>Node21&#45;&gt;Node23</title>
<path fill="none" stroke="midnightblue" d="M765.303,-224.444C793.351,-215.32 837.944,-200.813 869.184,-190.651"/>
<polygon fill="midnightblue" stroke="midnightblue" points="870.393,-193.938 878.82,-187.516 868.228,-187.282 870.393,-193.938"/>
</g>
<!-- Node23&#45;&gt;Node3 -->
<g id="edge34" class="edge"><title>Node23&#45;&gt;Node3</title>
<path fill="none" stroke="midnightblue" d="M849.716,-168.799C774.547,-157.647 642.126,-138.002 577.942,-128.48"/>
<polygon fill="midnightblue" stroke="midnightblue" points="578.284,-124.993 567.879,-126.988 577.257,-131.917 578.284,-124.993"/>
</g>
<!-- Node23&#45;&gt;Node22 -->
<g id="edge33" class="edge"><title>Node23&#45;&gt;Node22</title>
<path fill="none" stroke="midnightblue" d="M899.386,-168.083C894.633,-160.534 887.682,-149.495 881.848,-140.23"/>
<polygon fill="midnightblue" stroke="midnightblue" points="884.8,-138.349 876.51,-131.751 878.876,-142.078 884.8,-138.349"/>
</g>
<!-- Node24 -->
<g id="node24" class="node"><title>Node24</title>
<polygon fill="white" stroke="#bfbfbf" points="973,-112.5 973,-131.5 1031,-131.5 1031,-112.5 973,-112.5"/>
<text text-anchor="middle" x="1002" y="-119.5" font-family="Helvetica,sans-Serif" font-size="10.00">QVariant</text>
</g>
<!-- Node23&#45;&gt;Node24 -->
<g id="edge35" class="edge"><title>Node23&#45;&gt;Node24</title>
<path fill="none" stroke="midnightblue" d="M920.585,-168.324C935.999,-159.743 959.812,-146.486 977.71,-136.522"/>
<polygon fill="midnightblue" stroke="midnightblue" points="979.419,-139.577 986.454,-131.655 976.014,-133.461 979.419,-139.577"/>
</g>
<!-- Node25&#45;&gt;Node3 -->
<g id="edge37" class="edge"><title>Node25&#45;&gt;Node3</title>
<path fill="none" stroke="midnightblue" d="M713.05,-280.253C685.105,-264.413 626.429,-228.81 586,-188 571.853,-173.72 559.165,-154.505 550.897,-140.676"/>
<polygon fill="midnightblue" stroke="midnightblue" points="553.741,-138.603 545.7,-131.705 547.684,-142.113 553.741,-138.603"/>
</g>
<!-- Node25&#45;&gt;Node4 -->
<g id="edge41" class="edge"><title>Node25&#45;&gt;Node4</title>
<path fill="none" stroke="midnightblue" d="M690.433,-283.067C629.242,-273.653 509.47,-255.226 437.303,-244.124"/>
<polygon fill="midnightblue" stroke="midnightblue" points="437.43,-240.602 427.014,-242.541 436.365,-247.521 437.43,-240.602"/>
</g>
<!-- Node25&#45;&gt;Node18 -->
<g id="edge38" class="edge"><title>Node25&#45;&gt;Node18</title>
<path fill="none" stroke="midnightblue" d="M755.878,-280.42C782.333,-271.806 823.773,-257.858 859,-244 901.228,-227.389 949.123,-205.653 978.446,-192.006"/>
<polygon fill="midnightblue" stroke="midnightblue" points="980.067,-195.112 987.644,-187.707 977.103,-188.771 980.067,-195.112"/>
</g>
<!-- Node25&#45;&gt;Node21 -->
<g id="edge40" class="edge"><title>Node25&#45;&gt;Node21</title>
<path fill="none" stroke="midnightblue" d="M730.651,-280.083C731.976,-272.927 733.882,-262.635 735.539,-253.691"/>
<polygon fill="midnightblue" stroke="midnightblue" points="739,-254.221 737.379,-243.751 732.117,-252.947 739,-254.221"/>
</g>
<!-- Node25&#45;&gt;Node24 -->
<g id="edge39" class="edge"><title>Node25&#45;&gt;Node24</title>
<path fill="none" stroke="midnightblue" d="M767.697,-282.513C844.413,-268.76 1011.14,-234.114 1043,-188 1054.62,-171.174 1037.63,-151.194 1022.12,-137.87"/>
<polygon fill="midnightblue" stroke="midnightblue" points="1024.28,-135.118 1014.3,-131.56 1019.89,-140.565 1024.28,-135.118"/>
</g>
</g>
</svg>
