<?xml version="1.0" encoding="UTF-8" standalone="no"?>
<!DOCTYPE svg PUBLIC "-//W3C//DTD SVG 1.1//EN"
 "http://www.w3.org/Graphics/SVG/1.1/DTD/svg11.dtd">
<!-- Generated by graphviz version 2.38.0 (20140413.2041)
 -->
<!-- Title: TorcNotificationFactory Pages: 1 -->
<svg width="342pt" height="84pt"
 viewBox="0.00 0.00 342.00 84.00" xmlns="http://www.w3.org/2000/svg" xmlns:xlink="http://www.w3.org/1999/xlink">
<g id="graph0" class="graph" transform="scale(1 1) rotate(0) translate(4 80)">
<title>TorcNotificationFactory</title>
<polygon fill="white" stroke="none" points="-4,4 -4,-80 338,-80 338,4 -4,4"/>
<!-- Node1 -->
<g id="node1" class="node"><title>Node1</title>
<polygon fill="#bfbfbf" stroke="black" points="106.5,-56.5 106.5,-75.5 230.5,-75.5 230.5,-56.5 106.5,-56.5"/>
<text text-anchor="middle" x="168.5" y="-63.5" font-family="Helvetica,sans-Serif" font-size="10.00">TorcNotificationFactory</text>
</g>
<!-- Node2 -->
<g id="node2" class="node"><title>Node2</title>
<g id="a_node2"><a xlink:href="../../dc/d25/class_torc_system_notification_factory.html" target="_top" xlink:title="Create instances of TorcSystemNotification. ">
<polygon fill="white" stroke="black" points="0,-0.5 0,-19.5 161,-19.5 161,-0.5 0,-0.5"/>
<text text-anchor="middle" x="80.5" y="-7.5" font-family="Helvetica,sans-Serif" font-size="10.00">TorcSystemNotificationFactory</text>
</a>
</g>
</g>
<!-- Node1&#45;&gt;Node2 -->
<g id="edge1" class="edge"><title>Node1&#45;&gt;Node2</title>
<path fill="none" stroke="midnightblue" d="M145.523,-50.9005C129.387,-40.9986 108.319,-28.0705 94.6036,-19.6545"/>
<polygon fill="midnightblue" stroke="midnightblue" points="144.007,-54.0769 154.361,-56.324 147.669,-48.1106 144.007,-54.0769"/>
</g>
<!-- Node3 -->
<g id="node3" class="node"><title>Node3</title>
<g id="a_node3"><a xlink:href="../../dc/d0f/class_torc_trigger_notification_factory.html" target="_top" xlink:title="TorcTriggerNotificationFactory">
<polygon fill="white" stroke="black" points="179,-0.5 179,-19.5 334,-19.5 334,-0.5 179,-0.5"/>
<text text-anchor="middle" x="256.5" y="-7.5" font-family="Helvetica,sans-Serif" font-size="10.00">TorcTriggerNotificationFactory</text>
</a>
</g>
</g>
<!-- Node1&#45;&gt;Node3 -->
<g id="edge2" class="edge"><title>Node1&#45;&gt;Node3</title>
<path fill="none" stroke="midnightblue" d="M191.477,-50.9005C207.613,-40.9986 228.681,-28.0705 242.396,-19.6545"/>
<polygon fill="midnightblue" stroke="midnightblue" points="189.331,-48.1106 182.639,-56.324 192.993,-54.0769 189.331,-48.1106"/>
</g>
</g>
</svg>
