<?xml version="1.0" encoding="UTF-8" standalone="no"?>
<!DOCTYPE svg PUBLIC "-//W3C//DTD SVG 1.1//EN"
 "http://www.w3.org/Graphics/SVG/1.1/DTD/svg11.dtd">
<!-- Generated by graphviz version 2.38.0 (20140413.2041)
 -->
<!-- Title: torcpowerosx.h Pages: 1 -->
<svg width="1010pt" height="420pt"
 viewBox="0.00 0.00 1010.00 420.00" xmlns="http://www.w3.org/2000/svg" xmlns:xlink="http://www.w3.org/1999/xlink">
<g id="graph0" class="graph" transform="scale(1 1) rotate(0) translate(4 416)">
<title>torcpowerosx.h</title>
<polygon fill="white" stroke="none" points="-4,4 -4,-416 1006,-416 1006,4 -4,4"/>
<!-- Node1 -->
<g id="node1" class="node"><title>Node1</title>
<polygon fill="#bfbfbf" stroke="black" points="287.5,-392.5 287.5,-411.5 376.5,-411.5 376.5,-392.5 287.5,-392.5"/>
<text text-anchor="middle" x="332" y="-399.5" font-family="Helvetica,sans-Serif" font-size="10.00">torcpowerosx.h</text>
</g>
<!-- Node2 -->
<g id="node2" class="node"><title>Node2</title>
<polygon fill="white" stroke="#bfbfbf" points="0,-336.5 0,-355.5 180,-355.5 180,-336.5 0,-336.5"/>
<text text-anchor="middle" x="90" y="-343.5" font-family="Helvetica,sans-Serif" font-size="10.00">CoreFoundation/CoreFoundation.h</text>
</g>
<!-- Node1&#45;&gt;Node2 -->
<g id="edge1" class="edge"><title>Node1&#45;&gt;Node2</title>
<path fill="none" stroke="midnightblue" d="M293.654,-392.444C251.527,-383.043 183.794,-367.929 138.128,-357.739"/>
<polygon fill="midnightblue" stroke="midnightblue" points="138.688,-354.278 128.166,-355.516 137.164,-361.11 138.688,-354.278"/>
</g>
<!-- Node3 -->
<g id="node3" class="node"><title>Node3</title>
<polygon fill="white" stroke="#bfbfbf" points="198,-336.5 198,-355.5 330,-355.5 330,-336.5 198,-336.5"/>
<text text-anchor="middle" x="264" y="-343.5" font-family="Helvetica,sans-Serif" font-size="10.00">IOKit/pwr_mgt/IOPMLib.h</text>
</g>
<!-- Node1&#45;&gt;Node3 -->
<g id="edge2" class="edge"><title>Node1&#45;&gt;Node3</title>
<path fill="none" stroke="midnightblue" d="M321.075,-392.324C310.825,-384.185 295.279,-371.839 282.999,-362.087"/>
<polygon fill="midnightblue" stroke="midnightblue" points="285.132,-359.312 275.124,-355.834 280.779,-364.794 285.132,-359.312"/>
</g>
<!-- Node4 -->
<g id="node4" class="node"><title>Node4</title>
<polygon fill="white" stroke="#bfbfbf" points="348.5,-336.5 348.5,-355.5 451.5,-355.5 451.5,-336.5 348.5,-336.5"/>
<text text-anchor="middle" x="400" y="-343.5" font-family="Helvetica,sans-Serif" font-size="10.00">IOKit/IOMessage.h</text>
</g>
<!-- Node1&#45;&gt;Node4 -->
<g id="edge3" class="edge"><title>Node1&#45;&gt;Node4</title>
<path fill="none" stroke="midnightblue" d="M342.925,-392.324C353.175,-384.185 368.721,-371.839 381.001,-362.087"/>
<polygon fill="midnightblue" stroke="midnightblue" points="383.221,-364.794 388.876,-355.834 378.868,-359.312 383.221,-364.794"/>
</g>
<!-- Node5 -->
<g id="node5" class="node"><title>Node5</title>
<g id="a_node5"><a xlink:href="../../d1/da5/torcpower_8h.html" target="_top" xlink:title="torcpower.h">
<polygon fill="white" stroke="black" points="470,-336.5 470,-355.5 542,-355.5 542,-336.5 470,-336.5"/>
<text text-anchor="middle" x="506" y="-343.5" font-family="Helvetica,sans-Serif" font-size="10.00">torcpower.h</text>
</a>
</g>
</g>
<!-- Node1&#45;&gt;Node5 -->
<g id="edge4" class="edge"><title>Node1&#45;&gt;Node5</title>
<path fill="none" stroke="midnightblue" d="M359.571,-392.444C389.097,-383.28 436.118,-368.688 468.883,-358.519"/>
<polygon fill="midnightblue" stroke="midnightblue" points="470.045,-361.823 478.558,-355.516 467.97,-355.138 470.045,-361.823"/>
</g>
<!-- Node6 -->
<g id="node6" class="node"><title>Node6</title>
<polygon fill="white" stroke="#bfbfbf" points="91.5,-224.5 91.5,-243.5 146.5,-243.5 146.5,-224.5 91.5,-224.5"/>
<text text-anchor="middle" x="119" y="-231.5" font-family="Helvetica,sans-Serif" font-size="10.00">QObject</text>
</g>
<!-- Node5&#45;&gt;Node6 -->
<g id="edge5" class="edge"><title>Node5&#45;&gt;Node6</title>
<path fill="none" stroke="midnightblue" d="M475.955,-336.46C406.101,-316.605 232.903,-267.376 156.375,-245.623"/>
<polygon fill="midnightblue" stroke="midnightblue" points="157.246,-242.232 146.67,-242.865 155.332,-248.966 157.246,-242.232"/>
</g>
<!-- Node7 -->
<g id="node7" class="node"><title>Node7</title>
<polygon fill="white" stroke="#bfbfbf" points="530.5,-168.5 530.5,-187.5 583.5,-187.5 583.5,-168.5 530.5,-168.5"/>
<text text-anchor="middle" x="557" y="-175.5" font-family="Helvetica,sans-Serif" font-size="10.00">QMutex</text>
</g>
<!-- Node5&#45;&gt;Node7 -->
<g id="edge6" class="edge"><title>Node5&#45;&gt;Node7</title>
<path fill="none" stroke="midnightblue" d="M526.325,-336.39C556.766,-322.231 613.071,-290.85 636,-244 647.613,-220.273 619.065,-202.175 593.103,-191.175"/>
<polygon fill="midnightblue" stroke="midnightblue" points="594.319,-187.892 583.734,-187.446 591.731,-194.396 594.319,-187.892"/>
</g>
<!-- Node8 -->
<g id="node8" class="node"><title>Node8</title>
<g id="a_node8"><a xlink:href="../../db/df5/torcsetting_8h.html" target="_top" xlink:title="torcsetting.h">
<polygon fill="white" stroke="black" points="382.5,-280.5 382.5,-299.5 459.5,-299.5 459.5,-280.5 382.5,-280.5"/>
<text text-anchor="middle" x="421" y="-287.5" font-family="Helvetica,sans-Serif" font-size="10.00">torcsetting.h</text>
</a>
</g>
</g>
<!-- Node5&#45;&gt;Node8 -->
<g id="edge7" class="edge"><title>Node5&#45;&gt;Node8</title>
<path fill="none" stroke="midnightblue" d="M492.343,-336.324C479.084,-327.9 458.732,-314.971 443.154,-305.074"/>
<polygon fill="midnightblue" stroke="midnightblue" points="444.94,-302.063 434.623,-299.655 441.187,-307.971 444.94,-302.063"/>
</g>
<!-- Node13 -->
<g id="node13" class="node"><title>Node13</title>
<g id="a_node13"><a xlink:href="../../d3/dee/torchttpservice_8h.html" target="_top" xlink:title="torchttpservice.h">
<polygon fill="white" stroke="black" points="700,-224.5 700,-243.5 798,-243.5 798,-224.5 700,-224.5"/>
<text text-anchor="middle" x="749" y="-231.5" font-family="Helvetica,sans-Serif" font-size="10.00">torchttpservice.h</text>
</a>
</g>
</g>
<!-- Node5&#45;&gt;Node13 -->
<g id="edge32" class="edge"><title>Node5&#45;&gt;Node13</title>
<path fill="none" stroke="midnightblue" d="M542.221,-339.429C576.337,-333.178 628.16,-321.046 669,-300 693.965,-287.135 718.386,-265.615 733.548,-250.887"/>
<polygon fill="midnightblue" stroke="midnightblue" points="736.348,-253.039 740.963,-243.502 731.408,-248.079 736.348,-253.039"/>
</g>
<!-- Node8&#45;&gt;Node6 -->
<g id="edge10" class="edge"><title>Node8&#45;&gt;Node6</title>
<path fill="none" stroke="midnightblue" d="M382.22,-283.29C332.369,-275.758 242.934,-261.598 156.777,-244.038"/>
<polygon fill="midnightblue" stroke="midnightblue" points="157.333,-240.579 146.833,-241.993 155.923,-247.435 157.333,-240.579"/>
</g>
<!-- Node9 -->
<g id="node9" class="node"><title>Node9</title>
<polygon fill="white" stroke="#bfbfbf" points="251.5,-224.5 251.5,-243.5 292.5,-243.5 292.5,-224.5 251.5,-224.5"/>
<text text-anchor="middle" x="272" y="-231.5" font-family="Helvetica,sans-Serif" font-size="10.00">QSet</text>
</g>
<!-- Node8&#45;&gt;Node9 -->
<g id="edge8" class="edge"><title>Node8&#45;&gt;Node9</title>
<path fill="none" stroke="midnightblue" d="M397.391,-280.444C371.665,-271.12 330.432,-256.177 302.327,-245.991"/>
<polygon fill="midnightblue" stroke="midnightblue" points="303.214,-242.59 292.62,-242.473 300.829,-249.171 303.214,-242.59"/>
</g>
<!-- Node10 -->
<g id="node10" class="node"><title>Node10</title>
<polygon fill="white" stroke="#bfbfbf" points="311,-224.5 311,-243.5 403,-243.5 403,-224.5 311,-224.5"/>
<text text-anchor="middle" x="357" y="-231.5" font-family="Helvetica,sans-Serif" font-size="10.00">QReadWriteLock</text>
</g>
<!-- Node8&#45;&gt;Node10 -->
<g id="edge9" class="edge"><title>Node8&#45;&gt;Node10</title>
<path fill="none" stroke="midnightblue" d="M410.717,-280.324C401.164,-272.263 386.72,-260.077 375.216,-250.369"/>
<polygon fill="midnightblue" stroke="midnightblue" points="377.37,-247.608 367.47,-243.834 372.856,-252.958 377.37,-247.608"/>
</g>
<!-- Node11 -->
<g id="node11" class="node"><title>Node11</title>
<polygon fill="white" stroke="#bfbfbf" points="569,-224.5 569,-243.5 627,-243.5 627,-224.5 569,-224.5"/>
<text text-anchor="middle" x="598" y="-231.5" font-family="Helvetica,sans-Serif" font-size="10.00">QVariant</text>
</g>
<!-- Node8&#45;&gt;Node11 -->
<g id="edge11" class="edge"><title>Node8&#45;&gt;Node11</title>
<path fill="none" stroke="midnightblue" d="M449.046,-280.444C479.082,-271.28 526.913,-256.688 560.243,-246.519"/>
<polygon fill="midnightblue" stroke="midnightblue" points="561.542,-249.782 570.085,-243.516 559.499,-243.087 561.542,-249.782"/>
</g>
<!-- Node12 -->
<g id="node12" class="node"><title>Node12</title>
<polygon fill="white" stroke="#bfbfbf" points="164.5,-224.5 164.5,-243.5 233.5,-243.5 233.5,-224.5 164.5,-224.5"/>
<text text-anchor="middle" x="199" y="-231.5" font-family="Helvetica,sans-Serif" font-size="10.00">QStringList</text>
</g>
<!-- Node8&#45;&gt;Node12 -->
<g id="edge12" class="edge"><title>Node8&#45;&gt;Node12</title>
<path fill="none" stroke="midnightblue" d="M385.823,-280.444C347.308,-271.075 285.462,-256.031 243.576,-245.843"/>
<polygon fill="midnightblue" stroke="midnightblue" points="244.19,-242.39 233.647,-243.428 242.536,-249.192 244.19,-242.39"/>
</g>
<!-- Node8&#45;&gt;Node13 -->
<g id="edge13" class="edge"><title>Node8&#45;&gt;Node13</title>
<path fill="none" stroke="midnightblue" d="M459.59,-282.647C516.45,-273.286 623.197,-255.711 689.947,-244.722"/>
<polygon fill="midnightblue" stroke="midnightblue" points="690.6,-248.162 699.899,-243.084 689.463,-241.255 690.6,-248.162"/>
</g>
<!-- Node26 -->
<g id="node26" class="node"><title>Node26</title>
<g id="a_node26"><a xlink:href="../../d8/dfe/torcreferencecounted_8h.html" target="_top" xlink:title="torcreferencecounted.h">
<polygon fill="white" stroke="black" points="421.5,-224.5 421.5,-243.5 550.5,-243.5 550.5,-224.5 421.5,-224.5"/>
<text text-anchor="middle" x="486" y="-231.5" font-family="Helvetica,sans-Serif" font-size="10.00">torcreferencecounted.h</text>
</a>
</g>
</g>
<!-- Node8&#45;&gt;Node26 -->
<g id="edge30" class="edge"><title>Node8&#45;&gt;Node26</title>
<path fill="none" stroke="midnightblue" d="M431.443,-280.324C441.146,-272.263 455.815,-260.077 467.5,-250.369"/>
<polygon fill="midnightblue" stroke="midnightblue" points="469.911,-252.916 475.367,-243.834 465.438,-247.532 469.911,-252.916"/>
</g>
<!-- Node13&#45;&gt;Node7 -->
<g id="edge15" class="edge"><title>Node13&#45;&gt;Node7</title>
<path fill="none" stroke="midnightblue" d="M718.577,-224.444C684.555,-214.875 629.485,-199.386 593.256,-189.197"/>
<polygon fill="midnightblue" stroke="midnightblue" points="594.145,-185.811 583.571,-186.473 592.25,-192.55 594.145,-185.811"/>
</g>
<!-- Node14 -->
<g id="node14" class="node"><title>Node14</title>
<polygon fill="white" stroke="#bfbfbf" points="958,-56.5 958,-75.5 1002,-75.5 1002,-56.5 958,-56.5"/>
<text text-anchor="middle" x="980" y="-63.5" font-family="Helvetica,sans-Serif" font-size="10.00">QMap</text>
</g>
<!-- Node13&#45;&gt;Node14 -->
<g id="edge14" class="edge"><title>Node13&#45;&gt;Node14</title>
<path fill="none" stroke="midnightblue" d="M798.199,-226.923C847.689,-219.868 919.524,-206.751 940,-188 969.28,-161.187 977.166,-112.511 979.263,-85.7966"/>
<polygon fill="midnightblue" stroke="midnightblue" points="982.774,-85.7092 979.865,-75.5217 975.786,-85.2999 982.774,-85.7092"/>
</g>
<!-- Node15 -->
<g id="node15" class="node"><title>Node15</title>
<polygon fill="white" stroke="#bfbfbf" points="718.5,-168.5 718.5,-187.5 797.5,-187.5 797.5,-168.5 718.5,-168.5"/>
<text text-anchor="middle" x="758" y="-175.5" font-family="Helvetica,sans-Serif" font-size="10.00">QMetaObject</text>
</g>
<!-- Node13&#45;&gt;Node15 -->
<g id="edge16" class="edge"><title>Node13&#45;&gt;Node15</title>
<path fill="none" stroke="midnightblue" d="M750.486,-224.083C751.679,-216.927 753.394,-206.635 754.885,-197.691"/>
<polygon fill="midnightblue" stroke="midnightblue" points="758.35,-198.19 756.541,-187.751 751.445,-197.04 758.35,-198.19"/>
</g>
<!-- Node16 -->
<g id="node16" class="node"><title>Node16</title>
<polygon fill="white" stroke="#bfbfbf" points="815.5,-168.5 815.5,-187.5 914.5,-187.5 914.5,-168.5 815.5,-168.5"/>
<text text-anchor="middle" x="865" y="-175.5" font-family="Helvetica,sans-Serif" font-size="10.00">QCoreApplication</text>
</g>
<!-- Node13&#45;&gt;Node16 -->
<g id="edge17" class="edge"><title>Node13&#45;&gt;Node16</title>
<path fill="none" stroke="midnightblue" d="M767.381,-224.444C786.216,-215.675 815.731,-201.935 837.379,-191.858"/>
<polygon fill="midnightblue" stroke="midnightblue" points="839.117,-194.91 846.705,-187.516 836.162,-188.564 839.117,-194.91"/>
</g>
<!-- Node17 -->
<g id="node17" class="node"><title>Node17</title>
<g id="a_node17"><a xlink:href="../../d4/d11/torchttphandler_8h.html" target="_top" xlink:title="torchttphandler.h">
<polygon fill="white" stroke="black" points="601.5,-168.5 601.5,-187.5 700.5,-187.5 700.5,-168.5 601.5,-168.5"/>
<text text-anchor="middle" x="651" y="-175.5" font-family="Helvetica,sans-Serif" font-size="10.00">torchttphandler.h</text>
</a>
</g>
</g>
<!-- Node13&#45;&gt;Node17 -->
<g id="edge18" class="edge"><title>Node13&#45;&gt;Node17</title>
<path fill="none" stroke="midnightblue" d="M733.255,-224.324C717.681,-215.743 693.623,-202.486 675.541,-192.522"/>
<polygon fill="midnightblue" stroke="midnightblue" points="677.154,-189.415 666.706,-187.655 673.776,-195.546 677.154,-189.415"/>
</g>
<!-- Node20 -->
<g id="node20" class="node"><title>Node20</title>
<g id="a_node20"><a xlink:href="../../df/dd7/torchttprequest_8h.html" target="_top" xlink:title="torchttprequest.h">
<polygon fill="white" stroke="black" points="782.5,-112.5 782.5,-131.5 883.5,-131.5 883.5,-112.5 782.5,-112.5"/>
<text text-anchor="middle" x="833" y="-119.5" font-family="Helvetica,sans-Serif" font-size="10.00">torchttprequest.h</text>
</a>
</g>
</g>
<!-- Node13&#45;&gt;Node20 -->
<g id="edge29" class="edge"><title>Node13&#45;&gt;Node20</title>
<path fill="none" stroke="midnightblue" d="M798.317,-227.066C844.51,-220.374 908.67,-207.771 924,-188 942.167,-164.571 906.282,-145.965 874.365,-134.765"/>
<polygon fill="midnightblue" stroke="midnightblue" points="875.245,-131.369 864.652,-131.529 873.033,-138.01 875.245,-131.369"/>
</g>
<!-- Node18 -->
<g id="node18" class="node"><title>Node18</title>
<polygon fill="white" stroke="#bfbfbf" points="625.5,-56.5 625.5,-75.5 678.5,-75.5 678.5,-56.5 625.5,-56.5"/>
<text text-anchor="middle" x="652" y="-63.5" font-family="Helvetica,sans-Serif" font-size="10.00">QString</text>
</g>
<!-- Node17&#45;&gt;Node18 -->
<g id="edge19" class="edge"><title>Node17&#45;&gt;Node18</title>
<path fill="none" stroke="midnightblue" d="M651.078,-168.368C651.24,-150.617 651.612,-109.666 651.831,-85.5974"/>
<polygon fill="midnightblue" stroke="midnightblue" points="655.331,-85.6229 651.922,-75.5914 648.331,-85.5592 655.331,-85.6229"/>
</g>
<!-- Node19 -->
<g id="node19" class="node"><title>Node19</title>
<polygon fill="white" stroke="#bfbfbf" points="679,-112.5 679,-131.5 757,-131.5 757,-112.5 679,-112.5"/>
<text text-anchor="middle" x="718" y="-119.5" font-family="Helvetica,sans-Serif" font-size="10.00">QVariantMap</text>
</g>
<!-- Node17&#45;&gt;Node19 -->
<g id="edge20" class="edge"><title>Node17&#45;&gt;Node19</title>
<path fill="none" stroke="midnightblue" d="M661.765,-168.324C671.766,-160.263 686.887,-148.077 698.93,-138.369"/>
<polygon fill="midnightblue" stroke="midnightblue" points="701.45,-140.834 707.039,-131.834 697.057,-135.384 701.45,-140.834"/>
</g>
<!-- Node17&#45;&gt;Node20 -->
<g id="edge21" class="edge"><title>Node17&#45;&gt;Node20</title>
<path fill="none" stroke="midnightblue" d="M679.838,-168.444C710.856,-159.241 760.329,-144.562 794.618,-134.388"/>
<polygon fill="midnightblue" stroke="midnightblue" points="795.705,-137.716 804.296,-131.516 793.714,-131.006 795.705,-137.716"/>
</g>
<!-- Node20&#45;&gt;Node14 -->
<g id="edge22" class="edge"><title>Node20&#45;&gt;Node14</title>
<path fill="none" stroke="midnightblue" d="M856.293,-112.444C881.096,-103.332 920.511,-88.8531 948.169,-78.6929"/>
<polygon fill="midnightblue" stroke="midnightblue" points="949.599,-81.8965 957.779,-75.1629 947.185,-75.3258 949.599,-81.8965"/>
</g>
<!-- Node20&#45;&gt;Node18 -->
<g id="edge24" class="edge"><title>Node20&#45;&gt;Node18</title>
<path fill="none" stroke="midnightblue" d="M804.32,-112.444C772.929,-103.078 722.529,-88.0419 688.38,-77.8536"/>
<polygon fill="midnightblue" stroke="midnightblue" points="689.359,-74.4934 678.776,-74.9883 687.358,-81.2012 689.359,-74.4934"/>
</g>
<!-- Node21 -->
<g id="node21" class="node"><title>Node21</title>
<polygon fill="white" stroke="#bfbfbf" points="898.5,-56.5 898.5,-75.5 939.5,-75.5 939.5,-56.5 898.5,-56.5"/>
<text text-anchor="middle" x="919" y="-63.5" font-family="Helvetica,sans-Serif" font-size="10.00">QPair</text>
</g>
<!-- Node20&#45;&gt;Node21 -->
<g id="edge23" class="edge"><title>Node20&#45;&gt;Node21</title>
<path fill="none" stroke="midnightblue" d="M846.817,-112.324C860.233,-103.9 880.824,-90.9709 896.586,-81.0741"/>
<polygon fill="midnightblue" stroke="midnightblue" points="898.609,-83.9364 905.217,-75.6545 894.887,-78.0081 898.609,-83.9364"/>
</g>
<!-- Node22 -->
<g id="node22" class="node"><title>Node22</title>
<polygon fill="white" stroke="#bfbfbf" points="696.5,-56.5 696.5,-75.5 767.5,-75.5 767.5,-56.5 696.5,-56.5"/>
<text text-anchor="middle" x="732" y="-63.5" font-family="Helvetica,sans-Serif" font-size="10.00">QDateTime</text>
</g>
<!-- Node20&#45;&gt;Node22 -->
<g id="edge25" class="edge"><title>Node20&#45;&gt;Node22</title>
<path fill="none" stroke="midnightblue" d="M816.773,-112.324C800.649,-103.703 775.7,-90.3643 757.036,-80.3855"/>
<polygon fill="midnightblue" stroke="midnightblue" points="758.656,-77.283 748.187,-75.6545 755.356,-83.456 758.656,-77.283"/>
</g>
<!-- Node23 -->
<g id="node23" class="node"><title>Node23</title>
<g id="a_node23"><a xlink:href="../../de/de6/torchttpreader_8h.html" target="_top" xlink:title="torchttpreader.h">
<polygon fill="white" stroke="black" points="785.5,-56.5 785.5,-75.5 880.5,-75.5 880.5,-56.5 785.5,-56.5"/>
<text text-anchor="middle" x="833" y="-63.5" font-family="Helvetica,sans-Serif" font-size="10.00">torchttpreader.h</text>
</a>
</g>
</g>
<!-- Node20&#45;&gt;Node23 -->
<g id="edge26" class="edge"><title>Node20&#45;&gt;Node23</title>
<path fill="none" stroke="midnightblue" d="M833,-112.083C833,-105.006 833,-94.8611 833,-85.9865"/>
<polygon fill="midnightblue" stroke="midnightblue" points="836.5,-85.751 833,-75.7511 829.5,-85.7511 836.5,-85.751"/>
</g>
<!-- Node24 -->
<g id="node24" class="node"><title>Node24</title>
<polygon fill="white" stroke="#bfbfbf" points="752.5,-0.5 752.5,-19.5 823.5,-19.5 823.5,-0.5 752.5,-0.5"/>
<text text-anchor="middle" x="788" y="-7.5" font-family="Helvetica,sans-Serif" font-size="10.00">QByteArray</text>
</g>
<!-- Node23&#45;&gt;Node24 -->
<g id="edge27" class="edge"><title>Node23&#45;&gt;Node24</title>
<path fill="none" stroke="midnightblue" d="M825.569,-56.083C819.147,-48.3768 809.694,-37.0333 801.878,-27.6531"/>
<polygon fill="midnightblue" stroke="midnightblue" points="804.383,-25.1927 795.293,-19.7511 799.006,-29.674 804.383,-25.1927"/>
</g>
<!-- Node25 -->
<g id="node25" class="node"><title>Node25</title>
<polygon fill="white" stroke="#bfbfbf" points="842,-0.5 842,-19.5 914,-19.5 914,-0.5 842,-0.5"/>
<text text-anchor="middle" x="878" y="-7.5" font-family="Helvetica,sans-Serif" font-size="10.00">QTcpSocket</text>
</g>
<!-- Node23&#45;&gt;Node25 -->
<g id="edge28" class="edge"><title>Node23&#45;&gt;Node25</title>
<path fill="none" stroke="midnightblue" d="M840.431,-56.083C846.853,-48.3768 856.306,-37.0333 864.122,-27.6531"/>
<polygon fill="midnightblue" stroke="midnightblue" points="866.994,-29.674 870.707,-19.7511 861.617,-25.1927 866.994,-29.674"/>
</g>
<!-- Node27 -->
<g id="node27" class="node"><title>Node27</title>
<polygon fill="white" stroke="#bfbfbf" points="442,-168.5 442,-187.5 512,-187.5 512,-168.5 442,-168.5"/>
<text text-anchor="middle" x="477" y="-175.5" font-family="Helvetica,sans-Serif" font-size="10.00">QAtomicInt</text>
</g>
<!-- Node26&#45;&gt;Node27 -->
<g id="edge31" class="edge"><title>Node26&#45;&gt;Node27</title>
<path fill="none" stroke="midnightblue" d="M484.514,-224.083C483.321,-216.927 481.606,-206.635 480.115,-197.691"/>
<polygon fill="midnightblue" stroke="midnightblue" points="483.555,-197.04 478.459,-187.751 476.65,-198.19 483.555,-197.04"/>
</g>
</g>
</svg>
