<?xml version="1.0" encoding="UTF-8" standalone="no"?>
<!DOCTYPE svg PUBLIC "-//W3C//DTD SVG 1.1//EN"
 "http://www.w3.org/Graphics/SVG/1.1/DTD/svg11.dtd">
<!-- Generated by graphviz version 2.38.0 (20140413.2041)
 -->
<!-- Title: torcpowerosx.h Pages: 1 -->
<svg width="973pt" height="420pt"
 viewBox="0.00 0.00 972.50 420.00" xmlns="http://www.w3.org/2000/svg" xmlns:xlink="http://www.w3.org/1999/xlink">
<g id="graph0" class="graph" transform="scale(1 1) rotate(0) translate(4 416)">
<title>torcpowerosx.h</title>
<polygon fill="white" stroke="none" points="-4,4 -4,-416 968.5,-416 968.5,4 -4,4"/>
<!-- Node1 -->
<g id="node1" class="node"><title>Node1</title>
<polygon fill="#bfbfbf" stroke="black" points="287.5,-392.5 287.5,-411.5 376.5,-411.5 376.5,-392.5 287.5,-392.5"/>
<text text-anchor="middle" x="332" y="-399.5" font-family="Helvetica,sans-Serif" font-size="10.00">torcpowerosx.h</text>
</g>
<!-- Node2 -->
<g id="node2" class="node"><title>Node2</title>
<polygon fill="white" stroke="#bfbfbf" points="0,-336.5 0,-355.5 180,-355.5 180,-336.5 0,-336.5"/>
<text text-anchor="middle" x="90" y="-343.5" font-family="Helvetica,sans-Serif" font-size="10.00">CoreFoundation/CoreFoundation.h</text>
</g>
<!-- Node1&#45;&gt;Node2 -->
<g id="edge1" class="edge"><title>Node1&#45;&gt;Node2</title>
<path fill="none" stroke="midnightblue" d="M293.654,-392.444C251.527,-383.043 183.794,-367.929 138.128,-357.739"/>
<polygon fill="midnightblue" stroke="midnightblue" points="138.688,-354.278 128.166,-355.516 137.164,-361.11 138.688,-354.278"/>
</g>
<!-- Node3 -->
<g id="node3" class="node"><title>Node3</title>
<polygon fill="white" stroke="#bfbfbf" points="198,-336.5 198,-355.5 330,-355.5 330,-336.5 198,-336.5"/>
<text text-anchor="middle" x="264" y="-343.5" font-family="Helvetica,sans-Serif" font-size="10.00">IOKit/pwr_mgt/IOPMLib.h</text>
</g>
<!-- Node1&#45;&gt;Node3 -->
<g id="edge2" class="edge"><title>Node1&#45;&gt;Node3</title>
<path fill="none" stroke="midnightblue" d="M321.075,-392.324C310.825,-384.185 295.279,-371.839 282.999,-362.087"/>
<polygon fill="midnightblue" stroke="midnightblue" points="285.132,-359.312 275.124,-355.834 280.779,-364.794 285.132,-359.312"/>
</g>
<!-- Node4 -->
<g id="node4" class="node"><title>Node4</title>
<polygon fill="white" stroke="#bfbfbf" points="348.5,-336.5 348.5,-355.5 451.5,-355.5 451.5,-336.5 348.5,-336.5"/>
<text text-anchor="middle" x="400" y="-343.5" font-family="Helvetica,sans-Serif" font-size="10.00">IOKit/IOMessage.h</text>
</g>
<!-- Node1&#45;&gt;Node4 -->
<g id="edge3" class="edge"><title>Node1&#45;&gt;Node4</title>
<path fill="none" stroke="midnightblue" d="M342.925,-392.324C353.175,-384.185 368.721,-371.839 381.001,-362.087"/>
<polygon fill="midnightblue" stroke="midnightblue" points="383.221,-364.794 388.876,-355.834 378.868,-359.312 383.221,-364.794"/>
</g>
<!-- Node5 -->
<g id="node5" class="node"><title>Node5</title>
<g id="a_node5"><a xlink:href="../../d1/da5/torcpower_8h.html" target="_top" xlink:title="torcpower.h">
<polygon fill="white" stroke="black" points="470,-336.5 470,-355.5 542,-355.5 542,-336.5 470,-336.5"/>
<text text-anchor="middle" x="506" y="-343.5" font-family="Helvetica,sans-Serif" font-size="10.00">torcpower.h</text>
</a>
</g>
</g>
<!-- Node1&#45;&gt;Node5 -->
<g id="edge4" class="edge"><title>Node1&#45;&gt;Node5</title>
<path fill="none" stroke="midnightblue" d="M359.571,-392.444C389.097,-383.28 436.118,-368.688 468.883,-358.519"/>
<polygon fill="midnightblue" stroke="midnightblue" points="470.045,-361.823 478.558,-355.516 467.97,-355.138 470.045,-361.823"/>
</g>
<!-- Node6 -->
<g id="node6" class="node"><title>Node6</title>
<polygon fill="white" stroke="#bfbfbf" points="115.5,-224.5 115.5,-243.5 170.5,-243.5 170.5,-224.5 115.5,-224.5"/>
<text text-anchor="middle" x="143" y="-231.5" font-family="Helvetica,sans-Serif" font-size="10.00">QObject</text>
</g>
<!-- Node5&#45;&gt;Node6 -->
<g id="edge5" class="edge"><title>Node5&#45;&gt;Node6</title>
<path fill="none" stroke="midnightblue" d="M477.818,-336.46C413.066,-316.838 253.645,-268.529 180.626,-246.402"/>
<polygon fill="midnightblue" stroke="midnightblue" points="181.5,-243.01 170.915,-243.459 179.47,-249.709 181.5,-243.01"/>
</g>
<!-- Node7 -->
<g id="node7" class="node"><title>Node7</title>
<polygon fill="white" stroke="#bfbfbf" points="485.5,-168.5 485.5,-187.5 538.5,-187.5 538.5,-168.5 485.5,-168.5"/>
<text text-anchor="middle" x="512" y="-175.5" font-family="Helvetica,sans-Serif" font-size="10.00">QMutex</text>
</g>
<!-- Node5&#45;&gt;Node7 -->
<g id="edge6" class="edge"><title>Node5&#45;&gt;Node7</title>
<path fill="none" stroke="midnightblue" d="M516.679,-336.386C535.431,-320.489 573.65,-284.443 588,-244 590.972,-235.623 592.402,-231.722 588,-224 579.322,-208.776 563.246,-198.177 548.107,-191.107"/>
<polygon fill="midnightblue" stroke="midnightblue" points="549.447,-187.873 538.876,-187.151 546.689,-194.307 549.447,-187.873"/>
</g>
<!-- Node8 -->
<g id="node8" class="node"><title>Node8</title>
<g id="a_node8"><a xlink:href="../../db/df5/torcsetting_8h.html" target="_top" xlink:title="torcsetting.h">
<polygon fill="white" stroke="black" points="394.5,-280.5 394.5,-299.5 471.5,-299.5 471.5,-280.5 394.5,-280.5"/>
<text text-anchor="middle" x="433" y="-287.5" font-family="Helvetica,sans-Serif" font-size="10.00">torcsetting.h</text>
</a>
</g>
</g>
<!-- Node5&#45;&gt;Node8 -->
<g id="edge7" class="edge"><title>Node5&#45;&gt;Node8</title>
<path fill="none" stroke="midnightblue" d="M494.271,-336.324C483.163,-328.107 466.258,-315.602 453.017,-305.807"/>
<polygon fill="midnightblue" stroke="midnightblue" points="455.063,-302.967 444.942,-299.834 450.9,-308.595 455.063,-302.967"/>
</g>
<!-- Node13 -->
<g id="node13" class="node"><title>Node13</title>
<g id="a_node13"><a xlink:href="../../d3/dee/torchttpservice_8h.html" target="_top" xlink:title="torchttpservice.h">
<polygon fill="white" stroke="black" points="635,-224.5 635,-243.5 733,-243.5 733,-224.5 635,-224.5"/>
<text text-anchor="middle" x="684" y="-231.5" font-family="Helvetica,sans-Serif" font-size="10.00">torchttpservice.h</text>
</a>
</g>
</g>
<!-- Node5&#45;&gt;Node13 -->
<g id="edge33" class="edge"><title>Node5&#45;&gt;Node13</title>
<path fill="none" stroke="midnightblue" d="M538.266,-336.439C562.352,-329.116 595.385,-317.04 621,-300 640.938,-286.737 659.461,-266.234 671.19,-251.809"/>
<polygon fill="midnightblue" stroke="midnightblue" points="674.117,-253.75 677.566,-243.732 668.623,-249.412 674.117,-253.75"/>
</g>
<!-- Node8&#45;&gt;Node6 -->
<g id="edge10" class="edge"><title>Node8&#45;&gt;Node6</title>
<path fill="none" stroke="midnightblue" d="M394.279,-282.886C346.459,-275.166 262.42,-261.045 180.78,-244.055"/>
<polygon fill="midnightblue" stroke="midnightblue" points="181.343,-240.597 170.838,-241.969 179.906,-247.448 181.343,-240.597"/>
</g>
<!-- Node9 -->
<g id="node9" class="node"><title>Node9</title>
<polygon fill="white" stroke="#bfbfbf" points="188.5,-224.5 188.5,-243.5 229.5,-243.5 229.5,-224.5 188.5,-224.5"/>
<text text-anchor="middle" x="209" y="-231.5" font-family="Helvetica,sans-Serif" font-size="10.00">QSet</text>
</g>
<!-- Node8&#45;&gt;Node9 -->
<g id="edge8" class="edge"><title>Node8&#45;&gt;Node9</title>
<path fill="none" stroke="midnightblue" d="M394.173,-280.755C356.952,-272.681 298.983,-259.669 239.545,-244.01"/>
<polygon fill="midnightblue" stroke="midnightblue" points="240.171,-240.555 229.608,-241.37 238.374,-247.32 240.171,-240.555"/>
</g>
<!-- Node10 -->
<g id="node10" class="node"><title>Node10</title>
<polygon fill="white" stroke="#bfbfbf" points="370,-168.5 370,-187.5 462,-187.5 462,-168.5 370,-168.5"/>
<text text-anchor="middle" x="416" y="-175.5" font-family="Helvetica,sans-Serif" font-size="10.00">QReadWriteLock</text>
</g>
<!-- Node8&#45;&gt;Node10 -->
<g id="edge9" class="edge"><title>Node8&#45;&gt;Node10</title>
<path fill="none" stroke="midnightblue" d="M431.082,-280.408C429.113,-271.378 426.055,-256.742 424,-244 421.507,-228.547 419.382,-210.916 417.95,-197.919"/>
<polygon fill="midnightblue" stroke="midnightblue" points="421.418,-197.434 416.878,-187.861 414.457,-198.176 421.418,-197.434"/>
</g>
<!-- Node11 -->
<g id="node11" class="node"><title>Node11</title>
<polygon fill="white" stroke="#bfbfbf" points="433,-224.5 433,-243.5 491,-243.5 491,-224.5 433,-224.5"/>
<text text-anchor="middle" x="462" y="-231.5" font-family="Helvetica,sans-Serif" font-size="10.00">QVariant</text>
</g>
<!-- Node8&#45;&gt;Node11 -->
<g id="edge11" class="edge"><title>Node8&#45;&gt;Node11</title>
<path fill="none" stroke="midnightblue" d="M437.789,-280.083C441.758,-272.691 447.525,-261.953 452.435,-252.811"/>
<polygon fill="midnightblue" stroke="midnightblue" points="455.653,-254.217 457.3,-243.751 449.486,-250.905 455.653,-254.217"/>
</g>
<!-- Node12 -->
<g id="node12" class="node"><title>Node12</title>
<polygon fill="white" stroke="#bfbfbf" points="509.5,-224.5 509.5,-243.5 578.5,-243.5 578.5,-224.5 509.5,-224.5"/>
<text text-anchor="middle" x="544" y="-231.5" font-family="Helvetica,sans-Serif" font-size="10.00">QStringList</text>
</g>
<!-- Node8&#45;&gt;Node12 -->
<g id="edge12" class="edge"><title>Node8&#45;&gt;Node12</title>
<path fill="none" stroke="midnightblue" d="M450.834,-280.324C468.716,-271.625 496.475,-258.12 517.046,-248.113"/>
<polygon fill="midnightblue" stroke="midnightblue" points="518.749,-251.177 526.21,-243.655 515.687,-244.882 518.749,-251.177"/>
</g>
<!-- Node8&#45;&gt;Node13 -->
<g id="edge13" class="edge"><title>Node8&#45;&gt;Node13</title>
<path fill="none" stroke="midnightblue" d="M471.669,-280.681C515.447,-271.262 586.875,-255.895 634.643,-245.619"/>
<polygon fill="midnightblue" stroke="midnightblue" points="635.419,-249.032 644.459,-243.507 633.946,-242.189 635.419,-249.032"/>
</g>
<!-- Node26 -->
<g id="node26" class="node"><title>Node26</title>
<g id="a_node26"><a xlink:href="../../d8/dfe/torcreferencecounted_8h.html" target="_top" xlink:title="torcreferencecounted.h">
<polygon fill="white" stroke="black" points="247.5,-224.5 247.5,-243.5 376.5,-243.5 376.5,-224.5 247.5,-224.5"/>
<text text-anchor="middle" x="312" y="-231.5" font-family="Helvetica,sans-Serif" font-size="10.00">torcreferencecounted.h</text>
</a>
</g>
</g>
<!-- Node8&#45;&gt;Node26 -->
<g id="edge31" class="edge"><title>Node8&#45;&gt;Node26</title>
<path fill="none" stroke="midnightblue" d="M413.827,-280.444C394.091,-271.636 363.115,-257.812 340.507,-247.722"/>
<polygon fill="midnightblue" stroke="midnightblue" points="341.641,-244.396 331.083,-243.516 338.789,-250.788 341.641,-244.396"/>
</g>
<!-- Node13&#45;&gt;Node7 -->
<g id="edge15" class="edge"><title>Node13&#45;&gt;Node7</title>
<path fill="none" stroke="midnightblue" d="M656.746,-224.444C627.387,-215.226 580.531,-200.516 548.121,-190.34"/>
<polygon fill="midnightblue" stroke="midnightblue" points="549.15,-186.995 538.561,-187.339 547.054,-193.674 549.15,-186.995"/>
</g>
<!-- Node13&#45;&gt;Node10 -->
<g id="edge16" class="edge"><title>Node13&#45;&gt;Node10</title>
<path fill="none" stroke="midnightblue" d="M641.535,-224.444C594.587,-214.984 518.924,-199.738 468.346,-189.547"/>
<polygon fill="midnightblue" stroke="midnightblue" points="468.761,-186.061 458.267,-187.516 467.378,-192.923 468.761,-186.061"/>
</g>
<!-- Node14 -->
<g id="node14" class="node"><title>Node14</title>
<polygon fill="white" stroke="#bfbfbf" points="588,-56.5 588,-75.5 632,-75.5 632,-56.5 588,-56.5"/>
<text text-anchor="middle" x="610" y="-63.5" font-family="Helvetica,sans-Serif" font-size="10.00">QMap</text>
</g>
<!-- Node13&#45;&gt;Node14 -->
<g id="edge14" class="edge"><title>Node13&#45;&gt;Node14</title>
<path fill="none" stroke="midnightblue" d="M682.106,-224.387C679.188,-211.749 673.075,-187.561 665,-168 652.356,-137.372 632.991,-104.007 620.933,-84.3269"/>
<polygon fill="midnightblue" stroke="midnightblue" points="623.764,-82.2513 615.515,-75.6028 617.817,-85.9444 623.764,-82.2513"/>
</g>
<!-- Node15 -->
<g id="node15" class="node"><title>Node15</title>
<polygon fill="white" stroke="#bfbfbf" points="867.5,-168.5 867.5,-187.5 946.5,-187.5 946.5,-168.5 867.5,-168.5"/>
<text text-anchor="middle" x="907" y="-175.5" font-family="Helvetica,sans-Serif" font-size="10.00">QMetaObject</text>
</g>
<!-- Node13&#45;&gt;Node15 -->
<g id="edge17" class="edge"><title>Node13&#45;&gt;Node15</title>
<path fill="none" stroke="midnightblue" d="M719.335,-224.444C757.911,-215.102 819.785,-200.119 861.853,-189.933"/>
<polygon fill="midnightblue" stroke="midnightblue" points="862.935,-193.272 871.83,-187.516 861.287,-186.468 862.935,-193.272"/>
</g>
<!-- Node16 -->
<g id="node16" class="node"><title>Node16</title>
<polygon fill="white" stroke="#bfbfbf" points="556.5,-168.5 556.5,-187.5 655.5,-187.5 655.5,-168.5 556.5,-168.5"/>
<text text-anchor="middle" x="606" y="-175.5" font-family="Helvetica,sans-Serif" font-size="10.00">QCoreApplication</text>
</g>
<!-- Node13&#45;&gt;Node16 -->
<g id="edge18" class="edge"><title>Node13&#45;&gt;Node16</title>
<path fill="none" stroke="midnightblue" d="M671.468,-224.324C659.414,-215.979 640.973,-203.212 626.731,-193.352"/>
<polygon fill="midnightblue" stroke="midnightblue" points="628.715,-190.469 618.501,-187.655 624.731,-196.224 628.715,-190.469"/>
</g>
<!-- Node17 -->
<g id="node17" class="node"><title>Node17</title>
<g id="a_node17"><a xlink:href="../../d4/d11/torchttphandler_8h.html" target="_top" xlink:title="torchttphandler.h">
<polygon fill="white" stroke="black" points="750.5,-168.5 750.5,-187.5 849.5,-187.5 849.5,-168.5 750.5,-168.5"/>
<text text-anchor="middle" x="800" y="-175.5" font-family="Helvetica,sans-Serif" font-size="10.00">torchttphandler.h</text>
</a>
</g>
</g>
<!-- Node13&#45;&gt;Node17 -->
<g id="edge19" class="edge"><title>Node13&#45;&gt;Node17</title>
<path fill="none" stroke="midnightblue" d="M702.381,-224.444C721.216,-215.675 750.731,-201.935 772.379,-191.858"/>
<polygon fill="midnightblue" stroke="midnightblue" points="774.117,-194.91 781.705,-187.516 771.162,-188.564 774.117,-194.91"/>
</g>
<!-- Node20 -->
<g id="node20" class="node"><title>Node20</title>
<g id="a_node20"><a xlink:href="../../df/dd7/torchttprequest_8h.html" target="_top" xlink:title="torchttprequest.h">
<polygon fill="white" stroke="black" points="712.5,-112.5 712.5,-131.5 813.5,-131.5 813.5,-112.5 712.5,-112.5"/>
<text text-anchor="middle" x="763" y="-119.5" font-family="Helvetica,sans-Serif" font-size="10.00">torchttprequest.h</text>
</a>
</g>
</g>
<!-- Node13&#45;&gt;Node20 -->
<g id="edge30" class="edge"><title>Node13&#45;&gt;Node20</title>
<path fill="none" stroke="midnightblue" d="M690.199,-224.368C703.236,-206.215 733.697,-163.802 750.798,-139.99"/>
<polygon fill="midnightblue" stroke="midnightblue" points="753.839,-141.755 756.83,-131.591 748.154,-137.672 753.839,-141.755"/>
</g>
<!-- Node18 -->
<g id="node18" class="node"><title>Node18</title>
<polygon fill="white" stroke="#bfbfbf" points="911.5,-56.5 911.5,-75.5 964.5,-75.5 964.5,-56.5 911.5,-56.5"/>
<text text-anchor="middle" x="938" y="-63.5" font-family="Helvetica,sans-Serif" font-size="10.00">QString</text>
</g>
<!-- Node17&#45;&gt;Node18 -->
<g id="edge20" class="edge"><title>Node17&#45;&gt;Node18</title>
<path fill="none" stroke="midnightblue" d="M849.528,-168.94C873.495,-162.646 900.92,-151.532 919,-132 930.596,-119.473 935.15,-100.248 936.92,-85.9521"/>
<polygon fill="midnightblue" stroke="midnightblue" points="940.426,-86.0357 937.824,-75.7654 933.454,-85.4168 940.426,-86.0357"/>
</g>
<!-- Node19 -->
<g id="node19" class="node"><title>Node19</title>
<polygon fill="white" stroke="#bfbfbf" points="832,-112.5 832,-131.5 910,-131.5 910,-112.5 832,-112.5"/>
<text text-anchor="middle" x="871" y="-119.5" font-family="Helvetica,sans-Serif" font-size="10.00">QVariantMap</text>
</g>
<!-- Node17&#45;&gt;Node19 -->
<g id="edge21" class="edge"><title>Node17&#45;&gt;Node19</title>
<path fill="none" stroke="midnightblue" d="M811.407,-168.324C822.109,-160.185 838.341,-147.839 851.163,-138.087"/>
<polygon fill="midnightblue" stroke="midnightblue" points="853.544,-140.673 859.385,-131.834 849.307,-135.102 853.544,-140.673"/>
</g>
<!-- Node17&#45;&gt;Node20 -->
<g id="edge22" class="edge"><title>Node17&#45;&gt;Node20</title>
<path fill="none" stroke="midnightblue" d="M793.89,-168.083C788.718,-160.534 781.154,-149.495 774.806,-140.23"/>
<polygon fill="midnightblue" stroke="midnightblue" points="777.536,-138.022 768.996,-131.751 771.761,-141.979 777.536,-138.022"/>
</g>
<!-- Node20&#45;&gt;Node14 -->
<g id="edge23" class="edge"><title>Node20&#45;&gt;Node14</title>
<path fill="none" stroke="midnightblue" d="M738.757,-112.444C712.526,-103.186 670.595,-88.3866 641.752,-78.2066"/>
<polygon fill="midnightblue" stroke="midnightblue" points="642.738,-74.8429 632.143,-74.8151 640.408,-81.4438 642.738,-74.8429"/>
</g>
<!-- Node20&#45;&gt;Node18 -->
<g id="edge25" class="edge"><title>Node20&#45;&gt;Node18</title>
<path fill="none" stroke="midnightblue" d="M790.729,-112.444C820.688,-103.199 868.552,-88.4296 901.538,-78.2511"/>
<polygon fill="midnightblue" stroke="midnightblue" points="902.738,-81.5438 911.261,-75.2508 900.674,-74.855 902.738,-81.5438"/>
</g>
<!-- Node21 -->
<g id="node21" class="node"><title>Node21</title>
<polygon fill="white" stroke="#bfbfbf" points="852.5,-56.5 852.5,-75.5 893.5,-75.5 893.5,-56.5 852.5,-56.5"/>
<text text-anchor="middle" x="873" y="-63.5" font-family="Helvetica,sans-Serif" font-size="10.00">QPair</text>
</g>
<!-- Node20&#45;&gt;Node21 -->
<g id="edge24" class="edge"><title>Node20&#45;&gt;Node21</title>
<path fill="none" stroke="midnightblue" d="M780.673,-112.324C798.394,-103.625 825.903,-90.1202 846.288,-80.113"/>
<polygon fill="midnightblue" stroke="midnightblue" points="847.936,-83.2031 855.37,-75.6545 844.851,-76.9195 847.936,-83.2031"/>
</g>
<!-- Node22 -->
<g id="node22" class="node"><title>Node22</title>
<polygon fill="white" stroke="#bfbfbf" points="650.5,-56.5 650.5,-75.5 721.5,-75.5 721.5,-56.5 650.5,-56.5"/>
<text text-anchor="middle" x="686" y="-63.5" font-family="Helvetica,sans-Serif" font-size="10.00">QDateTime</text>
</g>
<!-- Node20&#45;&gt;Node22 -->
<g id="edge26" class="edge"><title>Node20&#45;&gt;Node22</title>
<path fill="none" stroke="midnightblue" d="M750.629,-112.324C738.842,-104.058 720.868,-91.4527 706.864,-81.6322"/>
<polygon fill="midnightblue" stroke="midnightblue" points="708.538,-78.5307 698.341,-75.6545 704.518,-84.2619 708.538,-78.5307"/>
</g>
<!-- Node23 -->
<g id="node23" class="node"><title>Node23</title>
<g id="a_node23"><a xlink:href="../../de/de6/torchttpreader_8h.html" target="_top" xlink:title="torchttpreader.h">
<polygon fill="white" stroke="black" points="739.5,-56.5 739.5,-75.5 834.5,-75.5 834.5,-56.5 739.5,-56.5"/>
<text text-anchor="middle" x="787" y="-63.5" font-family="Helvetica,sans-Serif" font-size="10.00">torchttpreader.h</text>
</a>
</g>
</g>
<!-- Node20&#45;&gt;Node23 -->
<g id="edge27" class="edge"><title>Node20&#45;&gt;Node23</title>
<path fill="none" stroke="midnightblue" d="M766.963,-112.083C770.213,-104.77 774.919,-94.1814 778.954,-85.1034"/>
<polygon fill="midnightblue" stroke="midnightblue" points="782.248,-86.3107 783.111,-75.7511 775.851,-83.4677 782.248,-86.3107"/>
</g>
<!-- Node24 -->
<g id="node24" class="node"><title>Node24</title>
<polygon fill="white" stroke="#bfbfbf" points="706.5,-0.5 706.5,-19.5 777.5,-19.5 777.5,-0.5 706.5,-0.5"/>
<text text-anchor="middle" x="742" y="-7.5" font-family="Helvetica,sans-Serif" font-size="10.00">QByteArray</text>
</g>
<!-- Node23&#45;&gt;Node24 -->
<g id="edge28" class="edge"><title>Node23&#45;&gt;Node24</title>
<path fill="none" stroke="midnightblue" d="M779.569,-56.083C773.147,-48.3768 763.694,-37.0333 755.878,-27.6531"/>
<polygon fill="midnightblue" stroke="midnightblue" points="758.383,-25.1927 749.293,-19.7511 753.006,-29.674 758.383,-25.1927"/>
</g>
<!-- Node25 -->
<g id="node25" class="node"><title>Node25</title>
<polygon fill="white" stroke="#bfbfbf" points="796,-0.5 796,-19.5 868,-19.5 868,-0.5 796,-0.5"/>
<text text-anchor="middle" x="832" y="-7.5" font-family="Helvetica,sans-Serif" font-size="10.00">QTcpSocket</text>
</g>
<!-- Node23&#45;&gt;Node25 -->
<g id="edge29" class="edge"><title>Node23&#45;&gt;Node25</title>
<path fill="none" stroke="midnightblue" d="M794.431,-56.083C800.853,-48.3768 810.306,-37.0333 818.122,-27.6531"/>
<polygon fill="midnightblue" stroke="midnightblue" points="820.994,-29.674 824.707,-19.7511 815.617,-25.1927 820.994,-29.674"/>
</g>
<!-- Node27 -->
<g id="node27" class="node"><title>Node27</title>
<polygon fill="white" stroke="#bfbfbf" points="277,-168.5 277,-187.5 347,-187.5 347,-168.5 277,-168.5"/>
<text text-anchor="middle" x="312" y="-175.5" font-family="Helvetica,sans-Serif" font-size="10.00">QAtomicInt</text>
</g>
<!-- Node26&#45;&gt;Node27 -->
<g id="edge32" class="edge"><title>Node26&#45;&gt;Node27</title>
<path fill="none" stroke="midnightblue" d="M312,-224.083C312,-217.006 312,-206.861 312,-197.986"/>
<polygon fill="midnightblue" stroke="midnightblue" points="315.5,-197.751 312,-187.751 308.5,-197.751 315.5,-197.751"/>
</g>
</g>
</svg>
