<?xml version="1.0" encoding="UTF-8" standalone="no"?>
<!DOCTYPE svg PUBLIC "-//W3C//DTD SVG 1.1//EN"
 "http://www.w3.org/Graphics/SVG/1.1/DTD/svg11.dtd">
<!-- Generated by graphviz version 2.38.0 (20140413.2041)
 -->
<!-- Title: torcloggingimp.h Pages: 1 -->
<svg width="248pt" height="140pt"
 viewBox="0.00 0.00 247.50 140.00" xmlns="http://www.w3.org/2000/svg" xmlns:xlink="http://www.w3.org/1999/xlink">
<g id="graph0" class="graph" transform="scale(1 1) rotate(0) translate(4 136)">
<title>torcloggingimp.h</title>
<polygon fill="white" stroke="none" points="-4,4 -4,-136 243.5,-136 243.5,4 -4,4"/>
<!-- Node1 -->
<g id="node1" class="node"><title>Node1</title>
<polygon fill="#bfbfbf" stroke="black" points="72,-112.5 72,-131.5 169,-131.5 169,-112.5 72,-112.5"/>
<text text-anchor="middle" x="120.5" y="-119.5" font-family="Helvetica,sans-Serif" font-size="10.00">torcloggingimp.h</text>
</g>
<!-- Node2 -->
<g id="node2" class="node"><title>Node2</title>
<g id="a_node2"><a xlink:href="../../da/d67/torclocalcontext_8cpp.html" target="_top" xlink:title="torclocalcontext.cpp">
<polygon fill="white" stroke="black" points="0,-56.5 0,-75.5 113,-75.5 113,-56.5 0,-56.5"/>
<text text-anchor="middle" x="56.5" y="-63.5" font-family="Helvetica,sans-Serif" font-size="10.00">torclocalcontext.cpp</text>
</a>
</g>
</g>
<!-- Node1&#45;&gt;Node2 -->
<g id="edge1" class="edge"><title>Node1&#45;&gt;Node2</title>
<path fill="none" stroke="midnightblue" d="M102.509,-105.82C91.0424,-96.1452 76.5867,-83.9481 66.9698,-75.8339"/>
<polygon fill="midnightblue" stroke="midnightblue" points="100.317,-108.55 110.217,-112.324 104.831,-103.2 100.317,-108.55"/>
</g>
<!-- Node3 -->
<g id="node3" class="node"><title>Node3</title>
<g id="a_node3"><a xlink:href="../../d7/d24/torcloggingimp_8cpp.html" target="_top" xlink:title="torcloggingimp.cpp">
<polygon fill="white" stroke="black" points="131.5,-56.5 131.5,-75.5 239.5,-75.5 239.5,-56.5 131.5,-56.5"/>
<text text-anchor="middle" x="185.5" y="-63.5" font-family="Helvetica,sans-Serif" font-size="10.00">torcloggingimp.cpp</text>
</a>
</g>
</g>
<!-- Node1&#45;&gt;Node3 -->
<g id="edge2" class="edge"><title>Node1&#45;&gt;Node3</title>
<path fill="none" stroke="midnightblue" d="M138.773,-105.82C150.418,-96.1452 165.099,-83.9481 174.867,-75.8339"/>
<polygon fill="midnightblue" stroke="midnightblue" points="136.399,-103.242 130.943,-112.324 140.872,-108.626 136.399,-103.242"/>
</g>
<!-- Node4 -->
<g id="node4" class="node"><title>Node4</title>
<g id="a_node4"><a xlink:href="../../d8/d8c/torcqthread_8cpp.html" target="_top" xlink:title="torcqthread.cpp">
<polygon fill="white" stroke="black" points="139,-0.5 139,-19.5 232,-19.5 232,-0.5 139,-0.5"/>
<text text-anchor="middle" x="185.5" y="-7.5" font-family="Helvetica,sans-Serif" font-size="10.00">torcqthread.cpp</text>
</a>
</g>
</g>
<!-- Node3&#45;&gt;Node4 -->
<g id="edge3" class="edge"><title>Node3&#45;&gt;Node4</title>
<path fill="none" stroke="midnightblue" d="M185.5,-45.8045C185.5,-36.9102 185.5,-26.7798 185.5,-19.7511"/>
<polygon fill="midnightblue" stroke="midnightblue" points="182,-46.083 185.5,-56.083 189,-46.083 182,-46.083"/>
</g>
</g>
</svg>
