<?xml version="1.0" encoding="UTF-8" standalone="no"?>
<!DOCTYPE svg PUBLIC "-//W3C//DTD SVG 1.1//EN"
 "http://www.w3.org/Graphics/SVG/1.1/DTD/svg11.dtd">
<!-- Generated by graphviz version 2.38.0 (20140413.2041)
 -->
<!-- Title: TorcOutput Pages: 1 -->
<svg width="909pt" height="332pt"
 viewBox="0.00 0.00 909.00 332.00" xmlns="http://www.w3.org/2000/svg" xmlns:xlink="http://www.w3.org/1999/xlink">
<g id="graph0" class="graph" transform="scale(1 1) rotate(0) translate(4 328)">
<title>TorcOutput</title>
<polygon fill="white" stroke="none" points="-4,4 -4,-328 905,-328 905,4 -4,4"/>
<!-- Node1 -->
<g id="node1" class="node"><title>Node1</title>
<polygon fill="#bfbfbf" stroke="black" points="288,-152.5 288,-171.5 356,-171.5 356,-152.5 288,-152.5"/>
<text text-anchor="middle" x="322" y="-159.5" font-family="Helvetica,sans-Serif" font-size="10.00">TorcOutput</text>
</g>
<!-- Node7 -->
<g id="node7" class="node"><title>Node7</title>
<g id="a_node7"><a xlink:href="../../db/dc8/class_torc_camera_output.html" target="_top" xlink:title="TorcCameraOutput">
<polygon fill="white" stroke="black" points="403,-266.5 403,-285.5 510,-285.5 510,-266.5 403,-266.5"/>
<text text-anchor="middle" x="456.5" y="-273.5" font-family="Helvetica,sans-Serif" font-size="10.00">TorcCameraOutput</text>
</a>
</g>
</g>
<!-- Node1&#45;&gt;Node7 -->
<g id="edge6" class="edge"><title>Node1&#45;&gt;Node7</title>
<path fill="none" stroke="midnightblue" d="M336.705,-179.901C349.779,-196.247 370.599,-220.465 392,-238 405.714,-249.237 423.095,-259.401 436.204,-266.384"/>
<polygon fill="midnightblue" stroke="midnightblue" points="339.213,-177.426 330.285,-171.722 333.707,-181.749 339.213,-177.426"/>
</g>
<!-- Node10 -->
<g id="node10" class="node"><title>Node10</title>
<g id="a_node10"><a xlink:href="../../d2/d21/class_torcp_h_output.html" target="_top" xlink:title="TorcpHOutput">
<polygon fill="white" stroke="black" points="415.5,-209.5 415.5,-228.5 497.5,-228.5 497.5,-209.5 415.5,-209.5"/>
<text text-anchor="middle" x="456.5" y="-216.5" font-family="Helvetica,sans-Serif" font-size="10.00">TorcpHOutput</text>
</a>
</g>
</g>
<!-- Node1&#45;&gt;Node10 -->
<g id="edge9" class="edge"><title>Node1&#45;&gt;Node10</title>
<path fill="none" stroke="midnightblue" d="M354.656,-175.618C378.897,-186.046 411.728,-200.17 433.25,-209.428"/>
<polygon fill="midnightblue" stroke="midnightblue" points="355.747,-172.277 345.178,-171.541 352.98,-178.707 355.747,-172.277"/>
</g>
<!-- Node12 -->
<g id="node12" class="node"><title>Node12</title>
<g id="a_node12"><a xlink:href="../../d9/db0/class_torc_p_w_m_output.html" target="_top" xlink:title="TorcPWMOutput">
<polygon fill="white" stroke="black" points="411,-152.5 411,-171.5 502,-171.5 502,-152.5 411,-152.5"/>
<text text-anchor="middle" x="456.5" y="-159.5" font-family="Helvetica,sans-Serif" font-size="10.00">TorcPWMOutput</text>
</a>
</g>
</g>
<!-- Node1&#45;&gt;Node12 -->
<g id="edge11" class="edge"><title>Node1&#45;&gt;Node12</title>
<path fill="none" stroke="midnightblue" d="M366.175,-162C380.482,-162 396.428,-162 410.844,-162"/>
<polygon fill="midnightblue" stroke="midnightblue" points="366.094,-158.5 356.094,-162 366.094,-165.5 366.094,-158.5"/>
</g>
<!-- Node16 -->
<g id="node16" class="node"><title>Node16</title>
<g id="a_node16"><a xlink:href="../../d9/d5b/class_torc_switch_output.html" target="_top" xlink:title="TorcSwitchOutput">
<polygon fill="white" stroke="black" points="407,-76.5 407,-95.5 506,-95.5 506,-76.5 407,-76.5"/>
<text text-anchor="middle" x="456.5" y="-83.5" font-family="Helvetica,sans-Serif" font-size="10.00">TorcSwitchOutput</text>
</a>
</g>
</g>
<!-- Node1&#45;&gt;Node16 -->
<g id="edge15" class="edge"><title>Node1&#45;&gt;Node16</title>
<path fill="none" stroke="midnightblue" d="M348.549,-147.345C375.178,-132.071 416.129,-108.583 438.855,-95.5473"/>
<polygon fill="midnightblue" stroke="midnightblue" points="346.714,-144.363 339.781,-152.375 350.197,-150.435 346.714,-144.363"/>
</g>
<!-- Node20 -->
<g id="node20" class="node"><title>Node20</title>
<g id="a_node20"><a xlink:href="../../d5/dda/class_torc_temperature_output.html" target="_top" xlink:title="TorcTemperatureOutput">
<polygon fill="white" stroke="black" points="392,-19.5 392,-38.5 521,-38.5 521,-19.5 392,-19.5"/>
<text text-anchor="middle" x="456.5" y="-26.5" font-family="Helvetica,sans-Serif" font-size="10.00">TorcTemperatureOutput</text>
</a>
</g>
</g>
<!-- Node1&#45;&gt;Node20 -->
<g id="edge19" class="edge"><title>Node1&#45;&gt;Node20</title>
<path fill="none" stroke="midnightblue" d="M333.197,-143.726C345.273,-123.249 366.941,-89.9245 392,-67 404.797,-55.293 421.756,-45.3657 434.929,-38.5968"/>
<polygon fill="midnightblue" stroke="midnightblue" points="330.162,-141.984 328.206,-152.396 336.228,-145.476 330.162,-141.984"/>
</g>
<!-- Node2 -->
<g id="node2" class="node"><title>Node2</title>
<g id="a_node2"><a xlink:href="../../d5/d76/class_torc_device.html" target="_top" xlink:title="TorcDevice">
<polygon fill="white" stroke="black" points="170.5,-171.5 170.5,-190.5 238.5,-190.5 238.5,-171.5 170.5,-171.5"/>
<text text-anchor="middle" x="204.5" y="-178.5" font-family="Helvetica,sans-Serif" font-size="10.00">TorcDevice</text>
</a>
</g>
</g>
<!-- Node2&#45;&gt;Node1 -->
<g id="edge1" class="edge"><title>Node2&#45;&gt;Node1</title>
<path fill="none" stroke="midnightblue" d="M248.717,-173.891C261.683,-171.758 275.694,-169.453 287.898,-167.445"/>
<polygon fill="midnightblue" stroke="midnightblue" points="247.897,-170.478 238.598,-175.555 249.033,-177.386 247.897,-170.478"/>
</g>
<!-- Node3 -->
<g id="node3" class="node"><title>Node3</title>
<polygon fill="white" stroke="#bfbfbf" points="33,-209.5 33,-228.5 88,-228.5 88,-209.5 33,-209.5"/>
<text text-anchor="middle" x="60.5" y="-216.5" font-family="Helvetica,sans-Serif" font-size="10.00">QObject</text>
</g>
<!-- Node3&#45;&gt;Node2 -->
<g id="edge2" class="edge"><title>Node3&#45;&gt;Node2</title>
<path fill="none" stroke="midnightblue" d="M98.0071,-209.23C120.354,-203.25 148.722,-195.659 170.412,-189.855"/>
<polygon fill="midnightblue" stroke="midnightblue" points="96.9644,-205.886 88.2091,-211.852 98.774,-212.648 96.9644,-205.886"/>
</g>
<!-- Node4 -->
<g id="node4" class="node"><title>Node4</title>
<g id="a_node4"><a xlink:href="../../d6/dad/class_torc_reference_counter.html" target="_top" xlink:title="A reference counting implementation. ">
<polygon fill="white" stroke="black" points="0,-171.5 0,-190.5 121,-190.5 121,-171.5 0,-171.5"/>
<text text-anchor="middle" x="60.5" y="-178.5" font-family="Helvetica,sans-Serif" font-size="10.00">TorcReferenceCounter</text>
</a>
</g>
</g>
<!-- Node4&#45;&gt;Node2 -->
<g id="edge3" class="edge"><title>Node4&#45;&gt;Node2</title>
<path fill="none" stroke="midnightblue" d="M131.637,-181C145.195,-181 158.796,-181 170.461,-181"/>
<polygon fill="midnightblue" stroke="midnightblue" points="131.309,-177.5 121.309,-181 131.309,-184.5 131.309,-177.5"/>
</g>
<!-- Node5 -->
<g id="node5" class="node"><title>Node5</title>
<g id="a_node5"><a xlink:href="../../d6/d70/class_torc_h_t_t_p_service.html" target="_top" xlink:title="TorcHTTPService">
<polygon fill="white" stroke="black" points="157,-133.5 157,-152.5 252,-152.5 252,-133.5 157,-133.5"/>
<text text-anchor="middle" x="204.5" y="-140.5" font-family="Helvetica,sans-Serif" font-size="10.00">TorcHTTPService</text>
</a>
</g>
</g>
<!-- Node5&#45;&gt;Node1 -->
<g id="edge4" class="edge"><title>Node5&#45;&gt;Node1</title>
<path fill="none" stroke="midnightblue" d="M262.29,-152.342C270.983,-153.772 279.706,-155.207 287.669,-156.517"/>
<polygon fill="midnightblue" stroke="midnightblue" points="262.581,-148.843 252.145,-150.673 261.445,-155.75 262.581,-148.843"/>
</g>
<!-- Node6 -->
<g id="node6" class="node"><title>Node6</title>
<g id="a_node6"><a xlink:href="../../d5/d15/class_torc_h_t_t_p_handler.html" target="_top" xlink:title="Base HTTP response handler class. ">
<polygon fill="white" stroke="black" points="12,-133.5 12,-152.5 109,-152.5 109,-133.5 12,-133.5"/>
<text text-anchor="middle" x="60.5" y="-140.5" font-family="Helvetica,sans-Serif" font-size="10.00">TorcHTTPHandler</text>
</a>
</g>
</g>
<!-- Node6&#45;&gt;Node5 -->
<g id="edge5" class="edge"><title>Node6&#45;&gt;Node5</title>
<path fill="none" stroke="midnightblue" d="M119.424,-143C131.816,-143 144.759,-143 156.67,-143"/>
<polygon fill="midnightblue" stroke="midnightblue" points="119.179,-139.5 109.179,-143 119.179,-146.5 119.179,-139.5"/>
</g>
<!-- Node8 -->
<g id="node8" class="node"><title>Node8</title>
<g id="a_node8"><a xlink:href="../../d4/dbb/class_torc_camera_stills_output.html" target="_top" xlink:title="TorcCameraStillsOutput">
<polygon fill="white" stroke="black" points="576.5,-304.5 576.5,-323.5 705.5,-323.5 705.5,-304.5 576.5,-304.5"/>
<text text-anchor="middle" x="641" y="-311.5" font-family="Helvetica,sans-Serif" font-size="10.00">TorcCameraStillsOutput</text>
</a>
</g>
</g>
<!-- Node7&#45;&gt;Node8 -->
<g id="edge7" class="edge"><title>Node7&#45;&gt;Node8</title>
<path fill="none" stroke="midnightblue" d="M513.599,-287.681C539.48,-293.07 569.815,-299.386 594.279,-304.48"/>
<polygon fill="midnightblue" stroke="midnightblue" points="514.056,-284.201 503.552,-285.589 512.629,-291.054 514.056,-284.201"/>
</g>
<!-- Node9 -->
<g id="node9" class="node"><title>Node9</title>
<g id="a_node9"><a xlink:href="../../df/d01/class_torc_camera_video_output.html" target="_top" xlink:title="TorcCameraVideoOutput">
<polygon fill="white" stroke="black" points="574,-266.5 574,-285.5 708,-285.5 708,-266.5 574,-266.5"/>
<text text-anchor="middle" x="641" y="-273.5" font-family="Helvetica,sans-Serif" font-size="10.00">TorcCameraVideoOutput</text>
</a>
</g>
</g>
<!-- Node7&#45;&gt;Node9 -->
<g id="edge8" class="edge"><title>Node7&#45;&gt;Node9</title>
<path fill="none" stroke="midnightblue" d="M520.729,-276C537.841,-276 556.409,-276 573.686,-276"/>
<polygon fill="midnightblue" stroke="midnightblue" points="520.287,-272.5 510.287,-276 520.287,-279.5 520.287,-272.5"/>
</g>
<!-- Node11 -->
<g id="node11" class="node"><title>Node11</title>
<g id="a_node11"><a xlink:href="../../d0/d23/class_torc_networkp_h_output.html" target="_top" xlink:title="TorcNetworkpHOutput">
<polygon fill="white" stroke="black" points="580.5,-228.5 580.5,-247.5 701.5,-247.5 701.5,-228.5 580.5,-228.5"/>
<text text-anchor="middle" x="641" y="-235.5" font-family="Helvetica,sans-Serif" font-size="10.00">TorcNetworkpHOutput</text>
</a>
</g>
</g>
<!-- Node10&#45;&gt;Node11 -->
<g id="edge10" class="edge"><title>Node10&#45;&gt;Node11</title>
<path fill="none" stroke="midnightblue" d="M507.558,-224.212C530.044,-226.553 556.754,-229.333 580.277,-231.782"/>
<polygon fill="midnightblue" stroke="midnightblue" points="507.859,-220.724 497.55,-223.17 507.134,-227.686 507.859,-220.724"/>
</g>
<!-- Node13 -->
<g id="node13" class="node"><title>Node13</title>
<g id="a_node13"><a xlink:href="../../d6/d33/class_torc_i2_c_p_c_a9685_channel.html" target="_top" xlink:title="TorcI2CPCA9685Channel">
<polygon fill="white" stroke="black" points="574.5,-190.5 574.5,-209.5 707.5,-209.5 707.5,-190.5 574.5,-190.5"/>
<text text-anchor="middle" x="641" y="-197.5" font-family="Helvetica,sans-Serif" font-size="10.00">TorcI2CPCA9685Channel</text>
</a>
</g>
</g>
<!-- Node12&#45;&gt;Node13 -->
<g id="edge12" class="edge"><title>Node12&#45;&gt;Node13</title>
<path fill="none" stroke="midnightblue" d="M512.279,-173.406C538.427,-178.851 569.357,-185.291 594.23,-190.47"/>
<polygon fill="midnightblue" stroke="midnightblue" points="512.648,-169.908 502.145,-171.296 511.221,-176.761 512.648,-169.908"/>
</g>
<!-- Node14 -->
<g id="node14" class="node"><title>Node14</title>
<g id="a_node14"><a xlink:href="../../d0/db8/class_torc_network_p_w_m_output.html" target="_top" xlink:title="TorcNetworkPWMOutput">
<polygon fill="white" stroke="black" points="576,-152.5 576,-171.5 706,-171.5 706,-152.5 576,-152.5"/>
<text text-anchor="middle" x="641" y="-159.5" font-family="Helvetica,sans-Serif" font-size="10.00">TorcNetworkPWMOutput</text>
</a>
</g>
</g>
<!-- Node12&#45;&gt;Node14 -->
<g id="edge13" class="edge"><title>Node12&#45;&gt;Node14</title>
<path fill="none" stroke="midnightblue" d="M512.318,-162C532.31,-162 555.092,-162 575.824,-162"/>
<polygon fill="midnightblue" stroke="midnightblue" points="512.145,-158.5 502.145,-162 512.144,-165.5 512.145,-158.5"/>
</g>
<!-- Node15 -->
<g id="node15" class="node"><title>Node15</title>
<g id="a_node15"><a xlink:href="../../d3/d08/class_torc_pi_p_w_m_output.html" target="_top" xlink:title="A device to output PWM signals on the Raspberry Pi. ">
<polygon fill="white" stroke="black" points="591.5,-114.5 591.5,-133.5 690.5,-133.5 690.5,-114.5 591.5,-114.5"/>
<text text-anchor="middle" x="641" y="-121.5" font-family="Helvetica,sans-Serif" font-size="10.00">TorcPiPWMOutput</text>
</a>
</g>
</g>
<!-- Node12&#45;&gt;Node15 -->
<g id="edge14" class="edge"><title>Node12&#45;&gt;Node15</title>
<path fill="none" stroke="midnightblue" d="M512.279,-150.594C538.427,-145.149 569.357,-138.709 594.23,-133.53"/>
<polygon fill="midnightblue" stroke="midnightblue" points="511.221,-147.239 502.145,-152.704 512.648,-154.092 511.221,-147.239"/>
</g>
<!-- Node17 -->
<g id="node17" class="node"><title>Node17</title>
<g id="a_node17"><a xlink:href="../../d1/d71/class_torc_network_switch_output.html" target="_top" xlink:title="TorcNetworkSwitchOutput">
<polygon fill="white" stroke="black" points="572,-76.5 572,-95.5 710,-95.5 710,-76.5 572,-76.5"/>
<text text-anchor="middle" x="641" y="-83.5" font-family="Helvetica,sans-Serif" font-size="10.00">TorcNetworkSwitchOutput</text>
</a>
</g>
</g>
<!-- Node16&#45;&gt;Node17 -->
<g id="edge16" class="edge"><title>Node16&#45;&gt;Node17</title>
<path fill="none" stroke="midnightblue" d="M516.54,-86C534.151,-86 553.599,-86 571.748,-86"/>
<polygon fill="midnightblue" stroke="midnightblue" points="516.407,-82.5001 506.407,-86 516.407,-89.5001 516.407,-82.5001"/>
</g>
<!-- Node19 -->
<g id="node19" class="node"><title>Node19</title>
<g id="a_node19"><a xlink:href="../../dc/d7e/class_torc_pi_switch_output.html" target="_top" xlink:title="TorcPiSwitchOutput">
<polygon fill="white" stroke="black" points="587.5,-38.5 587.5,-57.5 694.5,-57.5 694.5,-38.5 587.5,-38.5"/>
<text text-anchor="middle" x="641" y="-45.5" font-family="Helvetica,sans-Serif" font-size="10.00">TorcPiSwitchOutput</text>
</a>
</g>
</g>
<!-- Node16&#45;&gt;Node19 -->
<g id="edge18" class="edge"><title>Node16&#45;&gt;Node19</title>
<path fill="none" stroke="midnightblue" d="M513.599,-74.319C539.48,-68.9301 569.815,-62.6139 594.279,-57.5201"/>
<polygon fill="midnightblue" stroke="midnightblue" points="512.629,-70.9459 503.552,-76.411 514.056,-77.799 512.629,-70.9459"/>
</g>
<!-- Node18 -->
<g id="node18" class="node"><title>Node18</title>
<g id="a_node18"><a xlink:href="../../d0/da9/class_torc_network_button_output.html" target="_top" xlink:title="A network output that mimics the behaviour of a mechanical push button. ">
<polygon fill="white" stroke="black" points="761,-76.5 761,-95.5 901,-95.5 901,-76.5 761,-76.5"/>
<text text-anchor="middle" x="831" y="-83.5" font-family="Helvetica,sans-Serif" font-size="10.00">TorcNetworkButtonOutput</text>
</a>
</g>
</g>
<!-- Node17&#45;&gt;Node18 -->
<g id="edge17" class="edge"><title>Node17&#45;&gt;Node18</title>
<path fill="none" stroke="midnightblue" d="M720.315,-86C733.761,-86 747.647,-86 760.832,-86"/>
<polygon fill="midnightblue" stroke="midnightblue" points="720.138,-82.5001 710.138,-86 720.138,-89.5001 720.138,-82.5001"/>
</g>
<!-- Node21 -->
<g id="node21" class="node"><title>Node21</title>
<g id="a_node21"><a xlink:href="../../d2/dd7/class_torc_network_temperature_output.html" target="_top" xlink:title="TorcNetworkTemperatureOutput">
<polygon fill="white" stroke="black" points="557,-0.5 557,-19.5 725,-19.5 725,-0.5 557,-0.5"/>
<text text-anchor="middle" x="641" y="-7.5" font-family="Helvetica,sans-Serif" font-size="10.00">TorcNetworkTemperatureOutput</text>
</a>
</g>
</g>
<!-- Node20&#45;&gt;Node21 -->
<g id="edge20" class="edge"><title>Node20&#45;&gt;Node21</title>
<path fill="none" stroke="midnightblue" d="M531.207,-21.3263C539.616,-20.4509 548.231,-19.554 556.753,-18.6669"/>
<polygon fill="midnightblue" stroke="midnightblue" points="530.657,-17.8646 521.073,-22.3814 531.382,-24.827 530.657,-17.8646"/>
</g>
</g>
</svg>
