<?xml version="1.0" encoding="UTF-8" standalone="no"?>
<!DOCTYPE svg PUBLIC "-//W3C//DTD SVG 1.1//EN"
 "http://www.w3.org/Graphics/SVG/1.1/DTD/svg11.dtd">
<!-- Generated by graphviz version 2.38.0 (20140413.2041)
 -->
<!-- Title: torcoutput.cpp Pages: 1 -->
<!--zoomable 420 -->
<svg id="main" version="1.1" xmlns="http://www.w3.org/2000/svg" xmlns:xlink="http://www.w3.org/1999/xlink" xml:space="preserve" onload="init(evt)">
<style type="text/css"><![CDATA[
.edge:hover path { stroke: red; }
.edge:hover polygon { stroke: red; fill: red; }
]]></style>
<script type="text/javascript"><![CDATA[
var edges = document.getElementsByTagName('g');
if (edges && edges.length) {
  for (var i=0;i<edges.length;i++) {
    if (edges[i].id.substr(0,4)=='edge') {
      edges[i].setAttribute('class','edge');
    }
  }
}
]]></script>
        <defs>
                <circle id="rim" cx="0" cy="0" r="7"/>
                <circle id="rim2" cx="0" cy="0" r="3.5"/>
                <g id="zoomPlus">
                        <use xlink:href="#rim" fill="#404040">
                                <set attributeName="fill" to="#808080" begin="zoomplus.mouseover" end="zoomplus.mouseout"/>
                        </use>
                        <path d="M-4,0h8M0,-4v8" fill="none" stroke="white" stroke-width="1.5" pointer-events="none"/>
                </g>
                <g id="zoomMin">
                        <use xlink:href="#rim" fill="#404040">
                                <set attributeName="fill" to="#808080" begin="zoomminus.mouseover" end="zoomminus.mouseout"/>
                        </use>
                        <path d="M-4,0h8" fill="none" stroke="white" stroke-width="1.5" pointer-events="none"/>
                </g>
                <g id="dirArrow">
                        <path fill="none" stroke="white" stroke-width="1.5" d="M0,-3.0v7 M-2.5,-0.5L0,-3.0L2.5,-0.5"/>
                </g>
               <g id="resetDef">
                       <use xlink:href="#rim2" fill="#404040">
                               <set attributeName="fill" to="#808080" begin="reset.mouseover" end="reset.mouseout"/>
                       </use>
               </g>
        </defs>

<script type="text/javascript">
var viewWidth = 1102;
var viewHeight = 420;
var sectionId = 'dynsection-0';
</script>
<script xlink:href="../../svgpan.js"/>
<svg id="graph" class="graph">
<g id="viewport">
<title>torcoutput.cpp</title>
<polygon fill="white" stroke="none" points="-4,4 -4,-416 1097.5,-416 1097.5,4 -4,4"/>
<!-- Node1 -->
<g id="node1" class="node"><title>Node1</title>
<polygon fill="#bfbfbf" stroke="black" points="529.5,-392.5 529.5,-411.5 616.5,-411.5 616.5,-392.5 529.5,-392.5"/>
<text text-anchor="middle" x="573" y="-399.5" font-family="Helvetica,sans-Serif" font-size="10.00">torcoutput.cpp</text>
</g>
<!-- Node2 -->
<g id="node2" class="node"><title>Node2</title>
<g id="a_node2"><a xlink:href="../../d4/df9/torclogging_8h.html" target="_top" xlink:title="torclogging.h">
<polygon fill="white" stroke="black" points="326.5,-336.5 326.5,-355.5 405.5,-355.5 405.5,-336.5 326.5,-336.5"/>
<text text-anchor="middle" x="366" y="-343.5" font-family="Helvetica,sans-Serif" font-size="10.00">torclogging.h</text>
</a>
</g>
</g>
<!-- Node1&#45;&gt;Node2 -->
<g id="edge1" class="edge"><title>Node1&#45;&gt;Node2</title>
<path fill="none" stroke="midnightblue" d="M540.2,-392.444C504.62,-383.162 447.686,-368.309 408.653,-358.127"/>
<polygon fill="midnightblue" stroke="midnightblue" points="409.206,-354.654 398.646,-355.516 407.439,-361.427 409.206,-354.654"/>
</g>
<!-- Node6 -->
<g id="node6" class="node"><title>Node6</title>
<g id="a_node6"><a xlink:href="../../da/d80/torcoutputs_8h.html" target="_top" xlink:title="torcoutputs.h">
<polygon fill="white" stroke="black" points="532.5,-336.5 532.5,-355.5 613.5,-355.5 613.5,-336.5 532.5,-336.5"/>
<text text-anchor="middle" x="573" y="-343.5" font-family="Helvetica,sans-Serif" font-size="10.00">torcoutputs.h</text>
</a>
</g>
</g>
<!-- Node1&#45;&gt;Node6 -->
<g id="edge5" class="edge"><title>Node1&#45;&gt;Node6</title>
<path fill="none" stroke="midnightblue" d="M573,-392.083C573,-385.006 573,-374.861 573,-365.986"/>
<polygon fill="midnightblue" stroke="midnightblue" points="576.5,-365.751 573,-355.751 569.5,-365.751 576.5,-365.751"/>
</g>
<!-- Node23 -->
<g id="node23" class="node"><title>Node23</title>
<g id="a_node23"><a xlink:href="../../dc/d01/torcoutput_8h.html" target="_top" xlink:title="torcoutput.h">
<polygon fill="white" stroke="black" points="689,-280.5 689,-299.5 765,-299.5 765,-280.5 689,-280.5"/>
<text text-anchor="middle" x="727" y="-287.5" font-family="Helvetica,sans-Serif" font-size="10.00">torcoutput.h</text>
</a>
</g>
</g>
<!-- Node1&#45;&gt;Node23 -->
<g id="edge49" class="edge"><title>Node1&#45;&gt;Node23</title>
<path fill="none" stroke="midnightblue" d="M585.084,-392.368C611.398,-373.573 674.124,-328.768 706.653,-305.533"/>
<polygon fill="midnightblue" stroke="midnightblue" points="708.869,-308.252 714.972,-299.591 704.8,-302.556 708.869,-308.252"/>
</g>
<!-- Node3 -->
<g id="node3" class="node"><title>Node3</title>
<polygon fill="white" stroke="#bfbfbf" points="386.5,-280.5 386.5,-299.5 439.5,-299.5 439.5,-280.5 386.5,-280.5"/>
<text text-anchor="middle" x="413" y="-287.5" font-family="Helvetica,sans-Serif" font-size="10.00">stdint.h</text>
</g>
<!-- Node2&#45;&gt;Node3 -->
<g id="edge2" class="edge"><title>Node2&#45;&gt;Node3</title>
<path fill="none" stroke="midnightblue" d="M373.761,-336.083C380.537,-328.298 390.543,-316.801 398.755,-307.367"/>
<polygon fill="midnightblue" stroke="midnightblue" points="401.458,-309.592 405.383,-299.751 396.178,-304.996 401.458,-309.592"/>
</g>
<!-- Node4 -->
<g id="node4" class="node"><title>Node4</title>
<polygon fill="white" stroke="#bfbfbf" points="200.5,-280.5 200.5,-299.5 251.5,-299.5 251.5,-280.5 200.5,-280.5"/>
<text text-anchor="middle" x="226" y="-287.5" font-family="Helvetica,sans-Serif" font-size="10.00">errno.h</text>
</g>
<!-- Node2&#45;&gt;Node4 -->
<g id="edge3" class="edge"><title>Node2&#45;&gt;Node4</title>
<path fill="none" stroke="midnightblue" d="M343.817,-336.444C320.572,-327.478 283.851,-313.314 257.585,-303.183"/>
<polygon fill="midnightblue" stroke="midnightblue" points="258.669,-299.85 248.08,-299.516 256.15,-306.381 258.669,-299.85"/>
</g>
<!-- Node5 -->
<g id="node5" class="node"><title>Node5</title>
<g id="a_node5"><a xlink:href="../../d1/d37/torcloggingdefs_8h.html" target="_top" xlink:title="torcloggingdefs.h">
<polygon fill="white" stroke="black" points="269.5,-280.5 269.5,-299.5 368.5,-299.5 368.5,-280.5 269.5,-280.5"/>
<text text-anchor="middle" x="319" y="-287.5" font-family="Helvetica,sans-Serif" font-size="10.00">torcloggingdefs.h</text>
</a>
</g>
</g>
<!-- Node2&#45;&gt;Node5 -->
<g id="edge4" class="edge"><title>Node2&#45;&gt;Node5</title>
<path fill="none" stroke="midnightblue" d="M358.239,-336.083C351.463,-328.298 341.457,-316.801 333.245,-307.367"/>
<polygon fill="midnightblue" stroke="midnightblue" points="335.822,-304.996 326.617,-299.751 330.542,-309.592 335.822,-304.996"/>
</g>
<!-- Node7 -->
<g id="node7" class="node"><title>Node7</title>
<polygon fill="white" stroke="#bfbfbf" points="629.5,-280.5 629.5,-299.5 670.5,-299.5 670.5,-280.5 629.5,-280.5"/>
<text text-anchor="middle" x="650" y="-287.5" font-family="Helvetica,sans-Serif" font-size="10.00">QList</text>
</g>
<!-- Node6&#45;&gt;Node7 -->
<g id="edge6" class="edge"><title>Node6&#45;&gt;Node7</title>
<path fill="none" stroke="midnightblue" d="M585.371,-336.324C597.158,-328.058 615.132,-315.453 629.136,-305.632"/>
<polygon fill="midnightblue" stroke="midnightblue" points="631.482,-308.262 637.659,-299.655 627.462,-302.531 631.482,-308.262"/>
</g>
<!-- Node8 -->
<g id="node8" class="node"><title>Node8</title>
<polygon fill="white" stroke="#bfbfbf" points="555.5,-112.5 555.5,-131.5 608.5,-131.5 608.5,-112.5 555.5,-112.5"/>
<text text-anchor="middle" x="582" y="-119.5" font-family="Helvetica,sans-Serif" font-size="10.00">QMutex</text>
</g>
<!-- Node6&#45;&gt;Node8 -->
<g id="edge7" class="edge"><title>Node6&#45;&gt;Node8</title>
<path fill="none" stroke="midnightblue" d="M558.63,-336.33C547.12,-328.469 531.811,-315.722 525,-300 521.466,-291.844 523.588,-288.776 525,-280 533.493,-227.219 559.315,-169.035 573.102,-140.604"/>
<polygon fill="midnightblue" stroke="midnightblue" points="576.288,-142.056 577.583,-131.54 570.013,-138.954 576.288,-142.056"/>
</g>
<!-- Node9 -->
<g id="node9" class="node"><title>Node9</title>
<g id="a_node9"><a xlink:href="../../d3/dee/torchttpservice_8h.html" target="_top" xlink:title="torchttpservice.h">
<polygon fill="white" stroke="black" points="341,-224.5 341,-243.5 439,-243.5 439,-224.5 341,-224.5"/>
<text text-anchor="middle" x="390" y="-231.5" font-family="Helvetica,sans-Serif" font-size="10.00">torchttpservice.h</text>
</a>
</g>
</g>
<!-- Node6&#45;&gt;Node9 -->
<g id="edge8" class="edge"><title>Node6&#45;&gt;Node9</title>
<path fill="none" stroke="midnightblue" d="M557.008,-336.484C540.552,-327.636 514.251,-313.255 492,-300 463.84,-283.226 432.099,-262.742 411.613,-249.308"/>
<polygon fill="midnightblue" stroke="midnightblue" points="413.323,-246.244 403.046,-243.67 409.475,-252.091 413.323,-246.244"/>
</g>
<!-- Node6&#45;&gt;Node23 -->
<g id="edge26" class="edge"><title>Node6&#45;&gt;Node23</title>
<path fill="none" stroke="midnightblue" d="M597.402,-336.444C623.197,-327.399 664.077,-313.064 693.018,-302.916"/>
<polygon fill="midnightblue" stroke="midnightblue" points="694.434,-306.128 702.712,-299.516 692.118,-299.523 694.434,-306.128"/>
</g>
<!-- Node31 -->
<g id="node31" class="node"><title>Node31</title>
<g id="a_node31"><a xlink:href="../../d5/d41/torccentral_8h.html" target="_top" xlink:title="torccentral.h">
<polygon fill="white" stroke="black" points="534.5,-280.5 534.5,-299.5 611.5,-299.5 611.5,-280.5 534.5,-280.5"/>
<text text-anchor="middle" x="573" y="-287.5" font-family="Helvetica,sans-Serif" font-size="10.00">torccentral.h</text>
</a>
</g>
</g>
<!-- Node6&#45;&gt;Node31 -->
<g id="edge43" class="edge"><title>Node6&#45;&gt;Node31</title>
<path fill="none" stroke="midnightblue" d="M573,-336.083C573,-329.006 573,-318.861 573,-309.986"/>
<polygon fill="midnightblue" stroke="midnightblue" points="576.5,-309.751 573,-299.751 569.5,-309.751 576.5,-309.751"/>
</g>
<!-- Node9&#45;&gt;Node8 -->
<g id="edge10" class="edge"><title>Node9&#45;&gt;Node8</title>
<path fill="none" stroke="midnightblue" d="M402.62,-224.356C421.635,-211.471 458.932,-186.736 492,-168 512.39,-156.447 536.126,-144.644 554.101,-136.026"/>
<polygon fill="midnightblue" stroke="midnightblue" points="555.908,-139.043 563.437,-131.588 552.903,-132.721 555.908,-139.043"/>
</g>
<!-- Node10 -->
<g id="node10" class="node"><title>Node10</title>
<polygon fill="white" stroke="#bfbfbf" points="0,-56.5 0,-75.5 44,-75.5 44,-56.5 0,-56.5"/>
<text text-anchor="middle" x="22" y="-63.5" font-family="Helvetica,sans-Serif" font-size="10.00">QMap</text>
</g>
<!-- Node9&#45;&gt;Node10 -->
<g id="edge9" class="edge"><title>Node9&#45;&gt;Node10</title>
<path fill="none" stroke="midnightblue" d="M340.825,-231.991C261.758,-229.418 111.067,-220.297 70,-188 37.9804,-162.818 27.2545,-113.111 23.7104,-85.8987"/>
<polygon fill="midnightblue" stroke="midnightblue" points="27.1664,-85.3063 22.5901,-75.7508 20.2086,-86.0745 27.1664,-85.3063"/>
</g>
<!-- Node11 -->
<g id="node11" class="node"><title>Node11</title>
<polygon fill="white" stroke="#bfbfbf" points="445,-112.5 445,-131.5 537,-131.5 537,-112.5 445,-112.5"/>
<text text-anchor="middle" x="491" y="-119.5" font-family="Helvetica,sans-Serif" font-size="10.00">QReadWriteLock</text>
</g>
<!-- Node9&#45;&gt;Node11 -->
<g id="edge11" class="edge"><title>Node9&#45;&gt;Node11</title>
<path fill="none" stroke="midnightblue" d="M397.925,-224.368C414.814,-205.974 454.575,-162.671 476.261,-139.052"/>
<polygon fill="midnightblue" stroke="midnightblue" points="478.926,-141.325 483.112,-131.591 473.77,-136.59 478.926,-141.325"/>
</g>
<!-- Node12 -->
<g id="node12" class="node"><title>Node12</title>
<polygon fill="white" stroke="#bfbfbf" points="88.5,-168.5 88.5,-187.5 167.5,-187.5 167.5,-168.5 88.5,-168.5"/>
<text text-anchor="middle" x="128" y="-175.5" font-family="Helvetica,sans-Serif" font-size="10.00">QMetaObject</text>
</g>
<!-- Node9&#45;&gt;Node12 -->
<g id="edge12" class="edge"><title>Node9&#45;&gt;Node12</title>
<path fill="none" stroke="midnightblue" d="M348.485,-224.444C302.048,-214.873 226.875,-199.379 177.439,-189.19"/>
<polygon fill="midnightblue" stroke="midnightblue" points="178.106,-185.754 167.605,-187.163 176.693,-192.61 178.106,-185.754"/>
</g>
<!-- Node13 -->
<g id="node13" class="node"><title>Node13</title>
<polygon fill="white" stroke="#bfbfbf" points="185.5,-168.5 185.5,-187.5 284.5,-187.5 284.5,-168.5 185.5,-168.5"/>
<text text-anchor="middle" x="235" y="-175.5" font-family="Helvetica,sans-Serif" font-size="10.00">QCoreApplication</text>
</g>
<!-- Node9&#45;&gt;Node13 -->
<g id="edge13" class="edge"><title>Node9&#45;&gt;Node13</title>
<path fill="none" stroke="midnightblue" d="M365.44,-224.444C339.477,-215.399 298.332,-201.064 269.203,-190.916"/>
<polygon fill="midnightblue" stroke="midnightblue" points="270.04,-187.501 259.445,-187.516 267.737,-194.112 270.04,-187.501"/>
</g>
<!-- Node14 -->
<g id="node14" class="node"><title>Node14</title>
<g id="a_node14"><a xlink:href="../../d4/d11/torchttphandler_8h.html" target="_top" xlink:title="torchttphandler.h">
<polygon fill="white" stroke="black" points="302.5,-168.5 302.5,-187.5 401.5,-187.5 401.5,-168.5 302.5,-168.5"/>
<text text-anchor="middle" x="352" y="-175.5" font-family="Helvetica,sans-Serif" font-size="10.00">torchttphandler.h</text>
</a>
</g>
</g>
<!-- Node9&#45;&gt;Node14 -->
<g id="edge14" class="edge"><title>Node9&#45;&gt;Node14</title>
<path fill="none" stroke="midnightblue" d="M383.725,-224.083C378.358,-216.455 370.482,-205.264 363.921,-195.941"/>
<polygon fill="midnightblue" stroke="midnightblue" points="366.775,-193.915 358.158,-187.751 361.051,-197.943 366.775,-193.915"/>
</g>
<!-- Node17 -->
<g id="node17" class="node"><title>Node17</title>
<g id="a_node17"><a xlink:href="../../df/dd7/torchttprequest_8h.html" target="_top" xlink:title="torchttprequest.h">
<polygon fill="white" stroke="black" points="106.5,-112.5 106.5,-131.5 207.5,-131.5 207.5,-112.5 106.5,-112.5"/>
<text text-anchor="middle" x="157" y="-119.5" font-family="Helvetica,sans-Serif" font-size="10.00">torchttprequest.h</text>
</a>
</g>
</g>
<!-- Node9&#45;&gt;Node17 -->
<g id="edge25" class="edge"><title>Node9&#45;&gt;Node17</title>
<path fill="none" stroke="midnightblue" d="M340.725,-233.353C261.737,-232.75 112.253,-226.411 79,-188 60.9637,-167.166 94.0417,-147.538 122.533,-135.413"/>
<polygon fill="midnightblue" stroke="midnightblue" points="123.988,-138.599 131.939,-131.597 121.357,-132.113 123.988,-138.599"/>
</g>
<!-- Node15 -->
<g id="node15" class="node"><title>Node15</title>
<polygon fill="white" stroke="#bfbfbf" points="323.5,-56.5 323.5,-75.5 376.5,-75.5 376.5,-56.5 323.5,-56.5"/>
<text text-anchor="middle" x="350" y="-63.5" font-family="Helvetica,sans-Serif" font-size="10.00">QString</text>
</g>
<!-- Node14&#45;&gt;Node15 -->
<g id="edge15" class="edge"><title>Node14&#45;&gt;Node15</title>
<path fill="none" stroke="midnightblue" d="M348.912,-168.173C345.948,-159.198 341.681,-144.827 340,-132 337.958,-116.415 341.004,-98.7937 344.257,-85.8341"/>
<polygon fill="midnightblue" stroke="midnightblue" points="347.736,-86.3858 347.045,-75.8135 340.992,-84.509 347.736,-86.3858"/>
</g>
<!-- Node16 -->
<g id="node16" class="node"><title>Node16</title>
<polygon fill="white" stroke="#bfbfbf" points="349,-112.5 349,-131.5 427,-131.5 427,-112.5 349,-112.5"/>
<text text-anchor="middle" x="388" y="-119.5" font-family="Helvetica,sans-Serif" font-size="10.00">QVariantMap</text>
</g>
<!-- Node14&#45;&gt;Node16 -->
<g id="edge16" class="edge"><title>Node14&#45;&gt;Node16</title>
<path fill="none" stroke="midnightblue" d="M357.945,-168.083C362.977,-160.534 370.337,-149.495 376.513,-140.23"/>
<polygon fill="midnightblue" stroke="midnightblue" points="379.531,-142.013 382.166,-131.751 373.707,-138.13 379.531,-142.013"/>
</g>
<!-- Node14&#45;&gt;Node17 -->
<g id="edge17" class="edge"><title>Node14&#45;&gt;Node17</title>
<path fill="none" stroke="midnightblue" d="M321.102,-168.444C287.726,-159.201 234.406,-144.436 197.651,-134.257"/>
<polygon fill="midnightblue" stroke="midnightblue" points="198.325,-130.812 187.754,-131.516 196.457,-137.558 198.325,-130.812"/>
</g>
<!-- Node17&#45;&gt;Node10 -->
<g id="edge18" class="edge"><title>Node17&#45;&gt;Node10</title>
<path fill="none" stroke="midnightblue" d="M135.609,-112.444C113.293,-103.517 78.0968,-89.4387 52.792,-79.3168"/>
<polygon fill="midnightblue" stroke="midnightblue" points="53.8757,-75.9807 43.2911,-75.5164 51.276,-82.4801 53.8757,-75.9807"/>
</g>
<!-- Node17&#45;&gt;Node15 -->
<g id="edge20" class="edge"><title>Node17&#45;&gt;Node15</title>
<path fill="none" stroke="midnightblue" d="M187.581,-112.444C221.78,-102.875 277.137,-87.3864 313.555,-77.1971"/>
<polygon fill="midnightblue" stroke="midnightblue" points="314.604,-80.5381 323.291,-74.473 312.718,-73.797 314.604,-80.5381"/>
</g>
<!-- Node18 -->
<g id="node18" class="node"><title>Node18</title>
<polygon fill="white" stroke="#bfbfbf" points="62.5,-56.5 62.5,-75.5 103.5,-75.5 103.5,-56.5 62.5,-56.5"/>
<text text-anchor="middle" x="83" y="-63.5" font-family="Helvetica,sans-Serif" font-size="10.00">QPair</text>
</g>
<!-- Node17&#45;&gt;Node18 -->
<g id="edge19" class="edge"><title>Node17&#45;&gt;Node18</title>
<path fill="none" stroke="midnightblue" d="M145.111,-112.324C133.85,-104.107 116.713,-91.6017 103.291,-81.8069"/>
<polygon fill="midnightblue" stroke="midnightblue" points="105.247,-78.9014 95.1057,-75.8339 101.12,-84.5559 105.247,-78.9014"/>
</g>
<!-- Node19 -->
<g id="node19" class="node"><title>Node19</title>
<polygon fill="white" stroke="#bfbfbf" points="121.5,-56.5 121.5,-75.5 192.5,-75.5 192.5,-56.5 121.5,-56.5"/>
<text text-anchor="middle" x="157" y="-63.5" font-family="Helvetica,sans-Serif" font-size="10.00">QDateTime</text>
</g>
<!-- Node17&#45;&gt;Node19 -->
<g id="edge21" class="edge"><title>Node17&#45;&gt;Node19</title>
<path fill="none" stroke="midnightblue" d="M157,-112.083C157,-105.006 157,-94.8611 157,-85.9865"/>
<polygon fill="midnightblue" stroke="midnightblue" points="160.5,-85.751 157,-75.7511 153.5,-85.7511 160.5,-85.751"/>
</g>
<!-- Node20 -->
<g id="node20" class="node"><title>Node20</title>
<g id="a_node20"><a xlink:href="../../de/de6/torchttpreader_8h.html" target="_top" xlink:title="torchttpreader.h">
<polygon fill="white" stroke="black" points="210.5,-56.5 210.5,-75.5 305.5,-75.5 305.5,-56.5 210.5,-56.5"/>
<text text-anchor="middle" x="258" y="-63.5" font-family="Helvetica,sans-Serif" font-size="10.00">torchttpreader.h</text>
</a>
</g>
</g>
<!-- Node17&#45;&gt;Node20 -->
<g id="edge22" class="edge"><title>Node17&#45;&gt;Node20</title>
<path fill="none" stroke="midnightblue" d="M173.227,-112.324C189.351,-103.703 214.3,-90.3643 232.964,-80.3855"/>
<polygon fill="midnightblue" stroke="midnightblue" points="234.644,-83.456 241.813,-75.6545 231.344,-77.283 234.644,-83.456"/>
</g>
<!-- Node21 -->
<g id="node21" class="node"><title>Node21</title>
<polygon fill="white" stroke="#bfbfbf" points="177.5,-0.5 177.5,-19.5 248.5,-19.5 248.5,-0.5 177.5,-0.5"/>
<text text-anchor="middle" x="213" y="-7.5" font-family="Helvetica,sans-Serif" font-size="10.00">QByteArray</text>
</g>
<!-- Node20&#45;&gt;Node21 -->
<g id="edge23" class="edge"><title>Node20&#45;&gt;Node21</title>
<path fill="none" stroke="midnightblue" d="M250.569,-56.083C244.147,-48.3768 234.694,-37.0333 226.878,-27.6531"/>
<polygon fill="midnightblue" stroke="midnightblue" points="229.383,-25.1927 220.293,-19.7511 224.006,-29.674 229.383,-25.1927"/>
</g>
<!-- Node22 -->
<g id="node22" class="node"><title>Node22</title>
<polygon fill="white" stroke="#bfbfbf" points="267,-0.5 267,-19.5 339,-19.5 339,-0.5 267,-0.5"/>
<text text-anchor="middle" x="303" y="-7.5" font-family="Helvetica,sans-Serif" font-size="10.00">QTcpSocket</text>
</g>
<!-- Node20&#45;&gt;Node22 -->
<g id="edge24" class="edge"><title>Node20&#45;&gt;Node22</title>
<path fill="none" stroke="midnightblue" d="M265.431,-56.083C271.853,-48.3768 281.306,-37.0333 289.122,-27.6531"/>
<polygon fill="midnightblue" stroke="midnightblue" points="291.994,-29.674 295.707,-19.7511 286.617,-25.1927 291.994,-29.674"/>
</g>
<!-- Node23&#45;&gt;Node8 -->
<g id="edge27" class="edge"><title>Node23&#45;&gt;Node8</title>
<path fill="none" stroke="midnightblue" d="M719.204,-280.075C695.886,-253.38 626.43,-173.865 596.257,-139.322"/>
<polygon fill="midnightblue" stroke="midnightblue" points="598.699,-136.797 589.484,-131.568 593.427,-141.402 598.699,-136.797"/>
</g>
<!-- Node23&#45;&gt;Node9 -->
<g id="edge31" class="edge"><title>Node23&#45;&gt;Node9</title>
<path fill="none" stroke="midnightblue" d="M688.801,-281.569C685.825,-281.025 682.865,-280.496 680,-280 600.32,-266.193 507.967,-252.209 449.285,-243.574"/>
<polygon fill="midnightblue" stroke="midnightblue" points="449.491,-240.067 439.089,-242.078 448.474,-246.993 449.491,-240.067"/>
</g>
<!-- Node24 -->
<g id="node24" class="node"><title>Node24</title>
<polygon fill="white" stroke="#bfbfbf" points="648.5,-168.5 648.5,-187.5 703.5,-187.5 703.5,-168.5 648.5,-168.5"/>
<text text-anchor="middle" x="676" y="-175.5" font-family="Helvetica,sans-Serif" font-size="10.00">QObject</text>
</g>
<!-- Node23&#45;&gt;Node24 -->
<g id="edge28" class="edge"><title>Node23&#45;&gt;Node24</title>
<path fill="none" stroke="midnightblue" d="M722.998,-280.368C714.693,-262.456 695.437,-220.923 684.321,-196.948"/>
<polygon fill="midnightblue" stroke="midnightblue" points="687.365,-195.192 679.983,-187.591 681.014,-198.136 687.365,-195.192"/>
</g>
<!-- Node25 -->
<g id="node25" class="node"><title>Node25</title>
<g id="a_node25"><a xlink:href="../../d8/dfe/torcreferencecounted_8h.html" target="_top" xlink:title="torcreferencecounted.h">
<polygon fill="white" stroke="black" points="964.5,-168.5 964.5,-187.5 1093.5,-187.5 1093.5,-168.5 964.5,-168.5"/>
<text text-anchor="middle" x="1029" y="-175.5" font-family="Helvetica,sans-Serif" font-size="10.00">torcreferencecounted.h</text>
</a>
</g>
</g>
<!-- Node23&#45;&gt;Node25 -->
<g id="edge29" class="edge"><title>Node23&#45;&gt;Node25</title>
<path fill="none" stroke="midnightblue" d="M750.697,-280.368C804.175,-260.89 934.339,-213.479 995.81,-191.089"/>
<polygon fill="midnightblue" stroke="midnightblue" points="997.214,-194.303 1005.41,-187.591 994.819,-187.725 997.214,-194.303"/>
</g>
<!-- Node27 -->
<g id="node27" class="node"><title>Node27</title>
<g id="a_node27"><a xlink:href="../../d1/df7/torcdevice_8h.html" target="_top" xlink:title="torcdevice.h">
<polygon fill="white" stroke="black" points="761.5,-224.5 761.5,-243.5 836.5,-243.5 836.5,-224.5 761.5,-224.5"/>
<text text-anchor="middle" x="799" y="-231.5" font-family="Helvetica,sans-Serif" font-size="10.00">torcdevice.h</text>
</a>
</g>
</g>
<!-- Node23&#45;&gt;Node27 -->
<g id="edge32" class="edge"><title>Node23&#45;&gt;Node27</title>
<path fill="none" stroke="midnightblue" d="M738.568,-280.324C749.42,-272.185 765.881,-259.839 778.883,-250.087"/>
<polygon fill="midnightblue" stroke="midnightblue" points="781.321,-252.634 787.221,-243.834 777.121,-247.034 781.321,-252.634"/>
</g>
<!-- Node26 -->
<g id="node26" class="node"><title>Node26</title>
<polygon fill="white" stroke="#bfbfbf" points="994,-112.5 994,-131.5 1064,-131.5 1064,-112.5 994,-112.5"/>
<text text-anchor="middle" x="1029" y="-119.5" font-family="Helvetica,sans-Serif" font-size="10.00">QAtomicInt</text>
</g>
<!-- Node25&#45;&gt;Node26 -->
<g id="edge30" class="edge"><title>Node25&#45;&gt;Node26</title>
<path fill="none" stroke="midnightblue" d="M1029,-168.083C1029,-161.006 1029,-150.861 1029,-141.986"/>
<polygon fill="midnightblue" stroke="midnightblue" points="1032.5,-141.751 1029,-131.751 1025.5,-141.751 1032.5,-141.751"/>
</g>
<!-- Node27&#45;&gt;Node8 -->
<g id="edge34" class="edge"><title>Node27&#45;&gt;Node8</title>
<path fill="none" stroke="midnightblue" d="M789.632,-224.306C774.528,-210.679 743.4,-184.178 713,-168 682.694,-151.872 645.449,-139.738 618.43,-132.158"/>
<polygon fill="midnightblue" stroke="midnightblue" points="619.18,-128.735 608.611,-129.477 617.336,-135.488 619.18,-128.735"/>
</g>
<!-- Node27&#45;&gt;Node15 -->
<g id="edge35" class="edge"><title>Node27&#45;&gt;Node15</title>
<path fill="none" stroke="midnightblue" d="M836.648,-225.452C857.387,-219.165 881.411,-207.893 894,-188 905.288,-170.162 898.831,-126.183 883,-112 846.152,-78.9886 501.329,-69.7544 386.787,-67.5865"/>
<polygon fill="midnightblue" stroke="midnightblue" points="386.811,-64.0865 376.749,-67.4036 386.684,-71.0853 386.811,-64.0865"/>
</g>
<!-- Node27&#45;&gt;Node24 -->
<g id="edge36" class="edge"><title>Node27&#45;&gt;Node24</title>
<path fill="none" stroke="midnightblue" d="M779.51,-224.444C759.358,-215.596 727.677,-201.687 704.669,-191.586"/>
<polygon fill="midnightblue" stroke="midnightblue" points="705.962,-188.332 695.399,-187.516 703.148,-194.741 705.962,-188.332"/>
</g>
<!-- Node27&#45;&gt;Node25 -->
<g id="edge37" class="edge"><title>Node27&#45;&gt;Node25</title>
<path fill="none" stroke="midnightblue" d="M835.444,-224.444C875.399,-215.063 939.587,-199.993 982.985,-189.804"/>
<polygon fill="midnightblue" stroke="midnightblue" points="983.791,-193.21 992.726,-187.516 982.191,-186.395 983.791,-193.21"/>
</g>
<!-- Node28 -->
<g id="node28" class="node"><title>Node28</title>
<polygon fill="white" stroke="#bfbfbf" points="824.5,-112.5 824.5,-131.5 873.5,-131.5 873.5,-112.5 824.5,-112.5"/>
<text text-anchor="middle" x="849" y="-119.5" font-family="Helvetica,sans-Serif" font-size="10.00">QHash</text>
</g>
<!-- Node27&#45;&gt;Node28 -->
<g id="edge33" class="edge"><title>Node27&#45;&gt;Node28</title>
<path fill="none" stroke="midnightblue" d="M829.247,-224.488C847.125,-217.726 868.3,-206.295 879,-188 888.353,-172.008 876.643,-152.601 865.227,-139.179"/>
<polygon fill="midnightblue" stroke="midnightblue" points="867.687,-136.683 858.348,-131.679 862.528,-141.414 867.687,-136.683"/>
</g>
<!-- Node29 -->
<g id="node29" class="node"><title>Node29</title>
<g id="a_node29"><a xlink:href="../../d2/d5b/torcdevicehandler_8h.html" target="_top" xlink:title="torcdevicehandler.h">
<polygon fill="white" stroke="black" points="760,-168.5 760,-187.5 870,-187.5 870,-168.5 760,-168.5"/>
<text text-anchor="middle" x="815" y="-175.5" font-family="Helvetica,sans-Serif" font-size="10.00">torcdevicehandler.h</text>
</a>
</g>
</g>
<!-- Node27&#45;&gt;Node29 -->
<g id="edge38" class="edge"><title>Node27&#45;&gt;Node29</title>
<path fill="none" stroke="midnightblue" d="M801.642,-224.083C803.786,-216.849 806.879,-206.409 809.549,-197.397"/>
<polygon fill="midnightblue" stroke="midnightblue" points="812.922,-198.333 812.407,-187.751 806.21,-196.345 812.922,-198.333"/>
</g>
<!-- Node29&#45;&gt;Node8 -->
<g id="edge40" class="edge"><title>Node29&#45;&gt;Node8</title>
<path fill="none" stroke="midnightblue" d="M778.08,-168.444C734.364,-158.312 662.008,-141.543 618.483,-131.455"/>
<polygon fill="midnightblue" stroke="midnightblue" points="619.132,-128.013 608.6,-129.165 617.552,-134.832 619.132,-128.013"/>
</g>
<!-- Node29&#45;&gt;Node11 -->
<g id="edge41" class="edge"><title>Node29&#45;&gt;Node11</title>
<path fill="none" stroke="midnightblue" d="M763.661,-168.444C704.708,-158.618 608.304,-142.551 547.329,-132.388"/>
<polygon fill="midnightblue" stroke="midnightblue" points="547.556,-128.878 537.117,-130.686 546.405,-135.783 547.556,-128.878"/>
</g>
<!-- Node29&#45;&gt;Node28 -->
<g id="edge39" class="edge"><title>Node29&#45;&gt;Node28</title>
<path fill="none" stroke="midnightblue" d="M820.614,-168.083C825.367,-160.534 832.318,-149.495 838.152,-140.23"/>
<polygon fill="midnightblue" stroke="midnightblue" points="841.124,-142.078 843.49,-131.751 835.2,-138.349 841.124,-142.078"/>
</g>
<!-- Node30 -->
<g id="node30" class="node"><title>Node30</title>
<polygon fill="white" stroke="#bfbfbf" points="705,-112.5 705,-131.5 763,-131.5 763,-112.5 705,-112.5"/>
<text text-anchor="middle" x="734" y="-119.5" font-family="Helvetica,sans-Serif" font-size="10.00">QVariant</text>
</g>
<!-- Node29&#45;&gt;Node30 -->
<g id="edge42" class="edge"><title>Node29&#45;&gt;Node30</title>
<path fill="none" stroke="midnightblue" d="M801.986,-168.324C789.468,-159.979 770.318,-147.212 755.529,-137.352"/>
<polygon fill="midnightblue" stroke="midnightblue" points="757.244,-134.289 746.982,-131.655 753.361,-140.114 757.244,-134.289"/>
</g>
<!-- Node31&#45;&gt;Node8 -->
<g id="edge44" class="edge"><title>Node31&#45;&gt;Node8</title>
<path fill="none" stroke="midnightblue" d="M571.528,-280.43C568.354,-260.545 561.651,-209.78 568,-168 569.368,-159.001 572.19,-149.325 574.945,-141.26"/>
<polygon fill="midnightblue" stroke="midnightblue" points="578.265,-142.372 578.4,-131.778 571.688,-139.976 578.265,-142.372"/>
</g>
<!-- Node31&#45;&gt;Node9 -->
<g id="edge48" class="edge"><title>Node31&#45;&gt;Node9</title>
<path fill="none" stroke="midnightblue" d="M544.003,-280.444C512.815,-271.241 463.07,-256.562 428.592,-246.388"/>
<polygon fill="midnightblue" stroke="midnightblue" points="429.443,-242.99 418.861,-243.516 427.462,-249.704 429.443,-242.99"/>
</g>
<!-- Node31&#45;&gt;Node24 -->
<g id="edge45" class="edge"><title>Node31&#45;&gt;Node24</title>
<path fill="none" stroke="midnightblue" d="M581.082,-280.368C598.306,-261.974 638.853,-218.671 660.97,-195.052"/>
<polygon fill="midnightblue" stroke="midnightblue" points="663.675,-197.283 667.955,-187.591 658.565,-192.499 663.675,-197.283"/>
</g>
<!-- Node31&#45;&gt;Node27 -->
<g id="edge47" class="edge"><title>Node31&#45;&gt;Node27</title>
<path fill="none" stroke="midnightblue" d="M608.81,-280.444C647.988,-271.083 710.877,-256.056 753.515,-245.868"/>
<polygon fill="midnightblue" stroke="midnightblue" points="754.444,-249.245 763.357,-243.516 752.818,-242.436 754.444,-249.245"/>
</g>
<!-- Node31&#45;&gt;Node30 -->
<g id="edge46" class="edge"><title>Node31&#45;&gt;Node30</title>
<path fill="none" stroke="midnightblue" d="M575.758,-280.21C582.972,-258.485 604.352,-201.597 640,-168 655.625,-153.274 676.964,-142.53 695.361,-135.242"/>
<polygon fill="midnightblue" stroke="midnightblue" points="696.813,-138.435 704.944,-131.644 694.352,-131.882 696.813,-138.435"/>
</g>
</g>
</svg>
        <g id="navigator" transform="translate(0 0)" fill="#404254">
                <rect fill="#f2f5e9" fill-opacity="0.5" stroke="#606060" stroke-width=".5" x="0" y="0" width="60" height="60"/>
                <use id="zoomplus" xlink:href="#zoomPlus" x="17" y="9" onmousedown="handleZoom(evt,'in')"/>
                <use id="zoomminus" xlink:href="#zoomMin" x="42" y="9" onmousedown="handleZoom(evt,'out')"/>
                <use id="reset" xlink:href="#resetDef" x="30" y="36" onmousedown="handleReset()"/>
                <g id="arrowUp" xlink:href="#dirArrow" transform="translate(30 24)" onmousedown="handlePan(0,-1)">
                  <use xlink:href="#rim" fill="#404040">
                        <set attributeName="fill" to="#808080" begin="arrowUp.mouseover" end="arrowUp.mouseout"/>
                  </use>
                  <path fill="none" stroke="white" stroke-width="1.5" d="M0,-3.0v7 M-2.5,-0.5L0,-3.0L2.5,-0.5"/>
                </g>
                <g id="arrowRight" xlink:href="#dirArrow" transform="rotate(90) translate(36 -43)" onmousedown="handlePan(1,0)">
                  <use xlink:href="#rim" fill="#404040">
                        <set attributeName="fill" to="#808080" begin="arrowRight.mouseover" end="arrowRight.mouseout"/>
                  </use>
                  <path fill="none" stroke="white" stroke-width="1.5" d="M0,-3.0v7 M-2.5,-0.5L0,-3.0L2.5,-0.5"/>
                </g>
                <g id="arrowDown" xlink:href="#dirArrow" transform="rotate(180) translate(-30 -48)" onmousedown="handlePan(0,1)">
                  <use xlink:href="#rim" fill="#404040">
                        <set attributeName="fill" to="#808080" begin="arrowDown.mouseover" end="arrowDown.mouseout"/>
                  </use>
                  <path fill="none" stroke="white" stroke-width="1.5" d="M0,-3.0v7 M-2.5,-0.5L0,-3.0L2.5,-0.5"/>
                </g>
                <g id="arrowLeft" xlink:href="#dirArrow" transform="rotate(270) translate(-36 17)" onmousedown="handlePan(-1,0)">
                  <use xlink:href="#rim" fill="#404040">
                        <set attributeName="fill" to="#808080" begin="arrowLeft.mouseover" end="arrowLeft.mouseout"/>
                  </use>
                  <path fill="none" stroke="white" stroke-width="1.5" d="M0,-3.0v7 M-2.5,-0.5L0,-3.0L2.5,-0.5"/>
                </g>
        </g>
        <svg viewBox="0 0 15 15" width="100%" height="30px" preserveAspectRatio="xMaxYMin meet">
         <g id="arrow_out" transform="scale(0.3 0.3)">
          <a xlink:href="torcoutput_8cpp__incl_org.svg" target="_base">
           <rect id="button" ry="5" rx="5" y="6" x="6" height="38" width="38"
                fill="#f2f5e9" fill-opacity="0.5" stroke="#606060" stroke-width="1.0"/>
           <path id="arrow"
             d="M 11.500037,31.436501 C 11.940474,20.09759 22.043105,11.32322 32.158766,21.979434 L 37.068811,17.246167 C 37.068811,17.246167 37.088388,32 37.088388,32 L 22.160133,31.978069 C 22.160133,31.978069 26.997745,27.140456 26.997745,27.140456 C 18.528582,18.264221 13.291696,25.230495 11.500037,31.436501 z"
             style="fill:#404040;"/>
          </a>
         </g>
        </svg>
</svg>
