<?xml version="1.0" encoding="UTF-8" standalone="no"?>
<!DOCTYPE svg PUBLIC "-//W3C//DTD SVG 1.1//EN"
 "http://www.w3.org/Graphics/SVG/1.1/DTD/svg11.dtd">
<!-- Generated by graphviz version 2.38.0 (20140413.2041)
 -->
<!-- Title: torcoutput.cpp Pages: 1 -->
<!--zoomable 420 -->
<svg id="main" version="1.1" xmlns="http://www.w3.org/2000/svg" xmlns:xlink="http://www.w3.org/1999/xlink" xml:space="preserve" onload="init(evt)">
<style type="text/css"><![CDATA[
.edge:hover path { stroke: red; }
.edge:hover polygon { stroke: red; fill: red; }
]]></style>
<script type="text/javascript"><![CDATA[
var edges = document.getElementsByTagName('g');
if (edges && edges.length) {
  for (var i=0;i<edges.length;i++) {
    if (edges[i].id.substr(0,4)=='edge') {
      edges[i].setAttribute('class','edge');
    }
  }
}
]]></script>
        <defs>
                <circle id="rim" cx="0" cy="0" r="7"/>
                <circle id="rim2" cx="0" cy="0" r="3.5"/>
                <g id="zoomPlus">
                        <use xlink:href="#rim" fill="#404040">
                                <set attributeName="fill" to="#808080" begin="zoomplus.mouseover" end="zoomplus.mouseout"/>
                        </use>
                        <path d="M-4,0h8M0,-4v8" fill="none" stroke="white" stroke-width="1.5" pointer-events="none"/>
                </g>
                <g id="zoomMin">
                        <use xlink:href="#rim" fill="#404040">
                                <set attributeName="fill" to="#808080" begin="zoomminus.mouseover" end="zoomminus.mouseout"/>
                        </use>
                        <path d="M-4,0h8" fill="none" stroke="white" stroke-width="1.5" pointer-events="none"/>
                </g>
                <g id="dirArrow">
                        <path fill="none" stroke="white" stroke-width="1.5" d="M0,-3.0v7 M-2.5,-0.5L0,-3.0L2.5,-0.5"/>
                </g>
               <g id="resetDef">
                       <use xlink:href="#rim2" fill="#404040">
                               <set attributeName="fill" to="#808080" begin="reset.mouseover" end="reset.mouseout"/>
                       </use>
               </g>
        </defs>

<script type="text/javascript">
var viewWidth = 1346;
var viewHeight = 420;
var sectionId = 'dynsection-0';
</script>
<script xlink:href="../../svgpan.js"/>
<svg id="graph" class="graph">
<g id="viewport">
<title>torcoutput.cpp</title>
<polygon fill="white" stroke="none" points="-4,4 -4,-416 1342.46,-416 1342.46,4 -4,4"/>
<!-- Node1 -->
<g id="node1" class="node"><title>Node1</title>
<polygon fill="#bfbfbf" stroke="black" points="599,-392.5 599,-411.5 686,-411.5 686,-392.5 599,-392.5"/>
<text text-anchor="middle" x="642.5" y="-399.5" font-family="Helvetica,sans-Serif" font-size="10.00">torcoutput.cpp</text>
</g>
<!-- Node2 -->
<g id="node2" class="node"><title>Node2</title>
<g id="a_node2"><a xlink:href="../../d4/df9/torclogging_8h.html" target="_top" xlink:title="torclogging.h">
<polygon fill="white" stroke="black" points="139,-336.5 139,-355.5 218,-355.5 218,-336.5 139,-336.5"/>
<text text-anchor="middle" x="178.5" y="-343.5" font-family="Helvetica,sans-Serif" font-size="10.00">torclogging.h</text>
</a>
</g>
</g>
<!-- Node1&#45;&gt;Node2 -->
<g id="edge1" class="edge"><title>Node1&#45;&gt;Node2</title>
<path fill="none" stroke="midnightblue" d="M598.848,-395.92C512.283,-385.845 319.377,-363.395 228.142,-352.777"/>
<polygon fill="midnightblue" stroke="midnightblue" points="228.396,-349.283 218.058,-351.604 227.586,-356.236 228.396,-349.283"/>
</g>
<!-- Node6 -->
<g id="node6" class="node"><title>Node6</title>
<g id="a_node6"><a xlink:href="../../d1/d49/torccoreutils_8h.html" target="_top" xlink:title="torccoreutils.h">
<polygon fill="white" stroke="black" points="496,-336.5 496,-355.5 581,-355.5 581,-336.5 496,-336.5"/>
<text text-anchor="middle" x="538.5" y="-343.5" font-family="Helvetica,sans-Serif" font-size="10.00">torccoreutils.h</text>
</a>
</g>
</g>
<!-- Node1&#45;&gt;Node6 -->
<g id="edge5" class="edge"><title>Node1&#45;&gt;Node6</title>
<path fill="none" stroke="midnightblue" d="M625.791,-392.324C609.188,-383.703 583.498,-370.364 564.28,-360.386"/>
<polygon fill="midnightblue" stroke="midnightblue" points="565.656,-357.156 555.168,-355.655 562.43,-363.369 565.656,-357.156"/>
</g>
<!-- Node10 -->
<g id="node10" class="node"><title>Node10</title>
<g id="a_node10"><a xlink:href="../../da/d80/torcoutputs_8h.html" target="_top" xlink:title="torcoutputs.h">
<polygon fill="white" stroke="black" points="924,-336.5 924,-355.5 1005,-355.5 1005,-336.5 924,-336.5"/>
<text text-anchor="middle" x="964.5" y="-343.5" font-family="Helvetica,sans-Serif" font-size="10.00">torcoutputs.h</text>
</a>
</g>
</g>
<!-- Node1&#45;&gt;Node10 -->
<g id="edge9" class="edge"><title>Node1&#45;&gt;Node10</title>
<path fill="none" stroke="midnightblue" d="M686.261,-393.661C745.552,-383.718 851.174,-366.005 913.834,-355.497"/>
<polygon fill="midnightblue" stroke="midnightblue" points="914.601,-358.917 923.884,-353.811 913.443,-352.014 914.601,-358.917"/>
</g>
<!-- Node26 -->
<g id="node26" class="node"><title>Node26</title>
<g id="a_node26"><a xlink:href="../../dc/d01/torcoutput_8h.html" target="_top" xlink:title="torcoutput.h">
<polygon fill="white" stroke="black" points="888.5,-280.5 888.5,-299.5 964.5,-299.5 964.5,-280.5 888.5,-280.5"/>
<text text-anchor="middle" x="926.5" y="-287.5" font-family="Helvetica,sans-Serif" font-size="10.00">torcoutput.h</text>
</a>
</g>
</g>
<!-- Node1&#45;&gt;Node26 -->
<g id="edge53" class="edge"><title>Node1&#45;&gt;Node26</title>
<path fill="none" stroke="midnightblue" d="M664.785,-392.368C714.971,-372.93 836.977,-325.674 894.93,-303.228"/>
<polygon fill="midnightblue" stroke="midnightblue" points="896.258,-306.467 904.319,-299.591 893.729,-299.94 896.258,-306.467"/>
</g>
<!-- Node3 -->
<g id="node3" class="node"><title>Node3</title>
<polygon fill="white" stroke="#bfbfbf" points="117,-280.5 117,-299.5 170,-299.5 170,-280.5 117,-280.5"/>
<text text-anchor="middle" x="143.5" y="-287.5" font-family="Helvetica,sans-Serif" font-size="10.00">stdint.h</text>
</g>
<!-- Node2&#45;&gt;Node3 -->
<g id="edge2" class="edge"><title>Node2&#45;&gt;Node3</title>
<path fill="none" stroke="midnightblue" d="M172.72,-336.083C167.828,-328.534 160.673,-317.495 154.667,-308.23"/>
<polygon fill="midnightblue" stroke="midnightblue" points="157.548,-306.239 149.172,-299.751 151.674,-310.046 157.548,-306.239"/>
</g>
<!-- Node4 -->
<g id="node4" class="node"><title>Node4</title>
<polygon fill="white" stroke="#bfbfbf" points="188,-280.5 188,-299.5 239,-299.5 239,-280.5 188,-280.5"/>
<text text-anchor="middle" x="213.5" y="-287.5" font-family="Helvetica,sans-Serif" font-size="10.00">errno.h</text>
</g>
<!-- Node2&#45;&gt;Node4 -->
<g id="edge3" class="edge"><title>Node2&#45;&gt;Node4</title>
<path fill="none" stroke="midnightblue" d="M184.28,-336.083C189.172,-328.534 196.327,-317.495 202.333,-308.23"/>
<polygon fill="midnightblue" stroke="midnightblue" points="205.326,-310.046 207.828,-299.751 199.452,-306.239 205.326,-310.046"/>
</g>
<!-- Node5 -->
<g id="node5" class="node"><title>Node5</title>
<g id="a_node5"><a xlink:href="../../d1/d37/torcloggingdefs_8h.html" target="_top" xlink:title="torcloggingdefs.h">
<polygon fill="white" stroke="black" points="0,-280.5 0,-299.5 99,-299.5 99,-280.5 0,-280.5"/>
<text text-anchor="middle" x="49.5" y="-287.5" font-family="Helvetica,sans-Serif" font-size="10.00">torcloggingdefs.h</text>
</a>
</g>
</g>
<!-- Node2&#45;&gt;Node5 -->
<g id="edge4" class="edge"><title>Node2&#45;&gt;Node5</title>
<path fill="none" stroke="midnightblue" d="M158.06,-336.444C136.83,-327.557 103.401,-313.563 79.245,-303.451"/>
<polygon fill="midnightblue" stroke="midnightblue" points="80.4207,-300.149 69.8448,-299.516 77.7177,-306.606 80.4207,-300.149"/>
</g>
<!-- Node7 -->
<g id="node7" class="node"><title>Node7</title>
<polygon fill="white" stroke="#bfbfbf" points="481,-280.5 481,-299.5 520,-299.5 520,-280.5 481,-280.5"/>
<text text-anchor="middle" x="500.5" y="-287.5" font-family="Helvetica,sans-Serif" font-size="10.00">QFile</text>
</g>
<!-- Node6&#45;&gt;Node7 -->
<g id="edge6" class="edge"><title>Node6&#45;&gt;Node7</title>
<path fill="none" stroke="midnightblue" d="M532.225,-336.083C526.858,-328.455 518.982,-317.264 512.421,-307.941"/>
<polygon fill="midnightblue" stroke="midnightblue" points="515.275,-305.915 506.658,-299.751 509.551,-309.943 515.275,-305.915"/>
</g>
<!-- Node8 -->
<g id="node8" class="node"><title>Node8</title>
<polygon fill="white" stroke="#bfbfbf" points="538.5,-280.5 538.5,-299.5 614.5,-299.5 614.5,-280.5 538.5,-280.5"/>
<text text-anchor="middle" x="576.5" y="-287.5" font-family="Helvetica,sans-Serif" font-size="10.00">QMetaEnum</text>
</g>
<!-- Node6&#45;&gt;Node8 -->
<g id="edge7" class="edge"><title>Node6&#45;&gt;Node8</title>
<path fill="none" stroke="midnightblue" d="M544.775,-336.083C550.142,-328.455 558.018,-317.264 564.579,-307.941"/>
<polygon fill="midnightblue" stroke="midnightblue" points="567.449,-309.943 570.342,-299.751 561.725,-305.915 567.449,-309.943"/>
</g>
<!-- Node9 -->
<g id="node9" class="node"><title>Node9</title>
<polygon fill="white" stroke="#bfbfbf" points="287,-56.5 287,-75.5 358,-75.5 358,-56.5 287,-56.5"/>
<text text-anchor="middle" x="322.5" y="-63.5" font-family="Helvetica,sans-Serif" font-size="10.00">QDateTime</text>
</g>
<!-- Node6&#45;&gt;Node9 -->
<g id="edge8" class="edge"><title>Node6&#45;&gt;Node9</title>
<path fill="none" stroke="midnightblue" d="M495.858,-336.891C419.541,-321.15 267.5,-283.682 267.5,-235 267.5,-235 267.5,-235 267.5,-177 267.5,-140.569 291.933,-103.836 308.229,-83.387"/>
<polygon fill="midnightblue" stroke="midnightblue" points="310.938,-85.603 314.62,-75.6684 305.546,-81.1386 310.938,-85.603"/>
</g>
<!-- Node11 -->
<g id="node11" class="node"><title>Node11</title>
<polygon fill="white" stroke="#bfbfbf" points="983,-280.5 983,-299.5 1024,-299.5 1024,-280.5 983,-280.5"/>
<text text-anchor="middle" x="1003.5" y="-287.5" font-family="Helvetica,sans-Serif" font-size="10.00">QList</text>
</g>
<!-- Node10&#45;&gt;Node11 -->
<g id="edge10" class="edge"><title>Node10&#45;&gt;Node11</title>
<path fill="none" stroke="midnightblue" d="M970.94,-336.083C976.449,-328.455 984.531,-317.264 991.265,-307.941"/>
<polygon fill="midnightblue" stroke="midnightblue" points="994.162,-309.907 997.18,-299.751 988.487,-305.809 994.162,-309.907"/>
</g>
<!-- Node12 -->
<g id="node12" class="node"><title>Node12</title>
<polygon fill="white" stroke="#bfbfbf" points="1153,-112.5 1153,-131.5 1206,-131.5 1206,-112.5 1153,-112.5"/>
<text text-anchor="middle" x="1179.5" y="-119.5" font-family="Helvetica,sans-Serif" font-size="10.00">QMutex</text>
</g>
<!-- Node10&#45;&gt;Node12 -->
<g id="edge11" class="edge"><title>Node10&#45;&gt;Node12</title>
<path fill="none" stroke="midnightblue" d="M1005.06,-342.879C1058.46,-339.038 1154.57,-328.473 1231.5,-300 1276.75,-283.253 1300.76,-286.004 1324.5,-244 1341.12,-214.593 1344.53,-195.195 1324.5,-168 1299.85,-134.537 1250.55,-125.225 1216.32,-123.007"/>
<polygon fill="midnightblue" stroke="midnightblue" points="1216.38,-119.506 1206.23,-122.528 1216.05,-126.498 1216.38,-119.506"/>
</g>
<!-- Node13 -->
<g id="node13" class="node"><title>Node13</title>
<g id="a_node13"><a xlink:href="../../d3/dee/torchttpservice_8h.html" target="_top" xlink:title="torchttpservice.h">
<polygon fill="white" stroke="black" points="745.5,-224.5 745.5,-243.5 843.5,-243.5 843.5,-224.5 745.5,-224.5"/>
<text text-anchor="middle" x="794.5" y="-231.5" font-family="Helvetica,sans-Serif" font-size="10.00">torchttpservice.h</text>
</a>
</g>
</g>
<!-- Node10&#45;&gt;Node13 -->
<g id="edge12" class="edge"><title>Node10&#45;&gt;Node13</title>
<path fill="none" stroke="midnightblue" d="M946.099,-336.361C928.541,-327.864 901.572,-314.144 879.5,-300 855.258,-284.466 829.215,-263.917 812.436,-250.119"/>
<polygon fill="midnightblue" stroke="midnightblue" points="814.494,-247.278 804.565,-243.581 810.021,-252.663 814.494,-247.278"/>
</g>
<!-- Node10&#45;&gt;Node26 -->
<g id="edge30" class="edge"><title>Node10&#45;&gt;Node26</title>
<path fill="none" stroke="midnightblue" d="M958.225,-336.083C952.858,-328.455 944.982,-317.264 938.421,-307.941"/>
<polygon fill="midnightblue" stroke="midnightblue" points="941.275,-305.915 932.658,-299.751 935.551,-309.943 941.275,-305.915"/>
</g>
<!-- Node34 -->
<g id="node34" class="node"><title>Node34</title>
<g id="a_node34"><a xlink:href="../../d5/d41/torccentral_8h.html" target="_top" xlink:title="torccentral.h">
<polygon fill="white" stroke="black" points="1145,-280.5 1145,-299.5 1222,-299.5 1222,-280.5 1145,-280.5"/>
<text text-anchor="middle" x="1183.5" y="-287.5" font-family="Helvetica,sans-Serif" font-size="10.00">torccentral.h</text>
</a>
</g>
</g>
<!-- Node10&#45;&gt;Node34 -->
<g id="edge47" class="edge"><title>Node10&#45;&gt;Node34</title>
<path fill="none" stroke="midnightblue" d="M999.201,-336.444C1037.08,-327.102 1097.85,-312.119 1139.16,-301.933"/>
<polygon fill="midnightblue" stroke="midnightblue" points="1140.09,-305.309 1148.96,-299.516 1138.41,-298.512 1140.09,-305.309"/>
</g>
<!-- Node13&#45;&gt;Node12 -->
<g id="edge14" class="edge"><title>Node13&#45;&gt;Node12</title>
<path fill="none" stroke="midnightblue" d="M843.549,-228.047C914.411,-220.441 1041.63,-204.974 1084.5,-188 1092.6,-184.792 1133.77,-155.777 1159.18,-137.614"/>
<polygon fill="midnightblue" stroke="midnightblue" points="1161.34,-140.372 1167.43,-131.702 1157.26,-134.681 1161.34,-140.372"/>
</g>
<!-- Node14 -->
<g id="node14" class="node"><title>Node14</title>
<polygon fill="white" stroke="#bfbfbf" points="427.5,-56.5 427.5,-75.5 471.5,-75.5 471.5,-56.5 427.5,-56.5"/>
<text text-anchor="middle" x="449.5" y="-63.5" font-family="Helvetica,sans-Serif" font-size="10.00">QMap</text>
</g>
<!-- Node13&#45;&gt;Node14 -->
<g id="edge13" class="edge"><title>Node13&#45;&gt;Node14</title>
<path fill="none" stroke="midnightblue" d="M745.297,-230.842C672.199,-226.752 539.452,-215.658 501.5,-188 468.031,-163.609 455.892,-113.162 451.654,-85.7383"/>
<polygon fill="midnightblue" stroke="midnightblue" points="455.084,-84.9825 450.282,-75.5382 448.146,-85.9155 455.084,-84.9825"/>
</g>
<!-- Node15 -->
<g id="node15" class="node"><title>Node15</title>
<polygon fill="white" stroke="#bfbfbf" points="898.5,-112.5 898.5,-131.5 990.5,-131.5 990.5,-112.5 898.5,-112.5"/>
<text text-anchor="middle" x="944.5" y="-119.5" font-family="Helvetica,sans-Serif" font-size="10.00">QReadWriteLock</text>
</g>
<!-- Node13&#45;&gt;Node15 -->
<g id="edge15" class="edge"><title>Node13&#45;&gt;Node15</title>
<path fill="none" stroke="midnightblue" d="M806.27,-224.368C831.901,-205.573 892.998,-160.768 924.682,-137.533"/>
<polygon fill="midnightblue" stroke="midnightblue" points="926.79,-140.328 932.784,-131.591 922.651,-134.683 926.79,-140.328"/>
</g>
<!-- Node16 -->
<g id="node16" class="node"><title>Node16</title>
<polygon fill="white" stroke="#bfbfbf" points="637,-168.5 637,-187.5 716,-187.5 716,-168.5 637,-168.5"/>
<text text-anchor="middle" x="676.5" y="-175.5" font-family="Helvetica,sans-Serif" font-size="10.00">QMetaObject</text>
</g>
<!-- Node13&#45;&gt;Node16 -->
<g id="edge16" class="edge"><title>Node13&#45;&gt;Node16</title>
<path fill="none" stroke="midnightblue" d="M775.803,-224.444C756.556,-215.636 726.348,-201.812 704.3,-191.722"/>
<polygon fill="midnightblue" stroke="midnightblue" points="705.66,-188.495 695.11,-187.516 702.747,-194.86 705.66,-188.495"/>
</g>
<!-- Node17 -->
<g id="node17" class="node"><title>Node17</title>
<polygon fill="white" stroke="#bfbfbf" points="734,-168.5 734,-187.5 833,-187.5 833,-168.5 734,-168.5"/>
<text text-anchor="middle" x="783.5" y="-175.5" font-family="Helvetica,sans-Serif" font-size="10.00">QCoreApplication</text>
</g>
<!-- Node13&#45;&gt;Node17 -->
<g id="edge17" class="edge"><title>Node13&#45;&gt;Node17</title>
<path fill="none" stroke="midnightblue" d="M792.684,-224.083C791.226,-216.927 789.129,-206.635 787.307,-197.691"/>
<polygon fill="midnightblue" stroke="midnightblue" points="790.708,-196.851 785.283,-187.751 783.849,-198.248 790.708,-196.851"/>
</g>
<!-- Node18 -->
<g id="node18" class="node"><title>Node18</title>
<g id="a_node18"><a xlink:href="../../d4/d11/torchttphandler_8h.html" target="_top" xlink:title="torchttphandler.h">
<polygon fill="white" stroke="black" points="520,-168.5 520,-187.5 619,-187.5 619,-168.5 520,-168.5"/>
<text text-anchor="middle" x="569.5" y="-175.5" font-family="Helvetica,sans-Serif" font-size="10.00">torchttphandler.h</text>
</a>
</g>
</g>
<!-- Node13&#45;&gt;Node18 -->
<g id="edge18" class="edge"><title>Node13&#45;&gt;Node18</title>
<path fill="none" stroke="midnightblue" d="M758.848,-224.444C719.844,-215.083 657.234,-200.056 614.783,-189.868"/>
<polygon fill="midnightblue" stroke="midnightblue" points="615.526,-186.447 604.985,-187.516 613.892,-193.254 615.526,-186.447"/>
</g>
<!-- Node21 -->
<g id="node21" class="node"><title>Node21</title>
<g id="a_node21"><a xlink:href="../../df/dd7/torchttprequest_8h.html" target="_top" xlink:title="torchttprequest.h">
<polygon fill="white" stroke="black" points="482,-112.5 482,-131.5 583,-131.5 583,-112.5 482,-112.5"/>
<text text-anchor="middle" x="532.5" y="-119.5" font-family="Helvetica,sans-Serif" font-size="10.00">torchttprequest.h</text>
</a>
</g>
</g>
<!-- Node13&#45;&gt;Node21 -->
<g id="edge29" class="edge"><title>Node13&#45;&gt;Node21</title>
<path fill="none" stroke="midnightblue" d="M745.499,-232.548C672.607,-230.719 541.012,-222.576 511.5,-188 499.879,-174.385 509.262,-154.229 518.92,-139.978"/>
<polygon fill="midnightblue" stroke="midnightblue" points="521.982,-141.723 525.089,-131.594 516.344,-137.575 521.982,-141.723"/>
</g>
<!-- Node19 -->
<g id="node19" class="node"><title>Node19</title>
<polygon fill="white" stroke="#bfbfbf" points="681,-56.5 681,-75.5 734,-75.5 734,-56.5 681,-56.5"/>
<text text-anchor="middle" x="707.5" y="-63.5" font-family="Helvetica,sans-Serif" font-size="10.00">QString</text>
</g>
<!-- Node18&#45;&gt;Node19 -->
<g id="edge19" class="edge"><title>Node18&#45;&gt;Node19</title>
<path fill="none" stroke="midnightblue" d="M619.028,-168.94C642.995,-162.646 670.42,-151.532 688.5,-132 700.096,-119.473 704.65,-100.248 706.42,-85.9521"/>
<polygon fill="midnightblue" stroke="midnightblue" points="709.926,-86.0357 707.324,-75.7654 702.954,-85.4168 709.926,-86.0357"/>
</g>
<!-- Node20 -->
<g id="node20" class="node"><title>Node20</title>
<polygon fill="white" stroke="#bfbfbf" points="601.5,-112.5 601.5,-131.5 679.5,-131.5 679.5,-112.5 601.5,-112.5"/>
<text text-anchor="middle" x="640.5" y="-119.5" font-family="Helvetica,sans-Serif" font-size="10.00">QVariantMap</text>
</g>
<!-- Node18&#45;&gt;Node20 -->
<g id="edge20" class="edge"><title>Node18&#45;&gt;Node20</title>
<path fill="none" stroke="midnightblue" d="M580.907,-168.324C591.609,-160.185 607.841,-147.839 620.663,-138.087"/>
<polygon fill="midnightblue" stroke="midnightblue" points="623.044,-140.673 628.885,-131.834 618.807,-135.102 623.044,-140.673"/>
</g>
<!-- Node18&#45;&gt;Node21 -->
<g id="edge21" class="edge"><title>Node18&#45;&gt;Node21</title>
<path fill="none" stroke="midnightblue" d="M563.39,-168.083C558.218,-160.534 550.654,-149.495 544.306,-140.23"/>
<polygon fill="midnightblue" stroke="midnightblue" points="547.036,-138.022 538.496,-131.751 541.261,-141.979 547.036,-138.022"/>
</g>
<!-- Node21&#45;&gt;Node9 -->
<g id="edge25" class="edge"><title>Node21&#45;&gt;Node9</title>
<path fill="none" stroke="midnightblue" d="M499.225,-112.444C463.052,-103.142 405.123,-88.246 365.519,-78.062"/>
<polygon fill="midnightblue" stroke="midnightblue" points="366.176,-74.6172 355.619,-75.5164 364.433,-81.3966 366.176,-74.6172"/>
</g>
<!-- Node21&#45;&gt;Node14 -->
<g id="edge22" class="edge"><title>Node21&#45;&gt;Node14</title>
<path fill="none" stroke="midnightblue" d="M519.165,-112.324C506.338,-103.979 486.715,-91.2122 471.56,-81.3524"/>
<polygon fill="midnightblue" stroke="midnightblue" points="473.093,-78.1742 462.802,-75.6545 469.276,-84.0417 473.093,-78.1742"/>
</g>
<!-- Node21&#45;&gt;Node19 -->
<g id="edge24" class="edge"><title>Node21&#45;&gt;Node19</title>
<path fill="none" stroke="midnightblue" d="M560.229,-112.444C590.188,-103.199 638.052,-88.4296 671.038,-78.2511"/>
<polygon fill="midnightblue" stroke="midnightblue" points="672.238,-81.5438 680.761,-75.2508 670.174,-74.855 672.238,-81.5438"/>
</g>
<!-- Node22 -->
<g id="node22" class="node"><title>Node22</title>
<polygon fill="white" stroke="#bfbfbf" points="603,-56.5 603,-75.5 644,-75.5 644,-56.5 603,-56.5"/>
<text text-anchor="middle" x="623.5" y="-63.5" font-family="Helvetica,sans-Serif" font-size="10.00">QPair</text>
</g>
<!-- Node21&#45;&gt;Node22 -->
<g id="edge23" class="edge"><title>Node21&#45;&gt;Node22</title>
<path fill="none" stroke="midnightblue" d="M547.121,-112.324C561.449,-103.822 583.513,-90.7288 600.249,-80.7975"/>
<polygon fill="midnightblue" stroke="midnightblue" points="602.102,-83.7677 608.916,-75.6545 598.53,-77.7478 602.102,-83.7677"/>
</g>
<!-- Node23 -->
<g id="node23" class="node"><title>Node23</title>
<g id="a_node23"><a xlink:href="../../de/de6/torchttpreader_8h.html" target="_top" xlink:title="torchttpreader.h">
<polygon fill="white" stroke="black" points="490,-56.5 490,-75.5 585,-75.5 585,-56.5 490,-56.5"/>
<text text-anchor="middle" x="537.5" y="-63.5" font-family="Helvetica,sans-Serif" font-size="10.00">torchttpreader.h</text>
</a>
</g>
</g>
<!-- Node21&#45;&gt;Node23 -->
<g id="edge26" class="edge"><title>Node21&#45;&gt;Node23</title>
<path fill="none" stroke="midnightblue" d="M533.326,-112.083C533.981,-105.006 534.92,-94.8611 535.742,-85.9865"/>
<polygon fill="midnightblue" stroke="midnightblue" points="539.253,-86.0312 536.69,-75.7511 532.283,-85.3858 539.253,-86.0312"/>
</g>
<!-- Node24 -->
<g id="node24" class="node"><title>Node24</title>
<polygon fill="white" stroke="#bfbfbf" points="457,-0.5 457,-19.5 528,-19.5 528,-0.5 457,-0.5"/>
<text text-anchor="middle" x="492.5" y="-7.5" font-family="Helvetica,sans-Serif" font-size="10.00">QByteArray</text>
</g>
<!-- Node23&#45;&gt;Node24 -->
<g id="edge27" class="edge"><title>Node23&#45;&gt;Node24</title>
<path fill="none" stroke="midnightblue" d="M530.069,-56.083C523.647,-48.3768 514.194,-37.0333 506.378,-27.6531"/>
<polygon fill="midnightblue" stroke="midnightblue" points="508.883,-25.1927 499.793,-19.7511 503.506,-29.674 508.883,-25.1927"/>
</g>
<!-- Node25 -->
<g id="node25" class="node"><title>Node25</title>
<polygon fill="white" stroke="#bfbfbf" points="546.5,-0.5 546.5,-19.5 618.5,-19.5 618.5,-0.5 546.5,-0.5"/>
<text text-anchor="middle" x="582.5" y="-7.5" font-family="Helvetica,sans-Serif" font-size="10.00">QTcpSocket</text>
</g>
<!-- Node23&#45;&gt;Node25 -->
<g id="edge28" class="edge"><title>Node23&#45;&gt;Node25</title>
<path fill="none" stroke="midnightblue" d="M544.931,-56.083C551.353,-48.3768 560.806,-37.0333 568.622,-27.6531"/>
<polygon fill="midnightblue" stroke="midnightblue" points="571.494,-29.674 575.207,-19.7511 566.117,-25.1927 571.494,-29.674"/>
</g>
<!-- Node26&#45;&gt;Node12 -->
<g id="edge31" class="edge"><title>Node26&#45;&gt;Node12</title>
<path fill="none" stroke="midnightblue" d="M960.424,-280.467C1006.68,-267.36 1089.89,-238.353 1143.5,-188 1157.29,-175.051 1167.09,-155.612 1172.95,-141.366"/>
<polygon fill="midnightblue" stroke="midnightblue" points="1176.35,-142.267 1176.66,-131.677 1169.82,-139.762 1176.35,-142.267"/>
</g>
<!-- Node26&#45;&gt;Node13 -->
<g id="edge35" class="edge"><title>Node26&#45;&gt;Node13</title>
<path fill="none" stroke="midnightblue" d="M905.584,-280.444C883.764,-271.517 849.35,-257.439 824.608,-247.317"/>
<polygon fill="midnightblue" stroke="midnightblue" points="825.899,-244.063 815.318,-243.516 823.248,-250.542 825.899,-244.063"/>
</g>
<!-- Node27 -->
<g id="node27" class="node"><title>Node27</title>
<polygon fill="white" stroke="#bfbfbf" points="1208,-168.5 1208,-187.5 1263,-187.5 1263,-168.5 1208,-168.5"/>
<text text-anchor="middle" x="1235.5" y="-175.5" font-family="Helvetica,sans-Serif" font-size="10.00">QObject</text>
</g>
<!-- Node26&#45;&gt;Node27 -->
<g id="edge32" class="edge"><title>Node26&#45;&gt;Node27</title>
<path fill="none" stroke="midnightblue" d="M964.739,-281.756C968.039,-281.153 971.327,-280.561 974.5,-280 1070.77,-262.991 1109.2,-296.761 1191.5,-244 1208.84,-232.886 1221.04,-212.242 1228.13,-197.193"/>
<polygon fill="midnightblue" stroke="midnightblue" points="1231.41,-198.418 1232.22,-187.854 1225,-195.61 1231.41,-198.418"/>
</g>
<!-- Node28 -->
<g id="node28" class="node"><title>Node28</title>
<g id="a_node28"><a xlink:href="../../d8/dfe/torcreferencecounted_8h.html" target="_top" xlink:title="torcreferencecounted.h">
<polygon fill="white" stroke="black" points="296,-168.5 296,-187.5 425,-187.5 425,-168.5 296,-168.5"/>
<text text-anchor="middle" x="360.5" y="-175.5" font-family="Helvetica,sans-Serif" font-size="10.00">torcreferencecounted.h</text>
</a>
</g>
</g>
<!-- Node26&#45;&gt;Node28 -->
<g id="edge33" class="edge"><title>Node26&#45;&gt;Node28</title>
<path fill="none" stroke="midnightblue" d="M888.484,-281.612C790.32,-262.534 528.104,-211.573 414.37,-189.469"/>
<polygon fill="midnightblue" stroke="midnightblue" points="414.97,-186.021 404.486,-187.549 413.635,-192.892 414.97,-186.021"/>
</g>
<!-- Node30 -->
<g id="node30" class="node"><title>Node30</title>
<g id="a_node30"><a xlink:href="../../d1/df7/torcdevice_8h.html" target="_top" xlink:title="torcdevice.h">
<polygon fill="white" stroke="black" points="941,-224.5 941,-243.5 1016,-243.5 1016,-224.5 941,-224.5"/>
<text text-anchor="middle" x="978.5" y="-231.5" font-family="Helvetica,sans-Serif" font-size="10.00">torcdevice.h</text>
</a>
</g>
</g>
<!-- Node26&#45;&gt;Node30 -->
<g id="edge36" class="edge"><title>Node26&#45;&gt;Node30</title>
<path fill="none" stroke="midnightblue" d="M935.087,-280.083C942.659,-272.22 953.878,-260.569 963.014,-251.081"/>
<polygon fill="midnightblue" stroke="midnightblue" points="965.658,-253.382 970.073,-243.751 960.615,-248.527 965.658,-253.382"/>
</g>
<!-- Node29 -->
<g id="node29" class="node"><title>Node29</title>
<polygon fill="white" stroke="#bfbfbf" points="325.5,-112.5 325.5,-131.5 395.5,-131.5 395.5,-112.5 325.5,-112.5"/>
<text text-anchor="middle" x="360.5" y="-119.5" font-family="Helvetica,sans-Serif" font-size="10.00">QAtomicInt</text>
</g>
<!-- Node28&#45;&gt;Node29 -->
<g id="edge34" class="edge"><title>Node28&#45;&gt;Node29</title>
<path fill="none" stroke="midnightblue" d="M360.5,-168.083C360.5,-161.006 360.5,-150.861 360.5,-141.986"/>
<polygon fill="midnightblue" stroke="midnightblue" points="364,-141.751 360.5,-131.751 357,-141.751 364,-141.751"/>
</g>
<!-- Node30&#45;&gt;Node12 -->
<g id="edge38" class="edge"><title>Node30&#45;&gt;Node12</title>
<path fill="none" stroke="midnightblue" d="M1016.07,-226.129C1045.34,-219.57 1086.14,-207.704 1117.5,-188 1137.62,-175.356 1155.75,-154.736 1167.14,-140.114"/>
<polygon fill="midnightblue" stroke="midnightblue" points="1170.1,-142.004 1173.31,-131.909 1164.5,-137.796 1170.1,-142.004"/>
</g>
<!-- Node30&#45;&gt;Node19 -->
<g id="edge39" class="edge"><title>Node30&#45;&gt;Node19</title>
<path fill="none" stroke="midnightblue" d="M964.311,-224.309C920.043,-197.192 784.197,-113.98 730.085,-80.8345"/>
<polygon fill="midnightblue" stroke="midnightblue" points="731.904,-77.844 721.548,-75.6051 728.247,-83.8132 731.904,-77.844"/>
</g>
<!-- Node30&#45;&gt;Node27 -->
<g id="edge40" class="edge"><title>Node30&#45;&gt;Node27</title>
<path fill="none" stroke="midnightblue" d="M1016.15,-225.09C1064.83,-214.861 1149.13,-197.149 1197.82,-186.917"/>
<polygon fill="midnightblue" stroke="midnightblue" points="1198.58,-190.334 1207.65,-184.852 1197.14,-183.483 1198.58,-190.334"/>
</g>
<!-- Node30&#45;&gt;Node28 -->
<g id="edge41" class="edge"><title>Node30&#45;&gt;Node28</title>
<path fill="none" stroke="midnightblue" d="M940.772,-229.703C840.906,-220.977 568.252,-197.153 435.337,-185.539"/>
<polygon fill="midnightblue" stroke="midnightblue" points="435.506,-182.041 425.239,-184.657 434.897,-189.014 435.506,-182.041"/>
</g>
<!-- Node31 -->
<g id="node31" class="node"><title>Node31</title>
<polygon fill="white" stroke="#bfbfbf" points="1009,-112.5 1009,-131.5 1058,-131.5 1058,-112.5 1009,-112.5"/>
<text text-anchor="middle" x="1033.5" y="-119.5" font-family="Helvetica,sans-Serif" font-size="10.00">QHash</text>
</g>
<!-- Node30&#45;&gt;Node31 -->
<g id="edge37" class="edge"><title>Node30&#45;&gt;Node31</title>
<path fill="none" stroke="midnightblue" d="M971.012,-224.133C961.039,-211.179 945.827,-186.6 956.5,-168 965.754,-151.874 983.267,-140.975 999.256,-133.948"/>
<polygon fill="midnightblue" stroke="midnightblue" points="1000.95,-137.038 1008.93,-130.061 998.343,-130.543 1000.95,-137.038"/>
</g>
<!-- Node32 -->
<g id="node32" class="node"><title>Node32</title>
<g id="a_node32"><a xlink:href="../../d2/d5b/torcdevicehandler_8h.html" target="_top" xlink:title="torcdevicehandler.h">
<polygon fill="white" stroke="black" points="965.5,-168.5 965.5,-187.5 1075.5,-187.5 1075.5,-168.5 965.5,-168.5"/>
<text text-anchor="middle" x="1020.5" y="-175.5" font-family="Helvetica,sans-Serif" font-size="10.00">torcdevicehandler.h</text>
</a>
</g>
</g>
<!-- Node30&#45;&gt;Node32 -->
<g id="edge42" class="edge"><title>Node30&#45;&gt;Node32</title>
<path fill="none" stroke="midnightblue" d="M985.435,-224.083C991.429,-216.377 1000.25,-205.033 1007.55,-195.653"/>
<polygon fill="midnightblue" stroke="midnightblue" points="1010.32,-197.793 1013.69,-187.751 1004.79,-193.496 1010.32,-197.793"/>
</g>
<!-- Node32&#45;&gt;Node12 -->
<g id="edge44" class="edge"><title>Node32&#45;&gt;Node12</title>
<path fill="none" stroke="midnightblue" d="M1045.69,-168.444C1072.44,-159.359 1114.9,-144.939 1144.81,-134.783"/>
<polygon fill="midnightblue" stroke="midnightblue" points="1146.08,-138.046 1154.42,-131.516 1143.83,-131.418 1146.08,-138.046"/>
</g>
<!-- Node32&#45;&gt;Node15 -->
<g id="edge45" class="edge"><title>Node32&#45;&gt;Node15</title>
<path fill="none" stroke="midnightblue" d="M1008.29,-168.324C996.724,-160.107 979.125,-147.602 965.339,-137.807"/>
<polygon fill="midnightblue" stroke="midnightblue" points="967.112,-134.773 956.933,-131.834 963.057,-140.479 967.112,-134.773"/>
</g>
<!-- Node32&#45;&gt;Node31 -->
<g id="edge43" class="edge"><title>Node32&#45;&gt;Node31</title>
<path fill="none" stroke="midnightblue" d="M1022.65,-168.083C1024.37,-160.927 1026.85,-150.635 1029,-141.691"/>
<polygon fill="midnightblue" stroke="midnightblue" points="1032.46,-142.293 1031.39,-131.751 1025.65,-140.654 1032.46,-142.293"/>
</g>
<!-- Node33 -->
<g id="node33" class="node"><title>Node33</title>
<polygon fill="white" stroke="#bfbfbf" points="1076.5,-112.5 1076.5,-131.5 1134.5,-131.5 1134.5,-112.5 1076.5,-112.5"/>
<text text-anchor="middle" x="1105.5" y="-119.5" font-family="Helvetica,sans-Serif" font-size="10.00">QVariant</text>
</g>
<!-- Node32&#45;&gt;Node33 -->
<g id="edge46" class="edge"><title>Node32&#45;&gt;Node33</title>
<path fill="none" stroke="midnightblue" d="M1034.16,-168.324C1047.42,-159.9 1067.77,-146.971 1083.35,-137.074"/>
<polygon fill="midnightblue" stroke="midnightblue" points="1085.31,-139.971 1091.88,-131.655 1081.56,-134.063 1085.31,-139.971"/>
</g>
<!-- Node34&#45;&gt;Node12 -->
<g id="edge48" class="edge"><title>Node34&#45;&gt;Node12</title>
<path fill="none" stroke="midnightblue" d="M1222.15,-286.057C1250.38,-281.65 1286.85,-270.762 1305.5,-244 1324.81,-216.289 1324.96,-195.61 1305.5,-168 1285.45,-139.551 1245.71,-128.988 1216.19,-125.12"/>
<polygon fill="midnightblue" stroke="midnightblue" points="1216.55,-121.639 1206.23,-124.013 1215.78,-128.596 1216.55,-121.639"/>
</g>
<!-- Node34&#45;&gt;Node13 -->
<g id="edge52" class="edge"><title>Node34&#45;&gt;Node13</title>
<path fill="none" stroke="midnightblue" d="M1144.78,-283.625C1076.5,-274.146 934.301,-254.407 853.658,-243.212"/>
<polygon fill="midnightblue" stroke="midnightblue" points="854.046,-239.732 843.659,-241.824 853.083,-246.666 854.046,-239.732"/>
</g>
<!-- Node34&#45;&gt;Node27 -->
<g id="edge49" class="edge"><title>Node34&#45;&gt;Node27</title>
<path fill="none" stroke="midnightblue" d="M1196.49,-280.346C1207.35,-272.323 1222.2,-259.333 1229.5,-244 1236.35,-229.61 1237.48,-211.416 1237.12,-197.939"/>
<polygon fill="midnightblue" stroke="midnightblue" points="1240.61,-197.7 1236.55,-187.915 1233.62,-198.097 1240.61,-197.7"/>
</g>
<!-- Node34&#45;&gt;Node30 -->
<g id="edge51" class="edge"><title>Node34&#45;&gt;Node30</title>
<path fill="none" stroke="midnightblue" d="M1151.02,-280.444C1115.78,-271.162 1059.4,-256.309 1020.74,-246.127"/>
<polygon fill="midnightblue" stroke="midnightblue" points="1021.39,-242.679 1010.83,-243.516 1019.61,-249.448 1021.39,-242.679"/>
</g>
<!-- Node34&#45;&gt;Node33 -->
<g id="edge50" class="edge"><title>Node34&#45;&gt;Node33</title>
<path fill="none" stroke="midnightblue" d="M1198.47,-280.406C1231.33,-260.471 1304.38,-209.607 1272.5,-168 1268.53,-162.812 1192.71,-143.865 1144.61,-132.275"/>
<polygon fill="midnightblue" stroke="midnightblue" points="1145.34,-128.851 1134.8,-129.921 1143.71,-135.658 1145.34,-128.851"/>
</g>
</g>
</svg>
        <g id="navigator" transform="translate(0 0)" fill="#404254">
                <rect fill="#f2f5e9" fill-opacity="0.5" stroke="#606060" stroke-width=".5" x="0" y="0" width="60" height="60"/>
                <use id="zoomplus" xlink:href="#zoomPlus" x="17" y="9" onmousedown="handleZoom(evt,'in')"/>
                <use id="zoomminus" xlink:href="#zoomMin" x="42" y="9" onmousedown="handleZoom(evt,'out')"/>
                <use id="reset" xlink:href="#resetDef" x="30" y="36" onmousedown="handleReset()"/>
                <g id="arrowUp" xlink:href="#dirArrow" transform="translate(30 24)" onmousedown="handlePan(0,-1)">
                  <use xlink:href="#rim" fill="#404040">
                        <set attributeName="fill" to="#808080" begin="arrowUp.mouseover" end="arrowUp.mouseout"/>
                  </use>
                  <path fill="none" stroke="white" stroke-width="1.5" d="M0,-3.0v7 M-2.5,-0.5L0,-3.0L2.5,-0.5"/>
                </g>
                <g id="arrowRight" xlink:href="#dirArrow" transform="rotate(90) translate(36 -43)" onmousedown="handlePan(1,0)">
                  <use xlink:href="#rim" fill="#404040">
                        <set attributeName="fill" to="#808080" begin="arrowRight.mouseover" end="arrowRight.mouseout"/>
                  </use>
                  <path fill="none" stroke="white" stroke-width="1.5" d="M0,-3.0v7 M-2.5,-0.5L0,-3.0L2.5,-0.5"/>
                </g>
                <g id="arrowDown" xlink:href="#dirArrow" transform="rotate(180) translate(-30 -48)" onmousedown="handlePan(0,1)">
                  <use xlink:href="#rim" fill="#404040">
                        <set attributeName="fill" to="#808080" begin="arrowDown.mouseover" end="arrowDown.mouseout"/>
                  </use>
                  <path fill="none" stroke="white" stroke-width="1.5" d="M0,-3.0v7 M-2.5,-0.5L0,-3.0L2.5,-0.5"/>
                </g>
                <g id="arrowLeft" xlink:href="#dirArrow" transform="rotate(270) translate(-36 17)" onmousedown="handlePan(-1,0)">
                  <use xlink:href="#rim" fill="#404040">
                        <set attributeName="fill" to="#808080" begin="arrowLeft.mouseover" end="arrowLeft.mouseout"/>
                  </use>
                  <path fill="none" stroke="white" stroke-width="1.5" d="M0,-3.0v7 M-2.5,-0.5L0,-3.0L2.5,-0.5"/>
                </g>
        </g>
        <svg viewBox="0 0 15 15" width="100%" height="30px" preserveAspectRatio="xMaxYMin meet">
         <g id="arrow_out" transform="scale(0.3 0.3)">
          <a xlink:href="torcoutput_8cpp__incl_org.svg" target="_base">
           <rect id="button" ry="5" rx="5" y="6" x="6" height="38" width="38"
                fill="#f2f5e9" fill-opacity="0.5" stroke="#606060" stroke-width="1.0"/>
           <path id="arrow"
             d="M 11.500037,31.436501 C 11.940474,20.09759 22.043105,11.32322 32.158766,21.979434 L 37.068811,17.246167 C 37.068811,17.246167 37.088388,32 37.088388,32 L 22.160133,31.978069 C 22.160133,31.978069 26.997745,27.140456 26.997745,27.140456 C 18.528582,18.264221 13.291696,25.230495 11.500037,31.436501 z"
             style="fill:#404040;"/>
          </a>
         </g>
        </svg>
</svg>
