<?xml version="1.0" encoding="UTF-8" standalone="no"?>
<!DOCTYPE svg PUBLIC "-//W3C//DTD SVG 1.1//EN"
 "http://www.w3.org/Graphics/SVG/1.1/DTD/svg11.dtd">
<!-- Generated by graphviz version 2.38.0 (20140413.2041)
 -->
<!-- Title: torcnetworkswitchinput.h Pages: 1 -->
<svg width="411pt" height="140pt"
 viewBox="0.00 0.00 410.50 140.00" xmlns="http://www.w3.org/2000/svg" xmlns:xlink="http://www.w3.org/1999/xlink">
<g id="graph0" class="graph" transform="scale(1 1) rotate(0) translate(4 136)">
<title>torcnetworkswitchinput.h</title>
<polygon fill="white" stroke="none" points="-4,4 -4,-136 406.5,-136 406.5,4 -4,4"/>
<!-- Node1 -->
<g id="node1" class="node"><title>Node1</title>
<polygon fill="#bfbfbf" stroke="black" points="161,-112.5 161,-131.5 296,-131.5 296,-112.5 161,-112.5"/>
<text text-anchor="middle" x="228.5" y="-119.5" font-family="Helvetica,sans-Serif" font-size="10.00">torcnetworkswitchinput.h</text>
</g>
<!-- Node2 -->
<g id="node2" class="node"><title>Node2</title>
<g id="a_node2"><a xlink:href="../../d1/d68/torcnetworkbuttoninput_8h.html" target="_top" xlink:title="torcnetworkbuttoninput.h">
<polygon fill="white" stroke="black" points="63,-56.5 63,-75.5 200,-75.5 200,-56.5 63,-56.5"/>
<text text-anchor="middle" x="131.5" y="-63.5" font-family="Helvetica,sans-Serif" font-size="10.00">torcnetworkbuttoninput.h</text>
</a>
</g>
</g>
<!-- Node1&#45;&gt;Node2 -->
<g id="edge1" class="edge"><title>Node1&#45;&gt;Node2</title>
<path fill="none" stroke="midnightblue" d="M204.165,-107.453C186.257,-97.4835 162.446,-84.2279 147.046,-75.6545"/>
<polygon fill="midnightblue" stroke="midnightblue" points="202.475,-110.518 212.915,-112.324 205.88,-104.402 202.475,-110.518"/>
</g>
<!-- Node4 -->
<g id="node4" class="node"><title>Node4</title>
<g id="a_node4"><a xlink:href="../../df/dc7/torcnetworkinputs_8cpp.html" target="_top" xlink:title="torcnetworkinputs.cpp">
<polygon fill="white" stroke="black" points="167.5,-0.5 167.5,-19.5 289.5,-19.5 289.5,-0.5 167.5,-0.5"/>
<text text-anchor="middle" x="228.5" y="-7.5" font-family="Helvetica,sans-Serif" font-size="10.00">torcnetworkinputs.cpp</text>
</a>
</g>
</g>
<!-- Node1&#45;&gt;Node4 -->
<g id="edge4" class="edge"><title>Node1&#45;&gt;Node4</title>
<path fill="none" stroke="midnightblue" d="M228.5,-102.348C228.5,-78.2538 228.5,-37.3079 228.5,-19.5914"/>
<polygon fill="midnightblue" stroke="midnightblue" points="225,-102.368 228.5,-112.368 232,-102.369 225,-102.368"/>
</g>
<!-- Node5 -->
<g id="node5" class="node"><title>Node5</title>
<g id="a_node5"><a xlink:href="../../d2/d56/torcnetworkswitchinput_8cpp.html" target="_top" xlink:title="torcnetworkswitchinput.cpp">
<polygon fill="white" stroke="black" points="256.5,-56.5 256.5,-75.5 402.5,-75.5 402.5,-56.5 256.5,-56.5"/>
<text text-anchor="middle" x="329.5" y="-63.5" font-family="Helvetica,sans-Serif" font-size="10.00">torcnetworkswitchinput.cpp</text>
</a>
</g>
</g>
<!-- Node1&#45;&gt;Node5 -->
<g id="edge5" class="edge"><title>Node1&#45;&gt;Node5</title>
<path fill="none" stroke="midnightblue" d="M253.583,-107.59C272.257,-97.6052 297.204,-84.2672 313.313,-75.6545"/>
<polygon fill="midnightblue" stroke="midnightblue" points="251.896,-104.522 244.727,-112.324 255.196,-110.696 251.896,-104.522"/>
</g>
<!-- Node3 -->
<g id="node3" class="node"><title>Node3</title>
<g id="a_node3"><a xlink:href="../../db/d78/torcnetworkbuttoninput_8cpp.html" target="_top" xlink:title="torcnetworkbuttoninput.cpp">
<polygon fill="white" stroke="black" points="0,-0.5 0,-19.5 149,-19.5 149,-0.5 0,-0.5"/>
<text text-anchor="middle" x="74.5" y="-7.5" font-family="Helvetica,sans-Serif" font-size="10.00">torcnetworkbuttoninput.cpp</text>
</a>
</g>
</g>
<!-- Node2&#45;&gt;Node3 -->
<g id="edge2" class="edge"><title>Node2&#45;&gt;Node3</title>
<path fill="none" stroke="midnightblue" d="M114.879,-49.2533C104.766,-39.6731 92.2234,-27.7906 83.8247,-19.8339"/>
<polygon fill="midnightblue" stroke="midnightblue" points="112.675,-51.9873 122.342,-56.324 117.49,-46.9056 112.675,-51.9873"/>
</g>
<!-- Node2&#45;&gt;Node4 -->
<g id="edge3" class="edge"><title>Node2&#45;&gt;Node4</title>
<path fill="none" stroke="midnightblue" d="M155.835,-51.4526C173.743,-41.4835 197.554,-28.2279 212.954,-19.6545"/>
<polygon fill="midnightblue" stroke="midnightblue" points="154.12,-48.4018 147.085,-56.324 157.525,-54.5179 154.12,-48.4018"/>
</g>
</g>
</svg>
