<?xml version="1.0" encoding="UTF-8" standalone="no"?>
<!DOCTYPE svg PUBLIC "-//W3C//DTD SVG 1.1//EN"
 "http://www.w3.org/Graphics/SVG/1.1/DTD/svg11.dtd">
<!-- Generated by graphviz version 2.38.0 (20140413.2041)
 -->
<!-- Title: TorcXSDFactory Pages: 1 -->
<svg width="542pt" height="84pt"
 viewBox="0.00 0.00 541.50 84.00" xmlns="http://www.w3.org/2000/svg" xmlns:xlink="http://www.w3.org/1999/xlink">
<g id="graph0" class="graph" transform="scale(1 1) rotate(0) translate(4 80)">
<title>TorcXSDFactory</title>
<polygon fill="white" stroke="none" points="-4,4 -4,-80 537.5,-80 537.5,4 -4,4"/>
<!-- Node1 -->
<g id="node1" class="node"><title>Node1</title>
<polygon fill="#bfbfbf" stroke="black" points="211,-56.5 211,-75.5 301,-75.5 301,-56.5 211,-56.5"/>
<text text-anchor="middle" x="256" y="-63.5" font-family="Helvetica,sans-Serif" font-size="10.00">TorcXSDFactory</text>
</g>
<!-- Node2 -->
<g id="node2" class="node"><title>Node2</title>
<g id="a_node2"><a xlink:href="../../d5/d83/class_torc1_wire_x_s_d_factory.html" target="_top" xlink:title="Torc1WireXSDFactory">
<polygon fill="white" stroke="black" points="0,-0.5 0,-19.5 116,-19.5 116,-0.5 0,-0.5"/>
<text text-anchor="middle" x="58" y="-7.5" font-family="Helvetica,sans-Serif" font-size="10.00">Torc1WireXSDFactory</text>
</a>
</g>
</g>
<!-- Node1&#45;&gt;Node2 -->
<g id="edge1" class="edge"><title>Node1&#45;&gt;Node2</title>
<path fill="none" stroke="midnightblue" d="M214.562,-53.6986C177.193,-43.507 123.057,-28.7429 89.2269,-19.5164"/>
<polygon fill="midnightblue" stroke="midnightblue" points="214.058,-57.189 224.626,-56.4435 215.9,-50.4356 214.058,-57.189"/>
</g>
<!-- Node3 -->
<g id="node3" class="node"><title>Node3</title>
<g id="a_node3"><a xlink:href="../../d2/d66/class_torc_i2_c_x_s_d_factory.html" target="_top" xlink:title="TorcI2CXSDFactory">
<polygon fill="white" stroke="black" points="134.5,-0.5 134.5,-19.5 239.5,-19.5 239.5,-0.5 134.5,-0.5"/>
<text text-anchor="middle" x="187" y="-7.5" font-family="Helvetica,sans-Serif" font-size="10.00">TorcI2CXSDFactory</text>
</a>
</g>
</g>
<!-- Node1&#45;&gt;Node3 -->
<g id="edge2" class="edge"><title>Node1&#45;&gt;Node3</title>
<path fill="none" stroke="midnightblue" d="M236.962,-50.1008C224.544,-40.3824 208.757,-28.0269 198.288,-19.8339"/>
<polygon fill="midnightblue" stroke="midnightblue" points="234.882,-52.9171 244.914,-56.324 239.196,-47.4046 234.882,-52.9171"/>
</g>
<!-- Node4 -->
<g id="node4" class="node"><title>Node4</title>
<g id="a_node4"><a xlink:href="../../d1/d6b/class_torc_pi_camera_x_s_d_factory.html" target="_top" xlink:title="TorcPiCameraXSDFactory">
<polygon fill="white" stroke="black" points="257.5,-0.5 257.5,-19.5 394.5,-19.5 394.5,-0.5 257.5,-0.5"/>
<text text-anchor="middle" x="326" y="-7.5" font-family="Helvetica,sans-Serif" font-size="10.00">TorcPiCameraXSDFactory</text>
</a>
</g>
</g>
<!-- Node1&#45;&gt;Node4 -->
<g id="edge3" class="edge"><title>Node1&#45;&gt;Node4</title>
<path fill="none" stroke="midnightblue" d="M275.314,-50.1008C287.912,-40.3824 303.928,-28.0269 314.549,-19.8339"/>
<polygon fill="midnightblue" stroke="midnightblue" points="273.027,-47.4446 267.247,-56.324 277.302,-52.9871 273.027,-47.4446"/>
</g>
<!-- Node5 -->
<g id="node5" class="node"><title>Node5</title>
<g id="a_node5"><a xlink:href="../../d9/df2/class_torc_pi_g_p_i_o_x_s_d_factory.html" target="_top" xlink:title="TorcPiGPIOXSDFactory">
<polygon fill="white" stroke="black" points="412.5,-0.5 412.5,-19.5 533.5,-19.5 533.5,-0.5 412.5,-0.5"/>
<text text-anchor="middle" x="473" y="-7.5" font-family="Helvetica,sans-Serif" font-size="10.00">TorcPiGPIOXSDFactory</text>
</a>
</g>
</g>
<!-- Node1&#45;&gt;Node5 -->
<g id="edge4" class="edge"><title>Node1&#45;&gt;Node5</title>
<path fill="none" stroke="midnightblue" d="M300.108,-54.0237C341.1,-43.8232 401.304,-28.8414 438.777,-19.5164"/>
<polygon fill="midnightblue" stroke="midnightblue" points="299.243,-50.6322 290.384,-56.4435 300.934,-57.425 299.243,-50.6322"/>
</g>
</g>
</svg>
