<?xml version="1.0" encoding="UTF-8" standalone="no"?>
<!DOCTYPE svg PUBLIC "-//W3C//DTD SVG 1.1//EN"
 "http://www.w3.org/Graphics/SVG/1.1/DTD/svg11.dtd">
<!-- Generated by graphviz version 2.38.0 (20140413.2041)
 -->
<!-- Title: torccameraoutput.h Pages: 1 -->
<!--zoomable 364 -->
<svg id="main" version="1.1" xmlns="http://www.w3.org/2000/svg" xmlns:xlink="http://www.w3.org/1999/xlink" xml:space="preserve" onload="init(evt)">
<style type="text/css"><![CDATA[
.edge:hover path { stroke: red; }
.edge:hover polygon { stroke: red; fill: red; }
]]></style>
<script type="text/javascript"><![CDATA[
var edges = document.getElementsByTagName('g');
if (edges && edges.length) {
  for (var i=0;i<edges.length;i++) {
    if (edges[i].id.substr(0,4)=='edge') {
      edges[i].setAttribute('class','edge');
    }
  }
}
]]></script>
        <defs>
                <circle id="rim" cx="0" cy="0" r="7"/>
                <circle id="rim2" cx="0" cy="0" r="3.5"/>
                <g id="zoomPlus">
                        <use xlink:href="#rim" fill="#404040">
                                <set attributeName="fill" to="#808080" begin="zoomplus.mouseover" end="zoomplus.mouseout"/>
                        </use>
                        <path d="M-4,0h8M0,-4v8" fill="none" stroke="white" stroke-width="1.5" pointer-events="none"/>
                </g>
                <g id="zoomMin">
                        <use xlink:href="#rim" fill="#404040">
                                <set attributeName="fill" to="#808080" begin="zoomminus.mouseover" end="zoomminus.mouseout"/>
                        </use>
                        <path d="M-4,0h8" fill="none" stroke="white" stroke-width="1.5" pointer-events="none"/>
                </g>
                <g id="dirArrow">
                        <path fill="none" stroke="white" stroke-width="1.5" d="M0,-3.0v7 M-2.5,-0.5L0,-3.0L2.5,-0.5"/>
                </g>
               <g id="resetDef">
                       <use xlink:href="#rim2" fill="#404040">
                               <set attributeName="fill" to="#808080" begin="reset.mouseover" end="reset.mouseout"/>
                       </use>
               </g>
        </defs>

<script type="text/javascript">
var viewWidth = 1173;
var viewHeight = 364;
var sectionId = 'dynsection-0';
</script>
<script xlink:href="../../svgpan.js"/>
<svg id="graph" class="graph">
<g id="viewport">
<title>torccameraoutput.h</title>
<polygon fill="white" stroke="none" points="-4,4 -4,-360 1168.5,-360 1168.5,4 -4,4"/>
<!-- Node1 -->
<g id="node1" class="node"><title>Node1</title>
<polygon fill="#bfbfbf" stroke="black" points="737.5,-336.5 737.5,-355.5 850.5,-355.5 850.5,-336.5 737.5,-336.5"/>
<text text-anchor="middle" x="794" y="-343.5" font-family="Helvetica,sans-Serif" font-size="10.00">torccameraoutput.h</text>
</g>
<!-- Node2 -->
<g id="node2" class="node"><title>Node2</title>
<g id="a_node2"><a xlink:href="../../dc/d01/torcoutput_8h.html" target="_top" xlink:title="torcoutput.h">
<polygon fill="white" stroke="black" points="680,-280.5 680,-299.5 756,-299.5 756,-280.5 680,-280.5"/>
<text text-anchor="middle" x="718" y="-287.5" font-family="Helvetica,sans-Serif" font-size="10.00">torcoutput.h</text>
</a>
</g>
</g>
<!-- Node1&#45;&gt;Node2 -->
<g id="edge1" class="edge"><title>Node1&#45;&gt;Node2</title>
<path fill="none" stroke="midnightblue" d="M781.789,-336.324C770.224,-328.107 752.625,-315.602 738.839,-305.807"/>
<polygon fill="midnightblue" stroke="midnightblue" points="740.612,-302.773 730.433,-299.834 736.557,-308.479 740.612,-302.773"/>
</g>
<!-- Node24 -->
<g id="node24" class="node"><title>Node24</title>
<g id="a_node24"><a xlink:href="../../d3/d38/torccamera_8h.html" target="_top" xlink:title="torccamera.h">
<polygon fill="white" stroke="black" points="878.5,-224.5 878.5,-243.5 959.5,-243.5 959.5,-224.5 878.5,-224.5"/>
<text text-anchor="middle" x="919" y="-231.5" font-family="Helvetica,sans-Serif" font-size="10.00">torccamera.h</text>
</a>
</g>
</g>
<!-- Node1&#45;&gt;Node24 -->
<g id="edge33" class="edge"><title>Node1&#45;&gt;Node24</title>
<path fill="none" stroke="midnightblue" d="M803.809,-336.368C824.893,-317.814 874.781,-273.913 901.457,-250.438"/>
<polygon fill="midnightblue" stroke="midnightblue" points="904.042,-252.825 909.237,-243.591 899.418,-247.57 904.042,-252.825"/>
</g>
<!-- Node3 -->
<g id="node3" class="node"><title>Node3</title>
<polygon fill="white" stroke="#bfbfbf" points="423.5,-112.5 423.5,-131.5 476.5,-131.5 476.5,-112.5 423.5,-112.5"/>
<text text-anchor="middle" x="450" y="-119.5" font-family="Helvetica,sans-Serif" font-size="10.00">QMutex</text>
</g>
<!-- Node2&#45;&gt;Node3 -->
<g id="edge2" class="edge"><title>Node2&#45;&gt;Node3</title>
<path fill="none" stroke="midnightblue" d="M679.605,-282.964C626.44,-272.668 530.576,-246.812 474,-188 461.892,-175.413 455.798,-156.196 452.791,-141.918"/>
<polygon fill="midnightblue" stroke="midnightblue" points="456.18,-140.982 450.986,-131.747 449.288,-142.205 456.18,-140.982"/>
</g>
<!-- Node4 -->
<g id="node4" class="node"><title>Node4</title>
<polygon fill="white" stroke="#bfbfbf" points="853.5,-168.5 853.5,-187.5 908.5,-187.5 908.5,-168.5 853.5,-168.5"/>
<text text-anchor="middle" x="881" y="-175.5" font-family="Helvetica,sans-Serif" font-size="10.00">QObject</text>
</g>
<!-- Node2&#45;&gt;Node4 -->
<g id="edge3" class="edge"><title>Node2&#45;&gt;Node4</title>
<path fill="none" stroke="midnightblue" d="M730.79,-280.368C758.761,-261.492 825.602,-216.385 859.904,-193.237"/>
<polygon fill="midnightblue" stroke="midnightblue" points="861.938,-196.087 868.269,-187.591 858.022,-190.284 861.938,-196.087"/>
</g>
<!-- Node5 -->
<g id="node5" class="node"><title>Node5</title>
<g id="a_node5"><a xlink:href="../../d8/dfe/torcreferencecounted_8h.html" target="_top" xlink:title="torcreferencecounted.h">
<polygon fill="white" stroke="black" points="706.5,-168.5 706.5,-187.5 835.5,-187.5 835.5,-168.5 706.5,-168.5"/>
<text text-anchor="middle" x="771" y="-175.5" font-family="Helvetica,sans-Serif" font-size="10.00">torcreferencecounted.h</text>
</a>
</g>
</g>
<!-- Node2&#45;&gt;Node5 -->
<g id="edge4" class="edge"><title>Node2&#45;&gt;Node5</title>
<path fill="none" stroke="midnightblue" d="M722.159,-280.368C730.828,-262.376 750.98,-220.55 762.507,-196.627"/>
<polygon fill="midnightblue" stroke="midnightblue" points="765.673,-198.119 766.86,-187.591 759.367,-195.081 765.673,-198.119"/>
</g>
<!-- Node7 -->
<g id="node7" class="node"><title>Node7</title>
<g id="a_node7"><a xlink:href="../../d3/dee/torchttpservice_8h.html" target="_top" xlink:title="torchttpservice.h">
<polygon fill="white" stroke="black" points="154,-224.5 154,-243.5 252,-243.5 252,-224.5 154,-224.5"/>
<text text-anchor="middle" x="203" y="-231.5" font-family="Helvetica,sans-Serif" font-size="10.00">torchttpservice.h</text>
</a>
</g>
</g>
<!-- Node2&#45;&gt;Node7 -->
<g id="edge6" class="edge"><title>Node2&#45;&gt;Node7</title>
<path fill="none" stroke="midnightblue" d="M679.712,-284.985C590.624,-275.644 368.928,-252.398 262.226,-241.21"/>
<polygon fill="midnightblue" stroke="midnightblue" points="262.577,-237.728 252.267,-240.166 261.847,-244.69 262.577,-237.728"/>
</g>
<!-- Node20 -->
<g id="node20" class="node"><title>Node20</title>
<g id="a_node20"><a xlink:href="../../d1/df7/torcdevice_8h.html" target="_top" xlink:title="torcdevice.h">
<polygon fill="white" stroke="black" points="640.5,-224.5 640.5,-243.5 715.5,-243.5 715.5,-224.5 640.5,-224.5"/>
<text text-anchor="middle" x="678" y="-231.5" font-family="Helvetica,sans-Serif" font-size="10.00">torcdevice.h</text>
</a>
</g>
</g>
<!-- Node2&#45;&gt;Node20 -->
<g id="edge23" class="edge"><title>Node2&#45;&gt;Node20</title>
<path fill="none" stroke="midnightblue" d="M711.395,-280.083C705.745,-272.455 697.455,-261.264 690.549,-251.941"/>
<polygon fill="midnightblue" stroke="midnightblue" points="693.247,-249.703 684.482,-243.751 687.622,-253.87 693.247,-249.703"/>
</g>
<!-- Node6 -->
<g id="node6" class="node"><title>Node6</title>
<polygon fill="white" stroke="#bfbfbf" points="736,-112.5 736,-131.5 806,-131.5 806,-112.5 736,-112.5"/>
<text text-anchor="middle" x="771" y="-119.5" font-family="Helvetica,sans-Serif" font-size="10.00">QAtomicInt</text>
</g>
<!-- Node5&#45;&gt;Node6 -->
<g id="edge5" class="edge"><title>Node5&#45;&gt;Node6</title>
<path fill="none" stroke="midnightblue" d="M771,-168.083C771,-161.006 771,-150.861 771,-141.986"/>
<polygon fill="midnightblue" stroke="midnightblue" points="774.5,-141.751 771,-131.751 767.5,-141.751 774.5,-141.751"/>
</g>
<!-- Node7&#45;&gt;Node3 -->
<g id="edge8" class="edge"><title>Node7&#45;&gt;Node3</title>
<path fill="none" stroke="midnightblue" d="M252.091,-226.847C288.509,-220.785 338.483,-209.231 378,-188 401.066,-175.607 422.673,-154.291 436.085,-139.462"/>
<polygon fill="midnightblue" stroke="midnightblue" points="439.02,-141.423 442.983,-131.597 433.758,-136.807 439.02,-141.423"/>
</g>
<!-- Node8 -->
<g id="node8" class="node"><title>Node8</title>
<polygon fill="white" stroke="#bfbfbf" points="0,-56.5 0,-75.5 44,-75.5 44,-56.5 0,-56.5"/>
<text text-anchor="middle" x="22" y="-63.5" font-family="Helvetica,sans-Serif" font-size="10.00">QMap</text>
</g>
<!-- Node7&#45;&gt;Node8 -->
<g id="edge7" class="edge"><title>Node7&#45;&gt;Node8</title>
<path fill="none" stroke="midnightblue" d="M153.787,-225.818C110.567,-218.453 52.2645,-205.591 37,-188 12.226,-159.45 14.7157,-111.854 18.4879,-85.6749"/>
<polygon fill="midnightblue" stroke="midnightblue" points="21.9769,-86.0294 20.1626,-75.5911 15.0714,-84.8825 21.9769,-86.0294"/>
</g>
<!-- Node9 -->
<g id="node9" class="node"><title>Node9</title>
<polygon fill="white" stroke="#bfbfbf" points="56.5,-168.5 56.5,-187.5 135.5,-187.5 135.5,-168.5 56.5,-168.5"/>
<text text-anchor="middle" x="96" y="-175.5" font-family="Helvetica,sans-Serif" font-size="10.00">QMetaObject</text>
</g>
<!-- Node7&#45;&gt;Node9 -->
<g id="edge9" class="edge"><title>Node7&#45;&gt;Node9</title>
<path fill="none" stroke="midnightblue" d="M185.809,-224.324C168.649,-215.664 142.054,-202.242 122.253,-192.249"/>
<polygon fill="midnightblue" stroke="midnightblue" points="123.653,-189.035 113.149,-187.655 120.499,-195.285 123.653,-189.035"/>
</g>
<!-- Node10 -->
<g id="node10" class="node"><title>Node10</title>
<polygon fill="white" stroke="#bfbfbf" points="153.5,-168.5 153.5,-187.5 252.5,-187.5 252.5,-168.5 153.5,-168.5"/>
<text text-anchor="middle" x="203" y="-175.5" font-family="Helvetica,sans-Serif" font-size="10.00">QCoreApplication</text>
</g>
<!-- Node7&#45;&gt;Node10 -->
<g id="edge10" class="edge"><title>Node7&#45;&gt;Node10</title>
<path fill="none" stroke="midnightblue" d="M203,-224.083C203,-217.006 203,-206.861 203,-197.986"/>
<polygon fill="midnightblue" stroke="midnightblue" points="206.5,-197.751 203,-187.751 199.5,-197.751 206.5,-197.751"/>
</g>
<!-- Node11 -->
<g id="node11" class="node"><title>Node11</title>
<g id="a_node11"><a xlink:href="../../d4/d11/torchttphandler_8h.html" target="_top" xlink:title="torchttphandler.h">
<polygon fill="white" stroke="black" points="270.5,-168.5 270.5,-187.5 369.5,-187.5 369.5,-168.5 270.5,-168.5"/>
<text text-anchor="middle" x="320" y="-175.5" font-family="Helvetica,sans-Serif" font-size="10.00">torchttphandler.h</text>
</a>
</g>
</g>
<!-- Node7&#45;&gt;Node11 -->
<g id="edge11" class="edge"><title>Node7&#45;&gt;Node11</title>
<path fill="none" stroke="midnightblue" d="M221.539,-224.444C240.623,-215.636 270.575,-201.812 292.436,-191.722"/>
<polygon fill="midnightblue" stroke="midnightblue" points="293.935,-194.885 301.548,-187.516 291.001,-188.529 293.935,-194.885"/>
</g>
<!-- Node14 -->
<g id="node14" class="node"><title>Node14</title>
<g id="a_node14"><a xlink:href="../../df/dd7/torchttprequest_8h.html" target="_top" xlink:title="torchttprequest.h">
<polygon fill="white" stroke="black" points="161.5,-112.5 161.5,-131.5 262.5,-131.5 262.5,-112.5 161.5,-112.5"/>
<text text-anchor="middle" x="212" y="-119.5" font-family="Helvetica,sans-Serif" font-size="10.00">torchttprequest.h</text>
</a>
</g>
</g>
<!-- Node7&#45;&gt;Node14 -->
<g id="edge22" class="edge"><title>Node7&#45;&gt;Node14</title>
<path fill="none" stroke="midnightblue" d="M153.741,-229.552C97.3186,-223.661 16.3679,-208.105 47,-168 59.8622,-151.16 109.673,-139.11 151.233,-131.743"/>
<polygon fill="midnightblue" stroke="midnightblue" points="152.054,-135.153 161.32,-130.016 150.873,-128.254 152.054,-135.153"/>
</g>
<!-- Node12 -->
<g id="node12" class="node"><title>Node12</title>
<polygon fill="white" stroke="#bfbfbf" points="360.5,-56.5 360.5,-75.5 413.5,-75.5 413.5,-56.5 360.5,-56.5"/>
<text text-anchor="middle" x="387" y="-63.5" font-family="Helvetica,sans-Serif" font-size="10.00">QString</text>
</g>
<!-- Node11&#45;&gt;Node12 -->
<g id="edge12" class="edge"><title>Node11&#45;&gt;Node12</title>
<path fill="none" stroke="midnightblue" d="M332.402,-168.399C343.291,-160.228 358.79,-146.987 368,-132 376.752,-117.757 381.643,-99.284 384.263,-85.6734"/>
<polygon fill="midnightblue" stroke="midnightblue" points="387.752,-86.0265 385.963,-75.5838 380.85,-84.863 387.752,-86.0265"/>
</g>
<!-- Node13 -->
<g id="node13" class="node"><title>Node13</title>
<polygon fill="white" stroke="#bfbfbf" points="281,-112.5 281,-131.5 359,-131.5 359,-112.5 281,-112.5"/>
<text text-anchor="middle" x="320" y="-119.5" font-family="Helvetica,sans-Serif" font-size="10.00">QVariantMap</text>
</g>
<!-- Node11&#45;&gt;Node13 -->
<g id="edge13" class="edge"><title>Node11&#45;&gt;Node13</title>
<path fill="none" stroke="midnightblue" d="M320,-168.083C320,-161.006 320,-150.861 320,-141.986"/>
<polygon fill="midnightblue" stroke="midnightblue" points="323.5,-141.751 320,-131.751 316.5,-141.751 323.5,-141.751"/>
</g>
<!-- Node11&#45;&gt;Node14 -->
<g id="edge14" class="edge"><title>Node11&#45;&gt;Node14</title>
<path fill="none" stroke="midnightblue" d="M302.648,-168.324C285.328,-159.664 258.485,-146.242 238.498,-136.249"/>
<polygon fill="midnightblue" stroke="midnightblue" points="239.819,-132.996 229.309,-131.655 236.688,-139.257 239.819,-132.996"/>
</g>
<!-- Node14&#45;&gt;Node8 -->
<g id="edge15" class="edge"><title>Node14&#45;&gt;Node8</title>
<path fill="none" stroke="midnightblue" d="M181.894,-112.444C147.037,-102.537 89.8533,-86.2846 54.1504,-76.1375"/>
<polygon fill="midnightblue" stroke="midnightblue" points="54.8234,-72.6902 44.2475,-73.323 52.9097,-79.4235 54.8234,-72.6902"/>
</g>
<!-- Node14&#45;&gt;Node12 -->
<g id="edge17" class="edge"><title>Node14&#45;&gt;Node12</title>
<path fill="none" stroke="midnightblue" d="M239.729,-112.444C269.688,-103.199 317.552,-88.4296 350.538,-78.2511"/>
<polygon fill="midnightblue" stroke="midnightblue" points="351.738,-81.5438 360.261,-75.2508 349.674,-74.855 351.738,-81.5438"/>
</g>
<!-- Node15 -->
<g id="node15" class="node"><title>Node15</title>
<polygon fill="white" stroke="#bfbfbf" points="628.5,-56.5 628.5,-75.5 669.5,-75.5 669.5,-56.5 628.5,-56.5"/>
<text text-anchor="middle" x="649" y="-63.5" font-family="Helvetica,sans-Serif" font-size="10.00">QPair</text>
</g>
<!-- Node14&#45;&gt;Node15 -->
<g id="edge16" class="edge"><title>Node14&#45;&gt;Node15</title>
<path fill="none" stroke="midnightblue" d="M262.724,-113.282C265.861,-112.838 268.973,-112.408 272,-112 400.139,-94.7459 553.247,-77.5135 617.831,-70.3993"/>
<polygon fill="midnightblue" stroke="midnightblue" points="618.571,-73.8392 628.129,-69.2681 617.806,-66.881 618.571,-73.8392"/>
</g>
<!-- Node16 -->
<g id="node16" class="node"><title>Node16</title>
<polygon fill="white" stroke="#bfbfbf" points="126.5,-56.5 126.5,-75.5 197.5,-75.5 197.5,-56.5 126.5,-56.5"/>
<text text-anchor="middle" x="162" y="-63.5" font-family="Helvetica,sans-Serif" font-size="10.00">QDateTime</text>
</g>
<!-- Node14&#45;&gt;Node16 -->
<g id="edge18" class="edge"><title>Node14&#45;&gt;Node16</title>
<path fill="none" stroke="midnightblue" d="M203.744,-112.083C196.535,-104.298 185.89,-92.8015 177.154,-83.3665"/>
<polygon fill="midnightblue" stroke="midnightblue" points="179.465,-80.7108 170.103,-75.7511 174.329,-85.4666 179.465,-80.7108"/>
</g>
<!-- Node17 -->
<g id="node17" class="node"><title>Node17</title>
<g id="a_node17"><a xlink:href="../../de/de6/torchttpreader_8h.html" target="_top" xlink:title="torchttpreader.h">
<polygon fill="white" stroke="black" points="215.5,-56.5 215.5,-75.5 310.5,-75.5 310.5,-56.5 215.5,-56.5"/>
<text text-anchor="middle" x="263" y="-63.5" font-family="Helvetica,sans-Serif" font-size="10.00">torchttpreader.h</text>
</a>
</g>
</g>
<!-- Node14&#45;&gt;Node17 -->
<g id="edge19" class="edge"><title>Node14&#45;&gt;Node17</title>
<path fill="none" stroke="midnightblue" d="M220.422,-112.083C227.848,-104.22 238.852,-92.5688 247.812,-83.0813"/>
<polygon fill="midnightblue" stroke="midnightblue" points="250.413,-85.4244 254.735,-75.7511 245.324,-80.618 250.413,-85.4244"/>
</g>
<!-- Node18 -->
<g id="node18" class="node"><title>Node18</title>
<polygon fill="white" stroke="#bfbfbf" points="182.5,-0.5 182.5,-19.5 253.5,-19.5 253.5,-0.5 182.5,-0.5"/>
<text text-anchor="middle" x="218" y="-7.5" font-family="Helvetica,sans-Serif" font-size="10.00">QByteArray</text>
</g>
<!-- Node17&#45;&gt;Node18 -->
<g id="edge20" class="edge"><title>Node17&#45;&gt;Node18</title>
<path fill="none" stroke="midnightblue" d="M255.569,-56.083C249.147,-48.3768 239.694,-37.0333 231.878,-27.6531"/>
<polygon fill="midnightblue" stroke="midnightblue" points="234.383,-25.1927 225.293,-19.7511 229.006,-29.674 234.383,-25.1927"/>
</g>
<!-- Node19 -->
<g id="node19" class="node"><title>Node19</title>
<polygon fill="white" stroke="#bfbfbf" points="272,-0.5 272,-19.5 344,-19.5 344,-0.5 272,-0.5"/>
<text text-anchor="middle" x="308" y="-7.5" font-family="Helvetica,sans-Serif" font-size="10.00">QTcpSocket</text>
</g>
<!-- Node17&#45;&gt;Node19 -->
<g id="edge21" class="edge"><title>Node17&#45;&gt;Node19</title>
<path fill="none" stroke="midnightblue" d="M270.431,-56.083C276.853,-48.3768 286.306,-37.0333 294.122,-27.6531"/>
<polygon fill="midnightblue" stroke="midnightblue" points="296.994,-29.674 300.707,-19.7511 291.617,-25.1927 296.994,-29.674"/>
</g>
<!-- Node20&#45;&gt;Node3 -->
<g id="edge25" class="edge"><title>Node20&#45;&gt;Node3</title>
<path fill="none" stroke="midnightblue" d="M640.198,-230.96C601.554,-227.273 541.232,-216.937 498,-188 480.382,-176.208 466.838,-155.686 458.697,-140.851"/>
<polygon fill="midnightblue" stroke="midnightblue" points="461.647,-138.937 453.94,-131.667 455.431,-142.156 461.647,-138.937"/>
</g>
<!-- Node20&#45;&gt;Node4 -->
<g id="edge27" class="edge"><title>Node20&#45;&gt;Node4</title>
<path fill="none" stroke="midnightblue" d="M710.166,-224.444C746.393,-214.807 805.193,-199.165 843.482,-188.98"/>
<polygon fill="midnightblue" stroke="midnightblue" points="844.461,-192.342 853.225,-186.388 842.661,-185.577 844.461,-192.342"/>
</g>
<!-- Node20&#45;&gt;Node5 -->
<g id="edge28" class="edge"><title>Node20&#45;&gt;Node5</title>
<path fill="none" stroke="midnightblue" d="M692.942,-224.324C707.585,-215.822 730.134,-202.729 747.238,-192.797"/>
<polygon fill="midnightblue" stroke="midnightblue" points="749.205,-195.703 756.095,-187.655 745.69,-189.649 749.205,-195.703"/>
</g>
<!-- Node20&#45;&gt;Node12 -->
<g id="edge26" class="edge"><title>Node20&#45;&gt;Node12</title>
<path fill="none" stroke="midnightblue" d="M640.46,-229.048C608.525,-224.047 562.899,-212.849 531,-188 499.852,-163.736 514.461,-138.286 485,-112 467.313,-96.2195 443.15,-85.0411 423.243,-77.7727"/>
<polygon fill="midnightblue" stroke="midnightblue" points="424.165,-74.3878 413.57,-74.4202 421.872,-81.0018 424.165,-74.3878"/>
</g>
<!-- Node21 -->
<g id="node21" class="node"><title>Node21</title>
<polygon fill="white" stroke="#bfbfbf" points="648.5,-112.5 648.5,-131.5 697.5,-131.5 697.5,-112.5 648.5,-112.5"/>
<text text-anchor="middle" x="673" y="-119.5" font-family="Helvetica,sans-Serif" font-size="10.00">QHash</text>
</g>
<!-- Node20&#45;&gt;Node21 -->
<g id="edge24" class="edge"><title>Node20&#45;&gt;Node21</title>
<path fill="none" stroke="midnightblue" d="M677.608,-224.368C676.801,-206.617 674.939,-165.666 673.845,-141.597"/>
<polygon fill="midnightblue" stroke="midnightblue" points="677.341,-141.422 673.391,-131.591 670.348,-141.74 677.341,-141.422"/>
</g>
<!-- Node22 -->
<g id="node22" class="node"><title>Node22</title>
<g id="a_node22"><a xlink:href="../../d2/d5b/torcdevicehandler_8h.html" target="_top" xlink:title="torcdevicehandler.h">
<polygon fill="white" stroke="black" points="540,-168.5 540,-187.5 650,-187.5 650,-168.5 540,-168.5"/>
<text text-anchor="middle" x="595" y="-175.5" font-family="Helvetica,sans-Serif" font-size="10.00">torcdevicehandler.h</text>
</a>
</g>
</g>
<!-- Node20&#45;&gt;Node22 -->
<g id="edge29" class="edge"><title>Node20&#45;&gt;Node22</title>
<path fill="none" stroke="midnightblue" d="M664.665,-224.324C651.838,-215.979 632.215,-203.212 617.06,-193.352"/>
<polygon fill="midnightblue" stroke="midnightblue" points="618.593,-190.174 608.302,-187.655 614.776,-196.042 618.593,-190.174"/>
</g>
<!-- Node22&#45;&gt;Node3 -->
<g id="edge31" class="edge"><title>Node22&#45;&gt;Node3</title>
<path fill="none" stroke="midnightblue" d="M572.024,-168.444C547.843,-159.438 509.582,-145.189 482.354,-135.049"/>
<polygon fill="midnightblue" stroke="midnightblue" points="483.461,-131.727 472.868,-131.516 481.018,-138.286 483.461,-131.727"/>
</g>
<!-- Node22&#45;&gt;Node21 -->
<g id="edge30" class="edge"><title>Node22&#45;&gt;Node21</title>
<path fill="none" stroke="midnightblue" d="M607.532,-168.324C619.586,-159.979 638.027,-147.212 652.269,-137.352"/>
<polygon fill="midnightblue" stroke="midnightblue" points="654.269,-140.224 660.499,-131.655 650.285,-134.469 654.269,-140.224"/>
</g>
<!-- Node23 -->
<g id="node23" class="node"><title>Node23</title>
<polygon fill="white" stroke="#bfbfbf" points="566,-112.5 566,-131.5 624,-131.5 624,-112.5 566,-112.5"/>
<text text-anchor="middle" x="595" y="-119.5" font-family="Helvetica,sans-Serif" font-size="10.00">QVariant</text>
</g>
<!-- Node22&#45;&gt;Node23 -->
<g id="edge32" class="edge"><title>Node22&#45;&gt;Node23</title>
<path fill="none" stroke="midnightblue" d="M595,-168.083C595,-161.006 595,-150.861 595,-141.986"/>
<polygon fill="midnightblue" stroke="midnightblue" points="598.5,-141.751 595,-131.751 591.5,-141.751 598.5,-141.751"/>
</g>
<!-- Node24&#45;&gt;Node4 -->
<g id="edge34" class="edge"><title>Node24&#45;&gt;Node4</title>
<path fill="none" stroke="midnightblue" d="M912.725,-224.083C907.358,-216.455 899.482,-205.264 892.921,-195.941"/>
<polygon fill="midnightblue" stroke="midnightblue" points="895.775,-193.915 887.158,-187.751 890.051,-197.943 895.775,-193.915"/>
</g>
<!-- Node25 -->
<g id="node25" class="node"><title>Node25</title>
<g id="a_node25"><a xlink:href="../../d2/d60/torcmaths_8h.html" target="_top" xlink:title="torcmaths.h">
<polygon fill="white" stroke="black" points="1089.5,-168.5 1089.5,-187.5 1164.5,-187.5 1164.5,-168.5 1089.5,-168.5"/>
<text text-anchor="middle" x="1127" y="-175.5" font-family="Helvetica,sans-Serif" font-size="10.00">torcmaths.h</text>
</a>
</g>
</g>
<!-- Node24&#45;&gt;Node25 -->
<g id="edge35" class="edge"><title>Node24&#45;&gt;Node25</title>
<path fill="none" stroke="midnightblue" d="M951.958,-224.444C987.787,-215.142 1045.16,-200.246 1084.39,-190.062"/>
<polygon fill="midnightblue" stroke="midnightblue" points="1085.4,-193.417 1094.2,-187.516 1083.64,-186.642 1085.4,-193.417"/>
</g>
<!-- Node27 -->
<g id="node27" class="node"><title>Node27</title>
<g id="a_node27"><a xlink:href="../../de/df7/torcsegmentedringbuffer_8h.html" target="_top" xlink:title="torcsegmentedringbuffer.h">
<polygon fill="white" stroke="black" points="927,-168.5 927,-187.5 1071,-187.5 1071,-168.5 927,-168.5"/>
<text text-anchor="middle" x="999" y="-175.5" font-family="Helvetica,sans-Serif" font-size="10.00">torcsegmentedringbuffer.h</text>
</a>
</g>
</g>
<!-- Node24&#45;&gt;Node27 -->
<g id="edge37" class="edge"><title>Node24&#45;&gt;Node27</title>
<path fill="none" stroke="midnightblue" d="M931.853,-224.324C944.216,-215.979 963.13,-203.212 977.737,-193.352"/>
<polygon fill="midnightblue" stroke="midnightblue" points="979.848,-196.15 986.179,-187.655 975.932,-190.348 979.848,-196.15"/>
</g>
<!-- Node26 -->
<g id="node26" class="node"><title>Node26</title>
<polygon fill="white" stroke="#bfbfbf" points="1090,-112.5 1090,-131.5 1146,-131.5 1146,-112.5 1090,-112.5"/>
<text text-anchor="middle" x="1118" y="-119.5" font-family="Helvetica,sans-Serif" font-size="10.00">QQueue</text>
</g>
<!-- Node25&#45;&gt;Node26 -->
<g id="edge36" class="edge"><title>Node25&#45;&gt;Node26</title>
<path fill="none" stroke="midnightblue" d="M1125.51,-168.083C1124.32,-160.927 1122.61,-150.635 1121.12,-141.691"/>
<polygon fill="midnightblue" stroke="midnightblue" points="1124.55,-141.04 1119.46,-131.751 1117.65,-142.19 1124.55,-141.04"/>
</g>
<!-- Node27&#45;&gt;Node15 -->
<g id="edge38" class="edge"><title>Node27&#45;&gt;Node15</title>
<path fill="none" stroke="midnightblue" d="M973.535,-168.366C947.285,-159.423 905.2,-144.967 869,-132 844.906,-123.369 839.376,-119.8 815,-112 768.296,-97.0541 713.199,-82.765 679.698,-74.4408"/>
<polygon fill="midnightblue" stroke="midnightblue" points="680.165,-70.9512 669.618,-71.9544 678.489,-77.7475 680.165,-70.9512"/>
</g>
<!-- Node27&#45;&gt;Node26 -->
<g id="edge39" class="edge"><title>Node27&#45;&gt;Node26</title>
<path fill="none" stroke="midnightblue" d="M1017.86,-168.444C1037.27,-159.636 1067.73,-145.812 1089.96,-135.722"/>
<polygon fill="midnightblue" stroke="midnightblue" points="1091.57,-138.836 1099.23,-131.516 1088.68,-132.462 1091.57,-138.836"/>
</g>
<!-- Node28 -->
<g id="node28" class="node"><title>Node28</title>
<polygon fill="white" stroke="#bfbfbf" points="878,-112.5 878,-131.5 944,-131.5 944,-112.5 878,-112.5"/>
<text text-anchor="middle" x="911" y="-119.5" font-family="Helvetica,sans-Serif" font-size="10.00">QIODevice</text>
</g>
<!-- Node27&#45;&gt;Node28 -->
<g id="edge40" class="edge"><title>Node27&#45;&gt;Node28</title>
<path fill="none" stroke="midnightblue" d="M984.861,-168.324C971.134,-159.9 950.064,-146.971 933.936,-137.074"/>
<polygon fill="midnightblue" stroke="midnightblue" points="935.457,-133.902 925.104,-131.655 931.796,-139.868 935.457,-133.902"/>
</g>
<!-- Node29 -->
<g id="node29" class="node"><title>Node29</title>
<polygon fill="white" stroke="#bfbfbf" points="962,-112.5 962,-131.5 1054,-131.5 1054,-112.5 962,-112.5"/>
<text text-anchor="middle" x="1008" y="-119.5" font-family="Helvetica,sans-Serif" font-size="10.00">QReadWriteLock</text>
</g>
<!-- Node27&#45;&gt;Node29 -->
<g id="edge41" class="edge"><title>Node27&#45;&gt;Node29</title>
<path fill="none" stroke="midnightblue" d="M1000.49,-168.083C1001.68,-160.927 1003.39,-150.635 1004.88,-141.691"/>
<polygon fill="midnightblue" stroke="midnightblue" points="1008.35,-142.19 1006.54,-131.751 1001.45,-141.04 1008.35,-142.19"/>
</g>
</g>
</svg>
        <g id="navigator" transform="translate(0 0)" fill="#404254">
                <rect fill="#f2f5e9" fill-opacity="0.5" stroke="#606060" stroke-width=".5" x="0" y="0" width="60" height="60"/>
                <use id="zoomplus" xlink:href="#zoomPlus" x="17" y="9" onmousedown="handleZoom(evt,'in')"/>
                <use id="zoomminus" xlink:href="#zoomMin" x="42" y="9" onmousedown="handleZoom(evt,'out')"/>
                <use id="reset" xlink:href="#resetDef" x="30" y="36" onmousedown="handleReset()"/>
                <g id="arrowUp" xlink:href="#dirArrow" transform="translate(30 24)" onmousedown="handlePan(0,-1)">
                  <use xlink:href="#rim" fill="#404040">
                        <set attributeName="fill" to="#808080" begin="arrowUp.mouseover" end="arrowUp.mouseout"/>
                  </use>
                  <path fill="none" stroke="white" stroke-width="1.5" d="M0,-3.0v7 M-2.5,-0.5L0,-3.0L2.5,-0.5"/>
                </g>
                <g id="arrowRight" xlink:href="#dirArrow" transform="rotate(90) translate(36 -43)" onmousedown="handlePan(1,0)">
                  <use xlink:href="#rim" fill="#404040">
                        <set attributeName="fill" to="#808080" begin="arrowRight.mouseover" end="arrowRight.mouseout"/>
                  </use>
                  <path fill="none" stroke="white" stroke-width="1.5" d="M0,-3.0v7 M-2.5,-0.5L0,-3.0L2.5,-0.5"/>
                </g>
                <g id="arrowDown" xlink:href="#dirArrow" transform="rotate(180) translate(-30 -48)" onmousedown="handlePan(0,1)">
                  <use xlink:href="#rim" fill="#404040">
                        <set attributeName="fill" to="#808080" begin="arrowDown.mouseover" end="arrowDown.mouseout"/>
                  </use>
                  <path fill="none" stroke="white" stroke-width="1.5" d="M0,-3.0v7 M-2.5,-0.5L0,-3.0L2.5,-0.5"/>
                </g>
                <g id="arrowLeft" xlink:href="#dirArrow" transform="rotate(270) translate(-36 17)" onmousedown="handlePan(-1,0)">
                  <use xlink:href="#rim" fill="#404040">
                        <set attributeName="fill" to="#808080" begin="arrowLeft.mouseover" end="arrowLeft.mouseout"/>
                  </use>
                  <path fill="none" stroke="white" stroke-width="1.5" d="M0,-3.0v7 M-2.5,-0.5L0,-3.0L2.5,-0.5"/>
                </g>
        </g>
        <svg viewBox="0 0 15 15" width="100%" height="30px" preserveAspectRatio="xMaxYMin meet">
         <g id="arrow_out" transform="scale(0.3 0.3)">
          <a xlink:href="torccameraoutput_8h__incl_org.svg" target="_base">
           <rect id="button" ry="5" rx="5" y="6" x="6" height="38" width="38"
                fill="#f2f5e9" fill-opacity="0.5" stroke="#606060" stroke-width="1.0"/>
           <path id="arrow"
             d="M 11.500037,31.436501 C 11.940474,20.09759 22.043105,11.32322 32.158766,21.979434 L 37.068811,17.246167 C 37.068811,17.246167 37.088388,32 37.088388,32 L 22.160133,31.978069 C 22.160133,31.978069 26.997745,27.140456 26.997745,27.140456 C 18.528582,18.264221 13.291696,25.230495 11.500037,31.436501 z"
             style="fill:#404040;"/>
          </a>
         </g>
        </svg>
</svg>
