<?xml version="1.0" encoding="UTF-8" standalone="no"?>
<!DOCTYPE svg PUBLIC "-//W3C//DTD SVG 1.1//EN"
 "http://www.w3.org/Graphics/SVG/1.1/DTD/svg11.dtd">
<!-- Generated by graphviz version 2.38.0 (20140413.2041)
 -->
<!-- Title: torcxsdtest.cpp Pages: 1 -->
<svg width="1718pt" height="420pt"
 viewBox="0.00 0.00 1717.51 420.00" xmlns="http://www.w3.org/2000/svg" xmlns:xlink="http://www.w3.org/1999/xlink">
<g id="graph0" class="graph" transform="scale(1 1) rotate(0) translate(4 416)">
<title>torcxsdtest.cpp</title>
<polygon fill="white" stroke="none" points="-4,4 -4,-416 1713.51,-416 1713.51,4 -4,4"/>
<!-- Node1 -->
<g id="node1" class="node"><title>Node1</title>
<polygon fill="#bfbfbf" stroke="black" points="348.5,-392.5 348.5,-411.5 439.5,-411.5 439.5,-392.5 348.5,-392.5"/>
<text text-anchor="middle" x="394" y="-399.5" font-family="Helvetica,sans-Serif" font-size="10.00">torcxsdtest.cpp</text>
</g>
<!-- Node2 -->
<g id="node2" class="node"><title>Node2</title>
<polygon fill="white" stroke="#bfbfbf" points="0,-336.5 0,-355.5 38,-355.5 38,-336.5 0,-336.5"/>
<text text-anchor="middle" x="19" y="-343.5" font-family="Helvetica,sans-Serif" font-size="10.00">QDir</text>
</g>
<!-- Node1&#45;&gt;Node2 -->
<g id="edge1" class="edge"><title>Node1&#45;&gt;Node2</title>
<path fill="none" stroke="midnightblue" d="M348.347,-397.743C283.446,-392.531 160.763,-380.532 47.9867,-355.854"/>
<polygon fill="midnightblue" stroke="midnightblue" points="48.6745,-352.421 38.1528,-353.664 47.1527,-359.254 48.6745,-352.421"/>
</g>
<!-- Node3 -->
<g id="node3" class="node"><title>Node3</title>
<polygon fill="white" stroke="#bfbfbf" points="56.5,-336.5 56.5,-355.5 95.5,-355.5 95.5,-336.5 56.5,-336.5"/>
<text text-anchor="middle" x="76" y="-343.5" font-family="Helvetica,sans-Serif" font-size="10.00">QFile</text>
</g>
<!-- Node1&#45;&gt;Node3 -->
<g id="edge2" class="edge"><title>Node1&#45;&gt;Node3</title>
<path fill="none" stroke="midnightblue" d="M348.488,-395.24C292.182,-387.782 193.525,-373.624 110,-356 108.544,-355.693 107.057,-355.362 105.557,-355.016"/>
<polygon fill="midnightblue" stroke="midnightblue" points="106.243,-351.58 95.6954,-352.576 104.562,-358.375 106.243,-351.58"/>
</g>
<!-- Node4 -->
<g id="node4" class="node"><title>Node4</title>
<g id="a_node4"><a xlink:href="../../dd/dbd/torclocalcontext_8h.html" target="_top" xlink:title="torclocalcontext.h">
<polygon fill="white" stroke="black" points="556,-336.5 556,-355.5 658,-355.5 658,-336.5 556,-336.5"/>
<text text-anchor="middle" x="607" y="-343.5" font-family="Helvetica,sans-Serif" font-size="10.00">torclocalcontext.h</text>
</a>
</g>
</g>
<!-- Node1&#45;&gt;Node4 -->
<g id="edge3" class="edge"><title>Node1&#45;&gt;Node4</title>
<path fill="none" stroke="midnightblue" d="M427.75,-392.444C464.518,-383.122 523.446,-368.183 563.622,-357.997"/>
<polygon fill="midnightblue" stroke="midnightblue" points="564.574,-361.367 573.407,-355.516 562.854,-354.581 564.574,-361.367"/>
</g>
<!-- Node39 -->
<g id="node39" class="node"><title>Node39</title>
<g id="a_node39"><a xlink:href="../../d4/df9/torclogging_8h.html" target="_top" xlink:title="torclogging.h">
<polygon fill="white" stroke="black" points="403.5,-168.5 403.5,-187.5 482.5,-187.5 482.5,-168.5 403.5,-168.5"/>
<text text-anchor="middle" x="443" y="-175.5" font-family="Helvetica,sans-Serif" font-size="10.00">torclogging.h</text>
</a>
</g>
</g>
<!-- Node1&#45;&gt;Node39 -->
<g id="edge56" class="edge"><title>Node1&#45;&gt;Node39</title>
<path fill="none" stroke="midnightblue" d="M348.336,-397.522C289.411,-390.302 189.014,-368.115 143,-300 124.092,-272.01 120.958,-249.595 143,-224 174.675,-187.22 316.272,-180.075 393.073,-178.958"/>
<polygon fill="midnightblue" stroke="midnightblue" points="393.503,-182.453 403.462,-178.838 393.422,-175.454 393.503,-182.453"/>
</g>
<!-- Node43 -->
<g id="node43" class="node"><title>Node43</title>
<g id="a_node43"><a xlink:href="../../d4/dbd/torcexitcodes_8h.html" target="_top" xlink:title="torcexitcodes.h">
<polygon fill="white" stroke="black" points="1122,-336.5 1122,-355.5 1212,-355.5 1212,-336.5 1122,-336.5"/>
<text text-anchor="middle" x="1167" y="-343.5" font-family="Helvetica,sans-Serif" font-size="10.00">torcexitcodes.h</text>
</a>
</g>
</g>
<!-- Node1&#45;&gt;Node43 -->
<g id="edge55" class="edge"><title>Node1&#45;&gt;Node43</title>
<path fill="none" stroke="midnightblue" d="M439.568,-399.771C552.001,-396.392 851.767,-385.267 1111.95,-355.999"/>
<polygon fill="midnightblue" stroke="midnightblue" points="1112.43,-359.467 1121.97,-354.861 1111.64,-352.512 1112.43,-359.467"/>
</g>
<!-- Node44 -->
<g id="node44" class="node"><title>Node44</title>
<g id="a_node44"><a xlink:href="../../d1/d6c/torcdirectories_8h.html" target="_top" xlink:title="torcdirectories.h">
<polygon fill="white" stroke="black" points="276.5,-280.5 276.5,-299.5 371.5,-299.5 371.5,-280.5 276.5,-280.5"/>
<text text-anchor="middle" x="324" y="-287.5" font-family="Helvetica,sans-Serif" font-size="10.00">torcdirectories.h</text>
</a>
</g>
</g>
<!-- Node1&#45;&gt;Node44 -->
<g id="edge57" class="edge"><title>Node1&#45;&gt;Node44</title>
<path fill="none" stroke="midnightblue" d="M388.507,-392.368C377.006,-374.296 350.203,-332.176 335.014,-308.307"/>
<polygon fill="midnightblue" stroke="midnightblue" points="337.789,-306.149 329.467,-299.591 331.883,-309.907 337.789,-306.149"/>
</g>
<!-- Node45 -->
<g id="node45" class="node"><title>Node45</title>
<g id="a_node45"><a xlink:href="../../d5/d41/torccentral_8h.html" target="_top" xlink:title="torccentral.h">
<polygon fill="white" stroke="black" points="1026.5,-336.5 1026.5,-355.5 1103.5,-355.5 1103.5,-336.5 1026.5,-336.5"/>
<text text-anchor="middle" x="1065" y="-343.5" font-family="Helvetica,sans-Serif" font-size="10.00">torccentral.h</text>
</a>
</g>
</g>
<!-- Node1&#45;&gt;Node45 -->
<g id="edge60" class="edge"><title>Node1&#45;&gt;Node45</title>
<path fill="none" stroke="midnightblue" d="M439.593,-397.331C560.953,-387.564 891.12,-360.993 1016.14,-350.932"/>
<polygon fill="midnightblue" stroke="midnightblue" points="1016.5,-354.414 1026.19,-350.123 1015.94,-347.437 1016.5,-354.414"/>
</g>
<!-- Node48 -->
<g id="node48" class="node"><title>Node48</title>
<g id="a_node48"><a xlink:href="../../da/dd8/torcxsdtest_8h.html" target="_top" xlink:title="torcxsdtest.h">
<polygon fill="white" stroke="black" points="390,-280.5 390,-299.5 470,-299.5 470,-280.5 390,-280.5"/>
<text text-anchor="middle" x="430" y="-287.5" font-family="Helvetica,sans-Serif" font-size="10.00">torcxsdtest.h</text>
</a>
</g>
</g>
<!-- Node1&#45;&gt;Node48 -->
<g id="edge75" class="edge"><title>Node1&#45;&gt;Node48</title>
<path fill="none" stroke="midnightblue" d="M396.825,-392.368C402.661,-374.537 416.158,-333.295 424.02,-309.272"/>
<polygon fill="midnightblue" stroke="midnightblue" points="427.404,-310.184 427.188,-299.591 420.751,-308.007 427.404,-310.184"/>
</g>
<!-- Node5 -->
<g id="node5" class="node"><title>Node5</title>
<polygon fill="white" stroke="#bfbfbf" points="701.5,-168.5 701.5,-187.5 756.5,-187.5 756.5,-168.5 701.5,-168.5"/>
<text text-anchor="middle" x="729" y="-175.5" font-family="Helvetica,sans-Serif" font-size="10.00">QObject</text>
</g>
<!-- Node4&#45;&gt;Node5 -->
<g id="edge4" class="edge"><title>Node4&#45;&gt;Node5</title>
<path fill="none" stroke="midnightblue" d="M589.215,-336.458C575.648,-328.906 557.836,-316.52 549,-300 533.048,-270.173 524.116,-250.607 545,-224 562.829,-201.285 642.785,-188.558 691.24,-182.805"/>
<polygon fill="midnightblue" stroke="midnightblue" points="691.822,-186.262 701.361,-181.651 691.028,-179.307 691.822,-186.262"/>
</g>
<!-- Node6 -->
<g id="node6" class="node"><title>Node6</title>
<polygon fill="white" stroke="#bfbfbf" points="630.5,-56.5 630.5,-75.5 683.5,-75.5 683.5,-56.5 630.5,-56.5"/>
<text text-anchor="middle" x="657" y="-63.5" font-family="Helvetica,sans-Serif" font-size="10.00">QString</text>
</g>
<!-- Node4&#45;&gt;Node6 -->
<g id="edge5" class="edge"><title>Node4&#45;&gt;Node6</title>
<path fill="none" stroke="midnightblue" d="M555.727,-344.727C450.469,-343.413 213.938,-336.372 143,-300 108.809,-282.469 86,-273.423 86,-235 86,-235 86,-235 86,-177 86,-122.434 493.251,-81.5782 619.885,-70.1931"/>
<polygon fill="midnightblue" stroke="midnightblue" points="620.575,-73.6456 630.225,-69.2731 619.954,-66.6732 620.575,-73.6456"/>
</g>
<!-- Node7 -->
<g id="node7" class="node"><title>Node7</title>
<polygon fill="white" stroke="#bfbfbf" points="554,-224.5 554,-243.5 646,-243.5 646,-224.5 554,-224.5"/>
<text text-anchor="middle" x="600" y="-231.5" font-family="Helvetica,sans-Serif" font-size="10.00">QReadWriteLock</text>
</g>
<!-- Node4&#45;&gt;Node7 -->
<g id="edge6" class="edge"><title>Node4&#45;&gt;Node7</title>
<path fill="none" stroke="midnightblue" d="M591.217,-336.467C578.797,-328.769 562.395,-316.179 555,-300 546.527,-281.463 563.026,-262.56 578.377,-249.953"/>
<polygon fill="midnightblue" stroke="midnightblue" points="580.81,-252.498 586.621,-243.639 576.554,-246.941 580.81,-252.498"/>
</g>
<!-- Node8 -->
<g id="node8" class="node"><title>Node8</title>
<polygon fill="white" stroke="#bfbfbf" points="1616.5,-168.5 1616.5,-187.5 1669.5,-187.5 1669.5,-168.5 1616.5,-168.5"/>
<text text-anchor="middle" x="1643" y="-175.5" font-family="Helvetica,sans-Serif" font-size="10.00">QMutex</text>
</g>
<!-- Node4&#45;&gt;Node8 -->
<g id="edge7" class="edge"><title>Node4&#45;&gt;Node8</title>
<path fill="none" stroke="midnightblue" d="M658.087,-343.566C813.787,-338.98 1280.89,-323.583 1431,-300 1527.7,-284.809 1584.23,-321.516 1644,-244 1654.1,-230.895 1652.31,-211.479 1648.93,-197.28"/>
<polygon fill="midnightblue" stroke="midnightblue" points="1652.29,-196.304 1646.2,-187.63 1645.55,-198.205 1652.29,-196.304"/>
</g>
<!-- Node9 -->
<g id="node9" class="node"><title>Node9</title>
<g id="a_node9"><a xlink:href="../../db/db2/torclocaldefs_8h.html" target="_top" xlink:title="torclocaldefs.h">
<polygon fill="white" stroke="black" points="564,-280.5 564,-299.5 650,-299.5 650,-280.5 564,-280.5"/>
<text text-anchor="middle" x="607" y="-287.5" font-family="Helvetica,sans-Serif" font-size="10.00">torclocaldefs.h</text>
</a>
</g>
</g>
<!-- Node4&#45;&gt;Node9 -->
<g id="edge8" class="edge"><title>Node4&#45;&gt;Node9</title>
<path fill="none" stroke="midnightblue" d="M607,-336.083C607,-329.006 607,-318.861 607,-309.986"/>
<polygon fill="midnightblue" stroke="midnightblue" points="610.5,-309.751 607,-299.751 603.5,-309.751 610.5,-309.751"/>
</g>
<!-- Node10 -->
<g id="node10" class="node"><title>Node10</title>
<g id="a_node10"><a xlink:href="../../db/df5/torcsetting_8h.html" target="_top" xlink:title="torcsetting.h">
<polygon fill="white" stroke="black" points="706.5,-280.5 706.5,-299.5 783.5,-299.5 783.5,-280.5 706.5,-280.5"/>
<text text-anchor="middle" x="745" y="-287.5" font-family="Helvetica,sans-Serif" font-size="10.00">torcsetting.h</text>
</a>
</g>
</g>
<!-- Node4&#45;&gt;Node10 -->
<g id="edge9" class="edge"><title>Node4&#45;&gt;Node10</title>
<path fill="none" stroke="midnightblue" d="M628.867,-336.444C651.779,-327.478 687.975,-313.314 713.866,-303.183"/>
<polygon fill="midnightblue" stroke="midnightblue" points="715.199,-306.42 723.236,-299.516 712.648,-299.901 715.199,-306.42"/>
</g>
<!-- Node28 -->
<g id="node28" class="node"><title>Node28</title>
<g id="a_node28"><a xlink:href="../../d6/d94/torcobservable_8h.html" target="_top" xlink:title="torcobservable.h">
<polygon fill="white" stroke="black" points="801.5,-280.5 801.5,-299.5 898.5,-299.5 898.5,-280.5 801.5,-280.5"/>
<text text-anchor="middle" x="850" y="-287.5" font-family="Helvetica,sans-Serif" font-size="10.00">torcobservable.h</text>
</a>
</g>
</g>
<!-- Node4&#45;&gt;Node28 -->
<g id="edge34" class="edge"><title>Node4&#45;&gt;Node28</title>
<path fill="none" stroke="midnightblue" d="M645.504,-336.444C687.806,-327.043 755.819,-311.929 801.673,-301.739"/>
<polygon fill="midnightblue" stroke="midnightblue" points="802.673,-305.102 811.676,-299.516 801.155,-298.269 802.673,-305.102"/>
</g>
<!-- Node31 -->
<g id="node31" class="node"><title>Node31</title>
<g id="a_node31"><a xlink:href="../../d7/d70/torcsqlitedb_8h.html" target="_top" xlink:title="torcsqlitedb.h">
<polygon fill="white" stroke="black" points="955,-280.5 955,-299.5 1037,-299.5 1037,-280.5 955,-280.5"/>
<text text-anchor="middle" x="996" y="-287.5" font-family="Helvetica,sans-Serif" font-size="10.00">torcsqlitedb.h</text>
</a>
</g>
</g>
<!-- Node4&#45;&gt;Node31 -->
<g id="edge39" class="edge"><title>Node4&#45;&gt;Node31</title>
<path fill="none" stroke="midnightblue" d="M658.255,-337.885C732.737,-327.546 870.105,-308.476 944.644,-298.129"/>
<polygon fill="midnightblue" stroke="midnightblue" points="945.308,-301.571 954.731,-296.729 944.345,-294.637 945.308,-301.571"/>
</g>
<!-- Node33 -->
<g id="node33" class="node"><title>Node33</title>
<g id="a_node33"><a xlink:href="../../dd/dd5/torcadminthread_8h.html" target="_top" xlink:title="torcadminthread.h">
<polygon fill="white" stroke="black" points="152,-280.5 152,-299.5 258,-299.5 258,-280.5 152,-280.5"/>
<text text-anchor="middle" x="205" y="-287.5" font-family="Helvetica,sans-Serif" font-size="10.00">torcadminthread.h</text>
</a>
</g>
</g>
<!-- Node4&#45;&gt;Node33 -->
<g id="edge43" class="edge"><title>Node4&#45;&gt;Node33</title>
<path fill="none" stroke="midnightblue" d="M555.995,-338.452C491.482,-330.126 376.69,-315.159 268.231,-300.157"/>
<polygon fill="midnightblue" stroke="midnightblue" points="268.479,-296.658 258.094,-298.752 267.518,-303.592 268.479,-296.658"/>
</g>
<!-- Node37 -->
<g id="node37" class="node"><title>Node37</title>
<g id="a_node37"><a xlink:href="../../db/d41/torccommandline_8h.html" target="_top" xlink:title="torccommandline.h">
<polygon fill="white" stroke="black" points="388,-224.5 388,-243.5 498,-243.5 498,-224.5 388,-224.5"/>
<text text-anchor="middle" x="443" y="-231.5" font-family="Helvetica,sans-Serif" font-size="10.00">torccommandline.h</text>
</a>
</g>
</g>
<!-- Node4&#45;&gt;Node37 -->
<g id="edge47" class="edge"><title>Node4&#45;&gt;Node37</title>
<path fill="none" stroke="midnightblue" d="M622.713,-336.343C643.394,-323.853 675.32,-300.07 659,-280 649.391,-268.183 568.347,-253.679 508.34,-244.389"/>
<polygon fill="midnightblue" stroke="midnightblue" points="508.569,-240.884 498.155,-242.831 507.51,-247.803 508.569,-240.884"/>
</g>
<!-- Node10&#45;&gt;Node5 -->
<g id="edge12" class="edge"><title>Node10&#45;&gt;Node5</title>
<path fill="none" stroke="midnightblue" d="M729.217,-280.467C716.797,-272.769 700.395,-260.179 693,-244 685.095,-226.706 698.23,-207.777 710.795,-194.83"/>
<polygon fill="midnightblue" stroke="midnightblue" points="713.54,-197.048 718.352,-187.609 708.704,-191.987 713.54,-197.048"/>
</g>
<!-- Node10&#45;&gt;Node7 -->
<g id="edge11" class="edge"><title>Node10&#45;&gt;Node7</title>
<path fill="none" stroke="midnightblue" d="M722.024,-280.444C697.843,-271.438 659.582,-257.189 632.354,-247.049"/>
<polygon fill="midnightblue" stroke="midnightblue" points="633.461,-243.727 622.868,-243.516 631.018,-250.286 633.461,-243.727"/>
</g>
<!-- Node11 -->
<g id="node11" class="node"><title>Node11</title>
<polygon fill="white" stroke="#bfbfbf" points="702.5,-224.5 702.5,-243.5 743.5,-243.5 743.5,-224.5 702.5,-224.5"/>
<text text-anchor="middle" x="723" y="-231.5" font-family="Helvetica,sans-Serif" font-size="10.00">QSet</text>
</g>
<!-- Node10&#45;&gt;Node11 -->
<g id="edge10" class="edge"><title>Node10&#45;&gt;Node11</title>
<path fill="none" stroke="midnightblue" d="M741.367,-280.083C738.388,-272.77 734.074,-262.181 730.375,-253.103"/>
<polygon fill="midnightblue" stroke="midnightblue" points="733.58,-251.691 726.565,-243.751 727.097,-254.333 733.58,-251.691"/>
</g>
<!-- Node12 -->
<g id="node12" class="node"><title>Node12</title>
<polygon fill="white" stroke="#bfbfbf" points="831,-168.5 831,-187.5 889,-187.5 889,-168.5 831,-168.5"/>
<text text-anchor="middle" x="860" y="-175.5" font-family="Helvetica,sans-Serif" font-size="10.00">QVariant</text>
</g>
<!-- Node10&#45;&gt;Node12 -->
<g id="edge13" class="edge"><title>Node10&#45;&gt;Node12</title>
<path fill="none" stroke="midnightblue" d="M778.279,-280.364C798.409,-273.555 823.162,-262.117 839,-244 850.333,-231.037 855.565,-211.871 857.972,-197.707"/>
<polygon fill="midnightblue" stroke="midnightblue" points="861.462,-198.018 859.359,-187.634 854.528,-197.063 861.462,-198.018"/>
</g>
<!-- Node13 -->
<g id="node13" class="node"><title>Node13</title>
<polygon fill="white" stroke="#bfbfbf" points="761.5,-224.5 761.5,-243.5 830.5,-243.5 830.5,-224.5 761.5,-224.5"/>
<text text-anchor="middle" x="796" y="-231.5" font-family="Helvetica,sans-Serif" font-size="10.00">QStringList</text>
</g>
<!-- Node10&#45;&gt;Node13 -->
<g id="edge14" class="edge"><title>Node10&#45;&gt;Node13</title>
<path fill="none" stroke="midnightblue" d="M753.422,-280.083C760.848,-272.22 771.852,-260.569 780.812,-251.081"/>
<polygon fill="midnightblue" stroke="midnightblue" points="783.413,-253.424 787.735,-243.751 778.324,-248.618 783.413,-253.424"/>
</g>
<!-- Node14 -->
<g id="node14" class="node"><title>Node14</title>
<g id="a_node14"><a xlink:href="../../d3/dee/torchttpservice_8h.html" target="_top" xlink:title="torchttpservice.h">
<polygon fill="white" stroke="black" points="1203,-224.5 1203,-243.5 1301,-243.5 1301,-224.5 1203,-224.5"/>
<text text-anchor="middle" x="1252" y="-231.5" font-family="Helvetica,sans-Serif" font-size="10.00">torchttpservice.h</text>
</a>
</g>
</g>
<!-- Node10&#45;&gt;Node14 -->
<g id="edge15" class="edge"><title>Node10&#45;&gt;Node14</title>
<path fill="none" stroke="midnightblue" d="M783.681,-281.302C786.492,-280.832 789.286,-280.392 792,-280 811.534,-277.18 1072.79,-252.111 1192.65,-240.66"/>
<polygon fill="midnightblue" stroke="midnightblue" points="1193.14,-244.129 1202.76,-239.694 1192.47,-237.161 1193.14,-244.129"/>
</g>
<!-- Node26 -->
<g id="node26" class="node"><title>Node26</title>
<g id="a_node26"><a xlink:href="../../d8/dfe/torcreferencecounted_8h.html" target="_top" xlink:title="torcreferencecounted.h">
<polygon fill="white" stroke="black" points="1319.5,-224.5 1319.5,-243.5 1448.5,-243.5 1448.5,-224.5 1319.5,-224.5"/>
<text text-anchor="middle" x="1384" y="-231.5" font-family="Helvetica,sans-Serif" font-size="10.00">torcreferencecounted.h</text>
</a>
</g>
</g>
<!-- Node10&#45;&gt;Node26 -->
<g id="edge32" class="edge"><title>Node10&#45;&gt;Node26</title>
<path fill="none" stroke="midnightblue" d="M783.669,-281.215C786.482,-280.765 789.281,-280.353 792,-280 1017.61,-250.667 1078.55,-265.503 1309.39,-243.999"/>
<polygon fill="midnightblue" stroke="midnightblue" points="1309.82,-247.475 1319.45,-243.05 1309.16,-240.506 1309.82,-247.475"/>
</g>
<!-- Node14&#45;&gt;Node8 -->
<g id="edge17" class="edge"><title>Node14&#45;&gt;Node8</title>
<path fill="none" stroke="midnightblue" d="M1301.24,-225.373C1304.54,-224.897 1307.82,-224.435 1311,-224 1439.52,-206.412 1475.58,-212.3 1606.33,-188.116"/>
<polygon fill="midnightblue" stroke="midnightblue" points="1607.14,-191.524 1616.33,-186.243 1605.85,-184.644 1607.14,-191.524"/>
</g>
<!-- Node15 -->
<g id="node15" class="node"><title>Node15</title>
<polygon fill="white" stroke="#bfbfbf" points="1300,-56.5 1300,-75.5 1344,-75.5 1344,-56.5 1300,-56.5"/>
<text text-anchor="middle" x="1322" y="-63.5" font-family="Helvetica,sans-Serif" font-size="10.00">QMap</text>
</g>
<!-- Node14&#45;&gt;Node15 -->
<g id="edge16" class="edge"><title>Node14&#45;&gt;Node15</title>
<path fill="none" stroke="midnightblue" d="M1289.29,-224.461C1321.94,-216.138 1365.75,-202.628 1376,-188 1399.96,-153.813 1362.81,-107.287 1339.15,-83.0977"/>
<polygon fill="midnightblue" stroke="midnightblue" points="1341.33,-80.3312 1331.75,-75.8009 1336.42,-85.315 1341.33,-80.3312"/>
</g>
<!-- Node16 -->
<g id="node16" class="node"><title>Node16</title>
<polygon fill="white" stroke="#bfbfbf" points="1170.5,-168.5 1170.5,-187.5 1249.5,-187.5 1249.5,-168.5 1170.5,-168.5"/>
<text text-anchor="middle" x="1210" y="-175.5" font-family="Helvetica,sans-Serif" font-size="10.00">QMetaObject</text>
</g>
<!-- Node14&#45;&gt;Node16 -->
<g id="edge18" class="edge"><title>Node14&#45;&gt;Node16</title>
<path fill="none" stroke="midnightblue" d="M1245.06,-224.083C1239.07,-216.377 1230.25,-205.033 1222.95,-195.653"/>
<polygon fill="midnightblue" stroke="midnightblue" points="1225.71,-193.496 1216.81,-187.751 1220.18,-197.793 1225.71,-193.496"/>
</g>
<!-- Node17 -->
<g id="node17" class="node"><title>Node17</title>
<polygon fill="white" stroke="#bfbfbf" points="1267.5,-168.5 1267.5,-187.5 1366.5,-187.5 1366.5,-168.5 1267.5,-168.5"/>
<text text-anchor="middle" x="1317" y="-175.5" font-family="Helvetica,sans-Serif" font-size="10.00">QCoreApplication</text>
</g>
<!-- Node14&#45;&gt;Node17 -->
<g id="edge19" class="edge"><title>Node14&#45;&gt;Node17</title>
<path fill="none" stroke="midnightblue" d="M1262.44,-224.324C1272.15,-216.263 1286.82,-204.077 1298.5,-194.369"/>
<polygon fill="midnightblue" stroke="midnightblue" points="1300.91,-196.916 1306.37,-187.834 1296.44,-191.532 1300.91,-196.916"/>
</g>
<!-- Node18 -->
<g id="node18" class="node"><title>Node18</title>
<g id="a_node18"><a xlink:href="../../d4/d11/torchttphandler_8h.html" target="_top" xlink:title="torchttphandler.h">
<polygon fill="white" stroke="black" points="1053.5,-168.5 1053.5,-187.5 1152.5,-187.5 1152.5,-168.5 1053.5,-168.5"/>
<text text-anchor="middle" x="1103" y="-175.5" font-family="Helvetica,sans-Serif" font-size="10.00">torchttphandler.h</text>
</a>
</g>
</g>
<!-- Node14&#45;&gt;Node18 -->
<g id="edge20" class="edge"><title>Node14&#45;&gt;Node18</title>
<path fill="none" stroke="midnightblue" d="M1228.39,-224.444C1203.54,-215.438 1164.23,-201.189 1136.25,-191.049"/>
<polygon fill="midnightblue" stroke="midnightblue" points="1137.09,-187.633 1126.5,-187.516 1134.71,-194.214 1137.09,-187.633"/>
</g>
<!-- Node20 -->
<g id="node20" class="node"><title>Node20</title>
<g id="a_node20"><a xlink:href="../../df/dd7/torchttprequest_8h.html" target="_top" xlink:title="torchttprequest.h">
<polygon fill="white" stroke="black" points="1402.5,-112.5 1402.5,-131.5 1503.5,-131.5 1503.5,-112.5 1402.5,-112.5"/>
<text text-anchor="middle" x="1453" y="-119.5" font-family="Helvetica,sans-Serif" font-size="10.00">torchttprequest.h</text>
</a>
</g>
</g>
<!-- Node14&#45;&gt;Node20 -->
<g id="edge31" class="edge"><title>Node14&#45;&gt;Node20</title>
<path fill="none" stroke="midnightblue" d="M1293.55,-224.462C1333.54,-215.655 1390.58,-201.358 1409,-188 1425.67,-175.91 1437.99,-155.442 1445.29,-140.701"/>
<polygon fill="midnightblue" stroke="midnightblue" points="1448.49,-142.128 1449.53,-131.584 1442.14,-139.175 1448.49,-142.128"/>
</g>
<!-- Node18&#45;&gt;Node6 -->
<g id="edge21" class="edge"><title>Node18&#45;&gt;Node6</title>
<path fill="none" stroke="midnightblue" d="M1089.12,-168.468C1065.42,-154.322 1015.23,-126.171 969,-112 872.5,-82.4197 753.112,-72.1047 693.898,-68.649"/>
<polygon fill="midnightblue" stroke="midnightblue" points="694.078,-65.1538 683.901,-68.0981 693.693,-72.1432 694.078,-65.1538"/>
</g>
<!-- Node19 -->
<g id="node19" class="node"><title>Node19</title>
<polygon fill="white" stroke="#bfbfbf" points="1064,-112.5 1064,-131.5 1142,-131.5 1142,-112.5 1064,-112.5"/>
<text text-anchor="middle" x="1103" y="-119.5" font-family="Helvetica,sans-Serif" font-size="10.00">QVariantMap</text>
</g>
<!-- Node18&#45;&gt;Node19 -->
<g id="edge22" class="edge"><title>Node18&#45;&gt;Node19</title>
<path fill="none" stroke="midnightblue" d="M1103,-168.083C1103,-161.006 1103,-150.861 1103,-141.986"/>
<polygon fill="midnightblue" stroke="midnightblue" points="1106.5,-141.751 1103,-131.751 1099.5,-141.751 1106.5,-141.751"/>
</g>
<!-- Node18&#45;&gt;Node20 -->
<g id="edge23" class="edge"><title>Node18&#45;&gt;Node20</title>
<path fill="none" stroke="midnightblue" d="M1152.77,-169.32C1215.78,-159.599 1324.28,-142.86 1392.14,-132.389"/>
<polygon fill="midnightblue" stroke="midnightblue" points="1392.91,-135.812 1402.26,-130.828 1391.84,-128.894 1392.91,-135.812"/>
</g>
<!-- Node20&#45;&gt;Node6 -->
<g id="edge26" class="edge"><title>Node20&#45;&gt;Node6</title>
<path fill="none" stroke="midnightblue" d="M1402.3,-117.561C1253.91,-107.494 822.86,-78.2518 693.88,-69.5019"/>
<polygon fill="midnightblue" stroke="midnightblue" points="693.946,-65.9984 683.732,-68.8135 693.472,-72.9824 693.946,-65.9984"/>
</g>
<!-- Node20&#45;&gt;Node15 -->
<g id="edge24" class="edge"><title>Node20&#45;&gt;Node15</title>
<path fill="none" stroke="midnightblue" d="M1432.24,-112.444C1410.68,-103.557 1376.74,-89.5632 1352.21,-79.4514"/>
<polygon fill="midnightblue" stroke="midnightblue" points="1353.24,-76.0917 1342.66,-75.5164 1350.57,-82.5634 1353.24,-76.0917"/>
</g>
<!-- Node21 -->
<g id="node21" class="node"><title>Node21</title>
<polygon fill="white" stroke="#bfbfbf" points="1475.5,-56.5 1475.5,-75.5 1516.5,-75.5 1516.5,-56.5 1475.5,-56.5"/>
<text text-anchor="middle" x="1496" y="-63.5" font-family="Helvetica,sans-Serif" font-size="10.00">QPair</text>
</g>
<!-- Node20&#45;&gt;Node21 -->
<g id="edge25" class="edge"><title>Node20&#45;&gt;Node21</title>
<path fill="none" stroke="midnightblue" d="M1460.1,-112.083C1466.24,-104.377 1475.27,-93.0333 1482.74,-83.6531"/>
<polygon fill="midnightblue" stroke="midnightblue" points="1485.54,-85.7542 1489.03,-75.7511 1480.06,-81.3936 1485.54,-85.7542"/>
</g>
<!-- Node22 -->
<g id="node22" class="node"><title>Node22</title>
<polygon fill="white" stroke="#bfbfbf" points="1534.5,-56.5 1534.5,-75.5 1605.5,-75.5 1605.5,-56.5 1534.5,-56.5"/>
<text text-anchor="middle" x="1570" y="-63.5" font-family="Helvetica,sans-Serif" font-size="10.00">QDateTime</text>
</g>
<!-- Node20&#45;&gt;Node22 -->
<g id="edge27" class="edge"><title>Node20&#45;&gt;Node22</title>
<path fill="none" stroke="midnightblue" d="M1471.54,-112.444C1490.62,-103.636 1520.57,-89.8116 1542.44,-79.722"/>
<polygon fill="midnightblue" stroke="midnightblue" points="1543.93,-82.8849 1551.55,-75.5164 1541,-76.5292 1543.93,-82.8849"/>
</g>
<!-- Node23 -->
<g id="node23" class="node"><title>Node23</title>
<g id="a_node23"><a xlink:href="../../de/de6/torchttpreader_8h.html" target="_top" xlink:title="torchttpreader.h">
<polygon fill="white" stroke="black" points="1362.5,-56.5 1362.5,-75.5 1457.5,-75.5 1457.5,-56.5 1362.5,-56.5"/>
<text text-anchor="middle" x="1410" y="-63.5" font-family="Helvetica,sans-Serif" font-size="10.00">torchttpreader.h</text>
</a>
</g>
</g>
<!-- Node20&#45;&gt;Node23 -->
<g id="edge28" class="edge"><title>Node20&#45;&gt;Node23</title>
<path fill="none" stroke="midnightblue" d="M1445.9,-112.083C1439.76,-104.377 1430.73,-93.0333 1423.26,-83.6531"/>
<polygon fill="midnightblue" stroke="midnightblue" points="1425.94,-81.3936 1416.97,-75.7511 1420.46,-85.7542 1425.94,-81.3936"/>
</g>
<!-- Node24 -->
<g id="node24" class="node"><title>Node24</title>
<polygon fill="white" stroke="#bfbfbf" points="1329.5,-0.5 1329.5,-19.5 1400.5,-19.5 1400.5,-0.5 1329.5,-0.5"/>
<text text-anchor="middle" x="1365" y="-7.5" font-family="Helvetica,sans-Serif" font-size="10.00">QByteArray</text>
</g>
<!-- Node23&#45;&gt;Node24 -->
<g id="edge29" class="edge"><title>Node23&#45;&gt;Node24</title>
<path fill="none" stroke="midnightblue" d="M1402.57,-56.083C1396.15,-48.3768 1386.69,-37.0333 1378.88,-27.6531"/>
<polygon fill="midnightblue" stroke="midnightblue" points="1381.38,-25.1927 1372.29,-19.7511 1376.01,-29.674 1381.38,-25.1927"/>
</g>
<!-- Node25 -->
<g id="node25" class="node"><title>Node25</title>
<polygon fill="white" stroke="#bfbfbf" points="1419,-0.5 1419,-19.5 1491,-19.5 1491,-0.5 1419,-0.5"/>
<text text-anchor="middle" x="1455" y="-7.5" font-family="Helvetica,sans-Serif" font-size="10.00">QTcpSocket</text>
</g>
<!-- Node23&#45;&gt;Node25 -->
<g id="edge30" class="edge"><title>Node23&#45;&gt;Node25</title>
<path fill="none" stroke="midnightblue" d="M1417.43,-56.083C1423.85,-48.3768 1433.31,-37.0333 1441.12,-27.6531"/>
<polygon fill="midnightblue" stroke="midnightblue" points="1443.99,-29.674 1447.71,-19.7511 1438.62,-25.1927 1443.99,-29.674"/>
</g>
<!-- Node27 -->
<g id="node27" class="node"><title>Node27</title>
<polygon fill="white" stroke="#bfbfbf" points="1461,-168.5 1461,-187.5 1531,-187.5 1531,-168.5 1461,-168.5"/>
<text text-anchor="middle" x="1496" y="-175.5" font-family="Helvetica,sans-Serif" font-size="10.00">QAtomicInt</text>
</g>
<!-- Node26&#45;&gt;Node27 -->
<g id="edge33" class="edge"><title>Node26&#45;&gt;Node27</title>
<path fill="none" stroke="midnightblue" d="M1401.99,-224.324C1420.04,-215.625 1448.05,-202.12 1468.8,-192.113"/>
<polygon fill="midnightblue" stroke="midnightblue" points="1470.56,-195.15 1478.05,-187.655 1467.52,-188.845 1470.56,-195.15"/>
</g>
<!-- Node29 -->
<g id="node29" class="node"><title>Node29</title>
<g id="a_node29"><a xlink:href="../../d3/d66/torcevent_8h.html" target="_top" xlink:title="torcevent.h">
<polygon fill="white" stroke="black" points="1001.5,-224.5 1001.5,-243.5 1072.5,-243.5 1072.5,-224.5 1001.5,-224.5"/>
<text text-anchor="middle" x="1037" y="-231.5" font-family="Helvetica,sans-Serif" font-size="10.00">torcevent.h</text>
</a>
</g>
</g>
<!-- Node28&#45;&gt;Node29 -->
<g id="edge35" class="edge"><title>Node28&#45;&gt;Node29</title>
<path fill="none" stroke="midnightblue" d="M879.631,-280.444C911.5,-271.241 962.333,-256.562 997.564,-246.388"/>
<polygon fill="midnightblue" stroke="midnightblue" points="998.872,-249.653 1007.51,-243.516 996.929,-242.928 998.872,-249.653"/>
</g>
<!-- Node29&#45;&gt;Node12 -->
<g id="edge37" class="edge"><title>Node29&#45;&gt;Node12</title>
<path fill="none" stroke="midnightblue" d="M1008.95,-224.444C978.918,-215.28 931.087,-200.688 897.757,-190.519"/>
<polygon fill="midnightblue" stroke="midnightblue" points="898.501,-187.087 887.915,-187.516 896.458,-193.782 898.501,-187.087"/>
</g>
<!-- Node29&#45;&gt;Node15 -->
<g id="edge36" class="edge"><title>Node29&#45;&gt;Node15</title>
<path fill="none" stroke="midnightblue" d="M1035.23,-224.479C1031.2,-202.376 1023.91,-142.785 1055,-112 1087.6,-79.7153 1225.73,-70.5014 1289.5,-67.9459"/>
<polygon fill="midnightblue" stroke="midnightblue" points="1289.92,-71.4328 1299.78,-67.5661 1289.66,-64.4376 1289.92,-71.4328"/>
</g>
<!-- Node30 -->
<g id="node30" class="node"><title>Node30</title>
<polygon fill="white" stroke="#bfbfbf" points="907.5,-168.5 907.5,-187.5 958.5,-187.5 958.5,-168.5 907.5,-168.5"/>
<text text-anchor="middle" x="933" y="-175.5" font-family="Helvetica,sans-Serif" font-size="10.00">QEvent</text>
</g>
<!-- Node29&#45;&gt;Node30 -->
<g id="edge38" class="edge"><title>Node29&#45;&gt;Node30</title>
<path fill="none" stroke="midnightblue" d="M1020.29,-224.324C1003.69,-215.703 977.998,-202.364 958.78,-192.386"/>
<polygon fill="midnightblue" stroke="midnightblue" points="960.156,-189.156 949.668,-187.655 956.93,-195.369 960.156,-189.156"/>
</g>
<!-- Node32 -->
<g id="node32" class="node"><title>Node32</title>
<g id="a_node32"><a xlink:href="../../d4/da3/torcdb_8h.html" target="_top" xlink:title="torcdb.h">
<polygon fill="white" stroke="black" points="1091,-224.5 1091,-243.5 1147,-243.5 1147,-224.5 1091,-224.5"/>
<text text-anchor="middle" x="1119" y="-231.5" font-family="Helvetica,sans-Serif" font-size="10.00">torcdb.h</text>
</a>
</g>
</g>
<!-- Node31&#45;&gt;Node32 -->
<g id="edge40" class="edge"><title>Node31&#45;&gt;Node32</title>
<path fill="none" stroke="midnightblue" d="M1015.49,-280.444C1035.64,-271.596 1067.32,-257.687 1090.33,-247.586"/>
<polygon fill="midnightblue" stroke="midnightblue" points="1091.85,-250.741 1099.6,-243.516 1089.04,-244.332 1091.85,-250.741"/>
</g>
<!-- Node32&#45;&gt;Node5 -->
<g id="edge41" class="edge"><title>Node32&#45;&gt;Node5</title>
<path fill="none" stroke="midnightblue" d="M1090.79,-225.794C1087.83,-225.141 1084.86,-224.528 1082,-224 1022.16,-212.944 845.405,-192.259 767.09,-183.309"/>
<polygon fill="midnightblue" stroke="midnightblue" points="767.047,-179.782 756.715,-182.126 766.254,-186.737 767.047,-179.782"/>
</g>
<!-- Node32&#45;&gt;Node8 -->
<g id="edge42" class="edge"><title>Node32&#45;&gt;Node8</title>
<path fill="none" stroke="midnightblue" d="M1147.11,-229.406C1161.18,-227.664 1178.48,-225.606 1194,-224 1374.48,-205.329 1424.21,-218.618 1606.43,-188.022"/>
<polygon fill="midnightblue" stroke="midnightblue" points="1607.07,-191.464 1616.34,-186.337 1605.9,-184.563 1607.07,-191.464"/>
</g>
<!-- Node34 -->
<g id="node34" class="node"><title>Node34</title>
<polygon fill="white" stroke="#bfbfbf" points="252.5,-224.5 252.5,-243.5 293.5,-243.5 293.5,-224.5 252.5,-224.5"/>
<text text-anchor="middle" x="273" y="-231.5" font-family="Helvetica,sans-Serif" font-size="10.00">QList</text>
</g>
<!-- Node33&#45;&gt;Node34 -->
<g id="edge44" class="edge"><title>Node33&#45;&gt;Node34</title>
<path fill="none" stroke="midnightblue" d="M215.925,-280.324C226.175,-272.185 241.721,-259.839 254.001,-250.087"/>
<polygon fill="midnightblue" stroke="midnightblue" points="256.221,-252.794 261.876,-243.834 251.868,-247.312 256.221,-252.794"/>
</g>
<!-- Node35 -->
<g id="node35" class="node"><title>Node35</title>
<g id="a_node35"><a xlink:href="../../dd/db0/torcqthread_8h.html" target="_top" xlink:title="torcqthread.h">
<polygon fill="white" stroke="black" points="152,-224.5 152,-243.5 234,-243.5 234,-224.5 152,-224.5"/>
<text text-anchor="middle" x="193" y="-231.5" font-family="Helvetica,sans-Serif" font-size="10.00">torcqthread.h</text>
</a>
</g>
</g>
<!-- Node33&#45;&gt;Node35 -->
<g id="edge45" class="edge"><title>Node33&#45;&gt;Node35</title>
<path fill="none" stroke="midnightblue" d="M203.018,-280.083C201.428,-272.927 199.141,-262.635 197.154,-253.691"/>
<polygon fill="midnightblue" stroke="midnightblue" points="200.531,-252.754 194.945,-243.751 193.697,-254.272 200.531,-252.754"/>
</g>
<!-- Node36 -->
<g id="node36" class="node"><title>Node36</title>
<polygon fill="white" stroke="#bfbfbf" points="164.5,-168.5 164.5,-187.5 221.5,-187.5 221.5,-168.5 164.5,-168.5"/>
<text text-anchor="middle" x="193" y="-175.5" font-family="Helvetica,sans-Serif" font-size="10.00">QThread</text>
</g>
<!-- Node35&#45;&gt;Node36 -->
<g id="edge46" class="edge"><title>Node35&#45;&gt;Node36</title>
<path fill="none" stroke="midnightblue" d="M193,-224.083C193,-217.006 193,-206.861 193,-197.986"/>
<polygon fill="midnightblue" stroke="midnightblue" points="196.5,-197.751 193,-187.751 189.5,-197.751 196.5,-197.751"/>
</g>
<!-- Node37&#45;&gt;Node5 -->
<g id="edge48" class="edge"><title>Node37&#45;&gt;Node5</title>
<path fill="none" stroke="midnightblue" d="M488.318,-224.444C544.43,-213.849 638.98,-195.997 691.312,-186.116"/>
<polygon fill="midnightblue" stroke="midnightblue" points="692.014,-189.545 701.191,-184.251 690.715,-182.667 692.014,-189.545"/>
</g>
<!-- Node37&#45;&gt;Node12 -->
<g id="edge49" class="edge"><title>Node37&#45;&gt;Node12</title>
<path fill="none" stroke="midnightblue" d="M498.374,-225.829C583.895,-214.755 746.017,-193.76 820.623,-184.099"/>
<polygon fill="midnightblue" stroke="midnightblue" points="821.509,-187.514 830.976,-182.758 820.609,-180.572 821.509,-187.514"/>
</g>
<!-- Node38 -->
<g id="node38" class="node"><title>Node38</title>
<polygon fill="white" stroke="#bfbfbf" points="1549.5,-168.5 1549.5,-187.5 1598.5,-187.5 1598.5,-168.5 1549.5,-168.5"/>
<text text-anchor="middle" x="1574" y="-175.5" font-family="Helvetica,sans-Serif" font-size="10.00">QHash</text>
</g>
<!-- Node37&#45;&gt;Node38 -->
<g id="edge50" class="edge"><title>Node37&#45;&gt;Node38</title>
<path fill="none" stroke="midnightblue" d="M498.014,-227.62C513.223,-226.276 529.741,-224.949 545,-224 983.316,-196.752 1100.52,-252.17 1539.16,-187.728"/>
<polygon fill="midnightblue" stroke="midnightblue" points="1539.87,-191.161 1549.25,-186.233 1538.85,-184.236 1539.87,-191.161"/>
</g>
<!-- Node37&#45;&gt;Node39 -->
<g id="edge51" class="edge"><title>Node37&#45;&gt;Node39</title>
<path fill="none" stroke="midnightblue" d="M443,-224.083C443,-217.006 443,-206.861 443,-197.986"/>
<polygon fill="midnightblue" stroke="midnightblue" points="446.5,-197.751 443,-187.751 439.5,-197.751 446.5,-197.751"/>
</g>
<!-- Node40 -->
<g id="node40" class="node"><title>Node40</title>
<polygon fill="white" stroke="#bfbfbf" points="574.5,-112.5 574.5,-131.5 627.5,-131.5 627.5,-112.5 574.5,-112.5"/>
<text text-anchor="middle" x="601" y="-119.5" font-family="Helvetica,sans-Serif" font-size="10.00">stdint.h</text>
</g>
<!-- Node39&#45;&gt;Node40 -->
<g id="edge52" class="edge"><title>Node39&#45;&gt;Node40</title>
<path fill="none" stroke="midnightblue" d="M468.036,-168.444C494.616,-159.359 536.809,-144.939 566.523,-134.783"/>
<polygon fill="midnightblue" stroke="midnightblue" points="567.751,-138.062 576.082,-131.516 565.487,-131.439 567.751,-138.062"/>
</g>
<!-- Node41 -->
<g id="node41" class="node"><title>Node41</title>
<polygon fill="white" stroke="#bfbfbf" points="388.5,-112.5 388.5,-131.5 439.5,-131.5 439.5,-112.5 388.5,-112.5"/>
<text text-anchor="middle" x="414" y="-119.5" font-family="Helvetica,sans-Serif" font-size="10.00">errno.h</text>
</g>
<!-- Node39&#45;&gt;Node41 -->
<g id="edge53" class="edge"><title>Node39&#45;&gt;Node41</title>
<path fill="none" stroke="midnightblue" d="M438.211,-168.083C434.242,-160.691 428.475,-149.953 423.565,-140.811"/>
<polygon fill="midnightblue" stroke="midnightblue" points="426.514,-138.905 418.7,-131.751 420.347,-142.217 426.514,-138.905"/>
</g>
<!-- Node42 -->
<g id="node42" class="node"><title>Node42</title>
<g id="a_node42"><a xlink:href="../../d1/d37/torcloggingdefs_8h.html" target="_top" xlink:title="torcloggingdefs.h">
<polygon fill="white" stroke="black" points="457.5,-112.5 457.5,-131.5 556.5,-131.5 556.5,-112.5 457.5,-112.5"/>
<text text-anchor="middle" x="507" y="-119.5" font-family="Helvetica,sans-Serif" font-size="10.00">torcloggingdefs.h</text>
</a>
</g>
</g>
<!-- Node39&#45;&gt;Node42 -->
<g id="edge54" class="edge"><title>Node39&#45;&gt;Node42</title>
<path fill="none" stroke="midnightblue" d="M453.283,-168.324C462.836,-160.263 477.28,-148.077 488.784,-138.369"/>
<polygon fill="midnightblue" stroke="midnightblue" points="491.144,-140.958 496.53,-131.834 486.63,-135.608 491.144,-140.958"/>
</g>
<!-- Node44&#45;&gt;Node6 -->
<g id="edge58" class="edge"><title>Node44&#45;&gt;Node6</title>
<path fill="none" stroke="midnightblue" d="M322.826,-280.399C319.439,-251.683 312.804,-158.324 362,-112 398.594,-77.5422 549.195,-69.467 619.952,-67.5766"/>
<polygon fill="midnightblue" stroke="midnightblue" points="620.278,-71.0699 630.192,-67.3317 620.111,-64.0719 620.278,-71.0699"/>
</g>
<!-- Node44&#45;&gt;Node37 -->
<g id="edge59" class="edge"><title>Node44&#45;&gt;Node37</title>
<path fill="none" stroke="midnightblue" d="M342.856,-280.444C362.266,-271.636 392.73,-257.812 414.965,-247.722"/>
<polygon fill="midnightblue" stroke="midnightblue" points="416.572,-250.836 424.232,-243.516 413.68,-244.462 416.572,-250.836"/>
</g>
<!-- Node45&#45;&gt;Node5 -->
<g id="edge62" class="edge"><title>Node45&#45;&gt;Node5</title>
<path fill="none" stroke="midnightblue" d="M1036.22,-336.414C1011.55,-328.522 975.435,-315.683 946,-300 894.521,-272.571 890.107,-252.116 839,-224 815.014,-210.804 786.343,-199.199 764.287,-191.08"/>
<polygon fill="midnightblue" stroke="midnightblue" points="765.253,-187.708 754.659,-187.602 762.875,-194.292 765.253,-187.708"/>
</g>
<!-- Node45&#45;&gt;Node8 -->
<g id="edge61" class="edge"><title>Node45&#45;&gt;Node8</title>
<path fill="none" stroke="midnightblue" d="M1103.71,-337.317C1106.84,-336.825 1109.97,-336.376 1113,-336 1177.3,-328.015 1650.62,-347.207 1695,-300 1718.14,-275.389 1709.04,-254.721 1695,-224 1689.22,-211.36 1677.95,-200.911 1667.37,-193.274"/>
<polygon fill="midnightblue" stroke="midnightblue" points="1669.04,-190.182 1658.78,-187.533 1665.15,-196.001 1669.04,-190.182"/>
</g>
<!-- Node45&#45;&gt;Node12 -->
<g id="edge63" class="edge"><title>Node45&#45;&gt;Node12</title>
<path fill="none" stroke="midnightblue" d="M1064.56,-336.463C1063.46,-323.05 1059.58,-296.837 1046,-280 1034.89,-266.226 935.159,-215.982 886.487,-191.961"/>
<polygon fill="midnightblue" stroke="midnightblue" points="887.992,-188.801 877.474,-187.525 884.901,-195.081 887.992,-188.801"/>
</g>
<!-- Node45&#45;&gt;Node14 -->
<g id="edge74" class="edge"><title>Node45&#45;&gt;Node14</title>
<path fill="none" stroke="midnightblue" d="M1079.67,-336.368C1111.9,-317.412 1189.1,-272.001 1228.3,-248.942"/>
<polygon fill="midnightblue" stroke="midnightblue" points="1230.55,-251.678 1237.39,-243.591 1227,-245.645 1230.55,-251.678"/>
</g>
<!-- Node46 -->
<g id="node46" class="node"><title>Node46</title>
<g id="a_node46"><a xlink:href="../../d1/df7/torcdevice_8h.html" target="_top" xlink:title="torcdevice.h">
<polygon fill="white" stroke="black" points="1346.5,-280.5 1346.5,-299.5 1421.5,-299.5 1421.5,-280.5 1346.5,-280.5"/>
<text text-anchor="middle" x="1384" y="-287.5" font-family="Helvetica,sans-Serif" font-size="10.00">torcdevice.h</text>
</a>
</g>
</g>
<!-- Node45&#45;&gt;Node46 -->
<g id="edge64" class="edge"><title>Node45&#45;&gt;Node46</title>
<path fill="none" stroke="midnightblue" d="M1103.76,-337.661C1106.88,-337.091 1109.99,-336.531 1113,-336 1191.09,-322.196 1282.07,-307.339 1336.25,-298.621"/>
<polygon fill="midnightblue" stroke="midnightblue" points="1336.94,-302.056 1346.25,-297.013 1335.83,-295.144 1336.94,-302.056"/>
</g>
<!-- Node46&#45;&gt;Node5 -->
<g id="edge68" class="edge"><title>Node46&#45;&gt;Node5</title>
<path fill="none" stroke="midnightblue" d="M1346.47,-286.3C1276.41,-280.904 1121.1,-267.265 992,-244 910.804,-229.368 817.398,-204.269 766.638,-189.918"/>
<polygon fill="midnightblue" stroke="midnightblue" points="767.348,-186.481 756.772,-187.112 765.433,-193.214 767.348,-186.481"/>
</g>
<!-- Node46&#45;&gt;Node6 -->
<g id="edge67" class="edge"><title>Node46&#45;&gt;Node6</title>
<path fill="none" stroke="midnightblue" d="M1346.4,-282.984C1307.47,-276.091 1245.27,-263.21 1194,-244 1176.13,-237.303 1173.62,-231.338 1156,-224 1144.84,-219.35 806.585,-113.682 693.451,-78.3726"/>
<polygon fill="midnightblue" stroke="midnightblue" points="694.426,-75.0106 683.838,-75.3725 692.341,-81.6927 694.426,-75.0106"/>
</g>
<!-- Node46&#45;&gt;Node8 -->
<g id="edge66" class="edge"><title>Node46&#45;&gt;Node8</title>
<path fill="none" stroke="midnightblue" d="M1421.95,-286.646C1481.93,-282.164 1594.85,-270.393 1624,-244 1636.92,-232.303 1641.25,-212.362 1642.6,-197.643"/>
<polygon fill="midnightblue" stroke="midnightblue" points="1646.1,-197.806 1643.15,-187.63 1639.11,-197.423 1646.1,-197.806"/>
</g>
<!-- Node46&#45;&gt;Node26 -->
<g id="edge69" class="edge"><title>Node46&#45;&gt;Node26</title>
<path fill="none" stroke="midnightblue" d="M1384,-280.083C1384,-273.006 1384,-262.861 1384,-253.986"/>
<polygon fill="midnightblue" stroke="midnightblue" points="1387.5,-253.751 1384,-243.751 1380.5,-253.751 1387.5,-253.751"/>
</g>
<!-- Node46&#45;&gt;Node38 -->
<g id="edge65" class="edge"><title>Node46&#45;&gt;Node38</title>
<path fill="none" stroke="midnightblue" d="M1398.85,-280.366C1420.29,-267.903 1461.17,-244.155 1496,-224 1514.15,-213.496 1534.7,-201.643 1550.15,-192.739"/>
<polygon fill="midnightblue" stroke="midnightblue" points="1552.12,-195.641 1559.04,-187.615 1548.63,-189.576 1552.12,-195.641"/>
</g>
<!-- Node47 -->
<g id="node47" class="node"><title>Node47</title>
<g id="a_node47"><a xlink:href="../../d2/d5b/torcdevicehandler_8h.html" target="_top" xlink:title="torcdevicehandler.h">
<polygon fill="white" stroke="black" points="1505,-224.5 1505,-243.5 1615,-243.5 1615,-224.5 1505,-224.5"/>
<text text-anchor="middle" x="1560" y="-231.5" font-family="Helvetica,sans-Serif" font-size="10.00">torcdevicehandler.h</text>
</a>
</g>
</g>
<!-- Node46&#45;&gt;Node47 -->
<g id="edge70" class="edge"><title>Node46&#45;&gt;Node47</title>
<path fill="none" stroke="midnightblue" d="M1411.89,-280.444C1441.75,-271.28 1489.31,-256.688 1522.46,-246.519"/>
<polygon fill="midnightblue" stroke="midnightblue" points="1523.71,-249.796 1532.24,-243.516 1521.66,-243.104 1523.71,-249.796"/>
</g>
<!-- Node47&#45;&gt;Node8 -->
<g id="edge72" class="edge"><title>Node47&#45;&gt;Node8</title>
<path fill="none" stroke="midnightblue" d="M1573.34,-224.324C1586.16,-215.979 1605.78,-203.212 1620.94,-193.352"/>
<polygon fill="midnightblue" stroke="midnightblue" points="1623.22,-196.042 1629.7,-187.655 1619.41,-190.174 1623.22,-196.042"/>
</g>
<!-- Node47&#45;&gt;Node12 -->
<g id="edge73" class="edge"><title>Node47&#45;&gt;Node12</title>
<path fill="none" stroke="midnightblue" d="M1504.97,-227.902C1489.76,-226.559 1473.24,-225.162 1458,-224 1212.6,-205.288 1146.4,-224.354 899.362,-187.959"/>
<polygon fill="midnightblue" stroke="midnightblue" points="899.77,-184.481 889.363,-186.47 898.739,-191.405 899.77,-184.481"/>
</g>
<!-- Node47&#45;&gt;Node38 -->
<g id="edge71" class="edge"><title>Node47&#45;&gt;Node38</title>
<path fill="none" stroke="midnightblue" d="M1562.31,-224.083C1564.17,-216.927 1566.84,-206.635 1569.15,-197.691"/>
<polygon fill="midnightblue" stroke="midnightblue" points="1572.61,-198.309 1571.73,-187.751 1565.83,-196.553 1572.61,-198.309"/>
</g>
<!-- Node48&#45;&gt;Node6 -->
<g id="edge76" class="edge"><title>Node48&#45;&gt;Node6</title>
<path fill="none" stroke="midnightblue" d="M414.266,-280.236C402.111,-272.481 386.188,-259.929 379,-244 354.869,-190.526 340.975,-156.675 379,-112 409.532,-76.1288 551.604,-68.763 620.006,-67.3137"/>
<polygon fill="midnightblue" stroke="midnightblue" points="620.387,-70.8075 630.323,-67.1284 620.262,-63.8086 620.387,-70.8075"/>
</g>
<!-- Node48&#45;&gt;Node37 -->
<g id="edge77" class="edge"><title>Node48&#45;&gt;Node37</title>
<path fill="none" stroke="midnightblue" d="M432.147,-280.083C433.869,-272.927 436.347,-262.635 438.5,-253.691"/>
<polygon fill="midnightblue" stroke="midnightblue" points="441.955,-254.293 440.893,-243.751 435.15,-252.654 441.955,-254.293"/>
</g>
</g>
</svg>
