<?xml version="1.0" encoding="UTF-8" standalone="no"?>
<!DOCTYPE svg PUBLIC "-//W3C//DTD SVG 1.1//EN"
 "http://www.w3.org/Graphics/SVG/1.1/DTD/svg11.dtd">
<!-- Generated by graphviz version 2.38.0 (20140413.2041)
 -->
<!-- Title: TorcCameraThread Pages: 1 -->
<svg width="224pt" height="140pt"
 viewBox="0.00 0.00 223.50 140.00" xmlns="http://www.w3.org/2000/svg" xmlns:xlink="http://www.w3.org/1999/xlink">
<g id="graph0" class="graph" transform="scale(1 1) rotate(0) translate(4 136)">
<title>TorcCameraThread</title>
<polygon fill="white" stroke="none" points="-4,4 -4,-136 219.5,-136 219.5,4 -4,4"/>
<!-- Node1 -->
<g id="node1" class="node"><title>Node1</title>
<polygon fill="#bfbfbf" stroke="black" points="42.5,-0.5 42.5,-19.5 149.5,-19.5 149.5,-0.5 42.5,-0.5"/>
<text text-anchor="middle" x="96" y="-7.5" font-family="Helvetica,sans-Serif" font-size="10.00">TorcCameraThread</text>
</g>
<!-- Node2 -->
<g id="node2" class="node"><title>Node2</title>
<g id="a_node2"><a xlink:href="../../d2/d41/class_torc_q_thread.html" target="_top" xlink:title="A Torc specific wrapper around QThread. ">
<polygon fill="white" stroke="black" points="0,-56.5 0,-75.5 76,-75.5 76,-56.5 0,-56.5"/>
<text text-anchor="middle" x="38" y="-63.5" font-family="Helvetica,sans-Serif" font-size="10.00">TorcQThread</text>
</a>
</g>
</g>
<!-- Node2&#45;&gt;Node1 -->
<g id="edge1" class="edge"><title>Node2&#45;&gt;Node1</title>
<path fill="none" stroke="midnightblue" d="M54.9131,-49.2533C65.203,-39.6731 77.9657,-27.7906 86.5117,-19.8339"/>
<polygon fill="midnightblue" stroke="midnightblue" points="52.2527,-46.9481 47.3187,-56.324 57.0226,-52.0714 52.2527,-46.9481"/>
</g>
<!-- Node3 -->
<g id="node3" class="node"><title>Node3</title>
<polygon fill="white" stroke="#bfbfbf" points="9.5,-112.5 9.5,-131.5 66.5,-131.5 66.5,-112.5 9.5,-112.5"/>
<text text-anchor="middle" x="38" y="-119.5" font-family="Helvetica,sans-Serif" font-size="10.00">QThread</text>
</g>
<!-- Node3&#45;&gt;Node2 -->
<g id="edge2" class="edge"><title>Node3&#45;&gt;Node2</title>
<path fill="none" stroke="midnightblue" d="M38,-101.805C38,-92.9102 38,-82.7798 38,-75.7511"/>
<polygon fill="midnightblue" stroke="midnightblue" points="34.5001,-102.083 38,-112.083 41.5001,-102.083 34.5001,-102.083"/>
</g>
<!-- Node4 -->
<g id="node4" class="node"><title>Node4</title>
<g id="a_node4"><a xlink:href="../../d6/dad/class_torc_reference_counter.html" target="_top" xlink:title="A reference counting implementation. ">
<polygon fill="white" stroke="black" points="94.5,-56.5 94.5,-75.5 215.5,-75.5 215.5,-56.5 94.5,-56.5"/>
<text text-anchor="middle" x="155" y="-63.5" font-family="Helvetica,sans-Serif" font-size="10.00">TorcReferenceCounter</text>
</a>
</g>
</g>
<!-- Node4&#45;&gt;Node1 -->
<g id="edge3" class="edge"><title>Node4&#45;&gt;Node1</title>
<path fill="none" stroke="midnightblue" d="M138.105,-49.5372C127.585,-39.9087 114.431,-27.8694 105.652,-19.8339"/>
<polygon fill="midnightblue" stroke="midnightblue" points="135.781,-52.1542 145.521,-56.324 140.507,-46.9905 135.781,-52.1542"/>
</g>
</g>
</svg>
