<?xml version="1.0" encoding="UTF-8" standalone="no"?>
<!DOCTYPE svg PUBLIC "-//W3C//DTD SVG 1.1//EN"
 "http://www.w3.org/Graphics/SVG/1.1/DTD/svg11.dtd">
<!-- Generated by graphviz version 2.38.0 (20140413.2041)
 -->
<!-- Title: torcsystemnotification.cpp Pages: 1 -->
<!--zoomable 532 -->
<svg id="main" version="1.1" xmlns="http://www.w3.org/2000/svg" xmlns:xlink="http://www.w3.org/1999/xlink" xml:space="preserve" onload="init(evt)">
<style type="text/css"><![CDATA[
.edge:hover path { stroke: red; }
.edge:hover polygon { stroke: red; fill: red; }
]]></style>
<script type="text/javascript"><![CDATA[
var edges = document.getElementsByTagName('g');
if (edges && edges.length) {
  for (var i=0;i<edges.length;i++) {
    if (edges[i].id.substr(0,4)=='edge') {
      edges[i].setAttribute('class','edge');
    }
  }
}
]]></script>
        <defs>
                <circle id="rim" cx="0" cy="0" r="7"/>
                <circle id="rim2" cx="0" cy="0" r="3.5"/>
                <g id="zoomPlus">
                        <use xlink:href="#rim" fill="#404040">
                                <set attributeName="fill" to="#808080" begin="zoomplus.mouseover" end="zoomplus.mouseout"/>
                        </use>
                        <path d="M-4,0h8M0,-4v8" fill="none" stroke="white" stroke-width="1.5" pointer-events="none"/>
                </g>
                <g id="zoomMin">
                        <use xlink:href="#rim" fill="#404040">
                                <set attributeName="fill" to="#808080" begin="zoomminus.mouseover" end="zoomminus.mouseout"/>
                        </use>
                        <path d="M-4,0h8" fill="none" stroke="white" stroke-width="1.5" pointer-events="none"/>
                </g>
                <g id="dirArrow">
                        <path fill="none" stroke="white" stroke-width="1.5" d="M0,-3.0v7 M-2.5,-0.5L0,-3.0L2.5,-0.5"/>
                </g>
               <g id="resetDef">
                       <use xlink:href="#rim2" fill="#404040">
                               <set attributeName="fill" to="#808080" begin="reset.mouseover" end="reset.mouseout"/>
                       </use>
               </g>
        </defs>

<script type="text/javascript">
var viewWidth = 1554;
var viewHeight = 532;
var sectionId = 'dynsection-0';
</script>
<script xlink:href="../../svgpan.js"/>
<svg id="graph" class="graph">
<g id="viewport">
<title>torcsystemnotification.cpp</title>
<polygon fill="white" stroke="none" points="-4,4 -4,-528 1550,-528 1550,4 -4,4"/>
<!-- Node1 -->
<g id="node1" class="node"><title>Node1</title>
<polygon fill="#bfbfbf" stroke="black" points="433.5,-504.5 433.5,-523.5 576.5,-523.5 576.5,-504.5 433.5,-504.5"/>
<text text-anchor="middle" x="505" y="-511.5" font-family="Helvetica,sans-Serif" font-size="10.00">torcsystemnotification.cpp</text>
</g>
<!-- Node2 -->
<g id="node2" class="node"><title>Node2</title>
<g id="a_node2"><a xlink:href="../../d4/df9/torclogging_8h.html" target="_top" xlink:title="torclogging.h">
<polygon fill="white" stroke="black" points="759.5,-168.5 759.5,-187.5 838.5,-187.5 838.5,-168.5 759.5,-168.5"/>
<text text-anchor="middle" x="799" y="-175.5" font-family="Helvetica,sans-Serif" font-size="10.00">torclogging.h</text>
</a>
</g>
</g>
<!-- Node1&#45;&gt;Node2 -->
<g id="edge1" class="edge"><title>Node1&#45;&gt;Node2</title>
<path fill="none" stroke="midnightblue" d="M576.576,-506.634C730.058,-492.018 1077,-453.405 1077,-403 1077,-403 1077,-403 1077,-289 1077,-258.775 1079.67,-243.987 1057,-224 1026.81,-197.387 914.998,-186.062 848.888,-181.607"/>
<polygon fill="midnightblue" stroke="midnightblue" points="848.894,-178.1 838.689,-180.95 848.443,-185.086 848.894,-178.1"/>
</g>
<!-- Node6 -->
<g id="node6" class="node"><title>Node6</title>
<g id="a_node6"><a xlink:href="../../d3/dca/torcnotify_8h.html" target="_top" xlink:title="torcnotify.h">
<polygon fill="white" stroke="black" points="130.5,-448.5 130.5,-467.5 199.5,-467.5 199.5,-448.5 130.5,-448.5"/>
<text text-anchor="middle" x="165" y="-455.5" font-family="Helvetica,sans-Serif" font-size="10.00">torcnotify.h</text>
</a>
</g>
</g>
<!-- Node1&#45;&gt;Node6 -->
<g id="edge5" class="edge"><title>Node1&#45;&gt;Node6</title>
<path fill="none" stroke="midnightblue" d="M451.126,-504.444C384.434,-493.851 272.066,-476.005 209.845,-466.123"/>
<polygon fill="midnightblue" stroke="midnightblue" points="210.362,-462.661 199.937,-464.549 209.264,-469.574 210.362,-462.661"/>
</g>
<!-- Node18 -->
<g id="node18" class="node"><title>Node18</title>
<g id="a_node18"><a xlink:href="../../d1/d5d/torcsystemnotification_8h.html" target="_top" xlink:title="torcsystemnotification.h">
<polygon fill="white" stroke="black" points="439,-448.5 439,-467.5 571,-467.5 571,-448.5 439,-448.5"/>
<text text-anchor="middle" x="505" y="-455.5" font-family="Helvetica,sans-Serif" font-size="10.00">torcsystemnotification.h</text>
</a>
</g>
</g>
<!-- Node1&#45;&gt;Node18 -->
<g id="edge24" class="edge"><title>Node1&#45;&gt;Node18</title>
<path fill="none" stroke="midnightblue" d="M505,-504.083C505,-497.006 505,-486.861 505,-477.986"/>
<polygon fill="midnightblue" stroke="midnightblue" points="508.5,-477.751 505,-467.751 501.5,-477.751 508.5,-477.751"/>
</g>
<!-- Node3 -->
<g id="node3" class="node"><title>Node3</title>
<polygon fill="white" stroke="#bfbfbf" points="772.5,-112.5 772.5,-131.5 825.5,-131.5 825.5,-112.5 772.5,-112.5"/>
<text text-anchor="middle" x="799" y="-119.5" font-family="Helvetica,sans-Serif" font-size="10.00">stdint.h</text>
</g>
<!-- Node2&#45;&gt;Node3 -->
<g id="edge2" class="edge"><title>Node2&#45;&gt;Node3</title>
<path fill="none" stroke="midnightblue" d="M799,-168.083C799,-161.006 799,-150.861 799,-141.986"/>
<polygon fill="midnightblue" stroke="midnightblue" points="802.5,-141.751 799,-131.751 795.5,-141.751 802.5,-141.751"/>
</g>
<!-- Node4 -->
<g id="node4" class="node"><title>Node4</title>
<polygon fill="white" stroke="#bfbfbf" points="843.5,-112.5 843.5,-131.5 894.5,-131.5 894.5,-112.5 843.5,-112.5"/>
<text text-anchor="middle" x="869" y="-119.5" font-family="Helvetica,sans-Serif" font-size="10.00">errno.h</text>
</g>
<!-- Node2&#45;&gt;Node4 -->
<g id="edge3" class="edge"><title>Node2&#45;&gt;Node4</title>
<path fill="none" stroke="midnightblue" d="M810.247,-168.324C820.797,-160.185 836.801,-147.839 849.442,-138.087"/>
<polygon fill="midnightblue" stroke="midnightblue" points="851.769,-140.713 857.549,-131.834 847.493,-135.171 851.769,-140.713"/>
</g>
<!-- Node5 -->
<g id="node5" class="node"><title>Node5</title>
<g id="a_node5"><a xlink:href="../../d1/d37/torcloggingdefs_8h.html" target="_top" xlink:title="torcloggingdefs.h">
<polygon fill="white" stroke="black" points="655.5,-112.5 655.5,-131.5 754.5,-131.5 754.5,-112.5 655.5,-112.5"/>
<text text-anchor="middle" x="705" y="-119.5" font-family="Helvetica,sans-Serif" font-size="10.00">torcloggingdefs.h</text>
</a>
</g>
</g>
<!-- Node2&#45;&gt;Node5 -->
<g id="edge4" class="edge"><title>Node2&#45;&gt;Node5</title>
<path fill="none" stroke="midnightblue" d="M783.897,-168.324C769.097,-159.822 746.306,-146.729 729.018,-136.797"/>
<polygon fill="midnightblue" stroke="midnightblue" points="730.48,-133.601 720.065,-131.655 726.993,-139.671 730.48,-133.601"/>
</g>
<!-- Node7 -->
<g id="node7" class="node"><title>Node7</title>
<polygon fill="white" stroke="#bfbfbf" points="89,-168.5 89,-187.5 147,-187.5 147,-168.5 89,-168.5"/>
<text text-anchor="middle" x="118" y="-175.5" font-family="Helvetica,sans-Serif" font-size="10.00">QVariant</text>
</g>
<!-- Node6&#45;&gt;Node7 -->
<g id="edge6" class="edge"><title>Node6&#45;&gt;Node7</title>
<path fill="none" stroke="midnightblue" d="M130.411,-450.156C82.0273,-438.339 0,-409.143 0,-347 0,-347 0,-347 0,-289 0,-241.512 51.7657,-208.674 86.7242,-191.912"/>
<polygon fill="midnightblue" stroke="midnightblue" points="88.4567,-194.968 96.0816,-187.612 85.5337,-188.608 88.4567,-194.968"/>
</g>
<!-- Node8 -->
<g id="node8" class="node"><title>Node8</title>
<g id="a_node8"><a xlink:href="../../d2/d5b/torcdevicehandler_8h.html" target="_top" xlink:title="torcdevicehandler.h">
<polygon fill="white" stroke="black" points="104,-224.5 104,-243.5 214,-243.5 214,-224.5 104,-224.5"/>
<text text-anchor="middle" x="159" y="-231.5" font-family="Helvetica,sans-Serif" font-size="10.00">torcdevicehandler.h</text>
</a>
</g>
</g>
<!-- Node6&#45;&gt;Node8 -->
<g id="edge7" class="edge"><title>Node6&#45;&gt;Node8</title>
<path fill="none" stroke="midnightblue" d="M159.956,-448.472C150.274,-431.549 129.39,-392.226 122,-356 114.316,-318.333 134.427,-275.621 147.924,-252.363"/>
<polygon fill="midnightblue" stroke="midnightblue" points="151.01,-254.023 153.202,-243.657 145.024,-250.393 151.01,-254.023"/>
</g>
<!-- Node11 -->
<g id="node11" class="node"><title>Node11</title>
<g id="a_node11"><a xlink:href="../../da/dea/torcnotification_8h.html" target="_top" xlink:title="torcnotification.h">
<polygon fill="white" stroke="black" points="193.5,-392.5 193.5,-411.5 290.5,-411.5 290.5,-392.5 193.5,-392.5"/>
<text text-anchor="middle" x="242" y="-399.5" font-family="Helvetica,sans-Serif" font-size="10.00">torcnotification.h</text>
</a>
</g>
</g>
<!-- Node6&#45;&gt;Node11 -->
<g id="edge11" class="edge"><title>Node6&#45;&gt;Node11</title>
<path fill="none" stroke="midnightblue" d="M177.371,-448.324C189.158,-440.058 207.132,-427.453 221.136,-417.632"/>
<polygon fill="midnightblue" stroke="midnightblue" points="223.482,-420.262 229.659,-411.655 219.462,-414.531 223.482,-420.262"/>
</g>
<!-- Node17 -->
<g id="node17" class="node"><title>Node17</title>
<g id="a_node17"><a xlink:href="../../db/df1/torcnotifier_8h.html" target="_top" xlink:title="torcnotifier.h">
<polygon fill="white" stroke="black" points="131.5,-336.5 131.5,-355.5 208.5,-355.5 208.5,-336.5 131.5,-336.5"/>
<text text-anchor="middle" x="170" y="-343.5" font-family="Helvetica,sans-Serif" font-size="10.00">torcnotifier.h</text>
</a>
</g>
</g>
<!-- Node6&#45;&gt;Node17 -->
<g id="edge23" class="edge"><title>Node6&#45;&gt;Node17</title>
<path fill="none" stroke="midnightblue" d="M165.392,-448.368C166.199,-430.617 168.061,-389.666 169.155,-365.597"/>
<polygon fill="midnightblue" stroke="midnightblue" points="172.652,-365.74 169.609,-355.591 165.659,-365.422 172.652,-365.74"/>
</g>
<!-- Node8&#45;&gt;Node7 -->
<g id="edge10" class="edge"><title>Node8&#45;&gt;Node7</title>
<path fill="none" stroke="midnightblue" d="M152.23,-224.083C146.438,-216.455 137.942,-205.264 130.862,-195.941"/>
<polygon fill="midnightblue" stroke="midnightblue" points="133.479,-193.599 124.644,-187.751 127.904,-197.832 133.479,-193.599"/>
</g>
<!-- Node9 -->
<g id="node9" class="node"><title>Node9</title>
<polygon fill="white" stroke="#bfbfbf" points="217.5,-168.5 217.5,-187.5 266.5,-187.5 266.5,-168.5 217.5,-168.5"/>
<text text-anchor="middle" x="242" y="-175.5" font-family="Helvetica,sans-Serif" font-size="10.00">QHash</text>
</g>
<!-- Node8&#45;&gt;Node9 -->
<g id="edge8" class="edge"><title>Node8&#45;&gt;Node9</title>
<path fill="none" stroke="midnightblue" d="M172.335,-224.324C185.162,-215.979 204.785,-203.212 219.94,-193.352"/>
<polygon fill="midnightblue" stroke="midnightblue" points="222.224,-196.042 228.698,-187.655 218.407,-190.174 222.224,-196.042"/>
</g>
<!-- Node10 -->
<g id="node10" class="node"><title>Node10</title>
<polygon fill="white" stroke="#bfbfbf" points="449.5,-168.5 449.5,-187.5 502.5,-187.5 502.5,-168.5 449.5,-168.5"/>
<text text-anchor="middle" x="476" y="-175.5" font-family="Helvetica,sans-Serif" font-size="10.00">QMutex</text>
</g>
<!-- Node8&#45;&gt;Node10 -->
<g id="edge9" class="edge"><title>Node8&#45;&gt;Node10</title>
<path fill="none" stroke="midnightblue" d="M209.23,-224.444C273.327,-213.525 382.674,-194.898 439.416,-185.232"/>
<polygon fill="midnightblue" stroke="midnightblue" points="440.106,-188.665 449.376,-183.535 438.93,-181.764 440.106,-188.665"/>
</g>
<!-- Node12 -->
<g id="node12" class="node"><title>Node12</title>
<g id="a_node12"><a xlink:href="../../d1/df7/torcdevice_8h.html" target="_top" xlink:title="torcdevice.h">
<polygon fill="white" stroke="black" points="204.5,-280.5 204.5,-299.5 279.5,-299.5 279.5,-280.5 204.5,-280.5"/>
<text text-anchor="middle" x="242" y="-287.5" font-family="Helvetica,sans-Serif" font-size="10.00">torcdevice.h</text>
</a>
</g>
</g>
<!-- Node11&#45;&gt;Node12 -->
<g id="edge12" class="edge"><title>Node11&#45;&gt;Node12</title>
<path fill="none" stroke="midnightblue" d="M242,-392.368C242,-374.617 242,-333.666 242,-309.597"/>
<polygon fill="midnightblue" stroke="midnightblue" points="245.5,-309.591 242,-299.591 238.5,-309.591 245.5,-309.591"/>
</g>
<!-- Node11&#45;&gt;Node17 -->
<g id="edge20" class="edge"><title>Node11&#45;&gt;Node17</title>
<path fill="none" stroke="midnightblue" d="M230.432,-392.324C219.58,-384.185 203.119,-371.839 190.117,-362.087"/>
<polygon fill="midnightblue" stroke="midnightblue" points="191.879,-359.034 181.779,-355.834 187.679,-364.634 191.879,-359.034"/>
</g>
<!-- Node12&#45;&gt;Node8 -->
<g id="edge19" class="edge"><title>Node12&#45;&gt;Node8</title>
<path fill="none" stroke="midnightblue" d="M228.665,-280.324C215.838,-271.979 196.215,-259.212 181.06,-249.352"/>
<polygon fill="midnightblue" stroke="midnightblue" points="182.593,-246.174 172.302,-243.655 178.776,-252.042 182.593,-246.174"/>
</g>
<!-- Node12&#45;&gt;Node9 -->
<g id="edge13" class="edge"><title>Node12&#45;&gt;Node9</title>
<path fill="none" stroke="midnightblue" d="M242,-280.368C242,-262.617 242,-221.666 242,-197.597"/>
<polygon fill="midnightblue" stroke="midnightblue" points="245.5,-197.591 242,-187.591 238.5,-197.591 245.5,-197.591"/>
</g>
<!-- Node12&#45;&gt;Node10 -->
<g id="edge14" class="edge"><title>Node12&#45;&gt;Node10</title>
<path fill="none" stroke="midnightblue" d="M247.116,-280.351C255.894,-266.292 275.199,-238.59 299,-224 342.611,-197.266 401.551,-186.356 439.179,-181.943"/>
<polygon fill="midnightblue" stroke="midnightblue" points="439.629,-185.414 449.196,-180.862 438.879,-178.455 439.629,-185.414"/>
</g>
<!-- Node13 -->
<g id="node13" class="node"><title>Node13</title>
<polygon fill="white" stroke="#bfbfbf" points="931.5,-56.5 931.5,-75.5 984.5,-75.5 984.5,-56.5 931.5,-56.5"/>
<text text-anchor="middle" x="958" y="-63.5" font-family="Helvetica,sans-Serif" font-size="10.00">QString</text>
</g>
<!-- Node12&#45;&gt;Node13 -->
<g id="edge15" class="edge"><title>Node12&#45;&gt;Node13</title>
<path fill="none" stroke="midnightblue" d="M204.193,-289.299C168.015,-287.372 114.816,-278.327 86,-244 64.2149,-218.049 57.4517,-193.291 80,-168 136.957,-104.116 761.596,-74.8674 921.095,-68.4086"/>
<polygon fill="midnightblue" stroke="midnightblue" points="921.488,-71.8958 931.34,-67.9993 921.209,-64.9014 921.488,-71.8958"/>
</g>
<!-- Node14 -->
<g id="node14" class="node"><title>Node14</title>
<polygon fill="white" stroke="#bfbfbf" points="520.5,-168.5 520.5,-187.5 575.5,-187.5 575.5,-168.5 520.5,-168.5"/>
<text text-anchor="middle" x="548" y="-175.5" font-family="Helvetica,sans-Serif" font-size="10.00">QObject</text>
</g>
<!-- Node12&#45;&gt;Node14 -->
<g id="edge16" class="edge"><title>Node12&#45;&gt;Node14</title>
<path fill="none" stroke="midnightblue" d="M279.699,-282.742C317.693,-275.766 377.611,-262.917 427,-244 463.369,-230.07 502.581,-207.458 526.206,-192.912"/>
<polygon fill="midnightblue" stroke="midnightblue" points="528.115,-195.847 534.747,-187.585 524.41,-189.907 528.115,-195.847"/>
</g>
<!-- Node15 -->
<g id="node15" class="node"><title>Node15</title>
<g id="a_node15"><a xlink:href="../../d8/dfe/torcreferencecounted_8h.html" target="_top" xlink:title="torcreferencecounted.h">
<polygon fill="white" stroke="black" points="624.5,-224.5 624.5,-243.5 753.5,-243.5 753.5,-224.5 624.5,-224.5"/>
<text text-anchor="middle" x="689" y="-231.5" font-family="Helvetica,sans-Serif" font-size="10.00">torcreferencecounted.h</text>
</a>
</g>
</g>
<!-- Node12&#45;&gt;Node15 -->
<g id="edge17" class="edge"><title>Node12&#45;&gt;Node15</title>
<path fill="none" stroke="midnightblue" d="M279.726,-284.443C353.417,-275.54 517.701,-255.694 614.224,-244.033"/>
<polygon fill="midnightblue" stroke="midnightblue" points="614.702,-247.501 624.21,-242.827 613.862,-240.552 614.702,-247.501"/>
</g>
<!-- Node16 -->
<g id="node16" class="node"><title>Node16</title>
<polygon fill="white" stroke="#bfbfbf" points="654,-168.5 654,-187.5 724,-187.5 724,-168.5 654,-168.5"/>
<text text-anchor="middle" x="689" y="-175.5" font-family="Helvetica,sans-Serif" font-size="10.00">QAtomicInt</text>
</g>
<!-- Node15&#45;&gt;Node16 -->
<g id="edge18" class="edge"><title>Node15&#45;&gt;Node16</title>
<path fill="none" stroke="midnightblue" d="M689,-224.083C689,-217.006 689,-206.861 689,-197.986"/>
<polygon fill="midnightblue" stroke="midnightblue" points="692.5,-197.751 689,-187.751 685.5,-197.751 692.5,-197.751"/>
</g>
<!-- Node17&#45;&gt;Node7 -->
<g id="edge21" class="edge"><title>Node17&#45;&gt;Node7</title>
<path fill="none" stroke="midnightblue" d="M159.067,-336.448C139.867,-320.648 100.732,-284.752 86,-244 79.7562,-226.728 91.0454,-208.013 101.898,-195.12"/>
<polygon fill="midnightblue" stroke="midnightblue" points="104.635,-197.313 108.778,-187.562 99.4584,-192.6 104.635,-197.313"/>
</g>
<!-- Node17&#45;&gt;Node12 -->
<g id="edge22" class="edge"><title>Node17&#45;&gt;Node12</title>
<path fill="none" stroke="midnightblue" d="M181.568,-336.324C192.42,-328.185 208.881,-315.839 221.883,-306.087"/>
<polygon fill="midnightblue" stroke="midnightblue" points="224.321,-308.634 230.221,-299.834 220.121,-303.034 224.321,-308.634"/>
</g>
<!-- Node18&#45;&gt;Node11 -->
<g id="edge73" class="edge"><title>Node18&#45;&gt;Node11</title>
<path fill="none" stroke="midnightblue" d="M463.327,-448.444C417.255,-438.984 343.004,-423.738 293.369,-413.547"/>
<polygon fill="midnightblue" stroke="midnightblue" points="293.978,-410.099 283.478,-411.516 292.57,-416.956 293.978,-410.099"/>
</g>
<!-- Node19 -->
<g id="node19" class="node"><title>Node19</title>
<g id="a_node19"><a xlink:href="../../dd/dbd/torclocalcontext_8h.html" target="_top" xlink:title="torclocalcontext.h">
<polygon fill="white" stroke="black" points="675,-336.5 675,-355.5 777,-355.5 777,-336.5 675,-336.5"/>
<text text-anchor="middle" x="726" y="-343.5" font-family="Helvetica,sans-Serif" font-size="10.00">torclocalcontext.h</text>
</a>
</g>
</g>
<!-- Node18&#45;&gt;Node19 -->
<g id="edge25" class="edge"><title>Node18&#45;&gt;Node19</title>
<path fill="none" stroke="midnightblue" d="M522.341,-448.368C560.911,-429.171 653.991,-382.842 699.733,-360.074"/>
<polygon fill="midnightblue" stroke="midnightblue" points="701.346,-363.181 708.739,-355.591 698.227,-356.914 701.346,-363.181"/>
</g>
<!-- Node19&#45;&gt;Node10 -->
<g id="edge29" class="edge"><title>Node19&#45;&gt;Node10</title>
<path fill="none" stroke="midnightblue" d="M674.757,-341.058C616.653,-335.522 526.874,-323.391 503,-300 475.546,-273.101 473.256,-224.852 474.381,-198.128"/>
<polygon fill="midnightblue" stroke="midnightblue" points="477.895,-198.018 475.035,-187.817 470.909,-197.575 477.895,-198.018"/>
</g>
<!-- Node19&#45;&gt;Node13 -->
<g id="edge27" class="edge"><title>Node19&#45;&gt;Node13</title>
<path fill="none" stroke="midnightblue" d="M765.593,-336.489C800.603,-328.513 852.83,-315.514 897,-300 917.65,-292.747 921.523,-287.726 942,-280 992.109,-261.093 1025.29,-287.158 1057,-244 1062.26,-236.837 1062.1,-231.281 1057,-224 1030.14,-185.652 984.86,-226.348 958,-188 936.584,-157.424 944.9,-110.993 951.99,-85.452"/>
<polygon fill="midnightblue" stroke="midnightblue" points="955.423,-86.189 954.957,-75.6044 948.721,-84.1697 955.423,-86.189"/>
</g>
<!-- Node19&#45;&gt;Node14 -->
<g id="edge26" class="edge"><title>Node19&#45;&gt;Node14</title>
<path fill="none" stroke="midnightblue" d="M725.802,-336.255C725.03,-322.556 721.604,-295.959 707,-280 677.358,-247.608 651.928,-267.754 615,-244 594.035,-230.514 574.076,-209.769 561.483,-195.356"/>
<polygon fill="midnightblue" stroke="midnightblue" points="564.115,-193.049 554.967,-187.704 558.785,-197.587 564.115,-193.049"/>
</g>
<!-- Node20 -->
<g id="node20" class="node"><title>Node20</title>
<polygon fill="white" stroke="#bfbfbf" points="772,-224.5 772,-243.5 864,-243.5 864,-224.5 772,-224.5"/>
<text text-anchor="middle" x="818" y="-231.5" font-family="Helvetica,sans-Serif" font-size="10.00">QReadWriteLock</text>
</g>
<!-- Node19&#45;&gt;Node20 -->
<g id="edge28" class="edge"><title>Node19&#45;&gt;Node20</title>
<path fill="none" stroke="midnightblue" d="M733.219,-336.368C748.536,-318.055 784.505,-275.049 804.315,-251.362"/>
<polygon fill="midnightblue" stroke="midnightblue" points="807.084,-253.508 810.814,-243.591 801.714,-249.017 807.084,-253.508"/>
</g>
<!-- Node21 -->
<g id="node21" class="node"><title>Node21</title>
<g id="a_node21"><a xlink:href="../../db/db2/torclocaldefs_8h.html" target="_top" xlink:title="torclocaldefs.h">
<polygon fill="white" stroke="black" points="612,-280.5 612,-299.5 698,-299.5 698,-280.5 612,-280.5"/>
<text text-anchor="middle" x="655" y="-287.5" font-family="Helvetica,sans-Serif" font-size="10.00">torclocaldefs.h</text>
</a>
</g>
</g>
<!-- Node19&#45;&gt;Node21 -->
<g id="edge30" class="edge"><title>Node19&#45;&gt;Node21</title>
<path fill="none" stroke="midnightblue" d="M714.593,-336.324C703.891,-328.185 687.659,-315.839 674.837,-306.087"/>
<polygon fill="midnightblue" stroke="midnightblue" points="676.693,-303.102 666.615,-299.834 672.456,-308.673 676.693,-303.102"/>
</g>
<!-- Node22 -->
<g id="node22" class="node"><title>Node22</title>
<g id="a_node22"><a xlink:href="../../db/df5/torcsetting_8h.html" target="_top" xlink:title="torcsetting.h">
<polygon fill="white" stroke="black" points="811.5,-280.5 811.5,-299.5 888.5,-299.5 888.5,-280.5 811.5,-280.5"/>
<text text-anchor="middle" x="850" y="-287.5" font-family="Helvetica,sans-Serif" font-size="10.00">torcsetting.h</text>
</a>
</g>
</g>
<!-- Node19&#45;&gt;Node22 -->
<g id="edge31" class="edge"><title>Node19&#45;&gt;Node22</title>
<path fill="none" stroke="midnightblue" d="M745.648,-336.444C765.965,-327.596 797.903,-313.687 821.098,-303.586"/>
<polygon fill="midnightblue" stroke="midnightblue" points="822.673,-306.718 830.444,-299.516 819.878,-300.3 822.673,-306.718"/>
</g>
<!-- Node37 -->
<g id="node37" class="node"><title>Node37</title>
<g id="a_node37"><a xlink:href="../../d6/d94/torcobservable_8h.html" target="_top" xlink:title="torcobservable.h">
<polygon fill="white" stroke="black" points="951.5,-280.5 951.5,-299.5 1048.5,-299.5 1048.5,-280.5 951.5,-280.5"/>
<text text-anchor="middle" x="1000" y="-287.5" font-family="Helvetica,sans-Serif" font-size="10.00">torcobservable.h</text>
</a>
</g>
</g>
<!-- Node19&#45;&gt;Node37 -->
<g id="edge55" class="edge"><title>Node19&#45;&gt;Node37</title>
<path fill="none" stroke="midnightblue" d="M769.416,-336.444C817.515,-326.964 895.095,-311.675 946.806,-301.483"/>
<polygon fill="midnightblue" stroke="midnightblue" points="947.653,-304.884 956.787,-299.516 946.299,-298.016 947.653,-304.884"/>
</g>
<!-- Node40 -->
<g id="node40" class="node"><title>Node40</title>
<g id="a_node40"><a xlink:href="../../d7/d70/torcsqlitedb_8h.html" target="_top" xlink:title="torcsqlitedb.h">
<polygon fill="white" stroke="black" points="512,-280.5 512,-299.5 594,-299.5 594,-280.5 512,-280.5"/>
<text text-anchor="middle" x="553" y="-287.5" font-family="Helvetica,sans-Serif" font-size="10.00">torcsqlitedb.h</text>
</a>
</g>
</g>
<!-- Node19&#45;&gt;Node40 -->
<g id="edge60" class="edge"><title>Node19&#45;&gt;Node40</title>
<path fill="none" stroke="midnightblue" d="M698.588,-336.444C669.231,-327.28 622.481,-312.688 589.904,-302.519"/>
<polygon fill="midnightblue" stroke="midnightblue" points="590.873,-299.155 580.284,-299.516 588.787,-305.837 590.873,-299.155"/>
</g>
<!-- Node42 -->
<g id="node42" class="node"><title>Node42</title>
<g id="a_node42"><a xlink:href="../../dd/dd5/torcadminthread_8h.html" target="_top" xlink:title="torcadminthread.h">
<polygon fill="white" stroke="black" points="1364,-280.5 1364,-299.5 1470,-299.5 1470,-280.5 1364,-280.5"/>
<text text-anchor="middle" x="1417" y="-287.5" font-family="Helvetica,sans-Serif" font-size="10.00">torcadminthread.h</text>
</a>
</g>
</g>
<!-- Node19&#45;&gt;Node42 -->
<g id="edge64" class="edge"><title>Node19&#45;&gt;Node42</title>
<path fill="none" stroke="midnightblue" d="M777.091,-341.007C901.093,-331.317 1217.75,-306.571 1353.57,-295.957"/>
<polygon fill="midnightblue" stroke="midnightblue" points="1354.11,-299.425 1363.81,-295.157 1353.57,-292.446 1354.11,-299.425"/>
</g>
<!-- Node46 -->
<g id="node46" class="node"><title>Node46</title>
<g id="a_node46"><a xlink:href="../../db/d41/torccommandline_8h.html" target="_top" xlink:title="torccommandline.h">
<polygon fill="white" stroke="black" points="308,-224.5 308,-243.5 418,-243.5 418,-224.5 308,-224.5"/>
<text text-anchor="middle" x="363" y="-231.5" font-family="Helvetica,sans-Serif" font-size="10.00">torccommandline.h</text>
</a>
</g>
</g>
<!-- Node19&#45;&gt;Node46 -->
<g id="edge68" class="edge"><title>Node19&#45;&gt;Node46</title>
<path fill="none" stroke="midnightblue" d="M674.986,-341.625C622.24,-336.861 538.208,-325.67 470,-300 436.863,-287.529 402.574,-264.611 382.015,-249.591"/>
<polygon fill="midnightblue" stroke="midnightblue" points="383.949,-246.667 373.839,-243.501 379.768,-252.281 383.949,-246.667"/>
</g>
<!-- Node22&#45;&gt;Node7 -->
<g id="edge35" class="edge"><title>Node22&#45;&gt;Node7</title>
<path fill="none" stroke="midnightblue" d="M811.462,-286.532C782.682,-284.699 742.382,-282.154 707,-280 639.008,-275.861 141.731,-293.56 95,-244 82.4869,-230.729 93.0182,-210.228 103.594,-195.805"/>
<polygon fill="midnightblue" stroke="midnightblue" points="106.523,-197.745 109.98,-187.73 101.032,-193.403 106.523,-197.745"/>
</g>
<!-- Node22&#45;&gt;Node14 -->
<g id="edge34" class="edge"><title>Node22&#45;&gt;Node14</title>
<path fill="none" stroke="midnightblue" d="M857.868,-280.409C869.256,-266.921 887.467,-240.608 873,-224 863.615,-213.226 669.253,-191.693 585.671,-182.888"/>
<polygon fill="midnightblue" stroke="midnightblue" points="585.888,-179.392 575.578,-181.83 585.158,-186.354 585.888,-179.392"/>
</g>
<!-- Node22&#45;&gt;Node15 -->
<g id="edge54" class="edge"><title>Node22&#45;&gt;Node15</title>
<path fill="none" stroke="midnightblue" d="M824.489,-280.444C797.404,-271.359 754.41,-256.939 724.131,-246.783"/>
<polygon fill="midnightblue" stroke="midnightblue" points="724.986,-243.378 714.392,-243.516 722.76,-250.015 724.986,-243.378"/>
</g>
<!-- Node22&#45;&gt;Node20 -->
<g id="edge33" class="edge"><title>Node22&#45;&gt;Node20</title>
<path fill="none" stroke="midnightblue" d="M844.716,-280.083C840.289,-272.613 833.837,-261.724 828.382,-252.52"/>
<polygon fill="midnightblue" stroke="midnightblue" points="831.295,-250.57 823.186,-243.751 825.273,-254.138 831.295,-250.57"/>
</g>
<!-- Node23 -->
<g id="node23" class="node"><title>Node23</title>
<polygon fill="white" stroke="#bfbfbf" points="920.5,-224.5 920.5,-243.5 961.5,-243.5 961.5,-224.5 920.5,-224.5"/>
<text text-anchor="middle" x="941" y="-231.5" font-family="Helvetica,sans-Serif" font-size="10.00">QSet</text>
</g>
<!-- Node22&#45;&gt;Node23 -->
<g id="edge32" class="edge"><title>Node22&#45;&gt;Node23</title>
<path fill="none" stroke="midnightblue" d="M864.621,-280.324C878.949,-271.822 901.013,-258.729 917.749,-248.797"/>
<polygon fill="midnightblue" stroke="midnightblue" points="919.602,-251.768 926.416,-243.655 916.03,-245.748 919.602,-251.768"/>
</g>
<!-- Node24 -->
<g id="node24" class="node"><title>Node24</title>
<polygon fill="white" stroke="#bfbfbf" points="979.5,-224.5 979.5,-243.5 1048.5,-243.5 1048.5,-224.5 979.5,-224.5"/>
<text text-anchor="middle" x="1014" y="-231.5" font-family="Helvetica,sans-Serif" font-size="10.00">QStringList</text>
</g>
<!-- Node22&#45;&gt;Node24 -->
<g id="edge36" class="edge"><title>Node22&#45;&gt;Node24</title>
<path fill="none" stroke="midnightblue" d="M875.986,-280.444C903.696,-271.32 947.752,-256.813 978.616,-246.651"/>
<polygon fill="midnightblue" stroke="midnightblue" points="979.732,-249.968 988.135,-243.516 977.542,-243.32 979.732,-249.968"/>
</g>
<!-- Node25 -->
<g id="node25" class="node"><title>Node25</title>
<g id="a_node25"><a xlink:href="../../d3/dee/torchttpservice_8h.html" target="_top" xlink:title="torchttpservice.h">
<polygon fill="white" stroke="black" points="1143,-224.5 1143,-243.5 1241,-243.5 1241,-224.5 1143,-224.5"/>
<text text-anchor="middle" x="1192" y="-231.5" font-family="Helvetica,sans-Serif" font-size="10.00">torchttpservice.h</text>
</a>
</g>
</g>
<!-- Node22&#45;&gt;Node25 -->
<g id="edge37" class="edge"><title>Node22&#45;&gt;Node25</title>
<path fill="none" stroke="midnightblue" d="M888.567,-282.91C948.091,-273.512 1062.78,-255.403 1132.84,-244.34"/>
<polygon fill="midnightblue" stroke="midnightblue" points="1133.51,-247.778 1142.85,-242.761 1132.42,-240.864 1133.51,-247.778"/>
</g>
<!-- Node25&#45;&gt;Node10 -->
<g id="edge39" class="edge"><title>Node25&#45;&gt;Node10</title>
<path fill="none" stroke="midnightblue" d="M1142.94,-229.721C1117.33,-228.011 1085.48,-225.888 1057,-224 817.657,-208.131 752.897,-225.948 512.734,-188.006"/>
<polygon fill="midnightblue" stroke="midnightblue" points="513.072,-184.516 502.645,-186.396 511.969,-191.428 513.072,-184.516"/>
</g>
<!-- Node26 -->
<g id="node26" class="node"><title>Node26</title>
<polygon fill="white" stroke="#bfbfbf" points="1326,-56.5 1326,-75.5 1370,-75.5 1370,-56.5 1326,-56.5"/>
<text text-anchor="middle" x="1348" y="-63.5" font-family="Helvetica,sans-Serif" font-size="10.00">QMap</text>
</g>
<!-- Node25&#45;&gt;Node26 -->
<g id="edge38" class="edge"><title>Node25&#45;&gt;Node26</title>
<path fill="none" stroke="midnightblue" d="M1241.22,-229.441C1271.03,-224.607 1307.35,-213.463 1329,-188 1353.6,-159.07 1353.12,-111.624 1350.59,-85.5705"/>
<polygon fill="midnightblue" stroke="midnightblue" points="1354.05,-85.0586 1349.4,-75.5391 1347.1,-85.881 1354.05,-85.0586"/>
</g>
<!-- Node27 -->
<g id="node27" class="node"><title>Node27</title>
<polygon fill="white" stroke="#bfbfbf" points="1084.5,-168.5 1084.5,-187.5 1163.5,-187.5 1163.5,-168.5 1084.5,-168.5"/>
<text text-anchor="middle" x="1124" y="-175.5" font-family="Helvetica,sans-Serif" font-size="10.00">QMetaObject</text>
</g>
<!-- Node25&#45;&gt;Node27 -->
<g id="edge40" class="edge"><title>Node25&#45;&gt;Node27</title>
<path fill="none" stroke="midnightblue" d="M1181.07,-224.324C1170.83,-216.185 1155.28,-203.839 1143,-194.087"/>
<polygon fill="midnightblue" stroke="midnightblue" points="1145.13,-191.312 1135.12,-187.834 1140.78,-196.794 1145.13,-191.312"/>
</g>
<!-- Node28 -->
<g id="node28" class="node"><title>Node28</title>
<polygon fill="white" stroke="#bfbfbf" points="1220.5,-168.5 1220.5,-187.5 1319.5,-187.5 1319.5,-168.5 1220.5,-168.5"/>
<text text-anchor="middle" x="1270" y="-175.5" font-family="Helvetica,sans-Serif" font-size="10.00">QCoreApplication</text>
</g>
<!-- Node25&#45;&gt;Node28 -->
<g id="edge41" class="edge"><title>Node25&#45;&gt;Node28</title>
<path fill="none" stroke="midnightblue" d="M1204.53,-224.324C1216.59,-215.979 1235.03,-203.212 1249.27,-193.352"/>
<polygon fill="midnightblue" stroke="midnightblue" points="1251.27,-196.224 1257.5,-187.655 1247.28,-190.469 1251.27,-196.224"/>
</g>
<!-- Node29 -->
<g id="node29" class="node"><title>Node29</title>
<g id="a_node29"><a xlink:href="../../d4/d11/torchttphandler_8h.html" target="_top" xlink:title="torchttphandler.h">
<polygon fill="white" stroke="black" points="967.5,-168.5 967.5,-187.5 1066.5,-187.5 1066.5,-168.5 967.5,-168.5"/>
<text text-anchor="middle" x="1017" y="-175.5" font-family="Helvetica,sans-Serif" font-size="10.00">torchttphandler.h</text>
</a>
</g>
</g>
<!-- Node25&#45;&gt;Node29 -->
<g id="edge42" class="edge"><title>Node25&#45;&gt;Node29</title>
<path fill="none" stroke="midnightblue" d="M1164.27,-224.444C1134.57,-215.28 1087.28,-200.688 1054.33,-190.519"/>
<polygon fill="midnightblue" stroke="midnightblue" points="1055.19,-187.121 1044.6,-187.516 1053.12,-193.809 1055.19,-187.121"/>
</g>
<!-- Node31 -->
<g id="node31" class="node"><title>Node31</title>
<g id="a_node31"><a xlink:href="../../df/dd7/torchttprequest_8h.html" target="_top" xlink:title="torchttprequest.h">
<polygon fill="white" stroke="black" points="1121.5,-112.5 1121.5,-131.5 1222.5,-131.5 1222.5,-112.5 1121.5,-112.5"/>
<text text-anchor="middle" x="1172" y="-119.5" font-family="Helvetica,sans-Serif" font-size="10.00">torchttprequest.h</text>
</a>
</g>
</g>
<!-- Node25&#45;&gt;Node31 -->
<g id="edge53" class="edge"><title>Node25&#45;&gt;Node31</title>
<path fill="none" stroke="midnightblue" d="M1190.43,-224.368C1187.2,-206.617 1179.76,-165.666 1175.38,-141.597"/>
<polygon fill="midnightblue" stroke="midnightblue" points="1178.79,-140.804 1173.56,-131.591 1171.91,-142.056 1178.79,-140.804"/>
</g>
<!-- Node29&#45;&gt;Node13 -->
<g id="edge43" class="edge"><title>Node29&#45;&gt;Node13</title>
<path fill="none" stroke="midnightblue" d="M1012.37,-168.368C1002.72,-150.376 980.286,-108.55 967.454,-84.6267"/>
<polygon fill="midnightblue" stroke="midnightblue" points="970.419,-82.7495 962.608,-75.5914 964.25,-86.0582 970.419,-82.7495"/>
</g>
<!-- Node30 -->
<g id="node30" class="node"><title>Node30</title>
<polygon fill="white" stroke="#bfbfbf" points="1005,-112.5 1005,-131.5 1083,-131.5 1083,-112.5 1005,-112.5"/>
<text text-anchor="middle" x="1044" y="-119.5" font-family="Helvetica,sans-Serif" font-size="10.00">QVariantMap</text>
</g>
<!-- Node29&#45;&gt;Node30 -->
<g id="edge44" class="edge"><title>Node29&#45;&gt;Node30</title>
<path fill="none" stroke="midnightblue" d="M1021.46,-168.083C1025.15,-160.691 1030.52,-149.953 1035.09,-140.811"/>
<polygon fill="midnightblue" stroke="midnightblue" points="1038.28,-142.261 1039.62,-131.751 1032.02,-139.13 1038.28,-142.261"/>
</g>
<!-- Node29&#45;&gt;Node31 -->
<g id="edge45" class="edge"><title>Node29&#45;&gt;Node31</title>
<path fill="none" stroke="midnightblue" d="M1041.56,-168.444C1067.52,-159.399 1108.67,-145.064 1137.8,-134.916"/>
<polygon fill="midnightblue" stroke="midnightblue" points="1139.26,-138.112 1147.55,-131.516 1136.96,-131.501 1139.26,-138.112"/>
</g>
<!-- Node31&#45;&gt;Node13 -->
<g id="edge48" class="edge"><title>Node31&#45;&gt;Node13</title>
<path fill="none" stroke="midnightblue" d="M1138.09,-112.444C1098.95,-102.567 1034.82,-86.3846 994.584,-76.2314"/>
<polygon fill="midnightblue" stroke="midnightblue" points="995.204,-72.7782 984.651,-73.7251 993.491,-79.5654 995.204,-72.7782"/>
</g>
<!-- Node31&#45;&gt;Node26 -->
<g id="edge46" class="edge"><title>Node31&#45;&gt;Node26</title>
<path fill="none" stroke="midnightblue" d="M1199.89,-112.444C1231.51,-102.741 1282.97,-86.952 1316.15,-76.7727"/>
<polygon fill="midnightblue" stroke="midnightblue" points="1317.28,-80.086 1325.82,-73.8067 1315.23,-73.3939 1317.28,-80.086"/>
</g>
<!-- Node32 -->
<g id="node32" class="node"><title>Node32</title>
<polygon fill="white" stroke="#bfbfbf" points="1151.5,-56.5 1151.5,-75.5 1192.5,-75.5 1192.5,-56.5 1151.5,-56.5"/>
<text text-anchor="middle" x="1172" y="-63.5" font-family="Helvetica,sans-Serif" font-size="10.00">QPair</text>
</g>
<!-- Node31&#45;&gt;Node32 -->
<g id="edge47" class="edge"><title>Node31&#45;&gt;Node32</title>
<path fill="none" stroke="midnightblue" d="M1172,-112.083C1172,-105.006 1172,-94.8611 1172,-85.9865"/>
<polygon fill="midnightblue" stroke="midnightblue" points="1175.5,-85.751 1172,-75.7511 1168.5,-85.7511 1175.5,-85.751"/>
</g>
<!-- Node33 -->
<g id="node33" class="node"><title>Node33</title>
<polygon fill="white" stroke="#bfbfbf" points="1210.5,-56.5 1210.5,-75.5 1281.5,-75.5 1281.5,-56.5 1210.5,-56.5"/>
<text text-anchor="middle" x="1246" y="-63.5" font-family="Helvetica,sans-Serif" font-size="10.00">QDateTime</text>
</g>
<!-- Node31&#45;&gt;Node33 -->
<g id="edge49" class="edge"><title>Node31&#45;&gt;Node33</title>
<path fill="none" stroke="midnightblue" d="M1183.89,-112.324C1195.15,-104.107 1212.29,-91.6017 1225.71,-81.8069"/>
<polygon fill="midnightblue" stroke="midnightblue" points="1227.88,-84.5559 1233.89,-75.8339 1223.75,-78.9014 1227.88,-84.5559"/>
</g>
<!-- Node34 -->
<g id="node34" class="node"><title>Node34</title>
<g id="a_node34"><a xlink:href="../../de/de6/torchttpreader_8h.html" target="_top" xlink:title="torchttpreader.h">
<polygon fill="white" stroke="black" points="1038.5,-56.5 1038.5,-75.5 1133.5,-75.5 1133.5,-56.5 1038.5,-56.5"/>
<text text-anchor="middle" x="1086" y="-63.5" font-family="Helvetica,sans-Serif" font-size="10.00">torchttpreader.h</text>
</a>
</g>
</g>
<!-- Node31&#45;&gt;Node34 -->
<g id="edge50" class="edge"><title>Node31&#45;&gt;Node34</title>
<path fill="none" stroke="midnightblue" d="M1158.18,-112.324C1144.77,-103.9 1124.18,-90.9709 1108.41,-81.0741"/>
<polygon fill="midnightblue" stroke="midnightblue" points="1110.11,-78.0081 1099.78,-75.6545 1106.39,-83.9364 1110.11,-78.0081"/>
</g>
<!-- Node35 -->
<g id="node35" class="node"><title>Node35</title>
<polygon fill="white" stroke="#bfbfbf" points="1005.5,-0.5 1005.5,-19.5 1076.5,-19.5 1076.5,-0.5 1005.5,-0.5"/>
<text text-anchor="middle" x="1041" y="-7.5" font-family="Helvetica,sans-Serif" font-size="10.00">QByteArray</text>
</g>
<!-- Node34&#45;&gt;Node35 -->
<g id="edge51" class="edge"><title>Node34&#45;&gt;Node35</title>
<path fill="none" stroke="midnightblue" d="M1078.57,-56.083C1072.15,-48.3768 1062.69,-37.0333 1054.88,-27.6531"/>
<polygon fill="midnightblue" stroke="midnightblue" points="1057.38,-25.1927 1048.29,-19.7511 1052.01,-29.674 1057.38,-25.1927"/>
</g>
<!-- Node36 -->
<g id="node36" class="node"><title>Node36</title>
<polygon fill="white" stroke="#bfbfbf" points="1095,-0.5 1095,-19.5 1167,-19.5 1167,-0.5 1095,-0.5"/>
<text text-anchor="middle" x="1131" y="-7.5" font-family="Helvetica,sans-Serif" font-size="10.00">QTcpSocket</text>
</g>
<!-- Node34&#45;&gt;Node36 -->
<g id="edge52" class="edge"><title>Node34&#45;&gt;Node36</title>
<path fill="none" stroke="midnightblue" d="M1093.43,-56.083C1099.85,-48.3768 1109.31,-37.0333 1117.12,-27.6531"/>
<polygon fill="midnightblue" stroke="midnightblue" points="1119.99,-29.674 1123.71,-19.7511 1114.62,-25.1927 1119.99,-29.674"/>
</g>
<!-- Node38 -->
<g id="node38" class="node"><title>Node38</title>
<g id="a_node38"><a xlink:href="../../d3/d66/torcevent_8h.html" target="_top" xlink:title="torcevent.h">
<polygon fill="white" stroke="black" points="1291.5,-224.5 1291.5,-243.5 1362.5,-243.5 1362.5,-224.5 1291.5,-224.5"/>
<text text-anchor="middle" x="1327" y="-231.5" font-family="Helvetica,sans-Serif" font-size="10.00">torcevent.h</text>
</a>
</g>
</g>
<!-- Node37&#45;&gt;Node38 -->
<g id="edge56" class="edge"><title>Node37&#45;&gt;Node38</title>
<path fill="none" stroke="midnightblue" d="M1048.6,-280.974C1111.33,-270.614 1219.7,-252.719 1281.09,-242.581"/>
<polygon fill="midnightblue" stroke="midnightblue" points="1281.96,-245.985 1291.26,-240.902 1280.82,-239.079 1281.96,-245.985"/>
</g>
<!-- Node38&#45;&gt;Node7 -->
<g id="edge58" class="edge"><title>Node38&#45;&gt;Node7</title>
<path fill="none" stroke="midnightblue" d="M1291.41,-228.224C1278.4,-226.642 1263.55,-225.025 1250,-224 787.931,-189.073 670.345,-219.071 208,-188 191.292,-186.877 172.887,-185.128 157.097,-183.469"/>
<polygon fill="midnightblue" stroke="midnightblue" points="157.46,-179.988 147.143,-182.4 156.712,-186.948 157.46,-179.988"/>
</g>
<!-- Node38&#45;&gt;Node26 -->
<g id="edge57" class="edge"><title>Node38&#45;&gt;Node26</title>
<path fill="none" stroke="midnightblue" d="M1362.76,-228.756C1388.16,-223.668 1420.55,-212.497 1437,-188 1463.69,-148.25 1406.32,-103.282 1371.74,-81.0238"/>
<polygon fill="midnightblue" stroke="midnightblue" points="1373.42,-77.9502 1363.09,-75.6208 1369.71,-83.8871 1373.42,-77.9502"/>
</g>
<!-- Node39 -->
<g id="node39" class="node"><title>Node39</title>
<polygon fill="white" stroke="#bfbfbf" points="1376.5,-168.5 1376.5,-187.5 1427.5,-187.5 1427.5,-168.5 1376.5,-168.5"/>
<text text-anchor="middle" x="1402" y="-175.5" font-family="Helvetica,sans-Serif" font-size="10.00">QEvent</text>
</g>
<!-- Node38&#45;&gt;Node39 -->
<g id="edge59" class="edge"><title>Node38&#45;&gt;Node39</title>
<path fill="none" stroke="midnightblue" d="M1339.05,-224.324C1350.46,-216.107 1367.83,-203.602 1381.43,-193.807"/>
<polygon fill="midnightblue" stroke="midnightblue" points="1383.66,-196.517 1389.73,-187.834 1379.57,-190.837 1383.66,-196.517"/>
</g>
<!-- Node41 -->
<g id="node41" class="node"><title>Node41</title>
<g id="a_node41"><a xlink:href="../../d4/da3/torcdb_8h.html" target="_top" xlink:title="torcdb.h">
<polygon fill="white" stroke="black" points="512,-224.5 512,-243.5 568,-243.5 568,-224.5 512,-224.5"/>
<text text-anchor="middle" x="540" y="-231.5" font-family="Helvetica,sans-Serif" font-size="10.00">torcdb.h</text>
</a>
</g>
</g>
<!-- Node40&#45;&gt;Node41 -->
<g id="edge61" class="edge"><title>Node40&#45;&gt;Node41</title>
<path fill="none" stroke="midnightblue" d="M550.853,-280.083C549.131,-272.927 546.653,-262.635 544.5,-253.691"/>
<polygon fill="midnightblue" stroke="midnightblue" points="547.85,-252.654 542.107,-243.751 541.045,-254.293 547.85,-252.654"/>
</g>
<!-- Node41&#45;&gt;Node10 -->
<g id="edge63" class="edge"><title>Node41&#45;&gt;Node10</title>
<path fill="none" stroke="midnightblue" d="M529.717,-224.324C520.164,-216.263 505.72,-204.077 494.216,-194.369"/>
<polygon fill="midnightblue" stroke="midnightblue" points="496.37,-191.608 486.47,-187.834 491.856,-196.958 496.37,-191.608"/>
</g>
<!-- Node41&#45;&gt;Node14 -->
<g id="edge62" class="edge"><title>Node41&#45;&gt;Node14</title>
<path fill="none" stroke="midnightblue" d="M541.321,-224.083C542.381,-216.927 543.906,-206.635 545.231,-197.691"/>
<polygon fill="midnightblue" stroke="midnightblue" points="548.7,-198.156 546.704,-187.751 541.776,-197.13 548.7,-198.156"/>
</g>
<!-- Node43 -->
<g id="node43" class="node"><title>Node43</title>
<polygon fill="white" stroke="#bfbfbf" points="1396.5,-224.5 1396.5,-243.5 1437.5,-243.5 1437.5,-224.5 1396.5,-224.5"/>
<text text-anchor="middle" x="1417" y="-231.5" font-family="Helvetica,sans-Serif" font-size="10.00">QList</text>
</g>
<!-- Node42&#45;&gt;Node43 -->
<g id="edge65" class="edge"><title>Node42&#45;&gt;Node43</title>
<path fill="none" stroke="midnightblue" d="M1417,-280.083C1417,-273.006 1417,-262.861 1417,-253.986"/>
<polygon fill="midnightblue" stroke="midnightblue" points="1420.5,-253.751 1417,-243.751 1413.5,-253.751 1420.5,-253.751"/>
</g>
<!-- Node44 -->
<g id="node44" class="node"><title>Node44</title>
<g id="a_node44"><a xlink:href="../../dd/db0/torcqthread_8h.html" target="_top" xlink:title="torcqthread.h">
<polygon fill="white" stroke="black" points="1464,-224.5 1464,-243.5 1546,-243.5 1546,-224.5 1464,-224.5"/>
<text text-anchor="middle" x="1505" y="-231.5" font-family="Helvetica,sans-Serif" font-size="10.00">torcqthread.h</text>
</a>
</g>
</g>
<!-- Node42&#45;&gt;Node44 -->
<g id="edge66" class="edge"><title>Node42&#45;&gt;Node44</title>
<path fill="none" stroke="midnightblue" d="M1431.14,-280.324C1444.87,-271.9 1465.94,-258.971 1482.06,-249.074"/>
<polygon fill="midnightblue" stroke="midnightblue" points="1484.2,-251.868 1490.9,-243.655 1480.54,-245.902 1484.2,-251.868"/>
</g>
<!-- Node45 -->
<g id="node45" class="node"><title>Node45</title>
<polygon fill="white" stroke="#bfbfbf" points="1484.5,-168.5 1484.5,-187.5 1541.5,-187.5 1541.5,-168.5 1484.5,-168.5"/>
<text text-anchor="middle" x="1513" y="-175.5" font-family="Helvetica,sans-Serif" font-size="10.00">QThread</text>
</g>
<!-- Node44&#45;&gt;Node45 -->
<g id="edge67" class="edge"><title>Node44&#45;&gt;Node45</title>
<path fill="none" stroke="midnightblue" d="M1506.32,-224.083C1507.38,-216.927 1508.91,-206.635 1510.23,-197.691"/>
<polygon fill="midnightblue" stroke="midnightblue" points="1513.7,-198.156 1511.7,-187.751 1506.78,-197.13 1513.7,-198.156"/>
</g>
<!-- Node46&#45;&gt;Node2 -->
<g id="edge72" class="edge"><title>Node46&#45;&gt;Node2</title>
<path fill="none" stroke="midnightblue" d="M418.195,-226.54C490.531,-218.016 621.331,-202.404 733,-188 738.172,-187.333 743.57,-186.622 748.953,-185.902"/>
<polygon fill="midnightblue" stroke="midnightblue" points="749.782,-189.322 759.225,-184.519 748.848,-182.385 749.782,-189.322"/>
</g>
<!-- Node46&#45;&gt;Node7 -->
<g id="edge70" class="edge"><title>Node46&#45;&gt;Node7</title>
<path fill="none" stroke="midnightblue" d="M324.179,-224.444C278.393,-214.352 202.732,-197.676 156.908,-187.576"/>
<polygon fill="midnightblue" stroke="midnightblue" points="157.568,-184.137 147.049,-185.403 156.061,-190.973 157.568,-184.137"/>
</g>
<!-- Node46&#45;&gt;Node9 -->
<g id="edge71" class="edge"><title>Node46&#45;&gt;Node9</title>
<path fill="none" stroke="midnightblue" d="M343.827,-224.444C324.091,-215.636 293.115,-201.812 270.507,-191.722"/>
<polygon fill="midnightblue" stroke="midnightblue" points="271.641,-188.396 261.083,-187.516 268.789,-194.788 271.641,-188.396"/>
</g>
<!-- Node46&#45;&gt;Node14 -->
<g id="edge69" class="edge"><title>Node46&#45;&gt;Node14</title>
<path fill="none" stroke="midnightblue" d="M392.314,-224.444C424.306,-215.105 475.614,-200.129 510.513,-189.942"/>
<polygon fill="midnightblue" stroke="midnightblue" points="511.715,-193.237 520.334,-187.075 509.754,-186.518 511.715,-193.237"/>
</g>
</g>
</svg>
        <g id="navigator" transform="translate(0 0)" fill="#404254">
                <rect fill="#f2f5e9" fill-opacity="0.5" stroke="#606060" stroke-width=".5" x="0" y="0" width="60" height="60"/>
                <use id="zoomplus" xlink:href="#zoomPlus" x="17" y="9" onmousedown="handleZoom(evt,'in')"/>
                <use id="zoomminus" xlink:href="#zoomMin" x="42" y="9" onmousedown="handleZoom(evt,'out')"/>
                <use id="reset" xlink:href="#resetDef" x="30" y="36" onmousedown="handleReset()"/>
                <g id="arrowUp" xlink:href="#dirArrow" transform="translate(30 24)" onmousedown="handlePan(0,-1)">
                  <use xlink:href="#rim" fill="#404040">
                        <set attributeName="fill" to="#808080" begin="arrowUp.mouseover" end="arrowUp.mouseout"/>
                  </use>
                  <path fill="none" stroke="white" stroke-width="1.5" d="M0,-3.0v7 M-2.5,-0.5L0,-3.0L2.5,-0.5"/>
                </g>
                <g id="arrowRight" xlink:href="#dirArrow" transform="rotate(90) translate(36 -43)" onmousedown="handlePan(1,0)">
                  <use xlink:href="#rim" fill="#404040">
                        <set attributeName="fill" to="#808080" begin="arrowRight.mouseover" end="arrowRight.mouseout"/>
                  </use>
                  <path fill="none" stroke="white" stroke-width="1.5" d="M0,-3.0v7 M-2.5,-0.5L0,-3.0L2.5,-0.5"/>
                </g>
                <g id="arrowDown" xlink:href="#dirArrow" transform="rotate(180) translate(-30 -48)" onmousedown="handlePan(0,1)">
                  <use xlink:href="#rim" fill="#404040">
                        <set attributeName="fill" to="#808080" begin="arrowDown.mouseover" end="arrowDown.mouseout"/>
                  </use>
                  <path fill="none" stroke="white" stroke-width="1.5" d="M0,-3.0v7 M-2.5,-0.5L0,-3.0L2.5,-0.5"/>
                </g>
                <g id="arrowLeft" xlink:href="#dirArrow" transform="rotate(270) translate(-36 17)" onmousedown="handlePan(-1,0)">
                  <use xlink:href="#rim" fill="#404040">
                        <set attributeName="fill" to="#808080" begin="arrowLeft.mouseover" end="arrowLeft.mouseout"/>
                  </use>
                  <path fill="none" stroke="white" stroke-width="1.5" d="M0,-3.0v7 M-2.5,-0.5L0,-3.0L2.5,-0.5"/>
                </g>
        </g>
        <svg viewBox="0 0 15 15" width="100%" height="30px" preserveAspectRatio="xMaxYMin meet">
         <g id="arrow_out" transform="scale(0.3 0.3)">
          <a xlink:href="torcsystemnotification_8cpp__incl_org.svg" target="_base">
           <rect id="button" ry="5" rx="5" y="6" x="6" height="38" width="38"
                fill="#f2f5e9" fill-opacity="0.5" stroke="#606060" stroke-width="1.0"/>
           <path id="arrow"
             d="M 11.500037,31.436501 C 11.940474,20.09759 22.043105,11.32322 32.158766,21.979434 L 37.068811,17.246167 C 37.068811,17.246167 37.088388,32 37.088388,32 L 22.160133,31.978069 C 22.160133,31.978069 26.997745,27.140456 26.997745,27.140456 C 18.528582,18.264221 13.291696,25.230495 11.500037,31.436501 z"
             style="fill:#404040;"/>
          </a>
         </g>
        </svg>
</svg>
