<?xml version="1.0" encoding="UTF-8" standalone="no"?>
<!DOCTYPE svg PUBLIC "-//W3C//DTD SVG 1.1//EN"
 "http://www.w3.org/Graphics/SVG/1.1/DTD/svg11.dtd">
<!-- Generated by graphviz version 2.38.0 (20140413.2041)
 -->
<!-- Title: torcomxtunnel.cpp Pages: 1 -->
<svg width="776pt" height="308pt"
 viewBox="0.00 0.00 776.04 308.00" xmlns="http://www.w3.org/2000/svg" xmlns:xlink="http://www.w3.org/1999/xlink">
<g id="graph0" class="graph" transform="scale(1 1) rotate(0) translate(4 304)">
<title>torcomxtunnel.cpp</title>
<polygon fill="white" stroke="none" points="-4,4 -4,-304 772.036,-304 772.036,4 -4,4"/>
<!-- Node1 -->
<g id="node1" class="node"><title>Node1</title>
<polygon fill="#bfbfbf" stroke="black" points="275,-280.5 275,-299.5 382,-299.5 382,-280.5 275,-280.5"/>
<text text-anchor="middle" x="328.5" y="-287.5" font-family="Helvetica,sans-Serif" font-size="10.00">torcomxtunnel.cpp</text>
</g>
<!-- Node2 -->
<g id="node2" class="node"><title>Node2</title>
<g id="a_node2"><a xlink:href="../../d4/df9/torclogging_8h.html" target="_top" xlink:title="torclogging.h">
<polygon fill="white" stroke="black" points="103,-224.5 103,-243.5 182,-243.5 182,-224.5 103,-224.5"/>
<text text-anchor="middle" x="142.5" y="-231.5" font-family="Helvetica,sans-Serif" font-size="10.00">torclogging.h</text>
</a>
</g>
</g>
<!-- Node1&#45;&gt;Node2 -->
<g id="edge1" class="edge"><title>Node1&#45;&gt;Node2</title>
<path fill="none" stroke="midnightblue" d="M299.028,-280.444C267.329,-271.241 216.768,-256.562 181.725,-246.388"/>
<polygon fill="midnightblue" stroke="midnightblue" points="182.414,-242.943 171.834,-243.516 180.462,-249.666 182.414,-242.943"/>
</g>
<!-- Node6 -->
<g id="node6" class="node"><title>Node6</title>
<g id="a_node6"><a xlink:href="../../d5/ddd/torcomxtunnel_8h.html" target="_top" xlink:title="torcomxtunnel.h">
<polygon fill="white" stroke="black" points="422,-224.5 422,-243.5 517,-243.5 517,-224.5 422,-224.5"/>
<text text-anchor="middle" x="469.5" y="-231.5" font-family="Helvetica,sans-Serif" font-size="10.00">torcomxtunnel.h</text>
</a>
</g>
</g>
<!-- Node1&#45;&gt;Node6 -->
<g id="edge5" class="edge"><title>Node1&#45;&gt;Node6</title>
<path fill="none" stroke="midnightblue" d="M350.842,-280.444C374.253,-271.478 411.236,-257.314 437.69,-247.183"/>
<polygon fill="midnightblue" stroke="midnightblue" points="439.176,-250.361 447.263,-243.516 436.672,-243.824 439.176,-250.361"/>
</g>
<!-- Node3 -->
<g id="node3" class="node"><title>Node3</title>
<polygon fill="white" stroke="#bfbfbf" points="0,-168.5 0,-187.5 53,-187.5 53,-168.5 0,-168.5"/>
<text text-anchor="middle" x="26.5" y="-175.5" font-family="Helvetica,sans-Serif" font-size="10.00">stdint.h</text>
</g>
<!-- Node2&#45;&gt;Node3 -->
<g id="edge2" class="edge"><title>Node2&#45;&gt;Node3</title>
<path fill="none" stroke="midnightblue" d="M124.119,-224.444C105.284,-215.675 75.7688,-201.935 54.1207,-191.858"/>
<polygon fill="midnightblue" stroke="midnightblue" points="55.3375,-188.564 44.7946,-187.516 52.3833,-194.91 55.3375,-188.564"/>
</g>
<!-- Node4 -->
<g id="node4" class="node"><title>Node4</title>
<polygon fill="white" stroke="#bfbfbf" points="71,-168.5 71,-187.5 122,-187.5 122,-168.5 71,-168.5"/>
<text text-anchor="middle" x="96.5" y="-175.5" font-family="Helvetica,sans-Serif" font-size="10.00">errno.h</text>
</g>
<!-- Node2&#45;&gt;Node4 -->
<g id="edge3" class="edge"><title>Node2&#45;&gt;Node4</title>
<path fill="none" stroke="midnightblue" d="M134.904,-224.083C128.273,-216.298 118.479,-204.801 110.442,-195.367"/>
<polygon fill="midnightblue" stroke="midnightblue" points="113.104,-193.094 103.955,-187.751 107.775,-197.633 113.104,-193.094"/>
</g>
<!-- Node5 -->
<g id="node5" class="node"><title>Node5</title>
<g id="a_node5"><a xlink:href="../../d1/d37/torcloggingdefs_8h.html" target="_top" xlink:title="torcloggingdefs.h">
<polygon fill="white" stroke="black" points="140,-168.5 140,-187.5 239,-187.5 239,-168.5 140,-168.5"/>
<text text-anchor="middle" x="189.5" y="-175.5" font-family="Helvetica,sans-Serif" font-size="10.00">torcloggingdefs.h</text>
</a>
</g>
</g>
<!-- Node2&#45;&gt;Node5 -->
<g id="edge4" class="edge"><title>Node2&#45;&gt;Node5</title>
<path fill="none" stroke="midnightblue" d="M150.261,-224.083C157.037,-216.298 167.043,-204.801 175.255,-195.367"/>
<polygon fill="midnightblue" stroke="midnightblue" points="177.958,-197.592 181.883,-187.751 172.678,-192.996 177.958,-197.592"/>
</g>
<!-- Node7 -->
<g id="node7" class="node"><title>Node7</title>
<polygon fill="white" stroke="#bfbfbf" points="368,-56.5 368,-75.5 421,-75.5 421,-56.5 368,-56.5"/>
<text text-anchor="middle" x="394.5" y="-63.5" font-family="Helvetica,sans-Serif" font-size="10.00">QMutex</text>
</g>
<!-- Node6&#45;&gt;Node7 -->
<g id="edge6" class="edge"><title>Node6&#45;&gt;Node7</title>
<path fill="none" stroke="midnightblue" d="M458.948,-224.356C440.42,-208.41 402.66,-172.291 388.5,-132 383.216,-116.965 385.547,-98.8342 388.722,-85.5457"/>
<polygon fill="midnightblue" stroke="midnightblue" points="392.154,-86.2671 391.439,-75.6964 385.406,-84.4058 392.154,-86.2671"/>
</g>
<!-- Node8 -->
<g id="node8" class="node"><title>Node8</title>
<g id="a_node8"><a xlink:href="../../d7/df9/torcomxcore_8h.html" target="_top" xlink:title="torcomxcore.h">
<polygon fill="white" stroke="black" points="263.5,-56.5 263.5,-75.5 349.5,-75.5 349.5,-56.5 263.5,-56.5"/>
<text text-anchor="middle" x="306.5" y="-63.5" font-family="Helvetica,sans-Serif" font-size="10.00">torcomxcore.h</text>
</a>
</g>
</g>
<!-- Node6&#45;&gt;Node8 -->
<g id="edge7" class="edge"><title>Node6&#45;&gt;Node8</title>
<path fill="none" stroke="midnightblue" d="M454.68,-224.43C440.901,-216.085 420.199,-202.56 404.5,-188 368.823,-154.91 334.866,-108.531 317.849,-83.9105"/>
<polygon fill="midnightblue" stroke="midnightblue" points="320.715,-81.9013 312.189,-75.613 314.933,-85.8462 320.715,-81.9013"/>
</g>
<!-- Node11 -->
<g id="node11" class="node"><title>Node11</title>
<polygon fill="white" stroke="#bfbfbf" points="491,-0.5 491,-19.5 566,-19.5 566,-0.5 491,-0.5"/>
<text text-anchor="middle" x="528.5" y="-7.5" font-family="Helvetica,sans-Serif" font-size="10.00">OMX_Core.h</text>
</g>
<!-- Node6&#45;&gt;Node11 -->
<g id="edge25" class="edge"><title>Node6&#45;&gt;Node11</title>
<path fill="none" stroke="midnightblue" d="M517.417,-231.053C561.105,-227.376 626.033,-216.995 674.5,-188 729.3,-155.216 744.306,-136.581 764.5,-76 767.311,-67.5673 770.166,-62.8488 764.5,-56 741.125,-27.7467 638.53,-17.0758 576.563,-13.1631"/>
<polygon fill="midnightblue" stroke="midnightblue" points="576.43,-9.64904 566.24,-12.5497 576.014,-16.6367 576.43,-9.64904"/>
</g>
<!-- Node12 -->
<g id="node12" class="node"><title>Node12</title>
<g id="a_node12"><a xlink:href="../../d1/de8/torcomxport_8h.html" target="_top" xlink:title="torcomxport.h">
<polygon fill="white" stroke="black" points="507,-168.5 507,-187.5 592,-187.5 592,-168.5 507,-168.5"/>
<text text-anchor="middle" x="549.5" y="-175.5" font-family="Helvetica,sans-Serif" font-size="10.00">torcomxport.h</text>
</a>
</g>
</g>
<!-- Node6&#45;&gt;Node12 -->
<g id="edge11" class="edge"><title>Node6&#45;&gt;Node12</title>
<path fill="none" stroke="midnightblue" d="M482.353,-224.324C494.716,-215.979 513.63,-203.212 528.237,-193.352"/>
<polygon fill="midnightblue" stroke="midnightblue" points="530.348,-196.15 536.679,-187.655 526.432,-190.348 530.348,-196.15"/>
</g>
<!-- Node15 -->
<g id="node15" class="node"><title>Node15</title>
<g id="a_node15"><a xlink:href="../../d3/de4/torcomxcomponent_8h.html" target="_top" xlink:title="torcomxcomponent.h">
<polygon fill="white" stroke="black" points="409.5,-112.5 409.5,-131.5 529.5,-131.5 529.5,-112.5 409.5,-112.5"/>
<text text-anchor="middle" x="469.5" y="-119.5" font-family="Helvetica,sans-Serif" font-size="10.00">torcomxcomponent.h</text>
</a>
</g>
</g>
<!-- Node6&#45;&gt;Node15 -->
<g id="edge24" class="edge"><title>Node6&#45;&gt;Node15</title>
<path fill="none" stroke="midnightblue" d="M469.5,-224.368C469.5,-206.617 469.5,-165.666 469.5,-141.597"/>
<polygon fill="midnightblue" stroke="midnightblue" points="473,-141.591 469.5,-131.591 466,-141.591 473,-141.591"/>
</g>
<!-- Node16 -->
<g id="node16" class="node"><title>Node16</title>
<polygon fill="white" stroke="#bfbfbf" points="646,-56.5 646,-75.5 755,-75.5 755,-56.5 646,-56.5"/>
<text text-anchor="middle" x="700.5" y="-63.5" font-family="Helvetica,sans-Serif" font-size="10.00">OMX_Component.h</text>
</g>
<!-- Node6&#45;&gt;Node16 -->
<g id="edge26" class="edge"><title>Node6&#45;&gt;Node16</title>
<path fill="none" stroke="midnightblue" d="M517.019,-228.751C574.083,-220.75 667.035,-197.775 706.5,-132 714.873,-118.044 711.964,-99.2913 707.796,-85.515"/>
<polygon fill="midnightblue" stroke="midnightblue" points="710.976,-84.0067 704.374,-75.7203 704.368,-86.3151 710.976,-84.0067"/>
</g>
<!-- Node9 -->
<g id="node9" class="node"><title>Node9</title>
<polygon fill="white" stroke="#bfbfbf" points="351.5,-0.5 351.5,-19.5 407.5,-19.5 407.5,-0.5 351.5,-0.5"/>
<text text-anchor="middle" x="379.5" y="-7.5" font-family="Helvetica,sans-Serif" font-size="10.00">QLibrary</text>
</g>
<!-- Node8&#45;&gt;Node9 -->
<g id="edge8" class="edge"><title>Node8&#45;&gt;Node9</title>
<path fill="none" stroke="midnightblue" d="M318.229,-56.324C329.337,-48.1066 346.242,-35.6017 359.483,-25.8069"/>
<polygon fill="midnightblue" stroke="midnightblue" points="361.6,-28.5948 367.558,-19.8339 357.437,-22.9671 361.6,-28.5948"/>
</g>
<!-- Node10 -->
<g id="node10" class="node"><title>Node10</title>
<polygon fill="white" stroke="#bfbfbf" points="255,-0.5 255,-19.5 334,-19.5 334,-0.5 255,-0.5"/>
<text text-anchor="middle" x="294.5" y="-7.5" font-family="Helvetica,sans-Serif" font-size="10.00">OMX_Types.h</text>
</g>
<!-- Node8&#45;&gt;Node10 -->
<g id="edge9" class="edge"><title>Node8&#45;&gt;Node10</title>
<path fill="none" stroke="midnightblue" d="M304.518,-56.083C302.928,-48.9272 300.641,-38.6353 298.654,-29.6911"/>
<polygon fill="midnightblue" stroke="midnightblue" points="302.031,-28.7537 296.445,-19.7511 295.197,-30.2722 302.031,-28.7537"/>
</g>
<!-- Node8&#45;&gt;Node11 -->
<g id="edge10" class="edge"><title>Node8&#45;&gt;Node11</title>
<path fill="none" stroke="midnightblue" d="M341.677,-56.4435C380.079,-47.1024 441.676,-32.1194 483.555,-21.9326"/>
<polygon fill="midnightblue" stroke="midnightblue" points="484.599,-25.2809 493.488,-19.5164 482.944,-18.4792 484.599,-25.2809"/>
</g>
<!-- Node12&#45;&gt;Node7 -->
<g id="edge12" class="edge"><title>Node12&#45;&gt;Node7</title>
<path fill="none" stroke="midnightblue" d="M506.861,-176.362C472.574,-173.382 426.052,-163.291 400.5,-132 390.093,-119.256 389.561,-100.06 391.05,-85.8296"/>
<polygon fill="midnightblue" stroke="midnightblue" points="394.547,-86.1003 392.527,-75.6999 387.62,-85.09 394.547,-86.1003"/>
</g>
<!-- Node12&#45;&gt;Node8 -->
<g id="edge15" class="edge"><title>Node12&#45;&gt;Node8</title>
<path fill="none" stroke="midnightblue" d="M506.779,-169.874C473.309,-163.174 426.251,-151.243 388.5,-132 363.14,-119.073 338.105,-97.6203 322.498,-82.9207"/>
<polygon fill="midnightblue" stroke="midnightblue" points="324.873,-80.349 315.243,-75.9304 320.016,-85.3896 324.873,-80.349"/>
</g>
<!-- Node12&#45;&gt;Node11 -->
<g id="edge22" class="edge"><title>Node12&#45;&gt;Node11</title>
<path fill="none" stroke="midnightblue" d="M554.904,-168.445C566.981,-148.168 593.784,-95.8946 576.5,-56 571.232,-43.8399 560.88,-33.4594 551.135,-25.7429"/>
<polygon fill="midnightblue" stroke="midnightblue" points="553.001,-22.7707 542.87,-19.6698 548.856,-28.4116 553.001,-22.7707"/>
</g>
<!-- Node13 -->
<g id="node13" class="node"><title>Node13</title>
<polygon fill="white" stroke="#bfbfbf" points="623.5,-112.5 623.5,-131.5 679.5,-131.5 679.5,-112.5 623.5,-112.5"/>
<text text-anchor="middle" x="651.5" y="-119.5" font-family="Helvetica,sans-Serif" font-size="10.00">QQueue</text>
</g>
<!-- Node12&#45;&gt;Node13 -->
<g id="edge13" class="edge"><title>Node12&#45;&gt;Node13</title>
<path fill="none" stroke="midnightblue" d="M565.888,-168.324C582.171,-159.703 607.367,-146.364 626.216,-136.386"/>
<polygon fill="midnightblue" stroke="midnightblue" points="627.952,-139.427 635.153,-131.655 624.677,-133.24 627.952,-139.427"/>
</g>
<!-- Node14 -->
<g id="node14" class="node"><title>Node14</title>
<polygon fill="white" stroke="#bfbfbf" points="478,-56.5 478,-75.5 567,-75.5 567,-56.5 478,-56.5"/>
<text text-anchor="middle" x="522.5" y="-63.5" font-family="Helvetica,sans-Serif" font-size="10.00">QWaitCondition</text>
</g>
<!-- Node12&#45;&gt;Node14 -->
<g id="edge14" class="edge"><title>Node12&#45;&gt;Node14</title>
<path fill="none" stroke="midnightblue" d="M548.539,-168.487C547.019,-155.973 543.689,-131.937 538.5,-112 536.176,-103.073 532.851,-93.4065 529.833,-85.3291"/>
<polygon fill="midnightblue" stroke="midnightblue" points="533.027,-83.8842 526.153,-75.8219 526.499,-86.4111 533.027,-83.8842"/>
</g>
<!-- Node12&#45;&gt;Node15 -->
<g id="edge16" class="edge"><title>Node12&#45;&gt;Node15</title>
<path fill="none" stroke="midnightblue" d="M536.647,-168.324C524.284,-159.979 505.37,-147.212 490.763,-137.352"/>
<polygon fill="midnightblue" stroke="midnightblue" points="492.568,-134.348 482.321,-131.655 488.652,-140.15 492.568,-134.348"/>
</g>
<!-- Node12&#45;&gt;Node16 -->
<g id="edge23" class="edge"><title>Node12&#45;&gt;Node16</title>
<path fill="none" stroke="midnightblue" d="M592.205,-174.463C623.442,-170.263 664.412,-159.457 688.5,-132 699.488,-119.476 701.872,-100.25 701.877,-85.9533"/>
<polygon fill="midnightblue" stroke="midnightblue" points="705.368,-85.6261 701.491,-75.7661 698.373,-85.8917 705.368,-85.6261"/>
</g>
<!-- Node15&#45;&gt;Node7 -->
<g id="edge17" class="edge"><title>Node15&#45;&gt;Node7</title>
<path fill="none" stroke="midnightblue" d="M457.45,-112.324C446.037,-104.107 428.669,-91.6017 415.065,-81.8069"/>
<polygon fill="midnightblue" stroke="midnightblue" points="416.93,-78.8366 406.769,-75.8339 412.84,-84.5174 416.93,-78.8366"/>
</g>
<!-- Node15&#45;&gt;Node8 -->
<g id="edge19" class="edge"><title>Node15&#45;&gt;Node8</title>
<path fill="none" stroke="midnightblue" d="M443.672,-112.444C416.251,-103.359 372.723,-88.9388 342.068,-78.7831"/>
<polygon fill="midnightblue" stroke="midnightblue" points="342.8,-75.3389 332.207,-75.5164 340.599,-81.9837 342.8,-75.3389"/>
</g>
<!-- Node15&#45;&gt;Node11 -->
<g id="edge20" class="edge"><title>Node15&#45;&gt;Node11</title>
<path fill="none" stroke="midnightblue" d="M467.216,-112.46C464.233,-99.4946 460.389,-74.4069 469.5,-56 476.103,-42.6595 488.765,-32.1941 500.671,-24.7262"/>
<polygon fill="midnightblue" stroke="midnightblue" points="502.618,-27.6435 509.516,-19.6018 499.109,-21.5866 502.618,-27.6435"/>
</g>
<!-- Node15&#45;&gt;Node14 -->
<g id="edge18" class="edge"><title>Node15&#45;&gt;Node14</title>
<path fill="none" stroke="midnightblue" d="M478.252,-112.083C485.97,-104.22 497.405,-92.5688 506.717,-83.0813"/>
<polygon fill="midnightblue" stroke="midnightblue" points="509.404,-85.3396 513.911,-75.7511 504.408,-80.4363 509.404,-85.3396"/>
</g>
<!-- Node15&#45;&gt;Node16 -->
<g id="edge21" class="edge"><title>Node15&#45;&gt;Node16</title>
<path fill="none" stroke="midnightblue" d="M506.103,-112.444C546.231,-103.063 610.698,-87.9926 654.285,-77.8036"/>
<polygon fill="midnightblue" stroke="midnightblue" points="655.128,-81.2009 664.069,-75.5164 653.534,-74.3847 655.128,-81.2009"/>
</g>
</g>
</svg>
