<?xml version="1.0" encoding="UTF-8" standalone="no"?>
<!DOCTYPE svg PUBLIC "-//W3C//DTD SVG 1.1//EN"
 "http://www.w3.org/Graphics/SVG/1.1/DTD/svg11.dtd">
<!-- Generated by graphviz version 2.38.0 (20140413.2041)
 -->
<!-- Title: torcnetwork.cpp Pages: 1 -->
<svg width="1901pt" height="420pt"
 viewBox="0.00 0.00 1900.50 420.00" xmlns="http://www.w3.org/2000/svg" xmlns:xlink="http://www.w3.org/1999/xlink">
<g id="graph0" class="graph" transform="scale(1 1) rotate(0) translate(4 416)">
<title>torcnetwork.cpp</title>
<polygon fill="white" stroke="none" points="-4,4 -4,-416 1896.5,-416 1896.5,4 -4,4"/>
<!-- Node1 -->
<g id="node1" class="node"><title>Node1</title>
<polygon fill="#bfbfbf" stroke="black" points="1116,-392.5 1116,-411.5 1209,-411.5 1209,-392.5 1116,-392.5"/>
<text text-anchor="middle" x="1162.5" y="-399.5" font-family="Helvetica,sans-Serif" font-size="10.00">torcnetwork.cpp</text>
</g>
<!-- Node2 -->
<g id="node2" class="node"><title>Node2</title>
<g id="a_node2"><a xlink:href="../../dd/dbd/torclocalcontext_8h.html" target="_top" xlink:title="torclocalcontext.h">
<polygon fill="white" stroke="black" points="623.5,-336.5 623.5,-355.5 725.5,-355.5 725.5,-336.5 623.5,-336.5"/>
<text text-anchor="middle" x="674.5" y="-343.5" font-family="Helvetica,sans-Serif" font-size="10.00">torclocalcontext.h</text>
</a>
</g>
</g>
<!-- Node1&#45;&gt;Node2 -->
<g id="edge1" class="edge"><title>Node1&#45;&gt;Node2</title>
<path fill="none" stroke="midnightblue" d="M1115.71,-395.822C1027,-386.006 834.431,-364.697 735.646,-353.766"/>
<polygon fill="midnightblue" stroke="midnightblue" points="735.843,-350.267 725.519,-352.646 735.073,-357.224 735.843,-350.267"/>
</g>
<!-- Node18 -->
<g id="node18" class="node"><title>Node18</title>
<g id="a_node18"><a xlink:href="../../df/dd7/torchttprequest_8h.html" target="_top" xlink:title="torchttprequest.h">
<polygon fill="white" stroke="black" points="1038,-112.5 1038,-131.5 1139,-131.5 1139,-112.5 1038,-112.5"/>
<text text-anchor="middle" x="1088.5" y="-119.5" font-family="Helvetica,sans-Serif" font-size="10.00">torchttprequest.h</text>
</a>
</g>
</g>
<!-- Node1&#45;&gt;Node18 -->
<g id="edge55" class="edge"><title>Node1&#45;&gt;Node18</title>
<path fill="none" stroke="midnightblue" d="M1174.35,-392.319C1216.69,-360.299 1354.59,-246.61 1291.5,-168 1273.88,-146.048 1202.4,-134.142 1149.21,-128.189"/>
<polygon fill="midnightblue" stroke="midnightblue" points="1149.49,-124.699 1139.17,-127.111 1148.74,-131.659 1149.49,-124.699"/>
</g>
<!-- Node31 -->
<g id="node31" class="node"><title>Node31</title>
<g id="a_node31"><a xlink:href="../../dd/dd5/torcadminthread_8h.html" target="_top" xlink:title="torcadminthread.h">
<polygon fill="white" stroke="black" points="835.5,-280.5 835.5,-299.5 941.5,-299.5 941.5,-280.5 835.5,-280.5"/>
<text text-anchor="middle" x="888.5" y="-287.5" font-family="Helvetica,sans-Serif" font-size="10.00">torcadminthread.h</text>
</a>
</g>
</g>
<!-- Node1&#45;&gt;Node31 -->
<g id="edge54" class="edge"><title>Node1&#45;&gt;Node31</title>
<path fill="none" stroke="midnightblue" d="M1141,-392.368C1092.68,-372.97 975.357,-325.87 919.306,-303.367"/>
<polygon fill="midnightblue" stroke="midnightblue" points="920.485,-300.069 909.9,-299.591 917.877,-306.565 920.485,-300.069"/>
</g>
<!-- Node37 -->
<g id="node37" class="node"><title>Node37</title>
<g id="a_node37"><a xlink:href="../../d4/df9/torclogging_8h.html" target="_top" xlink:title="torclogging.h">
<polygon fill="white" stroke="black" points="135,-224.5 135,-243.5 214,-243.5 214,-224.5 135,-224.5"/>
<text text-anchor="middle" x="174.5" y="-231.5" font-family="Helvetica,sans-Serif" font-size="10.00">torclogging.h</text>
</a>
</g>
</g>
<!-- Node1&#45;&gt;Node37 -->
<g id="edge53" class="edge"><title>Node1&#45;&gt;Node37</title>
<path fill="none" stroke="midnightblue" d="M1115.86,-398.906C933.621,-390.349 275.984,-355.814 202.5,-300 187.997,-288.985 180.902,-268.935 177.498,-254.006"/>
<polygon fill="midnightblue" stroke="midnightblue" points="180.867,-252.987 175.553,-243.821 173.991,-254.3 180.867,-252.987"/>
</g>
<!-- Node41 -->
<g id="node41" class="node"><title>Node41</title>
<g id="a_node41"><a xlink:href="../../da/da5/torcnetwork_8h.html" target="_top" xlink:title="torcnetwork.h">
<polygon fill="white" stroke="black" points="1372.5,-336.5 1372.5,-355.5 1454.5,-355.5 1454.5,-336.5 1372.5,-336.5"/>
<text text-anchor="middle" x="1413.5" y="-343.5" font-family="Helvetica,sans-Serif" font-size="10.00">torcnetwork.h</text>
</a>
</g>
</g>
<!-- Node1&#45;&gt;Node41 -->
<g id="edge56" class="edge"><title>Node1&#45;&gt;Node41</title>
<path fill="none" stroke="midnightblue" d="M1202.27,-392.444C1246.06,-383.023 1316.51,-367.866 1363.88,-357.675"/>
<polygon fill="midnightblue" stroke="midnightblue" points="1364.87,-361.041 1373.91,-355.516 1363.4,-354.198 1364.87,-361.041"/>
</g>
<!-- Node47 -->
<g id="node47" class="node"><title>Node47</title>
<g id="a_node47"><a xlink:href="../../d1/d49/torccoreutils_8h.html" target="_top" xlink:title="torccoreutils.h">
<polygon fill="white" stroke="black" points="1712,-336.5 1712,-355.5 1797,-355.5 1797,-336.5 1712,-336.5"/>
<text text-anchor="middle" x="1754.5" y="-343.5" font-family="Helvetica,sans-Serif" font-size="10.00">torccoreutils.h</text>
</a>
</g>
</g>
<!-- Node1&#45;&gt;Node47 -->
<g id="edge66" class="edge"><title>Node1&#45;&gt;Node47</title>
<path fill="none" stroke="midnightblue" d="M1209.45,-396.718C1318.31,-386.787 1587.37,-362.245 1701.72,-351.814"/>
<polygon fill="midnightblue" stroke="midnightblue" points="1702.33,-355.274 1711.97,-350.88 1701.69,-348.303 1702.33,-355.274"/>
</g>
<!-- Node3 -->
<g id="node3" class="node"><title>Node3</title>
<polygon fill="white" stroke="#bfbfbf" points="505,-168.5 505,-187.5 560,-187.5 560,-168.5 505,-168.5"/>
<text text-anchor="middle" x="532.5" y="-175.5" font-family="Helvetica,sans-Serif" font-size="10.00">QObject</text>
</g>
<!-- Node2&#45;&gt;Node3 -->
<g id="edge2" class="edge"><title>Node2&#45;&gt;Node3</title>
<path fill="none" stroke="midnightblue" d="M690.317,-336.322C710.717,-324.001 741.855,-300.638 726.5,-280 693.262,-235.327 655.202,-270.993 606.5,-244 583.281,-231.131 561.009,-209.965 547.074,-195.299"/>
<polygon fill="midnightblue" stroke="midnightblue" points="549.599,-192.874 540.238,-187.913 544.462,-197.629 549.599,-192.874"/>
</g>
<!-- Node4 -->
<g id="node4" class="node"><title>Node4</title>
<polygon fill="white" stroke="#bfbfbf" points="970,-56.5 970,-75.5 1023,-75.5 1023,-56.5 970,-56.5"/>
<text text-anchor="middle" x="996.5" y="-63.5" font-family="Helvetica,sans-Serif" font-size="10.00">QString</text>
</g>
<!-- Node2&#45;&gt;Node4 -->
<g id="edge3" class="edge"><title>Node2&#45;&gt;Node4</title>
<path fill="none" stroke="midnightblue" d="M696.86,-336.359C712.536,-329.089 732.57,-317.116 743.5,-300 761.869,-271.235 744.767,-256.712 754.5,-224 762.326,-197.699 761.311,-187.615 780.5,-168 830.935,-116.447 912.76,-88.2852 959.893,-75.5533"/>
<polygon fill="midnightblue" stroke="midnightblue" points="960.891,-78.9102 969.682,-72.9968 959.122,-72.1374 960.891,-78.9102"/>
</g>
<!-- Node5 -->
<g id="node5" class="node"><title>Node5</title>
<polygon fill="white" stroke="#bfbfbf" points="615.5,-224.5 615.5,-243.5 707.5,-243.5 707.5,-224.5 615.5,-224.5"/>
<text text-anchor="middle" x="661.5" y="-231.5" font-family="Helvetica,sans-Serif" font-size="10.00">QReadWriteLock</text>
</g>
<!-- Node2&#45;&gt;Node5 -->
<g id="edge4" class="edge"><title>Node2&#45;&gt;Node5</title>
<path fill="none" stroke="midnightblue" d="M658.717,-336.467C646.297,-328.769 629.895,-316.179 622.5,-300 614.451,-282.39 628.535,-263.553 641.97,-250.715"/>
<polygon fill="midnightblue" stroke="midnightblue" points="644.484,-253.163 649.634,-243.904 639.834,-247.931 644.484,-253.163"/>
</g>
<!-- Node6 -->
<g id="node6" class="node"><title>Node6</title>
<polygon fill="white" stroke="#bfbfbf" points="578,-168.5 578,-187.5 631,-187.5 631,-168.5 578,-168.5"/>
<text text-anchor="middle" x="604.5" y="-175.5" font-family="Helvetica,sans-Serif" font-size="10.00">QMutex</text>
</g>
<!-- Node2&#45;&gt;Node6 -->
<g id="edge5" class="edge"><title>Node2&#45;&gt;Node6</title>
<path fill="none" stroke="midnightblue" d="M657.453,-336.349C644.12,-328.659 626.26,-316.141 616.5,-300 597.272,-268.199 598.814,-222.917 601.653,-197.733"/>
<polygon fill="midnightblue" stroke="midnightblue" points="605.139,-198.068 602.979,-187.696 598.199,-197.152 605.139,-198.068"/>
</g>
<!-- Node7 -->
<g id="node7" class="node"><title>Node7</title>
<g id="a_node7"><a xlink:href="../../db/db2/torclocaldefs_8h.html" target="_top" xlink:title="torclocaldefs.h">
<polygon fill="white" stroke="black" points="631.5,-280.5 631.5,-299.5 717.5,-299.5 717.5,-280.5 631.5,-280.5"/>
<text text-anchor="middle" x="674.5" y="-287.5" font-family="Helvetica,sans-Serif" font-size="10.00">torclocaldefs.h</text>
</a>
</g>
</g>
<!-- Node2&#45;&gt;Node7 -->
<g id="edge6" class="edge"><title>Node2&#45;&gt;Node7</title>
<path fill="none" stroke="midnightblue" d="M674.5,-336.083C674.5,-329.006 674.5,-318.861 674.5,-309.986"/>
<polygon fill="midnightblue" stroke="midnightblue" points="678,-309.751 674.5,-299.751 671,-309.751 678,-309.751"/>
</g>
<!-- Node8 -->
<g id="node8" class="node"><title>Node8</title>
<g id="a_node8"><a xlink:href="../../db/df5/torcsetting_8h.html" target="_top" xlink:title="torcsetting.h">
<polygon fill="white" stroke="black" points="982,-280.5 982,-299.5 1059,-299.5 1059,-280.5 982,-280.5"/>
<text text-anchor="middle" x="1020.5" y="-287.5" font-family="Helvetica,sans-Serif" font-size="10.00">torcsetting.h</text>
</a>
</g>
</g>
<!-- Node2&#45;&gt;Node8 -->
<g id="edge7" class="edge"><title>Node2&#45;&gt;Node8</title>
<path fill="none" stroke="midnightblue" d="M725.553,-337.032C791.842,-326.687 906.731,-308.756 971.829,-298.596"/>
<polygon fill="midnightblue" stroke="midnightblue" points="972.494,-302.035 981.835,-297.034 971.415,-295.118 972.494,-302.035"/>
</g>
<!-- Node26 -->
<g id="node26" class="node"><title>Node26</title>
<g id="a_node26"><a xlink:href="../../d6/d94/torcobservable_8h.html" target="_top" xlink:title="torcobservable.h">
<polygon fill="white" stroke="black" points="212,-280.5 212,-299.5 309,-299.5 309,-280.5 212,-280.5"/>
<text text-anchor="middle" x="260.5" y="-287.5" font-family="Helvetica,sans-Serif" font-size="10.00">torcobservable.h</text>
</a>
</g>
</g>
<!-- Node2&#45;&gt;Node26 -->
<g id="edge32" class="edge"><title>Node2&#45;&gt;Node26</title>
<path fill="none" stroke="midnightblue" d="M623.445,-339.005C556.221,-331.01 434.085,-316.134 319.241,-300.069"/>
<polygon fill="midnightblue" stroke="midnightblue" points="319.609,-296.587 309.219,-298.662 318.635,-303.519 319.609,-296.587"/>
</g>
<!-- Node29 -->
<g id="node29" class="node"><title>Node29</title>
<g id="a_node29"><a xlink:href="../../d7/d70/torcsqlitedb_8h.html" target="_top" xlink:title="torcsqlitedb.h">
<polygon fill="white" stroke="black" points="455.5,-280.5 455.5,-299.5 537.5,-299.5 537.5,-280.5 455.5,-280.5"/>
<text text-anchor="middle" x="496.5" y="-287.5" font-family="Helvetica,sans-Serif" font-size="10.00">torcsqlitedb.h</text>
</a>
</g>
</g>
<!-- Node2&#45;&gt;Node29 -->
<g id="edge37" class="edge"><title>Node2&#45;&gt;Node29</title>
<path fill="none" stroke="midnightblue" d="M646.295,-336.444C616.09,-327.28 567.989,-312.688 534.471,-302.519"/>
<polygon fill="midnightblue" stroke="midnightblue" points="535.158,-299.07 524.573,-299.516 533.126,-305.769 535.158,-299.07"/>
</g>
<!-- Node2&#45;&gt;Node31 -->
<g id="edge41" class="edge"><title>Node2&#45;&gt;Node31</title>
<path fill="none" stroke="midnightblue" d="M708.409,-336.444C745.349,-327.122 804.554,-312.183 844.918,-301.997"/>
<polygon fill="midnightblue" stroke="midnightblue" points="845.91,-305.357 854.75,-299.516 844.197,-298.57 845.91,-305.357"/>
</g>
<!-- Node35 -->
<g id="node35" class="node"><title>Node35</title>
<g id="a_node35"><a xlink:href="../../db/d41/torccommandline_8h.html" target="_top" xlink:title="torccommandline.h">
<polygon fill="white" stroke="black" points="327.5,-280.5 327.5,-299.5 437.5,-299.5 437.5,-280.5 327.5,-280.5"/>
<text text-anchor="middle" x="382.5" y="-287.5" font-family="Helvetica,sans-Serif" font-size="10.00">torccommandline.h</text>
</a>
</g>
</g>
<!-- Node2&#45;&gt;Node35 -->
<g id="edge45" class="edge"><title>Node2&#45;&gt;Node35</title>
<path fill="none" stroke="midnightblue" d="M628.232,-336.444C576.759,-326.925 493.607,-311.547 438.501,-301.356"/>
<polygon fill="midnightblue" stroke="midnightblue" points="439.022,-297.893 428.552,-299.516 437.749,-304.777 439.022,-297.893"/>
</g>
<!-- Node8&#45;&gt;Node3 -->
<g id="edge10" class="edge"><title>Node8&#45;&gt;Node3</title>
<path fill="none" stroke="midnightblue" d="M993.313,-280.485C966.804,-271.973 925.483,-258.147 890.5,-244 870.96,-236.098 867.746,-229.862 847.5,-224 730.571,-190.144 693.316,-210.082 570.506,-188.174"/>
<polygon fill="midnightblue" stroke="midnightblue" points="570.806,-184.67 560.337,-186.3 569.537,-191.554 570.806,-184.67"/>
</g>
<!-- Node8&#45;&gt;Node5 -->
<g id="edge9" class="edge"><title>Node8&#45;&gt;Node5</title>
<path fill="none" stroke="midnightblue" d="M981.74,-283.17C918.102,-273.598 791.219,-254.512 717.709,-243.455"/>
<polygon fill="midnightblue" stroke="midnightblue" points="718.113,-239.976 707.703,-241.95 717.072,-246.898 718.113,-239.976"/>
</g>
<!-- Node9 -->
<g id="node9" class="node"><title>Node9</title>
<polygon fill="white" stroke="#bfbfbf" points="1000,-224.5 1000,-243.5 1041,-243.5 1041,-224.5 1000,-224.5"/>
<text text-anchor="middle" x="1020.5" y="-231.5" font-family="Helvetica,sans-Serif" font-size="10.00">QSet</text>
</g>
<!-- Node8&#45;&gt;Node9 -->
<g id="edge8" class="edge"><title>Node8&#45;&gt;Node9</title>
<path fill="none" stroke="midnightblue" d="M1020.5,-280.083C1020.5,-273.006 1020.5,-262.861 1020.5,-253.986"/>
<polygon fill="midnightblue" stroke="midnightblue" points="1024,-253.751 1020.5,-243.751 1017,-253.751 1024,-253.751"/>
</g>
<!-- Node10 -->
<g id="node10" class="node"><title>Node10</title>
<polygon fill="white" stroke="#bfbfbf" points="365.5,-168.5 365.5,-187.5 423.5,-187.5 423.5,-168.5 365.5,-168.5"/>
<text text-anchor="middle" x="394.5" y="-175.5" font-family="Helvetica,sans-Serif" font-size="10.00">QVariant</text>
</g>
<!-- Node8&#45;&gt;Node10 -->
<g id="edge11" class="edge"><title>Node8&#45;&gt;Node10</title>
<path fill="none" stroke="midnightblue" d="M981.712,-282.118C945.982,-275.036 891.934,-262.426 847.5,-244 831.306,-237.284 830.145,-229.504 813.5,-224 795.596,-218.08 534.689,-192.501 433.862,-182.774"/>
<polygon fill="midnightblue" stroke="midnightblue" points="434.067,-179.277 423.777,-181.802 433.396,-186.245 434.067,-179.277"/>
</g>
<!-- Node11 -->
<g id="node11" class="node"><title>Node11</title>
<polygon fill="white" stroke="#bfbfbf" points="1059,-224.5 1059,-243.5 1128,-243.5 1128,-224.5 1059,-224.5"/>
<text text-anchor="middle" x="1093.5" y="-231.5" font-family="Helvetica,sans-Serif" font-size="10.00">QStringList</text>
</g>
<!-- Node8&#45;&gt;Node11 -->
<g id="edge12" class="edge"><title>Node8&#45;&gt;Node11</title>
<path fill="none" stroke="midnightblue" d="M1032.23,-280.324C1043.34,-272.107 1060.24,-259.602 1073.48,-249.807"/>
<polygon fill="midnightblue" stroke="midnightblue" points="1075.6,-252.595 1081.56,-243.834 1071.44,-246.967 1075.6,-252.595"/>
</g>
<!-- Node12 -->
<g id="node12" class="node"><title>Node12</title>
<g id="a_node12"><a xlink:href="../../d3/dee/torchttpservice_8h.html" target="_top" xlink:title="torchttpservice.h">
<polygon fill="white" stroke="black" points="1184.5,-224.5 1184.5,-243.5 1282.5,-243.5 1282.5,-224.5 1184.5,-224.5"/>
<text text-anchor="middle" x="1233.5" y="-231.5" font-family="Helvetica,sans-Serif" font-size="10.00">torchttpservice.h</text>
</a>
</g>
</g>
<!-- Node8&#45;&gt;Node12 -->
<g id="edge13" class="edge"><title>Node8&#45;&gt;Node12</title>
<path fill="none" stroke="midnightblue" d="M1054.25,-280.444C1091.02,-271.122 1149.95,-256.183 1190.12,-245.997"/>
<polygon fill="midnightblue" stroke="midnightblue" points="1191.07,-249.367 1199.91,-243.516 1189.35,-242.581 1191.07,-249.367"/>
</g>
<!-- Node24 -->
<g id="node24" class="node"><title>Node24</title>
<g id="a_node24"><a xlink:href="../../d8/dfe/torcreferencecounted_8h.html" target="_top" xlink:title="torcreferencecounted.h">
<polygon fill="white" stroke="black" points="1339,-224.5 1339,-243.5 1468,-243.5 1468,-224.5 1339,-224.5"/>
<text text-anchor="middle" x="1403.5" y="-231.5" font-family="Helvetica,sans-Serif" font-size="10.00">torcreferencecounted.h</text>
</a>
</g>
</g>
<!-- Node8&#45;&gt;Node24 -->
<g id="edge30" class="edge"><title>Node8&#45;&gt;Node24</title>
<path fill="none" stroke="midnightblue" d="M1059.33,-283.525C1123.44,-274.487 1252.31,-256.317 1332.88,-244.956"/>
<polygon fill="midnightblue" stroke="midnightblue" points="1333.54,-248.399 1342.95,-243.537 1332.56,-241.468 1333.54,-248.399"/>
</g>
<!-- Node12&#45;&gt;Node6 -->
<g id="edge15" class="edge"><title>Node12&#45;&gt;Node6</title>
<path fill="none" stroke="midnightblue" d="M1184.36,-225.677C1179.68,-225.071 1175,-224.5 1170.5,-224 971.182,-201.862 731.201,-186.49 641.068,-181.112"/>
<polygon fill="midnightblue" stroke="midnightblue" points="641.268,-177.618 631.078,-180.52 640.854,-184.605 641.268,-177.618"/>
</g>
<!-- Node13 -->
<g id="node13" class="node"><title>Node13</title>
<polygon fill="white" stroke="#bfbfbf" points="853.5,-56.5 853.5,-75.5 897.5,-75.5 897.5,-56.5 853.5,-56.5"/>
<text text-anchor="middle" x="875.5" y="-63.5" font-family="Helvetica,sans-Serif" font-size="10.00">QMap</text>
</g>
<!-- Node12&#45;&gt;Node13 -->
<g id="edge14" class="edge"><title>Node12&#45;&gt;Node13</title>
<path fill="none" stroke="midnightblue" d="M1184.47,-225.965C1096.71,-213.368 921.831,-188.242 921.5,-188 888.666,-163.94 879.267,-113.355 876.577,-85.8233"/>
<polygon fill="midnightblue" stroke="midnightblue" points="880.046,-85.2808 875.786,-75.5798 873.066,-85.8195 880.046,-85.2808"/>
</g>
<!-- Node14 -->
<g id="node14" class="node"><title>Node14</title>
<polygon fill="white" stroke="#bfbfbf" points="1087,-168.5 1087,-187.5 1166,-187.5 1166,-168.5 1087,-168.5"/>
<text text-anchor="middle" x="1126.5" y="-175.5" font-family="Helvetica,sans-Serif" font-size="10.00">QMetaObject</text>
</g>
<!-- Node12&#45;&gt;Node14 -->
<g id="edge16" class="edge"><title>Node12&#45;&gt;Node14</title>
<path fill="none" stroke="midnightblue" d="M1216.31,-224.324C1199.15,-215.664 1172.55,-202.242 1152.75,-192.249"/>
<polygon fill="midnightblue" stroke="midnightblue" points="1154.15,-189.035 1143.65,-187.655 1151,-195.285 1154.15,-189.035"/>
</g>
<!-- Node15 -->
<g id="node15" class="node"><title>Node15</title>
<polygon fill="white" stroke="#bfbfbf" points="1184,-168.5 1184,-187.5 1283,-187.5 1283,-168.5 1184,-168.5"/>
<text text-anchor="middle" x="1233.5" y="-175.5" font-family="Helvetica,sans-Serif" font-size="10.00">QCoreApplication</text>
</g>
<!-- Node12&#45;&gt;Node15 -->
<g id="edge17" class="edge"><title>Node12&#45;&gt;Node15</title>
<path fill="none" stroke="midnightblue" d="M1233.5,-224.083C1233.5,-217.006 1233.5,-206.861 1233.5,-197.986"/>
<polygon fill="midnightblue" stroke="midnightblue" points="1237,-197.751 1233.5,-187.751 1230,-197.751 1237,-197.751"/>
</g>
<!-- Node16 -->
<g id="node16" class="node"><title>Node16</title>
<g id="a_node16"><a xlink:href="../../d4/d11/torchttphandler_8h.html" target="_top" xlink:title="torchttphandler.h">
<polygon fill="white" stroke="black" points="931,-168.5 931,-187.5 1030,-187.5 1030,-168.5 931,-168.5"/>
<text text-anchor="middle" x="980.5" y="-175.5" font-family="Helvetica,sans-Serif" font-size="10.00">torchttphandler.h</text>
</a>
</g>
</g>
<!-- Node12&#45;&gt;Node16 -->
<g id="edge18" class="edge"><title>Node12&#45;&gt;Node16</title>
<path fill="none" stroke="midnightblue" d="M1193.41,-224.444C1149.18,-215.004 1077.96,-199.802 1030.22,-189.611"/>
<polygon fill="midnightblue" stroke="midnightblue" points="1030.91,-186.181 1020.4,-187.516 1029.45,-193.027 1030.91,-186.181"/>
</g>
<!-- Node12&#45;&gt;Node18 -->
<g id="edge29" class="edge"><title>Node12&#45;&gt;Node18</title>
<path fill="none" stroke="midnightblue" d="M1184.36,-225.376C1143.65,-217.94 1090.46,-205.232 1077.5,-188 1067.31,-174.458 1072.59,-154.838 1078.85,-140.7"/>
<polygon fill="midnightblue" stroke="midnightblue" points="1082.08,-142.055 1083.37,-131.539 1075.81,-138.954 1082.08,-142.055"/>
</g>
<!-- Node16&#45;&gt;Node4 -->
<g id="edge19" class="edge"><title>Node16&#45;&gt;Node4</title>
<path fill="none" stroke="midnightblue" d="M982.743,-168.435C985.022,-159.427 988.494,-144.809 990.5,-132 992.914,-116.586 994.467,-98.9521 995.387,-85.9439"/>
<polygon fill="midnightblue" stroke="midnightblue" points="998.885,-86.0803 996.038,-75.8752 991.9,-85.6285 998.885,-86.0803"/>
</g>
<!-- Node17 -->
<g id="node17" class="node"><title>Node17</title>
<polygon fill="white" stroke="#bfbfbf" points="903.5,-112.5 903.5,-131.5 981.5,-131.5 981.5,-112.5 903.5,-112.5"/>
<text text-anchor="middle" x="942.5" y="-119.5" font-family="Helvetica,sans-Serif" font-size="10.00">QVariantMap</text>
</g>
<!-- Node16&#45;&gt;Node17 -->
<g id="edge20" class="edge"><title>Node16&#45;&gt;Node17</title>
<path fill="none" stroke="midnightblue" d="M974.225,-168.083C968.858,-160.455 960.982,-149.264 954.421,-139.941"/>
<polygon fill="midnightblue" stroke="midnightblue" points="957.275,-137.915 948.658,-131.751 951.551,-141.943 957.275,-137.915"/>
</g>
<!-- Node16&#45;&gt;Node18 -->
<g id="edge21" class="edge"><title>Node16&#45;&gt;Node18</title>
<path fill="none" stroke="midnightblue" d="M997.852,-168.324C1015.17,-159.664 1042.02,-146.242 1062,-136.249"/>
<polygon fill="midnightblue" stroke="midnightblue" points="1063.81,-139.257 1071.19,-131.655 1060.68,-132.996 1063.81,-139.257"/>
</g>
<!-- Node18&#45;&gt;Node4 -->
<g id="edge24" class="edge"><title>Node18&#45;&gt;Node4</title>
<path fill="none" stroke="midnightblue" d="M1073.72,-112.324C1059.23,-103.822 1036.93,-90.7288 1020.01,-80.7975"/>
<polygon fill="midnightblue" stroke="midnightblue" points="1021.64,-77.6981 1011.24,-75.6545 1018.1,-83.735 1021.64,-77.6981"/>
</g>
<!-- Node18&#45;&gt;Node13 -->
<g id="edge22" class="edge"><title>Node18&#45;&gt;Node13</title>
<path fill="none" stroke="midnightblue" d="M1054.75,-112.444C1014.37,-102.206 947.259,-85.1924 907.616,-75.1421"/>
<polygon fill="midnightblue" stroke="midnightblue" points="908.238,-71.6892 897.685,-72.6243 906.518,-78.4746 908.238,-71.6892"/>
</g>
<!-- Node19 -->
<g id="node19" class="node"><title>Node19</title>
<polygon fill="white" stroke="#bfbfbf" points="1154,-56.5 1154,-75.5 1195,-75.5 1195,-56.5 1154,-56.5"/>
<text text-anchor="middle" x="1174.5" y="-63.5" font-family="Helvetica,sans-Serif" font-size="10.00">QPair</text>
</g>
<!-- Node18&#45;&gt;Node19 -->
<g id="edge23" class="edge"><title>Node18&#45;&gt;Node19</title>
<path fill="none" stroke="midnightblue" d="M1102.32,-112.324C1115.73,-103.9 1136.32,-90.9709 1152.09,-81.0741"/>
<polygon fill="midnightblue" stroke="midnightblue" points="1154.11,-83.9364 1160.72,-75.6545 1150.39,-78.0081 1154.11,-83.9364"/>
</g>
<!-- Node20 -->
<g id="node20" class="node"><title>Node20</title>
<polygon fill="white" stroke="#bfbfbf" points="1454,-56.5 1454,-75.5 1525,-75.5 1525,-56.5 1454,-56.5"/>
<text text-anchor="middle" x="1489.5" y="-63.5" font-family="Helvetica,sans-Serif" font-size="10.00">QDateTime</text>
</g>
<!-- Node18&#45;&gt;Node20 -->
<g id="edge25" class="edge"><title>Node18&#45;&gt;Node20</title>
<path fill="none" stroke="midnightblue" d="M1139.29,-114.161C1217.99,-103.563 1368.19,-83.336 1443.73,-73.1642"/>
<polygon fill="midnightblue" stroke="midnightblue" points="1444.43,-76.6011 1453.87,-71.7977 1443.49,-69.6637 1444.43,-76.6011"/>
</g>
<!-- Node21 -->
<g id="node21" class="node"><title>Node21</title>
<g id="a_node21"><a xlink:href="../../de/de6/torchttpreader_8h.html" target="_top" xlink:title="torchttpreader.h">
<polygon fill="white" stroke="black" points="1041,-56.5 1041,-75.5 1136,-75.5 1136,-56.5 1041,-56.5"/>
<text text-anchor="middle" x="1088.5" y="-63.5" font-family="Helvetica,sans-Serif" font-size="10.00">torchttpreader.h</text>
</a>
</g>
</g>
<!-- Node18&#45;&gt;Node21 -->
<g id="edge26" class="edge"><title>Node18&#45;&gt;Node21</title>
<path fill="none" stroke="midnightblue" d="M1088.5,-112.083C1088.5,-105.006 1088.5,-94.8611 1088.5,-85.9865"/>
<polygon fill="midnightblue" stroke="midnightblue" points="1092,-85.751 1088.5,-75.7511 1085,-85.7511 1092,-85.751"/>
</g>
<!-- Node22 -->
<g id="node22" class="node"><title>Node22</title>
<polygon fill="white" stroke="#bfbfbf" points="1008,-0.5 1008,-19.5 1079,-19.5 1079,-0.5 1008,-0.5"/>
<text text-anchor="middle" x="1043.5" y="-7.5" font-family="Helvetica,sans-Serif" font-size="10.00">QByteArray</text>
</g>
<!-- Node21&#45;&gt;Node22 -->
<g id="edge27" class="edge"><title>Node21&#45;&gt;Node22</title>
<path fill="none" stroke="midnightblue" d="M1081.07,-56.083C1074.65,-48.3768 1065.19,-37.0333 1057.38,-27.6531"/>
<polygon fill="midnightblue" stroke="midnightblue" points="1059.88,-25.1927 1050.79,-19.7511 1054.51,-29.674 1059.88,-25.1927"/>
</g>
<!-- Node23 -->
<g id="node23" class="node"><title>Node23</title>
<polygon fill="white" stroke="#bfbfbf" points="1097.5,-0.5 1097.5,-19.5 1169.5,-19.5 1169.5,-0.5 1097.5,-0.5"/>
<text text-anchor="middle" x="1133.5" y="-7.5" font-family="Helvetica,sans-Serif" font-size="10.00">QTcpSocket</text>
</g>
<!-- Node21&#45;&gt;Node23 -->
<g id="edge28" class="edge"><title>Node21&#45;&gt;Node23</title>
<path fill="none" stroke="midnightblue" d="M1095.93,-56.083C1102.35,-48.3768 1111.81,-37.0333 1119.62,-27.6531"/>
<polygon fill="midnightblue" stroke="midnightblue" points="1122.49,-29.674 1126.21,-19.7511 1117.12,-25.1927 1122.49,-29.674"/>
</g>
<!-- Node25 -->
<g id="node25" class="node"><title>Node25</title>
<polygon fill="white" stroke="#bfbfbf" points="1414.5,-168.5 1414.5,-187.5 1484.5,-187.5 1484.5,-168.5 1414.5,-168.5"/>
<text text-anchor="middle" x="1449.5" y="-175.5" font-family="Helvetica,sans-Serif" font-size="10.00">QAtomicInt</text>
</g>
<!-- Node24&#45;&gt;Node25 -->
<g id="edge31" class="edge"><title>Node24&#45;&gt;Node25</title>
<path fill="none" stroke="midnightblue" d="M1411.1,-224.083C1417.73,-216.298 1427.52,-204.801 1435.56,-195.367"/>
<polygon fill="midnightblue" stroke="midnightblue" points="1438.23,-197.633 1442.05,-187.751 1432.9,-193.094 1438.23,-197.633"/>
</g>
<!-- Node27 -->
<g id="node27" class="node"><title>Node27</title>
<g id="a_node27"><a xlink:href="../../d3/d66/torcevent_8h.html" target="_top" xlink:title="torcevent.h">
<polygon fill="white" stroke="black" points="232,-224.5 232,-243.5 303,-243.5 303,-224.5 232,-224.5"/>
<text text-anchor="middle" x="267.5" y="-231.5" font-family="Helvetica,sans-Serif" font-size="10.00">torcevent.h</text>
</a>
</g>
</g>
<!-- Node26&#45;&gt;Node27 -->
<g id="edge33" class="edge"><title>Node26&#45;&gt;Node27</title>
<path fill="none" stroke="midnightblue" d="M261.656,-280.083C262.584,-272.927 263.918,-262.635 265.077,-253.691"/>
<polygon fill="midnightblue" stroke="midnightblue" points="268.551,-254.118 266.366,-243.751 261.609,-253.218 268.551,-254.118"/>
</g>
<!-- Node27&#45;&gt;Node10 -->
<g id="edge35" class="edge"><title>Node27&#45;&gt;Node10</title>
<path fill="none" stroke="midnightblue" d="M287.624,-224.444C308.524,-215.557 341.435,-201.563 365.216,-191.451"/>
<polygon fill="midnightblue" stroke="midnightblue" points="366.638,-194.65 374.471,-187.516 363.898,-188.208 366.638,-194.65"/>
</g>
<!-- Node27&#45;&gt;Node13 -->
<g id="edge34" class="edge"><title>Node27&#45;&gt;Node13</title>
<path fill="none" stroke="midnightblue" d="M267.324,-224.342C267.543,-210.271 270.177,-182.552 286.5,-168 370.158,-93.4158 732.14,-72.7845 843.065,-68.162"/>
<polygon fill="midnightblue" stroke="midnightblue" points="843.44,-71.6499 853.292,-67.7521 843.16,-64.6555 843.44,-71.6499"/>
</g>
<!-- Node28 -->
<g id="node28" class="node"><title>Node28</title>
<polygon fill="white" stroke="#bfbfbf" points="296,-168.5 296,-187.5 347,-187.5 347,-168.5 296,-168.5"/>
<text text-anchor="middle" x="321.5" y="-175.5" font-family="Helvetica,sans-Serif" font-size="10.00">QEvent</text>
</g>
<!-- Node27&#45;&gt;Node28 -->
<g id="edge36" class="edge"><title>Node27&#45;&gt;Node28</title>
<path fill="none" stroke="midnightblue" d="M276.417,-224.083C284.28,-216.22 295.931,-204.569 305.419,-195.081"/>
<polygon fill="midnightblue" stroke="midnightblue" points="308.153,-197.297 312.749,-187.751 303.203,-192.347 308.153,-197.297"/>
</g>
<!-- Node30 -->
<g id="node30" class="node"><title>Node30</title>
<g id="a_node30"><a xlink:href="../../d4/da3/torcdb_8h.html" target="_top" xlink:title="torcdb.h">
<polygon fill="white" stroke="black" points="465.5,-224.5 465.5,-243.5 521.5,-243.5 521.5,-224.5 465.5,-224.5"/>
<text text-anchor="middle" x="493.5" y="-231.5" font-family="Helvetica,sans-Serif" font-size="10.00">torcdb.h</text>
</a>
</g>
</g>
<!-- Node29&#45;&gt;Node30 -->
<g id="edge38" class="edge"><title>Node29&#45;&gt;Node30</title>
<path fill="none" stroke="midnightblue" d="M496.005,-280.083C495.611,-273.006 495.048,-262.861 494.555,-253.986"/>
<polygon fill="midnightblue" stroke="midnightblue" points="498.036,-253.542 493.986,-243.751 491.046,-253.93 498.036,-253.542"/>
</g>
<!-- Node30&#45;&gt;Node3 -->
<g id="edge39" class="edge"><title>Node30&#45;&gt;Node3</title>
<path fill="none" stroke="midnightblue" d="M499.94,-224.083C505.449,-216.455 513.531,-205.264 520.265,-195.941"/>
<polygon fill="midnightblue" stroke="midnightblue" points="523.162,-197.907 526.18,-187.751 517.487,-193.809 523.162,-197.907"/>
</g>
<!-- Node30&#45;&gt;Node6 -->
<g id="edge40" class="edge"><title>Node30&#45;&gt;Node6</title>
<path fill="none" stroke="midnightblue" d="M511.334,-224.324C529.216,-215.625 556.975,-202.12 577.546,-192.113"/>
<polygon fill="midnightblue" stroke="midnightblue" points="579.249,-195.177 586.71,-187.655 576.187,-188.882 579.249,-195.177"/>
</g>
<!-- Node32 -->
<g id="node32" class="node"><title>Node32</title>
<polygon fill="white" stroke="#bfbfbf" points="764,-224.5 764,-243.5 805,-243.5 805,-224.5 764,-224.5"/>
<text text-anchor="middle" x="784.5" y="-231.5" font-family="Helvetica,sans-Serif" font-size="10.00">QList</text>
</g>
<!-- Node31&#45;&gt;Node32 -->
<g id="edge42" class="edge"><title>Node31&#45;&gt;Node32</title>
<path fill="none" stroke="midnightblue" d="M871.791,-280.324C855.188,-271.703 829.498,-258.364 810.28,-248.386"/>
<polygon fill="midnightblue" stroke="midnightblue" points="811.656,-245.156 801.168,-243.655 808.43,-251.369 811.656,-245.156"/>
</g>
<!-- Node33 -->
<g id="node33" class="node"><title>Node33</title>
<g id="a_node33"><a xlink:href="../../dd/db0/torcqthread_8h.html" target="_top" xlink:title="torcqthread.h">
<polygon fill="white" stroke="black" points="899.5,-224.5 899.5,-243.5 981.5,-243.5 981.5,-224.5 899.5,-224.5"/>
<text text-anchor="middle" x="940.5" y="-231.5" font-family="Helvetica,sans-Serif" font-size="10.00">torcqthread.h</text>
</a>
</g>
</g>
<!-- Node31&#45;&gt;Node33 -->
<g id="edge43" class="edge"><title>Node31&#45;&gt;Node33</title>
<path fill="none" stroke="midnightblue" d="M897.087,-280.083C904.659,-272.22 915.878,-260.569 925.014,-251.081"/>
<polygon fill="midnightblue" stroke="midnightblue" points="927.658,-253.382 932.073,-243.751 922.615,-248.527 927.658,-253.382"/>
</g>
<!-- Node34 -->
<g id="node34" class="node"><title>Node34</title>
<polygon fill="white" stroke="#bfbfbf" points="790,-168.5 790,-187.5 847,-187.5 847,-168.5 790,-168.5"/>
<text text-anchor="middle" x="818.5" y="-175.5" font-family="Helvetica,sans-Serif" font-size="10.00">QThread</text>
</g>
<!-- Node33&#45;&gt;Node34 -->
<g id="edge44" class="edge"><title>Node33&#45;&gt;Node34</title>
<path fill="none" stroke="midnightblue" d="M921.169,-224.444C901.18,-215.596 869.757,-201.687 846.936,-191.586"/>
<polygon fill="midnightblue" stroke="midnightblue" points="848.302,-188.363 837.741,-187.516 845.468,-194.764 848.302,-188.363"/>
</g>
<!-- Node35&#45;&gt;Node3 -->
<g id="edge46" class="edge"><title>Node35&#45;&gt;Node3</title>
<path fill="none" stroke="midnightblue" d="M391.161,-280.428C404.535,-267.419 431.31,-242.276 456.5,-224 472.637,-212.292 491.986,-200.869 507.122,-192.462"/>
<polygon fill="midnightblue" stroke="midnightblue" points="508.842,-195.511 515.935,-187.641 505.482,-189.369 508.842,-195.511"/>
</g>
<!-- Node35&#45;&gt;Node10 -->
<g id="edge47" class="edge"><title>Node35&#45;&gt;Node10</title>
<path fill="none" stroke="midnightblue" d="M373.044,-280.348C360.821,-268.059 342.048,-244.733 350.5,-224 355.3,-212.225 364.829,-201.856 373.795,-194.049"/>
<polygon fill="midnightblue" stroke="midnightblue" points="376.15,-196.645 381.719,-187.631 371.745,-191.205 376.15,-196.645"/>
</g>
<!-- Node36 -->
<g id="node36" class="node"><title>Node36</title>
<polygon fill="white" stroke="#bfbfbf" points="360,-224.5 360,-243.5 409,-243.5 409,-224.5 360,-224.5"/>
<text text-anchor="middle" x="384.5" y="-231.5" font-family="Helvetica,sans-Serif" font-size="10.00">QHash</text>
</g>
<!-- Node35&#45;&gt;Node36 -->
<g id="edge48" class="edge"><title>Node35&#45;&gt;Node36</title>
<path fill="none" stroke="midnightblue" d="M382.83,-280.083C383.092,-273.006 383.468,-262.861 383.797,-253.986"/>
<polygon fill="midnightblue" stroke="midnightblue" points="387.303,-253.874 384.176,-243.751 380.308,-253.615 387.303,-253.874"/>
</g>
<!-- Node35&#45;&gt;Node37 -->
<g id="edge49" class="edge"><title>Node35&#45;&gt;Node37</title>
<path fill="none" stroke="midnightblue" d="M349.542,-280.444C313.713,-271.142 256.337,-256.246 217.109,-246.062"/>
<polygon fill="midnightblue" stroke="midnightblue" points="217.863,-242.642 207.304,-243.516 216.104,-249.417 217.863,-242.642"/>
</g>
<!-- Node38 -->
<g id="node38" class="node"><title>Node38</title>
<polygon fill="white" stroke="#bfbfbf" points="186,-168.5 186,-187.5 239,-187.5 239,-168.5 186,-168.5"/>
<text text-anchor="middle" x="212.5" y="-175.5" font-family="Helvetica,sans-Serif" font-size="10.00">stdint.h</text>
</g>
<!-- Node37&#45;&gt;Node38 -->
<g id="edge50" class="edge"><title>Node37&#45;&gt;Node38</title>
<path fill="none" stroke="midnightblue" d="M180.775,-224.083C186.142,-216.455 194.018,-205.264 200.579,-195.941"/>
<polygon fill="midnightblue" stroke="midnightblue" points="203.449,-197.943 206.342,-187.751 197.725,-193.915 203.449,-197.943"/>
</g>
<!-- Node39 -->
<g id="node39" class="node"><title>Node39</title>
<polygon fill="white" stroke="#bfbfbf" points="0,-168.5 0,-187.5 51,-187.5 51,-168.5 0,-168.5"/>
<text text-anchor="middle" x="25.5" y="-175.5" font-family="Helvetica,sans-Serif" font-size="10.00">errno.h</text>
</g>
<!-- Node37&#45;&gt;Node39 -->
<g id="edge51" class="edge"><title>Node37&#45;&gt;Node39</title>
<path fill="none" stroke="midnightblue" d="M150.891,-224.444C126.042,-215.438 86.7256,-201.189 58.7464,-191.049"/>
<polygon fill="midnightblue" stroke="midnightblue" points="59.5932,-187.633 48.999,-187.516 57.2081,-194.214 59.5932,-187.633"/>
</g>
<!-- Node40 -->
<g id="node40" class="node"><title>Node40</title>
<g id="a_node40"><a xlink:href="../../d1/d37/torcloggingdefs_8h.html" target="_top" xlink:title="torcloggingdefs.h">
<polygon fill="white" stroke="black" points="69,-168.5 69,-187.5 168,-187.5 168,-168.5 69,-168.5"/>
<text text-anchor="middle" x="118.5" y="-175.5" font-family="Helvetica,sans-Serif" font-size="10.00">torcloggingdefs.h</text>
</a>
</g>
</g>
<!-- Node37&#45;&gt;Node40 -->
<g id="edge52" class="edge"><title>Node37&#45;&gt;Node40</title>
<path fill="none" stroke="midnightblue" d="M165.503,-224.324C157.306,-216.42 144.994,-204.548 135.028,-194.938"/>
<polygon fill="midnightblue" stroke="midnightblue" points="137.289,-192.256 127.661,-187.834 132.43,-197.295 137.289,-192.256"/>
</g>
<!-- Node41&#45;&gt;Node3 -->
<g id="edge57" class="edge"><title>Node41&#45;&gt;Node3</title>
<path fill="none" stroke="midnightblue" d="M1391.94,-336.461C1349.89,-319.675 1254.17,-280.806 1175.5,-244 1157.86,-235.745 1155.28,-229.169 1136.5,-224 895.832,-157.763 820.437,-225.014 570.421,-188.021"/>
<polygon fill="midnightblue" stroke="midnightblue" points="570.719,-184.526 560.306,-186.482 569.666,-191.446 570.719,-184.526"/>
</g>
<!-- Node41&#45;&gt;Node8 -->
<g id="edge60" class="edge"><title>Node41&#45;&gt;Node8</title>
<path fill="none" stroke="midnightblue" d="M1372.18,-339.323C1299.1,-329.281 1147.38,-308.434 1069.29,-297.703"/>
<polygon fill="midnightblue" stroke="midnightblue" points="1069.61,-294.215 1059.22,-296.321 1068.66,-301.15 1069.61,-294.215"/>
</g>
<!-- Node41&#45;&gt;Node25 -->
<g id="edge59" class="edge"><title>Node41&#45;&gt;Node25</title>
<path fill="none" stroke="midnightblue" d="M1408.28,-336.277C1401.13,-323.073 1390.38,-297.677 1401.5,-280 1421.19,-248.705 1456.81,-275.295 1476.5,-244 1486.11,-228.729 1475.65,-209.45 1465.08,-195.867"/>
<polygon fill="midnightblue" stroke="midnightblue" points="1467.45,-193.248 1458.32,-187.863 1462.1,-197.762 1467.45,-193.248"/>
</g>
<!-- Node42 -->
<g id="node42" class="node"><title>Node42</title>
<polygon fill="white" stroke="#bfbfbf" points="1411,-280.5 1411,-299.5 1478,-299.5 1478,-280.5 1411,-280.5"/>
<text text-anchor="middle" x="1444.5" y="-287.5" font-family="Helvetica,sans-Serif" font-size="10.00">QtNetwork</text>
</g>
<!-- Node41&#45;&gt;Node42 -->
<g id="edge58" class="edge"><title>Node41&#45;&gt;Node42</title>
<path fill="none" stroke="midnightblue" d="M1418.62,-336.083C1422.91,-328.613 1429.16,-317.724 1434.44,-308.52"/>
<polygon fill="midnightblue" stroke="midnightblue" points="1437.53,-310.166 1439.48,-299.751 1431.46,-306.681 1437.53,-310.166"/>
</g>
<!-- Node43 -->
<g id="node43" class="node"><title>Node43</title>
<g id="a_node43"><a xlink:href="../../d3/dd0/torctimer_8h.html" target="_top" xlink:title="torctimer.h">
<polygon fill="white" stroke="black" points="1496,-280.5 1496,-299.5 1565,-299.5 1565,-280.5 1496,-280.5"/>
<text text-anchor="middle" x="1530.5" y="-287.5" font-family="Helvetica,sans-Serif" font-size="10.00">torctimer.h</text>
</a>
</g>
</g>
<!-- Node41&#45;&gt;Node43 -->
<g id="edge61" class="edge"><title>Node41&#45;&gt;Node43</title>
<path fill="none" stroke="midnightblue" d="M1432.04,-336.444C1451.12,-327.636 1481.07,-313.812 1502.94,-303.722"/>
<polygon fill="midnightblue" stroke="midnightblue" points="1504.43,-306.885 1512.05,-299.516 1501.5,-300.529 1504.43,-306.885"/>
</g>
<!-- Node45 -->
<g id="node45" class="node"><title>Node45</title>
<g id="a_node45"><a xlink:href="../../db/d18/torcnetworkrequest_8h.html" target="_top" xlink:title="torcnetworkrequest.h">
<polygon fill="white" stroke="black" points="1583,-280.5 1583,-299.5 1702,-299.5 1702,-280.5 1583,-280.5"/>
<text text-anchor="middle" x="1642.5" y="-287.5" font-family="Helvetica,sans-Serif" font-size="10.00">torcnetworkrequest.h</text>
</a>
</g>
</g>
<!-- Node41&#45;&gt;Node45 -->
<g id="edge63" class="edge"><title>Node41&#45;&gt;Node45</title>
<path fill="none" stroke="midnightblue" d="M1444.7,-336.444C1482.5,-327.043 1546.45,-311.929 1591.44,-301.739"/>
<polygon fill="midnightblue" stroke="midnightblue" points="1592.32,-305.13 1601.3,-299.516 1590.78,-298.301 1592.32,-305.13"/>
</g>
<!-- Node44 -->
<g id="node44" class="node"><title>Node44</title>
<polygon fill="white" stroke="#bfbfbf" points="1525,-224.5 1525,-243.5 1572,-243.5 1572,-224.5 1525,-224.5"/>
<text text-anchor="middle" x="1548.5" y="-231.5" font-family="Helvetica,sans-Serif" font-size="10.00">QTime</text>
</g>
<!-- Node43&#45;&gt;Node44 -->
<g id="edge62" class="edge"><title>Node43&#45;&gt;Node44</title>
<path fill="none" stroke="midnightblue" d="M1533.47,-280.083C1535.88,-272.849 1539.36,-262.409 1542.37,-253.397"/>
<polygon fill="midnightblue" stroke="midnightblue" points="1545.74,-254.345 1545.58,-243.751 1539.1,-252.131 1545.74,-254.345"/>
</g>
<!-- Node45&#45;&gt;Node41 -->
<g id="edge65" class="edge"><title>Node45&#45;&gt;Node41</title>
<path fill="none" stroke="midnightblue" d="M1611.38,-299.536C1573.57,-308.941 1509.5,-324.082 1464.48,-334.279"/>
<polygon fill="midnightblue" stroke="midnightblue" points="1463.59,-330.89 1454.61,-336.503 1465.13,-337.719 1463.59,-330.89"/>
</g>
<!-- Node46 -->
<g id="node46" class="node"><title>Node46</title>
<polygon fill="white" stroke="#bfbfbf" points="1608,-224.5 1608,-243.5 1677,-243.5 1677,-224.5 1608,-224.5"/>
<text text-anchor="middle" x="1642.5" y="-231.5" font-family="Helvetica,sans-Serif" font-size="10.00">QMetaType</text>
</g>
<!-- Node45&#45;&gt;Node46 -->
<g id="edge64" class="edge"><title>Node45&#45;&gt;Node46</title>
<path fill="none" stroke="midnightblue" d="M1642.5,-280.083C1642.5,-273.006 1642.5,-262.861 1642.5,-253.986"/>
<polygon fill="midnightblue" stroke="midnightblue" points="1646,-253.751 1642.5,-243.751 1639,-253.751 1646,-253.751"/>
</g>
<!-- Node47&#45;&gt;Node20 -->
<g id="edge69" class="edge"><title>Node47&#45;&gt;Node20</title>
<path fill="none" stroke="midnightblue" d="M1751.26,-336.301C1744.71,-317.889 1730.5,-273.507 1730.5,-235 1730.5,-235 1730.5,-235 1730.5,-177 1730.5,-92.1312 1605.28,-72.4586 1535.37,-68.0891"/>
<polygon fill="midnightblue" stroke="midnightblue" points="1535.24,-64.5769 1525.06,-67.5304 1534.86,-71.5666 1535.24,-64.5769"/>
</g>
<!-- Node48 -->
<g id="node48" class="node"><title>Node48</title>
<polygon fill="white" stroke="#bfbfbf" points="1759,-280.5 1759,-299.5 1798,-299.5 1798,-280.5 1759,-280.5"/>
<text text-anchor="middle" x="1778.5" y="-287.5" font-family="Helvetica,sans-Serif" font-size="10.00">QFile</text>
</g>
<!-- Node47&#45;&gt;Node48 -->
<g id="edge67" class="edge"><title>Node47&#45;&gt;Node48</title>
<path fill="none" stroke="midnightblue" d="M1758.46,-336.083C1761.71,-328.77 1766.42,-318.181 1770.45,-309.103"/>
<polygon fill="midnightblue" stroke="midnightblue" points="1773.75,-310.311 1774.61,-299.751 1767.35,-307.468 1773.75,-310.311"/>
</g>
<!-- Node49 -->
<g id="node49" class="node"><title>Node49</title>
<polygon fill="white" stroke="#bfbfbf" points="1816.5,-280.5 1816.5,-299.5 1892.5,-299.5 1892.5,-280.5 1816.5,-280.5"/>
<text text-anchor="middle" x="1854.5" y="-287.5" font-family="Helvetica,sans-Serif" font-size="10.00">QMetaEnum</text>
</g>
<!-- Node47&#45;&gt;Node49 -->
<g id="edge68" class="edge"><title>Node47&#45;&gt;Node49</title>
<path fill="none" stroke="midnightblue" d="M1770.57,-336.324C1786.46,-327.743 1811.01,-314.486 1829.46,-304.522"/>
<polygon fill="midnightblue" stroke="midnightblue" points="1831.34,-307.486 1838.47,-299.655 1828.01,-301.326 1831.34,-307.486"/>
</g>
</g>
</svg>
