<?xml version="1.0" encoding="UTF-8" standalone="no"?>
<!DOCTYPE svg PUBLIC "-//W3C//DTD SVG 1.1//EN"
 "http://www.w3.org/Graphics/SVG/1.1/DTD/svg11.dtd">
<!-- Generated by graphviz version 2.38.0 (20140413.2041)
 -->
<!-- Title: torccamera.h Pages: 1 -->
<svg width="401pt" height="140pt"
 viewBox="0.00 0.00 400.50 140.00" xmlns="http://www.w3.org/2000/svg" xmlns:xlink="http://www.w3.org/1999/xlink">
<g id="graph0" class="graph" transform="scale(1 1) rotate(0) translate(4 136)">
<title>torccamera.h</title>
<polygon fill="white" stroke="none" points="-4,4 -4,-136 396.5,-136 396.5,4 -4,4"/>
<!-- Node1 -->
<g id="node1" class="node"><title>Node1</title>
<polygon fill="#bfbfbf" stroke="black" points="70,-112.5 70,-131.5 151,-131.5 151,-112.5 70,-112.5"/>
<text text-anchor="middle" x="110.5" y="-119.5" font-family="Helvetica,sans-Serif" font-size="10.00">torccamera.h</text>
</g>
<!-- Node2 -->
<g id="node2" class="node"><title>Node2</title>
<polygon fill="white" stroke="#bfbfbf" points="0,-56.5 0,-75.5 55,-75.5 55,-56.5 0,-56.5"/>
<text text-anchor="middle" x="27.5" y="-63.5" font-family="Helvetica,sans-Serif" font-size="10.00">QObject</text>
</g>
<!-- Node1&#45;&gt;Node2 -->
<g id="edge1" class="edge"><title>Node1&#45;&gt;Node2</title>
<path fill="none" stroke="midnightblue" d="M97.1646,-112.324C84.338,-103.979 64.715,-91.2122 49.5602,-81.3524"/>
<polygon fill="midnightblue" stroke="midnightblue" points="51.0932,-78.1742 40.8023,-75.6545 47.2757,-84.0417 51.0932,-78.1742"/>
</g>
<!-- Node3 -->
<g id="node3" class="node"><title>Node3</title>
<g id="a_node3"><a xlink:href="../../d2/d60/torcmaths_8h.html" target="_top" xlink:title="torcmaths.h">
<polygon fill="white" stroke="black" points="73,-56.5 73,-75.5 148,-75.5 148,-56.5 73,-56.5"/>
<text text-anchor="middle" x="110.5" y="-63.5" font-family="Helvetica,sans-Serif" font-size="10.00">torcmaths.h</text>
</a>
</g>
</g>
<!-- Node1&#45;&gt;Node3 -->
<g id="edge2" class="edge"><title>Node1&#45;&gt;Node3</title>
<path fill="none" stroke="midnightblue" d="M110.5,-112.083C110.5,-105.006 110.5,-94.8611 110.5,-85.9865"/>
<polygon fill="midnightblue" stroke="midnightblue" points="114,-85.751 110.5,-75.7511 107,-85.7511 114,-85.751"/>
</g>
<!-- Node5 -->
<g id="node5" class="node"><title>Node5</title>
<g id="a_node5"><a xlink:href="../../de/df7/torcsegmentedringbuffer_8h.html" target="_top" xlink:title="torcsegmentedringbuffer.h">
<polygon fill="white" stroke="black" points="166.5,-56.5 166.5,-75.5 310.5,-75.5 310.5,-56.5 166.5,-56.5"/>
<text text-anchor="middle" x="238.5" y="-63.5" font-family="Helvetica,sans-Serif" font-size="10.00">torcsegmentedringbuffer.h</text>
</a>
</g>
</g>
<!-- Node1&#45;&gt;Node5 -->
<g id="edge4" class="edge"><title>Node1&#45;&gt;Node5</title>
<path fill="none" stroke="midnightblue" d="M130.782,-112.444C151.847,-103.557 185.017,-89.5632 208.986,-79.4514"/>
<polygon fill="midnightblue" stroke="midnightblue" points="210.46,-82.6283 218.313,-75.5164 207.739,-76.1787 210.46,-82.6283"/>
</g>
<!-- Node4 -->
<g id="node4" class="node"><title>Node4</title>
<polygon fill="white" stroke="#bfbfbf" points="82.5,-0.5 82.5,-19.5 138.5,-19.5 138.5,-0.5 82.5,-0.5"/>
<text text-anchor="middle" x="110.5" y="-7.5" font-family="Helvetica,sans-Serif" font-size="10.00">QQueue</text>
</g>
<!-- Node3&#45;&gt;Node4 -->
<g id="edge3" class="edge"><title>Node3&#45;&gt;Node4</title>
<path fill="none" stroke="midnightblue" d="M110.5,-56.083C110.5,-49.0059 110.5,-38.8611 110.5,-29.9865"/>
<polygon fill="midnightblue" stroke="midnightblue" points="114,-29.751 110.5,-19.7511 107,-29.7511 114,-29.751"/>
</g>
<!-- Node5&#45;&gt;Node4 -->
<g id="edge6" class="edge"><title>Node5&#45;&gt;Node4</title>
<path fill="none" stroke="midnightblue" d="M218.218,-56.4435C197.153,-47.5566 163.983,-33.5632 140.014,-23.4514"/>
<polygon fill="midnightblue" stroke="midnightblue" points="141.261,-20.1787 130.687,-19.5164 138.54,-26.6283 141.261,-20.1787"/>
</g>
<!-- Node6 -->
<g id="node6" class="node"><title>Node6</title>
<polygon fill="white" stroke="#bfbfbf" points="157,-0.5 157,-19.5 198,-19.5 198,-0.5 157,-0.5"/>
<text text-anchor="middle" x="177.5" y="-7.5" font-family="Helvetica,sans-Serif" font-size="10.00">QPair</text>
</g>
<!-- Node5&#45;&gt;Node6 -->
<g id="edge5" class="edge"><title>Node5&#45;&gt;Node6</title>
<path fill="none" stroke="midnightblue" d="M228.699,-56.324C219.682,-48.3414 206.094,-36.3128 195.182,-26.6529"/>
<polygon fill="midnightblue" stroke="midnightblue" points="197.287,-23.8416 187.479,-19.8339 192.647,-29.083 197.287,-23.8416"/>
</g>
<!-- Node7 -->
<g id="node7" class="node"><title>Node7</title>
<polygon fill="white" stroke="#bfbfbf" points="216.5,-0.5 216.5,-19.5 282.5,-19.5 282.5,-0.5 216.5,-0.5"/>
<text text-anchor="middle" x="249.5" y="-7.5" font-family="Helvetica,sans-Serif" font-size="10.00">QIODevice</text>
</g>
<!-- Node5&#45;&gt;Node7 -->
<g id="edge7" class="edge"><title>Node5&#45;&gt;Node7</title>
<path fill="none" stroke="midnightblue" d="M240.316,-56.083C241.774,-48.9272 243.871,-38.6353 245.693,-29.6911"/>
<polygon fill="midnightblue" stroke="midnightblue" points="249.151,-30.2485 247.717,-19.7511 242.292,-28.8512 249.151,-30.2485"/>
</g>
<!-- Node8 -->
<g id="node8" class="node"><title>Node8</title>
<polygon fill="white" stroke="#bfbfbf" points="300.5,-0.5 300.5,-19.5 392.5,-19.5 392.5,-0.5 300.5,-0.5"/>
<text text-anchor="middle" x="346.5" y="-7.5" font-family="Helvetica,sans-Serif" font-size="10.00">QReadWriteLock</text>
</g>
<!-- Node5&#45;&gt;Node8 -->
<g id="edge8" class="edge"><title>Node5&#45;&gt;Node8</title>
<path fill="none" stroke="midnightblue" d="M255.852,-56.324C273.172,-47.6641 300.015,-34.2424 320.002,-24.249"/>
<polygon fill="midnightblue" stroke="midnightblue" points="321.812,-27.2572 329.191,-19.6545 318.681,-20.9962 321.812,-27.2572"/>
</g>
</g>
</svg>
