<?xml version="1.0" encoding="UTF-8" standalone="no"?>
<!DOCTYPE svg PUBLIC "-//W3C//DTD SVG 1.1//EN"
 "http://www.w3.org/Graphics/SVG/1.1/DTD/svg11.dtd">
<!-- Generated by graphviz version 2.38.0 (20140413.2041)
 -->
<!-- Title: torccamera.h Pages: 1 -->
<svg width="1210pt" height="364pt"
 viewBox="0.00 0.00 1210.00 364.00" xmlns="http://www.w3.org/2000/svg" xmlns:xlink="http://www.w3.org/1999/xlink">
<g id="graph0" class="graph" transform="scale(1 1) rotate(0) translate(4 360)">
<title>torccamera.h</title>
<polygon fill="white" stroke="none" points="-4,4 -4,-360 1206,-360 1206,4 -4,4"/>
<!-- Node1 -->
<g id="node1" class="node"><title>Node1</title>
<polygon fill="#bfbfbf" stroke="black" points="634,-336.5 634,-355.5 715,-355.5 715,-336.5 634,-336.5"/>
<text text-anchor="middle" x="674.5" y="-343.5" font-family="Helvetica,sans-Serif" font-size="10.00">torccamera.h</text>
</g>
<!-- Node2 -->
<g id="node2" class="node"><title>Node2</title>
<polygon fill="white" stroke="#bfbfbf" points="0,-168.5 0,-187.5 55,-187.5 55,-168.5 0,-168.5"/>
<text text-anchor="middle" x="27.5" y="-175.5" font-family="Helvetica,sans-Serif" font-size="10.00">QObject</text>
</g>
<!-- Node1&#45;&gt;Node2 -->
<g id="edge1" class="edge"><title>Node1&#45;&gt;Node2</title>
<path fill="none" stroke="midnightblue" d="M633.75,-342.64C566.101,-338.126 426.656,-326.277 311.5,-300 235.589,-282.678 216.772,-275.353 145.5,-244 111.066,-228.852 73.3218,-207.081 50.0189,-192.988"/>
<polygon fill="midnightblue" stroke="midnightblue" points="51.6147,-189.862 41.2559,-187.638 47.9669,-195.836 51.6147,-189.862"/>
</g>
<!-- Node3 -->
<g id="node3" class="node"><title>Node3</title>
<g id="a_node3"><a xlink:href="../../dd/db0/torcqthread_8h.html" target="_top" xlink:title="torcqthread.h">
<polygon fill="white" stroke="black" points="1090.5,-280.5 1090.5,-299.5 1172.5,-299.5 1172.5,-280.5 1090.5,-280.5"/>
<text text-anchor="middle" x="1131.5" y="-287.5" font-family="Helvetica,sans-Serif" font-size="10.00">torcqthread.h</text>
</a>
</g>
</g>
<!-- Node1&#45;&gt;Node3 -->
<g id="edge2" class="edge"><title>Node1&#45;&gt;Node3</title>
<path fill="none" stroke="midnightblue" d="M715.056,-340.208C798.351,-330.366 988.553,-307.891 1080.23,-297.058"/>
<polygon fill="midnightblue" stroke="midnightblue" points="1080.86,-300.508 1090.38,-295.859 1080.04,-293.557 1080.86,-300.508"/>
</g>
<!-- Node5 -->
<g id="node5" class="node"><title>Node5</title>
<g id="a_node5"><a xlink:href="../../de/df7/torcsegmentedringbuffer_8h.html" target="_top" xlink:title="torcsegmentedringbuffer.h">
<polygon fill="white" stroke="black" points="886.5,-280.5 886.5,-299.5 1030.5,-299.5 1030.5,-280.5 886.5,-280.5"/>
<text text-anchor="middle" x="958.5" y="-287.5" font-family="Helvetica,sans-Serif" font-size="10.00">torcsegmentedringbuffer.h</text>
</a>
</g>
</g>
<!-- Node1&#45;&gt;Node5 -->
<g id="edge4" class="edge"><title>Node1&#45;&gt;Node5</title>
<path fill="none" stroke="midnightblue" d="M715.19,-337.263C764.716,-327.846 848.548,-311.906 903.716,-301.417"/>
<polygon fill="midnightblue" stroke="midnightblue" points="904.498,-304.831 913.668,-299.524 903.191,-297.954 904.498,-304.831"/>
</g>
<!-- Node10 -->
<g id="node10" class="node"><title>Node10</title>
<g id="a_node10"><a xlink:href="../../dc/d01/torcoutput_8h.html" target="_top" xlink:title="torcoutput.h">
<polygon fill="white" stroke="black" points="320.5,-280.5 320.5,-299.5 396.5,-299.5 396.5,-280.5 320.5,-280.5"/>
<text text-anchor="middle" x="358.5" y="-287.5" font-family="Helvetica,sans-Serif" font-size="10.00">torcoutput.h</text>
</a>
</g>
</g>
<!-- Node1&#45;&gt;Node10 -->
<g id="edge9" class="edge"><title>Node1&#45;&gt;Node10</title>
<path fill="none" stroke="midnightblue" d="M633.835,-338.051C575.57,-328.094 468.532,-309.803 406.472,-299.198"/>
<polygon fill="midnightblue" stroke="midnightblue" points="406.989,-295.735 396.542,-297.501 405.81,-302.635 406.989,-295.735"/>
</g>
<!-- Node4 -->
<g id="node4" class="node"><title>Node4</title>
<polygon fill="white" stroke="#bfbfbf" points="1145,-224.5 1145,-243.5 1202,-243.5 1202,-224.5 1145,-224.5"/>
<text text-anchor="middle" x="1173.5" y="-231.5" font-family="Helvetica,sans-Serif" font-size="10.00">QThread</text>
</g>
<!-- Node3&#45;&gt;Node4 -->
<g id="edge3" class="edge"><title>Node3&#45;&gt;Node4</title>
<path fill="none" stroke="midnightblue" d="M1138.44,-280.083C1144.43,-272.377 1153.25,-261.033 1160.55,-251.653"/>
<polygon fill="midnightblue" stroke="midnightblue" points="1163.32,-253.793 1166.69,-243.751 1157.79,-249.496 1163.32,-253.793"/>
</g>
<!-- Node6 -->
<g id="node6" class="node"><title>Node6</title>
<polygon fill="white" stroke="#bfbfbf" points="842,-56.5 842,-75.5 883,-75.5 883,-56.5 842,-56.5"/>
<text text-anchor="middle" x="862.5" y="-63.5" font-family="Helvetica,sans-Serif" font-size="10.00">QPair</text>
</g>
<!-- Node5&#45;&gt;Node6 -->
<g id="edge5" class="edge"><title>Node5&#45;&gt;Node6</title>
<path fill="none" stroke="midnightblue" d="M958.465,-280.398C958.093,-260.018 955.425,-207.54 938.5,-168 924.057,-134.259 896.047,-101.496 878.362,-82.8343"/>
<polygon fill="midnightblue" stroke="midnightblue" points="880.741,-80.2601 871.266,-75.5186 875.716,-85.1337 880.741,-80.2601"/>
</g>
<!-- Node7 -->
<g id="node7" class="node"><title>Node7</title>
<polygon fill="white" stroke="#bfbfbf" points="986.5,-224.5 986.5,-243.5 1042.5,-243.5 1042.5,-224.5 986.5,-224.5"/>
<text text-anchor="middle" x="1014.5" y="-231.5" font-family="Helvetica,sans-Serif" font-size="10.00">QQueue</text>
</g>
<!-- Node5&#45;&gt;Node7 -->
<g id="edge6" class="edge"><title>Node5&#45;&gt;Node7</title>
<path fill="none" stroke="midnightblue" d="M967.497,-280.324C975.694,-272.42 988.006,-260.548 997.972,-250.938"/>
<polygon fill="midnightblue" stroke="midnightblue" points="1000.57,-253.295 1005.34,-243.834 995.711,-248.256 1000.57,-253.295"/>
</g>
<!-- Node8 -->
<g id="node8" class="node"><title>Node8</title>
<polygon fill="white" stroke="#bfbfbf" points="1060.5,-224.5 1060.5,-243.5 1126.5,-243.5 1126.5,-224.5 1060.5,-224.5"/>
<text text-anchor="middle" x="1093.5" y="-231.5" font-family="Helvetica,sans-Serif" font-size="10.00">QIODevice</text>
</g>
<!-- Node5&#45;&gt;Node8 -->
<g id="edge7" class="edge"><title>Node5&#45;&gt;Node8</title>
<path fill="none" stroke="midnightblue" d="M979.891,-280.444C1002.21,-271.517 1037.4,-257.439 1062.71,-247.317"/>
<polygon fill="midnightblue" stroke="midnightblue" points="1064.22,-250.48 1072.21,-243.516 1061.62,-243.981 1064.22,-250.48"/>
</g>
<!-- Node9 -->
<g id="node9" class="node"><title>Node9</title>
<polygon fill="white" stroke="#bfbfbf" points="838.5,-224.5 838.5,-243.5 930.5,-243.5 930.5,-224.5 838.5,-224.5"/>
<text text-anchor="middle" x="884.5" y="-231.5" font-family="Helvetica,sans-Serif" font-size="10.00">QReadWriteLock</text>
</g>
<!-- Node5&#45;&gt;Node9 -->
<g id="edge8" class="edge"><title>Node5&#45;&gt;Node9</title>
<path fill="none" stroke="midnightblue" d="M946.611,-280.324C935.35,-272.107 918.213,-259.602 904.791,-249.807"/>
<polygon fill="midnightblue" stroke="midnightblue" points="906.747,-246.901 896.606,-243.834 902.62,-252.556 906.747,-246.901"/>
</g>
<!-- Node10&#45;&gt;Node2 -->
<g id="edge11" class="edge"><title>Node10&#45;&gt;Node2</title>
<path fill="none" stroke="midnightblue" d="M326.317,-280.473C294.623,-271.898 244.934,-257.979 202.5,-244 151.509,-227.202 93.2358,-204.928 58.454,-191.297"/>
<polygon fill="midnightblue" stroke="midnightblue" points="59.4573,-187.931 48.8701,-187.527 56.8947,-194.445 59.4573,-187.931"/>
</g>
<!-- Node11 -->
<g id="node11" class="node"><title>Node11</title>
<polygon fill="white" stroke="#bfbfbf" points="280,-112.5 280,-131.5 333,-131.5 333,-112.5 280,-112.5"/>
<text text-anchor="middle" x="306.5" y="-119.5" font-family="Helvetica,sans-Serif" font-size="10.00">QMutex</text>
</g>
<!-- Node10&#45;&gt;Node11 -->
<g id="edge10" class="edge"><title>Node10&#45;&gt;Node11</title>
<path fill="none" stroke="midnightblue" d="M355.704,-280.075C347.484,-253.832 323.273,-176.545 312.175,-141.117"/>
<polygon fill="midnightblue" stroke="midnightblue" points="315.513,-140.065 309.184,-131.568 308.833,-142.157 315.513,-140.065"/>
</g>
<!-- Node12 -->
<g id="node12" class="node"><title>Node12</title>
<g id="a_node12"><a xlink:href="../../d8/dfe/torcreferencecounted_8h.html" target="_top" xlink:title="torcreferencecounted.h">
<polygon fill="white" stroke="black" points="354,-168.5 354,-187.5 483,-187.5 483,-168.5 354,-168.5"/>
<text text-anchor="middle" x="418.5" y="-175.5" font-family="Helvetica,sans-Serif" font-size="10.00">torcreferencecounted.h</text>
</a>
</g>
</g>
<!-- Node10&#45;&gt;Node12 -->
<g id="edge12" class="edge"><title>Node10&#45;&gt;Node12</title>
<path fill="none" stroke="midnightblue" d="M363.208,-280.368C373.022,-262.376 395.836,-220.55 408.885,-196.627"/>
<polygon fill="midnightblue" stroke="midnightblue" points="412.098,-198.046 413.814,-187.591 405.953,-194.694 412.098,-198.046"/>
</g>
<!-- Node14 -->
<g id="node14" class="node"><title>Node14</title>
<g id="a_node14"><a xlink:href="../../d3/dee/torchttpservice_8h.html" target="_top" xlink:title="torchttpservice.h">
<polygon fill="white" stroke="black" points="618.5,-224.5 618.5,-243.5 716.5,-243.5 716.5,-224.5 618.5,-224.5"/>
<text text-anchor="middle" x="667.5" y="-231.5" font-family="Helvetica,sans-Serif" font-size="10.00">torchttpservice.h</text>
</a>
</g>
</g>
<!-- Node10&#45;&gt;Node14 -->
<g id="edge14" class="edge"><title>Node10&#45;&gt;Node14</title>
<path fill="none" stroke="midnightblue" d="M396.699,-282.324C449.775,-273.049 546.315,-256.178 608.635,-245.287"/>
<polygon fill="midnightblue" stroke="midnightblue" points="609.464,-248.695 618.712,-243.526 608.259,-241.8 609.464,-248.695"/>
</g>
<!-- Node26 -->
<g id="node26" class="node"><title>Node26</title>
<g id="a_node26"><a xlink:href="../../d1/df7/torcdevice_8h.html" target="_top" xlink:title="torcdevice.h">
<polygon fill="white" stroke="black" points="212,-224.5 212,-243.5 287,-243.5 287,-224.5 212,-224.5"/>
<text text-anchor="middle" x="249.5" y="-231.5" font-family="Helvetica,sans-Serif" font-size="10.00">torcdevice.h</text>
</a>
</g>
</g>
<!-- Node10&#45;&gt;Node26 -->
<g id="edge31" class="edge"><title>Node10&#45;&gt;Node26</title>
<path fill="none" stroke="midnightblue" d="M340.987,-280.324C323.428,-271.625 296.169,-258.12 275.969,-248.113"/>
<polygon fill="midnightblue" stroke="midnightblue" points="277.484,-244.958 266.969,-243.655 274.376,-251.23 277.484,-244.958"/>
</g>
<!-- Node13 -->
<g id="node13" class="node"><title>Node13</title>
<polygon fill="white" stroke="#bfbfbf" points="353.5,-112.5 353.5,-131.5 423.5,-131.5 423.5,-112.5 353.5,-112.5"/>
<text text-anchor="middle" x="388.5" y="-119.5" font-family="Helvetica,sans-Serif" font-size="10.00">QAtomicInt</text>
</g>
<!-- Node12&#45;&gt;Node13 -->
<g id="edge13" class="edge"><title>Node12&#45;&gt;Node13</title>
<path fill="none" stroke="midnightblue" d="M413.546,-168.083C409.396,-160.613 403.347,-149.724 398.233,-140.52"/>
<polygon fill="midnightblue" stroke="midnightblue" points="401.278,-138.793 393.362,-131.751 395.159,-142.192 401.278,-138.793"/>
</g>
<!-- Node14&#45;&gt;Node11 -->
<g id="edge16" class="edge"><title>Node14&#45;&gt;Node11</title>
<path fill="none" stroke="midnightblue" d="M637.073,-224.497C608.977,-216.296 566.307,-202.954 530.5,-188 512.525,-180.493 509.757,-174.793 491.5,-168 484.493,-165.393 394.975,-143.991 343.081,-131.665"/>
<polygon fill="midnightblue" stroke="midnightblue" points="343.778,-128.233 333.24,-129.329 342.161,-135.044 343.778,-128.233"/>
</g>
<!-- Node15 -->
<g id="node15" class="node"><title>Node15</title>
<polygon fill="white" stroke="#bfbfbf" points="683.5,-56.5 683.5,-75.5 727.5,-75.5 727.5,-56.5 683.5,-56.5"/>
<text text-anchor="middle" x="705.5" y="-63.5" font-family="Helvetica,sans-Serif" font-size="10.00">QMap</text>
</g>
<!-- Node14&#45;&gt;Node15 -->
<g id="edge15" class="edge"><title>Node14&#45;&gt;Node15</title>
<path fill="none" stroke="midnightblue" d="M669.543,-224.075C675.525,-197.945 693.09,-121.211 701.247,-85.577"/>
<polygon fill="midnightblue" stroke="midnightblue" points="704.719,-86.097 703.539,-75.5681 697.895,-84.5349 704.719,-86.097"/>
</g>
<!-- Node16 -->
<g id="node16" class="node"><title>Node16</title>
<polygon fill="white" stroke="#bfbfbf" points="734,-168.5 734,-187.5 813,-187.5 813,-168.5 734,-168.5"/>
<text text-anchor="middle" x="773.5" y="-175.5" font-family="Helvetica,sans-Serif" font-size="10.00">QMetaObject</text>
</g>
<!-- Node14&#45;&gt;Node16 -->
<g id="edge17" class="edge"><title>Node14&#45;&gt;Node16</title>
<path fill="none" stroke="midnightblue" d="M684.531,-224.324C701.53,-215.664 727.876,-202.242 747.493,-192.249"/>
<polygon fill="midnightblue" stroke="midnightblue" points="749.19,-195.312 756.512,-187.655 746.012,-189.075 749.19,-195.312"/>
</g>
<!-- Node17 -->
<g id="node17" class="node"><title>Node17</title>
<polygon fill="white" stroke="#bfbfbf" points="831,-168.5 831,-187.5 930,-187.5 930,-168.5 831,-168.5"/>
<text text-anchor="middle" x="880.5" y="-175.5" font-family="Helvetica,sans-Serif" font-size="10.00">QCoreApplication</text>
</g>
<!-- Node14&#45;&gt;Node17 -->
<g id="edge18" class="edge"><title>Node14&#45;&gt;Node17</title>
<path fill="none" stroke="midnightblue" d="M701.25,-224.444C738.018,-215.122 796.946,-200.183 837.122,-189.997"/>
<polygon fill="midnightblue" stroke="midnightblue" points="838.074,-193.367 846.907,-187.516 836.354,-186.581 838.074,-193.367"/>
</g>
<!-- Node18 -->
<g id="node18" class="node"><title>Node18</title>
<g id="a_node18"><a xlink:href="../../d4/d11/torchttphandler_8h.html" target="_top" xlink:title="torchttphandler.h">
<polygon fill="white" stroke="black" points="540,-168.5 540,-187.5 639,-187.5 639,-168.5 540,-168.5"/>
<text text-anchor="middle" x="589.5" y="-175.5" font-family="Helvetica,sans-Serif" font-size="10.00">torchttphandler.h</text>
</a>
</g>
</g>
<!-- Node14&#45;&gt;Node18 -->
<g id="edge19" class="edge"><title>Node14&#45;&gt;Node18</title>
<path fill="none" stroke="midnightblue" d="M654.968,-224.324C642.914,-215.979 624.473,-203.212 610.231,-193.352"/>
<polygon fill="midnightblue" stroke="midnightblue" points="612.215,-190.469 602.001,-187.655 608.231,-196.224 612.215,-190.469"/>
</g>
<!-- Node21 -->
<g id="node21" class="node"><title>Node21</title>
<g id="a_node21"><a xlink:href="../../df/dd7/torchttprequest_8h.html" target="_top" xlink:title="torchttprequest.h">
<polygon fill="white" stroke="black" points="576,-112.5 576,-131.5 677,-131.5 677,-112.5 576,-112.5"/>
<text text-anchor="middle" x="626.5" y="-119.5" font-family="Helvetica,sans-Serif" font-size="10.00">torchttprequest.h</text>
</a>
</g>
</g>
<!-- Node14&#45;&gt;Node21 -->
<g id="edge30" class="edge"><title>Node14&#45;&gt;Node21</title>
<path fill="none" stroke="midnightblue" d="M665.278,-224.459C661.922,-211.911 655.137,-187.833 647.5,-168 644.015,-158.949 639.537,-149.162 635.613,-141.035"/>
<polygon fill="midnightblue" stroke="midnightblue" points="638.621,-139.223 631.053,-131.808 632.345,-142.323 638.621,-139.223"/>
</g>
<!-- Node19 -->
<g id="node19" class="node"><title>Node19</title>
<polygon fill="white" stroke="#bfbfbf" points="410,-56.5 410,-75.5 463,-75.5 463,-56.5 410,-56.5"/>
<text text-anchor="middle" x="436.5" y="-63.5" font-family="Helvetica,sans-Serif" font-size="10.00">QString</text>
</g>
<!-- Node18&#45;&gt;Node19 -->
<g id="edge20" class="edge"><title>Node18&#45;&gt;Node19</title>
<path fill="none" stroke="midnightblue" d="M545.582,-168.487C521.176,-161.914 491.575,-150.679 470.5,-132 456.526,-119.614 447.405,-100.094 442.163,-85.674"/>
<polygon fill="midnightblue" stroke="midnightblue" points="445.371,-84.2288 438.894,-75.8443 438.729,-86.4379 445.371,-84.2288"/>
</g>
<!-- Node20 -->
<g id="node20" class="node"><title>Node20</title>
<polygon fill="white" stroke="#bfbfbf" points="479.5,-112.5 479.5,-131.5 557.5,-131.5 557.5,-112.5 479.5,-112.5"/>
<text text-anchor="middle" x="518.5" y="-119.5" font-family="Helvetica,sans-Serif" font-size="10.00">QVariantMap</text>
</g>
<!-- Node18&#45;&gt;Node20 -->
<g id="edge21" class="edge"><title>Node18&#45;&gt;Node20</title>
<path fill="none" stroke="midnightblue" d="M578.093,-168.324C567.391,-160.185 551.159,-147.839 538.337,-138.087"/>
<polygon fill="midnightblue" stroke="midnightblue" points="540.193,-135.102 530.115,-131.834 535.956,-140.673 540.193,-135.102"/>
</g>
<!-- Node18&#45;&gt;Node21 -->
<g id="edge22" class="edge"><title>Node18&#45;&gt;Node21</title>
<path fill="none" stroke="midnightblue" d="M595.61,-168.083C600.782,-160.534 608.346,-149.495 614.694,-140.23"/>
<polygon fill="midnightblue" stroke="midnightblue" points="617.739,-141.979 620.504,-131.751 611.964,-138.022 617.739,-141.979"/>
</g>
<!-- Node21&#45;&gt;Node6 -->
<g id="edge24" class="edge"><title>Node21&#45;&gt;Node6</title>
<path fill="none" stroke="midnightblue" d="M663.895,-112.444C710.363,-101.811 788.775,-83.8693 831.861,-74.0105"/>
<polygon fill="midnightblue" stroke="midnightblue" points="832.794,-77.3878 841.761,-71.7454 831.232,-70.5641 832.794,-77.3878"/>
</g>
<!-- Node21&#45;&gt;Node15 -->
<g id="edge23" class="edge"><title>Node21&#45;&gt;Node15</title>
<path fill="none" stroke="midnightblue" d="M639.193,-112.324C651.401,-103.979 670.078,-91.2122 684.503,-81.3524"/>
<polygon fill="midnightblue" stroke="midnightblue" points="686.558,-84.1871 692.839,-75.6545 682.608,-78.4082 686.558,-84.1871"/>
</g>
<!-- Node21&#45;&gt;Node19 -->
<g id="edge25" class="edge"><title>Node21&#45;&gt;Node19</title>
<path fill="none" stroke="midnightblue" d="M596.394,-112.444C562.966,-102.943 509.003,-87.6061 473.145,-77.415"/>
<polygon fill="midnightblue" stroke="midnightblue" points="473.669,-73.9252 463.093,-74.558 471.755,-80.6586 473.669,-73.9252"/>
</g>
<!-- Node22 -->
<g id="node22" class="node"><title>Node22</title>
<polygon fill="white" stroke="#bfbfbf" points="594,-56.5 594,-75.5 665,-75.5 665,-56.5 594,-56.5"/>
<text text-anchor="middle" x="629.5" y="-63.5" font-family="Helvetica,sans-Serif" font-size="10.00">QDateTime</text>
</g>
<!-- Node21&#45;&gt;Node22 -->
<g id="edge26" class="edge"><title>Node21&#45;&gt;Node22</title>
<path fill="none" stroke="midnightblue" d="M626.995,-112.083C627.389,-105.006 627.952,-94.8611 628.445,-85.9865"/>
<polygon fill="midnightblue" stroke="midnightblue" points="631.954,-85.9299 629.014,-75.7511 624.964,-85.5415 631.954,-85.9299"/>
</g>
<!-- Node23 -->
<g id="node23" class="node"><title>Node23</title>
<g id="a_node23"><a xlink:href="../../de/de6/torchttpreader_8h.html" target="_top" xlink:title="torchttpreader.h">
<polygon fill="white" stroke="black" points="481,-56.5 481,-75.5 576,-75.5 576,-56.5 481,-56.5"/>
<text text-anchor="middle" x="528.5" y="-63.5" font-family="Helvetica,sans-Serif" font-size="10.00">torchttpreader.h</text>
</a>
</g>
</g>
<!-- Node21&#45;&gt;Node23 -->
<g id="edge27" class="edge"><title>Node21&#45;&gt;Node23</title>
<path fill="none" stroke="midnightblue" d="M610.755,-112.324C595.181,-103.743 571.123,-90.486 553.041,-80.5224"/>
<polygon fill="midnightblue" stroke="midnightblue" points="554.654,-77.4152 544.206,-75.6545 551.276,-83.546 554.654,-77.4152"/>
</g>
<!-- Node24 -->
<g id="node24" class="node"><title>Node24</title>
<polygon fill="white" stroke="#bfbfbf" points="448,-0.5 448,-19.5 519,-19.5 519,-0.5 448,-0.5"/>
<text text-anchor="middle" x="483.5" y="-7.5" font-family="Helvetica,sans-Serif" font-size="10.00">QByteArray</text>
</g>
<!-- Node23&#45;&gt;Node24 -->
<g id="edge28" class="edge"><title>Node23&#45;&gt;Node24</title>
<path fill="none" stroke="midnightblue" d="M521.069,-56.083C514.647,-48.3768 505.194,-37.0333 497.378,-27.6531"/>
<polygon fill="midnightblue" stroke="midnightblue" points="499.883,-25.1927 490.793,-19.7511 494.506,-29.674 499.883,-25.1927"/>
</g>
<!-- Node25 -->
<g id="node25" class="node"><title>Node25</title>
<polygon fill="white" stroke="#bfbfbf" points="537.5,-0.5 537.5,-19.5 609.5,-19.5 609.5,-0.5 537.5,-0.5"/>
<text text-anchor="middle" x="573.5" y="-7.5" font-family="Helvetica,sans-Serif" font-size="10.00">QTcpSocket</text>
</g>
<!-- Node23&#45;&gt;Node25 -->
<g id="edge29" class="edge"><title>Node23&#45;&gt;Node25</title>
<path fill="none" stroke="midnightblue" d="M535.931,-56.083C542.353,-48.3768 551.806,-37.0333 559.622,-27.6531"/>
<polygon fill="midnightblue" stroke="midnightblue" points="562.494,-29.674 566.207,-19.7511 557.117,-25.1927 562.494,-29.674"/>
</g>
<!-- Node26&#45;&gt;Node2 -->
<g id="edge35" class="edge"><title>Node26&#45;&gt;Node2</title>
<path fill="none" stroke="midnightblue" d="M214.323,-224.444C173.549,-214.525 106.627,-198.247 64.9207,-188.102"/>
<polygon fill="midnightblue" stroke="midnightblue" points="65.6914,-184.688 55.1475,-185.725 64.0369,-191.489 65.6914,-184.688"/>
</g>
<!-- Node26&#45;&gt;Node11 -->
<g id="edge33" class="edge"><title>Node26&#45;&gt;Node11</title>
<path fill="none" stroke="midnightblue" d="M253.973,-224.368C263.296,-206.376 284.969,-164.55 297.366,-140.627"/>
<polygon fill="midnightblue" stroke="midnightblue" points="300.555,-142.081 302.048,-131.591 294.34,-138.86 300.555,-142.081"/>
</g>
<!-- Node26&#45;&gt;Node12 -->
<g id="edge36" class="edge"><title>Node26&#45;&gt;Node12</title>
<path fill="none" stroke="midnightblue" d="M276.279,-224.444C304.833,-215.32 350.233,-200.813 382.037,-190.651"/>
<polygon fill="midnightblue" stroke="midnightblue" points="383.386,-193.894 391.847,-187.516 381.256,-187.226 383.386,-193.894"/>
</g>
<!-- Node26&#45;&gt;Node19 -->
<g id="edge34" class="edge"><title>Node26&#45;&gt;Node19</title>
<path fill="none" stroke="midnightblue" d="M248.163,-224.353C245.304,-202.464 241.062,-144.308 270.5,-112 303.313,-75.9884 361.73,-67.601 399.785,-66.2538"/>
<polygon fill="midnightblue" stroke="midnightblue" points="400.015,-69.7499 409.941,-66.0434 399.87,-62.7514 400.015,-69.7499"/>
</g>
<!-- Node27 -->
<g id="node27" class="node"><title>Node27</title>
<polygon fill="white" stroke="#bfbfbf" points="65,-112.5 65,-131.5 114,-131.5 114,-112.5 65,-112.5"/>
<text text-anchor="middle" x="89.5" y="-119.5" font-family="Helvetica,sans-Serif" font-size="10.00">QHash</text>
</g>
<!-- Node26&#45;&gt;Node27 -->
<g id="edge32" class="edge"><title>Node26&#45;&gt;Node27</title>
<path fill="none" stroke="midnightblue" d="M211.88,-226.029C173.384,-218.131 117.185,-204.227 102.5,-188 91.2885,-175.611 88.6126,-156.368 88.3966,-142.03"/>
<polygon fill="midnightblue" stroke="midnightblue" points="91.9008,-141.886 88.6348,-131.807 84.9027,-141.723 91.9008,-141.886"/>
</g>
<!-- Node28 -->
<g id="node28" class="node"><title>Node28</title>
<g id="a_node28"><a xlink:href="../../d2/d5b/torcdevicehandler_8h.html" target="_top" xlink:title="torcdevicehandler.h">
<polygon fill="white" stroke="black" points="111.5,-168.5 111.5,-187.5 221.5,-187.5 221.5,-168.5 111.5,-168.5"/>
<text text-anchor="middle" x="166.5" y="-175.5" font-family="Helvetica,sans-Serif" font-size="10.00">torcdevicehandler.h</text>
</a>
</g>
</g>
<!-- Node26&#45;&gt;Node28 -->
<g id="edge37" class="edge"><title>Node26&#45;&gt;Node28</title>
<path fill="none" stroke="midnightblue" d="M236.165,-224.324C223.338,-215.979 203.715,-203.212 188.56,-193.352"/>
<polygon fill="midnightblue" stroke="midnightblue" points="190.093,-190.174 179.802,-187.655 186.276,-196.042 190.093,-190.174"/>
</g>
<!-- Node28&#45;&gt;Node11 -->
<g id="edge39" class="edge"><title>Node28&#45;&gt;Node11</title>
<path fill="none" stroke="midnightblue" d="M188.683,-168.444C211.928,-159.478 248.649,-145.314 274.915,-135.183"/>
<polygon fill="midnightblue" stroke="midnightblue" points="276.35,-138.381 284.42,-131.516 273.831,-131.85 276.35,-138.381"/>
</g>
<!-- Node28&#45;&gt;Node27 -->
<g id="edge38" class="edge"><title>Node28&#45;&gt;Node27</title>
<path fill="none" stroke="midnightblue" d="M154.129,-168.324C142.342,-160.058 124.368,-147.453 110.364,-137.632"/>
<polygon fill="midnightblue" stroke="midnightblue" points="112.038,-134.531 101.841,-131.655 108.018,-140.262 112.038,-134.531"/>
</g>
<!-- Node29 -->
<g id="node29" class="node"><title>Node29</title>
<polygon fill="white" stroke="#bfbfbf" points="137.5,-112.5 137.5,-131.5 195.5,-131.5 195.5,-112.5 137.5,-112.5"/>
<text text-anchor="middle" x="166.5" y="-119.5" font-family="Helvetica,sans-Serif" font-size="10.00">QVariant</text>
</g>
<!-- Node28&#45;&gt;Node29 -->
<g id="edge40" class="edge"><title>Node28&#45;&gt;Node29</title>
<path fill="none" stroke="midnightblue" d="M166.5,-168.083C166.5,-161.006 166.5,-150.861 166.5,-141.986"/>
<polygon fill="midnightblue" stroke="midnightblue" points="170,-141.751 166.5,-131.751 163,-141.751 170,-141.751"/>
</g>
</g>
</svg>
