<?xml version="1.0" encoding="UTF-8" standalone="no"?>
<!DOCTYPE svg PUBLIC "-//W3C//DTD SVG 1.1//EN"
 "http://www.w3.org/Graphics/SVG/1.1/DTD/svg11.dtd">
<!-- Generated by graphviz version 2.38.0 (20140413.2041)
 -->
<!-- Title: TorcReferenceCounter Pages: 1 -->
<svg width="958pt" height="721pt"
 viewBox="0.00 0.00 958.00 721.00" xmlns="http://www.w3.org/2000/svg" xmlns:xlink="http://www.w3.org/1999/xlink">
<g id="graph0" class="graph" transform="scale(1 1) rotate(0) translate(4 717)">
<title>TorcReferenceCounter</title>
<polygon fill="white" stroke="none" points="-4,4 -4,-717 954,-717 954,4 -4,4"/>
<!-- Node1 -->
<g id="node1" class="node"><title>Node1</title>
<polygon fill="#bfbfbf" stroke="black" points="0,-252.5 0,-271.5 121,-271.5 121,-252.5 0,-252.5"/>
<text text-anchor="middle" x="60.5" y="-259.5" font-family="Helvetica,sans-Serif" font-size="10.00">TorcReferenceCounter</text>
</g>
<!-- Node2 -->
<g id="node2" class="node"><title>Node2</title>
<g id="a_node2"><a xlink:href="../../d5/d76/class_torc_device.html" target="_top" xlink:title="TorcDevice">
<polygon fill="white" stroke="black" points="179.5,-337.5 179.5,-356.5 247.5,-356.5 247.5,-337.5 179.5,-337.5"/>
<text text-anchor="middle" x="213.5" y="-344.5" font-family="Helvetica,sans-Serif" font-size="10.00">TorcDevice</text>
</a>
</g>
</g>
<!-- Node1&#45;&gt;Node2 -->
<g id="edge1" class="edge"><title>Node1&#45;&gt;Node2</title>
<path fill="none" stroke="midnightblue" d="M87.4177,-276.589C118.268,-293.955 168.916,-322.466 195.302,-337.319"/>
<polygon fill="midnightblue" stroke="midnightblue" points="88.9592,-273.441 78.5281,-271.585 85.5254,-279.541 88.9592,-273.441"/>
</g>
<!-- Node43 -->
<g id="node43" class="node"><title>Node43</title>
<g id="a_node43"><a xlink:href="../../d3/ded/class_torc_network_request.html" target="_top" xlink:title="A wrapper around QNetworkRequest. ">
<polygon fill="white" stroke="black" points="157,-271.5 157,-290.5 270,-290.5 270,-271.5 157,-271.5"/>
<text text-anchor="middle" x="213.5" y="-278.5" font-family="Helvetica,sans-Serif" font-size="10.00">TorcNetworkRequest</text>
</a>
</g>
</g>
<!-- Node1&#45;&gt;Node43 -->
<g id="edge42" class="edge"><title>Node1&#45;&gt;Node43</title>
<path fill="none" stroke="midnightblue" d="M131.156,-270.765C139.716,-271.842 148.377,-272.932 156.695,-273.978"/>
<polygon fill="midnightblue" stroke="midnightblue" points="131.538,-267.285 121.179,-269.509 130.664,-274.23 131.538,-267.285"/>
</g>
<!-- Node44 -->
<g id="node44" class="node"><title>Node44</title>
<g id="a_node44"><a xlink:href="../../db/dc6/class_torc_r_p_c_request.html" target="_top" xlink:title="A class encapsulating a Remote Procedure Call. ">
<polygon fill="white" stroke="black" points="167.5,-233.5 167.5,-252.5 259.5,-252.5 259.5,-233.5 167.5,-233.5"/>
<text text-anchor="middle" x="213.5" y="-240.5" font-family="Helvetica,sans-Serif" font-size="10.00">TorcRPCRequest</text>
</a>
</g>
</g>
<!-- Node1&#45;&gt;Node44 -->
<g id="edge43" class="edge"><title>Node1&#45;&gt;Node44</title>
<path fill="none" stroke="midnightblue" d="M131.344,-253.212C143.534,-251.678 155.922,-250.119 167.227,-248.697"/>
<polygon fill="midnightblue" stroke="midnightblue" points="130.664,-249.77 121.179,-254.491 131.538,-256.715 130.664,-249.77"/>
</g>
<!-- Node45 -->
<g id="node45" class="node"><title>Node45</title>
<g id="a_node45"><a xlink:href="../../dd/d69/class_torc_setting.html" target="_top" xlink:title="A wrapper around a database setting. ">
<polygon fill="white" stroke="black" points="178.5,-138.5 178.5,-157.5 248.5,-157.5 248.5,-138.5 178.5,-138.5"/>
<text text-anchor="middle" x="213.5" y="-145.5" font-family="Helvetica,sans-Serif" font-size="10.00">TorcSetting</text>
</a>
</g>
</g>
<!-- Node1&#45;&gt;Node45 -->
<g id="edge44" class="edge"><title>Node1&#45;&gt;Node45</title>
<path fill="none" stroke="midnightblue" d="M82.2631,-246.325C113.948,-222.403 173.442,-177.488 199.601,-157.738"/>
<polygon fill="midnightblue" stroke="midnightblue" points="79.9865,-243.658 74.1145,-252.477 84.2043,-249.244 79.9865,-243.658"/>
</g>
<!-- Node3 -->
<g id="node3" class="node"><title>Node3</title>
<g id="a_node3"><a xlink:href="../../d1/d34/class_torc_control.html" target="_top" xlink:title="TorcControl">
<polygon fill="white" stroke="black" points="320.5,-636.5 320.5,-655.5 390.5,-655.5 390.5,-636.5 320.5,-636.5"/>
<text text-anchor="middle" x="355.5" y="-643.5" font-family="Helvetica,sans-Serif" font-size="10.00">TorcControl</text>
</a>
</g>
</g>
<!-- Node2&#45;&gt;Node3 -->
<g id="edge2" class="edge"><title>Node2&#45;&gt;Node3</title>
<path fill="none" stroke="midnightblue" d="M223.371,-365.946C250.225,-423.298 330.012,-593.701 349.947,-636.276"/>
<polygon fill="midnightblue" stroke="midnightblue" points="226.41,-364.182 218.999,-356.61 220.07,-367.15 226.41,-364.182"/>
</g>
<!-- Node7 -->
<g id="node7" class="node"><title>Node7</title>
<g id="a_node7"><a xlink:href="../../d8/d61/class_torc_input.html" target="_top" xlink:title="TorcInput">
<polygon fill="white" stroke="black" points="326,-484.5 326,-503.5 385,-503.5 385,-484.5 326,-484.5"/>
<text text-anchor="middle" x="355.5" y="-491.5" font-family="Helvetica,sans-Serif" font-size="10.00">TorcInput</text>
</a>
</g>
</g>
<!-- Node2&#45;&gt;Node7 -->
<g id="edge6" class="edge"><title>Node2&#45;&gt;Node7</title>
<path fill="none" stroke="midnightblue" d="M230.777,-364.091C260.263,-395.051 321.63,-459.487 345.097,-484.127"/>
<polygon fill="midnightblue" stroke="midnightblue" points="233.117,-361.473 223.686,-356.645 228.048,-366.3 233.117,-361.473"/>
</g>
<!-- Node20 -->
<g id="node20" class="node"><title>Node20</title>
<g id="a_node20"><a xlink:href="../../dc/d10/class_torc_notification.html" target="_top" xlink:title="TorcNotification">
<polygon fill="white" stroke="black" points="311,-351.5 311,-370.5 400,-370.5 400,-351.5 311,-351.5"/>
<text text-anchor="middle" x="355.5" y="-358.5" font-family="Helvetica,sans-Serif" font-size="10.00">TorcNotification</text>
</a>
</g>
</g>
<!-- Node2&#45;&gt;Node20 -->
<g id="edge19" class="edge"><title>Node2&#45;&gt;Node20</title>
<path fill="none" stroke="midnightblue" d="M257.836,-351.334C274.724,-353.022 294.047,-354.955 310.956,-356.646"/>
<polygon fill="midnightblue" stroke="midnightblue" points="257.977,-347.83 247.678,-350.318 257.28,-354.796 257.977,-347.83"/>
</g>
<!-- Node23 -->
<g id="node23" class="node"><title>Node23</title>
<g id="a_node23"><a xlink:href="../../d4/d20/class_torc_notifier.html" target="_top" xlink:title="TorcNotifier">
<polygon fill="white" stroke="black" points="320.5,-294.5 320.5,-313.5 390.5,-313.5 390.5,-294.5 320.5,-294.5"/>
<text text-anchor="middle" x="355.5" y="-301.5" font-family="Helvetica,sans-Serif" font-size="10.00">TorcNotifier</text>
</a>
</g>
</g>
<!-- Node2&#45;&gt;Node23 -->
<g id="edge22" class="edge"><title>Node2&#45;&gt;Node23</title>
<path fill="none" stroke="midnightblue" d="M255.218,-334.494C277.008,-327.801 303.415,-319.69 323.516,-313.516"/>
<polygon fill="midnightblue" stroke="midnightblue" points="254.102,-331.175 245.571,-337.457 256.157,-337.867 254.102,-331.175"/>
</g>
<!-- Node29 -->
<g id="node29" class="node"><title>Node29</title>
<g id="a_node29"><a xlink:href="../../d1/dc7/class_torc_output.html" target="_top" xlink:title="TorcOutput">
<polygon fill="white" stroke="black" points="321.5,-161.5 321.5,-180.5 389.5,-180.5 389.5,-161.5 321.5,-161.5"/>
<text text-anchor="middle" x="355.5" y="-168.5" font-family="Helvetica,sans-Serif" font-size="10.00">TorcOutput</text>
</a>
</g>
</g>
<!-- Node2&#45;&gt;Node29 -->
<g id="edge28" class="edge"><title>Node2&#45;&gt;Node29</title>
<path fill="none" stroke="midnightblue" d="M235.943,-331.232C246.817,-322.666 259.837,-311.494 270,-300 305.646,-259.686 337.408,-203.153 349.411,-180.722"/>
<polygon fill="midnightblue" stroke="midnightblue" points="233.579,-328.634 227.777,-337.499 237.841,-334.187 233.579,-328.634"/>
</g>
<!-- Node4 -->
<g id="node4" class="node"><title>Node4</title>
<g id="a_node4"><a xlink:href="../../d5/d8f/class_torc_logic_control.html" target="_top" xlink:title="TorcLogicControl">
<polygon fill="white" stroke="black" points="458,-693.5 458,-712.5 553,-712.5 553,-693.5 458,-693.5"/>
<text text-anchor="middle" x="505.5" y="-700.5" font-family="Helvetica,sans-Serif" font-size="10.00">TorcLogicControl</text>
</a>
</g>
</g>
<!-- Node3&#45;&gt;Node4 -->
<g id="edge3" class="edge"><title>Node3&#45;&gt;Node4</title>
<path fill="none" stroke="midnightblue" d="M385.416,-660.144C401.555,-667.748 422.152,-676.977 441,-684 450.166,-687.415 460.245,-690.657 469.621,-693.464"/>
<polygon fill="midnightblue" stroke="midnightblue" points="386.531,-656.799 375.998,-655.654 383.518,-663.117 386.531,-656.799"/>
</g>
<!-- Node5 -->
<g id="node5" class="node"><title>Node5</title>
<g id="a_node5"><a xlink:href="../../d6/d72/class_torc_timer_control.html" target="_top" xlink:title="TorcTimerControl">
<polygon fill="white" stroke="black" points="457,-655.5 457,-674.5 554,-674.5 554,-655.5 457,-655.5"/>
<text text-anchor="middle" x="505.5" y="-662.5" font-family="Helvetica,sans-Serif" font-size="10.00">TorcTimerControl</text>
</a>
</g>
</g>
<!-- Node3&#45;&gt;Node5 -->
<g id="edge4" class="edge"><title>Node3&#45;&gt;Node5</title>
<path fill="none" stroke="midnightblue" d="M400.882,-651.698C418.556,-653.967 438.929,-656.582 456.908,-658.89"/>
<polygon fill="midnightblue" stroke="midnightblue" points="401.19,-648.209 390.826,-650.407 400.299,-655.152 401.19,-648.209"/>
</g>
<!-- Node6 -->
<g id="node6" class="node"><title>Node6</title>
<g id="a_node6"><a xlink:href="../../df/d11/class_torc_transition_control.html" target="_top" xlink:title="TorcTransitionControl">
<polygon fill="white" stroke="black" points="448,-617.5 448,-636.5 563,-636.5 563,-617.5 448,-617.5"/>
<text text-anchor="middle" x="505.5" y="-624.5" font-family="Helvetica,sans-Serif" font-size="10.00">TorcTransitionControl</text>
</a>
</g>
</g>
<!-- Node3&#45;&gt;Node6 -->
<g id="edge5" class="edge"><title>Node3&#45;&gt;Node6</title>
<path fill="none" stroke="midnightblue" d="M401.14,-640.269C415.808,-638.386 432.313,-636.267 447.755,-634.285"/>
<polygon fill="midnightblue" stroke="midnightblue" points="400.299,-636.848 390.826,-641.593 401.19,-643.791 400.299,-636.848"/>
</g>
<!-- Node8 -->
<g id="node8" class="node"><title>Node8</title>
<g id="a_node8"><a xlink:href="../../db/d20/class_torcp_h_input.html" target="_top" xlink:title="TorcpHInput">
<polygon fill="white" stroke="black" points="469,-579.5 469,-598.5 542,-598.5 542,-579.5 469,-579.5"/>
<text text-anchor="middle" x="505.5" y="-586.5" font-family="Helvetica,sans-Serif" font-size="10.00">TorcpHInput</text>
</a>
</g>
</g>
<!-- Node7&#45;&gt;Node8 -->
<g id="edge7" class="edge"><title>Node7&#45;&gt;Node8</title>
<path fill="none" stroke="midnightblue" d="M371.417,-511.3C387.117,-528.493 413.352,-554.476 441,-570 449.529,-574.789 459.394,-578.492 468.769,-581.303"/>
<polygon fill="midnightblue" stroke="midnightblue" points="373.863,-508.785 364.595,-503.65 368.638,-513.443 373.863,-508.785"/>
</g>
<!-- Node10 -->
<g id="node10" class="node"><title>Node10</title>
<g id="a_node10"><a xlink:href="../../d1/d8b/class_torc_p_w_m_input.html" target="_top" xlink:title="TorcPWMInput">
<polygon fill="white" stroke="black" points="464.5,-541.5 464.5,-560.5 546.5,-560.5 546.5,-541.5 464.5,-541.5"/>
<text text-anchor="middle" x="505.5" y="-548.5" font-family="Helvetica,sans-Serif" font-size="10.00">TorcPWMInput</text>
</a>
</g>
</g>
<!-- Node7&#45;&gt;Node10 -->
<g id="edge9" class="edge"><title>Node7&#45;&gt;Node10</title>
<path fill="none" stroke="midnightblue" d="M385.416,-508.144C401.555,-515.748 422.152,-524.977 441,-532 450.166,-535.415 460.245,-538.657 469.621,-541.464"/>
<polygon fill="midnightblue" stroke="midnightblue" points="386.531,-504.799 375.998,-503.654 383.518,-511.117 386.531,-504.799"/>
</g>
<!-- Node12 -->
<g id="node12" class="node"><title>Node12</title>
<g id="a_node12"><a xlink:href="../../db/dd0/class_torc_switch_input.html" target="_top" xlink:title="TorcSwitchInput">
<polygon fill="white" stroke="black" points="460.5,-503.5 460.5,-522.5 550.5,-522.5 550.5,-503.5 460.5,-503.5"/>
<text text-anchor="middle" x="505.5" y="-510.5" font-family="Helvetica,sans-Serif" font-size="10.00">TorcSwitchInput</text>
</a>
</g>
</g>
<!-- Node7&#45;&gt;Node12 -->
<g id="edge11" class="edge"><title>Node7&#45;&gt;Node12</title>
<path fill="none" stroke="midnightblue" d="M395.037,-498.947C415.035,-501.515 439.558,-504.663 460.321,-507.328"/>
<polygon fill="midnightblue" stroke="midnightblue" points="395.4,-495.465 385.036,-497.663 394.509,-502.408 395.4,-495.465"/>
</g>
<!-- Node16 -->
<g id="node16" class="node"><title>Node16</title>
<g id="a_node16"><a xlink:href="../../d7/df7/class_torc_system_input.html" target="_top" xlink:title="TorcSystemInput">
<polygon fill="white" stroke="black" points="457.5,-465.5 457.5,-484.5 553.5,-484.5 553.5,-465.5 457.5,-465.5"/>
<text text-anchor="middle" x="505.5" y="-472.5" font-family="Helvetica,sans-Serif" font-size="10.00">TorcSystemInput</text>
</a>
</g>
</g>
<!-- Node7&#45;&gt;Node16 -->
<g id="edge15" class="edge"><title>Node7&#45;&gt;Node16</title>
<path fill="none" stroke="midnightblue" d="M395.154,-489.038C414.205,-486.592 437.342,-483.622 457.418,-481.044"/>
<polygon fill="midnightblue" stroke="midnightblue" points="394.509,-485.592 385.036,-490.337 395.4,-492.535 394.509,-485.592"/>
</g>
<!-- Node17 -->
<g id="node17" class="node"><title>Node17</title>
<g id="a_node17"><a xlink:href="../../de/d14/class_torc_temperature_input.html" target="_top" xlink:title="TorcTemperatureInput">
<polygon fill="white" stroke="black" points="445.5,-427.5 445.5,-446.5 565.5,-446.5 565.5,-427.5 445.5,-427.5"/>
<text text-anchor="middle" x="505.5" y="-434.5" font-family="Helvetica,sans-Serif" font-size="10.00">TorcTemperatureInput</text>
</a>
</g>
</g>
<!-- Node7&#45;&gt;Node17 -->
<g id="edge16" class="edge"><title>Node7&#45;&gt;Node17</title>
<path fill="none" stroke="midnightblue" d="M385.416,-479.856C401.555,-472.252 422.152,-463.023 441,-456 450.166,-452.585 460.245,-449.343 469.621,-446.536"/>
<polygon fill="midnightblue" stroke="midnightblue" points="383.518,-476.883 375.998,-484.346 386.531,-483.201 383.518,-476.883"/>
</g>
<!-- Node9 -->
<g id="node9" class="node"><title>Node9</title>
<g id="a_node9"><a xlink:href="../../d5/d8a/class_torc_networkp_h_input.html" target="_top" xlink:title="TorcNetworkpHInput">
<polygon fill="white" stroke="black" points="634,-579.5 634,-598.5 746,-598.5 746,-579.5 634,-579.5"/>
<text text-anchor="middle" x="690" y="-586.5" font-family="Helvetica,sans-Serif" font-size="10.00">TorcNetworkpHInput</text>
</a>
</g>
</g>
<!-- Node8&#45;&gt;Node9 -->
<g id="edge8" class="edge"><title>Node8&#45;&gt;Node9</title>
<path fill="none" stroke="midnightblue" d="M552.312,-589C577.015,-589 607.683,-589 633.707,-589"/>
<polygon fill="midnightblue" stroke="midnightblue" points="552.121,-585.5 542.121,-589 552.121,-592.5 552.121,-585.5"/>
</g>
<!-- Node11 -->
<g id="node11" class="node"><title>Node11</title>
<g id="a_node11"><a xlink:href="../../da/d14/class_torc_network_p_w_m_input.html" target="_top" xlink:title="TorcNetworkPWMInput">
<polygon fill="white" stroke="black" points="629.5,-541.5 629.5,-560.5 750.5,-560.5 750.5,-541.5 629.5,-541.5"/>
<text text-anchor="middle" x="690" y="-548.5" font-family="Helvetica,sans-Serif" font-size="10.00">TorcNetworkPWMInput</text>
</a>
</g>
</g>
<!-- Node10&#45;&gt;Node11 -->
<g id="edge10" class="edge"><title>Node10&#45;&gt;Node11</title>
<path fill="none" stroke="midnightblue" d="M556.558,-551C579.044,-551 605.754,-551 629.277,-551"/>
<polygon fill="midnightblue" stroke="midnightblue" points="556.55,-547.5 546.55,-551 556.55,-554.5 556.55,-547.5"/>
</g>
<!-- Node13 -->
<g id="node13" class="node"><title>Node13</title>
<g id="a_node13"><a xlink:href="../../df/d5c/class_torc_network_switch_input.html" target="_top" xlink:title="TorcNetworkSwitchInput">
<polygon fill="white" stroke="black" points="625.5,-503.5 625.5,-522.5 754.5,-522.5 754.5,-503.5 625.5,-503.5"/>
<text text-anchor="middle" x="690" y="-510.5" font-family="Helvetica,sans-Serif" font-size="10.00">TorcNetworkSwitchInput</text>
</a>
</g>
</g>
<!-- Node12&#45;&gt;Node13 -->
<g id="edge12" class="edge"><title>Node12&#45;&gt;Node13</title>
<path fill="none" stroke="midnightblue" d="M560.954,-513C581.159,-513 604.255,-513 625.218,-513"/>
<polygon fill="midnightblue" stroke="midnightblue" points="560.678,-509.5 550.678,-513 560.678,-516.5 560.678,-509.5"/>
</g>
<!-- Node15 -->
<g id="node15" class="node"><title>Node15</title>
<g id="a_node15"><a xlink:href="../../de/d6d/class_torc_pi_switch_input.html" target="_top" xlink:title="TorcPiSwitchInput">
<polygon fill="white" stroke="black" points="641,-465.5 641,-484.5 739,-484.5 739,-465.5 641,-465.5"/>
<text text-anchor="middle" x="690" y="-472.5" font-family="Helvetica,sans-Serif" font-size="10.00">TorcPiSwitchInput</text>
</a>
</g>
</g>
<!-- Node12&#45;&gt;Node15 -->
<g id="edge14" class="edge"><title>Node12&#45;&gt;Node15</title>
<path fill="none" stroke="midnightblue" d="M560.506,-501.755C586.848,-496.27 618.188,-489.744 643.323,-484.511"/>
<polygon fill="midnightblue" stroke="midnightblue" points="559.755,-498.336 550.678,-503.801 561.182,-505.189 559.755,-498.336"/>
</g>
<!-- Node14 -->
<g id="node14" class="node"><title>Node14</title>
<g id="a_node14"><a xlink:href="../../d7/d4b/class_torc_network_button_input.html" target="_top" xlink:title="A network input that mimics the behaviour of a mechanical push button. ">
<polygon fill="white" stroke="black" points="814.5,-503.5 814.5,-522.5 945.5,-522.5 945.5,-503.5 814.5,-503.5"/>
<text text-anchor="middle" x="880" y="-510.5" font-family="Helvetica,sans-Serif" font-size="10.00">TorcNetworkButtonInput</text>
</a>
</g>
</g>
<!-- Node13&#45;&gt;Node14 -->
<g id="edge13" class="edge"><title>Node13&#45;&gt;Node14</title>
<path fill="none" stroke="midnightblue" d="M764.74,-513C781.158,-513 798.442,-513 814.457,-513"/>
<polygon fill="midnightblue" stroke="midnightblue" points="764.648,-509.5 754.648,-513 764.648,-516.5 764.648,-509.5"/>
</g>
<!-- Node18 -->
<g id="node18" class="node"><title>Node18</title>
<g id="a_node18"><a xlink:href="../../d5/dd1/class_torc1_wire_d_s18_b20.html" target="_top" xlink:title="Torc1WireDS18B20">
<polygon fill="white" stroke="black" points="636.5,-427.5 636.5,-446.5 743.5,-446.5 743.5,-427.5 636.5,-427.5"/>
<text text-anchor="middle" x="690" y="-434.5" font-family="Helvetica,sans-Serif" font-size="10.00">Torc1WireDS18B20</text>
</a>
</g>
</g>
<!-- Node17&#45;&gt;Node18 -->
<g id="edge17" class="edge"><title>Node17&#45;&gt;Node18</title>
<path fill="none" stroke="midnightblue" d="M575.562,-437C595.714,-437 617.402,-437 636.363,-437"/>
<polygon fill="midnightblue" stroke="midnightblue" points="575.501,-433.5 565.5,-437 575.5,-440.5 575.501,-433.5"/>
</g>
<!-- Node19 -->
<g id="node19" class="node"><title>Node19</title>
<g id="a_node19"><a xlink:href="../../d9/dc9/class_torc_network_temperature_input.html" target="_top" xlink:title="TorcNetworkTemperatureInput">
<polygon fill="white" stroke="black" points="610.5,-389.5 610.5,-408.5 769.5,-408.5 769.5,-389.5 610.5,-389.5"/>
<text text-anchor="middle" x="690" y="-396.5" font-family="Helvetica,sans-Serif" font-size="10.00">TorcNetworkTemperatureInput</text>
</a>
</g>
</g>
<!-- Node17&#45;&gt;Node19 -->
<g id="edge18" class="edge"><title>Node17&#45;&gt;Node19</title>
<path fill="none" stroke="midnightblue" d="M562.599,-425.319C588.48,-419.93 618.815,-413.614 643.279,-408.52"/>
<polygon fill="midnightblue" stroke="midnightblue" points="561.629,-421.946 552.552,-427.411 563.056,-428.799 561.629,-421.946"/>
</g>
<!-- Node21 -->
<g id="node21" class="node"><title>Node21</title>
<g id="a_node21"><a xlink:href="../../d7/df8/class_torc_system_notification.html" target="_top" xlink:title="TorcSystemNotification">
<polygon fill="white" stroke="black" points="442.5,-389.5 442.5,-408.5 568.5,-408.5 568.5,-389.5 442.5,-389.5"/>
<text text-anchor="middle" x="505.5" y="-396.5" font-family="Helvetica,sans-Serif" font-size="10.00">TorcSystemNotification</text>
</a>
</g>
</g>
<!-- Node20&#45;&gt;Node21 -->
<g id="edge20" class="edge"><title>Node20&#45;&gt;Node21</title>
<path fill="none" stroke="midnightblue" d="M403.673,-373.112C424.286,-378.404 448.109,-384.521 467.422,-389.48"/>
<polygon fill="midnightblue" stroke="midnightblue" points="404.403,-369.686 393.847,-370.589 402.662,-376.466 404.403,-369.686"/>
</g>
<!-- Node22 -->
<g id="node22" class="node"><title>Node22</title>
<g id="a_node22"><a xlink:href="../../dd/d6d/class_torc_trigger_notification.html" target="_top" xlink:title="TorcTriggerNotification">
<polygon fill="white" stroke="black" points="445,-351.5 445,-370.5 566,-370.5 566,-351.5 445,-351.5"/>
<text text-anchor="middle" x="505.5" y="-358.5" font-family="Helvetica,sans-Serif" font-size="10.00">TorcTriggerNotification</text>
</a>
</g>
</g>
<!-- Node20&#45;&gt;Node22 -->
<g id="edge21" class="edge"><title>Node20&#45;&gt;Node22</title>
<path fill="none" stroke="midnightblue" d="M410.193,-361C421.42,-361 433.324,-361 444.756,-361"/>
<polygon fill="midnightblue" stroke="midnightblue" points="410.104,-357.5 400.104,-361 410.104,-364.5 410.104,-357.5"/>
</g>
<!-- Node24 -->
<g id="node24" class="node"><title>Node24</title>
<g id="a_node24"><a xlink:href="../../d0/db9/class_torc_i_o_t_logger.html" target="_top" xlink:title="TorcIOTLogger">
<polygon fill="white" stroke="black" points="464,-313.5 464,-332.5 547,-332.5 547,-313.5 464,-313.5"/>
<text text-anchor="middle" x="505.5" y="-320.5" font-family="Helvetica,sans-Serif" font-size="10.00">TorcIOTLogger</text>
</a>
</g>
</g>
<!-- Node23&#45;&gt;Node24 -->
<g id="edge23" class="edge"><title>Node23&#45;&gt;Node24</title>
<path fill="none" stroke="midnightblue" d="M400.914,-309.702C420.879,-312.265 444.283,-315.269 463.789,-317.774"/>
<polygon fill="midnightblue" stroke="midnightblue" points="401.19,-306.209 390.826,-308.407 400.299,-313.152 401.19,-306.209"/>
</g>
<!-- Node27 -->
<g id="node27" class="node"><title>Node27</title>
<g id="a_node27"><a xlink:href="../../df/dd1/class_torc_log_notifier.html" target="_top" xlink:title="Log notifications to the log file. ">
<polygon fill="white" stroke="black" points="462,-275.5 462,-294.5 549,-294.5 549,-275.5 462,-275.5"/>
<text text-anchor="middle" x="505.5" y="-282.5" font-family="Helvetica,sans-Serif" font-size="10.00">TorcLogNotifier</text>
</a>
</g>
</g>
<!-- Node23&#45;&gt;Node27 -->
<g id="edge26" class="edge"><title>Node23&#45;&gt;Node27</title>
<path fill="none" stroke="midnightblue" d="M400.895,-298.301C420.22,-295.82 442.771,-292.925 461.891,-290.47"/>
<polygon fill="midnightblue" stroke="midnightblue" points="400.299,-294.848 390.826,-299.593 401.19,-301.791 400.299,-294.848"/>
</g>
<!-- Node28 -->
<g id="node28" class="node"><title>Node28</title>
<g id="a_node28"><a xlink:href="../../d7/d0b/class_torc_pushbullet_notifier.html" target="_top" xlink:title="Send push notifications using the Pushbullet API. ">
<polygon fill="white" stroke="black" points="446,-237.5 446,-256.5 565,-256.5 565,-237.5 446,-237.5"/>
<text text-anchor="middle" x="505.5" y="-244.5" font-family="Helvetica,sans-Serif" font-size="10.00">TorcPushbulletNotifier</text>
</a>
</g>
</g>
<!-- Node23&#45;&gt;Node28 -->
<g id="edge27" class="edge"><title>Node23&#45;&gt;Node28</title>
<path fill="none" stroke="midnightblue" d="M385.416,-289.856C401.555,-282.252 422.152,-273.023 441,-266 450.166,-262.585 460.245,-259.343 469.621,-256.536"/>
<polygon fill="midnightblue" stroke="midnightblue" points="383.518,-286.883 375.998,-294.346 386.531,-293.201 383.518,-286.883"/>
</g>
<!-- Node25 -->
<g id="node25" class="node"><title>Node25</title>
<g id="a_node25"><a xlink:href="../../df/d10/class_torc_io_t_plotter_notifier.html" target="_top" xlink:title="TorcIoTPlotterNotifier">
<polygon fill="white" stroke="black" points="632.5,-323.5 632.5,-342.5 747.5,-342.5 747.5,-323.5 632.5,-323.5"/>
<text text-anchor="middle" x="690" y="-330.5" font-family="Helvetica,sans-Serif" font-size="10.00">TorcIoTPlotterNotifier</text>
</a>
</g>
</g>
<!-- Node24&#45;&gt;Node25 -->
<g id="edge24" class="edge"><title>Node24&#45;&gt;Node25</title>
<path fill="none" stroke="midnightblue" d="M557.056,-325.77C580.425,-327.051 608.271,-328.576 632.346,-329.896"/>
<polygon fill="midnightblue" stroke="midnightblue" points="557.179,-322.272 547.003,-325.219 556.796,-329.261 557.179,-322.272"/>
</g>
<!-- Node26 -->
<g id="node26" class="node"><title>Node26</title>
<g id="a_node26"><a xlink:href="../../d0/d1f/class_torc_thing_speak_notifier.html" target="_top" xlink:title="TorcThingSpeakNotifier">
<polygon fill="white" stroke="black" points="627.5,-285.5 627.5,-304.5 752.5,-304.5 752.5,-285.5 627.5,-285.5"/>
<text text-anchor="middle" x="690" y="-292.5" font-family="Helvetica,sans-Serif" font-size="10.00">TorcThingSpeakNotifier</text>
</a>
</g>
</g>
<!-- Node24&#45;&gt;Node26 -->
<g id="edge25" class="edge"><title>Node24&#45;&gt;Node26</title>
<path fill="none" stroke="midnightblue" d="M557.04,-315.246C578.841,-311.901 604.541,-307.958 627.44,-304.445"/>
<polygon fill="midnightblue" stroke="midnightblue" points="556.356,-311.81 547.003,-316.786 557.418,-318.729 556.356,-311.81"/>
</g>
<!-- Node30 -->
<g id="node30" class="node"><title>Node30</title>
<g id="a_node30"><a xlink:href="../../db/dc8/class_torc_camera_output.html" target="_top" xlink:title="TorcCameraOutput">
<polygon fill="white" stroke="black" points="452,-199.5 452,-218.5 559,-218.5 559,-199.5 452,-199.5"/>
<text text-anchor="middle" x="505.5" y="-206.5" font-family="Helvetica,sans-Serif" font-size="10.00">TorcCameraOutput</text>
</a>
</g>
</g>
<!-- Node29&#45;&gt;Node30 -->
<g id="edge29" class="edge"><title>Node29&#45;&gt;Node30</title>
<path fill="none" stroke="midnightblue" d="M399.582,-182.062C421.104,-187.587 446.88,-194.206 467.497,-199.499"/>
<polygon fill="midnightblue" stroke="midnightblue" points="400.27,-178.625 389.714,-179.528 398.529,-185.405 400.27,-178.625"/>
</g>
<!-- Node31 -->
<g id="node31" class="node"><title>Node31</title>
<g id="a_node31"><a xlink:href="../../d2/d21/class_torcp_h_output.html" target="_top" xlink:title="TorcpHOutput">
<polygon fill="white" stroke="black" points="464.5,-161.5 464.5,-180.5 546.5,-180.5 546.5,-161.5 464.5,-161.5"/>
<text text-anchor="middle" x="505.5" y="-168.5" font-family="Helvetica,sans-Serif" font-size="10.00">TorcpHOutput</text>
</a>
</g>
</g>
<!-- Node29&#45;&gt;Node31 -->
<g id="edge30" class="edge"><title>Node29&#45;&gt;Node31</title>
<path fill="none" stroke="midnightblue" d="M399.967,-171C420.304,-171 444.373,-171 464.285,-171"/>
<polygon fill="midnightblue" stroke="midnightblue" points="399.714,-167.5 389.714,-171 399.714,-174.5 399.714,-167.5"/>
</g>
<!-- Node33 -->
<g id="node33" class="node"><title>Node33</title>
<g id="a_node33"><a xlink:href="../../d9/db0/class_torc_p_w_m_output.html" target="_top" xlink:title="TorcPWMOutput">
<polygon fill="white" stroke="black" points="460,-123.5 460,-142.5 551,-142.5 551,-123.5 460,-123.5"/>
<text text-anchor="middle" x="505.5" y="-130.5" font-family="Helvetica,sans-Serif" font-size="10.00">TorcPWMOutput</text>
</a>
</g>
</g>
<!-- Node29&#45;&gt;Node33 -->
<g id="edge32" class="edge"><title>Node29&#45;&gt;Node33</title>
<path fill="none" stroke="midnightblue" d="M399.582,-159.938C421.104,-154.413 446.88,-147.794 467.497,-142.501"/>
<polygon fill="midnightblue" stroke="midnightblue" points="398.529,-156.595 389.714,-162.472 400.27,-163.375 398.529,-156.595"/>
</g>
<!-- Node37 -->
<g id="node37" class="node"><title>Node37</title>
<g id="a_node37"><a xlink:href="../../d9/d5b/class_torc_switch_output.html" target="_top" xlink:title="TorcSwitchOutput">
<polygon fill="white" stroke="black" points="456,-76.5 456,-95.5 555,-95.5 555,-76.5 456,-76.5"/>
<text text-anchor="middle" x="505.5" y="-83.5" font-family="Helvetica,sans-Serif" font-size="10.00">TorcSwitchOutput</text>
</a>
</g>
</g>
<!-- Node29&#45;&gt;Node37 -->
<g id="edge36" class="edge"><title>Node29&#45;&gt;Node37</title>
<path fill="none" stroke="midnightblue" d="M396.286,-157.116C399.32,-155.549 402.263,-153.844 405,-152 424.294,-139.001 421.983,-127.401 441,-114 451.735,-106.435 464.841,-100.236 476.352,-95.6113"/>
<polygon fill="midnightblue" stroke="midnightblue" points="394.626,-154.028 387.025,-161.409 397.57,-160.379 394.626,-154.028"/>
</g>
<!-- Node41 -->
<g id="node41" class="node"><title>Node41</title>
<g id="a_node41"><a xlink:href="../../d5/dda/class_torc_temperature_output.html" target="_top" xlink:title="TorcTemperatureOutput">
<polygon fill="white" stroke="black" points="441,-19.5 441,-38.5 570,-38.5 570,-19.5 441,-19.5"/>
<text text-anchor="middle" x="505.5" y="-26.5" font-family="Helvetica,sans-Serif" font-size="10.00">TorcTemperatureOutput</text>
</a>
</g>
</g>
<!-- Node29&#45;&gt;Node41 -->
<g id="edge40" class="edge"><title>Node29&#45;&gt;Node41</title>
<path fill="none" stroke="midnightblue" d="M398.769,-157.039C401,-155.523 403.1,-153.849 405,-152 434.403,-123.388 414.069,-97.9496 441,-67 451.879,-54.4974 467.918,-44.946 481.155,-38.5463"/>
<polygon fill="midnightblue" stroke="midnightblue" points="396.688,-154.193 389.672,-162.133 400.108,-160.301 396.688,-154.193"/>
</g>
<!-- Node32 -->
<g id="node32" class="node"><title>Node32</title>
<g id="a_node32"><a xlink:href="../../d0/d23/class_torc_networkp_h_output.html" target="_top" xlink:title="TorcNetworkpHOutput">
<polygon fill="white" stroke="black" points="629.5,-228.5 629.5,-247.5 750.5,-247.5 750.5,-228.5 629.5,-228.5"/>
<text text-anchor="middle" x="690" y="-235.5" font-family="Helvetica,sans-Serif" font-size="10.00">TorcNetworkpHOutput</text>
</a>
</g>
</g>
<!-- Node31&#45;&gt;Node32 -->
<g id="edge31" class="edge"><title>Node31&#45;&gt;Node32</title>
<path fill="none" stroke="midnightblue" d="M556.415,-183.895C561.106,-185.711 565.707,-187.741 570,-190 588.182,-199.568 587.514,-210.034 606,-219 613.98,-222.871 622.779,-225.97 631.575,-228.448"/>
<polygon fill="midnightblue" stroke="midnightblue" points="557.324,-180.504 546.729,-180.465 554.987,-187.102 557.324,-180.504"/>
</g>
<!-- Node34 -->
<g id="node34" class="node"><title>Node34</title>
<g id="a_node34"><a xlink:href="../../d6/d33/class_torc_i2_c_p_c_a9685_channel.html" target="_top" xlink:title="TorcI2CPCA9685Channel">
<polygon fill="white" stroke="black" points="623.5,-190.5 623.5,-209.5 756.5,-209.5 756.5,-190.5 623.5,-190.5"/>
<text text-anchor="middle" x="690" y="-197.5" font-family="Helvetica,sans-Serif" font-size="10.00">TorcI2CPCA9685Channel</text>
</a>
</g>
</g>
<!-- Node33&#45;&gt;Node34 -->
<g id="edge33" class="edge"><title>Node33&#45;&gt;Node34</title>
<path fill="none" stroke="midnightblue" d="M556.613,-145.972C561.236,-147.768 565.768,-149.773 570,-152 588.182,-161.568 587.514,-172.034 606,-181 613.98,-184.871 622.779,-187.97 631.575,-190.448"/>
<polygon fill="midnightblue" stroke="midnightblue" points="557.659,-142.629 547.064,-142.574 555.312,-149.224 557.659,-142.629"/>
</g>
<!-- Node35 -->
<g id="node35" class="node"><title>Node35</title>
<g id="a_node35"><a xlink:href="../../d0/db8/class_torc_network_p_w_m_output.html" target="_top" xlink:title="TorcNetworkPWMOutput">
<polygon fill="white" stroke="black" points="625,-152.5 625,-171.5 755,-171.5 755,-152.5 625,-152.5"/>
<text text-anchor="middle" x="690" y="-159.5" font-family="Helvetica,sans-Serif" font-size="10.00">TorcNetworkPWMOutput</text>
</a>
</g>
</g>
<!-- Node33&#45;&gt;Node35 -->
<g id="edge34" class="edge"><title>Node33&#45;&gt;Node35</title>
<path fill="none" stroke="midnightblue" d="M561.044,-141.667C582.44,-145.067 607.068,-148.981 628.968,-152.461"/>
<polygon fill="midnightblue" stroke="midnightblue" points="561.57,-138.207 551.145,-140.094 560.471,-145.12 561.57,-138.207"/>
</g>
<!-- Node36 -->
<g id="node36" class="node"><title>Node36</title>
<g id="a_node36"><a xlink:href="../../d3/d08/class_torc_pi_p_w_m_output.html" target="_top" xlink:title="A device to output PWM signals on the Raspberry Pi. ">
<polygon fill="white" stroke="black" points="640.5,-114.5 640.5,-133.5 739.5,-133.5 739.5,-114.5 640.5,-114.5"/>
<text text-anchor="middle" x="690" y="-121.5" font-family="Helvetica,sans-Serif" font-size="10.00">TorcPiPWMOutput</text>
</a>
</g>
</g>
<!-- Node33&#45;&gt;Node36 -->
<g id="edge35" class="edge"><title>Node33&#45;&gt;Node36</title>
<path fill="none" stroke="midnightblue" d="M561.261,-130.299C586.407,-129.059 615.978,-127.601 640.333,-126.4"/>
<polygon fill="midnightblue" stroke="midnightblue" points="560.96,-126.81 551.145,-130.798 561.305,-133.801 560.96,-126.81"/>
</g>
<!-- Node38 -->
<g id="node38" class="node"><title>Node38</title>
<g id="a_node38"><a xlink:href="../../d1/d71/class_torc_network_switch_output.html" target="_top" xlink:title="TorcNetworkSwitchOutput">
<polygon fill="white" stroke="black" points="621,-76.5 621,-95.5 759,-95.5 759,-76.5 621,-76.5"/>
<text text-anchor="middle" x="690" y="-83.5" font-family="Helvetica,sans-Serif" font-size="10.00">TorcNetworkSwitchOutput</text>
</a>
</g>
</g>
<!-- Node37&#45;&gt;Node38 -->
<g id="edge37" class="edge"><title>Node37&#45;&gt;Node38</title>
<path fill="none" stroke="midnightblue" d="M565.54,-86C583.151,-86 602.599,-86 620.748,-86"/>
<polygon fill="midnightblue" stroke="midnightblue" points="565.407,-82.5001 555.407,-86 565.407,-89.5001 565.407,-82.5001"/>
</g>
<!-- Node40 -->
<g id="node40" class="node"><title>Node40</title>
<g id="a_node40"><a xlink:href="../../dc/d7e/class_torc_pi_switch_output.html" target="_top" xlink:title="TorcPiSwitchOutput">
<polygon fill="white" stroke="black" points="636.5,-38.5 636.5,-57.5 743.5,-57.5 743.5,-38.5 636.5,-38.5"/>
<text text-anchor="middle" x="690" y="-45.5" font-family="Helvetica,sans-Serif" font-size="10.00">TorcPiSwitchOutput</text>
</a>
</g>
</g>
<!-- Node37&#45;&gt;Node40 -->
<g id="edge39" class="edge"><title>Node37&#45;&gt;Node40</title>
<path fill="none" stroke="midnightblue" d="M562.599,-74.319C588.48,-68.9301 618.815,-62.6139 643.279,-57.5201"/>
<polygon fill="midnightblue" stroke="midnightblue" points="561.629,-70.9459 552.552,-76.411 563.056,-77.799 561.629,-70.9459"/>
</g>
<!-- Node39 -->
<g id="node39" class="node"><title>Node39</title>
<g id="a_node39"><a xlink:href="../../d0/da9/class_torc_network_button_output.html" target="_top" xlink:title="A network output that mimics the behaviour of a mechanical push button. ">
<polygon fill="white" stroke="black" points="810,-76.5 810,-95.5 950,-95.5 950,-76.5 810,-76.5"/>
<text text-anchor="middle" x="880" y="-83.5" font-family="Helvetica,sans-Serif" font-size="10.00">TorcNetworkButtonOutput</text>
</a>
</g>
</g>
<!-- Node38&#45;&gt;Node39 -->
<g id="edge38" class="edge"><title>Node38&#45;&gt;Node39</title>
<path fill="none" stroke="midnightblue" d="M769.315,-86C782.761,-86 796.647,-86 809.832,-86"/>
<polygon fill="midnightblue" stroke="midnightblue" points="769.138,-82.5001 759.138,-86 769.138,-89.5001 769.138,-82.5001"/>
</g>
<!-- Node42 -->
<g id="node42" class="node"><title>Node42</title>
<g id="a_node42"><a xlink:href="../../d2/dd7/class_torc_network_temperature_output.html" target="_top" xlink:title="TorcNetworkTemperatureOutput">
<polygon fill="white" stroke="black" points="606,-0.5 606,-19.5 774,-19.5 774,-0.5 606,-0.5"/>
<text text-anchor="middle" x="690" y="-7.5" font-family="Helvetica,sans-Serif" font-size="10.00">TorcNetworkTemperatureOutput</text>
</a>
</g>
</g>
<!-- Node41&#45;&gt;Node42 -->
<g id="edge41" class="edge"><title>Node41&#45;&gt;Node42</title>
<path fill="none" stroke="midnightblue" d="M580.207,-21.3263C588.616,-20.4509 597.231,-19.554 605.753,-18.6669"/>
<polygon fill="midnightblue" stroke="midnightblue" points="579.657,-17.8646 570.073,-22.3814 580.382,-24.827 579.657,-17.8646"/>
</g>
<!-- Node46 -->
<g id="node46" class="node"><title>Node46</title>
<g id="a_node46"><a xlink:href="../../d0/d84/class_torc_setting_group.html" target="_top" xlink:title="High level group of related settings. ">
<polygon fill="white" stroke="black" points="306,-123.5 306,-142.5 405,-142.5 405,-123.5 306,-123.5"/>
<text text-anchor="middle" x="355.5" y="-130.5" font-family="Helvetica,sans-Serif" font-size="10.00">TorcSettingGroup</text>
</a>
</g>
</g>
<!-- Node45&#45;&gt;Node46 -->
<g id="edge45" class="edge"><title>Node45&#45;&gt;Node46</title>
<path fill="none" stroke="midnightblue" d="M258.774,-143.256C273.735,-141.653 290.517,-139.855 305.802,-138.218"/>
<polygon fill="midnightblue" stroke="midnightblue" points="258.318,-139.785 248.748,-144.331 259.064,-146.745 258.318,-139.785"/>
</g>
</g>
</svg>
