<?xml version="1.0" encoding="UTF-8" standalone="no"?>
<!DOCTYPE svg PUBLIC "-//W3C//DTD SVG 1.1//EN"
 "http://www.w3.org/Graphics/SVG/1.1/DTD/svg11.dtd">
<!-- Generated by graphviz version 2.38.0 (20140413.2041)
 -->
<!-- Title: torchttpservicetest.cpp Pages: 1 -->
<svg width="977pt" height="364pt"
 viewBox="0.00 0.00 977.00 364.00" xmlns="http://www.w3.org/2000/svg" xmlns:xlink="http://www.w3.org/1999/xlink">
<g id="graph0" class="graph" transform="scale(1 1) rotate(0) translate(4 360)">
<title>torchttpservicetest.cpp</title>
<polygon fill="white" stroke="none" points="-4,4 -4,-360 973,-360 973,4 -4,4"/>
<!-- Node1 -->
<g id="node1" class="node"><title>Node1</title>
<polygon fill="#bfbfbf" stroke="black" points="169.5,-336.5 169.5,-355.5 297.5,-355.5 297.5,-336.5 169.5,-336.5"/>
<text text-anchor="middle" x="233.5" y="-343.5" font-family="Helvetica,sans-Serif" font-size="10.00">torchttpservicetest.cpp</text>
</g>
<!-- Node2 -->
<g id="node2" class="node"><title>Node2</title>
<g id="a_node2"><a xlink:href="../../dd/dd5/torcadminthread_8h.html" target="_top" xlink:title="torcadminthread.h">
<polygon fill="white" stroke="black" points="47.5,-280.5 47.5,-299.5 153.5,-299.5 153.5,-280.5 47.5,-280.5"/>
<text text-anchor="middle" x="100.5" y="-287.5" font-family="Helvetica,sans-Serif" font-size="10.00">torcadminthread.h</text>
</a>
</g>
</g>
<!-- Node1&#45;&gt;Node2 -->
<g id="edge1" class="edge"><title>Node1&#45;&gt;Node2</title>
<path fill="none" stroke="midnightblue" d="M212.426,-336.444C190.44,-327.517 155.766,-313.439 130.836,-303.317"/>
<polygon fill="midnightblue" stroke="midnightblue" points="132.058,-300.035 121.476,-299.516 129.424,-306.521 132.058,-300.035"/>
</g>
<!-- Node6 -->
<g id="node6" class="node"><title>Node6</title>
<g id="a_node6"><a xlink:href="../../de/d82/torchttpservicetest_8h.html" target="_top" xlink:title="torchttpservicetest.h">
<polygon fill="white" stroke="black" points="309.5,-280.5 309.5,-299.5 425.5,-299.5 425.5,-280.5 309.5,-280.5"/>
<text text-anchor="middle" x="367.5" y="-287.5" font-family="Helvetica,sans-Serif" font-size="10.00">torchttpservicetest.h</text>
</a>
</g>
</g>
<!-- Node1&#45;&gt;Node6 -->
<g id="edge5" class="edge"><title>Node1&#45;&gt;Node6</title>
<path fill="none" stroke="midnightblue" d="M254.733,-336.444C276.884,-327.517 311.819,-313.439 336.936,-303.317"/>
<polygon fill="midnightblue" stroke="midnightblue" points="338.4,-306.501 346.367,-299.516 335.783,-300.008 338.4,-306.501"/>
</g>
<!-- Node3 -->
<g id="node3" class="node"><title>Node3</title>
<polygon fill="white" stroke="#bfbfbf" points="0,-224.5 0,-243.5 41,-243.5 41,-224.5 0,-224.5"/>
<text text-anchor="middle" x="20.5" y="-231.5" font-family="Helvetica,sans-Serif" font-size="10.00">QList</text>
</g>
<!-- Node2&#45;&gt;Node3 -->
<g id="edge2" class="edge"><title>Node2&#45;&gt;Node3</title>
<path fill="none" stroke="midnightblue" d="M87.6466,-280.324C75.2836,-271.979 56.3699,-259.212 41.7628,-249.352"/>
<polygon fill="midnightblue" stroke="midnightblue" points="43.5682,-246.348 33.3215,-243.655 39.6518,-252.15 43.5682,-246.348"/>
</g>
<!-- Node4 -->
<g id="node4" class="node"><title>Node4</title>
<g id="a_node4"><a xlink:href="../../dd/db0/torcqthread_8h.html" target="_top" xlink:title="torcqthread.h">
<polygon fill="white" stroke="black" points="59.5,-224.5 59.5,-243.5 141.5,-243.5 141.5,-224.5 59.5,-224.5"/>
<text text-anchor="middle" x="100.5" y="-231.5" font-family="Helvetica,sans-Serif" font-size="10.00">torcqthread.h</text>
</a>
</g>
</g>
<!-- Node2&#45;&gt;Node4 -->
<g id="edge3" class="edge"><title>Node2&#45;&gt;Node4</title>
<path fill="none" stroke="midnightblue" d="M100.5,-280.083C100.5,-273.006 100.5,-262.861 100.5,-253.986"/>
<polygon fill="midnightblue" stroke="midnightblue" points="104,-253.751 100.5,-243.751 97.0001,-253.751 104,-253.751"/>
</g>
<!-- Node5 -->
<g id="node5" class="node"><title>Node5</title>
<polygon fill="white" stroke="#bfbfbf" points="72,-168.5 72,-187.5 129,-187.5 129,-168.5 72,-168.5"/>
<text text-anchor="middle" x="100.5" y="-175.5" font-family="Helvetica,sans-Serif" font-size="10.00">QThread</text>
</g>
<!-- Node4&#45;&gt;Node5 -->
<g id="edge4" class="edge"><title>Node4&#45;&gt;Node5</title>
<path fill="none" stroke="midnightblue" d="M100.5,-224.083C100.5,-217.006 100.5,-206.861 100.5,-197.986"/>
<polygon fill="midnightblue" stroke="midnightblue" points="104,-197.751 100.5,-187.751 97.0001,-197.751 104,-197.751"/>
</g>
<!-- Node7 -->
<g id="node7" class="node"><title>Node7</title>
<polygon fill="white" stroke="#bfbfbf" points="160,-224.5 160,-243.5 215,-243.5 215,-224.5 160,-224.5"/>
<text text-anchor="middle" x="187.5" y="-231.5" font-family="Helvetica,sans-Serif" font-size="10.00">QObject</text>
</g>
<!-- Node6&#45;&gt;Node7 -->
<g id="edge6" class="edge"><title>Node6&#45;&gt;Node7</title>
<path fill="none" stroke="midnightblue" d="M338.978,-280.444C308.164,-271.199 258.932,-256.43 225.004,-246.251"/>
<polygon fill="midnightblue" stroke="midnightblue" points="225.587,-242.772 215.003,-243.251 223.575,-249.477 225.587,-242.772"/>
</g>
<!-- Node8 -->
<g id="node8" class="node"><title>Node8</title>
<polygon fill="white" stroke="#bfbfbf" points="179,-56.5 179,-75.5 250,-75.5 250,-56.5 179,-56.5"/>
<text text-anchor="middle" x="214.5" y="-63.5" font-family="Helvetica,sans-Serif" font-size="10.00">QDateTime</text>
</g>
<!-- Node6&#45;&gt;Node8 -->
<g id="edge7" class="edge"><title>Node6&#45;&gt;Node8</title>
<path fill="none" stroke="midnightblue" d="M361.502,-280.297C338.704,-247.217 257.167,-128.909 226.382,-84.2407"/>
<polygon fill="midnightblue" stroke="midnightblue" points="229.179,-82.1315 220.623,-75.8837 223.415,-86.1039 229.179,-82.1315"/>
</g>
<!-- Node9 -->
<g id="node9" class="node"><title>Node9</title>
<polygon fill="white" stroke="#bfbfbf" points="900,-224.5 900,-243.5 969,-243.5 969,-224.5 900,-224.5"/>
<text text-anchor="middle" x="934.5" y="-231.5" font-family="Helvetica,sans-Serif" font-size="10.00">QStringList</text>
</g>
<!-- Node6&#45;&gt;Node9 -->
<g id="edge8" class="edge"><title>Node6&#45;&gt;Node9</title>
<path fill="none" stroke="midnightblue" d="M425.574,-285.76C521.588,-280 719.331,-266.427 885.5,-244 886.802,-243.824 888.122,-243.638 889.453,-243.442"/>
<polygon fill="midnightblue" stroke="midnightblue" points="890.441,-246.829 899.767,-241.801 889.341,-239.916 890.441,-246.829"/>
</g>
<!-- Node10 -->
<g id="node10" class="node"><title>Node10</title>
<polygon fill="white" stroke="#bfbfbf" points="674.5,-112.5 674.5,-131.5 752.5,-131.5 752.5,-112.5 674.5,-112.5"/>
<text text-anchor="middle" x="713.5" y="-119.5" font-family="Helvetica,sans-Serif" font-size="10.00">QVariantMap</text>
</g>
<!-- Node6&#45;&gt;Node10 -->
<g id="edge9" class="edge"><title>Node6&#45;&gt;Node10</title>
<path fill="none" stroke="midnightblue" d="M425.726,-285.763C542.621,-277.92 799.253,-253.478 852.5,-188 880.49,-153.581 813.247,-136.436 762.826,-128.657"/>
<polygon fill="midnightblue" stroke="midnightblue" points="763.081,-125.157 752.681,-127.179 762.072,-132.084 763.081,-125.157"/>
</g>
<!-- Node11 -->
<g id="node11" class="node"><title>Node11</title>
<g id="a_node11"><a xlink:href="../../d3/dee/torchttpservice_8h.html" target="_top" xlink:title="torchttpservice.h">
<polygon fill="white" stroke="black" points="395.5,-224.5 395.5,-243.5 493.5,-243.5 493.5,-224.5 395.5,-224.5"/>
<text text-anchor="middle" x="444.5" y="-231.5" font-family="Helvetica,sans-Serif" font-size="10.00">torchttpservice.h</text>
</a>
</g>
</g>
<!-- Node6&#45;&gt;Node11 -->
<g id="edge10" class="edge"><title>Node6&#45;&gt;Node11</title>
<path fill="none" stroke="midnightblue" d="M379.871,-280.324C391.658,-272.058 409.632,-259.453 423.636,-249.632"/>
<polygon fill="midnightblue" stroke="midnightblue" points="425.982,-252.262 432.159,-243.655 421.962,-246.531 425.982,-252.262"/>
</g>
<!-- Node12 -->
<g id="node12" class="node"><title>Node12</title>
<polygon fill="white" stroke="#bfbfbf" points="268.5,-56.5 268.5,-75.5 312.5,-75.5 312.5,-56.5 268.5,-56.5"/>
<text text-anchor="middle" x="290.5" y="-63.5" font-family="Helvetica,sans-Serif" font-size="10.00">QMap</text>
</g>
<!-- Node11&#45;&gt;Node12 -->
<g id="edge11" class="edge"><title>Node11&#45;&gt;Node12</title>
<path fill="none" stroke="midnightblue" d="M404.122,-224.472C380.457,-217.798 351.238,-206.465 330.5,-188 300.848,-161.599 293.112,-112.757 291.137,-85.9071"/>
<polygon fill="midnightblue" stroke="midnightblue" points="294.613,-85.3753 290.586,-75.5758 287.623,-85.748 294.613,-85.3753"/>
</g>
<!-- Node13 -->
<g id="node13" class="node"><title>Node13</title>
<polygon fill="white" stroke="#bfbfbf" points="465,-168.5 465,-187.5 518,-187.5 518,-168.5 465,-168.5"/>
<text text-anchor="middle" x="491.5" y="-175.5" font-family="Helvetica,sans-Serif" font-size="10.00">QMutex</text>
</g>
<!-- Node11&#45;&gt;Node13 -->
<g id="edge12" class="edge"><title>Node11&#45;&gt;Node13</title>
<path fill="none" stroke="midnightblue" d="M452.261,-224.083C459.037,-216.298 469.043,-204.801 477.255,-195.367"/>
<polygon fill="midnightblue" stroke="midnightblue" points="479.958,-197.592 483.883,-187.751 474.678,-192.996 479.958,-197.592"/>
</g>
<!-- Node14 -->
<g id="node14" class="node"><title>Node14</title>
<polygon fill="white" stroke="#bfbfbf" points="536.5,-168.5 536.5,-187.5 628.5,-187.5 628.5,-168.5 536.5,-168.5"/>
<text text-anchor="middle" x="582.5" y="-175.5" font-family="Helvetica,sans-Serif" font-size="10.00">QReadWriteLock</text>
</g>
<!-- Node11&#45;&gt;Node14 -->
<g id="edge13" class="edge"><title>Node11&#45;&gt;Node14</title>
<path fill="none" stroke="midnightblue" d="M466.367,-224.444C489.279,-215.478 525.475,-201.314 551.366,-191.183"/>
<polygon fill="midnightblue" stroke="midnightblue" points="552.699,-194.42 560.736,-187.516 550.148,-187.901 552.699,-194.42"/>
</g>
<!-- Node15 -->
<g id="node15" class="node"><title>Node15</title>
<polygon fill="white" stroke="#bfbfbf" points="647,-168.5 647,-187.5 726,-187.5 726,-168.5 647,-168.5"/>
<text text-anchor="middle" x="686.5" y="-175.5" font-family="Helvetica,sans-Serif" font-size="10.00">QMetaObject</text>
</g>
<!-- Node11&#45;&gt;Node15 -->
<g id="edge14" class="edge"><title>Node11&#45;&gt;Node15</title>
<path fill="none" stroke="midnightblue" d="M482.846,-224.444C524.973,-215.043 592.706,-199.929 638.372,-189.739"/>
<polygon fill="midnightblue" stroke="midnightblue" points="639.336,-193.11 648.334,-187.516 637.812,-186.278 639.336,-193.11"/>
</g>
<!-- Node16 -->
<g id="node16" class="node"><title>Node16</title>
<polygon fill="white" stroke="#bfbfbf" points="744,-168.5 744,-187.5 843,-187.5 843,-168.5 744,-168.5"/>
<text text-anchor="middle" x="793.5" y="-175.5" font-family="Helvetica,sans-Serif" font-size="10.00">QCoreApplication</text>
</g>
<!-- Node11&#45;&gt;Node16 -->
<g id="edge15" class="edge"><title>Node11&#45;&gt;Node16</title>
<path fill="none" stroke="midnightblue" d="M493.763,-225.378C556.851,-215.616 666.099,-198.713 733.833,-188.232"/>
<polygon fill="midnightblue" stroke="midnightblue" points="734.577,-191.659 743.924,-186.671 733.506,-184.741 734.577,-191.659"/>
</g>
<!-- Node17 -->
<g id="node17" class="node"><title>Node17</title>
<g id="a_node17"><a xlink:href="../../d4/d11/torchttphandler_8h.html" target="_top" xlink:title="torchttphandler.h">
<polygon fill="white" stroke="black" points="348,-168.5 348,-187.5 447,-187.5 447,-168.5 348,-168.5"/>
<text text-anchor="middle" x="397.5" y="-175.5" font-family="Helvetica,sans-Serif" font-size="10.00">torchttphandler.h</text>
</a>
</g>
</g>
<!-- Node11&#45;&gt;Node17 -->
<g id="edge16" class="edge"><title>Node11&#45;&gt;Node17</title>
<path fill="none" stroke="midnightblue" d="M436.739,-224.083C429.963,-216.298 419.957,-204.801 411.745,-195.367"/>
<polygon fill="midnightblue" stroke="midnightblue" points="414.322,-192.996 405.117,-187.751 409.042,-197.592 414.322,-192.996"/>
</g>
<!-- Node19 -->
<g id="node19" class="node"><title>Node19</title>
<g id="a_node19"><a xlink:href="../../df/dd7/torchttprequest_8h.html" target="_top" xlink:title="torchttprequest.h">
<polygon fill="white" stroke="black" points="310,-112.5 310,-131.5 411,-131.5 411,-112.5 310,-112.5"/>
<text text-anchor="middle" x="360.5" y="-119.5" font-family="Helvetica,sans-Serif" font-size="10.00">torchttprequest.h</text>
</a>
</g>
</g>
<!-- Node11&#45;&gt;Node19 -->
<g id="edge27" class="edge"><title>Node11&#45;&gt;Node19</title>
<path fill="none" stroke="midnightblue" d="M395.277,-224.615C374.066,-218.296 351.244,-207.256 338.5,-188 328.683,-173.168 337.799,-153.528 347.104,-139.733"/>
<polygon fill="midnightblue" stroke="midnightblue" points="349.96,-141.756 353.048,-131.621 344.314,-137.619 349.96,-141.756"/>
</g>
<!-- Node17&#45;&gt;Node10 -->
<g id="edge18" class="edge"><title>Node17&#45;&gt;Node10</title>
<path fill="none" stroke="midnightblue" d="M447.223,-168.503C506.414,-158.388 604.669,-141.598 663.834,-131.487"/>
<polygon fill="midnightblue" stroke="midnightblue" points="664.784,-134.876 674.052,-129.741 663.605,-127.976 664.784,-134.876"/>
</g>
<!-- Node18 -->
<g id="node18" class="node"><title>Node18</title>
<polygon fill="white" stroke="#bfbfbf" points="503,-56.5 503,-75.5 556,-75.5 556,-56.5 503,-56.5"/>
<text text-anchor="middle" x="529.5" y="-63.5" font-family="Helvetica,sans-Serif" font-size="10.00">QString</text>
</g>
<!-- Node17&#45;&gt;Node18 -->
<g id="edge17" class="edge"><title>Node17&#45;&gt;Node18</title>
<path fill="none" stroke="midnightblue" d="M407.858,-168.368C430.22,-149.733 483.261,-105.532 511.339,-82.1338"/>
<polygon fill="midnightblue" stroke="midnightblue" points="513.749,-84.6821 519.19,-75.5914 509.267,-79.3045 513.749,-84.6821"/>
</g>
<!-- Node17&#45;&gt;Node19 -->
<g id="edge19" class="edge"><title>Node17&#45;&gt;Node19</title>
<path fill="none" stroke="midnightblue" d="M391.39,-168.083C386.218,-160.534 378.654,-149.495 372.306,-140.23"/>
<polygon fill="midnightblue" stroke="midnightblue" points="375.036,-138.022 366.496,-131.751 369.261,-141.979 375.036,-138.022"/>
</g>
<!-- Node19&#45;&gt;Node8 -->
<g id="edge23" class="edge"><title>Node19&#45;&gt;Node8</title>
<path fill="none" stroke="midnightblue" d="M337.366,-112.444C313.018,-103.438 274.493,-89.1891 247.077,-79.049"/>
<polygon fill="midnightblue" stroke="midnightblue" points="248.119,-75.7028 237.526,-75.5164 245.691,-82.2681 248.119,-75.7028"/>
</g>
<!-- Node19&#45;&gt;Node12 -->
<g id="edge20" class="edge"><title>Node19&#45;&gt;Node12</title>
<path fill="none" stroke="midnightblue" d="M349.253,-112.324C338.703,-104.185 322.699,-91.8395 310.058,-82.0874"/>
<polygon fill="midnightblue" stroke="midnightblue" points="312.007,-79.1707 301.951,-75.8339 307.731,-84.7132 312.007,-79.1707"/>
</g>
<!-- Node19&#45;&gt;Node18 -->
<g id="edge22" class="edge"><title>Node19&#45;&gt;Node18</title>
<path fill="none" stroke="midnightblue" d="M387.279,-112.444C415.833,-103.32 461.233,-88.8133 493.037,-78.6509"/>
<polygon fill="midnightblue" stroke="midnightblue" points="494.386,-81.8941 502.847,-75.5164 492.256,-75.2262 494.386,-81.8941"/>
</g>
<!-- Node20 -->
<g id="node20" class="node"><title>Node20</title>
<polygon fill="white" stroke="#bfbfbf" points="331,-56.5 331,-75.5 372,-75.5 372,-56.5 331,-56.5"/>
<text text-anchor="middle" x="351.5" y="-63.5" font-family="Helvetica,sans-Serif" font-size="10.00">QPair</text>
</g>
<!-- Node19&#45;&gt;Node20 -->
<g id="edge21" class="edge"><title>Node19&#45;&gt;Node20</title>
<path fill="none" stroke="midnightblue" d="M359.014,-112.083C357.821,-104.927 356.106,-94.6353 354.615,-85.6911"/>
<polygon fill="midnightblue" stroke="midnightblue" points="358.055,-85.0396 352.959,-75.7511 351.15,-86.1904 358.055,-85.0396"/>
</g>
<!-- Node21 -->
<g id="node21" class="node"><title>Node21</title>
<g id="a_node21"><a xlink:href="../../de/de6/torchttpreader_8h.html" target="_top" xlink:title="torchttpreader.h">
<polygon fill="white" stroke="black" points="390,-56.5 390,-75.5 485,-75.5 485,-56.5 390,-56.5"/>
<text text-anchor="middle" x="437.5" y="-63.5" font-family="Helvetica,sans-Serif" font-size="10.00">torchttpreader.h</text>
</a>
</g>
</g>
<!-- Node19&#45;&gt;Node21 -->
<g id="edge24" class="edge"><title>Node19&#45;&gt;Node21</title>
<path fill="none" stroke="midnightblue" d="M372.871,-112.324C384.658,-104.058 402.632,-91.4527 416.636,-81.6322"/>
<polygon fill="midnightblue" stroke="midnightblue" points="418.982,-84.2619 425.159,-75.6545 414.962,-78.5307 418.982,-84.2619"/>
</g>
<!-- Node22 -->
<g id="node22" class="node"><title>Node22</title>
<polygon fill="white" stroke="#bfbfbf" points="357,-0.5 357,-19.5 428,-19.5 428,-0.5 357,-0.5"/>
<text text-anchor="middle" x="392.5" y="-7.5" font-family="Helvetica,sans-Serif" font-size="10.00">QByteArray</text>
</g>
<!-- Node21&#45;&gt;Node22 -->
<g id="edge25" class="edge"><title>Node21&#45;&gt;Node22</title>
<path fill="none" stroke="midnightblue" d="M430.069,-56.083C423.647,-48.3768 414.194,-37.0333 406.378,-27.6531"/>
<polygon fill="midnightblue" stroke="midnightblue" points="408.883,-25.1927 399.793,-19.7511 403.506,-29.674 408.883,-25.1927"/>
</g>
<!-- Node23 -->
<g id="node23" class="node"><title>Node23</title>
<polygon fill="white" stroke="#bfbfbf" points="446.5,-0.5 446.5,-19.5 518.5,-19.5 518.5,-0.5 446.5,-0.5"/>
<text text-anchor="middle" x="482.5" y="-7.5" font-family="Helvetica,sans-Serif" font-size="10.00">QTcpSocket</text>
</g>
<!-- Node21&#45;&gt;Node23 -->
<g id="edge26" class="edge"><title>Node21&#45;&gt;Node23</title>
<path fill="none" stroke="midnightblue" d="M444.931,-56.083C451.353,-48.3768 460.806,-37.0333 468.622,-27.6531"/>
<polygon fill="midnightblue" stroke="midnightblue" points="471.494,-29.674 475.207,-19.7511 466.117,-25.1927 471.494,-29.674"/>
</g>
</g>
</svg>
