<?xml version="1.0" encoding="UTF-8" standalone="no"?>
<!DOCTYPE svg PUBLIC "-//W3C//DTD SVG 1.1//EN"
 "http://www.w3.org/Graphics/SVG/1.1/DTD/svg11.dtd">
<!-- Generated by graphviz version 2.38.0 (20140413.2041)
 -->
<!-- Title: torchttpservicetest.cpp Pages: 1 -->
<!--zoomable 364 -->
<svg id="main" version="1.1" xmlns="http://www.w3.org/2000/svg" xmlns:xlink="http://www.w3.org/1999/xlink" xml:space="preserve" onload="init(evt)">
<style type="text/css"><![CDATA[
.edge:hover path { stroke: red; }
.edge:hover polygon { stroke: red; fill: red; }
]]></style>
<script type="text/javascript"><![CDATA[
var edges = document.getElementsByTagName('g');
if (edges && edges.length) {
  for (var i=0;i<edges.length;i++) {
    if (edges[i].id.substr(0,4)=='edge') {
      edges[i].setAttribute('class','edge');
    }
  }
}
]]></script>
        <defs>
                <circle id="rim" cx="0" cy="0" r="7"/>
                <circle id="rim2" cx="0" cy="0" r="3.5"/>
                <g id="zoomPlus">
                        <use xlink:href="#rim" fill="#404040">
                                <set attributeName="fill" to="#808080" begin="zoomplus.mouseover" end="zoomplus.mouseout"/>
                        </use>
                        <path d="M-4,0h8M0,-4v8" fill="none" stroke="white" stroke-width="1.5" pointer-events="none"/>
                </g>
                <g id="zoomMin">
                        <use xlink:href="#rim" fill="#404040">
                                <set attributeName="fill" to="#808080" begin="zoomminus.mouseover" end="zoomminus.mouseout"/>
                        </use>
                        <path d="M-4,0h8" fill="none" stroke="white" stroke-width="1.5" pointer-events="none"/>
                </g>
                <g id="dirArrow">
                        <path fill="none" stroke="white" stroke-width="1.5" d="M0,-3.0v7 M-2.5,-0.5L0,-3.0L2.5,-0.5"/>
                </g>
               <g id="resetDef">
                       <use xlink:href="#rim2" fill="#404040">
                               <set attributeName="fill" to="#808080" begin="reset.mouseover" end="reset.mouseout"/>
                       </use>
               </g>
        </defs>

<script type="text/javascript">
var viewWidth = 859;
var viewHeight = 364;
var sectionId = 'dynsection-0';
</script>
<script xlink:href="../../svgpan.js"/>
<svg id="graph" class="graph">
<g id="viewport">
<title>torchttpservicetest.cpp</title>
<polygon fill="white" stroke="none" points="-4,4 -4,-360 854.5,-360 854.5,4 -4,4"/>
<!-- Node1 -->
<g id="node1" class="node"><title>Node1</title>
<polygon fill="#bfbfbf" stroke="black" points="137.5,-336.5 137.5,-355.5 265.5,-355.5 265.5,-336.5 137.5,-336.5"/>
<text text-anchor="middle" x="201.5" y="-343.5" font-family="Helvetica,sans-Serif" font-size="10.00">torchttpservicetest.cpp</text>
</g>
<!-- Node2 -->
<g id="node2" class="node"><title>Node2</title>
<g id="a_node2"><a xlink:href="../../dd/dd5/torcadminthread_8h.html" target="_top" xlink:title="torcadminthread.h">
<polygon fill="white" stroke="black" points="47.5,-280.5 47.5,-299.5 153.5,-299.5 153.5,-280.5 47.5,-280.5"/>
<text text-anchor="middle" x="100.5" y="-287.5" font-family="Helvetica,sans-Serif" font-size="10.00">torcadminthread.h</text>
</a>
</g>
</g>
<!-- Node1&#45;&gt;Node2 -->
<g id="edge1" class="edge"><title>Node1&#45;&gt;Node2</title>
<path fill="none" stroke="midnightblue" d="M185.273,-336.324C169.149,-327.703 144.2,-314.364 125.536,-304.386"/>
<polygon fill="midnightblue" stroke="midnightblue" points="127.156,-301.283 116.687,-299.655 123.856,-307.456 127.156,-301.283"/>
</g>
<!-- Node6 -->
<g id="node6" class="node"><title>Node6</title>
<g id="a_node6"><a xlink:href="../../de/d82/torchttpservicetest_8h.html" target="_top" xlink:title="torchttpservicetest.h">
<polygon fill="white" stroke="black" points="244.5,-280.5 244.5,-299.5 360.5,-299.5 360.5,-280.5 244.5,-280.5"/>
<text text-anchor="middle" x="302.5" y="-287.5" font-family="Helvetica,sans-Serif" font-size="10.00">torchttpservicetest.h</text>
</a>
</g>
</g>
<!-- Node1&#45;&gt;Node6 -->
<g id="edge5" class="edge"><title>Node1&#45;&gt;Node6</title>
<path fill="none" stroke="midnightblue" d="M217.727,-336.324C233.851,-327.703 258.8,-314.364 277.464,-304.386"/>
<polygon fill="midnightblue" stroke="midnightblue" points="279.144,-307.456 286.313,-299.655 275.844,-301.283 279.144,-307.456"/>
</g>
<!-- Node3 -->
<g id="node3" class="node"><title>Node3</title>
<polygon fill="white" stroke="#bfbfbf" points="0,-224.5 0,-243.5 41,-243.5 41,-224.5 0,-224.5"/>
<text text-anchor="middle" x="20.5" y="-231.5" font-family="Helvetica,sans-Serif" font-size="10.00">QList</text>
</g>
<!-- Node2&#45;&gt;Node3 -->
<g id="edge2" class="edge"><title>Node2&#45;&gt;Node3</title>
<path fill="none" stroke="midnightblue" d="M87.6466,-280.324C75.2836,-271.979 56.3699,-259.212 41.7628,-249.352"/>
<polygon fill="midnightblue" stroke="midnightblue" points="43.5682,-246.348 33.3215,-243.655 39.6518,-252.15 43.5682,-246.348"/>
</g>
<!-- Node4 -->
<g id="node4" class="node"><title>Node4</title>
<g id="a_node4"><a xlink:href="../../dd/db0/torcqthread_8h.html" target="_top" xlink:title="torcqthread.h">
<polygon fill="white" stroke="black" points="59.5,-224.5 59.5,-243.5 141.5,-243.5 141.5,-224.5 59.5,-224.5"/>
<text text-anchor="middle" x="100.5" y="-231.5" font-family="Helvetica,sans-Serif" font-size="10.00">torcqthread.h</text>
</a>
</g>
</g>
<!-- Node2&#45;&gt;Node4 -->
<g id="edge3" class="edge"><title>Node2&#45;&gt;Node4</title>
<path fill="none" stroke="midnightblue" d="M100.5,-280.083C100.5,-273.006 100.5,-262.861 100.5,-253.986"/>
<polygon fill="midnightblue" stroke="midnightblue" points="104,-253.751 100.5,-243.751 97.0001,-253.751 104,-253.751"/>
</g>
<!-- Node5 -->
<g id="node5" class="node"><title>Node5</title>
<polygon fill="white" stroke="#bfbfbf" points="72,-168.5 72,-187.5 129,-187.5 129,-168.5 72,-168.5"/>
<text text-anchor="middle" x="100.5" y="-175.5" font-family="Helvetica,sans-Serif" font-size="10.00">QThread</text>
</g>
<!-- Node4&#45;&gt;Node5 -->
<g id="edge4" class="edge"><title>Node4&#45;&gt;Node5</title>
<path fill="none" stroke="midnightblue" d="M100.5,-224.083C100.5,-217.006 100.5,-206.861 100.5,-197.986"/>
<polygon fill="midnightblue" stroke="midnightblue" points="104,-197.751 100.5,-187.751 97.0001,-197.751 104,-197.751"/>
</g>
<!-- Node7 -->
<g id="node7" class="node"><title>Node7</title>
<polygon fill="white" stroke="#bfbfbf" points="247,-224.5 247,-243.5 302,-243.5 302,-224.5 247,-224.5"/>
<text text-anchor="middle" x="274.5" y="-231.5" font-family="Helvetica,sans-Serif" font-size="10.00">QObject</text>
</g>
<!-- Node6&#45;&gt;Node7 -->
<g id="edge6" class="edge"><title>Node6&#45;&gt;Node7</title>
<path fill="none" stroke="midnightblue" d="M297.876,-280.083C294.044,-272.691 288.476,-261.953 283.735,-252.811"/>
<polygon fill="midnightblue" stroke="midnightblue" points="286.748,-251.018 279.038,-243.751 280.534,-254.24 286.748,-251.018"/>
</g>
<!-- Node8 -->
<g id="node8" class="node"><title>Node8</title>
<polygon fill="white" stroke="#bfbfbf" points="371,-56.5 371,-75.5 442,-75.5 442,-56.5 371,-56.5"/>
<text text-anchor="middle" x="406.5" y="-63.5" font-family="Helvetica,sans-Serif" font-size="10.00">QDateTime</text>
</g>
<!-- Node6&#45;&gt;Node8 -->
<g id="edge7" class="edge"><title>Node6&#45;&gt;Node8</title>
<path fill="none" stroke="midnightblue" d="M306.577,-280.297C321.977,-247.425 376.803,-130.391 398.025,-85.0904"/>
<polygon fill="midnightblue" stroke="midnightblue" points="401.265,-86.4241 402.338,-75.8837 394.926,-83.4545 401.265,-86.4241"/>
</g>
<!-- Node9 -->
<g id="node9" class="node"><title>Node9</title>
<polygon fill="white" stroke="#bfbfbf" points="160,-224.5 160,-243.5 229,-243.5 229,-224.5 160,-224.5"/>
<text text-anchor="middle" x="194.5" y="-231.5" font-family="Helvetica,sans-Serif" font-size="10.00">QStringList</text>
</g>
<!-- Node6&#45;&gt;Node9 -->
<g id="edge8" class="edge"><title>Node6&#45;&gt;Node9</title>
<path fill="none" stroke="midnightblue" d="M285.148,-280.324C267.828,-271.664 240.985,-258.242 220.998,-248.249"/>
<polygon fill="midnightblue" stroke="midnightblue" points="222.319,-244.996 211.809,-243.655 219.188,-251.257 222.319,-244.996"/>
</g>
<!-- Node10 -->
<g id="node10" class="node"><title>Node10</title>
<polygon fill="white" stroke="#bfbfbf" points="407.5,-112.5 407.5,-131.5 485.5,-131.5 485.5,-112.5 407.5,-112.5"/>
<text text-anchor="middle" x="446.5" y="-119.5" font-family="Helvetica,sans-Serif" font-size="10.00">QVariantMap</text>
</g>
<!-- Node6&#45;&gt;Node10 -->
<g id="edge9" class="edge"><title>Node6&#45;&gt;Node10</title>
<path fill="none" stroke="midnightblue" d="M311.862,-280.251C320.855,-271.565 334.513,-257.614 344.5,-244 367.455,-212.708 361.996,-197.253 387.5,-168 397.889,-156.084 411.876,-145.251 423.623,-137.202"/>
<polygon fill="midnightblue" stroke="midnightblue" points="425.661,-140.051 432.074,-131.617 421.801,-134.211 425.661,-140.051"/>
</g>
<!-- Node11 -->
<g id="node11" class="node"><title>Node11</title>
<g id="a_node11"><a xlink:href="../../d3/dee/torchttpservice_8h.html" target="_top" xlink:title="torchttpservice.h">
<polygon fill="white" stroke="black" points="592.5,-224.5 592.5,-243.5 690.5,-243.5 690.5,-224.5 592.5,-224.5"/>
<text text-anchor="middle" x="641.5" y="-231.5" font-family="Helvetica,sans-Serif" font-size="10.00">torchttpservice.h</text>
</a>
</g>
</g>
<!-- Node6&#45;&gt;Node11 -->
<g id="edge10" class="edge"><title>Node6&#45;&gt;Node11</title>
<path fill="none" stroke="midnightblue" d="M356.216,-280.444C417.887,-270.62 518.73,-254.556 582.529,-244.394"/>
<polygon fill="midnightblue" stroke="midnightblue" points="583.114,-247.845 592.439,-242.815 582.012,-240.932 583.114,-247.845"/>
</g>
<!-- Node12 -->
<g id="node12" class="node"><title>Node12</title>
<polygon fill="white" stroke="#bfbfbf" points="806.5,-56.5 806.5,-75.5 850.5,-75.5 850.5,-56.5 806.5,-56.5"/>
<text text-anchor="middle" x="828.5" y="-63.5" font-family="Helvetica,sans-Serif" font-size="10.00">QMap</text>
</g>
<!-- Node11&#45;&gt;Node12 -->
<g id="edge11" class="edge"><title>Node11&#45;&gt;Node12</title>
<path fill="none" stroke="midnightblue" d="M690.742,-228.057C740.535,-221.922 812.507,-209.54 829.5,-188 852.725,-158.56 843.076,-111.347 835.105,-85.4595"/>
<polygon fill="midnightblue" stroke="midnightblue" points="838.366,-84.1719 831.893,-75.7844 831.722,-86.3779 838.366,-84.1719"/>
</g>
<!-- Node13 -->
<g id="node13" class="node"><title>Node13</title>
<polygon fill="white" stroke="#bfbfbf" points="670,-168.5 670,-187.5 723,-187.5 723,-168.5 670,-168.5"/>
<text text-anchor="middle" x="696.5" y="-175.5" font-family="Helvetica,sans-Serif" font-size="10.00">QMutex</text>
</g>
<!-- Node11&#45;&gt;Node13 -->
<g id="edge12" class="edge"><title>Node11&#45;&gt;Node13</title>
<path fill="none" stroke="midnightblue" d="M650.582,-224.083C658.671,-216.141 670.695,-204.335 680.41,-194.797"/>
<polygon fill="midnightblue" stroke="midnightblue" points="682.903,-197.254 687.587,-187.751 677.999,-192.26 682.903,-197.254"/>
</g>
<!-- Node14 -->
<g id="node14" class="node"><title>Node14</title>
<polygon fill="white" stroke="#bfbfbf" points="741,-168.5 741,-187.5 820,-187.5 820,-168.5 741,-168.5"/>
<text text-anchor="middle" x="780.5" y="-175.5" font-family="Helvetica,sans-Serif" font-size="10.00">QMetaObject</text>
</g>
<!-- Node11&#45;&gt;Node14 -->
<g id="edge13" class="edge"><title>Node11&#45;&gt;Node14</title>
<path fill="none" stroke="midnightblue" d="M663.525,-224.444C686.604,-215.478 723.062,-201.314 749.141,-191.183"/>
<polygon fill="midnightblue" stroke="midnightblue" points="750.524,-194.4 758.578,-187.516 747.989,-187.875 750.524,-194.4"/>
</g>
<!-- Node15 -->
<g id="node15" class="node"><title>Node15</title>
<polygon fill="white" stroke="#bfbfbf" points="397,-168.5 397,-187.5 496,-187.5 496,-168.5 397,-168.5"/>
<text text-anchor="middle" x="446.5" y="-175.5" font-family="Helvetica,sans-Serif" font-size="10.00">QCoreApplication</text>
</g>
<!-- Node11&#45;&gt;Node15 -->
<g id="edge14" class="edge"><title>Node11&#45;&gt;Node15</title>
<path fill="none" stroke="midnightblue" d="M610.602,-224.444C577.226,-215.201 523.906,-200.436 487.151,-190.257"/>
<polygon fill="midnightblue" stroke="midnightblue" points="487.825,-186.812 477.254,-187.516 485.957,-193.558 487.825,-186.812"/>
</g>
<!-- Node16 -->
<g id="node16" class="node"><title>Node16</title>
<g id="a_node16"><a xlink:href="../../d4/d11/torchttphandler_8h.html" target="_top" xlink:title="torchttphandler.h">
<polygon fill="white" stroke="black" points="514,-168.5 514,-187.5 613,-187.5 613,-168.5 514,-168.5"/>
<text text-anchor="middle" x="563.5" y="-175.5" font-family="Helvetica,sans-Serif" font-size="10.00">torchttphandler.h</text>
</a>
</g>
</g>
<!-- Node11&#45;&gt;Node16 -->
<g id="edge15" class="edge"><title>Node11&#45;&gt;Node16</title>
<path fill="none" stroke="midnightblue" d="M628.968,-224.324C616.914,-215.979 598.473,-203.212 584.231,-193.352"/>
<polygon fill="midnightblue" stroke="midnightblue" points="586.215,-190.469 576.001,-187.655 582.231,-196.224 586.215,-190.469"/>
</g>
<!-- Node18 -->
<g id="node18" class="node"><title>Node18</title>
<g id="a_node18"><a xlink:href="../../df/dd7/torchttprequest_8h.html" target="_top" xlink:title="torchttprequest.h">
<polygon fill="white" stroke="black" points="591,-112.5 591,-131.5 692,-131.5 692,-112.5 591,-112.5"/>
<text text-anchor="middle" x="641.5" y="-119.5" font-family="Helvetica,sans-Serif" font-size="10.00">torchttprequest.h</text>
</a>
</g>
</g>
<!-- Node11&#45;&gt;Node18 -->
<g id="edge26" class="edge"><title>Node11&#45;&gt;Node18</title>
<path fill="none" stroke="midnightblue" d="M641.5,-224.368C641.5,-206.617 641.5,-165.666 641.5,-141.597"/>
<polygon fill="midnightblue" stroke="midnightblue" points="645,-141.591 641.5,-131.591 638,-141.591 645,-141.591"/>
</g>
<!-- Node16&#45;&gt;Node10 -->
<g id="edge17" class="edge"><title>Node16&#45;&gt;Node10</title>
<path fill="none" stroke="midnightblue" d="M544.961,-168.444C525.877,-159.636 495.925,-145.812 474.064,-135.722"/>
<polygon fill="midnightblue" stroke="midnightblue" points="475.499,-132.529 464.952,-131.516 472.565,-138.885 475.499,-132.529"/>
</g>
<!-- Node17 -->
<g id="node17" class="node"><title>Node17</title>
<polygon fill="white" stroke="#bfbfbf" points="539,-56.5 539,-75.5 592,-75.5 592,-56.5 539,-56.5"/>
<text text-anchor="middle" x="565.5" y="-63.5" font-family="Helvetica,sans-Serif" font-size="10.00">QString</text>
</g>
<!-- Node16&#45;&gt;Node17 -->
<g id="edge16" class="edge"><title>Node16&#45;&gt;Node17</title>
<path fill="none" stroke="midnightblue" d="M563.657,-168.368C563.98,-150.617 564.724,-109.666 565.162,-85.5974"/>
<polygon fill="midnightblue" stroke="midnightblue" points="568.661,-85.6534 565.344,-75.5914 561.662,-85.5261 568.661,-85.6534"/>
</g>
<!-- Node16&#45;&gt;Node18 -->
<g id="edge18" class="edge"><title>Node16&#45;&gt;Node18</title>
<path fill="none" stroke="midnightblue" d="M576.032,-168.324C588.086,-159.979 606.527,-147.212 620.769,-137.352"/>
<polygon fill="midnightblue" stroke="midnightblue" points="622.769,-140.224 628.999,-131.655 618.785,-134.469 622.769,-140.224"/>
</g>
<!-- Node18&#45;&gt;Node8 -->
<g id="edge22" class="edge"><title>Node18&#45;&gt;Node8</title>
<path fill="none" stroke="midnightblue" d="M604.264,-112.444C562.96,-102.953 496.31,-87.6372 451.96,-77.446"/>
<polygon fill="midnightblue" stroke="midnightblue" points="452.554,-73.9914 442.024,-75.1629 450.986,-80.8136 452.554,-73.9914"/>
</g>
<!-- Node18&#45;&gt;Node12 -->
<g id="edge19" class="edge"><title>Node18&#45;&gt;Node12</title>
<path fill="none" stroke="midnightblue" d="M671.131,-112.444C705.343,-102.564 761.411,-86.3734 796.569,-76.2208"/>
<polygon fill="midnightblue" stroke="midnightblue" points="797.692,-79.5396 806.328,-73.4026 795.75,-72.8144 797.692,-79.5396"/>
</g>
<!-- Node18&#45;&gt;Node17 -->
<g id="edge21" class="edge"><title>Node18&#45;&gt;Node17</title>
<path fill="none" stroke="midnightblue" d="M629.289,-112.324C617.724,-104.107 600.125,-91.6017 586.339,-81.8069"/>
<polygon fill="midnightblue" stroke="midnightblue" points="588.112,-78.7729 577.933,-75.8339 584.057,-84.4791 588.112,-78.7729"/>
</g>
<!-- Node19 -->
<g id="node19" class="node"><title>Node19</title>
<polygon fill="white" stroke="#bfbfbf" points="617,-56.5 617,-75.5 658,-75.5 658,-56.5 617,-56.5"/>
<text text-anchor="middle" x="637.5" y="-63.5" font-family="Helvetica,sans-Serif" font-size="10.00">QPair</text>
</g>
<!-- Node18&#45;&gt;Node19 -->
<g id="edge20" class="edge"><title>Node18&#45;&gt;Node19</title>
<path fill="none" stroke="midnightblue" d="M640.839,-112.083C640.315,-105.006 639.564,-94.8611 638.906,-85.9865"/>
<polygon fill="midnightblue" stroke="midnightblue" points="642.377,-85.4652 638.148,-75.7511 635.397,-85.9823 642.377,-85.4652"/>
</g>
<!-- Node20 -->
<g id="node20" class="node"><title>Node20</title>
<g id="a_node20"><a xlink:href="../../de/de6/torchttpreader_8h.html" target="_top" xlink:title="torchttpreader.h">
<polygon fill="white" stroke="black" points="676,-56.5 676,-75.5 771,-75.5 771,-56.5 676,-56.5"/>
<text text-anchor="middle" x="723.5" y="-63.5" font-family="Helvetica,sans-Serif" font-size="10.00">torchttpreader.h</text>
</a>
</g>
</g>
<!-- Node18&#45;&gt;Node20 -->
<g id="edge23" class="edge"><title>Node18&#45;&gt;Node20</title>
<path fill="none" stroke="midnightblue" d="M654.675,-112.324C667.347,-103.979 686.733,-91.2122 701.706,-81.3524"/>
<polygon fill="midnightblue" stroke="midnightblue" points="703.931,-84.0776 710.358,-75.6545 700.081,-78.2313 703.931,-84.0776"/>
</g>
<!-- Node21 -->
<g id="node21" class="node"><title>Node21</title>
<polygon fill="white" stroke="#bfbfbf" points="643,-0.5 643,-19.5 714,-19.5 714,-0.5 643,-0.5"/>
<text text-anchor="middle" x="678.5" y="-7.5" font-family="Helvetica,sans-Serif" font-size="10.00">QByteArray</text>
</g>
<!-- Node20&#45;&gt;Node21 -->
<g id="edge24" class="edge"><title>Node20&#45;&gt;Node21</title>
<path fill="none" stroke="midnightblue" d="M716.069,-56.083C709.647,-48.3768 700.194,-37.0333 692.378,-27.6531"/>
<polygon fill="midnightblue" stroke="midnightblue" points="694.883,-25.1927 685.793,-19.7511 689.506,-29.674 694.883,-25.1927"/>
</g>
<!-- Node22 -->
<g id="node22" class="node"><title>Node22</title>
<polygon fill="white" stroke="#bfbfbf" points="732.5,-0.5 732.5,-19.5 804.5,-19.5 804.5,-0.5 732.5,-0.5"/>
<text text-anchor="middle" x="768.5" y="-7.5" font-family="Helvetica,sans-Serif" font-size="10.00">QTcpSocket</text>
</g>
<!-- Node20&#45;&gt;Node22 -->
<g id="edge25" class="edge"><title>Node20&#45;&gt;Node22</title>
<path fill="none" stroke="midnightblue" d="M730.931,-56.083C737.353,-48.3768 746.806,-37.0333 754.622,-27.6531"/>
<polygon fill="midnightblue" stroke="midnightblue" points="757.494,-29.674 761.207,-19.7511 752.117,-25.1927 757.494,-29.674"/>
</g>
</g>
</svg>
        <g id="navigator" transform="translate(0 0)" fill="#404254">
                <rect fill="#f2f5e9" fill-opacity="0.5" stroke="#606060" stroke-width=".5" x="0" y="0" width="60" height="60"/>
                <use id="zoomplus" xlink:href="#zoomPlus" x="17" y="9" onmousedown="handleZoom(evt,'in')"/>
                <use id="zoomminus" xlink:href="#zoomMin" x="42" y="9" onmousedown="handleZoom(evt,'out')"/>
                <use id="reset" xlink:href="#resetDef" x="30" y="36" onmousedown="handleReset()"/>
                <g id="arrowUp" xlink:href="#dirArrow" transform="translate(30 24)" onmousedown="handlePan(0,-1)">
                  <use xlink:href="#rim" fill="#404040">
                        <set attributeName="fill" to="#808080" begin="arrowUp.mouseover" end="arrowUp.mouseout"/>
                  </use>
                  <path fill="none" stroke="white" stroke-width="1.5" d="M0,-3.0v7 M-2.5,-0.5L0,-3.0L2.5,-0.5"/>
                </g>
                <g id="arrowRight" xlink:href="#dirArrow" transform="rotate(90) translate(36 -43)" onmousedown="handlePan(1,0)">
                  <use xlink:href="#rim" fill="#404040">
                        <set attributeName="fill" to="#808080" begin="arrowRight.mouseover" end="arrowRight.mouseout"/>
                  </use>
                  <path fill="none" stroke="white" stroke-width="1.5" d="M0,-3.0v7 M-2.5,-0.5L0,-3.0L2.5,-0.5"/>
                </g>
                <g id="arrowDown" xlink:href="#dirArrow" transform="rotate(180) translate(-30 -48)" onmousedown="handlePan(0,1)">
                  <use xlink:href="#rim" fill="#404040">
                        <set attributeName="fill" to="#808080" begin="arrowDown.mouseover" end="arrowDown.mouseout"/>
                  </use>
                  <path fill="none" stroke="white" stroke-width="1.5" d="M0,-3.0v7 M-2.5,-0.5L0,-3.0L2.5,-0.5"/>
                </g>
                <g id="arrowLeft" xlink:href="#dirArrow" transform="rotate(270) translate(-36 17)" onmousedown="handlePan(-1,0)">
                  <use xlink:href="#rim" fill="#404040">
                        <set attributeName="fill" to="#808080" begin="arrowLeft.mouseover" end="arrowLeft.mouseout"/>
                  </use>
                  <path fill="none" stroke="white" stroke-width="1.5" d="M0,-3.0v7 M-2.5,-0.5L0,-3.0L2.5,-0.5"/>
                </g>
        </g>
        <svg viewBox="0 0 15 15" width="100%" height="30px" preserveAspectRatio="xMaxYMin meet">
         <g id="arrow_out" transform="scale(0.3 0.3)">
          <a xlink:href="torchttpservicetest_8cpp__incl_org.svg" target="_base">
           <rect id="button" ry="5" rx="5" y="6" x="6" height="38" width="38"
                fill="#f2f5e9" fill-opacity="0.5" stroke="#606060" stroke-width="1.0"/>
           <path id="arrow"
             d="M 11.500037,31.436501 C 11.940474,20.09759 22.043105,11.32322 32.158766,21.979434 L 37.068811,17.246167 C 37.068811,17.246167 37.088388,32 37.088388,32 L 22.160133,31.978069 C 22.160133,31.978069 26.997745,27.140456 26.997745,27.140456 C 18.528582,18.264221 13.291696,25.230495 11.500037,31.436501 z"
             style="fill:#404040;"/>
          </a>
         </g>
        </svg>
</svg>
