<?xml version="1.0" encoding="UTF-8" standalone="no"?>
<!DOCTYPE svg PUBLIC "-//W3C//DTD SVG 1.1//EN"
 "http://www.w3.org/Graphics/SVG/1.1/DTD/svg11.dtd">
<!-- Generated by graphviz version 2.38.0 (20140413.2041)
 -->
<!-- Title: torcsetting.h Pages: 1 -->
<svg width="699pt" height="308pt"
 viewBox="0.00 0.00 698.50 308.00" xmlns="http://www.w3.org/2000/svg" xmlns:xlink="http://www.w3.org/1999/xlink">
<g id="graph0" class="graph" transform="scale(1 1) rotate(0) translate(4 304)">
<title>torcsetting.h</title>
<polygon fill="white" stroke="none" points="-4,4 -4,-304 694.5,-304 694.5,4 -4,4"/>
<!-- Node1 -->
<g id="node1" class="node"><title>Node1</title>
<polygon fill="#bfbfbf" stroke="black" points="234,-280.5 234,-299.5 311,-299.5 311,-280.5 234,-280.5"/>
<text text-anchor="middle" x="272.5" y="-287.5" font-family="Helvetica,sans-Serif" font-size="10.00">torcsetting.h</text>
</g>
<!-- Node2 -->
<g id="node2" class="node"><title>Node2</title>
<polygon fill="white" stroke="#bfbfbf" points="0,-224.5 0,-243.5 41,-243.5 41,-224.5 0,-224.5"/>
<text text-anchor="middle" x="20.5" y="-231.5" font-family="Helvetica,sans-Serif" font-size="10.00">QSet</text>
</g>
<!-- Node1&#45;&gt;Node2 -->
<g id="edge1" class="edge"><title>Node1&#45;&gt;Node2</title>
<path fill="none" stroke="midnightblue" d="M233.758,-282.258C191.263,-274.617 120.883,-261.246 50.95,-243.918"/>
<polygon fill="midnightblue" stroke="midnightblue" points="51.639,-240.482 41.0881,-241.447 49.9375,-247.272 51.639,-240.482"/>
</g>
<!-- Node3 -->
<g id="node3" class="node"><title>Node3</title>
<polygon fill="white" stroke="#bfbfbf" points="59.5,-224.5 59.5,-243.5 151.5,-243.5 151.5,-224.5 59.5,-224.5"/>
<text text-anchor="middle" x="105.5" y="-231.5" font-family="Helvetica,sans-Serif" font-size="10.00">QReadWriteLock</text>
</g>
<!-- Node1&#45;&gt;Node3 -->
<g id="edge2" class="edge"><title>Node1&#45;&gt;Node3</title>
<path fill="none" stroke="midnightblue" d="M246.038,-280.444C217.822,-271.32 172.96,-256.813 141.532,-246.651"/>
<polygon fill="midnightblue" stroke="midnightblue" points="142.43,-243.263 131.838,-243.516 140.276,-249.923 142.43,-243.263"/>
</g>
<!-- Node4 -->
<g id="node4" class="node"><title>Node4</title>
<polygon fill="white" stroke="#bfbfbf" points="170,-224.5 170,-243.5 225,-243.5 225,-224.5 170,-224.5"/>
<text text-anchor="middle" x="197.5" y="-231.5" font-family="Helvetica,sans-Serif" font-size="10.00">QObject</text>
</g>
<!-- Node1&#45;&gt;Node4 -->
<g id="edge3" class="edge"><title>Node1&#45;&gt;Node4</title>
<path fill="none" stroke="midnightblue" d="M260.45,-280.324C249.037,-272.107 231.669,-259.602 218.065,-249.807"/>
<polygon fill="midnightblue" stroke="midnightblue" points="219.93,-246.837 209.769,-243.834 215.84,-252.517 219.93,-246.837"/>
</g>
<!-- Node5 -->
<g id="node5" class="node"><title>Node5</title>
<polygon fill="white" stroke="#bfbfbf" points="243.5,-224.5 243.5,-243.5 301.5,-243.5 301.5,-224.5 243.5,-224.5"/>
<text text-anchor="middle" x="272.5" y="-231.5" font-family="Helvetica,sans-Serif" font-size="10.00">QVariant</text>
</g>
<!-- Node1&#45;&gt;Node5 -->
<g id="edge4" class="edge"><title>Node1&#45;&gt;Node5</title>
<path fill="none" stroke="midnightblue" d="M272.5,-280.083C272.5,-273.006 272.5,-262.861 272.5,-253.986"/>
<polygon fill="midnightblue" stroke="midnightblue" points="276,-253.751 272.5,-243.751 269,-253.751 276,-253.751"/>
</g>
<!-- Node6 -->
<g id="node6" class="node"><title>Node6</title>
<polygon fill="white" stroke="#bfbfbf" points="320,-224.5 320,-243.5 389,-243.5 389,-224.5 320,-224.5"/>
<text text-anchor="middle" x="354.5" y="-231.5" font-family="Helvetica,sans-Serif" font-size="10.00">QStringList</text>
</g>
<!-- Node1&#45;&gt;Node6 -->
<g id="edge5" class="edge"><title>Node1&#45;&gt;Node6</title>
<path fill="none" stroke="midnightblue" d="M285.675,-280.324C298.347,-271.979 317.733,-259.212 332.706,-249.352"/>
<polygon fill="midnightblue" stroke="midnightblue" points="334.931,-252.078 341.358,-243.655 331.081,-246.231 334.931,-252.078"/>
</g>
<!-- Node7 -->
<g id="node7" class="node"><title>Node7</title>
<g id="a_node7"><a xlink:href="../../d3/dee/torchttpservice_8h.html" target="_top" xlink:title="torchttpservice.h">
<polygon fill="white" stroke="black" points="407.5,-224.5 407.5,-243.5 505.5,-243.5 505.5,-224.5 407.5,-224.5"/>
<text text-anchor="middle" x="456.5" y="-231.5" font-family="Helvetica,sans-Serif" font-size="10.00">torchttpservice.h</text>
</a>
</g>
</g>
<!-- Node1&#45;&gt;Node7 -->
<g id="edge6" class="edge"><title>Node1&#45;&gt;Node7</title>
<path fill="none" stroke="midnightblue" d="M301.655,-280.444C333.013,-271.241 383.031,-256.562 417.697,-246.388"/>
<polygon fill="midnightblue" stroke="midnightblue" points="418.871,-249.691 427.481,-243.516 416.9,-242.974 418.871,-249.691"/>
</g>
<!-- Node21 -->
<g id="node21" class="node"><title>Node21</title>
<g id="a_node21"><a xlink:href="../../d8/dfe/torcreferencecounted_8h.html" target="_top" xlink:title="torcreferencecounted.h">
<polygon fill="white" stroke="black" points="557,-224.5 557,-243.5 686,-243.5 686,-224.5 557,-224.5"/>
<text text-anchor="middle" x="621.5" y="-231.5" font-family="Helvetica,sans-Serif" font-size="10.00">torcreferencecounted.h</text>
</a>
</g>
</g>
<!-- Node1&#45;&gt;Node21 -->
<g id="edge23" class="edge"><title>Node1&#45;&gt;Node21</title>
<path fill="none" stroke="midnightblue" d="M311.183,-283.015C370.423,-273.849 484.318,-256.226 556.423,-245.069"/>
<polygon fill="midnightblue" stroke="midnightblue" points="556.963,-248.527 566.31,-243.539 555.892,-241.61 556.963,-248.527"/>
</g>
<!-- Node8 -->
<g id="node8" class="node"><title>Node8</title>
<polygon fill="white" stroke="#bfbfbf" points="638.5,-56.5 638.5,-75.5 682.5,-75.5 682.5,-56.5 638.5,-56.5"/>
<text text-anchor="middle" x="660.5" y="-63.5" font-family="Helvetica,sans-Serif" font-size="10.00">QMap</text>
</g>
<!-- Node7&#45;&gt;Node8 -->
<g id="edge7" class="edge"><title>Node7&#45;&gt;Node8</title>
<path fill="none" stroke="midnightblue" d="M472.939,-224.462C488.578,-216.039 512.477,-202.369 531.5,-188 576.187,-154.246 622.676,-107.172 645.719,-82.8895"/>
<polygon fill="midnightblue" stroke="midnightblue" points="648.293,-85.2613 652.598,-75.5805 643.195,-80.4638 648.293,-85.2613"/>
</g>
<!-- Node9 -->
<g id="node9" class="node"><title>Node9</title>
<polygon fill="white" stroke="#bfbfbf" points="122,-168.5 122,-187.5 175,-187.5 175,-168.5 122,-168.5"/>
<text text-anchor="middle" x="148.5" y="-175.5" font-family="Helvetica,sans-Serif" font-size="10.00">QMutex</text>
</g>
<!-- Node7&#45;&gt;Node9 -->
<g id="edge8" class="edge"><title>Node7&#45;&gt;Node9</title>
<path fill="none" stroke="midnightblue" d="M407.471,-225.378C345.114,-215.605 239.894,-198.829 185.118,-187.952"/>
<polygon fill="midnightblue" stroke="midnightblue" points="185.679,-184.494 175.181,-185.926 184.28,-191.353 185.679,-184.494"/>
</g>
<!-- Node10 -->
<g id="node10" class="node"><title>Node10</title>
<polygon fill="white" stroke="#bfbfbf" points="193,-168.5 193,-187.5 272,-187.5 272,-168.5 193,-168.5"/>
<text text-anchor="middle" x="232.5" y="-175.5" font-family="Helvetica,sans-Serif" font-size="10.00">QMetaObject</text>
</g>
<!-- Node7&#45;&gt;Node10 -->
<g id="edge9" class="edge"><title>Node7&#45;&gt;Node10</title>
<path fill="none" stroke="midnightblue" d="M421.007,-224.444C382.176,-215.083 319.844,-200.056 277.582,-189.868"/>
<polygon fill="midnightblue" stroke="midnightblue" points="278.369,-186.458 267.827,-187.516 276.729,-193.263 278.369,-186.458"/>
</g>
<!-- Node11 -->
<g id="node11" class="node"><title>Node11</title>
<polygon fill="white" stroke="#bfbfbf" points="290,-168.5 290,-187.5 389,-187.5 389,-168.5 290,-168.5"/>
<text text-anchor="middle" x="339.5" y="-175.5" font-family="Helvetica,sans-Serif" font-size="10.00">QCoreApplication</text>
</g>
<!-- Node7&#45;&gt;Node11 -->
<g id="edge10" class="edge"><title>Node7&#45;&gt;Node11</title>
<path fill="none" stroke="midnightblue" d="M437.961,-224.444C418.877,-215.636 388.925,-201.812 367.064,-191.722"/>
<polygon fill="midnightblue" stroke="midnightblue" points="368.499,-188.529 357.952,-187.516 365.565,-194.885 368.499,-188.529"/>
</g>
<!-- Node12 -->
<g id="node12" class="node"><title>Node12</title>
<g id="a_node12"><a xlink:href="../../d4/d11/torchttphandler_8h.html" target="_top" xlink:title="torchttphandler.h">
<polygon fill="white" stroke="black" points="407,-168.5 407,-187.5 506,-187.5 506,-168.5 407,-168.5"/>
<text text-anchor="middle" x="456.5" y="-175.5" font-family="Helvetica,sans-Serif" font-size="10.00">torchttphandler.h</text>
</a>
</g>
</g>
<!-- Node7&#45;&gt;Node12 -->
<g id="edge11" class="edge"><title>Node7&#45;&gt;Node12</title>
<path fill="none" stroke="midnightblue" d="M456.5,-224.083C456.5,-217.006 456.5,-206.861 456.5,-197.986"/>
<polygon fill="midnightblue" stroke="midnightblue" points="460,-197.751 456.5,-187.751 453,-197.751 460,-197.751"/>
</g>
<!-- Node15 -->
<g id="node15" class="node"><title>Node15</title>
<g id="a_node15"><a xlink:href="../../df/dd7/torchttprequest_8h.html" target="_top" xlink:title="torchttprequest.h">
<polygon fill="white" stroke="black" points="463,-112.5 463,-131.5 564,-131.5 564,-112.5 463,-112.5"/>
<text text-anchor="middle" x="513.5" y="-119.5" font-family="Helvetica,sans-Serif" font-size="10.00">torchttprequest.h</text>
</a>
</g>
</g>
<!-- Node7&#45;&gt;Node15 -->
<g id="edge22" class="edge"><title>Node7&#45;&gt;Node15</title>
<path fill="none" stroke="midnightblue" d="M475.484,-224.398C489.386,-216.954 507.214,-204.741 515.5,-188 522.621,-173.613 521.215,-155.156 518.557,-141.588"/>
<polygon fill="midnightblue" stroke="midnightblue" points="521.889,-140.469 516.19,-131.537 515.076,-142.074 521.889,-140.469"/>
</g>
<!-- Node13 -->
<g id="node13" class="node"><title>Node13</title>
<polygon fill="white" stroke="#bfbfbf" points="306,-56.5 306,-75.5 359,-75.5 359,-56.5 306,-56.5"/>
<text text-anchor="middle" x="332.5" y="-63.5" font-family="Helvetica,sans-Serif" font-size="10.00">QString</text>
</g>
<!-- Node12&#45;&gt;Node13 -->
<g id="edge12" class="edge"><title>Node12&#45;&gt;Node13</title>
<path fill="none" stroke="midnightblue" d="M452.848,-168.449C446.762,-155.016 433.422,-128.778 415.5,-112 400.796,-98.2345 381.084,-87.3157 364.56,-79.6824"/>
<polygon fill="midnightblue" stroke="midnightblue" points="365.822,-76.4138 355.261,-75.5711 362.991,-82.816 365.822,-76.4138"/>
</g>
<!-- Node14 -->
<g id="node14" class="node"><title>Node14</title>
<polygon fill="white" stroke="#bfbfbf" points="328.5,-112.5 328.5,-131.5 406.5,-131.5 406.5,-112.5 328.5,-112.5"/>
<text text-anchor="middle" x="367.5" y="-119.5" font-family="Helvetica,sans-Serif" font-size="10.00">QVariantMap</text>
</g>
<!-- Node12&#45;&gt;Node14 -->
<g id="edge13" class="edge"><title>Node12&#45;&gt;Node14</title>
<path fill="none" stroke="midnightblue" d="M442.201,-168.324C428.317,-159.9 407.008,-146.971 390.696,-137.074"/>
<polygon fill="midnightblue" stroke="midnightblue" points="392.129,-133.85 381.764,-131.655 388.498,-139.834 392.129,-133.85"/>
</g>
<!-- Node12&#45;&gt;Node15 -->
<g id="edge14" class="edge"><title>Node12&#45;&gt;Node15</title>
<path fill="none" stroke="midnightblue" d="M465.658,-168.324C474.001,-160.42 486.532,-148.548 496.677,-138.938"/>
<polygon fill="midnightblue" stroke="midnightblue" points="499.323,-141.252 504.175,-131.834 494.509,-136.171 499.323,-141.252"/>
</g>
<!-- Node15&#45;&gt;Node8 -->
<g id="edge15" class="edge"><title>Node15&#45;&gt;Node8</title>
<path fill="none" stroke="midnightblue" d="M536.793,-112.444C561.596,-103.332 601.011,-88.8531 628.669,-78.6929"/>
<polygon fill="midnightblue" stroke="midnightblue" points="630.099,-81.8965 638.279,-75.1629 627.685,-75.3258 630.099,-81.8965"/>
</g>
<!-- Node15&#45;&gt;Node13 -->
<g id="edge17" class="edge"><title>Node15&#45;&gt;Node13</title>
<path fill="none" stroke="midnightblue" d="M484.82,-112.444C453.429,-103.078 403.029,-88.0419 368.88,-77.8536"/>
<polygon fill="midnightblue" stroke="midnightblue" points="369.859,-74.4934 359.276,-74.9883 367.858,-81.2012 369.859,-74.4934"/>
</g>
<!-- Node16 -->
<g id="node16" class="node"><title>Node16</title>
<polygon fill="white" stroke="#bfbfbf" points="579,-56.5 579,-75.5 620,-75.5 620,-56.5 579,-56.5"/>
<text text-anchor="middle" x="599.5" y="-63.5" font-family="Helvetica,sans-Serif" font-size="10.00">QPair</text>
</g>
<!-- Node15&#45;&gt;Node16 -->
<g id="edge16" class="edge"><title>Node15&#45;&gt;Node16</title>
<path fill="none" stroke="midnightblue" d="M527.317,-112.324C540.733,-103.9 561.324,-90.9709 577.086,-81.0741"/>
<polygon fill="midnightblue" stroke="midnightblue" points="579.109,-83.9364 585.717,-75.6545 575.387,-78.0081 579.109,-83.9364"/>
</g>
<!-- Node17 -->
<g id="node17" class="node"><title>Node17</title>
<polygon fill="white" stroke="#bfbfbf" points="377,-56.5 377,-75.5 448,-75.5 448,-56.5 377,-56.5"/>
<text text-anchor="middle" x="412.5" y="-63.5" font-family="Helvetica,sans-Serif" font-size="10.00">QDateTime</text>
</g>
<!-- Node15&#45;&gt;Node17 -->
<g id="edge18" class="edge"><title>Node15&#45;&gt;Node17</title>
<path fill="none" stroke="midnightblue" d="M497.273,-112.324C481.149,-103.703 456.2,-90.3643 437.536,-80.3855"/>
<polygon fill="midnightblue" stroke="midnightblue" points="439.156,-77.283 428.687,-75.6545 435.856,-83.456 439.156,-77.283"/>
</g>
<!-- Node18 -->
<g id="node18" class="node"><title>Node18</title>
<g id="a_node18"><a xlink:href="../../de/de6/torchttpreader_8h.html" target="_top" xlink:title="torchttpreader.h">
<polygon fill="white" stroke="black" points="466,-56.5 466,-75.5 561,-75.5 561,-56.5 466,-56.5"/>
<text text-anchor="middle" x="513.5" y="-63.5" font-family="Helvetica,sans-Serif" font-size="10.00">torchttpreader.h</text>
</a>
</g>
</g>
<!-- Node15&#45;&gt;Node18 -->
<g id="edge19" class="edge"><title>Node15&#45;&gt;Node18</title>
<path fill="none" stroke="midnightblue" d="M513.5,-112.083C513.5,-105.006 513.5,-94.8611 513.5,-85.9865"/>
<polygon fill="midnightblue" stroke="midnightblue" points="517,-85.751 513.5,-75.7511 510,-85.7511 517,-85.751"/>
</g>
<!-- Node19 -->
<g id="node19" class="node"><title>Node19</title>
<polygon fill="white" stroke="#bfbfbf" points="433,-0.5 433,-19.5 504,-19.5 504,-0.5 433,-0.5"/>
<text text-anchor="middle" x="468.5" y="-7.5" font-family="Helvetica,sans-Serif" font-size="10.00">QByteArray</text>
</g>
<!-- Node18&#45;&gt;Node19 -->
<g id="edge20" class="edge"><title>Node18&#45;&gt;Node19</title>
<path fill="none" stroke="midnightblue" d="M506.069,-56.083C499.647,-48.3768 490.194,-37.0333 482.378,-27.6531"/>
<polygon fill="midnightblue" stroke="midnightblue" points="484.883,-25.1927 475.793,-19.7511 479.506,-29.674 484.883,-25.1927"/>
</g>
<!-- Node20 -->
<g id="node20" class="node"><title>Node20</title>
<polygon fill="white" stroke="#bfbfbf" points="522.5,-0.5 522.5,-19.5 594.5,-19.5 594.5,-0.5 522.5,-0.5"/>
<text text-anchor="middle" x="558.5" y="-7.5" font-family="Helvetica,sans-Serif" font-size="10.00">QTcpSocket</text>
</g>
<!-- Node18&#45;&gt;Node20 -->
<g id="edge21" class="edge"><title>Node18&#45;&gt;Node20</title>
<path fill="none" stroke="midnightblue" d="M520.931,-56.083C527.353,-48.3768 536.806,-37.0333 544.622,-27.6531"/>
<polygon fill="midnightblue" stroke="midnightblue" points="547.494,-29.674 551.207,-19.7511 542.117,-25.1927 547.494,-29.674"/>
</g>
<!-- Node22 -->
<g id="node22" class="node"><title>Node22</title>
<polygon fill="white" stroke="#bfbfbf" points="620.5,-168.5 620.5,-187.5 690.5,-187.5 690.5,-168.5 620.5,-168.5"/>
<text text-anchor="middle" x="655.5" y="-175.5" font-family="Helvetica,sans-Serif" font-size="10.00">QAtomicInt</text>
</g>
<!-- Node21&#45;&gt;Node22 -->
<g id="edge24" class="edge"><title>Node21&#45;&gt;Node22</title>
<path fill="none" stroke="midnightblue" d="M627.114,-224.083C631.867,-216.534 638.818,-205.495 644.652,-196.23"/>
<polygon fill="midnightblue" stroke="midnightblue" points="647.624,-198.078 649.99,-187.751 641.7,-194.349 647.624,-198.078"/>
</g>
</g>
</svg>
