<?xml version="1.0" encoding="UTF-8" standalone="no"?>
<!DOCTYPE svg PUBLIC "-//W3C//DTD SVG 1.1//EN"
 "http://www.w3.org/Graphics/SVG/1.1/DTD/svg11.dtd">
<!-- Generated by graphviz version 2.38.0 (20140413.2041)
 -->
<!-- Title: testserialisers.cpp Pages: 1 -->
<!--zoomable 308 -->
<svg id="main" version="1.1" xmlns="http://www.w3.org/2000/svg" xmlns:xlink="http://www.w3.org/1999/xlink" xml:space="preserve" onload="init(evt)">
<style type="text/css"><![CDATA[
.edge:hover path { stroke: red; }
.edge:hover polygon { stroke: red; fill: red; }
]]></style>
<script type="text/javascript"><![CDATA[
var edges = document.getElementsByTagName('g');
if (edges && edges.length) {
  for (var i=0;i<edges.length;i++) {
    if (edges[i].id.substr(0,4)=='edge') {
      edges[i].setAttribute('class','edge');
    }
  }
}
]]></script>
        <defs>
                <circle id="rim" cx="0" cy="0" r="7"/>
                <circle id="rim2" cx="0" cy="0" r="3.5"/>
                <g id="zoomPlus">
                        <use xlink:href="#rim" fill="#404040">
                                <set attributeName="fill" to="#808080" begin="zoomplus.mouseover" end="zoomplus.mouseout"/>
                        </use>
                        <path d="M-4,0h8M0,-4v8" fill="none" stroke="white" stroke-width="1.5" pointer-events="none"/>
                </g>
                <g id="zoomMin">
                        <use xlink:href="#rim" fill="#404040">
                                <set attributeName="fill" to="#808080" begin="zoomminus.mouseover" end="zoomminus.mouseout"/>
                        </use>
                        <path d="M-4,0h8" fill="none" stroke="white" stroke-width="1.5" pointer-events="none"/>
                </g>
                <g id="dirArrow">
                        <path fill="none" stroke="white" stroke-width="1.5" d="M0,-3.0v7 M-2.5,-0.5L0,-3.0L2.5,-0.5"/>
                </g>
               <g id="resetDef">
                       <use xlink:href="#rim2" fill="#404040">
                               <set attributeName="fill" to="#808080" begin="reset.mouseover" end="reset.mouseout"/>
                       </use>
               </g>
        </defs>

<script type="text/javascript">
var viewWidth = 567;
var viewHeight = 308;
var sectionId = 'dynsection-0';
</script>
<script xlink:href="../../svgpan.js"/>
<svg id="graph" class="graph">
<g id="viewport">
<title>testserialisers.cpp</title>
<polygon fill="white" stroke="none" points="-4,4 -4,-304 562.5,-304 562.5,4 -4,4"/>
<!-- Node1 -->
<g id="node1" class="node"><title>Node1</title>
<polygon fill="#bfbfbf" stroke="black" points="218.5,-280.5 218.5,-299.5 322.5,-299.5 322.5,-280.5 218.5,-280.5"/>
<text text-anchor="middle" x="270.5" y="-287.5" font-family="Helvetica,sans-Serif" font-size="10.00">testserialisers.cpp</text>
</g>
<!-- Node2 -->
<g id="node2" class="node"><title>Node2</title>
<polygon fill="white" stroke="#bfbfbf" points="7.5,-224.5 7.5,-243.5 87.5,-243.5 87.5,-224.5 7.5,-224.5"/>
<text text-anchor="middle" x="47.5" y="-231.5" font-family="Helvetica,sans-Serif" font-size="10.00">QtTest/QtTest</text>
</g>
<!-- Node1&#45;&gt;Node2 -->
<g id="edge1" class="edge"><title>Node1&#45;&gt;Node2</title>
<path fill="none" stroke="midnightblue" d="M235.165,-280.444C196.589,-271.102 134.715,-256.119 92.6474,-245.933"/>
<polygon fill="midnightblue" stroke="midnightblue" points="93.2126,-242.468 82.6697,-243.516 91.5651,-249.272 93.2126,-242.468"/>
</g>
<!-- Node3 -->
<g id="node3" class="node"><title>Node3</title>
<polygon fill="white" stroke="#bfbfbf" points="105.5,-224.5 105.5,-243.5 199.5,-243.5 199.5,-224.5 105.5,-224.5"/>
<text text-anchor="middle" x="152.5" y="-231.5" font-family="Helvetica,sans-Serif" font-size="10.00">QJsonDocument</text>
</g>
<!-- Node1&#45;&gt;Node3 -->
<g id="edge2" class="edge"><title>Node1&#45;&gt;Node3</title>
<path fill="none" stroke="midnightblue" d="M251.803,-280.444C232.556,-271.636 202.348,-257.812 180.3,-247.722"/>
<polygon fill="midnightblue" stroke="midnightblue" points="181.66,-244.495 171.11,-243.516 178.747,-250.86 181.66,-244.495"/>
</g>
<!-- Node4 -->
<g id="node4" class="node"><title>Node4</title>
<g id="a_node4"><a xlink:href="../../d9/dde/torcjsonserialiser_8h.html" target="_top" xlink:title="torcjsonserialiser.h">
<polygon fill="white" stroke="black" points="217.5,-224.5 217.5,-243.5 323.5,-243.5 323.5,-224.5 217.5,-224.5"/>
<text text-anchor="middle" x="270.5" y="-231.5" font-family="Helvetica,sans-Serif" font-size="10.00">torcjsonserialiser.h</text>
</a>
</g>
</g>
<!-- Node1&#45;&gt;Node4 -->
<g id="edge3" class="edge"><title>Node1&#45;&gt;Node4</title>
<path fill="none" stroke="midnightblue" d="M270.5,-280.083C270.5,-273.006 270.5,-262.861 270.5,-253.986"/>
<polygon fill="midnightblue" stroke="midnightblue" points="274,-253.751 270.5,-243.751 267,-253.751 274,-253.751"/>
</g>
<!-- Node17 -->
<g id="node17" class="node"><title>Node17</title>
<g id="a_node17"><a xlink:href="../../d6/d2c/torcxmlreader_8h.html" target="_top" xlink:title="torcxmlreader.h">
<polygon fill="white" stroke="black" points="341.5,-224.5 341.5,-243.5 433.5,-243.5 433.5,-224.5 341.5,-224.5"/>
<text text-anchor="middle" x="387.5" y="-231.5" font-family="Helvetica,sans-Serif" font-size="10.00">torcxmlreader.h</text>
</a>
</g>
</g>
<!-- Node1&#45;&gt;Node17 -->
<g id="edge18" class="edge"><title>Node1&#45;&gt;Node17</title>
<path fill="none" stroke="midnightblue" d="M289.039,-280.444C308.123,-271.636 338.075,-257.812 359.936,-247.722"/>
<polygon fill="midnightblue" stroke="midnightblue" points="361.435,-250.885 369.048,-243.516 358.501,-244.529 361.435,-250.885"/>
</g>
<!-- Node19 -->
<g id="node19" class="node"><title>Node19</title>
<g id="a_node19"><a xlink:href="../../d4/d0c/testserialisers_8h.html" target="_top" xlink:title="testserialisers.h">
<polygon fill="white" stroke="black" points="466.5,-224.5 466.5,-243.5 558.5,-243.5 558.5,-224.5 466.5,-224.5"/>
<text text-anchor="middle" x="512.5" y="-231.5" font-family="Helvetica,sans-Serif" font-size="10.00">testserialisers.h</text>
</a>
</g>
</g>
<!-- Node1&#45;&gt;Node19 -->
<g id="edge21" class="edge"><title>Node1&#45;&gt;Node19</title>
<path fill="none" stroke="midnightblue" d="M308.846,-280.444C350.973,-271.043 418.706,-255.929 464.372,-245.739"/>
<polygon fill="midnightblue" stroke="midnightblue" points="465.336,-249.11 474.334,-243.516 463.812,-242.278 465.336,-249.11"/>
</g>
<!-- Node5 -->
<g id="node5" class="node"><title>Node5</title>
<polygon fill="white" stroke="#bfbfbf" points="130,-168.5 130,-187.5 209,-187.5 209,-168.5 130,-168.5"/>
<text text-anchor="middle" x="169.5" y="-175.5" font-family="Helvetica,sans-Serif" font-size="10.00">QTextStream</text>
</g>
<!-- Node4&#45;&gt;Node5 -->
<g id="edge4" class="edge"><title>Node4&#45;&gt;Node5</title>
<path fill="none" stroke="midnightblue" d="M254.273,-224.324C238.149,-215.703 213.2,-202.364 194.536,-192.386"/>
<polygon fill="midnightblue" stroke="midnightblue" points="196.156,-189.283 185.687,-187.655 192.856,-195.456 196.156,-189.283"/>
</g>
<!-- Node6 -->
<g id="node6" class="node"><title>Node6</title>
<g id="a_node6"><a xlink:href="../../d1/def/torcserialiser_8h.html" target="_top" xlink:title="torcserialiser.h">
<polygon fill="white" stroke="black" points="227.5,-168.5 227.5,-187.5 313.5,-187.5 313.5,-168.5 227.5,-168.5"/>
<text text-anchor="middle" x="270.5" y="-175.5" font-family="Helvetica,sans-Serif" font-size="10.00">torcserialiser.h</text>
</a>
</g>
</g>
<!-- Node4&#45;&gt;Node6 -->
<g id="edge5" class="edge"><title>Node4&#45;&gt;Node6</title>
<path fill="none" stroke="midnightblue" d="M270.5,-224.083C270.5,-217.006 270.5,-206.861 270.5,-197.986"/>
<polygon fill="midnightblue" stroke="midnightblue" points="274,-197.751 270.5,-187.751 267,-197.751 274,-197.751"/>
</g>
<!-- Node7 -->
<g id="node7" class="node"><title>Node7</title>
<polygon fill="white" stroke="#bfbfbf" points="422.5,-112.5 422.5,-131.5 480.5,-131.5 480.5,-112.5 422.5,-112.5"/>
<text text-anchor="middle" x="451.5" y="-119.5" font-family="Helvetica,sans-Serif" font-size="10.00">QVariant</text>
</g>
<!-- Node6&#45;&gt;Node7 -->
<g id="edge6" class="edge"><title>Node6&#45;&gt;Node7</title>
<path fill="none" stroke="midnightblue" d="M299.18,-168.444C330.027,-159.241 379.228,-144.562 413.329,-134.388"/>
<polygon fill="midnightblue" stroke="midnightblue" points="414.372,-137.729 422.954,-131.516 412.371,-131.021 414.372,-137.729"/>
</g>
<!-- Node8 -->
<g id="node8" class="node"><title>Node8</title>
<polygon fill="white" stroke="#bfbfbf" points="257,-112.5 257,-131.5 326,-131.5 326,-112.5 257,-112.5"/>
<text text-anchor="middle" x="291.5" y="-119.5" font-family="Helvetica,sans-Serif" font-size="10.00">QStringList</text>
</g>
<!-- Node6&#45;&gt;Node8 -->
<g id="edge7" class="edge"><title>Node6&#45;&gt;Node8</title>
<path fill="none" stroke="midnightblue" d="M273.968,-168.083C276.812,-160.77 280.929,-150.181 284.46,-141.103"/>
<polygon fill="midnightblue" stroke="midnightblue" points="287.734,-142.34 288.097,-131.751 281.21,-139.803 287.734,-142.34"/>
</g>
<!-- Node9 -->
<g id="node9" class="node"><title>Node9</title>
<polygon fill="white" stroke="#bfbfbf" points="332.5,-56.5 332.5,-75.5 376.5,-75.5 376.5,-56.5 332.5,-56.5"/>
<text text-anchor="middle" x="354.5" y="-63.5" font-family="Helvetica,sans-Serif" font-size="10.00">QMap</text>
</g>
<!-- Node6&#45;&gt;Node9 -->
<g id="edge8" class="edge"><title>Node6&#45;&gt;Node9</title>
<path fill="none" stroke="midnightblue" d="M289.398,-168.373C304.018,-160.773 323.698,-148.364 335.5,-132 345.279,-118.441 350.056,-99.8923 352.371,-86.0791"/>
<polygon fill="midnightblue" stroke="midnightblue" points="355.889,-86.1886 353.793,-75.8033 348.955,-85.2294 355.889,-86.1886"/>
</g>
<!-- Node10 -->
<g id="node10" class="node"><title>Node10</title>
<polygon fill="white" stroke="#bfbfbf" points="0,-56.5 0,-75.5 71,-75.5 71,-56.5 0,-56.5"/>
<text text-anchor="middle" x="35.5" y="-63.5" font-family="Helvetica,sans-Serif" font-size="10.00">QDateTime</text>
</g>
<!-- Node6&#45;&gt;Node10 -->
<g id="edge9" class="edge"><title>Node6&#45;&gt;Node10</title>
<path fill="none" stroke="midnightblue" d="M233.72,-168.46C204.575,-160.946 163.282,-148.609 129.5,-132 101.345,-118.157 72.1083,-96.6161 53.8678,-82.1682"/>
<polygon fill="midnightblue" stroke="midnightblue" points="55.8331,-79.257 45.8496,-75.7101 51.4422,-84.7087 55.8331,-79.257"/>
</g>
<!-- Node11 -->
<g id="node11" class="node"><title>Node11</title>
<g id="a_node11"><a xlink:href="../../df/dd7/torchttprequest_8h.html" target="_top" xlink:title="torchttprequest.h">
<polygon fill="white" stroke="black" points="138,-112.5 138,-131.5 239,-131.5 239,-112.5 138,-112.5"/>
<text text-anchor="middle" x="188.5" y="-119.5" font-family="Helvetica,sans-Serif" font-size="10.00">torchttprequest.h</text>
</a>
</g>
</g>
<!-- Node6&#45;&gt;Node11 -->
<g id="edge10" class="edge"><title>Node6&#45;&gt;Node11</title>
<path fill="none" stroke="midnightblue" d="M257.325,-168.324C244.653,-159.979 225.267,-147.212 210.294,-137.352"/>
<polygon fill="midnightblue" stroke="midnightblue" points="211.919,-134.231 201.642,-131.655 208.069,-140.078 211.919,-134.231"/>
</g>
<!-- Node11&#45;&gt;Node9 -->
<g id="edge11" class="edge"><title>Node11&#45;&gt;Node9</title>
<path fill="none" stroke="midnightblue" d="M214.803,-112.444C244.088,-102.917 291.411,-87.5228 322.738,-77.3321"/>
<polygon fill="midnightblue" stroke="midnightblue" points="323.877,-80.6422 332.304,-74.2203 321.712,-73.9855 323.877,-80.6422"/>
</g>
<!-- Node11&#45;&gt;Node10 -->
<g id="edge14" class="edge"><title>Node11&#45;&gt;Node10</title>
<path fill="none" stroke="midnightblue" d="M164.257,-112.444C138.629,-103.399 98.0148,-89.064 69.2616,-78.9158"/>
<polygon fill="midnightblue" stroke="midnightblue" points="70.2247,-75.5442 59.6299,-75.5164 67.8949,-82.1452 70.2247,-75.5442"/>
</g>
<!-- Node12 -->
<g id="node12" class="node"><title>Node12</title>
<polygon fill="white" stroke="#bfbfbf" points="202,-56.5 202,-75.5 243,-75.5 243,-56.5 202,-56.5"/>
<text text-anchor="middle" x="222.5" y="-63.5" font-family="Helvetica,sans-Serif" font-size="10.00">QPair</text>
</g>
<!-- Node11&#45;&gt;Node12 -->
<g id="edge12" class="edge"><title>Node11&#45;&gt;Node12</title>
<path fill="none" stroke="midnightblue" d="M194.114,-112.083C198.867,-104.534 205.818,-93.4948 211.652,-84.2298"/>
<polygon fill="midnightblue" stroke="midnightblue" points="214.624,-86.0783 216.99,-75.7511 208.7,-82.3486 214.624,-86.0783"/>
</g>
<!-- Node13 -->
<g id="node13" class="node"><title>Node13</title>
<polygon fill="white" stroke="#bfbfbf" points="261,-56.5 261,-75.5 314,-75.5 314,-56.5 261,-56.5"/>
<text text-anchor="middle" x="287.5" y="-63.5" font-family="Helvetica,sans-Serif" font-size="10.00">QString</text>
</g>
<!-- Node11&#45;&gt;Node13 -->
<g id="edge13" class="edge"><title>Node11&#45;&gt;Node13</title>
<path fill="none" stroke="midnightblue" d="M204.406,-112.324C220.138,-103.743 244.442,-90.486 262.709,-80.5224"/>
<polygon fill="midnightblue" stroke="midnightblue" points="264.53,-83.5157 271.633,-75.6545 261.178,-77.3704 264.53,-83.5157"/>
</g>
<!-- Node14 -->
<g id="node14" class="node"><title>Node14</title>
<g id="a_node14"><a xlink:href="../../de/de6/torchttpreader_8h.html" target="_top" xlink:title="torchttpreader.h">
<polygon fill="white" stroke="black" points="89,-56.5 89,-75.5 184,-75.5 184,-56.5 89,-56.5"/>
<text text-anchor="middle" x="136.5" y="-63.5" font-family="Helvetica,sans-Serif" font-size="10.00">torchttpreader.h</text>
</a>
</g>
</g>
<!-- Node11&#45;&gt;Node14 -->
<g id="edge15" class="edge"><title>Node11&#45;&gt;Node14</title>
<path fill="none" stroke="midnightblue" d="M179.913,-112.083C172.341,-104.22 161.122,-92.5688 151.986,-83.0813"/>
<polygon fill="midnightblue" stroke="midnightblue" points="154.385,-80.5266 144.927,-75.7511 149.342,-85.3821 154.385,-80.5266"/>
</g>
<!-- Node15 -->
<g id="node15" class="node"><title>Node15</title>
<polygon fill="white" stroke="#bfbfbf" points="56,-0.5 56,-19.5 127,-19.5 127,-0.5 56,-0.5"/>
<text text-anchor="middle" x="91.5" y="-7.5" font-family="Helvetica,sans-Serif" font-size="10.00">QByteArray</text>
</g>
<!-- Node14&#45;&gt;Node15 -->
<g id="edge16" class="edge"><title>Node14&#45;&gt;Node15</title>
<path fill="none" stroke="midnightblue" d="M129.069,-56.083C122.647,-48.3768 113.194,-37.0333 105.378,-27.6531"/>
<polygon fill="midnightblue" stroke="midnightblue" points="107.883,-25.1927 98.7926,-19.7511 102.506,-29.674 107.883,-25.1927"/>
</g>
<!-- Node16 -->
<g id="node16" class="node"><title>Node16</title>
<polygon fill="white" stroke="#bfbfbf" points="145.5,-0.5 145.5,-19.5 217.5,-19.5 217.5,-0.5 145.5,-0.5"/>
<text text-anchor="middle" x="181.5" y="-7.5" font-family="Helvetica,sans-Serif" font-size="10.00">QTcpSocket</text>
</g>
<!-- Node14&#45;&gt;Node16 -->
<g id="edge17" class="edge"><title>Node14&#45;&gt;Node16</title>
<path fill="none" stroke="midnightblue" d="M143.931,-56.083C150.353,-48.3768 159.806,-37.0333 167.622,-27.6531"/>
<polygon fill="midnightblue" stroke="midnightblue" points="170.494,-29.674 174.207,-19.7511 165.117,-25.1927 170.494,-29.674"/>
</g>
<!-- Node17&#45;&gt;Node7 -->
<g id="edge19" class="edge"><title>Node17&#45;&gt;Node7</title>
<path fill="none" stroke="midnightblue" d="M409.308,-224.447C424.445,-217.221 443.455,-205.264 452.5,-188 459.948,-173.786 458.814,-155.309 456.333,-141.69"/>
<polygon fill="midnightblue" stroke="midnightblue" points="459.676,-140.597 454.092,-131.593 452.842,-142.114 459.676,-140.597"/>
</g>
<!-- Node18 -->
<g id="node18" class="node"><title>Node18</title>
<polygon fill="white" stroke="#bfbfbf" points="332,-168.5 332,-187.5 443,-187.5 443,-168.5 332,-168.5"/>
<text text-anchor="middle" x="387.5" y="-175.5" font-family="Helvetica,sans-Serif" font-size="10.00">QXmlStreamReader</text>
</g>
<!-- Node17&#45;&gt;Node18 -->
<g id="edge20" class="edge"><title>Node17&#45;&gt;Node18</title>
<path fill="none" stroke="midnightblue" d="M387.5,-224.083C387.5,-217.006 387.5,-206.861 387.5,-197.986"/>
<polygon fill="midnightblue" stroke="midnightblue" points="391,-197.751 387.5,-187.751 384,-197.751 391,-197.751"/>
</g>
<!-- Node20 -->
<g id="node20" class="node"><title>Node20</title>
<polygon fill="white" stroke="#bfbfbf" points="500,-168.5 500,-187.5 555,-187.5 555,-168.5 500,-168.5"/>
<text text-anchor="middle" x="527.5" y="-175.5" font-family="Helvetica,sans-Serif" font-size="10.00">QObject</text>
</g>
<!-- Node19&#45;&gt;Node20 -->
<g id="edge22" class="edge"><title>Node19&#45;&gt;Node20</title>
<path fill="none" stroke="midnightblue" d="M514.977,-224.083C516.986,-216.849 519.886,-206.409 522.39,-197.397"/>
<polygon fill="midnightblue" stroke="midnightblue" points="525.765,-198.323 525.069,-187.751 519.02,-196.449 525.765,-198.323"/>
</g>
</g>
</svg>
        <g id="navigator" transform="translate(0 0)" fill="#404254">
                <rect fill="#f2f5e9" fill-opacity="0.5" stroke="#606060" stroke-width=".5" x="0" y="0" width="60" height="60"/>
                <use id="zoomplus" xlink:href="#zoomPlus" x="17" y="9" onmousedown="handleZoom(evt,'in')"/>
                <use id="zoomminus" xlink:href="#zoomMin" x="42" y="9" onmousedown="handleZoom(evt,'out')"/>
                <use id="reset" xlink:href="#resetDef" x="30" y="36" onmousedown="handleReset()"/>
                <g id="arrowUp" xlink:href="#dirArrow" transform="translate(30 24)" onmousedown="handlePan(0,-1)">
                  <use xlink:href="#rim" fill="#404040">
                        <set attributeName="fill" to="#808080" begin="arrowUp.mouseover" end="arrowUp.mouseout"/>
                  </use>
                  <path fill="none" stroke="white" stroke-width="1.5" d="M0,-3.0v7 M-2.5,-0.5L0,-3.0L2.5,-0.5"/>
                </g>
                <g id="arrowRight" xlink:href="#dirArrow" transform="rotate(90) translate(36 -43)" onmousedown="handlePan(1,0)">
                  <use xlink:href="#rim" fill="#404040">
                        <set attributeName="fill" to="#808080" begin="arrowRight.mouseover" end="arrowRight.mouseout"/>
                  </use>
                  <path fill="none" stroke="white" stroke-width="1.5" d="M0,-3.0v7 M-2.5,-0.5L0,-3.0L2.5,-0.5"/>
                </g>
                <g id="arrowDown" xlink:href="#dirArrow" transform="rotate(180) translate(-30 -48)" onmousedown="handlePan(0,1)">
                  <use xlink:href="#rim" fill="#404040">
                        <set attributeName="fill" to="#808080" begin="arrowDown.mouseover" end="arrowDown.mouseout"/>
                  </use>
                  <path fill="none" stroke="white" stroke-width="1.5" d="M0,-3.0v7 M-2.5,-0.5L0,-3.0L2.5,-0.5"/>
                </g>
                <g id="arrowLeft" xlink:href="#dirArrow" transform="rotate(270) translate(-36 17)" onmousedown="handlePan(-1,0)">
                  <use xlink:href="#rim" fill="#404040">
                        <set attributeName="fill" to="#808080" begin="arrowLeft.mouseover" end="arrowLeft.mouseout"/>
                  </use>
                  <path fill="none" stroke="white" stroke-width="1.5" d="M0,-3.0v7 M-2.5,-0.5L0,-3.0L2.5,-0.5"/>
                </g>
        </g>
        <svg viewBox="0 0 15 15" width="100%" height="30px" preserveAspectRatio="xMaxYMin meet">
         <g id="arrow_out" transform="scale(0.3 0.3)">
          <a xlink:href="testserialisers_8cpp__incl_org.svg" target="_base">
           <rect id="button" ry="5" rx="5" y="6" x="6" height="38" width="38"
                fill="#f2f5e9" fill-opacity="0.5" stroke="#606060" stroke-width="1.0"/>
           <path id="arrow"
             d="M 11.500037,31.436501 C 11.940474,20.09759 22.043105,11.32322 32.158766,21.979434 L 37.068811,17.246167 C 37.068811,17.246167 37.088388,32 37.088388,32 L 22.160133,31.978069 C 22.160133,31.978069 26.997745,27.140456 26.997745,27.140456 C 18.528582,18.264221 13.291696,25.230495 11.500037,31.436501 z"
             style="fill:#404040;"/>
          </a>
         </g>
        </svg>
</svg>
