<?xml version="1.0" encoding="UTF-8" standalone="no"?>
<!DOCTYPE svg PUBLIC "-//W3C//DTD SVG 1.1//EN"
 "http://www.w3.org/Graphics/SVG/1.1/DTD/svg11.dtd">
<!-- Generated by graphviz version 2.38.0 (20140413.2041)
 -->
<!-- Title: torccoreutils.h Pages: 1 -->
<svg width="231pt" height="84pt"
 viewBox="0.00 0.00 231.00 84.00" xmlns="http://www.w3.org/2000/svg" xmlns:xlink="http://www.w3.org/1999/xlink">
<g id="graph0" class="graph" transform="scale(1 1) rotate(0) translate(4 80)">
<title>torccoreutils.h</title>
<polygon fill="white" stroke="none" points="-4,4 -4,-80 227,-80 227,4 -4,4"/>
<!-- Node1 -->
<g id="node1" class="node"><title>Node1</title>
<polygon fill="#bfbfbf" stroke="black" points="53,-56.5 53,-75.5 138,-75.5 138,-56.5 53,-56.5"/>
<text text-anchor="middle" x="95.5" y="-63.5" font-family="Helvetica,sans-Serif" font-size="10.00">torccoreutils.h</text>
</g>
<!-- Node2 -->
<g id="node2" class="node"><title>Node2</title>
<polygon fill="white" stroke="#bfbfbf" points="0,-0.5 0,-19.5 39,-19.5 39,-0.5 0,-0.5"/>
<text text-anchor="middle" x="19.5" y="-7.5" font-family="Helvetica,sans-Serif" font-size="10.00">QFile</text>
</g>
<!-- Node1&#45;&gt;Node2 -->
<g id="edge1" class="edge"><title>Node1&#45;&gt;Node2</title>
<path fill="none" stroke="midnightblue" d="M83.2893,-56.324C71.7241,-48.1066 54.1246,-35.6017 40.3393,-25.8069"/>
<polygon fill="midnightblue" stroke="midnightblue" points="42.112,-22.7729 31.9329,-19.8339 38.0575,-28.4791 42.112,-22.7729"/>
</g>
<!-- Node3 -->
<g id="node3" class="node"><title>Node3</title>
<polygon fill="white" stroke="#bfbfbf" points="57.5,-0.5 57.5,-19.5 133.5,-19.5 133.5,-0.5 57.5,-0.5"/>
<text text-anchor="middle" x="95.5" y="-7.5" font-family="Helvetica,sans-Serif" font-size="10.00">QMetaEnum</text>
</g>
<!-- Node1&#45;&gt;Node3 -->
<g id="edge2" class="edge"><title>Node1&#45;&gt;Node3</title>
<path fill="none" stroke="midnightblue" d="M95.5,-56.083C95.5,-49.0059 95.5,-38.8611 95.5,-29.9865"/>
<polygon fill="midnightblue" stroke="midnightblue" points="99.0001,-29.751 95.5,-19.7511 92.0001,-29.7511 99.0001,-29.751"/>
</g>
<!-- Node4 -->
<g id="node4" class="node"><title>Node4</title>
<polygon fill="white" stroke="#bfbfbf" points="152,-0.5 152,-19.5 223,-19.5 223,-0.5 152,-0.5"/>
<text text-anchor="middle" x="187.5" y="-7.5" font-family="Helvetica,sans-Serif" font-size="10.00">QDateTime</text>
</g>
<!-- Node1&#45;&gt;Node4 -->
<g id="edge3" class="edge"><title>Node1&#45;&gt;Node4</title>
<path fill="none" stroke="midnightblue" d="M110.281,-56.324C124.767,-47.8215 147.073,-34.7288 163.993,-24.7975"/>
<polygon fill="midnightblue" stroke="midnightblue" points="165.903,-27.735 172.755,-19.6545 162.359,-21.6981 165.903,-27.735"/>
</g>
</g>
</svg>
