<?xml version="1.0" encoding="UTF-8" standalone="no"?>
<!DOCTYPE svg PUBLIC "-//W3C//DTD SVG 1.1//EN"
 "http://www.w3.org/Graphics/SVG/1.1/DTD/svg11.dtd">
<!-- Generated by graphviz version 2.38.0 (20140413.2041)
 -->
<!-- Title: torcoutput.h Pages: 1 -->
<!--zoomable 252 -->
<svg id="main" version="1.1" xmlns="http://www.w3.org/2000/svg" xmlns:xlink="http://www.w3.org/1999/xlink" xml:space="preserve" onload="init(evt)">
<style type="text/css"><![CDATA[
.edge:hover path { stroke: red; }
.edge:hover polygon { stroke: red; fill: red; }
]]></style>
<script type="text/javascript"><![CDATA[
var edges = document.getElementsByTagName('g');
if (edges && edges.length) {
  for (var i=0;i<edges.length;i++) {
    if (edges[i].id.substr(0,4)=='edge') {
      edges[i].setAttribute('class','edge');
    }
  }
}
]]></script>
        <defs>
                <circle id="rim" cx="0" cy="0" r="7"/>
                <circle id="rim2" cx="0" cy="0" r="3.5"/>
                <g id="zoomPlus">
                        <use xlink:href="#rim" fill="#404040">
                                <set attributeName="fill" to="#808080" begin="zoomplus.mouseover" end="zoomplus.mouseout"/>
                        </use>
                        <path d="M-4,0h8M0,-4v8" fill="none" stroke="white" stroke-width="1.5" pointer-events="none"/>
                </g>
                <g id="zoomMin">
                        <use xlink:href="#rim" fill="#404040">
                                <set attributeName="fill" to="#808080" begin="zoomminus.mouseover" end="zoomminus.mouseout"/>
                        </use>
                        <path d="M-4,0h8" fill="none" stroke="white" stroke-width="1.5" pointer-events="none"/>
                </g>
                <g id="dirArrow">
                        <path fill="none" stroke="white" stroke-width="1.5" d="M0,-3.0v7 M-2.5,-0.5L0,-3.0L2.5,-0.5"/>
                </g>
               <g id="resetDef">
                       <use xlink:href="#rim2" fill="#404040">
                               <set attributeName="fill" to="#808080" begin="reset.mouseover" end="reset.mouseout"/>
                       </use>
               </g>
        </defs>

<script type="text/javascript">
var viewWidth = 2400;
var viewHeight = 252;
var sectionId = 'dynsection-1';
</script>
<script xlink:href="../../svgpan.js"/>
<svg id="graph" class="graph">
<g id="viewport">
<title>torcoutput.h</title>
<polygon fill="white" stroke="none" points="-4,4 -4,-248 2396,-248 2396,4 -4,4"/>
<!-- Node1 -->
<g id="node1" class="node"><title>Node1</title>
<polygon fill="#bfbfbf" stroke="black" points="737,-224.5 737,-243.5 813,-243.5 813,-224.5 737,-224.5"/>
<text text-anchor="middle" x="775" y="-231.5" font-family="Helvetica,sans-Serif" font-size="10.00">torcoutput.h</text>
</g>
<!-- Node2 -->
<g id="node2" class="node"><title>Node2</title>
<g id="a_node2"><a xlink:href="../../d5/d16/torccontrol_8cpp.html" target="_top" xlink:title="torccontrol.cpp">
<polygon fill="white" stroke="black" points="122.5,-168.5 122.5,-187.5 211.5,-187.5 211.5,-168.5 122.5,-168.5"/>
<text text-anchor="middle" x="167" y="-175.5" font-family="Helvetica,sans-Serif" font-size="10.00">torccontrol.cpp</text>
</a>
</g>
</g>
<!-- Node1&#45;&gt;Node2 -->
<g id="edge1" class="edge"><title>Node1&#45;&gt;Node2</title>
<path fill="none" stroke="midnightblue" d="M726.927,-230.46C630.649,-225.071 407.418,-211.064 221,-188 217.982,-187.627 214.874,-187.206 211.747,-186.756"/>
<polygon fill="midnightblue" stroke="midnightblue" points="726.759,-233.956 736.938,-231.014 727.147,-226.966 726.759,-233.956"/>
</g>
<!-- Node3 -->
<g id="node3" class="node"><title>Node3</title>
<g id="a_node3"><a xlink:href="../../dc/d55/torclogiccontrol_8cpp.html" target="_top" xlink:title="torclogiccontrol.cpp">
<polygon fill="white" stroke="black" points="230,-168.5 230,-187.5 340,-187.5 340,-168.5 230,-168.5"/>
<text text-anchor="middle" x="285" y="-175.5" font-family="Helvetica,sans-Serif" font-size="10.00">torclogiccontrol.cpp</text>
</a>
</g>
</g>
<!-- Node1&#45;&gt;Node3 -->
<g id="edge2" class="edge"><title>Node1&#45;&gt;Node3</title>
<path fill="none" stroke="midnightblue" d="M726.622,-228.437C647.54,-220.856 485.691,-204.826 349,-188 346.105,-187.644 343.137,-187.267 340.142,-186.877"/>
<polygon fill="midnightblue" stroke="midnightblue" points="726.475,-231.939 736.763,-229.407 727.141,-224.971 726.475,-231.939"/>
</g>
<!-- Node4 -->
<g id="node4" class="node"><title>Node4</title>
<g id="a_node4"><a xlink:href="../../d6/d33/torci2cbus_8cpp.html" target="_top" xlink:title="torci2cbus.cpp">
<polygon fill="white" stroke="black" points="358,-168.5 358,-187.5 444,-187.5 444,-168.5 358,-168.5"/>
<text text-anchor="middle" x="401" y="-175.5" font-family="Helvetica,sans-Serif" font-size="10.00">torci2cbus.cpp</text>
</a>
</g>
</g>
<!-- Node1&#45;&gt;Node4 -->
<g id="edge3" class="edge"><title>Node1&#45;&gt;Node4</title>
<path fill="none" stroke="midnightblue" d="M726.729,-226.752C663.689,-218.478 549.938,-203.158 453,-188 450.103,-187.547 447.118,-187.067 444.112,-186.573"/>
<polygon fill="midnightblue" stroke="midnightblue" points="726.404,-230.239 736.774,-228.067 727.313,-223.299 726.404,-230.239"/>
</g>
<!-- Node5 -->
<g id="node5" class="node"><title>Node5</title>
<g id="a_node5"><a xlink:href="../../df/d6c/torcpwmoutput_8h.html" target="_top" xlink:title="torcpwmoutput.h">
<polygon fill="white" stroke="black" points="462,-168.5 462,-187.5 560,-187.5 560,-168.5 462,-168.5"/>
<text text-anchor="middle" x="511" y="-175.5" font-family="Helvetica,sans-Serif" font-size="10.00">torcpwmoutput.h</text>
</a>
</g>
</g>
<!-- Node1&#45;&gt;Node5 -->
<g id="edge4" class="edge"><title>Node1&#45;&gt;Node5</title>
<path fill="none" stroke="midnightblue" d="M726.997,-223.181C677.135,-212.982 599.919,-197.188 552.578,-187.505"/>
<polygon fill="midnightblue" stroke="midnightblue" points="726.396,-226.631 736.894,-225.206 727.798,-219.773 726.396,-226.631"/>
</g>
<!-- Node18 -->
<g id="node18" class="node"><title>Node18</title>
<g id="a_node18"><a xlink:href="../../da/d80/torcoutputs_8h.html" target="_top" xlink:title="torcoutputs.h">
<polygon fill="white" stroke="black" points="685.5,-168.5 685.5,-187.5 766.5,-187.5 766.5,-168.5 685.5,-168.5"/>
<text text-anchor="middle" x="726" y="-175.5" font-family="Helvetica,sans-Serif" font-size="10.00">torcoutputs.h</text>
</a>
</g>
</g>
<!-- Node1&#45;&gt;Node18 -->
<g id="edge18" class="edge"><title>Node1&#45;&gt;Node18</title>
<path fill="none" stroke="midnightblue" d="M759.966,-216.431C751.378,-206.967 740.957,-195.483 733.941,-187.751"/>
<polygon fill="midnightblue" stroke="midnightblue" points="757.597,-219.029 766.909,-224.083 762.781,-214.325 757.597,-219.029"/>
</g>
<!-- Node20 -->
<g id="node20" class="node"><title>Node20</title>
<g id="a_node20"><a xlink:href="../../d5/d6d/torcoutput_8cpp.html" target="_top" xlink:title="torcoutput.cpp">
<polygon fill="white" stroke="black" points="864.5,-112.5 864.5,-131.5 951.5,-131.5 951.5,-112.5 864.5,-112.5"/>
<text text-anchor="middle" x="908" y="-119.5" font-family="Helvetica,sans-Serif" font-size="10.00">torcoutput.cpp</text>
</a>
</g>
</g>
<!-- Node1&#45;&gt;Node20 -->
<g id="edge51" class="edge"><title>Node1&#45;&gt;Node20</title>
<path fill="none" stroke="midnightblue" d="M793.359,-217.816C821.686,-194.387 875.125,-150.19 897.612,-131.591"/>
<polygon fill="midnightblue" stroke="midnightblue" points="790.912,-215.298 785.436,-224.368 795.373,-220.692 790.912,-215.298"/>
</g>
<!-- Node23 -->
<g id="node23" class="node"><title>Node23</title>
<g id="a_node23"><a xlink:href="../../d2/d57/torccameraoutput_8h.html" target="_top" xlink:title="torccameraoutput.h">
<polygon fill="white" stroke="black" points="1038.5,-168.5 1038.5,-187.5 1151.5,-187.5 1151.5,-168.5 1038.5,-168.5"/>
<text text-anchor="middle" x="1095" y="-175.5" font-family="Helvetica,sans-Serif" font-size="10.00">torccameraoutput.h</text>
</a>
</g>
</g>
<!-- Node1&#45;&gt;Node23 -->
<g id="edge26" class="edge"><title>Node1&#45;&gt;Node23</title>
<path fill="none" stroke="midnightblue" d="M823.201,-224.866C882.843,-214.801 983.922,-197.744 1044.57,-187.509"/>
<polygon fill="midnightblue" stroke="midnightblue" points="822.56,-221.425 813.282,-226.54 823.725,-228.327 822.56,-221.425"/>
</g>
<!-- Node26 -->
<g id="node26" class="node"><title>Node26</title>
<g id="a_node26"><a xlink:href="../../db/d9e/torcswitchoutput_8h.html" target="_top" xlink:title="torcswitchoutput.h">
<polygon fill="white" stroke="black" points="1441.5,-168.5 1441.5,-187.5 1546.5,-187.5 1546.5,-168.5 1441.5,-168.5"/>
<text text-anchor="middle" x="1494" y="-175.5" font-family="Helvetica,sans-Serif" font-size="10.00">torcswitchoutput.h</text>
</a>
</g>
</g>
<!-- Node1&#45;&gt;Node26 -->
<g id="edge30" class="edge"><title>Node1&#45;&gt;Node26</title>
<path fill="none" stroke="midnightblue" d="M823.158,-229.383C952.558,-219.665 1307.06,-193.04 1441.43,-182.948"/>
<polygon fill="midnightblue" stroke="midnightblue" points="822.859,-225.896 813.149,-230.135 823.383,-232.876 822.859,-225.896"/>
</g>
<!-- Node33 -->
<g id="node33" class="node"><title>Node33</title>
<g id="a_node33"><a xlink:href="../../de/d6b/torcphoutput_8h.html" target="_top" xlink:title="torcphoutput.h">
<polygon fill="white" stroke="black" points="1810,-168.5 1810,-187.5 1898,-187.5 1898,-168.5 1810,-168.5"/>
<text text-anchor="middle" x="1854" y="-175.5" font-family="Helvetica,sans-Serif" font-size="10.00">torcphoutput.h</text>
</a>
</g>
</g>
<!-- Node1&#45;&gt;Node33 -->
<g id="edge41" class="edge"><title>Node1&#45;&gt;Node33</title>
<path fill="none" stroke="midnightblue" d="M823.324,-230.582C1003.79,-221.55 1636.77,-189.872 1809.93,-181.206"/>
<polygon fill="midnightblue" stroke="midnightblue" points="822.898,-227.098 813.085,-231.094 823.248,-234.09 822.898,-227.098"/>
</g>
<!-- Node37 -->
<g id="node37" class="node"><title>Node37</title>
<g id="a_node37"><a xlink:href="../../dd/d76/torctemperatureoutput_8h.html" target="_top" xlink:title="torctemperatureoutput.h">
<polygon fill="white" stroke="black" points="2070.5,-168.5 2070.5,-187.5 2207.5,-187.5 2207.5,-168.5 2070.5,-168.5"/>
<text text-anchor="middle" x="2139" y="-175.5" font-family="Helvetica,sans-Serif" font-size="10.00">torctemperatureoutput.h</text>
</a>
</g>
</g>
<!-- Node1&#45;&gt;Node37 -->
<g id="edge46" class="edge"><title>Node1&#45;&gt;Node37</title>
<path fill="none" stroke="midnightblue" d="M823.443,-231.082C1029.06,-222.942 1829.97,-191.234 2070.39,-181.716"/>
<polygon fill="midnightblue" stroke="midnightblue" points="823.118,-227.592 813.264,-231.485 823.395,-234.587 823.118,-227.592"/>
</g>
<!-- Node6 -->
<g id="node6" class="node"><title>Node6</title>
<g id="a_node6"><a xlink:href="../../db/dd5/torci2cpca9685_8h.html" target="_top" xlink:title="torci2cpca9685.h">
<polygon fill="white" stroke="black" points="5.5,-112.5 5.5,-131.5 104.5,-131.5 104.5,-112.5 5.5,-112.5"/>
<text text-anchor="middle" x="55" y="-119.5" font-family="Helvetica,sans-Serif" font-size="10.00">torci2cpca9685.h</text>
</a>
</g>
</g>
<!-- Node5&#45;&gt;Node6 -->
<g id="edge5" class="edge"><title>Node5&#45;&gt;Node6</title>
<path fill="none" stroke="midnightblue" d="M451.851,-167.909C300.609,-148.476 260.442,-151.234 113,-132 110.272,-131.644 107.474,-131.263 104.651,-130.866"/>
<polygon fill="midnightblue" stroke="midnightblue" points="451.609,-171.407 461.976,-169.222 452.509,-164.465 451.609,-171.407"/>
</g>
<!-- Node8 -->
<g id="node8" class="node"><title>Node8</title>
<g id="a_node8"><a xlink:href="../../d6/d3c/torcpipwmoutput_8h.html" target="_top" xlink:title="torcpipwmoutput.h">
<polygon fill="white" stroke="black" points="122.5,-112.5 122.5,-131.5 229.5,-131.5 229.5,-112.5 122.5,-112.5"/>
<text text-anchor="middle" x="176" y="-119.5" font-family="Helvetica,sans-Serif" font-size="10.00">torcpipwmoutput.h</text>
</a>
</g>
</g>
<!-- Node5&#45;&gt;Node8 -->
<g id="edge7" class="edge"><title>Node5&#45;&gt;Node8</title>
<path fill="none" stroke="midnightblue" d="M451.722,-167.445C388.527,-157.258 289.393,-141.278 228.797,-131.511"/>
<polygon fill="midnightblue" stroke="midnightblue" points="451.5,-170.954 461.929,-169.09 452.614,-164.043 451.5,-170.954"/>
</g>
<!-- Node14 -->
<g id="node14" class="node"><title>Node14</title>
<g id="a_node14"><a xlink:href="../../dc/dda/torcnetworkpwmoutput_8h.html" target="_top" xlink:title="torcnetworkpwmoutput.h">
<polygon fill="white" stroke="black" points="248,-112.5 248,-131.5 384,-131.5 384,-112.5 248,-112.5"/>
<text text-anchor="middle" x="316" y="-119.5" font-family="Helvetica,sans-Serif" font-size="10.00">torcnetworkpwmoutput.h</text>
</a>
</g>
</g>
<!-- Node5&#45;&gt;Node14 -->
<g id="edge14" class="edge"><title>Node5&#45;&gt;Node14</title>
<path fill="none" stroke="midnightblue" d="M470.19,-165.699C433.387,-155.507 380.071,-140.743 346.754,-131.516"/>
<polygon fill="midnightblue" stroke="midnightblue" points="469.53,-169.148 480.102,-168.444 471.398,-162.402 469.53,-169.148"/>
</g>
<!-- Node17 -->
<g id="node17" class="node"><title>Node17</title>
<g id="a_node17"><a xlink:href="../../d3/d42/torcpwmoutput_8cpp.html" target="_top" xlink:title="torcpwmoutput.cpp">
<polygon fill="white" stroke="black" points="402,-112.5 402,-131.5 512,-131.5 512,-112.5 402,-112.5"/>
<text text-anchor="middle" x="457" y="-119.5" font-family="Helvetica,sans-Serif" font-size="10.00">torcpwmoutput.cpp</text>
</a>
</g>
</g>
<!-- Node5&#45;&gt;Node17 -->
<g id="edge17" class="edge"><title>Node5&#45;&gt;Node17</title>
<path fill="none" stroke="midnightblue" d="M495.002,-161.002C485.433,-151.433 473.639,-139.639 465.751,-131.751"/>
<polygon fill="midnightblue" stroke="midnightblue" points="492.537,-163.487 502.083,-168.083 497.487,-158.537 492.537,-163.487"/>
</g>
<!-- Node7 -->
<g id="node7" class="node"><title>Node7</title>
<g id="a_node7"><a xlink:href="../../d9/d02/torci2cpca9685_8cpp.html" target="_top" xlink:title="torci2cpca9685.cpp">
<polygon fill="white" stroke="black" points="0,-56.5 0,-75.5 110,-75.5 110,-56.5 0,-56.5"/>
<text text-anchor="middle" x="55" y="-63.5" font-family="Helvetica,sans-Serif" font-size="10.00">torci2cpca9685.cpp</text>
</a>
</g>
</g>
<!-- Node6&#45;&gt;Node7 -->
<g id="edge6" class="edge"><title>Node6&#45;&gt;Node7</title>
<path fill="none" stroke="midnightblue" d="M55,-101.805C55,-92.9102 55,-82.7798 55,-75.7511"/>
<polygon fill="midnightblue" stroke="midnightblue" points="51.5001,-102.083 55,-112.083 58.5001,-102.083 51.5001,-102.083"/>
</g>
<!-- Node9 -->
<g id="node9" class="node"><title>Node9</title>
<g id="a_node9"><a xlink:href="../../d4/de1/torcpigpio_8h.html" target="_top" xlink:title="torcpigpio.h">
<polygon fill="white" stroke="black" points="235.5,-56.5 235.5,-75.5 308.5,-75.5 308.5,-56.5 235.5,-56.5"/>
<text text-anchor="middle" x="272" y="-63.5" font-family="Helvetica,sans-Serif" font-size="10.00">torcpigpio.h</text>
</a>
</g>
</g>
<!-- Node8&#45;&gt;Node9 -->
<g id="edge8" class="edge"><title>Node8&#45;&gt;Node9</title>
<path fill="none" stroke="midnightblue" d="M200.574,-107.177C218.239,-97.2407 241.513,-84.1492 256.614,-75.6545"/>
<polygon fill="midnightblue" stroke="midnightblue" points="198.424,-104.371 191.424,-112.324 201.856,-110.472 198.424,-104.371"/>
</g>
<!-- Node12 -->
<g id="node12" class="node"><title>Node12</title>
<g id="a_node12"><a xlink:href="../../d1/d80/torcpipwmoutput_8cpp.html" target="_top" xlink:title="torcpipwmoutput.cpp">
<polygon fill="white" stroke="black" points="117,-0.5 117,-19.5 235,-19.5 235,-0.5 117,-0.5"/>
<text text-anchor="middle" x="176" y="-7.5" font-family="Helvetica,sans-Serif" font-size="10.00">torcpipwmoutput.cpp</text>
</a>
</g>
</g>
<!-- Node8&#45;&gt;Node12 -->
<g id="edge13" class="edge"><title>Node8&#45;&gt;Node12</title>
<path fill="none" stroke="midnightblue" d="M176,-102.348C176,-78.2538 176,-37.3079 176,-19.5914"/>
<polygon fill="midnightblue" stroke="midnightblue" points="172.5,-102.368 176,-112.368 179.5,-102.369 172.5,-102.368"/>
</g>
<!-- Node10 -->
<g id="node10" class="node"><title>Node10</title>
<g id="a_node10"><a xlink:href="../../dd/df5/torcpiswitchinput_8cpp.html" target="_top" xlink:title="torcpiswitchinput.cpp">
<polygon fill="white" stroke="black" points="253.5,-0.5 253.5,-19.5 370.5,-19.5 370.5,-0.5 253.5,-0.5"/>
<text text-anchor="middle" x="312" y="-7.5" font-family="Helvetica,sans-Serif" font-size="10.00">torcpiswitchinput.cpp</text>
</a>
</g>
</g>
<!-- Node9&#45;&gt;Node10 -->
<g id="edge9" class="edge"><title>Node9&#45;&gt;Node10</title>
<path fill="none" stroke="midnightblue" d="M284.7,-47.8554C291.626,-38.5048 299.906,-27.3265 305.518,-19.7511"/>
<polygon fill="midnightblue" stroke="midnightblue" points="281.745,-45.9641 278.605,-56.083 287.37,-50.1307 281.745,-45.9641"/>
</g>
<!-- Node11 -->
<g id="node11" class="node"><title>Node11</title>
<g id="a_node11"><a xlink:href="../../da/d84/torcpigpio_8cpp.html" target="_top" xlink:title="torcpigpio.cpp">
<polygon fill="white" stroke="black" points="444,-0.5 444,-19.5 528,-19.5 528,-0.5 444,-0.5"/>
<text text-anchor="middle" x="486" y="-7.5" font-family="Helvetica,sans-Serif" font-size="10.00">torcpigpio.cpp</text>
</a>
</g>
</g>
<!-- Node9&#45;&gt;Node11 -->
<g id="edge10" class="edge"><title>Node9&#45;&gt;Node11</title>
<path fill="none" stroke="midnightblue" d="M315.755,-53.959C356.174,-43.7598 415.373,-28.8217 452.25,-19.5164"/>
<polygon fill="midnightblue" stroke="midnightblue" points="314.749,-50.6032 305.909,-56.4435 316.461,-57.3904 314.749,-50.6032"/>
</g>
<!-- Node9&#45;&gt;Node12 -->
<g id="edge11" class="edge"><title>Node9&#45;&gt;Node12</title>
<path fill="none" stroke="midnightblue" d="M247.426,-51.1774C229.761,-41.2407 206.487,-28.1492 191.386,-19.6545"/>
<polygon fill="midnightblue" stroke="midnightblue" points="246.144,-54.4718 256.576,-56.324 249.576,-48.3708 246.144,-54.4718"/>
</g>
<!-- Node13 -->
<g id="node13" class="node"><title>Node13</title>
<g id="a_node13"><a xlink:href="../../d2/de8/torcpiswitchoutput_8cpp.html" target="_top" xlink:title="torcpiswitchoutput.cpp">
<polygon fill="white" stroke="black" points="878.5,-0.5 878.5,-19.5 1003.5,-19.5 1003.5,-0.5 878.5,-0.5"/>
<text text-anchor="middle" x="941" y="-7.5" font-family="Helvetica,sans-Serif" font-size="10.00">torcpiswitchoutput.cpp</text>
</a>
</g>
</g>
<!-- Node9&#45;&gt;Node13 -->
<g id="edge12" class="edge"><title>Node9&#45;&gt;Node13</title>
<path fill="none" stroke="midnightblue" d="M318.755,-55.9114C528.832,-27.9705 767.288,-16.8898 878.291,-12.9208"/>
<polygon fill="midnightblue" stroke="midnightblue" points="318.217,-52.4522 308.774,-57.2548 319.151,-59.3896 318.217,-52.4522"/>
</g>
<!-- Node15 -->
<g id="node15" class="node"><title>Node15</title>
<g id="a_node15"><a xlink:href="../../de/db1/torcnetworkpwmoutput_8cpp.html" target="_top" xlink:title="torcnetworkpwmoutput.cpp">
<polygon fill="white" stroke="black" points="326.5,-56.5 326.5,-75.5 473.5,-75.5 473.5,-56.5 326.5,-56.5"/>
<text text-anchor="middle" x="400" y="-63.5" font-family="Helvetica,sans-Serif" font-size="10.00">torcnetworkpwmoutput.cpp</text>
</a>
</g>
</g>
<!-- Node14&#45;&gt;Node15 -->
<g id="edge15" class="edge"><title>Node14&#45;&gt;Node15</title>
<path fill="none" stroke="midnightblue" d="M337.932,-106.901C353.335,-96.9986 373.446,-84.0705 386.537,-75.6545"/>
<polygon fill="midnightblue" stroke="midnightblue" points="336.015,-103.972 329.496,-112.324 339.801,-109.86 336.015,-103.972"/>
</g>
<!-- Node16 -->
<g id="node16" class="node"><title>Node16</title>
<g id="a_node16"><a xlink:href="../../d5/da7/torcoutputs_8cpp.html" target="_top" xlink:title="torcoutputs.cpp">
<polygon fill="white" stroke="black" points="1354,-0.5 1354,-19.5 1446,-19.5 1446,-0.5 1354,-0.5"/>
<text text-anchor="middle" x="1400" y="-7.5" font-family="Helvetica,sans-Serif" font-size="10.00">torcoutputs.cpp</text>
</a>
</g>
</g>
<!-- Node14&#45;&gt;Node16 -->
<g id="edge16" class="edge"><title>Node14&#45;&gt;Node16</title>
<path fill="none" stroke="midnightblue" d="M357.35,-109.672C422.459,-91.91 543.598,-59.189 564,-56 718.196,-31.8979 1201.98,-16.5663 1353.89,-12.2512"/>
<polygon fill="midnightblue" stroke="midnightblue" points="356.13,-106.377 347.405,-112.388 357.974,-113.13 356.13,-106.377"/>
</g>
<!-- Node18&#45;&gt;Node6 -->
<g id="edge19" class="edge"><title>Node18&#45;&gt;Node6</title>
<path fill="none" stroke="midnightblue" d="M675.172,-173.8C548.568,-165.743 221.537,-144.384 113,-132 110.266,-131.688 107.464,-131.342 104.639,-130.972"/>
<polygon fill="midnightblue" stroke="midnightblue" points="675.164,-177.306 685.365,-174.447 675.607,-170.32 675.164,-177.306"/>
</g>
<!-- Node18&#45;&gt;Node11 -->
<g id="edge20" class="edge"><title>Node18&#45;&gt;Node11</title>
<path fill="none" stroke="midnightblue" d="M674.964,-172.324C640.82,-167.051 596.381,-155.837 564,-132 522.537,-101.477 497.297,-41.7268 489.019,-19.5512"/>
<polygon fill="midnightblue" stroke="midnightblue" points="674.813,-175.838 685.205,-173.777 675.796,-168.907 674.813,-175.838"/>
</g>
<!-- Node18&#45;&gt;Node16 -->
<g id="edge23" class="edge"><title>Node18&#45;&gt;Node16</title>
<path fill="none" stroke="midnightblue" d="M675.412,-169.407C628.661,-160.324 570.185,-142.4 597,-112 647.483,-54.7701 1190.59,-21.9366 1353.84,-13.308"/>
<polygon fill="midnightblue" stroke="midnightblue" points="675.006,-172.892 685.475,-171.266 676.277,-166.008 675.006,-172.892"/>
</g>
<!-- Node19 -->
<g id="node19" class="node"><title>Node19</title>
<g id="a_node19"><a xlink:href="../../d1/d3b/torccameraoutput_8cpp.html" target="_top" xlink:title="torccameraoutput.cpp">
<polygon fill="white" stroke="black" points="970,-112.5 970,-131.5 1094,-131.5 1094,-112.5 970,-112.5"/>
<text text-anchor="middle" x="1032" y="-119.5" font-family="Helvetica,sans-Serif" font-size="10.00">torccameraoutput.cpp</text>
</a>
</g>
</g>
<!-- Node18&#45;&gt;Node19 -->
<g id="edge21" class="edge"><title>Node18&#45;&gt;Node19</title>
<path fill="none" stroke="midnightblue" d="M776.582,-168.074C834.031,-157.936 927.104,-141.511 983.623,-131.537"/>
<polygon fill="midnightblue" stroke="midnightblue" points="775.874,-164.645 766.634,-169.829 777.091,-171.538 775.874,-164.645"/>
</g>
<!-- Node18&#45;&gt;Node20 -->
<g id="edge22" class="edge"><title>Node18&#45;&gt;Node20</title>
<path fill="none" stroke="midnightblue" d="M764.531,-165.568C798.864,-155.381 848.333,-140.703 879.296,-131.516"/>
<polygon fill="midnightblue" stroke="midnightblue" points="763.43,-162.244 754.838,-168.444 765.421,-168.954 763.43,-162.244"/>
</g>
<!-- Node21 -->
<g id="node21" class="node"><title>Node21</title>
<g id="a_node21"><a xlink:href="../../d1/d81/torccentral_8cpp.html" target="_top" xlink:title="torccentral.cpp">
<polygon fill="white" stroke="black" points="606.5,-112.5 606.5,-131.5 695.5,-131.5 695.5,-112.5 606.5,-112.5"/>
<text text-anchor="middle" x="651" y="-119.5" font-family="Helvetica,sans-Serif" font-size="10.00">torccentral.cpp</text>
</a>
</g>
</g>
<!-- Node18&#45;&gt;Node21 -->
<g id="edge24" class="edge"><title>Node18&#45;&gt;Node21</title>
<path fill="none" stroke="midnightblue" d="M705.695,-162.38C692.139,-152.62 674.758,-140.106 663.269,-131.834"/>
<polygon fill="midnightblue" stroke="midnightblue" points="703.79,-165.321 713.95,-168.324 707.88,-159.641 703.79,-165.321"/>
</g>
<!-- Node22 -->
<g id="node22" class="node"><title>Node22</title>
<g id="a_node22"><a xlink:href="../../dd/dbf/testtorclocalcontext_8cpp.html" target="_top" xlink:title="testtorclocalcontext.cpp">
<polygon fill="white" stroke="black" points="714,-112.5 714,-131.5 846,-131.5 846,-112.5 714,-112.5"/>
<text text-anchor="middle" x="780" y="-119.5" font-family="Helvetica,sans-Serif" font-size="10.00">testtorclocalcontext.cpp</text>
</a>
</g>
</g>
<!-- Node18&#45;&gt;Node22 -->
<g id="edge25" class="edge"><title>Node18&#45;&gt;Node22</title>
<path fill="none" stroke="midnightblue" d="M741.998,-161.002C751.567,-151.433 763.361,-139.639 771.249,-131.751"/>
<polygon fill="midnightblue" stroke="midnightblue" points="739.513,-158.537 734.917,-168.083 744.463,-163.487 739.513,-158.537"/>
</g>
<!-- Node23&#45;&gt;Node19 -->
<g id="edge28" class="edge"><title>Node23&#45;&gt;Node19</title>
<path fill="none" stroke="midnightblue" d="M1076.96,-161.537C1065.73,-151.909 1051.68,-139.869 1042.31,-131.834"/>
<polygon fill="midnightblue" stroke="midnightblue" points="1075.01,-164.473 1084.88,-168.324 1079.56,-159.159 1075.01,-164.473"/>
</g>
<!-- Node24 -->
<g id="node24" class="node"><title>Node24</title>
<g id="a_node24"><a xlink:href="../../d0/d11/torccamera_8cpp.html" target="_top" xlink:title="torccamera.cpp">
<polygon fill="white" stroke="black" points="1112,-112.5 1112,-131.5 1204,-131.5 1204,-112.5 1112,-112.5"/>
<text text-anchor="middle" x="1158" y="-119.5" font-family="Helvetica,sans-Serif" font-size="10.00">torccamera.cpp</text>
</a>
</g>
</g>
<!-- Node23&#45;&gt;Node24 -->
<g id="edge27" class="edge"><title>Node23&#45;&gt;Node24</title>
<path fill="none" stroke="midnightblue" d="M1113.04,-161.537C1124.27,-151.909 1138.32,-139.869 1147.69,-131.834"/>
<polygon fill="midnightblue" stroke="midnightblue" points="1110.44,-159.159 1105.12,-168.324 1114.99,-164.473 1110.44,-159.159"/>
</g>
<!-- Node25 -->
<g id="node25" class="node"><title>Node25</title>
<g id="a_node25"><a xlink:href="../../d0/d44/torccamerathread_8cpp.html" target="_top" xlink:title="torccamerathread.cpp">
<polygon fill="white" stroke="black" points="1222,-112.5 1222,-131.5 1346,-131.5 1346,-112.5 1222,-112.5"/>
<text text-anchor="middle" x="1284" y="-119.5" font-family="Helvetica,sans-Serif" font-size="10.00">torccamerathread.cpp</text>
</a>
</g>
</g>
<!-- Node23&#45;&gt;Node25 -->
<g id="edge29" class="edge"><title>Node23&#45;&gt;Node25</title>
<path fill="none" stroke="midnightblue" d="M1135.01,-165.568C1170.67,-155.381 1222.04,-140.703 1254.19,-131.516"/>
<polygon fill="midnightblue" stroke="midnightblue" points="1133.6,-162.331 1124.95,-168.444 1135.52,-169.062 1133.6,-162.331"/>
</g>
<!-- Node27 -->
<g id="node27" class="node"><title>Node27</title>
<g id="a_node27"><a xlink:href="../../d9/dc5/torcpiswitchoutput_8h.html" target="_top" xlink:title="torcpiswitchoutput.h">
<polygon fill="white" stroke="black" points="1364.5,-112.5 1364.5,-131.5 1477.5,-131.5 1477.5,-112.5 1364.5,-112.5"/>
<text text-anchor="middle" x="1421" y="-119.5" font-family="Helvetica,sans-Serif" font-size="10.00">torcpiswitchoutput.h</text>
</a>
</g>
</g>
<!-- Node26&#45;&gt;Node27 -->
<g id="edge31" class="edge"><title>Node26&#45;&gt;Node27</title>
<path fill="none" stroke="midnightblue" d="M1473.86,-162.101C1460.72,-152.382 1444.02,-140.027 1432.94,-131.834"/>
<polygon fill="midnightblue" stroke="midnightblue" points="1472.15,-165.191 1482.27,-168.324 1476.31,-159.563 1472.15,-165.191"/>
</g>
<!-- Node28 -->
<g id="node28" class="node"><title>Node28</title>
<g id="a_node28"><a xlink:href="../../d2/d9b/torcnetworkswitchoutput_8h.html" target="_top" xlink:title="torcnetworkswitchoutput.h">
<polygon fill="white" stroke="black" points="1495.5,-112.5 1495.5,-131.5 1638.5,-131.5 1638.5,-112.5 1495.5,-112.5"/>
<text text-anchor="middle" x="1567" y="-119.5" font-family="Helvetica,sans-Serif" font-size="10.00">torcnetworkswitchoutput.h</text>
</a>
</g>
</g>
<!-- Node26&#45;&gt;Node28 -->
<g id="edge34" class="edge"><title>Node26&#45;&gt;Node28</title>
<path fill="none" stroke="midnightblue" d="M1514.14,-162.101C1527.28,-152.382 1543.98,-140.027 1555.06,-131.834"/>
<polygon fill="midnightblue" stroke="midnightblue" points="1511.69,-159.563 1505.73,-168.324 1515.85,-165.191 1511.69,-159.563"/>
</g>
<!-- Node32 -->
<g id="node32" class="node"><title>Node32</title>
<g id="a_node32"><a xlink:href="../../d2/d94/torcswitchoutput_8cpp.html" target="_top" xlink:title="torcswitchoutput.cpp">
<polygon fill="white" stroke="black" points="1657,-112.5 1657,-131.5 1773,-131.5 1773,-112.5 1657,-112.5"/>
<text text-anchor="middle" x="1715" y="-119.5" font-family="Helvetica,sans-Serif" font-size="10.00">torcswitchoutput.cpp</text>
</a>
</g>
</g>
<!-- Node26&#45;&gt;Node32 -->
<g id="edge40" class="edge"><title>Node26&#45;&gt;Node32</title>
<path fill="none" stroke="midnightblue" d="M1538.92,-166.024C1580.67,-155.823 1641.98,-140.841 1680.15,-131.516"/>
<polygon fill="midnightblue" stroke="midnightblue" points="1537.9,-162.67 1529.02,-168.444 1539.56,-169.47 1537.9,-162.67"/>
</g>
<!-- Node27&#45;&gt;Node9 -->
<g id="edge32" class="edge"><title>Node27&#45;&gt;Node9</title>
<path fill="none" stroke="midnightblue" d="M1353.91,-112.013C893.29,-73.5896 772.149,-129.05 317,-76 314.309,-75.6864 311.54,-75.2973 308.759,-74.8584"/>
<polygon fill="midnightblue" stroke="midnightblue" points="1353.9,-115.524 1364.16,-112.878 1354.49,-108.549 1353.9,-115.524"/>
</g>
<!-- Node27&#45;&gt;Node13 -->
<g id="edge33" class="edge"><title>Node27&#45;&gt;Node13</title>
<path fill="none" stroke="midnightblue" d="M1373.8,-110.182C1278.44,-88.3306 1064.61,-39.3273 978.242,-19.5345"/>
<polygon fill="midnightblue" stroke="midnightblue" points="1373.21,-113.638 1383.73,-112.46 1374.77,-106.815 1373.21,-113.638"/>
</g>
<!-- Node28&#45;&gt;Node16 -->
<g id="edge39" class="edge"><title>Node28&#45;&gt;Node16</title>
<path fill="none" stroke="midnightblue" d="M1485.59,-110.868C1461.85,-104.311 1437.6,-93.5698 1420,-76 1404.63,-60.6494 1401.02,-33.7862 1400.21,-19.8899"/>
<polygon fill="midnightblue" stroke="midnightblue" points="1484.8,-114.278 1495.36,-113.346 1486.53,-107.493 1484.8,-114.278"/>
</g>
<!-- Node29 -->
<g id="node29" class="node"><title>Node29</title>
<g id="a_node29"><a xlink:href="../../d0/d55/torcnetworkbuttonoutput_8h.html" target="_top" xlink:title="torcnetworkbuttonoutput.h">
<polygon fill="white" stroke="black" points="1428.5,-56.5 1428.5,-75.5 1573.5,-75.5 1573.5,-56.5 1428.5,-56.5"/>
<text text-anchor="middle" x="1501" y="-63.5" font-family="Helvetica,sans-Serif" font-size="10.00">torcnetworkbuttonoutput.h</text>
</a>
</g>
</g>
<!-- Node28&#45;&gt;Node29 -->
<g id="edge35" class="edge"><title>Node28&#45;&gt;Node29</title>
<path fill="none" stroke="midnightblue" d="M1548.45,-105.82C1536.62,-96.1452 1521.71,-83.9481 1511.8,-75.8339"/>
<polygon fill="midnightblue" stroke="midnightblue" points="1546.44,-108.7 1556.4,-112.324 1550.87,-103.283 1546.44,-108.7"/>
</g>
<!-- Node31 -->
<g id="node31" class="node"><title>Node31</title>
<g id="a_node31"><a xlink:href="../../d3/df9/torcnetworkswitchoutput_8cpp.html" target="_top" xlink:title="torcnetworkswitchoutput.cpp">
<polygon fill="white" stroke="black" points="1592,-56.5 1592,-75.5 1746,-75.5 1746,-56.5 1592,-56.5"/>
<text text-anchor="middle" x="1669" y="-63.5" font-family="Helvetica,sans-Serif" font-size="10.00">torcnetworkswitchoutput.cpp</text>
</a>
</g>
</g>
<!-- Node28&#45;&gt;Node31 -->
<g id="edge38" class="edge"><title>Node28&#45;&gt;Node31</title>
<path fill="none" stroke="midnightblue" d="M1592.33,-107.59C1611.19,-97.6052 1636.38,-84.2672 1652.65,-75.6545"/>
<polygon fill="midnightblue" stroke="midnightblue" points="1590.59,-104.552 1583.39,-112.324 1593.86,-110.738 1590.59,-104.552"/>
</g>
<!-- Node29&#45;&gt;Node16 -->
<g id="edge37" class="edge"><title>Node29&#45;&gt;Node16</title>
<path fill="none" stroke="midnightblue" d="M1475.92,-51.5895C1457.24,-41.6052 1432.3,-28.2672 1416.19,-19.6545"/>
<polygon fill="midnightblue" stroke="midnightblue" points="1474.3,-54.6955 1484.77,-56.324 1477.6,-48.5224 1474.3,-54.6955"/>
</g>
<!-- Node30 -->
<g id="node30" class="node"><title>Node30</title>
<g id="a_node30"><a xlink:href="../../df/d6d/torcnetworkbuttonoutput_8cpp.html" target="_top" xlink:title="torcnetworkbuttonoutput.cpp">
<polygon fill="white" stroke="black" points="1464,-0.5 1464,-19.5 1620,-19.5 1620,-0.5 1464,-0.5"/>
<text text-anchor="middle" x="1542" y="-7.5" font-family="Helvetica,sans-Serif" font-size="10.00">torcnetworkbuttonoutput.cpp</text>
</a>
</g>
</g>
<!-- Node29&#45;&gt;Node30 -->
<g id="edge36" class="edge"><title>Node29&#45;&gt;Node30</title>
<path fill="none" stroke="midnightblue" d="M1514.02,-47.8554C1521.12,-38.5048 1529.6,-27.3265 1535.36,-19.7511"/>
<polygon fill="midnightblue" stroke="midnightblue" points="1511.03,-46.002 1507.77,-56.083 1516.61,-50.235 1511.03,-46.002"/>
</g>
<!-- Node34 -->
<g id="node34" class="node"><title>Node34</title>
<g id="a_node34"><a xlink:href="../../d7/d52/torcnetworkphoutput_8h.html" target="_top" xlink:title="torcnetworkphoutput.h">
<polygon fill="white" stroke="black" points="1791.5,-112.5 1791.5,-131.5 1916.5,-131.5 1916.5,-112.5 1791.5,-112.5"/>
<text text-anchor="middle" x="1854" y="-119.5" font-family="Helvetica,sans-Serif" font-size="10.00">torcnetworkphoutput.h</text>
</a>
</g>
</g>
<!-- Node33&#45;&gt;Node34 -->
<g id="edge42" class="edge"><title>Node33&#45;&gt;Node34</title>
<path fill="none" stroke="midnightblue" d="M1854,-157.805C1854,-148.91 1854,-138.78 1854,-131.751"/>
<polygon fill="midnightblue" stroke="midnightblue" points="1850.5,-158.083 1854,-168.083 1857.5,-158.083 1850.5,-158.083"/>
</g>
<!-- Node36 -->
<g id="node36" class="node"><title>Node36</title>
<g id="a_node36"><a xlink:href="../../d8/dd0/torcphoutput_8cpp.html" target="_top" xlink:title="torcphoutput.cpp">
<polygon fill="white" stroke="black" points="1934.5,-112.5 1934.5,-131.5 2033.5,-131.5 2033.5,-112.5 1934.5,-112.5"/>
<text text-anchor="middle" x="1984" y="-119.5" font-family="Helvetica,sans-Serif" font-size="10.00">torcphoutput.cpp</text>
</a>
</g>
</g>
<!-- Node33&#45;&gt;Node36 -->
<g id="edge45" class="edge"><title>Node33&#45;&gt;Node36</title>
<path fill="none" stroke="midnightblue" d="M1884.09,-164.503C1908.46,-154.38 1942.14,-140.388 1963.5,-131.516"/>
<polygon fill="midnightblue" stroke="midnightblue" points="1882.49,-161.375 1874.6,-168.444 1885.18,-167.84 1882.49,-161.375"/>
</g>
<!-- Node34&#45;&gt;Node16 -->
<g id="edge44" class="edge"><title>Node34&#45;&gt;Node16</title>
<path fill="none" stroke="midnightblue" d="M1834.02,-106.297C1810.2,-89.0502 1771.53,-62.0362 1755,-56 1628.86,-9.92669 1587.96,-38.8475 1455,-20 1452.13,-19.5926 1449.17,-19.1571 1446.19,-18.7057"/>
<polygon fill="midnightblue" stroke="midnightblue" points="1832.21,-109.304 1842.35,-112.365 1836.33,-103.647 1832.21,-109.304"/>
</g>
<!-- Node35 -->
<g id="node35" class="node"><title>Node35</title>
<g id="a_node35"><a xlink:href="../../d7/d84/torcnetworkphoutput_8cpp.html" target="_top" xlink:title="torcnetworkphoutput.cpp">
<polygon fill="white" stroke="black" points="1802.5,-56.5 1802.5,-75.5 1939.5,-75.5 1939.5,-56.5 1802.5,-56.5"/>
<text text-anchor="middle" x="1871" y="-63.5" font-family="Helvetica,sans-Serif" font-size="10.00">torcnetworkphoutput.cpp</text>
</a>
</g>
</g>
<!-- Node34&#45;&gt;Node35 -->
<g id="edge43" class="edge"><title>Node34&#45;&gt;Node35</title>
<path fill="none" stroke="midnightblue" d="M1859.86,-102.396C1862.7,-93.362 1865.98,-82.936 1868.25,-75.7511"/>
<polygon fill="midnightblue" stroke="midnightblue" points="1856.47,-101.493 1856.81,-112.083 1863.15,-103.596 1856.47,-101.493"/>
</g>
<!-- Node38 -->
<g id="node38" class="node"><title>Node38</title>
<g id="a_node38"><a xlink:href="../../d4/ddc/torcnetworktemperatureoutput_8h.html" target="_top" xlink:title="torcnetworktemperatureoutput.h">
<polygon fill="white" stroke="black" points="2052,-112.5 2052,-131.5 2226,-131.5 2226,-112.5 2052,-112.5"/>
<text text-anchor="middle" x="2139" y="-119.5" font-family="Helvetica,sans-Serif" font-size="10.00">torcnetworktemperatureoutput.h</text>
</a>
</g>
</g>
<!-- Node37&#45;&gt;Node38 -->
<g id="edge47" class="edge"><title>Node37&#45;&gt;Node38</title>
<path fill="none" stroke="midnightblue" d="M2139,-157.805C2139,-148.91 2139,-138.78 2139,-131.751"/>
<polygon fill="midnightblue" stroke="midnightblue" points="2135.5,-158.083 2139,-168.083 2142.5,-158.083 2135.5,-158.083"/>
</g>
<!-- Node40 -->
<g id="node40" class="node"><title>Node40</title>
<g id="a_node40"><a xlink:href="../../d1/d03/torctemperatureoutput_8cpp.html" target="_top" xlink:title="torctemperatureoutput.cpp">
<polygon fill="white" stroke="black" points="2244,-112.5 2244,-131.5 2392,-131.5 2392,-112.5 2244,-112.5"/>
<text text-anchor="middle" x="2318" y="-119.5" font-family="Helvetica,sans-Serif" font-size="10.00">torctemperatureoutput.cpp</text>
</a>
</g>
</g>
<!-- Node37&#45;&gt;Node40 -->
<g id="edge50" class="edge"><title>Node37&#45;&gt;Node40</title>
<path fill="none" stroke="midnightblue" d="M2177.33,-165.436C2211.08,-155.255 2259.45,-140.664 2289.77,-131.516"/>
<polygon fill="midnightblue" stroke="midnightblue" points="2175.93,-162.204 2167.36,-168.444 2177.95,-168.906 2175.93,-162.204"/>
</g>
<!-- Node38&#45;&gt;Node16 -->
<g id="edge49" class="edge"><title>Node38&#45;&gt;Node16</title>
<path fill="none" stroke="midnightblue" d="M2109.93,-108.427C2073.21,-93.1599 2007.7,-67.9718 1949,-56 1733.3,-12.0097 1673.62,-45.8007 1455,-20 1452.12,-19.6598 1449.15,-19.2757 1446.17,-18.8628"/>
<polygon fill="midnightblue" stroke="midnightblue" points="2108.92,-111.799 2119.5,-112.45 2111.64,-105.347 2108.92,-111.799"/>
</g>
<!-- Node39 -->
<g id="node39" class="node"><title>Node39</title>
<g id="a_node39"><a xlink:href="../../dc/d8a/torcnetworktemperatureoutput_8cpp.html" target="_top" xlink:title="torcnetworktemperatureoutput.cpp">
<polygon fill="white" stroke="black" points="2046.5,-56.5 2046.5,-75.5 2231.5,-75.5 2231.5,-56.5 2046.5,-56.5"/>
<text text-anchor="middle" x="2139" y="-63.5" font-family="Helvetica,sans-Serif" font-size="10.00">torcnetworktemperatureoutput.cpp</text>
</a>
</g>
</g>
<!-- Node38&#45;&gt;Node39 -->
<g id="edge48" class="edge"><title>Node38&#45;&gt;Node39</title>
<path fill="none" stroke="midnightblue" d="M2139,-101.805C2139,-92.9102 2139,-82.7798 2139,-75.7511"/>
<polygon fill="midnightblue" stroke="midnightblue" points="2135.5,-102.083 2139,-112.083 2142.5,-102.083 2135.5,-102.083"/>
</g>
</g>
</svg>
        <g id="navigator" transform="translate(0 0)" fill="#404254">
                <rect fill="#f2f5e9" fill-opacity="0.5" stroke="#606060" stroke-width=".5" x="0" y="0" width="60" height="60"/>
                <use id="zoomplus" xlink:href="#zoomPlus" x="17" y="9" onmousedown="handleZoom(evt,'in')"/>
                <use id="zoomminus" xlink:href="#zoomMin" x="42" y="9" onmousedown="handleZoom(evt,'out')"/>
                <use id="reset" xlink:href="#resetDef" x="30" y="36" onmousedown="handleReset()"/>
                <g id="arrowUp" xlink:href="#dirArrow" transform="translate(30 24)" onmousedown="handlePan(0,-1)">
                  <use xlink:href="#rim" fill="#404040">
                        <set attributeName="fill" to="#808080" begin="arrowUp.mouseover" end="arrowUp.mouseout"/>
                  </use>
                  <path fill="none" stroke="white" stroke-width="1.5" d="M0,-3.0v7 M-2.5,-0.5L0,-3.0L2.5,-0.5"/>
                </g>
                <g id="arrowRight" xlink:href="#dirArrow" transform="rotate(90) translate(36 -43)" onmousedown="handlePan(1,0)">
                  <use xlink:href="#rim" fill="#404040">
                        <set attributeName="fill" to="#808080" begin="arrowRight.mouseover" end="arrowRight.mouseout"/>
                  </use>
                  <path fill="none" stroke="white" stroke-width="1.5" d="M0,-3.0v7 M-2.5,-0.5L0,-3.0L2.5,-0.5"/>
                </g>
                <g id="arrowDown" xlink:href="#dirArrow" transform="rotate(180) translate(-30 -48)" onmousedown="handlePan(0,1)">
                  <use xlink:href="#rim" fill="#404040">
                        <set attributeName="fill" to="#808080" begin="arrowDown.mouseover" end="arrowDown.mouseout"/>
                  </use>
                  <path fill="none" stroke="white" stroke-width="1.5" d="M0,-3.0v7 M-2.5,-0.5L0,-3.0L2.5,-0.5"/>
                </g>
                <g id="arrowLeft" xlink:href="#dirArrow" transform="rotate(270) translate(-36 17)" onmousedown="handlePan(-1,0)">
                  <use xlink:href="#rim" fill="#404040">
                        <set attributeName="fill" to="#808080" begin="arrowLeft.mouseover" end="arrowLeft.mouseout"/>
                  </use>
                  <path fill="none" stroke="white" stroke-width="1.5" d="M0,-3.0v7 M-2.5,-0.5L0,-3.0L2.5,-0.5"/>
                </g>
        </g>
        <svg viewBox="0 0 15 15" width="100%" height="30px" preserveAspectRatio="xMaxYMin meet">
         <g id="arrow_out" transform="scale(0.3 0.3)">
          <a xlink:href="torcoutput_8h__dep__incl_org.svg" target="_base">
           <rect id="button" ry="5" rx="5" y="6" x="6" height="38" width="38"
                fill="#f2f5e9" fill-opacity="0.5" stroke="#606060" stroke-width="1.0"/>
           <path id="arrow"
             d="M 11.500037,31.436501 C 11.940474,20.09759 22.043105,11.32322 32.158766,21.979434 L 37.068811,17.246167 C 37.068811,17.246167 37.088388,32 37.088388,32 L 22.160133,31.978069 C 22.160133,31.978069 26.997745,27.140456 26.997745,27.140456 C 18.528582,18.264221 13.291696,25.230495 11.500037,31.436501 z"
             style="fill:#404040;"/>
          </a>
         </g>
        </svg>
</svg>
