<?xml version="1.0" encoding="UTF-8" standalone="no"?>
<!DOCTYPE svg PUBLIC "-//W3C//DTD SVG 1.1//EN"
 "http://www.w3.org/Graphics/SVG/1.1/DTD/svg11.dtd">
<!-- Generated by graphviz version 2.38.0 (20140413.2041)
 -->
<!-- Title: torccontrol.h Pages: 1 -->
<svg width="997pt" height="308pt"
 viewBox="0.00 0.00 996.50 308.00" xmlns="http://www.w3.org/2000/svg" xmlns:xlink="http://www.w3.org/1999/xlink">
<g id="graph0" class="graph" transform="scale(1 1) rotate(0) translate(4 304)">
<title>torccontrol.h</title>
<polygon fill="white" stroke="none" points="-4,4 -4,-304 992.5,-304 992.5,4 -4,4"/>
<!-- Node1 -->
<g id="node1" class="node"><title>Node1</title>
<polygon fill="#bfbfbf" stroke="black" points="523.5,-280.5 523.5,-299.5 600.5,-299.5 600.5,-280.5 523.5,-280.5"/>
<text text-anchor="middle" x="562" y="-287.5" font-family="Helvetica,sans-Serif" font-size="10.00">torccontrol.h</text>
</g>
<!-- Node2 -->
<g id="node2" class="node"><title>Node2</title>
<polygon fill="white" stroke="#bfbfbf" points="0,-56.5 0,-75.5 44,-75.5 44,-56.5 0,-56.5"/>
<text text-anchor="middle" x="22" y="-63.5" font-family="Helvetica,sans-Serif" font-size="10.00">QMap</text>
</g>
<!-- Node1&#45;&gt;Node2 -->
<g id="edge1" class="edge"><title>Node1&#45;&gt;Node2</title>
<path fill="none" stroke="midnightblue" d="M523.307,-284.712C422.624,-272.957 155.285,-237.75 83,-188 47.7428,-163.734 31.7898,-112.846 25.5099,-85.4312"/>
<polygon fill="midnightblue" stroke="midnightblue" points="28.9193,-84.6354 23.44,-75.5675 22.0685,-86.0732 28.9193,-84.6354"/>
</g>
<!-- Node3 -->
<g id="node3" class="node"><title>Node3</title>
<polygon fill="white" stroke="#bfbfbf" points="534.5,-168.5 534.5,-187.5 589.5,-187.5 589.5,-168.5 534.5,-168.5"/>
<text text-anchor="middle" x="562" y="-175.5" font-family="Helvetica,sans-Serif" font-size="10.00">QObject</text>
</g>
<!-- Node1&#45;&gt;Node3 -->
<g id="edge2" class="edge"><title>Node1&#45;&gt;Node3</title>
<path fill="none" stroke="midnightblue" d="M562,-280.368C562,-262.617 562,-221.666 562,-197.597"/>
<polygon fill="midnightblue" stroke="midnightblue" points="565.5,-197.591 562,-187.591 558.5,-197.591 565.5,-197.591"/>
</g>
<!-- Node4 -->
<g id="node4" class="node"><title>Node4</title>
<polygon fill="white" stroke="#bfbfbf" points="724.5,-224.5 724.5,-243.5 793.5,-243.5 793.5,-224.5 724.5,-224.5"/>
<text text-anchor="middle" x="759" y="-231.5" font-family="Helvetica,sans-Serif" font-size="10.00">QStringList</text>
</g>
<!-- Node1&#45;&gt;Node4 -->
<g id="edge3" class="edge"><title>Node1&#45;&gt;Node4</title>
<path fill="none" stroke="midnightblue" d="M593.215,-280.444C626.933,-271.201 680.8,-256.436 717.932,-246.257"/>
<polygon fill="midnightblue" stroke="midnightblue" points="719.212,-249.536 727.931,-243.516 717.361,-242.785 719.212,-249.536"/>
</g>
<!-- Node5 -->
<g id="node5" class="node"><title>Node5</title>
<g id="a_node5"><a xlink:href="../../d3/dee/torchttpservice_8h.html" target="_top" xlink:title="torchttpservice.h">
<polygon fill="white" stroke="black" points="288,-224.5 288,-243.5 386,-243.5 386,-224.5 288,-224.5"/>
<text text-anchor="middle" x="337" y="-231.5" font-family="Helvetica,sans-Serif" font-size="10.00">torchttpservice.h</text>
</a>
</g>
</g>
<!-- Node1&#45;&gt;Node5 -->
<g id="edge4" class="edge"><title>Node1&#45;&gt;Node5</title>
<path fill="none" stroke="midnightblue" d="M526.348,-280.444C487.344,-271.083 424.734,-256.056 382.283,-245.868"/>
<polygon fill="midnightblue" stroke="midnightblue" points="383.026,-242.447 372.485,-243.516 381.392,-249.254 383.026,-242.447"/>
</g>
<!-- Node19 -->
<g id="node19" class="node"><title>Node19</title>
<g id="a_node19"><a xlink:href="../../d1/df7/torcdevice_8h.html" target="_top" xlink:title="torcdevice.h">
<polygon fill="white" stroke="black" points="631.5,-224.5 631.5,-243.5 706.5,-243.5 706.5,-224.5 631.5,-224.5"/>
<text text-anchor="middle" x="669" y="-231.5" font-family="Helvetica,sans-Serif" font-size="10.00">torcdevice.h</text>
</a>
</g>
</g>
<!-- Node1&#45;&gt;Node19 -->
<g id="edge22" class="edge"><title>Node1&#45;&gt;Node19</title>
<path fill="none" stroke="midnightblue" d="M579.191,-280.324C596.351,-271.664 622.946,-258.242 642.747,-248.249"/>
<polygon fill="midnightblue" stroke="midnightblue" points="644.501,-251.285 651.851,-243.655 641.347,-245.035 644.501,-251.285"/>
</g>
<!-- Node5&#45;&gt;Node2 -->
<g id="edge5" class="edge"><title>Node5&#45;&gt;Node2</title>
<path fill="none" stroke="midnightblue" d="M287.771,-233.484C238.794,-231.752 163.309,-222.898 109,-188 69.4151,-162.563 42.1668,-112.204 29.7042,-85.1677"/>
<polygon fill="midnightblue" stroke="midnightblue" points="32.7805,-83.4708 25.5285,-75.7469 26.381,-86.3074 32.7805,-83.4708"/>
</g>
<!-- Node6 -->
<g id="node6" class="node"><title>Node6</title>
<polygon fill="white" stroke="#bfbfbf" points="777.5,-112.5 777.5,-131.5 830.5,-131.5 830.5,-112.5 777.5,-112.5"/>
<text text-anchor="middle" x="804" y="-119.5" font-family="Helvetica,sans-Serif" font-size="10.00">QMutex</text>
</g>
<!-- Node5&#45;&gt;Node6 -->
<g id="edge6" class="edge"><title>Node5&#45;&gt;Node6</title>
<path fill="none" stroke="midnightblue" d="M363.966,-224.495C391.499,-215.714 435.414,-201.438 473,-188 496.316,-179.664 501.078,-174.395 525,-168 624.957,-141.279 652.998,-149.347 755,-132 758.964,-131.326 763.103,-130.6 767.225,-129.863"/>
<polygon fill="midnightblue" stroke="midnightblue" points="768.105,-133.261 777.32,-128.032 766.856,-126.373 768.105,-133.261"/>
</g>
<!-- Node7 -->
<g id="node7" class="node"><title>Node7</title>
<polygon fill="white" stroke="#bfbfbf" points="460,-112.5 460,-131.5 552,-131.5 552,-112.5 460,-112.5"/>
<text text-anchor="middle" x="506" y="-119.5" font-family="Helvetica,sans-Serif" font-size="10.00">QReadWriteLock</text>
</g>
<!-- Node5&#45;&gt;Node7 -->
<g id="edge7" class="edge"><title>Node5&#45;&gt;Node7</title>
<path fill="none" stroke="midnightblue" d="M368.579,-224.447C391.904,-217.159 423.69,-205.125 448,-188 466.662,-174.853 483.48,-154.613 494.142,-140.215"/>
<polygon fill="midnightblue" stroke="midnightblue" points="497.241,-141.898 500.216,-131.73 491.549,-137.824 497.241,-141.898"/>
</g>
<!-- Node8 -->
<g id="node8" class="node"><title>Node8</title>
<polygon fill="white" stroke="#bfbfbf" points="243.5,-168.5 243.5,-187.5 322.5,-187.5 322.5,-168.5 243.5,-168.5"/>
<text text-anchor="middle" x="283" y="-175.5" font-family="Helvetica,sans-Serif" font-size="10.00">QMetaObject</text>
</g>
<!-- Node5&#45;&gt;Node8 -->
<g id="edge8" class="edge"><title>Node5&#45;&gt;Node8</title>
<path fill="none" stroke="midnightblue" d="M328.083,-224.083C320.22,-216.22 308.569,-204.569 299.081,-195.081"/>
<polygon fill="midnightblue" stroke="midnightblue" points="301.297,-192.347 291.751,-187.751 296.347,-197.297 301.297,-192.347"/>
</g>
<!-- Node9 -->
<g id="node9" class="node"><title>Node9</title>
<polygon fill="white" stroke="#bfbfbf" points="340.5,-168.5 340.5,-187.5 439.5,-187.5 439.5,-168.5 340.5,-168.5"/>
<text text-anchor="middle" x="390" y="-175.5" font-family="Helvetica,sans-Serif" font-size="10.00">QCoreApplication</text>
</g>
<!-- Node5&#45;&gt;Node9 -->
<g id="edge9" class="edge"><title>Node5&#45;&gt;Node9</title>
<path fill="none" stroke="midnightblue" d="M345.752,-224.083C353.47,-216.22 364.905,-204.569 374.217,-195.081"/>
<polygon fill="midnightblue" stroke="midnightblue" points="376.904,-197.34 381.411,-187.751 371.908,-192.436 376.904,-197.34"/>
</g>
<!-- Node10 -->
<g id="node10" class="node"><title>Node10</title>
<g id="a_node10"><a xlink:href="../../d4/d11/torchttphandler_8h.html" target="_top" xlink:title="torchttphandler.h">
<polygon fill="white" stroke="black" points="126.5,-168.5 126.5,-187.5 225.5,-187.5 225.5,-168.5 126.5,-168.5"/>
<text text-anchor="middle" x="176" y="-175.5" font-family="Helvetica,sans-Serif" font-size="10.00">torchttphandler.h</text>
</a>
</g>
</g>
<!-- Node5&#45;&gt;Node10 -->
<g id="edge10" class="edge"><title>Node5&#45;&gt;Node10</title>
<path fill="none" stroke="midnightblue" d="M311.489,-224.444C284.404,-215.359 241.41,-200.939 211.131,-190.783"/>
<polygon fill="midnightblue" stroke="midnightblue" points="211.986,-187.378 201.392,-187.516 209.76,-194.015 211.986,-187.378"/>
</g>
<!-- Node13 -->
<g id="node13" class="node"><title>Node13</title>
<g id="a_node13"><a xlink:href="../../df/dd7/torchttprequest_8h.html" target="_top" xlink:title="torchttprequest.h">
<polygon fill="white" stroke="black" points="97.5,-112.5 97.5,-131.5 198.5,-131.5 198.5,-112.5 97.5,-112.5"/>
<text text-anchor="middle" x="148" y="-119.5" font-family="Helvetica,sans-Serif" font-size="10.00">torchttprequest.h</text>
</a>
</g>
</g>
<!-- Node5&#45;&gt;Node13 -->
<g id="edge21" class="edge"><title>Node5&#45;&gt;Node13</title>
<path fill="none" stroke="midnightblue" d="M287.824,-229.993C229.689,-225.293 138.138,-213.899 117,-188 104.973,-173.264 118.19,-153.086 130.894,-139.138"/>
<polygon fill="midnightblue" stroke="midnightblue" points="133.64,-141.336 138.12,-131.735 128.631,-136.447 133.64,-141.336"/>
</g>
<!-- Node11 -->
<g id="node11" class="node"><title>Node11</title>
<polygon fill="white" stroke="#bfbfbf" points="323.5,-56.5 323.5,-75.5 376.5,-75.5 376.5,-56.5 323.5,-56.5"/>
<text text-anchor="middle" x="350" y="-63.5" font-family="Helvetica,sans-Serif" font-size="10.00">QString</text>
</g>
<!-- Node10&#45;&gt;Node11 -->
<g id="edge11" class="edge"><title>Node10&#45;&gt;Node11</title>
<path fill="none" stroke="midnightblue" d="M220.737,-168.433C246.932,-161.763 279.557,-150.447 304,-132 320.497,-119.55 333.414,-99.4736 341.306,-84.9243"/>
<polygon fill="midnightblue" stroke="midnightblue" points="344.488,-86.3899 345.949,-75.8963 338.263,-83.1884 344.488,-86.3899"/>
</g>
<!-- Node12 -->
<g id="node12" class="node"><title>Node12</title>
<polygon fill="white" stroke="#bfbfbf" points="217,-112.5 217,-131.5 295,-131.5 295,-112.5 217,-112.5"/>
<text text-anchor="middle" x="256" y="-119.5" font-family="Helvetica,sans-Serif" font-size="10.00">QVariantMap</text>
</g>
<!-- Node10&#45;&gt;Node12 -->
<g id="edge12" class="edge"><title>Node10&#45;&gt;Node12</title>
<path fill="none" stroke="midnightblue" d="M188.853,-168.324C201.216,-159.979 220.13,-147.212 234.737,-137.352"/>
<polygon fill="midnightblue" stroke="midnightblue" points="236.848,-140.15 243.179,-131.655 232.932,-134.348 236.848,-140.15"/>
</g>
<!-- Node10&#45;&gt;Node13 -->
<g id="edge13" class="edge"><title>Node10&#45;&gt;Node13</title>
<path fill="none" stroke="midnightblue" d="M171.376,-168.083C167.544,-160.691 161.976,-149.953 157.235,-140.811"/>
<polygon fill="midnightblue" stroke="midnightblue" points="160.248,-139.018 152.538,-131.751 154.034,-142.24 160.248,-139.018"/>
</g>
<!-- Node13&#45;&gt;Node2 -->
<g id="edge14" class="edge"><title>Node13&#45;&gt;Node2</title>
<path fill="none" stroke="midnightblue" d="M128.035,-112.444C107.391,-103.596 74.9375,-89.6875 51.3684,-79.5865"/>
<polygon fill="midnightblue" stroke="midnightblue" points="52.4419,-76.2387 41.8717,-75.5164 49.6844,-82.6727 52.4419,-76.2387"/>
</g>
<!-- Node13&#45;&gt;Node11 -->
<g id="edge16" class="edge"><title>Node13&#45;&gt;Node11</title>
<path fill="none" stroke="midnightblue" d="M180.008,-112.444C216.363,-102.725 275.563,-86.8991 313.634,-76.7216"/>
<polygon fill="midnightblue" stroke="midnightblue" points="314.546,-80.1007 323.303,-74.1368 312.738,-73.3382 314.546,-80.1007"/>
</g>
<!-- Node14 -->
<g id="node14" class="node"><title>Node14</title>
<polygon fill="white" stroke="#bfbfbf" points="175.5,-56.5 175.5,-75.5 216.5,-75.5 216.5,-56.5 175.5,-56.5"/>
<text text-anchor="middle" x="196" y="-63.5" font-family="Helvetica,sans-Serif" font-size="10.00">QPair</text>
</g>
<!-- Node13&#45;&gt;Node14 -->
<g id="edge15" class="edge"><title>Node13&#45;&gt;Node14</title>
<path fill="none" stroke="midnightblue" d="M155.926,-112.083C162.846,-104.298 173.065,-92.8015 181.452,-83.3665"/>
<polygon fill="midnightblue" stroke="midnightblue" points="184.194,-85.5505 188.221,-75.7511 178.962,-80.8999 184.194,-85.5505"/>
</g>
<!-- Node15 -->
<g id="node15" class="node"><title>Node15</title>
<polygon fill="white" stroke="#bfbfbf" points="234.5,-56.5 234.5,-75.5 305.5,-75.5 305.5,-56.5 234.5,-56.5"/>
<text text-anchor="middle" x="270" y="-63.5" font-family="Helvetica,sans-Serif" font-size="10.00">QDateTime</text>
</g>
<!-- Node13&#45;&gt;Node15 -->
<g id="edge17" class="edge"><title>Node13&#45;&gt;Node15</title>
<path fill="none" stroke="midnightblue" d="M167.331,-112.444C187.32,-103.596 218.743,-89.6875 241.564,-79.5865"/>
<polygon fill="midnightblue" stroke="midnightblue" points="243.032,-82.7645 250.759,-75.5164 240.198,-76.3635 243.032,-82.7645"/>
</g>
<!-- Node16 -->
<g id="node16" class="node"><title>Node16</title>
<g id="a_node16"><a xlink:href="../../de/de6/torchttpreader_8h.html" target="_top" xlink:title="torchttpreader.h">
<polygon fill="white" stroke="black" points="62.5,-56.5 62.5,-75.5 157.5,-75.5 157.5,-56.5 62.5,-56.5"/>
<text text-anchor="middle" x="110" y="-63.5" font-family="Helvetica,sans-Serif" font-size="10.00">torchttpreader.h</text>
</a>
</g>
</g>
<!-- Node13&#45;&gt;Node16 -->
<g id="edge18" class="edge"><title>Node13&#45;&gt;Node16</title>
<path fill="none" stroke="midnightblue" d="M141.725,-112.083C136.358,-104.455 128.482,-93.2645 121.921,-83.9408"/>
<polygon fill="midnightblue" stroke="midnightblue" points="124.775,-81.9149 116.158,-75.7511 119.051,-85.9434 124.775,-81.9149"/>
</g>
<!-- Node17 -->
<g id="node17" class="node"><title>Node17</title>
<polygon fill="white" stroke="#bfbfbf" points="29.5,-0.5 29.5,-19.5 100.5,-19.5 100.5,-0.5 29.5,-0.5"/>
<text text-anchor="middle" x="65" y="-7.5" font-family="Helvetica,sans-Serif" font-size="10.00">QByteArray</text>
</g>
<!-- Node16&#45;&gt;Node17 -->
<g id="edge19" class="edge"><title>Node16&#45;&gt;Node17</title>
<path fill="none" stroke="midnightblue" d="M102.569,-56.083C96.1473,-48.3768 86.6944,-37.0333 78.8775,-27.6531"/>
<polygon fill="midnightblue" stroke="midnightblue" points="81.3832,-25.1927 72.2926,-19.7511 76.0057,-29.674 81.3832,-25.1927"/>
</g>
<!-- Node18 -->
<g id="node18" class="node"><title>Node18</title>
<polygon fill="white" stroke="#bfbfbf" points="119,-0.5 119,-19.5 191,-19.5 191,-0.5 119,-0.5"/>
<text text-anchor="middle" x="155" y="-7.5" font-family="Helvetica,sans-Serif" font-size="10.00">QTcpSocket</text>
</g>
<!-- Node16&#45;&gt;Node18 -->
<g id="edge20" class="edge"><title>Node16&#45;&gt;Node18</title>
<path fill="none" stroke="midnightblue" d="M117.431,-56.083C123.853,-48.3768 133.306,-37.0333 141.122,-27.6531"/>
<polygon fill="midnightblue" stroke="midnightblue" points="143.994,-29.674 147.707,-19.7511 138.617,-25.1927 143.994,-29.674"/>
</g>
<!-- Node19&#45;&gt;Node3 -->
<g id="edge26" class="edge"><title>Node19&#45;&gt;Node3</title>
<path fill="none" stroke="midnightblue" d="M651.809,-224.324C634.649,-215.664 608.054,-202.242 588.253,-192.249"/>
<polygon fill="midnightblue" stroke="midnightblue" points="589.653,-189.035 579.149,-187.655 586.499,-195.285 589.653,-189.035"/>
</g>
<!-- Node19&#45;&gt;Node6 -->
<g id="edge24" class="edge"><title>Node19&#45;&gt;Node6</title>
<path fill="none" stroke="midnightblue" d="M699.074,-224.486C729.007,-215.458 772.15,-200.768 784,-188 795.662,-175.436 800.529,-156.216 802.557,-141.931"/>
<polygon fill="midnightblue" stroke="midnightblue" points="806.062,-142.071 803.651,-131.754 799.102,-141.323 806.062,-142.071"/>
</g>
<!-- Node19&#45;&gt;Node11 -->
<g id="edge25" class="edge"><title>Node19&#45;&gt;Node11</title>
<path fill="none" stroke="midnightblue" d="M662.543,-224.481C643.4,-199.444 586.689,-126.918 561,-112 505.825,-79.9593 430.654,-70.6343 386.528,-67.9812"/>
<polygon fill="midnightblue" stroke="midnightblue" points="386.708,-64.4859 376.54,-67.4635 386.345,-71.4766 386.708,-64.4859"/>
</g>
<!-- Node20 -->
<g id="node20" class="node"><title>Node20</title>
<polygon fill="white" stroke="#bfbfbf" points="939.5,-112.5 939.5,-131.5 988.5,-131.5 988.5,-112.5 939.5,-112.5"/>
<text text-anchor="middle" x="964" y="-119.5" font-family="Helvetica,sans-Serif" font-size="10.00">QHash</text>
</g>
<!-- Node19&#45;&gt;Node20 -->
<g id="edge23" class="edge"><title>Node19&#45;&gt;Node20</title>
<path fill="none" stroke="midnightblue" d="M706.632,-225.504C709.461,-224.981 712.274,-224.474 715,-224 767.266,-214.905 912.634,-224.64 951,-188 963.336,-176.219 965.745,-156.291 965.587,-141.599"/>
<polygon fill="midnightblue" stroke="midnightblue" points="969.083,-141.419 965.088,-131.606 962.091,-141.768 969.083,-141.419"/>
</g>
<!-- Node21 -->
<g id="node21" class="node"><title>Node21</title>
<g id="a_node21"><a xlink:href="../../d8/dfe/torcreferencecounted_8h.html" target="_top" xlink:title="torcreferencecounted.h">
<polygon fill="white" stroke="black" points="646.5,-168.5 646.5,-187.5 775.5,-187.5 775.5,-168.5 646.5,-168.5"/>
<text text-anchor="middle" x="711" y="-175.5" font-family="Helvetica,sans-Serif" font-size="10.00">torcreferencecounted.h</text>
</a>
</g>
</g>
<!-- Node19&#45;&gt;Node21 -->
<g id="edge27" class="edge"><title>Node19&#45;&gt;Node21</title>
<path fill="none" stroke="midnightblue" d="M675.935,-224.083C681.929,-216.377 690.752,-205.033 698.048,-195.653"/>
<polygon fill="midnightblue" stroke="midnightblue" points="700.817,-197.793 704.194,-187.751 695.291,-193.496 700.817,-197.793"/>
</g>
<!-- Node23 -->
<g id="node23" class="node"><title>Node23</title>
<g id="a_node23"><a xlink:href="../../d2/d5b/torcdevicehandler_8h.html" target="_top" xlink:title="torcdevicehandler.h">
<polygon fill="white" stroke="black" points="832,-168.5 832,-187.5 942,-187.5 942,-168.5 832,-168.5"/>
<text text-anchor="middle" x="887" y="-175.5" font-family="Helvetica,sans-Serif" font-size="10.00">torcdevicehandler.h</text>
</a>
</g>
</g>
<!-- Node19&#45;&gt;Node23 -->
<g id="edge29" class="edge"><title>Node19&#45;&gt;Node23</title>
<path fill="none" stroke="midnightblue" d="M703.543,-224.444C741.253,-215.102 801.74,-200.119 842.865,-189.933"/>
<polygon fill="midnightblue" stroke="midnightblue" points="843.754,-193.318 852.619,-187.516 842.071,-186.524 843.754,-193.318"/>
</g>
<!-- Node22 -->
<g id="node22" class="node"><title>Node22</title>
<polygon fill="white" stroke="#bfbfbf" points="676,-112.5 676,-131.5 746,-131.5 746,-112.5 676,-112.5"/>
<text text-anchor="middle" x="711" y="-119.5" font-family="Helvetica,sans-Serif" font-size="10.00">QAtomicInt</text>
</g>
<!-- Node21&#45;&gt;Node22 -->
<g id="edge28" class="edge"><title>Node21&#45;&gt;Node22</title>
<path fill="none" stroke="midnightblue" d="M711,-168.083C711,-161.006 711,-150.861 711,-141.986"/>
<polygon fill="midnightblue" stroke="midnightblue" points="714.5,-141.751 711,-131.751 707.5,-141.751 714.5,-141.751"/>
</g>
<!-- Node23&#45;&gt;Node6 -->
<g id="edge31" class="edge"><title>Node23&#45;&gt;Node6</title>
<path fill="none" stroke="midnightblue" d="M873.665,-168.324C860.838,-159.979 841.215,-147.212 826.06,-137.352"/>
<polygon fill="midnightblue" stroke="midnightblue" points="827.593,-134.174 817.302,-131.655 823.776,-140.042 827.593,-134.174"/>
</g>
<!-- Node23&#45;&gt;Node7 -->
<g id="edge32" class="edge"><title>Node23&#45;&gt;Node7</title>
<path fill="none" stroke="midnightblue" d="M831.599,-169.148C759.701,-158.958 634.906,-141.27 562.482,-131.005"/>
<polygon fill="midnightblue" stroke="midnightblue" points="562.582,-127.485 552.189,-129.547 561.599,-134.415 562.582,-127.485"/>
</g>
<!-- Node23&#45;&gt;Node20 -->
<g id="edge30" class="edge"><title>Node23&#45;&gt;Node20</title>
<path fill="none" stroke="midnightblue" d="M899.371,-168.324C911.158,-160.058 929.132,-147.453 943.136,-137.632"/>
<polygon fill="midnightblue" stroke="midnightblue" points="945.482,-140.262 951.659,-131.655 941.462,-134.531 945.482,-140.262"/>
</g>
<!-- Node24 -->
<g id="node24" class="node"><title>Node24</title>
<polygon fill="white" stroke="#bfbfbf" points="858,-112.5 858,-131.5 916,-131.5 916,-112.5 858,-112.5"/>
<text text-anchor="middle" x="887" y="-119.5" font-family="Helvetica,sans-Serif" font-size="10.00">QVariant</text>
</g>
<!-- Node23&#45;&gt;Node24 -->
<g id="edge33" class="edge"><title>Node23&#45;&gt;Node24</title>
<path fill="none" stroke="midnightblue" d="M887,-168.083C887,-161.006 887,-150.861 887,-141.986"/>
<polygon fill="midnightblue" stroke="midnightblue" points="890.5,-141.751 887,-131.751 883.5,-141.751 890.5,-141.751"/>
</g>
</g>
</svg>
