<?xml version="1.0" encoding="UTF-8" standalone="no"?>
<!DOCTYPE svg PUBLIC "-//W3C//DTD SVG 1.1//EN"
 "http://www.w3.org/Graphics/SVG/1.1/DTD/svg11.dtd">
<!-- Generated by graphviz version 2.38.0 (20140413.2041)
 -->
<!-- Title: torcnetworkphoutput.h Pages: 1 -->
<svg width="978pt" height="420pt"
 viewBox="0.00 0.00 977.50 420.00" xmlns="http://www.w3.org/2000/svg" xmlns:xlink="http://www.w3.org/1999/xlink">
<g id="graph0" class="graph" transform="scale(1 1) rotate(0) translate(4 416)">
<title>torcnetworkphoutput.h</title>
<polygon fill="white" stroke="none" points="-4,4 -4,-416 973.5,-416 973.5,4 -4,4"/>
<!-- Node1 -->
<g id="node1" class="node"><title>Node1</title>
<polygon fill="#bfbfbf" stroke="black" points="611.5,-392.5 611.5,-411.5 736.5,-411.5 736.5,-392.5 611.5,-392.5"/>
<text text-anchor="middle" x="674" y="-399.5" font-family="Helvetica,sans-Serif" font-size="10.00">torcnetworkphoutput.h</text>
</g>
<!-- Node2 -->
<g id="node2" class="node"><title>Node2</title>
<g id="a_node2"><a xlink:href="../../de/d6b/torcphoutput_8h.html" target="_top" xlink:title="torcphoutput.h">
<polygon fill="white" stroke="black" points="630,-336.5 630,-355.5 718,-355.5 718,-336.5 630,-336.5"/>
<text text-anchor="middle" x="674" y="-343.5" font-family="Helvetica,sans-Serif" font-size="10.00">torcphoutput.h</text>
</a>
</g>
</g>
<!-- Node1&#45;&gt;Node2 -->
<g id="edge1" class="edge"><title>Node1&#45;&gt;Node2</title>
<path fill="none" stroke="midnightblue" d="M674,-392.083C674,-385.006 674,-374.861 674,-365.986"/>
<polygon fill="midnightblue" stroke="midnightblue" points="677.5,-365.751 674,-355.751 670.5,-365.751 677.5,-365.751"/>
</g>
<!-- Node3 -->
<g id="node3" class="node"><title>Node3</title>
<g id="a_node3"><a xlink:href="../../dc/d01/torcoutput_8h.html" target="_top" xlink:title="torcoutput.h">
<polygon fill="white" stroke="black" points="636,-280.5 636,-299.5 712,-299.5 712,-280.5 636,-280.5"/>
<text text-anchor="middle" x="674" y="-287.5" font-family="Helvetica,sans-Serif" font-size="10.00">torcoutput.h</text>
</a>
</g>
</g>
<!-- Node2&#45;&gt;Node3 -->
<g id="edge2" class="edge"><title>Node2&#45;&gt;Node3</title>
<path fill="none" stroke="midnightblue" d="M674,-336.083C674,-329.006 674,-318.861 674,-309.986"/>
<polygon fill="midnightblue" stroke="midnightblue" points="677.5,-309.751 674,-299.751 670.5,-309.751 677.5,-309.751"/>
</g>
<!-- Node4 -->
<g id="node4" class="node"><title>Node4</title>
<polygon fill="white" stroke="#bfbfbf" points="480.5,-112.5 480.5,-131.5 533.5,-131.5 533.5,-112.5 480.5,-112.5"/>
<text text-anchor="middle" x="507" y="-119.5" font-family="Helvetica,sans-Serif" font-size="10.00">QMutex</text>
</g>
<!-- Node3&#45;&gt;Node4 -->
<g id="edge3" class="edge"><title>Node3&#45;&gt;Node4</title>
<path fill="none" stroke="midnightblue" d="M656.93,-280.357C628.438,-265.176 570.881,-231.194 536,-188 524.851,-174.194 517.085,-155.423 512.414,-141.601"/>
<polygon fill="midnightblue" stroke="midnightblue" points="515.662,-140.26 509.327,-131.768 508.983,-142.357 515.662,-140.26"/>
</g>
<!-- Node5 -->
<g id="node5" class="node"><title>Node5</title>
<polygon fill="white" stroke="#bfbfbf" points="767.5,-168.5 767.5,-187.5 822.5,-187.5 822.5,-168.5 767.5,-168.5"/>
<text text-anchor="middle" x="795" y="-175.5" font-family="Helvetica,sans-Serif" font-size="10.00">QObject</text>
</g>
<!-- Node3&#45;&gt;Node5 -->
<g id="edge4" class="edge"><title>Node3&#45;&gt;Node5</title>
<path fill="none" stroke="midnightblue" d="M683.495,-280.368C703.905,-261.814 752.196,-217.913 778.019,-194.438"/>
<polygon fill="midnightblue" stroke="midnightblue" points="780.504,-196.908 785.549,-187.591 775.796,-191.728 780.504,-196.908"/>
</g>
<!-- Node6 -->
<g id="node6" class="node"><title>Node6</title>
<g id="a_node6"><a xlink:href="../../d8/dfe/torcreferencecounted_8h.html" target="_top" xlink:title="torcreferencecounted.h">
<polygon fill="white" stroke="black" points="840.5,-168.5 840.5,-187.5 969.5,-187.5 969.5,-168.5 840.5,-168.5"/>
<text text-anchor="middle" x="905" y="-175.5" font-family="Helvetica,sans-Serif" font-size="10.00">torcreferencecounted.h</text>
</a>
</g>
</g>
<!-- Node3&#45;&gt;Node6 -->
<g id="edge5" class="edge"><title>Node3&#45;&gt;Node6</title>
<path fill="none" stroke="midnightblue" d="M692.126,-280.368C732.525,-261.131 830.14,-214.648 877.844,-191.931"/>
<polygon fill="midnightblue" stroke="midnightblue" points="879.434,-195.051 886.958,-187.591 876.425,-188.731 879.434,-195.051"/>
</g>
<!-- Node8 -->
<g id="node8" class="node"><title>Node8</title>
<g id="a_node8"><a xlink:href="../../d3/dee/torchttpservice_8h.html" target="_top" xlink:title="torchttpservice.h">
<polygon fill="white" stroke="black" points="225,-224.5 225,-243.5 323,-243.5 323,-224.5 225,-224.5"/>
<text text-anchor="middle" x="274" y="-231.5" font-family="Helvetica,sans-Serif" font-size="10.00">torchttpservice.h</text>
</a>
</g>
</g>
<!-- Node3&#45;&gt;Node8 -->
<g id="edge7" class="edge"><title>Node3&#45;&gt;Node8</title>
<path fill="none" stroke="midnightblue" d="M635.646,-283.822C565.536,-274.357 416.27,-254.206 333.092,-242.977"/>
<polygon fill="midnightblue" stroke="midnightblue" points="333.418,-239.49 323.04,-241.62 332.482,-246.427 333.418,-239.49"/>
</g>
<!-- Node21 -->
<g id="node21" class="node"><title>Node21</title>
<g id="a_node21"><a xlink:href="../../d1/df7/torcdevice_8h.html" target="_top" xlink:title="torcdevice.h">
<polygon fill="white" stroke="black" points="636.5,-224.5 636.5,-243.5 711.5,-243.5 711.5,-224.5 636.5,-224.5"/>
<text text-anchor="middle" x="674" y="-231.5" font-family="Helvetica,sans-Serif" font-size="10.00">torcdevice.h</text>
</a>
</g>
</g>
<!-- Node3&#45;&gt;Node21 -->
<g id="edge24" class="edge"><title>Node3&#45;&gt;Node21</title>
<path fill="none" stroke="midnightblue" d="M674,-280.083C674,-273.006 674,-262.861 674,-253.986"/>
<polygon fill="midnightblue" stroke="midnightblue" points="677.5,-253.751 674,-243.751 670.5,-253.751 677.5,-253.751"/>
</g>
<!-- Node7 -->
<g id="node7" class="node"><title>Node7</title>
<polygon fill="white" stroke="#bfbfbf" points="870,-112.5 870,-131.5 940,-131.5 940,-112.5 870,-112.5"/>
<text text-anchor="middle" x="905" y="-119.5" font-family="Helvetica,sans-Serif" font-size="10.00">QAtomicInt</text>
</g>
<!-- Node6&#45;&gt;Node7 -->
<g id="edge6" class="edge"><title>Node6&#45;&gt;Node7</title>
<path fill="none" stroke="midnightblue" d="M905,-168.083C905,-161.006 905,-150.861 905,-141.986"/>
<polygon fill="midnightblue" stroke="midnightblue" points="908.5,-141.751 905,-131.751 901.5,-141.751 908.5,-141.751"/>
</g>
<!-- Node8&#45;&gt;Node4 -->
<g id="edge9" class="edge"><title>Node8&#45;&gt;Node4</title>
<path fill="none" stroke="midnightblue" d="M323.01,-226.189C357.187,-219.916 402.943,-208.385 439,-188 461.105,-175.503 481.443,-154.209 494.006,-139.413"/>
<polygon fill="midnightblue" stroke="midnightblue" points="496.809,-141.515 500.459,-131.569 491.403,-137.068 496.809,-141.515"/>
</g>
<!-- Node9 -->
<g id="node9" class="node"><title>Node9</title>
<polygon fill="white" stroke="#bfbfbf" points="0,-56.5 0,-75.5 44,-75.5 44,-56.5 0,-56.5"/>
<text text-anchor="middle" x="22" y="-63.5" font-family="Helvetica,sans-Serif" font-size="10.00">QMap</text>
</g>
<!-- Node8&#45;&gt;Node9 -->
<g id="edge8" class="edge"><title>Node8&#45;&gt;Node9</title>
<path fill="none" stroke="midnightblue" d="M224.914,-229.9C187.625,-225.413 136.674,-214.495 100,-188 63.3196,-161.5 39.508,-111.96 28.7098,-85.2255"/>
<polygon fill="midnightblue" stroke="midnightblue" points="31.8572,-83.6601 24.988,-75.5938 25.3277,-86.1832 31.8572,-83.6601"/>
</g>
<!-- Node10 -->
<g id="node10" class="node"><title>Node10</title>
<polygon fill="white" stroke="#bfbfbf" points="234.5,-168.5 234.5,-187.5 313.5,-187.5 313.5,-168.5 234.5,-168.5"/>
<text text-anchor="middle" x="274" y="-175.5" font-family="Helvetica,sans-Serif" font-size="10.00">QMetaObject</text>
</g>
<!-- Node8&#45;&gt;Node10 -->
<g id="edge10" class="edge"><title>Node8&#45;&gt;Node10</title>
<path fill="none" stroke="midnightblue" d="M274,-224.083C274,-217.006 274,-206.861 274,-197.986"/>
<polygon fill="midnightblue" stroke="midnightblue" points="277.5,-197.751 274,-187.751 270.5,-197.751 277.5,-197.751"/>
</g>
<!-- Node11 -->
<g id="node11" class="node"><title>Node11</title>
<polygon fill="white" stroke="#bfbfbf" points="331.5,-168.5 331.5,-187.5 430.5,-187.5 430.5,-168.5 331.5,-168.5"/>
<text text-anchor="middle" x="381" y="-175.5" font-family="Helvetica,sans-Serif" font-size="10.00">QCoreApplication</text>
</g>
<!-- Node8&#45;&gt;Node11 -->
<g id="edge11" class="edge"><title>Node8&#45;&gt;Node11</title>
<path fill="none" stroke="midnightblue" d="M291.191,-224.324C308.351,-215.664 334.946,-202.242 354.747,-192.249"/>
<polygon fill="midnightblue" stroke="midnightblue" points="356.501,-195.285 363.851,-187.655 353.347,-189.035 356.501,-195.285"/>
</g>
<!-- Node12 -->
<g id="node12" class="node"><title>Node12</title>
<g id="a_node12"><a xlink:href="../../d4/d11/torchttphandler_8h.html" target="_top" xlink:title="torchttphandler.h">
<polygon fill="white" stroke="black" points="117.5,-168.5 117.5,-187.5 216.5,-187.5 216.5,-168.5 117.5,-168.5"/>
<text text-anchor="middle" x="167" y="-175.5" font-family="Helvetica,sans-Serif" font-size="10.00">torchttphandler.h</text>
</a>
</g>
</g>
<!-- Node8&#45;&gt;Node12 -->
<g id="edge12" class="edge"><title>Node8&#45;&gt;Node12</title>
<path fill="none" stroke="midnightblue" d="M256.809,-224.324C239.649,-215.664 213.054,-202.242 193.253,-192.249"/>
<polygon fill="midnightblue" stroke="midnightblue" points="194.653,-189.035 184.149,-187.655 191.499,-195.285 194.653,-189.035"/>
</g>
<!-- Node15 -->
<g id="node15" class="node"><title>Node15</title>
<g id="a_node15"><a xlink:href="../../df/dd7/torchttprequest_8h.html" target="_top" xlink:title="torchttprequest.h">
<polygon fill="white" stroke="black" points="89.5,-112.5 89.5,-131.5 190.5,-131.5 190.5,-112.5 89.5,-112.5"/>
<text text-anchor="middle" x="140" y="-119.5" font-family="Helvetica,sans-Serif" font-size="10.00">torchttprequest.h</text>
</a>
</g>
</g>
<!-- Node8&#45;&gt;Node15 -->
<g id="edge23" class="edge"><title>Node8&#45;&gt;Node15</title>
<path fill="none" stroke="midnightblue" d="M224.697,-226.301C181.074,-219.243 122.197,-206.558 108,-188 96.3727,-172.801 109.868,-152.71 122.731,-138.91"/>
<polygon fill="midnightblue" stroke="midnightblue" points="125.446,-141.144 130.038,-131.596 120.494,-136.197 125.446,-141.144"/>
</g>
<!-- Node13 -->
<g id="node13" class="node"><title>Node13</title>
<polygon fill="white" stroke="#bfbfbf" points="323.5,-56.5 323.5,-75.5 376.5,-75.5 376.5,-56.5 323.5,-56.5"/>
<text text-anchor="middle" x="350" y="-63.5" font-family="Helvetica,sans-Serif" font-size="10.00">QString</text>
</g>
<!-- Node12&#45;&gt;Node13 -->
<g id="edge13" class="edge"><title>Node12&#45;&gt;Node13</title>
<path fill="none" stroke="midnightblue" d="M209.176,-168.426C235.766,-161.6 269.887,-150.119 296,-132 314.193,-119.376 329.705,-99.0425 339.373,-84.4789"/>
<polygon fill="midnightblue" stroke="midnightblue" points="342.429,-86.195 344.851,-75.8808 336.526,-82.4334 342.429,-86.195"/>
</g>
<!-- Node14 -->
<g id="node14" class="node"><title>Node14</title>
<polygon fill="white" stroke="#bfbfbf" points="209,-112.5 209,-131.5 287,-131.5 287,-112.5 209,-112.5"/>
<text text-anchor="middle" x="248" y="-119.5" font-family="Helvetica,sans-Serif" font-size="10.00">QVariantMap</text>
</g>
<!-- Node12&#45;&gt;Node14 -->
<g id="edge14" class="edge"><title>Node12&#45;&gt;Node14</title>
<path fill="none" stroke="midnightblue" d="M180.014,-168.324C192.532,-159.979 211.682,-147.212 226.471,-137.352"/>
<polygon fill="midnightblue" stroke="midnightblue" points="228.639,-140.114 235.018,-131.655 224.756,-134.289 228.639,-140.114"/>
</g>
<!-- Node12&#45;&gt;Node15 -->
<g id="edge15" class="edge"><title>Node12&#45;&gt;Node15</title>
<path fill="none" stroke="midnightblue" d="M162.541,-168.083C158.846,-160.691 153.477,-149.953 148.906,-140.811"/>
<polygon fill="midnightblue" stroke="midnightblue" points="151.978,-139.13 144.376,-131.751 145.717,-142.261 151.978,-139.13"/>
</g>
<!-- Node15&#45;&gt;Node9 -->
<g id="edge16" class="edge"><title>Node15&#45;&gt;Node9</title>
<path fill="none" stroke="midnightblue" d="M121.303,-112.444C102.056,-103.636 71.8475,-89.8116 49.7999,-79.722"/>
<polygon fill="midnightblue" stroke="midnightblue" points="51.1595,-76.4951 40.61,-75.5164 48.2466,-82.8603 51.1595,-76.4951"/>
</g>
<!-- Node15&#45;&gt;Node13 -->
<g id="edge18" class="edge"><title>Node15&#45;&gt;Node13</title>
<path fill="none" stroke="midnightblue" d="M173.275,-112.444C211.47,-102.622 273.919,-86.5637 313.442,-76.4007"/>
<polygon fill="midnightblue" stroke="midnightblue" points="314.398,-79.7688 323.211,-73.8886 312.654,-72.9894 314.398,-79.7688"/>
</g>
<!-- Node16 -->
<g id="node16" class="node"><title>Node16</title>
<polygon fill="white" stroke="#bfbfbf" points="264.5,-56.5 264.5,-75.5 305.5,-75.5 305.5,-56.5 264.5,-56.5"/>
<text text-anchor="middle" x="285" y="-63.5" font-family="Helvetica,sans-Serif" font-size="10.00">QPair</text>
</g>
<!-- Node15&#45;&gt;Node16 -->
<g id="edge17" class="edge"><title>Node15&#45;&gt;Node16</title>
<path fill="none" stroke="midnightblue" d="M162.976,-112.444C187.868,-103.173 227.681,-88.3464 255.019,-78.1652"/>
<polygon fill="midnightblue" stroke="midnightblue" points="256.327,-81.4133 264.476,-74.6433 253.883,-74.8534 256.327,-81.4133"/>
</g>
<!-- Node17 -->
<g id="node17" class="node"><title>Node17</title>
<polygon fill="white" stroke="#bfbfbf" points="62.5,-56.5 62.5,-75.5 133.5,-75.5 133.5,-56.5 62.5,-56.5"/>
<text text-anchor="middle" x="98" y="-63.5" font-family="Helvetica,sans-Serif" font-size="10.00">QDateTime</text>
</g>
<!-- Node15&#45;&gt;Node17 -->
<g id="edge19" class="edge"><title>Node15&#45;&gt;Node17</title>
<path fill="none" stroke="midnightblue" d="M133.065,-112.083C127.071,-104.377 118.248,-93.0333 110.952,-83.6531"/>
<polygon fill="midnightblue" stroke="midnightblue" points="113.709,-81.4958 104.806,-75.7511 108.183,-85.7934 113.709,-81.4958"/>
</g>
<!-- Node18 -->
<g id="node18" class="node"><title>Node18</title>
<g id="a_node18"><a xlink:href="../../de/de6/torchttpreader_8h.html" target="_top" xlink:title="torchttpreader.h">
<polygon fill="white" stroke="black" points="151.5,-56.5 151.5,-75.5 246.5,-75.5 246.5,-56.5 151.5,-56.5"/>
<text text-anchor="middle" x="199" y="-63.5" font-family="Helvetica,sans-Serif" font-size="10.00">torchttpreader.h</text>
</a>
</g>
</g>
<!-- Node15&#45;&gt;Node18 -->
<g id="edge20" class="edge"><title>Node15&#45;&gt;Node18</title>
<path fill="none" stroke="midnightblue" d="M149.479,-112.324C158.201,-104.341 171.343,-92.3128 181.898,-82.6529"/>
<polygon fill="midnightblue" stroke="midnightblue" points="184.334,-85.1674 189.348,-75.8339 179.608,-80.0036 184.334,-85.1674"/>
</g>
<!-- Node19 -->
<g id="node19" class="node"><title>Node19</title>
<polygon fill="white" stroke="#bfbfbf" points="118.5,-0.5 118.5,-19.5 189.5,-19.5 189.5,-0.5 118.5,-0.5"/>
<text text-anchor="middle" x="154" y="-7.5" font-family="Helvetica,sans-Serif" font-size="10.00">QByteArray</text>
</g>
<!-- Node18&#45;&gt;Node19 -->
<g id="edge21" class="edge"><title>Node18&#45;&gt;Node19</title>
<path fill="none" stroke="midnightblue" d="M191.569,-56.083C185.147,-48.3768 175.694,-37.0333 167.878,-27.6531"/>
<polygon fill="midnightblue" stroke="midnightblue" points="170.383,-25.1927 161.293,-19.7511 165.006,-29.674 170.383,-25.1927"/>
</g>
<!-- Node20 -->
<g id="node20" class="node"><title>Node20</title>
<polygon fill="white" stroke="#bfbfbf" points="208,-0.5 208,-19.5 280,-19.5 280,-0.5 208,-0.5"/>
<text text-anchor="middle" x="244" y="-7.5" font-family="Helvetica,sans-Serif" font-size="10.00">QTcpSocket</text>
</g>
<!-- Node18&#45;&gt;Node20 -->
<g id="edge22" class="edge"><title>Node18&#45;&gt;Node20</title>
<path fill="none" stroke="midnightblue" d="M206.431,-56.083C212.853,-48.3768 222.306,-37.0333 230.122,-27.6531"/>
<polygon fill="midnightblue" stroke="midnightblue" points="232.994,-29.674 236.707,-19.7511 227.617,-25.1927 232.994,-29.674"/>
</g>
<!-- Node21&#45;&gt;Node4 -->
<g id="edge26" class="edge"><title>Node21&#45;&gt;Node4</title>
<path fill="none" stroke="midnightblue" d="M638.933,-224.463C614.841,-217.414 583,-205.666 559,-188 541.433,-175.07 526.504,-154.791 517.21,-140.324"/>
<polygon fill="midnightblue" stroke="midnightblue" points="520.175,-138.464 511.944,-131.792 514.218,-142.14 520.175,-138.464"/>
</g>
<!-- Node21&#45;&gt;Node5 -->
<g id="edge28" class="edge"><title>Node21&#45;&gt;Node5</title>
<path fill="none" stroke="midnightblue" d="M693.173,-224.444C712.909,-215.636 743.885,-201.812 766.493,-191.722"/>
<polygon fill="midnightblue" stroke="midnightblue" points="768.211,-194.788 775.917,-187.516 765.359,-188.396 768.211,-194.788"/>
</g>
<!-- Node21&#45;&gt;Node6 -->
<g id="edge29" class="edge"><title>Node21&#45;&gt;Node6</title>
<path fill="none" stroke="midnightblue" d="M710.603,-224.444C750.731,-215.063 815.198,-199.993 858.785,-189.804"/>
<polygon fill="midnightblue" stroke="midnightblue" points="859.628,-193.201 868.569,-187.516 858.034,-186.385 859.628,-193.201"/>
</g>
<!-- Node21&#45;&gt;Node13 -->
<g id="edge27" class="edge"><title>Node21&#45;&gt;Node13</title>
<path fill="none" stroke="midnightblue" d="M651.961,-224.434C634.308,-216.794 609.66,-204.301 592,-188 562.29,-160.576 575.15,-135.148 542,-112 495.261,-79.3639 428.098,-70.145 386.852,-67.6879"/>
<polygon fill="midnightblue" stroke="midnightblue" points="386.86,-64.1842 376.7,-67.189 386.516,-71.1757 386.86,-64.1842"/>
</g>
<!-- Node22 -->
<g id="node22" class="node"><title>Node22</title>
<polygon fill="white" stroke="#bfbfbf" points="709.5,-112.5 709.5,-131.5 758.5,-131.5 758.5,-112.5 709.5,-112.5"/>
<text text-anchor="middle" x="734" y="-119.5" font-family="Helvetica,sans-Serif" font-size="10.00">QHash</text>
</g>
<!-- Node21&#45;&gt;Node22 -->
<g id="edge25" class="edge"><title>Node21&#45;&gt;Node22</title>
<path fill="none" stroke="midnightblue" d="M686.13,-224.435C696.729,-216.288 711.687,-203.063 720,-188 727.93,-173.63 731.37,-155.17 732.861,-141.598"/>
<polygon fill="midnightblue" stroke="midnightblue" points="736.357,-141.802 733.711,-131.543 729.381,-141.212 736.357,-141.802"/>
</g>
<!-- Node23 -->
<g id="node23" class="node"><title>Node23</title>
<g id="a_node23"><a xlink:href="../../d2/d5b/torcdevicehandler_8h.html" target="_top" xlink:title="torcdevicehandler.h">
<polygon fill="white" stroke="black" points="601,-168.5 601,-187.5 711,-187.5 711,-168.5 601,-168.5"/>
<text text-anchor="middle" x="656" y="-175.5" font-family="Helvetica,sans-Serif" font-size="10.00">torcdevicehandler.h</text>
</a>
</g>
</g>
<!-- Node21&#45;&gt;Node23 -->
<g id="edge30" class="edge"><title>Node21&#45;&gt;Node23</title>
<path fill="none" stroke="midnightblue" d="M671.028,-224.083C668.616,-216.849 665.136,-206.409 662.132,-197.397"/>
<polygon fill="midnightblue" stroke="midnightblue" points="665.4,-196.131 658.917,-187.751 658.759,-198.345 665.4,-196.131"/>
</g>
<!-- Node23&#45;&gt;Node4 -->
<g id="edge32" class="edge"><title>Node23&#45;&gt;Node4</title>
<path fill="none" stroke="midnightblue" d="M632.391,-168.444C607.542,-159.438 568.226,-145.189 540.246,-135.049"/>
<polygon fill="midnightblue" stroke="midnightblue" points="541.093,-131.633 530.499,-131.516 538.708,-138.214 541.093,-131.633"/>
</g>
<!-- Node23&#45;&gt;Node22 -->
<g id="edge31" class="edge"><title>Node23&#45;&gt;Node22</title>
<path fill="none" stroke="midnightblue" d="M668.532,-168.324C680.586,-159.979 699.027,-147.212 713.269,-137.352"/>
<polygon fill="midnightblue" stroke="midnightblue" points="715.269,-140.224 721.499,-131.655 711.285,-134.469 715.269,-140.224"/>
</g>
<!-- Node24 -->
<g id="node24" class="node"><title>Node24</title>
<polygon fill="white" stroke="#bfbfbf" points="627,-112.5 627,-131.5 685,-131.5 685,-112.5 627,-112.5"/>
<text text-anchor="middle" x="656" y="-119.5" font-family="Helvetica,sans-Serif" font-size="10.00">QVariant</text>
</g>
<!-- Node23&#45;&gt;Node24 -->
<g id="edge33" class="edge"><title>Node23&#45;&gt;Node24</title>
<path fill="none" stroke="midnightblue" d="M656,-168.083C656,-161.006 656,-150.861 656,-141.986"/>
<polygon fill="midnightblue" stroke="midnightblue" points="659.5,-141.751 656,-131.751 652.5,-141.751 659.5,-141.751"/>
</g>
</g>
</svg>
