<?xml version="1.0" encoding="UTF-8" standalone="no"?>
<!DOCTYPE svg PUBLIC "-//W3C//DTD SVG 1.1//EN"
 "http://www.w3.org/Graphics/SVG/1.1/DTD/svg11.dtd">
<!-- Generated by graphviz version 2.38.0 (20140413.2041)
 -->
<!-- Title: torccontrol.cpp Pages: 1 -->
<!--zoomable 420 -->
<svg id="main" version="1.1" xmlns="http://www.w3.org/2000/svg" xmlns:xlink="http://www.w3.org/1999/xlink" xml:space="preserve" onload="init(evt)">
<style type="text/css"><![CDATA[
.edge:hover path { stroke: red; }
.edge:hover polygon { stroke: red; fill: red; }
]]></style>
<script type="text/javascript"><![CDATA[
var edges = document.getElementsByTagName('g');
if (edges && edges.length) {
  for (var i=0;i<edges.length;i++) {
    if (edges[i].id.substr(0,4)=='edge') {
      edges[i].setAttribute('class','edge');
    }
  }
}
]]></script>
        <defs>
                <circle id="rim" cx="0" cy="0" r="7"/>
                <circle id="rim2" cx="0" cy="0" r="3.5"/>
                <g id="zoomPlus">
                        <use xlink:href="#rim" fill="#404040">
                                <set attributeName="fill" to="#808080" begin="zoomplus.mouseover" end="zoomplus.mouseout"/>
                        </use>
                        <path d="M-4,0h8M0,-4v8" fill="none" stroke="white" stroke-width="1.5" pointer-events="none"/>
                </g>
                <g id="zoomMin">
                        <use xlink:href="#rim" fill="#404040">
                                <set attributeName="fill" to="#808080" begin="zoomminus.mouseover" end="zoomminus.mouseout"/>
                        </use>
                        <path d="M-4,0h8" fill="none" stroke="white" stroke-width="1.5" pointer-events="none"/>
                </g>
                <g id="dirArrow">
                        <path fill="none" stroke="white" stroke-width="1.5" d="M0,-3.0v7 M-2.5,-0.5L0,-3.0L2.5,-0.5"/>
                </g>
               <g id="resetDef">
                       <use xlink:href="#rim2" fill="#404040">
                               <set attributeName="fill" to="#808080" begin="reset.mouseover" end="reset.mouseout"/>
                       </use>
               </g>
        </defs>

<script type="text/javascript">
var viewWidth = 1154;
var viewHeight = 420;
var sectionId = 'dynsection-0';
</script>
<script xlink:href="../../svgpan.js"/>
<svg id="graph" class="graph">
<g id="viewport">
<title>torccontrol.cpp</title>
<polygon fill="white" stroke="none" points="-4,4 -4,-416 1150,-416 1150,4 -4,4"/>
<!-- Node1 -->
<g id="node1" class="node"><title>Node1</title>
<polygon fill="#bfbfbf" stroke="black" points="501.5,-392.5 501.5,-411.5 590.5,-411.5 590.5,-392.5 501.5,-392.5"/>
<text text-anchor="middle" x="546" y="-399.5" font-family="Helvetica,sans-Serif" font-size="10.00">torccontrol.cpp</text>
</g>
<!-- Node2 -->
<g id="node2" class="node"><title>Node2</title>
<polygon fill="white" stroke="#bfbfbf" points="208,-336.5 208,-355.5 292,-355.5 292,-336.5 208,-336.5"/>
<text text-anchor="middle" x="250" y="-343.5" font-family="Helvetica,sans-Serif" font-size="10.00">QMetaMethod</text>
</g>
<!-- Node1&#45;&gt;Node2 -->
<g id="edge1" class="edge"><title>Node1&#45;&gt;Node2</title>
<path fill="none" stroke="midnightblue" d="M501.365,-392.857C447.999,-383.121 358.819,-366.852 302.279,-356.537"/>
<polygon fill="midnightblue" stroke="midnightblue" points="302.584,-353.035 292.118,-354.684 301.327,-359.922 302.584,-353.035"/>
</g>
<!-- Node3 -->
<g id="node3" class="node"><title>Node3</title>
<g id="a_node3"><a xlink:href="../../d4/df9/torclogging_8h.html" target="_top" xlink:title="torclogging.h">
<polygon fill="white" stroke="black" points="309.5,-336.5 309.5,-355.5 388.5,-355.5 388.5,-336.5 309.5,-336.5"/>
<text text-anchor="middle" x="349" y="-343.5" font-family="Helvetica,sans-Serif" font-size="10.00">torclogging.h</text>
</a>
</g>
</g>
<!-- Node1&#45;&gt;Node3 -->
<g id="edge2" class="edge"><title>Node1&#45;&gt;Node3</title>
<path fill="none" stroke="midnightblue" d="M514.785,-392.444C481.067,-383.201 427.2,-368.436 390.068,-358.257"/>
<polygon fill="midnightblue" stroke="midnightblue" points="390.639,-354.785 380.069,-355.516 388.788,-361.536 390.639,-354.785"/>
</g>
<!-- Node7 -->
<g id="node7" class="node"><title>Node7</title>
<g id="a_node7"><a xlink:href="../../d5/d41/torccentral_8h.html" target="_top" xlink:title="torccentral.h">
<polygon fill="white" stroke="black" points="692.5,-280.5 692.5,-299.5 769.5,-299.5 769.5,-280.5 692.5,-280.5"/>
<text text-anchor="middle" x="731" y="-287.5" font-family="Helvetica,sans-Serif" font-size="10.00">torccentral.h</text>
</a>
</g>
</g>
<!-- Node1&#45;&gt;Node7 -->
<g id="edge6" class="edge"><title>Node1&#45;&gt;Node7</title>
<path fill="none" stroke="midnightblue" d="M560.517,-392.368C592.398,-373.412 668.772,-328.001 707.551,-304.942"/>
<polygon fill="midnightblue" stroke="midnightblue" points="709.744,-307.711 716.551,-299.591 706.167,-301.694 709.744,-307.711"/>
</g>
<!-- Node30 -->
<g id="node30" class="node"><title>Node30</title>
<g id="a_node30"><a xlink:href="../../dd/d69/torcinput_8h.html" target="_top" xlink:title="torcinput.h">
<polygon fill="white" stroke="black" points="512,-280.5 512,-299.5 580,-299.5 580,-280.5 512,-280.5"/>
<text text-anchor="middle" x="546" y="-287.5" font-family="Helvetica,sans-Serif" font-size="10.00">torcinput.h</text>
</a>
</g>
</g>
<!-- Node1&#45;&gt;Node30 -->
<g id="edge40" class="edge"><title>Node1&#45;&gt;Node30</title>
<path fill="none" stroke="midnightblue" d="M546,-392.368C546,-374.617 546,-333.666 546,-309.597"/>
<polygon fill="midnightblue" stroke="midnightblue" points="549.5,-309.591 546,-299.591 542.5,-309.591 549.5,-309.591"/>
</g>
<!-- Node31 -->
<g id="node31" class="node"><title>Node31</title>
<g id="a_node31"><a xlink:href="../../dc/d01/torcoutput_8h.html" target="_top" xlink:title="torcoutput.h">
<polygon fill="white" stroke="black" points="598,-280.5 598,-299.5 674,-299.5 674,-280.5 598,-280.5"/>
<text text-anchor="middle" x="636" y="-287.5" font-family="Helvetica,sans-Serif" font-size="10.00">torcoutput.h</text>
</a>
</g>
</g>
<!-- Node1&#45;&gt;Node31 -->
<g id="edge45" class="edge"><title>Node1&#45;&gt;Node31</title>
<path fill="none" stroke="midnightblue" d="M553.062,-392.368C568.046,-374.055 603.233,-331.049 622.613,-307.362"/>
<polygon fill="midnightblue" stroke="midnightblue" points="625.347,-309.547 628.971,-299.591 619.929,-305.115 625.347,-309.547"/>
</g>
<!-- Node32 -->
<g id="node32" class="node"><title>Node32</title>
<g id="a_node32"><a xlink:href="../../da/dea/torcnotification_8h.html" target="_top" xlink:title="../notify/torcnotification.h">
<polygon fill="white" stroke="black" points="730.5,-336.5 730.5,-355.5 865.5,-355.5 865.5,-336.5 730.5,-336.5"/>
<text text-anchor="middle" x="798" y="-343.5" font-family="Helvetica,sans-Serif" font-size="10.00">../notify/torcnotification.h</text>
</a>
</g>
</g>
<!-- Node1&#45;&gt;Node32 -->
<g id="edge51" class="edge"><title>Node1&#45;&gt;Node32</title>
<path fill="none" stroke="midnightblue" d="M585.93,-392.444C629.891,-383.023 700.627,-367.866 748.183,-357.675"/>
<polygon fill="midnightblue" stroke="midnightblue" points="749.212,-361.034 758.257,-355.516 747.745,-354.189 749.212,-361.034"/>
</g>
<!-- Node34 -->
<g id="node34" class="node"><title>Node34</title>
<g id="a_node34"><a xlink:href="../../d9/d9a/torccontrol_8h.html" target="_top" xlink:title="torccontrol.h">
<polygon fill="white" stroke="black" points="416.5,-280.5 416.5,-299.5 493.5,-299.5 493.5,-280.5 416.5,-280.5"/>
<text text-anchor="middle" x="455" y="-287.5" font-family="Helvetica,sans-Serif" font-size="10.00">torccontrol.h</text>
</a>
</g>
</g>
<!-- Node1&#45;&gt;Node34 -->
<g id="edge56" class="edge"><title>Node1&#45;&gt;Node34</title>
<path fill="none" stroke="midnightblue" d="M538.859,-392.368C523.709,-374.055 488.131,-331.049 468.536,-307.362"/>
<polygon fill="midnightblue" stroke="midnightblue" points="471.179,-305.066 462.107,-299.591 465.785,-309.528 471.179,-305.066"/>
</g>
<!-- Node4 -->
<g id="node4" class="node"><title>Node4</title>
<polygon fill="white" stroke="#bfbfbf" points="159.5,-280.5 159.5,-299.5 212.5,-299.5 212.5,-280.5 159.5,-280.5"/>
<text text-anchor="middle" x="186" y="-287.5" font-family="Helvetica,sans-Serif" font-size="10.00">stdint.h</text>
</g>
<!-- Node3&#45;&gt;Node4 -->
<g id="edge3" class="edge"><title>Node3&#45;&gt;Node4</title>
<path fill="none" stroke="midnightblue" d="M323.172,-336.444C295.751,-327.359 252.223,-312.939 221.568,-302.783"/>
<polygon fill="midnightblue" stroke="midnightblue" points="222.3,-299.339 211.707,-299.516 220.099,-305.984 222.3,-299.339"/>
</g>
<!-- Node5 -->
<g id="node5" class="node"><title>Node5</title>
<polygon fill="white" stroke="#bfbfbf" points="230.5,-280.5 230.5,-299.5 281.5,-299.5 281.5,-280.5 230.5,-280.5"/>
<text text-anchor="middle" x="256" y="-287.5" font-family="Helvetica,sans-Serif" font-size="10.00">errno.h</text>
</g>
<!-- Node3&#45;&gt;Node5 -->
<g id="edge4" class="edge"><title>Node3&#45;&gt;Node5</title>
<path fill="none" stroke="midnightblue" d="M334.058,-336.324C319.415,-327.822 296.866,-314.729 279.762,-304.797"/>
<polygon fill="midnightblue" stroke="midnightblue" points="281.31,-301.649 270.905,-299.655 277.795,-307.703 281.31,-301.649"/>
</g>
<!-- Node6 -->
<g id="node6" class="node"><title>Node6</title>
<g id="a_node6"><a xlink:href="../../d1/d37/torcloggingdefs_8h.html" target="_top" xlink:title="torcloggingdefs.h">
<polygon fill="white" stroke="black" points="299.5,-280.5 299.5,-299.5 398.5,-299.5 398.5,-280.5 299.5,-280.5"/>
<text text-anchor="middle" x="349" y="-287.5" font-family="Helvetica,sans-Serif" font-size="10.00">torcloggingdefs.h</text>
</a>
</g>
</g>
<!-- Node3&#45;&gt;Node6 -->
<g id="edge5" class="edge"><title>Node3&#45;&gt;Node6</title>
<path fill="none" stroke="midnightblue" d="M349,-336.083C349,-329.006 349,-318.861 349,-309.986"/>
<polygon fill="midnightblue" stroke="midnightblue" points="352.5,-309.751 349,-299.751 345.5,-309.751 352.5,-309.751"/>
</g>
<!-- Node8 -->
<g id="node8" class="node"><title>Node8</title>
<polygon fill="white" stroke="#bfbfbf" points="791.5,-112.5 791.5,-131.5 844.5,-131.5 844.5,-112.5 791.5,-112.5"/>
<text text-anchor="middle" x="818" y="-119.5" font-family="Helvetica,sans-Serif" font-size="10.00">QMutex</text>
</g>
<!-- Node7&#45;&gt;Node8 -->
<g id="edge7" class="edge"><title>Node7&#45;&gt;Node8</title>
<path fill="none" stroke="midnightblue" d="M769.673,-283.428C793.441,-277.79 822.104,-266.507 837,-244 857.939,-212.362 840.463,-166.05 827.947,-140.886"/>
<polygon fill="midnightblue" stroke="midnightblue" points="830.916,-139.011 823.169,-131.783 824.717,-142.264 830.916,-139.011"/>
</g>
<!-- Node9 -->
<g id="node9" class="node"><title>Node9</title>
<polygon fill="white" stroke="#bfbfbf" points="549.5,-168.5 549.5,-187.5 604.5,-187.5 604.5,-168.5 549.5,-168.5"/>
<text text-anchor="middle" x="577" y="-175.5" font-family="Helvetica,sans-Serif" font-size="10.00">QObject</text>
</g>
<!-- Node7&#45;&gt;Node9 -->
<g id="edge8" class="edge"><title>Node7&#45;&gt;Node9</title>
<path fill="none" stroke="midnightblue" d="M718.916,-280.368C692.602,-261.573 629.876,-216.768 597.347,-193.533"/>
<polygon fill="midnightblue" stroke="midnightblue" points="599.2,-190.556 589.028,-187.591 595.131,-196.252 599.2,-190.556"/>
</g>
<!-- Node10 -->
<g id="node10" class="node"><title>Node10</title>
<polygon fill="white" stroke="#bfbfbf" points="1088,-112.5 1088,-131.5 1146,-131.5 1146,-112.5 1088,-112.5"/>
<text text-anchor="middle" x="1117" y="-119.5" font-family="Helvetica,sans-Serif" font-size="10.00">QVariant</text>
</g>
<!-- Node7&#45;&gt;Node10 -->
<g id="edge9" class="edge"><title>Node7&#45;&gt;Node10</title>
<path fill="none" stroke="midnightblue" d="M769.723,-281.106C848.663,-264.457 1024.89,-224.291 1074,-188 1090.29,-175.965 1102.23,-155.784 1109.34,-141.097"/>
<polygon fill="midnightblue" stroke="midnightblue" points="1112.72,-142.121 1113.65,-131.567 1106.34,-139.233 1112.72,-142.121"/>
</g>
<!-- Node11 -->
<g id="node11" class="node"><title>Node11</title>
<g id="a_node11"><a xlink:href="../../d1/df7/torcdevice_8h.html" target="_top" xlink:title="torcdevice.h">
<polygon fill="white" stroke="black" points="752.5,-224.5 752.5,-243.5 827.5,-243.5 827.5,-224.5 752.5,-224.5"/>
<text text-anchor="middle" x="790" y="-231.5" font-family="Helvetica,sans-Serif" font-size="10.00">torcdevice.h</text>
</a>
</g>
</g>
<!-- Node7&#45;&gt;Node11 -->
<g id="edge10" class="edge"><title>Node7&#45;&gt;Node11</title>
<path fill="none" stroke="midnightblue" d="M740.479,-280.324C749.201,-272.341 762.343,-260.313 772.898,-250.653"/>
<polygon fill="midnightblue" stroke="midnightblue" points="775.334,-253.167 780.348,-243.834 770.608,-248.004 775.334,-253.167"/>
</g>
<!-- Node18 -->
<g id="node18" class="node"><title>Node18</title>
<g id="a_node18"><a xlink:href="../../d3/dee/torchttpservice_8h.html" target="_top" xlink:title="http/torchttpservice.h">
<polygon fill="white" stroke="black" points="335,-224.5 335,-243.5 455,-243.5 455,-224.5 335,-224.5"/>
<text text-anchor="middle" x="395" y="-231.5" font-family="Helvetica,sans-Serif" font-size="10.00">http/torchttpservice.h</text>
</a>
</g>
</g>
<!-- Node7&#45;&gt;Node18 -->
<g id="edge22" class="edge"><title>Node7&#45;&gt;Node18</title>
<path fill="none" stroke="midnightblue" d="M692.246,-281.629C689.12,-281.066 686.008,-280.517 683,-280 607.954,-267.105 521.634,-253.822 463.217,-245.063"/>
<polygon fill="midnightblue" stroke="midnightblue" points="463.413,-241.553 453.005,-243.535 462.377,-248.476 463.413,-241.553"/>
</g>
<!-- Node11&#45;&gt;Node8 -->
<g id="edge12" class="edge"><title>Node11&#45;&gt;Node8</title>
<path fill="none" stroke="midnightblue" d="M792.197,-224.368C796.716,-206.617 807.139,-165.666 813.266,-141.597"/>
<polygon fill="midnightblue" stroke="midnightblue" points="816.738,-142.146 815.813,-131.591 809.954,-140.419 816.738,-142.146"/>
</g>
<!-- Node11&#45;&gt;Node9 -->
<g id="edge14" class="edge"><title>Node11&#45;&gt;Node9</title>
<path fill="none" stroke="midnightblue" d="M756.25,-224.444C717.725,-214.677 654.873,-198.742 614.753,-188.571"/>
<polygon fill="midnightblue" stroke="midnightblue" points="615.376,-185.119 604.823,-186.054 613.656,-191.904 615.376,-185.119"/>
</g>
<!-- Node12 -->
<g id="node12" class="node"><title>Node12</title>
<polygon fill="white" stroke="#bfbfbf" points="948.5,-112.5 948.5,-131.5 997.5,-131.5 997.5,-112.5 948.5,-112.5"/>
<text text-anchor="middle" x="973" y="-119.5" font-family="Helvetica,sans-Serif" font-size="10.00">QHash</text>
</g>
<!-- Node11&#45;&gt;Node12 -->
<g id="edge11" class="edge"><title>Node11&#45;&gt;Node12</title>
<path fill="none" stroke="midnightblue" d="M827.674,-230.59C882.82,-226.189 981.339,-214.716 1003,-188 1014.91,-173.312 1002.07,-153.125 989.687,-139.162"/>
<polygon fill="midnightblue" stroke="midnightblue" points="992.068,-136.587 982.642,-131.749 986.994,-141.409 992.068,-136.587"/>
</g>
<!-- Node13 -->
<g id="node13" class="node"><title>Node13</title>
<polygon fill="white" stroke="#bfbfbf" points="323.5,-56.5 323.5,-75.5 376.5,-75.5 376.5,-56.5 323.5,-56.5"/>
<text text-anchor="middle" x="350" y="-63.5" font-family="Helvetica,sans-Serif" font-size="10.00">QString</text>
</g>
<!-- Node11&#45;&gt;Node13 -->
<g id="edge13" class="edge"><title>Node11&#45;&gt;Node13</title>
<path fill="none" stroke="midnightblue" d="M827.579,-231.215C886.202,-227.555 995.19,-216.944 1019,-188 1032.65,-171.41 1028.22,-130.386 1007,-112 960.043,-71.3081 519.075,-67.2759 387.124,-66.9852"/>
<polygon fill="midnightblue" stroke="midnightblue" points="386.75,-63.4847 376.744,-66.9688 386.738,-70.4847 386.75,-63.4847"/>
</g>
<!-- Node14 -->
<g id="node14" class="node"><title>Node14</title>
<g id="a_node14"><a xlink:href="../../d8/dfe/torcreferencecounted_8h.html" target="_top" xlink:title="torcreferencecounted.h">
<polygon fill="white" stroke="black" points="622.5,-168.5 622.5,-187.5 751.5,-187.5 751.5,-168.5 622.5,-168.5"/>
<text text-anchor="middle" x="687" y="-175.5" font-family="Helvetica,sans-Serif" font-size="10.00">torcreferencecounted.h</text>
</a>
</g>
</g>
<!-- Node11&#45;&gt;Node14 -->
<g id="edge15" class="edge"><title>Node11&#45;&gt;Node14</title>
<path fill="none" stroke="midnightblue" d="M773.451,-224.324C757.008,-215.703 731.565,-202.364 712.532,-192.386"/>
<polygon fill="midnightblue" stroke="midnightblue" points="713.989,-189.198 703.508,-187.655 710.739,-195.398 713.989,-189.198"/>
</g>
<!-- Node16 -->
<g id="node16" class="node"><title>Node16</title>
<g id="a_node16"><a xlink:href="../../d2/d5b/torcdevicehandler_8h.html" target="_top" xlink:title="torcdevicehandler.h">
<polygon fill="white" stroke="black" points="884,-168.5 884,-187.5 994,-187.5 994,-168.5 884,-168.5"/>
<text text-anchor="middle" x="939" y="-175.5" font-family="Helvetica,sans-Serif" font-size="10.00">torcdevicehandler.h</text>
</a>
</g>
</g>
<!-- Node11&#45;&gt;Node16 -->
<g id="edge17" class="edge"><title>Node11&#45;&gt;Node16</title>
<path fill="none" stroke="midnightblue" d="M813.609,-224.444C838.458,-215.438 877.774,-201.189 905.754,-191.049"/>
<polygon fill="midnightblue" stroke="midnightblue" points="907.292,-194.214 915.501,-187.516 904.907,-187.633 907.292,-194.214"/>
</g>
<!-- Node15 -->
<g id="node15" class="node"><title>Node15</title>
<polygon fill="white" stroke="#bfbfbf" points="593,-112.5 593,-131.5 663,-131.5 663,-112.5 593,-112.5"/>
<text text-anchor="middle" x="628" y="-119.5" font-family="Helvetica,sans-Serif" font-size="10.00">QAtomicInt</text>
</g>
<!-- Node14&#45;&gt;Node15 -->
<g id="edge16" class="edge"><title>Node14&#45;&gt;Node15</title>
<path fill="none" stroke="midnightblue" d="M677.521,-168.324C668.799,-160.341 655.657,-148.313 645.102,-138.653"/>
<polygon fill="midnightblue" stroke="midnightblue" points="647.392,-136.004 637.652,-131.834 642.666,-141.167 647.392,-136.004"/>
</g>
<!-- Node16&#45;&gt;Node8 -->
<g id="edge19" class="edge"><title>Node16&#45;&gt;Node8</title>
<path fill="none" stroke="midnightblue" d="M919.827,-168.444C900.091,-159.636 869.115,-145.812 846.507,-135.722"/>
<polygon fill="midnightblue" stroke="midnightblue" points="847.641,-132.396 837.083,-131.516 844.789,-138.788 847.641,-132.396"/>
</g>
<!-- Node16&#45;&gt;Node10 -->
<g id="edge21" class="edge"><title>Node16&#45;&gt;Node10</title>
<path fill="none" stroke="midnightblue" d="M967.205,-168.444C997.41,-159.28 1045.51,-144.688 1079.03,-134.519"/>
<polygon fill="midnightblue" stroke="midnightblue" points="1080.37,-137.769 1088.93,-131.516 1078.34,-131.07 1080.37,-137.769"/>
</g>
<!-- Node16&#45;&gt;Node12 -->
<g id="edge18" class="edge"><title>Node16&#45;&gt;Node12</title>
<path fill="none" stroke="midnightblue" d="M944.614,-168.083C949.367,-160.534 956.318,-149.495 962.152,-140.23"/>
<polygon fill="midnightblue" stroke="midnightblue" points="965.124,-142.078 967.49,-131.751 959.2,-138.349 965.124,-142.078"/>
</g>
<!-- Node17 -->
<g id="node17" class="node"><title>Node17</title>
<polygon fill="white" stroke="#bfbfbf" points="681,-112.5 681,-131.5 773,-131.5 773,-112.5 681,-112.5"/>
<text text-anchor="middle" x="727" y="-119.5" font-family="Helvetica,sans-Serif" font-size="10.00">QReadWriteLock</text>
</g>
<!-- Node16&#45;&gt;Node17 -->
<g id="edge20" class="edge"><title>Node16&#45;&gt;Node17</title>
<path fill="none" stroke="midnightblue" d="M905.408,-168.444C868.813,-159.122 810.162,-144.183 770.174,-133.997"/>
<polygon fill="midnightblue" stroke="midnightblue" points="770.989,-130.593 760.435,-131.516 769.261,-137.377 770.989,-130.593"/>
</g>
<!-- Node18&#45;&gt;Node8 -->
<g id="edge24" class="edge"><title>Node18&#45;&gt;Node8</title>
<path fill="none" stroke="midnightblue" d="M408.279,-224.398C433.233,-208.384 486.462,-174.989 507,-168 620.616,-129.336 658.88,-153.624 781.212,-131.896"/>
<polygon fill="midnightblue" stroke="midnightblue" points="782.14,-135.284 791.339,-130.027 780.87,-128.4 782.14,-135.284"/>
</g>
<!-- Node18&#45;&gt;Node17 -->
<g id="edge25" class="edge"><title>Node18&#45;&gt;Node17</title>
<path fill="none" stroke="midnightblue" d="M385.823,-224.499C372.483,-211.136 350.891,-184.991 366,-168 409.632,-118.933 588.638,-139.633 670.815,-131.873"/>
<polygon fill="midnightblue" stroke="midnightblue" points="671.28,-135.343 680.81,-130.713 670.473,-128.389 671.28,-135.343"/>
</g>
<!-- Node19 -->
<g id="node19" class="node"><title>Node19</title>
<polygon fill="white" stroke="#bfbfbf" points="0,-56.5 0,-75.5 44,-75.5 44,-56.5 0,-56.5"/>
<text text-anchor="middle" x="22" y="-63.5" font-family="Helvetica,sans-Serif" font-size="10.00">QMap</text>
</g>
<!-- Node18&#45;&gt;Node19 -->
<g id="edge23" class="edge"><title>Node18&#45;&gt;Node19</title>
<path fill="none" stroke="midnightblue" d="M334.991,-224.988C246.303,-213.049 90.0716,-191.601 85,-188 50.0372,-163.174 33.0166,-112.94 26.0474,-85.6559"/>
<polygon fill="midnightblue" stroke="midnightblue" points="29.4268,-84.7373 23.7186,-75.8117 22.6148,-86.3489 29.4268,-84.7373"/>
</g>
<!-- Node20 -->
<g id="node20" class="node"><title>Node20</title>
<polygon fill="white" stroke="#bfbfbf" points="375.5,-168.5 375.5,-187.5 454.5,-187.5 454.5,-168.5 375.5,-168.5"/>
<text text-anchor="middle" x="415" y="-175.5" font-family="Helvetica,sans-Serif" font-size="10.00">QMetaObject</text>
</g>
<!-- Node18&#45;&gt;Node20 -->
<g id="edge26" class="edge"><title>Node18&#45;&gt;Node20</title>
<path fill="none" stroke="midnightblue" d="M398.303,-224.083C400.982,-216.849 404.849,-206.409 408.186,-197.397"/>
<polygon fill="midnightblue" stroke="midnightblue" points="411.568,-198.344 411.759,-187.751 405.004,-195.913 411.568,-198.344"/>
</g>
<!-- Node21 -->
<g id="node21" class="node"><title>Node21</title>
<polygon fill="white" stroke="#bfbfbf" points="102.5,-168.5 102.5,-187.5 201.5,-187.5 201.5,-168.5 102.5,-168.5"/>
<text text-anchor="middle" x="152" y="-175.5" font-family="Helvetica,sans-Serif" font-size="10.00">QCoreApplication</text>
</g>
<!-- Node18&#45;&gt;Node21 -->
<g id="edge27" class="edge"><title>Node18&#45;&gt;Node21</title>
<path fill="none" stroke="midnightblue" d="M356.496,-224.444C314.194,-215.043 246.181,-199.929 200.327,-189.739"/>
<polygon fill="midnightblue" stroke="midnightblue" points="200.845,-186.269 190.324,-187.516 199.327,-193.102 200.845,-186.269"/>
</g>
<!-- Node22 -->
<g id="node22" class="node"><title>Node22</title>
<g id="a_node22"><a xlink:href="../../d4/d11/torchttphandler_8h.html" target="_top" xlink:title="torchttphandler.h">
<polygon fill="white" stroke="black" points="219.5,-168.5 219.5,-187.5 318.5,-187.5 318.5,-168.5 219.5,-168.5"/>
<text text-anchor="middle" x="269" y="-175.5" font-family="Helvetica,sans-Serif" font-size="10.00">torchttphandler.h</text>
</a>
</g>
</g>
<!-- Node18&#45;&gt;Node22 -->
<g id="edge28" class="edge"><title>Node18&#45;&gt;Node22</title>
<path fill="none" stroke="midnightblue" d="M375.035,-224.444C354.391,-215.596 321.937,-201.687 298.368,-191.586"/>
<polygon fill="midnightblue" stroke="midnightblue" points="299.442,-188.239 288.872,-187.516 296.684,-194.673 299.442,-188.239"/>
</g>
<!-- Node24 -->
<g id="node24" class="node"><title>Node24</title>
<g id="a_node24"><a xlink:href="../../df/dd7/torchttprequest_8h.html" target="_top" xlink:title="torchttprequest.h">
<polygon fill="white" stroke="black" points="106.5,-112.5 106.5,-131.5 207.5,-131.5 207.5,-112.5 106.5,-112.5"/>
<text text-anchor="middle" x="157" y="-119.5" font-family="Helvetica,sans-Serif" font-size="10.00">torchttprequest.h</text>
</a>
</g>
</g>
<!-- Node18&#45;&gt;Node24 -->
<g id="edge39" class="edge"><title>Node18&#45;&gt;Node24</title>
<path fill="none" stroke="midnightblue" d="M334.873,-225.038C247.917,-213.385 96.937,-192.567 93,-188 76.8427,-169.257 104.254,-149.178 128.066,-136.377"/>
<polygon fill="midnightblue" stroke="midnightblue" points="129.937,-139.351 137.249,-131.684 126.751,-133.118 129.937,-139.351"/>
</g>
<!-- Node22&#45;&gt;Node13 -->
<g id="edge29" class="edge"><title>Node22&#45;&gt;Node13</title>
<path fill="none" stroke="midnightblue" d="M280.355,-168.29C290.821,-159.846 306.305,-146.253 317,-132 327.908,-117.462 336.963,-98.7803 342.811,-85.1784"/>
<polygon fill="midnightblue" stroke="midnightblue" points="346.21,-86.1145 346.787,-75.5354 339.739,-83.4458 346.21,-86.1145"/>
</g>
<!-- Node23 -->
<g id="node23" class="node"><title>Node23</title>
<polygon fill="white" stroke="#bfbfbf" points="230,-112.5 230,-131.5 308,-131.5 308,-112.5 230,-112.5"/>
<text text-anchor="middle" x="269" y="-119.5" font-family="Helvetica,sans-Serif" font-size="10.00">QVariantMap</text>
</g>
<!-- Node22&#45;&gt;Node23 -->
<g id="edge30" class="edge"><title>Node22&#45;&gt;Node23</title>
<path fill="none" stroke="midnightblue" d="M269,-168.083C269,-161.006 269,-150.861 269,-141.986"/>
<polygon fill="midnightblue" stroke="midnightblue" points="272.5,-141.751 269,-131.751 265.5,-141.751 272.5,-141.751"/>
</g>
<!-- Node22&#45;&gt;Node24 -->
<g id="edge31" class="edge"><title>Node22&#45;&gt;Node24</title>
<path fill="none" stroke="midnightblue" d="M251.005,-168.324C232.962,-159.625 204.953,-146.12 184.197,-136.113"/>
<polygon fill="midnightblue" stroke="midnightblue" points="185.478,-132.845 174.95,-131.655 182.438,-139.15 185.478,-132.845"/>
</g>
<!-- Node24&#45;&gt;Node13 -->
<g id="edge34" class="edge"><title>Node24&#45;&gt;Node13</title>
<path fill="none" stroke="midnightblue" d="M187.581,-112.444C221.78,-102.875 277.137,-87.3864 313.555,-77.1971"/>
<polygon fill="midnightblue" stroke="midnightblue" points="314.604,-80.5381 323.291,-74.473 312.718,-73.797 314.604,-80.5381"/>
</g>
<!-- Node24&#45;&gt;Node19 -->
<g id="edge32" class="edge"><title>Node24&#45;&gt;Node19</title>
<path fill="none" stroke="midnightblue" d="M135.609,-112.444C113.293,-103.517 78.0968,-89.4387 52.792,-79.3168"/>
<polygon fill="midnightblue" stroke="midnightblue" points="53.8757,-75.9807 43.2911,-75.5164 51.276,-82.4801 53.8757,-75.9807"/>
</g>
<!-- Node25 -->
<g id="node25" class="node"><title>Node25</title>
<polygon fill="white" stroke="#bfbfbf" points="62.5,-56.5 62.5,-75.5 103.5,-75.5 103.5,-56.5 62.5,-56.5"/>
<text text-anchor="middle" x="83" y="-63.5" font-family="Helvetica,sans-Serif" font-size="10.00">QPair</text>
</g>
<!-- Node24&#45;&gt;Node25 -->
<g id="edge33" class="edge"><title>Node24&#45;&gt;Node25</title>
<path fill="none" stroke="midnightblue" d="M145.111,-112.324C133.85,-104.107 116.713,-91.6017 103.291,-81.8069"/>
<polygon fill="midnightblue" stroke="midnightblue" points="105.247,-78.9014 95.1057,-75.8339 101.12,-84.5559 105.247,-78.9014"/>
</g>
<!-- Node26 -->
<g id="node26" class="node"><title>Node26</title>
<polygon fill="white" stroke="#bfbfbf" points="121.5,-56.5 121.5,-75.5 192.5,-75.5 192.5,-56.5 121.5,-56.5"/>
<text text-anchor="middle" x="157" y="-63.5" font-family="Helvetica,sans-Serif" font-size="10.00">QDateTime</text>
</g>
<!-- Node24&#45;&gt;Node26 -->
<g id="edge35" class="edge"><title>Node24&#45;&gt;Node26</title>
<path fill="none" stroke="midnightblue" d="M157,-112.083C157,-105.006 157,-94.8611 157,-85.9865"/>
<polygon fill="midnightblue" stroke="midnightblue" points="160.5,-85.751 157,-75.7511 153.5,-85.7511 160.5,-85.751"/>
</g>
<!-- Node27 -->
<g id="node27" class="node"><title>Node27</title>
<g id="a_node27"><a xlink:href="../../de/de6/torchttpreader_8h.html" target="_top" xlink:title="torchttpreader.h">
<polygon fill="white" stroke="black" points="210.5,-56.5 210.5,-75.5 305.5,-75.5 305.5,-56.5 210.5,-56.5"/>
<text text-anchor="middle" x="258" y="-63.5" font-family="Helvetica,sans-Serif" font-size="10.00">torchttpreader.h</text>
</a>
</g>
</g>
<!-- Node24&#45;&gt;Node27 -->
<g id="edge36" class="edge"><title>Node24&#45;&gt;Node27</title>
<path fill="none" stroke="midnightblue" d="M173.227,-112.324C189.351,-103.703 214.3,-90.3643 232.964,-80.3855"/>
<polygon fill="midnightblue" stroke="midnightblue" points="234.644,-83.456 241.813,-75.6545 231.344,-77.283 234.644,-83.456"/>
</g>
<!-- Node28 -->
<g id="node28" class="node"><title>Node28</title>
<polygon fill="white" stroke="#bfbfbf" points="177.5,-0.5 177.5,-19.5 248.5,-19.5 248.5,-0.5 177.5,-0.5"/>
<text text-anchor="middle" x="213" y="-7.5" font-family="Helvetica,sans-Serif" font-size="10.00">QByteArray</text>
</g>
<!-- Node27&#45;&gt;Node28 -->
<g id="edge37" class="edge"><title>Node27&#45;&gt;Node28</title>
<path fill="none" stroke="midnightblue" d="M250.569,-56.083C244.147,-48.3768 234.694,-37.0333 226.878,-27.6531"/>
<polygon fill="midnightblue" stroke="midnightblue" points="229.383,-25.1927 220.293,-19.7511 224.006,-29.674 229.383,-25.1927"/>
</g>
<!-- Node29 -->
<g id="node29" class="node"><title>Node29</title>
<polygon fill="white" stroke="#bfbfbf" points="267,-0.5 267,-19.5 339,-19.5 339,-0.5 267,-0.5"/>
<text text-anchor="middle" x="303" y="-7.5" font-family="Helvetica,sans-Serif" font-size="10.00">QTcpSocket</text>
</g>
<!-- Node27&#45;&gt;Node29 -->
<g id="edge38" class="edge"><title>Node27&#45;&gt;Node29</title>
<path fill="none" stroke="midnightblue" d="M265.431,-56.083C271.853,-48.3768 281.306,-37.0333 289.122,-27.6531"/>
<polygon fill="midnightblue" stroke="midnightblue" points="291.994,-29.674 295.707,-19.7511 286.617,-25.1927 291.994,-29.674"/>
</g>
<!-- Node30&#45;&gt;Node8 -->
<g id="edge41" class="edge"><title>Node30&#45;&gt;Node8</title>
<path fill="none" stroke="midnightblue" d="M542.028,-280.395C532.629,-258.602 511.844,-200.655 540,-168 573.701,-128.915 713.422,-141.15 781.111,-131.69"/>
<polygon fill="midnightblue" stroke="midnightblue" points="782.047,-135.082 791.329,-129.975 780.887,-128.179 782.047,-135.082"/>
</g>
<!-- Node30&#45;&gt;Node9 -->
<g id="edge42" class="edge"><title>Node30&#45;&gt;Node9</title>
<path fill="none" stroke="midnightblue" d="M548.433,-280.368C553.458,-262.537 565.08,-221.295 571.851,-197.272"/>
<polygon fill="midnightblue" stroke="midnightblue" points="575.235,-198.166 574.579,-187.591 568.497,-196.267 575.235,-198.166"/>
</g>
<!-- Node30&#45;&gt;Node11 -->
<g id="edge44" class="edge"><title>Node30&#45;&gt;Node11</title>
<path fill="none" stroke="midnightblue" d="M580.184,-281.435C622.551,-272.058 694.974,-256.03 742.665,-245.476"/>
<polygon fill="midnightblue" stroke="midnightblue" points="743.439,-248.889 752.446,-243.311 741.926,-242.055 743.439,-248.889"/>
</g>
<!-- Node30&#45;&gt;Node18 -->
<g id="edge43" class="edge"><title>Node30&#45;&gt;Node18</title>
<path fill="none" stroke="midnightblue" d="M522.074,-280.444C496.781,-271.399 456.698,-257.064 428.32,-246.916"/>
<polygon fill="midnightblue" stroke="midnightblue" points="429.409,-243.588 418.814,-243.516 427.052,-250.179 429.409,-243.588"/>
</g>
<!-- Node31&#45;&gt;Node8 -->
<g id="edge46" class="edge"><title>Node31&#45;&gt;Node8</title>
<path fill="none" stroke="midnightblue" d="M647.929,-280.437C670.839,-263.765 722.164,-225.3 761,-188 776.983,-172.648 793.492,-153.382 804.602,-139.823"/>
<polygon fill="midnightblue" stroke="midnightblue" points="807.495,-141.812 811.064,-131.837 802.053,-137.409 807.495,-141.812"/>
</g>
<!-- Node31&#45;&gt;Node9 -->
<g id="edge47" class="edge"><title>Node31&#45;&gt;Node9</title>
<path fill="none" stroke="midnightblue" d="M631.37,-280.368C621.72,-262.376 599.286,-220.55 586.454,-196.627"/>
<polygon fill="midnightblue" stroke="midnightblue" points="589.419,-194.749 581.608,-187.591 583.25,-198.058 589.419,-194.749"/>
</g>
<!-- Node31&#45;&gt;Node11 -->
<g id="edge50" class="edge"><title>Node31&#45;&gt;Node11</title>
<path fill="none" stroke="midnightblue" d="M660.402,-280.444C686.197,-271.399 727.077,-257.064 756.018,-246.916"/>
<polygon fill="midnightblue" stroke="midnightblue" points="757.434,-250.128 765.712,-243.516 755.118,-243.523 757.434,-250.128"/>
</g>
<!-- Node31&#45;&gt;Node14 -->
<g id="edge48" class="edge"><title>Node31&#45;&gt;Node14</title>
<path fill="none" stroke="midnightblue" d="M640.002,-280.368C648.307,-262.456 667.563,-220.923 678.679,-196.948"/>
<polygon fill="midnightblue" stroke="midnightblue" points="681.986,-198.136 683.017,-187.591 675.635,-195.192 681.986,-198.136"/>
</g>
<!-- Node31&#45;&gt;Node18 -->
<g id="edge49" class="edge"><title>Node31&#45;&gt;Node18</title>
<path fill="none" stroke="midnightblue" d="M597.813,-280.444C555.859,-271.043 488.406,-255.929 442.929,-245.739"/>
<polygon fill="midnightblue" stroke="midnightblue" points="443.532,-242.288 433.009,-243.516 442.001,-249.118 443.532,-242.288"/>
</g>
<!-- Node32&#45;&gt;Node11 -->
<g id="edge52" class="edge"><title>Node32&#45;&gt;Node11</title>
<path fill="none" stroke="midnightblue" d="M797.372,-336.368C796.081,-318.617 793.103,-277.666 791.353,-253.597"/>
<polygon fill="midnightblue" stroke="midnightblue" points="794.841,-253.311 790.625,-243.591 787.859,-253.819 794.841,-253.311"/>
</g>
<!-- Node33 -->
<g id="node33" class="node"><title>Node33</title>
<g id="a_node33"><a xlink:href="../../db/df1/torcnotifier_8h.html" target="_top" xlink:title="torcnotifier.h">
<polygon fill="white" stroke="black" points="826.5,-280.5 826.5,-299.5 903.5,-299.5 903.5,-280.5 826.5,-280.5"/>
<text text-anchor="middle" x="865" y="-287.5" font-family="Helvetica,sans-Serif" font-size="10.00">torcnotifier.h</text>
</a>
</g>
</g>
<!-- Node32&#45;&gt;Node33 -->
<g id="edge53" class="edge"><title>Node32&#45;&gt;Node33</title>
<path fill="none" stroke="midnightblue" d="M808.765,-336.324C818.766,-328.263 833.887,-316.077 845.93,-306.369"/>
<polygon fill="midnightblue" stroke="midnightblue" points="848.45,-308.834 854.039,-299.834 844.057,-303.384 848.45,-308.834"/>
</g>
<!-- Node33&#45;&gt;Node10 -->
<g id="edge54" class="edge"><title>Node33&#45;&gt;Node10</title>
<path fill="none" stroke="midnightblue" d="M903.58,-287.644C966.105,-284.56 1085.29,-274.707 1112,-244 1136.75,-215.546 1129.27,-167.561 1122.58,-141.384"/>
<polygon fill="midnightblue" stroke="midnightblue" points="1125.91,-140.312 1119.85,-131.622 1119.17,-142.194 1125.91,-140.312"/>
</g>
<!-- Node33&#45;&gt;Node11 -->
<g id="edge55" class="edge"><title>Node33&#45;&gt;Node11</title>
<path fill="none" stroke="midnightblue" d="M852.95,-280.324C841.537,-272.107 824.169,-259.602 810.565,-249.807"/>
<polygon fill="midnightblue" stroke="midnightblue" points="812.43,-246.837 802.269,-243.834 808.34,-252.517 812.43,-246.837"/>
</g>
<!-- Node34&#45;&gt;Node9 -->
<g id="edge58" class="edge"><title>Node34&#45;&gt;Node9</title>
<path fill="none" stroke="midnightblue" d="M464.573,-280.368C485.152,-261.814 533.842,-217.913 559.878,-194.438"/>
<polygon fill="midnightblue" stroke="midnightblue" points="562.388,-196.887 567.471,-187.591 557.701,-191.688 562.388,-196.887"/>
</g>
<!-- Node34&#45;&gt;Node11 -->
<g id="edge61" class="edge"><title>Node34&#45;&gt;Node11</title>
<path fill="none" stroke="midnightblue" d="M493.755,-281.631C496.881,-281.068 499.992,-280.518 503,-280 586.992,-265.544 685.15,-250.566 742.176,-242.053"/>
<polygon fill="midnightblue" stroke="midnightblue" points="742.957,-245.475 752.333,-240.54 741.926,-238.551 742.957,-245.475"/>
</g>
<!-- Node34&#45;&gt;Node18 -->
<g id="edge60" class="edge"><title>Node34&#45;&gt;Node18</title>
<path fill="none" stroke="midnightblue" d="M445.36,-280.324C436.49,-272.341 423.125,-260.313 412.392,-250.653"/>
<polygon fill="midnightblue" stroke="midnightblue" points="414.59,-247.922 404.815,-243.834 409.907,-253.125 414.59,-247.922"/>
</g>
<!-- Node34&#45;&gt;Node19 -->
<g id="edge57" class="edge"><title>Node34&#45;&gt;Node19</title>
<path fill="none" stroke="midnightblue" d="M416.068,-281.423C363.1,-271.028 271.132,-252.652 238,-244 158.167,-223.152 124.493,-240.693 61,-188 30.3859,-162.594 23.5481,-112.978 22.1819,-85.8397"/>
<polygon fill="midnightblue" stroke="midnightblue" points="25.6767,-85.6118 21.878,-75.7214 18.6799,-85.822 25.6767,-85.6118"/>
</g>
<!-- Node35 -->
<g id="node35" class="node"><title>Node35</title>
<polygon fill="white" stroke="#bfbfbf" points="247.5,-224.5 247.5,-243.5 316.5,-243.5 316.5,-224.5 247.5,-224.5"/>
<text text-anchor="middle" x="282" y="-231.5" font-family="Helvetica,sans-Serif" font-size="10.00">QStringList</text>
</g>
<!-- Node34&#45;&gt;Node35 -->
<g id="edge59" class="edge"><title>Node34&#45;&gt;Node35</title>
<path fill="none" stroke="midnightblue" d="M427.588,-280.444C398.231,-271.28 351.481,-256.688 318.904,-246.519"/>
<polygon fill="midnightblue" stroke="midnightblue" points="319.873,-243.155 309.284,-243.516 317.787,-249.837 319.873,-243.155"/>
</g>
</g>
</svg>
        <g id="navigator" transform="translate(0 0)" fill="#404254">
                <rect fill="#f2f5e9" fill-opacity="0.5" stroke="#606060" stroke-width=".5" x="0" y="0" width="60" height="60"/>
                <use id="zoomplus" xlink:href="#zoomPlus" x="17" y="9" onmousedown="handleZoom(evt,'in')"/>
                <use id="zoomminus" xlink:href="#zoomMin" x="42" y="9" onmousedown="handleZoom(evt,'out')"/>
                <use id="reset" xlink:href="#resetDef" x="30" y="36" onmousedown="handleReset()"/>
                <g id="arrowUp" xlink:href="#dirArrow" transform="translate(30 24)" onmousedown="handlePan(0,-1)">
                  <use xlink:href="#rim" fill="#404040">
                        <set attributeName="fill" to="#808080" begin="arrowUp.mouseover" end="arrowUp.mouseout"/>
                  </use>
                  <path fill="none" stroke="white" stroke-width="1.5" d="M0,-3.0v7 M-2.5,-0.5L0,-3.0L2.5,-0.5"/>
                </g>
                <g id="arrowRight" xlink:href="#dirArrow" transform="rotate(90) translate(36 -43)" onmousedown="handlePan(1,0)">
                  <use xlink:href="#rim" fill="#404040">
                        <set attributeName="fill" to="#808080" begin="arrowRight.mouseover" end="arrowRight.mouseout"/>
                  </use>
                  <path fill="none" stroke="white" stroke-width="1.5" d="M0,-3.0v7 M-2.5,-0.5L0,-3.0L2.5,-0.5"/>
                </g>
                <g id="arrowDown" xlink:href="#dirArrow" transform="rotate(180) translate(-30 -48)" onmousedown="handlePan(0,1)">
                  <use xlink:href="#rim" fill="#404040">
                        <set attributeName="fill" to="#808080" begin="arrowDown.mouseover" end="arrowDown.mouseout"/>
                  </use>
                  <path fill="none" stroke="white" stroke-width="1.5" d="M0,-3.0v7 M-2.5,-0.5L0,-3.0L2.5,-0.5"/>
                </g>
                <g id="arrowLeft" xlink:href="#dirArrow" transform="rotate(270) translate(-36 17)" onmousedown="handlePan(-1,0)">
                  <use xlink:href="#rim" fill="#404040">
                        <set attributeName="fill" to="#808080" begin="arrowLeft.mouseover" end="arrowLeft.mouseout"/>
                  </use>
                  <path fill="none" stroke="white" stroke-width="1.5" d="M0,-3.0v7 M-2.5,-0.5L0,-3.0L2.5,-0.5"/>
                </g>
        </g>
        <svg viewBox="0 0 15 15" width="100%" height="30px" preserveAspectRatio="xMaxYMin meet">
         <g id="arrow_out" transform="scale(0.3 0.3)">
          <a xlink:href="torccontrol_8cpp__incl_org.svg" target="_base">
           <rect id="button" ry="5" rx="5" y="6" x="6" height="38" width="38"
                fill="#f2f5e9" fill-opacity="0.5" stroke="#606060" stroke-width="1.0"/>
           <path id="arrow"
             d="M 11.500037,31.436501 C 11.940474,20.09759 22.043105,11.32322 32.158766,21.979434 L 37.068811,17.246167 C 37.068811,17.246167 37.088388,32 37.088388,32 L 22.160133,31.978069 C 22.160133,31.978069 26.997745,27.140456 26.997745,27.140456 C 18.528582,18.264221 13.291696,25.230495 11.500037,31.436501 z"
             style="fill:#404040;"/>
          </a>
         </g>
        </svg>
</svg>
