<?xml version="1.0" encoding="UTF-8" standalone="no"?>
<!DOCTYPE svg PUBLIC "-//W3C//DTD SVG 1.1//EN"
 "http://www.w3.org/Graphics/SVG/1.1/DTD/svg11.dtd">
<!-- Generated by graphviz version 2.38.0 (20140413.2041)
 -->
<!-- Title: torcpushbulletnotifier.h Pages: 1 -->
<svg width="508pt" height="252pt"
 viewBox="0.00 0.00 508.00 252.00" xmlns="http://www.w3.org/2000/svg" xmlns:xlink="http://www.w3.org/1999/xlink">
<g id="graph0" class="graph" transform="scale(1 1) rotate(0) translate(4 248)">
<title>torcpushbulletnotifier.h</title>
<polygon fill="white" stroke="none" points="-4,4 -4,-248 504,-248 504,4 -4,4"/>
<!-- Node1 -->
<g id="node1" class="node"><title>Node1</title>
<polygon fill="#bfbfbf" stroke="black" points="3.5,-224.5 3.5,-243.5 129.5,-243.5 129.5,-224.5 3.5,-224.5"/>
<text text-anchor="middle" x="66.5" y="-231.5" font-family="Helvetica,sans-Serif" font-size="10.00">torcpushbulletnotifier.h</text>
</g>
<!-- Node2 -->
<g id="node2" class="node"><title>Node2</title>
<polygon fill="white" stroke="#bfbfbf" points="0,-168.5 0,-187.5 51,-187.5 51,-168.5 0,-168.5"/>
<text text-anchor="middle" x="25.5" y="-175.5" font-family="Helvetica,sans-Serif" font-size="10.00">QTimer</text>
</g>
<!-- Node1&#45;&gt;Node2 -->
<g id="edge1" class="edge"><title>Node1&#45;&gt;Node2</title>
<path fill="none" stroke="midnightblue" d="M59.7297,-224.083C53.9384,-216.455 45.4415,-205.264 38.3625,-195.941"/>
<polygon fill="midnightblue" stroke="midnightblue" points="40.979,-193.599 32.1443,-187.751 35.4039,-197.832 40.979,-193.599"/>
</g>
<!-- Node3 -->
<g id="node3" class="node"><title>Node3</title>
<g id="a_node3"><a xlink:href="../../db/df1/torcnotifier_8h.html" target="_top" xlink:title="torcnotifier.h">
<polygon fill="white" stroke="black" points="69,-168.5 69,-187.5 146,-187.5 146,-168.5 69,-168.5"/>
<text text-anchor="middle" x="107.5" y="-175.5" font-family="Helvetica,sans-Serif" font-size="10.00">torcnotifier.h</text>
</a>
</g>
</g>
<!-- Node1&#45;&gt;Node3 -->
<g id="edge2" class="edge"><title>Node1&#45;&gt;Node3</title>
<path fill="none" stroke="midnightblue" d="M73.2703,-224.083C79.0616,-216.455 87.5585,-205.264 94.6375,-195.941"/>
<polygon fill="midnightblue" stroke="midnightblue" points="97.5961,-197.832 100.856,-187.751 92.021,-193.599 97.5961,-197.832"/>
</g>
<!-- Node4 -->
<g id="node4" class="node"><title>Node4</title>
<polygon fill="white" stroke="#bfbfbf" points="13.5,-0.5 13.5,-19.5 71.5,-19.5 71.5,-0.5 13.5,-0.5"/>
<text text-anchor="middle" x="42.5" y="-7.5" font-family="Helvetica,sans-Serif" font-size="10.00">QVariant</text>
</g>
<!-- Node3&#45;&gt;Node4 -->
<g id="edge3" class="edge"><title>Node3&#45;&gt;Node4</title>
<path fill="none" stroke="midnightblue" d="M94.4823,-168.312C72.5938,-152.82 29.1771,-118.072 12.5,-76 5.81249,-59.1293 16.5135,-40.3576 26.9428,-27.342"/>
<polygon fill="midnightblue" stroke="midnightblue" points="29.6643,-29.5459 33.5716,-19.6979 24.3758,-24.9598 29.6643,-29.5459"/>
</g>
<!-- Node5 -->
<g id="node5" class="node"><title>Node5</title>
<g id="a_node5"><a xlink:href="../../d1/df7/torcdevice_8h.html" target="_top" xlink:title="torcdevice.h">
<polygon fill="white" stroke="black" points="184,-112.5 184,-131.5 259,-131.5 259,-112.5 184,-112.5"/>
<text text-anchor="middle" x="221.5" y="-119.5" font-family="Helvetica,sans-Serif" font-size="10.00">torcdevice.h</text>
</a>
</g>
</g>
<!-- Node3&#45;&gt;Node5 -->
<g id="edge4" class="edge"><title>Node3&#45;&gt;Node5</title>
<path fill="none" stroke="midnightblue" d="M125.564,-168.444C144.075,-159.675 173.081,-145.935 194.355,-135.858"/>
<polygon fill="midnightblue" stroke="midnightblue" points="195.982,-138.96 203.521,-131.516 192.985,-132.634 195.982,-138.96"/>
</g>
<!-- Node6 -->
<g id="node6" class="node"><title>Node6</title>
<polygon fill="white" stroke="#bfbfbf" points="249,-0.5 249,-19.5 298,-19.5 298,-0.5 249,-0.5"/>
<text text-anchor="middle" x="273.5" y="-7.5" font-family="Helvetica,sans-Serif" font-size="10.00">QHash</text>
</g>
<!-- Node5&#45;&gt;Node6 -->
<g id="edge5" class="edge"><title>Node5&#45;&gt;Node6</title>
<path fill="none" stroke="midnightblue" d="M242.983,-112.36C257.892,-105.09 276.611,-93.117 285.5,-76 293.17,-61.23 288.298,-42.3332 282.633,-28.726"/>
<polygon fill="midnightblue" stroke="midnightblue" points="285.735,-27.0958 278.341,-19.5076 279.389,-30.0504 285.735,-27.0958"/>
</g>
<!-- Node7 -->
<g id="node7" class="node"><title>Node7</title>
<polygon fill="white" stroke="#bfbfbf" points="316,-0.5 316,-19.5 369,-19.5 369,-0.5 316,-0.5"/>
<text text-anchor="middle" x="342.5" y="-7.5" font-family="Helvetica,sans-Serif" font-size="10.00">QMutex</text>
</g>
<!-- Node5&#45;&gt;Node7 -->
<g id="edge6" class="edge"><title>Node5&#45;&gt;Node7</title>
<path fill="none" stroke="midnightblue" d="M242.411,-112.456C259.453,-104.752 283.412,-92.159 300.5,-76 314.954,-62.332 326.738,-42.7311 334.105,-28.6322"/>
<polygon fill="midnightblue" stroke="midnightblue" points="337.328,-30.0122 338.664,-19.5019 331.066,-26.885 337.328,-30.0122"/>
</g>
<!-- Node8 -->
<g id="node8" class="node"><title>Node8</title>
<polygon fill="white" stroke="#bfbfbf" points="22,-56.5 22,-75.5 75,-75.5 75,-56.5 22,-56.5"/>
<text text-anchor="middle" x="48.5" y="-63.5" font-family="Helvetica,sans-Serif" font-size="10.00">QString</text>
</g>
<!-- Node5&#45;&gt;Node8 -->
<g id="edge7" class="edge"><title>Node5&#45;&gt;Node8</title>
<path fill="none" stroke="midnightblue" d="M194.088,-112.444C164.558,-103.226 117.43,-88.5157 84.8307,-78.3402"/>
<polygon fill="midnightblue" stroke="midnightblue" points="85.8043,-74.9776 75.2157,-75.339 83.7186,-81.6597 85.8043,-74.9776"/>
</g>
<!-- Node9 -->
<g id="node9" class="node"><title>Node9</title>
<polygon fill="white" stroke="#bfbfbf" points="93,-56.5 93,-75.5 148,-75.5 148,-56.5 93,-56.5"/>
<text text-anchor="middle" x="120.5" y="-63.5" font-family="Helvetica,sans-Serif" font-size="10.00">QObject</text>
</g>
<!-- Node5&#45;&gt;Node9 -->
<g id="edge8" class="edge"><title>Node5&#45;&gt;Node9</title>
<path fill="none" stroke="midnightblue" d="M205.273,-112.324C189.149,-103.703 164.2,-90.3643 145.536,-80.3855"/>
<polygon fill="midnightblue" stroke="midnightblue" points="147.156,-77.283 136.687,-75.6545 143.856,-83.456 147.156,-77.283"/>
</g>
<!-- Node10 -->
<g id="node10" class="node"><title>Node10</title>
<g id="a_node10"><a xlink:href="../../d8/dfe/torcreferencecounted_8h.html" target="_top" xlink:title="torcreferencecounted.h">
<polygon fill="white" stroke="black" points="371,-56.5 371,-75.5 500,-75.5 500,-56.5 371,-56.5"/>
<text text-anchor="middle" x="435.5" y="-63.5" font-family="Helvetica,sans-Serif" font-size="10.00">torcreferencecounted.h</text>
</a>
</g>
</g>
<!-- Node5&#45;&gt;Node10 -->
<g id="edge9" class="edge"><title>Node5&#45;&gt;Node10</title>
<path fill="none" stroke="midnightblue" d="M255.409,-112.444C292.349,-103.122 351.554,-88.1828 391.918,-77.9972"/>
<polygon fill="midnightblue" stroke="midnightblue" points="392.91,-81.3568 401.75,-75.5164 391.197,-74.5695 392.91,-81.3568"/>
</g>
<!-- Node12 -->
<g id="node12" class="node"><title>Node12</title>
<g id="a_node12"><a xlink:href="../../d2/d5b/torcdevicehandler_8h.html" target="_top" xlink:title="torcdevicehandler.h">
<polygon fill="white" stroke="black" points="166.5,-56.5 166.5,-75.5 276.5,-75.5 276.5,-56.5 166.5,-56.5"/>
<text text-anchor="middle" x="221.5" y="-63.5" font-family="Helvetica,sans-Serif" font-size="10.00">torcdevicehandler.h</text>
</a>
</g>
</g>
<!-- Node5&#45;&gt;Node12 -->
<g id="edge11" class="edge"><title>Node5&#45;&gt;Node12</title>
<path fill="none" stroke="midnightblue" d="M221.5,-112.083C221.5,-105.006 221.5,-94.8611 221.5,-85.9865"/>
<polygon fill="midnightblue" stroke="midnightblue" points="225,-85.751 221.5,-75.7511 218,-85.7511 225,-85.751"/>
</g>
<!-- Node11 -->
<g id="node11" class="node"><title>Node11</title>
<polygon fill="white" stroke="#bfbfbf" points="400.5,-0.5 400.5,-19.5 470.5,-19.5 470.5,-0.5 400.5,-0.5"/>
<text text-anchor="middle" x="435.5" y="-7.5" font-family="Helvetica,sans-Serif" font-size="10.00">QAtomicInt</text>
</g>
<!-- Node10&#45;&gt;Node11 -->
<g id="edge10" class="edge"><title>Node10&#45;&gt;Node11</title>
<path fill="none" stroke="midnightblue" d="M435.5,-56.083C435.5,-49.0059 435.5,-38.8611 435.5,-29.9865"/>
<polygon fill="midnightblue" stroke="midnightblue" points="439,-29.751 435.5,-19.7511 432,-29.7511 439,-29.751"/>
</g>
<!-- Node12&#45;&gt;Node4 -->
<g id="edge15" class="edge"><title>Node12&#45;&gt;Node4</title>
<path fill="none" stroke="midnightblue" d="M193.137,-56.4435C162.762,-47.2801 114.39,-32.6876 80.684,-22.5192"/>
<polygon fill="midnightblue" stroke="midnightblue" points="81.3151,-19.0538 70.7304,-19.5164 79.2933,-25.7555 81.3151,-19.0538"/>
</g>
<!-- Node12&#45;&gt;Node6 -->
<g id="edge12" class="edge"><title>Node12&#45;&gt;Node6</title>
<path fill="none" stroke="midnightblue" d="M230.087,-56.083C237.659,-48.2195 248.878,-36.5688 258.014,-27.0813"/>
<polygon fill="midnightblue" stroke="midnightblue" points="260.658,-29.3821 265.073,-19.7511 255.615,-24.5266 260.658,-29.3821"/>
</g>
<!-- Node12&#45;&gt;Node7 -->
<g id="edge13" class="edge"><title>Node12&#45;&gt;Node7</title>
<path fill="none" stroke="midnightblue" d="M240.673,-56.4435C260.409,-47.6356 291.385,-33.8116 313.993,-23.722"/>
<polygon fill="midnightblue" stroke="midnightblue" points="315.711,-26.788 323.417,-19.5164 312.859,-20.3957 315.711,-26.788"/>
</g>
<!-- Node13 -->
<g id="node13" class="node"><title>Node13</title>
<polygon fill="white" stroke="#bfbfbf" points="138.5,-0.5 138.5,-19.5 230.5,-19.5 230.5,-0.5 138.5,-0.5"/>
<text text-anchor="middle" x="184.5" y="-7.5" font-family="Helvetica,sans-Serif" font-size="10.00">QReadWriteLock</text>
</g>
<!-- Node12&#45;&gt;Node13 -->
<g id="edge14" class="edge"><title>Node12&#45;&gt;Node13</title>
<path fill="none" stroke="midnightblue" d="M215.39,-56.083C210.218,-48.5341 202.654,-37.4948 196.306,-28.2298"/>
<polygon fill="midnightblue" stroke="midnightblue" points="199.036,-26.0221 190.496,-19.7511 193.261,-29.9787 199.036,-26.0221"/>
</g>
</g>
</svg>
