<?xml version="1.0" encoding="UTF-8" standalone="no"?>
<!DOCTYPE svg PUBLIC "-//W3C//DTD SVG 1.1//EN"
 "http://www.w3.org/Graphics/SVG/1.1/DTD/svg11.dtd">
<!-- Generated by graphviz version 2.38.0 (20140413.2041)
 -->
<!-- Title: torcnetworkrequest.h Pages: 1 -->
<svg width="1713pt" height="140pt"
 viewBox="0.00 0.00 1713.00 140.00" xmlns="http://www.w3.org/2000/svg" xmlns:xlink="http://www.w3.org/1999/xlink">
<g id="graph0" class="graph" transform="scale(1 1) rotate(0) translate(4 136)">
<title>torcnetworkrequest.h</title>
<polygon fill="white" stroke="none" points="-4,4 -4,-136 1709,-136 1709,4 -4,4"/>
<!-- Node1 -->
<g id="node1" class="node"><title>Node1</title>
<polygon fill="#bfbfbf" stroke="black" points="919,-112.5 919,-131.5 1038,-131.5 1038,-112.5 919,-112.5"/>
<text text-anchor="middle" x="978.5" y="-119.5" font-family="Helvetica,sans-Serif" font-size="10.00">torcnetworkrequest.h</text>
</g>
<!-- Node2 -->
<g id="node2" class="node"><title>Node2</title>
<g id="a_node2"><a xlink:href="../../df/dc4/torcpushbulletnotifier_8cpp.html" target="_top" xlink:title="torcpushbulletnotifier.cpp">
<polygon fill="white" stroke="black" points="640,-56.5 640,-75.5 777,-75.5 777,-56.5 640,-56.5"/>
<text text-anchor="middle" x="708.5" y="-63.5" font-family="Helvetica,sans-Serif" font-size="10.00">torcpushbulletnotifier.cpp</text>
</a>
</g>
</g>
<!-- Node1&#45;&gt;Node2 -->
<g id="edge1" class="edge"><title>Node1&#45;&gt;Node2</title>
<path fill="none" stroke="midnightblue" d="M925.867,-110.473C874.839,-100.268 798.397,-84.9794 751.082,-75.5164"/>
<polygon fill="midnightblue" stroke="midnightblue" points="925.225,-113.914 935.718,-112.444 926.598,-107.05 925.225,-113.914"/>
</g>
<!-- Node3 -->
<g id="node3" class="node"><title>Node3</title>
<g id="a_node3"><a xlink:href="../../d1/d3b/torccameraoutput_8cpp.html" target="_top" xlink:title="torccameraoutput.cpp">
<polygon fill="white" stroke="black" points="795.5,-56.5 795.5,-75.5 919.5,-75.5 919.5,-56.5 795.5,-56.5"/>
<text text-anchor="middle" x="857.5" y="-63.5" font-family="Helvetica,sans-Serif" font-size="10.00">torccameraoutput.cpp</text>
</a>
</g>
</g>
<!-- Node1&#45;&gt;Node3 -->
<g id="edge2" class="edge"><title>Node1&#45;&gt;Node3</title>
<path fill="none" stroke="midnightblue" d="M950.194,-108.368C927.535,-98.2553 896.374,-84.3486 876.583,-75.5164"/>
<polygon fill="midnightblue" stroke="midnightblue" points="948.769,-111.564 959.327,-112.444 951.622,-105.172 948.769,-111.564"/>
</g>
<!-- Node4 -->
<g id="node4" class="node"><title>Node4</title>
<g id="a_node4"><a xlink:href="../../da/da5/torcnetwork_8h.html" target="_top" xlink:title="torcnetwork.h">
<polygon fill="white" stroke="black" points="937.5,-56.5 937.5,-75.5 1019.5,-75.5 1019.5,-56.5 937.5,-56.5"/>
<text text-anchor="middle" x="978.5" y="-63.5" font-family="Helvetica,sans-Serif" font-size="10.00">torcnetwork.h</text>
</a>
</g>
</g>
<!-- Node1&#45;&gt;Node4 -->
<g id="edge3" class="edge"><title>Node1&#45;&gt;Node4</title>
<path fill="none" stroke="midnightblue" d="M972.028,-102.101C971.396,-93.1357 971.843,-82.8579 973.369,-75.7511"/>
<polygon fill="midnightblue" stroke="midnightblue" points="968.566,-102.622 973.334,-112.083 975.507,-101.713 968.566,-102.622"/>
</g>
<!-- Node15 -->
<g id="node15" class="node"><title>Node15</title>
<g id="a_node15"><a xlink:href="../../de/d48/torcnetworkedcontext_8cpp.html" target="_top" xlink:title="torcnetworkedcontext.cpp">
<polygon fill="white" stroke="black" points="1564,-0.5 1564,-19.5 1705,-19.5 1705,-0.5 1564,-0.5"/>
<text text-anchor="middle" x="1634.5" y="-7.5" font-family="Helvetica,sans-Serif" font-size="10.00">torcnetworkedcontext.cpp</text>
</a>
</g>
</g>
<!-- Node1&#45;&gt;Node15 -->
<g id="edge18" class="edge"><title>Node1&#45;&gt;Node15</title>
<path fill="none" stroke="midnightblue" d="M994.293,-104.916C1010.72,-89.3378 1037.99,-66.5669 1066.5,-56 1168.46,-18.2122 1446.23,-30.0801 1554.5,-20 1557.56,-19.715 1560.69,-19.4125 1563.84,-19.0976"/>
<polygon fill="midnightblue" stroke="midnightblue" points="991.442,-102.809 986.741,-112.304 996.337,-107.813 991.442,-102.809"/>
</g>
<!-- Node18 -->
<g id="node18" class="node"><title>Node18</title>
<g id="a_node18"><a xlink:href="../../d8/dcb/torcnetworkrequest_8cpp.html" target="_top" xlink:title="torcnetworkrequest.cpp">
<polygon fill="white" stroke="black" points="1075.5,-56.5 1075.5,-75.5 1205.5,-75.5 1205.5,-56.5 1075.5,-56.5"/>
<text text-anchor="middle" x="1140.5" y="-63.5" font-family="Helvetica,sans-Serif" font-size="10.00">torcnetworkrequest.cpp</text>
</a>
</g>
</g>
<!-- Node1&#45;&gt;Node18 -->
<g id="edge19" class="edge"><title>Node1&#45;&gt;Node18</title>
<path fill="none" stroke="midnightblue" d="M1013.98,-109.172C1044.49,-99.0039 1087.74,-84.5852 1114.95,-75.5164"/>
<polygon fill="midnightblue" stroke="midnightblue" points="1012.55,-105.961 1004.17,-112.444 1014.76,-112.602 1012.55,-105.961"/>
</g>
<!-- Node4&#45;&gt;Node1 -->
<g id="edge13" class="edge"><title>Node4&#45;&gt;Node1</title>
<path fill="none" stroke="midnightblue" d="M984.958,-85.6911C985.606,-94.6353 985.176,-104.927 983.666,-112.083"/>
<polygon fill="midnightblue" stroke="midnightblue" points="988.423,-85.2002 983.631,-75.7511 981.485,-86.1262 988.423,-85.2002"/>
</g>
<!-- Node5 -->
<g id="node5" class="node"><title>Node5</title>
<g id="a_node5"><a xlink:href="../../db/d31/torciotlogger_8cpp.html" target="_top" xlink:title="torciotlogger.cpp">
<polygon fill="white" stroke="black" points="0,-0.5 0,-19.5 97,-19.5 97,-0.5 0,-0.5"/>
<text text-anchor="middle" x="48.5" y="-7.5" font-family="Helvetica,sans-Serif" font-size="10.00">torciotlogger.cpp</text>
</a>
</g>
</g>
<!-- Node4&#45;&gt;Node5 -->
<g id="edge4" class="edge"><title>Node4&#45;&gt;Node5</title>
<path fill="none" stroke="midnightblue" d="M927.33,-56.0345C562.887,-16.215 466.502,-56.2787 105.5,-20 102.809,-19.7295 100.051,-19.416 97.2707,-19.0715"/>
<polygon fill="midnightblue" stroke="midnightblue" points="927.039,-59.5236 937.363,-57.1434 927.808,-52.5659 927.039,-59.5236"/>
</g>
<!-- Node6 -->
<g id="node6" class="node"><title>Node6</title>
<g id="a_node6"><a xlink:href="../../d6/da0/torciotplotternotifier_8cpp.html" target="_top" xlink:title="torciotplotternotifier.cpp">
<polygon fill="white" stroke="black" points="115,-0.5 115,-19.5 246,-19.5 246,-0.5 115,-0.5"/>
<text text-anchor="middle" x="180.5" y="-7.5" font-family="Helvetica,sans-Serif" font-size="10.00">torciotplotternotifier.cpp</text>
</a>
</g>
</g>
<!-- Node4&#45;&gt;Node6 -->
<g id="edge5" class="edge"><title>Node4&#45;&gt;Node6</title>
<path fill="none" stroke="midnightblue" d="M927.123,-55.9928C629.208,-21.9437 550.569,-45.568 255.5,-20 252.495,-19.7396 249.425,-19.4534 246.325,-19.148"/>
<polygon fill="midnightblue" stroke="midnightblue" points="927.024,-59.5045 937.36,-57.1754 927.828,-52.5508 927.024,-59.5045"/>
</g>
<!-- Node7 -->
<g id="node7" class="node"><title>Node7</title>
<g id="a_node7"><a xlink:href="../../d1/d3e/torcthingspeaknotifier_8cpp.html" target="_top" xlink:title="torcthingspeaknotifier.cpp">
<polygon fill="white" stroke="black" points="264.5,-0.5 264.5,-19.5 404.5,-19.5 404.5,-0.5 264.5,-0.5"/>
<text text-anchor="middle" x="334.5" y="-7.5" font-family="Helvetica,sans-Serif" font-size="10.00">torcthingspeaknotifier.cpp</text>
</a>
</g>
</g>
<!-- Node4&#45;&gt;Node7 -->
<g id="edge6" class="edge"><title>Node4&#45;&gt;Node7</title>
<path fill="none" stroke="midnightblue" d="M927.411,-55.9976C699.113,-28.0061 638.75,-40.6936 413.5,-20 410.613,-19.7348 407.669,-19.4526 404.695,-19.1578"/>
<polygon fill="midnightblue" stroke="midnightblue" points="926.999,-59.4733 937.353,-57.2292 927.859,-52.5264 926.999,-59.4733"/>
</g>
<!-- Node8 -->
<g id="node8" class="node"><title>Node8</title>
<g id="a_node8"><a xlink:href="../../d6/dda/torchtmlstaticcontent_8cpp.html" target="_top" xlink:title="torchtmlstaticcontent.cpp">
<polygon fill="white" stroke="black" points="422.5,-0.5 422.5,-19.5 562.5,-19.5 562.5,-0.5 422.5,-0.5"/>
<text text-anchor="middle" x="492.5" y="-7.5" font-family="Helvetica,sans-Serif" font-size="10.00">torchtmlstaticcontent.cpp</text>
</a>
</g>
</g>
<!-- Node4&#45;&gt;Node8 -->
<g id="edge7" class="edge"><title>Node4&#45;&gt;Node8</title>
<path fill="none" stroke="midnightblue" d="M927.237,-55.9192C768.862,-33.9794 726.808,-36.6766 571.5,-20 568.618,-19.6905 565.677,-19.3712 562.706,-19.0459"/>
<polygon fill="midnightblue" stroke="midnightblue" points="926.952,-59.4133 937.34,-57.3301 927.92,-52.4805 926.952,-59.4133"/>
</g>
<!-- Node9 -->
<g id="node9" class="node"><title>Node9</title>
<g id="a_node9"><a xlink:href="../../de/dc5/torchttpserver_8cpp.html" target="_top" xlink:title="torchttpserver.cpp">
<polygon fill="white" stroke="black" points="580.5,-0.5 580.5,-19.5 684.5,-19.5 684.5,-0.5 580.5,-0.5"/>
<text text-anchor="middle" x="632.5" y="-7.5" font-family="Helvetica,sans-Serif" font-size="10.00">torchttpserver.cpp</text>
</a>
</g>
</g>
<!-- Node4&#45;&gt;Node9 -->
<g id="edge8" class="edge"><title>Node4&#45;&gt;Node9</title>
<path fill="none" stroke="midnightblue" d="M927.364,-55.8572C868.555,-46.2758 752.453,-28.8621 684.573,-18.7418"/>
<polygon fill="midnightblue" stroke="midnightblue" points="926.879,-59.3243 937.315,-57.495 928.016,-52.4173 926.879,-59.3243"/>
</g>
<!-- Node10 -->
<g id="node10" class="node"><title>Node10</title>
<g id="a_node10"><a xlink:href="../../de/d4e/torchttpserverlistener_8cpp.html" target="_top" xlink:title="torchttpserverlistener.cpp">
<polygon fill="white" stroke="black" points="702.5,-0.5 702.5,-19.5 842.5,-19.5 842.5,-0.5 702.5,-0.5"/>
<text text-anchor="middle" x="772.5" y="-7.5" font-family="Helvetica,sans-Serif" font-size="10.00">torchttpserverlistener.cpp</text>
</a>
</g>
</g>
<!-- Node4&#45;&gt;Node10 -->
<g id="edge9" class="edge"><title>Node4&#45;&gt;Node10</title>
<path fill="none" stroke="midnightblue" d="M935.885,-53.8291C896.99,-43.6333 840.336,-28.7823 804.989,-19.5164"/>
<polygon fill="midnightblue" stroke="midnightblue" points="935.298,-57.2934 945.859,-56.4435 937.073,-50.5222 935.298,-57.2934"/>
</g>
<!-- Node11 -->
<g id="node11" class="node"><title>Node11</title>
<g id="a_node11"><a xlink:href="../../d1/d77/torchttpservice_8cpp.html" target="_top" xlink:title="torchttpservice.cpp">
<polygon fill="white" stroke="black" points="861,-0.5 861,-19.5 970,-19.5 970,-0.5 861,-0.5"/>
<text text-anchor="middle" x="915.5" y="-7.5" font-family="Helvetica,sans-Serif" font-size="10.00">torchttpservice.cpp</text>
</a>
</g>
</g>
<!-- Node4&#45;&gt;Node11 -->
<g id="edge10" class="edge"><title>Node4&#45;&gt;Node11</title>
<path fill="none" stroke="midnightblue" d="M960.46,-49.5372C949.227,-39.9087 935.181,-27.8694 925.806,-19.8339"/>
<polygon fill="midnightblue" stroke="midnightblue" points="958.508,-52.4734 968.378,-56.324 963.063,-47.1586 958.508,-52.4734"/>
</g>
<!-- Node12 -->
<g id="node12" class="node"><title>Node12</title>
<g id="a_node12"><a xlink:href="../../db/d78/torcwebsocket_8cpp.html" target="_top" xlink:title="torcwebsocket.cpp">
<polygon fill="white" stroke="black" points="988.5,-0.5 988.5,-19.5 1094.5,-19.5 1094.5,-0.5 988.5,-0.5"/>
<text text-anchor="middle" x="1041.5" y="-7.5" font-family="Helvetica,sans-Serif" font-size="10.00">torcwebsocket.cpp</text>
</a>
</g>
</g>
<!-- Node4&#45;&gt;Node12 -->
<g id="edge11" class="edge"><title>Node4&#45;&gt;Node12</title>
<path fill="none" stroke="midnightblue" d="M996.54,-49.5372C1007.77,-39.9087 1021.82,-27.8694 1031.19,-19.8339"/>
<polygon fill="midnightblue" stroke="midnightblue" points="993.937,-47.1586 988.622,-56.324 998.492,-52.4734 993.937,-47.1586"/>
</g>
<!-- Node13 -->
<g id="node13" class="node"><title>Node13</title>
<g id="a_node13"><a xlink:href="../../dc/d96/torcbonjour_8cpp.html" target="_top" xlink:title="torcbonjour.cpp">
<polygon fill="white" stroke="black" points="1113,-0.5 1113,-19.5 1204,-19.5 1204,-0.5 1113,-0.5"/>
<text text-anchor="middle" x="1158.5" y="-7.5" font-family="Helvetica,sans-Serif" font-size="10.00">torcbonjour.cpp</text>
</a>
</g>
</g>
<!-- Node4&#45;&gt;Node13 -->
<g id="edge12" class="edge"><title>Node4&#45;&gt;Node13</title>
<path fill="none" stroke="midnightblue" d="M1016.61,-53.5677C1050.56,-43.381 1099.49,-28.7034 1130.11,-19.5164"/>
<polygon fill="midnightblue" stroke="midnightblue" points="1015.59,-50.2176 1007.02,-56.4435 1017.61,-56.9224 1015.59,-50.2176"/>
</g>
<!-- Node14 -->
<g id="node14" class="node"><title>Node14</title>
<g id="a_node14"><a xlink:href="../../da/d9c/torcnetwork_8cpp.html" target="_top" xlink:title="torcnetwork.cpp">
<polygon fill="white" stroke="black" points="1222,-0.5 1222,-19.5 1315,-19.5 1315,-0.5 1222,-0.5"/>
<text text-anchor="middle" x="1268.5" y="-7.5" font-family="Helvetica,sans-Serif" font-size="10.00">torcnetwork.cpp</text>
</a>
</g>
</g>
<!-- Node4&#45;&gt;Node14 -->
<g id="edge14" class="edge"><title>Node4&#45;&gt;Node14</title>
<path fill="none" stroke="midnightblue" d="M1029.9,-55.4281C1084.55,-45.2523 1170.17,-29.3094 1222.62,-19.544"/>
<polygon fill="midnightblue" stroke="midnightblue" points="1028.93,-52.0489 1019.74,-57.3205 1030.21,-58.9306 1028.93,-52.0489"/>
</g>
<!-- Node4&#45;&gt;Node15 -->
<g id="edge15" class="edge"><title>Node4&#45;&gt;Node15</title>
<path fill="none" stroke="midnightblue" d="M1029.65,-56.4675C1030.94,-56.3038 1032.23,-56.1475 1033.5,-56 1264.06,-29.2296 1323.34,-40.9791 1554.5,-20 1557.56,-19.7221 1560.69,-19.4255 1563.85,-19.1154"/>
<polygon fill="midnightblue" stroke="midnightblue" points="1029.02,-53.0209 1019.59,-57.8474 1029.97,-59.956 1029.02,-53.0209"/>
</g>
<!-- Node16 -->
<g id="node16" class="node"><title>Node16</title>
<g id="a_node16"><a xlink:href="../../d9/de1/torcssdp_8cpp.html" target="_top" xlink:title="torcssdp.cpp">
<polygon fill="white" stroke="black" points="1333.5,-0.5 1333.5,-19.5 1411.5,-19.5 1411.5,-0.5 1333.5,-0.5"/>
<text text-anchor="middle" x="1372.5" y="-7.5" font-family="Helvetica,sans-Serif" font-size="10.00">torcssdp.cpp</text>
</a>
</g>
</g>
<!-- Node4&#45;&gt;Node16 -->
<g id="edge16" class="edge"><title>Node4&#45;&gt;Node16</title>
<path fill="none" stroke="midnightblue" d="M1029.66,-56.5601C1030.95,-56.3689 1032.23,-56.1818 1033.5,-56 1162.5,-37.4739 1195.73,-40.0179 1324.5,-20 1327.35,-19.5572 1330.29,-19.0733 1333.24,-18.5669"/>
<polygon fill="midnightblue" stroke="midnightblue" points="1028.98,-53.1237 1019.62,-58.0914 1030.03,-60.0437 1028.98,-53.1237"/>
</g>
<!-- Node17 -->
<g id="node17" class="node"><title>Node17</title>
<g id="a_node17"><a xlink:href="../../d9/db2/torcupnpcontent_8cpp.html" target="_top" xlink:title="torcupnpcontent.cpp">
<polygon fill="white" stroke="black" points="1429.5,-0.5 1429.5,-19.5 1545.5,-19.5 1545.5,-0.5 1429.5,-0.5"/>
<text text-anchor="middle" x="1487.5" y="-7.5" font-family="Helvetica,sans-Serif" font-size="10.00">torcupnpcontent.cpp</text>
</a>
</g>
</g>
<!-- Node4&#45;&gt;Node17 -->
<g id="edge17" class="edge"><title>Node4&#45;&gt;Node17</title>
<path fill="none" stroke="midnightblue" d="M1029.65,-56.5082C1030.95,-56.3324 1032.23,-56.1626 1033.5,-56 1204.84,-34.0388 1248.86,-39.5029 1420.5,-20 1423.42,-19.6687 1426.4,-19.3163 1429.41,-18.9501"/>
<polygon fill="midnightblue" stroke="midnightblue" points="1029,-53.066 1019.6,-57.9547 1030,-59.9947 1029,-53.066"/>
</g>
</g>
</svg>
