<?xml version="1.0" encoding="UTF-8" standalone="no"?>
<!DOCTYPE svg PUBLIC "-//W3C//DTD SVG 1.1//EN"
 "http://www.w3.org/Graphics/SVG/1.1/DTD/svg11.dtd">
<!-- Generated by graphviz version 2.38.0 (20140413.2041)
 -->
<!-- Title: torcomxcore.h Pages: 1 -->
<!--zoomable 308 -->
<svg id="main" version="1.1" xmlns="http://www.w3.org/2000/svg" xmlns:xlink="http://www.w3.org/1999/xlink" xml:space="preserve" onload="init(evt)">
<style type="text/css"><![CDATA[
.edge:hover path { stroke: red; }
.edge:hover polygon { stroke: red; fill: red; }
]]></style>
<script type="text/javascript"><![CDATA[
var edges = document.getElementsByTagName('g');
if (edges && edges.length) {
  for (var i=0;i<edges.length;i++) {
    if (edges[i].id.substr(0,4)=='edge') {
      edges[i].setAttribute('class','edge');
    }
  }
}
]]></script>
        <defs>
                <circle id="rim" cx="0" cy="0" r="7"/>
                <circle id="rim2" cx="0" cy="0" r="3.5"/>
                <g id="zoomPlus">
                        <use xlink:href="#rim" fill="#404040">
                                <set attributeName="fill" to="#808080" begin="zoomplus.mouseover" end="zoomplus.mouseout"/>
                        </use>
                        <path d="M-4,0h8M0,-4v8" fill="none" stroke="white" stroke-width="1.5" pointer-events="none"/>
                </g>
                <g id="zoomMin">
                        <use xlink:href="#rim" fill="#404040">
                                <set attributeName="fill" to="#808080" begin="zoomminus.mouseover" end="zoomminus.mouseout"/>
                        </use>
                        <path d="M-4,0h8" fill="none" stroke="white" stroke-width="1.5" pointer-events="none"/>
                </g>
                <g id="dirArrow">
                        <path fill="none" stroke="white" stroke-width="1.5" d="M0,-3.0v7 M-2.5,-0.5L0,-3.0L2.5,-0.5"/>
                </g>
               <g id="resetDef">
                       <use xlink:href="#rim2" fill="#404040">
                               <set attributeName="fill" to="#808080" begin="reset.mouseover" end="reset.mouseout"/>
                       </use>
               </g>
        </defs>

<script type="text/javascript">
var viewWidth = 614;
var viewHeight = 308;
var sectionId = 'dynsection-1';
</script>
<script xlink:href="../../svgpan.js"/>
<svg id="graph" class="graph">
<g id="viewport">
<title>torcomxcore.h</title>
<polygon fill="white" stroke="none" points="-4,4 -4,-304 609.793,-304 609.793,4 -4,4"/>
<!-- Node1 -->
<g id="node1" class="node"><title>Node1</title>
<polygon fill="#bfbfbf" stroke="black" points="285.293,-280.5 285.293,-299.5 371.293,-299.5 371.293,-280.5 285.293,-280.5"/>
<text text-anchor="middle" x="328.293" y="-287.5" font-family="Helvetica,sans-Serif" font-size="10.00">torcomxcore.h</text>
</g>
<!-- Node2 -->
<g id="node2" class="node"><title>Node2</title>
<g id="a_node2"><a xlink:href="../../d0/dd4/torcpicamera_8h.html" target="_top" xlink:title="torcpicamera.h">
<polygon fill="white" stroke="black" points="80.7927,-56.5 80.7927,-75.5 169.793,-75.5 169.793,-56.5 80.7927,-56.5"/>
<text text-anchor="middle" x="125.293" y="-63.5" font-family="Helvetica,sans-Serif" font-size="10.00">torcpicamera.h</text>
</a>
</g>
</g>
<!-- Node1&#45;&gt;Node2 -->
<g id="edge1" class="edge"><title>Node1&#45;&gt;Node2</title>
<path fill="none" stroke="midnightblue" d="M275.269,-281.615C198.853,-267.741 60.7491,-229.783 4.29266,-132 -15.0231,-98.5451 38.5623,-81.4022 80.5184,-73.3235"/>
<polygon fill="midnightblue" stroke="midnightblue" points="274.724,-285.073 285.176,-283.342 275.925,-278.177 274.724,-285.073"/>
</g>
<!-- Node4 -->
<g id="node4" class="node"><title>Node4</title>
<g id="a_node4"><a xlink:href="../../d1/de8/torcomxport_8h.html" target="_top" xlink:title="torcomxport.h">
<polygon fill="white" stroke="black" points="144.793,-168.5 144.793,-187.5 229.793,-187.5 229.793,-168.5 144.793,-168.5"/>
<text text-anchor="middle" x="187.293" y="-175.5" font-family="Helvetica,sans-Serif" font-size="10.00">torcomxport.h</text>
</a>
</g>
</g>
<!-- Node1&#45;&gt;Node4 -->
<g id="edge3" class="edge"><title>Node1&#45;&gt;Node4</title>
<path fill="none" stroke="midnightblue" d="M275.992,-277.52C254.996,-270.711 231.889,-260.142 215.293,-244 199.086,-228.237 191.711,-201.554 188.845,-187.792"/>
<polygon fill="midnightblue" stroke="midnightblue" points="275.19,-280.934 285.775,-280.48 277.217,-274.234 275.19,-280.934"/>
</g>
<!-- Node7 -->
<g id="node7" class="node"><title>Node7</title>
<g id="a_node7"><a xlink:href="../../d5/ddd/torcomxtunnel_8h.html" target="_top" xlink:title="torcomxtunnel.h">
<polygon fill="white" stroke="black" points="324.793,-112.5 324.793,-131.5 419.793,-131.5 419.793,-112.5 324.793,-112.5"/>
<text text-anchor="middle" x="372.293" y="-119.5" font-family="Helvetica,sans-Serif" font-size="10.00">torcomxtunnel.h</text>
</a>
</g>
</g>
<!-- Node1&#45;&gt;Node7 -->
<g id="edge18" class="edge"><title>Node1&#45;&gt;Node7</title>
<path fill="none" stroke="midnightblue" d="M339.647,-271.929C344.564,-263.786 349.948,-253.718 353.293,-244 367.2,-203.585 370.982,-152.041 371.964,-131.759"/>
<polygon fill="midnightblue" stroke="midnightblue" points="336.634,-270.145 334.24,-280.466 342.547,-273.89 336.634,-270.145"/>
</g>
<!-- Node9 -->
<g id="node9" class="node"><title>Node9</title>
<g id="a_node9"><a xlink:href="../../d3/de4/torcomxcomponent_8h.html" target="_top" xlink:title="torcomxcomponent.h">
<polygon fill="white" stroke="black" points="224.293,-224.5 224.293,-243.5 344.293,-243.5 344.293,-224.5 224.293,-224.5"/>
<text text-anchor="middle" x="284.293" y="-231.5" font-family="Helvetica,sans-Serif" font-size="10.00">torcomxcomponent.h</text>
</a>
</g>
</g>
<!-- Node1&#45;&gt;Node9 -->
<g id="edge10" class="edge"><title>Node1&#45;&gt;Node9</title>
<path fill="none" stroke="midnightblue" d="M314.558,-272.144C306.892,-262.736 297.659,-251.405 291.423,-243.751"/>
<polygon fill="midnightblue" stroke="midnightblue" points="311.997,-274.541 321.027,-280.083 317.424,-270.12 311.997,-274.541"/>
</g>
<!-- Node10 -->
<g id="node10" class="node"><title>Node10</title>
<g id="a_node10"><a xlink:href="../../d8/d3f/torcomxcore_8cpp.html" target="_top" xlink:title="torcomxcore.cpp">
<polygon fill="white" stroke="black" points="400.293,-224.5 400.293,-243.5 498.293,-243.5 498.293,-224.5 400.293,-224.5"/>
<text text-anchor="middle" x="449.293" y="-231.5" font-family="Helvetica,sans-Serif" font-size="10.00">torcomxcore.cpp</text>
</a>
</g>
</g>
<!-- Node1&#45;&gt;Node10 -->
<g id="edge15" class="edge"><title>Node1&#45;&gt;Node10</title>
<path fill="none" stroke="midnightblue" d="M356.598,-276.368C379.258,-266.255 410.419,-252.349 430.21,-243.516"/>
<polygon fill="midnightblue" stroke="midnightblue" points="355.171,-273.172 347.465,-280.444 358.024,-279.564 355.171,-273.172"/>
</g>
<!-- Node11 -->
<g id="node11" class="node"><title>Node11</title>
<g id="a_node11"><a xlink:href="../../de/d83/torcomxtest_8h.html" target="_top" xlink:title="torcomxtest.h">
<polygon fill="white" stroke="black" points="516.293,-224.5 516.293,-243.5 600.293,-243.5 600.293,-224.5 516.293,-224.5"/>
<text text-anchor="middle" x="558.293" y="-231.5" font-family="Helvetica,sans-Serif" font-size="10.00">torcomxtest.h</text>
</a>
</g>
</g>
<!-- Node1&#45;&gt;Node11 -->
<g id="edge16" class="edge"><title>Node1&#45;&gt;Node11</title>
<path fill="none" stroke="midnightblue" d="M374.493,-278.153C417.95,-267.95 482.133,-252.881 522.019,-243.516"/>
<polygon fill="midnightblue" stroke="midnightblue" points="373.672,-274.75 364.737,-280.444 375.272,-281.565 373.672,-274.75"/>
</g>
<!-- Node3 -->
<g id="node3" class="node"><title>Node3</title>
<g id="a_node3"><a xlink:href="../../d7/de1/torcpicamera_8cpp.html" target="_top" xlink:title="torcpicamera.cpp">
<polygon fill="white" stroke="black" points="74.7927,-0.5 74.7927,-19.5 175.793,-19.5 175.793,-0.5 74.7927,-0.5"/>
<text text-anchor="middle" x="125.293" y="-7.5" font-family="Helvetica,sans-Serif" font-size="10.00">torcpicamera.cpp</text>
</a>
</g>
</g>
<!-- Node2&#45;&gt;Node3 -->
<g id="edge2" class="edge"><title>Node2&#45;&gt;Node3</title>
<path fill="none" stroke="midnightblue" d="M125.293,-45.8045C125.293,-36.9102 125.293,-26.7798 125.293,-19.7511"/>
<polygon fill="midnightblue" stroke="midnightblue" points="121.793,-46.083 125.293,-56.083 128.793,-46.083 121.793,-46.083"/>
</g>
<!-- Node4&#45;&gt;Node2 -->
<g id="edge4" class="edge"><title>Node4&#45;&gt;Node2</title>
<path fill="none" stroke="midnightblue" d="M134.552,-170.476C88.9633,-163.625 28.1217,-151.152 13.2927,-132 -8.72929,-103.558 40.5262,-85.278 80.5646,-75.5675"/>
<polygon fill="midnightblue" stroke="midnightblue" points="134.209,-173.963 144.608,-171.935 135.214,-167.035 134.209,-173.963"/>
</g>
<!-- Node5 -->
<g id="node5" class="node"><title>Node5</title>
<g id="a_node5"><a xlink:href="../../da/dc0/torcomxcomponent_8cpp.html" target="_top" xlink:title="torcomxcomponent.cpp">
<polygon fill="white" stroke="black" points="136.793,-112.5 136.793,-131.5 267.793,-131.5 267.793,-112.5 136.793,-112.5"/>
<text text-anchor="middle" x="202.293" y="-119.5" font-family="Helvetica,sans-Serif" font-size="10.00">torcomxcomponent.cpp</text>
</a>
</g>
</g>
<!-- Node4&#45;&gt;Node5 -->
<g id="edge5" class="edge"><title>Node4&#45;&gt;Node5</title>
<path fill="none" stroke="midnightblue" d="M192.461,-158.396C194.97,-149.362 197.866,-138.936 199.862,-131.751"/>
<polygon fill="midnightblue" stroke="midnightblue" points="189.074,-157.511 189.77,-168.083 195.818,-159.385 189.074,-157.511"/>
</g>
<!-- Node6 -->
<g id="node6" class="node"><title>Node6</title>
<g id="a_node6"><a xlink:href="../../dc/dc4/torcomxport_8cpp.html" target="_top" xlink:title="torcomxport.cpp">
<polygon fill="white" stroke="black" points="22.2927,-112.5 22.2927,-131.5 118.293,-131.5 118.293,-112.5 22.2927,-112.5"/>
<text text-anchor="middle" x="70.2927" y="-119.5" font-family="Helvetica,sans-Serif" font-size="10.00">torcomxport.cpp</text>
</a>
</g>
</g>
<!-- Node4&#45;&gt;Node6 -->
<g id="edge6" class="edge"><title>Node4&#45;&gt;Node6</title>
<path fill="none" stroke="midnightblue" d="M159.629,-164.232C137.744,-154.131 107.796,-140.309 88.7449,-131.516"/>
<polygon fill="midnightblue" stroke="midnightblue" points="158.207,-167.431 168.754,-168.444 161.141,-161.075 158.207,-167.431"/>
</g>
<!-- Node4&#45;&gt;Node7 -->
<g id="edge7" class="edge"><title>Node4&#45;&gt;Node7</title>
<path fill="none" stroke="midnightblue" d="M226.459,-165.568C261.358,-155.381 311.642,-140.703 343.116,-131.516"/>
<polygon fill="midnightblue" stroke="midnightblue" points="225.225,-162.282 216.606,-168.444 227.187,-169.001 225.225,-162.282"/>
</g>
<!-- Node7&#45;&gt;Node2 -->
<g id="edge8" class="edge"><title>Node7&#45;&gt;Node2</title>
<path fill="none" stroke="midnightblue" d="M323.265,-110.281C276.589,-100.077 207.261,-84.9203 164.247,-75.5164"/>
<polygon fill="midnightblue" stroke="midnightblue" points="322.638,-113.727 333.155,-112.444 324.133,-106.888 322.638,-113.727"/>
</g>
<!-- Node8 -->
<g id="node8" class="node"><title>Node8</title>
<g id="a_node8"><a xlink:href="../../d9/d47/torcomxtunnel_8cpp.html" target="_top" xlink:title="torcomxtunnel.cpp">
<polygon fill="white" stroke="black" points="318.793,-56.5 318.793,-75.5 425.793,-75.5 425.793,-56.5 318.793,-56.5"/>
<text text-anchor="middle" x="372.293" y="-63.5" font-family="Helvetica,sans-Serif" font-size="10.00">torcomxtunnel.cpp</text>
</a>
</g>
</g>
<!-- Node7&#45;&gt;Node8 -->
<g id="edge9" class="edge"><title>Node7&#45;&gt;Node8</title>
<path fill="none" stroke="midnightblue" d="M372.293,-101.805C372.293,-92.9102 372.293,-82.7798 372.293,-75.7511"/>
<polygon fill="midnightblue" stroke="midnightblue" points="368.793,-102.083 372.293,-112.083 375.793,-102.083 368.793,-102.083"/>
</g>
<!-- Node9&#45;&gt;Node2 -->
<g id="edge11" class="edge"><title>Node9&#45;&gt;Node2</title>
<path fill="none" stroke="midnightblue" d="M289.054,-214.173C294.423,-188.19 299.63,-141.24 276.293,-112 251.124,-80.4645 204.83,-70.3299 170.11,-67.404"/>
<polygon fill="midnightblue" stroke="midnightblue" points="285.578,-213.676 286.753,-224.206 292.4,-215.242 285.578,-213.676"/>
</g>
<!-- Node9&#45;&gt;Node4 -->
<g id="edge12" class="edge"><title>Node9&#45;&gt;Node4</title>
<path fill="none" stroke="midnightblue" d="M259.957,-219.453C242.05,-209.483 218.239,-196.228 202.839,-187.655"/>
<polygon fill="midnightblue" stroke="midnightblue" points="258.268,-222.518 268.708,-224.324 261.673,-216.402 258.268,-222.518"/>
</g>
<!-- Node9&#45;&gt;Node5 -->
<g id="edge13" class="edge"><title>Node9&#45;&gt;Node5</title>
<path fill="none" stroke="midnightblue" d="M272.618,-215.926C263.477,-202.701 250.336,-183.998 238.293,-168 228.545,-155.051 216.718,-140.47 209.347,-131.508"/>
<polygon fill="midnightblue" stroke="midnightblue" points="269.944,-218.215 278.494,-224.472 275.712,-214.249 269.944,-218.215"/>
</g>
<!-- Node9&#45;&gt;Node7 -->
<g id="edge14" class="edge"><title>Node9&#45;&gt;Node7</title>
<path fill="none" stroke="midnightblue" d="M297.675,-216.272C316.697,-192.494 350.862,-149.789 365.42,-131.591"/>
<polygon fill="midnightblue" stroke="midnightblue" points="294.712,-214.373 291.198,-224.368 300.178,-218.746 294.712,-214.373"/>
</g>
<!-- Node12 -->
<g id="node12" class="node"><title>Node12</title>
<g id="a_node12"><a xlink:href="../../dd/d0f/torcomxtest_8cpp.html" target="_top" xlink:title="torcomxtest.cpp">
<polygon fill="white" stroke="black" points="510.793,-168.5 510.793,-187.5 605.793,-187.5 605.793,-168.5 510.793,-168.5"/>
<text text-anchor="middle" x="558.293" y="-175.5" font-family="Helvetica,sans-Serif" font-size="10.00">torcomxtest.cpp</text>
</a>
</g>
</g>
<!-- Node11&#45;&gt;Node12 -->
<g id="edge17" class="edge"><title>Node11&#45;&gt;Node12</title>
<path fill="none" stroke="midnightblue" d="M558.293,-213.805C558.293,-204.91 558.293,-194.78 558.293,-187.751"/>
<polygon fill="midnightblue" stroke="midnightblue" points="554.793,-214.083 558.293,-224.083 561.793,-214.083 554.793,-214.083"/>
</g>
</g>
</svg>
        <g id="navigator" transform="translate(0 0)" fill="#404254">
                <rect fill="#f2f5e9" fill-opacity="0.5" stroke="#606060" stroke-width=".5" x="0" y="0" width="60" height="60"/>
                <use id="zoomplus" xlink:href="#zoomPlus" x="17" y="9" onmousedown="handleZoom(evt,'in')"/>
                <use id="zoomminus" xlink:href="#zoomMin" x="42" y="9" onmousedown="handleZoom(evt,'out')"/>
                <use id="reset" xlink:href="#resetDef" x="30" y="36" onmousedown="handleReset()"/>
                <g id="arrowUp" xlink:href="#dirArrow" transform="translate(30 24)" onmousedown="handlePan(0,-1)">
                  <use xlink:href="#rim" fill="#404040">
                        <set attributeName="fill" to="#808080" begin="arrowUp.mouseover" end="arrowUp.mouseout"/>
                  </use>
                  <path fill="none" stroke="white" stroke-width="1.5" d="M0,-3.0v7 M-2.5,-0.5L0,-3.0L2.5,-0.5"/>
                </g>
                <g id="arrowRight" xlink:href="#dirArrow" transform="rotate(90) translate(36 -43)" onmousedown="handlePan(1,0)">
                  <use xlink:href="#rim" fill="#404040">
                        <set attributeName="fill" to="#808080" begin="arrowRight.mouseover" end="arrowRight.mouseout"/>
                  </use>
                  <path fill="none" stroke="white" stroke-width="1.5" d="M0,-3.0v7 M-2.5,-0.5L0,-3.0L2.5,-0.5"/>
                </g>
                <g id="arrowDown" xlink:href="#dirArrow" transform="rotate(180) translate(-30 -48)" onmousedown="handlePan(0,1)">
                  <use xlink:href="#rim" fill="#404040">
                        <set attributeName="fill" to="#808080" begin="arrowDown.mouseover" end="arrowDown.mouseout"/>
                  </use>
                  <path fill="none" stroke="white" stroke-width="1.5" d="M0,-3.0v7 M-2.5,-0.5L0,-3.0L2.5,-0.5"/>
                </g>
                <g id="arrowLeft" xlink:href="#dirArrow" transform="rotate(270) translate(-36 17)" onmousedown="handlePan(-1,0)">
                  <use xlink:href="#rim" fill="#404040">
                        <set attributeName="fill" to="#808080" begin="arrowLeft.mouseover" end="arrowLeft.mouseout"/>
                  </use>
                  <path fill="none" stroke="white" stroke-width="1.5" d="M0,-3.0v7 M-2.5,-0.5L0,-3.0L2.5,-0.5"/>
                </g>
        </g>
        <svg viewBox="0 0 15 15" width="100%" height="30px" preserveAspectRatio="xMaxYMin meet">
         <g id="arrow_out" transform="scale(0.3 0.3)">
          <a xlink:href="torcomxcore_8h__dep__incl_org.svg" target="_base">
           <rect id="button" ry="5" rx="5" y="6" x="6" height="38" width="38"
                fill="#f2f5e9" fill-opacity="0.5" stroke="#606060" stroke-width="1.0"/>
           <path id="arrow"
             d="M 11.500037,31.436501 C 11.940474,20.09759 22.043105,11.32322 32.158766,21.979434 L 37.068811,17.246167 C 37.068811,17.246167 37.088388,32 37.088388,32 L 22.160133,31.978069 C 22.160133,31.978069 26.997745,27.140456 26.997745,27.140456 C 18.528582,18.264221 13.291696,25.230495 11.500037,31.436501 z"
             style="fill:#404040;"/>
          </a>
         </g>
        </svg>
</svg>
