<?xml version="1.0" encoding="UTF-8" standalone="no"?>
<!DOCTYPE svg PUBLIC "-//W3C//DTD SVG 1.1//EN"
 "http://www.w3.org/Graphics/SVG/1.1/DTD/svg11.dtd">
<!-- Generated by graphviz version 2.38.0 (20140413.2041)
 -->
<!-- Title: torchtmlstaticcontent.h Pages: 1 -->
<!--zoomable 196 -->
<svg id="main" version="1.1" xmlns="http://www.w3.org/2000/svg" xmlns:xlink="http://www.w3.org/1999/xlink" xml:space="preserve" onload="init(evt)">
<style type="text/css"><![CDATA[
.edge:hover path { stroke: red; }
.edge:hover polygon { stroke: red; fill: red; }
]]></style>
<script type="text/javascript"><![CDATA[
var edges = document.getElementsByTagName('g');
if (edges && edges.length) {
  for (var i=0;i<edges.length;i++) {
    if (edges[i].id.substr(0,4)=='edge') {
      edges[i].setAttribute('class','edge');
    }
  }
}
]]></script>
        <defs>
                <circle id="rim" cx="0" cy="0" r="7"/>
                <circle id="rim2" cx="0" cy="0" r="3.5"/>
                <g id="zoomPlus">
                        <use xlink:href="#rim" fill="#404040">
                                <set attributeName="fill" to="#808080" begin="zoomplus.mouseover" end="zoomplus.mouseout"/>
                        </use>
                        <path d="M-4,0h8M0,-4v8" fill="none" stroke="white" stroke-width="1.5" pointer-events="none"/>
                </g>
                <g id="zoomMin">
                        <use xlink:href="#rim" fill="#404040">
                                <set attributeName="fill" to="#808080" begin="zoomminus.mouseover" end="zoomminus.mouseout"/>
                        </use>
                        <path d="M-4,0h8" fill="none" stroke="white" stroke-width="1.5" pointer-events="none"/>
                </g>
                <g id="dirArrow">
                        <path fill="none" stroke="white" stroke-width="1.5" d="M0,-3.0v7 M-2.5,-0.5L0,-3.0L2.5,-0.5"/>
                </g>
               <g id="resetDef">
                       <use xlink:href="#rim2" fill="#404040">
                               <set attributeName="fill" to="#808080" begin="reset.mouseover" end="reset.mouseout"/>
                       </use>
               </g>
        </defs>

<script type="text/javascript">
var viewWidth = 1512;
var viewHeight = 196;
var sectionId = 'dynsection-1';
</script>
<script xlink:href="../../svgpan.js"/>
<svg id="graph" class="graph">
<g id="viewport">
<title>torchtmlstaticcontent.h</title>
<polygon fill="white" stroke="none" points="-4,4 -4,-192 1508,-192 1508,4 -4,4"/>
<!-- Node1 -->
<g id="node1" class="node"><title>Node1</title>
<polygon fill="#bfbfbf" stroke="black" points="462.5,-168.5 462.5,-187.5 591.5,-187.5 591.5,-168.5 462.5,-168.5"/>
<text text-anchor="middle" x="527" y="-175.5" font-family="Helvetica,sans-Serif" font-size="10.00">torchtmlstaticcontent.h</text>
</g>
<!-- Node2 -->
<g id="node2" class="node"><title>Node2</title>
<g id="a_node2"><a xlink:href="../../df/d1b/torchttpserver_8h.html" target="_top" xlink:title="torchttpserver.h">
<polygon fill="white" stroke="black" points="657.5,-112.5 657.5,-131.5 750.5,-131.5 750.5,-112.5 657.5,-112.5"/>
<text text-anchor="middle" x="704" y="-119.5" font-family="Helvetica,sans-Serif" font-size="10.00">torchttpserver.h</text>
</a>
</g>
</g>
<!-- Node1&#45;&gt;Node2 -->
<g id="edge1" class="edge"><title>Node1&#45;&gt;Node2</title>
<path fill="none" stroke="midnightblue" d="M564.903,-165.436C598.275,-155.255 646.101,-140.664 676.085,-131.516"/>
<polygon fill="midnightblue" stroke="midnightblue" points="563.59,-162.178 555.046,-168.444 565.632,-168.873 563.59,-162.178"/>
</g>
<!-- Node6 -->
<g id="node6" class="node"><title>Node6</title>
<g id="a_node6"><a xlink:href="../../d6/dda/torchtmlstaticcontent_8cpp.html" target="_top" xlink:title="torchtmlstaticcontent.cpp">
<polygon fill="white" stroke="black" points="0,-56.5 0,-75.5 140,-75.5 140,-56.5 0,-56.5"/>
<text text-anchor="middle" x="70" y="-63.5" font-family="Helvetica,sans-Serif" font-size="10.00">torchtmlstaticcontent.cpp</text>
</a>
</g>
</g>
<!-- Node1&#45;&gt;Node6 -->
<g id="edge19" class="edge"><title>Node1&#45;&gt;Node6</title>
<path fill="none" stroke="midnightblue" d="M481.781,-166.116C390.862,-144.231 187.604,-95.3073 105.457,-75.5345"/>
<polygon fill="midnightblue" stroke="midnightblue" points="480.979,-169.523 491.52,-168.46 482.617,-162.717 480.979,-169.523"/>
</g>
<!-- Node3 -->
<g id="node3" class="node"><title>Node3</title>
<g id="a_node3"><a xlink:href="../../d6/d68/torchtmlhandler_8cpp.html" target="_top" xlink:title="torchtmlhandler.cpp">
<polygon fill="white" stroke="black" points="158.5,-56.5 158.5,-75.5 271.5,-75.5 271.5,-56.5 158.5,-56.5"/>
<text text-anchor="middle" x="215" y="-63.5" font-family="Helvetica,sans-Serif" font-size="10.00">torchtmlhandler.cpp</text>
</a>
</g>
</g>
<!-- Node2&#45;&gt;Node3 -->
<g id="edge2" class="edge"><title>Node2&#45;&gt;Node3</title>
<path fill="none" stroke="midnightblue" d="M647.303,-115.506C566.08,-107.512 411.947,-91.8899 281,-76 277.9,-75.6239 274.72,-75.227 271.512,-74.8179"/>
<polygon fill="midnightblue" stroke="midnightblue" points="647.023,-118.995 657.317,-116.489 647.707,-112.028 647.023,-118.995"/>
</g>
<!-- Node4 -->
<g id="node4" class="node"><title>Node4</title>
<g id="a_node4"><a xlink:href="../../db/d11/torchttpserverlistener_8h.html" target="_top" xlink:title="torchttpserverlistener.h">
<polygon fill="white" stroke="black" points="290,-56.5 290,-75.5 418,-75.5 418,-56.5 290,-56.5"/>
<text text-anchor="middle" x="354" y="-63.5" font-family="Helvetica,sans-Serif" font-size="10.00">torchttpserverlistener.h</text>
</a>
</g>
</g>
<!-- Node2&#45;&gt;Node4 -->
<g id="edge3" class="edge"><title>Node2&#45;&gt;Node4</title>
<path fill="none" stroke="midnightblue" d="M647.175,-112.998C579.773,-102.961 468.638,-85.8202 404.248,-75.537"/>
<polygon fill="midnightblue" stroke="midnightblue" points="646.792,-116.48 657.197,-114.486 647.82,-109.556 646.792,-116.48"/>
</g>
<!-- Node2&#45;&gt;Node6 -->
<g id="edge6" class="edge"><title>Node2&#45;&gt;Node6</title>
<path fill="none" stroke="midnightblue" d="M646.928,-116.988C546.276,-109.775 330.67,-93.7086 149,-76 146.115,-75.7188 143.171,-75.4231 140.199,-75.1173"/>
<polygon fill="midnightblue" stroke="midnightblue" points="646.952,-120.498 657.176,-117.72 647.451,-113.516 646.952,-120.498"/>
</g>
<!-- Node7 -->
<g id="node7" class="node"><title>Node7</title>
<g id="a_node7"><a xlink:href="../../d1/d87/torchttphandler_8cpp.html" target="_top" xlink:title="torchttphandler.cpp">
<polygon fill="white" stroke="black" points="436,-56.5 436,-75.5 546,-75.5 546,-56.5 436,-56.5"/>
<text text-anchor="middle" x="491" y="-63.5" font-family="Helvetica,sans-Serif" font-size="10.00">torchttphandler.cpp</text>
</a>
</g>
</g>
<!-- Node2&#45;&gt;Node7 -->
<g id="edge7" class="edge"><title>Node2&#45;&gt;Node7</title>
<path fill="none" stroke="midnightblue" d="M660.449,-109.959C620.219,-99.7598 561.297,-84.8217 524.593,-75.5164"/>
<polygon fill="midnightblue" stroke="midnightblue" points="659.696,-113.379 670.25,-112.444 661.416,-106.593 659.696,-113.379"/>
</g>
<!-- Node8 -->
<g id="node8" class="node"><title>Node8</title>
<g id="a_node8"><a xlink:href="../../d6/da3/torchttprequest_8cpp.html" target="_top" xlink:title="torchttprequest.cpp">
<polygon fill="white" stroke="black" points="564,-56.5 564,-75.5 676,-75.5 676,-56.5 564,-56.5"/>
<text text-anchor="middle" x="620" y="-63.5" font-family="Helvetica,sans-Serif" font-size="10.00">torchttprequest.cpp</text>
</a>
</g>
</g>
<!-- Node2&#45;&gt;Node8 -->
<g id="edge8" class="edge"><title>Node2&#45;&gt;Node8</title>
<path fill="none" stroke="midnightblue" d="M682.068,-106.901C666.665,-96.9986 646.554,-84.0705 633.463,-75.6545"/>
<polygon fill="midnightblue" stroke="midnightblue" points="680.199,-109.86 690.504,-112.324 683.985,-103.972 680.199,-109.86"/>
</g>
<!-- Node9 -->
<g id="node9" class="node"><title>Node9</title>
<g id="a_node9"><a xlink:href="../../de/dc5/torchttpserver_8cpp.html" target="_top" xlink:title="torchttpserver.cpp">
<polygon fill="white" stroke="black" points="962,-0.5 962,-19.5 1066,-19.5 1066,-0.5 962,-0.5"/>
<text text-anchor="middle" x="1014" y="-7.5" font-family="Helvetica,sans-Serif" font-size="10.00">torchttpserver.cpp</text>
</a>
</g>
</g>
<!-- Node2&#45;&gt;Node9 -->
<g id="edge9" class="edge"><title>Node2&#45;&gt;Node9</title>
<path fill="none" stroke="midnightblue" d="M704.301,-102.246C705.599,-87.4636 709.898,-67.4894 723,-56 757.641,-25.623 887.766,-15.7138 961.741,-12.5093"/>
<polygon fill="midnightblue" stroke="midnightblue" points="700.801,-102.15 703.797,-112.312 707.792,-102.499 700.801,-102.15"/>
</g>
<!-- Node10 -->
<g id="node10" class="node"><title>Node10</title>
<g id="a_node10"><a xlink:href="../../d1/d77/torchttpservice_8cpp.html" target="_top" xlink:title="torchttpservice.cpp">
<polygon fill="white" stroke="black" points="732.5,-56.5 732.5,-75.5 841.5,-75.5 841.5,-56.5 732.5,-56.5"/>
<text text-anchor="middle" x="787" y="-63.5" font-family="Helvetica,sans-Serif" font-size="10.00">torchttpservice.cpp</text>
</a>
</g>
</g>
<!-- Node2&#45;&gt;Node10 -->
<g id="edge10" class="edge"><title>Node2&#45;&gt;Node10</title>
<path fill="none" stroke="midnightblue" d="M726.099,-106.622C741.262,-96.7574 760.883,-83.9919 773.698,-75.6545"/>
<polygon fill="midnightblue" stroke="midnightblue" points="723.809,-103.937 717.335,-112.324 727.626,-109.804 723.809,-103.937"/>
</g>
<!-- Node11 -->
<g id="node11" class="node"><title>Node11</title>
<g id="a_node11"><a xlink:href="../../da/d1a/torchttpservices_8cpp.html" target="_top" xlink:title="torchttpservices.cpp">
<polygon fill="white" stroke="black" points="860,-56.5 860,-75.5 974,-75.5 974,-56.5 860,-56.5"/>
<text text-anchor="middle" x="917" y="-63.5" font-family="Helvetica,sans-Serif" font-size="10.00">torchttpservices.cpp</text>
</a>
</g>
</g>
<!-- Node2&#45;&gt;Node11 -->
<g id="edge11" class="edge"><title>Node2&#45;&gt;Node11</title>
<path fill="none" stroke="midnightblue" d="M747.551,-109.959C787.781,-99.7598 846.703,-84.8217 883.407,-75.5164"/>
<polygon fill="midnightblue" stroke="midnightblue" points="746.584,-106.593 737.75,-112.444 748.304,-113.379 746.584,-106.593"/>
</g>
<!-- Node12 -->
<g id="node12" class="node"><title>Node12</title>
<g id="a_node12"><a xlink:href="../../db/d78/torcwebsocket_8cpp.html" target="_top" xlink:title="torcwebsocket.cpp">
<polygon fill="white" stroke="black" points="992,-56.5 992,-75.5 1098,-75.5 1098,-56.5 992,-56.5"/>
<text text-anchor="middle" x="1045" y="-63.5" font-family="Helvetica,sans-Serif" font-size="10.00">torcwebsocket.cpp</text>
</a>
</g>
</g>
<!-- Node2&#45;&gt;Node12 -->
<g id="edge12" class="edge"><title>Node2&#45;&gt;Node12</title>
<path fill="none" stroke="midnightblue" d="M760.667,-112.026C824.975,-101.843 929.061,-85.3599 991.867,-75.414"/>
<polygon fill="midnightblue" stroke="midnightblue" points="760.029,-108.584 750.7,-113.605 761.124,-115.498 760.029,-108.584"/>
</g>
<!-- Node13 -->
<g id="node13" class="node"><title>Node13</title>
<g id="a_node13"><a xlink:href="../../de/d48/torcnetworkedcontext_8cpp.html" target="_top" xlink:title="torcnetworkedcontext.cpp">
<polygon fill="white" stroke="black" points="1116.5,-56.5 1116.5,-75.5 1257.5,-75.5 1257.5,-56.5 1116.5,-56.5"/>
<text text-anchor="middle" x="1187" y="-63.5" font-family="Helvetica,sans-Serif" font-size="10.00">torcnetworkedcontext.cpp</text>
</a>
</g>
</g>
<!-- Node2&#45;&gt;Node13 -->
<g id="edge13" class="edge"><title>Node2&#45;&gt;Node13</title>
<path fill="none" stroke="midnightblue" d="M760.635,-114.691C838.623,-106 983.466,-89.8458 1107,-76 1110.06,-75.6575 1113.18,-75.3074 1116.33,-74.9536"/>
<polygon fill="midnightblue" stroke="midnightblue" points="760.093,-111.23 750.542,-115.816 760.869,-118.186 760.093,-111.23"/>
</g>
<!-- Node14 -->
<g id="node14" class="node"><title>Node14</title>
<g id="a_node14"><a xlink:href="../../d0/d89/torcrpcrequest_8cpp.html" target="_top" xlink:title="torcrpcrequest.cpp">
<polygon fill="white" stroke="black" points="1275.5,-56.5 1275.5,-75.5 1382.5,-75.5 1382.5,-56.5 1275.5,-56.5"/>
<text text-anchor="middle" x="1329" y="-63.5" font-family="Helvetica,sans-Serif" font-size="10.00">torcrpcrequest.cpp</text>
</a>
</g>
</g>
<!-- Node2&#45;&gt;Node14 -->
<g id="edge14" class="edge"><title>Node2&#45;&gt;Node14</title>
<path fill="none" stroke="midnightblue" d="M760.761,-117.623C862.298,-111.321 1081.66,-96.5272 1266,-76 1269.07,-75.6576 1272.23,-75.2825 1275.41,-74.8858"/>
<polygon fill="midnightblue" stroke="midnightblue" points="760.488,-114.133 750.722,-118.242 760.919,-121.12 760.488,-114.133"/>
</g>
<!-- Node15 -->
<g id="node15" class="node"><title>Node15</title>
<g id="a_node15"><a xlink:href="../../d9/de1/torcssdp_8cpp.html" target="_top" xlink:title="torcssdp.cpp">
<polygon fill="white" stroke="black" points="1426,-0.5 1426,-19.5 1504,-19.5 1504,-0.5 1426,-0.5"/>
<text text-anchor="middle" x="1465" y="-7.5" font-family="Helvetica,sans-Serif" font-size="10.00">torcssdp.cpp</text>
</a>
</g>
</g>
<!-- Node2&#45;&gt;Node15 -->
<g id="edge15" class="edge"><title>Node2&#45;&gt;Node15</title>
<path fill="none" stroke="midnightblue" d="M760.866,-119.802C935.295,-115.853 1452.48,-101.991 1477,-76 1491.49,-60.6419 1478.95,-33.782 1470.75,-19.8881"/>
<polygon fill="midnightblue" stroke="midnightblue" points="760.531,-116.309 750.612,-120.032 760.688,-123.307 760.531,-116.309"/>
</g>
<!-- Node16 -->
<g id="node16" class="node"><title>Node16</title>
<g id="a_node16"><a xlink:href="../../dd/d3e/torcssdp_8h.html" target="_top" xlink:title="torcssdp.h">
<polygon fill="white" stroke="black" points="1400.5,-56.5 1400.5,-75.5 1467.5,-75.5 1467.5,-56.5 1400.5,-56.5"/>
<text text-anchor="middle" x="1434" y="-63.5" font-family="Helvetica,sans-Serif" font-size="10.00">torcssdp.h</text>
</a>
</g>
</g>
<!-- Node2&#45;&gt;Node16 -->
<g id="edge16" class="edge"><title>Node2&#45;&gt;Node16</title>
<path fill="none" stroke="midnightblue" d="M761.125,-119.976C879.256,-117.26 1158.79,-107.745 1391,-76 1394.02,-75.5868 1397.15,-75.0829 1400.28,-74.5269"/>
<polygon fill="midnightblue" stroke="midnightblue" points="760.796,-116.482 750.876,-120.203 760.951,-123.48 760.796,-116.482"/>
</g>
<!-- Node4&#45;&gt;Node2 -->
<g id="edge4" class="edge"><title>Node4&#45;&gt;Node2</title>
<path fill="none" stroke="midnightblue" d="M424.38,-77.0275C493.718,-87.4243 597.567,-103.469 657.312,-113.032"/>
<polygon fill="midnightblue" stroke="midnightblue" points="424.818,-73.5541 414.41,-75.536 423.782,-80.477 424.818,-73.5541"/>
</g>
<!-- Node5 -->
<g id="node5" class="node"><title>Node5</title>
<g id="a_node5"><a xlink:href="../../de/d4e/torchttpserverlistener_8cpp.html" target="_top" xlink:title="torchttpserverlistener.cpp">
<polygon fill="white" stroke="black" points="284,-0.5 284,-19.5 424,-19.5 424,-0.5 284,-0.5"/>
<text text-anchor="middle" x="354" y="-7.5" font-family="Helvetica,sans-Serif" font-size="10.00">torchttpserverlistener.cpp</text>
</a>
</g>
</g>
<!-- Node4&#45;&gt;Node5 -->
<g id="edge5" class="edge"><title>Node4&#45;&gt;Node5</title>
<path fill="none" stroke="midnightblue" d="M354,-45.8045C354,-36.9102 354,-26.7798 354,-19.7511"/>
<polygon fill="midnightblue" stroke="midnightblue" points="350.5,-46.083 354,-56.083 357.5,-46.083 350.5,-46.083"/>
</g>
<!-- Node16&#45;&gt;Node9 -->
<g id="edge17" class="edge"><title>Node16&#45;&gt;Node9</title>
<path fill="none" stroke="midnightblue" d="M1390.36,-56.0302C1268.38,-36.3141 1137.03,-22.5686 1066.04,-15.7572"/>
<polygon fill="midnightblue" stroke="midnightblue" points="1389.82,-59.4874 1400.25,-57.6451 1390.95,-52.5789 1389.82,-59.4874"/>
</g>
<!-- Node16&#45;&gt;Node15 -->
<g id="edge18" class="edge"><title>Node16&#45;&gt;Node15</title>
<path fill="none" stroke="midnightblue" d="M1444.18,-47.2747C1449.47,-38.0454 1455.72,-27.1703 1459.98,-19.7511"/>
<polygon fill="midnightblue" stroke="midnightblue" points="1441.06,-45.6679 1439.12,-56.083 1447.13,-49.153 1441.06,-45.6679"/>
</g>
</g>
</svg>
        <g id="navigator" transform="translate(0 0)" fill="#404254">
                <rect fill="#f2f5e9" fill-opacity="0.5" stroke="#606060" stroke-width=".5" x="0" y="0" width="60" height="60"/>
                <use id="zoomplus" xlink:href="#zoomPlus" x="17" y="9" onmousedown="handleZoom(evt,'in')"/>
                <use id="zoomminus" xlink:href="#zoomMin" x="42" y="9" onmousedown="handleZoom(evt,'out')"/>
                <use id="reset" xlink:href="#resetDef" x="30" y="36" onmousedown="handleReset()"/>
                <g id="arrowUp" xlink:href="#dirArrow" transform="translate(30 24)" onmousedown="handlePan(0,-1)">
                  <use xlink:href="#rim" fill="#404040">
                        <set attributeName="fill" to="#808080" begin="arrowUp.mouseover" end="arrowUp.mouseout"/>
                  </use>
                  <path fill="none" stroke="white" stroke-width="1.5" d="M0,-3.0v7 M-2.5,-0.5L0,-3.0L2.5,-0.5"/>
                </g>
                <g id="arrowRight" xlink:href="#dirArrow" transform="rotate(90) translate(36 -43)" onmousedown="handlePan(1,0)">
                  <use xlink:href="#rim" fill="#404040">
                        <set attributeName="fill" to="#808080" begin="arrowRight.mouseover" end="arrowRight.mouseout"/>
                  </use>
                  <path fill="none" stroke="white" stroke-width="1.5" d="M0,-3.0v7 M-2.5,-0.5L0,-3.0L2.5,-0.5"/>
                </g>
                <g id="arrowDown" xlink:href="#dirArrow" transform="rotate(180) translate(-30 -48)" onmousedown="handlePan(0,1)">
                  <use xlink:href="#rim" fill="#404040">
                        <set attributeName="fill" to="#808080" begin="arrowDown.mouseover" end="arrowDown.mouseout"/>
                  </use>
                  <path fill="none" stroke="white" stroke-width="1.5" d="M0,-3.0v7 M-2.5,-0.5L0,-3.0L2.5,-0.5"/>
                </g>
                <g id="arrowLeft" xlink:href="#dirArrow" transform="rotate(270) translate(-36 17)" onmousedown="handlePan(-1,0)">
                  <use xlink:href="#rim" fill="#404040">
                        <set attributeName="fill" to="#808080" begin="arrowLeft.mouseover" end="arrowLeft.mouseout"/>
                  </use>
                  <path fill="none" stroke="white" stroke-width="1.5" d="M0,-3.0v7 M-2.5,-0.5L0,-3.0L2.5,-0.5"/>
                </g>
        </g>
        <svg viewBox="0 0 15 15" width="100%" height="30px" preserveAspectRatio="xMaxYMin meet">
         <g id="arrow_out" transform="scale(0.3 0.3)">
          <a xlink:href="torchtmlstaticcontent_8h__dep__incl_org.svg" target="_base">
           <rect id="button" ry="5" rx="5" y="6" x="6" height="38" width="38"
                fill="#f2f5e9" fill-opacity="0.5" stroke="#606060" stroke-width="1.0"/>
           <path id="arrow"
             d="M 11.500037,31.436501 C 11.940474,20.09759 22.043105,11.32322 32.158766,21.979434 L 37.068811,17.246167 C 37.068811,17.246167 37.088388,32 37.088388,32 L 22.160133,31.978069 C 22.160133,31.978069 26.997745,27.140456 26.997745,27.140456 C 18.528582,18.264221 13.291696,25.230495 11.500037,31.436501 z"
             style="fill:#404040;"/>
          </a>
         </g>
        </svg>
</svg>
