<?xml version="1.0" encoding="UTF-8" standalone="no"?>
<!DOCTYPE svg PUBLIC "-//W3C//DTD SVG 1.1//EN"
 "http://www.w3.org/Graphics/SVG/1.1/DTD/svg11.dtd">
<!-- Generated by graphviz version 2.38.0 (20140413.2041)
 -->
<!-- Title: torctimercontrol.cpp Pages: 1 -->
<svg width="1871pt" height="420pt"
 viewBox="0.00 0.00 1871.00 420.00" xmlns="http://www.w3.org/2000/svg" xmlns:xlink="http://www.w3.org/1999/xlink">
<g id="graph0" class="graph" transform="scale(1 1) rotate(0) translate(4 416)">
<title>torctimercontrol.cpp</title>
<polygon fill="white" stroke="none" points="-4,4 -4,-416 1867,-416 1867,4 -4,4"/>
<!-- Node1 -->
<g id="node1" class="node"><title>Node1</title>
<polygon fill="#bfbfbf" stroke="black" points="187.5,-392.5 187.5,-411.5 301.5,-411.5 301.5,-392.5 187.5,-392.5"/>
<text text-anchor="middle" x="244.5" y="-399.5" font-family="Helvetica,sans-Serif" font-size="10.00">torctimercontrol.cpp</text>
</g>
<!-- Node2 -->
<g id="node2" class="node"><title>Node2</title>
<polygon fill="white" stroke="#bfbfbf" points="123,-336.5 123,-355.5 178,-355.5 178,-336.5 123,-336.5"/>
<text text-anchor="middle" x="150.5" y="-343.5" font-family="Helvetica,sans-Serif" font-size="10.00">QLocale</text>
</g>
<!-- Node1&#45;&gt;Node2 -->
<g id="edge1" class="edge"><title>Node1&#45;&gt;Node2</title>
<path fill="none" stroke="midnightblue" d="M229.397,-392.324C214.597,-383.822 191.806,-370.729 174.518,-360.797"/>
<polygon fill="midnightblue" stroke="midnightblue" points="175.98,-357.601 165.565,-355.655 172.493,-363.671 175.98,-357.601"/>
</g>
<!-- Node3 -->
<g id="node3" class="node"><title>Node3</title>
<polygon fill="white" stroke="#bfbfbf" points="364.5,-112.5 364.5,-131.5 422.5,-131.5 422.5,-112.5 364.5,-112.5"/>
<text text-anchor="middle" x="393.5" y="-119.5" font-family="Helvetica,sans-Serif" font-size="10.00">QVariant</text>
</g>
<!-- Node1&#45;&gt;Node3 -->
<g id="edge2" class="edge"><title>Node1&#45;&gt;Node3</title>
<path fill="none" stroke="midnightblue" d="M245.729,-392.236C249.828,-365.265 264.899,-281.831 301.5,-224 322.905,-190.179 356.066,-157.06 376.184,-138.413"/>
<polygon fill="midnightblue" stroke="midnightblue" points="378.661,-140.891 383.691,-131.566 373.944,-135.719 378.661,-140.891"/>
</g>
<!-- Node4 -->
<g id="node4" class="node"><title>Node4</title>
<g id="a_node4"><a xlink:href="../../d4/df9/torclogging_8h.html" target="_top" xlink:title="torclogging.h">
<polygon fill="white" stroke="black" points="150,-168.5 150,-187.5 229,-187.5 229,-168.5 150,-168.5"/>
<text text-anchor="middle" x="189.5" y="-175.5" font-family="Helvetica,sans-Serif" font-size="10.00">torclogging.h</text>
</a>
</g>
</g>
<!-- Node1&#45;&gt;Node4 -->
<g id="edge3" class="edge"><title>Node1&#45;&gt;Node4</title>
<path fill="none" stroke="midnightblue" d="M241.626,-392.429C238.652,-383.415 233.967,-368.793 230.5,-356 214.929,-298.537 200.031,-229.591 193.278,-197.332"/>
<polygon fill="midnightblue" stroke="midnightblue" points="196.703,-196.609 191.242,-187.53 189.849,-198.033 196.703,-196.609"/>
</g>
<!-- Node8 -->
<g id="node8" class="node"><title>Node8</title>
<g id="a_node8"><a xlink:href="../../dd/dbd/torclocalcontext_8h.html" target="_top" xlink:title="torclocalcontext.h">
<polygon fill="white" stroke="black" points="669.5,-336.5 669.5,-355.5 771.5,-355.5 771.5,-336.5 669.5,-336.5"/>
<text text-anchor="middle" x="720.5" y="-343.5" font-family="Helvetica,sans-Serif" font-size="10.00">torclocalcontext.h</text>
</a>
</g>
</g>
<!-- Node1&#45;&gt;Node8 -->
<g id="edge7" class="edge"><title>Node1&#45;&gt;Node8</title>
<path fill="none" stroke="midnightblue" d="M301.917,-394.486C392.245,-384.239 566.763,-364.441 659.351,-353.937"/>
<polygon fill="midnightblue" stroke="midnightblue" points="659.868,-357.401 669.41,-352.796 659.079,-350.446 659.868,-357.401"/>
</g>
<!-- Node42 -->
<g id="node42" class="node"><title>Node42</title>
<g id="a_node42"><a xlink:href="../../d8/d13/torctimercontrol_8h.html" target="_top" xlink:title="torctimercontrol.h">
<polygon fill="white" stroke="black" points="1444,-336.5 1444,-355.5 1547,-355.5 1547,-336.5 1444,-336.5"/>
<text text-anchor="middle" x="1495.5" y="-343.5" font-family="Helvetica,sans-Serif" font-size="10.00">torctimercontrol.h</text>
</a>
</g>
</g>
<!-- Node1&#45;&gt;Node42 -->
<g id="edge56" class="edge"><title>Node1&#45;&gt;Node42</title>
<path fill="none" stroke="midnightblue" d="M301.504,-398.539C508.431,-389.607 1219.04,-358.933 1433.64,-349.67"/>
<polygon fill="midnightblue" stroke="midnightblue" points="1433.94,-353.16 1443.78,-349.232 1433.64,-346.167 1433.94,-353.16"/>
</g>
<!-- Node5 -->
<g id="node5" class="node"><title>Node5</title>
<polygon fill="white" stroke="#bfbfbf" points="0,-112.5 0,-131.5 53,-131.5 53,-112.5 0,-112.5"/>
<text text-anchor="middle" x="26.5" y="-119.5" font-family="Helvetica,sans-Serif" font-size="10.00">stdint.h</text>
</g>
<!-- Node4&#45;&gt;Node5 -->
<g id="edge4" class="edge"><title>Node4&#45;&gt;Node5</title>
<path fill="none" stroke="midnightblue" d="M163.672,-168.444C136.251,-159.359 92.7225,-144.939 62.0676,-134.783"/>
<polygon fill="midnightblue" stroke="midnightblue" points="62.8003,-131.339 52.207,-131.516 60.5989,-137.984 62.8003,-131.339"/>
</g>
<!-- Node6 -->
<g id="node6" class="node"><title>Node6</title>
<polygon fill="white" stroke="#bfbfbf" points="71,-112.5 71,-131.5 122,-131.5 122,-112.5 71,-112.5"/>
<text text-anchor="middle" x="96.5" y="-119.5" font-family="Helvetica,sans-Serif" font-size="10.00">errno.h</text>
</g>
<!-- Node4&#45;&gt;Node6 -->
<g id="edge5" class="edge"><title>Node4&#45;&gt;Node6</title>
<path fill="none" stroke="midnightblue" d="M174.558,-168.324C159.915,-159.822 137.366,-146.729 120.262,-136.797"/>
<polygon fill="midnightblue" stroke="midnightblue" points="121.81,-133.649 111.405,-131.655 118.295,-139.703 121.81,-133.649"/>
</g>
<!-- Node7 -->
<g id="node7" class="node"><title>Node7</title>
<g id="a_node7"><a xlink:href="../../d1/d37/torcloggingdefs_8h.html" target="_top" xlink:title="torcloggingdefs.h">
<polygon fill="white" stroke="black" points="140,-112.5 140,-131.5 239,-131.5 239,-112.5 140,-112.5"/>
<text text-anchor="middle" x="189.5" y="-119.5" font-family="Helvetica,sans-Serif" font-size="10.00">torcloggingdefs.h</text>
</a>
</g>
</g>
<!-- Node4&#45;&gt;Node7 -->
<g id="edge6" class="edge"><title>Node4&#45;&gt;Node7</title>
<path fill="none" stroke="midnightblue" d="M189.5,-168.083C189.5,-161.006 189.5,-150.861 189.5,-141.986"/>
<polygon fill="midnightblue" stroke="midnightblue" points="193,-141.751 189.5,-131.751 186,-141.751 193,-141.751"/>
</g>
<!-- Node9 -->
<g id="node9" class="node"><title>Node9</title>
<polygon fill="white" stroke="#bfbfbf" points="684,-168.5 684,-187.5 739,-187.5 739,-168.5 684,-168.5"/>
<text text-anchor="middle" x="711.5" y="-175.5" font-family="Helvetica,sans-Serif" font-size="10.00">QObject</text>
</g>
<!-- Node8&#45;&gt;Node9 -->
<g id="edge8" class="edge"><title>Node8&#45;&gt;Node9</title>
<path fill="none" stroke="midnightblue" d="M720.016,-336.075C718.599,-309.945 714.439,-233.211 712.507,-197.577"/>
<polygon fill="midnightblue" stroke="midnightblue" points="716.001,-197.364 711.965,-187.568 709.011,-197.743 716.001,-197.364"/>
</g>
<!-- Node10 -->
<g id="node10" class="node"><title>Node10</title>
<polygon fill="white" stroke="#bfbfbf" points="1519,-56.5 1519,-75.5 1572,-75.5 1572,-56.5 1519,-56.5"/>
<text text-anchor="middle" x="1545.5" y="-63.5" font-family="Helvetica,sans-Serif" font-size="10.00">QString</text>
</g>
<!-- Node8&#45;&gt;Node10 -->
<g id="edge9" class="edge"><title>Node8&#45;&gt;Node10</title>
<path fill="none" stroke="midnightblue" d="M771.709,-344.792C975.577,-343.299 1718.5,-331.254 1718.5,-235 1718.5,-235 1718.5,-235 1718.5,-177 1718.5,-112.901 1632.88,-84.5495 1582.11,-73.3717"/>
<polygon fill="midnightblue" stroke="midnightblue" points="1582.66,-69.9102 1572.15,-71.2999 1581.23,-76.7635 1582.66,-69.9102"/>
</g>
<!-- Node11 -->
<g id="node11" class="node"><title>Node11</title>
<polygon fill="white" stroke="#bfbfbf" points="748.5,-224.5 748.5,-243.5 840.5,-243.5 840.5,-224.5 748.5,-224.5"/>
<text text-anchor="middle" x="794.5" y="-231.5" font-family="Helvetica,sans-Serif" font-size="10.00">QReadWriteLock</text>
</g>
<!-- Node8&#45;&gt;Node11 -->
<g id="edge10" class="edge"><title>Node8&#45;&gt;Node11</title>
<path fill="none" stroke="midnightblue" d="M726.307,-336.368C738.519,-318.215 767.052,-275.802 783.07,-251.99"/>
<polygon fill="midnightblue" stroke="midnightblue" points="786.043,-253.842 788.72,-243.591 780.234,-249.935 786.043,-253.842"/>
</g>
<!-- Node12 -->
<g id="node12" class="node"><title>Node12</title>
<polygon fill="white" stroke="#bfbfbf" points="762,-112.5 762,-131.5 815,-131.5 815,-112.5 762,-112.5"/>
<text text-anchor="middle" x="788.5" y="-119.5" font-family="Helvetica,sans-Serif" font-size="10.00">QMutex</text>
</g>
<!-- Node8&#45;&gt;Node12 -->
<g id="edge11" class="edge"><title>Node8&#45;&gt;Node12</title>
<path fill="none" stroke="midnightblue" d="M771.734,-340.062C826.306,-333.782 907.894,-321.136 930.5,-300 949.408,-282.322 942.91,-269.635 946.5,-244 947.733,-235.197 951.947,-231.025 946.5,-224 907.132,-173.228 852.347,-233.008 806.5,-188 794.368,-176.09 790.208,-156.782 788.879,-142.299"/>
<polygon fill="midnightblue" stroke="midnightblue" points="792.354,-141.748 788.322,-131.951 785.364,-142.125 792.354,-141.748"/>
</g>
<!-- Node13 -->
<g id="node13" class="node"><title>Node13</title>
<g id="a_node13"><a xlink:href="../../db/db2/torclocaldefs_8h.html" target="_top" xlink:title="torclocaldefs.h">
<polygon fill="white" stroke="black" points="994.5,-280.5 994.5,-299.5 1080.5,-299.5 1080.5,-280.5 994.5,-280.5"/>
<text text-anchor="middle" x="1037.5" y="-287.5" font-family="Helvetica,sans-Serif" font-size="10.00">torclocaldefs.h</text>
</a>
</g>
</g>
<!-- Node8&#45;&gt;Node13 -->
<g id="edge12" class="edge"><title>Node8&#45;&gt;Node13</title>
<path fill="none" stroke="midnightblue" d="M770.73,-336.444C828.986,-326.52 924.623,-310.228 984.169,-300.085"/>
<polygon fill="midnightblue" stroke="midnightblue" points="984.857,-303.518 994.127,-298.388 983.682,-296.617 984.857,-303.518"/>
</g>
<!-- Node14 -->
<g id="node14" class="node"><title>Node14</title>
<g id="a_node14"><a xlink:href="../../db/df5/torcsetting_8h.html" target="_top" xlink:title="torcsetting.h">
<polygon fill="white" stroke="black" points="845,-280.5 845,-299.5 922,-299.5 922,-280.5 845,-280.5"/>
<text text-anchor="middle" x="883.5" y="-287.5" font-family="Helvetica,sans-Serif" font-size="10.00">torcsetting.h</text>
</a>
</g>
</g>
<!-- Node8&#45;&gt;Node14 -->
<g id="edge13" class="edge"><title>Node8&#45;&gt;Node14</title>
<path fill="none" stroke="midnightblue" d="M746.328,-336.444C773.749,-327.359 817.277,-312.939 847.932,-302.783"/>
<polygon fill="midnightblue" stroke="midnightblue" points="849.401,-305.984 857.793,-299.516 847.2,-299.339 849.401,-305.984"/>
</g>
<!-- Node31 -->
<g id="node31" class="node"><title>Node31</title>
<g id="a_node31"><a xlink:href="../../d6/d94/torcobservable_8h.html" target="_top" xlink:title="torcobservable.h">
<polygon fill="white" stroke="black" points="288,-280.5 288,-299.5 385,-299.5 385,-280.5 288,-280.5"/>
<text text-anchor="middle" x="336.5" y="-287.5" font-family="Helvetica,sans-Serif" font-size="10.00">torcobservable.h</text>
</a>
</g>
</g>
<!-- Node8&#45;&gt;Node31 -->
<g id="edge38" class="edge"><title>Node8&#45;&gt;Node31</title>
<path fill="none" stroke="midnightblue" d="M669.111,-337.773C598.062,-327.782 470.15,-309.795 395.352,-299.276"/>
<polygon fill="midnightblue" stroke="midnightblue" points="395.551,-295.77 385.161,-297.843 394.576,-302.702 395.551,-295.77"/>
</g>
<!-- Node34 -->
<g id="node34" class="node"><title>Node34</title>
<g id="a_node34"><a xlink:href="../../d7/d70/torcsqlitedb_8h.html" target="_top" xlink:title="torcsqlitedb.h">
<polygon fill="white" stroke="black" points="610.5,-280.5 610.5,-299.5 692.5,-299.5 692.5,-280.5 610.5,-280.5"/>
<text text-anchor="middle" x="651.5" y="-287.5" font-family="Helvetica,sans-Serif" font-size="10.00">torcsqlitedb.h</text>
</a>
</g>
</g>
<!-- Node8&#45;&gt;Node34 -->
<g id="edge43" class="edge"><title>Node8&#45;&gt;Node34</title>
<path fill="none" stroke="midnightblue" d="M709.414,-336.324C699.014,-328.185 683.239,-315.839 670.778,-306.087"/>
<polygon fill="midnightblue" stroke="midnightblue" points="672.82,-303.241 662.788,-299.834 668.506,-308.753 672.82,-303.241"/>
</g>
<!-- Node36 -->
<g id="node36" class="node"><title>Node36</title>
<g id="a_node36"><a xlink:href="../../dd/dd5/torcadminthread_8h.html" target="_top" xlink:title="torcadminthread.h">
<polygon fill="white" stroke="black" points="486.5,-280.5 486.5,-299.5 592.5,-299.5 592.5,-280.5 486.5,-280.5"/>
<text text-anchor="middle" x="539.5" y="-287.5" font-family="Helvetica,sans-Serif" font-size="10.00">torcadminthread.h</text>
</a>
</g>
</g>
<!-- Node8&#45;&gt;Node36 -->
<g id="edge47" class="edge"><title>Node8&#45;&gt;Node36</title>
<path fill="none" stroke="midnightblue" d="M691.82,-336.444C660.973,-327.241 611.772,-312.562 577.671,-302.388"/>
<polygon fill="midnightblue" stroke="midnightblue" points="578.629,-299.021 568.046,-299.516 576.628,-305.729 578.629,-299.021"/>
</g>
<!-- Node40 -->
<g id="node40" class="node"><title>Node40</title>
<g id="a_node40"><a xlink:href="../../db/d41/torccommandline_8h.html" target="_top" xlink:title="torccommandline.h">
<polygon fill="white" stroke="black" points="310.5,-224.5 310.5,-243.5 420.5,-243.5 420.5,-224.5 310.5,-224.5"/>
<text text-anchor="middle" x="365.5" y="-231.5" font-family="Helvetica,sans-Serif" font-size="10.00">torccommandline.h</text>
</a>
</g>
</g>
<!-- Node8&#45;&gt;Node40 -->
<g id="edge51" class="edge"><title>Node8&#45;&gt;Node40</title>
<path fill="none" stroke="midnightblue" d="M669.358,-340.662C619.23,-335.23 541.276,-323.604 477.5,-300 443.186,-287.3 407.235,-264.477 385.597,-249.535"/>
<polygon fill="midnightblue" stroke="midnightblue" points="387.44,-246.553 377.246,-243.666 383.415,-252.28 387.44,-246.553"/>
</g>
<!-- Node14&#45;&gt;Node3 -->
<g id="edge17" class="edge"><title>Node14&#45;&gt;Node3</title>
<path fill="none" stroke="midnightblue" d="M844.939,-285.926C782.519,-280.345 662.77,-266.951 627.5,-244 593.405,-221.814 609.832,-191.318 576.5,-168 533.434,-137.872 472.356,-127.836 432.83,-124.539"/>
<polygon fill="midnightblue" stroke="midnightblue" points="433.006,-121.043 422.778,-123.807 432.498,-128.024 433.006,-121.043"/>
</g>
<!-- Node14&#45;&gt;Node9 -->
<g id="edge16" class="edge"><title>Node14&#45;&gt;Node9</title>
<path fill="none" stroke="midnightblue" d="M881.19,-280.058C877.129,-266.091 867.392,-239.132 849.5,-224 834.177,-211.04 784.501,-196.787 749.151,-187.867"/>
<polygon fill="midnightblue" stroke="midnightblue" points="749.696,-184.396 739.148,-185.388 748.012,-191.191 749.696,-184.396"/>
</g>
<!-- Node14&#45;&gt;Node11 -->
<g id="edge15" class="edge"><title>Node14&#45;&gt;Node11</title>
<path fill="none" stroke="midnightblue" d="M869.201,-280.324C855.317,-271.9 834.008,-258.971 817.696,-249.074"/>
<polygon fill="midnightblue" stroke="midnightblue" points="819.129,-245.85 808.764,-243.655 815.498,-251.834 819.129,-245.85"/>
</g>
<!-- Node15 -->
<g id="node15" class="node"><title>Node15</title>
<polygon fill="white" stroke="#bfbfbf" points="897,-224.5 897,-243.5 938,-243.5 938,-224.5 897,-224.5"/>
<text text-anchor="middle" x="917.5" y="-231.5" font-family="Helvetica,sans-Serif" font-size="10.00">QSet</text>
</g>
<!-- Node14&#45;&gt;Node15 -->
<g id="edge14" class="edge"><title>Node14&#45;&gt;Node15</title>
<path fill="none" stroke="midnightblue" d="M889.114,-280.083C893.867,-272.534 900.818,-261.495 906.652,-252.23"/>
<polygon fill="midnightblue" stroke="midnightblue" points="909.624,-254.078 911.99,-243.751 903.7,-250.349 909.624,-254.078"/>
</g>
<!-- Node16 -->
<g id="node16" class="node"><title>Node16</title>
<polygon fill="white" stroke="#bfbfbf" points="995,-224.5 995,-243.5 1064,-243.5 1064,-224.5 995,-224.5"/>
<text text-anchor="middle" x="1029.5" y="-231.5" font-family="Helvetica,sans-Serif" font-size="10.00">QStringList</text>
</g>
<!-- Node14&#45;&gt;Node16 -->
<g id="edge18" class="edge"><title>Node14&#45;&gt;Node16</title>
<path fill="none" stroke="midnightblue" d="M906.634,-280.444C930.982,-271.438 969.507,-257.189 996.923,-247.049"/>
<polygon fill="midnightblue" stroke="midnightblue" points="998.309,-250.268 1006.47,-243.516 995.881,-243.703 998.309,-250.268"/>
</g>
<!-- Node17 -->
<g id="node17" class="node"><title>Node17</title>
<g id="a_node17"><a xlink:href="../../d3/dee/torchttpservice_8h.html" target="_top" xlink:title="torchttpservice.h">
<polygon fill="white" stroke="black" points="1120.5,-224.5 1120.5,-243.5 1218.5,-243.5 1218.5,-224.5 1120.5,-224.5"/>
<text text-anchor="middle" x="1169.5" y="-231.5" font-family="Helvetica,sans-Serif" font-size="10.00">torchttpservice.h</text>
</a>
</g>
</g>
<!-- Node14&#45;&gt;Node17 -->
<g id="edge19" class="edge"><title>Node14&#45;&gt;Node17</title>
<path fill="none" stroke="midnightblue" d="M922.071,-281.717C971.551,-272.375 1057.71,-256.108 1114.17,-245.447"/>
<polygon fill="midnightblue" stroke="midnightblue" points="1114.83,-248.885 1124,-243.59 1113.53,-242.006 1114.83,-248.885"/>
</g>
<!-- Node29 -->
<g id="node29" class="node"><title>Node29</title>
<g id="a_node29"><a xlink:href="../../d8/dfe/torcreferencecounted_8h.html" target="_top" xlink:title="torcreferencecounted.h">
<polygon fill="white" stroke="black" points="1561,-168.5 1561,-187.5 1690,-187.5 1690,-168.5 1561,-168.5"/>
<text text-anchor="middle" x="1625.5" y="-175.5" font-family="Helvetica,sans-Serif" font-size="10.00">torcreferencecounted.h</text>
</a>
</g>
</g>
<!-- Node14&#45;&gt;Node29 -->
<g id="edge36" class="edge"><title>Node14&#45;&gt;Node29</title>
<path fill="none" stroke="midnightblue" d="M922.103,-285.562C1014.05,-277.285 1244.03,-256.05 1320.5,-244 1414.28,-229.222 1522.69,-204.191 1581.69,-189.888"/>
<polygon fill="midnightblue" stroke="midnightblue" points="1582.53,-193.285 1591.42,-187.517 1580.87,-186.484 1582.53,-193.285"/>
</g>
<!-- Node17&#45;&gt;Node12 -->
<g id="edge21" class="edge"><title>Node17&#45;&gt;Node12</title>
<path fill="none" stroke="midnightblue" d="M1120.33,-225.914C1115.65,-225.259 1110.99,-224.612 1106.5,-224 1045,-215.611 881.805,-221.426 829.5,-188 812.51,-177.142 801.291,-156.452 794.951,-141.322"/>
<polygon fill="midnightblue" stroke="midnightblue" points="798.191,-139.997 791.33,-131.925 791.659,-142.514 798.191,-139.997"/>
</g>
<!-- Node18 -->
<g id="node18" class="node"><title>Node18</title>
<polygon fill="white" stroke="#bfbfbf" points="1003.5,-56.5 1003.5,-75.5 1047.5,-75.5 1047.5,-56.5 1003.5,-56.5"/>
<text text-anchor="middle" x="1025.5" y="-63.5" font-family="Helvetica,sans-Serif" font-size="10.00">QMap</text>
</g>
<!-- Node17&#45;&gt;Node18 -->
<g id="edge20" class="edge"><title>Node17&#45;&gt;Node18</title>
<path fill="none" stroke="midnightblue" d="M1120.28,-225.888C1033.66,-213.358 863.026,-188.608 862.5,-188 817.736,-136.196 934.769,-93.3381 993.822,-75.6792"/>
<polygon fill="midnightblue" stroke="midnightblue" points="994.827,-79.0319 1003.45,-72.8705 992.865,-72.3122 994.827,-79.0319"/>
</g>
<!-- Node19 -->
<g id="node19" class="node"><title>Node19</title>
<polygon fill="white" stroke="#bfbfbf" points="872,-168.5 872,-187.5 951,-187.5 951,-168.5 872,-168.5"/>
<text text-anchor="middle" x="911.5" y="-175.5" font-family="Helvetica,sans-Serif" font-size="10.00">QMetaObject</text>
</g>
<!-- Node17&#45;&gt;Node19 -->
<g id="edge22" class="edge"><title>Node17&#45;&gt;Node19</title>
<path fill="none" stroke="midnightblue" d="M1128.62,-224.444C1083.25,-214.948 1010.03,-199.623 961.341,-189.432"/>
<polygon fill="midnightblue" stroke="midnightblue" points="961.847,-185.962 951.342,-187.339 960.413,-192.813 961.847,-185.962"/>
</g>
<!-- Node20 -->
<g id="node20" class="node"><title>Node20</title>
<polygon fill="white" stroke="#bfbfbf" points="969,-168.5 969,-187.5 1068,-187.5 1068,-168.5 969,-168.5"/>
<text text-anchor="middle" x="1018.5" y="-175.5" font-family="Helvetica,sans-Serif" font-size="10.00">QCoreApplication</text>
</g>
<!-- Node17&#45;&gt;Node20 -->
<g id="edge23" class="edge"><title>Node17&#45;&gt;Node20</title>
<path fill="none" stroke="midnightblue" d="M1145.57,-224.444C1120.28,-215.399 1080.2,-201.064 1051.82,-190.916"/>
<polygon fill="midnightblue" stroke="midnightblue" points="1052.91,-187.588 1042.31,-187.516 1050.55,-194.179 1052.91,-187.588"/>
</g>
<!-- Node21 -->
<g id="node21" class="node"><title>Node21</title>
<g id="a_node21"><a xlink:href="../../d4/d11/torchttphandler_8h.html" target="_top" xlink:title="torchttphandler.h">
<polygon fill="white" stroke="black" points="1405,-168.5 1405,-187.5 1504,-187.5 1504,-168.5 1405,-168.5"/>
<text text-anchor="middle" x="1454.5" y="-175.5" font-family="Helvetica,sans-Serif" font-size="10.00">torchttphandler.h</text>
</a>
</g>
</g>
<!-- Node17&#45;&gt;Node21 -->
<g id="edge24" class="edge"><title>Node17&#45;&gt;Node21</title>
<path fill="none" stroke="midnightblue" d="M1214.66,-224.444C1264.79,-214.944 1345.72,-199.611 1399.51,-189.42"/>
<polygon fill="midnightblue" stroke="midnightblue" points="1400.38,-192.817 1409.55,-187.516 1399.08,-185.939 1400.38,-192.817"/>
</g>
<!-- Node23 -->
<g id="node23" class="node"><title>Node23</title>
<g id="a_node23"><a xlink:href="../../df/dd7/torchttprequest_8h.html" target="_top" xlink:title="torchttprequest.h">
<polygon fill="white" stroke="black" points="1292,-112.5 1292,-131.5 1393,-131.5 1393,-112.5 1292,-112.5"/>
<text text-anchor="middle" x="1342.5" y="-119.5" font-family="Helvetica,sans-Serif" font-size="10.00">torchttprequest.h</text>
</a>
</g>
</g>
<!-- Node17&#45;&gt;Node23 -->
<g id="edge35" class="edge"><title>Node17&#45;&gt;Node23</title>
<path fill="none" stroke="midnightblue" d="M1197.77,-224.409C1220.23,-216.83 1251.85,-204.431 1276.5,-188 1296.89,-174.408 1316.39,-153.968 1328.84,-139.648"/>
<polygon fill="midnightblue" stroke="midnightblue" points="1331.83,-141.531 1335.62,-131.638 1326.48,-137.008 1331.83,-141.531"/>
</g>
<!-- Node21&#45;&gt;Node10 -->
<g id="edge25" class="edge"><title>Node21&#45;&gt;Node10</title>
<path fill="none" stroke="midnightblue" d="M1463.67,-168.402C1472.86,-159.606 1487.24,-145.37 1498.5,-132 1511.5,-116.574 1524.83,-97.7959 1533.96,-84.397"/>
<polygon fill="midnightblue" stroke="midnightblue" points="1537.12,-85.9669 1539.8,-75.7162 1531.32,-82.0594 1537.12,-85.9669"/>
</g>
<!-- Node22 -->
<g id="node22" class="node"><title>Node22</title>
<polygon fill="white" stroke="#bfbfbf" points="1411.5,-112.5 1411.5,-131.5 1489.5,-131.5 1489.5,-112.5 1411.5,-112.5"/>
<text text-anchor="middle" x="1450.5" y="-119.5" font-family="Helvetica,sans-Serif" font-size="10.00">QVariantMap</text>
</g>
<!-- Node21&#45;&gt;Node22 -->
<g id="edge26" class="edge"><title>Node21&#45;&gt;Node22</title>
<path fill="none" stroke="midnightblue" d="M1453.84,-168.083C1453.32,-161.006 1452.56,-150.861 1451.91,-141.986"/>
<polygon fill="midnightblue" stroke="midnightblue" points="1455.38,-141.465 1451.15,-131.751 1448.4,-141.982 1455.38,-141.465"/>
</g>
<!-- Node21&#45;&gt;Node23 -->
<g id="edge27" class="edge"><title>Node21&#45;&gt;Node23</title>
<path fill="none" stroke="midnightblue" d="M1436.51,-168.324C1418.46,-159.625 1390.45,-146.12 1369.7,-136.113"/>
<polygon fill="midnightblue" stroke="midnightblue" points="1370.98,-132.845 1360.45,-131.655 1367.94,-139.15 1370.98,-132.845"/>
</g>
<!-- Node23&#45;&gt;Node10 -->
<g id="edge30" class="edge"><title>Node23&#45;&gt;Node10</title>
<path fill="none" stroke="midnightblue" d="M1374.67,-112.444C1411.3,-102.698 1471.03,-86.8101 1509.28,-76.6359"/>
<polygon fill="midnightblue" stroke="midnightblue" points="1510.22,-80.0069 1518.98,-74.0537 1508.42,-73.2421 1510.22,-80.0069"/>
</g>
<!-- Node23&#45;&gt;Node18 -->
<g id="edge28" class="edge"><title>Node23&#45;&gt;Node18</title>
<path fill="none" stroke="midnightblue" d="M1292.27,-112.444C1226.5,-101.24 1113.09,-81.9212 1057.76,-72.4946"/>
<polygon fill="midnightblue" stroke="midnightblue" points="1058.25,-69.0291 1047.81,-70.8 1057.08,-75.9297 1058.25,-69.0291"/>
</g>
<!-- Node24 -->
<g id="node24" class="node"><title>Node24</title>
<polygon fill="white" stroke="#bfbfbf" points="1248,-56.5 1248,-75.5 1289,-75.5 1289,-56.5 1248,-56.5"/>
<text text-anchor="middle" x="1268.5" y="-63.5" font-family="Helvetica,sans-Serif" font-size="10.00">QPair</text>
</g>
<!-- Node23&#45;&gt;Node24 -->
<g id="edge29" class="edge"><title>Node23&#45;&gt;Node24</title>
<path fill="none" stroke="midnightblue" d="M1330.61,-112.324C1319.35,-104.107 1302.21,-91.6017 1288.79,-81.8069"/>
<polygon fill="midnightblue" stroke="midnightblue" points="1290.75,-78.9014 1280.61,-75.8339 1286.62,-84.5559 1290.75,-78.9014"/>
</g>
<!-- Node25 -->
<g id="node25" class="node"><title>Node25</title>
<polygon fill="white" stroke="#bfbfbf" points="1307,-56.5 1307,-75.5 1378,-75.5 1378,-56.5 1307,-56.5"/>
<text text-anchor="middle" x="1342.5" y="-63.5" font-family="Helvetica,sans-Serif" font-size="10.00">QDateTime</text>
</g>
<!-- Node23&#45;&gt;Node25 -->
<g id="edge31" class="edge"><title>Node23&#45;&gt;Node25</title>
<path fill="none" stroke="midnightblue" d="M1342.5,-112.083C1342.5,-105.006 1342.5,-94.8611 1342.5,-85.9865"/>
<polygon fill="midnightblue" stroke="midnightblue" points="1346,-85.751 1342.5,-75.7511 1339,-85.7511 1346,-85.751"/>
</g>
<!-- Node26 -->
<g id="node26" class="node"><title>Node26</title>
<g id="a_node26"><a xlink:href="../../de/de6/torchttpreader_8h.html" target="_top" xlink:title="torchttpreader.h">
<polygon fill="white" stroke="black" points="1396,-56.5 1396,-75.5 1491,-75.5 1491,-56.5 1396,-56.5"/>
<text text-anchor="middle" x="1443.5" y="-63.5" font-family="Helvetica,sans-Serif" font-size="10.00">torchttpreader.h</text>
</a>
</g>
</g>
<!-- Node23&#45;&gt;Node26 -->
<g id="edge32" class="edge"><title>Node23&#45;&gt;Node26</title>
<path fill="none" stroke="midnightblue" d="M1358.73,-112.324C1374.85,-103.703 1399.8,-90.3643 1418.46,-80.3855"/>
<polygon fill="midnightblue" stroke="midnightblue" points="1420.14,-83.456 1427.31,-75.6545 1416.84,-77.283 1420.14,-83.456"/>
</g>
<!-- Node27 -->
<g id="node27" class="node"><title>Node27</title>
<polygon fill="white" stroke="#bfbfbf" points="1363,-0.5 1363,-19.5 1434,-19.5 1434,-0.5 1363,-0.5"/>
<text text-anchor="middle" x="1398.5" y="-7.5" font-family="Helvetica,sans-Serif" font-size="10.00">QByteArray</text>
</g>
<!-- Node26&#45;&gt;Node27 -->
<g id="edge33" class="edge"><title>Node26&#45;&gt;Node27</title>
<path fill="none" stroke="midnightblue" d="M1436.07,-56.083C1429.65,-48.3768 1420.19,-37.0333 1412.38,-27.6531"/>
<polygon fill="midnightblue" stroke="midnightblue" points="1414.88,-25.1927 1405.79,-19.7511 1409.51,-29.674 1414.88,-25.1927"/>
</g>
<!-- Node28 -->
<g id="node28" class="node"><title>Node28</title>
<polygon fill="white" stroke="#bfbfbf" points="1452.5,-0.5 1452.5,-19.5 1524.5,-19.5 1524.5,-0.5 1452.5,-0.5"/>
<text text-anchor="middle" x="1488.5" y="-7.5" font-family="Helvetica,sans-Serif" font-size="10.00">QTcpSocket</text>
</g>
<!-- Node26&#45;&gt;Node28 -->
<g id="edge34" class="edge"><title>Node26&#45;&gt;Node28</title>
<path fill="none" stroke="midnightblue" d="M1450.93,-56.083C1457.35,-48.3768 1466.81,-37.0333 1474.62,-27.6531"/>
<polygon fill="midnightblue" stroke="midnightblue" points="1477.49,-29.674 1481.21,-19.7511 1472.12,-25.1927 1477.49,-29.674"/>
</g>
<!-- Node30 -->
<g id="node30" class="node"><title>Node30</title>
<polygon fill="white" stroke="#bfbfbf" points="1590.5,-112.5 1590.5,-131.5 1660.5,-131.5 1660.5,-112.5 1590.5,-112.5"/>
<text text-anchor="middle" x="1625.5" y="-119.5" font-family="Helvetica,sans-Serif" font-size="10.00">QAtomicInt</text>
</g>
<!-- Node29&#45;&gt;Node30 -->
<g id="edge37" class="edge"><title>Node29&#45;&gt;Node30</title>
<path fill="none" stroke="midnightblue" d="M1625.5,-168.083C1625.5,-161.006 1625.5,-150.861 1625.5,-141.986"/>
<polygon fill="midnightblue" stroke="midnightblue" points="1629,-141.751 1625.5,-131.751 1622,-141.751 1629,-141.751"/>
</g>
<!-- Node32 -->
<g id="node32" class="node"><title>Node32</title>
<g id="a_node32"><a xlink:href="../../d3/d66/torcevent_8h.html" target="_top" xlink:title="torcevent.h">
<polygon fill="white" stroke="black" points="247,-168.5 247,-187.5 318,-187.5 318,-168.5 247,-168.5"/>
<text text-anchor="middle" x="282.5" y="-175.5" font-family="Helvetica,sans-Serif" font-size="10.00">torcevent.h</text>
</a>
</g>
</g>
<!-- Node31&#45;&gt;Node32 -->
<g id="edge39" class="edge"><title>Node31&#45;&gt;Node32</title>
<path fill="none" stroke="midnightblue" d="M328.17,-280.386C320.283,-271.801 308.62,-257.923 301.5,-244 293.972,-229.28 288.982,-211.118 286.012,-197.738"/>
<polygon fill="midnightblue" stroke="midnightblue" points="289.413,-196.9 283.982,-187.803 282.555,-198.301 289.413,-196.9"/>
</g>
<!-- Node32&#45;&gt;Node3 -->
<g id="edge41" class="edge"><title>Node32&#45;&gt;Node3</title>
<path fill="none" stroke="midnightblue" d="M300.334,-168.324C318.216,-159.625 345.975,-146.12 366.546,-136.113"/>
<polygon fill="midnightblue" stroke="midnightblue" points="368.249,-139.177 375.71,-131.655 365.187,-132.882 368.249,-139.177"/>
</g>
<!-- Node32&#45;&gt;Node18 -->
<g id="edge40" class="edge"><title>Node32&#45;&gt;Node18</title>
<path fill="none" stroke="midnightblue" d="M288.989,-168.291C300.502,-153.612 326.082,-124.343 355.5,-112 414.649,-87.1818 867.293,-71.777 993.132,-67.9431"/>
<polygon fill="midnightblue" stroke="midnightblue" points="993.395,-71.4369 1003.28,-67.6374 993.184,-64.4401 993.395,-71.4369"/>
</g>
<!-- Node33 -->
<g id="node33" class="node"><title>Node33</title>
<polygon fill="white" stroke="#bfbfbf" points="257,-112.5 257,-131.5 308,-131.5 308,-112.5 257,-112.5"/>
<text text-anchor="middle" x="282.5" y="-119.5" font-family="Helvetica,sans-Serif" font-size="10.00">QEvent</text>
</g>
<!-- Node32&#45;&gt;Node33 -->
<g id="edge42" class="edge"><title>Node32&#45;&gt;Node33</title>
<path fill="none" stroke="midnightblue" d="M282.5,-168.083C282.5,-161.006 282.5,-150.861 282.5,-141.986"/>
<polygon fill="midnightblue" stroke="midnightblue" points="286,-141.751 282.5,-131.751 279,-141.751 286,-141.751"/>
</g>
<!-- Node35 -->
<g id="node35" class="node"><title>Node35</title>
<g id="a_node35"><a xlink:href="../../d4/da3/torcdb_8h.html" target="_top" xlink:title="torcdb.h">
<polygon fill="white" stroke="black" points="636.5,-224.5 636.5,-243.5 692.5,-243.5 692.5,-224.5 636.5,-224.5"/>
<text text-anchor="middle" x="664.5" y="-231.5" font-family="Helvetica,sans-Serif" font-size="10.00">torcdb.h</text>
</a>
</g>
</g>
<!-- Node34&#45;&gt;Node35 -->
<g id="edge44" class="edge"><title>Node34&#45;&gt;Node35</title>
<path fill="none" stroke="midnightblue" d="M653.647,-280.083C655.369,-272.927 657.847,-262.635 660,-253.691"/>
<polygon fill="midnightblue" stroke="midnightblue" points="663.455,-254.293 662.393,-243.751 656.65,-252.654 663.455,-254.293"/>
</g>
<!-- Node35&#45;&gt;Node9 -->
<g id="edge45" class="edge"><title>Node35&#45;&gt;Node9</title>
<path fill="none" stroke="midnightblue" d="M672.261,-224.083C679.037,-216.298 689.043,-204.801 697.255,-195.367"/>
<polygon fill="midnightblue" stroke="midnightblue" points="699.958,-197.592 703.883,-187.751 694.678,-192.996 699.958,-197.592"/>
</g>
<!-- Node35&#45;&gt;Node12 -->
<g id="edge46" class="edge"><title>Node35&#45;&gt;Node12</title>
<path fill="none" stroke="midnightblue" d="M663.318,-224.363C661.961,-210.814 661.393,-184.418 674.5,-168 693.285,-144.47 726.134,-133.204 751.76,-127.832"/>
<polygon fill="midnightblue" stroke="midnightblue" points="752.702,-131.217 761.885,-125.931 751.411,-124.337 752.702,-131.217"/>
</g>
<!-- Node37 -->
<g id="node37" class="node"><title>Node37</title>
<polygon fill="white" stroke="#bfbfbf" points="439,-224.5 439,-243.5 480,-243.5 480,-224.5 439,-224.5"/>
<text text-anchor="middle" x="459.5" y="-231.5" font-family="Helvetica,sans-Serif" font-size="10.00">QList</text>
</g>
<!-- Node36&#45;&gt;Node37 -->
<g id="edge48" class="edge"><title>Node36&#45;&gt;Node37</title>
<path fill="none" stroke="midnightblue" d="M526.647,-280.324C514.284,-271.979 495.37,-259.212 480.763,-249.352"/>
<polygon fill="midnightblue" stroke="midnightblue" points="482.568,-246.348 472.321,-243.655 478.652,-252.15 482.568,-246.348"/>
</g>
<!-- Node38 -->
<g id="node38" class="node"><title>Node38</title>
<g id="a_node38"><a xlink:href="../../dd/db0/torcqthread_8h.html" target="_top" xlink:title="torcqthread.h">
<polygon fill="white" stroke="black" points="498.5,-224.5 498.5,-243.5 580.5,-243.5 580.5,-224.5 498.5,-224.5"/>
<text text-anchor="middle" x="539.5" y="-231.5" font-family="Helvetica,sans-Serif" font-size="10.00">torcqthread.h</text>
</a>
</g>
</g>
<!-- Node36&#45;&gt;Node38 -->
<g id="edge49" class="edge"><title>Node36&#45;&gt;Node38</title>
<path fill="none" stroke="midnightblue" d="M539.5,-280.083C539.5,-273.006 539.5,-262.861 539.5,-253.986"/>
<polygon fill="midnightblue" stroke="midnightblue" points="543,-253.751 539.5,-243.751 536,-253.751 543,-253.751"/>
</g>
<!-- Node39 -->
<g id="node39" class="node"><title>Node39</title>
<polygon fill="white" stroke="#bfbfbf" points="511,-168.5 511,-187.5 568,-187.5 568,-168.5 511,-168.5"/>
<text text-anchor="middle" x="539.5" y="-175.5" font-family="Helvetica,sans-Serif" font-size="10.00">QThread</text>
</g>
<!-- Node38&#45;&gt;Node39 -->
<g id="edge50" class="edge"><title>Node38&#45;&gt;Node39</title>
<path fill="none" stroke="midnightblue" d="M539.5,-224.083C539.5,-217.006 539.5,-206.861 539.5,-197.986"/>
<polygon fill="midnightblue" stroke="midnightblue" points="543,-197.751 539.5,-187.751 536,-197.751 543,-197.751"/>
</g>
<!-- Node40&#45;&gt;Node3 -->
<g id="edge53" class="edge"><title>Node40&#45;&gt;Node3</title>
<path fill="none" stroke="midnightblue" d="M367.697,-224.368C372.216,-206.617 382.639,-165.666 388.766,-141.597"/>
<polygon fill="midnightblue" stroke="midnightblue" points="392.238,-142.146 391.313,-131.591 385.454,-140.419 392.238,-142.146"/>
</g>
<!-- Node40&#45;&gt;Node4 -->
<g id="edge55" class="edge"><title>Node40&#45;&gt;Node4</title>
<path fill="none" stroke="midnightblue" d="M337.612,-224.444C307.746,-215.28 260.185,-200.688 227.044,-190.519"/>
<polygon fill="midnightblue" stroke="midnightblue" points="227.844,-187.104 217.257,-187.516 225.791,-193.796 227.844,-187.104"/>
</g>
<!-- Node40&#45;&gt;Node9 -->
<g id="edge52" class="edge"><title>Node40&#45;&gt;Node9</title>
<path fill="none" stroke="midnightblue" d="M420.325,-224.444C491.116,-213.395 612.478,-194.454 673.751,-184.892"/>
<polygon fill="midnightblue" stroke="midnightblue" points="674.419,-188.33 683.76,-183.329 673.34,-181.413 674.419,-188.33"/>
</g>
<!-- Node41 -->
<g id="node41" class="node"><title>Node41</title>
<polygon fill="white" stroke="#bfbfbf" points="1186,-112.5 1186,-131.5 1235,-131.5 1235,-112.5 1186,-112.5"/>
<text text-anchor="middle" x="1210.5" y="-119.5" font-family="Helvetica,sans-Serif" font-size="10.00">QHash</text>
</g>
<!-- Node40&#45;&gt;Node41 -->
<g id="edge54" class="edge"><title>Node40&#45;&gt;Node41</title>
<path fill="none" stroke="midnightblue" d="M420.619,-224.908C423.62,-224.574 426.595,-224.268 429.5,-224 474.575,-219.843 1212.21,-220.708 1243.5,-188 1257.08,-173.803 1242.05,-152.92 1228.12,-138.682"/>
<polygon fill="midnightblue" stroke="midnightblue" points="1230.32,-135.941 1220.68,-131.54 1225.47,-140.99 1230.32,-135.941"/>
</g>
<!-- Node43 -->
<g id="node43" class="node"><title>Node43</title>
<polygon fill="white" stroke="#bfbfbf" points="1747,-280.5 1747,-299.5 1794,-299.5 1794,-280.5 1747,-280.5"/>
<text text-anchor="middle" x="1770.5" y="-287.5" font-family="Helvetica,sans-Serif" font-size="10.00">QTime</text>
</g>
<!-- Node42&#45;&gt;Node43 -->
<g id="edge57" class="edge"><title>Node42&#45;&gt;Node43</title>
<path fill="none" stroke="midnightblue" d="M1543.74,-336.496C1591.72,-327.884 1667.37,-313.888 1732.5,-300 1733.95,-299.691 1735.43,-299.369 1736.92,-299.038"/>
<polygon fill="midnightblue" stroke="midnightblue" points="1737.85,-302.417 1746.82,-296.782 1736.29,-295.592 1737.85,-302.417"/>
</g>
<!-- Node44 -->
<g id="node44" class="node"><title>Node44</title>
<polygon fill="white" stroke="#bfbfbf" points="1812,-280.5 1812,-299.5 1863,-299.5 1863,-280.5 1812,-280.5"/>
<text text-anchor="middle" x="1837.5" y="-287.5" font-family="Helvetica,sans-Serif" font-size="10.00">QTimer</text>
</g>
<!-- Node42&#45;&gt;Node44 -->
<g id="edge58" class="edge"><title>Node42&#45;&gt;Node44</title>
<path fill="none" stroke="midnightblue" d="M1547.04,-339.287C1606.36,-332.308 1706.86,-319.248 1801.89,-300.146"/>
<polygon fill="midnightblue" stroke="midnightblue" points="1802.85,-303.521 1811.95,-298.095 1801.46,-296.662 1802.85,-303.521"/>
</g>
<!-- Node45 -->
<g id="node45" class="node"><title>Node45</title>
<g id="a_node45"><a xlink:href="../../d9/d9a/torccontrol_8h.html" target="_top" xlink:title="torccontrol.h">
<polygon fill="white" stroke="black" points="1183,-280.5 1183,-299.5 1260,-299.5 1260,-280.5 1183,-280.5"/>
<text text-anchor="middle" x="1221.5" y="-287.5" font-family="Helvetica,sans-Serif" font-size="10.00">torccontrol.h</text>
</a>
</g>
</g>
<!-- Node42&#45;&gt;Node45 -->
<g id="edge59" class="edge"><title>Node42&#45;&gt;Node45</title>
<path fill="none" stroke="midnightblue" d="M1452.08,-336.444C1402.57,-326.685 1321.82,-310.77 1270.2,-300.598"/>
<polygon fill="midnightblue" stroke="midnightblue" points="1270.77,-297.143 1260.28,-298.643 1269.42,-304.011 1270.77,-297.143"/>
</g>
<!-- Node45&#45;&gt;Node9 -->
<g id="edge61" class="edge"><title>Node45&#45;&gt;Node9</title>
<path fill="none" stroke="midnightblue" d="M1198.9,-280.487C1176.46,-271.868 1141.23,-257.867 1111.5,-244 1094.2,-235.933 1091.71,-229.714 1073.5,-224 1043.01,-214.432 835.584,-191.98 749.169,-182.907"/>
<polygon fill="midnightblue" stroke="midnightblue" points="749.319,-179.403 739.009,-181.843 748.59,-186.365 749.319,-179.403"/>
</g>
<!-- Node45&#45;&gt;Node16 -->
<g id="edge62" class="edge"><title>Node45&#45;&gt;Node16</title>
<path fill="none" stroke="midnightblue" d="M1191.08,-280.444C1158.22,-271.201 1105.72,-256.436 1069.53,-246.257"/>
<polygon fill="midnightblue" stroke="midnightblue" points="1070.35,-242.855 1059.78,-243.516 1068.46,-249.593 1070.35,-242.855"/>
</g>
<!-- Node45&#45;&gt;Node17 -->
<g id="edge63" class="edge"><title>Node45&#45;&gt;Node17</title>
<path fill="none" stroke="midnightblue" d="M1212.91,-280.083C1205.34,-272.22 1194.12,-260.569 1184.99,-251.081"/>
<polygon fill="midnightblue" stroke="midnightblue" points="1187.38,-248.527 1177.93,-243.751 1182.34,-253.382 1187.38,-248.527"/>
</g>
<!-- Node45&#45;&gt;Node18 -->
<g id="edge60" class="edge"><title>Node45&#45;&gt;Node18</title>
<path fill="none" stroke="midnightblue" d="M1260.18,-282.024C1281.89,-275.918 1307.21,-264.636 1320.5,-244 1336.18,-219.644 1300.29,-179.728 1292.5,-168 1274.37,-140.691 1272.74,-128.64 1244.5,-112 1185.06,-76.9776 1102.58,-68.8952 1057.71,-67.2264"/>
<polygon fill="midnightblue" stroke="midnightblue" points="1057.78,-63.7268 1047.68,-66.9381 1057.57,-70.7239 1057.78,-63.7268"/>
</g>
<!-- Node46 -->
<g id="node46" class="node"><title>Node46</title>
<g id="a_node46"><a xlink:href="../../d1/df7/torcdevice_8h.html" target="_top" xlink:title="torcdevice.h">
<polygon fill="white" stroke="black" points="1236,-224.5 1236,-243.5 1311,-243.5 1311,-224.5 1236,-224.5"/>
<text text-anchor="middle" x="1273.5" y="-231.5" font-family="Helvetica,sans-Serif" font-size="10.00">torcdevice.h</text>
</a>
</g>
</g>
<!-- Node45&#45;&gt;Node46 -->
<g id="edge64" class="edge"><title>Node45&#45;&gt;Node46</title>
<path fill="none" stroke="midnightblue" d="M1230.09,-280.083C1237.66,-272.22 1248.88,-260.569 1258.01,-251.081"/>
<polygon fill="midnightblue" stroke="midnightblue" points="1260.66,-253.382 1265.07,-243.751 1255.62,-248.527 1260.66,-253.382"/>
</g>
<!-- Node46&#45;&gt;Node9 -->
<g id="edge68" class="edge"><title>Node46&#45;&gt;Node9</title>
<path fill="none" stroke="midnightblue" d="M1235.9,-225.306C1233.06,-224.829 1230.24,-224.386 1227.5,-224 1134.94,-210.947 852.424,-189.418 749.511,-181.787"/>
<polygon fill="midnightblue" stroke="midnightblue" points="749.507,-178.278 739.276,-181.03 748.991,-185.258 749.507,-178.278"/>
</g>
<!-- Node46&#45;&gt;Node10 -->
<g id="edge67" class="edge"><title>Node46&#45;&gt;Node10</title>
<path fill="none" stroke="midnightblue" d="M1311.01,-225.09C1312.87,-224.717 1314.7,-224.352 1316.5,-224 1403.84,-206.882 1448.16,-248.441 1513.5,-188 1542.12,-161.522 1546.34,-112.711 1546.31,-85.8865"/>
<polygon fill="midnightblue" stroke="midnightblue" points="1549.8,-85.485 1546.08,-75.5657 1542.8,-85.6413 1549.8,-85.485"/>
</g>
<!-- Node46&#45;&gt;Node12 -->
<g id="edge66" class="edge"><title>Node46&#45;&gt;Node12</title>
<path fill="none" stroke="midnightblue" d="M1235.74,-224.581C1203.27,-216.792 1155.48,-204.013 1115.5,-188 1097.78,-180.904 1095.62,-173.994 1077.5,-168 989.864,-139.01 880.964,-128.5 825.188,-124.844"/>
<polygon fill="midnightblue" stroke="midnightblue" points="825.283,-121.343 815.086,-124.219 824.851,-128.33 825.283,-121.343"/>
</g>
<!-- Node46&#45;&gt;Node29 -->
<g id="edge69" class="edge"><title>Node46&#45;&gt;Node29</title>
<path fill="none" stroke="midnightblue" d="M1311.17,-227.221C1370.54,-218.113 1486.65,-200.302 1559.92,-189.061"/>
<polygon fill="midnightblue" stroke="midnightblue" points="1560.61,-192.496 1569.96,-187.52 1559.55,-185.577 1560.61,-192.496"/>
</g>
<!-- Node46&#45;&gt;Node41 -->
<g id="edge65" class="edge"><title>Node46&#45;&gt;Node41</title>
<path fill="none" stroke="midnightblue" d="M1276.52,-224.403C1280.54,-211.362 1286.11,-186.178 1276.5,-168 1269.08,-153.953 1255.08,-143.467 1241.88,-136.167"/>
<polygon fill="midnightblue" stroke="midnightblue" points="1243.46,-133.043 1232.96,-131.618 1240.28,-139.279 1243.46,-133.043"/>
</g>
<!-- Node47 -->
<g id="node47" class="node"><title>Node47</title>
<g id="a_node47"><a xlink:href="../../d2/d5b/torcdevicehandler_8h.html" target="_top" xlink:title="torcdevicehandler.h">
<polygon fill="white" stroke="black" points="1124.5,-168.5 1124.5,-187.5 1234.5,-187.5 1234.5,-168.5 1124.5,-168.5"/>
<text text-anchor="middle" x="1179.5" y="-175.5" font-family="Helvetica,sans-Serif" font-size="10.00">torcdevicehandler.h</text>
</a>
</g>
</g>
<!-- Node46&#45;&gt;Node47 -->
<g id="edge70" class="edge"><title>Node46&#45;&gt;Node47</title>
<path fill="none" stroke="midnightblue" d="M1258.4,-224.324C1243.6,-215.822 1220.81,-202.729 1203.52,-192.797"/>
<polygon fill="midnightblue" stroke="midnightblue" points="1204.98,-189.601 1194.57,-187.655 1201.49,-195.671 1204.98,-189.601"/>
</g>
<!-- Node47&#45;&gt;Node3 -->
<g id="edge73" class="edge"><title>Node47&#45;&gt;Node3</title>
<path fill="none" stroke="midnightblue" d="M1124.47,-171.917C1109.26,-170.575 1092.74,-169.174 1077.5,-168 832.295,-149.119 537.251,-131.397 432.615,-125.267"/>
<polygon fill="midnightblue" stroke="midnightblue" points="432.705,-121.766 422.518,-124.677 432.297,-128.754 432.705,-121.766"/>
</g>
<!-- Node47&#45;&gt;Node12 -->
<g id="edge72" class="edge"><title>Node47&#45;&gt;Node12</title>
<path fill="none" stroke="midnightblue" d="M1124.31,-169.378C1043.22,-158.178 894.051,-137.577 825.154,-128.062"/>
<polygon fill="midnightblue" stroke="midnightblue" points="825.583,-124.588 815.198,-126.687 824.625,-131.523 825.583,-124.588"/>
</g>
<!-- Node47&#45;&gt;Node41 -->
<g id="edge71" class="edge"><title>Node47&#45;&gt;Node41</title>
<path fill="none" stroke="midnightblue" d="M1184.62,-168.083C1188.91,-160.613 1195.16,-149.724 1200.44,-140.52"/>
<polygon fill="midnightblue" stroke="midnightblue" points="1203.53,-142.166 1205.48,-131.751 1197.46,-138.681 1203.53,-142.166"/>
</g>
</g>
</svg>
