<?xml version="1.0" encoding="UTF-8" standalone="no"?>
<!DOCTYPE svg PUBLIC "-//W3C//DTD SVG 1.1//EN"
 "http://www.w3.org/Graphics/SVG/1.1/DTD/svg11.dtd">
<!-- Generated by graphviz version 2.38.0 (20140413.2041)
 -->
<!-- Title: torcjsonrpc.cpp Pages: 1 -->
<svg width="174pt" height="140pt"
 viewBox="0.00 0.00 174.00 140.00" xmlns="http://www.w3.org/2000/svg" xmlns:xlink="http://www.w3.org/1999/xlink">
<g id="graph0" class="graph" transform="scale(1 1) rotate(0) translate(4 136)">
<title>torcjsonrpc.cpp</title>
<polygon fill="white" stroke="none" points="-4,4 -4,-136 170,-136 170,4 -4,4"/>
<!-- Node1 -->
<g id="node1" class="node"><title>Node1</title>
<polygon fill="#bfbfbf" stroke="black" points="35.5,-112.5 35.5,-131.5 125.5,-131.5 125.5,-112.5 35.5,-112.5"/>
<text text-anchor="middle" x="80.5" y="-119.5" font-family="Helvetica,sans-Serif" font-size="10.00">torcjsonrpc.cpp</text>
</g>
<!-- Node2 -->
<g id="node2" class="node"><title>Node2</title>
<polygon fill="white" stroke="#bfbfbf" points="0,-56.5 0,-75.5 69,-75.5 69,-56.5 0,-56.5"/>
<text text-anchor="middle" x="34.5" y="-63.5" font-family="Helvetica,sans-Serif" font-size="10.00">QMetaType</text>
</g>
<!-- Node1&#45;&gt;Node2 -->
<g id="edge1" class="edge"><title>Node1&#45;&gt;Node2</title>
<path fill="none" stroke="midnightblue" d="M72.904,-112.083C66.2725,-104.298 56.479,-92.8015 48.4419,-83.3665"/>
<polygon fill="midnightblue" stroke="midnightblue" points="51.1037,-81.0939 41.9546,-75.7511 45.775,-85.6332 51.1037,-81.0939"/>
</g>
<!-- Node3 -->
<g id="node3" class="node"><title>Node3</title>
<g id="a_node3"><a xlink:href="../../d3/dd5/torcjsonrpc_8h.html" target="_top" xlink:title="torcjsonrpc.h">
<polygon fill="white" stroke="black" points="87,-56.5 87,-75.5 166,-75.5 166,-56.5 87,-56.5"/>
<text text-anchor="middle" x="126.5" y="-63.5" font-family="Helvetica,sans-Serif" font-size="10.00">torcjsonrpc.h</text>
</a>
</g>
</g>
<!-- Node1&#45;&gt;Node3 -->
<g id="edge2" class="edge"><title>Node1&#45;&gt;Node3</title>
<path fill="none" stroke="midnightblue" d="M88.096,-112.083C94.7275,-104.298 104.521,-92.8015 112.558,-83.3665"/>
<polygon fill="midnightblue" stroke="midnightblue" points="115.225,-85.6332 119.045,-75.7511 109.896,-81.0939 115.225,-85.6332"/>
</g>
<!-- Node4 -->
<g id="node4" class="node"><title>Node4</title>
<polygon fill="white" stroke="#bfbfbf" points="100,-0.5 100,-19.5 153,-19.5 153,-0.5 100,-0.5"/>
<text text-anchor="middle" x="126.5" y="-7.5" font-family="Helvetica,sans-Serif" font-size="10.00">QString</text>
</g>
<!-- Node3&#45;&gt;Node4 -->
<g id="edge3" class="edge"><title>Node3&#45;&gt;Node4</title>
<path fill="none" stroke="midnightblue" d="M126.5,-56.083C126.5,-49.0059 126.5,-38.8611 126.5,-29.9865"/>
<polygon fill="midnightblue" stroke="midnightblue" points="130,-29.751 126.5,-19.7511 123,-29.7511 130,-29.751"/>
</g>
</g>
</svg>
