<?xml version="1.0" encoding="UTF-8" standalone="no"?>
<!DOCTYPE svg PUBLIC "-//W3C//DTD SVG 1.1//EN"
 "http://www.w3.org/Graphics/SVG/1.1/DTD/svg11.dtd">
<!-- Generated by graphviz version 2.38.0 (20140413.2041)
 -->
<!-- Title: torcnetworkswitchinput.h Pages: 1 -->
<svg width="941pt" height="420pt"
 viewBox="0.00 0.00 940.50 420.00" xmlns="http://www.w3.org/2000/svg" xmlns:xlink="http://www.w3.org/1999/xlink">
<g id="graph0" class="graph" transform="scale(1 1) rotate(0) translate(4 416)">
<title>torcnetworkswitchinput.h</title>
<polygon fill="white" stroke="none" points="-4,4 -4,-416 936.5,-416 936.5,4 -4,4"/>
<!-- Node1 -->
<g id="node1" class="node"><title>Node1</title>
<polygon fill="#bfbfbf" stroke="black" points="414.5,-392.5 414.5,-411.5 549.5,-411.5 549.5,-392.5 414.5,-392.5"/>
<text text-anchor="middle" x="482" y="-399.5" font-family="Helvetica,sans-Serif" font-size="10.00">torcnetworkswitchinput.h</text>
</g>
<!-- Node2 -->
<g id="node2" class="node"><title>Node2</title>
<g id="a_node2"><a xlink:href="../../d9/d2a/torcswitchinput_8h.html" target="_top" xlink:title="torcswitchinput.h">
<polygon fill="white" stroke="black" points="433,-336.5 433,-355.5 531,-355.5 531,-336.5 433,-336.5"/>
<text text-anchor="middle" x="482" y="-343.5" font-family="Helvetica,sans-Serif" font-size="10.00">torcswitchinput.h</text>
</a>
</g>
</g>
<!-- Node1&#45;&gt;Node2 -->
<g id="edge1" class="edge"><title>Node1&#45;&gt;Node2</title>
<path fill="none" stroke="midnightblue" d="M482,-392.083C482,-385.006 482,-374.861 482,-365.986"/>
<polygon fill="midnightblue" stroke="midnightblue" points="485.5,-365.751 482,-355.751 478.5,-365.751 485.5,-365.751"/>
</g>
<!-- Node3 -->
<g id="node3" class="node"><title>Node3</title>
<g id="a_node3"><a xlink:href="../../dd/d69/torcinput_8h.html" target="_top" xlink:title="torcinput.h">
<polygon fill="white" stroke="black" points="448,-280.5 448,-299.5 516,-299.5 516,-280.5 448,-280.5"/>
<text text-anchor="middle" x="482" y="-287.5" font-family="Helvetica,sans-Serif" font-size="10.00">torcinput.h</text>
</a>
</g>
</g>
<!-- Node2&#45;&gt;Node3 -->
<g id="edge2" class="edge"><title>Node2&#45;&gt;Node3</title>
<path fill="none" stroke="midnightblue" d="M482,-336.083C482,-329.006 482,-318.861 482,-309.986"/>
<polygon fill="midnightblue" stroke="midnightblue" points="485.5,-309.751 482,-299.751 478.5,-309.751 485.5,-309.751"/>
</g>
<!-- Node4 -->
<g id="node4" class="node"><title>Node4</title>
<polygon fill="white" stroke="#bfbfbf" points="479.5,-112.5 479.5,-131.5 532.5,-131.5 532.5,-112.5 479.5,-112.5"/>
<text text-anchor="middle" x="506" y="-119.5" font-family="Helvetica,sans-Serif" font-size="10.00">QMutex</text>
</g>
<!-- Node3&#45;&gt;Node4 -->
<g id="edge3" class="edge"><title>Node3&#45;&gt;Node4</title>
<path fill="none" stroke="midnightblue" d="M479.918,-280.27C475.479,-260.047 466.394,-208.622 478,-168 480.902,-157.844 486.832,-147.747 492.49,-139.699"/>
<polygon fill="midnightblue" stroke="midnightblue" points="495.376,-141.685 498.588,-131.589 489.781,-137.479 495.376,-141.685"/>
</g>
<!-- Node5 -->
<g id="node5" class="node"><title>Node5</title>
<polygon fill="white" stroke="#bfbfbf" points="487.5,-168.5 487.5,-187.5 542.5,-187.5 542.5,-168.5 487.5,-168.5"/>
<text text-anchor="middle" x="515" y="-175.5" font-family="Helvetica,sans-Serif" font-size="10.00">QObject</text>
</g>
<!-- Node3&#45;&gt;Node5 -->
<g id="edge4" class="edge"><title>Node3&#45;&gt;Node5</title>
<path fill="none" stroke="midnightblue" d="M484.589,-280.368C489.939,-262.537 502.311,-221.295 509.518,-197.272"/>
<polygon fill="midnightblue" stroke="midnightblue" points="512.901,-198.175 512.423,-187.591 506.197,-196.164 512.901,-198.175"/>
</g>
<!-- Node6 -->
<g id="node6" class="node"><title>Node6</title>
<g id="a_node6"><a xlink:href="../../d3/dee/torchttpservice_8h.html" target="_top" xlink:title="http/torchttpservice.h">
<polygon fill="white" stroke="black" points="166,-224.5 166,-243.5 286,-243.5 286,-224.5 166,-224.5"/>
<text text-anchor="middle" x="226" y="-231.5" font-family="Helvetica,sans-Serif" font-size="10.00">http/torchttpservice.h</text>
</a>
</g>
</g>
<!-- Node3&#45;&gt;Node6 -->
<g id="edge5" class="edge"><title>Node3&#45;&gt;Node6</title>
<path fill="none" stroke="midnightblue" d="M447.74,-281.773C403.765,-272.497 327.114,-256.329 276.46,-245.644"/>
<polygon fill="midnightblue" stroke="midnightblue" points="276.887,-242.157 266.38,-243.518 275.443,-249.006 276.887,-242.157"/>
</g>
<!-- Node19 -->
<g id="node19" class="node"><title>Node19</title>
<g id="a_node19"><a xlink:href="../../d1/df7/torcdevice_8h.html" target="_top" xlink:title="torcdevice.h">
<polygon fill="white" stroke="black" points="571.5,-224.5 571.5,-243.5 646.5,-243.5 646.5,-224.5 571.5,-224.5"/>
<text text-anchor="middle" x="609" y="-231.5" font-family="Helvetica,sans-Serif" font-size="10.00">torcdevice.h</text>
</a>
</g>
</g>
<!-- Node3&#45;&gt;Node19 -->
<g id="edge22" class="edge"><title>Node3&#45;&gt;Node19</title>
<path fill="none" stroke="midnightblue" d="M502.124,-280.444C523.024,-271.557 555.935,-257.563 579.716,-247.451"/>
<polygon fill="midnightblue" stroke="midnightblue" points="581.138,-250.65 588.971,-243.516 578.398,-244.208 581.138,-250.65"/>
</g>
<!-- Node6&#45;&gt;Node4 -->
<g id="edge7" class="edge"><title>Node6&#45;&gt;Node4</title>
<path fill="none" stroke="midnightblue" d="M275.203,-224.494C311.008,-217.321 360.167,-205.408 401,-188 432.782,-174.45 466.159,-152.202 486.529,-137.576"/>
<polygon fill="midnightblue" stroke="midnightblue" points="488.654,-140.358 494.67,-131.637 484.528,-134.703 488.654,-140.358"/>
</g>
<!-- Node7 -->
<g id="node7" class="node"><title>Node7</title>
<polygon fill="white" stroke="#bfbfbf" points="0,-56.5 0,-75.5 44,-75.5 44,-56.5 0,-56.5"/>
<text text-anchor="middle" x="22" y="-63.5" font-family="Helvetica,sans-Serif" font-size="10.00">QMap</text>
</g>
<!-- Node6&#45;&gt;Node7 -->
<g id="edge6" class="edge"><title>Node6&#45;&gt;Node7</title>
<path fill="none" stroke="midnightblue" d="M165.716,-230.406C131.022,-225.853 88.9086,-214.665 61,-188 32.5031,-160.772 24.7858,-112.654 22.7243,-86.0378"/>
<polygon fill="midnightblue" stroke="midnightblue" points="26.2023,-85.5535 22.1317,-75.7718 19.2139,-85.9569 26.2023,-85.5535"/>
</g>
<!-- Node8 -->
<g id="node8" class="node"><title>Node8</title>
<polygon fill="white" stroke="#bfbfbf" points="79.5,-168.5 79.5,-187.5 158.5,-187.5 158.5,-168.5 79.5,-168.5"/>
<text text-anchor="middle" x="119" y="-175.5" font-family="Helvetica,sans-Serif" font-size="10.00">QMetaObject</text>
</g>
<!-- Node6&#45;&gt;Node8 -->
<g id="edge8" class="edge"><title>Node6&#45;&gt;Node8</title>
<path fill="none" stroke="midnightblue" d="M208.809,-224.324C191.649,-215.664 165.054,-202.242 145.253,-192.249"/>
<polygon fill="midnightblue" stroke="midnightblue" points="146.653,-189.035 136.149,-187.655 143.499,-195.285 146.653,-189.035"/>
</g>
<!-- Node9 -->
<g id="node9" class="node"><title>Node9</title>
<polygon fill="white" stroke="#bfbfbf" points="176.5,-168.5 176.5,-187.5 275.5,-187.5 275.5,-168.5 176.5,-168.5"/>
<text text-anchor="middle" x="226" y="-175.5" font-family="Helvetica,sans-Serif" font-size="10.00">QCoreApplication</text>
</g>
<!-- Node6&#45;&gt;Node9 -->
<g id="edge9" class="edge"><title>Node6&#45;&gt;Node9</title>
<path fill="none" stroke="midnightblue" d="M226,-224.083C226,-217.006 226,-206.861 226,-197.986"/>
<polygon fill="midnightblue" stroke="midnightblue" points="229.5,-197.751 226,-187.751 222.5,-197.751 229.5,-197.751"/>
</g>
<!-- Node10 -->
<g id="node10" class="node"><title>Node10</title>
<g id="a_node10"><a xlink:href="../../d4/d11/torchttphandler_8h.html" target="_top" xlink:title="torchttphandler.h">
<polygon fill="white" stroke="black" points="293.5,-168.5 293.5,-187.5 392.5,-187.5 392.5,-168.5 293.5,-168.5"/>
<text text-anchor="middle" x="343" y="-175.5" font-family="Helvetica,sans-Serif" font-size="10.00">torchttphandler.h</text>
</a>
</g>
</g>
<!-- Node6&#45;&gt;Node10 -->
<g id="edge10" class="edge"><title>Node6&#45;&gt;Node10</title>
<path fill="none" stroke="midnightblue" d="M244.539,-224.444C263.623,-215.636 293.575,-201.812 315.436,-191.722"/>
<polygon fill="midnightblue" stroke="midnightblue" points="316.935,-194.885 324.548,-187.516 314.001,-188.529 316.935,-194.885"/>
</g>
<!-- Node13 -->
<g id="node13" class="node"><title>Node13</title>
<g id="a_node13"><a xlink:href="../../df/dd7/torchttprequest_8h.html" target="_top" xlink:title="torchttprequest.h">
<polygon fill="white" stroke="black" points="123.5,-112.5 123.5,-131.5 224.5,-131.5 224.5,-112.5 123.5,-112.5"/>
<text text-anchor="middle" x="174" y="-119.5" font-family="Helvetica,sans-Serif" font-size="10.00">torchttprequest.h</text>
</a>
</g>
</g>
<!-- Node6&#45;&gt;Node13 -->
<g id="edge21" class="edge"><title>Node6&#45;&gt;Node13</title>
<path fill="none" stroke="midnightblue" d="M172.014,-224.477C132.044,-216.936 82.4552,-204.556 70,-188 50.9285,-162.649 89.2836,-144.79 124.681,-134.289"/>
<polygon fill="midnightblue" stroke="midnightblue" points="125.854,-137.595 134.536,-131.522 123.962,-130.855 125.854,-137.595"/>
</g>
<!-- Node11 -->
<g id="node11" class="node"><title>Node11</title>
<polygon fill="white" stroke="#bfbfbf" points="349.5,-56.5 349.5,-75.5 402.5,-75.5 402.5,-56.5 349.5,-56.5"/>
<text text-anchor="middle" x="376" y="-63.5" font-family="Helvetica,sans-Serif" font-size="10.00">QString</text>
</g>
<!-- Node10&#45;&gt;Node11 -->
<g id="edge11" class="edge"><title>Node10&#45;&gt;Node11</title>
<path fill="none" stroke="midnightblue" d="M345.728,-168.387C348.582,-159.339 353.172,-144.69 357,-132 361.722,-116.347 366.921,-98.5199 370.684,-85.4992"/>
<polygon fill="midnightblue" stroke="midnightblue" points="374.06,-86.4239 373.467,-75.8457 367.334,-84.4852 374.06,-86.4239"/>
</g>
<!-- Node12 -->
<g id="node12" class="node"><title>Node12</title>
<polygon fill="white" stroke="#bfbfbf" points="270,-112.5 270,-131.5 348,-131.5 348,-112.5 270,-112.5"/>
<text text-anchor="middle" x="309" y="-119.5" font-family="Helvetica,sans-Serif" font-size="10.00">QVariantMap</text>
</g>
<!-- Node10&#45;&gt;Node12 -->
<g id="edge12" class="edge"><title>Node10&#45;&gt;Node12</title>
<path fill="none" stroke="midnightblue" d="M337.386,-168.083C332.633,-160.534 325.682,-149.495 319.848,-140.23"/>
<polygon fill="midnightblue" stroke="midnightblue" points="322.8,-138.349 314.51,-131.751 316.876,-142.078 322.8,-138.349"/>
</g>
<!-- Node10&#45;&gt;Node13 -->
<g id="edge13" class="edge"><title>Node10&#45;&gt;Node13</title>
<path fill="none" stroke="midnightblue" d="M316.221,-168.444C287.667,-159.32 242.267,-144.813 210.463,-134.651"/>
<polygon fill="midnightblue" stroke="midnightblue" points="211.244,-131.226 200.653,-131.516 209.114,-137.894 211.244,-131.226"/>
</g>
<!-- Node13&#45;&gt;Node7 -->
<g id="edge14" class="edge"><title>Node13&#45;&gt;Node7</title>
<path fill="none" stroke="midnightblue" d="M149.915,-112.444C124.006,-103.239 82.6775,-88.5565 54.0398,-78.3826"/>
<polygon fill="midnightblue" stroke="midnightblue" points="55.0803,-75.038 44.4856,-74.9883 52.7369,-81.6341 55.0803,-75.038"/>
</g>
<!-- Node13&#45;&gt;Node11 -->
<g id="edge16" class="edge"><title>Node13&#45;&gt;Node11</title>
<path fill="none" stroke="midnightblue" d="M206.008,-112.444C242.363,-102.725 301.563,-86.8991 339.634,-76.7216"/>
<polygon fill="midnightblue" stroke="midnightblue" points="340.546,-80.1007 349.303,-74.1368 338.738,-73.3382 340.546,-80.1007"/>
</g>
<!-- Node14 -->
<g id="node14" class="node"><title>Node14</title>
<polygon fill="white" stroke="#bfbfbf" points="79.5,-56.5 79.5,-75.5 120.5,-75.5 120.5,-56.5 79.5,-56.5"/>
<text text-anchor="middle" x="100" y="-63.5" font-family="Helvetica,sans-Serif" font-size="10.00">QPair</text>
</g>
<!-- Node13&#45;&gt;Node14 -->
<g id="edge15" class="edge"><title>Node13&#45;&gt;Node14</title>
<path fill="none" stroke="midnightblue" d="M162.111,-112.324C150.85,-104.107 133.713,-91.6017 120.291,-81.8069"/>
<polygon fill="midnightblue" stroke="midnightblue" points="122.247,-78.9014 112.106,-75.8339 118.12,-84.5559 122.247,-78.9014"/>
</g>
<!-- Node15 -->
<g id="node15" class="node"><title>Node15</title>
<polygon fill="white" stroke="#bfbfbf" points="138.5,-56.5 138.5,-75.5 209.5,-75.5 209.5,-56.5 138.5,-56.5"/>
<text text-anchor="middle" x="174" y="-63.5" font-family="Helvetica,sans-Serif" font-size="10.00">QDateTime</text>
</g>
<!-- Node13&#45;&gt;Node15 -->
<g id="edge17" class="edge"><title>Node13&#45;&gt;Node15</title>
<path fill="none" stroke="midnightblue" d="M174,-112.083C174,-105.006 174,-94.8611 174,-85.9865"/>
<polygon fill="midnightblue" stroke="midnightblue" points="177.5,-85.751 174,-75.7511 170.5,-85.7511 177.5,-85.751"/>
</g>
<!-- Node16 -->
<g id="node16" class="node"><title>Node16</title>
<g id="a_node16"><a xlink:href="../../de/de6/torchttpreader_8h.html" target="_top" xlink:title="torchttpreader.h">
<polygon fill="white" stroke="black" points="227.5,-56.5 227.5,-75.5 322.5,-75.5 322.5,-56.5 227.5,-56.5"/>
<text text-anchor="middle" x="275" y="-63.5" font-family="Helvetica,sans-Serif" font-size="10.00">torchttpreader.h</text>
</a>
</g>
</g>
<!-- Node13&#45;&gt;Node16 -->
<g id="edge18" class="edge"><title>Node13&#45;&gt;Node16</title>
<path fill="none" stroke="midnightblue" d="M190.227,-112.324C206.351,-103.703 231.3,-90.3643 249.964,-80.3855"/>
<polygon fill="midnightblue" stroke="midnightblue" points="251.644,-83.456 258.813,-75.6545 248.344,-77.283 251.644,-83.456"/>
</g>
<!-- Node17 -->
<g id="node17" class="node"><title>Node17</title>
<polygon fill="white" stroke="#bfbfbf" points="194.5,-0.5 194.5,-19.5 265.5,-19.5 265.5,-0.5 194.5,-0.5"/>
<text text-anchor="middle" x="230" y="-7.5" font-family="Helvetica,sans-Serif" font-size="10.00">QByteArray</text>
</g>
<!-- Node16&#45;&gt;Node17 -->
<g id="edge19" class="edge"><title>Node16&#45;&gt;Node17</title>
<path fill="none" stroke="midnightblue" d="M267.569,-56.083C261.147,-48.3768 251.694,-37.0333 243.878,-27.6531"/>
<polygon fill="midnightblue" stroke="midnightblue" points="246.383,-25.1927 237.293,-19.7511 241.006,-29.674 246.383,-25.1927"/>
</g>
<!-- Node18 -->
<g id="node18" class="node"><title>Node18</title>
<polygon fill="white" stroke="#bfbfbf" points="284,-0.5 284,-19.5 356,-19.5 356,-0.5 284,-0.5"/>
<text text-anchor="middle" x="320" y="-7.5" font-family="Helvetica,sans-Serif" font-size="10.00">QTcpSocket</text>
</g>
<!-- Node16&#45;&gt;Node18 -->
<g id="edge20" class="edge"><title>Node16&#45;&gt;Node18</title>
<path fill="none" stroke="midnightblue" d="M282.431,-56.083C288.853,-48.3768 298.306,-37.0333 306.122,-27.6531"/>
<polygon fill="midnightblue" stroke="midnightblue" points="308.994,-29.674 312.707,-19.7511 303.617,-25.1927 308.994,-29.674"/>
</g>
<!-- Node19&#45;&gt;Node4 -->
<g id="edge24" class="edge"><title>Node19&#45;&gt;Node4</title>
<path fill="none" stroke="midnightblue" d="M601.643,-224.448C590.774,-211.885 569.695,-187.789 551,-168 541.706,-158.162 531.002,-147.435 522.367,-138.923"/>
<polygon fill="midnightblue" stroke="midnightblue" points="524.708,-136.317 515.117,-131.817 519.809,-141.316 524.708,-136.317"/>
</g>
<!-- Node19&#45;&gt;Node5 -->
<g id="edge26" class="edge"><title>Node19&#45;&gt;Node5</title>
<path fill="none" stroke="midnightblue" d="M593.897,-224.324C579.097,-215.822 556.306,-202.729 539.018,-192.797"/>
<polygon fill="midnightblue" stroke="midnightblue" points="540.48,-189.601 530.065,-187.655 536.993,-195.671 540.48,-189.601"/>
</g>
<!-- Node19&#45;&gt;Node11 -->
<g id="edge25" class="edge"><title>Node19&#45;&gt;Node11</title>
<path fill="none" stroke="midnightblue" d="M606.746,-224.404C600.441,-202.12 580.449,-142.131 541,-112 503.416,-83.2936 448.728,-72.8884 412.768,-69.1237"/>
<polygon fill="midnightblue" stroke="midnightblue" points="412.981,-65.6285 402.701,-68.1917 412.335,-72.5987 412.981,-65.6285"/>
</g>
<!-- Node20 -->
<g id="node20" class="node"><title>Node20</title>
<polygon fill="white" stroke="#bfbfbf" points="745.5,-112.5 745.5,-131.5 794.5,-131.5 794.5,-112.5 745.5,-112.5"/>
<text text-anchor="middle" x="770" y="-119.5" font-family="Helvetica,sans-Serif" font-size="10.00">QHash</text>
</g>
<!-- Node19&#45;&gt;Node20 -->
<g id="edge23" class="edge"><title>Node19&#45;&gt;Node20</title>
<path fill="none" stroke="midnightblue" d="M646.521,-231.741C680.029,-228.538 728.016,-218.468 756,-188 767.337,-175.657 770.318,-156.407 770.774,-142.055"/>
<polygon fill="midnightblue" stroke="midnightblue" points="774.273,-141.798 770.71,-131.821 767.273,-141.842 774.273,-141.798"/>
</g>
<!-- Node21 -->
<g id="node21" class="node"><title>Node21</title>
<g id="a_node21"><a xlink:href="../../d8/dfe/torcreferencecounted_8h.html" target="_top" xlink:title="torcreferencecounted.h">
<polygon fill="white" stroke="black" points="803.5,-168.5 803.5,-187.5 932.5,-187.5 932.5,-168.5 803.5,-168.5"/>
<text text-anchor="middle" x="868" y="-175.5" font-family="Helvetica,sans-Serif" font-size="10.00">torcreferencecounted.h</text>
</a>
</g>
</g>
<!-- Node19&#45;&gt;Node21 -->
<g id="edge27" class="edge"><title>Node19&#45;&gt;Node21</title>
<path fill="none" stroke="midnightblue" d="M646.661,-225.148C691.55,-215.789 766.773,-200.105 816.887,-189.657"/>
<polygon fill="midnightblue" stroke="midnightblue" points="817.794,-193.043 826.869,-187.576 816.365,-186.19 817.794,-193.043"/>
</g>
<!-- Node23 -->
<g id="node23" class="node"><title>Node23</title>
<g id="a_node23"><a xlink:href="../../d2/d5b/torcdevicehandler_8h.html" target="_top" xlink:title="torcdevicehandler.h">
<polygon fill="white" stroke="black" points="637,-168.5 637,-187.5 747,-187.5 747,-168.5 637,-168.5"/>
<text text-anchor="middle" x="692" y="-175.5" font-family="Helvetica,sans-Serif" font-size="10.00">torcdevicehandler.h</text>
</a>
</g>
</g>
<!-- Node19&#45;&gt;Node23 -->
<g id="edge29" class="edge"><title>Node19&#45;&gt;Node23</title>
<path fill="none" stroke="midnightblue" d="M622.335,-224.324C635.162,-215.979 654.785,-203.212 669.94,-193.352"/>
<polygon fill="midnightblue" stroke="midnightblue" points="672.224,-196.042 678.698,-187.655 668.407,-190.174 672.224,-196.042"/>
</g>
<!-- Node22 -->
<g id="node22" class="node"><title>Node22</title>
<polygon fill="white" stroke="#bfbfbf" points="833,-112.5 833,-131.5 903,-131.5 903,-112.5 833,-112.5"/>
<text text-anchor="middle" x="868" y="-119.5" font-family="Helvetica,sans-Serif" font-size="10.00">QAtomicInt</text>
</g>
<!-- Node21&#45;&gt;Node22 -->
<g id="edge28" class="edge"><title>Node21&#45;&gt;Node22</title>
<path fill="none" stroke="midnightblue" d="M868,-168.083C868,-161.006 868,-150.861 868,-141.986"/>
<polygon fill="midnightblue" stroke="midnightblue" points="871.5,-141.751 868,-131.751 864.5,-141.751 871.5,-141.751"/>
</g>
<!-- Node23&#45;&gt;Node4 -->
<g id="edge31" class="edge"><title>Node23&#45;&gt;Node4</title>
<path fill="none" stroke="midnightblue" d="M662.528,-168.444C629.99,-158.997 577.578,-143.781 542.476,-133.59"/>
<polygon fill="midnightblue" stroke="midnightblue" points="543.202,-130.156 532.622,-130.729 541.25,-136.878 543.202,-130.156"/>
</g>
<!-- Node23&#45;&gt;Node20 -->
<g id="edge30" class="edge"><title>Node23&#45;&gt;Node20</title>
<path fill="none" stroke="midnightblue" d="M704.532,-168.324C716.586,-159.979 735.027,-147.212 749.269,-137.352"/>
<polygon fill="midnightblue" stroke="midnightblue" points="751.269,-140.224 757.499,-131.655 747.285,-134.469 751.269,-140.224"/>
</g>
<!-- Node24 -->
<g id="node24" class="node"><title>Node24</title>
<polygon fill="white" stroke="#bfbfbf" points="663,-112.5 663,-131.5 721,-131.5 721,-112.5 663,-112.5"/>
<text text-anchor="middle" x="692" y="-119.5" font-family="Helvetica,sans-Serif" font-size="10.00">QVariant</text>
</g>
<!-- Node23&#45;&gt;Node24 -->
<g id="edge32" class="edge"><title>Node23&#45;&gt;Node24</title>
<path fill="none" stroke="midnightblue" d="M692,-168.083C692,-161.006 692,-150.861 692,-141.986"/>
<polygon fill="midnightblue" stroke="midnightblue" points="695.5,-141.751 692,-131.751 688.5,-141.751 695.5,-141.751"/>
</g>
</g>
</svg>
