<?xml version="1.0" encoding="UTF-8" standalone="no"?>
<!DOCTYPE svg PUBLIC "-//W3C//DTD SVG 1.1//EN"
 "http://www.w3.org/Graphics/SVG/1.1/DTD/svg11.dtd">
<!-- Generated by graphviz version 2.38.0 (20140413.2041)
 -->
<!-- Title: torcexitcodes.h Pages: 1 -->
<svg width="809pt" height="140pt"
 viewBox="0.00 0.00 808.50 140.00" xmlns="http://www.w3.org/2000/svg" xmlns:xlink="http://www.w3.org/1999/xlink">
<g id="graph0" class="graph" transform="scale(1 1) rotate(0) translate(4 136)">
<title>torcexitcodes.h</title>
<polygon fill="white" stroke="none" points="-4,4 -4,-136 804.5,-136 804.5,4 -4,4"/>
<!-- Node1 -->
<g id="node1" class="node"><title>Node1</title>
<polygon fill="#bfbfbf" stroke="black" points="304.5,-112.5 304.5,-131.5 394.5,-131.5 394.5,-112.5 304.5,-112.5"/>
<text text-anchor="middle" x="349.5" y="-119.5" font-family="Helvetica,sans-Serif" font-size="10.00">torcexitcodes.h</text>
</g>
<!-- Node2 -->
<g id="node2" class="node"><title>Node2</title>
<g id="a_node2"><a xlink:href="../../d6/d7a/server_2main_8cpp.html" target="_top" xlink:title="main.cpp">
<polygon fill="white" stroke="black" points="0,-56.5 0,-75.5 61,-75.5 61,-56.5 0,-56.5"/>
<text text-anchor="middle" x="30.5" y="-63.5" font-family="Helvetica,sans-Serif" font-size="10.00">main.cpp</text>
</a>
</g>
</g>
<!-- Node1&#45;&gt;Node2 -->
<g id="edge1" class="edge"><title>Node1&#45;&gt;Node2</title>
<path fill="none" stroke="midnightblue" d="M294.279,-113.115C237.866,-104.821 147.825,-90.9204 70.5,-76 67.4248,-75.4066 64.225,-74.7513 61.0344,-74.073"/>
<polygon fill="midnightblue" stroke="midnightblue" points="294.009,-116.613 304.411,-114.598 295.023,-109.687 294.009,-116.613"/>
</g>
<!-- Node3 -->
<g id="node3" class="node"><title>Node3</title>
<g id="a_node3"><a xlink:href="../../d1/d81/torccentral_8cpp.html" target="_top" xlink:title="torccentral.cpp">
<polygon fill="white" stroke="black" points="79,-56.5 79,-75.5 168,-75.5 168,-56.5 79,-56.5"/>
<text text-anchor="middle" x="123.5" y="-63.5" font-family="Helvetica,sans-Serif" font-size="10.00">torccentral.cpp</text>
</a>
</g>
</g>
<!-- Node1&#45;&gt;Node3 -->
<g id="edge2" class="edge"><title>Node1&#45;&gt;Node3</title>
<path fill="none" stroke="midnightblue" d="M303.833,-110.088C261.136,-99.8865 198.252,-84.8612 159.143,-75.5164"/>
<polygon fill="midnightblue" stroke="midnightblue" points="303.15,-113.524 313.69,-112.444 304.777,-106.715 303.15,-113.524"/>
</g>
<!-- Node4 -->
<g id="node4" class="node"><title>Node4</title>
<g id="a_node4"><a xlink:href="../../d6/ddf/torcxsdtest_8cpp.html" target="_top" xlink:title="torcxsdtest.cpp">
<polygon fill="white" stroke="black" points="186,-56.5 186,-75.5 277,-75.5 277,-56.5 186,-56.5"/>
<text text-anchor="middle" x="231.5" y="-63.5" font-family="Helvetica,sans-Serif" font-size="10.00">torcxsdtest.cpp</text>
</a>
</g>
</g>
<!-- Node1&#45;&gt;Node4 -->
<g id="edge3" class="edge"><title>Node1&#45;&gt;Node4</title>
<path fill="none" stroke="midnightblue" d="M321.6,-108.232C299.527,-98.1312 269.324,-84.3091 250.11,-75.5164"/>
<polygon fill="midnightblue" stroke="midnightblue" points="320.253,-111.465 330.803,-112.444 323.166,-105.1 320.253,-111.465"/>
</g>
<!-- Node5 -->
<g id="node5" class="node"><title>Node5</title>
<g id="a_node5"><a xlink:href="../../d1/d77/torchttpservice_8cpp.html" target="_top" xlink:title="torchttpservice.cpp">
<polygon fill="white" stroke="black" points="295,-56.5 295,-75.5 404,-75.5 404,-56.5 295,-56.5"/>
<text text-anchor="middle" x="349.5" y="-63.5" font-family="Helvetica,sans-Serif" font-size="10.00">torchttpservice.cpp</text>
</a>
</g>
</g>
<!-- Node1&#45;&gt;Node5 -->
<g id="edge4" class="edge"><title>Node1&#45;&gt;Node5</title>
<path fill="none" stroke="midnightblue" d="M349.5,-101.805C349.5,-92.9102 349.5,-82.7798 349.5,-75.7511"/>
<polygon fill="midnightblue" stroke="midnightblue" points="346,-102.083 349.5,-112.083 353,-102.083 346,-102.083"/>
</g>
<!-- Node6 -->
<g id="node6" class="node"><title>Node6</title>
<g id="a_node6"><a xlink:href="../../dd/d32/torccommandline_8cpp.html" target="_top" xlink:title="torccommandline.cpp">
<polygon fill="white" stroke="black" points="422,-56.5 422,-75.5 543,-75.5 543,-56.5 422,-56.5"/>
<text text-anchor="middle" x="482.5" y="-63.5" font-family="Helvetica,sans-Serif" font-size="10.00">torccommandline.cpp</text>
</a>
</g>
</g>
<!-- Node1&#45;&gt;Node6 -->
<g id="edge5" class="edge"><title>Node1&#45;&gt;Node6</title>
<path fill="none" stroke="midnightblue" d="M379.948,-108.638C404.907,-98.504 439.577,-84.4274 461.524,-75.5164"/>
<polygon fill="midnightblue" stroke="midnightblue" points="378.523,-105.439 370.574,-112.444 381.156,-111.924 378.523,-105.439"/>
</g>
<!-- Node7 -->
<g id="node7" class="node"><title>Node7</title>
<g id="a_node7"><a xlink:href="../../da/d67/torclocalcontext_8cpp.html" target="_top" xlink:title="torclocalcontext.cpp">
<polygon fill="white" stroke="black" points="561,-56.5 561,-75.5 674,-75.5 674,-56.5 561,-56.5"/>
<text text-anchor="middle" x="617.5" y="-63.5" font-family="Helvetica,sans-Serif" font-size="10.00">torclocalcontext.cpp</text>
</a>
</g>
</g>
<!-- Node1&#45;&gt;Node7 -->
<g id="edge6" class="edge"><title>Node1&#45;&gt;Node7</title>
<path fill="none" stroke="midnightblue" d="M402.06,-110.41C452.709,-100.204 528.367,-84.9597 575.233,-75.5164"/>
<polygon fill="midnightblue" stroke="midnightblue" points="401.077,-107.037 391.965,-112.444 402.46,-113.899 401.077,-107.037"/>
</g>
<!-- Node8 -->
<g id="node8" class="node"><title>Node8</title>
<g id="a_node8"><a xlink:href="../../d7/d24/torcloggingimp_8cpp.html" target="_top" xlink:title="torcloggingimp.cpp">
<polygon fill="white" stroke="black" points="692.5,-56.5 692.5,-75.5 800.5,-75.5 800.5,-56.5 692.5,-56.5"/>
<text text-anchor="middle" x="746.5" y="-63.5" font-family="Helvetica,sans-Serif" font-size="10.00">torcloggingimp.cpp</text>
</a>
</g>
</g>
<!-- Node1&#45;&gt;Node8 -->
<g id="edge7" class="edge"><title>Node1&#45;&gt;Node8</title>
<path fill="none" stroke="midnightblue" d="M404.837,-113.682C471.102,-104.887 585.442,-89.6096 683.5,-76 686.345,-75.6051 689.263,-75.1976 692.208,-74.7841"/>
<polygon fill="midnightblue" stroke="midnightblue" points="404.078,-110.252 394.625,-115.036 404.998,-117.191 404.078,-110.252"/>
</g>
<!-- Node9 -->
<g id="node9" class="node"><title>Node9</title>
<g id="a_node9"><a xlink:href="../../d8/d8c/torcqthread_8cpp.html" target="_top" xlink:title="torcqthread.cpp">
<polygon fill="white" stroke="black" points="700,-0.5 700,-19.5 793,-19.5 793,-0.5 700,-0.5"/>
<text text-anchor="middle" x="746.5" y="-7.5" font-family="Helvetica,sans-Serif" font-size="10.00">torcqthread.cpp</text>
</a>
</g>
</g>
<!-- Node8&#45;&gt;Node9 -->
<g id="edge8" class="edge"><title>Node8&#45;&gt;Node9</title>
<path fill="none" stroke="midnightblue" d="M746.5,-45.8045C746.5,-36.9102 746.5,-26.7798 746.5,-19.7511"/>
<polygon fill="midnightblue" stroke="midnightblue" points="743,-46.083 746.5,-56.083 750,-46.083 743,-46.083"/>
</g>
</g>
</svg>
