<?xml version="1.0" encoding="UTF-8" standalone="no"?>
<!DOCTYPE svg PUBLIC "-//W3C//DTD SVG 1.1//EN"
 "http://www.w3.org/Graphics/SVG/1.1/DTD/svg11.dtd">
<!-- Generated by graphviz version 2.38.0 (20140413.2041)
 -->
<!-- Title: torccoreutils.h Pages: 1 -->
<svg width="873pt" height="84pt"
 viewBox="0.00 0.00 873.00 84.00" xmlns="http://www.w3.org/2000/svg" xmlns:xlink="http://www.w3.org/1999/xlink">
<g id="graph0" class="graph" transform="scale(1 1) rotate(0) translate(4 80)">
<title>torccoreutils.h</title>
<polygon fill="white" stroke="none" points="-4,4 -4,-80 869,-80 869,4 -4,4"/>
<!-- Node1 -->
<g id="node1" class="node"><title>Node1</title>
<polygon fill="#bfbfbf" stroke="black" points="410.5,-56.5 410.5,-75.5 495.5,-75.5 495.5,-56.5 410.5,-56.5"/>
<text text-anchor="middle" x="453" y="-63.5" font-family="Helvetica,sans-Serif" font-size="10.00">torccoreutils.h</text>
</g>
<!-- Node2 -->
<g id="node2" class="node"><title>Node2</title>
<g id="a_node2"><a xlink:href="../../d6/da3/torchttprequest_8cpp.html" target="_top" xlink:title="torchttprequest.cpp">
<polygon fill="white" stroke="black" points="0,-0.5 0,-19.5 112,-19.5 112,-0.5 0,-0.5"/>
<text text-anchor="middle" x="56" y="-7.5" font-family="Helvetica,sans-Serif" font-size="10.00">torchttprequest.cpp</text>
</a>
</g>
</g>
<!-- Node1&#45;&gt;Node2 -->
<g id="edge1" class="edge"><title>Node1&#45;&gt;Node2</title>
<path fill="none" stroke="midnightblue" d="M400.204,-57.8915C334.701,-49.061 219.599,-33.5082 121,-20 118.065,-19.598 115.056,-19.1847 112.018,-18.7668"/>
<polygon fill="midnightblue" stroke="midnightblue" points="399.903,-61.3824 410.281,-59.2496 400.838,-54.4452 399.903,-61.3824"/>
</g>
<!-- Node3 -->
<g id="node3" class="node"><title>Node3</title>
<g id="a_node3"><a xlink:href="../../d8/db8/torcwebsockettoken_8cpp.html" target="_top" xlink:title="torcwebsockettoken.cpp">
<polygon fill="white" stroke="black" points="130.5,-0.5 130.5,-19.5 263.5,-19.5 263.5,-0.5 130.5,-0.5"/>
<text text-anchor="middle" x="197" y="-7.5" font-family="Helvetica,sans-Serif" font-size="10.00">torcwebsockettoken.cpp</text>
</a>
</g>
</g>
<!-- Node1&#45;&gt;Node3 -->
<g id="edge2" class="edge"><title>Node1&#45;&gt;Node3</title>
<path fill="none" stroke="midnightblue" d="M402.49,-54.3456C354.111,-44.1405 282.049,-28.94 237.374,-19.5164"/>
<polygon fill="midnightblue" stroke="midnightblue" points="401.929,-57.8041 412.436,-56.4435 403.374,-50.9549 401.929,-57.8041"/>
</g>
<!-- Node4 -->
<g id="node4" class="node"><title>Node4</title>
<g id="a_node4"><a xlink:href="../../d1/d98/torccoreutils_8cpp.html" target="_top" xlink:title="torccoreutils.cpp">
<polygon fill="white" stroke="black" points="282,-0.5 282,-19.5 378,-19.5 378,-0.5 282,-0.5"/>
<text text-anchor="middle" x="330" y="-7.5" font-family="Helvetica,sans-Serif" font-size="10.00">torccoreutils.cpp</text>
</a>
</g>
</g>
<!-- Node1&#45;&gt;Node4 -->
<g id="edge3" class="edge"><title>Node1&#45;&gt;Node4</title>
<path fill="none" stroke="midnightblue" d="M424.227,-52.3678C401.193,-42.2553 369.516,-28.3486 349.399,-19.5164"/>
<polygon fill="midnightblue" stroke="midnightblue" points="422.947,-55.6283 433.51,-56.4435 425.761,-49.2188 422.947,-55.6283"/>
</g>
<!-- Node5 -->
<g id="node5" class="node"><title>Node5</title>
<g id="a_node5"><a xlink:href="../../da/d67/torclocalcontext_8cpp.html" target="_top" xlink:title="torclocalcontext.cpp">
<polygon fill="white" stroke="black" points="396.5,-0.5 396.5,-19.5 509.5,-19.5 509.5,-0.5 396.5,-0.5"/>
<text text-anchor="middle" x="453" y="-7.5" font-family="Helvetica,sans-Serif" font-size="10.00">torclocalcontext.cpp</text>
</a>
</g>
</g>
<!-- Node1&#45;&gt;Node5 -->
<g id="edge4" class="edge"><title>Node1&#45;&gt;Node5</title>
<path fill="none" stroke="midnightblue" d="M453,-45.8045C453,-36.9102 453,-26.7798 453,-19.7511"/>
<polygon fill="midnightblue" stroke="midnightblue" points="449.5,-46.083 453,-56.083 456.5,-46.083 449.5,-46.083"/>
</g>
<!-- Node6 -->
<g id="node6" class="node"><title>Node6</title>
<g id="a_node6"><a xlink:href="../../da/d9c/torcnetwork_8cpp.html" target="_top" xlink:title="torcnetwork.cpp">
<polygon fill="white" stroke="black" points="527.5,-0.5 527.5,-19.5 620.5,-19.5 620.5,-0.5 527.5,-0.5"/>
<text text-anchor="middle" x="574" y="-7.5" font-family="Helvetica,sans-Serif" font-size="10.00">torcnetwork.cpp</text>
</a>
</g>
</g>
<!-- Node1&#45;&gt;Node6 -->
<g id="edge5" class="edge"><title>Node1&#45;&gt;Node6</title>
<path fill="none" stroke="midnightblue" d="M481.306,-52.3678C503.965,-42.2553 535.126,-28.3486 554.917,-19.5164"/>
<polygon fill="midnightblue" stroke="midnightblue" points="479.878,-49.1719 472.173,-56.4435 482.731,-55.5643 479.878,-49.1719"/>
</g>
<!-- Node7 -->
<g id="node7" class="node"><title>Node7</title>
<g id="a_node7"><a xlink:href="../../d8/dcb/torcnetworkrequest_8cpp.html" target="_top" xlink:title="torcnetworkrequest.cpp">
<polygon fill="white" stroke="black" points="639,-0.5 639,-19.5 769,-19.5 769,-0.5 639,-0.5"/>
<text text-anchor="middle" x="704" y="-7.5" font-family="Helvetica,sans-Serif" font-size="10.00">torcnetworkrequest.cpp</text>
</a>
</g>
</g>
<!-- Node1&#45;&gt;Node7 -->
<g id="edge6" class="edge"><title>Node1&#45;&gt;Node7</title>
<path fill="none" stroke="midnightblue" d="M502.821,-54.2815C550.253,-44.0769 620.704,-28.9203 664.414,-19.5164"/>
<polygon fill="midnightblue" stroke="midnightblue" points="501.812,-50.9185 492.772,-56.4435 503.284,-57.7619 501.812,-50.9185"/>
</g>
<!-- Node8 -->
<g id="node8" class="node"><title>Node8</title>
<g id="a_node8"><a xlink:href="../../d9/de1/torcssdp_8cpp.html" target="_top" xlink:title="torcssdp.cpp">
<polygon fill="white" stroke="black" points="787,-0.5 787,-19.5 865,-19.5 865,-0.5 787,-0.5"/>
<text text-anchor="middle" x="826" y="-7.5" font-family="Helvetica,sans-Serif" font-size="10.00">torcssdp.cpp</text>
</a>
</g>
</g>
<!-- Node1&#45;&gt;Node8 -->
<g id="edge7" class="edge"><title>Node1&#45;&gt;Node8</title>
<path fill="none" stroke="midnightblue" d="M505.993,-58.4524C570.422,-50.3096 682.405,-35.571 778,-20 780.929,-19.5229 783.954,-19.0081 786.995,-18.4747"/>
<polygon fill="midnightblue" stroke="midnightblue" points="505.17,-55.0282 495.686,-59.75 506.045,-61.9734 505.17,-55.0282"/>
</g>
</g>
</svg>
