<?xml version="1.0" encoding="UTF-8" standalone="no"?>
<!DOCTYPE svg PUBLIC "-//W3C//DTD SVG 1.1//EN"
 "http://www.w3.org/Graphics/SVG/1.1/DTD/svg11.dtd">
<!-- Generated by graphviz version 2.38.0 (20140413.2041)
 -->
<!-- Title: torcintegerinput.h Pages: 1 -->
<svg width="363pt" height="140pt"
 viewBox="0.00 0.00 363.00 140.00" xmlns="http://www.w3.org/2000/svg" xmlns:xlink="http://www.w3.org/1999/xlink">
<g id="graph0" class="graph" transform="scale(1 1) rotate(0) translate(4 136)">
<title>torcintegerinput.h</title>
<polygon fill="white" stroke="none" points="-4,4 -4,-136 359,-136 359,4 -4,4"/>
<!-- Node1 -->
<g id="node1" class="node"><title>Node1</title>
<polygon fill="#bfbfbf" stroke="black" points="77.5,-112.5 77.5,-131.5 179.5,-131.5 179.5,-112.5 77.5,-112.5"/>
<text text-anchor="middle" x="128.5" y="-119.5" font-family="Helvetica,sans-Serif" font-size="10.00">torcintegerinput.h</text>
</g>
<!-- Node2 -->
<g id="node2" class="node"><title>Node2</title>
<g id="a_node2"><a xlink:href="../../d1/d66/torcintegerinput_8cpp.html" target="_top" xlink:title="torcintegerinput.cpp">
<polygon fill="white" stroke="black" points="0,-56.5 0,-75.5 113,-75.5 113,-56.5 0,-56.5"/>
<text text-anchor="middle" x="56.5" y="-63.5" font-family="Helvetica,sans-Serif" font-size="10.00">torcintegerinput.cpp</text>
</a>
</g>
</g>
<!-- Node1&#45;&gt;Node2 -->
<g id="edge1" class="edge"><title>Node1&#45;&gt;Node2</title>
<path fill="none" stroke="midnightblue" d="M108.634,-106.101C95.6765,-96.3824 79.2026,-84.0269 68.2785,-75.8339"/>
<polygon fill="midnightblue" stroke="midnightblue" points="106.832,-109.124 116.932,-112.324 111.032,-103.524 106.832,-109.124"/>
</g>
<!-- Node3 -->
<g id="node3" class="node"><title>Node3</title>
<g id="a_node3"><a xlink:href="../../d7/d41/torcnetworkintegerinput_8h.html" target="_top" xlink:title="torcnetworkintegerinput.h">
<polygon fill="white" stroke="black" points="131.5,-56.5 131.5,-75.5 271.5,-75.5 271.5,-56.5 131.5,-56.5"/>
<text text-anchor="middle" x="201.5" y="-63.5" font-family="Helvetica,sans-Serif" font-size="10.00">torcnetworkintegerinput.h</text>
</a>
</g>
</g>
<!-- Node1&#45;&gt;Node3 -->
<g id="edge2" class="edge"><title>Node1&#45;&gt;Node3</title>
<path fill="none" stroke="midnightblue" d="M148.642,-106.101C161.779,-96.3824 178.482,-84.0269 189.558,-75.8339"/>
<polygon fill="midnightblue" stroke="midnightblue" points="146.187,-103.563 140.229,-112.324 150.35,-109.191 146.187,-103.563"/>
</g>
<!-- Node4 -->
<g id="node4" class="node"><title>Node4</title>
<g id="a_node4"><a xlink:href="../../df/dc7/torcnetworkinputs_8cpp.html" target="_top" xlink:title="torcnetworkinputs.cpp">
<polygon fill="white" stroke="black" points="63.5,-0.5 63.5,-19.5 185.5,-19.5 185.5,-0.5 63.5,-0.5"/>
<text text-anchor="middle" x="124.5" y="-7.5" font-family="Helvetica,sans-Serif" font-size="10.00">torcnetworkinputs.cpp</text>
</a>
</g>
</g>
<!-- Node3&#45;&gt;Node4 -->
<g id="edge3" class="edge"><title>Node3&#45;&gt;Node4</title>
<path fill="none" stroke="midnightblue" d="M180.599,-50.3422C166.589,-40.5169 148.617,-27.9132 136.841,-19.6545"/>
<polygon fill="midnightblue" stroke="midnightblue" points="178.932,-53.4477 189.129,-56.324 182.951,-47.7166 178.932,-53.4477"/>
</g>
<!-- Node5 -->
<g id="node5" class="node"><title>Node5</title>
<g id="a_node5"><a xlink:href="../../da/dab/torcnetworkintegerinput_8cpp.html" target="_top" xlink:title="torcnetworkintegerinput.cpp">
<polygon fill="white" stroke="black" points="204,-0.5 204,-19.5 355,-19.5 355,-0.5 204,-0.5"/>
<text text-anchor="middle" x="279.5" y="-7.5" font-family="Helvetica,sans-Serif" font-size="10.00">torcnetworkintegerinput.cpp</text>
</a>
</g>
</g>
<!-- Node3&#45;&gt;Node5 -->
<g id="edge4" class="edge"><title>Node3&#45;&gt;Node5</title>
<path fill="none" stroke="midnightblue" d="M222.268,-50.6221C236.517,-40.7574 254.956,-27.9919 266.999,-19.6545"/>
<polygon fill="midnightblue" stroke="midnightblue" points="220.262,-47.7541 214.032,-56.324 224.246,-53.5095 220.262,-47.7541"/>
</g>
</g>
</svg>
