<?xml version="1.0" encoding="UTF-8" standalone="no"?>
<!DOCTYPE svg PUBLIC "-//W3C//DTD SVG 1.1//EN"
 "http://www.w3.org/Graphics/SVG/1.1/DTD/svg11.dtd">
<!-- Generated by graphviz version 2.38.0 (20140413.2041)
 -->
<!-- Title: torcnetworkbuttonoutput.h Pages: 1 -->
<!--zoomable 476 -->
<svg id="main" version="1.1" xmlns="http://www.w3.org/2000/svg" xmlns:xlink="http://www.w3.org/1999/xlink" xml:space="preserve" onload="init(evt)">
<style type="text/css"><![CDATA[
.edge:hover path { stroke: red; }
.edge:hover polygon { stroke: red; fill: red; }
]]></style>
<script type="text/javascript"><![CDATA[
var edges = document.getElementsByTagName('g');
if (edges && edges.length) {
  for (var i=0;i<edges.length;i++) {
    if (edges[i].id.substr(0,4)=='edge') {
      edges[i].setAttribute('class','edge');
    }
  }
}
]]></script>
        <defs>
                <circle id="rim" cx="0" cy="0" r="7"/>
                <circle id="rim2" cx="0" cy="0" r="3.5"/>
                <g id="zoomPlus">
                        <use xlink:href="#rim" fill="#404040">
                                <set attributeName="fill" to="#808080" begin="zoomplus.mouseover" end="zoomplus.mouseout"/>
                        </use>
                        <path d="M-4,0h8M0,-4v8" fill="none" stroke="white" stroke-width="1.5" pointer-events="none"/>
                </g>
                <g id="zoomMin">
                        <use xlink:href="#rim" fill="#404040">
                                <set attributeName="fill" to="#808080" begin="zoomminus.mouseover" end="zoomminus.mouseout"/>
                        </use>
                        <path d="M-4,0h8" fill="none" stroke="white" stroke-width="1.5" pointer-events="none"/>
                </g>
                <g id="dirArrow">
                        <path fill="none" stroke="white" stroke-width="1.5" d="M0,-3.0v7 M-2.5,-0.5L0,-3.0L2.5,-0.5"/>
                </g>
               <g id="resetDef">
                       <use xlink:href="#rim2" fill="#404040">
                               <set attributeName="fill" to="#808080" begin="reset.mouseover" end="reset.mouseout"/>
                       </use>
               </g>
        </defs>

<script type="text/javascript">
var viewWidth = 978;
var viewHeight = 476;
var sectionId = 'dynsection-0';
</script>
<script xlink:href="../../svgpan.js"/>
<svg id="graph" class="graph">
<g id="viewport">
<title>torcnetworkbuttonoutput.h</title>
<polygon fill="white" stroke="none" points="-4,4 -4,-472 973.5,-472 973.5,4 -4,4"/>
<!-- Node1 -->
<g id="node1" class="node"><title>Node1</title>
<polygon fill="#bfbfbf" stroke="black" points="543.5,-448.5 543.5,-467.5 688.5,-467.5 688.5,-448.5 543.5,-448.5"/>
<text text-anchor="middle" x="616" y="-455.5" font-family="Helvetica,sans-Serif" font-size="10.00">torcnetworkbuttonoutput.h</text>
</g>
<!-- Node2 -->
<g id="node2" class="node"><title>Node2</title>
<polygon fill="white" stroke="#bfbfbf" points="533.5,-392.5 533.5,-411.5 584.5,-411.5 584.5,-392.5 533.5,-392.5"/>
<text text-anchor="middle" x="559" y="-399.5" font-family="Helvetica,sans-Serif" font-size="10.00">QTimer</text>
</g>
<!-- Node1&#45;&gt;Node2 -->
<g id="edge1" class="edge"><title>Node1&#45;&gt;Node2</title>
<path fill="none" stroke="midnightblue" d="M606.842,-448.324C598.499,-440.42 585.968,-428.548 575.823,-418.938"/>
<polygon fill="midnightblue" stroke="midnightblue" points="577.991,-416.171 568.325,-411.834 573.177,-421.252 577.991,-416.171"/>
</g>
<!-- Node3 -->
<g id="node3" class="node"><title>Node3</title>
<g id="a_node3"><a xlink:href="../../d2/d9b/torcnetworkswitchoutput_8h.html" target="_top" xlink:title="torcnetworkswitchoutput.h">
<polygon fill="white" stroke="black" points="602.5,-392.5 602.5,-411.5 745.5,-411.5 745.5,-392.5 602.5,-392.5"/>
<text text-anchor="middle" x="674" y="-399.5" font-family="Helvetica,sans-Serif" font-size="10.00">torcnetworkswitchoutput.h</text>
</a>
</g>
</g>
<!-- Node1&#45;&gt;Node3 -->
<g id="edge2" class="edge"><title>Node1&#45;&gt;Node3</title>
<path fill="none" stroke="midnightblue" d="M625.319,-448.324C633.893,-440.341 646.812,-428.313 657.188,-418.653"/>
<polygon fill="midnightblue" stroke="midnightblue" points="659.578,-421.21 664.512,-411.834 654.808,-416.086 659.578,-421.21"/>
</g>
<!-- Node4 -->
<g id="node4" class="node"><title>Node4</title>
<g id="a_node4"><a xlink:href="../../db/d9e/torcswitchoutput_8h.html" target="_top" xlink:title="torcswitchoutput.h">
<polygon fill="white" stroke="black" points="621.5,-336.5 621.5,-355.5 726.5,-355.5 726.5,-336.5 621.5,-336.5"/>
<text text-anchor="middle" x="674" y="-343.5" font-family="Helvetica,sans-Serif" font-size="10.00">torcswitchoutput.h</text>
</a>
</g>
</g>
<!-- Node3&#45;&gt;Node4 -->
<g id="edge3" class="edge"><title>Node3&#45;&gt;Node4</title>
<path fill="none" stroke="midnightblue" d="M674,-392.083C674,-385.006 674,-374.861 674,-365.986"/>
<polygon fill="midnightblue" stroke="midnightblue" points="677.5,-365.751 674,-355.751 670.5,-365.751 677.5,-365.751"/>
</g>
<!-- Node5 -->
<g id="node5" class="node"><title>Node5</title>
<g id="a_node5"><a xlink:href="../../dc/d01/torcoutput_8h.html" target="_top" xlink:title="torcoutput.h">
<polygon fill="white" stroke="black" points="636,-280.5 636,-299.5 712,-299.5 712,-280.5 636,-280.5"/>
<text text-anchor="middle" x="674" y="-287.5" font-family="Helvetica,sans-Serif" font-size="10.00">torcoutput.h</text>
</a>
</g>
</g>
<!-- Node4&#45;&gt;Node5 -->
<g id="edge4" class="edge"><title>Node4&#45;&gt;Node5</title>
<path fill="none" stroke="midnightblue" d="M674,-336.083C674,-329.006 674,-318.861 674,-309.986"/>
<polygon fill="midnightblue" stroke="midnightblue" points="677.5,-309.751 674,-299.751 670.5,-309.751 677.5,-309.751"/>
</g>
<!-- Node6 -->
<g id="node6" class="node"><title>Node6</title>
<polygon fill="white" stroke="#bfbfbf" points="480.5,-112.5 480.5,-131.5 533.5,-131.5 533.5,-112.5 480.5,-112.5"/>
<text text-anchor="middle" x="507" y="-119.5" font-family="Helvetica,sans-Serif" font-size="10.00">QMutex</text>
</g>
<!-- Node5&#45;&gt;Node6 -->
<g id="edge5" class="edge"><title>Node5&#45;&gt;Node6</title>
<path fill="none" stroke="midnightblue" d="M656.743,-280.438C627.949,-265.376 569.84,-231.564 535,-188 523.979,-174.219 516.512,-155.445 512.079,-141.616"/>
<polygon fill="midnightblue" stroke="midnightblue" points="515.361,-140.37 509.165,-131.776 508.649,-142.358 515.361,-140.37"/>
</g>
<!-- Node7 -->
<g id="node7" class="node"><title>Node7</title>
<polygon fill="white" stroke="#bfbfbf" points="767.5,-168.5 767.5,-187.5 822.5,-187.5 822.5,-168.5 767.5,-168.5"/>
<text text-anchor="middle" x="795" y="-175.5" font-family="Helvetica,sans-Serif" font-size="10.00">QObject</text>
</g>
<!-- Node5&#45;&gt;Node7 -->
<g id="edge6" class="edge"><title>Node5&#45;&gt;Node7</title>
<path fill="none" stroke="midnightblue" d="M683.495,-280.368C703.905,-261.814 752.196,-217.913 778.019,-194.438"/>
<polygon fill="midnightblue" stroke="midnightblue" points="780.504,-196.908 785.549,-187.591 775.796,-191.728 780.504,-196.908"/>
</g>
<!-- Node8 -->
<g id="node8" class="node"><title>Node8</title>
<g id="a_node8"><a xlink:href="../../d8/dfe/torcreferencecounted_8h.html" target="_top" xlink:title="torcreferencecounted.h">
<polygon fill="white" stroke="black" points="840.5,-168.5 840.5,-187.5 969.5,-187.5 969.5,-168.5 840.5,-168.5"/>
<text text-anchor="middle" x="905" y="-175.5" font-family="Helvetica,sans-Serif" font-size="10.00">torcreferencecounted.h</text>
</a>
</g>
</g>
<!-- Node5&#45;&gt;Node8 -->
<g id="edge7" class="edge"><title>Node5&#45;&gt;Node8</title>
<path fill="none" stroke="midnightblue" d="M692.126,-280.368C732.525,-261.131 830.14,-214.648 877.844,-191.931"/>
<polygon fill="midnightblue" stroke="midnightblue" points="879.434,-195.051 886.958,-187.591 876.425,-188.731 879.434,-195.051"/>
</g>
<!-- Node10 -->
<g id="node10" class="node"><title>Node10</title>
<g id="a_node10"><a xlink:href="../../d3/dee/torchttpservice_8h.html" target="_top" xlink:title="torchttpservice.h">
<polygon fill="white" stroke="black" points="225,-224.5 225,-243.5 323,-243.5 323,-224.5 225,-224.5"/>
<text text-anchor="middle" x="274" y="-231.5" font-family="Helvetica,sans-Serif" font-size="10.00">torchttpservice.h</text>
</a>
</g>
</g>
<!-- Node5&#45;&gt;Node10 -->
<g id="edge9" class="edge"><title>Node5&#45;&gt;Node10</title>
<path fill="none" stroke="midnightblue" d="M635.646,-283.822C565.536,-274.357 416.27,-254.206 333.092,-242.977"/>
<polygon fill="midnightblue" stroke="midnightblue" points="333.418,-239.49 323.04,-241.62 332.482,-246.427 333.418,-239.49"/>
</g>
<!-- Node23 -->
<g id="node23" class="node"><title>Node23</title>
<g id="a_node23"><a xlink:href="../../d1/df7/torcdevice_8h.html" target="_top" xlink:title="torcdevice.h">
<polygon fill="white" stroke="black" points="636.5,-224.5 636.5,-243.5 711.5,-243.5 711.5,-224.5 636.5,-224.5"/>
<text text-anchor="middle" x="674" y="-231.5" font-family="Helvetica,sans-Serif" font-size="10.00">torcdevice.h</text>
</a>
</g>
</g>
<!-- Node5&#45;&gt;Node23 -->
<g id="edge26" class="edge"><title>Node5&#45;&gt;Node23</title>
<path fill="none" stroke="midnightblue" d="M674,-280.083C674,-273.006 674,-262.861 674,-253.986"/>
<polygon fill="midnightblue" stroke="midnightblue" points="677.5,-253.751 674,-243.751 670.5,-253.751 677.5,-253.751"/>
</g>
<!-- Node9 -->
<g id="node9" class="node"><title>Node9</title>
<polygon fill="white" stroke="#bfbfbf" points="870,-112.5 870,-131.5 940,-131.5 940,-112.5 870,-112.5"/>
<text text-anchor="middle" x="905" y="-119.5" font-family="Helvetica,sans-Serif" font-size="10.00">QAtomicInt</text>
</g>
<!-- Node8&#45;&gt;Node9 -->
<g id="edge8" class="edge"><title>Node8&#45;&gt;Node9</title>
<path fill="none" stroke="midnightblue" d="M905,-168.083C905,-161.006 905,-150.861 905,-141.986"/>
<polygon fill="midnightblue" stroke="midnightblue" points="908.5,-141.751 905,-131.751 901.5,-141.751 908.5,-141.751"/>
</g>
<!-- Node10&#45;&gt;Node6 -->
<g id="edge11" class="edge"><title>Node10&#45;&gt;Node6</title>
<path fill="none" stroke="midnightblue" d="M323.354,-226.326C357.76,-220.117 403.8,-208.606 440,-188 461.899,-175.534 481.912,-154.233 494.252,-139.428"/>
<polygon fill="midnightblue" stroke="midnightblue" points="497.031,-141.557 500.587,-131.577 491.584,-137.162 497.031,-141.557"/>
</g>
<!-- Node11 -->
<g id="node11" class="node"><title>Node11</title>
<polygon fill="white" stroke="#bfbfbf" points="0,-56.5 0,-75.5 44,-75.5 44,-56.5 0,-56.5"/>
<text text-anchor="middle" x="22" y="-63.5" font-family="Helvetica,sans-Serif" font-size="10.00">QMap</text>
</g>
<!-- Node10&#45;&gt;Node11 -->
<g id="edge10" class="edge"><title>Node10&#45;&gt;Node11</title>
<path fill="none" stroke="midnightblue" d="M224.914,-229.9C187.625,-225.413 136.674,-214.495 100,-188 63.3196,-161.5 39.508,-111.96 28.7098,-85.2255"/>
<polygon fill="midnightblue" stroke="midnightblue" points="31.8572,-83.6601 24.988,-75.5938 25.3277,-86.1832 31.8572,-83.6601"/>
</g>
<!-- Node12 -->
<g id="node12" class="node"><title>Node12</title>
<polygon fill="white" stroke="#bfbfbf" points="234.5,-168.5 234.5,-187.5 313.5,-187.5 313.5,-168.5 234.5,-168.5"/>
<text text-anchor="middle" x="274" y="-175.5" font-family="Helvetica,sans-Serif" font-size="10.00">QMetaObject</text>
</g>
<!-- Node10&#45;&gt;Node12 -->
<g id="edge12" class="edge"><title>Node10&#45;&gt;Node12</title>
<path fill="none" stroke="midnightblue" d="M274,-224.083C274,-217.006 274,-206.861 274,-197.986"/>
<polygon fill="midnightblue" stroke="midnightblue" points="277.5,-197.751 274,-187.751 270.5,-197.751 277.5,-197.751"/>
</g>
<!-- Node13 -->
<g id="node13" class="node"><title>Node13</title>
<polygon fill="white" stroke="#bfbfbf" points="331.5,-168.5 331.5,-187.5 430.5,-187.5 430.5,-168.5 331.5,-168.5"/>
<text text-anchor="middle" x="381" y="-175.5" font-family="Helvetica,sans-Serif" font-size="10.00">QCoreApplication</text>
</g>
<!-- Node10&#45;&gt;Node13 -->
<g id="edge13" class="edge"><title>Node10&#45;&gt;Node13</title>
<path fill="none" stroke="midnightblue" d="M291.191,-224.324C308.351,-215.664 334.946,-202.242 354.747,-192.249"/>
<polygon fill="midnightblue" stroke="midnightblue" points="356.501,-195.285 363.851,-187.655 353.347,-189.035 356.501,-195.285"/>
</g>
<!-- Node14 -->
<g id="node14" class="node"><title>Node14</title>
<g id="a_node14"><a xlink:href="../../d4/d11/torchttphandler_8h.html" target="_top" xlink:title="torchttphandler.h">
<polygon fill="white" stroke="black" points="117.5,-168.5 117.5,-187.5 216.5,-187.5 216.5,-168.5 117.5,-168.5"/>
<text text-anchor="middle" x="167" y="-175.5" font-family="Helvetica,sans-Serif" font-size="10.00">torchttphandler.h</text>
</a>
</g>
</g>
<!-- Node10&#45;&gt;Node14 -->
<g id="edge14" class="edge"><title>Node10&#45;&gt;Node14</title>
<path fill="none" stroke="midnightblue" d="M256.809,-224.324C239.649,-215.664 213.054,-202.242 193.253,-192.249"/>
<polygon fill="midnightblue" stroke="midnightblue" points="194.653,-189.035 184.149,-187.655 191.499,-195.285 194.653,-189.035"/>
</g>
<!-- Node17 -->
<g id="node17" class="node"><title>Node17</title>
<g id="a_node17"><a xlink:href="../../df/dd7/torchttprequest_8h.html" target="_top" xlink:title="torchttprequest.h">
<polygon fill="white" stroke="black" points="89.5,-112.5 89.5,-131.5 190.5,-131.5 190.5,-112.5 89.5,-112.5"/>
<text text-anchor="middle" x="140" y="-119.5" font-family="Helvetica,sans-Serif" font-size="10.00">torchttprequest.h</text>
</a>
</g>
</g>
<!-- Node10&#45;&gt;Node17 -->
<g id="edge25" class="edge"><title>Node10&#45;&gt;Node17</title>
<path fill="none" stroke="midnightblue" d="M224.99,-226.258C181.627,-219.171 123.103,-206.464 109,-188 97.4542,-172.884 110.581,-152.777 123.132,-138.951"/>
<polygon fill="midnightblue" stroke="midnightblue" points="125.799,-141.229 130.264,-131.621 120.782,-136.347 125.799,-141.229"/>
</g>
<!-- Node15 -->
<g id="node15" class="node"><title>Node15</title>
<polygon fill="white" stroke="#bfbfbf" points="323.5,-56.5 323.5,-75.5 376.5,-75.5 376.5,-56.5 323.5,-56.5"/>
<text text-anchor="middle" x="350" y="-63.5" font-family="Helvetica,sans-Serif" font-size="10.00">QString</text>
</g>
<!-- Node14&#45;&gt;Node15 -->
<g id="edge15" class="edge"><title>Node14&#45;&gt;Node15</title>
<path fill="none" stroke="midnightblue" d="M209.176,-168.426C235.766,-161.6 269.887,-150.119 296,-132 314.193,-119.376 329.705,-99.0425 339.373,-84.4789"/>
<polygon fill="midnightblue" stroke="midnightblue" points="342.429,-86.195 344.851,-75.8808 336.526,-82.4334 342.429,-86.195"/>
</g>
<!-- Node16 -->
<g id="node16" class="node"><title>Node16</title>
<polygon fill="white" stroke="#bfbfbf" points="209,-112.5 209,-131.5 287,-131.5 287,-112.5 209,-112.5"/>
<text text-anchor="middle" x="248" y="-119.5" font-family="Helvetica,sans-Serif" font-size="10.00">QVariantMap</text>
</g>
<!-- Node14&#45;&gt;Node16 -->
<g id="edge16" class="edge"><title>Node14&#45;&gt;Node16</title>
<path fill="none" stroke="midnightblue" d="M180.014,-168.324C192.532,-159.979 211.682,-147.212 226.471,-137.352"/>
<polygon fill="midnightblue" stroke="midnightblue" points="228.639,-140.114 235.018,-131.655 224.756,-134.289 228.639,-140.114"/>
</g>
<!-- Node14&#45;&gt;Node17 -->
<g id="edge17" class="edge"><title>Node14&#45;&gt;Node17</title>
<path fill="none" stroke="midnightblue" d="M162.541,-168.083C158.846,-160.691 153.477,-149.953 148.906,-140.811"/>
<polygon fill="midnightblue" stroke="midnightblue" points="151.978,-139.13 144.376,-131.751 145.717,-142.261 151.978,-139.13"/>
</g>
<!-- Node17&#45;&gt;Node11 -->
<g id="edge18" class="edge"><title>Node17&#45;&gt;Node11</title>
<path fill="none" stroke="midnightblue" d="M121.303,-112.444C102.056,-103.636 71.8475,-89.8116 49.7999,-79.722"/>
<polygon fill="midnightblue" stroke="midnightblue" points="51.1595,-76.4951 40.61,-75.5164 48.2466,-82.8603 51.1595,-76.4951"/>
</g>
<!-- Node17&#45;&gt;Node15 -->
<g id="edge20" class="edge"><title>Node17&#45;&gt;Node15</title>
<path fill="none" stroke="midnightblue" d="M173.275,-112.444C211.47,-102.622 273.919,-86.5637 313.442,-76.4007"/>
<polygon fill="midnightblue" stroke="midnightblue" points="314.398,-79.7688 323.211,-73.8886 312.654,-72.9894 314.398,-79.7688"/>
</g>
<!-- Node18 -->
<g id="node18" class="node"><title>Node18</title>
<polygon fill="white" stroke="#bfbfbf" points="264.5,-56.5 264.5,-75.5 305.5,-75.5 305.5,-56.5 264.5,-56.5"/>
<text text-anchor="middle" x="285" y="-63.5" font-family="Helvetica,sans-Serif" font-size="10.00">QPair</text>
</g>
<!-- Node17&#45;&gt;Node18 -->
<g id="edge19" class="edge"><title>Node17&#45;&gt;Node18</title>
<path fill="none" stroke="midnightblue" d="M162.976,-112.444C187.868,-103.173 227.681,-88.3464 255.019,-78.1652"/>
<polygon fill="midnightblue" stroke="midnightblue" points="256.327,-81.4133 264.476,-74.6433 253.883,-74.8534 256.327,-81.4133"/>
</g>
<!-- Node19 -->
<g id="node19" class="node"><title>Node19</title>
<polygon fill="white" stroke="#bfbfbf" points="62.5,-56.5 62.5,-75.5 133.5,-75.5 133.5,-56.5 62.5,-56.5"/>
<text text-anchor="middle" x="98" y="-63.5" font-family="Helvetica,sans-Serif" font-size="10.00">QDateTime</text>
</g>
<!-- Node17&#45;&gt;Node19 -->
<g id="edge21" class="edge"><title>Node17&#45;&gt;Node19</title>
<path fill="none" stroke="midnightblue" d="M133.065,-112.083C127.071,-104.377 118.248,-93.0333 110.952,-83.6531"/>
<polygon fill="midnightblue" stroke="midnightblue" points="113.709,-81.4958 104.806,-75.7511 108.183,-85.7934 113.709,-81.4958"/>
</g>
<!-- Node20 -->
<g id="node20" class="node"><title>Node20</title>
<g id="a_node20"><a xlink:href="../../de/de6/torchttpreader_8h.html" target="_top" xlink:title="torchttpreader.h">
<polygon fill="white" stroke="black" points="151.5,-56.5 151.5,-75.5 246.5,-75.5 246.5,-56.5 151.5,-56.5"/>
<text text-anchor="middle" x="199" y="-63.5" font-family="Helvetica,sans-Serif" font-size="10.00">torchttpreader.h</text>
</a>
</g>
</g>
<!-- Node17&#45;&gt;Node20 -->
<g id="edge22" class="edge"><title>Node17&#45;&gt;Node20</title>
<path fill="none" stroke="midnightblue" d="M149.479,-112.324C158.201,-104.341 171.343,-92.3128 181.898,-82.6529"/>
<polygon fill="midnightblue" stroke="midnightblue" points="184.334,-85.1674 189.348,-75.8339 179.608,-80.0036 184.334,-85.1674"/>
</g>
<!-- Node21 -->
<g id="node21" class="node"><title>Node21</title>
<polygon fill="white" stroke="#bfbfbf" points="118.5,-0.5 118.5,-19.5 189.5,-19.5 189.5,-0.5 118.5,-0.5"/>
<text text-anchor="middle" x="154" y="-7.5" font-family="Helvetica,sans-Serif" font-size="10.00">QByteArray</text>
</g>
<!-- Node20&#45;&gt;Node21 -->
<g id="edge23" class="edge"><title>Node20&#45;&gt;Node21</title>
<path fill="none" stroke="midnightblue" d="M191.569,-56.083C185.147,-48.3768 175.694,-37.0333 167.878,-27.6531"/>
<polygon fill="midnightblue" stroke="midnightblue" points="170.383,-25.1927 161.293,-19.7511 165.006,-29.674 170.383,-25.1927"/>
</g>
<!-- Node22 -->
<g id="node22" class="node"><title>Node22</title>
<polygon fill="white" stroke="#bfbfbf" points="208,-0.5 208,-19.5 280,-19.5 280,-0.5 208,-0.5"/>
<text text-anchor="middle" x="244" y="-7.5" font-family="Helvetica,sans-Serif" font-size="10.00">QTcpSocket</text>
</g>
<!-- Node20&#45;&gt;Node22 -->
<g id="edge24" class="edge"><title>Node20&#45;&gt;Node22</title>
<path fill="none" stroke="midnightblue" d="M206.431,-56.083C212.853,-48.3768 222.306,-37.0333 230.122,-27.6531"/>
<polygon fill="midnightblue" stroke="midnightblue" points="232.994,-29.674 236.707,-19.7511 227.617,-25.1927 232.994,-29.674"/>
</g>
<!-- Node23&#45;&gt;Node6 -->
<g id="edge28" class="edge"><title>Node23&#45;&gt;Node6</title>
<path fill="none" stroke="midnightblue" d="M638.933,-224.463C614.841,-217.414 583,-205.666 559,-188 541.433,-175.07 526.504,-154.791 517.21,-140.324"/>
<polygon fill="midnightblue" stroke="midnightblue" points="520.175,-138.464 511.944,-131.792 514.218,-142.14 520.175,-138.464"/>
</g>
<!-- Node23&#45;&gt;Node7 -->
<g id="edge30" class="edge"><title>Node23&#45;&gt;Node7</title>
<path fill="none" stroke="midnightblue" d="M693.173,-224.444C712.909,-215.636 743.885,-201.812 766.493,-191.722"/>
<polygon fill="midnightblue" stroke="midnightblue" points="768.211,-194.788 775.917,-187.516 765.359,-188.396 768.211,-194.788"/>
</g>
<!-- Node23&#45;&gt;Node8 -->
<g id="edge31" class="edge"><title>Node23&#45;&gt;Node8</title>
<path fill="none" stroke="midnightblue" d="M710.603,-224.444C750.731,-215.063 815.198,-199.993 858.785,-189.804"/>
<polygon fill="midnightblue" stroke="midnightblue" points="859.628,-193.201 868.569,-187.516 858.034,-186.385 859.628,-193.201"/>
</g>
<!-- Node23&#45;&gt;Node15 -->
<g id="edge29" class="edge"><title>Node23&#45;&gt;Node15</title>
<path fill="none" stroke="midnightblue" d="M651.92,-224.478C634.244,-216.863 609.585,-204.383 592,-188 562.594,-160.605 575.858,-135.142 543,-112 496.033,-78.922 428.233,-69.8496 386.753,-67.5401"/>
<polygon fill="midnightblue" stroke="midnightblue" points="386.698,-64.0341 376.551,-67.0793 386.383,-71.027 386.698,-64.0341"/>
</g>
<!-- Node24 -->
<g id="node24" class="node"><title>Node24</title>
<polygon fill="white" stroke="#bfbfbf" points="709.5,-112.5 709.5,-131.5 758.5,-131.5 758.5,-112.5 709.5,-112.5"/>
<text text-anchor="middle" x="734" y="-119.5" font-family="Helvetica,sans-Serif" font-size="10.00">QHash</text>
</g>
<!-- Node23&#45;&gt;Node24 -->
<g id="edge27" class="edge"><title>Node23&#45;&gt;Node24</title>
<path fill="none" stroke="midnightblue" d="M686.13,-224.435C696.729,-216.288 711.687,-203.063 720,-188 727.93,-173.63 731.37,-155.17 732.861,-141.598"/>
<polygon fill="midnightblue" stroke="midnightblue" points="736.357,-141.802 733.711,-131.543 729.381,-141.212 736.357,-141.802"/>
</g>
<!-- Node25 -->
<g id="node25" class="node"><title>Node25</title>
<g id="a_node25"><a xlink:href="../../d2/d5b/torcdevicehandler_8h.html" target="_top" xlink:title="torcdevicehandler.h">
<polygon fill="white" stroke="black" points="601,-168.5 601,-187.5 711,-187.5 711,-168.5 601,-168.5"/>
<text text-anchor="middle" x="656" y="-175.5" font-family="Helvetica,sans-Serif" font-size="10.00">torcdevicehandler.h</text>
</a>
</g>
</g>
<!-- Node23&#45;&gt;Node25 -->
<g id="edge32" class="edge"><title>Node23&#45;&gt;Node25</title>
<path fill="none" stroke="midnightblue" d="M671.028,-224.083C668.616,-216.849 665.136,-206.409 662.132,-197.397"/>
<polygon fill="midnightblue" stroke="midnightblue" points="665.4,-196.131 658.917,-187.751 658.759,-198.345 665.4,-196.131"/>
</g>
<!-- Node25&#45;&gt;Node6 -->
<g id="edge34" class="edge"><title>Node25&#45;&gt;Node6</title>
<path fill="none" stroke="midnightblue" d="M632.391,-168.444C607.542,-159.438 568.226,-145.189 540.246,-135.049"/>
<polygon fill="midnightblue" stroke="midnightblue" points="541.093,-131.633 530.499,-131.516 538.708,-138.214 541.093,-131.633"/>
</g>
<!-- Node25&#45;&gt;Node24 -->
<g id="edge33" class="edge"><title>Node25&#45;&gt;Node24</title>
<path fill="none" stroke="midnightblue" d="M668.532,-168.324C680.586,-159.979 699.027,-147.212 713.269,-137.352"/>
<polygon fill="midnightblue" stroke="midnightblue" points="715.269,-140.224 721.499,-131.655 711.285,-134.469 715.269,-140.224"/>
</g>
<!-- Node26 -->
<g id="node26" class="node"><title>Node26</title>
<polygon fill="white" stroke="#bfbfbf" points="627,-112.5 627,-131.5 685,-131.5 685,-112.5 627,-112.5"/>
<text text-anchor="middle" x="656" y="-119.5" font-family="Helvetica,sans-Serif" font-size="10.00">QVariant</text>
</g>
<!-- Node25&#45;&gt;Node26 -->
<g id="edge35" class="edge"><title>Node25&#45;&gt;Node26</title>
<path fill="none" stroke="midnightblue" d="M656,-168.083C656,-161.006 656,-150.861 656,-141.986"/>
<polygon fill="midnightblue" stroke="midnightblue" points="659.5,-141.751 656,-131.751 652.5,-141.751 659.5,-141.751"/>
</g>
</g>
</svg>
        <g id="navigator" transform="translate(0 0)" fill="#404254">
                <rect fill="#f2f5e9" fill-opacity="0.5" stroke="#606060" stroke-width=".5" x="0" y="0" width="60" height="60"/>
                <use id="zoomplus" xlink:href="#zoomPlus" x="17" y="9" onmousedown="handleZoom(evt,'in')"/>
                <use id="zoomminus" xlink:href="#zoomMin" x="42" y="9" onmousedown="handleZoom(evt,'out')"/>
                <use id="reset" xlink:href="#resetDef" x="30" y="36" onmousedown="handleReset()"/>
                <g id="arrowUp" xlink:href="#dirArrow" transform="translate(30 24)" onmousedown="handlePan(0,-1)">
                  <use xlink:href="#rim" fill="#404040">
                        <set attributeName="fill" to="#808080" begin="arrowUp.mouseover" end="arrowUp.mouseout"/>
                  </use>
                  <path fill="none" stroke="white" stroke-width="1.5" d="M0,-3.0v7 M-2.5,-0.5L0,-3.0L2.5,-0.5"/>
                </g>
                <g id="arrowRight" xlink:href="#dirArrow" transform="rotate(90) translate(36 -43)" onmousedown="handlePan(1,0)">
                  <use xlink:href="#rim" fill="#404040">
                        <set attributeName="fill" to="#808080" begin="arrowRight.mouseover" end="arrowRight.mouseout"/>
                  </use>
                  <path fill="none" stroke="white" stroke-width="1.5" d="M0,-3.0v7 M-2.5,-0.5L0,-3.0L2.5,-0.5"/>
                </g>
                <g id="arrowDown" xlink:href="#dirArrow" transform="rotate(180) translate(-30 -48)" onmousedown="handlePan(0,1)">
                  <use xlink:href="#rim" fill="#404040">
                        <set attributeName="fill" to="#808080" begin="arrowDown.mouseover" end="arrowDown.mouseout"/>
                  </use>
                  <path fill="none" stroke="white" stroke-width="1.5" d="M0,-3.0v7 M-2.5,-0.5L0,-3.0L2.5,-0.5"/>
                </g>
                <g id="arrowLeft" xlink:href="#dirArrow" transform="rotate(270) translate(-36 17)" onmousedown="handlePan(-1,0)">
                  <use xlink:href="#rim" fill="#404040">
                        <set attributeName="fill" to="#808080" begin="arrowLeft.mouseover" end="arrowLeft.mouseout"/>
                  </use>
                  <path fill="none" stroke="white" stroke-width="1.5" d="M0,-3.0v7 M-2.5,-0.5L0,-3.0L2.5,-0.5"/>
                </g>
        </g>
        <svg viewBox="0 0 15 15" width="100%" height="30px" preserveAspectRatio="xMaxYMin meet">
         <g id="arrow_out" transform="scale(0.3 0.3)">
          <a xlink:href="torcnetworkbuttonoutput_8h__incl_org.svg" target="_base">
           <rect id="button" ry="5" rx="5" y="6" x="6" height="38" width="38"
                fill="#f2f5e9" fill-opacity="0.5" stroke="#606060" stroke-width="1.0"/>
           <path id="arrow"
             d="M 11.500037,31.436501 C 11.940474,20.09759 22.043105,11.32322 32.158766,21.979434 L 37.068811,17.246167 C 37.068811,17.246167 37.088388,32 37.088388,32 L 22.160133,31.978069 C 22.160133,31.978069 26.997745,27.140456 26.997745,27.140456 C 18.528582,18.264221 13.291696,25.230495 11.500037,31.436501 z"
             style="fill:#404040;"/>
          </a>
         </g>
        </svg>
</svg>
