<?xml version="1.0" encoding="UTF-8" standalone="no"?>
<!DOCTYPE svg PUBLIC "-//W3C//DTD SVG 1.1//EN"
 "http://www.w3.org/Graphics/SVG/1.1/DTD/svg11.dtd">
<!-- Generated by graphviz version 2.38.0 (20140413.2041)
 -->
<!-- Title: torctimer.h Pages: 1 -->
<svg width="1730pt" height="196pt"
 viewBox="0.00 0.00 1729.50 196.00" xmlns="http://www.w3.org/2000/svg" xmlns:xlink="http://www.w3.org/1999/xlink">
<g id="graph0" class="graph" transform="scale(1 1) rotate(0) translate(4 192)">
<title>torctimer.h</title>
<polygon fill="white" stroke="none" points="-4,4 -4,-192 1725.5,-192 1725.5,4 -4,4"/>
<!-- Node1 -->
<g id="node1" class="node"><title>Node1</title>
<polygon fill="#bfbfbf" stroke="black" points="1056,-168.5 1056,-187.5 1125,-187.5 1125,-168.5 1056,-168.5"/>
<text text-anchor="middle" x="1090.5" y="-175.5" font-family="Helvetica,sans-Serif" font-size="10.00">torctimer.h</text>
</g>
<!-- Node2 -->
<g id="node2" class="node"><title>Node2</title>
<g id="a_node2"><a xlink:href="../../da/da5/torcnetwork_8h.html" target="_top" xlink:title="torcnetwork.h">
<polygon fill="white" stroke="black" points="1000.5,-112.5 1000.5,-131.5 1082.5,-131.5 1082.5,-112.5 1000.5,-112.5"/>
<text text-anchor="middle" x="1041.5" y="-119.5" font-family="Helvetica,sans-Serif" font-size="10.00">torcnetwork.h</text>
</a>
</g>
</g>
<!-- Node1&#45;&gt;Node2 -->
<g id="edge1" class="edge"><title>Node1&#45;&gt;Node2</title>
<path fill="none" stroke="midnightblue" d="M1075.47,-160.431C1066.88,-150.967 1056.46,-139.483 1049.44,-131.751"/>
<polygon fill="midnightblue" stroke="midnightblue" points="1073.1,-163.029 1082.41,-168.083 1078.28,-158.325 1073.1,-163.029"/>
</g>
<!-- Node19 -->
<g id="node19" class="node"><title>Node19</title>
<g id="a_node19"><a xlink:href="../../d1/dde/torctimer_8cpp.html" target="_top" xlink:title="torctimer.cpp">
<polygon fill="white" stroke="black" points="1100.5,-112.5 1100.5,-131.5 1180.5,-131.5 1180.5,-112.5 1100.5,-112.5"/>
<text text-anchor="middle" x="1140.5" y="-119.5" font-family="Helvetica,sans-Serif" font-size="10.00">torctimer.cpp</text>
</a>
</g>
</g>
<!-- Node1&#45;&gt;Node19 -->
<g id="edge20" class="edge"><title>Node1&#45;&gt;Node19</title>
<path fill="none" stroke="midnightblue" d="M1105.58,-160.718C1114.39,-151.2 1125.17,-139.561 1132.4,-131.751"/>
<polygon fill="midnightblue" stroke="midnightblue" points="1102.98,-158.367 1098.76,-168.083 1108.12,-163.123 1102.98,-158.367"/>
</g>
<!-- Node3 -->
<g id="node3" class="node"><title>Node3</title>
<g id="a_node3"><a xlink:href="../../db/d31/torciotlogger_8cpp.html" target="_top" xlink:title="torciotlogger.cpp">
<polygon fill="white" stroke="black" points="0,-56.5 0,-75.5 97,-75.5 97,-56.5 0,-56.5"/>
<text text-anchor="middle" x="48.5" y="-63.5" font-family="Helvetica,sans-Serif" font-size="10.00">torciotlogger.cpp</text>
</a>
</g>
</g>
<!-- Node2&#45;&gt;Node3 -->
<g id="edge2" class="edge"><title>Node2&#45;&gt;Node3</title>
<path fill="none" stroke="midnightblue" d="M990.216,-120.487C848.855,-118.653 441.797,-110.531 105.5,-76 102.809,-75.7237 100.052,-75.4056 97.2721,-75.0575"/>
<polygon fill="midnightblue" stroke="midnightblue" points="990.282,-123.988 1000.32,-120.614 990.369,-116.989 990.282,-123.988"/>
</g>
<!-- Node4 -->
<g id="node4" class="node"><title>Node4</title>
<g id="a_node4"><a xlink:href="../../d6/da0/torciotplotternotifier_8cpp.html" target="_top" xlink:title="torciotplotternotifier.cpp">
<polygon fill="white" stroke="black" points="115,-56.5 115,-75.5 246,-75.5 246,-56.5 115,-56.5"/>
<text text-anchor="middle" x="180.5" y="-63.5" font-family="Helvetica,sans-Serif" font-size="10.00">torciotplotternotifier.cpp</text>
</a>
</g>
</g>
<!-- Node2&#45;&gt;Node4 -->
<g id="edge3" class="edge"><title>Node2&#45;&gt;Node4</title>
<path fill="none" stroke="midnightblue" d="M989.998,-119.162C864.314,-114.434 531.94,-100.476 255.5,-76 252.495,-75.734 249.425,-75.4431 246.326,-75.134"/>
<polygon fill="midnightblue" stroke="midnightblue" points="989.978,-122.663 1000.1,-119.539 990.239,-115.668 989.978,-122.663"/>
</g>
<!-- Node5 -->
<g id="node5" class="node"><title>Node5</title>
<g id="a_node5"><a xlink:href="../../d1/d3e/torcthingspeaknotifier_8cpp.html" target="_top" xlink:title="torcthingspeaknotifier.cpp">
<polygon fill="white" stroke="black" points="264.5,-56.5 264.5,-75.5 404.5,-75.5 404.5,-56.5 264.5,-56.5"/>
<text text-anchor="middle" x="334.5" y="-63.5" font-family="Helvetica,sans-Serif" font-size="10.00">torcthingspeaknotifier.cpp</text>
</a>
</g>
</g>
<!-- Node2&#45;&gt;Node5 -->
<g id="edge4" class="edge"><title>Node2&#45;&gt;Node5</title>
<path fill="none" stroke="midnightblue" d="M990.087,-118.048C882.81,-111.727 627.325,-95.8321 413.5,-76 410.614,-75.7323 407.669,-75.4479 404.695,-75.1515"/>
<polygon fill="midnightblue" stroke="midnightblue" points="990.116,-121.556 1000.3,-118.647 990.526,-114.568 990.116,-121.556"/>
</g>
<!-- Node6 -->
<g id="node6" class="node"><title>Node6</title>
<g id="a_node6"><a xlink:href="../../d6/dda/torchtmlstaticcontent_8cpp.html" target="_top" xlink:title="torchtmlstaticcontent.cpp">
<polygon fill="white" stroke="black" points="422.5,-56.5 422.5,-75.5 562.5,-75.5 562.5,-56.5 422.5,-56.5"/>
<text text-anchor="middle" x="492.5" y="-63.5" font-family="Helvetica,sans-Serif" font-size="10.00">torchtmlstaticcontent.cpp</text>
</a>
</g>
</g>
<!-- Node2&#45;&gt;Node6 -->
<g id="edge5" class="edge"><title>Node2&#45;&gt;Node6</title>
<path fill="none" stroke="midnightblue" d="M990.23,-116.395C903.812,-108.566 723.674,-91.9517 571.5,-76 568.617,-75.6978 565.675,-75.3846 562.704,-75.0642"/>
<polygon fill="midnightblue" stroke="midnightblue" points="990.021,-119.891 1000.3,-117.306 990.652,-112.919 990.021,-119.891"/>
</g>
<!-- Node7 -->
<g id="node7" class="node"><title>Node7</title>
<g id="a_node7"><a xlink:href="../../de/dc5/torchttpserver_8cpp.html" target="_top" xlink:title="torchttpserver.cpp">
<polygon fill="white" stroke="black" points="580.5,-56.5 580.5,-75.5 684.5,-75.5 684.5,-56.5 580.5,-56.5"/>
<text text-anchor="middle" x="632.5" y="-63.5" font-family="Helvetica,sans-Serif" font-size="10.00">torchttpserver.cpp</text>
</a>
</g>
</g>
<!-- Node2&#45;&gt;Node7 -->
<g id="edge6" class="edge"><title>Node2&#45;&gt;Node7</title>
<path fill="none" stroke="midnightblue" d="M990.487,-114.693C922.633,-106.239 798.969,-90.5984 693.5,-76 690.637,-75.6037 687.699,-75.1909 684.735,-74.7695"/>
<polygon fill="midnightblue" stroke="midnightblue" points="990.13,-118.176 1000.49,-115.938 990.994,-111.229 990.13,-118.176"/>
</g>
<!-- Node8 -->
<g id="node8" class="node"><title>Node8</title>
<g id="a_node8"><a xlink:href="../../de/d4e/torchttpserverlistener_8cpp.html" target="_top" xlink:title="torchttpserverlistener.cpp">
<polygon fill="white" stroke="black" points="702.5,-56.5 702.5,-75.5 842.5,-75.5 842.5,-56.5 702.5,-56.5"/>
<text text-anchor="middle" x="772.5" y="-63.5" font-family="Helvetica,sans-Serif" font-size="10.00">torchttpserverlistener.cpp</text>
</a>
</g>
</g>
<!-- Node2&#45;&gt;Node8 -->
<g id="edge7" class="edge"><title>Node2&#45;&gt;Node8</title>
<path fill="none" stroke="midnightblue" d="M990.239,-110.71C939.424,-100.509 862.485,-85.064 814.976,-75.5268"/>
<polygon fill="midnightblue" stroke="midnightblue" points="989.859,-114.203 1000.35,-112.74 991.236,-107.34 989.859,-114.203"/>
</g>
<!-- Node9 -->
<g id="node9" class="node"><title>Node9</title>
<g id="a_node9"><a xlink:href="../../d1/d77/torchttpservice_8cpp.html" target="_top" xlink:title="torchttpservice.cpp">
<polygon fill="white" stroke="black" points="861,-56.5 861,-75.5 970,-75.5 970,-56.5 861,-56.5"/>
<text text-anchor="middle" x="915.5" y="-63.5" font-family="Helvetica,sans-Serif" font-size="10.00">torchttpservice.cpp</text>
</a>
</g>
</g>
<!-- Node2&#45;&gt;Node9 -->
<g id="edge8" class="edge"><title>Node2&#45;&gt;Node9</title>
<path fill="none" stroke="midnightblue" d="M1012.34,-108.503C988.719,-98.3795 956.072,-84.388 935.372,-75.5164"/>
<polygon fill="midnightblue" stroke="midnightblue" points="1010.96,-111.721 1021.53,-112.444 1013.72,-105.287 1010.96,-111.721"/>
</g>
<!-- Node10 -->
<g id="node10" class="node"><title>Node10</title>
<g id="a_node10"><a xlink:href="../../db/d78/torcwebsocket_8cpp.html" target="_top" xlink:title="torcwebsocket.cpp">
<polygon fill="white" stroke="black" points="988.5,-56.5 988.5,-75.5 1094.5,-75.5 1094.5,-56.5 988.5,-56.5"/>
<text text-anchor="middle" x="1041.5" y="-63.5" font-family="Helvetica,sans-Serif" font-size="10.00">torcwebsocket.cpp</text>
</a>
</g>
</g>
<!-- Node2&#45;&gt;Node10 -->
<g id="edge9" class="edge"><title>Node2&#45;&gt;Node10</title>
<path fill="none" stroke="midnightblue" d="M1041.5,-101.805C1041.5,-92.9102 1041.5,-82.7798 1041.5,-75.7511"/>
<polygon fill="midnightblue" stroke="midnightblue" points="1038,-102.083 1041.5,-112.083 1045,-102.083 1038,-102.083"/>
</g>
<!-- Node11 -->
<g id="node11" class="node"><title>Node11</title>
<g id="a_node11"><a xlink:href="../../dc/d96/torcbonjour_8cpp.html" target="_top" xlink:title="torcbonjour.cpp">
<polygon fill="white" stroke="black" points="1113,-56.5 1113,-75.5 1204,-75.5 1204,-56.5 1113,-56.5"/>
<text text-anchor="middle" x="1158.5" y="-63.5" font-family="Helvetica,sans-Serif" font-size="10.00">torcbonjour.cpp</text>
</a>
</g>
</g>
<!-- Node2&#45;&gt;Node11 -->
<g id="edge10" class="edge"><title>Node2&#45;&gt;Node11</title>
<path fill="none" stroke="midnightblue" d="M1069.16,-108.232C1091.05,-98.1312 1121,-84.3091 1140.05,-75.5164"/>
<polygon fill="midnightblue" stroke="midnightblue" points="1067.65,-105.075 1060.04,-112.444 1070.59,-111.431 1067.65,-105.075"/>
</g>
<!-- Node12 -->
<g id="node12" class="node"><title>Node12</title>
<g id="a_node12"><a xlink:href="../../db/d18/torcnetworkrequest_8h.html" target="_top" xlink:title="torcnetworkrequest.h">
<polygon fill="white" stroke="black" points="1222,-56.5 1222,-75.5 1341,-75.5 1341,-56.5 1222,-56.5"/>
<text text-anchor="middle" x="1281.5" y="-63.5" font-family="Helvetica,sans-Serif" font-size="10.00">torcnetworkrequest.h</text>
</a>
</g>
</g>
<!-- Node2&#45;&gt;Node12 -->
<g id="edge11" class="edge"><title>Node2&#45;&gt;Node12</title>
<path fill="none" stroke="midnightblue" d="M1084.17,-110.153C1127.76,-99.95 1194.89,-84.8809 1238.57,-75.5164"/>
<polygon fill="midnightblue" stroke="midnightblue" points="1083.37,-106.746 1074.44,-112.444 1084.98,-113.56 1083.37,-106.746"/>
</g>
<!-- Node14 -->
<g id="node14" class="node"><title>Node14</title>
<g id="a_node14"><a xlink:href="../../de/d48/torcnetworkedcontext_8cpp.html" target="_top" xlink:title="torcnetworkedcontext.cpp">
<polygon fill="white" stroke="black" points="1332,-0.5 1332,-19.5 1473,-19.5 1473,-0.5 1332,-0.5"/>
<text text-anchor="middle" x="1402.5" y="-7.5" font-family="Helvetica,sans-Serif" font-size="10.00">torcnetworkedcontext.cpp</text>
</a>
</g>
</g>
<!-- Node2&#45;&gt;Node14 -->
<g id="edge17" class="edge"><title>Node2&#45;&gt;Node14</title>
<path fill="none" stroke="midnightblue" d="M1092.64,-111.963C1208.67,-95.8033 1252.24,-131.881 1350.5,-76 1373.87,-62.7121 1390.73,-34.4201 1398.2,-19.9415"/>
<polygon fill="midnightblue" stroke="midnightblue" points="1092.05,-108.512 1082.68,-113.453 1093.09,-115.435 1092.05,-108.512"/>
</g>
<!-- Node16 -->
<g id="node16" class="node"><title>Node16</title>
<g id="a_node16"><a xlink:href="../../da/d9c/torcnetwork_8cpp.html" target="_top" xlink:title="torcnetwork.cpp">
<polygon fill="white" stroke="black" points="1398,-56.5 1398,-75.5 1491,-75.5 1491,-56.5 1398,-56.5"/>
<text text-anchor="middle" x="1444.5" y="-63.5" font-family="Helvetica,sans-Serif" font-size="10.00">torcnetwork.cpp</text>
</a>
</g>
</g>
<!-- Node2&#45;&gt;Node16 -->
<g id="edge16" class="edge"><title>Node2&#45;&gt;Node16</title>
<path fill="none" stroke="midnightblue" d="M1092.6,-111.904C1222.46,-92.4544 1257.09,-93.1159 1383.5,-76 1388.17,-75.368 1393.03,-74.6874 1397.89,-73.9936"/>
<polygon fill="midnightblue" stroke="midnightblue" points="1092.04,-108.45 1082.67,-113.403 1093.08,-115.371 1092.04,-108.45"/>
</g>
<!-- Node17 -->
<g id="node17" class="node"><title>Node17</title>
<g id="a_node17"><a xlink:href="../../d9/de1/torcssdp_8cpp.html" target="_top" xlink:title="torcssdp.cpp">
<polygon fill="white" stroke="black" points="1509.5,-56.5 1509.5,-75.5 1587.5,-75.5 1587.5,-56.5 1509.5,-56.5"/>
<text text-anchor="middle" x="1548.5" y="-63.5" font-family="Helvetica,sans-Serif" font-size="10.00">torcssdp.cpp</text>
</a>
</g>
</g>
<!-- Node2&#45;&gt;Node17 -->
<g id="edge18" class="edge"><title>Node2&#45;&gt;Node17</title>
<path fill="none" stroke="midnightblue" d="M1092.8,-111.945C1274.12,-88.2704 1322.98,-100.395 1500.5,-76 1503.36,-75.6075 1506.3,-75.1606 1509.26,-74.6805"/>
<polygon fill="midnightblue" stroke="midnightblue" points="1092.11,-108.506 1082.65,-113.288 1093.03,-115.445 1092.11,-108.506"/>
</g>
<!-- Node18 -->
<g id="node18" class="node"><title>Node18</title>
<g id="a_node18"><a xlink:href="../../d9/db2/torcupnpcontent_8cpp.html" target="_top" xlink:title="torcupnpcontent.cpp">
<polygon fill="white" stroke="black" points="1605.5,-56.5 1605.5,-75.5 1721.5,-75.5 1721.5,-56.5 1605.5,-56.5"/>
<text text-anchor="middle" x="1663.5" y="-63.5" font-family="Helvetica,sans-Serif" font-size="10.00">torcupnpcontent.cpp</text>
</a>
</g>
</g>
<!-- Node2&#45;&gt;Node18 -->
<g id="edge19" class="edge"><title>Node2&#45;&gt;Node18</title>
<path fill="none" stroke="midnightblue" d="M1092.74,-111.978C1316.5,-84.4592 1375.94,-98.6528 1596.5,-76 1599.42,-75.7002 1602.41,-75.3732 1605.42,-75.027"/>
<polygon fill="midnightblue" stroke="midnightblue" points="1092.14,-108.526 1082.65,-113.234 1093,-115.472 1092.14,-108.526"/>
</g>
<!-- Node12&#45;&gt;Node2 -->
<g id="edge13" class="edge"><title>Node12&#45;&gt;Node2</title>
<path fill="none" stroke="midnightblue" d="M1238.65,-77.8871C1194.48,-88.2263 1126.25,-103.536 1082.69,-112.857"/>
<polygon fill="midnightblue" stroke="midnightblue" points="1239.58,-81.2639 1248.52,-75.5666 1237.98,-74.45 1239.58,-81.2639"/>
</g>
<!-- Node13 -->
<g id="node13" class="node"><title>Node13</title>
<g id="a_node13"><a xlink:href="../../df/dc4/torcpushbulletnotifier_8cpp.html" target="_top" xlink:title="torcpushbulletnotifier.cpp">
<polygon fill="white" stroke="black" points="1028,-0.5 1028,-19.5 1165,-19.5 1165,-0.5 1028,-0.5"/>
<text text-anchor="middle" x="1096.5" y="-7.5" font-family="Helvetica,sans-Serif" font-size="10.00">torcpushbulletnotifier.cpp</text>
</a>
</g>
</g>
<!-- Node12&#45;&gt;Node13 -->
<g id="edge12" class="edge"><title>Node12&#45;&gt;Node13</title>
<path fill="none" stroke="midnightblue" d="M1242.33,-53.5677C1207.43,-43.381 1157.15,-28.7034 1125.68,-19.5164"/>
<polygon fill="midnightblue" stroke="midnightblue" points="1241.61,-57.0013 1252.19,-56.4435 1243.57,-50.2817 1241.61,-57.0013"/>
</g>
<!-- Node12&#45;&gt;Node14 -->
<g id="edge14" class="edge"><title>Node12&#45;&gt;Node14</title>
<path fill="none" stroke="midnightblue" d="M1309.81,-52.3678C1332.47,-42.2553 1363.63,-28.3486 1383.42,-19.5164"/>
<polygon fill="midnightblue" stroke="midnightblue" points="1308.38,-49.1719 1300.67,-56.4435 1311.23,-55.5643 1308.38,-49.1719"/>
</g>
<!-- Node15 -->
<g id="node15" class="node"><title>Node15</title>
<g id="a_node15"><a xlink:href="../../d8/dcb/torcnetworkrequest_8cpp.html" target="_top" xlink:title="torcnetworkrequest.cpp">
<polygon fill="white" stroke="black" points="1183.5,-0.5 1183.5,-19.5 1313.5,-19.5 1313.5,-0.5 1183.5,-0.5"/>
<text text-anchor="middle" x="1248.5" y="-7.5" font-family="Helvetica,sans-Serif" font-size="10.00">torcnetworkrequest.cpp</text>
</a>
</g>
</g>
<!-- Node12&#45;&gt;Node15 -->
<g id="edge15" class="edge"><title>Node12&#45;&gt;Node15</title>
<path fill="none" stroke="midnightblue" d="M1270.67,-47.2747C1265.03,-38.0454 1258.38,-27.1703 1253.85,-19.7511"/>
<polygon fill="midnightblue" stroke="midnightblue" points="1267.85,-49.3753 1276.05,-56.083 1273.82,-45.7251 1267.85,-49.3753"/>
</g>
</g>
</svg>
