<?xml version="1.0" encoding="UTF-8" standalone="no"?>
<!DOCTYPE svg PUBLIC "-//W3C//DTD SVG 1.1//EN"
 "http://www.w3.org/Graphics/SVG/1.1/DTD/svg11.dtd">
<!-- Generated by graphviz version 2.38.0 (20140413.2041)
 -->
<!-- Title: torctemperatureinput.h Pages: 1 -->
<svg width="590pt" height="140pt"
 viewBox="0.00 0.00 590.00 140.00" xmlns="http://www.w3.org/2000/svg" xmlns:xlink="http://www.w3.org/1999/xlink">
<g id="graph0" class="graph" transform="scale(1 1) rotate(0) translate(4 136)">
<title>torctemperatureinput.h</title>
<polygon fill="white" stroke="none" points="-4,4 -4,-136 586,-136 586,4 -4,4"/>
<!-- Node1 -->
<g id="node1" class="node"><title>Node1</title>
<polygon fill="#bfbfbf" stroke="black" points="264.5,-112.5 264.5,-131.5 393.5,-131.5 393.5,-112.5 264.5,-112.5"/>
<text text-anchor="middle" x="329" y="-119.5" font-family="Helvetica,sans-Serif" font-size="10.00">torctemperatureinput.h</text>
</g>
<!-- Node2 -->
<g id="node2" class="node"><title>Node2</title>
<g id="a_node2"><a xlink:href="../../d0/d86/torc1wireds18b20_8h.html" target="_top" xlink:title="torc1wireds18b20.h">
<polygon fill="white" stroke="black" points="117,-56.5 117,-75.5 227,-75.5 227,-56.5 117,-56.5"/>
<text text-anchor="middle" x="172" y="-63.5" font-family="Helvetica,sans-Serif" font-size="10.00">torc1wireds18b20.h</text>
</a>
</g>
</g>
<!-- Node1&#45;&gt;Node2 -->
<g id="edge1" class="edge"><title>Node1&#45;&gt;Node2</title>
<path fill="none" stroke="midnightblue" d="M294.611,-109.172C265.048,-99.0039 223.127,-84.5852 196.761,-75.5164"/>
<polygon fill="midnightblue" stroke="midnightblue" points="293.528,-112.501 304.123,-112.444 295.805,-105.881 293.528,-112.501"/>
</g>
<!-- Node5 -->
<g id="node5" class="node"><title>Node5</title>
<g id="a_node5"><a xlink:href="../../d4/d76/torcnetworktemperatureinput_8h.html" target="_top" xlink:title="torcnetworktemperatureinput.h">
<polygon fill="white" stroke="black" points="245.5,-56.5 245.5,-75.5 412.5,-75.5 412.5,-56.5 245.5,-56.5"/>
<text text-anchor="middle" x="329" y="-63.5" font-family="Helvetica,sans-Serif" font-size="10.00">torcnetworktemperatureinput.h</text>
</a>
</g>
</g>
<!-- Node1&#45;&gt;Node5 -->
<g id="edge4" class="edge"><title>Node1&#45;&gt;Node5</title>
<path fill="none" stroke="midnightblue" d="M329,-101.805C329,-92.9102 329,-82.7798 329,-75.7511"/>
<polygon fill="midnightblue" stroke="midnightblue" points="325.5,-102.083 329,-112.083 332.5,-102.083 325.5,-102.083"/>
</g>
<!-- Node8 -->
<g id="node8" class="node"><title>Node8</title>
<g id="a_node8"><a xlink:href="../../df/dc3/torctemperatureinput_8cpp.html" target="_top" xlink:title="torctemperatureinput.cpp">
<polygon fill="white" stroke="black" points="431,-56.5 431,-75.5 571,-75.5 571,-56.5 431,-56.5"/>
<text text-anchor="middle" x="501" y="-63.5" font-family="Helvetica,sans-Serif" font-size="10.00">torctemperatureinput.cpp</text>
</a>
</g>
</g>
<!-- Node1&#45;&gt;Node8 -->
<g id="edge7" class="edge"><title>Node1&#45;&gt;Node8</title>
<path fill="none" stroke="midnightblue" d="M365.832,-109.436C398.262,-99.2551 444.737,-84.664 473.874,-75.5164"/>
<polygon fill="midnightblue" stroke="midnightblue" points="364.746,-106.109 356.254,-112.444 366.843,-112.787 364.746,-106.109"/>
</g>
<!-- Node3 -->
<g id="node3" class="node"><title>Node3</title>
<g id="a_node3"><a xlink:href="../../d8/d63/torc1wirebus_8cpp.html" target="_top" xlink:title="torc1wirebus.cpp">
<polygon fill="white" stroke="black" points="0,-0.5 0,-19.5 98,-19.5 98,-0.5 0,-0.5"/>
<text text-anchor="middle" x="49" y="-7.5" font-family="Helvetica,sans-Serif" font-size="10.00">torc1wirebus.cpp</text>
</a>
</g>
</g>
<!-- Node2&#45;&gt;Node3 -->
<g id="edge2" class="edge"><title>Node2&#45;&gt;Node3</title>
<path fill="none" stroke="midnightblue" d="M143.227,-52.3678C120.193,-42.2553 88.5162,-28.3486 68.3985,-19.5164"/>
<polygon fill="midnightblue" stroke="midnightblue" points="141.947,-55.6283 152.51,-56.4435 144.761,-49.2188 141.947,-55.6283"/>
</g>
<!-- Node4 -->
<g id="node4" class="node"><title>Node4</title>
<g id="a_node4"><a xlink:href="../../df/d8e/torc1wireds18b20_8cpp.html" target="_top" xlink:title="torc1wireds18b20.cpp">
<polygon fill="white" stroke="black" points="116,-0.5 116,-19.5 238,-19.5 238,-0.5 116,-0.5"/>
<text text-anchor="middle" x="177" y="-7.5" font-family="Helvetica,sans-Serif" font-size="10.00">torc1wireds18b20.cpp</text>
</a>
</g>
</g>
<!-- Node2&#45;&gt;Node4 -->
<g id="edge3" class="edge"><title>Node2&#45;&gt;Node4</title>
<path fill="none" stroke="midnightblue" d="M173.75,-46.1005C174.58,-37.1357 175.532,-26.8579 176.19,-19.7511"/>
<polygon fill="midnightblue" stroke="midnightblue" points="170.263,-45.8029 172.826,-56.083 177.233,-46.4483 170.263,-45.8029"/>
</g>
<!-- Node6 -->
<g id="node6" class="node"><title>Node6</title>
<g id="a_node6"><a xlink:href="../../df/dc7/torcnetworkinputs_8cpp.html" target="_top" xlink:title="torcnetworkinputs.cpp">
<polygon fill="white" stroke="black" points="264,-0.5 264,-19.5 386,-19.5 386,-0.5 264,-0.5"/>
<text text-anchor="middle" x="325" y="-7.5" font-family="Helvetica,sans-Serif" font-size="10.00">torcnetworkinputs.cpp</text>
</a>
</g>
</g>
<!-- Node5&#45;&gt;Node6 -->
<g id="edge5" class="edge"><title>Node5&#45;&gt;Node6</title>
<path fill="none" stroke="midnightblue" d="M327.6,-46.1005C326.936,-37.1357 326.175,-26.8579 325.648,-19.7511"/>
<polygon fill="midnightblue" stroke="midnightblue" points="324.11,-46.3689 328.339,-56.083 331.091,-45.8517 324.11,-46.3689"/>
</g>
<!-- Node7 -->
<g id="node7" class="node"><title>Node7</title>
<g id="a_node7"><a xlink:href="../../dc/d7d/torcnetworktemperatureinput_8cpp.html" target="_top" xlink:title="torcnetworktemperatureinput.cpp">
<polygon fill="white" stroke="black" points="404,-0.5 404,-19.5 582,-19.5 582,-0.5 404,-0.5"/>
<text text-anchor="middle" x="493" y="-7.5" font-family="Helvetica,sans-Serif" font-size="10.00">torcnetworktemperatureinput.cpp</text>
</a>
</g>
</g>
<!-- Node5&#45;&gt;Node7 -->
<g id="edge6" class="edge"><title>Node5&#45;&gt;Node7</title>
<path fill="none" stroke="midnightblue" d="M364.52,-53.3044C395.422,-43.1294 439.473,-28.6246 467.135,-19.5164"/>
<polygon fill="midnightblue" stroke="midnightblue" points="363.39,-49.9915 354.986,-56.4435 365.579,-56.6404 363.39,-49.9915"/>
</g>
</g>
</svg>
