<?xml version="1.0" encoding="UTF-8" standalone="no"?>
<!DOCTYPE svg PUBLIC "-//W3C//DTD SVG 1.1//EN"
 "http://www.w3.org/Graphics/SVG/1.1/DTD/svg11.dtd">
<!-- Generated by graphviz version 2.38.0 (20140413.2041)
 -->
<!-- Title: torctemperatureinput.h Pages: 1 -->
<svg width="575pt" height="140pt"
 viewBox="0.00 0.00 575.00 140.00" xmlns="http://www.w3.org/2000/svg" xmlns:xlink="http://www.w3.org/1999/xlink">
<g id="graph0" class="graph" transform="scale(1 1) rotate(0) translate(4 136)">
<title>torctemperatureinput.h</title>
<polygon fill="white" stroke="none" points="-4,4 -4,-136 571,-136 571,4 -4,4"/>
<!-- Node1 -->
<g id="node1" class="node"><title>Node1</title>
<polygon fill="#bfbfbf" stroke="black" points="260.5,-112.5 260.5,-131.5 389.5,-131.5 389.5,-112.5 260.5,-112.5"/>
<text text-anchor="middle" x="325" y="-119.5" font-family="Helvetica,sans-Serif" font-size="10.00">torctemperatureinput.h</text>
</g>
<!-- Node2 -->
<g id="node2" class="node"><title>Node2</title>
<g id="a_node2"><a xlink:href="../../d0/d86/torc1wireds18b20_8h.html" target="_top" xlink:title="torc1wireds18b20.h">
<polygon fill="white" stroke="black" points="113,-56.5 113,-75.5 223,-75.5 223,-56.5 113,-56.5"/>
<text text-anchor="middle" x="168" y="-63.5" font-family="Helvetica,sans-Serif" font-size="10.00">torc1wireds18b20.h</text>
</a>
</g>
</g>
<!-- Node1&#45;&gt;Node2 -->
<g id="edge1" class="edge"><title>Node1&#45;&gt;Node2</title>
<path fill="none" stroke="midnightblue" d="M290.611,-109.172C261.048,-99.0039 219.127,-84.5852 192.761,-75.5164"/>
<polygon fill="midnightblue" stroke="midnightblue" points="289.528,-112.501 300.123,-112.444 291.805,-105.881 289.528,-112.501"/>
</g>
<!-- Node5 -->
<g id="node5" class="node"><title>Node5</title>
<g id="a_node5"><a xlink:href="../../d4/d76/torcnetworktemperatureinput_8h.html" target="_top" xlink:title="torcnetworktemperatureinput.h">
<polygon fill="white" stroke="black" points="241.5,-56.5 241.5,-75.5 408.5,-75.5 408.5,-56.5 241.5,-56.5"/>
<text text-anchor="middle" x="325" y="-63.5" font-family="Helvetica,sans-Serif" font-size="10.00">torcnetworktemperatureinput.h</text>
</a>
</g>
</g>
<!-- Node1&#45;&gt;Node5 -->
<g id="edge4" class="edge"><title>Node1&#45;&gt;Node5</title>
<path fill="none" stroke="midnightblue" d="M325,-101.805C325,-92.9102 325,-82.7798 325,-75.7511"/>
<polygon fill="midnightblue" stroke="midnightblue" points="321.5,-102.083 325,-112.083 328.5,-102.083 321.5,-102.083"/>
</g>
<!-- Node8 -->
<g id="node8" class="node"><title>Node8</title>
<g id="a_node8"><a xlink:href="../../df/dc3/torctemperatureinput_8cpp.html" target="_top" xlink:title="torctemperatureinput.cpp">
<polygon fill="white" stroke="black" points="427,-56.5 427,-75.5 567,-75.5 567,-56.5 427,-56.5"/>
<text text-anchor="middle" x="497" y="-63.5" font-family="Helvetica,sans-Serif" font-size="10.00">torctemperatureinput.cpp</text>
</a>
</g>
</g>
<!-- Node1&#45;&gt;Node8 -->
<g id="edge7" class="edge"><title>Node1&#45;&gt;Node8</title>
<path fill="none" stroke="midnightblue" d="M361.832,-109.436C394.262,-99.2551 440.737,-84.664 469.874,-75.5164"/>
<polygon fill="midnightblue" stroke="midnightblue" points="360.746,-106.109 352.254,-112.444 362.843,-112.787 360.746,-106.109"/>
</g>
<!-- Node3 -->
<g id="node3" class="node"><title>Node3</title>
<g id="a_node3"><a xlink:href="../../d8/d63/torc1wirebus_8cpp.html" target="_top" xlink:title="torc1wirebus.cpp">
<polygon fill="white" stroke="black" points="0,-0.5 0,-19.5 98,-19.5 98,-0.5 0,-0.5"/>
<text text-anchor="middle" x="49" y="-7.5" font-family="Helvetica,sans-Serif" font-size="10.00">torc1wirebus.cpp</text>
</a>
</g>
</g>
<!-- Node2&#45;&gt;Node3 -->
<g id="edge2" class="edge"><title>Node2&#45;&gt;Node3</title>
<path fill="none" stroke="midnightblue" d="M139.863,-52.2321C117.604,-42.1312 87.1442,-28.3091 67.7677,-19.5164"/>
<polygon fill="midnightblue" stroke="midnightblue" points="138.591,-55.4984 149.144,-56.4435 141.484,-49.124 138.591,-55.4984"/>
</g>
<!-- Node4 -->
<g id="node4" class="node"><title>Node4</title>
<g id="a_node4"><a xlink:href="../../df/d8e/torc1wireds18b20_8cpp.html" target="_top" xlink:title="torc1wireds18b20.cpp">
<polygon fill="white" stroke="black" points="116,-0.5 116,-19.5 238,-19.5 238,-0.5 116,-0.5"/>
<text text-anchor="middle" x="177" y="-7.5" font-family="Helvetica,sans-Serif" font-size="10.00">torc1wireds18b20.cpp</text>
</a>
</g>
</g>
<!-- Node2&#45;&gt;Node4 -->
<g id="edge3" class="edge"><title>Node2&#45;&gt;Node4</title>
<path fill="none" stroke="midnightblue" d="M171.15,-46.1005C172.644,-37.1357 174.357,-26.8579 175.541,-19.7511"/>
<polygon fill="midnightblue" stroke="midnightblue" points="167.678,-45.6436 169.486,-56.083 174.583,-46.7945 167.678,-45.6436"/>
</g>
<!-- Node6 -->
<g id="node6" class="node"><title>Node6</title>
<g id="a_node6"><a xlink:href="../../d1/d0c/torcinputs_8cpp.html" target="_top" xlink:title="torcinputs.cpp">
<polygon fill="white" stroke="black" points="273.5,-0.5 273.5,-19.5 358.5,-19.5 358.5,-0.5 273.5,-0.5"/>
<text text-anchor="middle" x="316" y="-7.5" font-family="Helvetica,sans-Serif" font-size="10.00">torcinputs.cpp</text>
</a>
</g>
</g>
<!-- Node5&#45;&gt;Node6 -->
<g id="edge5" class="edge"><title>Node5&#45;&gt;Node6</title>
<path fill="none" stroke="midnightblue" d="M321.85,-46.1005C320.356,-37.1357 318.643,-26.8579 317.459,-19.7511"/>
<polygon fill="midnightblue" stroke="midnightblue" points="318.417,-46.7945 323.514,-56.083 325.322,-45.6436 318.417,-46.7945"/>
</g>
<!-- Node7 -->
<g id="node7" class="node"><title>Node7</title>
<g id="a_node7"><a xlink:href="../../dc/d7d/torcnetworktemperatureinput_8cpp.html" target="_top" xlink:title="torcnetworktemperatureinput.cpp">
<polygon fill="white" stroke="black" points="377,-0.5 377,-19.5 555,-19.5 555,-0.5 377,-0.5"/>
<text text-anchor="middle" x="466" y="-7.5" font-family="Helvetica,sans-Serif" font-size="10.00">torcnetworktemperatureinput.cpp</text>
</a>
</g>
</g>
<!-- Node5&#45;&gt;Node7 -->
<g id="edge6" class="edge"><title>Node5&#45;&gt;Node7</title>
<path fill="none" stroke="midnightblue" d="M356.929,-52.772C383.414,-42.6287 420.392,-28.4669 443.763,-19.5164"/>
<polygon fill="midnightblue" stroke="midnightblue" points="355.429,-49.5985 347.342,-56.4435 357.932,-56.1355 355.429,-49.5985"/>
</g>
</g>
</svg>
