<?xml version="1.0" encoding="UTF-8" standalone="no"?>
<!DOCTYPE svg PUBLIC "-//W3C//DTD SVG 1.1//EN"
 "http://www.w3.org/Graphics/SVG/1.1/DTD/svg11.dtd">
<!-- Generated by graphviz version 2.38.0 (20140413.2041)
 -->
<!-- Title: torccoreutils.cpp Pages: 1 -->
<svg width="1280pt" height="140pt"
 viewBox="0.00 0.00 1280.00 140.00" xmlns="http://www.w3.org/2000/svg" xmlns:xlink="http://www.w3.org/1999/xlink">
<g id="graph0" class="graph" transform="scale(1 1) rotate(0) translate(4 136)">
<title>torccoreutils.cpp</title>
<polygon fill="white" stroke="none" points="-4,4 -4,-136 1276,-136 1276,4 -4,4"/>
<!-- Node1 -->
<g id="node1" class="node"><title>Node1</title>
<polygon fill="#bfbfbf" stroke="black" points="189.5,-112.5 189.5,-131.5 285.5,-131.5 285.5,-112.5 189.5,-112.5"/>
<text text-anchor="middle" x="237.5" y="-119.5" font-family="Helvetica,sans-Serif" font-size="10.00">torccoreutils.cpp</text>
</g>
<!-- Node2 -->
<g id="node2" class="node"><title>Node2</title>
<polygon fill="white" stroke="#bfbfbf" points="0,-56.5 0,-75.5 57,-75.5 57,-56.5 0,-56.5"/>
<text text-anchor="middle" x="28.5" y="-63.5" font-family="Helvetica,sans-Serif" font-size="10.00">QThread</text>
</g>
<!-- Node1&#45;&gt;Node2 -->
<g id="edge1" class="edge"><title>Node1&#45;&gt;Node2</title>
<path fill="none" stroke="midnightblue" d="M204.383,-112.444C167.006,-102.786 106.29,-87.0988 66.8752,-76.9151"/>
<polygon fill="midnightblue" stroke="midnightblue" points="67.6535,-73.5013 57.0959,-74.3884 65.9024,-80.2788 67.6535,-73.5013"/>
</g>
<!-- Node3 -->
<g id="node3" class="node"><title>Node3</title>
<polygon fill="white" stroke="#bfbfbf" points="75,-56.5 75,-75.5 144,-75.5 144,-56.5 75,-56.5"/>
<text text-anchor="middle" x="109.5" y="-63.5" font-family="Helvetica,sans-Serif" font-size="10.00">QStringList</text>
</g>
<!-- Node1&#45;&gt;Node3 -->
<g id="edge2" class="edge"><title>Node1&#45;&gt;Node3</title>
<path fill="none" stroke="midnightblue" d="M217.218,-112.444C196.153,-103.557 162.983,-89.5632 139.014,-79.4514"/>
<polygon fill="midnightblue" stroke="midnightblue" points="140.261,-76.1787 129.687,-75.5164 137.54,-82.6283 140.261,-76.1787"/>
</g>
<!-- Node4 -->
<g id="node4" class="node"><title>Node4</title>
<polygon fill="white" stroke="#bfbfbf" points="162,-56.5 162,-75.5 209,-75.5 209,-56.5 162,-56.5"/>
<text text-anchor="middle" x="185.5" y="-63.5" font-family="Helvetica,sans-Serif" font-size="10.00">time.h</text>
</g>
<!-- Node1&#45;&gt;Node4 -->
<g id="edge3" class="edge"><title>Node1&#45;&gt;Node4</title>
<path fill="none" stroke="midnightblue" d="M228.913,-112.083C221.341,-104.22 210.122,-92.5688 200.986,-83.0813"/>
<polygon fill="midnightblue" stroke="midnightblue" points="203.385,-80.5266 193.927,-75.7511 198.342,-85.3821 203.385,-80.5266"/>
</g>
<!-- Node5 -->
<g id="node5" class="node"><title>Node5</title>
<polygon fill="white" stroke="#bfbfbf" points="163,-0.5 163,-19.5 214,-19.5 214,-0.5 163,-0.5"/>
<text text-anchor="middle" x="188.5" y="-7.5" font-family="Helvetica,sans-Serif" font-size="10.00">errno.h</text>
</g>
<!-- Node1&#45;&gt;Node5 -->
<g id="edge4" class="edge"><title>Node1&#45;&gt;Node5</title>
<path fill="none" stroke="midnightblue" d="M235.629,-112.31C232.711,-99.5758 226.465,-75.2688 217.5,-56 212.942,-46.2038 206.544,-36.0252 200.916,-27.8315"/>
<polygon fill="midnightblue" stroke="midnightblue" points="203.676,-25.6728 195.029,-19.5502 197.971,-29.7286 203.676,-25.6728"/>
</g>
<!-- Node6 -->
<g id="node6" class="node"><title>Node6</title>
<g id="a_node6"><a xlink:href="../../d3/d76/torccompat_8h.html" target="_top" xlink:title="torccompat.h">
<polygon fill="white" stroke="black" points="650,-56.5 650,-75.5 731,-75.5 731,-56.5 650,-56.5"/>
<text text-anchor="middle" x="690.5" y="-63.5" font-family="Helvetica,sans-Serif" font-size="10.00">torccompat.h</text>
</a>
</g>
</g>
<!-- Node1&#45;&gt;Node6 -->
<g id="edge5" class="edge"><title>Node1&#45;&gt;Node6</title>
<path fill="none" stroke="midnightblue" d="M285.55,-115.272C371.739,-104.998 551.813,-83.5322 639.851,-73.0376"/>
<polygon fill="midnightblue" stroke="midnightblue" points="640.349,-76.5031 649.864,-71.844 639.52,-69.5524 640.349,-76.5031"/>
</g>
<!-- Node14 -->
<g id="node14" class="node"><title>Node14</title>
<g id="a_node14"><a xlink:href="../../d4/df9/torclogging_8h.html" target="_top" xlink:title="torclogging.h">
<polygon fill="white" stroke="black" points="266,-56.5 266,-75.5 345,-75.5 345,-56.5 266,-56.5"/>
<text text-anchor="middle" x="305.5" y="-63.5" font-family="Helvetica,sans-Serif" font-size="10.00">torclogging.h</text>
</a>
</g>
</g>
<!-- Node1&#45;&gt;Node14 -->
<g id="edge13" class="edge"><title>Node1&#45;&gt;Node14</title>
<path fill="none" stroke="midnightblue" d="M248.425,-112.324C258.675,-104.185 274.221,-91.8395 286.501,-82.0874"/>
<polygon fill="midnightblue" stroke="midnightblue" points="288.721,-84.7937 294.376,-75.8339 284.368,-79.3119 288.721,-84.7937"/>
</g>
<!-- Node17 -->
<g id="node17" class="node"><title>Node17</title>
<g id="a_node17"><a xlink:href="../../d1/d49/torccoreutils_8h.html" target="_top" xlink:title="torccoreutils.h">
<polygon fill="white" stroke="black" points="1064,-56.5 1064,-75.5 1149,-75.5 1149,-56.5 1064,-56.5"/>
<text text-anchor="middle" x="1106.5" y="-63.5" font-family="Helvetica,sans-Serif" font-size="10.00">torccoreutils.h</text>
</a>
</g>
</g>
<!-- Node1&#45;&gt;Node17 -->
<g id="edge17" class="edge"><title>Node1&#45;&gt;Node17</title>
<path fill="none" stroke="midnightblue" d="M285.771,-118C436.372,-108.642 896.878,-80.026 1053.62,-70.2861"/>
<polygon fill="midnightblue" stroke="midnightblue" points="1054.17,-73.7587 1063.93,-69.6451 1053.74,-66.7721 1054.17,-73.7587"/>
</g>
<!-- Node7 -->
<g id="node7" class="node"><title>Node7</title>
<polygon fill="white" stroke="#bfbfbf" points="420.5,-0.5 420.5,-19.5 486.5,-19.5 486.5,-0.5 420.5,-0.5"/>
<text text-anchor="middle" x="453.5" y="-7.5" font-family="Helvetica,sans-Serif" font-size="10.00">sys/time.h</text>
</g>
<!-- Node6&#45;&gt;Node7 -->
<g id="edge6" class="edge"><title>Node6&#45;&gt;Node7</title>
<path fill="none" stroke="midnightblue" d="M652.947,-56.4435C610.444,-46.7594 541.328,-31.0115 496.644,-20.8303"/>
<polygon fill="midnightblue" stroke="midnightblue" points="497.199,-17.3671 486.671,-18.558 495.644,-24.1922 497.199,-17.3671"/>
</g>
<!-- Node8 -->
<g id="node8" class="node"><title>Node8</title>
<polygon fill="white" stroke="#bfbfbf" points="504.5,-0.5 504.5,-19.5 590.5,-19.5 590.5,-0.5 504.5,-0.5"/>
<text text-anchor="middle" x="547.5" y="-7.5" font-family="Helvetica,sans-Serif" font-size="10.00">sys/resource.h</text>
</g>
<!-- Node6&#45;&gt;Node8 -->
<g id="edge7" class="edge"><title>Node6&#45;&gt;Node8</title>
<path fill="none" stroke="midnightblue" d="M667.841,-56.4435C644.098,-47.4776 606.591,-33.314 579.762,-23.1827"/>
<polygon fill="midnightblue" stroke="midnightblue" points="580.644,-19.7749 570.053,-19.5164 578.171,-26.3235 580.644,-19.7749"/>
</g>
<!-- Node9 -->
<g id="node9" class="node"><title>Node9</title>
<polygon fill="white" stroke="#bfbfbf" points="608.5,-0.5 608.5,-19.5 684.5,-19.5 684.5,-0.5 608.5,-0.5"/>
<text text-anchor="middle" x="646.5" y="-7.5" font-family="Helvetica,sans-Serif" font-size="10.00">sys/socket.h</text>
</g>
<!-- Node6&#45;&gt;Node9 -->
<g id="edge8" class="edge"><title>Node6&#45;&gt;Node9</title>
<path fill="none" stroke="midnightblue" d="M683.234,-56.083C676.955,-48.3768 667.712,-37.0333 660.069,-27.6531"/>
<polygon fill="midnightblue" stroke="midnightblue" points="662.661,-25.2926 653.631,-19.7511 657.234,-29.7143 662.661,-25.2926"/>
</g>
<!-- Node10 -->
<g id="node10" class="node"><title>Node10</title>
<polygon fill="white" stroke="#bfbfbf" points="703,-0.5 703,-19.5 766,-19.5 766,-0.5 703,-0.5"/>
<text text-anchor="middle" x="734.5" y="-7.5" font-family="Helvetica,sans-Serif" font-size="10.00">sys/wait.h</text>
</g>
<!-- Node6&#45;&gt;Node10 -->
<g id="edge9" class="edge"><title>Node6&#45;&gt;Node10</title>
<path fill="none" stroke="midnightblue" d="M697.766,-56.083C704.045,-48.3768 713.288,-37.0333 720.931,-27.6531"/>
<polygon fill="midnightblue" stroke="midnightblue" points="723.766,-29.7143 727.369,-19.7511 718.339,-25.2926 723.766,-29.7143"/>
</g>
<!-- Node11 -->
<g id="node11" class="node"><title>Node11</title>
<polygon fill="white" stroke="#bfbfbf" points="784.5,-0.5 784.5,-19.5 860.5,-19.5 860.5,-0.5 784.5,-0.5"/>
<text text-anchor="middle" x="822.5" y="-7.5" font-family="Helvetica,sans-Serif" font-size="10.00">sys/param.h</text>
</g>
<!-- Node6&#45;&gt;Node11 -->
<g id="edge10" class="edge"><title>Node6&#45;&gt;Node11</title>
<path fill="none" stroke="midnightblue" d="M711.416,-56.4435C733.236,-47.5171 767.65,-33.4387 792.392,-23.3168"/>
<polygon fill="midnightblue" stroke="midnightblue" points="793.752,-26.5422 801.682,-19.5164 791.101,-20.0634 793.752,-26.5422"/>
</g>
<!-- Node12 -->
<g id="node12" class="node"><title>Node12</title>
<polygon fill="white" stroke="#bfbfbf" points="879,-0.5 879,-19.5 942,-19.5 942,-0.5 879,-0.5"/>
<text text-anchor="middle" x="910.5" y="-7.5" font-family="Helvetica,sans-Serif" font-size="10.00">sys/stat.h</text>
</g>
<!-- Node6&#45;&gt;Node12 -->
<g id="edge11" class="edge"><title>Node6&#45;&gt;Node12</title>
<path fill="none" stroke="midnightblue" d="M725.36,-56.4435C764.312,-46.8826 827.343,-31.4112 868.857,-21.2216"/>
<polygon fill="midnightblue" stroke="midnightblue" points="869.783,-24.5981 878.661,-18.8151 868.115,-17.7999 869.783,-24.5981"/>
</g>
<!-- Node13 -->
<g id="node13" class="node"><title>Node13</title>
<polygon fill="white" stroke="#bfbfbf" points="960,-0.5 960,-19.5 1031,-19.5 1031,-0.5 960,-0.5"/>
<text text-anchor="middle" x="995.5" y="-7.5" font-family="Helvetica,sans-Serif" font-size="10.00">sys/types.h</text>
</g>
<!-- Node6&#45;&gt;Node13 -->
<g id="edge12" class="edge"><title>Node6&#45;&gt;Node13</title>
<path fill="none" stroke="midnightblue" d="M731.258,-58.3749C780.719,-50.2463 866.898,-35.7989 950.11,-20.22"/>
<polygon fill="midnightblue" stroke="midnightblue" points="950.796,-23.6523 959.977,-18.3645 949.502,-16.7729 950.796,-23.6523"/>
</g>
<!-- Node14&#45;&gt;Node5 -->
<g id="edge15" class="edge"><title>Node14&#45;&gt;Node5</title>
<path fill="none" stroke="midnightblue" d="M286.961,-56.4435C267.877,-47.6356 237.925,-33.8116 216.064,-23.722"/>
<polygon fill="midnightblue" stroke="midnightblue" points="217.499,-20.5292 206.952,-19.5164 214.565,-26.8849 217.499,-20.5292"/>
</g>
<!-- Node15 -->
<g id="node15" class="node"><title>Node15</title>
<polygon fill="white" stroke="#bfbfbf" points="232,-0.5 232,-19.5 285,-19.5 285,-0.5 232,-0.5"/>
<text text-anchor="middle" x="258.5" y="-7.5" font-family="Helvetica,sans-Serif" font-size="10.00">stdint.h</text>
</g>
<!-- Node14&#45;&gt;Node15 -->
<g id="edge14" class="edge"><title>Node14&#45;&gt;Node15</title>
<path fill="none" stroke="midnightblue" d="M297.739,-56.083C290.963,-48.2982 280.957,-36.8015 272.745,-27.3665"/>
<polygon fill="midnightblue" stroke="midnightblue" points="275.322,-24.9963 266.117,-19.7511 270.042,-29.592 275.322,-24.9963"/>
</g>
<!-- Node16 -->
<g id="node16" class="node"><title>Node16</title>
<g id="a_node16"><a xlink:href="../../d1/d37/torcloggingdefs_8h.html" target="_top" xlink:title="torcloggingdefs.h">
<polygon fill="white" stroke="black" points="303,-0.5 303,-19.5 402,-19.5 402,-0.5 303,-0.5"/>
<text text-anchor="middle" x="352.5" y="-7.5" font-family="Helvetica,sans-Serif" font-size="10.00">torcloggingdefs.h</text>
</a>
</g>
</g>
<!-- Node14&#45;&gt;Node16 -->
<g id="edge16" class="edge"><title>Node14&#45;&gt;Node16</title>
<path fill="none" stroke="midnightblue" d="M313.261,-56.083C320.037,-48.2982 330.043,-36.8015 338.255,-27.3665"/>
<polygon fill="midnightblue" stroke="midnightblue" points="340.958,-29.592 344.883,-19.7511 335.678,-24.9963 340.958,-29.592"/>
</g>
<!-- Node18 -->
<g id="node18" class="node"><title>Node18</title>
<polygon fill="white" stroke="#bfbfbf" points="1049,-0.5 1049,-19.5 1088,-19.5 1088,-0.5 1049,-0.5"/>
<text text-anchor="middle" x="1068.5" y="-7.5" font-family="Helvetica,sans-Serif" font-size="10.00">QFile</text>
</g>
<!-- Node17&#45;&gt;Node18 -->
<g id="edge18" class="edge"><title>Node17&#45;&gt;Node18</title>
<path fill="none" stroke="midnightblue" d="M1100.23,-56.083C1094.86,-48.4554 1086.98,-37.2645 1080.42,-27.9408"/>
<polygon fill="midnightblue" stroke="midnightblue" points="1083.28,-25.9149 1074.66,-19.7511 1077.55,-29.9434 1083.28,-25.9149"/>
</g>
<!-- Node19 -->
<g id="node19" class="node"><title>Node19</title>
<polygon fill="white" stroke="#bfbfbf" points="1106.5,-0.5 1106.5,-19.5 1182.5,-19.5 1182.5,-0.5 1106.5,-0.5"/>
<text text-anchor="middle" x="1144.5" y="-7.5" font-family="Helvetica,sans-Serif" font-size="10.00">QMetaEnum</text>
</g>
<!-- Node17&#45;&gt;Node19 -->
<g id="edge19" class="edge"><title>Node17&#45;&gt;Node19</title>
<path fill="none" stroke="midnightblue" d="M1112.77,-56.083C1118.14,-48.4554 1126.02,-37.2645 1132.58,-27.9408"/>
<polygon fill="midnightblue" stroke="midnightblue" points="1135.45,-29.9434 1138.34,-19.7511 1129.72,-25.9149 1135.45,-29.9434"/>
</g>
<!-- Node20 -->
<g id="node20" class="node"><title>Node20</title>
<polygon fill="white" stroke="#bfbfbf" points="1201,-0.5 1201,-19.5 1272,-19.5 1272,-0.5 1201,-0.5"/>
<text text-anchor="middle" x="1236.5" y="-7.5" font-family="Helvetica,sans-Serif" font-size="10.00">QDateTime</text>
</g>
<!-- Node17&#45;&gt;Node20 -->
<g id="edge20" class="edge"><title>Node17&#45;&gt;Node20</title>
<path fill="none" stroke="midnightblue" d="M1127.1,-56.4435C1148.49,-47.5566 1182.18,-33.5632 1206.52,-23.4514"/>
<polygon fill="midnightblue" stroke="midnightblue" points="1208.11,-26.5848 1216,-19.5164 1205.42,-20.1203 1208.11,-26.5848"/>
</g>
</g>
</svg>
