<?xml version="1.0" encoding="UTF-8" standalone="no"?>
<!DOCTYPE svg PUBLIC "-//W3C//DTD SVG 1.1//EN"
 "http://www.w3.org/Graphics/SVG/1.1/DTD/svg11.dtd">
<!-- Generated by graphviz version 2.38.0 (20140413.2041)
 -->
<!-- Title: torcjsonserialiser.cpp Pages: 1 -->
<!--zoomable 308 -->
<svg id="main" version="1.1" xmlns="http://www.w3.org/2000/svg" xmlns:xlink="http://www.w3.org/1999/xlink" xml:space="preserve" onload="init(evt)">
<style type="text/css"><![CDATA[
.edge:hover path { stroke: red; }
.edge:hover polygon { stroke: red; fill: red; }
]]></style>
<script type="text/javascript"><![CDATA[
var edges = document.getElementsByTagName('g');
if (edges && edges.length) {
  for (var i=0;i<edges.length;i++) {
    if (edges[i].id.substr(0,4)=='edge') {
      edges[i].setAttribute('class','edge');
    }
  }
}
]]></script>
        <defs>
                <circle id="rim" cx="0" cy="0" r="7"/>
                <circle id="rim2" cx="0" cy="0" r="3.5"/>
                <g id="zoomPlus">
                        <use xlink:href="#rim" fill="#404040">
                                <set attributeName="fill" to="#808080" begin="zoomplus.mouseover" end="zoomplus.mouseout"/>
                        </use>
                        <path d="M-4,0h8M0,-4v8" fill="none" stroke="white" stroke-width="1.5" pointer-events="none"/>
                </g>
                <g id="zoomMin">
                        <use xlink:href="#rim" fill="#404040">
                                <set attributeName="fill" to="#808080" begin="zoomminus.mouseover" end="zoomminus.mouseout"/>
                        </use>
                        <path d="M-4,0h8" fill="none" stroke="white" stroke-width="1.5" pointer-events="none"/>
                </g>
                <g id="dirArrow">
                        <path fill="none" stroke="white" stroke-width="1.5" d="M0,-3.0v7 M-2.5,-0.5L0,-3.0L2.5,-0.5"/>
                </g>
               <g id="resetDef">
                       <use xlink:href="#rim2" fill="#404040">
                               <set attributeName="fill" to="#808080" begin="reset.mouseover" end="reset.mouseout"/>
                       </use>
               </g>
        </defs>

<script type="text/javascript">
var viewWidth = 578;
var viewHeight = 308;
var sectionId = 'dynsection-0';
</script>
<script xlink:href="../../svgpan.js"/>
<svg id="graph" class="graph">
<g id="viewport">
<title>torcjsonserialiser.cpp</title>
<polygon fill="white" stroke="none" points="-4,4 -4,-304 574,-304 574,4 -4,4"/>
<!-- Node1 -->
<g id="node1" class="node"><title>Node1</title>
<polygon fill="#bfbfbf" stroke="black" points="47.5,-280.5 47.5,-299.5 164.5,-299.5 164.5,-280.5 47.5,-280.5"/>
<text text-anchor="middle" x="106" y="-287.5" font-family="Helvetica,sans-Serif" font-size="10.00">torcjsonserialiser.cpp</text>
</g>
<!-- Node2 -->
<g id="node2" class="node"><title>Node2</title>
<polygon fill="white" stroke="#bfbfbf" points="0,-224.5 0,-243.5 94,-243.5 94,-224.5 0,-224.5"/>
<text text-anchor="middle" x="47" y="-231.5" font-family="Helvetica,sans-Serif" font-size="10.00">QJsonDocument</text>
</g>
<!-- Node1&#45;&gt;Node2 -->
<g id="edge1" class="edge"><title>Node1&#45;&gt;Node2</title>
<path fill="none" stroke="midnightblue" d="M96.5206,-280.324C87.7989,-272.341 74.6565,-260.313 64.1022,-250.653"/>
<polygon fill="midnightblue" stroke="midnightblue" points="66.3917,-248.004 56.6519,-243.834 61.6655,-253.167 66.3917,-248.004"/>
</g>
<!-- Node3 -->
<g id="node3" class="node"><title>Node3</title>
<g id="a_node3"><a xlink:href="../../d9/dde/torcjsonserialiser_8h.html" target="_top" xlink:title="torcjsonserialiser.h">
<polygon fill="white" stroke="black" points="112,-224.5 112,-243.5 218,-243.5 218,-224.5 112,-224.5"/>
<text text-anchor="middle" x="165" y="-231.5" font-family="Helvetica,sans-Serif" font-size="10.00">torcjsonserialiser.h</text>
</a>
</g>
</g>
<!-- Node1&#45;&gt;Node3 -->
<g id="edge2" class="edge"><title>Node1&#45;&gt;Node3</title>
<path fill="none" stroke="midnightblue" d="M115.479,-280.324C124.201,-272.341 137.343,-260.313 147.898,-250.653"/>
<polygon fill="midnightblue" stroke="midnightblue" points="150.334,-253.167 155.348,-243.834 145.608,-248.004 150.334,-253.167"/>
</g>
<!-- Node4 -->
<g id="node4" class="node"><title>Node4</title>
<polygon fill="white" stroke="#bfbfbf" points="74.5,-168.5 74.5,-187.5 153.5,-187.5 153.5,-168.5 74.5,-168.5"/>
<text text-anchor="middle" x="114" y="-175.5" font-family="Helvetica,sans-Serif" font-size="10.00">QTextStream</text>
</g>
<!-- Node3&#45;&gt;Node4 -->
<g id="edge3" class="edge"><title>Node3&#45;&gt;Node4</title>
<path fill="none" stroke="midnightblue" d="M156.578,-224.083C149.152,-216.22 138.148,-204.569 129.188,-195.081"/>
<polygon fill="midnightblue" stroke="midnightblue" points="131.676,-192.618 122.265,-187.751 126.587,-197.424 131.676,-192.618"/>
</g>
<!-- Node5 -->
<g id="node5" class="node"><title>Node5</title>
<g id="a_node5"><a xlink:href="../../d1/def/torcserialiser_8h.html" target="_top" xlink:title="torcserialiser.h">
<polygon fill="white" stroke="black" points="172,-168.5 172,-187.5 258,-187.5 258,-168.5 172,-168.5"/>
<text text-anchor="middle" x="215" y="-175.5" font-family="Helvetica,sans-Serif" font-size="10.00">torcserialiser.h</text>
</a>
</g>
</g>
<!-- Node3&#45;&gt;Node5 -->
<g id="edge4" class="edge"><title>Node3&#45;&gt;Node5</title>
<path fill="none" stroke="midnightblue" d="M173.256,-224.083C180.465,-216.298 191.11,-204.801 199.846,-195.367"/>
<polygon fill="midnightblue" stroke="midnightblue" points="202.671,-197.467 206.897,-187.751 197.535,-192.711 202.671,-197.467"/>
</g>
<!-- Node6 -->
<g id="node6" class="node"><title>Node6</title>
<polygon fill="white" stroke="#bfbfbf" points="41,-112.5 41,-131.5 99,-131.5 99,-112.5 41,-112.5"/>
<text text-anchor="middle" x="70" y="-119.5" font-family="Helvetica,sans-Serif" font-size="10.00">QVariant</text>
</g>
<!-- Node5&#45;&gt;Node6 -->
<g id="edge5" class="edge"><title>Node5&#45;&gt;Node6</title>
<path fill="none" stroke="midnightblue" d="M192.024,-168.444C167.843,-159.438 129.582,-145.189 102.354,-135.049"/>
<polygon fill="midnightblue" stroke="midnightblue" points="103.461,-131.727 92.8682,-131.516 101.018,-138.286 103.461,-131.727"/>
</g>
<!-- Node7 -->
<g id="node7" class="node"><title>Node7</title>
<polygon fill="white" stroke="#bfbfbf" points="117.5,-112.5 117.5,-131.5 186.5,-131.5 186.5,-112.5 117.5,-112.5"/>
<text text-anchor="middle" x="152" y="-119.5" font-family="Helvetica,sans-Serif" font-size="10.00">QStringList</text>
</g>
<!-- Node5&#45;&gt;Node7 -->
<g id="edge6" class="edge"><title>Node5&#45;&gt;Node7</title>
<path fill="none" stroke="midnightblue" d="M204.878,-168.324C195.474,-160.263 181.256,-148.077 169.931,-138.369"/>
<polygon fill="midnightblue" stroke="midnightblue" points="172.177,-135.684 162.306,-131.834 167.621,-140.999 172.177,-135.684"/>
</g>
<!-- Node8 -->
<g id="node8" class="node"><title>Node8</title>
<polygon fill="white" stroke="#bfbfbf" points="160,-56.5 160,-75.5 204,-75.5 204,-56.5 160,-56.5"/>
<text text-anchor="middle" x="182" y="-63.5" font-family="Helvetica,sans-Serif" font-size="10.00">QMap</text>
</g>
<!-- Node5&#45;&gt;Node8 -->
<g id="edge7" class="edge"><title>Node5&#45;&gt;Node8</title>
<path fill="none" stroke="midnightblue" d="M212.411,-168.368C207.061,-150.537 194.689,-109.295 187.482,-85.2717"/>
<polygon fill="midnightblue" stroke="midnightblue" points="190.803,-84.1639 184.577,-75.5914 184.099,-86.1754 190.803,-84.1639"/>
</g>
<!-- Node9 -->
<g id="node9" class="node"><title>Node9</title>
<polygon fill="white" stroke="#bfbfbf" points="222.5,-56.5 222.5,-75.5 293.5,-75.5 293.5,-56.5 222.5,-56.5"/>
<text text-anchor="middle" x="258" y="-63.5" font-family="Helvetica,sans-Serif" font-size="10.00">QDateTime</text>
</g>
<!-- Node5&#45;&gt;Node9 -->
<g id="edge8" class="edge"><title>Node5&#45;&gt;Node9</title>
<path fill="none" stroke="midnightblue" d="M218.374,-168.368C225.376,-150.456 241.612,-108.923 250.984,-84.9482"/>
<polygon fill="midnightblue" stroke="midnightblue" points="254.26,-86.1794 254.642,-75.5914 247.741,-83.6308 254.26,-86.1794"/>
</g>
<!-- Node10 -->
<g id="node10" class="node"><title>Node10</title>
<g id="a_node10"><a xlink:href="../../df/dd7/torchttprequest_8h.html" target="_top" xlink:title="torchttprequest.h">
<polygon fill="white" stroke="black" points="281.5,-112.5 281.5,-131.5 382.5,-131.5 382.5,-112.5 281.5,-112.5"/>
<text text-anchor="middle" x="332" y="-119.5" font-family="Helvetica,sans-Serif" font-size="10.00">torchttprequest.h</text>
</a>
</g>
</g>
<!-- Node5&#45;&gt;Node10 -->
<g id="edge9" class="edge"><title>Node5&#45;&gt;Node10</title>
<path fill="none" stroke="midnightblue" d="M233.539,-168.444C252.623,-159.636 282.575,-145.812 304.436,-135.722"/>
<polygon fill="midnightblue" stroke="midnightblue" points="305.935,-138.885 313.548,-131.516 303.001,-132.529 305.935,-138.885"/>
</g>
<!-- Node10&#45;&gt;Node8 -->
<g id="edge10" class="edge"><title>Node10&#45;&gt;Node8</title>
<path fill="none" stroke="midnightblue" d="M308.232,-112.444C282.664,-103.239 241.879,-88.5565 213.618,-78.3826"/>
<polygon fill="midnightblue" stroke="midnightblue" points="214.784,-75.0825 204.19,-74.9883 212.413,-81.6687 214.784,-75.0825"/>
</g>
<!-- Node10&#45;&gt;Node9 -->
<g id="edge13" class="edge"><title>Node10&#45;&gt;Node9</title>
<path fill="none" stroke="midnightblue" d="M320.111,-112.324C308.85,-104.107 291.713,-91.6017 278.291,-81.8069"/>
<polygon fill="midnightblue" stroke="midnightblue" points="280.247,-78.9014 270.106,-75.8339 276.12,-84.5559 280.247,-78.9014"/>
</g>
<!-- Node11 -->
<g id="node11" class="node"><title>Node11</title>
<polygon fill="white" stroke="#bfbfbf" points="311.5,-56.5 311.5,-75.5 352.5,-75.5 352.5,-56.5 311.5,-56.5"/>
<text text-anchor="middle" x="332" y="-63.5" font-family="Helvetica,sans-Serif" font-size="10.00">QPair</text>
</g>
<!-- Node10&#45;&gt;Node11 -->
<g id="edge11" class="edge"><title>Node10&#45;&gt;Node11</title>
<path fill="none" stroke="midnightblue" d="M332,-112.083C332,-105.006 332,-94.8611 332,-85.9865"/>
<polygon fill="midnightblue" stroke="midnightblue" points="335.5,-85.751 332,-75.7511 328.5,-85.7511 335.5,-85.751"/>
</g>
<!-- Node12 -->
<g id="node12" class="node"><title>Node12</title>
<polygon fill="white" stroke="#bfbfbf" points="370.5,-56.5 370.5,-75.5 423.5,-75.5 423.5,-56.5 370.5,-56.5"/>
<text text-anchor="middle" x="397" y="-63.5" font-family="Helvetica,sans-Serif" font-size="10.00">QString</text>
</g>
<!-- Node10&#45;&gt;Node12 -->
<g id="edge12" class="edge"><title>Node10&#45;&gt;Node12</title>
<path fill="none" stroke="midnightblue" d="M342.443,-112.324C352.146,-104.263 366.815,-92.0765 378.5,-82.3695"/>
<polygon fill="midnightblue" stroke="midnightblue" points="380.911,-84.9163 386.367,-75.8339 376.438,-79.532 380.911,-84.9163"/>
</g>
<!-- Node13 -->
<g id="node13" class="node"><title>Node13</title>
<g id="a_node13"><a xlink:href="../../de/de6/torchttpreader_8h.html" target="_top" xlink:title="torchttpreader.h">
<polygon fill="white" stroke="black" points="441.5,-56.5 441.5,-75.5 536.5,-75.5 536.5,-56.5 441.5,-56.5"/>
<text text-anchor="middle" x="489" y="-63.5" font-family="Helvetica,sans-Serif" font-size="10.00">torchttpreader.h</text>
</a>
</g>
</g>
<!-- Node10&#45;&gt;Node13 -->
<g id="edge14" class="edge"><title>Node10&#45;&gt;Node13</title>
<path fill="none" stroke="midnightblue" d="M356.877,-112.444C383.289,-103.359 425.215,-88.9388 454.742,-78.7831"/>
<polygon fill="midnightblue" stroke="midnightblue" points="455.921,-82.0787 464.239,-75.5164 453.645,-75.4593 455.921,-82.0787"/>
</g>
<!-- Node14 -->
<g id="node14" class="node"><title>Node14</title>
<polygon fill="white" stroke="#bfbfbf" points="408.5,-0.5 408.5,-19.5 479.5,-19.5 479.5,-0.5 408.5,-0.5"/>
<text text-anchor="middle" x="444" y="-7.5" font-family="Helvetica,sans-Serif" font-size="10.00">QByteArray</text>
</g>
<!-- Node13&#45;&gt;Node14 -->
<g id="edge15" class="edge"><title>Node13&#45;&gt;Node14</title>
<path fill="none" stroke="midnightblue" d="M481.569,-56.083C475.147,-48.3768 465.694,-37.0333 457.878,-27.6531"/>
<polygon fill="midnightblue" stroke="midnightblue" points="460.383,-25.1927 451.293,-19.7511 455.006,-29.674 460.383,-25.1927"/>
</g>
<!-- Node15 -->
<g id="node15" class="node"><title>Node15</title>
<polygon fill="white" stroke="#bfbfbf" points="498,-0.5 498,-19.5 570,-19.5 570,-0.5 498,-0.5"/>
<text text-anchor="middle" x="534" y="-7.5" font-family="Helvetica,sans-Serif" font-size="10.00">QTcpSocket</text>
</g>
<!-- Node13&#45;&gt;Node15 -->
<g id="edge16" class="edge"><title>Node13&#45;&gt;Node15</title>
<path fill="none" stroke="midnightblue" d="M496.431,-56.083C502.853,-48.3768 512.306,-37.0333 520.122,-27.6531"/>
<polygon fill="midnightblue" stroke="midnightblue" points="522.994,-29.674 526.707,-19.7511 517.617,-25.1927 522.994,-29.674"/>
</g>
</g>
</svg>
        <g id="navigator" transform="translate(0 0)" fill="#404254">
                <rect fill="#f2f5e9" fill-opacity="0.5" stroke="#606060" stroke-width=".5" x="0" y="0" width="60" height="60"/>
                <use id="zoomplus" xlink:href="#zoomPlus" x="17" y="9" onmousedown="handleZoom(evt,'in')"/>
                <use id="zoomminus" xlink:href="#zoomMin" x="42" y="9" onmousedown="handleZoom(evt,'out')"/>
                <use id="reset" xlink:href="#resetDef" x="30" y="36" onmousedown="handleReset()"/>
                <g id="arrowUp" xlink:href="#dirArrow" transform="translate(30 24)" onmousedown="handlePan(0,-1)">
                  <use xlink:href="#rim" fill="#404040">
                        <set attributeName="fill" to="#808080" begin="arrowUp.mouseover" end="arrowUp.mouseout"/>
                  </use>
                  <path fill="none" stroke="white" stroke-width="1.5" d="M0,-3.0v7 M-2.5,-0.5L0,-3.0L2.5,-0.5"/>
                </g>
                <g id="arrowRight" xlink:href="#dirArrow" transform="rotate(90) translate(36 -43)" onmousedown="handlePan(1,0)">
                  <use xlink:href="#rim" fill="#404040">
                        <set attributeName="fill" to="#808080" begin="arrowRight.mouseover" end="arrowRight.mouseout"/>
                  </use>
                  <path fill="none" stroke="white" stroke-width="1.5" d="M0,-3.0v7 M-2.5,-0.5L0,-3.0L2.5,-0.5"/>
                </g>
                <g id="arrowDown" xlink:href="#dirArrow" transform="rotate(180) translate(-30 -48)" onmousedown="handlePan(0,1)">
                  <use xlink:href="#rim" fill="#404040">
                        <set attributeName="fill" to="#808080" begin="arrowDown.mouseover" end="arrowDown.mouseout"/>
                  </use>
                  <path fill="none" stroke="white" stroke-width="1.5" d="M0,-3.0v7 M-2.5,-0.5L0,-3.0L2.5,-0.5"/>
                </g>
                <g id="arrowLeft" xlink:href="#dirArrow" transform="rotate(270) translate(-36 17)" onmousedown="handlePan(-1,0)">
                  <use xlink:href="#rim" fill="#404040">
                        <set attributeName="fill" to="#808080" begin="arrowLeft.mouseover" end="arrowLeft.mouseout"/>
                  </use>
                  <path fill="none" stroke="white" stroke-width="1.5" d="M0,-3.0v7 M-2.5,-0.5L0,-3.0L2.5,-0.5"/>
                </g>
        </g>
        <svg viewBox="0 0 15 15" width="100%" height="30px" preserveAspectRatio="xMaxYMin meet">
         <g id="arrow_out" transform="scale(0.3 0.3)">
          <a xlink:href="torcjsonserialiser_8cpp__incl_org.svg" target="_base">
           <rect id="button" ry="5" rx="5" y="6" x="6" height="38" width="38"
                fill="#f2f5e9" fill-opacity="0.5" stroke="#606060" stroke-width="1.0"/>
           <path id="arrow"
             d="M 11.500037,31.436501 C 11.940474,20.09759 22.043105,11.32322 32.158766,21.979434 L 37.068811,17.246167 C 37.068811,17.246167 37.088388,32 37.088388,32 L 22.160133,31.978069 C 22.160133,31.978069 26.997745,27.140456 26.997745,27.140456 C 18.528582,18.264221 13.291696,25.230495 11.500037,31.436501 z"
             style="fill:#404040;"/>
          </a>
         </g>
        </svg>
</svg>
