<?xml version="1.0" encoding="UTF-8" standalone="no"?>
<!DOCTYPE svg PUBLIC "-//W3C//DTD SVG 1.1//EN"
 "http://www.w3.org/Graphics/SVG/1.1/DTD/svg11.dtd">
<!-- Generated by graphviz version 2.38.0 (20140413.2041)
 -->
<!-- Title: torcomxport.cpp Pages: 1 -->
<svg width="635pt" height="252pt"
 viewBox="0.00 0.00 635.08 252.00" xmlns="http://www.w3.org/2000/svg" xmlns:xlink="http://www.w3.org/1999/xlink">
<g id="graph0" class="graph" transform="scale(1 1) rotate(0) translate(4 248)">
<title>torcomxport.cpp</title>
<polygon fill="white" stroke="none" points="-4,4 -4,-248 631.085,-248 631.085,4 -4,4"/>
<!-- Node1 -->
<g id="node1" class="node"><title>Node1</title>
<polygon fill="#bfbfbf" stroke="black" points="98.5,-224.5 98.5,-243.5 194.5,-243.5 194.5,-224.5 98.5,-224.5"/>
<text text-anchor="middle" x="146.5" y="-231.5" font-family="Helvetica,sans-Serif" font-size="10.00">torcomxport.cpp</text>
</g>
<!-- Node2 -->
<g id="node2" class="node"><title>Node2</title>
<polygon fill="white" stroke="#bfbfbf" points="0,-168.5 0,-187.5 89,-187.5 89,-168.5 0,-168.5"/>
<text text-anchor="middle" x="44.5" y="-175.5" font-family="Helvetica,sans-Serif" font-size="10.00">QElapsedTimer</text>
</g>
<!-- Node1&#45;&gt;Node2 -->
<g id="edge1" class="edge"><title>Node1&#45;&gt;Node2</title>
<path fill="none" stroke="midnightblue" d="M130.112,-224.324C113.829,-215.703 88.6325,-202.364 69.7837,-192.386"/>
<polygon fill="midnightblue" stroke="midnightblue" points="71.3229,-189.24 60.8474,-187.655 68.0477,-195.427 71.3229,-189.24"/>
</g>
<!-- Node3 -->
<g id="node3" class="node"><title>Node3</title>
<g id="a_node3"><a xlink:href="../../d4/df9/torclogging_8h.html" target="_top" xlink:title="torclogging.h">
<polygon fill="white" stroke="black" points="107,-168.5 107,-187.5 186,-187.5 186,-168.5 107,-168.5"/>
<text text-anchor="middle" x="146.5" y="-175.5" font-family="Helvetica,sans-Serif" font-size="10.00">torclogging.h</text>
</a>
</g>
</g>
<!-- Node1&#45;&gt;Node3 -->
<g id="edge2" class="edge"><title>Node1&#45;&gt;Node3</title>
<path fill="none" stroke="midnightblue" d="M146.5,-224.083C146.5,-217.006 146.5,-206.861 146.5,-197.986"/>
<polygon fill="midnightblue" stroke="midnightblue" points="150,-197.751 146.5,-187.751 143,-197.751 150,-197.751"/>
</g>
<!-- Node7 -->
<g id="node7" class="node"><title>Node7</title>
<g id="a_node7"><a xlink:href="../../d1/de8/torcomxport_8h.html" target="_top" xlink:title="torcomxport.h">
<polygon fill="white" stroke="black" points="398,-168.5 398,-187.5 483,-187.5 483,-168.5 398,-168.5"/>
<text text-anchor="middle" x="440.5" y="-175.5" font-family="Helvetica,sans-Serif" font-size="10.00">torcomxport.h</text>
</a>
</g>
</g>
<!-- Node1&#45;&gt;Node7 -->
<g id="edge6" class="edge"><title>Node1&#45;&gt;Node7</title>
<path fill="none" stroke="midnightblue" d="M193.085,-224.444C246.13,-214.701 332.589,-198.82 387.984,-188.646"/>
<polygon fill="midnightblue" stroke="midnightblue" points="388.748,-192.064 397.951,-186.815 387.483,-185.179 388.748,-192.064"/>
</g>
<!-- Node4 -->
<g id="node4" class="node"><title>Node4</title>
<polygon fill="white" stroke="#bfbfbf" points="3,-112.5 3,-131.5 56,-131.5 56,-112.5 3,-112.5"/>
<text text-anchor="middle" x="29.5" y="-119.5" font-family="Helvetica,sans-Serif" font-size="10.00">stdint.h</text>
</g>
<!-- Node3&#45;&gt;Node4 -->
<g id="edge3" class="edge"><title>Node3&#45;&gt;Node4</title>
<path fill="none" stroke="midnightblue" d="M127.961,-168.444C108.877,-159.636 78.9251,-145.812 57.0643,-135.722"/>
<polygon fill="midnightblue" stroke="midnightblue" points="58.4986,-132.529 47.9523,-131.516 55.5651,-138.885 58.4986,-132.529"/>
</g>
<!-- Node5 -->
<g id="node5" class="node"><title>Node5</title>
<polygon fill="white" stroke="#bfbfbf" points="74,-112.5 74,-131.5 125,-131.5 125,-112.5 74,-112.5"/>
<text text-anchor="middle" x="99.5" y="-119.5" font-family="Helvetica,sans-Serif" font-size="10.00">errno.h</text>
</g>
<!-- Node3&#45;&gt;Node5 -->
<g id="edge4" class="edge"><title>Node3&#45;&gt;Node5</title>
<path fill="none" stroke="midnightblue" d="M138.739,-168.083C131.963,-160.298 121.957,-148.801 113.745,-139.367"/>
<polygon fill="midnightblue" stroke="midnightblue" points="116.322,-136.996 107.117,-131.751 111.042,-141.592 116.322,-136.996"/>
</g>
<!-- Node6 -->
<g id="node6" class="node"><title>Node6</title>
<g id="a_node6"><a xlink:href="../../d1/d37/torcloggingdefs_8h.html" target="_top" xlink:title="torcloggingdefs.h">
<polygon fill="white" stroke="black" points="143,-112.5 143,-131.5 242,-131.5 242,-112.5 143,-112.5"/>
<text text-anchor="middle" x="192.5" y="-119.5" font-family="Helvetica,sans-Serif" font-size="10.00">torcloggingdefs.h</text>
</a>
</g>
</g>
<!-- Node3&#45;&gt;Node6 -->
<g id="edge5" class="edge"><title>Node3&#45;&gt;Node6</title>
<path fill="none" stroke="midnightblue" d="M154.096,-168.083C160.727,-160.298 170.521,-148.801 178.558,-139.367"/>
<polygon fill="midnightblue" stroke="midnightblue" points="181.225,-141.633 185.045,-131.751 175.896,-137.094 181.225,-141.633"/>
</g>
<!-- Node8 -->
<g id="node8" class="node"><title>Node8</title>
<polygon fill="white" stroke="#bfbfbf" points="555,-56.5 555,-75.5 608,-75.5 608,-56.5 555,-56.5"/>
<text text-anchor="middle" x="581.5" y="-63.5" font-family="Helvetica,sans-Serif" font-size="10.00">QMutex</text>
</g>
<!-- Node7&#45;&gt;Node8 -->
<g id="edge7" class="edge"><title>Node7&#45;&gt;Node8</title>
<path fill="none" stroke="midnightblue" d="M483.247,-175.123C514.594,-171.281 555.393,-160.635 577.5,-132 587.531,-119.007 587.471,-99.8443 585.539,-85.6897"/>
<polygon fill="midnightblue" stroke="midnightblue" points="588.946,-84.8559 583.746,-75.625 582.054,-86.0839 588.946,-84.8559"/>
</g>
<!-- Node9 -->
<g id="node9" class="node"><title>Node9</title>
<polygon fill="white" stroke="#bfbfbf" points="512.5,-112.5 512.5,-131.5 568.5,-131.5 568.5,-112.5 512.5,-112.5"/>
<text text-anchor="middle" x="540.5" y="-119.5" font-family="Helvetica,sans-Serif" font-size="10.00">QQueue</text>
</g>
<!-- Node7&#45;&gt;Node9 -->
<g id="edge8" class="edge"><title>Node7&#45;&gt;Node9</title>
<path fill="none" stroke="midnightblue" d="M456.567,-168.324C472.458,-159.743 497.007,-146.486 515.458,-136.522"/>
<polygon fill="midnightblue" stroke="midnightblue" points="517.337,-139.486 524.473,-131.655 514.011,-133.326 517.337,-139.486"/>
</g>
<!-- Node10 -->
<g id="node10" class="node"><title>Node10</title>
<polygon fill="white" stroke="#bfbfbf" points="178,-56.5 178,-75.5 267,-75.5 267,-56.5 178,-56.5"/>
<text text-anchor="middle" x="222.5" y="-63.5" font-family="Helvetica,sans-Serif" font-size="10.00">QWaitCondition</text>
</g>
<!-- Node7&#45;&gt;Node10 -->
<g id="edge9" class="edge"><title>Node7&#45;&gt;Node10</title>
<path fill="none" stroke="midnightblue" d="M410.805,-168.43C385.336,-160.547 348.028,-147.715 317.5,-132 289.276,-117.471 259.502,-95.9474 240.968,-81.7025"/>
<polygon fill="midnightblue" stroke="midnightblue" points="243.098,-78.925 233.059,-75.539 238.795,-84.4465 243.098,-78.925"/>
</g>
<!-- Node11 -->
<g id="node11" class="node"><title>Node11</title>
<g id="a_node11"><a xlink:href="../../d7/df9/torcomxcore_8h.html" target="_top" xlink:title="torcomxcore.h">
<polygon fill="white" stroke="black" points="285.5,-56.5 285.5,-75.5 371.5,-75.5 371.5,-56.5 285.5,-56.5"/>
<text text-anchor="middle" x="328.5" y="-63.5" font-family="Helvetica,sans-Serif" font-size="10.00">torcomxcore.h</text>
</a>
</g>
</g>
<!-- Node7&#45;&gt;Node11 -->
<g id="edge10" class="edge"><title>Node7&#45;&gt;Node11</title>
<path fill="none" stroke="midnightblue" d="M397.942,-171.854C372.923,-166.398 343.204,-155.157 327.5,-132 318.403,-118.586 319.827,-99.7666 322.831,-85.828"/>
<polygon fill="midnightblue" stroke="midnightblue" points="326.285,-86.4507 325.408,-75.8923 319.509,-84.6933 326.285,-86.4507"/>
</g>
<!-- Node14 -->
<g id="node14" class="node"><title>Node14</title>
<polygon fill="white" stroke="#bfbfbf" points="386,-0.5 386,-19.5 461,-19.5 461,-0.5 386,-0.5"/>
<text text-anchor="middle" x="423.5" y="-7.5" font-family="Helvetica,sans-Serif" font-size="10.00">OMX_Core.h</text>
</g>
<!-- Node7&#45;&gt;Node14 -->
<g id="edge20" class="edge"><title>Node7&#45;&gt;Node14</title>
<path fill="none" stroke="midnightblue" d="M483.048,-174.859C517.391,-170.965 564.874,-160.376 595.5,-132 621.206,-108.183 638.285,-83.4491 616.5,-56 598.691,-33.5609 522.384,-21.2733 471.221,-15.4253"/>
<polygon fill="midnightblue" stroke="midnightblue" points="471.354,-11.9189 461.031,-14.3071 470.59,-18.8772 471.354,-11.9189"/>
</g>
<!-- Node15 -->
<g id="node15" class="node"><title>Node15</title>
<g id="a_node15"><a xlink:href="../../d3/de4/torcomxcomponent_8h.html" target="_top" xlink:title="torcomxcomponent.h">
<polygon fill="white" stroke="black" points="336.5,-112.5 336.5,-131.5 456.5,-131.5 456.5,-112.5 336.5,-112.5"/>
<text text-anchor="middle" x="396.5" y="-119.5" font-family="Helvetica,sans-Serif" font-size="10.00">torcomxcomponent.h</text>
</a>
</g>
</g>
<!-- Node7&#45;&gt;Node15 -->
<g id="edge14" class="edge"><title>Node7&#45;&gt;Node15</title>
<path fill="none" stroke="midnightblue" d="M433.234,-168.083C426.955,-160.377 417.712,-149.033 410.069,-139.653"/>
<polygon fill="midnightblue" stroke="midnightblue" points="412.661,-137.293 403.631,-131.751 407.234,-141.714 412.661,-137.293"/>
</g>
<!-- Node16 -->
<g id="node16" class="node"><title>Node16</title>
<polygon fill="white" stroke="#bfbfbf" points="428,-56.5 428,-75.5 537,-75.5 537,-56.5 428,-56.5"/>
<text text-anchor="middle" x="482.5" y="-63.5" font-family="Helvetica,sans-Serif" font-size="10.00">OMX_Component.h</text>
</g>
<!-- Node7&#45;&gt;Node16 -->
<g id="edge21" class="edge"><title>Node7&#45;&gt;Node16</title>
<path fill="none" stroke="midnightblue" d="M446.164,-168.361C451.742,-159.532 460.177,-145.272 465.5,-132 471.545,-116.928 476.043,-99.0259 478.889,-85.829"/>
<polygon fill="midnightblue" stroke="midnightblue" points="482.399,-86.1293 480.961,-75.6325 475.539,-84.7348 482.399,-86.1293"/>
</g>
<!-- Node12 -->
<g id="node12" class="node"><title>Node12</title>
<polygon fill="white" stroke="#bfbfbf" points="215.5,-0.5 215.5,-19.5 271.5,-19.5 271.5,-0.5 215.5,-0.5"/>
<text text-anchor="middle" x="243.5" y="-7.5" font-family="Helvetica,sans-Serif" font-size="10.00">QLibrary</text>
</g>
<!-- Node11&#45;&gt;Node12 -->
<g id="edge11" class="edge"><title>Node11&#45;&gt;Node12</title>
<path fill="none" stroke="midnightblue" d="M314.843,-56.324C301.584,-47.9002 281.232,-34.9709 265.654,-25.0741"/>
<polygon fill="midnightblue" stroke="midnightblue" points="267.44,-22.0626 257.123,-19.6545 263.687,-27.9711 267.44,-22.0626"/>
</g>
<!-- Node13 -->
<g id="node13" class="node"><title>Node13</title>
<polygon fill="white" stroke="#bfbfbf" points="289,-0.5 289,-19.5 368,-19.5 368,-0.5 289,-0.5"/>
<text text-anchor="middle" x="328.5" y="-7.5" font-family="Helvetica,sans-Serif" font-size="10.00">OMX_Types.h</text>
</g>
<!-- Node11&#45;&gt;Node13 -->
<g id="edge12" class="edge"><title>Node11&#45;&gt;Node13</title>
<path fill="none" stroke="midnightblue" d="M328.5,-56.083C328.5,-49.0059 328.5,-38.8611 328.5,-29.9865"/>
<polygon fill="midnightblue" stroke="midnightblue" points="332,-29.751 328.5,-19.7511 325,-29.7511 332,-29.751"/>
</g>
<!-- Node11&#45;&gt;Node14 -->
<g id="edge13" class="edge"><title>Node11&#45;&gt;Node14</title>
<path fill="none" stroke="midnightblue" d="M343.763,-56.324C358.721,-47.8215 381.755,-34.7288 399.227,-24.7975"/>
<polygon fill="midnightblue" stroke="midnightblue" points="401.31,-27.639 408.274,-19.6545 397.851,-21.5534 401.31,-27.639"/>
</g>
<!-- Node15&#45;&gt;Node8 -->
<g id="edge15" class="edge"><title>Node15&#45;&gt;Node8</title>
<path fill="none" stroke="midnightblue" d="M425.814,-112.444C458.084,-103.024 510.008,-87.8679 544.92,-77.6774"/>
<polygon fill="midnightblue" stroke="midnightblue" points="546.107,-80.977 554.726,-74.8151 544.146,-74.2574 546.107,-80.977"/>
</g>
<!-- Node15&#45;&gt;Node10 -->
<g id="edge16" class="edge"><title>Node15&#45;&gt;Node10</title>
<path fill="none" stroke="midnightblue" d="M368.929,-112.444C339.403,-103.28 292.382,-88.6876 259.617,-78.5192"/>
<polygon fill="midnightblue" stroke="midnightblue" points="260.53,-75.1378 249.942,-75.5164 258.455,-81.8232 260.53,-75.1378"/>
</g>
<!-- Node15&#45;&gt;Node11 -->
<g id="edge17" class="edge"><title>Node15&#45;&gt;Node11</title>
<path fill="none" stroke="midnightblue" d="M385.575,-112.324C375.325,-104.185 359.779,-91.8395 347.499,-82.0874"/>
<polygon fill="midnightblue" stroke="midnightblue" points="349.632,-79.3119 339.624,-75.8339 345.279,-84.7937 349.632,-79.3119"/>
</g>
<!-- Node15&#45;&gt;Node14 -->
<g id="edge18" class="edge"><title>Node15&#45;&gt;Node14</title>
<path fill="none" stroke="midnightblue" d="M398.619,-112.368C402.976,-94.617 413.027,-53.6664 418.935,-29.5974"/>
<polygon fill="midnightblue" stroke="midnightblue" points="422.406,-30.1375 421.391,-19.5914 415.608,-28.4688 422.406,-30.1375"/>
</g>
<!-- Node15&#45;&gt;Node16 -->
<g id="edge19" class="edge"><title>Node15&#45;&gt;Node16</title>
<path fill="none" stroke="midnightblue" d="M410.317,-112.324C423.733,-103.9 444.324,-90.9709 460.086,-81.0741"/>
<polygon fill="midnightblue" stroke="midnightblue" points="462.109,-83.9364 468.717,-75.6545 458.387,-78.0081 462.109,-83.9364"/>
</g>
</g>
</svg>
