<?xml version="1.0" encoding="UTF-8" standalone="no"?>
<!DOCTYPE svg PUBLIC "-//W3C//DTD SVG 1.1//EN"
 "http://www.w3.org/Graphics/SVG/1.1/DTD/svg11.dtd">
<!-- Generated by graphviz version 2.38.0 (20140413.2041)
 -->
<!-- Title: torchttpservernonce.h Pages: 1 -->
<svg width="264pt" height="84pt"
 viewBox="0.00 0.00 264.00 84.00" xmlns="http://www.w3.org/2000/svg" xmlns:xlink="http://www.w3.org/1999/xlink">
<g id="graph0" class="graph" transform="scale(1 1) rotate(0) translate(4 80)">
<title>torchttpservernonce.h</title>
<polygon fill="white" stroke="none" points="-4,4 -4,-80 260,-80 260,4 -4,4"/>
<!-- Node1 -->
<g id="node1" class="node"><title>Node1</title>
<polygon fill="#bfbfbf" stroke="black" points="58.5,-56.5 58.5,-75.5 181.5,-75.5 181.5,-56.5 58.5,-56.5"/>
<text text-anchor="middle" x="120" y="-63.5" font-family="Helvetica,sans-Serif" font-size="10.00">torchttpservernonce.h</text>
</g>
<!-- Node2 -->
<g id="node2" class="node"><title>Node2</title>
<g id="a_node2"><a xlink:href="../../de/dc5/torchttpserver_8cpp.html" target="_top" xlink:title="torchttpserver.cpp">
<polygon fill="white" stroke="black" points="0,-0.5 0,-19.5 104,-19.5 104,-0.5 0,-0.5"/>
<text text-anchor="middle" x="52" y="-7.5" font-family="Helvetica,sans-Serif" font-size="10.00">torchttpserver.cpp</text>
</a>
</g>
</g>
<!-- Node1&#45;&gt;Node2 -->
<g id="edge1" class="edge"><title>Node1&#45;&gt;Node2</title>
<path fill="none" stroke="midnightblue" d="M101.238,-50.1008C89.0001,-40.3824 73.4413,-28.0269 63.1242,-19.8339"/>
<polygon fill="midnightblue" stroke="midnightblue" points="99.0669,-52.846 109.075,-56.324 103.42,-47.3642 99.0669,-52.846"/>
</g>
<!-- Node3 -->
<g id="node3" class="node"><title>Node3</title>
<g id="a_node3"><a xlink:href="../../dd/d30/torchttpservernonce_8cpp.html" target="_top" xlink:title="torchttpservernonce.cpp">
<polygon fill="white" stroke="black" points="122,-0.5 122,-19.5 256,-19.5 256,-0.5 122,-0.5"/>
<text text-anchor="middle" x="189" y="-7.5" font-family="Helvetica,sans-Serif" font-size="10.00">torchttpservernonce.cpp</text>
</a>
</g>
</g>
<!-- Node1&#45;&gt;Node3 -->
<g id="edge2" class="edge"><title>Node1&#45;&gt;Node3</title>
<path fill="none" stroke="midnightblue" d="M139.038,-50.1008C151.456,-40.3824 167.243,-28.0269 177.712,-19.8339"/>
<polygon fill="midnightblue" stroke="midnightblue" points="136.804,-47.4046 131.086,-56.324 141.118,-52.9171 136.804,-47.4046"/>
</g>
</g>
</svg>
