<?xml version="1.0" encoding="UTF-8" standalone="no"?>
<!DOCTYPE svg PUBLIC "-//W3C//DTD SVG 1.1//EN"
 "http://www.w3.org/Graphics/SVG/1.1/DTD/svg11.dtd">
<!-- Generated by graphviz version 2.38.0 (20140413.2041)
 -->
<!-- Title: torcnetworktemperatureoutput.h Pages: 1 -->
<svg width="304pt" height="84pt"
 viewBox="0.00 0.00 303.50 84.00" xmlns="http://www.w3.org/2000/svg" xmlns:xlink="http://www.w3.org/1999/xlink">
<g id="graph0" class="graph" transform="scale(1 1) rotate(0) translate(4 80)">
<title>torcnetworktemperatureoutput.h</title>
<polygon fill="white" stroke="none" points="-4,4 -4,-80 299.5,-80 299.5,4 -4,4"/>
<!-- Node1 -->
<g id="node1" class="node"><title>Node1</title>
<polygon fill="#bfbfbf" stroke="black" points="83.5,-56.5 83.5,-75.5 257.5,-75.5 257.5,-56.5 83.5,-56.5"/>
<text text-anchor="middle" x="170.5" y="-63.5" font-family="Helvetica,sans-Serif" font-size="10.00">torcnetworktemperatureoutput.h</text>
</g>
<!-- Node2 -->
<g id="node2" class="node"><title>Node2</title>
<g id="a_node2"><a xlink:href="../../dc/d8a/torcnetworktemperatureoutput_8cpp.html" target="_top" xlink:title="torcnetworktemperatureoutput.cpp">
<polygon fill="white" stroke="black" points="0,-0.5 0,-19.5 185,-19.5 185,-0.5 0,-0.5"/>
<text text-anchor="middle" x="92.5" y="-7.5" font-family="Helvetica,sans-Serif" font-size="10.00">torcnetworktemperatureoutput.cpp</text>
</a>
</g>
</g>
<!-- Node1&#45;&gt;Node2 -->
<g id="edge1" class="edge"><title>Node1&#45;&gt;Node2</title>
<path fill="none" stroke="midnightblue" d="M149.732,-50.6221C135.483,-40.7574 117.044,-27.9919 105.001,-19.6545"/>
<polygon fill="midnightblue" stroke="midnightblue" points="147.754,-53.5095 157.968,-56.324 151.738,-47.7541 147.754,-53.5095"/>
</g>
<!-- Node3 -->
<g id="node3" class="node"><title>Node3</title>
<g id="a_node3"><a xlink:href="../../d5/da7/torcoutputs_8cpp.html" target="_top" xlink:title="torcoutputs.cpp">
<polygon fill="white" stroke="black" points="203.5,-0.5 203.5,-19.5 295.5,-19.5 295.5,-0.5 203.5,-0.5"/>
<text text-anchor="middle" x="249.5" y="-7.5" font-family="Helvetica,sans-Serif" font-size="10.00">torcoutputs.cpp</text>
</a>
</g>
</g>
<!-- Node1&#45;&gt;Node3 -->
<g id="edge2" class="edge"><title>Node1&#45;&gt;Node3</title>
<path fill="none" stroke="midnightblue" d="M191.534,-50.6221C205.966,-40.7574 224.641,-27.9919 236.839,-19.6545"/>
<polygon fill="midnightblue" stroke="midnightblue" points="189.473,-47.7914 183.193,-56.324 193.423,-53.5703 189.473,-47.7914"/>
</g>
</g>
</svg>
