<?xml version="1.0" encoding="UTF-8" standalone="no"?>
<!DOCTYPE svg PUBLIC "-//W3C//DTD SVG 1.1//EN"
 "http://www.w3.org/Graphics/SVG/1.1/DTD/svg11.dtd">
<!-- Generated by graphviz version 2.38.0 (20140413.2041)
 -->
<!-- Title: torclocaldefs.h Pages: 1 -->
<svg width="2940pt" height="252pt"
 viewBox="0.00 0.00 2940.00 252.00" xmlns="http://www.w3.org/2000/svg" xmlns:xlink="http://www.w3.org/1999/xlink">
<g id="graph0" class="graph" transform="scale(1 1) rotate(0) translate(4 248)">
<title>torclocaldefs.h</title>
<polygon fill="white" stroke="none" points="-4,4 -4,-248 2936,-248 2936,4 -4,4"/>
<!-- Node1 -->
<g id="node1" class="node"><title>Node1</title>
<polygon fill="#bfbfbf" stroke="black" points="1361,-224.5 1361,-243.5 1447,-243.5 1447,-224.5 1361,-224.5"/>
<text text-anchor="middle" x="1404" y="-231.5" font-family="Helvetica,sans-Serif" font-size="10.00">torclocaldefs.h</text>
</g>
<!-- Node2 -->
<g id="node2" class="node"><title>Node2</title>
<g id="a_node2"><a xlink:href="../../d6/d33/torchtmldynamiccontent_8cpp.html" target="_top" xlink:title="torchtmldynamiccontent.cpp">
<polygon fill="white" stroke="black" points="815.5,-168.5 815.5,-187.5 970.5,-187.5 970.5,-168.5 815.5,-168.5"/>
<text text-anchor="middle" x="893" y="-175.5" font-family="Helvetica,sans-Serif" font-size="10.00">torchtmldynamiccontent.cpp</text>
</a>
</g>
</g>
<!-- Node1&#45;&gt;Node2 -->
<g id="edge1" class="edge"><title>Node1&#45;&gt;Node2</title>
<path fill="none" stroke="midnightblue" d="M1350.83,-227.381C1260.27,-217.811 1075.72,-198.309 970.685,-187.209"/>
<polygon fill="midnightblue" stroke="midnightblue" points="1350.56,-230.872 1360.87,-228.443 1351.3,-223.911 1350.56,-230.872"/>
</g>
<!-- Node3 -->
<g id="node3" class="node"><title>Node3</title>
<g id="a_node3"><a xlink:href="../../d6/dda/torchtmlstaticcontent_8cpp.html" target="_top" xlink:title="torchtmlstaticcontent.cpp">
<polygon fill="white" stroke="black" points="989,-168.5 989,-187.5 1129,-187.5 1129,-168.5 989,-168.5"/>
<text text-anchor="middle" x="1059" y="-175.5" font-family="Helvetica,sans-Serif" font-size="10.00">torchtmlstaticcontent.cpp</text>
</a>
</g>
</g>
<!-- Node1&#45;&gt;Node3 -->
<g id="edge2" class="edge"><title>Node1&#45;&gt;Node3</title>
<path fill="none" stroke="midnightblue" d="M1350.7,-224.658C1286.29,-214.576 1178.48,-197.701 1113.52,-187.534"/>
<polygon fill="midnightblue" stroke="midnightblue" points="1350.23,-228.127 1360.65,-226.216 1351.32,-221.211 1350.23,-228.127"/>
</g>
<!-- Node4 -->
<g id="node4" class="node"><title>Node4</title>
<g id="a_node4"><a xlink:href="../../d6/da3/torchttprequest_8cpp.html" target="_top" xlink:title="torchttprequest.cpp">
<polygon fill="white" stroke="black" points="1147,-168.5 1147,-187.5 1259,-187.5 1259,-168.5 1147,-168.5"/>
<text text-anchor="middle" x="1203" y="-175.5" font-family="Helvetica,sans-Serif" font-size="10.00">torchttprequest.cpp</text>
</a>
</g>
</g>
<!-- Node1&#45;&gt;Node4 -->
<g id="edge3" class="edge"><title>Node1&#45;&gt;Node4</title>
<path fill="none" stroke="midnightblue" d="M1362.42,-221.829C1324.47,-211.633 1269.19,-196.782 1234.7,-187.516"/>
<polygon fill="midnightblue" stroke="midnightblue" points="1361.59,-225.229 1372.15,-224.444 1363.4,-218.469 1361.59,-225.229"/>
</g>
<!-- Node5 -->
<g id="node5" class="node"><title>Node5</title>
<g id="a_node5"><a xlink:href="../../d0/d90/torchttpservernonce_8h.html" target="_top" xlink:title="torchttpservernonce.h">
<polygon fill="white" stroke="black" points="1277.5,-168.5 1277.5,-187.5 1400.5,-187.5 1400.5,-168.5 1277.5,-168.5"/>
<text text-anchor="middle" x="1339" y="-175.5" font-family="Helvetica,sans-Serif" font-size="10.00">torchttpservernonce.h</text>
</a>
</g>
</g>
<!-- Node1&#45;&gt;Node5 -->
<g id="edge4" class="edge"><title>Node1&#45;&gt;Node5</title>
<path fill="none" stroke="midnightblue" d="M1385.73,-217.82C1374.08,-208.145 1359.4,-195.948 1349.63,-187.834"/>
<polygon fill="midnightblue" stroke="midnightblue" points="1383.63,-220.626 1393.56,-224.324 1388.1,-215.242 1383.63,-220.626"/>
</g>
<!-- Node8 -->
<g id="node8" class="node"><title>Node8</title>
<g id="a_node8"><a xlink:href="../../d1/d77/torchttpservice_8cpp.html" target="_top" xlink:title="torchttpservice.cpp">
<polygon fill="white" stroke="black" points="1539.5,-168.5 1539.5,-187.5 1648.5,-187.5 1648.5,-168.5 1539.5,-168.5"/>
<text text-anchor="middle" x="1594" y="-175.5" font-family="Helvetica,sans-Serif" font-size="10.00">torchttpservice.cpp</text>
</a>
</g>
</g>
<!-- Node1&#45;&gt;Node8 -->
<g id="edge7" class="edge"><title>Node1&#45;&gt;Node8</title>
<path fill="none" stroke="midnightblue" d="M1443.76,-221.699C1479.62,-211.507 1531.57,-196.743 1564.03,-187.516"/>
<polygon fill="midnightblue" stroke="midnightblue" points="1442.77,-218.343 1434.11,-224.444 1444.68,-225.076 1442.77,-218.343"/>
</g>
<!-- Node9 -->
<g id="node9" class="node"><title>Node9</title>
<g id="a_node9"><a xlink:href="../../d7/d7c/torcwebsocketthread_8cpp.html" target="_top" xlink:title="torcwebsocketthread.cpp">
<polygon fill="white" stroke="black" points="1666.5,-168.5 1666.5,-187.5 1803.5,-187.5 1803.5,-168.5 1666.5,-168.5"/>
<text text-anchor="middle" x="1735" y="-175.5" font-family="Helvetica,sans-Serif" font-size="10.00">torcwebsocketthread.cpp</text>
</a>
</g>
</g>
<!-- Node1&#45;&gt;Node9 -->
<g id="edge8" class="edge"><title>Node1&#45;&gt;Node9</title>
<path fill="none" stroke="midnightblue" d="M1457.25,-224.313C1519.28,-214.193 1621.1,-197.582 1682.71,-187.53"/>
<polygon fill="midnightblue" stroke="midnightblue" points="1456.58,-220.876 1447.27,-225.94 1457.71,-227.785 1456.58,-220.876"/>
</g>
<!-- Node10 -->
<g id="node10" class="node"><title>Node10</title>
<g id="a_node10"><a xlink:href="../../dd/dbd/torclocalcontext_8h.html" target="_top" xlink:title="torclocalcontext.h">
<polygon fill="white" stroke="black" points="1419,-168.5 1419,-187.5 1521,-187.5 1521,-168.5 1419,-168.5"/>
<text text-anchor="middle" x="1470" y="-175.5" font-family="Helvetica,sans-Serif" font-size="10.00">torclocalcontext.h</text>
</a>
</g>
</g>
<!-- Node1&#45;&gt;Node10 -->
<g id="edge9" class="edge"><title>Node1&#45;&gt;Node10</title>
<path fill="none" stroke="midnightblue" d="M1422.55,-217.82C1434.38,-208.145 1449.29,-195.948 1459.2,-187.834"/>
<polygon fill="midnightblue" stroke="midnightblue" points="1420.13,-215.283 1414.6,-224.324 1424.56,-220.7 1420.13,-215.283"/>
</g>
<!-- Node41 -->
<g id="node41" class="node"><title>Node41</title>
<g id="a_node41"><a xlink:href="../../d7/def/torcdirectories_8cpp.html" target="_top" xlink:title="torcdirectories.cpp">
<polygon fill="white" stroke="black" points="1822,-168.5 1822,-187.5 1928,-187.5 1928,-168.5 1822,-168.5"/>
<text text-anchor="middle" x="1875" y="-175.5" font-family="Helvetica,sans-Serif" font-size="10.00">torcdirectories.cpp</text>
</a>
</g>
</g>
<!-- Node1&#45;&gt;Node41 -->
<g id="edge48" class="edge"><title>Node1&#45;&gt;Node41</title>
<path fill="none" stroke="midnightblue" d="M1457.29,-227.673C1535.26,-219.753 1684.97,-204.075 1812,-188 1815.18,-187.598 1818.45,-187.171 1821.74,-186.731"/>
<polygon fill="midnightblue" stroke="midnightblue" points="1456.83,-224.202 1447.23,-228.692 1457.53,-231.166 1456.83,-224.202"/>
</g>
<!-- Node6 -->
<g id="node6" class="node"><title>Node6</title>
<g id="a_node6"><a xlink:href="../../de/dc5/torchttpserver_8cpp.html" target="_top" xlink:title="torchttpserver.cpp">
<polygon fill="white" stroke="black" points="148,-0.5 148,-19.5 252,-19.5 252,-0.5 148,-0.5"/>
<text text-anchor="middle" x="200" y="-7.5" font-family="Helvetica,sans-Serif" font-size="10.00">torchttpserver.cpp</text>
</a>
</g>
</g>
<!-- Node5&#45;&gt;Node6 -->
<g id="edge5" class="edge"><title>Node5&#45;&gt;Node6</title>
<path fill="none" stroke="midnightblue" d="M1267.23,-168.326C1142.13,-163.97 226.386,-173.752 186,-132 155.86,-100.84 182.969,-41.9935 194.966,-19.7834"/>
<polygon fill="midnightblue" stroke="midnightblue" points="1267.3,-171.834 1277.46,-168.845 1267.65,-164.843 1267.3,-171.834"/>
</g>
<!-- Node7 -->
<g id="node7" class="node"><title>Node7</title>
<g id="a_node7"><a xlink:href="../../dd/d30/torchttpservernonce_8cpp.html" target="_top" xlink:title="torchttpservernonce.cpp">
<polygon fill="white" stroke="black" points="0,-112.5 0,-131.5 134,-131.5 134,-112.5 0,-112.5"/>
<text text-anchor="middle" x="67" y="-119.5" font-family="Helvetica,sans-Serif" font-size="10.00">torchttpservernonce.cpp</text>
</a>
</g>
</g>
<!-- Node5&#45;&gt;Node7 -->
<g id="edge6" class="edge"><title>Node5&#45;&gt;Node7</title>
<path fill="none" stroke="midnightblue" d="M1267.14,-168.027C769.772,-129.17 641.37,-167.284 148,-132 143.484,-131.677 138.831,-131.294 134.146,-130.871"/>
<polygon fill="midnightblue" stroke="midnightblue" points="1267.22,-171.544 1277.46,-168.84 1267.77,-164.566 1267.22,-171.544"/>
</g>
<!-- Node10&#45;&gt;Node6 -->
<g id="edge19" class="edge"><title>Node10&#45;&gt;Node6</title>
<path fill="none" stroke="midnightblue" d="M1408.44,-168.404C1274.93,-162.979 267.011,-174.334 219,-132 186.144,-103.029 193.863,-42.333 198.131,-19.7288"/>
<polygon fill="midnightblue" stroke="midnightblue" points="1408.61,-171.92 1418.8,-169.004 1409.02,-164.932 1408.61,-171.92"/>
</g>
<!-- Node11 -->
<g id="node11" class="node"><title>Node11</title>
<g id="a_node11"><a xlink:href="../../d3/d4a/torctimercontrol_8cpp.html" target="_top" xlink:title="torctimercontrol.cpp">
<polygon fill="white" stroke="black" points="2666,-112.5 2666,-131.5 2780,-131.5 2780,-112.5 2666,-112.5"/>
<text text-anchor="middle" x="2723" y="-119.5" font-family="Helvetica,sans-Serif" font-size="10.00">torctimercontrol.cpp</text>
</a>
</g>
</g>
<!-- Node10&#45;&gt;Node11 -->
<g id="edge10" class="edge"><title>Node10&#45;&gt;Node11</title>
<path fill="none" stroke="midnightblue" d="M1531.34,-168.003C2028.65,-123.577 2158.04,-171.145 2652,-132 2656.46,-131.647 2661.07,-131.215 2665.7,-130.733"/>
<polygon fill="midnightblue" stroke="midnightblue" points="1530.66,-164.55 1521.01,-168.934 1531.29,-171.522 1530.66,-164.55"/>
</g>
<!-- Node12 -->
<g id="node12" class="node"><title>Node12</title>
<g id="a_node12"><a xlink:href="../../da/dcd/torctransitioncontrol_8cpp.html" target="_top" xlink:title="torctransitioncontrol.cpp">
<polygon fill="white" stroke="black" points="2798,-112.5 2798,-131.5 2932,-131.5 2932,-112.5 2798,-112.5"/>
<text text-anchor="middle" x="2865" y="-119.5" font-family="Helvetica,sans-Serif" font-size="10.00">torctransitioncontrol.cpp</text>
</a>
</g>
</g>
<!-- Node10&#45;&gt;Node12 -->
<g id="edge11" class="edge"><title>Node10&#45;&gt;Node12</title>
<path fill="none" stroke="midnightblue" d="M1531.34,-168.008C2089.34,-119.053 2234.12,-172.706 2789,-132 2791.92,-131.786 2794.89,-131.543 2797.89,-131.276"/>
<polygon fill="midnightblue" stroke="midnightblue" points="1530.67,-164.554 1521.01,-168.921 1531.28,-171.527 1530.67,-164.554"/>
</g>
<!-- Node13 -->
<g id="node13" class="node"><title>Node13</title>
<g id="a_node13"><a xlink:href="../../d0/ddb/torcsysteminput_8cpp.html" target="_top" xlink:title="torcsysteminput.cpp">
<polygon fill="white" stroke="black" points="228.5,-112.5 228.5,-131.5 343.5,-131.5 343.5,-112.5 228.5,-112.5"/>
<text text-anchor="middle" x="286" y="-119.5" font-family="Helvetica,sans-Serif" font-size="10.00">torcsysteminput.cpp</text>
</a>
</g>
</g>
<!-- Node10&#45;&gt;Node13 -->
<g id="edge12" class="edge"><title>Node10&#45;&gt;Node13</title>
<path fill="none" stroke="midnightblue" d="M1408.71,-168.111C939.585,-126.303 817.645,-171.03 353,-132 349.959,-131.745 346.845,-131.448 343.704,-131.122"/>
<polygon fill="midnightblue" stroke="midnightblue" points="1408.52,-171.609 1418.79,-169.019 1409.15,-164.637 1408.52,-171.609"/>
</g>
<!-- Node14 -->
<g id="node14" class="node"><title>Node14</title>
<g id="a_node14"><a xlink:href="../../d1/d5d/torcsystemnotification_8h.html" target="_top" xlink:title="torcsystemnotification.h">
<polygon fill="white" stroke="black" points="362,-112.5 362,-131.5 494,-131.5 494,-112.5 362,-112.5"/>
<text text-anchor="middle" x="428" y="-119.5" font-family="Helvetica,sans-Serif" font-size="10.00">torcsystemnotification.h</text>
</a>
</g>
</g>
<!-- Node10&#45;&gt;Node14 -->
<g id="edge13" class="edge"><title>Node10&#45;&gt;Node14</title>
<path fill="none" stroke="midnightblue" d="M1408.62,-168.096C1006.03,-131.088 901.375,-163.766 503,-132 500.124,-131.771 497.188,-131.514 494.225,-131.237"/>
<polygon fill="midnightblue" stroke="midnightblue" points="1408.51,-171.601 1418.79,-169.04 1409.16,-164.631 1408.51,-171.601"/>
</g>
<!-- Node16 -->
<g id="node16" class="node"><title>Node16</title>
<g id="a_node16"><a xlink:href="../../d6/d7a/server_2main_8cpp.html" target="_top" xlink:title="main.cpp">
<polygon fill="white" stroke="black" points="512.5,-112.5 512.5,-131.5 573.5,-131.5 573.5,-112.5 512.5,-112.5"/>
<text text-anchor="middle" x="543" y="-119.5" font-family="Helvetica,sans-Serif" font-size="10.00">main.cpp</text>
</a>
</g>
</g>
<!-- Node10&#45;&gt;Node16 -->
<g id="edge15" class="edge"><title>Node10&#45;&gt;Node16</title>
<path fill="none" stroke="midnightblue" d="M1408.67,-168.1C1041,-133.972 943.256,-181.124 582,-132 579.246,-131.625 576.4,-131.148 573.559,-130.61"/>
<polygon fill="midnightblue" stroke="midnightblue" points="1408.51,-171.6 1418.79,-169.054 1409.16,-164.631 1408.51,-171.6"/>
</g>
<!-- Node17 -->
<g id="node17" class="node"><title>Node17</title>
<g id="a_node17"><a xlink:href="../../d1/d81/torccentral_8cpp.html" target="_top" xlink:title="torccentral.cpp">
<polygon fill="white" stroke="black" points="591.5,-112.5 591.5,-131.5 680.5,-131.5 680.5,-112.5 591.5,-112.5"/>
<text text-anchor="middle" x="636" y="-119.5" font-family="Helvetica,sans-Serif" font-size="10.00">torccentral.cpp</text>
</a>
</g>
</g>
<!-- Node10&#45;&gt;Node17 -->
<g id="edge16" class="edge"><title>Node10&#45;&gt;Node17</title>
<path fill="none" stroke="midnightblue" d="M1408.76,-168.098C1088.42,-137.195 1004.23,-166.523 689,-132 686.309,-131.705 683.548,-131.362 680.767,-130.985"/>
<polygon fill="midnightblue" stroke="midnightblue" points="1408.5,-171.589 1418.79,-169.078 1409.18,-164.622 1408.5,-171.589"/>
</g>
<!-- Node18 -->
<g id="node18" class="node"><title>Node18</title>
<g id="a_node18"><a xlink:href="../../d6/ddf/torcxsdtest_8cpp.html" target="_top" xlink:title="torcxsdtest.cpp">
<polygon fill="white" stroke="black" points="698.5,-112.5 698.5,-131.5 789.5,-131.5 789.5,-112.5 698.5,-112.5"/>
<text text-anchor="middle" x="744" y="-119.5" font-family="Helvetica,sans-Serif" font-size="10.00">torcxsdtest.cpp</text>
</a>
</g>
</g>
<!-- Node10&#45;&gt;Node18 -->
<g id="edge17" class="edge"><title>Node10&#45;&gt;Node18</title>
<path fill="none" stroke="midnightblue" d="M1408.63,-168.074C1137.11,-140.678 1065.63,-161.603 799,-132 795.923,-131.658 792.755,-131.261 789.569,-130.829"/>
<polygon fill="midnightblue" stroke="midnightblue" points="1408.48,-171.577 1418.79,-169.112 1409.19,-164.613 1408.48,-171.577"/>
</g>
<!-- Node19 -->
<g id="node19" class="node"><title>Node19</title>
<g id="a_node19"><a xlink:href="../../dd/dbf/testtorclocalcontext_8cpp.html" target="_top" xlink:title="testtorclocalcontext.cpp">
<polygon fill="white" stroke="black" points="808,-112.5 808,-131.5 940,-131.5 940,-112.5 808,-112.5"/>
<text text-anchor="middle" x="874" y="-119.5" font-family="Helvetica,sans-Serif" font-size="10.00">testtorclocalcontext.cpp</text>
</a>
</g>
</g>
<!-- Node10&#45;&gt;Node19 -->
<g id="edge18" class="edge"><title>Node10&#45;&gt;Node19</title>
<path fill="none" stroke="midnightblue" d="M1408.68,-168.049C1205.73,-145.374 1152.68,-151.03 954,-132 949.548,-131.574 944.959,-131.113 940.337,-130.634"/>
<polygon fill="midnightblue" stroke="midnightblue" points="1408.45,-171.545 1418.78,-169.186 1409.23,-164.589 1408.45,-171.545"/>
</g>
<!-- Node20 -->
<g id="node20" class="node"><title>Node20</title>
<g id="a_node20"><a xlink:href="../../da/d1a/torchttpservices_8cpp.html" target="_top" xlink:title="torchttpservices.cpp">
<polygon fill="white" stroke="black" points="833,-56.5 833,-75.5 947,-75.5 947,-56.5 833,-56.5"/>
<text text-anchor="middle" x="890" y="-63.5" font-family="Helvetica,sans-Serif" font-size="10.00">torchttpservices.cpp</text>
</a>
</g>
</g>
<!-- Node10&#45;&gt;Node20 -->
<g id="edge20" class="edge"><title>Node10&#45;&gt;Node20</title>
<path fill="none" stroke="midnightblue" d="M1408.81,-168.094C1220.03,-147.865 1161.57,-193.307 987,-132 968.543,-125.518 922.783,-91.8653 901.379,-75.6944"/>
<polygon fill="midnightblue" stroke="midnightblue" points="1408.45,-171.575 1418.78,-169.209 1409.23,-164.619 1408.45,-171.575"/>
</g>
<!-- Node21 -->
<g id="node21" class="node"><title>Node21</title>
<g id="a_node21"><a xlink:href="../../df/d2a/torcpowerosx_8cpp.html" target="_top" xlink:title="torcpowerosx.cpp">
<polygon fill="white" stroke="black" points="1230.5,-112.5 1230.5,-131.5 1331.5,-131.5 1331.5,-112.5 1230.5,-112.5"/>
<text text-anchor="middle" x="1281" y="-119.5" font-family="Helvetica,sans-Serif" font-size="10.00">torcpowerosx.cpp</text>
</a>
</g>
</g>
<!-- Node10&#45;&gt;Node21 -->
<g id="edge21" class="edge"><title>Node10&#45;&gt;Node21</title>
<path fill="none" stroke="midnightblue" d="M1429.99,-165.568C1394.33,-155.381 1342.96,-140.703 1310.81,-131.516"/>
<polygon fill="midnightblue" stroke="midnightblue" points="1429.48,-169.062 1440.05,-168.444 1431.4,-162.331 1429.48,-169.062"/>
</g>
<!-- Node22 -->
<g id="node22" class="node"><title>Node22</title>
<g id="a_node22"><a xlink:href="../../d7/d74/torcrunlooposx_8cpp.html" target="_top" xlink:title="torcrunlooposx.cpp">
<polygon fill="white" stroke="black" points="1350,-112.5 1350,-131.5 1458,-131.5 1458,-112.5 1350,-112.5"/>
<text text-anchor="middle" x="1404" y="-119.5" font-family="Helvetica,sans-Serif" font-size="10.00">torcrunlooposx.cpp</text>
</a>
</g>
</g>
<!-- Node10&#45;&gt;Node22 -->
<g id="edge22" class="edge"><title>Node10&#45;&gt;Node22</title>
<path fill="none" stroke="midnightblue" d="M1451.45,-161.82C1439.62,-152.145 1424.71,-139.948 1414.8,-131.834"/>
<polygon fill="midnightblue" stroke="midnightblue" points="1449.44,-164.7 1459.4,-168.324 1453.87,-159.283 1449.44,-164.7"/>
</g>
<!-- Node23 -->
<g id="node23" class="node"><title>Node23</title>
<g id="a_node23"><a xlink:href="../../d5/d95/torcadminthread_8cpp.html" target="_top" xlink:title="torcadminthread.cpp">
<polygon fill="white" stroke="black" points="1476.5,-112.5 1476.5,-131.5 1593.5,-131.5 1593.5,-112.5 1476.5,-112.5"/>
<text text-anchor="middle" x="1535" y="-119.5" font-family="Helvetica,sans-Serif" font-size="10.00">torcadminthread.cpp</text>
</a>
</g>
</g>
<!-- Node10&#45;&gt;Node23 -->
<g id="edge23" class="edge"><title>Node10&#45;&gt;Node23</title>
<path fill="none" stroke="midnightblue" d="M1488.27,-161.82C1499.92,-152.145 1514.6,-139.948 1524.37,-131.834"/>
<polygon fill="midnightblue" stroke="midnightblue" points="1485.9,-159.242 1480.44,-168.324 1490.37,-164.626 1485.9,-159.242"/>
</g>
<!-- Node24 -->
<g id="node24" class="node"><title>Node24</title>
<g id="a_node24"><a xlink:href="../../dc/d96/torcbonjour_8cpp.html" target="_top" xlink:title="torcbonjour.cpp">
<polygon fill="white" stroke="black" points="1611.5,-112.5 1611.5,-131.5 1702.5,-131.5 1702.5,-112.5 1611.5,-112.5"/>
<text text-anchor="middle" x="1657" y="-119.5" font-family="Helvetica,sans-Serif" font-size="10.00">torcbonjour.cpp</text>
</a>
</g>
</g>
<!-- Node10&#45;&gt;Node24 -->
<g id="edge24" class="edge"><title>Node10&#45;&gt;Node24</title>
<path fill="none" stroke="midnightblue" d="M1509.59,-165.568C1544.87,-155.381 1595.69,-140.703 1627.51,-131.516"/>
<polygon fill="midnightblue" stroke="midnightblue" points="1508.27,-162.307 1499.63,-168.444 1510.21,-169.032 1508.27,-162.307"/>
</g>
<!-- Node25 -->
<g id="node25" class="node"><title>Node25</title>
<g id="a_node25"><a xlink:href="../../d3/df3/torclanguage_8cpp.html" target="_top" xlink:title="torclanguage.cpp">
<polygon fill="white" stroke="black" points="1721,-112.5 1721,-131.5 1821,-131.5 1821,-112.5 1721,-112.5"/>
<text text-anchor="middle" x="1771" y="-119.5" font-family="Helvetica,sans-Serif" font-size="10.00">torclanguage.cpp</text>
</a>
</g>
</g>
<!-- Node10&#45;&gt;Node25 -->
<g id="edge25" class="edge"><title>Node10&#45;&gt;Node25</title>
<path fill="none" stroke="midnightblue" d="M1527.61,-166.664C1584.5,-156.459 1670.45,-141.039 1723.53,-131.516"/>
<polygon fill="midnightblue" stroke="midnightblue" points="1526.92,-163.233 1517.69,-168.444 1528.16,-170.123 1526.92,-163.233"/>
</g>
<!-- Node26 -->
<g id="node26" class="node"><title>Node26</title>
<g id="a_node26"><a xlink:href="../../da/d67/torclocalcontext_8cpp.html" target="_top" xlink:title="torclocalcontext.cpp">
<polygon fill="white" stroke="black" points="1839.5,-112.5 1839.5,-131.5 1952.5,-131.5 1952.5,-112.5 1839.5,-112.5"/>
<text text-anchor="middle" x="1896" y="-119.5" font-family="Helvetica,sans-Serif" font-size="10.00">torclocalcontext.cpp</text>
</a>
</g>
</g>
<!-- Node10&#45;&gt;Node26 -->
<g id="edge26" class="edge"><title>Node10&#45;&gt;Node26</title>
<path fill="none" stroke="midnightblue" d="M1531.26,-167.864C1664.79,-149.981 1700.05,-148.656 1830,-132 1833.1,-131.603 1836.27,-131.19 1839.48,-130.768"/>
<polygon fill="midnightblue" stroke="midnightblue" points="1530.49,-164.436 1521.05,-169.238 1531.43,-171.373 1530.49,-164.436"/>
</g>
<!-- Node27 -->
<g id="node27" class="node"><title>Node27</title>
<g id="a_node27"><a xlink:href="../../da/d9c/torcnetwork_8cpp.html" target="_top" xlink:title="torcnetwork.cpp">
<polygon fill="white" stroke="black" points="1970.5,-112.5 1970.5,-131.5 2063.5,-131.5 2063.5,-112.5 1970.5,-112.5"/>
<text text-anchor="middle" x="2017" y="-119.5" font-family="Helvetica,sans-Serif" font-size="10.00">torcnetwork.cpp</text>
</a>
</g>
</g>
<!-- Node10&#45;&gt;Node27 -->
<g id="edge27" class="edge"><title>Node10&#45;&gt;Node27</title>
<path fill="none" stroke="midnightblue" d="M1531.15,-167.942C1722.65,-146.047 1773.45,-154.87 1961,-132 1964.03,-131.631 1967.15,-131.219 1970.29,-130.78"/>
<polygon fill="midnightblue" stroke="midnightblue" points="1530.56,-164.487 1521.03,-169.113 1531.37,-171.44 1530.56,-164.487"/>
</g>
<!-- Node28 -->
<g id="node28" class="node"><title>Node28</title>
<g id="a_node28"><a xlink:href="../../d5/d9a/torcnetworkedcontext_8h.html" target="_top" xlink:title="torcnetworkedcontext.h">
<polygon fill="white" stroke="black" points="996,-112.5 996,-131.5 1126,-131.5 1126,-112.5 996,-112.5"/>
<text text-anchor="middle" x="1061" y="-119.5" font-family="Helvetica,sans-Serif" font-size="10.00">torcnetworkedcontext.h</text>
</a>
</g>
</g>
<!-- Node10&#45;&gt;Node28 -->
<g id="edge28" class="edge"><title>Node10&#45;&gt;Node28</title>
<path fill="none" stroke="midnightblue" d="M1408.59,-167.966C1303.38,-153.461 1193.92,-139.547 1126.15,-131.071"/>
<polygon fill="midnightblue" stroke="midnightblue" points="1408.37,-171.469 1418.75,-169.371 1409.33,-164.535 1408.37,-171.469"/>
</g>
<!-- Node31 -->
<g id="node31" class="node"><title>Node31</title>
<g id="a_node31"><a xlink:href="../../d2/da7/torcpower_8cpp.html" target="_top" xlink:title="torcpower.cpp">
<polygon fill="white" stroke="black" points="2081.5,-112.5 2081.5,-131.5 2164.5,-131.5 2164.5,-112.5 2081.5,-112.5"/>
<text text-anchor="middle" x="2123" y="-119.5" font-family="Helvetica,sans-Serif" font-size="10.00">torcpower.cpp</text>
</a>
</g>
</g>
<!-- Node10&#45;&gt;Node31 -->
<g id="edge31" class="edge"><title>Node10&#45;&gt;Node31</title>
<path fill="none" stroke="midnightblue" d="M1531.14,-167.972C1771.76,-142.581 1835.61,-160.623 2072,-132 2075.03,-131.633 2078.16,-131.204 2081.31,-130.737"/>
<polygon fill="midnightblue" stroke="midnightblue" points="1530.6,-164.51 1521.03,-169.053 1531.34,-171.47 1530.6,-164.51"/>
</g>
<!-- Node32 -->
<g id="node32" class="node"><title>Node32</title>
<g id="a_node32"><a xlink:href="../../d8/d8c/torcqthread_8cpp.html" target="_top" xlink:title="torcqthread.cpp">
<polygon fill="white" stroke="black" points="2182.5,-112.5 2182.5,-131.5 2275.5,-131.5 2275.5,-112.5 2182.5,-112.5"/>
<text text-anchor="middle" x="2229" y="-119.5" font-family="Helvetica,sans-Serif" font-size="10.00">torcqthread.cpp</text>
</a>
</g>
</g>
<!-- Node10&#45;&gt;Node32 -->
<g id="edge32" class="edge"><title>Node10&#45;&gt;Node32</title>
<path fill="none" stroke="midnightblue" d="M1531.26,-167.975C1816.48,-139.294 1891.77,-162.39 2173,-132 2176.03,-131.672 2179.16,-131.292 2182.3,-130.876"/>
<polygon fill="midnightblue" stroke="midnightblue" points="1530.62,-164.522 1521.02,-169.017 1531.33,-171.486 1530.62,-164.522"/>
</g>
<!-- Node33 -->
<g id="node33" class="node"><title>Node33</title>
<g id="a_node33"><a xlink:href="../../de/d3c/torcsetting_8cpp.html" target="_top" xlink:title="torcsetting.cpp">
<polygon fill="white" stroke="black" points="2293.5,-112.5 2293.5,-131.5 2382.5,-131.5 2382.5,-112.5 2293.5,-112.5"/>
<text text-anchor="middle" x="2338" y="-119.5" font-family="Helvetica,sans-Serif" font-size="10.00">torcsetting.cpp</text>
</a>
</g>
</g>
<!-- Node10&#45;&gt;Node33 -->
<g id="edge33" class="edge"><title>Node10&#45;&gt;Node33</title>
<path fill="none" stroke="midnightblue" d="M1530.99,-168.014C1865.59,-135.704 1953.66,-167.291 2284,-132 2287.02,-131.677 2290.14,-131.294 2293.27,-130.871"/>
<polygon fill="midnightblue" stroke="midnightblue" points="1530.63,-164.532 1521.02,-168.988 1531.31,-171.499 1530.63,-164.532"/>
</g>
<!-- Node34 -->
<g id="node34" class="node"><title>Node34</title>
<g id="a_node34"><a xlink:href="../../d8/d51/torctime_8cpp.html" target="_top" xlink:title="torctime.cpp">
<polygon fill="white" stroke="black" points="2400.5,-112.5 2400.5,-131.5 2477.5,-131.5 2477.5,-112.5 2400.5,-112.5"/>
<text text-anchor="middle" x="2439" y="-119.5" font-family="Helvetica,sans-Serif" font-size="10.00">torctime.cpp</text>
</a>
</g>
</g>
<!-- Node10&#45;&gt;Node34 -->
<g id="edge34" class="edge"><title>Node10&#45;&gt;Node34</title>
<path fill="none" stroke="midnightblue" d="M1531.24,-167.999C1913.03,-132.305 2013.81,-175.022 2391,-132 2394.03,-131.654 2397.16,-131.228 2400.3,-130.75"/>
<polygon fill="midnightblue" stroke="midnightblue" points="1530.64,-164.54 1521.02,-168.968 1531.3,-171.509 1530.64,-164.54"/>
</g>
<!-- Node35 -->
<g id="node35" class="node"><title>Node35</title>
<g id="a_node35"><a xlink:href="../../d5/d2f/torcuser_8cpp.html" target="_top" xlink:title="torcuser.cpp">
<polygon fill="white" stroke="black" points="2496,-112.5 2496,-131.5 2572,-131.5 2572,-112.5 2496,-112.5"/>
<text text-anchor="middle" x="2534" y="-119.5" font-family="Helvetica,sans-Serif" font-size="10.00">torcuser.cpp</text>
</a>
</g>
</g>
<!-- Node10&#45;&gt;Node35 -->
<g id="edge35" class="edge"><title>Node10&#45;&gt;Node35</title>
<path fill="none" stroke="midnightblue" d="M1531.09,-168.019C1955.08,-129.192 2066.75,-178.938 2486,-132 2489.2,-131.642 2492.51,-131.191 2495.82,-130.684"/>
<polygon fill="midnightblue" stroke="midnightblue" points="1530.65,-164.545 1521.02,-168.953 1531.3,-171.515 1530.65,-164.545"/>
</g>
<!-- Node36 -->
<g id="node36" class="node"><title>Node36</title>
<g id="a_node36"><a xlink:href="../../d9/de1/torcssdp_8cpp.html" target="_top" xlink:title="torcssdp.cpp">
<polygon fill="white" stroke="black" points="1404,-0.5 1404,-19.5 1482,-19.5 1482,-0.5 1404,-0.5"/>
<text text-anchor="middle" x="1443" y="-7.5" font-family="Helvetica,sans-Serif" font-size="10.00">torcssdp.cpp</text>
</a>
</g>
</g>
<!-- Node10&#45;&gt;Node36 -->
<g id="edge36" class="edge"><title>Node10&#45;&gt;Node36</title>
<path fill="none" stroke="midnightblue" d="M1531.08,-168.35C1654.18,-163.35 2558.14,-173.221 2598,-132 2751.49,26.7523 2326.91,-75.9823 2107,-56 1870.25,-34.4878 1585.14,-18.487 1482.34,-13.0342"/>
<polygon fill="midnightblue" stroke="midnightblue" points="1530.79,-164.86 1521.01,-168.939 1531.2,-171.848 1530.79,-164.86"/>
</g>
<!-- Node37 -->
<g id="node37" class="node"><title>Node37</title>
<g id="a_node37"><a xlink:href="../../dd/d1e/torcupnp_8h.html" target="_top" xlink:title="torcupnp.h">
<polygon fill="white" stroke="black" points="1144,-112.5 1144,-131.5 1212,-131.5 1212,-112.5 1144,-112.5"/>
<text text-anchor="middle" x="1178" y="-119.5" font-family="Helvetica,sans-Serif" font-size="10.00">torcupnp.h</text>
</a>
</g>
</g>
<!-- Node10&#45;&gt;Node37 -->
<g id="edge37" class="edge"><title>Node10&#45;&gt;Node37</title>
<path fill="none" stroke="midnightblue" d="M1410.23,-166.674C1359.74,-157.837 1285.54,-144.584 1221,-132 1218.16,-131.445 1215.21,-130.857 1212.25,-130.257"/>
<polygon fill="midnightblue" stroke="midnightblue" points="1409.87,-170.163 1420.32,-168.436 1411.07,-163.268 1409.87,-170.163"/>
</g>
<!-- Node40 -->
<g id="node40" class="node"><title>Node40</title>
<g id="a_node40"><a xlink:href="../../d9/db2/torcupnpcontent_8cpp.html" target="_top" xlink:title="torcupnpcontent.cpp">
<polygon fill="white" stroke="black" points="1982,-56.5 1982,-75.5 2098,-75.5 2098,-56.5 1982,-56.5"/>
<text text-anchor="middle" x="2040" y="-63.5" font-family="Helvetica,sans-Serif" font-size="10.00">torcupnpcontent.cpp</text>
</a>
</g>
</g>
<!-- Node10&#45;&gt;Node40 -->
<g id="edge47" class="edge"><title>Node10&#45;&gt;Node40</title>
<path fill="none" stroke="midnightblue" d="M1531.3,-168.341C1654,-163.39 2541.83,-172.536 2581,-132 2587.18,-125.608 2587.02,-118.541 2581,-112 2548.81,-77.0213 2231.35,-69.2265 2098.25,-67.4936"/>
<polygon fill="midnightblue" stroke="midnightblue" points="1530.79,-164.864 1521.01,-168.941 1531.2,-171.853 1530.79,-164.864"/>
</g>
<!-- Node15 -->
<g id="node15" class="node"><title>Node15</title>
<g id="a_node15"><a xlink:href="../../d8/de9/torcsystemnotification_8cpp.html" target="_top" xlink:title="torcsystemnotification.cpp">
<polygon fill="white" stroke="black" points="356.5,-56.5 356.5,-75.5 499.5,-75.5 499.5,-56.5 356.5,-56.5"/>
<text text-anchor="middle" x="428" y="-63.5" font-family="Helvetica,sans-Serif" font-size="10.00">torcsystemnotification.cpp</text>
</a>
</g>
</g>
<!-- Node14&#45;&gt;Node15 -->
<g id="edge14" class="edge"><title>Node14&#45;&gt;Node15</title>
<path fill="none" stroke="midnightblue" d="M428,-101.805C428,-92.9102 428,-82.7798 428,-75.7511"/>
<polygon fill="midnightblue" stroke="midnightblue" points="424.5,-102.083 428,-112.083 431.5,-102.083 424.5,-102.083"/>
</g>
<!-- Node29 -->
<g id="node29" class="node"><title>Node29</title>
<g id="a_node29"><a xlink:href="../../db/d78/torcwebsocket_8cpp.html" target="_top" xlink:title="torcwebsocket.cpp">
<polygon fill="white" stroke="black" points="1125,-56.5 1125,-75.5 1231,-75.5 1231,-56.5 1125,-56.5"/>
<text text-anchor="middle" x="1178" y="-63.5" font-family="Helvetica,sans-Serif" font-size="10.00">torcwebsocket.cpp</text>
</a>
</g>
</g>
<!-- Node28&#45;&gt;Node29 -->
<g id="edge29" class="edge"><title>Node28&#45;&gt;Node29</title>
<path fill="none" stroke="midnightblue" d="M1088.66,-108.232C1110.55,-98.1312 1140.5,-84.3091 1159.55,-75.5164"/>
<polygon fill="midnightblue" stroke="midnightblue" points="1087.15,-105.075 1079.54,-112.444 1090.09,-111.431 1087.15,-105.075"/>
</g>
<!-- Node30 -->
<g id="node30" class="node"><title>Node30</title>
<g id="a_node30"><a xlink:href="../../de/d48/torcnetworkedcontext_8cpp.html" target="_top" xlink:title="torcnetworkedcontext.cpp">
<polygon fill="white" stroke="black" points="965.5,-56.5 965.5,-75.5 1106.5,-75.5 1106.5,-56.5 965.5,-56.5"/>
<text text-anchor="middle" x="1036" y="-63.5" font-family="Helvetica,sans-Serif" font-size="10.00">torcnetworkedcontext.cpp</text>
</a>
</g>
</g>
<!-- Node28&#45;&gt;Node30 -->
<g id="edge30" class="edge"><title>Node28&#45;&gt;Node30</title>
<path fill="none" stroke="midnightblue" d="M1052.66,-102.983C1048.42,-93.8168 1043.45,-83.0922 1040.05,-75.7511"/>
<polygon fill="midnightblue" stroke="midnightblue" points="1049.49,-104.479 1056.87,-112.083 1055.85,-101.538 1049.49,-104.479"/>
</g>
<!-- Node37&#45;&gt;Node20 -->
<g id="edge38" class="edge"><title>Node37&#45;&gt;Node20</title>
<path fill="none" stroke="midnightblue" d="M1133.83,-111.806C1060.16,-97.4017 985.757,-83.9507 938.413,-75.5286"/>
<polygon fill="midnightblue" stroke="midnightblue" points="1133.26,-115.261 1143.75,-113.751 1134.61,-108.392 1133.26,-115.261"/>
</g>
<!-- Node37&#45;&gt;Node29 -->
<g id="edge39" class="edge"><title>Node37&#45;&gt;Node29</title>
<path fill="none" stroke="midnightblue" d="M1178,-101.805C1178,-92.9102 1178,-82.7798 1178,-75.7511"/>
<polygon fill="midnightblue" stroke="midnightblue" points="1174.5,-102.083 1178,-112.083 1181.5,-102.083 1174.5,-102.083"/>
</g>
<!-- Node37&#45;&gt;Node30 -->
<g id="edge40" class="edge"><title>Node37&#45;&gt;Node30</title>
<path fill="none" stroke="midnightblue" d="M1145.84,-108.772C1119.17,-98.6287 1081.93,-84.4669 1058.4,-75.5164"/>
<polygon fill="midnightblue" stroke="midnightblue" points="1144.91,-112.16 1155.5,-112.444 1147.4,-105.618 1144.91,-112.16"/>
</g>
<!-- Node37&#45;&gt;Node36 -->
<g id="edge41" class="edge"><title>Node37&#45;&gt;Node36</title>
<path fill="none" stroke="midnightblue" d="M1222.18,-111.981C1314.06,-97.4002 1358.11,-135.08 1424,-76 1440.28,-61.4013 1442.93,-33.7033 1443.17,-19.6474"/>
<polygon fill="midnightblue" stroke="midnightblue" points="1221.49,-108.55 1212.25,-113.733 1222.7,-115.444 1221.49,-108.55"/>
</g>
<!-- Node38 -->
<g id="node38" class="node"><title>Node38</title>
<g id="a_node38"><a xlink:href="../../dd/d3e/torcssdp_8h.html" target="_top" xlink:title="torcssdp.h">
<polygon fill="white" stroke="black" points="1249.5,-56.5 1249.5,-75.5 1316.5,-75.5 1316.5,-56.5 1249.5,-56.5"/>
<text text-anchor="middle" x="1283" y="-63.5" font-family="Helvetica,sans-Serif" font-size="10.00">torcssdp.h</text>
</a>
</g>
</g>
<!-- Node37&#45;&gt;Node38 -->
<g id="edge42" class="edge"><title>Node37&#45;&gt;Node38</title>
<path fill="none" stroke="midnightblue" d="M1203.81,-107.726C1223.25,-97.7271 1249.35,-84.3065 1266.17,-75.6545"/>
<polygon fill="midnightblue" stroke="midnightblue" points="1202.16,-104.638 1194.87,-112.324 1205.36,-110.863 1202.16,-104.638"/>
</g>
<!-- Node39 -->
<g id="node39" class="node"><title>Node39</title>
<g id="a_node39"><a xlink:href="../../d4/ddf/torcupnp_8cpp.html" target="_top" xlink:title="torcupnp.cpp">
<polygon fill="white" stroke="black" points="1335,-56.5 1335,-75.5 1415,-75.5 1415,-56.5 1335,-56.5"/>
<text text-anchor="middle" x="1375" y="-63.5" font-family="Helvetica,sans-Serif" font-size="10.00">torcupnp.cpp</text>
</a>
</g>
</g>
<!-- Node37&#45;&gt;Node39 -->
<g id="edge45" class="edge"><title>Node37&#45;&gt;Node39</title>
<path fill="none" stroke="midnightblue" d="M1219.23,-109.699C1256.41,-99.507 1310.27,-84.7429 1343.93,-75.5164"/>
<polygon fill="midnightblue" stroke="midnightblue" points="1217.93,-106.424 1209.22,-112.444 1219.78,-113.175 1217.93,-106.424"/>
</g>
<!-- Node37&#45;&gt;Node40 -->
<g id="edge46" class="edge"><title>Node37&#45;&gt;Node40</title>
<path fill="none" stroke="midnightblue" d="M1222.49,-112.013C1512.62,-74.5945 1848.98,-68.2368 1981.88,-67.1789"/>
<polygon fill="midnightblue" stroke="midnightblue" points="1221.65,-108.593 1212.19,-113.357 1222.56,-115.534 1221.65,-108.593"/>
</g>
<!-- Node38&#45;&gt;Node6 -->
<g id="edge43" class="edge"><title>Node38&#45;&gt;Node6</title>
<path fill="none" stroke="midnightblue" d="M1239.13,-56.1635C1026.09,-31.1313 431.923,-16.1995 252.141,-12.13"/>
<polygon fill="midnightblue" stroke="midnightblue" points="1238.94,-59.6657 1249.29,-57.4015 1239.78,-52.7172 1238.94,-59.6657"/>
</g>
<!-- Node38&#45;&gt;Node36 -->
<g id="edge44" class="edge"><title>Node38&#45;&gt;Node36</title>
<path fill="none" stroke="midnightblue" d="M1318.05,-53.172C1348.17,-43.0039 1390.9,-28.5852 1417.77,-19.5164"/>
<polygon fill="midnightblue" stroke="midnightblue" points="1316.71,-49.9295 1308.35,-56.4435 1318.95,-56.5619 1316.71,-49.9295"/>
</g>
</g>
</svg>
