<?xml version="1.0" encoding="UTF-8" standalone="no"?>
<!DOCTYPE svg PUBLIC "-//W3C//DTD SVG 1.1//EN"
 "http://www.w3.org/Graphics/SVG/1.1/DTD/svg11.dtd">
<!-- Generated by graphviz version 2.38.0 (20140413.2041)
 -->
<!-- Title: torccamera.h Pages: 1 -->
<svg width="214pt" height="140pt"
 viewBox="0.00 0.00 213.50 140.00" xmlns="http://www.w3.org/2000/svg" xmlns:xlink="http://www.w3.org/1999/xlink">
<g id="graph0" class="graph" transform="scale(1 1) rotate(0) translate(4 136)">
<title>torccamera.h</title>
<polygon fill="white" stroke="none" points="-4,4 -4,-136 209.5,-136 209.5,4 -4,4"/>
<!-- Node1 -->
<g id="node1" class="node"><title>Node1</title>
<polygon fill="#bfbfbf" stroke="black" points="64,-112.5 64,-131.5 145,-131.5 145,-112.5 64,-112.5"/>
<text text-anchor="middle" x="104.5" y="-119.5" font-family="Helvetica,sans-Serif" font-size="10.00">torccamera.h</text>
</g>
<!-- Node2 -->
<g id="node2" class="node"><title>Node2</title>
<g id="a_node2"><a xlink:href="../../d0/dd4/torcpicamera_8h.html" target="_top" xlink:title="torcpicamera.h">
<polygon fill="white" stroke="black" points="6,-56.5 6,-75.5 95,-75.5 95,-56.5 6,-56.5"/>
<text text-anchor="middle" x="50.5" y="-63.5" font-family="Helvetica,sans-Serif" font-size="10.00">torcpicamera.h</text>
</a>
</g>
</g>
<!-- Node1&#45;&gt;Node2 -->
<g id="edge1" class="edge"><title>Node1&#45;&gt;Node2</title>
<path fill="none" stroke="midnightblue" d="M88.5024,-105.002C78.9329,-95.4329 67.1389,-83.6389 59.2511,-75.7511"/>
<polygon fill="midnightblue" stroke="midnightblue" points="86.037,-107.487 95.583,-112.083 90.9868,-102.537 86.037,-107.487"/>
</g>
<!-- Node4 -->
<g id="node4" class="node"><title>Node4</title>
<g id="a_node4"><a xlink:href="../../d0/d11/torccamera_8cpp.html" target="_top" xlink:title="torccamera.cpp">
<polygon fill="white" stroke="black" points="113.5,-56.5 113.5,-75.5 205.5,-75.5 205.5,-56.5 113.5,-56.5"/>
<text text-anchor="middle" x="159.5" y="-63.5" font-family="Helvetica,sans-Serif" font-size="10.00">torccamera.cpp</text>
</a>
</g>
</g>
<!-- Node1&#45;&gt;Node4 -->
<g id="edge3" class="edge"><title>Node1&#45;&gt;Node4</title>
<path fill="none" stroke="midnightblue" d="M120.794,-105.002C130.541,-95.4329 142.553,-83.6389 150.587,-75.7511"/>
<polygon fill="midnightblue" stroke="midnightblue" points="118.266,-102.58 113.582,-112.083 123.17,-107.575 118.266,-102.58"/>
</g>
<!-- Node3 -->
<g id="node3" class="node"><title>Node3</title>
<g id="a_node3"><a xlink:href="../../d7/de1/torcpicamera_8cpp.html" target="_top" xlink:title="torcpicamera.cpp">
<polygon fill="white" stroke="black" points="0,-0.5 0,-19.5 101,-19.5 101,-0.5 0,-0.5"/>
<text text-anchor="middle" x="50.5" y="-7.5" font-family="Helvetica,sans-Serif" font-size="10.00">torcpicamera.cpp</text>
</a>
</g>
</g>
<!-- Node2&#45;&gt;Node3 -->
<g id="edge2" class="edge"><title>Node2&#45;&gt;Node3</title>
<path fill="none" stroke="midnightblue" d="M50.5,-45.8045C50.5,-36.9102 50.5,-26.7798 50.5,-19.7511"/>
<polygon fill="midnightblue" stroke="midnightblue" points="47.0001,-46.083 50.5,-56.083 54.0001,-46.083 47.0001,-46.083"/>
</g>
</g>
</svg>
